<?xml version="1.0" encoding="UTF-8"?>
<svg width="24" height="24" viewBox="0 0 24 24" xmlns="http://www.w3.org/2000/svg">
 <path d="m16 16.75c-0.29 0-0.56-0.17-0.69-0.45l-3.31-7.45-3.31 7.46c-0.17 0.38-0.61999 0.55-0.98999 0.38-0.38-0.17-0.55-0.61-0.38-0.99l4-9c0.24-0.54 1.13-0.54 1.37 0l4 9c0.17 0.38 0 0.82-0.38 0.99-0.1 0.04-0.21 0.06-0.31 0.06z"/>
 <path d="m12 12.75h-4c-0.41 0-0.75-0.34-0.75-0.75s0.34-0.75 0.75-0.75h4c0.41 0 0.75 0.34 0.75 0.75s-0.34 0.75-0.75 0.75z"/>
 <path d="m12 22.75c-5.93 0-10.75-4.82-10.75-10.75s4.82-10.75 10.75-10.75 10.75 4.82 10.75 10.75-4.82 10.75-10.75 10.75zm0-20c-5.1 0-9.25 4.15-9.25 9.25s4.15 9.25 9.25 9.25 9.25-4.15 9.25-9.25-4.15-9.25-9.25-9.25z"/>
</svg>
