<svg width="24" height="24" viewBox="0 0 24 24"  xmlns="http://www.w3.org/2000/svg">
<path d="M16 16.75C15.71 16.75 15.44 16.58 15.31 16.3L12 8.85L8.69003 16.31C8.52003 16.69 8.07004 16.86 7.70004 16.69C7.32004 16.52 7.15003 16.08 7.32003 15.7L11.32 6.7C11.56 6.16 12.45 6.16 12.69 6.7L16.69 15.7C16.86 16.08 16.69 16.52 16.31 16.69C16.21 16.73 16.1 16.75 16 16.75Z" />
<path d="M12 12.75H8C7.59 12.75 7.25 12.41 7.25 12C7.25 11.59 7.59 11.25 8 11.25H12C12.41 11.25 12.75 11.59 12.75 12C12.75 12.41 12.41 12.75 12 12.75Z" />
<path d="M12 22.75C6.07 22.75 1.25 17.93 1.25 12C1.25 6.07 6.07 1.25 12 1.25C17.93 1.25 22.75 6.07 22.75 12C22.75 17.93 17.93 22.75 12 22.75ZM12 2.75C6.9 2.75 2.75 6.9 2.75 12C2.75 17.1 6.9 21.25 12 21.25C17.1 21.25 21.25 17.1 21.25 12C21.25 6.9 17.1 2.75 12 2.75Z" />
</svg>
