<?xml version="1.0" encoding="UTF-8"?>
<svg width="24" height="24" viewBox="0 0 24 24" xmlns="http://www.w3.org/2000/svg">
 <path d="m8 16.75h-2.57c-2.69 0-4.18-1.48-4.18-4.18v-7.14c0-2.69 1.48-4.18 4.18-4.18h4.57c2.69 0 4.18 1.48 4.18 4.18 0 0.41-0.34 0.75-0.75 0.75s-0.75-0.34-0.75-0.75c0-1.88-0.8-2.68-2.68-2.68h-4.57c-1.88 0-2.68 0.8-2.68 2.68v7.14c0 1.88 0.8 2.68 2.68 2.68h2.57c0.41 0 0.75 0.34 0.75 0.75s-0.34 0.75-0.75 0.75z"/>
 <path d="m18.57 22.75h-4.57c-2.69 0-4.18-1.48-4.18-4.18v-7.14c0-2.69 1.48-4.18 4.18-4.18h4.57c2.69 0 4.18 1.48 4.18 4.18v7.14c0 2.7-1.48 4.18-4.18 4.18zm-4.57-14c-1.88 0-2.68 0.8-2.68 2.68v7.14c0 1.88 0.8 2.68 2.68 2.68h4.57c1.88 0 2.68-0.8 2.68-2.68v-7.14c0-1.88-0.8-2.68-2.68-2.68h-4.57z"/>
 <path d="m18.13 15.75h-3.25c-0.41 0-0.75-0.34-0.75-0.75s0.34-0.75 0.75-0.75h3.25c0.41 0 0.75 0.34 0.75 0.75s-0.34 0.75-0.75 0.75z"/>
 <path d="m16.5 17.38c-0.41 0-0.75-0.34-0.75-0.75v-3.25c0-0.41 0.34-0.75 0.75-0.75s0.75 0.34 0.75 0.75v3.25c0 0.41-0.34 0.75-0.75 0.75z"/>
</svg>
