<?xml version="1.0" encoding="UTF-8"?>
<svg width="24" height="24" viewBox="0 0 24 24" xmlns="http://www.w3.org/2000/svg">
 <path d="m12 13.74c-0.78 0-1.52-0.2999-2.09-0.8599-0.73-0.73-1.02-1.78-0.78-2.81 0.25-1.05 1.09-1.89 2.14-2.14 1.02-0.25 2.07 0.04003 2.81 0.78003s1.02 1.78 0.78 2.81c-0.25 1.05-1.09 1.8899-2.14 2.1399-0.24 0.05-0.48 0.08-0.72 0.08zm0-4.3999c-0.12 0-0.25 0.01999-0.37 0.04999-0.5 0.12-0.9099 0.52997-1.0299 1.0299-0.13 0.52 0.0099 1.0301 0.3799 1.3901 0.37 0.37 0.87 0.5 1.4 0.38 0.5-0.12 0.91-0.5301 1.03-1.0301 0.13-0.52-0.01-1.0299-0.38-1.3899-0.28-0.28-0.64-0.43-1.03-0.43z"/>
 <path d="m6.02 17.97c-0.18 0-0.37001-0.07-0.51001-0.2-1.94-1.8-3.05-4.34-3.05-6.98 0-5.26 4.28-9.54 9.54-9.54 5.26 0 9.5399 4.28 9.5399 9.54 0 2.66-1.0699 5.12-3.0099 6.95-0.3 0.28-0.78 0.27-1.06-0.03s-0.27-0.78 0.03-1.06c1.64-1.54 2.5399-3.61 2.5399-5.85 0-4.43-3.6099-8.04-8.0399-8.04-4.43 0-8.04 3.61-8.04 8.04 0 2.26 0.90999 4.34 2.57 5.88 0.3 0.28 0.32001 0.76 0.04001 1.06-0.15 0.15-0.35 0.23-0.55 0.23z"/>
 <path d="m16 15.3c-0.18 0-0.37-0.07-0.51-0.2-0.3-0.28-0.32-0.76-0.03-1.06 0.83-0.88 1.29-2.04 1.29-3.24 0-2.62-2.13-4.74-4.74-4.74-2.61 0-4.74 2.13-4.74 4.74 0 1.21 0.45999 2.36 1.29 3.24 0.28 0.3 0.27 0.78-0.03 1.06s-0.77999 0.2701-1.06-0.0299c-1.09-1.16-1.7-2.6801-1.7-4.2701 0-3.44 2.8-6.24 6.24-6.24 3.44 0 6.24 2.8 6.24 6.24 0 1.59-0.6 3.1101-1.7 4.2701-0.15 0.15-0.35 0.2299-0.55 0.2299z"/>
 <path d="m13.44 22.75h-2.87c-1.14 0-2.15-0.6399-2.64-1.6599s-0.36-2.2101 0.35-3.1001l1.44-1.79c0.56003-0.7 1.39-1.1 2.29-1.1s1.73 0.4 2.29 1.1l1.44 1.79c0.71 0.89 0.85 2.0801 0.35 3.1001-0.51 1.02-1.52 1.6599-2.65 1.6599zm-2.56-5.62-1.44 1.79c-0.35 0.44-0.41999 1.01-0.16999 1.51 0.24 0.51 0.73002 0.81 1.29 0.81h2.87c0.56 0 1.05-0.3 1.29-0.81s0.18-1.07-0.17-1.51l-1.44-1.79c-0.54-0.68-1.68-0.68-2.23 0z"/>
</svg>
