<svg width="24" height="24" viewBox="0 0 24 24"  xmlns="http://www.w3.org/2000/svg">
<path d="M15.1199 22.75H8.87988C4.84988 22.75 2.43988 21.96 1.99988 17.91C1.91988 17.33 1.87988 16.64 1.87988 15.75V8.25C1.87988 7.39 1.91988 6.68 1.99988 6.08C2.45988 2.02 4.76988 1.25 8.88988 1.25H15.1399C19.2599 1.25 21.5799 2.02 22.0199 6.1C22.1199 6.77 22.1399 7.53 22.1399 8.25V15.75C22.1399 16.62 22.0999 17.31 22.0199 17.93C21.5599 21.98 19.2399 22.75 15.1199 22.75ZM8.87988 2.75C4.62988 2.75 3.76988 3.67 3.47988 6.26C3.39988 6.81 3.36988 7.46 3.36988 8.25V15.75C3.36988 16.57 3.40988 17.19 3.47988 17.72C3.76988 20.33 4.61988 21.25 8.87988 21.25H15.1199C19.3699 21.25 20.2299 20.33 20.5199 17.75C20.5899 17.2 20.6299 16.55 20.6299 15.75V8.25C20.6299 7.59 20.6199 6.89 20.5299 6.29C20.2399 3.67 19.3899 2.75 15.1299 2.75H8.87988Z" />
<path d="M21.2299 9.67H17.1299C16.7199 9.67 16.3799 9.33 16.3799 8.92C16.3799 8.51 16.7199 8.17 17.1299 8.17H21.2299C21.6399 8.17 21.9799 8.51 21.9799 8.92C21.9799 9.33 21.6399 9.67 21.2299 9.67Z" />
<path d="M6.86988 9.67H2.76988C2.35988 9.67 2.01988 9.33 2.01988 8.92C2.01988 8.51 2.35988 8.17 2.76988 8.17H6.86988C7.27988 8.17 7.61988 8.51 7.61988 8.92C7.61988 9.33 7.27988 9.67 6.86988 9.67Z" />
<path d="M15.0799 11.72H8.91988C8.16988 11.72 7.44988 11.42 6.92988 10.88C6.40988 10.38 6.11988 9.67 6.11988 8.92C6.11988 7.38 7.37988 6.12 8.91988 6.12H15.0699C15.8199 6.12 16.5399 6.43 17.0599 6.96C17.5799 7.47 17.8799 8.17 17.8799 8.92C17.8799 10.46 16.6199 11.72 15.0799 11.72ZM8.91988 7.62C8.19988 7.62 7.61988 8.2 7.61988 8.92C7.61988 9.27 7.74988 9.59 7.98988 9.82C8.23988 10.08 8.56988 10.22 8.91988 10.22H15.0799C15.7999 10.22 16.3799 9.64 16.3799 8.92C16.3799 8.58 16.2399 8.26 15.9999 8.02C15.7499 7.76 15.4199 7.62 15.0699 7.62H8.91988Z" />
</svg>
