<?xml version="1.0" encoding="UTF-8"?>
<svg width="24" height="24" viewBox="0 0 24 24" xmlns="http://www.w3.org/2000/svg">
 <path d="m8.5802 22.55c-0.22 0-0.45-0.04-0.66-0.13-0.47-0.2-0.83-0.59-0.99-1.08l-0.44-1.32c-0.2-0.6-0.02-1.35 0.42-1.8l2.27-2.28c0.03001-0.03 0.07-0.14 0.07-0.19v-2.47l-4.56 1.97c-0.61 0.26-1.23 0.23-1.7-0.08s-0.75-0.87-0.75-1.52v-1.29c0-0.98 0.7-2.03 1.59-2.38l5.41-2.34v-2.84c0-1.21 0.84997-2.6 1.93-3.16 0.52-0.26 1.12-0.26 1.63 0 1.09 0.56 1.94 1.94 1.94 3.15v2.84l5.44 2.34c0.89 0.37999 1.57 1.4 1.57 2.39v1.29c0 0.66-0.27 1.21-0.75 1.52s-1.09 0.34-1.7 0.09l-4.56-1.97v2.47c0 0.04 0.04 0.14 0.07 0.17l2.28 2.29c0.44 0.44 0.62 1.21 0.42 1.8l-0.44 1.32c-0.17 0.49-0.53 0.88-1.01 1.07-0.47 0.19-0.99 0.17-1.44-0.05-0.05-0.03-0.1-0.06-0.15-0.1l-2.33-1.96c-0.08-0.07-0.24-0.06-0.31 0l-2.33 1.96c-0.04 0.04-0.09 0.07-0.14 0.09-0.24 0.14-0.51 0.2-0.78 0.2zm0.98001-10.91c0.23 0 0.44996 0.06 0.63996 0.19 0.35 0.23 0.55 0.62 0.55 1.08v2.85c0 0.43-0.21 0.94-0.51 1.24l-2.27 2.28c-0.04 0.05-0.08 0.2-0.06 0.26l0.44 1.33c0.03001 0.1 0.1 0.14 0.14 0.16 0.03 0.01 0.08 0.03 0.14 0.01l2.24-1.89c0.63-0.54 1.62-0.54 2.25 0l2.23 1.88c0.07 0.01 0.12 0 0.15-0.01 0.04-0.02 0.12-0.06 0.15-0.16l0.44-1.32c0.02-0.07-0.02-0.22-0.06-0.26l-2.27-2.28c-0.3-0.28-0.52-0.8-0.52-1.24v-2.85c0-0.45 0.19-0.84 0.53-1.07s0.78-0.26 1.2-0.08l4.92 2.12c0.15 0.06 0.25 0.06 0.28 0.04s0.07-0.11 0.07-0.27v-1.29c0-0.38-0.32-0.87-0.66-1.01l-5.58-2.41c-0.44-0.19-0.75-0.67-0.75-1.15v-3c0-0.66-0.52-1.51-1.12-1.81-0.08-0.04-0.18-0.04-0.27 0-0.58 0.3-1.11 1.17-1.11 1.82v3c0 0.47-0.31 0.96-0.75 1.15l-5.58 2.41c-0.35 0.14-0.67 0.63-0.67 1v1.29c0 0.16 0.04 0.25 0.07 0.27s0.13 0.02 0.28-0.04l4.91-2.12c0.18-0.08 0.37001-0.12 0.55001-0.12z"/>
</svg>
