<?xml version="1.0" encoding="UTF-8"?>
<svg width="24" height="24" viewBox="0 0 24 24" xmlns="http://www.w3.org/2000/svg">
 <path d="m14.46 19.83c-0.23 0-0.46-0.05-0.67-0.16-0.05-0.03-0.1-0.06-0.14-0.1l-1.67-1.42-1.64 1.42c-0.05 0.04-0.1 0.07-0.15 0.1-0.38998 0.19-0.82998 0.21-1.22 0.04-0.4-0.17-0.7-0.5-0.84-0.91l-0.32-0.96c-0.17-0.5-0.02-1.13 0.35-1.51l1.67-1.64-0.01-1.45-3.01 1.29c-0.5 0.21-1.02 0.19-1.42-0.08-0.39-0.25-0.62-0.72-0.62-1.26v-0.93c0-0.78 0.54-1.61 1.26-1.92l3.79-1.63v-1.91c0-0.98 0.64998-2.04 1.52-2.46 0.43-0.21 0.92-0.21 1.35 0 0.87 0.45 1.52 1.51 1.52 2.46v1.91l3.79 1.63c0.72 0.3 1.26 1.13 1.26 1.92v0.93c0 0.54-0.23 1.01-0.64 1.27s-0.92 0.29-1.42 0.08l-3-1.29v1.47l1.63 1.63c0.37 0.37 0.52 1.01 0.35 1.51l-0.32 0.95c-0.14 0.41-0.44 0.74-0.84 0.9-0.18 0.08-0.37 0.12-0.56 0.12zm-2.46-3.16c0.34 0 0.67 0.11 0.94 0.32l1.55 1.32 0.27-0.93-1.63-1.62c-0.26-0.25-0.43-0.67-0.43-1.04v-1.85c0-0.45 0.19-0.84 0.53-1.07s0.78-0.26 1.2-0.08l3.32 1.42 0.01-0.88c0-0.19-0.18-0.47-0.35-0.54l-3.95-1.7c-0.43-0.17998-0.75-0.65998-0.75-1.15v-2.07c0-0.39-0.34-0.94-0.69-1.12-0.36 0.18-0.7 0.72-0.7 1.12v2.07c0 0.47-0.31 0.96-0.75 1.15l-3.94 1.7c-0.17 0.07-0.36 0.36-0.36 0.54v0.88l3.31-1.41c0.41-0.18 0.83998-0.16 1.19 0.07s0.55 0.62 0.55 1.08v1.85c0 0.36-0.17 0.78-0.43 1.04l-1.68 1.65 0.32 0.88 1.51-1.28c0.28-0.23 0.62-0.35 0.96-0.35zm2.05-8.03 0.01 0.01c0-0.01-0.01-0.01-0.01-0.01z"/>
 <path d="m15 22.75h-6c-5.43 0-7.75-2.32-7.75-7.75v-6c0-5.43 2.32-7.75 7.75-7.75h6c5.43 0 7.75 2.32 7.75 7.75v6c0 5.43-2.32 7.75-7.75 7.75zm-6-20c-4.61 0-6.25 1.64-6.25 6.25v6c0 4.61 1.64 6.25 6.25 6.25h6c4.61 0 6.25-1.64 6.25-6.25v-6c0-4.61-1.64-6.25-6.25-6.25h-6z"/>
</svg>
