<?xml version="1.0" encoding="UTF-8"?>
<svg width="24" height="24" viewBox="0 0 24 24" xmlns="http://www.w3.org/2000/svg">
 <path d="m15.12 22.75h-6.24c-4.03 0-6.44-0.79-6.88-4.84-0.08-0.58-0.12-1.27-0.12-2.16v-7.5c0-0.86 0.04-1.57 0.12-2.17 0.46-4.06 2.77-4.83 6.89-4.83h6.25c4.12 0 6.44 0.77 6.88 4.85 0.1 0.67 0.12 1.43 0.12 2.15v7.5c0 0.87-0.04 1.56-0.12 2.18-0.46 4.05-2.78 4.82-6.9 4.82zm-6.24-20c-4.25 0-5.11 0.92-5.4 3.51-0.08 0.55-0.11 1.2-0.11 1.99v7.5c0 0.82 0.04 1.44 0.11 1.97 0.29 2.61 1.14 3.53 5.4 3.53h6.24c4.25 0 5.11-0.92 5.4-3.5 0.07-0.55 0.11-1.2 0.11-2v-7.5c0-0.66-0.01-1.36-0.1-1.96-0.29-2.62-1.14-3.54-5.4-3.54h-6.25z"/>
 <path d="m21.23 9.6699h-4.1c-0.41 0-0.75-0.34-0.75-0.75s0.34-0.75 0.75-0.75h4.1c0.41 0 0.75 0.34 0.75 0.75s-0.34 0.75-0.75 0.75z"/>
 <path d="m6.87 9.6699h-4.1c-0.41 0-0.75-0.34-0.75-0.75s0.34-0.75 0.75-0.75h4.1c0.41 0 0.75 0.34 0.75 0.75s-0.34 0.75-0.75 0.75z"/>
 <path d="m15.08 11.72h-6.16c-0.75 0-1.47-0.3-1.99-0.84-0.52-0.5-0.81-1.21-0.81-1.96 0-1.54 1.26-2.8 2.8-2.8h6.15c0.75 0 1.47 0.31 1.99 0.84 0.52 0.51 0.82 1.21 0.82 1.96 0 1.54-1.26 2.8-2.8 2.8zm-6.16-4.1c-0.72 0-1.3 0.58-1.3 1.3 0 0.35 0.13 0.67 0.37 0.9 0.25 0.25998 0.58 0.39998 0.93 0.39998h6.16c0.72 0 1.3-0.57998 1.3-1.3 0-0.34-0.14-0.66-0.38-0.9-0.25-0.26-0.58-0.4-0.93-0.4h-6.15z"/>
</svg>
