<?xml version="1.0" encoding="UTF-8"?>
<svg width="24" height="24" viewBox="0 0 24 24" xmlns="http://www.w3.org/2000/svg">
 <path d="m8.6102 19.75c-1.46 0-2.64-1.18-2.64-2.64v-6.81h-0.20002c-2.5 0-4.53-2.0299-4.53-4.5299s2.03-4.53 4.53-4.53h1.89c1.98 0 3.58 1.61 3.58 3.58v12.28c0.01 1.47-1.17 2.65-2.63 2.65zm-2.83-17c-1.67 0-3.03 1.36-3.03 3.03s1.36 3.03 3.03 3.03h0.95002c0.40999 0 0.75 0.34 0.75 0.75v7.56c0 0.63 0.50998 1.1401 1.14 1.1401s1.14-0.5101 1.14-1.1401v-12.28c0-1.15-0.93001-2.08-2.08-2.08h-1.9v-0.01001z"/>
 <path d="m5.7798 7.47c-0.93 0-1.69-0.75995-1.69-1.7s0.76001-1.69 1.69-1.69c0.41 0 0.75 0.34 0.75 0.75s-0.34 0.75-0.75 0.75c-0.11 0-0.19001 0.09-0.19001 0.19s0.09001 0.19995 0.19001 0.19995c0.41 0 0.75 0.34 0.75 0.75s-0.34 0.75-0.75 0.75z"/>
 <path d="m15.39 19.75c-1.46 0-2.64-1.18-2.64-2.64v-12.28c0-1.98 1.61-3.58 3.58-3.58h1.89c2.5 0 4.53 2.03 4.53 4.53s-2.03 4.53-4.53 4.53h-0.2v6.81c0.01 1.45-1.18 2.63-2.63 2.63zm0.94-17c-1.15 0-2.08 0.93002-2.08 2.08v12.28c0 0.63 0.51 1.14 1.14 1.14s1.14-0.51 1.14-1.14v-7.56c0-0.41 0.34-0.75 0.75-0.75h0.95c1.67 0 3.03-1.36 3.03-3.03s-1.36-3.03-3.03-3.03h-1.9v0.01001z"/>
 <path d="m18.22 7.47c-0.41 0-0.75-0.34-0.75-0.75s0.34-0.75 0.75-0.75c0.11 0 0.19-0.08995 0.19-0.19995s-0.09-0.19-0.19-0.19c-0.41 0-0.75-0.34-0.75-0.75s0.34-0.75 0.75-0.75c0.93 0 1.69 0.76 1.69 1.69s-0.75 1.7-1.69 1.7z"/>
 <path d="m8.5 22.75c-0.41 0-0.75-0.34-0.75-0.75v-3c0-0.41 0.34-0.75 0.75-0.75s0.75 0.34 0.75 0.75v3c0 0.41-0.34 0.75-0.75 0.75z"/>
 <path d="m15.5 22.75c-0.41 0-0.75-0.34-0.75-0.75v-3c0-0.41 0.34-0.75 0.75-0.75s0.75 0.34 0.75 0.75v3c0 0.41-0.34 0.75-0.75 0.75z"/>
</svg>
