<?xml version="1.0" encoding="UTF-8"?>
<svg width="24" height="24" viewBox="0 0 24 24" xmlns="http://www.w3.org/2000/svg">
 <path d="m22 22.75h-20c-0.41 0-0.75-0.34-0.75-0.75s0.34-0.75 0.75-0.75h20c0.41 0 0.75 0.34 0.75 0.75s-0.34 0.75-0.75 0.75z"/>
 <path d="m21 22.75h-18c-0.41 0-0.75-0.34-0.75-0.75v-7c0-5.38 4.37-9.75 9.75-9.75s9.75 4.37 9.75 9.75v7c0 0.41-0.34 0.75-0.75 0.75zm-17.25-1.5h16.5v-6.25c0-4.55-3.7-8.25-8.25-8.25s-8.25 3.7-8.25 8.25v6.25z"/>
 <path d="m12 3.75c-0.41 0-0.75-0.34-0.75-0.75v-1c0-0.41 0.34-0.75 0.75-0.75s0.75 0.34 0.75 0.75v1c0 0.41-0.34 0.75-0.75 0.75z"/>
 <path d="m4.9999 5.7499c-0.19 0-0.38-0.07-0.53-0.22l-1-1c-0.29-0.29-0.29-0.77 0-1.06s0.77-0.29 1.06 0l1 1c0.29 0.29 0.29 0.77 0 1.06-0.15 0.15-0.34 0.22-0.53 0.22z"/>
 <path d="m19 5.7499c-0.19 0-0.38-0.07-0.53-0.22-0.29-0.29-0.29-0.77 0-1.06l1-1c0.29-0.29 0.77-0.29 1.06 0s0.29 0.77 0 1.06l-1 1c-0.15 0.15-0.34 0.22-0.53 0.22z"/>
</svg>
