<?xml version="1.0" encoding="UTF-8"?>
<svg width="24" height="24" viewBox="0 0 24 24" xmlns="http://www.w3.org/2000/svg">
 <path d="m17.4 20h-10.8c-1.92 0-2.85-0.98-2.85-2.98v-1.04c0-2 0.93-2.98 2.85-2.98h10.8c1.92 0 2.85 0.98 2.85 2.98v1.04c0 2-0.93 2.98-2.85 2.98zm-10.8-5.5c-1.01 0-1.35 0.21-1.35 1.48v1.04c0 1.27 0.34 1.48 1.35 1.48h10.8c1.01 0 1.35-0.21 1.35-1.48v-1.04c0-1.27-0.34-1.48-1.35-1.48h-10.8z"/>
 <path d="m15.4 11.5h-6.8c-1.92 0-2.85-0.98-2.85-2.98v-1.04c0-2.01 0.93-2.98 2.85-2.98h6.8c1.92 0 2.85 0.98 2.85 2.98v1.04c0 2-0.93 2.98-2.85 2.98zm-6.8-5.5c-1.01 0-1.35 0.21-1.35 1.48v1.04c0 1.27 0.34 1.48 1.35 1.48h6.8c1.01 0 1.35-0.21 1.35-1.48v-1.04c0-1.27-0.34-1.48-1.35-1.48h-6.8z"/>
 <path d="m12 22.75c-0.41 0-0.75-0.34-0.75-0.75v-2.4c0-0.41 0.34-0.75 0.75-0.75s0.75 0.34 0.75 0.75v2.4c0 0.41-0.34 0.75-0.75 0.75z"/>
 <path d="m12 13.75c-0.41 0-0.75-0.34-0.75-0.75v-2c0-0.41 0.34-0.75 0.75-0.75s0.75 0.34 0.75 0.75v2c0 0.41-0.34 0.75-0.75 0.75z"/>
 <path d="m12 5.44c-0.41 0-0.75-0.34-0.75-0.75v-2.69c0-0.41 0.34-0.75 0.75-0.75s0.75 0.33 0.75 0.75v2.69c0 0.42-0.34 0.75-0.75 0.75z"/>
</svg>
