<?xml version="1.0" encoding="UTF-8"?>
<svg width="24" height="24" viewBox="0 0 24 24" xmlns="http://www.w3.org/2000/svg">
 <path d="m18.9 20h-11.8c-1.92 0-2.85-0.98-2.85-2.98v-1.04c0-2 0.93-2.98 2.85-2.98h11.8c0.41 0 0.75 0.34 0.75 0.75s-0.34 0.75-0.75 0.75h-11.8c-1.01 0-1.35 0.21-1.35 1.48v1.04c0 1.27 0.34 1.48 1.35 1.48h11.8c0.41 0 0.75 0.34 0.75 0.75s-0.34 0.75-0.75 0.75z"/>
 <path d="m18.9 11.5h-6.8c-1.92 0-2.85-0.98-2.85-2.98v-1.04c0-2.01 0.93-2.98 2.85-2.98h6.8c0.41 0 0.75 0.34 0.75 0.75s-0.34 0.75-0.75 0.75h-6.8c-1.01 0-1.35 0.21-1.35 1.48v1.04c0 1.27 0.34 1.48 1.35 1.48h6.8c0.41 0 0.75 0.34 0.75 0.75s-0.34 0.75-0.75 0.75z"/>
 <path d="m19 22.74c-0.41 0-0.75-0.34-0.75-0.75v-20c0-0.41 0.34-0.75 0.75-0.75s0.75 0.34 0.75 0.75v20c0 0.41-0.34 0.75-0.75 0.75z"/>
</svg>
