<?xml version="1.0" encoding="UTF-8"?>
<svg width="24" height="24" viewBox="0 0 24 24" xmlns="http://www.w3.org/2000/svg">
 <path d="m8.02 20.25h-1.04c-2.01 0-2.98-0.93-2.98-2.85v-10.8c0-1.92 0.98-2.85 2.98-2.85h1.04c2 0 2.98 0.93 2.98 2.85v10.8c0 1.92-0.98 2.85-2.98 2.85zm-1.04-15c-1.27 0-1.48 0.34-1.48 1.35v10.8c0 1.01 0.21 1.35 1.48 1.35h1.04c1.27 0 1.48-0.34 1.48-1.35v-10.8c0-1.01-0.21-1.35-1.48-1.35h-1.04z"/>
 <path d="m16.52 18.25h-1.04c-2.01 0-2.98-0.93-2.98-2.85v-6.8c0-1.92 0.98-2.85 2.98-2.85h1.04c2.01 0 2.98 0.93 2.98 2.85v6.8c0 1.92-0.98 2.85-2.98 2.85zm-1.04-11c-1.27 0-1.48 0.34-1.48 1.35v6.8c0 1.01 0.21 1.35 1.48 1.35h1.04c1.27 0 1.48-0.34 1.48-1.35v-6.8c0-1.01-0.21-1.35-1.48-1.35h-1.04z"/>
 <path d="m4.4 12.75h-2.4c-0.41 0-0.75-0.34-0.75-0.75s0.33-0.75 0.75-0.75h2.4c0.41 0 0.75 0.34 0.75 0.75s-0.33 0.75-0.75 0.75z"/>
 <path d="m13 12.75h-2c-0.41 0-0.75-0.34-0.75-0.75s0.34-0.75 0.75-0.75h2c0.41 0 0.75 0.34 0.75 0.75s-0.34 0.75-0.75 0.75z"/>
 <path d="m22 12.75h-2.7c-0.41 0-0.75-0.34-0.75-0.75s0.34-0.75 0.75-0.75h2.7c0.41 0 0.75 0.34 0.75 0.75s-0.33 0.75-0.75 0.75z"/>
</svg>
