<?xml version="1.0" encoding="UTF-8"?>
<svg width="24" height="24" viewBox="0 0 24 24" xmlns="http://www.w3.org/2000/svg">
 <path d="m17.03 19.75h-1.04c-2.01 0-2.98-0.93-2.98-2.85v-11.8c0-0.41 0.34-0.75 0.75-0.75s0.75 0.34 0.75 0.75v11.8c0 1.01 0.21 1.35 1.48 1.35h1.04c1.27 0 1.48-0.34 1.48-1.35v-11.8c0-0.41 0.34-0.75 0.75-0.75s0.75 0.34 0.75 0.75v11.8c0 1.92-0.97 2.85-2.98 2.85z"/>
 <path d="m8.5298 14.75h-1.04c-2.01 0-2.98-0.93-2.98-2.85v-6.8c0-0.41 0.34-0.75 0.75-0.75s0.75 0.34 0.75 0.75v6.8c0 1.01 0.21 1.35 1.48 1.35h1.04c1.27 0 1.48-0.34 1.48-1.35v-6.8c0-0.41 0.34-0.75 0.75-0.75s0.75 0.34 0.75 0.75v6.8c0 1.92-0.97 2.85-2.98 2.85z"/>
 <path d="m22 5.75h-20c-0.42 0-0.75-0.34-0.75-0.75s0.33-0.75 0.75-0.75h20c0.41 0 0.75 0.34 0.75 0.75s-0.33 0.75-0.75 0.75z"/>
</svg>
