<svg width="24" height="24" viewBox="0 0 24 24"  xmlns="http://www.w3.org/2000/svg">
<path d="M10 22.7504C9.04 22.7504 8.25 21.9604 8.25 21.0004V18.0004C8.25 17.5904 8.59 17.2504 9 17.2504H11C11.41 17.2504 11.75 17.5904 11.75 18.0004V21.0004C11.75 21.9604 10.96 22.7504 10 22.7504ZM9.75 18.7504V21.0004C9.75 21.2704 10.25 21.2704 10.25 21.0004V18.7504H9.75Z" />
<path d="M14 22.7504C13.04 22.7504 12.25 21.9604 12.25 21.0004V18.0004C12.25 17.5904 12.59 17.2504 13 17.2504H15C15.41 17.2504 15.75 17.5904 15.75 18.0004V21.0004C15.75 21.9604 14.96 22.7504 14 22.7504ZM13.75 18.7504V21.0004C13.75 21.2704 14.25 21.2704 14.25 21.0004V18.7504H13.75Z" />
<path d="M15 18.7504H9C7.48 18.7504 6.25 17.5204 6.25 16.0004V11.0004C6.25 9.4804 7.48 8.2504 9 8.2504H15C16.52 8.2504 17.75 9.4804 17.75 11.0004V16.0004C17.75 17.5204 16.52 18.7504 15 18.7504ZM9 9.7504C8.31 9.7504 7.75 10.3104 7.75 11.0004V16.0004C7.75 16.6904 8.31 17.2504 9 17.2504H15C15.69 17.2504 16.25 16.6904 16.25 16.0004V11.0004C16.25 10.3104 15.69 9.7504 15 9.7504H9Z" />
<path d="M4 16.7504C3.04 16.7504 2.25 15.9604 2.25 15.0004V11.0004C2.25 10.0404 3.04 9.2504 4 9.2504C4.96 9.2504 5.75 10.0404 5.75 11.0004V15.0004C5.75 15.9604 4.96 16.7504 4 16.7504ZM4 10.7504C3.86 10.7504 3.75 10.8604 3.75 11.0004V15.0004C3.75 15.2804 4.25 15.2804 4.25 15.0004V11.0004C4.25 10.8604 4.14 10.7504 4 10.7504Z" />
<path d="M20 16.7504C19.04 16.7504 18.25 15.9604 18.25 15.0004V11.0004C18.25 10.0404 19.04 9.2504 20 9.2504C20.96 9.2504 21.75 10.0404 21.75 11.0004V15.0004C21.75 15.9604 20.96 16.7504 20 16.7504ZM20 10.7504C19.86 10.7504 19.75 10.8604 19.75 11.0004V15.0004C19.75 15.2804 20.25 15.2804 20.25 15.0004V11.0004C20.25 10.8604 20.14 10.7504 20 10.7504Z" />
<path d="M13 18.7504H11C10.59 18.7504 10.25 18.4104 10.25 18.0004C10.25 17.5904 10.59 17.2504 11 17.2504H13C13.41 17.2504 13.75 17.5904 13.75 18.0004C13.75 18.4104 13.41 18.7504 13 18.7504Z" />
<path d="M14.4 7.7504H9.59998C8.29998 7.7504 7.25 6.70039 7.25 5.40039C7.25 2.78039 9.38 0.650391 12 0.650391C14.62 0.650391 16.75 2.78039 16.75 5.40039C16.75 6.70039 15.7 7.7504 14.4 7.7504ZM12 2.15039C10.21 2.15039 8.75 3.61039 8.75 5.40039C8.75 5.87039 9.12998 6.2504 9.59998 6.2504H14.4C14.87 6.2504 15.25 5.87039 15.25 5.40039C15.25 3.61039 13.79 2.15039 12 2.15039Z" />
</svg>
