<?xml version="1.0" encoding="UTF-8"?>
<svg width="24" height="24" viewBox="0 0 24 24" xmlns="http://www.w3.org/2000/svg">
 <path d="m10 22.75c-0.96 0-1.75-0.79-1.75-1.75v-3c0-0.41 0.34-0.75 0.75-0.75h2c0.41 0 0.75 0.34 0.75 0.75v3c0 0.96-0.79 1.75-1.75 1.75zm-0.25-4v2.25c0 0.27 0.5 0.27 0.5 0v-2.25h-0.5z"/>
 <path d="m14 22.75c-0.96 0-1.75-0.79-1.75-1.75v-3c0-0.41 0.34-0.75 0.75-0.75h2c0.41 0 0.75 0.34 0.75 0.75v3c0 0.96-0.79 1.75-1.75 1.75zm-0.25-4v2.25c0 0.27 0.5 0.27 0.5 0v-2.25h-0.5z"/>
 <path d="m15 18.75h-6c-1.52 0-2.75-1.23-2.75-2.75v-5c0-1.52 1.23-2.75 2.75-2.75h6c1.52 0 2.75 1.23 2.75 2.75v5c0 1.52-1.23 2.75-2.75 2.75zm-6-9c-0.69 0-1.25 0.56-1.25 1.25v5c0 0.69 0.56 1.25 1.25 1.25h6c0.69 0 1.25-0.56 1.25-1.25v-5c0-0.69-0.56-1.25-1.25-1.25h-6z"/>
 <path d="m4 16.75c-0.96 0-1.75-0.79-1.75-1.75v-4c0-0.96 0.79-1.75 1.75-1.75s1.75 0.79 1.75 1.75v4c0 0.96-0.79 1.75-1.75 1.75zm0-6c-0.14 0-0.25 0.11-0.25 0.25v4c0 0.28 0.5 0.28 0.5 0v-4c0-0.14-0.11-0.25-0.25-0.25z"/>
 <path d="m20 16.75c-0.96 0-1.75-0.79-1.75-1.75v-4c0-0.96 0.79-1.75 1.75-1.75s1.75 0.79 1.75 1.75v4c0 0.96-0.79 1.75-1.75 1.75zm0-6c-0.14 0-0.25 0.11-0.25 0.25v4c0 0.28 0.5 0.28 0.5 0v-4c0-0.14-0.11-0.25-0.25-0.25z"/>
 <path d="m13 18.75h-2c-0.41 0-0.75-0.34-0.75-0.75s0.34-0.75 0.75-0.75h2c0.41 0 0.75 0.34 0.75 0.75s-0.34 0.75-0.75 0.75z"/>
 <path d="m14.4 7.7504h-4.8c-1.3 0-2.35-1.05-2.35-2.35 0-2.62 2.13-4.75 4.75-4.75s4.75 2.13 4.75 4.75c0 1.3-1.05 2.35-2.35 2.35zm-2.4-5.6c-1.79 0-3.25 1.46-3.25 3.25 0 0.47 0.37998 0.85001 0.84998 0.85001h4.8c0.47 0 0.85-0.38001 0.85-0.85001 0-1.79-1.46-3.25-3.25-3.25z"/>
</svg>
