<?xml version="1.0" encoding="UTF-8"?>
<svg width="24" height="24" viewBox="0 0 24 24" xmlns="http://www.w3.org/2000/svg">
 <path d="m20.89 10.53c-0.41 0-0.75-0.34-0.75-0.74998v-2.87l-8.14-4.07-8.14 4.07v2.87c0 0.40998-0.34 0.74998-0.75 0.74998s-0.75-0.34-0.75-0.74998v-3.33c0-0.28 0.16005-0.53999 0.42005-0.67l8.89-4.44c0.21-0.11 0.46-0.11 0.67 0l8.89 4.44c0.25 0.13001 0.42 0.39 0.42 0.67v3.33c-0.01 0.40998-0.35 0.74998-0.76 0.74998z"/>
 <path d="m12 22.75c-0.12 0-0.23-0.03-0.33-0.08l-8.89-4.44c-0.25-0.13-0.42005-0.39-0.42005-0.67v-3.33c0-0.41 0.34-0.75 0.75-0.75s0.75 0.34 0.75 0.75v2.87l8.14 4.07 8.14-4.07v-2.87c0-0.41 0.34-0.75 0.75-0.75s0.75 0.34 0.75 0.75v3.33c0 0.28-0.1601 0.54-0.4201 0.67l-8.8899 4.44c-0.1 0.05-0.21 0.08-0.33 0.08z"/>
 <path d="m12 22.75c-0.41 0-0.75-0.34-0.75-0.75v-5.56c0-0.41 0.34-0.75 0.75-0.75s0.75 0.34 0.75 0.75v5.56c0 0.41-0.34 0.75-0.75 0.75z"/>
 <path d="m12 17.191c-2.86 0-5.19-2.3301-5.19-5.1901 0-2.86 2.33-5.19 5.19-5.19 2.86 0 5.19 2.33 5.19 5.19 0 2.86-2.33 5.1901-5.19 5.1901zm0-8.88c-2.04 0-3.69 1.66-3.69 3.69 0 2.03 1.66 3.6901 3.69 3.6901 2.03 0 3.69-1.6601 3.69-3.6901 0-2.03-1.65-3.69-3.69-3.69z"/>
</svg>
