<?xml version="1.0" encoding="UTF-8"?>
<svg width="24" height="24" viewBox="0 0 24 24" xmlns="http://www.w3.org/2000/svg">
 <path d="m9.23 22.749h-0.04c-1.68-0.01-2.88-1.52-3.73-2.83-2.17-3.33-2.61-7.52-1.04-9.95 1.05-1.63 2.75-2.64 4.43-2.64 0.87 0 1.55 0.24003 2.15 0.46003 0.48 0.17 0.8899 0.31997 1.3199 0.31997 0.38 0 0.71-0.12997 1.13-0.28997 0.58-0.22 1.29-0.49003 2.32-0.49003 1.48 0 3.0001 0.79001 4.0601 2.13 0.14 0.17 0.19 0.40002 0.15 0.61002-0.04 0.22-0.18 0.4-0.37 0.51-1.13 0.62-1.7501 1.75-1.6601 3.03 0.09 1.3 0.8901 2.4 2.0901 2.85 0.19 0.07 0.35 0.22 0.43 0.41s0.0799 0.41-0.0101 0.59c-0.44 0.98-0.6599 1.43-1.2299 2.31-0.95 1.46-2.15 2.96-3.79 2.98-0.71 0-1.19-0.21-1.61-0.41-0.42-0.19-0.8301-0.34-1.4801-0.36-0.7 0-1.07 0.17-1.5 0.36-0.44 0.2-0.91995 0.41-1.62 0.41zm-0.38-13.92c-1.18 0-2.39 0.75002-3.17 1.95-1.06 1.64-1.05 5.11 1.04 8.32 0.65 1 1.52 2.14 2.49 2.15 0.36-0.01 0.63-0.11 0.99995-0.27 0.49-0.22 1.1-0.49 2.11-0.5 0.99-0.02 1.6301 0.27 2.1201 0.5 0.36 0.17 0.6 0.28 0.97 0.27 0.94-0.01 1.8499-1.23 2.5499-2.29 0.37-0.57 0.58-0.93 0.81-1.44-1.34-0.79-2.2199-2.18-2.3299-3.8-0.11-1.53 0.5099-2.96 1.6499-3.91-0.7-0.62-1.5299-0.97001-2.3299-0.97001-0.75 0-1.25 0.19002-1.78 0.39002-0.5 0.19-1.0201 0.38998-1.6701 0.38998-0.69 0-1.26-0.20999-1.82-0.39999-0.52995-0.21-1.04-0.39002-1.64-0.39002zm2.97-1.7h-0.0999c-0.35-0.01-0.65-0.26999-0.71-0.61999-0.21-1.13 0.1899-2.43 1.0599-3.49 0.8-0.97 2.1201-1.69 3.2901-1.77 0.41-0.02 0.74 0.25001 0.79 0.64001 0.17 1.17-0.2 2.45-1.03 3.52-0.81 1.05-2.1001 1.72-3.3001 1.72zm2.8301-4.18c-0.54 0.22-1.07 0.58999-1.42 1.02-0.33 0.4-0.6401 0.96001-0.7401 1.54 0.54-0.18 1.0801-0.54002 1.4501-1.02 0.2-0.25 0.58-0.82998 0.71-1.54z"/>
</svg>
