<?xml version="1.0" encoding="UTF-8"?>
<svg width="24" height="24" viewBox="0 0 24 24" xmlns="http://www.w3.org/2000/svg">
 <path d="m12 16.75c-0.41 0-0.75-0.34-0.75-0.75s0.34-0.75 0.75-0.75c3.45 0 6.25-2.8 6.25-6.25s-2.8-6.25-6.25-6.25-6.25 2.8-6.25 6.25c0 0.41-0.34 0.75-0.75 0.75s-0.75-0.34-0.75-0.75c0-4.27 3.48-7.75 7.75-7.75s7.75 3.48 7.75 7.75-3.48 7.75-7.75 7.75z"/>
 <path d="m12 22.75c-0.41 0-0.75-0.34-0.75-0.75v-6c0-0.41 0.34-0.75 0.75-0.75s0.75 0.34 0.75 0.75v6c0 0.41-0.34 0.75-0.75 0.75z"/>
 <path d="m15 19.75h-6c-0.41 0-0.75-0.34-0.75-0.75s0.34-0.75 0.75-0.75h6c0.41 0 0.75 0.34 0.75 0.75s-0.34 0.75-0.75 0.75z"/>
</svg>
