<?xml version="1.0" encoding="UTF-8"?>
<svg width="24" height="24" viewBox="0 0 24 24" xmlns="http://www.w3.org/2000/svg">
 <path d="m15 22.75h-6c-5.43 0-7.75-2.32-7.75-7.75v-6c0-5.43 2.32-7.75 7.75-7.75h6c5.43 0 7.75 2.32 7.75 7.75v6c0 5.43-2.32 7.75-7.75 7.75zm-6-20c-4.61 0-6.25 1.64-6.25 6.25v6c0 4.61 1.64 6.25 6.25 6.25h6c4.61 0 6.25-1.64 6.25-6.25v-6c0-4.61-1.64-6.25-6.25-6.25h-6z"/>
 <path d="m18 15.25c-0.41 0-0.75-0.34-0.75-0.75 0-0.69-0.56-1.25-1.25-1.25h-8c-0.69 0-1.25 0.56-1.25 1.25 0 0.41-0.34 0.75-0.75 0.75s-0.75-0.34-0.75-0.75v-6.75c0-1.52 1.23-2.75 2.75-2.75h8c1.52 0 2.75 1.23 2.75 2.75v6.75c0 0.41-0.34 0.75-0.75 0.75zm-10-3.5h8c0.45 0 0.88 0.11 1.25 0.3v-4.3c0-0.69-0.56-1.25-1.25-1.25h-8c-0.69 0-1.25 0.56-1.25 1.25v4.3c0.37-0.19 0.8-0.3 1.25-0.3z"/>
 <path d="m19 16.5h-1c-0.41 0-0.75-0.34-0.75-0.75s0.34-0.75 0.75-0.75h1c0.41 0 0.75 0.34 0.75 0.75s-0.34 0.75-0.75 0.75z"/>
 <path d="m6 16.5h-1c-0.41 0-0.75-0.34-0.75-0.75s0.34-0.75 0.75-0.75h1c0.41 0 0.75 0.34 0.75 0.75s-0.34 0.75-0.75 0.75z"/>
 <path d="m18 14.75c-0.41 0-0.75-0.34-0.75-0.75v-3c0-0.69-0.56-1.25-1.25-1.25h-8c-0.69 0-1.25 0.56-1.25 1.25v3c0 0.41-0.34 0.75-0.75 0.75s-0.75-0.34-0.75-0.75v-3c0-1.52 1.23-2.75 2.75-2.75h8c1.52 0 2.75 1.23 2.75 2.75v3c0 0.41-0.34 0.75-0.75 0.75z"/>
 <path d="m12 19c-1.53 0-2.82-1.07-3.16-2.5h-2.84c-0.41 0-0.75-0.34-0.75-0.75v-1.25c0-1.52 1.23-2.75 2.75-2.75h8c1.52 0 2.75 1.23 2.75 2.75v1.25c0 0.41-0.34 0.75-0.75 0.75h-2.84c-0.34 1.43-1.63 2.5-3.16 2.5zm-5.25-4h2.75c0.41 0 0.75 0.34 0.75 0.75 0 0.96 0.79 1.75 1.75 1.75s1.75-0.79 1.75-1.75c0-0.41 0.34-0.75 0.75-0.75h2.75v-0.5c0-0.69-0.56-1.25-1.25-1.25h-8c-0.69 0-1.25 0.56-1.25 1.25v0.5z"/>
</svg>
