<svg width="24" height="24" viewBox="0 0 24 24"  xmlns="http://www.w3.org/2000/svg">
<path opacity="0.4" d="M16.8201 1.91016H7.18007C5.06007 1.91016 3.32007 3.65016 3.32007 5.77016V19.8602C3.32007 21.6602 4.61007 22.4202 6.19007 21.5502L11.0701 18.8402C11.5901 18.5502 12.4301 18.5502 12.9401 18.8402L17.8201 21.5502C19.4001 22.4302 20.6901 21.6702 20.6901 19.8602V5.77016C20.6801 3.65016 18.9501 1.91016 16.8201 1.91016Z" />
<path d="M11.09 13.2504C10.9 13.2504 10.71 13.1804 10.56 13.0304L9.06003 11.5304C8.77003 11.2404 8.77003 10.7604 9.06003 10.4704C9.35003 10.1804 9.83003 10.1804 10.12 10.4704L11.09 11.4404L14.56 7.97043C14.85 7.68043 15.33 7.68043 15.62 7.97043C15.91 8.26043 15.91 8.74043 15.62 9.03043L11.62 13.0304C11.47 13.1804 11.28 13.2504 11.09 13.2504Z" />
</svg>
