<svg width="24" height="24" viewBox="0 0 24 24"  xmlns="http://www.w3.org/2000/svg">
<path d="M16.5 22.7497H7.5C4.2 22.7497 3.75 20.9497 3.75 18.9997V10.2197C3.75 9.80973 4.09 9.46973 4.5 9.46973C4.91 9.46973 5.25 9.80973 5.25 10.2197V18.9997C5.25 20.7397 5.55 21.2497 7.5 21.2497H16.5C18.45 21.2497 18.75 20.7397 18.75 18.9997V10.2197C18.75 9.80973 19.09 9.46973 19.5 9.46973C19.91 9.46973 20.25 9.80973 20.25 10.2197V18.9997C20.25 20.9497 19.8 22.7497 16.5 22.7497Z" />
<path d="M19 10.75H5C2.58 10.75 1.25 9.42 1.25 7V5C1.25 2.58 2.58 1.25 5 1.25H19C21.42 1.25 22.75 2.58 22.75 5V7C22.75 9.42 21.42 10.75 19 10.75ZM5 2.75C3.42 2.75 2.75 3.42 2.75 5V7C2.75 8.58 3.42 9.25 5 9.25H19C20.58 9.25 21.25 8.58 21.25 7V5C21.25 3.42 20.58 2.75 19 2.75H5Z" />
<path d="M13.8202 14.75H10.1802C9.77018 14.75 9.43018 14.41 9.43018 14C9.43018 13.59 9.77018 13.25 10.1802 13.25H13.8202C14.2302 13.25 14.5702 13.59 14.5702 14C14.5702 14.41 14.2302 14.75 13.8202 14.75Z" />
</svg>
