<?xml version="1.0" encoding="UTF-8"?>
<svg width="24" height="24" viewBox="0 0 24 24" xmlns="http://www.w3.org/2000/svg">
 <path d="m1.9999 22.75c-0.19 0-0.38-0.07-0.53-0.22-0.29-0.29-0.29-0.77 0-1.06l20-20c0.29-0.29 0.77-0.29 1.06 0s0.29 0.77 0 1.06l-20 20c-0.15 0.15-0.34 0.22-0.53 0.22z"/>
 <path d="m18.88 22.75c-0.56 0-1.16-0.17-1.76-0.5l-6.52-4.07c-0.35-0.22-0.46-0.68-0.24-1.03s0.68-0.46 1.03-0.24l6.49 4.05c0.56 0.31 1.12 0.38 1.48 0.17s0.57-0.73 0.57-1.42v-11c0-0.41 0.34-0.75 0.75-0.75s0.75 0.34 0.75 0.75v11c0 1.23-0.48 2.22-1.31 2.71-0.37 0.22-0.79 0.33-1.24 0.33z"/>
 <path d="m3.3198 20.7c-0.41 0-0.75-0.34-0.75-0.75v-14.09c0-2.54 2.07-4.61 4.61-4.61h9.65c1.39 0 2.7 0.62 3.58 1.71 0.26 0.32 0.21 0.79-0.11 1.06-0.32 0.26-0.79 0.21-1.05-0.11-0.6-0.74-1.48-1.16-2.42-1.16h-9.65c-1.71 0-3.11 1.4-3.11 3.11v14.09c0 0.41-0.34 0.75-0.75 0.75z"/>
</svg>
