<svg width="24" height="24" viewBox="0 0 24 24"  xmlns="http://www.w3.org/2000/svg">
<path opacity="0.4" d="M19.5 9.96997V19C19.5 21 19 22 16.5 22H7.5C5 22 4.5 21 4.5 19V9.96997C4.66 9.98997 4.83 9.99997 5 9.99997H19C19.17 9.99997 19.34 9.98997 19.5 9.96997Z" />
<path d="M22 5V7C22 8.83 21.17 9.82 19.5 9.97C19.34 9.99 19.17 10 19 10H5C4.83 10 4.66 9.99 4.5 9.97C2.83 9.82 2 8.83 2 7V5C2 3 3 2 5 2H19C21 2 22 3 22 5Z" />
<path d="M13.8199 14.75H10.1799C9.76993 14.75 9.42993 14.41 9.42993 14C9.42993 13.59 9.76993 13.25 10.1799 13.25H13.8199C14.2299 13.25 14.5699 13.59 14.5699 14C14.5699 14.41 14.2299 14.75 13.8199 14.75Z" />
</svg>
