<?xml version="1.0" encoding="UTF-8"?>
<svg width="24" height="24" viewBox="0 0 24 24" xmlns="http://www.w3.org/2000/svg">
 <path d="m12 10.28c-1.02 0-2.04-0.18-3.01-0.53004-0.39-0.14-0.59-0.57-0.45-0.96 0.15-0.39 0.58-0.59 0.97-0.45 1.61 0.58 3.38 0.58 4.99 0 0.39-0.14 0.82 0.06 0.96 0.45s-0.06 0.82-0.45 0.96c-0.97 0.35004-1.99 0.53004-3.01 0.53004z"/>
 <path d="m19.07 22.75c-0.51 0-1.07-0.15-1.61-0.46l-4.88-2.71c-0.29-0.16-0.86-0.16-1.15 0l-4.88 2.71c-0.99 0.55-2 0.61-2.77 0.15-0.77-0.45-1.21-1.36-1.21-2.49v-14.09c0-2.54 2.07-4.61 4.61-4.61h9.65c2.54 0 4.61 2.07 4.61 4.61v14.09c0 1.13-0.44 2.04-1.21 2.49-0.35 0.21-0.75 0.31-1.16 0.31zm-7.07-4.79c0.47 0 0.93 0.1 1.3 0.31l4.88 2.71c0.51 0.29 0.98 0.35 1.28 0.17s0.47-0.61 0.47-1.2v-14.09c0-1.71-1.4-3.11-3.11-3.11h-9.64c-1.71 0-3.11 1.4-3.11 3.11v14.09c0 0.59 0.17 1.03 0.47 1.2s0.76 0.12 1.28-0.17l4.88-2.71c0.37-0.21 0.83-0.31 1.3-0.31z"/>
 <path d="m19.07 22.75c-0.51 0-1.07-0.15-1.61-0.46l-4.88-2.71c-0.29-0.16-0.86-0.16-1.15 0l-4.88 2.71c-0.99 0.55-2 0.61-2.77 0.15-0.77-0.45-1.21-1.36-1.21-2.49v-14.09c0-2.54 2.07-4.61 4.61-4.61h9.65c2.54 0 4.61 2.07 4.61 4.61v14.09c0 1.13-0.44 2.04-1.21 2.49-0.35 0.21-0.75 0.31-1.16 0.31zm-7.07-4.79c0.47 0 0.93 0.1 1.3 0.31l4.88 2.71c0.51 0.29 0.98 0.35 1.28 0.17s0.47-0.61 0.47-1.2v-14.09c0-1.71-1.4-3.11-3.11-3.11h-9.64c-1.71 0-3.11 1.4-3.11 3.11v14.09c0 0.59 0.17 1.03 0.47 1.2s0.76 0.12 1.28-0.17l4.88-2.71c0.37-0.21 0.83-0.31 1.3-0.31z"/>
</svg>
