<?xml version="1.0" encoding="UTF-8"?>
<svg width="24" height="24" viewBox="0 0 24 24" xmlns="http://www.w3.org/2000/svg">
 <path d="m16.5 22.75h-9c-3.3 0-3.75-1.8-3.75-3.75v-8.78c0-0.40997 0.34-0.74997 0.75-0.74997s0.75 0.34 0.75 0.74997v8.78c0 1.74 0.3 2.25 2.25 2.25h9c1.95 0 2.25-0.51 2.25-2.25v-8.78c0-0.40997 0.34-0.74997 0.75-0.74997s0.75 0.34 0.75 0.74997v8.78c0 1.95-0.45 3.75-3.75 3.75z"/>
 <path d="m19 10.75h-14c-2.42 0-3.75-1.33-3.75-3.75v-2c0-2.42 1.33-3.75 3.75-3.75h14c2.42 0 3.75 1.33 3.75 3.75v2c0 2.42-1.33 3.75-3.75 3.75zm-14-8c-1.58 0-2.25 0.67-2.25 2.25v2c0 1.58 0.67 2.25 2.25 2.25h14c1.58 0 2.25-0.67 2.25-2.25v-2c0-1.58-0.67-2.25-2.25-2.25h-14z"/>
 <path d="m13.82 14.75h-3.64c-0.41002 0-0.75002-0.34-0.75002-0.75s0.34-0.75 0.75002-0.75h3.64c0.41 0 0.75 0.34 0.75 0.75s-0.34 0.75-0.75 0.75z"/>
</svg>
