<?xml version="1.0" encoding="UTF-8"?>
<svg width="24" height="24" viewBox="0 0 24 24" xmlns="http://www.w3.org/2000/svg">
 <path d="m16 22.75h-8c-3.65 0-5.75-2.1-5.75-5.75v-10c0-3.65 2.1-5.75 5.75-5.75h8c3.65 0 5.75 2.1 5.75 5.75v10c0 3.65-2.1 5.75-5.75 5.75zm-8-20c-2.86 0-4.25 1.39-4.25 4.25v10c0 2.86 1.39 4.25 4.25 4.25h8c2.86 0 4.25-1.39 4.25-4.25v-10c0-2.86-1.39-4.25-4.25-4.25h-8z"/>
 <path d="m9 11.11c-0.17 0-0.34-0.03-0.5-0.1-0.46-0.2-0.75-0.65-0.75-1.14v-7.87c0-0.41 0.34-0.75 0.75-0.75h7c0.41 0 0.75 0.34 0.75 0.75v7.86c0 0.50001-0.29 0.95001-0.75 1.14-0.45 0.2-0.98 0.11-1.35-0.23l-2.15-1.97-2.15 1.98c-0.24 0.22-0.53998 0.33-0.84998 0.33zm3-3.9c0.3 0 0.61 0.10996 0.85 0.32996l1.9 1.75v-6.54h-5.5v6.54l1.9-1.75c0.24-0.22 0.55-0.32996 0.85-0.32996z"/>
 <path d="m17.5 14.75h-4.25c-0.41 0-0.75-0.34-0.75-0.75s0.34-0.75 0.75-0.75h4.25c0.41 0 0.75 0.34 0.75 0.75s-0.34 0.75-0.75 0.75z"/>
 <path d="m17.5 18.75h-8.5c-0.41 0-0.75-0.34-0.75-0.75s0.34-0.75 0.75-0.75h8.5c0.41 0 0.75 0.34 0.75 0.75s-0.34 0.75-0.75 0.75z"/>
</svg>
