<svg width="24" height="24" viewBox="0 0 24 24"  xmlns="http://www.w3.org/2000/svg">
<path opacity="0.4" d="M16.8201 2H7.18007C5.05007 2 3.32007 3.74 3.32007 5.86V19.95C3.32007 21.75 4.61007 22.51 6.19007 21.64L11.0701 18.93C11.5901 18.64 12.4301 18.64 12.9401 18.93L17.8201 21.64C19.4001 22.52 20.6901 21.76 20.6901 19.95V5.86C20.6801 3.74 18.9501 2 16.8201 2Z" />
<path d="M12 10.2796C10.98 10.2796 9.96 10.0996 8.99 9.74956C8.6 9.60956 8.4 9.17956 8.54 8.78956C8.69 8.39956 9.12 8.19956 9.51 8.33956C11.12 8.91956 12.89 8.91956 14.5 8.33956C14.89 8.19956 15.32 8.39956 15.46 8.78956C15.6 9.17956 15.4 9.60956 15.01 9.74956C14.04 10.0996 13.02 10.2796 12 10.2796Z" />
</svg>
