<?xml version="1.0" encoding="UTF-8"?>
<svg width="24" height="24" viewBox="0 0 24 24" xmlns="http://www.w3.org/2000/svg">
 <path d="m14.5 11.4h-5c-0.41 0-0.75-0.34-0.75-0.75s0.34-0.75001 0.75-0.75001h5c0.41 0 0.75 0.34001 0.75 0.75001s-0.34 0.75-0.75 0.75z"/>
 <path d="m4.9301 22.75c-0.42 0-0.81-0.1-1.16-0.3-0.77-0.45-1.21-1.36-1.21-2.49v-14.1c0-2.54 2.07-4.61 4.61-4.61h9.65c2.54 0 4.61 2.07 4.61 4.61v14.09c0 1.13-0.44 2.04-1.21 2.49s-1.78 0.4-2.77-0.15l-4.88-2.71c-0.29-0.16-0.86-0.16-1.15 0l-4.88 2.71c-0.54 0.3-1.09 0.46-1.61 0.46zm2.25-20c-1.71 0-3.11 1.4-3.11 3.11v14.09c0 0.59 0.17 1.03 0.47 1.2 0.3 0.18 0.77 0.12 1.28-0.17l4.88-2.71c0.74-0.41 1.86-0.41 2.6 0l4.88 2.71c0.51 0.29 0.98 0.35 1.28 0.17s0.47-0.62 0.47-1.2v-14.09c0-1.71-1.4-3.11-3.11-3.11h-9.64z"/>
</svg>
