<svg width="24" height="24" viewBox="0 0 24 24"  xmlns="http://www.w3.org/2000/svg">
<path opacity="0.4" d="M16.8201 2H7.18007C5.05007 2 3.32007 3.74 3.32007 5.86V19.95C3.32007 21.75 4.61007 22.51 6.19007 21.64L11.0701 18.93C11.5901 18.64 12.4301 18.64 12.9401 18.93L17.8201 21.64C19.4001 22.52 20.6901 21.76 20.6901 19.95V5.86C20.6801 3.74 18.9501 2 16.8201 2Z" />
<path d="M14.5 11.4004H9.5C9.09 11.4004 8.75 11.0604 8.75 10.6504C8.75 10.2404 9.09 9.90039 9.5 9.90039H14.5C14.91 9.90039 15.25 10.2404 15.25 10.6504C15.25 11.0604 14.91 11.4004 14.5 11.4004Z" />
</svg>
