<svg width="24" height="24" viewBox="0 0 24 24"  xmlns="http://www.w3.org/2000/svg">
<path opacity="0.4" d="M12 22C17.5228 22 22 17.5228 22 12C22 6.47715 17.5228 2 12 2C6.47715 2 2 6.47715 2 12C2 17.5228 6.47715 22 12 22Z" />
<path d="M17.3901 9.25998L14.3501 6.22C14.2801 6.15 14.2 6.1 14.11 6.06C13.93 5.98 13.7201 5.98 13.5401 6.06C13.3601 6.14 13.2101 6.28 13.1301 6.47C13.0901 6.56 13.0701 6.65998 13.0701 6.75998V17.07C13.0701 17.48 13.4101 17.82 13.8201 17.82C14.2301 17.82 14.5701 17.48 14.5701 17.07V8.57001L16.33 10.33C16.48 10.48 16.67 10.55 16.86 10.55C17.05 10.55 17.2401 10.48 17.3901 10.33C17.6801 10.02 17.6801 9.54998 17.3901 9.25998Z" />
<path d="M10.9301 6.75C10.9301 6.34 10.5901 6 10.1801 6C9.77009 6 9.43009 6.34 9.43009 6.75V15.25L7.67011 13.49C7.38011 13.2 6.90008 13.2 6.61008 13.49C6.32008 13.78 6.32008 14.26 6.61008 14.55L9.65009 17.59C9.72009 17.66 9.80011 17.71 9.89011 17.75C9.98011 17.79 10.0801 17.81 10.1801 17.81C10.2801 17.81 10.3701 17.79 10.4701 17.75C10.6501 17.67 10.8001 17.53 10.8801 17.34C10.9201 17.25 10.9401 17.15 10.9401 17.05V6.75H10.9301Z" />
</svg>
