<?xml version="1.0" encoding="UTF-8"?>
<svg width="24" height="24" viewBox="0 0 24 24" xmlns="http://www.w3.org/2000/svg">
 <path d="m16.86 10.64c-0.19 0-0.38-0.07-0.53-0.22l-3.0399-3.04c-0.29-0.29-0.29-0.77 0-1.06s0.77-0.29 1.06 0l3.04 3.04c0.29 0.29 0.29 0.76998 0 1.06-0.15 0.14-0.3401 0.22-0.5301 0.22z"/>
 <path d="m13.82 17.9c-0.41 0-0.75-0.34-0.75-0.75v-10.31c0-0.41 0.34-0.75 0.75-0.75s0.75 0.34 0.75 0.75v10.31c0 0.42-0.34 0.75-0.75 0.75z"/>
 <path d="m10.18 17.9c-0.19001 0-0.38001-0.07-0.53001-0.22l-3.04-3.04c-0.29-0.29-0.29-0.77 0-1.06s0.77003-0.29 1.06 0l3.04 3.04c0.29 0.29 0.29 0.77 0 1.06-0.14 0.15-0.33 0.22-0.53 0.22z"/>
 <path d="m10.18 17.9c-0.41001 0-0.75001-0.34-0.75001-0.75v-10.31c0-0.41 0.34-0.75 0.75001-0.75 0.41 0 0.75 0.34 0.75 0.75v10.31c0 0.42-0.33 0.75-0.75 0.75z"/>
 <path d="m12 22.75c-5.93 0-10.75-4.82-10.75-10.75s4.82-10.75 10.75-10.75 10.75 4.82 10.75 10.75-4.82 10.75-10.75 10.75zm0-20c-5.1 0-9.25 4.15-9.25 9.25s4.15 9.25 9.25 9.25 9.25-4.15 9.25-9.25-4.15-9.25-9.25-9.25z"/>
</svg>
