<?xml version="1.0" encoding="UTF-8"?>
<svg width="24" height="24" viewBox="0 0 24 24" xmlns="http://www.w3.org/2000/svg">
 <path d="m15 22.75h-6c-5.43 0-7.75-2.32-7.75-7.75v-6c0-5.43 2.32-7.75 7.75-7.75h6c5.43 0 7.75 2.32 7.75 7.75v6c0 5.43-2.32 7.75-7.75 7.75zm-6-20c-4.61 0-6.25 1.64-6.25 6.25v6c0 4.61 1.64 6.25 6.25 6.25h6c4.61 0 6.25-1.64 6.25-6.25v-6c0-4.61-1.64-6.25-6.25-6.25h-6z"/>
 <path d="m14.11 17.61c-0.19 0-0.38-0.07-0.53-0.22-0.29-0.29-0.29-0.77 0-1.06l3.04-3.04c0.29-0.29 0.77-0.29 1.06 0s0.29 0.77 0 1.06l-3.04 3.04c-0.14 0.14-0.33 0.22-0.53 0.22z"/>
 <path d="m17.15 14.57h-10.3c-0.41 0-0.75-0.34-0.75-0.75s0.34-0.75 0.75-0.75h10.31c0.41 0 0.75 0.34 0.75 0.75s-0.34 0.75-0.76 0.75z"/>
 <path d="m6.85 10.93c-0.19 0-0.38-0.07-0.53-0.22-0.29-0.29-0.29-0.77002 0-1.06l3.04-3.04c0.29-0.29 0.76996-0.29 1.06 0s0.29 0.77 0 1.06l-3.04 3.04c-0.15 0.15-0.34 0.22-0.53 0.22z"/>
 <path d="m17.15 10.93h-10.3c-0.41 0-0.75-0.34-0.75-0.75 0-0.41002 0.34-0.75002 0.75-0.75002h10.31c0.41 0 0.75 0.34 0.75 0.75002 0 0.41-0.34 0.75-0.76 0.75z"/>
</svg>
