<?xml version="1.0" encoding="UTF-8"?>
<svg width="24" height="24" viewBox="0 0 24 24" xmlns="http://www.w3.org/2000/svg">
 <path d="m15 22.75h-6c-5.43 0-7.75-2.32-7.75-7.75v-6c0-5.43 2.32-7.75 7.75-7.75h6c5.43 0 7.75 2.32 7.75 7.75v6c0 5.43-2.32 7.75-7.75 7.75zm-6-20c-4.61 0-6.25 1.64-6.25 6.25v6c0 4.61 1.64 6.25 6.25 6.25h6c4.61 0 6.25-1.64 6.25-6.25v-6c0-4.61-1.64-6.25-6.25-6.25h-6z"/>
 <path d="m10.18 17.9c-0.19002 0-0.38002-0.07-0.53002-0.22l-3.04-3.04c-0.29-0.29-0.29-0.77 0-1.06s0.77-0.29 1.06 0l3.04 3.04c0.29 0.29 0.29 0.77 0 1.06-0.14 0.15-0.33 0.22-0.53 0.22z"/>
 <path d="m10.18 17.9c-0.41002 0-0.75002-0.34-0.75002-0.75v-10.3c0-0.41 0.34-0.75 0.75002-0.75 0.41 0 0.75 0.34 0.75 0.75v10.31c0 0.41-0.33 0.74-0.75 0.74z"/>
 <path d="m16.86 10.64c-0.19 0-0.38-0.07-0.53-0.22l-3.04-3.04c-0.29-0.29-0.29-0.77 0-1.06s0.77-0.29 1.06 0l3.04 3.04c0.29 0.29 0.29 0.76996 0 1.06-0.15 0.14-0.34 0.22-0.53 0.22z"/>
 <path d="m13.82 17.9c-0.41 0-0.75-0.34-0.75-0.75v-10.3c0-0.41 0.34-0.75 0.75-0.75s0.75 0.34 0.75 0.75v10.31c0 0.41-0.34 0.74-0.75 0.74z"/>
</svg>
