<?xml version="1.0" encoding="UTF-8"?>
<svg width="24" height="24" viewBox="0 0 24 24" xmlns="http://www.w3.org/2000/svg">
 <path d="m14.11 17.61c-0.19 0-0.38-0.0699-0.53-0.2199-0.29-0.29-0.29-0.7701 0-1.0601l3.04-3.0399c0.29-0.29 0.77-0.29 1.06 0s0.29 0.77 0 1.06l-3.04 3.04c-0.14 0.14-0.33 0.2199-0.53 0.2199z"/>
 <path d="m17.15 14.57h-10.31c-0.41 0-0.75-0.34-0.75-0.75s0.34-0.75 0.75-0.75h10.31c0.41 0 0.75 0.34 0.75 0.75s-0.33 0.75-0.75 0.75z"/>
 <path d="m6.85 10.93c-0.19 0-0.38-0.07-0.53-0.22-0.29-0.29-0.29-0.77001 0-1.06l3.04-3.04c0.29-0.29 0.76998-0.29 1.06 0s0.29 0.77003 0 1.06l-3.04 3.04c-0.15 0.15-0.34 0.22-0.53 0.22z"/>
 <path d="m17.15 10.93h-10.31c-0.41 0-0.75-0.34-0.75-0.75 0-0.41001 0.34-0.75001 0.75-0.75001h10.31c0.41 0 0.75 0.34 0.75 0.75001 0 0.41-0.33 0.75-0.75 0.75z"/>
 <path d="m12 22.75c-5.93 0-10.75-4.82-10.75-10.75s4.82-10.75 10.75-10.75 10.75 4.82 10.75 10.75-4.82 10.75-10.75 10.75zm0-20c-5.1 0-9.25 4.15-9.25 9.25s4.15 9.25 9.25 9.25 9.25-4.15 9.25-9.25-4.15-9.25-9.25-9.25z"/>
</svg>
