<svg width="24" height="24" viewBox="0 0 24 24"  xmlns="http://www.w3.org/2000/svg">
<path opacity="0.4" d="M16.19 2H7.81C4.17 2 2 4.17 2 7.81V16.18C2 19.83 4.17 22 7.81 22H16.18C19.82 22 21.99 19.83 21.99 16.19V7.81C22 4.17 19.83 2 16.19 2Z" />
<path d="M17.8499 13.5301C17.7699 13.3501 17.6299 13.2001 17.4399 13.1201C17.3499 13.0801 17.2499 13.0601 17.1499 13.0601H6.84985C6.43985 13.0601 6.09985 13.4001 6.09985 13.8101C6.09985 14.2201 6.43985 14.5601 6.84985 14.5601H15.3499L13.5899 16.3201C13.2999 16.6101 13.2999 17.0901 13.5899 17.3801C13.7399 17.5301 13.9299 17.6001 14.1199 17.6001C14.3099 17.6001 14.4999 17.5301 14.6499 17.3801L17.6899 14.3401C17.7599 14.2701 17.8099 14.1901 17.8499 14.1001C17.9199 13.9201 17.9199 13.7101 17.8499 13.5301Z" />
<path d="M6.14991 10.4701C6.22991 10.6501 6.36991 10.8001 6.55991 10.8801C6.64991 10.9201 6.74991 10.9401 6.84991 10.9401H17.1599C17.5699 10.9401 17.9099 10.6001 17.9099 10.1901C17.9099 9.78009 17.5699 9.44009 17.1599 9.44009H8.65991L10.4199 7.68009C10.7099 7.39009 10.7099 6.91009 10.4199 6.62009C10.1299 6.33009 9.64991 6.33009 9.35991 6.62009L6.31991 9.65009C6.24991 9.72009 6.18991 9.81009 6.14991 9.90009C6.07991 10.0801 6.07991 10.2901 6.14991 10.4701Z" />
</svg>
