<svg width="24" height="24" viewBox="0 0 24 24"  xmlns="http://www.w3.org/2000/svg">
<path opacity="0.4" d="M12 22C17.5228 22 22 17.5228 22 12C22 6.47715 17.5228 2 12 2C6.47715 2 2 6.47715 2 12C2 17.5228 6.47715 22 12 22Z" />
<path d="M17.8501 13.5301C17.7701 13.3501 17.6301 13.2001 17.4401 13.1201C17.3501 13.0801 17.2501 13.0601 17.1501 13.0601H6.84009C6.43009 13.0601 6.09009 13.4001 6.09009 13.8101C6.09009 14.2201 6.43009 14.5601 6.84009 14.5601H15.3401L13.5801 16.3201C13.2901 16.6101 13.2901 17.0901 13.5801 17.3801C13.7301 17.5301 13.9201 17.6001 14.1101 17.6001C14.3001 17.6001 14.4901 17.5301 14.6401 17.3801L17.6801 14.3401C17.7501 14.2701 17.8001 14.1901 17.8401 14.1001C17.9201 13.9201 17.9201 13.7101 17.8501 13.5301Z" />
<path d="M17.1501 9.43009H8.65009L10.4101 7.67011C10.7001 7.38011 10.7001 6.90008 10.4101 6.61008C10.1201 6.32008 9.6401 6.32008 9.3501 6.61008L6.31009 9.65009C6.24009 9.72009 6.19009 9.80011 6.15009 9.89011C6.07009 10.0701 6.07009 10.2801 6.15009 10.4601C6.23009 10.6401 6.37009 10.7901 6.56009 10.8701C6.65009 10.9101 6.7501 10.9301 6.8501 10.9301H17.1601C17.5701 10.9301 17.9101 10.5901 17.9101 10.1801C17.9101 9.77009 17.5701 9.43009 17.1501 9.43009Z" />
</svg>
