<svg width="24" height="24" viewBox="0 0 24 24"  xmlns="http://www.w3.org/2000/svg">
<path d="M14.43 18.8201C14.24 18.8201 14.05 18.7501 13.9 18.6001C13.61 18.3101 13.61 17.8301 13.9 17.5401L19.44 12.0001L13.9 6.46012C13.61 6.17012 13.61 5.69012 13.9 5.40012C14.19 5.11012 14.67 5.11012 14.96 5.40012L21.03 11.4701C21.32 11.7601 21.32 12.2401 21.03 12.5301L14.96 18.6001C14.81 18.7501 14.62 18.8201 14.43 18.8201Z" />
<path d="M20.33 12.7501H3.5C3.09 12.7501 2.75 12.4101 2.75 12.0001C2.75 11.5901 3.09 11.2501 3.5 11.2501H20.33C20.74 11.2501 21.08 11.5901 21.08 12.0001C21.08 12.4101 20.74 12.7501 20.33 12.7501Z" />
</svg>
