<?xml version="1.0" encoding="UTF-8"?>
<svg width="24" height="24" viewBox="0 0 24 24" xmlns="http://www.w3.org/2000/svg">
 <path d="m10.45 7.47c-0.19 0-0.38-0.06997-0.53-0.21997l-3.19-3.19-3.19 3.19c-0.29 0.29-0.76999 0.29-1.06 0s-0.29-0.77 0-1.06l3.72-3.72c0.14-0.14 0.32997-0.21997 0.52997-0.21997s0.39002 0.07997 0.53002 0.21997l3.72 3.72c0.29 0.29 0.29 0.77 0 1.06-0.15 0.15-0.34 0.21997-0.53 0.21997z"/>
 <path d="m6.73 21.75c-0.41 0-0.75-0.34-0.75-0.75v-18c0-0.41 0.34-0.75 0.75-0.75s0.75 0.34 0.75 0.75v18c0 0.41-0.34 0.75-0.75 0.75z"/>
 <path d="m17.28 21.75c-0.2 0-0.39-0.08-0.53-0.22l-3.72-3.72c-0.29-0.29-0.29-0.77 0-1.06s0.77-0.29 1.06 0l3.19 3.19 3.1899-3.19c0.29-0.29 0.7701-0.29 1.0601 0s0.29 0.77 0 1.06l-3.72 3.72c-0.14 0.14-0.34 0.22-0.53 0.22z"/>
 <path d="m17.27 21.75c-0.41 0-0.75-0.34-0.75-0.75v-18c0-0.41 0.34-0.75 0.75-0.75s0.75 0.34 0.75 0.75v18c0 0.41-0.33 0.75-0.75 0.75z"/>
</svg>
