<?xml version="1.0" encoding="UTF-8"?>
<svg width="24" height="24" viewBox="0 0 24 24" xmlns="http://www.w3.org/2000/svg">
 <path d="m15.1 19.15c-0.84 0-1.76-0.27-2.69-0.81l-4.63-2.67c-1.63-0.95-2.53-2.25-2.53-3.67s0.9-2.72 2.53-3.66l4.63-2.67c1.63-0.94 3.2-1.07 4.44-0.36 1.23 0.71 1.91 2.14 1.91 4.02v5.34c0 1.88-0.68 3.31-1.91 4.02-0.53 0.31-1.12 0.46-1.75 0.46zm0-12.79c-0.58 0-1.24 0.2-1.94 0.61l-4.63 2.67c-1.15 0.65995-1.78 1.5-1.78 2.36s0.63 1.7 1.78 2.36l4.63 2.67c1.15 0.66 2.19 0.79 2.94 0.36s1.16-1.4 1.16-2.72v-5.34c0-1.32-0.41-2.29-1.16-2.72-0.3-0.17-0.64-0.25-1-0.25z"/>
</svg>
