<?xml version="1.0" encoding="UTF-8"?>
<svg width="24" height="24" viewBox="0 0 24 24" xmlns="http://www.w3.org/2000/svg">
 <path d="m12 18.75c-1.42 0-2.72-0.9-3.66-2.53l-2.67-4.63c-0.95-1.63-1.07-3.2-0.36-4.43s2.14-1.91 4.02-1.91h5.34c1.88 0 3.31 0.68 4.02 1.91s0.58 2.81-0.36 4.44l-2.67 4.63c-0.94 1.62-2.24 2.52-3.66 2.52zm-2.67-12c-1.33 0-2.29 0.41-2.72 1.16-0.44 0.75-0.31 1.79 0.35 2.93l2.67 4.63c0.66 1.15 1.5 1.78 2.36 1.78s1.7-0.63 2.36-1.78l2.67-4.63c0.66-1.15 0.79-2.19 0.36-2.94s-1.4-1.16-2.72-1.16h-5.33v0.01z"/>
</svg>
