<?xml version="1.0" encoding="UTF-8"?>
<svg width="24" height="24" viewBox="0 0 24 24" xmlns="http://www.w3.org/2000/svg">
 <path d="m9.0099 21.25c-0.19 0-0.38-0.07-0.53-0.22l-5.01-5.01c-0.29-0.29-0.29-0.77 0-1.06s0.77-0.29 1.06 0l5.01 5.01c0.29 0.29 0.29 0.77 0 1.06-0.15 0.14-0.34 0.22-0.53 0.22z"/>
 <path d="m9.0098 21.25c-0.41 0-0.75-0.34-0.75-0.75v-17c0-0.41 0.34-0.75 0.75-0.75s0.75 0.34 0.75 0.75v17c0 0.41-0.34 0.75-0.75 0.75z"/>
 <path d="m20.01 9.2599c-0.19 0-0.38-0.07-0.53-0.22l-5.01-5.01c-0.29-0.29-0.29-0.77 0-1.06s0.77-0.29 1.06 0l5.01 5.01c0.29 0.29 0.29 0.77 0 1.06-0.15 0.15-0.34 0.22-0.53 0.22z"/>
 <path d="m14.99 21.25c-0.41 0-0.75-0.34-0.75-0.75v-17c0-0.41 0.34-0.75 0.75-0.75s0.75 0.34 0.75 0.75v17c0 0.41-0.33 0.75-0.75 0.75z"/>
</svg>
