<?xml version="1.0" encoding="UTF-8"?>
<svg width="24" height="24" viewBox="0 0 24 24" xmlns="http://www.w3.org/2000/svg">
 <path d="m17.28 11.2c-0.19 0-0.3801-0.07-0.5301-0.22-0.29-0.29-0.29-0.77 0-1.06l3.19-3.19-3.19-3.19c-0.29-0.29-0.29-0.77 0-1.06s0.77-0.29 1.06 0l3.7201 3.72c0.14 0.14 0.2199 0.32997 0.2199 0.52997s-0.0799 0.39003-0.2199 0.53003l-3.7201 3.72c-0.15 0.14-0.3399 0.22-0.5299 0.22z"/>
 <path d="m21 7.48h-18c-0.41 0-0.75-0.34-0.75-0.75s0.34-0.75 0.75-0.75h18c0.41 0 0.75 0.34 0.75 0.75s-0.34 0.75-0.75 0.75z"/>
 <path d="m6.72 21.75c-0.19 0-0.37997-0.07-0.52997-0.22l-3.72-3.72c-0.14-0.14-0.21997-0.33-0.21997-0.53s0.07997-0.39 0.21997-0.53l3.72-3.72c0.29-0.29 0.77-0.29 1.06 0s0.29 0.77 0 1.06l-3.19 3.19 3.19 3.1899c0.29 0.29 0.29 0.7701 0 1.0601-0.14 0.15-0.33003 0.22-0.53003 0.22z"/>
 <path d="m21 18.02h-18c-0.41 0-0.75-0.34-0.75-0.75s0.34-0.75 0.75-0.75h18c0.41 0 0.75 0.34 0.75 0.75s-0.34 0.75-0.75 0.75z"/>
</svg>
