<?xml version="1.0" encoding="UTF-8"?>
<svg width="24" height="24" viewBox="0 0 24 24" xmlns="http://www.w3.org/2000/svg">
 <path d="m15.49 20.76c-0.19 0-0.38-0.07-0.53-0.22-0.29-0.29-0.29-0.77 0-1.06l5.01-5.01c0.29-0.29 0.77-0.29 1.06 0s0.29 0.77 0 1.06l-5.01 5.01c-0.15 0.14-0.34 0.22-0.53 0.22z"/>
 <path d="m20.5 15.74h-17c-0.41 0-0.75-0.34-0.75-0.75s0.34-0.75 0.75-0.75h17c0.41 0 0.75 0.34 0.75 0.75s-0.34 0.75-0.75 0.75z"/>
 <path d="m3.4999 9.7599c-0.19 0-0.38-0.07-0.53-0.22-0.29-0.29-0.29-0.77 0-1.06l5.01-5.01c0.29-0.29 0.77-0.29 1.06 0s0.29 0.77 0 1.06l-5.01 5.01c-0.14 0.14-0.34 0.22-0.53 0.22z"/>
 <path d="m20.5 9.76h-17c-0.41 0-0.75-0.34-0.75-0.75s0.34-0.75 0.75-0.75h17c0.41 0 0.75 0.34 0.75 0.75s-0.34 0.75-0.75 0.75z"/>
</svg>
