<svg width="24" height="24" viewBox="0 0 24 24"  xmlns="http://www.w3.org/2000/svg">
<path d="M12.0001 21.25C11.8101 21.25 11.6201 21.18 11.4701 21.03L5.40012 14.96C5.11012 14.67 5.11012 14.19 5.40012 13.9C5.69012 13.61 6.17012 13.61 6.46012 13.9L12.0001 19.44L17.5401 13.9C17.8301 13.61 18.3101 13.61 18.6001 13.9C18.8901 14.19 18.8901 14.67 18.6001 14.96L12.5301 21.03C12.3801 21.18 12.1901 21.25 12.0001 21.25Z" />
<path d="M12.0001 21.08C11.5901 21.08 11.2501 20.74 11.2501 20.33V3.5C11.2501 3.09 11.5901 2.75 12.0001 2.75C12.4101 2.75 12.7501 3.09 12.7501 3.5V20.33C12.7501 20.74 12.4101 21.08 12.0001 21.08Z" />
</svg>
