<?xml version="1.0" encoding="UTF-8"?>
<svg width="24" height="24" viewBox="0 0 24 24" xmlns="http://www.w3.org/2000/svg">
 <path d="m14.67 18.75h-5.34c-1.88 0-3.31-0.68-4.02-1.91s-0.58-2.81 0.36-4.44l2.67-4.63c0.94-1.62 2.24-2.52 3.66-2.52s2.72 0.9 3.66 2.53l2.67 4.63c0.94 1.63 1.07 3.21 0.36 4.44-0.71 1.22-2.14 1.9-4.02 1.9zm-2.67-12c-0.86 0-1.7 0.63-2.36 1.78l-2.67 4.63c-0.66 1.15-0.79 2.19-0.36 2.94s1.4 1.16 2.72 1.16h5.34c1.32 0 2.29-0.41 2.72-1.16s0.3-1.79-0.36-2.94l-2.67-4.63c-0.66-1.15-1.5-1.78-2.36-1.78z"/>
</svg>
