<?xml version="1.0" encoding="UTF-8"?>
<svg width="24" height="24" viewBox="0 0 24 24" xmlns="http://www.w3.org/2000/svg">
 <path d="m12.14 15.82c-0.41 0-0.75-0.34-0.75-0.75v-1.96c0-2.93 2.38-5.31 5.32-5.31h1.96c0.41 0 0.75 0.34 0.75 0.75s-0.34 0.75-0.75 0.75h-1.96c-2.1 0-3.82 1.71-3.82 3.81v1.96c0 0.42-0.34 0.75-0.75 0.75z"/>
 <path d="m12.14 18c-0.41 0-0.75-0.34-0.75-0.75v-4.13c0-2.1-1.71-3.81-3.81-3.81h-1.96c-0.41 0-0.75-0.34-0.75-0.75s0.34-0.75 0.75-0.75h1.96c2.93 0 5.31 2.38 5.31 5.31v4.13c0 0.41-0.34 0.75-0.75 0.75z"/>
 <path d="m7.1398 11.1c-0.19 0-0.38003-0.07-0.53003-0.22l-1.8-1.8c-0.29-0.29-0.29-0.77 0-1.06l1.8-1.8c0.29-0.29 0.77-0.29 1.06 0s0.29 0.77 0 1.06l-1.27 1.27 1.27 1.27c0.29 0.28995 0.29 0.76995 0 1.06-0.15 0.15-0.33997 0.22-0.52997 0.22z"/>
 <path d="m16.86 11.1c-0.19 0-0.38-0.07-0.53-0.22-0.29-0.29-0.29-0.77 0-1.06l1.27-1.27-1.27-1.27c-0.29-0.29-0.29-0.77 0-1.06s0.77-0.29 1.06 0l1.8 1.8c0.29 0.29 0.29 0.77 0 1.06l-1.8 1.8c-0.14 0.15-0.34 0.22-0.53 0.22z"/>
 <path d="m15 22.75h-6c-5.43 0-7.75-2.32-7.75-7.75v-6c0-5.43 2.32-7.75 7.75-7.75h6c5.43 0 7.75 2.32 7.75 7.75v6c0 5.43-2.32 7.75-7.75 7.75zm-6-20c-4.61 0-6.25 1.64-6.25 6.25v6c0 4.61 1.64 6.25 6.25 6.25h6c4.61 0 6.25-1.64 6.25-6.25v-6c0-4.61-1.64-6.25-6.25-6.25h-6z"/>
</svg>
