<?xml version="1.0" encoding="UTF-8"?>
<svg width="24" height="24" viewBox="0 0 24 24" xmlns="http://www.w3.org/2000/svg">
 <path d="m18.07 10.32c-0.19 0-0.38-0.07-0.53-0.22l-5.54-5.54-5.54 5.54c-0.29 0.29-0.77 0.29-1.06 0-0.29-0.28996-0.29-0.76996 0-1.06l6.07-6.07c0.29-0.29 0.77-0.29 1.06 0l6.07 6.07c0.29 0.29 0.29 0.77 0 1.06-0.14 0.15-0.34 0.22-0.53 0.22z"/>
 <path d="m12 21.25c-0.41 0-0.75-0.34-0.75-0.75v-16.83c0-0.41 0.34-0.75 0.75-0.75s0.75 0.34 0.75 0.75v16.83c0 0.41-0.34 0.75-0.75 0.75z"/>
</svg>
