<svg width="24" height="24" viewBox="0 0 24 24"  xmlns="http://www.w3.org/2000/svg">
<path opacity="0.4" d="M16.19 2H7.81C4.17 2 2 4.17 2 7.81V16.18C2 19.83 4.17 22 7.81 22H16.18C19.82 22 21.99 19.83 21.99 16.19V7.81C22 4.17 19.83 2 16.19 2Z" />
<path d="M11.9999 14.9101C11.8099 14.9101 11.6199 14.8401 11.4699 14.6901L7.93991 11.1601C7.64991 10.8701 7.64991 10.3901 7.93991 10.1001C8.22991 9.81007 8.70991 9.81007 8.99991 10.1001L11.9999 13.1001L14.9999 10.1001C15.2899 9.81007 15.7699 9.81007 16.0599 10.1001C16.3499 10.3901 16.3499 10.8701 16.0599 11.1601L12.5299 14.6901C12.3799 14.8401 12.1899 14.9101 11.9999 14.9101Z" />
</svg>
