<svg width="24" height="24" viewBox="0 0 24 24"  xmlns="http://www.w3.org/2000/svg">
<path opacity="0.4" d="M16.19 2H7.81C4.17 2 2 4.17 2 7.81V16.18C2 19.83 4.17 22 7.81 22H16.18C19.82 22 21.99 19.83 21.99 16.19V7.81C22 4.17 19.83 2 16.19 2Z" />
<path d="M10.7399 16.2799C10.5499 16.2799 10.3599 16.2099 10.2099 16.0599C9.91993 15.7699 9.91993 15.2899 10.2099 14.9999L13.2099 11.9999L10.2099 8.99991C9.91993 8.70991 9.91993 8.22991 10.2099 7.93991C10.4999 7.64991 10.9799 7.64991 11.2699 7.93991L14.7999 11.4699C15.0899 11.7599 15.0899 12.2399 14.7999 12.5299L11.2699 16.0599C11.1199 16.2099 10.9299 16.2799 10.7399 16.2799Z" />
</svg>
