<?xml version="1.0" encoding="UTF-8"?>
<svg width="24" height="24" viewBox="0 0 24 24" xmlns="http://www.w3.org/2000/svg">
 <path d="m15 22.75h-6c-5.43 0-7.75-2.32-7.75-7.75v-6c0-5.43 2.32-7.75 7.75-7.75h6c5.43 0 7.75 2.32 7.75 7.75v6c0 5.43-2.32 7.75-7.75 7.75zm-6-20c-4.61 0-6.25 1.64-6.25 6.25v6c0 4.61 1.64 6.25 6.25 6.25h6c4.61 0 6.25-1.64 6.25-6.25v-6c0-4.61-1.64-6.25-6.25-6.25h-6z"/>
 <path d="m10.74 16.28c-0.19 0-0.38-0.07-0.53-0.22-0.29002-0.29-0.29002-0.77 0-1.06l3-3-3-3c-0.29002-0.29-0.29002-0.77 0-1.06 0.29-0.29 0.77-0.29 1.06 0l3.53 3.53c0.29 0.29 0.29 0.77 0 1.06l-3.53 3.53c-0.15 0.15-0.34 0.22-0.53 0.22z"/>
</svg>
