<svg width="24" height="24" viewBox="0 0 24 24"  xmlns="http://www.w3.org/2000/svg">
<path opacity="0.4" d="M16.19 2H7.81C4.17 2 2 4.17 2 7.81V16.18C2 19.83 4.17 22 7.81 22H16.18C19.82 22 21.99 19.83 21.99 16.19V7.81C22 4.17 19.83 2 16.19 2Z" />
<path d="M15.5299 14.2101C15.3399 14.2101 15.1499 14.1401 14.9999 13.9901L11.9999 10.9901L8.99991 13.9901C8.70991 14.2801 8.22991 14.2801 7.93991 13.9901C7.64991 13.7001 7.64991 13.2201 7.93991 12.9301L11.4699 9.40012C11.7599 9.11012 12.2399 9.11012 12.5299 9.40012L16.0599 12.9301C16.3499 13.2201 16.3499 13.7001 16.0599 13.9901C15.9099 14.1401 15.7199 14.2101 15.5299 14.2101Z" />
</svg>
