<svg width="24" height="24" viewBox="0 0 24 24"  xmlns="http://www.w3.org/2000/svg">
<path opacity="0.4" d="M7.81 2H16.18C19.83 2 22 4.17 22 7.81V16.18C22 19.82 19.83 21.99 16.19 21.99H7.81C4.17 22 2 19.83 2 16.19V7.81C2 4.17 4.17 2 7.81 2Z" />
<path d="M10.24 6.25C9.81998 6.25 9.48998 6.59 9.48998 7V15.19L7.81998 13.52C7.52998 13.23 7.04998 13.23 6.75998 13.52C6.46998 13.81 6.46998 14.29 6.75998 14.58L9.70998 17.53C9.77998 17.6 9.85998 17.65 9.94998 17.69C10.04 17.73 10.14 17.75 10.24 17.75C10.34 17.75 10.43 17.73 10.53 17.69C10.71 17.61 10.86 17.47 10.94 17.28C10.98 17.19 11 17.09 11 16.99V7C10.99 6.59 10.65 6.25 10.24 6.25Z" />
<path d="M17.24 9.42L14.29 6.47C14.22 6.4 14.14 6.35 14.05 6.31C13.87 6.23 13.66 6.23 13.48 6.31C13.3 6.39 13.15 6.53 13.07 6.72C13.03 6.81 13.01 6.9 13.01 7V17C13.01 17.41 13.35 17.75 13.76 17.75C14.17 17.75 14.51 17.41 14.51 17V8.81L16.18 10.48C16.33 10.63 16.52 10.7 16.71 10.7C16.9 10.7 17.09 10.63 17.24 10.48C17.53 10.19 17.53 9.71 17.24 9.42Z" />
</svg>
