<?xml version="1.0" encoding="UTF-8"?>
<svg width="24" height="24" viewBox="0 0 24 24" xmlns="http://www.w3.org/2000/svg">
 <path d="m8.9 19.15c-0.63 0-1.22-0.15-1.74-0.45-1.23-0.71-1.91-2.14-1.91-4.02v-5.35c0-1.88 0.68-3.31 1.91-4.02s2.8-0.58 4.44 0.36l4.63 2.67c1.63 0.94 2.53 2.24 2.53 3.66s-0.9 2.72-2.53 3.66l-4.63 2.67c-0.94 0.55-1.86 0.82-2.7 0.82zm0-12.79c-0.37 0-0.71 0.08-1 0.25-0.74 0.43-1.15 1.39-1.15 2.72v5.34c0 1.32 0.41 2.29 1.16 2.72s1.79 0.3 2.94-0.36l4.63-2.67c1.15-0.66 1.78-1.5 1.78-2.36s-0.63-1.7-1.78-2.36l-4.63-2.67c-0.71-0.41-1.37-0.61-1.95-0.61z"/>
</svg>
