<?xml version="1.0" encoding="UTF-8"?>
<svg width="24" height="24" viewBox="0 0 24 24" xmlns="http://www.w3.org/2000/svg">
 <path d="m15 22.75h-6c-5.43 0-7.75-2.32-7.75-7.75v-6c0-5.43 2.32-7.75 7.75-7.75h6c5.43 0 7.75 2.32 7.75 7.75v6c0 5.43-2.32 7.75-7.75 7.75zm-6-20c-4.61 0-6.25 1.64-6.25 6.25v6c0 4.61 1.64 6.25 6.25 6.25h6c4.61 0 6.25-1.64 6.25-6.25v-6c0-4.61-1.64-6.25-6.25-6.25h-6z"/>
 <path d="m9.62 18.05c-1.58 0-2.87-1.2899-2.87-2.8699s1.29-2.87 2.87-2.87 2.87 1.29 2.87 2.87-1.29 2.8699-2.87 2.8699zm0-4.2299c-0.75 0-1.37 0.61-1.37 1.37 0 0.75 0.61 1.37 1.37 1.37 0.75 0 1.37-0.61 1.37-1.37s-0.62-1.37-1.37-1.37z"/>
 <path d="m11.74 15.93c-0.41 0-0.75-0.34-0.75-0.75v-7.41c0-0.41 0.34-0.75 0.75-0.75s0.75 0.34 0.75 0.75v7.41c0 0.42-0.34 0.75-0.75 0.75z"/>
 <path d="m15.52 11.43c-0.21 0-0.4301-0.04-0.6501-0.11l-2.3399-0.7801c-0.88-0.29-1.5401-1.2099-1.5401-2.1399v-0.62c0-0.63 0.2601-1.18 0.7201-1.51s1.0599-0.41002 1.6599-0.21002l2.3401 0.78003c0.88 0.29 1.5399 1.21 1.5399 2.14v0.62c0 0.62996-0.2599 1.18-0.7199 1.51-0.29 0.21-0.64 0.3201-1.01 0.3201zm-2.81-3.98c-0.05 0-0.1 0.00997-0.13 0.02997-0.06 0.04-0.1001 0.15004-0.1001 0.29004v0.62c0 0.28 0.26 0.62997 0.52 0.71997l2.3401 0.78003c0.13 0.04 0.25 0.04 0.31 0s0.0999-0.15004 0.0999-0.29004v-0.62c0-0.28-0.26-0.62997-0.52-0.71997l-2.3399-0.78003c-0.06-0.02-0.13-0.02997-0.18-0.02997z"/>
</svg>
