<?xml version="1.0" encoding="UTF-8"?>
<svg width="24" height="24" viewBox="0 0 24 24" xmlns="http://www.w3.org/2000/svg">
 <path d="m12 22.75c-5.93 0-10.75-4.82-10.75-10.75s4.82-10.75 10.75-10.75 10.75 4.82 10.75 10.75-4.82 10.75-10.75 10.75zm0-20c-5.1 0-9.25 4.15-9.25 9.25s4.15 9.25 9.25 9.25 9.25-4.15 9.25-9.25-4.15-9.25-9.25-9.25z"/>
 <path d="m15 11.75c-0.27 0-0.54-0.15-0.67-0.41l-2.29-4.59h-0.07l-2.29 4.59c-0.18 0.37-0.63 0.52-1.01 0.34-0.37-0.19-0.52-0.64-0.34-1.01l2.5-5c0.13-0.25 0.39-0.41 0.67-0.41h1c0.28 0 0.54 0.16 0.67 0.41l2.5 5c0.19 0.37 0.04 0.82-0.34 1.01-0.1 0.04-0.22 0.07-0.33 0.07z"/>
 <path d="m12 18.75c-0.13 0-0.27-0.04-0.39-0.11l-5-3c-0.34-0.2-0.46-0.63-0.29-0.98l1-2c0.19-0.37 0.64-0.52 1.01-0.34 0.37 0.19 0.52 0.64 0.34 1.01l-0.69 1.38 4.02 2.41 4.02-2.41-0.69-1.38c-0.19-0.37-0.04-0.82 0.34-1.01 0.37-0.18 0.82-0.04 1.01 0.34l1 2c0.18 0.35 0.05 0.78-0.29 0.98l-5 3c-0.12 0.07-0.26 0.11-0.39 0.11z"/>
</svg>
