<?xml version="1.0" encoding="UTF-8"?>
<svg width="24" height="24" viewBox="0 0 24 24" xmlns="http://www.w3.org/2000/svg">
 <path d="m12 22.75c-5.93 0-10.75-4.82-10.75-10.75s4.82-10.75 10.75-10.75 10.75 4.82 10.75 10.75-4.82 10.75-10.75 10.75zm0-20c-5.1 0-9.25 4.15-9.25 9.25s4.15 9.25 9.25 9.25 9.25-4.15 9.25-9.25-4.15-9.25-9.25-9.25z"/>
 <path d="m14.57 10.89h-5.14c-0.27 0-0.51997-0.15-0.64997-0.38-0.13-0.24-0.13005-0.51996 0.00995-0.75996l2.57-4.29c0.27-0.45 1.02-0.45 1.29 0l2.5699 4.29c0.14 0.23 0.1401 0.51996 0.0101 0.75996-0.14 0.24-0.39 0.38-0.66 0.38zm-3.82-1.5h2.49l-1.25-2.08-1.24 2.08z"/>
 <path d="m11.14 16.89h-5.14c-0.27 0-0.52002-0.15-0.65002-0.38s-0.12999-0.52 0.01001-0.75l2.57-4.29c0.27-0.45 1.02-0.45 1.29 0l2.57 4.29c0.14 0.23 0.14 0.52 0.01 0.75-0.14 0.24-0.39 0.38-0.66 0.38zm-3.82-1.5h2.49l-1.25-2.08-1.24 2.08z"/>
 <path d="m18 16.89h-5.1401c-0.27 0-0.5199-0.15-0.6499-0.38s-0.1301-0.52 0.0099-0.75l2.57-4.29c0.27-0.45 1.0201-0.45 1.2901 0l2.57 4.29c0.14 0.23 0.1399 0.52 0.0099 0.75-0.14 0.24-0.3899 0.38-0.6599 0.38zm-3.8201-1.5h2.49l-1.25-2.08-1.24 2.08z"/>
</svg>
