<?xml version="1.0" encoding="UTF-8"?>
<svg width="24" height="24" viewBox="0 0 24 24" xmlns="http://www.w3.org/2000/svg">
 <path d="m12.01 22.74c-0.63 0-1.25-0.21-1.74-0.63l-1.58-1.35c-0.16-0.14-0.56-0.28-0.77-0.28h-1.75c-1.48 0-2.68-1.2-2.68-2.68v-1.71c0-0.21-0.14-0.61-0.27-0.76l-1.36-1.6c-0.82-0.97-0.82-2.49 0-3.47l1.36-1.6c0.13-0.15 0.27-0.55 0.27-0.76v-1.7c0-1.48 1.2-2.68 2.68-2.68h1.73c0.21 0 0.6-0.15 0.77-0.29l1.58-1.35c0.98-0.83 2.51-0.83 3.49 0l1.58 1.35c0.16 0.14 0.57 0.28 0.78 0.28h1.7c1.48 0 2.68 1.2 2.68 2.68v1.7c0 0.21 0.15 0.6 0.29 0.77l1.35 1.58c0.84 0.99 0.83 2.52 0 3.49l-1.35 1.58c-0.14 0.17-0.28 0.56-0.28 0.77v1.7c0 1.48-1.2 2.68-2.68 2.68h-1.7c-0.21 0-0.6 0.15-0.78 0.29l-1.58 1.35c-0.49 0.43-1.12 0.64-1.74 0.64zm-5.84-17.72c-0.65 0-1.18 0.53-1.18 1.18v1.7c0 0.57-0.26 1.29-0.63 1.73l-1.36 1.6c-0.34 0.41-0.34 1.13 0 1.53l1.35 1.59c0.36 0.41 0.63 1.16 0.63 1.73v1.71c0 0.65 0.53 1.18 1.18 1.18h1.74c0.56 0 1.3 0.27 1.74 0.64l1.59 1.36c0.41 0.35 1.12 0.35 1.54 0l1.58-1.35c0.45-0.38 1.18-0.64 1.74-0.64h1.7c0.65 0 1.18-0.53 1.18-1.18v-1.7c0-0.56 0.27-1.29 0.64-1.74l1.36-1.59c0.35-0.41 0.35-1.13 0-1.54l-1.35-1.58c-0.38-0.45-0.64-1.18-0.64-1.74v-1.71c0-0.65-0.53-1.18-1.18-1.18h-1.7c-0.57 0-1.31-0.27-1.75-0.64l-1.59-1.36c-0.41-0.35-1.12-0.35-1.54 0l-1.57 1.36c-0.45 0.37-1.18 0.64-1.75 0.64h-1.73z"/>
 <path d="m14.81 16.24-2.81-6.33-2.81 6.33-1.38-0.61 3.5-7.87h1.38l3.5 7.87-1.38 0.61z"/>
 <path d="m13.75 14.06h-3.5c-0.41 0-0.75-0.34-0.75-0.75s0.34-0.75 0.75-0.75h3.5c0.41 0 0.75 0.34 0.75 0.75s-0.34 0.75-0.75 0.75z"/>
</svg>
