<svg width="24" height="24" viewBox="0 0 24 24"  xmlns="http://www.w3.org/2000/svg">
<path d="M12 22.75C6.07 22.75 1.25 17.93 1.25 12C1.25 6.07 6.07 1.25 12 1.25C17.93 1.25 22.75 6.07 22.75 12C22.75 17.93 17.93 22.75 12 22.75ZM12 2.75C6.9 2.75 2.75 6.9 2.75 12C2.75 17.1 6.9 21.25 12 21.25C17.1 21.25 21.25 17.1 21.25 12C21.25 6.9 17.1 2.75 12 2.75Z" />
<path d="M14.57 10.89H9.42999C9.15999 10.89 8.91003 10.74 8.78003 10.51C8.65003 10.27 8.64997 9.99001 8.78997 9.75001L11.36 5.46001C11.63 5.01001 12.38 5.01001 12.65 5.46001L15.22 9.75001C15.36 9.98001 15.36 10.27 15.23 10.51C15.09 10.75 14.84 10.89 14.57 10.89ZM10.75 9.39001H13.24L11.99 7.31L10.75 9.39001Z" />
<path d="M11.14 16.89H6.00003C5.73003 16.89 5.48 16.74 5.35 16.51C5.22 16.28 5.22001 15.99 5.36001 15.76L7.93002 11.47C8.20002 11.02 8.95 11.02 9.22 11.47L11.79 15.76C11.93 15.99 11.93 16.28 11.8 16.51C11.66 16.75 11.41 16.89 11.14 16.89ZM7.32003 15.39H9.81003L8.56003 13.31L7.32003 15.39Z" />
<path d="M18 16.89H12.86C12.59 16.89 12.34 16.74 12.21 16.51C12.08 16.28 12.08 15.99 12.22 15.76L14.79 11.47C15.06 11.02 15.81 11.02 16.08 11.47L18.65 15.76C18.79 15.99 18.79 16.28 18.66 16.51C18.52 16.75 18.27 16.89 18 16.89ZM14.18 15.39H16.67L15.42 13.31L14.18 15.39Z" />
</svg>
