<?xml version="1.0" encoding="UTF-8"?>
<svg width="24" height="24" viewBox="0 0 24 24" xmlns="http://www.w3.org/2000/svg">
 <path d="m9.19 17.009h-2.74c-0.43 0-0.83004-0.23-1.04-0.6s-0.21-0.83 0-1.21l5.6001-9.61c0.2-0.35 0.5699-0.56999 0.9699-0.59999s0.7901 0.16 1.0301 0.48l1.57 2.09c0.63 0.84 0.68 2 0.12 2.9l-3.34 5.35c-0.47 0.75-1.28 1.2-2.17 1.2zm-2.23-1.5h2.22c0.37 0 0.71003-0.19 0.90004-0.5l3.34-5.35c0.23-0.37 0.21-0.85-0.05-1.2l-1.3-1.73-5.11 8.78z"/>
 <path d="m17.55 17.011h-3.84c-0.43 0-0.83-0.23-1.05-0.61-0.21-0.38-0.21-0.84 0.01-1.21l1.92-3.2c0.44-0.73 1.62-0.73 2.06 0l1.92 3.2c0.22 0.37 0.23 0.84 0.01 1.21-0.19 0.37-0.6 0.61-1.03 0.61zm-3.31-1.5h2.79l-1.4-2.33-1.39 2.33z"/>
 <path d="m12 22.75c-5.93 0-10.75-4.82-10.75-10.75s4.82-10.75 10.75-10.75 10.75 4.82 10.75 10.75-4.82 10.75-10.75 10.75zm0-20c-5.1 0-9.25 4.15-9.25 9.25s4.15 9.25 9.25 9.25 9.25-4.15 9.25-9.25-4.15-9.25-9.25-9.25z"/>
</svg>
