<svg width="24" height="24" viewBox="0 0 24 24"  xmlns="http://www.w3.org/2000/svg">
<path d="M6.06009 15.5802L11.6701 5.97019C11.8301 5.69019 12.2301 5.67019 12.4201 5.93019L13.9801 8.0202C14.4301 8.6202 14.4601 9.43019 14.0701 10.0702L10.7301 15.4202C10.4001 15.9502 9.82009 16.2702 9.19009 16.2702H6.4501C6.1001 16.2602 5.88009 15.8802 6.06009 15.5802Z" />
<path d="M15.2401 12.3698L13.3201 15.5698C13.1401 15.8698 13.3601 16.2598 13.7101 16.2598H17.5501C17.9001 16.2598 18.1201 15.8798 17.9401 15.5698L16.0201 12.3698C15.8501 12.0798 15.4201 12.0798 15.2401 12.3698Z" />
<path opacity="0.4" d="M12 22C17.5228 22 22 17.5228 22 12C22 6.47715 17.5228 2 12 2C6.47715 2 2 6.47715 2 12C2 17.5228 6.47715 22 12 22Z" />
</svg>
