<?xml version="1.0" encoding="UTF-8"?>
<svg width="24" height="24" viewBox="0 0 24 24" xmlns="http://www.w3.org/2000/svg">
 <path d="m12 22.75c-0.6 0-1.19-0.14-1.67-0.41l-4.73-2.73c-1.96-1.32-2.09-1.56-2.09-3.63v-4.96c0-2.07 0.13-2.31 2.05-3.6l4.78-2.76c0.95-0.55 2.38-0.55 3.33 0l4.73 2.73c1.96 1.32 2.09 1.56 2.09 3.63v4.96c0 2.07-0.13 2.31-2.05 3.6l-4.78 2.76c-0.47 0.28-1.07 0.41-1.66 0.41zm0-17c-0.34 0-0.68 0.07-0.92 0.21l-4.73 2.73c-1.34 0.91-1.34 0.91-1.34 2.33v4.96c0 1.42 0 1.42 1.39 2.36l4.69 2.7c0.48 0.28 1.35 0.28 1.83 0l4.73-2.73c1.34-0.91 1.34-0.91 1.34-2.33v-4.96c0-1.42 0-1.42-1.39-2.36l-4.69-2.7c-0.23-0.14-0.57-0.21-0.91-0.21z"/>
 <path d="m17.5 8.38c-0.41 0-0.75-0.34-0.75-0.75v-2.63c0-1.58-0.67-2.25-2.25-2.25h-5c-1.58 0-2.25 0.67-2.25 2.25v2.56c0 0.41-0.34 0.75-0.75 0.75s-0.75-0.33-0.75-0.75v-2.56c0-2.42 1.33-3.75 3.75-3.75h5c2.42 0 3.75 1.33 3.75 3.75v2.63c0 0.41-0.34 0.75-0.75 0.75z"/>
 <path d="m13.63 17.63c-0.21 0-0.43-0.04-0.65-0.13l-0.98-0.38-0.98 0.39c-0.53 0.21-1.07 0.16-1.47-0.13s-0.61-0.79-0.58-1.36l0.06-1.05-0.67-0.81c-0.36-0.45-0.48-0.97-0.32-1.45 0.15-0.47 0.56-0.83 1.11-0.97l1.02-0.26 0.57-0.89c0.61-0.95998 1.92-0.95998 2.53 0l0.57 0.89 1.02 0.26c0.55 0.14 0.96 0.5 1.11 0.97s0.03 1-0.33 1.44l-0.67 0.81 0.06 1.05c0.03 0.57-0.18 1.06-0.58 1.36-0.24 0.17-0.52 0.26-0.82 0.26zm-4.11-4.43 0.66996 0.81c0.23 0.27 0.36 0.7 0.34 1.05l-0.06 1.05 0.98-0.39c0.33-0.13 0.77-0.13 1.1 0l0.98 0.39-0.06-1.05c-0.02-0.35 0.11-0.77 0.34-1.05l0.67-0.81-1.02-0.26c-0.34-0.09-0.7-0.35-0.89-0.64l-0.56-0.88-0.57 0.88c-0.19 0.3-0.55 0.56-0.89 0.65l-1.03 0.25z"/>
</svg>
