<svg width="24" height="24" viewBox="0 0 24 24"  xmlns="http://www.w3.org/2000/svg">
<path d="M12.3801 16.9198H10.0901C9.68012 16.9198 9.34012 16.5798 9.34012 16.1698C9.34012 15.7598 9.68012 15.4198 10.0901 15.4198H12.3801C12.8101 15.4198 13.1601 15.0698 13.1601 14.6398C13.1601 14.2098 12.8101 13.8598 12.3801 13.8598H10.0901C9.85012 13.8598 9.62013 13.7398 9.48013 13.5498C9.34013 13.3598 9.30013 13.0998 9.38013 12.8698L10.1401 10.5798C10.2401 10.2698 10.5301 10.0698 10.8501 10.0698H13.9101C14.3201 10.0698 14.6601 10.4098 14.6601 10.8198C14.6601 11.2298 14.3201 11.5698 13.9101 11.5698H11.3901L11.1301 12.3598H12.3801C13.6401 12.3598 14.6601 13.3798 14.6601 14.6398C14.6601 15.8998 13.6401 16.9198 12.3801 16.9198Z" />
<path opacity="0.4" d="M12.0001 3.47994C11.9201 3.47994 11.8401 3.48995 11.7601 3.48995L12.5801 2.46993C12.8401 2.14993 12.7901 1.66994 12.4601 1.41994C12.1301 1.16994 11.6701 1.20994 11.4101 1.53994L9.43008 4.00997C9.42008 4.01997 9.4201 4.03995 9.4101 4.04995C9.3801 4.08995 9.36009 4.13996 9.34009 4.18996C9.32009 4.22996 9.3001 4.26997 9.2901 4.31997C9.2801 4.36997 9.28009 4.40998 9.28009 4.45998C9.28009 4.50998 9.28009 4.55994 9.28009 4.60994C9.28009 4.62994 9.28009 4.63993 9.28009 4.65993C9.29009 4.68993 9.3101 4.71996 9.3201 4.74996C9.3401 4.79996 9.3601 4.83997 9.3801 4.88997C9.4101 4.92997 9.44009 4.96996 9.47009 4.99996C9.49009 5.02996 9.5101 5.05997 9.5401 5.07997C9.5501 5.08997 9.57009 5.09994 9.59009 5.10994C9.62009 5.12994 9.6501 5.13993 9.6701 5.15993C9.7201 5.18993 9.78009 5.20993 9.84009 5.21993C9.87009 5.22993 9.90008 5.22995 9.93008 5.23995C9.96008 5.23995 9.9801 5.24996 10.0101 5.24996C10.0401 5.24996 10.0601 5.23994 10.0801 5.22994C10.1101 5.22994 10.1401 5.23994 10.1701 5.22994C10.8101 5.07994 11.4101 5.00997 11.9801 5.00997C16.4701 5.00997 20.1201 8.65998 20.1201 13.15C20.1201 17.64 16.4701 21.2899 11.9801 21.2899C7.4901 21.2899 3.84009 17.64 3.84009 13.15C3.84009 11.41 4.41008 9.72994 5.49008 8.28994C5.74008 7.95994 5.67009 7.48995 5.34009 7.23995C5.01009 6.98995 4.5401 7.05997 4.2901 7.38997C3.0101 9.08997 2.34009 11.08 2.34009 13.15C2.34009 18.46 6.6601 22.7899 11.9801 22.7899C17.3001 22.7899 21.6201 18.47 21.6201 13.15C21.6201 7.82998 17.3101 3.47994 12.0001 3.47994Z" />
</svg>
