<?xml version="1.0" encoding="UTF-8"?>
<svg width="24" height="24" viewBox="0 0 24 24" xmlns="http://www.w3.org/2000/svg">
 <path d="m20.05 18.36c-0.46 0-0.93-0.12-1.35-0.37l-6.34-3.66c-0.29-0.17-0.52-0.37-0.69-0.59-0.11-0.13-0.17-0.3-0.17-0.47v-2.56c0-0.17 0.06-0.34 0.17-0.47 0.18-0.22 0.41-0.42003 0.69-0.58003l6.35-3.67c0.84-0.49 1.85-0.49 2.7 0s1.35 1.36 1.35 2.34v7.32c0 0.98-0.5 1.85-1.35 2.34-0.43 0.25-0.9 0.37-1.36 0.37zm-7.06-5.4c0.04 0.03 0.08 0.06 0.12 0.08l6.33 3.65c0.38 0.22 0.83 0.22 1.2 0 0.38-0.22 0.6-0.61 0.6-1.04v-7.32c0-0.43-0.22-0.81997-0.6-1.04s-0.82-0.22-1.2 0l-6.34 3.66c-0.04 0.02-0.08 0.05-0.11 0.08v1.93z"/>
 <path d="m10.29 18.36c-0.45999 0-0.93-0.12-1.35-0.37l-6.34-3.66c-0.84-0.49-1.35-1.36-1.35-2.34s0.50001-1.85 1.35-2.34l6.34-3.66c0.84-0.49 1.85-0.49 2.7 0s1.35 1.36 1.35 2.34v7.32c0 0.98-0.5 1.85-1.35 2.34-0.42 0.25-0.89 0.37-1.35 0.37zm0-11.22c-0.21 0-0.41 0.04998-0.6 0.15998l-6.34 3.66c-0.38 0.22-0.60001 0.61-0.60001 1.04s0.22001 0.82 0.60001 1.04l6.34 3.66c0.38 0.22 0.83 0.22 1.2 0 0.38-0.22 0.6-0.6 0.6-1.04v-7.32c0-0.43-0.22-0.82-0.6-1.04-0.19-0.11-0.39-0.15998-0.6-0.15998z"/>
</svg>
