<?xml version="1.0" encoding="UTF-8"?>
<svg width="24" height="24" viewBox="0 0 24 24" xmlns="http://www.w3.org/2000/svg">
 <path d="m12.38 16.92h-2.29c-0.40998 0-0.74998-0.34-0.74998-0.75s0.34-0.75 0.74998-0.75h2.29c0.43 0 0.78-0.3499 0.78-0.7799s-0.35-0.7801-0.78-0.7801h-2.29c-0.23998 0-0.46997-0.12-0.60997-0.31s-0.18-0.4499-0.1-0.6799l0.75997-2.29c0.1-0.31 0.39-0.51 0.71-0.51h3.06c0.41 0 0.75 0.34 0.75 0.75s-0.34 0.75-0.75 0.75h-2.52l-0.26 0.7899h1.25c1.26 0 2.28 1.0201 2.28 2.2801s-1.02 2.2799-2.28 2.2799z"/>
 <path d="m10.02 5.2199c-0.17003 0-0.33003-0.04998-0.47003-0.16998-0.32-0.26-0.36999-0.72999-0.11999-1.05l1.98-2.47c0.26-0.32 0.73-0.37006 1.05-0.12006 0.32 0.26 0.37 0.73005 0.12 1.05l-1.98 2.47c-0.14 0.19-0.36 0.28998-0.58 0.28998z"/>
 <path d="m12 22.75c-5.31 0-9.64-4.32-9.64-9.64 0-2.07 0.67002-4.06 1.95-5.76 0.25-0.33 0.71998-0.39997 1.05-0.14997s0.40003 0.71999 0.15003 1.05c-1.08 1.44-1.65 3.12-1.65 4.86 0 4.49 3.65 8.14 8.14 8.14 4.49 0 8.14-3.65 8.14-8.14 0-4.49-3.65-8.14-8.14-8.14-0.58 0-1.17 0.07003-1.81 0.22003-0.40002 0.09-0.81001-0.16-0.90001-0.56s0.15999-0.81002 0.55999-0.90002c0.75002-0.17 1.46-0.26001 2.15-0.26001 5.31 0 9.64 4.32 9.64 9.64 0 5.32-4.33 9.64-9.64 9.64z"/>
</svg>
