<?xml version="1.0" encoding="UTF-8"?>
<svg width="24" height="24" viewBox="0 0 24 24" xmlns="http://www.w3.org/2000/svg">
 <path d="m15 22.75h-6c-5.43 0-7.75-2.32-7.75-7.75v-6c0-5.43 2.32-7.75 7.75-7.75h6c5.43 0 7.75 2.32 7.75 7.75v6c0 5.43-2.32 7.75-7.75 7.75zm-6-20c-4.61 0-6.25 1.64-6.25 6.25v6c0 4.61 1.64 6.25 6.25 6.25h6c4.61 0 6.25-1.64 6.25-6.25v-6c0-4.61-1.64-6.25-6.25-6.25h-6z"/>
 <path d="m13.92 16.13h-4.92c-0.41 0-0.75-0.34-0.75-0.75s0.34-0.75 0.75-0.75h4.92c1.28 0 2.33-1.04 2.33-2.33s-1.04-2.33-2.33-2.33h-6.77c-0.41 0-0.75-0.34-0.75-0.75s0.34-0.75 0.75-0.75h6.77c2.11 0 3.83 1.72 3.83 3.83s-1.72 3.83-3.83 3.83z"/>
 <path d="m8.5699 11.52c-0.19 0-0.38-0.07-0.53-0.22l-1.57-1.57c-0.29-0.29-0.29-0.77 0-1.06l1.57-1.57c0.29-0.29 0.77-0.29 1.06 0s0.29 0.77 0 1.06l-1.04 1.04 1.04 1.04c0.29 0.29 0.29 0.77 0 1.06-0.14 0.14-0.33 0.22-0.53 0.22z"/>
</svg>
