<svg width="24" height="24" viewBox="0 0 24 24"  xmlns="http://www.w3.org/2000/svg">
<path d="M9.54004 16.6701C9.13004 16.6701 8.79004 16.3301 8.79004 15.9201V12.5301L8.60003 12.7401C8.32003 13.0501 7.85004 13.0701 7.54004 12.8001C7.23004 12.5201 7.21004 12.0501 7.48004 11.7401L8.98004 10.0701C9.19004 9.84008 9.52003 9.76007 9.81003 9.87007C10.1 9.98007 10.29 10.2601 10.29 10.5701V15.9201C10.29 16.3401 9.96004 16.6701 9.54004 16.6701Z" />
<path opacity="0.4" d="M12.0001 3.47974C11.9201 3.47974 11.8401 3.48975 11.7601 3.48975L12.5801 2.46973C12.8401 2.14973 12.7901 1.66974 12.4601 1.41974C12.1401 1.15974 11.6701 1.20973 11.4101 1.53973L9.43008 4.00977C9.42008 4.01977 9.4201 4.03974 9.4101 4.04974C9.3801 4.08974 9.36009 4.13976 9.34009 4.18976C9.32009 4.22976 9.3001 4.26976 9.2901 4.31976C9.2801 4.36976 9.28009 4.40978 9.28009 4.45978C9.28009 4.50978 9.28009 4.55974 9.28009 4.60974C9.28009 4.62974 9.28009 4.63973 9.28009 4.65973C9.29009 4.68973 9.3101 4.71976 9.3201 4.74976C9.3401 4.79976 9.3501 4.83976 9.3801 4.87976C9.4101 4.91976 9.4401 4.95976 9.4801 4.99976C9.5001 5.01976 9.5101 5.04976 9.5401 5.06976C9.5501 5.07976 9.57008 5.07978 9.58008 5.08978C9.61008 5.10978 9.64008 5.12977 9.68008 5.13977C9.73008 5.16977 9.78008 5.18977 9.83008 5.19977C9.86008 5.20977 9.90008 5.20973 9.93008 5.21973C9.96008 5.21973 9.9801 5.22974 10.0101 5.22974C10.0301 5.22974 10.0601 5.21978 10.0801 5.20978C10.1101 5.20978 10.1401 5.20978 10.1801 5.20978C10.8201 5.05978 11.4201 4.98975 11.9901 4.98975C16.4801 4.98975 20.1301 8.63976 20.1301 13.1298C20.1301 17.6198 16.4801 21.2698 11.9901 21.2698C7.50008 21.2698 3.8501 17.6198 3.8501 13.1298C3.8501 11.3898 4.42009 9.70978 5.50009 8.26978C5.75009 7.93978 5.6801 7.46973 5.3501 7.21973C5.0201 6.96973 4.55008 7.03975 4.30008 7.36975C3.02008 9.06975 2.3501 11.0598 2.3501 13.1298C2.3501 18.4398 6.67008 22.7698 11.9901 22.7698C17.3101 22.7698 21.6301 18.4498 21.6301 13.1298C21.6301 7.80976 17.3101 3.47974 12.0001 3.47974Z" />
<path d="M14 16.6698C12.48 16.6698 11.25 15.4398 11.25 13.9198V12.5698C11.25 11.0498 12.48 9.81982 14 9.81982C15.52 9.81982 16.75 11.0498 16.75 12.5698V13.9198C16.75 15.4398 15.52 16.6698 14 16.6698ZM14 11.3298C13.31 11.3298 12.75 11.8898 12.75 12.5798V13.9298C12.75 14.6198 13.31 15.1798 14 15.1798C14.69 15.1798 15.25 14.6198 15.25 13.9298V12.5798C15.25 11.8898 14.69 11.3298 14 11.3298Z" />
</svg>
