<svg width="24" height="24" viewBox="0 0 24 24"  xmlns="http://www.w3.org/2000/svg">
<path d="M13.3898 18.11C13.1998 18.11 13.0098 18.04 12.8598 17.89L10.0998 15.13C9.80982 14.84 9.80982 14.36 10.0998 14.07C10.3898 13.78 10.8698 13.78 11.1598 14.07L13.9198 16.83C14.2098 17.12 14.2098 17.6 13.9198 17.89C13.7798 18.04 13.5898 18.11 13.3898 18.11Z" />
<path d="M10.6098 18.1403C10.4198 18.1403 10.2298 18.0703 10.0798 17.9203C9.7898 17.6303 9.7898 17.1503 10.0798 16.8603L12.8398 14.1003C13.1298 13.8103 13.6098 13.8103 13.8998 14.1003C14.1898 14.3903 14.1898 14.8703 13.8998 15.1603L11.1398 17.9203C10.9898 18.0703 10.7998 18.1403 10.6098 18.1403Z" />
<path d="M5.18988 6.38043C4.99988 6.38043 4.79988 6.30043 4.65988 6.16043C4.36988 5.87043 4.36988 5.39043 4.65988 5.10043L8.28988 1.47043C8.57988 1.18043 9.05988 1.18043 9.34988 1.47043C9.63988 1.76043 9.63988 2.24043 9.34988 2.53043L5.71988 6.16043C5.56988 6.30043 5.37988 6.38043 5.18988 6.38043Z" />
<path d="M18.8101 6.38043C18.6201 6.38043 18.4301 6.31043 18.2801 6.16043L14.6501 2.53043C14.3601 2.24043 14.3601 1.76043 14.6501 1.47043C14.9401 1.18043 15.4201 1.18043 15.7101 1.47043L19.3401 5.10043C19.6301 5.39043 19.6301 5.87043 19.3401 6.16043C19.2001 6.30043 19.0001 6.38043 18.8101 6.38043Z" />
<path d="M20.21 10.5996C20.14 10.5996 20.07 10.5996 20 10.5996H19.77H4C3.3 10.6096 2.5 10.6096 1.92 10.0296C1.46 9.57961 1.25 8.87961 1.25 7.84961C1.25 5.09961 3.26 5.09961 4.22 5.09961H19.78C20.74 5.09961 22.75 5.09961 22.75 7.84961C22.75 8.88961 22.54 9.57961 22.08 10.0296C21.56 10.5496 20.86 10.5996 20.21 10.5996ZM4.22 9.09961H20.01C20.46 9.10961 20.88 9.10961 21.02 8.96961C21.09 8.89961 21.24 8.65961 21.24 7.84961C21.24 6.71961 20.96 6.59961 19.77 6.59961H4.22C3.03 6.59961 2.75 6.71961 2.75 7.84961C2.75 8.65961 2.91 8.89961 2.97 8.96961C3.11 9.09961 3.54 9.09961 3.98 9.09961H4.22Z" />
<path d="M14.8902 22.7498H8.86024C5.28024 22.7498 4.48024 20.6198 4.17024 18.7698L2.76024 10.1198C2.69024 9.70975 2.97024 9.32975 3.38024 9.25975C3.79024 9.18975 4.17024 9.46975 4.24024 9.87975L5.65024 18.5198C5.94024 20.2898 6.54024 21.2498 8.86024 21.2498H14.8902C17.4602 21.2498 17.7502 20.3498 18.0802 18.6098L19.7602 9.85975C19.8402 9.44975 20.2302 9.17975 20.6402 9.26975C21.0502 9.34975 21.3102 9.73975 21.2302 10.1498L19.5502 18.8998C19.1602 20.9298 18.5102 22.7498 14.8902 22.7498Z" />
</svg>
