<svg width="24" height="24" viewBox="0 0 24 24"  xmlns="http://www.w3.org/2000/svg">
<path opacity="0.4" d="M16.1901 8.86039C15.8001 8.86039 15.4901 8.55039 15.4901 8.16039V6.88039C15.4901 5.90039 15.0701 4.96039 14.3501 4.30039C13.6101 3.63039 12.6601 3.32039 11.6601 3.41039C9.98011 3.57039 8.51011 5.28039 8.51011 7.06039V7.96039C8.51011 8.35039 8.20011 8.66039 7.81011 8.66039C7.42011 8.66039 7.11011 8.35039 7.11011 7.96039V7.06039C7.11011 4.56039 9.13011 2.25039 11.5201 2.02039C12.9101 1.89039 14.2501 2.33039 15.2801 3.27039C16.3001 4.19039 16.8801 5.51039 16.8801 6.88039V8.16039C16.8801 8.55039 16.5701 8.86039 16.1901 8.86039Z" />
<path d="M19.96 8.96008C19.12 8.03008 17.74 7.58008 15.72 7.58008H8.27999C6.25999 7.58008 4.87999 8.03008 4.03999 8.96008C3.06999 10.0401 3.09999 11.4801 3.20999 12.4801L3.90999 18.0501C4.11999 20.0001 4.90999 22.0001 9.20999 22.0001H14.79C19.09 22.0001 19.88 20.0001 20.09 18.0601L20.79 12.4701C20.9 11.4801 20.92 10.0401 19.96 8.96008ZM8.41999 13.1501H8.40999C7.85999 13.1501 7.40999 12.7001 7.40999 12.1501C7.40999 11.6001 7.85999 11.1501 8.40999 11.1501C8.96999 11.1501 9.41999 11.6001 9.41999 12.1501C9.41999 12.7001 8.96999 13.1501 8.41999 13.1501ZM15.42 13.1501H15.41C14.86 13.1501 14.41 12.7001 14.41 12.1501C14.41 11.6001 14.86 11.1501 15.41 11.1501C15.97 11.1501 16.42 11.6001 16.42 12.1501C16.42 12.7001 15.97 13.1501 15.42 13.1501Z" />
</svg>
