<svg width="24" height="24" viewBox="0 0 24 24"  xmlns="http://www.w3.org/2000/svg">
<path opacity="0.4" d="M19.24 5.57957H18.84L15.46 2.19957C15.19 1.92957 14.75 1.92957 14.47 2.19957C14.2 2.46957 14.2 2.90957 14.47 3.18957L16.86 5.57957H7.14L9.53 3.18957C9.8 2.91957 9.8 2.47957 9.53 2.19957C9.26 1.92957 8.82 1.92957 8.54 2.19957L5.17 5.57957H4.77C3.87 5.57957 2 5.57957 2 8.13957C2 9.10957 2.2 9.74957 2.62 10.1696C2.86 10.4196 3.15 10.5496 3.46 10.6196C3.75 10.6896 4.06 10.6996 4.36 10.6996H19.64C19.95 10.6996 20.24 10.6796 20.52 10.6196C21.36 10.4196 22 9.81957 22 8.13957C22 5.57957 20.13 5.57957 19.24 5.57957Z" />
<path d="M19.66 10.7004H4.35996C4.06996 10.7004 3.74996 10.6904 3.45996 10.6104L4.71996 18.3004C5.00996 20.0204 5.75996 22.0004 9.08996 22.0004H14.7C18.07 22.0004 18.67 20.3104 19.03 18.4204L20.54 10.6104C20.26 10.6804 19.96 10.7004 19.66 10.7004ZM13.92 17.8904C13.77 18.0404 13.58 18.1104 13.39 18.1104C13.2 18.1104 13.01 18.0404 12.86 17.8904L12.01 17.0404L11.13 17.9204C10.98 18.0704 10.79 18.1404 10.6 18.1404C10.41 18.1404 10.22 18.0704 10.07 17.9204C9.77996 17.6304 9.77996 17.1504 10.07 16.8604L10.95 15.9804L10.1 15.1304C9.80996 14.8404 9.80996 14.3604 10.1 14.0704C10.39 13.7804 10.87 13.7804 11.16 14.0704L12.01 14.9204L12.83 14.1004C13.12 13.8104 13.6 13.8104 13.89 14.1004C14.18 14.3904 14.18 14.8704 13.89 15.1604L13.07 15.9804L13.92 16.8304C14.22 17.1304 14.22 17.6004 13.92 17.8904Z" />
</svg>
