<?xml version="1.0" encoding="UTF-8"?>
<svg width="24" height="24" viewBox="0 0 24 24" xmlns="http://www.w3.org/2000/svg">
 <path d="m12 18.5c-2.34 0-4.25-1.91-4.25-4.25 0-0.41 0.34-0.75 0.75-0.75s0.75 0.34 0.75 0.75c0 1.52 1.23 2.75 2.75 2.75s2.75-1.23 2.75-2.75c0-0.41 0.34-0.75 0.75-0.75s0.75 0.34 0.75 0.75c0 2.34-1.91 4.25-4.25 4.25z"/>
 <path d="m5.1899 6.3804c-0.19 0-0.39-0.08-0.53-0.22-0.29-0.29-0.29-0.77 0-1.06l3.63-3.63c0.29-0.29 0.77-0.29 1.06 0s0.29 0.77 0 1.06l-3.63 3.63c-0.15 0.14-0.34 0.22-0.53 0.22z"/>
 <path d="m18.81 6.3804c-0.19 0-0.38-0.07-0.53-0.22l-3.63-3.63c-0.29-0.29-0.29-0.77 0-1.06s0.77-0.29 1.06 0l3.63 3.63c0.29 0.29 0.29 0.77 0 1.06-0.14 0.14-0.34 0.22-0.53 0.22z"/>
 <path d="m20.21 10.6h-0.21-16c-0.7 0.01-1.5 0.01-2.08-0.57-0.46-0.44999-0.67-1.15-0.67-2.18 0-2.75 2.01-2.75 2.97-2.75h15.56c0.96 0 2.97 0 2.97 2.75 0 1.04-0.21 1.73-0.67 2.18-0.52 0.52-1.22 0.57-1.87 0.57zm-15.99-1.5h15.79c0.45 0.01 0.87 0.01 1.01-0.13 0.07-0.07 0.22-0.31 0.22-1.12 0-1.13-0.28-1.25-1.47-1.25h-15.55c-1.19 0-1.47 0.12-1.47 1.25 0 0.81 0.16 1.05 0.22 1.12 0.14 0.13 0.57 0.13 1.01 0.13h0.24z"/>
 <path d="m14.89 22.75h-6.03c-3.58 0-4.38-2.13-4.69-3.98l-1.41-8.65c-0.07-0.41005 0.21-0.79005 0.62-0.86005 0.4-0.07 0.79 0.21 0.86 0.62l1.41 8.64c0.29 1.77 0.89 2.73 3.21 2.73h6.03c2.57 0 2.86-0.9 3.19-2.64l1.68-8.75c0.08-0.41 0.47-0.68 0.88-0.59 0.41 0.08 0.67 0.47 0.59 0.88005l-1.68 8.75c-0.39 2.03-1.04 3.85-4.66 3.85z"/>
</svg>
