<svg width="24" height="24" viewBox="0 0 24 24"  xmlns="http://www.w3.org/2000/svg">
<path opacity="0.4" d="M16.1901 8.86039C15.8001 8.86039 15.4901 8.55039 15.4901 8.16039V6.88039C15.4901 5.90039 15.0701 4.96039 14.3501 4.30039C13.6101 3.63039 12.6601 3.32039 11.6601 3.41039C9.98011 3.57039 8.51011 5.28039 8.51011 7.06039V7.96039C8.51011 8.35039 8.20011 8.66039 7.81011 8.66039C7.42011 8.66039 7.11011 8.35039 7.11011 7.96039V7.06039C7.11011 4.56039 9.13011 2.25039 11.5201 2.02039C12.9101 1.89039 14.2501 2.33039 15.2801 3.27039C16.3001 4.19039 16.8801 5.51039 16.8801 6.88039V8.16039C16.8801 8.55039 16.5701 8.86039 16.1901 8.86039Z" />
<path d="M19.96 8.96008C19.12 8.03008 17.74 7.58008 15.72 7.58008H8.27999C6.25999 7.58008 4.87999 8.03008 4.03999 8.96008C3.06999 10.0401 3.09999 11.4801 3.20999 12.4801L3.90999 18.0501C4.11999 20.0001 4.90999 22.0001 9.20999 22.0001H14.79C19.09 22.0001 19.88 20.0001 20.09 18.0601L20.79 12.4701C20.9 11.4801 20.93 10.0401 19.96 8.96008ZM12 18.5801C9.90999 18.5801 8.20999 16.8801 8.20999 14.7901C8.20999 12.7001 9.90999 11.0001 12 11.0001C14.09 11.0001 15.79 12.7001 15.79 14.7901C15.79 16.8801 14.09 18.5801 12 18.5801Z" />
<path opacity="0.4" d="M15.79 14.79C15.79 16.88 14.09 18.58 12 18.58C9.90996 18.58 8.20996 16.88 8.20996 14.79C8.20996 12.7 9.90996 11 12 11C14.09 11 15.79 12.7 15.79 14.79Z" />
<path d="M10.9999 16.5801C10.7499 16.5801 10.4999 16.4501 10.3599 16.2201C10.1499 15.8701 10.2599 15.4001 10.6199 15.1901L11.5099 14.6601V13.5801C11.5099 13.1701 11.8499 12.8301 12.2599 12.8301C12.6699 12.8301 12.9999 13.1601 12.9999 13.5801V15.0801C12.9999 15.3401 12.8599 15.5901 12.6399 15.7201L11.3899 16.4701C11.2699 16.5401 11.1299 16.5801 10.9999 16.5801Z" />
</svg>
