<?xml version="1.0" encoding="UTF-8"?>
<svg width="24" height="24" viewBox="0 0 24 24" xmlns="http://www.w3.org/2000/svg">
 <path d="m12 19.75c-2.62 0-4.75-2.13-4.75-4.75s2.13-4.75 4.75-4.75 4.75 2.13 4.75 4.75-2.13 4.75-4.75 4.75zm0-8c-1.79 0-3.25 1.46-3.25 3.25s1.46 3.25 3.25 3.25 3.25-1.46 3.25-3.25-1.46-3.25-3.25-3.25z"/>
 <path d="m11.44 16.54c-0.32 0-0.64-0.12-0.88-0.37l-0.65002-0.65c-0.29-0.29-0.29-0.77 0-1.06 0.29002-0.29 0.77002-0.29 1.06 0l0.48 0.48 1.61-1.48c0.3-0.28 0.78-0.26 1.06 0.04s0.26 0.78-0.04 1.06l-1.78 1.64c-0.25 0.23-0.56 0.34-0.86 0.34z"/>
 <path d="m15 22.75h-6c-4.62 0-5.48-2.15-5.7-4.24l-0.75-5.99c-0.11-1.08-0.15-2.63 0.9-3.79 0.9-1 2.39-1.48 4.55-1.48h8c2.17 0 3.66 0.49 4.55 1.48 1.04 1.16 1.01 2.71 0.9 3.77l-0.75 6.01c-0.22 2.09-1.08 4.24-5.7 4.24zm-7-14c-1.69 0-2.85 0.33-3.44 0.99-0.49 0.54-0.65 1.37-0.52 2.61l0.75 5.99c0.17 1.6 0.61 2.92 4.21 2.92h6c3.6 0 4.04-1.31 4.21-2.9l0.75-6.01c0.13-1.22-0.03-2.05-0.52-2.6-0.59-0.67-1.75-1-3.44-1h-8z"/>
 <path d="m16.5 8.6303c-0.41 0-0.75-0.34-0.75-0.75v-1.38c0-1.05-0.45-2.07-1.23-2.78-0.79-0.72-1.82-1.05-2.89-0.95-1.8 0.17-3.38 2.01-3.38 3.93v0.97c0 0.41-0.34 0.75-0.75 0.75s-0.75-0.34-0.75-0.75v-0.98c0-2.69 2.17-5.17 4.74-5.42 1.5-0.14 2.94 0.33 4.04 1.34 1.09 0.99 1.72 2.41 1.72 3.89v1.38c0 0.41-0.34 0.75-0.75 0.75z"/>
</svg>
