<?xml version="1.0" encoding="UTF-8"?>
<svg width="24" height="24" viewBox="0 0 24 24" xmlns="http://www.w3.org/2000/svg">
 <path d="m21 11.75h-18c-0.96 0-1.75-0.79-1.75-1.75v-3.32c0-0.68 0.46998-1.37 1.1-1.62l9-3.6c0.38-0.15 0.92-0.15 1.3 0l9 3.6c0.63 0.25 1.1 0.95 1.1 1.62v3.32c0 0.96-0.79 1.75-1.75 1.75zm-9-8.9099c-0.04 0-0.08-5e-5 -0.1 0.00995l-8.99 3.6c-0.06 0.03-0.15997 0.15998-0.15997 0.22998v3.32c0 0.14 0.11 0.25 0.25 0.25h18c0.14 0 0.25-0.11 0.25-0.25v-3.32c0-0.07-0.09-0.19998-0.16-0.22998l-9-3.6c-0.02-0.01-0.05-0.00995-0.09-0.00995z"/>
 <path d="m22 22.75h-20c-0.41 0-0.75-0.34-0.75-0.75v-3c0-0.96 0.79-1.75 1.75-1.75h18c0.96 0 1.75 0.79 1.75 1.75v3c0 0.41-0.34 0.75-0.75 0.75zm-19.25-1.5h18.5v-2.25c0-0.14-0.11-0.25-0.25-0.25h-18c-0.14 0-0.25 0.11-0.25 0.25v2.25z"/>
 <path d="m4 18.75c-0.41 0-0.75-0.34-0.75-0.75v-7c0-0.41 0.34-0.75 0.75-0.75s0.75 0.34 0.75 0.75v7c0 0.41-0.34 0.75-0.75 0.75z"/>
 <path d="m8 18.75c-0.41 0-0.75-0.34-0.75-0.75v-7c0-0.41 0.34-0.75 0.75-0.75s0.75 0.34 0.75 0.75v7c0 0.41-0.34 0.75-0.75 0.75z"/>
 <path d="m12 18.75c-0.41 0-0.75-0.34-0.75-0.75v-7c0-0.41 0.34-0.75 0.75-0.75s0.75 0.34 0.75 0.75v7c0 0.41-0.34 0.75-0.75 0.75z"/>
 <path d="m16 18.75c-0.41 0-0.75-0.34-0.75-0.75v-7c0-0.41 0.34-0.75 0.75-0.75s0.75 0.34 0.75 0.75v7c0 0.41-0.34 0.75-0.75 0.75z"/>
 <path d="m20 18.75c-0.41 0-0.75-0.34-0.75-0.75v-7c0-0.41 0.34-0.75 0.75-0.75s0.75 0.34 0.75 0.75v7c0 0.41-0.34 0.75-0.75 0.75z"/>
 <path d="m23 22.75h-22c-0.41 0-0.75-0.34-0.75-0.75s0.34-0.75 0.75-0.75h22c0.41 0 0.75 0.34 0.75 0.75s-0.34 0.75-0.75 0.75z"/>
 <path d="m12 9.25c-1.24 0-2.25-1.01-2.25-2.25s1.01-2.25 2.25-2.25 2.25 1.01 2.25 2.25-1.01 2.25-2.25 2.25zm0-3c-0.41 0-0.75 0.34-0.75 0.75s0.34 0.75 0.75 0.75 0.75-0.34 0.75-0.75-0.34-0.75-0.75-0.75z"/>
</svg>
