<svg width="24" height="24" viewBox="0 0 24 24"  xmlns="http://www.w3.org/2000/svg">
<path d="M21 11.7501H3C2.04 11.7501 1.25 10.9601 1.25 10.0001V6.68013C1.25 6.00013 1.71998 5.31013 2.34998 5.06013L11.35 1.46016C11.73 1.31016 12.27 1.31016 12.65 1.46016L21.65 5.06013C22.28 5.31013 22.75 6.01013 22.75 6.68013V10.0001C22.75 10.9601 21.96 11.7501 21 11.7501ZM12 2.84016C11.96 2.84016 11.92 2.84011 11.9 2.85011L2.90997 6.45015C2.84997 6.48015 2.75 6.61013 2.75 6.68013V10.0001C2.75 10.1401 2.86 10.2501 3 10.2501H21C21.14 10.2501 21.25 10.1401 21.25 10.0001V6.68013C21.25 6.61013 21.16 6.48015 21.09 6.45015L12.09 2.85011C12.07 2.84011 12.04 2.84016 12 2.84016Z" />
<path d="M22 22.7501H2C1.59 22.7501 1.25 22.4101 1.25 22.0001V19.0001C1.25 18.0401 2.04 17.2501 3 17.2501H21C21.96 17.2501 22.75 18.0401 22.75 19.0001V22.0001C22.75 22.4101 22.41 22.7501 22 22.7501ZM2.75 21.2501H21.25V19.0001C21.25 18.8601 21.14 18.7501 21 18.7501H3C2.86 18.7501 2.75 18.8601 2.75 19.0001V21.2501Z" />
<path d="M4 18.7501C3.59 18.7501 3.25 18.4101 3.25 18.0001V11.0001C3.25 10.5901 3.59 10.2501 4 10.2501C4.41 10.2501 4.75 10.5901 4.75 11.0001V18.0001C4.75 18.4101 4.41 18.7501 4 18.7501Z" />
<path d="M8 18.7501C7.59 18.7501 7.25 18.4101 7.25 18.0001V11.0001C7.25 10.5901 7.59 10.2501 8 10.2501C8.41 10.2501 8.75 10.5901 8.75 11.0001V18.0001C8.75 18.4101 8.41 18.7501 8 18.7501Z" />
<path d="M12 18.7501C11.59 18.7501 11.25 18.4101 11.25 18.0001V11.0001C11.25 10.5901 11.59 10.2501 12 10.2501C12.41 10.2501 12.75 10.5901 12.75 11.0001V18.0001C12.75 18.4101 12.41 18.7501 12 18.7501Z" />
<path d="M16 18.7501C15.59 18.7501 15.25 18.4101 15.25 18.0001V11.0001C15.25 10.5901 15.59 10.2501 16 10.2501C16.41 10.2501 16.75 10.5901 16.75 11.0001V18.0001C16.75 18.4101 16.41 18.7501 16 18.7501Z" />
<path d="M20 18.7501C19.59 18.7501 19.25 18.4101 19.25 18.0001V11.0001C19.25 10.5901 19.59 10.2501 20 10.2501C20.41 10.2501 20.75 10.5901 20.75 11.0001V18.0001C20.75 18.4101 20.41 18.7501 20 18.7501Z" />
<path d="M23 22.7501H1C0.59 22.7501 0.25 22.4101 0.25 22.0001C0.25 21.5901 0.59 21.2501 1 21.2501H23C23.41 21.2501 23.75 21.5901 23.75 22.0001C23.75 22.4101 23.41 22.7501 23 22.7501Z" />
<path d="M12 9.25012C10.76 9.25012 9.75 8.24012 9.75 7.00012C9.75 5.76012 10.76 4.75012 12 4.75012C13.24 4.75012 14.25 5.76012 14.25 7.00012C14.25 8.24012 13.24 9.25012 12 9.25012ZM12 6.25012C11.59 6.25012 11.25 6.59012 11.25 7.00012C11.25 7.41012 11.59 7.75012 12 7.75012C12.41 7.75012 12.75 7.41012 12.75 7.00012C12.75 6.59012 12.41 6.25012 12 6.25012Z" />
</svg>
