<?xml version="1.0" encoding="UTF-8"?>
<svg width="24" height="24" viewBox="0 0 24 24" xmlns="http://www.w3.org/2000/svg">
 <path d="m13 19.75h-6c-4.41 0-5.75-1.34-5.75-5.75v-4c0-4.41 1.34-5.75 5.75-5.75h6c4.41 0 5.75 1.34 5.75 5.75v4c0 4.41-1.34 5.75-5.75 5.75zm-6-14c-3.58 0-4.25 0.68-4.25 4.25v4c0 3.57 0.67 4.25 4.25 4.25h6c3.58 0 4.25-0.68 4.25-4.25v-4c0-3.57-0.67-4.25-4.25-4.25h-6z"/>
 <path d="m20.5 15.25c-0.41 0-0.75-0.34-0.75-0.75s0.34-0.75 0.75-0.75c0.59 0 0.72-0.09 0.73-0.09 0.02-0.06 0.02-0.41 0.02-0.66v-2c0-0.25 0-0.59-0.04-0.68-0.01 0.01-0.16-0.07-0.71-0.07-0.41 0-0.75-0.34-0.75-0.75s0.34-0.75 0.75-0.75c2.08 0 2.25 1.02 2.25 2.25v2c0 1.23-0.17 2.25-2.25 2.25z"/>
 <path d="m6.3801 14.75c-0.06 0-0.12-0.01-0.18-0.02-0.4-0.1-0.65-0.51-0.55-0.91 0.3-1.19 0.3-2.45 0-3.64-0.1-0.4 0.14-0.81 0.55-0.91 0.39-0.1 0.8 0.15 0.9 0.55 0.36 1.43 0.36 2.94 0 4.36-0.08 0.34-0.39 0.57-0.72 0.57z"/>
</svg>
