<?xml version="1.0" encoding="UTF-8"?>
<svg width="24" height="24" viewBox="0 0 24 24" xmlns="http://www.w3.org/2000/svg">
 <path d="m20.5 15.25c-0.41 0-0.75-0.34-0.75-0.75s0.34-0.75 0.75-0.75c0.59 0 0.72-0.09 0.73-0.09 0.02-0.06 0.02-0.41 0.02-0.66v-2c0-0.25 0-0.59-0.04-0.68-0.01 0.01-0.16-0.07-0.71-0.07-0.41 0-0.75-0.34-0.75-0.75s0.34-0.75 0.75-0.75c2.08 0 2.25 1.02 2.25 2.25v2c0 1.23-0.17 2.25-2.25 2.25z"/>
 <path d="m3.9999 22.25c-0.14 0-0.28-0.04-0.4-0.12-0.35-0.22-0.46-0.68-0.23-1.03l12-19c0.22-0.35 0.69-0.45 1.03-0.23 0.35 0.22 0.46 0.68 0.23 1.03l-12 19c-0.14 0.23-0.38 0.35-0.63 0.35z"/>
 <path d="m5.39 19.67h-0.08c-3.4-0.38-4.06-2.36-4.06-5.67v-4c0-4.41 1.34-5.75 5.75-5.75 0.41 0 0.75 0.34 0.75 0.75s-0.34 0.75-0.75 0.75c-3.57 0-4.25 0.68-4.25 4.25v4c0 3.32 0.68 3.95 2.72 4.18 0.41 0.05 0.71 0.42 0.66 0.83-0.04 0.38-0.37 0.66-0.74 0.66z"/>
 <path d="m13 19.75c-0.41 0-0.75-0.34-0.75-0.75s0.34-0.75 0.75-0.75c3.57 0 4.25-0.68 4.25-4.25v-4c0-3.31-0.68-3.95-2.71-4.18-0.41-0.05-0.71-0.42-0.66-0.83s0.41-0.72 0.83-0.66c3.38 0.38 4.04 2.37 4.04 5.67v4c0 4.41-1.34 5.75-5.75 5.75z"/>
</svg>
