<svg width="24" height="24" viewBox="0 0 24 24"  xmlns="http://www.w3.org/2000/svg">
<path opacity="0.4" d="M12.93 4.79001H7.35C3.25 4.79001 2 6.04001 2 10.14V13.86C2 17.96 3.25 19.21 7.35 19.21H12.93C17.03 19.21 18.28 17.96 18.28 13.86V10.14C18.28 6.04001 17.03 4.79001 12.93 4.79001Z" />
<path d="M20.42 9.00001C20.28 8.99001 20.1 8.98001 19.9 8.98001C19.51 8.98001 19.2 9.29001 19.2 9.68001V14.33C19.2 14.72 19.51 15.03 19.9 15.03C20.1 15.03 20.27 15.02 20.44 15.01C22 14.83 22 13.73 22 12.93V11.07C22 10.27 22 9.17001 20.42 9.00001Z" />
<path d="M10.0099 16.24C9.83993 16.24 9.65993 16.18 9.51993 16.06C9.20993 15.79 9.16993 15.32 9.43993 15L11.2399 12.89C11.2499 12.86 11.2399 12.83 11.2199 12.8C11.1999 12.76 11.1599 12.74 11.1099 12.74H9.11993C8.52993 12.74 8.00993 12.44 7.70993 11.93C7.41993 11.42 7.41993 10.82 7.70993 10.31L9.41993 8.05C9.66993 7.72 10.1399 7.65 10.4699 7.9C10.7999 8.15 10.8699 8.62 10.6199 8.95L8.96993 11.14C8.99993 11.1 8.99993 11.14 9.01993 11.19C9.03993 11.23 9.07993 11.25 9.12993 11.25H11.1399C11.7299 11.25 12.2499 11.55 12.5499 12.06C12.8399 12.57 12.8399 13.17 12.5499 13.68C12.5299 13.72 12.4999 13.76 12.4699 13.79L10.5999 15.98C10.4399 16.16 10.2299 16.24 10.0099 16.24Z" />
</svg>
