<?xml version="1.0" encoding="UTF-8"?>
<svg width="24" height="24" viewBox="0 0 24 24" xmlns="http://www.w3.org/2000/svg">
 <path d="m9 18.75h-6c-0.96 0-1.75-0.79-1.75-1.75v-10c0-0.96 0.79-1.75 1.75-1.75h5c2.07 0 3.75 1.68 3.75 3.75 0 1.03-0.42 1.96-1.09 2.64 1.24 0.61 2.09 1.89 2.09 3.36 0 2.07-1.68 3.75-3.75 3.75zm-6.25-6v4.25c0 0.14 0.11 0.25 0.25 0.25h6c1.24 0 2.25-1.01 2.25-2.25s-1.01-2.25-2.25-2.25h-6.25zm0-1.5h5.25c1.24 0 2.25-1.01 2.25-2.25s-1.01-2.25-2.25-2.25h-5c-0.14 0-0.25 0.11-0.25 0.25v4.25z"/>
 <path d="m19.67 18.75h-1.67c-2.62 0-4.75-2.13-4.75-4.75s2.13-4.75 4.75-4.75 4.75 2.13 4.75 4.75c0 0.41-0.34 0.75-0.75 0.75h-7.16c0.34 1.43 1.63 2.5 3.16 2.5h1.67c0.41 0 0.75 0.34 0.75 0.75s-0.34 0.75-0.75 0.75zm-4.83-5.5h6.33c-0.34-1.43-1.63-2.5-3.16-2.5s-2.83 1.07-3.17 2.5z"/>
 <path d="m19.5 8.25h-3c-0.41 0-0.75-0.34-0.75-0.75s0.34-0.75 0.75-0.75h3c0.41 0 0.75 0.34 0.75 0.75s-0.34 0.75-0.75 0.75z"/>
</svg>
