<?xml version="1.0" encoding="UTF-8"?>
<svg width="24" height="24" viewBox="0 0 24 24" xmlns="http://www.w3.org/2000/svg">
 <path d="m3 9.75c-1.52 0-2.75-1.23-2.75-2.75s1.23-2.75 2.75-2.75 2.75 1.23 2.75 2.75-1.23 2.75-2.75 2.75zm0-4c-0.69 0-1.25 0.56-1.25 1.25s0.56 1.25 1.25 1.25 1.25-0.56 1.25-1.25-0.56-1.25-1.25-1.25z"/>
 <path d="m21 9.75c-1.52 0-2.75-1.23-2.75-2.75s1.23-2.75 2.75-2.75 2.75 1.23 2.75 2.75-1.23 2.75-2.75 2.75zm0-4c-0.69 0-1.25 0.56-1.25 1.25s0.56 1.25 1.25 1.25 1.25-0.56 1.25-1.25-0.56-1.25-1.25-1.25z"/>
 <path d="m19 7.75h-4c-0.41 0-0.75-0.34-0.75-0.75s0.34-0.75 0.75-0.75h4c0.41 0 0.75 0.34 0.75 0.75s-0.34 0.75-0.75 0.75z"/>
 <path d="m9 7.75h-4c-0.41 0-0.75-0.34-0.75-0.75s0.34-0.75 0.75-0.75h4c0.41 0 0.75 0.34 0.75 0.75s-0.34 0.75-0.75 0.75z"/>
 <path d="m6 20.75h-2c-1.24 0-2.25-1.01-2.25-2.25v-2c0-1.24 1.01-2.25 2.25-2.25h2c1.24 0 2.25 1.01 2.25 2.25v2c0 0.9-0.53 1.7-1.35 2.05-0.27 0.13-0.58 0.2-0.9 0.2zm-2-5c-0.41 0-0.75 0.34-0.75 0.75v2c0 0.41 0.34 0.75 0.75 0.75h2c0.1 0 0.19-0.0199 0.29-0.0699 0.29-0.12 0.46-0.3901 0.46-0.6801v-2c0-0.41-0.34-0.75-0.75-0.75h-2z"/>
 <path d="m20 20.75h-2c-0.32 0-0.63-0.07-0.93-0.21-0.79-0.33-1.32-1.14-1.32-2.04v-2c0-1.24 1.01-2.25 2.25-2.25h2c1.24 0 2.25 1.01 2.25 2.25v2c0 1.24-1.01 2.25-2.25 2.25zm-2-5c-0.41 0-0.75 0.34-0.75 0.75v2c0 0.29 0.17 0.56 0.43 0.67 0.13 0.06 0.22 0.08 0.32 0.08h2c0.41 0 0.75-0.34 0.75-0.75v-2c0-0.41-0.34-0.75-0.75-0.75h-2z"/>
 <path d="m13.5 10.75h-3c-1.24 0-2.25-1.01-2.25-2.25v-3c0-1.24 1.01-2.25 2.25-2.25h3c1.24 0 2.25 1.01 2.25 2.25v3c0 1.24-1.01 2.25-2.25 2.25zm-3-6c-0.41 0-0.75 0.34-0.75 0.75v3c0 0.41 0.34 0.75 0.75 0.75h3c0.41 0 0.75-0.34 0.75-0.75v-3c0-0.41-0.34-0.75-0.75-0.75h-3z"/>
 <path d="m18.97 15.75h-0.09c-0.41-0.05-0.71-0.42-0.66-0.83 0.02-0.14 0.02-0.27 0.02-0.41 0-2.6-1.41-5.0001-3.59-6.1001-0.37-0.19-0.52-0.63995-0.33-1.01s0.64-0.52001 1.01-0.33001c2.68 1.36 4.41 4.28 4.41 7.44 0 0.2-0.01 0.3899-0.04 0.5899-0.03 0.37-0.35 0.6501-0.73 0.6501z"/>
 <path d="m5.03 15.75c-0.38 0-0.7-0.28-0.74-0.66-0.02-0.2-0.04-0.39-0.04-0.59 0-3.16 1.73-6.08 4.41-7.44 0.37-0.19 0.82-0.03998 1.01 0.33002s0.04 0.82001-0.33 1.01c-2.18 1.1-3.59 3.5-3.59 6.1 0 0.14 0.01 0.27 0.02 0.41 0.05 0.41-0.25 0.78-0.66 0.83-0.02 0.01-0.05 0.01-0.08 0.01z"/>
</svg>
