<?xml version="1.0" encoding="UTF-8"?>
<svg width="24" height="24" viewBox="0 0 24 24" xmlns="http://www.w3.org/2000/svg">
 <path d="m12 22.25c-0.82 0-1.64-0.26-2.32-0.77l-5.21-3.9c-0.97-0.73-1.55-1.89-1.55-3.1v-12.72h18.16v12.72c0 1.21-0.58 2.37-1.55 3.1l-5.21 3.9c-0.68 0.51-1.5 0.77-2.32 0.77zm-7.58-19v11.22c0 0.74 0.35998 1.45 0.94998 1.9l5.21 3.9c0.84 0.63 2.01 0.63 2.85 0l5.21-3.9c0.59-0.45 0.95-1.16 0.95-1.9v-11.22h-15.17z"/>
 <path d="m22 3.25h-20c-0.41 0-0.75-0.34-0.75-0.75s0.34-0.75 0.75-0.75h20c0.41 0 0.75 0.34 0.75 0.75s-0.34 0.75-0.75 0.75z"/>
 <path d="m16 8.75h-8c-0.41 0-0.75-0.34-0.75-0.75s0.34-0.75 0.75-0.75h8c0.41 0 0.75 0.34 0.75 0.75s-0.34 0.75-0.75 0.75z"/>
 <path d="m16 13.75h-8c-0.41 0-0.75-0.34-0.75-0.75s0.34-0.75 0.75-0.75h8c0.41 0 0.75 0.34 0.75 0.75s-0.34 0.75-0.75 0.75z"/>
</svg>
