<svg width="24" height="24" viewBox="0 0 24 24"  xmlns="http://www.w3.org/2000/svg">
<path d="M8.33991 10.8299C8.01991 10.8299 7.69991 10.7099 7.45991 10.4599L5.72993 8.72988C5.23993 8.23988 5.23993 7.44988 5.72993 6.95988L10.8799 1.80988C11.3699 1.31988 12.1599 1.31988 12.6499 1.80988L14.3799 3.53988C14.8699 4.02988 14.8699 4.81988 14.3799 5.30988L9.22993 10.4599C8.97993 10.7099 8.65991 10.8299 8.33991 10.8299ZM6.95991 7.84988L8.33991 9.22988L13.1299 4.43988L11.7499 3.05988L6.95991 7.84988Z" />
<path d="M8.33991 18.6399C8.01991 18.6399 7.69991 18.5199 7.45991 18.2699L5.72993 16.5399C5.23993 16.0499 5.23993 15.2599 5.72993 14.7699L14.7799 5.71988C15.2699 5.22988 16.0599 5.22988 16.5499 5.71988L18.2799 7.44988C18.7699 7.93988 18.7699 8.72988 18.2799 9.21988L9.22993 18.2699C8.97993 18.5199 8.65991 18.6399 8.33991 18.6399ZM6.95991 15.6599L8.33991 17.0399L17.0399 8.33988L15.6599 6.95988L6.95991 15.6599Z" />
<path d="M12.2399 22.5399C11.9199 22.5399 11.5999 22.4199 11.3599 22.1699L9.62992 20.4399C9.13992 19.9499 9.13992 19.1599 9.62992 18.6699L18.6799 9.61988C19.1699 9.12988 19.9599 9.12988 20.4499 9.61988L22.1799 11.3499C22.6699 11.8399 22.6699 12.6299 22.1799 13.1199L13.1299 22.1699C12.8799 22.4199 12.5599 22.5399 12.2399 22.5399ZM10.8699 19.5599L12.2499 20.9399L20.9499 12.2399L19.5699 10.8599L10.8699 19.5599Z" />
<path d="M4.43992 14.7399C4.11992 14.7399 3.79991 14.6199 3.55991 14.3799L1.8299 12.6499C1.3399 12.1599 1.3399 11.3699 1.8299 10.8799L3.55991 9.14988C4.04991 8.65988 4.8399 8.65988 5.3299 9.14988L7.05991 10.8799C7.54991 11.3699 7.54991 12.1599 7.05991 12.6499L5.3299 14.3799C5.0799 14.6199 4.75992 14.7399 4.43992 14.7399ZM3.05991 11.7599L4.43992 13.1399L5.81992 11.7599L4.43992 10.3799L3.05991 11.7599Z" />
</svg>
