<svg width="24" height="24" viewBox="0 0 24 24"  xmlns="http://www.w3.org/2000/svg">
<path d="M11.4001 2.34953L6.26011 7.49953C6.06011 7.69953 6.06011 8.00953 6.26011 8.20953L7.99011 9.93953C8.19011 10.1395 8.50011 10.1395 8.70011 9.93953L13.8501 4.78953C14.0501 4.58953 14.0501 4.27953 13.8501 4.07953L12.1201 2.34953C11.9101 2.15953 11.6001 2.15953 11.4001 2.34953Z" />
<path opacity="0.4" d="M15.3001 6.25967L6.26011 15.2997C6.06011 15.4997 6.06011 15.8097 6.26011 16.0097L7.99011 17.7397C8.19011 17.9397 8.50011 17.9397 8.70011 17.7397L17.7501 8.68967C17.9501 8.48967 17.9501 8.17967 17.7501 7.97967L16.0201 6.24967C15.8201 6.05967 15.5001 6.05967 15.3001 6.25967Z" />
<path d="M19.21 10.1598L10.16 19.2098C9.96001 19.4098 9.96001 19.7198 10.16 19.9198L11.89 21.6498C12.09 21.8498 12.4 21.8498 12.6 21.6498L21.65 12.5998C21.85 12.3998 21.85 12.0898 21.65 11.8898L19.92 10.1598C19.72 9.95977 19.4 9.95977 19.21 10.1598Z" />
<path opacity="0.4" d="M4.08996 13.8395L2.35996 12.1095C2.15996 11.9095 2.15996 11.5995 2.35996 11.3995L4.08996 9.66953C4.28996 9.46953 4.59996 9.46953 4.79996 9.66953L6.52996 11.3995C6.72996 11.5995 6.72996 11.9095 6.52996 12.1095L4.79996 13.8395C4.59996 14.0395 4.27996 14.0395 4.08996 13.8395Z" />
</svg>
