<?xml version="1.0" encoding="UTF-8"?>
<svg width="24" height="24" viewBox="0 0 24 24" xmlns="http://www.w3.org/2000/svg">
 <path d="m8.3398 10.831c-0.32 0-0.64-0.12-0.88-0.37l-1.73-1.73c-0.49-0.49-0.49-1.28 0-1.77l5.15-5.15c0.49-0.49 1.28-0.49 1.77 0l1.73 1.73c0.49 0.49 0.49 1.28 0 1.77l-5.15 5.15c-0.25 0.25-0.57001 0.37-0.89001 0.37zm-1.38-2.98 1.38 1.38 4.79-4.79-1.38-1.38-4.79 4.79z"/>
 <path d="m8.3398 18.639c-0.32 0-0.64-0.12-0.88-0.37l-1.73-1.73c-0.49-0.49-0.49-1.28 0-1.77l9.05-9.05c0.49-0.49 1.28-0.49 1.77 0l1.73 1.73c0.49 0.49 0.49 1.28 0 1.77l-9.05 9.05c-0.25 0.25-0.57001 0.37-0.89001 0.37zm-1.38-2.98 1.38 1.38 8.7-8.7-1.38-1.38-8.7 8.7z"/>
 <path d="m12.24 22.54c-0.32 0-0.64-0.12-0.88-0.37l-1.73-1.73c-0.49-0.49-0.49-1.28 0-1.77l9.05-9.05c0.49-0.49 1.28-0.49 1.77 0l1.73 1.73c0.49 0.49 0.49 1.28 0 1.77l-9.05 9.05c-0.25 0.25-0.57 0.37-0.89 0.37zm-1.37-2.98 1.38 1.38 8.7-8.7-1.38-1.38-8.7 8.7z"/>
 <path d="m4.4399 14.741c-0.32 0-0.64001-0.12-0.88001-0.36l-1.73-1.73c-0.49-0.49-0.49-1.28 0-1.77l1.73-1.73c0.49-0.49 1.28-0.49 1.77 0l1.73 1.73c0.49 0.49 0.49 1.28 0 1.77l-1.73 1.73c-0.25 0.24-0.56998 0.36-0.88998 0.36zm-1.38-2.98 1.38 1.38 1.38-1.38-1.38-1.38-1.38 1.38z"/>
</svg>
