<svg width="24" height="24" viewBox="0 0 24 24"  xmlns="http://www.w3.org/2000/svg">
<path d="M11.65 2.35026L6.34995 7.65026C6.14995 7.85026 6.14995 8.16026 6.34995 8.36026L7.63995 9.65026C7.83995 9.85026 8.14995 9.85026 8.34995 9.65026L11.64 6.36026C11.84 6.16026 12.15 6.16026 12.35 6.36026L15.64 9.65026C15.84 9.85026 16.15 9.85026 16.35 9.65026L17.64 8.36026C17.84 8.16026 17.84 7.85026 17.64 7.65026L12.35 2.36026C12.16 2.16026 11.84 2.16026 11.65 2.35026Z" />
<path d="M11.65 21.65L6.35996 16.36C6.15996 16.16 6.15996 15.85 6.35996 15.65L7.64996 14.36C7.84996 14.16 8.15996 14.16 8.35996 14.36L11.65 17.65C11.85 17.85 12.16 17.85 12.36 17.65L15.65 14.36C15.85 14.16 16.16 14.16 16.36 14.36L17.65 15.65C17.85 15.85 17.85 16.16 17.65 16.36L12.36 21.65C12.16 21.84 11.84 21.84 11.65 21.65Z" />
<path opacity="0.4" d="M20.1 10.1003L21.64 11.6403C21.84 11.8403 21.84 12.1503 21.64 12.3503L20.1 13.9003C19.9 14.1003 19.59 14.1003 19.39 13.9003L17.85 12.3603C17.65 12.1603 17.65 11.8503 17.85 11.6503L19.39 10.1103C19.59 9.91026 19.91 9.91026 20.1 10.1003Z" />
<path opacity="0.4" d="M4.59995 10.0995L6.13995 11.6395C6.33995 11.8395 6.33995 12.1495 6.13995 12.3495L4.59995 13.8995C4.39995 14.0995 4.08995 14.0995 3.88995 13.8995L2.34995 12.3595C2.14995 12.1595 2.14995 11.8495 2.34995 11.6495L3.89995 10.0995C4.08995 9.90953 4.40995 9.90953 4.59995 10.0995Z" />
<path opacity="0.4" d="M12.35 9.88047L14.12 11.6505C14.32 11.8505 14.32 12.1605 14.12 12.3605L12.35 14.1305C12.15 14.3305 11.84 14.3305 11.64 14.1305L9.86997 12.3605C9.66997 12.1605 9.66997 11.8505 9.86997 11.6505L11.64 9.88047C11.84 9.68047 12.16 9.68047 12.35 9.88047Z" />
</svg>
