<?xml version="1.0" encoding="UTF-8"?>
<svg width="24" height="24" viewBox="0 0 24 24" xmlns="http://www.w3.org/2000/svg">
 <path d="m16 10.75c-0.19 0-0.38-0.07-0.53-0.22l-3.47-3.47-3.47 3.47c-0.29 0.29-0.77 0.29-1.06 0l-2-2c-0.29-0.29-0.29-0.77 0-1.06l6-6c0.29-0.29 0.77-0.29 1.06 0l6 6c0.29 0.29 0.29 0.77 0 1.06l-2 2c-0.15 0.15-0.34 0.22-0.53 0.22zm-4-5.5c0.19 0 0.38 0.07 0.53 0.22l3.47 3.47 0.94-0.94-4.94-4.94-4.94 4.94 0.94 0.94 3.47-3.47c0.15-0.15 0.34-0.22 0.53-0.22z"/>
 <path d="m12 22.75c-0.19 0-0.38-0.07-0.53-0.22l-6-6c-0.29-0.29-0.29-0.77 0-1.06l2-2c0.29-0.29 0.77-0.29 1.06 0l3.47 3.47 3.47-3.47c0.29-0.29 0.77-0.29 1.06 0l2 2c0.29 0.29 0.29 0.77 0 1.06l-6 6c-0.15 0.15-0.34 0.22-0.53 0.22zm-4.94-6.75 4.94 4.94 4.94-4.94-0.94-0.94-3.47 3.47c-0.29 0.29-0.77 0.29-1.06 0l-3.47-3.47-0.94 0.94z"/>
 <path d="m19.75 15c-0.19 0-0.38-0.07-0.53-0.22l-2.25-2.25c-0.29-0.29-0.29-0.77 0-1.06l2.25-2.25c0.29-0.29 0.77-0.29 1.06 0l2.25 2.25c0.29 0.29 0.29 0.77 0 1.06l-2.25 2.25c-0.15 0.15-0.34 0.22-0.53 0.22zm-1.19-3 1.19 1.19 1.19-1.19-1.19-1.19-1.19 1.19z"/>
 <path d="m4.2499 15c-0.19 0-0.38-0.07-0.53-0.22l-2.25-2.25c-0.29-0.29-0.29-0.77 0-1.06l2.25-2.25c0.29-0.29 0.77-0.29 1.06 0l2.25 2.25c0.29 0.29 0.29 0.77 0 1.06l-2.25 2.25c-0.15 0.15-0.34 0.22-0.53 0.22zm-1.19-3 1.19 1.19 1.19-1.19-1.19-1.19-1.19 1.19z"/>
 <path d="m12 15.231c-0.19 0-0.38-0.07-0.53-0.22l-2.48-2.48c-0.29-0.29-0.29-0.77 0-1.06l2.48-2.48c0.29-0.29 0.77-0.29 1.06 0l2.48 2.48c0.29 0.29 0.29 0.77 0 1.06l-2.48 2.48c-0.15 0.14-0.34 0.22-0.53 0.22zm-1.42-3.23 1.42 1.42 1.42-1.42-1.42-1.42-1.42 1.42z"/>
</svg>
