<?xml version="1.0" encoding="UTF-8"?>
<svg width="24" height="24" viewBox="0 0 24 24" xmlns="http://www.w3.org/2000/svg">
 <path d="m12 22.75c-5.93 0-10.75-4.82-10.75-10.75s4.82-10.75 10.75-10.75 10.75 4.82 10.75 10.75-4.82 10.75-10.75 10.75zm0-20c-5.1 0-9.25 4.15-9.25 9.25s4.15 9.25 9.25 9.25 9.25-4.15 9.25-9.25-4.15-9.25-9.25-9.25z"/>
 <path d="m14.2 12.75h-5.42c-0.41 0-0.75-0.34-0.75-0.75v-4.33c0-0.41 0.34-0.75 0.75-0.75h5.42c1.55 0 2.92 1.36 2.92 2.92 0 1.6-1.31 2.91-2.92 2.91zm-4.67-1.5h4.67c0.78 0 1.42-0.64 1.42-1.42 0-0.66-0.62-1.42-1.42-1.42h-4.67v2.84z"/>
 <path d="m14.97 17.08h-6.19c-0.41 0-0.75-0.34-0.75-0.75v-4.33c0-0.41 0.34-0.75 0.75-0.75h6.19c1.78 0 3.23 1.31 3.23 2.92s-1.45 2.91-3.23 2.91zm-5.44-1.5h5.44c0.95 0 1.73-0.64 1.73-1.42s-0.77-1.42-1.73-1.42h-5.44v2.84z"/>
 <path d="m12.57 19.25c-0.41 0-0.75-0.34-0.75-0.75v-2.17c0-0.41 0.34-0.75 0.75-0.75s0.75 0.34 0.75 0.75v2.17c0 0.41-0.33 0.75-0.75 0.75z"/>
 <path d="m9.8701 19.25c-0.41 0-0.75-0.34-0.75-0.75v-2.17c0-0.41 0.34-0.75 0.75-0.75 0.40998 0 0.74998 0.34 0.74998 0.75v2.17c0 0.41-0.34 0.75-0.74998 0.75z"/>
 <path d="m12.57 8.42c-0.41 0-0.75-0.34-0.75-0.75v-2.17c0-0.41 0.34-0.75 0.75-0.75s0.75 0.34 0.75 0.75v2.17c0 0.41-0.33 0.75-0.75 0.75z"/>
 <path d="m9.8701 8.42c-0.41 0-0.75-0.34-0.75-0.75v-2.17c0-0.41 0.34-0.75 0.75-0.75 0.40998 0 0.74998 0.34 0.74998 0.75v2.17c0 0.41-0.34 0.75-0.74998 0.75z"/>
 <path d="m10.84 8.4199h-3.79c-0.41 0-0.75-0.34-0.75-0.75s0.34-0.75 0.75-0.75h3.79c0.41 0 0.75 0.34 0.75 0.75s-0.33 0.75-0.75 0.75z"/>
 <path d="m10.84 17.08h-3.79c-0.41 0-0.75-0.34-0.75-0.75s0.34-0.75 0.75-0.75h3.79c0.41 0 0.75 0.34 0.75 0.75s-0.33 0.75-0.75 0.75z"/>
</svg>
