<svg width="24" height="24" viewBox="0 0 24 24"  xmlns="http://www.w3.org/2000/svg">
<path opacity="0.4" d="M23.53 12.0502C23.24 11.7602 22.76 11.7602 22.47 12.0502L22.01 12.5103V12.0002C22.01 6.48024 17.52 1.99023 12 1.99023C8.95 1.99023 6.1 3.36023 4.19 5.74023C3.93 6.06023 3.98 6.54022 4.31 6.79022C4.63 7.05022 5.11 7.00023 5.36 6.67023C6.99 4.64023 9.41 3.48022 12 3.48022C16.69 3.48022 20.51 7.30023 20.51 11.9902V12.4902L20.05 12.0303C19.76 11.7403 19.28 11.7403 18.99 12.0303C18.7 12.3203 18.7 12.8003 18.99 13.0903L20.73 14.8303C20.8 14.9003 20.88 14.9502 20.97 14.9902C21.06 15.0302 21.16 15.0502 21.26 15.0502C21.36 15.0502 21.45 15.0302 21.55 14.9902C21.64 14.9502 21.72 14.9003 21.79 14.8303L23.53 13.0903C23.82 12.8203 23.82 12.3402 23.53 12.0502Z" />
<path opacity="0.4" d="M19.69 17.2004C19.37 16.9404 18.8899 16.9904 18.6399 17.3204C17.0099 19.3504 14.5899 20.5104 11.9999 20.5104C7.30995 20.5104 3.48995 16.6904 3.48995 12.0004V11.5004L3.94994 11.9605C4.09994 12.1105 4.28995 12.1804 4.47995 12.1804C4.66995 12.1804 4.85995 12.1105 5.00995 11.9605C5.29995 11.6705 5.29995 11.1905 5.00995 10.9005L3.26994 9.1604C3.19994 9.0904 3.11995 9.04043 3.02995 9.00043C2.84995 8.92043 2.63995 8.92043 2.45995 9.00043C2.36995 9.04043 2.28995 9.0904 2.21995 9.1604L0.479951 10.9005C0.189951 11.1905 0.189951 11.6705 0.479951 11.9605C0.769951 12.2505 1.24995 12.2505 1.53995 11.9605L1.99995 11.5004V12.0004C1.99995 17.5204 6.48995 22.0104 12.0099 22.0104C15.0599 22.0104 17.9099 20.6404 19.8199 18.2604C20.0699 17.9404 20.02 17.4604 19.69 17.2004Z" />
<path d="M15.45 11.64C15.72 11.24 15.87 10.77 15.87 10.25C15.87 8.92 14.7 7.75 13.37 7.75H12.55V6.75C12.55 6.34 12.21 6 11.8 6C11.39 6 11.05 6.34 11.05 6.75V7.75H9C8.59 7.75 8.25 8.09 8.25 8.5V12V15.5C8.25 15.91 8.59 16.25 9 16.25H11.05V17.25C11.05 17.66 11.39 18 11.8 18C12.21 18 12.55 17.66 12.55 17.25V16.25H14C15.52 16.25 16.75 15.13 16.75 13.75C16.75 12.86 16.23 12.08 15.45 11.64ZM9.75 9.25H13.37C13.92 9.25 14.37 9.8 14.37 10.25C14.37 10.8 13.92 11.25 13.37 11.25H9.75V9.25ZM14 14.75H9.75V12.75H13.37H14C14.69 12.75 15.25 13.2 15.25 13.75C15.25 14.3 14.69 14.75 14 14.75Z" />
</svg>
