<?xml version="1.0" encoding="UTF-8"?>
<svg width="24" height="24" viewBox="0 0 24 24" xmlns="http://www.w3.org/2000/svg">
 <path d="m4.4702 12.17c-0.19 0-0.38-0.07-0.53-0.22l-1.21-1.21-1.21 1.21c-0.29 0.29-0.76999 0.29-1.06 0s-0.29-0.77 0-1.06l1.74-1.74c0.29-0.29 0.77001-0.29 1.06 0l1.74 1.74c0.29 0.29 0.29 0.77 0 1.06-0.14 0.15-0.34 0.22-0.53 0.22z"/>
 <path d="m21.26 15.07c-0.19 0-0.38-0.0701-0.53-0.2201l-1.74-1.74c-0.29-0.29-0.29-0.77 0-1.06s0.77-0.29 1.06 0l1.21 1.2101 1.21-1.2101c0.29-0.29 0.77-0.29 1.06 0s0.29 0.77 0 1.06l-1.74 1.74c-0.14 0.14-0.34 0.2201-0.53 0.2201z"/>
 <path d="m21.26 15.07c-0.41 0-0.75-0.34-0.75-0.75v-2.32c0-4.69-3.82-8.51-8.51-8.51-2.59 0-5.01 1.16-6.64 3.19-0.26 0.32-0.73 0.37-1.05 0.12-0.32-0.26-0.37999-0.72999-0.12-1.05 1.91-2.39 4.76-3.75 7.81-3.75 5.52 0 10.01 4.49 10.01 10.01v2.32c0 0.4-0.33 0.74-0.75 0.74z"/>
 <path d="m12 22.01c-5.52 0-10.01-4.49-10.01-10.01v-2.32c0-0.41 0.34-0.75 0.75-0.75s0.75 0.34 0.75 0.75v2.32c0 4.69 3.82 8.51 8.51 8.51 2.59 0 5.01-1.16 6.64-3.19 0.26-0.32 0.73-0.38 1.05-0.12s0.38 0.73 0.12 1.05c-1.91 2.39-4.76 3.76-7.81 3.76z"/>
 <path d="m13.38 12.75h-4.38c-0.41 0-0.75-0.34-0.75-0.75v-3.5c0-0.41 0.34-0.75 0.75-0.75h4.38c1.33 0 2.5 1.17 2.5 2.5 0 1.38-1.13 2.5-2.5 2.5zm-3.63-1.5h3.62c0.55 0 1-0.45 1-1 0-0.45-0.45-1-1-1h-3.62v2z"/>
 <path d="m14 16.25h-5c-0.41 0-0.75-0.34-0.75-0.75v-3.5c0-0.41 0.34-0.75 0.75-0.75h5c1.52 0 2.75 1.12 2.75 2.5s-1.23 2.5-2.75 2.5zm-4.25-1.5h4.25c0.69 0 1.25-0.45 1.25-1s-0.56-1-1.25-1h-4.25v2z"/>
 <path d="m11.8 18c-0.41 0-0.75-0.34-0.75-0.75v-1.75c0-0.41 0.34-0.75 0.75-0.75s0.75 0.34 0.75 0.75v1.75c0 0.41-0.34 0.75-0.75 0.75z"/>
 <path d="m11.8 9.25c-0.41 0-0.75-0.34-0.75-0.75v-1.75c0-0.41 0.34-0.75 0.75-0.75s0.75 0.34 0.75 0.75v1.75c0 0.41-0.34 0.75-0.75 0.75z"/>
</svg>
