<?xml version="1.0" encoding="UTF-8"?>
<svg width="24" height="24" viewBox="0 0 24 24" xmlns="http://www.w3.org/2000/svg">
 <path d="m13 9.25h-11c-0.41 0-0.75-0.34-0.75-0.75s0.34-0.75 0.75-0.75h11c0.41 0 0.75 0.34 0.75 0.75s-0.34 0.75-0.75 0.75z"/>
 <path d="m8 17.25h-2c-0.41 0-0.75-0.34-0.75-0.75s0.34-0.75 0.75-0.75h2c0.41 0 0.75 0.34 0.75 0.75s-0.34 0.75-0.75 0.75z"/>
 <path d="m14.5 17.25h-4c-0.41 0-0.75-0.34-0.75-0.75s0.34-0.75 0.75-0.75h4c0.41 0 0.75 0.34 0.75 0.75s-0.34 0.75-0.75 0.75z"/>
 <path d="m17.56 21.25h-11.12c-3.98 0-5.19-1.2-5.19-5.14v-8.22c0-3.94 1.21-5.14 5.19-5.14h6.84c0.41 0 0.75 0.34 0.75 0.75s-0.34 0.75-0.75 0.75h-6.84c-3.14 0-3.69 0.54001-3.69 3.64v8.22c0 3.1 0.55 3.64 3.69 3.64h11.12c3.14 0 3.69-0.54 3.69-3.64v-4.78c0-0.41 0.34-0.75 0.75-0.75s0.75 0.34 0.75 0.75v4.78c0 3.94-1.21 5.14-5.19 5.14z"/>
 <path d="m20.12 6.5h-3.12c-0.41 0-0.75-0.34-0.75-0.75v-2.5c0-0.41 0.34-0.75 0.75-0.75h3.13c1.07 0 2 0.93 2 2-0.01 1.1-0.9 2-2.01 2zm-2.37-1.5h2.38c0.28 0 0.5-0.22 0.5-0.5 0-0.22-0.24-0.5-0.5-0.5h-2.38v1z"/>
 <path d="m20.57 9h-3.57c-0.41 0-0.75-0.34-0.75-0.75v-2.5c0-0.41 0.34-0.75 0.75-0.75h3.57c1.2 0 2.18 0.9 2.18 2s-0.98 2-2.18 2zm-2.82-1.5h2.82c0.37 0 0.68-0.23 0.68-0.5s-0.31-0.5-0.68-0.5h-2.82v1z"/>
 <path d="m18.76 10.25c-0.41 0-0.75-0.34-0.75-0.75v-1.25c0-0.41 0.34-0.75 0.75-0.75s0.75 0.34 0.75 0.75v1.25c0 0.42-0.33 0.75-0.75 0.75z"/>
 <path d="m18.76 4c-0.41 0-0.75-0.34-0.75-0.75v-1.25c0-0.41 0.34-0.75 0.75-0.75s0.75 0.34 0.75 0.75v1.25c0 0.41-0.33 0.75-0.75 0.75z"/>
 <path d="m18.19 4h-2.19c-0.41 0-0.75-0.34-0.75-0.75s0.34-0.75 0.75-0.75h2.19c0.41 0 0.75 0.34 0.75 0.75s-0.34 0.75-0.75 0.75z"/>
 <path d="m18.19 9h-2.19c-0.41 0-0.75-0.34-0.75-0.75s0.34-0.75 0.75-0.75h2.19c0.41 0 0.75 0.34 0.75 0.75s-0.34 0.75-0.75 0.75z"/>
</svg>
