<?xml version="1.0" encoding="UTF-8"?>
<svg width="24" height="24" viewBox="0 0 24 24" xmlns="http://www.w3.org/2000/svg">
 <path d="m16 23.72c-0.27 0-0.52-0.1499-0.65-0.3799s-0.13-0.52 0.01-0.75l1.05-1.75c0.21-0.36 0.67-0.47 1.03-0.26s0.47 0.6699 0.26 1.0299l-0.27 0.4501c2.76-0.65 4.83-3.1301 4.83-6.0901 0-0.41 0.34-0.75 0.75-0.75s0.75 0.34 0.75 0.75c-0.01 4.27-3.49 7.75-7.76 7.75z"/>
 <path d="m1 8.7197c-0.41 0-0.75-0.34-0.75-0.75 0-4.27 3.48-7.75 7.75-7.75 0.27 0 0.52 0.15 0.65 0.38s0.13 0.52-0.01 0.75l-1.05 1.75c-0.21 0.36-0.67 0.47001-1.03 0.26001s-0.47-0.66997-0.26-1.03l0.27-0.45001c-2.76 0.65-4.83 3.13-4.83 6.09 0.01 0.41-0.33 0.75-0.74 0.75z"/>
 <path d="m9.4301 16.08h-2.81c-0.41 0-0.75-0.34-0.75-0.75v-2.25c0-0.41 0.34-0.75 0.75-0.75h2.81c0.99998 0 1.88 0.88 1.88 1.88 0 1.02-0.85 1.87-1.88 1.87zm-2.06-1.5h2.06c0.21 0 0.38-0.17 0.38-0.38 0-0.15-0.17-0.38-0.38-0.38h-2.06v0.76z"/>
 <path d="m9.8299 18.33h-3.22c-0.41 0-0.75-0.34-0.75-0.75v-2.25c0-0.41 0.34-0.75 0.75-0.75h3.22c1.12 0 2.04 0.84 2.04 1.88s-0.91 1.87-2.04 1.87zm-2.46-1.5h2.47c0.32004 0 0.54004-0.2 0.54004-0.38s-0.22-0.38-0.54004-0.38h-2.47v0.76z"/>
 <path d="m8.4199 19.45c-0.41 0-0.75-0.34-0.75-0.75v-1.13c0-0.41 0.34-0.75 0.75-0.75s0.75 0.34 0.75 0.75v1.13c0 0.42-0.34 0.75-0.75 0.75z"/>
 <path d="m8.4199 13.82c-0.41 0-0.75-0.34-0.75-0.75v-1.13c0-0.41 0.34-0.75 0.75-0.75s0.75 0.34 0.75 0.75v1.13c0 0.42-0.34 0.75-0.75 0.75z"/>
 <path d="m8.67 22.25c-3.82 0-6.92-3.11-6.92-6.92s3.11-6.92 6.92-6.92c0.18 0 0.34 0.01002 0.52 0.02002 3.39 0.26 6.13 3 6.38 6.37 0.01 0.22 0.02 0.37 0.02 0.53 0.01 3.81-3.1 6.92-6.92 6.92zm0-12.35c-2.99 0-5.42 2.43-5.42 5.42s2.43 5.42 5.42 5.42 5.43-2.43 5.43-5.42c0-0.13-0.01-0.26-0.02-0.39-0.2-2.68-2.35-4.82-4.99-5.02-0.13 0-0.27-0.00995-0.42-0.00995z"/>
 <path d="m15.33 15.6h-0.49c-0.39 0-0.72-0.3-0.75-0.69-0.2-2.65-2.34-4.79-4.99-4.99-0.39-0.03-0.68999-0.36-0.68999-0.75v-0.48999c0-3.82 3.11-6.92 6.93-6.92s6.92 3.11 6.92 6.92c0 3.81-3.12 6.92-6.93 6.92zm-5.43-7.0899c2.82 0.51 5.08 2.7599 5.59 5.5899 2.92-0.09 5.26-2.49 5.26-5.42 0-2.99-2.43-5.42-5.42-5.42-2.94-0.01-5.34 2.33-5.43 5.25z"/>
</svg>
