<?xml version="1.0" encoding="UTF-8"?>
<svg width="24" height="24" viewBox="0 0 24 24" xmlns="http://www.w3.org/2000/svg">
 <path d="m8.9702 16.75c-0.39 0-0.73-0.03-1.05-0.08-3.8-0.5-6.7-3.8-6.7-7.67 0-4.27 3.48-7.75 7.75-7.75 3.87 0 7.17 2.89 7.67 6.72 0.05 0.3 0.08 0.64 0.08 1.03 0 4.27-3.47 7.75-7.75 7.75zm0-14c-3.45 0-6.25 2.8-6.25 6.25 0 3.12 2.33 5.78 5.42 6.19 0.26001 0.04 0.53 0.06 0.83 0.06 3.45 0 6.25-2.8 6.25-6.25 0-0.3-0.02-0.57-0.06-0.81-0.41-3.11-3.06-5.44-6.19-5.44z"/>
 <path d="m14.97 22.75c-3.87 0-7.17-2.89-7.67-6.72-0.03-0.24 0.05-0.47 0.22-0.64s0.42-0.24 0.65-0.2c0.24 0.04 0.5 0.06 0.8 0.06 3.45 0 6.25-2.8 6.25-6.25 0-0.3-0.02-0.57-0.06-0.81-0.04-0.23 0.04-0.47 0.2-0.64s0.39-0.26 0.64-0.22c3.83 0.5 6.72 3.8 6.72 7.67 0 4.27-3.47 7.75-7.75 7.75zm-5.99-6c0.76 2.62 3.19 4.5 5.99 4.5 3.45 0 6.25-2.8 6.25-6.25 0-2.8-1.88-5.24-4.5-5.99 0 4.26-3.47 7.74-7.74 7.74z"/>
 <path d="m15.43 16.16c-0.19 0-0.38-0.07-0.53-0.21l-1.3-1.28c-0.29-0.29-0.3-0.77-0.01-1.06s0.76-0.3 1.06-0.01l1.3 1.28c0.29 0.29 0.3 0.77 0.01 1.06-0.14 0.14-0.34 0.22-0.53 0.22z"/>
 <path d="m16.97 12.75c-0.19 0-0.38-0.07-0.53-0.22l-1-1c-0.29-0.29-0.29-0.77 0-1.06s0.77-0.29 1.06 0l1 1c0.29 0.29 0.29 0.77 0 1.06-0.14 0.15-0.33 0.22-0.53 0.22z"/>
 <path d="m11.97 17.75c-0.19 0-0.38-0.07-0.53-0.22l-1-1c-0.29-0.29-0.29-0.77 0-1.06s0.77-0.29 1.06 0l1 1c0.29 0.29 0.29 0.77 0 1.06-0.14 0.15-0.33 0.22-0.53 0.22z"/>
</svg>
