<?xml version="1.0" encoding="UTF-8"?>
<svg width="24" height="24" viewBox="0 0 24 24" xmlns="http://www.w3.org/2000/svg">
 <path d="m15.97 18.75c-1.67 0-3.27-0.62-4.5-1.73-0.16-0.14-0.25-0.35-0.25-0.56s0.09-0.42 0.25-0.56c1.11-0.98 1.75-2.4 1.75-3.9s-0.64-2.92-1.75-3.9c-0.16-0.14-0.25-0.34-0.25-0.56 0-0.21 0.09-0.42 0.25-0.56 1.24-1.12 2.83-1.73 4.5-1.73 3.72 0 6.75 3.03 6.75 6.75s-3.02 6.75-6.75 6.75zm-2.87-2.36c0.85 0.56 1.84 0.86 2.88 0.86 2.89 0 5.25-2.36 5.25-5.25s-2.36-5.25-5.25-5.25c-1.03 0-2.03 0.3-2.88 0.86 1.04 1.21 1.63 2.76 1.63 4.39s-0.59 3.18-1.63 4.39z"/>
 <path d="m7.9702 18.75c-3.72 0-6.75-3.03-6.75-6.75s3.03-6.75 6.75-6.75c1.67 0 3.27 0.62 4.5 1.73 1.42 1.26 2.25 3.09 2.25 5.02s-0.82 3.75-2.25 5.02c-1.23 1.11-2.83 1.73-4.5 1.73zm0-12c-2.89 0-5.25 2.36-5.25 5.25s2.36 5.25 5.25 5.25c1.3 0 2.54-0.48 3.5-1.35 1.12-0.99 1.75-2.41 1.75-3.9s-0.64-2.92-1.75-3.9c-0.96-0.87-2.2-1.35-3.5-1.35z"/>
</svg>
