<svg width="24" height="24" viewBox="0 0 24 24"  xmlns="http://www.w3.org/2000/svg">
<path d="M8.97021 16.75C8.58021 16.75 8.24021 16.72 7.92021 16.67C4.12021 16.17 1.22021 12.87 1.22021 9C1.22021 4.73 4.70021 1.25 8.97021 1.25C12.8402 1.25 16.1402 4.14 16.6402 7.97C16.6902 8.27 16.7202 8.61 16.7202 9C16.7202 13.27 13.2502 16.75 8.97021 16.75ZM8.97021 2.75C5.52021 2.75 2.72021 5.55 2.72021 9C2.72021 12.12 5.05022 14.78 8.14021 15.19C8.40021 15.23 8.67021 15.25 8.97021 15.25C12.4202 15.25 15.2202 12.45 15.2202 9C15.2202 8.7 15.2002 8.43 15.1602 8.19C14.7502 5.08 12.1002 2.75 8.97021 2.75Z" />
<path d="M14.9702 22.75C11.1002 22.75 7.80022 19.86 7.30022 16.03C7.27022 15.79 7.35022 15.56 7.52022 15.39C7.69022 15.22 7.94022 15.15 8.17022 15.19C8.41022 15.23 8.67021 15.25 8.97021 15.25C12.4202 15.25 15.2202 12.45 15.2202 9C15.2202 8.7 15.2002 8.43 15.1602 8.19C15.1202 7.96 15.2002 7.72 15.3602 7.55C15.5202 7.38 15.7502 7.29 16.0002 7.33C19.8302 7.83 22.7202 11.13 22.7202 15C22.7202 19.27 19.2502 22.75 14.9702 22.75ZM8.98021 16.75C9.74021 19.37 12.1702 21.25 14.9702 21.25C18.4202 21.25 21.2202 18.45 21.2202 15C21.2202 12.2 19.3402 9.76 16.7202 9.01C16.7202 13.27 13.2502 16.75 8.98021 16.75Z" />
<path d="M15.4302 16.16C15.2402 16.16 15.0502 16.09 14.9002 15.95L13.6002 14.67C13.3102 14.38 13.3002 13.9 13.5902 13.61C13.8802 13.32 14.3502 13.31 14.6502 13.6L15.9502 14.88C16.2402 15.17 16.2502 15.65 15.9602 15.94C15.8202 16.08 15.6202 16.16 15.4302 16.16Z" />
<path d="M16.9702 12.75C16.7802 12.75 16.5902 12.68 16.4402 12.53L15.4402 11.53C15.1502 11.24 15.1502 10.76 15.4402 10.47C15.7302 10.18 16.2102 10.18 16.5002 10.47L17.5002 11.47C17.7902 11.76 17.7902 12.24 17.5002 12.53C17.3602 12.68 17.1702 12.75 16.9702 12.75Z" />
<path d="M11.9702 17.75C11.7802 17.75 11.5902 17.68 11.4402 17.53L10.4402 16.53C10.1502 16.24 10.1502 15.76 10.4402 15.47C10.7302 15.18 11.2102 15.18 11.5002 15.47L12.5002 16.47C12.7902 16.76 12.7902 17.24 12.5002 17.53C12.3602 17.68 12.1702 17.75 11.9702 17.75Z" />
</svg>
