<?xml version="1.0" encoding="UTF-8"?>
<svg width="24" height="24" viewBox="0 0 24 24" xmlns="http://www.w3.org/2000/svg">
 <path d="m15 18.75h-6c-2.42 0-3.75-1.33-3.75-3.75v-6c0-2.42 1.33-3.75 3.75-3.75h4c2.42 0 3.75 1.33 3.75 3.75v1c0 0.14 0.11 0.25 0.25 0.25 0.96 0 1.75 0.79 1.75 1.75v3c0 2.42-1.33 3.75-3.75 3.75zm-6-12c-1.58 0-2.25 0.67-2.25 2.25v6c0 1.58 0.67 2.25 2.25 2.25h6c1.58 0 2.25-0.67 2.25-2.25v-3c0-0.14-0.11-0.25-0.25-0.25-0.96 0-1.75-0.79-1.75-1.75v-1c0-1.58-0.67-2.25-2.25-2.25h-4z"/>
 <path d="m12 10.75h-2c-0.41 0-0.75-0.34-0.75-0.75s0.34-0.75 0.75-0.75h2c0.41 0 0.75 0.34 0.75 0.75s-0.34 0.75-0.75 0.75z"/>
 <path d="m14 14.75h-4c-0.41 0-0.75-0.34-0.75-0.75s0.34-0.75 0.75-0.75h4c0.41 0 0.75 0.34 0.75 0.75s-0.34 0.75-0.75 0.75z"/>
 <path d="m15 22.75h-6c-5.43 0-7.75-2.32-7.75-7.75v-6c0-5.43 2.32-7.75 7.75-7.75h6c5.43 0 7.75 2.32 7.75 7.75v6c0 5.43-2.32 7.75-7.75 7.75zm-6-20c-4.61 0-6.25 1.64-6.25 6.25v6c0 4.61 1.64 6.25 6.25 6.25h6c4.61 0 6.25-1.64 6.25-6.25v-6c0-4.61-1.64-6.25-6.25-6.25h-6z"/>
</svg>
