<svg width="24" height="24" viewBox="0 0 24 24"  xmlns="http://www.w3.org/2000/svg">
<path d="M12.6 18.1097C12.38 18.1097 12.21 18.0497 12.11 18.0097C11.89 17.9097 11.3901 17.5797 11.3901 16.6697V13.9997L9.09004 16.1097C8.79004 16.3897 8.31004 16.3697 8.03004 16.0597C7.75004 15.7497 7.77003 15.2797 8.08003 14.9997L11.36 11.9897L8.08003 8.9797C7.77003 8.6997 7.75004 8.2297 8.03004 7.9197C8.31004 7.6197 8.79004 7.58968 9.09004 7.86968L11.3901 9.9797V7.31969C11.3901 6.41969 11.89 6.0897 12.11 5.9797C12.32 5.8797 12.9 5.70969 13.6 6.27969L15.66 7.99969C15.96 8.24969 16.14 8.61969 16.15 8.99969C16.16 9.37969 16 9.75968 15.71 10.0197L13.58 11.9697L15.71 13.9197C16 14.1897 16.16 14.5597 16.15 14.9397C16.14 15.3197 15.96 15.6897 15.66 15.9397L13.6 17.6597C13.22 18.0197 12.87 18.1097 12.6 18.1097ZM12.9 13.4097V16.3297L14.5701 14.9397L12.9 13.4097ZM12.9 7.6697V10.5897L14.5701 9.05968L12.9 7.6697Z" />
<path d="M15 22.75H9C5.56 22.75 3.25 20.44 3.25 17V7C3.25 3.56 5.56 1.25 9 1.25H15C18.44 1.25 20.75 3.56 20.75 7V17C20.75 20.44 18.44 22.75 15 22.75ZM9 2.75C6.42 2.75 4.75 4.42 4.75 7V17C4.75 19.58 6.42 21.25 9 21.25H15C17.58 21.25 19.25 19.58 19.25 17V7C19.25 4.42 17.58 2.75 15 2.75H9Z" />
</svg>
