<?xml version="1.0" encoding="UTF-8"?>
<svg width="24" height="24" viewBox="0 0 24 24" xmlns="http://www.w3.org/2000/svg">
 <path d="m12.6 18.11c-0.22 0-0.39-0.06-0.49-0.1-0.22-0.1-0.7199-0.43-0.7199-1.34v-2.67l-2.3001 2.11c-0.3 0.28-0.78 0.26-1.06-0.05s-0.26001-0.78 0.04999-1.06l3.28-3.01-3.28-3.01c-0.31-0.28-0.32999-0.75-0.04999-1.06 0.28-0.3 0.76-0.33002 1.06-0.05002l2.3001 2.11v-2.66c0-0.9 0.4999-1.23 0.7199-1.34 0.21-0.1 0.79-0.27001 1.49 0.29999l2.06 1.72c0.3 0.25 0.48 0.62 0.49 1s-0.15 0.75999-0.44 1.02l-2.13 1.95 2.13 1.95c0.29 0.27 0.45 0.64 0.44 1.02s-0.19 0.75-0.49 1l-2.06 1.72c-0.38 0.36-0.73 0.45-1 0.45zm0.3-4.7v2.92l1.6701-1.39-1.6701-1.53zm0-5.74v2.92l1.6701-1.53-1.6701-1.39z"/>
 <path d="m15 22.75h-6c-3.44 0-5.75-2.31-5.75-5.75v-10c0-3.44 2.31-5.75 5.75-5.75h6c3.44 0 5.75 2.31 5.75 5.75v10c0 3.44-2.31 5.75-5.75 5.75zm-6-20c-2.58 0-4.25 1.67-4.25 4.25v10c0 2.58 1.67 4.25 4.25 4.25h6c2.58 0 4.25-1.67 4.25-4.25v-10c0-2.58-1.67-4.25-4.25-4.25h-6z"/>
</svg>
