<?xml version="1.0" encoding="UTF-8"?>
<svg width="24" height="24" viewBox="0 0 24 24" xmlns="http://www.w3.org/2000/svg">
 <path d="m13.13 22.75c-0.27 0-0.4801-0.07-0.6301-0.14-0.36-0.17-0.97-0.64-0.97-1.9v-6.45l-5.3899 4.94c-0.3 0.28-0.78003 0.26-1.06-0.05s-0.25998-0.78 0.05002-1.06l6.4-5.87v-0.45l-6.4-5.87c-0.31-0.28-0.33002-0.75-0.05002-1.06 0.28-0.3 0.76003-0.32999 1.06-0.04999l5.3899 4.94v-6.45c0-1.26 0.61-1.74 0.97-1.9 0.36-0.17 1.11-0.33002 2.08 0.47998l3.85 3.21c0.42 0.35 0.67 0.85001 0.68 1.38 0.01 0.52999-0.21 1.04-0.62 1.41l-4.5 4.13 4.5 4.13c0.4 0.37 0.63 0.89 0.62 1.41-0.01 0.53-0.26 1.03-0.68 1.38l-3.85 3.21c-0.57 0.49-1.0699 0.63-1.4499 0.63zm-0.1001-9.6v7.56c0 0.37 0.08 0.53 0.12 0.55 0.01-0.01 0.19-0.05 0.47-0.28l3.85-3.21c0.09-0.08 0.14-0.17 0.14-0.27s-0.0399-0.19-0.1299-0.27l-4.4501-4.08zm0.09-10.4c-0.01 0.01-0.09 0.18001-0.09 0.54001v7.56l4.4501-4.08c0.09-0.08 0.1299-0.16999 0.1299-0.26999s-0.05-0.18999-0.14-0.26999l-3.86-3.21c-0.26-0.22-0.43-0.26999-0.49-0.26999z"/>
</svg>
