<?xml version="1.0" encoding="UTF-8"?>
<svg width="24" height="24" viewBox="0 0 24 24" xmlns="http://www.w3.org/2000/svg">
 <path d="m12 22.75c-4.88 0-8.85-3.97-8.85-8.85-0.03-5.73 5.43-10.5 7.78-12.29 0.63-0.48 1.51-0.48 2.14 0 2.35 1.82 7.81 6.65 7.78 12.3 0 4.87-3.97 8.84-8.85 8.84zm0-20c-0.05 0-0.11 0.02-0.16 0.06-1.69 1.29-7.21 5.9-7.18 11.09 0 4.06 3.3 7.35 7.35 7.35 4.05 0 7.35-3.29 7.35-7.34 0.03-5.12-5.5-9.79-7.2-11.1-0.06-0.04-0.11-0.06-0.16-0.06z"/>
 <path d="m12 22.75c-0.41 0-0.75-0.34-0.75-0.75v-20c0-0.41 0.34-0.75 0.75-0.75s0.75 0.34 0.75 0.75v20c0 0.41-0.34 0.75-0.75 0.75z"/>
 <path d="m12 19.71c-0.28 0-0.55-0.16-0.68-0.42-0.18-0.37-0.03-0.82 0.35-1l7.7-3.74c0.37-0.18 0.82-0.02 1 0.35s0.0301 0.82-0.3499 1l-7.7001 3.74c-0.1 0.04-0.21 0.07-0.32 0.07z"/>
 <path d="m12 14.71c-0.28 0-0.55-0.16-0.68-0.42-0.18-0.37-0.03-0.82 0.35-1l7.37-3.58c0.37-0.18 0.82-0.03 1 0.35002 0.18 0.38 0.03 0.82-0.35 1l-7.37 3.58c-0.1 0.04-0.21 0.07-0.32 0.07z"/>
 <path d="m12 9.71c-0.28 0-0.55-0.16-0.68-0.42-0.18-0.37-0.03-0.82 0.35-1l5.0301-2.44c0.37-0.18 0.82-0.02001 1 0.34999s0.0299 0.82-0.3501 1l-5.03 2.44c-0.1 0.04-0.21 0.07-0.32 0.07z"/>
</svg>
