<svg width="24" height="24" viewBox="0 0 24 24"  xmlns="http://www.w3.org/2000/svg">
<path d="M12 22.75C7.12 22.75 3.15003 18.78 3.15003 13.9C3.12003 8.17 8.57999 3.4 10.93 1.61C11.56 1.13 12.44 1.13 13.07 1.61C15.42 3.43 20.88 8.26 20.85 13.91C20.85 18.78 16.88 22.75 12 22.75ZM12 2.75C11.95 2.75 11.89 2.77 11.84 2.81C10.15 4.1 4.62997 8.71 4.65997 13.9C4.65997 17.96 7.96001 21.25 12.01 21.25C16.06 21.25 19.36 17.96 19.36 13.91C19.39 8.79 13.86 4.12 12.16 2.81C12.1 2.77 12.05 2.75 12 2.75Z" />
<path d="M12 22.75C11.59 22.75 11.25 22.41 11.25 22V2C11.25 1.59 11.59 1.25 12 1.25C12.41 1.25 12.75 1.59 12.75 2V22C12.75 22.41 12.41 22.75 12 22.75Z" />
<path d="M11.9999 19.71C11.7199 19.71 11.4499 19.55 11.3199 19.29C11.1399 18.92 11.2899 18.47 11.6699 18.29L19.3699 14.55C19.7399 14.37 20.1899 14.53 20.3699 14.9C20.5499 15.27 20.4 15.72 20.02 15.9L12.3199 19.64C12.2199 19.68 12.1099 19.71 11.9999 19.71Z" />
<path d="M11.9999 14.71C11.7199 14.71 11.4499 14.55 11.3199 14.29C11.1399 13.92 11.2899 13.47 11.6699 13.29L19.0399 9.70996C19.4099 9.52996 19.8599 9.67996 20.0399 10.06C20.2199 10.44 20.0699 10.88 19.6899 11.06L12.3199 14.64C12.2199 14.68 12.1099 14.71 11.9999 14.71Z" />
<path d="M11.9999 9.70997C11.7199 9.70997 11.4499 9.54997 11.3199 9.28997C11.1399 8.91997 11.2899 8.46997 11.6699 8.28997L16.7 5.84997C17.07 5.66997 17.52 5.82996 17.7 6.19996C17.88 6.56996 17.7299 7.01996 17.3499 7.19996L12.3199 9.63997C12.2199 9.67997 12.1099 9.70997 11.9999 9.70997Z" />
</svg>
