<?xml version="1.0" encoding="UTF-8"?>
<svg width="24" height="24" viewBox="0 0 24 24" xmlns="http://www.w3.org/2000/svg">
 <path d="m15 22.75h-6c-5.43 0-7.75-2.32-7.75-7.75v-6c0-5.43 2.32-7.75 7.75-7.75h6c5.43 0 7.75 2.32 7.75 7.75v6c0 5.43-2.32 7.75-7.75 7.75zm-6-20c-4.61 0-6.25 1.64-6.25 6.25v6c0 4.61 1.64 6.25 6.25 6.25h6c4.61 0 6.25-1.64 6.25-6.25v-6c0-4.61-1.64-6.25-6.25-6.25h-6z"/>
 <path d="m12 18.95c-0.24 0-0.48-0.06-0.68-0.17-1.16-0.63-3.21-1.31-4.5-1.48l-0.19-0.03c-0.98-0.12-1.76-1-1.76-2.01v-7.7c0-0.57 0.24002-1.12 0.65002-1.5 0.42-0.38 0.95998-0.56999 1.54-0.51999 1.46 0.12 3.58 0.82 4.83 1.6l0.1 0.06 0.0401-0.03c1.26-0.79 3.3799-1.5 4.8499-1.63h0.1c0.52-0.05 1.08 0.14999 1.49 0.51999 0.42 0.38 0.65 0.90999 0.65 1.49v7.69c0 1-0.78 1.88-1.77 2.01l-0.21 0.03c-1.28 0.17-3.34 0.85-4.48 1.48-0.19 0.14-0.42 0.19-0.66 0.19zm-5.11-11.9c-0.14 0-0.26004 0.05-0.35004 0.13-0.11 0.1-0.15997 0.24002-0.15997 0.39002v7.7c0 0.24 0.22001 0.49 0.45001 0.52l0.19 0.03c1.46 0.2 3.7 0.93 5 1.64 1.21-0.7 3.46-1.45 4.93-1.64l0.22-0.03c0.23-0.03 0.45-0.28 0.45-0.52v-7.69c0-0.16-0.06-0.28998-0.16-0.38998-0.11-0.1-0.25-0.14-0.41-0.13h-0.1c-1.16 0.1-3.07 0.73999-4.11 1.4l-0.1 0.06c-0.44 0.27-1.06 0.27001-1.48 0.01001l-0.15-0.09c-1.05-0.66-2.96-1.29-4.17-1.39h-0.04998z"/>
 <path d="m12 18.41c-0.41 0-0.75-0.34-0.75-0.75v-9.56c0-0.41 0.34-0.75 0.75-0.75s0.75 0.34 0.75 0.75v9.56c0 0.42-0.34 0.75-0.75 0.75z"/>
</svg>
