<?xml version="1.0" encoding="UTF-8"?>
<svg width="24" height="24" viewBox="0 0 24 24" xmlns="http://www.w3.org/2000/svg">
 <path d="m12 22.08c-0.3 0-0.6-0.07-0.85-0.21-1.87-1.02-5.16-2.1-7.22-2.37l-0.29-0.04c-1.31-0.16-2.39-1.39-2.39-2.72v-12.08c0-0.79 0.31-1.51 0.88-2.03s1.31-0.77 2.09-0.7c2.2 0.17 5.52 1.27 7.4 2.45l0.24 0.14c0.07 0.04 0.22 0.04 0.28 0.01l0.16-0.1c1.88-1.18 5.2-2.3 7.41-2.49h0.12c0.73-0.07 1.48 0.19 2.04 0.71 0.57 0.52 0.88 1.24 0.88 2.03v12.07c0 1.34-1.08 2.56-2.4 2.72l-0.33 0.04c-2.06 0.27-5.36 1.36-7.19 2.37-0.24 0.14-0.53 0.2-0.83 0.2zm-8.02-18.66c-0.32 0-0.61 0.11-0.84 0.32-0.25 0.23-0.39 0.56-0.39 0.92v12.08c0 0.59 0.51 1.16 1.08 1.24l0.3 0.04c2.25 0.3 5.7 1.43 7.7 2.52 0.09 0.04 0.22 0.05 0.27 0.03 2-1.11 5.47-2.25 7.73-2.55l0.34-0.04c0.57-0.07 1.08-0.65 1.08-1.24v-12.07c0-0.37-0.14-0.69-0.39-0.93-0.26-0.23-0.59-0.34-0.96-0.32h-0.12c-1.91 0.17-4.99 1.2-6.67 2.25l-0.16 0.11c-0.55 0.34-1.33 0.34-1.86 0.01l-0.24-0.14c-1.71-1.05-4.79-2.07-6.75-2.23h-0.12z"/>
 <path d="m12 21.24c-0.41 0-0.75-0.34-0.75-0.75v-15c0-0.41 0.34-0.75 0.75-0.75s0.75 0.34 0.75 0.75v15c0 0.42-0.34 0.75-0.75 0.75z"/>
 <path d="m7.75 9.2402h-2.25c-0.41 0-0.75-0.34-0.75-0.75s0.34-0.75 0.75-0.75h2.25c0.41 0 0.75 0.34 0.75 0.75s-0.34 0.75-0.75 0.75z"/>
 <path d="m8.5 12.24h-3c-0.41 0-0.75-0.34-0.75-0.75s0.34-0.75 0.75-0.75h3c0.41 0 0.75 0.34 0.75 0.75s-0.34 0.75-0.75 0.75z"/>
</svg>
