<?xml version="1.0" encoding="UTF-8"?>
<svg width="24" height="24" viewBox="0 0 24 24" xmlns="http://www.w3.org/2000/svg">
 <path d="m15.31 15.02c-0.58 0-1.21-0.19-1.84-0.58l-1.32-0.8c-0.06-0.04-0.24-0.04-0.3 0l-1.32 0.8c-1.08 0.66-2.14 0.76-2.99 0.28-0.83-0.47-1.29-1.41-1.29-2.64v-7.05c0-2.44 1.33-3.78 3.75-3.78h4c2.42 0 3.75 1.34 3.75 3.78v7.05c0 1.24-0.46 2.18-1.29 2.64-0.35 0.2-0.74 0.3-1.15 0.3zm-3.31-2.91c0.33 0 0.66 0.08 0.93 0.24l1.32 0.8c0.59 0.36 1.13 0.45 1.47 0.26 0.33-0.19 0.52-0.68 0.52-1.34v-7.04c0-1.6-0.67-2.28-2.25-2.28h-4c-1.58 0-2.25 0.68-2.25 2.28v7.05c0 0.66 0.19 1.15 0.52 1.34 0.34 0.19 0.88 0.1 1.47-0.26l1.32-0.8c0.29-0.17 0.62-0.25 0.95-0.25z"/>
 <path d="m15 22.75h-6c-5.43 0-7.75-2.34-7.75-7.82v-3.03c0-4.66 1.68-7.02 5.44-7.65 0.4-0.07 0.79 0.21 0.86 0.62s-0.21 0.79-0.62 0.86c-3.01 0.5-4.19 2.23-4.19 6.17v3.03c0 4.61 1.69 6.32 6.25 6.32h6c4.56 0 6.25-1.71 6.25-6.32v-3.03c0-4-1.22-5.73-4.36-6.2-0.41-0.06-0.69-0.44-0.63-0.85s0.44-0.69 0.85-0.63c3.9 0.58 5.64 2.94 5.64 7.68v3.03c0.01 5.48-2.31 7.82-7.74 7.82z"/>
</svg>
