<?xml version="1.0" encoding="UTF-8"?>
<svg width="24" height="24" viewBox="0 0 24 24" xmlns="http://www.w3.org/2000/svg">
 <path d="m3.5 18.75c-0.41 0-0.75-0.34-0.75-0.75v-11c0-4.41 1.34-5.75 5.75-5.75h7c4.41 0 5.75 1.34 5.75 5.75v10c0 0.16 0 0.31-0.01 0.47-0.03 0.41-0.4 0.73-0.8 0.7-0.41-0.03-0.73-0.39-0.7-0.8 0.01-0.12 0.01-0.25 0.01-0.37v-10c0-3.57-0.67-4.25-4.25-4.25h-7c-3.58 0-4.25 0.68-4.25 4.25v11c0 0.41-0.34 0.75-0.75 0.75z"/>
 <path d="m17 22.75h-10c-2.34 0-4.25-1.91-4.25-4.25v-0.65c0-1.99 1.62-3.6 3.6-3.6h14.15c0.41 0 0.75 0.34 0.75 0.75v3.5c0 2.34-1.91 4.25-4.25 4.25zm-10.65-7c-1.16 0-2.1 0.94-2.1 2.1v0.65c0 1.52 1.23 2.75 2.75 2.75h10c1.52 0 2.75-1.23 2.75-2.75v-2.75h-13.4z"/>
 <path d="m16 7.75h-8c-0.41 0-0.75-0.34-0.75-0.75s0.34-0.75 0.75-0.75h8c0.41 0 0.75 0.34 0.75 0.75s-0.34 0.75-0.75 0.75z"/>
 <path d="m13 11.25h-5c-0.41 0-0.75-0.34-0.75-0.75s0.34-0.75 0.75-0.75h5c0.41 0 0.75 0.34 0.75 0.75s-0.34 0.75-0.75 0.75z"/>
</svg>
