<?xml version="1.0" encoding="UTF-8"?>
<svg width="24" height="24" viewBox="0 0 24 24" xmlns="http://www.w3.org/2000/svg">
 <path d="m12 22.08c-0.3 0-0.6-0.07-0.85-0.21-1.87-1.02-5.15-2.1-7.21-2.37l-0.28998-0.04c-1.31-0.16-2.39-1.39-2.39-2.72v-12.08c0-0.79 0.31-1.51 0.88-2.03s1.31-0.77001 2.09-0.70001c2.19 0.18 5.51 1.28 7.3901 2.45l0.2399 0.14002c0.07 0.03 0.2201 0.04 0.2801 0l0.1599-0.10004c0.67-0.42 1.51-0.83001 2.43-1.2 0.23-0.09 0.49-0.05999 0.7 0.08001s0.3301 0.37 0.3301 0.62v2.68l0.83-0.54999c0.25-0.17 0.5799-0.17 0.8299 0l0.8301 0.54999v-3.8199c0-0.36 0.2599-0.67006 0.6099-0.74006 0.29-0.05 0.5801-0.08998 0.8401-0.10998h0.12c0.73-0.06 1.4799 0.19002 2.0399 0.71002 0.57 0.52 0.88 1.24 0.88 2.03v12.07c0 1.34-1.0799 2.56-2.3999 2.72l-0.33 0.04c-2.06 0.27-5.36 1.36-7.19 2.37-0.22 0.14-0.52 0.21-0.82 0.21zm-8.0201-18.67c-0.32 0-0.60997 0.11001-0.83997 0.32001-0.25 0.23-0.39001 0.55999-0.39001 0.92999v12.08c0 0.59 0.51001 1.16 1.08 1.24l0.29999 0.04c2.25 0.3 5.7 1.43 7.7 2.53 0.09 0.04 0.2199 0.05 0.2699 0.03 2.01-1.11 5.4701-2.2499 7.7301-2.5499l0.3399-0.0401c0.57-0.07 1.0801-0.65 1.0801-1.24v-12.07c0-0.37-0.1401-0.68999-0.3901-0.92999-0.25-0.23-0.5999-0.34001-0.9599-0.32001h-0.14v4.57c0 0.28-0.1501 0.52997-0.4001 0.65997s-0.5399 0.12002-0.7699-0.03998l-1.58-1.05-1.5801 1.05c-0.23 0.15-0.52 0.16998-0.77 0.03998-0.24-0.13-0.3999-0.37997-0.3999-0.65997v-2.93c-0.43 0.21-0.8201 0.42-1.1601 0.62l-0.1599 0.09997c-0.55 0.34-1.33 0.34001-1.86 0.01001l-0.24-0.14996c-1.69-1.06-4.7701-2.08-6.7301-2.24h-0.13z"/>
 <path d="m12 21.24c-0.41 0-0.75-0.34-0.75-0.75v-15c0-0.41 0.34-0.75 0.75-0.75s0.75 0.34 0.75 0.75v15c0 0.42-0.34 0.75-0.75 0.75z"/>
 <path d="m19 8.7505c-0.15 0-0.29-0.04001-0.42-0.13001l-1.58-1.05-1.58 1.05c-0.23 0.15-0.52 0.16998-0.77 0.03998-0.24-0.13-0.4-0.37997-0.4-0.65997v-4.08c0-0.31 0.19-0.58001 0.47-0.70001 1.38-0.55 2.89-0.97999 4.16-1.18 0.22-0.04 0.44 0.03004 0.61 0.17004s0.26 0.35001 0.26 0.57001v5.22c0 0.28-0.15 0.52997-0.4 0.65997-0.11 0.06-0.23 0.09003-0.35 0.09003zm-2-2.83c0.14 0 0.29 0.04 0.42 0.13l0.83 0.54999v-2.91c-0.8 0.18-1.67 0.44-2.5 0.75v2.16l0.83-0.54999c0.13-0.09 0.28-0.13 0.42-0.13z"/>
</svg>
