<?xml version="1.0" encoding="UTF-8"?>
<svg width="24" height="24" viewBox="0 0 24 24" xmlns="http://www.w3.org/2000/svg">
 <path d="m15 22.75h-6c-5.43 0-7.75-2.32-7.75-7.75v-6c0-5.43 2.32-7.75 7.75-7.75h6c5.43 0 7.75 2.32 7.75 7.75v6c0 5.43-2.32 7.75-7.75 7.75zm-6-20c-4.61 0-6.25 1.64-6.25 6.25v6c0 4.61 1.64 6.25 6.25 6.25h6c4.61 0 6.25-1.64 6.25-6.25v-6c0-4.61-1.64-6.25-6.25-6.25h-6z"/>
 <path d="m8.68 15.33c-0.42 0-0.81-0.1-1.15-0.29-0.83-0.47-1.28-1.4-1.28-2.62v-9.98c0-0.41 0.34-0.75 0.75-0.75s0.75 0.34 0.75 0.75v9.98c0 0.65 0.19 1.13 0.52 1.31 0.35 0.2 0.89 0.1 1.48-0.25l1.32-0.79c0.54-0.32 1.31-0.32 1.85 0l1.32 0.79c0.6 0.36 1.14 0.45 1.48 0.25 0.33-0.19 0.52-0.67 0.52-1.31v-9.98c0-0.41 0.34-0.75 0.75-0.75s0.75 0.34 0.75 0.75v9.98c0 1.22-0.45 2.15-1.28 2.62s-1.92 0.37-2.99-0.27l-1.32-0.79c-0.06-0.04-0.25-0.04-0.31 0l-1.32 0.79c-0.62 0.37-1.26 0.56-1.84 0.56z"/>
 <path d="m15 22.75h-6c-5.43 0-7.75-2.32-7.75-7.75v-6c0-5.43 2.32-7.75 7.75-7.75h6c5.43 0 7.75 2.32 7.75 7.75v6c0 5.43-2.32 7.75-7.75 7.75zm-6-20c-4.61 0-6.25 1.64-6.25 6.25v6c0 4.61 1.64 6.25 6.25 6.25h6c4.61 0 6.25-1.64 6.25-6.25v-6c0-4.61-1.64-6.25-6.25-6.25h-6z"/>
 <path d="m8.68 15.33c-0.42 0-0.81-0.1-1.15-0.29-0.83-0.47-1.28-1.4-1.28-2.62v-9.98c0-0.41 0.34-0.75 0.75-0.75s0.75 0.34 0.75 0.75v9.98c0 0.65 0.19 1.13 0.52 1.31 0.35 0.2 0.89 0.1 1.48-0.25l1.32-0.79c0.54-0.32 1.31-0.32 1.85 0l1.32 0.79c0.6 0.36 1.14 0.45 1.48 0.25 0.33-0.19 0.52-0.67 0.52-1.31v-9.98c0-0.41 0.34-0.75 0.75-0.75s0.75 0.34 0.75 0.75v9.98c0 1.22-0.45 2.15-1.28 2.62s-1.92 0.37-2.99-0.27l-1.32-0.79c-0.06-0.04-0.25-0.04-0.31 0l-1.32 0.79c-0.62 0.37-1.26 0.56-1.84 0.56z"/>
</svg>
