<?xml version="1.0" encoding="UTF-8"?>
<svg width="24" height="24" viewBox="0 0 24 24" xmlns="http://www.w3.org/2000/svg">
 <path d="m17 21.75h-10c-2.07 0-3.75-1.68-3.75-3.75v-0.84c0-0.69-0.11002-1.37-0.33002-2.03-0.28-0.83-1.05-1.38-1.92-1.38-0.41 0-0.75-0.34-0.75-0.75v-2c0-0.41 0.34-0.75 0.75-0.75 0.87 0 1.65-0.56 1.92-1.38 0.22-0.66 0.33002-1.34 0.33002-2.03v-0.84c0-2.07 1.68-3.75 3.75-3.75h10c2.07 0 3.75 1.68 3.75 3.75v0.84c0 0.69 0.11 1.37 0.33 2.03 0.28 0.83 1.05 1.38 1.92 1.38 0.41 0 0.75 0.34 0.75 0.75v2c0 0.41-0.34 0.75-0.75 0.75-0.87 0-1.65 0.56-1.92 1.38-0.22 0.66-0.33 1.34-0.33 2.03v0.84c0 2.07-1.68 3.75-3.75 3.75zm-15.25-9.42c1.2 0.26 2.19 1.13 2.59 2.33 0.27 0.81 0.40997 1.65 0.40997 2.5v0.84c0 1.24 1.01 2.25 2.25 2.25h10c1.24 0 2.25-1.01 2.25-2.25v-0.84c0-0.85 0.14-1.69 0.41-2.5 0.4-1.2 1.4-2.07 2.59-2.33v-0.66c-1.2-0.26-2.19-1.13-2.59-2.33-0.27-0.81-0.41-1.65-0.41-2.5v-0.84c0-1.24-1.01-2.25-2.25-2.25h-10c-1.24 0-2.25 1.01-2.25 2.25v0.84c0 0.85-0.13997 1.69-0.40997 2.5-0.4 1.2-1.4 2.07-2.59 2.33v0.66z"/>
 <path d="m12.67 16.92h-2.92c-0.41 0-0.75-0.34-0.75-0.75v-8.3301c0-0.41 0.34-0.75 0.75-0.75h2.92c1.56 0 2.83 1.27 2.83 2.83 0 0.82004-0.35 1.5699-0.92 2.0799 0.56 0.52 0.92 1.26 0.92 2.08 0 1.57-1.27 2.8401-2.83 2.8401zm-2.17-1.5h2.17c0.74 0 1.33-0.6001 1.33-1.3301s-0.6-1.3299-1.33-1.3299h-2.17v2.66zm0-4.1701h2.17c0.74 0 1.33-0.5999 1.33-1.3299 0-0.73-0.6-1.33-1.33-1.33h-2.17v2.66z"/>
</svg>
