<?xml version="1.0" encoding="UTF-8"?>
<svg width="24" height="24" viewBox="0 0 24 24" xmlns="http://www.w3.org/2000/svg">
 <path d="m12 13.3c-0.13 0-0.26-0.03-0.38-0.1l-8.83-5.11c-0.36-0.21-0.48002-0.67003-0.27002-1.03s0.66-0.48002 1.03-0.27002l8.45 4.89 8.4-4.86c0.36-0.21 0.82-0.07998 1.03 0.27002 0.21 0.36 0.08 0.81997-0.27 1.03l-8.7699 5.08c-0.13 0.06-0.2601 0.1-0.3901 0.1z"/>
 <path d="m12 22.36c-0.41 0-0.75-0.34-0.75-0.75v-9.07c0-0.41 0.34-0.75 0.75-0.75s0.75 0.34 0.75 0.75v9.07c0 0.41-0.34 0.75-0.75 0.75z"/>
 <path d="m12 22.75c-0.88 0-1.75-0.19-2.44-0.57l-5.34-2.97c-1.45-0.8-2.58-2.73-2.58-4.39v-5.65c0-1.66 1.13-3.58 2.58-4.39l5.34-2.96c1.37-0.76 3.51-0.76 4.88 0l5.34 2.97c1.45 0.8 2.58 2.73 2.58 4.39v5.65c0 1.66-1.13 3.58-2.58 4.39l-5.34 2.96c-0.69 0.38-1.56 0.57-2.44 0.57zm0-20c-0.63 0-1.25 0.13001-1.71 0.38001l-5.34 2.97c-0.96 0.54-1.81 1.97-1.81 3.08v5.65c0 1.1 0.84999 2.54 1.81 3.08l5.34 2.97c0.91 0.51 2.51 0.51 3.42 0l5.34-2.97c0.96-0.54 1.81-1.97 1.81-3.08v-5.65c0-1.1-0.85-2.54-1.81-3.08l-5.34-2.97c-0.46-0.25-1.08-0.38001-1.71-0.38001z"/>
 <path d="m17 13.99c-0.41 0-0.75-0.34-0.75-0.75v-3.2199l-9.12-5.26c-0.36-0.21-0.48002-0.67002-0.27002-1.02 0.21-0.36 0.66002-0.48002 1.02-0.27002l9.49 5.48c0.23 0.13 0.38 0.37996 0.38 0.64996v3.6601c0 0.39-0.34 0.7299-0.75 0.7299z"/>
</svg>
