<svg width="24" height="24" viewBox="0 0 24 24"  xmlns="http://www.w3.org/2000/svg">
<path opacity="0.4" d="M21.0407 7.19L12.0007 12.42L2.96069 7.19C3.36069 6.45 3.94069 5.8 4.59069 5.44L9.93069 2.48C11.0707 1.84 12.9307 1.84 14.0707 2.48L19.4107 5.44C20.0607 5.8 20.6407 6.45 21.0407 7.19Z" />
<path opacity="0.6" d="M12.0006 12.4204V22.0004C11.2506 22.0004 10.5006 21.8404 9.93062 21.5204L4.59063 18.5604C3.38063 17.8904 2.39062 16.2104 2.39062 14.8304V9.17043C2.39062 8.53043 2.61062 7.83043 2.96062 7.19043L12.0006 12.4204Z" />
<path d="M21.6107 9.17043V14.8304C21.6107 16.2104 20.6207 17.8904 19.4107 18.5604L14.0707 21.5204C13.5007 21.8404 12.7507 22.0004 12.0007 22.0004V12.4204L21.0407 7.19043C21.3907 7.83043 21.6107 8.53043 21.6107 9.17043Z" />
</svg>
