<?xml version="1.0" encoding="UTF-8"?>
<svg width="24" height="24" viewBox="0 0 24 24" xmlns="http://www.w3.org/2000/svg">
 <path d="m12 22.75c-0.06 0-0.12-0.01-0.17-0.02-0.06-0.01-0.12-0.04-0.18-0.07l-2.21-1.1c-0.37-0.19-0.52001-0.64-0.34001-1.01 0.19-0.37 0.64-0.52 1.01-0.34l1.14 0.57v-1.56c0-0.41 0.34-0.75 0.75-0.75s0.75 0.34 0.75 0.75v1.56l1.14-0.57c0.37-0.18 0.82-0.03 1.01 0.34s0.04 0.82-0.34 1.01l-2.21 1.1c-0.06 0.03-0.12 0.05-0.18 0.07-0.06 0.01-0.11 0.02-0.17 0.02zm6.67-3.33c-0.27 0-0.54-0.15-0.67-0.41-0.19-0.37-0.04-0.82 0.34-1.01l1.81-0.9v-2.31c0-0.41 0.34-0.75 0.75-0.75s0.75 0.34 0.75 0.75v2.78c0 0.28-0.16 0.54-0.41 0.67l-2.22 1.11c-0.13 0.04-0.24 0.07-0.35 0.07zm-13.34 0c-0.11 0-0.23-0.03-0.33-0.08l-2.22-1.11c-0.25-0.13-0.40999-0.39-0.40999-0.67v-2.78c0-0.41 0.34-0.75 0.75-0.75s0.75 0.34 0.75 0.75v2.31l1.81 0.9c0.37 0.19 0.52 0.64 0.34 1.01-0.15 0.26-0.41 0.42-0.69 0.42zm6.67-5c-0.41 0-0.75-0.34-0.75-0.75v-2.31l-1.81-0.9c-0.37-0.19-0.52001-0.64001-0.34001-1.01 0.19-0.37 0.64-0.51999 1.01-0.33999l1.89 0.94 1.89-0.94c0.37-0.18 0.82-0.04001 1.01 0.33999s0.04 0.82001-0.34 1.01l-1.81 0.9v2.31c0 0.41-0.34 0.75-0.75 0.75zm8.89-4.45c-0.41 0-0.75-0.34-0.75-0.75v-1.56l-1.14 0.56999c-0.37 0.19-0.82 0.04001-1.01-0.33999-0.19-0.37-0.04-0.82 0.34-1.01l0.88-0.44-0.88-0.44c-0.37-0.19-0.52-0.64-0.34-1.01 0.19-0.37 0.64-0.52001 1.01-0.34001l2.21 1.1c0.02 0.01 0.05 0.01999 0.07 0.03999 0.06 0.03 0.11 0.08001 0.16 0.13001 0.03 0.04 0.06 0.07999 0.09 0.11999 0.04 0.07 0.07 0.14 0.09 0.22 0.01 0.06 0.02 0.12 0.02 0.17v2.77c0 0.44-0.34 0.77001-0.75 0.77001zm-17.78 0c-0.41 0-0.75-0.34-0.75-0.75v-2.77c0-0.06 0.01-0.11999 0.02-0.16999 0.02-0.08 0.05-0.15 0.09-0.22001 0.03-0.05 0.06-0.09 0.1-0.13s0.09-0.07999 0.14-0.10999c0.02-0.01 0.05-0.03 0.07-0.04l2.21-1.1c0.37-0.18 0.82-0.03999 1.01 0.34001s0.04001 0.82-0.33999 1.01l-0.88001 0.44 0.88001 0.44c0.37 0.19 0.51999 0.64 0.33999 1.01-0.19 0.37-0.63 0.51999-1.01 0.33999l-1.14-0.56999v1.56c0.01 0.39-0.32 0.72-0.74 0.72zm11.11-6.11c-0.11 0-0.23-0.03-0.33-0.08l-1.89-0.94001-1.89 0.94001c-0.37004 0.19-0.82004 0.04-1.01-0.34-0.19-0.37-0.04-0.82001 0.34001-1.01l2.22-1.11c0.21-0.11 0.46-0.11 0.67 0l2.22 1.11c0.37 0.19 0.52 0.64001 0.34 1.01-0.13 0.27-0.39 0.42-0.67 0.42z"/>
</svg>
