<?xml version="1.0" encoding="UTF-8"?>
<svg width="24" height="24" viewBox="0 0 24 24" xmlns="http://www.w3.org/2000/svg">
 <path d="m19 22.75c-1.4 0-2.71-0.6099-3.61-1.6799-0.01-0.02-0.07-0.0701-0.12-0.1501-0.11-0.11-0.24-0.31-0.35-0.5-0.44-0.71-0.68-1.55-0.68-2.43 0-1.46 0.65-2.8099 1.78-3.7099 0.84-0.67 1.9-1.0401 2.97-1.0401 1.16 0 2.23 0.4001 3.09 1.1501 0.12 0.08 0.26 0.23 0.39 0.37 0.81 0.89 1.26 2.0299 1.26 3.2199 0 0.87-0.24 1.72-0.69 2.45-0.24 0.42-0.57 0.8-0.95 1.12-0.81 0.78-1.92 1.2-3.09 1.2zm0-8c-0.74 0-1.44 0.25-2.03 0.72-0.77 0.61-1.22 1.54-1.22 2.53 0 0.59 0.16 1.17 0.47 1.67 0.08 0.14 0.16 0.2501 0.25 0.3601 0.02 0.02 0.08 0.0799 0.13 0.1599 0.55 0.65 1.45 1.0701 2.4 1.0701 0.79 0 1.55-0.29 2.13-0.81 0.26-0.22 0.48-0.4801 0.64-0.7601 0.32-0.51 0.48-1.0899 0.48-1.6799 0-0.81-0.31-1.6001-0.87-2.2101-0.07-0.08-0.15-0.1599-0.23-0.2199-0.63-0.56-1.36-0.8301-2.15-0.8301z"/>
 <path d="m20.49 18.73h-2.99c-0.41 0-0.75-0.34-0.75-0.75s0.34-0.75 0.75-0.75h2.99c0.41 0 0.75 0.34 0.75 0.75s-0.33 0.75-0.75 0.75z"/>
 <path d="m19 20.26c-0.41 0-0.75-0.34-0.75-0.75v-2.99c0-0.41 0.34-0.75 0.75-0.75s0.75 0.34 0.75 0.75v2.99c0 0.42-0.34 0.75-0.75 0.75z"/>
 <path d="m12 13.3c-0.13 0-0.26-0.03-0.38-0.1l-8.83-5.11c-0.36-0.21-0.47999-0.67003-0.26999-1.03s0.66999-0.48002 1.02-0.27002l8.45 4.89 8.4-4.86c0.36-0.21 0.82-0.07998 1.02 0.27002 0.21 0.36 0.08 0.81997-0.27 1.03l-8.77 5.08c-0.11 0.06-0.24 0.1-0.37 0.1z"/>
 <path d="m12 22.36c-0.41 0-0.75-0.34-0.75-0.75v-9.07c0-0.41 0.34-0.75 0.75-0.75s0.75 0.34 0.75 0.75v9.07c0 0.41-0.34 0.75-0.75 0.75z"/>
 <path d="m12 22.75c-0.88 0-1.76-0.19-2.44-0.58l-5.34-2.96c-1.45-0.8-2.59-2.73-2.59-4.39v-5.66c0-1.66 1.14-3.58 2.59-4.39l5.34-2.96c1.36-0.77 3.5-0.77 4.87 0l5.34 2.96c1.45 0.8 2.59 2.73 2.59 4.39v5.66c0 0.1 0 0.18-0.02 0.28-0.05 0.26-0.24 0.48-0.49 0.56-0.25 0.09-0.53 0.03-0.74-0.14-1.15-1-2.93-1.04-4.14-0.07-0.77 0.61-1.22 1.54-1.22 2.53 0 0.59 0.16 1.17 0.47 1.67 0.08 0.14 0.16 0.25 0.25 0.36 0.15 0.17 0.21 0.4 0.17 0.62s-0.18 0.41-0.38 0.52l-1.83 1.01c-0.68 0.4-1.55 0.59-2.43 0.59zm0-20c-0.62 0-1.25 0.13001-1.7 0.38001l-5.34 2.96c-0.97 0.53-1.81 1.97-1.81 3.07v5.66c0 1.1 0.85001 2.54 1.81 3.07l5.34 2.96c0.91 0.51 2.5 0.51 3.41 0l1.12-0.62c-0.37-0.67-0.57-1.45-0.57-2.25 0-1.46 0.65-2.81 1.78-3.71 1.36-1.09 3.31-1.32 4.83-0.67v-4.46c0-1.1-0.85-2.54-1.81-3.07l-5.34-2.96c-0.47-0.23-1.1-0.35999-1.72-0.35999z"/>
</svg>
