<?xml version="1.0" encoding="UTF-8"?>
<svg width="24" height="24" viewBox="0 0 24 24" xmlns="http://www.w3.org/2000/svg">
 <path d="m12 13.3c-0.13 0-0.26-0.03-0.38-0.1l-8.83-5.11c-0.36-0.21-0.48002-0.67003-0.27002-1.03s0.66-0.48002 1.03-0.27002l8.45 4.89 8.4-4.86c0.36-0.21 0.82-0.07998 1.03 0.27002 0.21 0.36 0.08 0.81997-0.27 1.03l-8.7699 5.08c-0.13 0.06-0.2601 0.1-0.3901 0.1z"/>
 <path d="m12 22.36c-0.41 0-0.75-0.34-0.75-0.75v-9.07c0-0.41 0.34-0.75 0.75-0.75s0.75 0.34 0.75 0.75v9.07c0 0.41-0.34 0.75-0.75 0.75z"/>
 <path d="m12 22.75c-0.91 0-1.78-0.21-2.44-0.58l-5.34-2.9599c-1.45-0.8-2.59-2.7301-2.59-4.3901v-5.66c0-1.66 1.14-3.58 2.59-4.39l5.34-2.96c1.36-0.76 3.5-0.76 4.87 0l5.34 2.96c1.45 0.8 2.59 2.73 2.59 4.39v3.66c0 0.41-0.34 0.75-0.75 0.75s-0.75-0.34-0.75-0.75v-3.66c0-1.1-0.85-2.54-1.81-3.07l-5.34-2.96c-0.91-0.51-2.5-0.51-3.41 0l-5.34 2.96c-0.97 0.54-1.81 1.97-1.81 3.07v5.66c0 1.1 0.85 2.5401 1.81 3.0701l5.34 2.9599c0.88 0.49 2.54 0.49 3.41 0 0.36-0.2 0.82-0.0699 1.02 0.2901s0.07 0.8199-0.29 1.0199c-0.66 0.38-1.53 0.59-2.44 0.59z"/>
 <path d="m19.2 22.15c-2.18 0-3.95-1.77-3.95-3.95s1.77-3.95 3.95-3.95 3.95 1.77 3.95 3.95-1.77 3.95-3.95 3.95zm0-6.4c-1.35 0-2.45 1.1-2.45 2.45s1.1 2.45 2.45 2.45 2.45-1.1 2.45-2.45-1.1-2.45-2.45-2.45z"/>
 <path d="m23 22.75c-0.19 0-0.38-0.07-0.53-0.22l-1-1c-0.29-0.29-0.29-0.7701 0-1.0601s0.77-0.29 1.06 0l1 1c0.29 0.29 0.29 0.7701 0 1.0601-0.15 0.15-0.34 0.22-0.53 0.22z"/>
</svg>
