<?xml version="1.0" encoding="UTF-8"?>
<svg width="24" height="24" viewBox="0 0 24 24" xmlns="http://www.w3.org/2000/svg">
 <path d="m19 22.75c-1.62 0-3.15-0.84-4.01-2.22-0.46-0.71-0.72-1.5601-0.74-2.4301-0.03-1.46 0.59-2.82 1.7-3.74 0.83-0.69 1.87-1.0799 2.94-1.1099 1.3-0.01 2.47 0.44 3.39 1.32s1.44 2.06 1.46 3.33c0.02 0.87-0.2 1.72-0.64 2.47-0.24 0.42-0.55 0.81-0.92 1.14-0.82 0.77-1.92 1.22-3.09 1.24h-0.09zm0-8h-0.07c-0.74 0.02-1.44 0.28-2.02 0.76-0.76 0.63-1.18 1.56-1.16 2.56 0.01 0.59 0.19 1.1699 0.5 1.6599 0.61 0.98 1.67 1.5801 2.81 1.5201 0.79-0.02 1.54-0.32 2.11-0.85 0.26-0.23 0.47-0.49 0.63-0.77 0.3-0.52 0.45-1.1 0.44-1.69-0.02-0.87-0.37-1.6801-1-2.2801-0.6-0.59-1.4-0.9099-2.24-0.9099z"/>
 <path d="m18.45 19.75c-0.19 0-0.37-0.07-0.52-0.21l-1.01-0.96c-0.3-0.29-0.31-0.76-0.02-1.06s0.76-0.31 1.06-0.02l0.49 0.47 1.57-1.52c0.3-0.29 0.77-0.28 1.06 0.02s0.28 0.77-0.02 1.06l-2.09 2.02c-0.15 0.13-0.34 0.2-0.52 0.2z"/>
 <path d="m12 13.3c-0.13 0-0.26-0.03-0.38-0.1l-8.83-5.11c-0.36-0.21-0.48002-0.67003-0.27002-1.03s0.67002-0.48002 1.02-0.27002l8.45 4.89 8.4001-4.86c0.36-0.21 0.8199-0.07998 1.0199 0.27002 0.21 0.36 0.0801 0.81997-0.2699 1.03l-8.7701 5.08c-0.11 0.06-0.24 0.1-0.37 0.1z"/>
 <path d="m12 22.36c-0.41 0-0.75-0.34-0.75-0.75v-9.07c0-0.41 0.34-0.75 0.75-0.75s0.75 0.34 0.75 0.75v9.07c0 0.41-0.34 0.75-0.75 0.75z"/>
 <path d="m12 22.75c-0.88 0-1.76-0.19-2.44-0.58l-5.34-2.96c-1.45-0.8-2.59-2.73-2.59-4.39v-5.66c0-1.66 1.14-3.58 2.59-4.39l5.34-2.96c1.36-0.77 3.5-0.77 4.87 0l5.34 2.96c1.45 0.8 2.59 2.73 2.59 4.39v5.66c0 0.1 0 0.18-0.02 0.28-0.05 0.26-0.24 0.48-0.49 0.56-0.25 0.09-0.53 0.03-0.74-0.14-1.15-1-2.93-1.04-4.14-0.07-0.77 0.61-1.22 1.54-1.22 2.53 0 0.59 0.16 1.17 0.47 1.67 0.08 0.14 0.16 0.25 0.25 0.36 0.15 0.17 0.21 0.4 0.17 0.62s-0.18 0.41-0.38 0.52l-1.83 1.01c-0.68 0.4-1.55 0.59-2.43 0.59zm0-20c-0.62 0-1.25 0.13001-1.7 0.38001l-5.34 2.96c-0.97 0.53-1.81 1.97-1.81 3.07v5.66c0 1.1 0.85 2.54 1.81 3.07l5.34 2.96c0.91 0.51 2.5 0.51 3.41 0l1.12-0.62c-0.37-0.67-0.57-1.45-0.57-2.25 0-1.46 0.65-2.81 1.78-3.71 1.36-1.09 3.3-1.32 4.83-0.67v-4.46c0-1.1-0.85-2.54-1.81-3.07l-5.34-2.96c-0.47-0.23-1.1-0.35999-1.72-0.35999z"/>
</svg>
