<?xml version="1.0" encoding="UTF-8"?>
<svg width="24" height="24" viewBox="0 0 24 24" xmlns="http://www.w3.org/2000/svg">
 <path d="m12 13.3c-0.13 0-0.26-0.03-0.38-0.1l-8.83-5.11c-0.36-0.21-0.48002-0.67003-0.27002-1.03s0.66-0.48002 1.03-0.27002l8.45 4.89 8.4-4.86c0.36-0.21 0.82-0.07998 1.03 0.27002 0.21 0.36 0.08 0.81997-0.27 1.03l-8.7699 5.08c-0.13 0.06-0.2601 0.1-0.3901 0.1z"/>
 <path d="m12 22.36c-0.41 0-0.75-0.34-0.75-0.75v-9.07c0-0.41 0.34-0.75 0.75-0.75s0.75 0.34 0.75 0.75v9.07c0 0.41-0.34 0.75-0.75 0.75z"/>
 <path d="m12 22.75c-0.88 0-1.76-0.19-2.44-0.58l-5.34-2.9599c-1.45-0.8-2.59-2.7301-2.59-4.3901v-5.66c0-1.66 1.14-3.58 2.59-4.39l5.34-2.96c1.36-0.76 3.5-0.76 4.87 0l5.34 2.96c1.45 0.8 2.59 2.73 2.59 4.39v5.66c0 0.07 0 0.17-0.03 0.3-0.06 0.26-0.25 0.47-0.5 0.55s-0.53 0.0301-0.73-0.1499c-1.14-1-2.92-1.0401-4.14-0.0701-0.77 0.61-1.22 1.54-1.22 2.53 0 0.59 0.16 1.1701 0.47 1.6701 0.08 0.14 0.16 0.2499 0.25 0.3499 0.15 0.17 0.21 0.4 0.17 0.62s-0.18 0.4201-0.38 0.5201l-1.83 1.01c-0.67 0.41-1.54 0.5999-2.42 0.5999zm0-20c-0.62 0-1.25 0.13-1.7 0.38l-5.34 2.96c-0.97 0.54-1.81 1.97-1.81 3.07v5.66c0 1.1 0.85 2.5401 1.81 3.0701l5.34 2.9599c0.91 0.51 2.5 0.51 3.41 0l1.12-0.62c-0.37-0.67-0.57-1.45-0.57-2.25 0-1.46 0.65-2.8099 1.78-3.7099 1.37-1.09 3.31-1.3201 4.83-0.6601v-4.4599c0-1.1-0.85-2.54-1.81-3.07l-5.34-2.96c-0.47-0.24-1.1-0.36999-1.72-0.36999z"/>
 <path d="m19 22.75c-2.62 0-4.75-2.13-4.75-4.75 0-1.46 0.65-2.81 1.78-3.71 0.84-0.67 1.9-1.04 2.97-1.04 2.62 0 4.75 2.13 4.75 4.75 0 1.36-0.59 2.66-1.62 3.56-0.87 0.77-1.98 1.19-3.13 1.19zm0-8c-0.74 0-1.44 0.25-2.03 0.72-0.77 0.61-1.22 1.54-1.22 2.53 0 1.79 1.46 3.25 3.25 3.25 0.78 0 1.54-0.29 2.15-0.81 0.7-0.62 1.1-1.5 1.1-2.44 0-1.79-1.46-3.25-3.25-3.25z"/>
 <path d="m18 19.75c-0.25 0-0.5-0.13-0.64-0.36-0.21-0.36-0.1-0.82 0.26-1.03l0.89-0.53v-1.08c0-0.41 0.34-0.75 0.75-0.75s0.75 0.34 0.75 0.75v1.5c0 0.26-0.14 0.51-0.36 0.64l-1.25 0.75c-0.14 0.08-0.27 0.11-0.4 0.11z"/>
</svg>
