<svg width="24" height="24" viewBox="0 0 24 24"  xmlns="http://www.w3.org/2000/svg">
<path d="M16.0002 22.75H8.00023C3.38023 22.75 2.52023 20.6 2.30023 18.51L1.55023 10.5C1.44023 9.45 1.41023 7.9 2.45023 6.74C3.35023 5.74 4.84023 5.26 7.00023 5.26H17.0002C19.1702 5.26 20.6602 5.75 21.5502 6.74C22.5902 7.9 22.5602 9.45 22.4502 10.51L21.7002 18.5C21.4802 20.6 20.6202 22.75 16.0002 22.75ZM7.00023 6.75C5.31023 6.75 4.15023 7.08 3.56023 7.74C3.07023 8.28 2.91023 9.11 3.04023 10.35L3.79023 18.36C3.96023 19.94 4.39023 21.25 8.00023 21.25H16.0002C19.6002 21.25 20.0402 19.94 20.2102 18.35L20.9602 10.36C21.0902 9.11 20.9302 8.28 20.4402 7.74C19.8502 7.08 18.6902 6.75 17.0002 6.75H7.00023Z" />
<path d="M16.0002 6.75C15.5902 6.75 15.2502 6.41 15.2502 6V5.2C15.2502 3.42 15.2502 2.75 12.8002 2.75H11.2002C8.75023 2.75 8.75023 3.42 8.75023 5.2V6C8.75023 6.41 8.41023 6.75 8.00023 6.75C7.59023 6.75 7.25023 6.41 7.25023 6V5.2C7.25023 3.44 7.25023 1.25 11.2002 1.25H12.8002C16.7502 1.25 16.7502 3.44 16.7502 5.2V6C16.7502 6.41 16.4102 6.75 16.0002 6.75Z" />
<path d="M12.0002 16.75C9.25023 16.75 9.25023 15.05 9.25023 14.03V13C9.25023 11.59 9.59023 11.25 11.0002 11.25H13.0002C14.4102 11.25 14.7502 11.59 14.7502 13V14C14.7502 15.04 14.7502 16.75 12.0002 16.75ZM10.7502 12.75C10.7502 12.83 10.7502 12.92 10.7502 13V14.03C10.7502 15.06 10.7502 15.25 12.0002 15.25C13.2502 15.25 13.2502 15.09 13.2502 14.02V13C13.2502 12.92 13.2502 12.83 13.2502 12.75C13.1702 12.75 13.0802 12.75 13.0002 12.75H11.0002C10.9202 12.75 10.8302 12.75 10.7502 12.75Z" />
<path d="M14.0002 14.77C13.6302 14.77 13.3002 14.49 13.2602 14.11C13.2102 13.7 13.5002 13.32 13.9102 13.27C16.5502 12.94 19.0802 11.94 21.2102 10.39C21.5402 10.14 22.0102 10.22 22.2602 10.56C22.5002 10.89 22.4302 11.36 22.0902 11.61C19.7502 13.31 16.9902 14.4 14.0902 14.77C14.0602 14.77 14.0302 14.77 14.0002 14.77Z" />
<path d="M10.0002 14.78C9.97023 14.78 9.94023 14.78 9.91023 14.78C7.17023 14.47 4.50023 13.47 2.19023 11.89C1.85023 11.66 1.76023 11.19 1.99023 10.85C2.22023 10.51 2.69023 10.42 3.03023 10.65C5.14023 12.09 7.57023 13 10.0702 13.29C10.4802 13.34 10.7802 13.71 10.7302 14.12C10.7002 14.5 10.3802 14.78 10.0002 14.78Z" />
</svg>
