<svg width="24" height="24" viewBox="0 0 24 24"  xmlns="http://www.w3.org/2000/svg">
<path d="M21.09 6.97953C20.24 6.03953 18.82 5.56953 16.76 5.56953H16.52V5.52953C16.52 3.84953 16.52 1.76953 12.76 1.76953H11.24C7.48004 1.76953 7.48004 3.85953 7.48004 5.52953V5.57953H7.24004C5.17004 5.57953 3.76004 6.04953 2.91004 6.98953C1.92004 8.08953 1.95004 9.56953 2.05004 10.5795L2.06004 10.6495L2.16004 11.6995C2.17004 11.7095 2.19004 11.7295 2.21004 11.7395C2.54004 11.9595 2.88004 12.1795 3.24004 12.3795C3.38004 12.4695 3.53004 12.5495 3.68004 12.6295C5.39004 13.5695 7.27004 14.1995 9.18004 14.5095C9.27004 15.4495 9.68004 16.5495 11.87 16.5495C14.06 16.5495 14.49 15.4595 14.56 14.4895C16.6 14.1595 18.57 13.4495 20.35 12.4095C20.41 12.3795 20.45 12.3495 20.5 12.3195C20.96 12.0595 21.39 11.7795 21.81 11.4695C21.83 11.4595 21.85 11.4395 21.86 11.4195L21.9 11.0595L21.95 10.5895C21.96 10.5295 21.96 10.4795 21.97 10.4095C22.05 9.39953 22.03 8.01953 21.09 6.97953ZM13.09 13.8295C13.09 14.8895 13.09 15.0495 11.86 15.0495C10.63 15.0495 10.63 14.8595 10.63 13.8395V12.5795H13.09V13.8295ZM8.91004 5.56953V5.52953C8.91004 3.82953 8.91004 3.19953 11.24 3.19953H12.76C15.09 3.19953 15.09 3.83953 15.09 5.52953V5.57953H8.91004V5.56953Z" />
<path opacity="0.4" d="M20.4999 12.3004C20.4499 12.3304 20.3999 12.3604 20.3499 12.3904C18.5699 13.4304 16.5999 14.1304 14.5599 14.4704C14.4799 15.4304 14.0599 16.5304 11.8699 16.5304C9.67991 16.5304 9.25991 15.4404 9.17991 14.4904C7.26991 14.1904 5.38991 13.5604 3.67991 12.6104C3.52991 12.5304 3.37991 12.4504 3.23991 12.3604C2.87991 12.1604 2.53991 11.9404 2.20991 11.7204C2.18991 11.7104 2.16991 11.6904 2.15991 11.6804L2.76991 18.1904C2.97991 20.1804 3.79991 22.2304 8.19991 22.2304H15.8199C20.2199 22.2304 21.0399 20.1804 21.2499 18.1804L21.8799 11.4004C21.8699 11.4204 21.8499 11.4404 21.8299 11.4504C21.3999 11.7604 20.9599 12.0504 20.4999 12.3004Z" />
</svg>
