<?xml version="1.0" encoding="UTF-8"?>
<svg width="24" height="24" viewBox="0 0 24 24" xmlns="http://www.w3.org/2000/svg">
 <path d="m12 18.95c-2.62 0-4.75-2.13-4.75-4.75s2.13-4.75 4.75-4.75 4.75 2.13 4.75 4.75-2.13 4.75-4.75 4.75zm0-8c-1.79 0-3.25 1.46-3.25 3.25s1.46 3.25 3.25 3.25 3.25-1.46 3.25-3.25-1.46-3.25-3.25-3.25z"/>
 <path d="m13.07 16.06c-0.19 0-0.38-0.07-0.53-0.22l-2.11-2.11c-0.29-0.29-0.29-0.77 0-1.06s0.77-0.29 1.06 0l2.11 2.11c0.29 0.29 0.29 0.77 0 1.06-0.15 0.15-0.34 0.22-0.53 0.22z"/>
 <path d="m10.93 16.09c-0.19 0-0.38-0.07-0.53-0.22-0.29-0.29-0.29-0.77 0-1.06l2.11-2.11c0.29-0.29 0.77-0.29 1.06 0s0.29 0.77 0 1.06l-2.11 2.11c-0.15 0.14-0.34 0.22-0.53 0.22z"/>
 <path d="m16 22.75h-8c-4.62 0-5.48-2.15-5.7-4.24l-0.75-8.01c-0.11-1.05-0.14-2.6 0.9-3.76 0.9-1 2.39-1.48 4.55-1.48h10c2.17 0 3.66 0.49 4.55 1.48 1.04 1.16 1.01 2.71 0.9 3.77l-0.75 7.99c-0.22 2.1-1.08 4.25-5.7 4.25zm-9-16c-1.69 0-2.85 0.33-3.44 0.99-0.49 0.54-0.65 1.37-0.52 2.61l0.75 8.01c0.17 1.58 0.6 2.89 4.21 2.89h8c3.6 0 4.04-1.31 4.21-2.9l0.75-7.99c0.13-1.25-0.03-2.08-0.52-2.62-0.59-0.66-1.75-0.99-3.44-0.99h-10z"/>
 <path d="m16 6.75c-0.41 0-0.75-0.34-0.75-0.75v-0.8c0-1.78 0-2.45-2.45-2.45h-1.6c-2.45 0-2.45 0.67-2.45 2.45v0.8c0 0.41-0.34 0.75-0.75 0.75s-0.75-0.34-0.75-0.75v-0.8c0-1.76 0-3.95 3.95-3.95h1.6c3.95 0 3.95 2.19 3.95 3.95v0.8c0 0.41-0.34 0.75-0.75 0.75z"/>
 <path d="m16.01 14.39c-0.34 0-0.64-0.23-0.73-0.57-0.1-0.4 0.14-0.81 0.54-0.91 1.95-0.49 3.76-1.34 5.38-2.52 0.33-0.24 0.81-0.17 1.05 0.17 0.24 0.33 0.17 0.8-0.17 1.05-1.78 1.29-3.76 2.22-5.9 2.76-0.05 0.01-0.11 0.02-0.17 0.02z"/>
 <path d="m8.0002 14.42c-0.06 0-0.12-0.01-0.18-0.02-2.01-0.49-3.9-1.34-5.63-2.52-0.34-0.23-0.43-0.7-0.2-1.04s0.7-0.43 1.04-0.2c1.58 1.08 3.3 1.85 5.14 2.3 0.4 0.1 0.65 0.5 0.55 0.91-0.07 0.34-0.38 0.57-0.72 0.57z"/>
</svg>
