<svg width="24" height="24" viewBox="0 0 24 24"  xmlns="http://www.w3.org/2000/svg">
<path opacity="0.4" d="M21.8499 11.4102L21.2299 18.1902C21.0199 20.1902 20.1999 22.2302 15.7999 22.2302H8.1799C3.7799 22.2302 2.9599 20.1902 2.7599 18.2002L2.1499 11.6902C2.1599 11.7002 2.1699 11.7102 2.1899 11.7202C2.5299 11.9402 2.8599 12.1602 3.2199 12.3602C3.3599 12.4502 3.5099 12.5302 3.6599 12.6102C4.7899 13.2302 5.9999 13.7202 7.2499 14.0602C7.7499 14.2102 8.2599 14.3202 8.7799 14.4102C8.9799 16.0102 10.3499 17.2502 11.9999 17.2502C13.6699 17.2502 15.0499 15.9802 15.2299 14.3502V14.3402C15.7399 14.2402 16.2499 14.1102 16.7499 13.9602C17.9999 13.5702 19.2099 13.0502 20.3399 12.3902C20.3999 12.3602 20.4499 12.3302 20.4899 12.3002C20.9499 12.0502 21.3899 11.7602 21.8099 11.4602C21.8299 11.4502 21.8399 11.4302 21.8499 11.4102Z" />
<path d="M21.09 6.97953C20.24 6.03953 18.83 5.56953 16.76 5.56953H16.52V5.52953C16.52 3.84953 16.52 1.76953 12.76 1.76953H11.24C7.48004 1.76953 7.48004 3.84953 7.48004 5.52953V5.56953H7.24004C5.17004 5.56953 3.75004 6.03953 2.91004 6.97953C1.92004 8.08953 1.95004 9.55953 2.05004 10.5695L2.06004 10.6395L2.15004 11.6895C2.16004 11.6995 2.18004 11.7095 2.20004 11.7195C2.54004 11.9395 2.87004 12.1595 3.23004 12.3595C3.37004 12.4495 3.52004 12.5295 3.67004 12.6095C4.80004 13.2295 6.01004 13.7195 7.25004 14.0595C7.28004 16.6495 9.40004 18.7495 12 18.7495C14.62 18.7495 16.75 16.6195 16.75 13.9995V13.9595C18.01 13.5795 19.22 13.0495 20.35 12.3895C20.41 12.3595 20.45 12.3295 20.5 12.2995C20.96 12.0495 21.4 11.7595 21.82 11.4595C21.83 11.4495 21.85 11.4295 21.86 11.4095L21.9 11.0495L21.95 10.5795C21.96 10.5195 21.96 10.4695 21.97 10.3995C22.05 9.39953 22.03 8.01953 21.09 6.97953ZM8.91004 5.52953C8.91004 3.82953 8.91004 3.18953 11.24 3.18953H12.76C15.09 3.18953 15.09 3.82953 15.09 5.52953V5.56953H8.91004V5.52953ZM12 17.2495C10.35 17.2495 8.98004 16.0095 8.78004 14.4095C8.76004 14.2795 8.75004 14.1395 8.75004 13.9995C8.75004 12.2095 10.21 10.7495 12 10.7495C13.79 10.7495 15.25 12.2095 15.25 13.9995C15.25 14.1195 15.24 14.2295 15.23 14.3395V14.3495C15.05 15.9795 13.67 17.2495 12 17.2495Z" />
<path d="M11.4299 16.0303C11.2399 16.0303 11.0499 15.9603 10.8999 15.8103L9.90988 14.8303C9.61988 14.5403 9.61988 14.0603 9.90988 13.7703C10.1999 13.4803 10.6799 13.4803 10.9699 13.7703L11.4499 14.2503L13.0599 12.7703C13.3599 12.4903 13.8399 12.5103 14.1199 12.8103C14.3999 13.1103 14.3799 13.5903 14.0799 13.8703L11.9499 15.8403C11.7899 15.9603 11.6099 16.0303 11.4299 16.0303Z" />
</svg>
