<svg width="24" height="24" viewBox="0 0 24 24"  xmlns="http://www.w3.org/2000/svg">
<path d="M12.0002 18.95C9.38023 18.95 7.25023 16.82 7.25023 14.2C7.25023 11.58 9.38023 9.45 12.0002 9.45C14.6202 9.45 16.7502 11.58 16.7502 14.2C16.7502 16.82 14.6202 18.95 12.0002 18.95ZM12.0002 10.95C10.2102 10.95 8.75023 12.41 8.75023 14.2C8.75023 15.99 10.2102 17.45 12.0002 17.45C13.7902 17.45 15.2502 15.99 15.2502 14.2C15.2502 12.41 13.7902 10.95 12.0002 10.95Z" />
<path d="M11.0002 15.95C10.7502 15.95 10.5002 15.82 10.3602 15.59C10.1502 15.23 10.2602 14.77 10.6202 14.56L11.3802 14.1C11.4602 14.06 11.5002 13.97 11.5002 13.89V12.96C11.5002 12.55 11.8402 12.21 12.2502 12.21C12.6602 12.21 13.0002 12.54 13.0002 12.95V13.88C13.0002 14.49 12.6702 15.07 12.1502 15.38L11.3902 15.84C11.2702 15.92 11.1302 15.95 11.0002 15.95Z" />
<path d="M16.0002 22.75H8.00023C3.38023 22.75 2.52023 20.6 2.30023 18.51L1.55023 10.5C1.44023 9.45 1.41023 7.9 2.45023 6.74C3.35023 5.74 4.84023 5.26 7.00023 5.26H17.0002C19.1702 5.26 20.6602 5.75 21.5502 6.74C22.5902 7.9 22.5602 9.45 22.4502 10.51L21.7002 18.5C21.4802 20.6 20.6202 22.75 16.0002 22.75ZM7.00023 6.75C5.31023 6.75 4.15023 7.08 3.56023 7.74C3.07023 8.28 2.91023 9.11 3.04023 10.35L3.79023 18.36C3.96023 19.94 4.39023 21.25 8.00023 21.25H16.0002C19.6002 21.25 20.0402 19.94 20.2102 18.35L20.9602 10.36C21.0902 9.11 20.9302 8.28 20.4402 7.74C19.8502 7.08 18.6902 6.75 17.0002 6.75H7.00023Z" />
<path d="M16.0002 6.75C15.5902 6.75 15.2502 6.41 15.2502 6V5.2C15.2502 3.42 15.2502 2.75 12.8002 2.75H11.2002C8.75023 2.75 8.75023 3.42 8.75023 5.2V6C8.75023 6.41 8.41023 6.75 8.00023 6.75C7.59023 6.75 7.25023 6.41 7.25023 6V5.2C7.25023 3.44 7.25023 1.25 11.2002 1.25H12.8002C16.7502 1.25 16.7502 3.44 16.7502 5.2V6C16.7502 6.41 16.4102 6.75 16.0002 6.75Z" />
<path d="M16.0102 14.39C15.6702 14.39 15.3702 14.16 15.2802 13.82C15.1802 13.42 15.4202 13.01 15.8202 12.91C17.7702 12.42 19.5802 11.57 21.2002 10.39C21.5302 10.15 22.0002 10.22 22.2502 10.56C22.4902 10.89 22.4202 11.36 22.0802 11.61C20.3002 12.9 18.3202 13.83 16.1802 14.37C16.1302 14.38 16.0702 14.39 16.0102 14.39Z" />
<path d="M8.00023 14.42C7.94023 14.42 7.88023 14.41 7.82023 14.4C5.81023 13.91 3.92023 13.06 2.19023 11.88C1.85023 11.65 1.76023 11.18 1.99023 10.84C2.22023 10.5 2.69023 10.41 3.03023 10.64C4.61023 11.72 6.33023 12.49 8.17023 12.94C8.57023 13.04 8.82023 13.44 8.72023 13.85C8.65023 14.19 8.34023 14.42 8.00023 14.42Z" />
</svg>
