<?xml version="1.0" encoding="UTF-8"?>
<svg width="24" height="24" viewBox="0 0 24 24" xmlns="http://www.w3.org/2000/svg">
 <path d="m6.4498 8.5006c-0.06 0-0.11999-0.01002-0.17999-0.02002-0.19-0.05-0.36001-0.16997-0.46001-0.33997l-1.56-2.56c-0.38-0.62-0.50001-1.36-0.32001-2.08 0.17-0.71 0.61-1.32 1.24-1.7 0.62-0.38 1.36-0.50001 2.08-0.32001 0.72 0.17 1.32 0.60999 1.7 1.24l1.56 2.5601c0.22 0.35 0.1 0.80997-0.25 1.03l-3.42 2.08c-0.12 0.07-0.25 0.10999-0.39 0.10999zm0.14-5.6c-0.23 0-0.45 0.06-0.64 0.18-0.28 0.17-0.47999 0.44995-0.55999 0.76995-0.08001 0.33-0.03001 0.66001 0.13999 0.94001l1.17 1.92 2.14-1.3-1.17-1.92c-0.17-0.28-0.45-0.48-0.77-0.56-0.11-0.02-0.21-0.02997-0.31-0.02997z"/>
 <path d="m11.42 22.61c-0.3 0-0.6-0.04-0.89-0.13-0.87995-0.26-1.59-0.8599-2-1.7099l-2.05-4.18c-1.09-2.22-0.32-4.86 1.79-6.15l3.16-1.92c2.11-1.29 4.8201-0.76001 6.2901 1.23l2.77 3.7399c0.56 0.76 0.7699 1.67 0.5999 2.56s-0.7099 1.6601-1.5199 2.1501l-6.4301 3.9099c-0.54 0.33-1.13 0.5-1.72 0.5zm2.48-13.29c-0.58 0-1.16 0.15998-1.7 0.47998l-3.16 1.92c-1.45 0.88-1.97 2.69-1.23 4.21l2.05 4.18c0.22995 0.46 0.61005 0.79 1.08 0.93s0.9699 0.0601 1.3999-0.1999l6.4301-3.9101c0.44-0.27 0.73-0.6799 0.83-1.1599 0.09-0.48-0.02-0.97-0.33-1.38l-2.7701-3.74c-0.63-0.87002-1.6-1.33-2.6-1.33z"/>
 <path d="m7.6799 12.43c-0.06 0-0.11999-0.01-0.17999-0.02-0.19-0.05-0.36001-0.17-0.46001-0.34l-2.08-3.42c-0.22-0.35-0.1-0.81002 0.25-1.03l5.12-3.12c0.35-0.21 0.82-0.1 1.03 0.25l2.08 3.42c0.1 0.17 0.14 0.37001 0.09 0.57001-0.05 0.19-0.17 0.36002-0.34 0.46002l-5.12 3.12c-0.12 0.08-0.26002 0.11-0.39002 0.11zm-1.05-3.91 1.3 2.14 3.84-2.34-1.3-2.14-3.84 2.34z"/>
 <path d="m15.96 20.27c-0.25 0-0.5-0.1301-0.64-0.3601l-1.65-2.7099c-0.22-0.35-0.1-0.81 0.25-1.03 0.35-0.21 0.82-0.1 1.03 0.25l1.65 2.71c0.22 0.35 0.1 0.8099-0.25 1.0299-0.12 0.07-0.26 0.1101-0.39 0.1101z"/>
 <path d="m13.4 21.83c-0.25 0-0.5-0.1301-0.64-0.3601l-1.65-2.7099c-0.22-0.35-0.1-0.8101 0.25-1.0301 0.35-0.21 0.82-0.1 1.03 0.25l1.65 2.71c0.22 0.35 0.1 0.81-0.25 1.03-0.12 0.07-0.26 0.1101-0.39 0.1101z"/>
 <path d="m18.52 18.71c-0.25 0-0.5-0.13-0.64-0.36l-1.65-2.71c-0.22-0.35-0.1-0.81 0.25-1.03 0.35-0.21 0.82-0.1 1.03 0.25l1.65 2.71c0.22 0.35 0.1 0.81-0.25 1.03-0.12 0.07-0.25 0.11-0.39 0.11z"/>
</svg>
