<?xml version="1.0" encoding="UTF-8"?>
<svg width="24" height="24" viewBox="0 0 24 24" xmlns="http://www.w3.org/2000/svg">
 <path d="m10.43 18.37c-0.15 0-0.29-0.04-0.42-0.13-0.20999-0.14-0.32999-0.37-0.32999-0.62 0-0.15-0.01-0.31-0.03-0.47-0.09-0.71-0.41-1.33-0.95-1.87s-1.21-0.88-1.93-0.97c-0.12-0.01-0.29-0.02-0.45-0.01-0.26 0.02-0.5-0.09-0.65-0.3-0.15-0.2-0.19-0.47-0.11-0.71 0.15-0.41 0.37-0.78 0.63-1.08l1.54-1.94c2.65-3.31 8.02-7.29 11.95-8.87 0.83-0.32 1.72-0.13 2.33 0.47 0.63 0.63 0.82 1.53 0.49 2.35-1.58 3.94-5.55 9.3-8.86 11.95l-1.97 1.58c-0.37 0.27-0.67 0.44-0.97 0.56-0.08 0.04-0.18 0.06-0.27 0.06zm-2.89-5.43c0.84 0.22 1.59 0.66 2.22 1.29 0.62999 0.62 1.05 1.34 1.26 2.14l1.69-1.36c3.14-2.51 6.91-7.6 8.4-11.34 0.15-0.37-0.06-0.63-0.16-0.72-0.07-0.07-0.33-0.29-0.73-0.14-3.72 1.5-8.81 5.27-11.33 8.41l-1.35 1.72z"/>
 <path d="m4.0799 22.75c-0.75 0-1.47-0.3-2.01-0.84-0.62-0.62-0.92-1.48-0.82-2.36l0.27-2.46c0.26-2.44 2.26-4.25 4.74-4.3 0.19-0.01 0.44 0 0.67 0.02 1.09 0.14 2.06 0.63 2.84 1.41 0.77003 0.77 1.23 1.69 1.37 2.72 0.03 0.22 0.05 0.46 0.05 0.67 0 1.32-0.51 2.55-1.43 3.48-0.77 0.76-1.76 1.23-2.88 1.37l-2.47 0.27c-0.11 0.01-0.22 0.02-0.33 0.02zm2.37-8.45h-0.13c-1.51 0.03-3.11 1.06-3.31 2.96l-0.27 2.46c-0.05 0.42 0.1 0.83 0.39 1.13 0.29 0.29 0.7 0.44 1.11 0.39l2.46-0.27c0.77-0.1 1.46-0.42 1.98-0.94 0.64-0.64 1-1.5 1-2.42 0-0.15-0.01-0.31-0.03-0.47-0.09-0.71-0.41-1.33-0.95-1.87s-1.21-0.88-1.93-0.97h-0.32z"/>
 <path d="m14.24 15.22c-0.41 0-0.75-0.34-0.75-0.75 0-2.2-1.79-3.98-3.98-3.98-0.41 0-0.75-0.34-0.75-0.74997 0-0.41 0.33-0.75 0.74-0.75 3.02 0 5.48 2.46 5.48 5.48 0.01 0.42-0.33 0.75-0.74 0.75z"/>
</svg>
