<?xml version="1.0" encoding="UTF-8"?>
<svg width="24" height="24" viewBox="0 0 24 24" xmlns="http://www.w3.org/2000/svg">
 <path d="m10 16.75c-0.41 0-0.75-0.34-0.75-0.75 0-1.67 0-3.75 3.75-3.75h4c2.25 0 2.25-0.3 2.25-2.25v-2c0-1.95 0-2.25-2.25-2.25h-1c-0.41 0-0.75-0.34-0.75-0.75s0.34-0.75 0.75-0.75h1c3.5 0 3.75 1.42 3.75 3.75v2c0 2.33-0.25 3.75-3.75 3.75h-4c-2.25 0-2.25 0.61-2.25 2.25 0 0.41-0.34 0.75-0.75 0.75z"/>
 <path d="m12 8.75h-4c-0.32 0-0.61-0.21-0.71-0.51-0.69-2.09-0.69-4.39 0-6.47 0.1-0.31 0.39-0.52 0.71-0.52h4c0.32 0 0.61 0.21 0.71 0.51 0.7 2.09 0.7 4.39 0 6.47-0.1 0.31-0.38 0.52-0.71 0.52zm-3.44-1.5h2.89c0.39-1.47 0.39-3.03 0-4.5h-2.89c-0.39 1.47-0.39 3.03 0 4.5z"/>
 <path d="m8 8.75h-1c-2.42 0-3.75-1.33-3.75-3.75s1.33-3.75 3.75-3.75h1c0.26 0 0.5 0.13 0.64 0.36 0.14 0.22 0.15 0.5 0.03 0.73-0.9 1.79-0.9 3.54 0 5.33 0.12 0.23 0.1 0.51-0.03 0.73-0.14 0.22-0.38 0.35-0.64 0.35zm-1.12-6c-1.49 0.04-2.13 0.71-2.13 2.25 0 1.53 0.64 2.21 2.12 2.25-0.5-1.5-0.5-3 0.01-4.5z"/>
 <path d="m13 8.75h-1c-0.26 0-0.5-0.13-0.64-0.36-0.14-0.22-0.15-0.5-0.03-0.73 0.89-1.79 0.89-3.54 0-5.33-0.12-0.23-0.1-0.51 0.03-0.73 0.14-0.22 0.38-0.35 0.64-0.35h1c2.42 0 3.75 1.33 3.75 3.75s-1.33 3.75-3.75 3.75zm0.12-6c0.5 1.5 0.5 3 0 4.5 1.49-0.04 2.12-0.71 2.12-2.25 0.01-1.54-0.63-2.21-2.12-2.25z"/>
 <path d="m10.5 22.75h-1c-1.03 0-2.25-0.39-2.25-2.25v-3c0-1.86 1.22-2.25 2.25-2.25h1c1.03 0 2.25 0.39 2.25 2.25v3c0 1.86-1.22 2.25-2.25 2.25zm-1-6c-0.75 0-0.75 0.22-0.75 0.75v3c0 0.53 0 0.75 0.75 0.75h1c0.75 0 0.75-0.22 0.75-0.75v-3c0-0.53 0-0.75-0.75-0.75h-1z"/>
</svg>
