<?xml version="1.0" encoding="UTF-8"?>
<svg width="24" height="24" viewBox="0 0 24 24" xmlns="http://www.w3.org/2000/svg">
 <path d="m12 22.75c-1.79 0-3.25-1.46-3.25-3.25v-0.75h-4.25c-0.74 0-1.43-0.29-1.95-0.82-0.51-0.5-0.8-1.19-0.8-1.93 0-1.4 1.09-2.6 2.49-2.74 0.05-0.01 0.15-0.01 0.26-0.01h15c0.11 0 0.21 0 0.31 0.02 0.59 0.05 1.18 0.33 1.64 0.8 0.57 0.55 0.86 1.35 0.79 2.17-0.12 1.41-1.37 2.51-2.85 2.51h-4.14v0.75c0 1.79-1.46 3.25-3.25 3.25zm-7.5-8c-0.02 0-0.1 0-0.12 0.01-0.63 0.06-1.13 0.61-1.13 1.24 0 0.33 0.13 0.64 0.36 0.87 0.24 0.25 0.55 0.38 0.89 0.38h5c0.41 0 0.75 0.34 0.75 0.75v1.5c0 0.96 0.79 1.75 1.75 1.75s1.75-0.79 1.75-1.75v-1.5c0-0.41 0.34-0.75 0.75-0.75h4.89c0.69 0 1.3-0.51 1.36-1.14 0.03-0.38-0.1-0.73-0.36-0.99-0.22-0.22-0.48-0.35-0.76-0.37l-0.13-0.01h-15v0.01z"/>
 <path d="m19.69 14.76c-0.04 0-0.08 0-0.12-0.01h-15.07c-0.21 0.04-0.46-0.02-0.62-0.16-0.17-0.13-0.3-0.33-0.31-0.54l-0.49-8.71c-0.1-1.02 0.24-2.07 0.95-2.86 0.71-0.78 1.72-1.23 2.78-1.23h10.38c1.06 0 2.07 0.45 2.78 1.24 0.7 0.78 1.05 1.83 0.95 2.87l-0.48 8.69c-0.01 0.21-0.11 0.41-0.28 0.54-0.13 0.11-0.3 0.17-0.47 0.17zm-14.67-1.51h13.96l0.44-7.99v-0.04c0.06-0.64-0.14-1.26-0.57-1.73s-1.03-0.74-1.67-0.74h-10.37c-0.63 0-1.24 0.27-1.67 0.74-0.43 0.48-0.63 1.09-0.56 1.73l0.44 8.03z"/>
 <path d="m7.9902 7.75c-0.41 0-0.75-0.34-0.75-0.75v-5c0-0.41 0.34-0.75 0.75-0.75s0.75 0.34 0.75 0.75v5c0 0.41-0.34 0.75-0.75 0.75z"/>
 <path d="m12 4.75c-0.41 0-0.75-0.34-0.75-0.75v-2c0-0.41 0.34-0.75 0.75-0.75s0.75 0.34 0.75 0.75v2c0 0.41-0.34 0.75-0.75 0.75z"/>
</svg>
