<?xml version="1.0" encoding="UTF-8"?>
<svg width="24" height="24" viewBox="0 0 24 24" xmlns="http://www.w3.org/2000/svg">
 <path d="m20 9.07h-16c-0.41 0-0.75-0.34-0.75-0.75v-4.32c0-1.52 1.23-2.75 2.75-2.75h12c1.52 0 2.75 1.23 2.75 2.75v4.32c0 0.41-0.34 0.75-0.75 0.75zm-15.25-1.5h14.5v-3.57c0-0.69-0.56-1.25-1.25-1.25h-12c-0.69 0-1.25 0.56-1.25 1.25v3.57z"/>
 <path d="m12.5 22.75h-1c-1.52 0-2.75-1.23-2.75-2.75v-2.1c0-0.45-0.24001-0.87-0.64001-1.09l-2.96-1.67c-1.18-0.66-1.91-1.91-1.91-3.27v-3.56c0-0.41 0.34-0.75 0.75-0.75h16c0.41 0 0.75 0.34 0.75 0.75v3.56c0 1.35-0.7299 2.6-1.9099 3.27l-2.9601 1.67c-0.39 0.22-0.64 0.64-0.64 1.09v2.1c0.02 1.52-1.21 2.75-2.73 2.75zm-7.75-13.68v2.81c0 0.81 0.44002 1.56 1.14 1.96l2.96 1.67c0.86 0.49 1.4 1.4 1.4 2.39v2.1c0 0.69 0.56 1.25 1.25 1.25h1c0.69 0 1.25-0.56 1.25-1.25v-2.1c0-0.99 0.5401-1.91 1.4001-2.39l2.9599-1.67c0.71-0.4 1.14-1.15 1.14-1.96v-2.81h-14.5z"/>
</svg>
