<?xml version="1.0" encoding="UTF-8"?>
<svg width="24" height="24" viewBox="0 0 24 24" xmlns="http://www.w3.org/2000/svg">
 <path d="m14.97 22.75h-6c-5.43 0-7.75-2.32-7.75-7.75v-6c0-5.43 2.32-7.75 7.75-7.75h2c0.41 0 0.75 0.34 0.75 0.75s-0.34 0.75-0.75 0.75h-2c-4.61 0-6.25 1.64-6.25 6.25v6c0 4.61 1.64 6.25 6.25 6.25h6c4.61 0 6.25-1.64 6.25-6.25v-2c0-0.41 0.34-0.75 0.75-0.75s0.75 0.34 0.75 0.75v2c0 5.43-2.31 7.75-7.75 7.75z"/>
 <path d="m12.78 15.24c-0.15 0-0.29-0.04-0.42-0.13-0.21-0.14-0.33-0.37-0.33-0.62 0-0.11-0.01-0.23-0.03-0.35-0.07-0.53-0.31-1-0.71-1.41-0.41-0.41-0.91-0.67-1.46-0.74-0.08-0.01-0.21-0.02-0.33-0.01-0.25 0.02-0.5-0.09-0.65-0.29s-0.19-0.47-0.11-0.71c0.12-0.34 0.31-0.66 0.53-0.91l1.23-1.54c2.14-2.67 6.45-5.87 9.63-7.14 0.73-0.28 1.5-0.12 2.03 0.41 0.55 0.55 0.71 1.33 0.42 2.04-1.27 3.17-4.47 7.49-7.13 9.62l-1.57 1.26c-0.31 0.22-0.56 0.37-0.82 0.47-0.09 0.03-0.19 0.05-0.28 0.05zm-2.06-4.57c0.61 0.2 1.16 0.54 1.63 1 0.46 0.46 0.79 0.99 0.98 1.56l1.18-0.95c2.49-2 5.49-6.04 6.68-9.01 0.08-0.19-0.01-0.33-0.09-0.42-0.05-0.05-0.19-0.16-0.42-0.07-2.96 1.19-7 4.19-9 6.68l-0.96 1.21z"/>
 <path d="m7.7 18.75c-0.64 0-1.25-0.25-1.71-0.71-0.53-0.53-0.79-1.26-0.7-2.01l0.21-1.96c0.22-2.03 1.87-3.53 3.94-3.57 0.16-0.01 0.36 0 0.55 0.01 0.91001 0.12 1.72 0.52 2.36 1.17 0.64 0.64 1.03 1.4 1.14 2.26 0.03 0.19 0.04 0.38 0.04 0.56 0 1.09-0.42 2.12-1.19 2.89-0.63 0.63-1.45 1.02-2.38 1.14l-1.98 0.21c-0.1 0.01-0.19 0.01-0.28 0.01zm1.9-6.76h-0.1c-1.15 0.03-2.36 0.8-2.51 2.24l-0.21 1.97c-0.03 0.29 0.07 0.58 0.27 0.78s0.48 0.3 0.76 0.27l1.97-0.21c0.58001-0.07 1.1-0.32 1.49-0.71 0.48-0.49 0.75-1.13 0.75-1.83 0-0.11-0.01-0.23-0.03-0.35-0.07-0.53-0.31-1-0.71-1.41-0.41-0.41-0.91-0.67-1.46-0.74-0.05-0.01-0.13-0.01-0.22-0.01z"/>
 <path d="m15.82 12.73c-0.41 0-0.75-0.34-0.75-0.75 0-1.67-1.36-3.04-3.04-3.04-0.41 0-0.75-0.34-0.75-0.75s0.34-0.75 0.75-0.75c2.5 0 4.54 2.03 4.54 4.54 0 0.41-0.33 0.75-0.75 0.75z"/>
</svg>
