<svg width="24" height="24" viewBox="0 0 24 24"  xmlns="http://www.w3.org/2000/svg">
<path d="M10.4299 18.3699C10.2799 18.3699 10.1399 18.3299 10.0099 18.2399C9.79987 18.0999 9.67987 17.8699 9.67987 17.6199C9.67987 17.4699 9.66987 17.3099 9.64987 17.1499C9.55987 16.4399 9.23987 15.8199 8.69987 15.2799C8.15987 14.7399 7.48987 14.3999 6.76987 14.3099C6.64987 14.2999 6.47987 14.2899 6.31987 14.2999C6.05987 14.3199 5.81987 14.2099 5.66987 13.9999C5.51987 13.7999 5.47987 13.5299 5.55987 13.2899C5.70987 12.8799 5.92987 12.5099 6.18987 12.2099L7.72987 10.2699C10.3799 6.95992 15.7499 2.97992 19.6799 1.39992C20.5099 1.07992 21.3999 1.26992 22.0099 1.86992C22.6399 2.49992 22.8299 3.39992 22.4999 4.21992C20.9199 8.15992 16.9499 13.5199 13.6399 16.1699L11.6699 17.7499C11.2999 18.0199 10.9999 18.1899 10.6999 18.3099C10.6199 18.3499 10.5199 18.3699 10.4299 18.3699ZM7.53987 12.9399C8.37987 13.1599 9.12987 13.5999 9.75987 14.2299C10.3899 14.8499 10.8099 15.5699 11.0199 16.3699L12.7099 15.0099C15.8499 12.4999 19.6199 7.40992 21.1099 3.66992C21.2599 3.29992 21.0499 3.03992 20.9499 2.94992C20.8799 2.87992 20.6199 2.65992 20.2199 2.80992C16.4999 4.30992 11.4099 8.07992 8.88987 11.2199L7.53987 12.9399Z" />
<path d="M4.07987 22.7499C3.32987 22.7499 2.60987 22.4499 2.06987 21.9099C1.44987 21.2899 1.14987 20.4299 1.24987 19.5499L1.51987 17.0899C1.77987 14.6499 3.77987 12.8399 6.25987 12.7899C6.44987 12.7799 6.69987 12.7899 6.92987 12.8099C8.01987 12.9499 8.98987 13.4399 9.76987 14.2199C10.5399 14.9899 10.9999 15.9099 11.1399 16.9399C11.1699 17.1599 11.1899 17.3999 11.1899 17.6099C11.1899 18.9299 10.6799 20.1599 9.75987 21.0899C8.98987 21.8499 7.99987 22.3199 6.87987 22.4599L4.40987 22.7299C4.29987 22.7399 4.18987 22.7499 4.07987 22.7499ZM6.44987 14.2999C6.40987 14.2999 6.35987 14.2999 6.31987 14.2999C4.80987 14.3299 3.20987 15.3599 3.00987 17.2599L2.73987 19.7199C2.68987 20.1399 2.83987 20.5499 3.12987 20.8499C3.41987 21.1399 3.82987 21.2899 4.23987 21.2399L6.69987 20.9699C7.46987 20.8699 8.15987 20.5499 8.67987 20.0299C9.31987 19.3899 9.67987 18.5299 9.67987 17.6099C9.67987 17.4599 9.66987 17.2999 9.64987 17.1399C9.55987 16.4299 9.23987 15.8099 8.69987 15.2699C8.15987 14.7299 7.48987 14.3899 6.76987 14.2999C6.68987 14.2999 6.56987 14.2999 6.44987 14.2999Z" />
<path d="M14.2399 15.2199C13.8299 15.2199 13.4899 14.8799 13.4899 14.4699C13.4899 12.2699 11.6999 10.4899 9.50987 10.4899C9.09987 10.4899 8.75987 10.1499 8.75987 9.73992C8.75987 9.32992 9.08987 8.98992 9.49987 8.98992C12.5199 8.98992 14.9799 11.4499 14.9799 14.4699C14.9899 14.8899 14.6499 15.2199 14.2399 15.2199Z" />
</svg>
