<?xml version="1.0" encoding="UTF-8"?>
<svg width="24" height="24" viewBox="0 0 24 24" xmlns="http://www.w3.org/2000/svg">
 <path d="m15.59 13.01c-3.24 0-5.88-2.64-5.88-5.88s2.64-5.88 5.88-5.88 5.88 2.64 5.88 5.88-2.64 5.88-5.88 5.88zm0-10.26c-2.41 0-4.38 1.96-4.38 4.38s1.96 4.38 4.38 4.38 4.38-1.96 4.38-4.38-1.97-4.38-4.38-4.38z"/>
 <path d="m6.3603 20.19c-2.11 0-3.83-1.72-3.83-3.83s1.72-3.83 3.83-3.83 3.83 1.72 3.83 3.83-1.72 3.83-3.83 3.83zm0-6.16c-1.28 0-2.33 1.04-2.33 2.33 0 1.28 1.04 2.33 2.33 2.33 1.28 0 2.33-1.04 2.33-2.33 0-1.28-1.05-2.33-2.33-2.33z"/>
 <path d="m16.62 22.75c-1.83 0-3.31-1.49-3.31-3.31 0-1.83 1.49-3.31 3.31-3.31s3.31 1.49 3.31 3.31-1.49 3.31-3.31 3.31zm0-5.13c-1 0-1.81 0.81-1.81 1.81s0.81 1.81 1.81 1.81 1.81-0.81 1.81-1.81c0-0.99-0.81-1.81-1.81-1.81z"/>
</svg>
