<?xml version="1.0" encoding="UTF-8"?>
<svg width="24" height="24" viewBox="0 0 24 24" xmlns="http://www.w3.org/2000/svg">
 <path d="m10.61 17.31c-0.59 0-1.18-0.2701-1.73-0.8201l-2.39-2.39c-1.1-1.1-1.1-2.3599 0-3.4499l3.9901-3.9901c0.14-0.14 0.33-0.21997 0.53-0.21997s0.39 0.07997 0.53 0.21997l4.3899 4.39c0.25 0.25 0.38 0.58 0.38 0.93s-0.1399 0.6801-0.3899 0.9301l-3.5901 3.5899c-0.54 0.53-1.13 0.8101-1.72 0.8101zm0.4001-9.0701-3.4601 3.4601c-0.17 0.17-0.37998 0.4299-0.37998 0.6699s0.20998 0.4901 0.37998 0.6701l2.39 2.39c0.17005 0.17 0.42995 0.38 0.66995 0.38s0.49-0.21 0.67-0.38l3.46-3.4601-3.7299-3.73z"/>
 <path d="m11.01 7.9298c-0.19 0-0.38-0.06997-0.53-0.21997l-0.8-0.80005c-0.29-0.29-0.29-0.77 0-1.06s0.77-0.29 1.06 0l0.8 0.80005c0.29 0.29 0.29 0.77 0 1.06-0.15 0.15-0.34 0.21997-0.53 0.21997z"/>
 <path d="m6.4599 13.08c-0.4 0-0.73-0.3099-0.75-0.7199s0.3-0.76 0.72-0.78l9.03-0.39c0.41-0.03 0.76 0.3 0.78 0.72s-0.3 0.7599-0.72 0.7799l-9.03 0.39h-0.03z"/>
 <path d="m16.47 17.95c-1.02 0-1.85-0.83-1.85-1.85 0-0.95 1-2.11 1.3-2.44 0.28-0.31 0.82-0.31 1.1 0 0.3 0.33 1.3 1.49 1.3 2.44 0.01 1.02-0.82 1.85-1.85 1.85zm0-2.57c-0.21 0.31-0.35 0.59-0.35 0.72 0 0.19 0.16 0.35 0.35 0.35s0.35-0.16 0.35-0.35c0.01-0.13-0.14-0.41-0.35-0.72z"/>
 <path d="m12 22.75c-5.93 0-10.75-4.82-10.75-10.75s4.82-10.75 10.75-10.75 10.75 4.82 10.75 10.75-4.82 10.75-10.75 10.75zm0-20c-5.1 0-9.25 4.15-9.25 9.25s4.15 9.25 9.25 9.25 9.25-4.15 9.25-9.25-4.15-9.25-9.25-9.25z"/>
</svg>
