<?xml version="1.0" encoding="UTF-8"?>
<svg width="24" height="24" viewBox="0 0 24 24" xmlns="http://www.w3.org/2000/svg">
 <path d="m9.02 19.75c-0.86 0-1.72-0.4099-2.54-1.2299l-4.01-4.01c-0.81-0.81-1.22-1.6601-1.22-2.5401 0-0.87 0.41-1.73 1.22-2.54l6.68-6.68c0.14-0.14 0.33-0.21997 0.53-0.21997s0.39 0.07997 0.53 0.21997l7.35 7.35c0.32 0.32 0.5 0.74 0.5 1.2 0 0.45-0.18 0.88-0.5 1.2l-6.02 6.0201c-0.8 0.82-1.66 1.2299-2.52 1.2299zm0.67-15.4-6.15 6.15c-0.52 0.52-0.78 1.02-0.78 1.48s0.26 0.96 0.78 1.47l4.01 4.01c1.05 1.05 1.9 1.05 2.95 0l6.02-6.02c0.06-0.06 0.07-0.21 0-0.28l-6.83-6.81z"/>
 <path d="m9.69 4.0396c-0.19 0-0.38-0.06997-0.53-0.21997l-1.34-1.34c-0.29-0.29-0.29-0.77 0-1.06s0.77-0.29 1.06 0l1.34 1.34c0.29 0.29 0.29 0.76999 0 1.06-0.15 0.15-0.33996 0.21997-0.52996 0.21997z"/>
 <path d="m2.0702 12.67c-0.4 0-0.73-0.31-0.75-0.72s0.30001-0.76 0.72001-0.78l15.13-0.66c0.41-0.02 0.76 0.2999 0.78 0.7199 0.02 0.41-0.3 0.7601-0.72 0.7801l-15.13 0.66h-0.03z"/>
 <path d="m16 22.75h-13c-0.41 0-0.75-0.34-0.75-0.75s0.34-0.75 0.75-0.75h13c0.41 0 0.75 0.34 0.75 0.75s-0.34 0.75-0.75 0.75z"/>
 <path d="m18.85 20.83c-1.43 0-2.6-1.1699-2.6-2.5999 0-1.45 1.71-3.37 2.05-3.75 0.28-0.31 0.82-0.31 1.1 0 0.34 0.37 2.05 2.2899 2.05 3.7399s-1.17 2.61-2.6 2.61zm0-4.6599c-0.55 0.72-1.1 1.6-1.1 2.07 0 0.61 0.49 1.0999 1.1 1.0999s1.1-0.4899 1.1-1.0999c0-0.48-0.55-1.36-1.1-2.07z"/>
</svg>
