<?xml version="1.0" encoding="UTF-8"?>
<svg width="24" height="24" viewBox="0 0 24 24" xmlns="http://www.w3.org/2000/svg">
 <path d="m10.35 18.39c-0.67996 0-1.33-0.31-1.95-0.93l-2.83-2.83c-1.24-1.24-1.24-2.66 0-3.89l4.72-4.72c0.29-0.29 0.77-0.29 1.06 0l5.19 5.19c0.27 0.27 0.41 0.62 0.41 1s-0.15 0.74-0.41 1l-4.25 4.25c-0.6 0.62-1.26 0.93-1.94 0.93zm0.48-10.79-4.19 4.19c-0.32 0.32-0.49002 0.6201-0.49002 0.8901 0 0.26 0.16002 0.5599 0.49002 0.8899l2.83 2.83c0.64997 0.65 1.12 0.65 1.77 0l4.19-4.19-4.6-4.61z"/>
 <path d="m10.83 7.29c-0.19 0-0.38-0.06997-0.53-0.21997l-0.94002-0.94c-0.29-0.29-0.29-0.77 0-1.06s0.77002-0.29 1.06 0l0.94 0.94c0.29 0.29 0.29 0.77 0 1.06-0.15 0.15-0.34 0.21997-0.53 0.21997z"/>
 <path d="m5.4398 13.39c-0.4 0-0.73-0.3099-0.75-0.7199s0.3-0.7601 0.72-0.7801l10.68-0.47c0.41-0.04 0.76 0.3 0.78 0.72 0.02 0.41-0.3 0.7601-0.72 0.7801l-10.68 0.4699h-0.03z"/>
 <path d="m17.3 19.15c-1.13 0-2.06-0.9201-2.06-2.0601 0-1.08 1.15-2.4099 1.5-2.7899 0.28-0.31 0.82-0.31 1.1 0 0.35 0.38 1.5 1.7199 1.5 2.7899 0.01 1.14-0.91 2.0601-2.04 2.0601zm0-3.1501c-0.31 0.44-0.56 0.88-0.56 1.09 0 0.3 0.25 0.5601 0.56 0.5601s0.56-0.2501 0.56-0.5601c-0.01-0.21-0.25-0.65-0.56-1.09z"/>
 <path d="m15 22.75h-6c-5.43 0-7.75-2.32-7.75-7.75v-6c0-5.43 2.32-7.75 7.75-7.75h6c5.43 0 7.75 2.32 7.75 7.75v6c0 5.43-2.32 7.75-7.75 7.75zm-6-20c-4.61 0-6.25 1.64-6.25 6.25v6c0 4.61 1.64 6.25 6.25 6.25h6c4.61 0 6.25-1.64 6.25-6.25v-6c0-4.61-1.64-6.25-6.25-6.25h-6z"/>
</svg>
