<?xml version="1.0" encoding="UTF-8"?>
<svg width="24" height="24" viewBox="0 0 24 24" xmlns="http://www.w3.org/2000/svg">
 <path d="m22 22.75h-20c-0.41 0-0.75-0.34-0.75-0.75s0.34-0.75 0.75-0.75h20c0.41 0 0.75 0.34 0.75 0.75s-0.34 0.75-0.75 0.75z"/>
 <path d="m3.01 22.76c-0.2 0-0.39003-0.08-0.53003-0.22s-0.21997-0.33-0.21997-0.53l-0.01001-14.94c0-0.91 0.45997-1.77 1.22-2.28l4-2.67c0.93-0.62 2.13-0.62 3.05 0l4 2.67c0.77 0.51 1.22 1.36 1.22 2.28l0.01 14.92c0 0.41-0.33 0.75-0.75 0.75l-11.99 0.02zm5.99-19.61c-0.24 0-0.48 0.06996-0.69 0.20996l-4 2.67c-0.35 0.23-0.56 0.61998-0.56 1.04l0.01001 14.19 10.5-0.02-0.01-14.17c0-0.42-0.21-0.81003-0.55-1.03l-4-2.67c-0.21-0.15-0.46001-0.21997-0.70001-0.21997z"/>
 <path d="m19.98 22.76c-0.41 0-0.75-0.34-0.75-0.75v-4.01c0-0.41 0.34-0.75 0.75-0.75s0.75 0.34 0.75 0.75v4.01c0 0.41-0.33 0.75-0.75 0.75z"/>
 <path d="m20 18.75c-1.52 0-2.75-1.23-2.75-2.75v-2c0-1.52 1.23-2.75 2.75-2.75s2.75 1.23 2.75 2.75v2c0 1.52-1.23 2.75-2.75 2.75zm0-6c-0.69 0-1.25 0.56-1.25 1.25v2c0 0.69 0.56 1.25 1.25 1.25s1.25-0.56 1.25-1.25v-2c0-0.69-0.56-1.25-1.25-1.25z"/>
 <path d="m15 14.75h-12c-0.41 0-0.75-0.34-0.75-0.75s0.34-0.75 0.75-0.75h12c0.41 0 0.75 0.34 0.75 0.75s-0.34 0.75-0.75 0.75z"/>
 <path d="m9 22.75c-0.41 0-0.75-0.34-0.75-0.75v-3.75c0-0.41 0.34-0.75 0.75-0.75s0.75 0.34 0.75 0.75v3.75c0 0.41-0.34 0.75-0.75 0.75z"/>
 <path d="m9 11.25c-1.24 0-2.25-1.01-2.25-2.25s1.01-2.25 2.25-2.25 2.25 1.01 2.25 2.25-1.01 2.25-2.25 2.25zm0-3c-0.41 0-0.75 0.34-0.75 0.75s0.34 0.75 0.75 0.75 0.75-0.34 0.75-0.75-0.34-0.75-0.75-0.75z"/>
</svg>
