<svg width="24" height="24" viewBox="0 0 24 24"  xmlns="http://www.w3.org/2000/svg">
<path d="M23 22.7498H1C0.59 22.7498 0.25 22.4098 0.25 21.9998C0.25 21.5898 0.59 21.2498 1 21.2498H23C23.41 21.2498 23.75 21.5898 23.75 21.9998C23.75 22.4098 23.41 22.7498 23 22.7498Z" />
<path d="M19.7803 22.7598C19.3703 22.7598 19.0303 22.4198 19.0303 22.0098V17.5498C19.0303 17.1398 19.3703 16.7998 19.7803 16.7998C20.1903 16.7998 20.5303 17.1398 20.5303 17.5498V22.0098C20.5303 22.4198 20.2003 22.7598 19.7803 22.7598Z" />
<path d="M19.8001 18.2997C18.1701 18.2997 16.8501 16.9797 16.8501 15.3497V13.0798C16.8501 11.4498 18.1701 10.1298 19.8001 10.1298C21.4301 10.1298 22.7501 11.4498 22.7501 13.0798V15.3497C22.7501 16.9797 21.4301 18.2997 19.8001 18.2997ZM19.8001 11.6398C19.0001 11.6398 18.3501 12.2898 18.3501 13.0898V15.3597C18.3501 16.1597 19.0001 16.8098 19.8001 16.8098C20.6001 16.8098 21.2501 16.1597 21.2501 15.3597V13.0898C21.2501 12.2898 20.6001 11.6398 19.8001 11.6398Z" />
<path d="M14.2998 22.7498C13.8898 22.7498 13.5498 22.4098 13.5498 21.9998V6.02979C13.5498 4.43979 12.8798 3.75977 11.3198 3.75977H5.08984C3.51984 3.75977 2.83984 4.43979 2.83984 6.02979V21.9998C2.83984 22.4098 2.49984 22.7498 2.08984 22.7498C1.67984 22.7498 1.33984 22.4098 1.33984 21.9998V6.02979C1.33984 3.59979 2.66984 2.25977 5.08984 2.25977H11.3198C13.7298 2.25977 15.0498 3.59979 15.0498 6.02979V21.9998C15.0498 22.4098 14.7098 22.7498 14.2998 22.7498Z" />
<path d="M10.7498 8.99976H5.7998C5.3898 8.99976 5.0498 8.65976 5.0498 8.24976C5.0498 7.83976 5.3898 7.49976 5.7998 7.49976H10.7498C11.1598 7.49976 11.4998 7.83976 11.4998 8.24976C11.4998 8.65976 11.1598 8.99976 10.7498 8.99976Z" />
<path d="M10.7498 12.7498H5.7998C5.3898 12.7498 5.0498 12.4098 5.0498 11.9998C5.0498 11.5898 5.3898 11.2498 5.7998 11.2498H10.7498C11.1598 11.2498 11.4998 11.5898 11.4998 11.9998C11.4998 12.4098 11.1598 12.7498 10.7498 12.7498Z" />
<path d="M8.25 22.7498C7.84 22.7498 7.5 22.4098 7.5 21.9998V18.2498C7.5 17.8398 7.84 17.4998 8.25 17.4998C8.66 17.4998 9 17.8398 9 18.2498V21.9998C9 22.4098 8.66 22.7498 8.25 22.7498Z" />
</svg>
