<?xml version="1.0" encoding="UTF-8"?>
<svg width="24" height="24" viewBox="0 0 24 24" xmlns="http://www.w3.org/2000/svg">
 <path d="m6.7 18.75h-2.55c-1.84 0-2.9-1.06-2.9-2.9v-11.7c0-1.84 1.06-2.9 2.9-2.9h4.3c1.84 0 2.9 1.06 2.9 2.9v1.85c0 0.41-0.34 0.75-0.75 0.75s-0.75002-0.34-0.75002-0.75v-1.85c0-1.02-0.37997-1.4-1.4-1.4h-4.3c-1.02 0-1.4 0.38002-1.4 1.4v11.7c0 1.02 0.38002 1.4 1.4 1.4h2.55c0.41 0 0.75 0.34 0.75 0.75s-0.34 0.75-0.75 0.75z"/>
 <path d="m14.96 22.75h-5.84c-2.01 0-3.17-1.16-3.17-3.17v-11.16c0-2.01 1.16-3.17 3.17-3.17h5.84c2.01 0 3.16 1.16 3.16 3.17v11.16c0 2.01-1.15 3.17-3.16 3.17zm-5.84-16c-1.2 0-1.67 0.46998-1.67 1.67v11.16c0 1.2 0.46998 1.67 1.67 1.67h5.84c1.19 0 1.66-0.47 1.66-1.67v-11.16c0-1.2-0.47-1.67-1.66-1.67h-5.84z"/>
 <path d="m19.85 18.75h-2.48c-0.41 0-0.75-0.34-0.75-0.75s0.34-0.75 0.75-0.75h2.48c1.02 0 1.4-0.38 1.4-1.4v-11.7c0-1.02-0.38-1.4-1.4-1.4h-4.3c-1.02 0-1.4 0.38002-1.4 1.4v1.85c0 0.41-0.34 0.75-0.75 0.75s-0.75-0.34-0.75-0.75v-1.85c0-1.84 1.06-2.9 2.9-2.9h4.3c1.84 0 2.9 1.06 2.9 2.9v11.7c0 1.84-1.06 2.9-2.9 2.9z"/>
 <path d="m14 11.75h-4c-0.41 0-0.75-0.34-0.75-0.75s0.34-0.75 0.75-0.75h4c0.41 0 0.75 0.34 0.75 0.75s-0.34 0.75-0.75 0.75z"/>
 <path d="m14 14.75h-4c-0.41 0-0.75-0.34-0.75-0.75s0.34-0.75 0.75-0.75h4c0.41 0 0.75 0.34 0.75 0.75s-0.34 0.75-0.75 0.75z"/>
 <path d="m12 22.75c-0.41 0-0.75-0.34-0.75-0.75v-3c0-0.41 0.34-0.75 0.75-0.75s0.75 0.34 0.75 0.75v3c0 0.41-0.34 0.75-0.75 0.75z"/>
</svg>
