<svg width="24" height="24" viewBox="0 0 24 24"  xmlns="http://www.w3.org/2000/svg">
<path d="M12.5002 22.7497H4.08021C2.51021 22.7497 1.22021 21.4897 1.22021 19.9297V5.0897C1.22021 3.5597 1.79021 2.3697 2.83021 1.7197C3.88021 1.0597 5.24022 1.0797 6.65022 1.7797L11.0902 3.9597C12.3002 4.5597 13.2502 6.0697 13.2502 7.4097V21.9997C13.2502 22.4097 12.9102 22.7497 12.5002 22.7497ZM4.56021 2.7497C4.21021 2.7497 3.89021 2.8297 3.62021 2.9997C3.04021 3.3597 2.72021 4.1097 2.72021 5.0897V19.9297C2.72021 20.6597 3.33021 21.2497 4.08021 21.2497H11.7502V7.4097C11.7502 6.6397 11.1302 5.6497 10.4202 5.3097L5.98022 3.1297C5.47021 2.8797 4.99021 2.7497 4.56021 2.7497Z" />
<path d="M18.81 22.7503H12.5C12.09 22.7503 11.75 22.4103 11.75 22.0003V10.4203C11.75 10.1903 11.85 9.98027 12.03 9.84027C12.21 9.70027 12.43 9.64027 12.66 9.69027L13.13 9.79027L19.67 11.2503C21.66 11.6903 22.66 12.8603 22.72 14.8503C22.73 14.8503 22.73 14.9503 22.73 15.0603V18.8403C22.72 21.4003 21.37 22.7503 18.81 22.7503ZM13.25 21.2503H18.81C20.57 21.2503 21.22 20.6003 21.22 18.8403V14.9803C21.17 13.6103 20.65 13.0003 19.34 12.7103L13.25 11.3503V21.2503Z" />
<path d="M8.97 9.75H5.5C5.09 9.75 4.75 9.41 4.75 9C4.75 8.59 5.09 8.25 5.5 8.25H8.97C9.38 8.25 9.72 8.59 9.72 9C9.72 9.41 9.39 9.75 8.97 9.75Z" />
<path d="M8.97 13.75H5.5C5.09 13.75 4.75 13.41 4.75 13C4.75 12.59 5.09 12.25 5.5 12.25H8.97C9.38 12.25 9.72 12.59 9.72 13C9.72 13.41 9.39 13.75 8.97 13.75Z" />
<path d="M15.2202 17.7505C13.5702 17.7505 12.2202 16.4005 12.2202 14.7505V10.5205C12.2202 10.2905 12.3202 10.0805 12.5002 9.93047C12.6802 9.78047 12.9102 9.73047 13.1302 9.78047L17.6302 10.7905C17.9702 10.8705 18.2202 11.1705 18.2202 11.5205V14.7405C18.2202 16.4005 16.8802 17.7505 15.2202 17.7505ZM13.7202 11.4605V14.7505C13.7202 15.5805 14.3902 16.2505 15.2202 16.2505C16.0502 16.2505 16.7202 15.5805 16.7202 14.7505V12.1305L13.7202 11.4605Z" />
<path d="M19.7202 17.7496C18.0702 17.7496 16.7202 16.3996 16.7202 14.7496V11.5296C16.7202 11.2996 16.8202 11.0896 17.0002 10.9496C17.1802 10.8096 17.4102 10.7496 17.6302 10.7996L19.6602 11.2496C21.6502 11.6896 22.6502 12.8596 22.7102 14.8496C22.7102 14.8696 22.7102 14.8896 22.7102 14.9096C22.6302 16.4996 21.3202 17.7496 19.7202 17.7496ZM18.2202 12.4596V14.7496C18.2202 15.5796 18.8902 16.2496 19.7202 16.2496C20.5102 16.2496 21.1602 15.6396 21.2102 14.8596C21.1602 13.5996 20.6402 12.9996 19.3402 12.7096L18.2202 12.4596Z" />
</svg>
