<?xml version="1.0" encoding="UTF-8"?>
<svg width="24" height="24" viewBox="0 0 24 24" xmlns="http://www.w3.org/2000/svg">
 <path d="m23 22.75h-22c-0.41 0-0.75-0.34-0.75-0.75s0.34-0.75 0.75-0.75h22c0.41 0 0.75 0.34 0.75 0.75s-0.34 0.75-0.75 0.75z"/>
 <path d="m19.78 22.76c-0.41 0-0.75-0.34-0.75-0.75v-4.46c0-0.41 0.34-0.75 0.75-0.75s0.75 0.34 0.75 0.75v4.46c0 0.41-0.33 0.75-0.75 0.75z"/>
 <path d="m19.8 18.3c-1.63 0-2.95-1.32-2.95-2.95v-2.27c0-1.63 1.32-2.95 2.95-2.95s2.95 1.32 2.95 2.95v2.27c0 1.63-1.32 2.95-2.95 2.95zm0-6.66c-0.8 0-1.45 0.65-1.45 1.45v2.27c0 0.8 0.65 1.45 1.45 1.45s1.45-0.65 1.45-1.45v-2.27c0-0.8-0.65-1.45-1.45-1.45z"/>
 <path d="m14.3 22.75c-0.41 0-0.75-0.34-0.75-0.75v-15.97c0-1.59-0.67-2.27-2.23-2.27h-6.23c-1.57 0-2.25 0.68002-2.25 2.27v15.97c0 0.41-0.34 0.75-0.75 0.75s-0.75-0.34-0.75-0.75v-15.97c0-2.43 1.33-3.77 3.75-3.77h6.23c2.41 0 3.73 1.34 3.73 3.77v15.97c0 0.41-0.34 0.75-0.75 0.75z"/>
 <path d="m10.75 9h-4.95c-0.41 0-0.75-0.34-0.75-0.75s0.34-0.75 0.75-0.75h4.95c0.41 0 0.75 0.34 0.75 0.75s-0.34 0.75-0.75 0.75z"/>
 <path d="m10.75 12.75h-4.95c-0.41 0-0.75-0.34-0.75-0.75s0.34-0.75 0.75-0.75h4.95c0.41 0 0.75 0.34 0.75 0.75s-0.34 0.75-0.75 0.75z"/>
 <path d="m8.25 22.75c-0.41 0-0.75-0.34-0.75-0.75v-3.75c0-0.41 0.34-0.75 0.75-0.75s0.75 0.34 0.75 0.75v3.75c0 0.41-0.34 0.75-0.75 0.75z"/>
</svg>
