<?xml version="1.0" encoding="UTF-8"?>
<svg width="24" height="24" viewBox="0 0 24 24" xmlns="http://www.w3.org/2000/svg">
 <path d="m12.5 22.75h-8.42c-1.57 0-2.86-1.26-2.86-2.82v-14.84c0-1.53 0.57-2.72 1.61-3.37 1.05-0.66 2.41-0.64 3.82 0.06l4.44 2.18c1.21 0.6 2.16 2.11 2.16 3.45v14.59c0 0.41-0.34 0.75-0.75 0.75zm-7.94-20c-0.35 0-0.67 0.08-0.94 0.25-0.58 0.36-0.9 1.11-0.9 2.09v14.84c0 0.73 0.61 1.32 1.36 1.32h7.67v-13.84c0-0.77-0.62-1.76-1.33-2.1l-4.44-2.18c-0.51001-0.25-0.99001-0.38-1.42-0.38z"/>
 <path d="m18.81 22.75h-6.31c-0.41 0-0.75-0.34-0.75-0.75v-11.58c0-0.23 0.1-0.44003 0.28-0.58003s0.4-0.2 0.63-0.15l0.47 0.1 6.54 1.46c1.99 0.44 2.99 1.61 3.05 3.6 0.01 0 0.01 0.1 0.01 0.21v3.78c-0.01 2.56-1.36 3.91-3.92 3.91zm-5.56-1.5h5.56c1.76 0 2.41-0.65 2.41-2.41v-3.86c-0.05-1.37-0.57-1.98-1.88-2.27l-6.09-1.36v9.9z"/>
 <path d="m8.97 9.75h-3.47c-0.41 0-0.75-0.34-0.75-0.75s0.34-0.75 0.75-0.75h3.47c0.41 0 0.75 0.34 0.75 0.75s-0.33 0.75-0.75 0.75z"/>
 <path d="m8.97 13.75h-3.47c-0.41 0-0.75-0.34-0.75-0.75s0.34-0.75 0.75-0.75h3.47c0.41 0 0.75 0.34 0.75 0.75s-0.33 0.75-0.75 0.75z"/>
 <path d="m15.22 17.75c-1.65 0-3-1.35-3-3v-4.23c0-0.23 0.1-0.44 0.28-0.59003 0.18-0.15 0.41-0.2 0.63-0.15l4.5 1.01c0.34 0.08 0.59 0.38 0.59 0.73v3.22c0 1.66-1.34 3.01-3 3.01zm-1.5-6.29v3.29c0 0.83 0.67 1.5 1.5 1.5s1.5-0.67 1.5-1.5v-2.62l-3-0.67z"/>
 <path d="m19.72 17.75c-1.65 0-3-1.35-3-3v-3.22c0-0.23 0.1-0.44 0.28-0.58s0.41-0.2 0.63-0.15l2.03 0.45c1.99 0.44 2.99 1.61 3.05 3.6v0.06c-0.08 1.59-1.39 2.84-2.99 2.84zm-1.5-5.29v2.29c0 0.83 0.67 1.5 1.5 1.5 0.79 0 1.44-0.61 1.49-1.39-0.05-1.26-0.57-1.86-1.87-2.15l-1.12-0.25z"/>
</svg>
