<?xml version="1.0" encoding="UTF-8"?>
<svg width="24" height="24" viewBox="0 0 24 24" xmlns="http://www.w3.org/2000/svg">
 <path d="m13 22.75h-8c-2.42 0-3.75-1.33-3.75-3.75v-8c0-2.42 1.33-3.75 3.75-3.75h5c0.41 0 0.75 0.34 0.75 0.75v11c0 1.58 0.67 2.25 2.25 2.25 0.41 0 0.75 0.34 0.75 0.75s-0.34 0.75-0.75 0.75zm-8-14c-1.58 0-2.25 0.67-2.25 2.25v8c0 1.58 0.67 2.25 2.25 2.25h4.8c-0.36-0.59-0.54999-1.34-0.54999-2.25v-10.25h-4.25z"/>
 <path d="m10 8.75h-5c-0.41 0-0.75-0.34-0.75-0.75v-2c0-1.52 1.23-2.75 2.75-2.75h3.11c0.23 0 0.45 0.10998 0.59 0.28998 0.14 0.19 0.19 0.43002 0.13 0.65002s-0.08 0.47-0.08 0.81v3c0 0.41-0.34 0.75-0.75 0.75zm-4.25-1.5h3.5v-2.25-0.25h-2.25c-0.69 0-1.25 0.56-1.25 1.25v1.25z"/>
 <path d="m14 13.75c-0.41 0-0.75-0.34-0.75-0.75v-5c0-0.41 0.34-0.75 0.75-0.75s0.75 0.34 0.75 0.75v5c0 0.41-0.34 0.75-0.75 0.75z"/>
 <path d="m18 13.75c-0.41 0-0.75-0.34-0.75-0.75v-5c0-0.41 0.34-0.75 0.75-0.75s0.75 0.34 0.75 0.75v5c0 0.41-0.34 0.75-0.75 0.75z"/>
 <path d="m18 22.75h-4c-0.41 0-0.75-0.34-0.75-0.75v-4c0-0.96 0.79-1.75 1.75-1.75h2c0.96 0 1.75 0.79 1.75 1.75v4c0 0.41-0.34 0.75-0.75 0.75zm-3.25-1.5h2.5v-3.25c0-0.14-0.11-0.25-0.25-0.25h-2c-0.14 0-0.25 0.11-0.25 0.25v3.25z"/>
 <path d="m6 17.75c-0.41 0-0.75-0.34-0.75-0.75v-4c0-0.41 0.34-0.75 0.75-0.75s0.75 0.34 0.75 0.75v4c0 0.41-0.34 0.75-0.75 0.75z"/>
 <path d="m19 22.75h-6c-2.42 0-3.75-1.33-3.75-3.75v-14c0-2.42 1.33-3.75 3.75-3.75h6c2.42 0 3.75 1.33 3.75 3.75v14c0 2.42-1.33 3.75-3.75 3.75zm-6-20c-1.58 0-2.25 0.67-2.25 2.25v14c0 1.58 0.67 2.25 2.25 2.25h6c1.58 0 2.25-0.67 2.25-2.25v-14c0-1.58-0.67-2.25-2.25-2.25h-6z"/>
</svg>
