<?xml version="1.0" encoding="UTF-8"?>
<svg width="24" height="24" viewBox="0 0 24 24" xmlns="http://www.w3.org/2000/svg">
 <path d="m16.9 22.75h-9.8c-2.12 0-3.85-1.73-3.85-3.85v-13.8c0-2.12 1.73-3.85 3.85-3.85h9.8c2.12 0 3.85 1.73 3.85 3.85v13.8c0 2.12-1.73 3.85-3.85 3.85zm-9.8-20c-1.29 0-2.35 1.05-2.35 2.35v13.8c0 1.29 1.05 2.35 2.35 2.35h9.8c1.29 0 2.35-1.05 2.35-2.35v-13.8c0-1.29-1.05-2.35-2.35-2.35h-9.8z"/>
 <path d="m18.5 13.75h-13c-1.24 0-2.25-1.01-2.25-2.25v-2c0-1.24 1.01-2.25 2.25-2.25h13c1.24 0 2.25 1.01 2.25 2.25v2c0 1.24-1.01 2.25-2.25 2.25zm-13-5c-0.41 0-0.75 0.34-0.75 0.75v2c0 0.41 0.34 0.75 0.75 0.75h13c0.41 0 0.75-0.34 0.75-0.75v-2c0-0.41-0.34-0.75-0.75-0.75h-13z"/>
 <path d="m8 18.75c-0.33 0-0.65-0.13-0.88-0.37-0.06-0.05-0.10999-0.12-0.15999-0.19-0.04-0.06-0.08-0.14-0.11-0.21-0.04-0.08-0.06001-0.16-0.08001-0.24-0.01-0.08-0.02-0.16-0.02-0.24s0.01-0.16 0.02-0.24c0.02-0.08 0.04001-0.16 0.08001-0.24 0.03-0.07 0.07-0.15 0.11-0.21 0.05-0.07 0.09999-0.14 0.15999-0.19 0.46-0.47 1.29-0.47 1.76 0 0.06 0.05 0.10999 0.12 0.15999 0.19 0.04 0.06 0.08 0.14 0.11 0.21 0.04 0.08 0.06001 0.16 0.08001 0.24 0.01 0.08 0.02 0.16 0.02 0.24s-0.01 0.16-0.02 0.24c-0.02 0.08-0.04001 0.16-0.08001 0.24-0.03 0.07-0.07 0.15-0.11 0.21-0.05 0.07-0.09999 0.14-0.15999 0.19-0.23 0.24-0.55 0.37-0.88 0.37z"/>
 <path d="m16 18.75c-0.33 0-0.65-0.13-0.88-0.37-0.24-0.23-0.37-0.55-0.37-0.88s0.13-0.65 0.37-0.88c0.46-0.47 1.3-0.47 1.76 0 0.24 0.23 0.37 0.55 0.37 0.88s-0.13 0.65-0.37 0.88c-0.23 0.24-0.55 0.37-0.88 0.37z"/>
 <path d="m14.5 5.75h-5c-0.41 0-0.75-0.34-0.75-0.75s0.34-0.75 0.75-0.75h5c0.41 0 0.75 0.34 0.75 0.75s-0.34 0.75-0.75 0.75z"/>
</svg>
