<?xml version="1.0" encoding="UTF-8"?>
<svg width="24" height="24" viewBox="0 0 24 24" xmlns="http://www.w3.org/2000/svg">
 <path d="m15.5 15.75c-0.18 0-0.38-0.01-0.56-0.02-0.37-0.02-0.6701-0.32-0.7001-0.69-0.22-2.79-2.4899-5.05-5.2699-5.2701-0.37-0.02999-0.67001-0.32998-0.69001-0.69998-0.01-0.18-0.01998-0.37999-0.01998-0.55999 0-4 3.25-7.25 7.25-7.25s7.25 3.25 7.25 7.25c0 4-3.26 7.24-7.26 7.24zm-5.75-7.3901c2.98 0.53 5.37 2.9101 5.89 5.8901 3.11-0.08 5.61-2.62 5.61-5.75 0-3.17-2.58-5.75-5.75-5.75-3.12 0-5.67 2.5-5.75 5.61z"/>
 <path d="m8.5 22.75c-4 0-7.25-3.25-7.25-7.25s3.25-7.25 7.25-7.25c0.18 0 0.38 0.00999 0.56 0.01999 3.53 0.28 6.39 3.14 6.66 6.65 0.01 0.2 0.02 0.4 0.02 0.58 0.01 4-3.24 7.25-7.24 7.25zm0-13c-3.17 0-5.75 2.58-5.75 5.75s2.58 5.75 5.75 5.75 5.75-2.58 5.75-5.75c0-0.16-0.01-0.32-0.02-0.48-0.22-2.77-2.49-5.04-5.27-5.26-0.14 0-0.29999-0.01001-0.45999-0.01001z"/>
 <path d="m8.5 18.75c-0.27 0-0.53-0.1501-0.66-0.3901l-0.78-1.4199-1.42-0.78c-0.24-0.13-0.39001-0.38-0.39001-0.66s0.15001-0.53 0.39001-0.66l1.42-0.78 0.78-1.42c0.26-0.48 1.05-0.48 1.32 0l0.78 1.42 1.42 0.78c0.24 0.13 0.39 0.38 0.39 0.66s-0.15 0.53-0.39 0.66l-1.42 0.78-0.78 1.4199c-0.13 0.24-0.39 0.3901-0.66 0.3901zm-0.94-3.25 0.41 0.23c0.13 0.07 0.22999 0.17 0.29999 0.3l0.23001 0.41 0.23001-0.41c0.07-0.13 0.16999-0.23 0.29999-0.3l0.41-0.23-0.41-0.2301c-0.13-0.07-0.22999-0.1699-0.29999-0.2999l-0.23001-0.41-0.23001 0.41c-0.07 0.13-0.16999 0.2299-0.29999 0.2999l-0.41 0.2301z"/>
</svg>
