<?xml version="1.0" encoding="UTF-8"?>
<svg width="24" height="24" viewBox="0 0 24 24" xmlns="http://www.w3.org/2000/svg">
 <path d="m22 22.75h-20c-0.41 0-0.75-0.34-0.75-0.75s0.34-0.75 0.75-0.75h20c0.41 0 0.75 0.34 0.75 0.75s-0.34 0.75-0.75 0.75z"/>
 <path d="m20.89 22.75c-0.41 0-0.75-0.34-0.75-0.75v-9c0-1.24-1.16-2.25-2.58-2.25h-11.12c-1.42 0-2.58 1.01-2.58 2.25v9c0 0.41-0.34 0.75-0.75 0.75s-0.75-0.34-0.75-0.75v-9c0-2.07 1.83-3.75 4.08-3.75h11.11c2.25 0 4.08 1.68 4.08 3.75v9c0.01 0.41-0.33 0.75-0.74 0.75z"/>
 <path d="m18.44 10.75c-0.41 0-0.75-0.34-0.75-0.75v-2.83c0-0.78-0.75-1.42-1.66-1.42h-8.05c-0.92 0-1.66 0.64-1.66 1.42v2.83c0 0.41-0.34 0.75-0.75 0.75s-0.76-0.34-0.76-0.75v-2.83c0-1.61 1.42-2.92 3.16-2.92h8.05c1.74 0 3.16 1.31 3.16 2.92v2.83c0.01 0.41-0.33 0.75-0.74 0.75z"/>
 <path d="m17.33 17.75c-1.16 0-2.1-0.94-2.1-2.1v-0.31c0-0.33-0.27-0.6-0.6-0.6s-0.6 0.27-0.6 0.6v0.31c0 1.16-0.94 2.1-2.1 2.1s-2.1-0.94-2.1-2.1v-0.31c0-0.33-0.27001-0.6-0.6-0.6-0.33 0-0.6 0.27-0.6 0.6v0.31c0 1.16-0.94 2.1-2.1 2.1s-2.1-0.94-2.1-2.1v-0.33c0-0.32-0.26-0.59-0.59-0.6h-0.37c-0.41-0.01-0.75-0.35-0.74-0.76s0.34-0.74 0.75-0.74h0.38c1.14 0.02 2.07 0.96 2.07 2.1v0.33c0 0.33 0.27 0.6 0.6 0.6s0.6-0.27 0.6-0.6v-0.31c0-1.16 0.94-2.1 2.1-2.1s2.1 0.94 2.1 2.1v0.31c0 0.33 0.27 0.6 0.6 0.6s0.6-0.27 0.6-0.6v-0.31c0-1.16 0.94-2.1 2.1-2.1s2.1 0.94 2.1 2.1v0.31c0 0.33 0.27 0.6 0.6 0.6s0.6-0.27 0.6-0.6v-0.31c0-1.16 0.94-2.1 2.1-2.1h0.45c0.41 0 0.75 0.34 0.75 0.75s-0.34 0.75-0.75 0.75h-0.45c-0.33 0-0.6 0.27-0.6 0.6v0.31c0 1.16-0.94 2.1-2.1 2.1z"/>
 <path d="m8 5.75c-0.41 0-0.75-0.34-0.75-0.75v-2c0-0.41 0.34-0.75 0.75-0.75s0.75 0.34 0.75 0.75v2c0 0.41-0.34 0.75-0.75 0.75z"/>
 <path d="m16 5.75c-0.41 0-0.75-0.34-0.75-0.75v-2c0-0.41 0.34-0.75 0.75-0.75s0.75 0.34 0.75 0.75v2c0 0.41-0.34 0.75-0.75 0.75z"/>
 <path d="m12 5.75c-0.41 0-0.75-0.34-0.75-0.75v-3c0-0.41 0.34-0.75 0.75-0.75s0.75 0.34 0.75 0.75v3c0 0.41-0.34 0.75-0.75 0.75z"/>
</svg>
