<?xml version="1.0" encoding="UTF-8"?>
<svg width="24" height="24" viewBox="0 0 24 24" xmlns="http://www.w3.org/2000/svg">
 <path d="m14 22.75h-4c-5.43 0-7.75-2.32-7.75-7.75v-6c0-5.43 2.32-7.75 7.75-7.75h4c5.43 0 7.75 2.32 7.75 7.75v6c0 5.43-2.32 7.75-7.75 7.75zm-4-20c-4.61 0-6.25 1.64-6.25 6.25v6c0 4.61 1.64 6.25 6.25 6.25h4c4.61 0 6.25-1.64 6.25-6.25v-6c0-4.61-1.64-6.25-6.25-6.25h-4z"/>
 <path d="m15 10.83h-6c-1.24 0-2.25-1.01-2.25-2.25v-1c0-1.24 1.01-2.25 2.25-2.25h6c1.24 0 2.25 1.01 2.25 2.25v1c0 1.24-1.01 2.25-2.25 2.25zm-6-4c-0.41 0-0.75 0.34-0.75 0.75v1c0 0.41 0.34 0.75 0.75 0.75h6c0.41 0 0.75-0.34 0.75-0.75v-1c0-0.41-0.34-0.75-0.75-0.75h-6z"/>
 <path d="m8.1502 14.92c-0.13 0-0.26-0.03-0.38-0.08s-0.23-0.12-0.32-0.21c-0.19-0.19-0.29-0.44-0.29-0.71 0-0.13 0.02-0.26 0.07-0.38 0.05-0.13 0.12-0.23 0.22-0.33 0.04-0.04 0.09-0.09 0.15-0.12 0.05-0.04 0.11-0.07 0.17-0.09 0.06-0.03 0.13-0.05 0.19-0.06 0.32-0.07 0.67 0.04 0.9 0.27 0.09 0.09 0.17 0.2 0.22 0.33 0.05 0.12 0.08 0.25 0.08 0.38 0 0.27-0.11 0.52-0.3 0.71s-0.44 0.29-0.71 0.29z"/>
 <path d="m12.16 14.92c-0.27 0-0.52-0.1-0.71-0.29s-0.29-0.44-0.29-0.71c0-0.13 0.02-0.26 0.07-0.38 0.05-0.13 0.12-0.23 0.22-0.33 0.04-0.04 0.09-0.09 0.15-0.12 0.05-0.04 0.11-0.07 0.17-0.09 0.06-0.03 0.13-0.05 0.19-0.06 0.19-0.04 0.39-0.02 0.58 0.06 0.12 0.05 0.23 0.12 0.32 0.21 0.09 0.1 0.17 0.2 0.22 0.33 0.05 0.12 0.08 0.25 0.08 0.38 0 0.27-0.11 0.52-0.3 0.71s-0.44 0.29-0.7 0.29z"/>
 <path d="m16.15 14.92c-0.13 0-0.26-0.03-0.38-0.08s-0.23-0.12-0.32-0.21c-0.1-0.1-0.17-0.21-0.22-0.33s-0.07-0.25-0.07-0.38 0.02-0.26 0.07-0.38c0.05-0.13 0.12-0.23 0.22-0.33 0.37-0.37 1.04-0.37 1.41 0 0.19 0.19 0.3 0.45 0.3 0.71 0 0.27-0.11 0.52-0.3 0.71-0.18 0.18-0.43 0.29-0.71 0.29z"/>
 <path d="m8.1599 18.92c-0.27 0-0.52-0.1-0.71-0.29s-0.3-0.44-0.3-0.71c0-0.26 0.11-0.52 0.3-0.71 0.04-0.04 0.1-0.09 0.15-0.12 0.05-0.04 0.11-0.07 0.17-0.09 0.06-0.03 0.13-0.05 0.19-0.06 0.33-0.06 0.67 0.04 0.9 0.27 0.05 0.05 0.09 0.1 0.13 0.15l0.09 0.18 0.06 0.18c0.01 0.07 0.02 0.13 0.02 0.2 0 0.27-0.11 0.52-0.3 0.71s-0.44 0.29-0.7 0.29z"/>
 <path d="m12.16 18.92c-0.27 0-0.52-0.1-0.71-0.29s-0.3-0.44-0.3-0.71c0-0.26 0.11-0.52 0.3-0.71 0.23-0.23 0.58-0.33 0.9-0.27 0.06 0.01 0.13 0.03 0.19 0.06 0.06 0.02 0.12 0.05 0.17 0.09 0.05 0.03 0.1 0.08 0.15 0.12 0.19 0.19 0.29 0.45 0.29 0.71 0 0.27-0.1 0.52-0.29 0.71s-0.44 0.29-0.7 0.29z"/>
 <path d="m16.15 18.92c-0.26 0-0.51-0.1-0.7-0.29s-0.29-0.44-0.29-0.71c0-0.26 0.1-0.52 0.29-0.71 0.09-0.09 0.2-0.16 0.32-0.21 0.37-0.15 0.82-0.07 1.09 0.21 0.19 0.19 0.29 0.45 0.29 0.71 0 0.27-0.1 0.52-0.29 0.71-0.09 0.09-0.2 0.16-0.32 0.21s-0.25 0.08-0.39 0.08z"/>
</svg>
