<?xml version="1.0" encoding="UTF-8"?>
<svg width="24" height="24" viewBox="0 0 24 24" xmlns="http://www.w3.org/2000/svg">
 <path d="m8 5.75c-0.41 0-0.75-0.34-0.75-0.75v-3c0-0.41 0.34-0.75 0.75-0.75s0.75 0.34 0.75 0.75v3c0 0.41-0.34 0.75-0.75 0.75z"/>
 <path d="m16 5.75c-0.41 0-0.75-0.34-0.75-0.75v-3c0-0.41 0.34-0.75 0.75-0.75s0.75 0.34 0.75 0.75v3c0 0.41-0.34 0.75-0.75 0.75z"/>
 <path d="m18.2 22.15c-2.18 0-3.95-1.77-3.95-3.95s1.77-3.95 3.95-3.95 3.95 1.77 3.95 3.95-1.77 3.95-3.95 3.95zm0-6.4c-1.35 0-2.45 1.1-2.45 2.45s1.1 2.45 2.45 2.45 2.45-1.1 2.45-2.45-1.1-2.45-2.45-2.45z"/>
 <path d="m22 22.75c-0.19 0-0.38-0.07-0.53-0.22l-1-1c-0.29-0.29-0.29-0.77 0-1.06s0.77-0.29 1.06 0l1 1c0.29 0.29 0.29 0.77 0 1.06-0.15 0.15-0.34 0.22-0.53 0.22z"/>
 <path d="m8.5 14.5c-0.13 0-0.26-0.03-0.38-0.08-0.13-0.05-0.24001-0.12-0.33001-0.21-0.04-0.05-0.08999-0.1-0.11999-0.15-0.04-0.06-0.07-0.12-0.09-0.18-0.03-0.06-0.05-0.12-0.06-0.18-0.01-0.07-0.02-0.14-0.02-0.2 0-0.26 0.10999-0.52 0.28999-0.71 0.09-0.09 0.20001-0.16 0.33001-0.21 0.36-0.16 0.81001-0.07 1.09 0.21 0.18 0.19 0.28999 0.45 0.28999 0.71 0 0.06-0.01 0.13-0.02 0.2-0.01 0.06-0.03 0.12-0.06 0.18-0.02 0.06-0.05 0.12-0.09 0.18-0.04 0.05-0.07999 0.1-0.11999 0.15-0.19 0.18-0.45001 0.29-0.71001 0.29z"/>
 <path d="m12 14.5c-0.26 0-0.52-0.11-0.71-0.29-0.18-0.19-0.29-0.44-0.29-0.71 0-0.13 0.03-0.26 0.08-0.38s0.12-0.23 0.21-0.33c0.37-0.37 1.04-0.37 1.42 0 0.18 0.19 0.29 0.45 0.29 0.71 0 0.06-0.01 0.13-0.02 0.2-0.01 0.06-0.03 0.12-0.06 0.18-0.02 0.06-0.05 0.12-0.09 0.18l-0.12 0.15c-0.19 0.18-0.45 0.29-0.71 0.29z"/>
 <path d="m8.5 18c-0.26 0-0.52001-0.11-0.71001-0.29-0.18-0.19-0.28999-0.45-0.28999-0.71 0-0.13 0.03-0.26 0.08-0.38 0.05-0.13 0.11999-0.24 0.20999-0.33 0.37-0.37 1.05-0.37 1.42 0 0.18 0.19 0.28999 0.45 0.28999 0.71s-0.10999 0.52-0.28999 0.71c-0.19 0.18-0.45001 0.29-0.71001 0.29z"/>
 <path d="m20.5 9.8398h-17c-0.41 0-0.75-0.34-0.75-0.75s0.34-0.75 0.75-0.75h17c0.41 0 0.75 0.34 0.75 0.75s-0.34 0.75-0.75 0.75z"/>
 <path d="m13.37 22.75h-5.37c-3.65 0-5.75-2.1-5.75-5.75v-8.5c0-3.65 2.1-5.75 5.75-5.75h8c3.65 0 5.75 2.1 5.75 5.75v4.5c0 0.41-0.34 0.75-0.75 0.75s-0.75-0.34-0.75-0.75v-4.5c0-2.86-1.39-4.25-4.25-4.25h-8c-2.86 0-4.25 1.39-4.25 4.25v8.5c0 2.86 1.39 4.25 4.25 4.25h5.37c0.41 0 0.75 0.34 0.75 0.75s-0.34 0.75-0.75 0.75z"/>
</svg>
