<?xml version="1.0" encoding="UTF-8"?>
<svg width="24" height="24" viewBox="0 0 24 24" xmlns="http://www.w3.org/2000/svg">
 <path d="m8 5.75c-0.41 0-0.75-0.34-0.75-0.75v-3c0-0.41 0.34-0.75 0.75-0.75s0.75 0.34 0.75 0.75v3c0 0.41-0.34 0.75-0.75 0.75z"/>
 <path d="m16 5.75c-0.41 0-0.75-0.34-0.75-0.75v-3c0-0.41 0.34-0.75 0.75-0.75s0.75 0.34 0.75 0.75v3c0 0.41-0.34 0.75-0.75 0.75z"/>
 <path d="m15 22.75h-6c-5.62 0-6.75-2.65-6.75-6.93v-6.17c0-4.74 1.6-6.67 5.71-6.9h8.04 0.04c4.11 0.23 5.71 2.16 5.71 6.9v6.17c0 4.28-1.13 6.93-6.75 6.93zm-7-18.5c-2.8 0.16-4.25 1.04-4.25 5.4v6.17c0 3.83 0.73 5.43 5.25 5.43h6c4.52 0 5.25-1.6 5.25-5.43v-6.17c0-4.35-1.44-5.24-4.27-5.4h-7.98z"/>
 <path d="m20.75 18.35h-17.5c-0.41 0-0.75-0.34-0.75-0.75s0.34-0.75 0.75-0.75h17.5c0.41 0 0.75 0.34 0.75 0.75s-0.34 0.75-0.75 0.75z"/>
 <path d="m12 8.25c-1.23 0-2.27 0.67-2.27 1.97 0 0.62 0.29 1.09 0.73 1.39-0.61 0.36-0.96 0.94-0.96 1.62 0 1.24 0.95 2.01 2.5 2.01 1.54 0 2.5-0.77 2.5-2.01 0-0.68-0.35-1.27-0.97-1.62 0.45-0.31 0.73-0.77 0.73-1.39 0-1.3-1.03-1.97-2.26-1.97zm0 2.84c-0.52 0-0.9-0.31-0.9-0.8 0-0.5 0.38-0.79 0.9-0.79s0.9 0.29 0.9 0.79c0 0.49-0.38 0.8-0.9 0.8zm0 2.91c-0.66 0-1.14-0.33-1.14-0.93s0.48-0.92 1.14-0.92 1.14 0.33 1.14 0.92c0 0.6-0.48 0.93-1.14 0.93z"/>
</svg>
