<svg width="24" height="24" viewBox="0 0 24 24"  xmlns="http://www.w3.org/2000/svg">
<path d="M16.75 3.56V2C16.75 1.59 16.41 1.25 16 1.25C15.59 1.25 15.25 1.59 15.25 2V3.5H8.74998V2C8.74998 1.59 8.40998 1.25 7.99998 1.25C7.58998 1.25 7.24998 1.59 7.24998 2V3.56C4.54998 3.81 3.23999 5.42 3.03999 7.81C3.01999 8.1 3.25999 8.34 3.53999 8.34H20.46C20.75 8.34 20.99 8.09 20.96 7.81C20.76 5.42 19.45 3.81 16.75 3.56Z" />
<path opacity="0.4" d="M20 9.83984C20.55 9.83984 21 10.2898 21 10.8398V16.9998C21 19.9998 19.5 21.9998 16 21.9998H8C4.5 21.9998 3 19.9998 3 16.9998V10.8398C3 10.2898 3.45 9.83984 4 9.83984H20Z" />
<path d="M14.8399 14.9902L14.3399 15.5002H14.3299L11.2999 18.5302C11.1699 18.6602 10.8999 18.8002 10.7099 18.8202L9.35993 19.0202C8.86993 19.0902 8.52995 18.7402 8.59995 18.2602L8.78996 16.9002C8.81996 16.7102 8.94993 16.4502 9.07993 16.3102L12.1199 13.2802L12.6199 12.7702C12.9499 12.4402 13.3199 12.2002 13.7199 12.2002C14.0599 12.2002 14.4299 12.3602 14.8399 12.7702C15.7399 13.6702 15.4499 14.3802 14.8399 14.9902Z" />
</svg>
