<?xml version="1.0" encoding="UTF-8"?>
<svg width="24" height="24" viewBox="0 0 24 24" xmlns="http://www.w3.org/2000/svg">
 <path d="m12 22.75c-5.93 0-10.75-4.82-10.75-10.75s4.82-10.75 10.75-10.75 10.75 4.82 10.75 10.75-4.82 10.75-10.75 10.75zm0-20c-5.1 0-9.25 4.15-9.25 9.25s4.15 9.25 9.25 9.25 9.25-4.15 9.25-9.25-4.15-9.25-9.25-9.25z"/>
 <path d="m9.8901 8.5801c-0.41 0-0.75-0.34-0.75-0.75v-2c0-0.41 0.34-0.75 0.75-0.75 0.40996 0 0.74996 0.34 0.74996 0.75v2c0 0.41-0.33 0.75-0.74996 0.75z"/>
 <path d="m14.11 8.5801c-0.41 0-0.75-0.34-0.75-0.75v-2c0-0.41 0.34-0.75 0.75-0.75s0.75 0.34 0.75 0.75v2c0 0.41-0.34 0.75-0.75 0.75z"/>
 <path d="m16.47 10.89h-8.95c-0.41 0-0.75-0.34-0.75-0.75 0-0.40995 0.34-0.74995 0.75-0.74995h8.95c0.41 0 0.75 0.34 0.75 0.74995 0 0.41-0.33 0.75-0.75 0.75z"/>
 <path d="m13.5 18.42h-3c-2.75 0-4.75-2-4.75-4.75v-3c0-2.75 2-4.75 4.75-4.75h3c2.75 0 4.75 2 4.75 4.75v3c0 2.75-2 4.75-4.75 4.75zm-3-11c-2.25 0-3.25 1.63-3.25 3.25v3c0 1.62 1 3.25 3.25 3.25h3c2.25 0 3.25-1.63 3.25-3.25v-3c0-1.62-1-3.25-3.25-3.25h-3z"/>
</svg>
