<?xml version="1.0" encoding="UTF-8"?>
<svg width="24" height="24" viewBox="0 0 24 24" xmlns="http://www.w3.org/2000/svg">
 <path d="m8 5.75c-0.41 0-0.75-0.34-0.75-0.75v-3c0-0.41 0.34-0.75 0.75-0.75s0.75 0.34 0.75 0.75v3c0 0.41-0.34 0.75-0.75 0.75z"/>
 <path d="m16 5.75c-0.41 0-0.75-0.34-0.75-0.75v-3c0-0.41 0.34-0.75 0.75-0.75s0.75 0.34 0.75 0.75v3c0 0.41-0.34 0.75-0.75 0.75z"/>
 <path d="m8.5 14.5c-0.13 0-0.26-0.03-0.38-0.08-0.13-0.05-0.22999-0.12-0.32999-0.21-0.18-0.19-0.29001-0.45-0.29001-0.71s0.11001-0.52 0.29001-0.71c0.1-0.09 0.20999-0.16 0.32999-0.21 0.24-0.1 0.52-0.1 0.76 0 0.12 0.05 0.22999 0.12 0.32999 0.21 0.04 0.05 0.09 0.1 0.12 0.15 0.04 0.06 0.07002 0.12 0.09002 0.18 0.03 0.06 0.05 0.12 0.06 0.18 0.01 0.07 0.01999 0.14 0.01999 0.2 0 0.26-0.11001 0.52-0.29001 0.71-0.1 0.09-0.20999 0.16-0.32999 0.21s-0.25 0.08-0.38 0.08z"/>
 <path d="m12 14.5c-0.13 0-0.26-0.03-0.38-0.08-0.13-0.05-0.23-0.12-0.33-0.21-0.18-0.19-0.29-0.45-0.29-0.71 0-0.06 0.01-0.13 0.02-0.2 0.01-0.06 0.03-0.12 0.06-0.18 0.02-0.06 0.05-0.12 0.09-0.18l0.12-0.15c0.37-0.37 1.04-0.37 1.42 0l0.12 0.15c0.04 0.06 0.07 0.12 0.09 0.18 0.03 0.06 0.05 0.12 0.06 0.18 0.01 0.07 0.02 0.14 0.02 0.2 0 0.26-0.11 0.52-0.29 0.71-0.19 0.18-0.44 0.29-0.71 0.29z"/>
 <path d="m8.5 18c-0.13 0-0.26-0.03-0.38-0.08s-0.22999-0.12-0.32999-0.21c-0.18-0.19-0.29001-0.45-0.29001-0.71 0-0.06 0.00999-0.13 0.01999-0.19 0.01-0.07 0.03-0.13 0.06-0.19 0.02-0.06 0.05002-0.12 0.09002-0.18 0.03-0.05 0.08-0.1 0.12-0.15 0.1-0.09 0.20999-0.16 0.32999-0.21 0.24-0.1 0.52-0.1 0.76 0 0.12 0.05 0.22999 0.12 0.32999 0.21 0.04 0.05 0.09 0.1 0.12 0.15 0.04 0.06 0.07002 0.12 0.09002 0.18 0.03 0.06 0.05 0.12 0.06 0.19 0.01 0.06 0.01999 0.13 0.01999 0.19 0 0.26-0.11001 0.52-0.29001 0.71-0.1 0.09-0.20999 0.16-0.32999 0.21s-0.25 0.08-0.38 0.08z"/>
 <path d="m20.5 9.8398h-17c-0.41 0-0.75-0.34-0.75-0.75s0.34-0.75 0.75-0.75h17c0.41 0 0.75 0.34 0.75 0.75s-0.34 0.75-0.75 0.75z"/>
 <path d="m15.82 22.78c-0.38 0-0.74-0.14-1-0.4-0.31-0.31-0.45-0.76-0.38-1.23l0.19-1.35c0.05-0.35 0.26-0.77 0.51-1.02l3.5399-3.54c0.48-0.48 0.9501-0.73 1.4601-0.78 0.63-0.06 1.2399 0.2 1.8199 0.78 0.61 0.61 1.43 1.85 0 3.28l-3.5399 3.54c-0.25 0.25-0.6701 0.46-1.0201 0.51l-1.35 0.19c-0.08 0.01-0.1499 0.02-0.2299 0.02zm4.4899-6.83h-0.03c-0.14 0.01-0.33 0.14-0.54 0.35l-3.5399 3.54c-0.03 0.03-0.0801 0.13-0.0801 0.17l-0.1799 1.25 1.25-0.18c0.04-0.01 0.1399-0.06 0.1699-0.09l3.54-3.54c0.44-0.44 0.5-0.66 0-1.16-0.16-0.15-0.39-0.34-0.59-0.34z"/>
 <path d="m20.92 19.25c-0.07 0-0.14-0.01-0.2-0.03-1.32-0.37-2.37-1.42-2.74-2.74-0.11-0.4 0.12-0.81 0.52-0.93 0.4-0.11 0.81 0.12 0.93 0.52 0.23 0.82 0.88 1.47 1.7 1.7 0.4 0.11 0.63 0.53 0.52 0.93-0.1 0.33-0.4 0.55-0.73 0.55z"/>
 <path d="m12 22.75h-4c-3.65 0-5.75-2.1-5.75-5.75v-8.5c0-3.65 2.1-5.75 5.75-5.75h8c3.65 0 5.75 2.1 5.75 5.75v3.5c0 0.41-0.34 0.75-0.75 0.75s-0.75-0.34-0.75-0.75v-3.5c0-2.86-1.39-4.25-4.25-4.25h-8c-2.86 0-4.25 1.39-4.25 4.25v8.5c0 2.86 1.39 4.25 4.25 4.25h4c0.41 0 0.75 0.34 0.75 0.75s-0.34 0.75-0.75 0.75z"/>
</svg>
