<?xml version="1.0" encoding="UTF-8"?>
<svg width="24" height="24" viewBox="0 0 24 24" xmlns="http://www.w3.org/2000/svg">
 <path d="m8 5.75c-0.41 0-0.75-0.34-0.75-0.75v-3c0-0.41 0.34-0.75 0.75-0.75s0.75 0.34 0.75 0.75v3c0 0.41-0.34 0.75-0.75 0.75z"/>
 <path d="m16 5.75c-0.41 0-0.75-0.34-0.75-0.75v-3c0-0.41 0.34-0.75 0.75-0.75s0.75 0.34 0.75 0.75v3c0 0.41-0.34 0.75-0.75 0.75z"/>
 <path d="m8.5 14.5c-0.13 0-0.26-0.03-0.38-0.08-0.13-0.05-0.23-0.12-0.33-0.21-0.18-0.19-0.29-0.44-0.29-0.71 0-0.13 0.03-0.26 0.08-0.38s0.12-0.23 0.21-0.33c0.1-0.09 0.2-0.16 0.33-0.21 0.36-0.15 0.81-0.07 1.09 0.21 0.18 0.19 0.29 0.45 0.29 0.71 0 0.06-0.01 0.13-0.02 0.2-0.01 0.06-0.03 0.12-0.06 0.18-0.02 0.06-0.05 0.12-0.09 0.18-0.03 0.05-0.08 0.1-0.12 0.15-0.19 0.18-0.45 0.29-0.71 0.29z"/>
 <path d="m12 14.5c-0.13 0-0.26-0.03-0.38-0.08-0.13-0.05-0.23-0.12-0.33-0.21-0.18-0.19-0.29-0.44-0.29-0.71 0-0.13 0.03-0.26 0.08-0.38s0.12-0.23 0.21-0.33c0.1-0.09 0.2-0.16 0.33-0.21 0.36-0.16 0.81-0.07 1.09 0.21 0.18 0.19 0.29 0.45 0.29 0.71 0 0.06-0.01 0.13-0.02 0.2-0.01 0.06-0.03 0.12-0.06 0.18-0.02 0.06-0.05 0.12-0.09 0.18-0.03 0.05-0.08 0.1-0.12 0.15-0.19 0.18-0.45 0.29-0.71 0.29z"/>
 <path d="m15.5 14.5c-0.13 0-0.26-0.03-0.38-0.08-0.13-0.05-0.23-0.12-0.33-0.21l-0.12-0.15c-0.04-0.06-0.07-0.12-0.09-0.18-0.03-0.06-0.05-0.12-0.06-0.18-0.01-0.07-0.02-0.14-0.02-0.2 0-0.26 0.11-0.52 0.29-0.71 0.1-0.09 0.2-0.16 0.33-0.21 0.37-0.16 0.81-0.07 1.09 0.21 0.18 0.19 0.29 0.45 0.29 0.71 0 0.06-0.01 0.13-0.02 0.2-0.01 0.06-0.03 0.12-0.06 0.18-0.02 0.06-0.05 0.12-0.09 0.18-0.03 0.05-0.08 0.1-0.12 0.15-0.19 0.18-0.45 0.29-0.71 0.29z"/>
 <path d="m8.5 18c-0.13 0-0.26-0.03-0.38-0.08s-0.23-0.12-0.33-0.21c-0.18-0.19-0.29-0.45-0.29-0.71 0-0.13 0.03-0.26 0.08-0.38 0.05-0.13 0.12-0.24 0.21-0.33 0.37-0.37 1.05-0.37 1.42 0 0.18 0.19 0.29 0.45 0.29 0.71s-0.11 0.52-0.29 0.71c-0.19 0.18-0.45 0.29-0.71 0.29z"/>
 <path d="m12 18c-0.26 0-0.52-0.11-0.71-0.29-0.18-0.19-0.29-0.45-0.29-0.71 0-0.13 0.03-0.26 0.08-0.38 0.05-0.13 0.12-0.24 0.21-0.33 0.37-0.37 1.05-0.37 1.42 0 0.09 0.09 0.16 0.2 0.21 0.33 0.05 0.12 0.08 0.25 0.08 0.38 0 0.26-0.11 0.52-0.29 0.71-0.19 0.18-0.45 0.29-0.71 0.29z"/>
 <path d="m15.5 18c-0.26 0-0.52-0.11-0.71-0.29-0.09-0.09-0.16-0.2-0.21-0.33-0.05-0.12-0.08-0.25-0.08-0.38s0.03-0.26 0.08-0.38c0.05-0.13 0.12-0.24 0.21-0.33 0.23-0.23 0.58-0.34 0.9-0.27 0.07 0.01 0.13 0.03 0.19 0.06 0.06 0.02 0.12 0.05 0.18 0.09 0.05 0.03 0.1 0.08 0.15 0.12 0.18 0.19 0.29 0.45 0.29 0.71s-0.11 0.52-0.29 0.71c-0.19 0.18-0.45 0.29-0.71 0.29z"/>
 <path d="m20.5 9.8398h-17c-0.41 0-0.75-0.34-0.75-0.75s0.34-0.75 0.75-0.75h17c0.41 0 0.75 0.34 0.75 0.75s-0.34 0.75-0.75 0.75z"/>
 <path d="m16 22.75h-8c-3.65 0-5.75-2.1-5.75-5.75v-8.5c0-3.65 2.1-5.75 5.75-5.75h8c3.65 0 5.75 2.1 5.75 5.75v8.5c0 3.65-2.1 5.75-5.75 5.75zm-8-18.5c-2.86 0-4.25 1.39-4.25 4.25v8.5c0 2.86 1.39 4.25 4.25 4.25h8c2.86 0 4.25-1.39 4.25-4.25v-8.5c0-2.86-1.39-4.25-4.25-4.25h-8z"/>
</svg>
