<?xml version="1.0" encoding="UTF-8"?>
<svg width="24" height="24" viewBox="0 0 24 24" xmlns="http://www.w3.org/2000/svg">
 <path d="m8 5.75c-0.41 0-0.75-0.34-0.75-0.75v-3c0-0.41 0.34-0.75 0.75-0.75s0.75 0.34 0.75 0.75v3c0 0.41-0.34 0.75-0.75 0.75z"/>
 <path d="m16 5.75c-0.41 0-0.75-0.34-0.75-0.75v-3c0-0.41 0.34-0.75 0.75-0.75s0.75 0.34 0.75 0.75v3c0 0.41-0.34 0.75-0.75 0.75z"/>
 <path d="m20.5 9.8398h-17c-0.41 0-0.75-0.34-0.75-0.75s0.34-0.75 0.75-0.75h17c0.41 0 0.75 0.34 0.75 0.75s-0.34 0.75-0.75 0.75z"/>
 <path d="m16 22.75h-8c-3.65 0-5.75-2.1-5.75-5.75v-8.5c0-3.65 2.1-5.75 5.75-5.75h8c3.65 0 5.75 2.1 5.75 5.75v8.5c0 3.65-2.1 5.75-5.75 5.75zm-8-18.5c-2.86 0-4.25 1.39-4.25 4.25v8.5c0 2.86 1.39 4.25 4.25 4.25h8c2.86 0 4.25-1.39 4.25-4.25v-8.5c0-2.86-1.39-4.25-4.25-4.25h-8z"/>
 <path d="m8.5 14.5c-0.13 0-0.26-0.03-0.38-0.08s-0.22999-0.12-0.32999-0.21c-0.09-0.1-0.16002-0.21-0.21002-0.33s-0.07999-0.25-0.07999-0.38c0-0.26 0.11001-0.52 0.29001-0.71 0.1-0.09 0.20999-0.16 0.32999-0.21 0.18-0.08 0.38001-0.1 0.58001-0.06 0.06 0.01 0.11999 0.03 0.17999 0.06 0.06 0.02 0.12 0.05 0.18 0.09 0.05 0.04 0.09999 0.08 0.14999 0.12 0.04 0.05 0.09 0.1 0.12 0.15 0.04 0.06 0.07002 0.12 0.09002 0.18 0.03 0.06 0.05 0.12 0.06 0.18 0.01 0.07 0.01999 0.13 0.01999 0.2 0 0.26-0.11001 0.52-0.29001 0.71-0.19 0.18-0.44999 0.29-0.70999 0.29z"/>
 <path d="m12 14.5c-0.26 0-0.52-0.11-0.71-0.29l-0.12-0.15c-0.04-0.06-0.07-0.12-0.09-0.18-0.03-0.06-0.05-0.12-0.06-0.18-0.01-0.07-0.02-0.13-0.02-0.2 0-0.13 0.03-0.26 0.08-0.38s0.12-0.23 0.21-0.33c0.28-0.28 0.73-0.37 1.09-0.21 0.13 0.05 0.23 0.12 0.33 0.21 0.18 0.19 0.29 0.45 0.29 0.71 0 0.07-0.01 0.13-0.02 0.2-0.01 0.06-0.03 0.12-0.06 0.18-0.02 0.06-0.05 0.12-0.09 0.18l-0.12 0.15c-0.1 0.09-0.2 0.16-0.33 0.21-0.12 0.05-0.25 0.08-0.38 0.08z"/>
 <path d="m8.5 18c-0.13 0-0.26-0.03-0.38-0.08s-0.22999-0.12-0.32999-0.21c-0.09-0.1-0.16002-0.2-0.21002-0.33-0.05-0.12-0.07999-0.25-0.07999-0.38 0-0.26 0.11001-0.52 0.29001-0.71 0.1-0.09 0.20999-0.16 0.32999-0.21 0.37-0.16 0.80999-0.07 1.09 0.21 0.04 0.05 0.09 0.1 0.12 0.15 0.04 0.06 0.07002 0.12 0.09002 0.18 0.03 0.06 0.05 0.12 0.06 0.19 0.01 0.06 0.01999 0.13 0.01999 0.19 0 0.26-0.11001 0.52-0.29001 0.71-0.19 0.18-0.44999 0.29-0.70999 0.29z"/>
</svg>
