<?xml version="1.0" encoding="UTF-8"?>
<svg width="24" height="24" viewBox="0 0 24 24" xmlns="http://www.w3.org/2000/svg">
 <path d="m8 5.75c-0.41 0-0.75-0.34-0.75-0.75v-3c0-0.41 0.34-0.75 0.75-0.75s0.75 0.34 0.75 0.75v3c0 0.41-0.34 0.75-0.75 0.75z"/>
 <path d="m16 5.75c-0.41 0-0.75-0.34-0.75-0.75v-3c0-0.41 0.34-0.75 0.75-0.75s0.75 0.34 0.75 0.75v3c0 0.41-0.34 0.75-0.75 0.75z"/>
 <path d="m8.5 14.5c-0.26 0-0.52001-0.11-0.71001-0.29-0.04-0.05-0.08999-0.1-0.11999-0.15-0.04-0.06-0.07-0.12-0.09-0.18-0.03-0.06-0.05-0.12-0.06-0.18-0.01-0.07-0.02-0.14-0.02-0.2 0-0.26 0.10999-0.52 0.28999-0.71 0.37-0.37 1.04-0.37 1.42 0 0.18 0.19 0.28999 0.45 0.28999 0.71 0 0.06-0.01 0.13-0.02 0.2-0.01 0.06-0.03 0.12-0.06 0.18-0.02 0.06-0.05 0.12-0.09 0.18-0.04 0.05-0.07999 0.1-0.11999 0.15-0.19 0.18-0.45001 0.29-0.71001 0.29z"/>
 <path d="m12 14.5c-0.13 0-0.26-0.03-0.38-0.08-0.13-0.05-0.24-0.12-0.33-0.21-0.04-0.05-0.09-0.1-0.12-0.15-0.04-0.06-0.07-0.12-0.09-0.18-0.03-0.06-0.05-0.12-0.06-0.18-0.01-0.07-0.02-0.14-0.02-0.2 0-0.26 0.11-0.52 0.29-0.71 0.09-0.09 0.2-0.16 0.33-0.21 0.36-0.16 0.81-0.07 1.09 0.21 0.18 0.19 0.29 0.45 0.29 0.71 0 0.06-0.01 0.13-0.02 0.2-0.01 0.06-0.03 0.12-0.06 0.18-0.02 0.06-0.05 0.12-0.09 0.18l-0.12 0.15c-0.19 0.18-0.45 0.29-0.71 0.29z"/>
 <path d="m8.5 18c-0.27 0-0.52001-0.11-0.71001-0.29-0.18-0.19-0.28999-0.45-0.28999-0.71s0.10999-0.52 0.28999-0.71c0.05-0.04 0.10001-0.09 0.15001-0.12 0.06-0.04 0.12-0.07 0.18-0.09 0.06-0.03 0.12-0.05 0.18-0.06 0.2-0.04 0.4-0.02 0.58 0.06 0.13 0.05 0.23001 0.12 0.33001 0.21 0.18 0.19 0.28999 0.45 0.28999 0.71s-0.10999 0.52-0.28999 0.71c-0.1 0.09-0.20001 0.16-0.33001 0.21-0.12 0.05-0.25 0.08-0.38 0.08z"/>
 <path d="m20.5 9.8398h-17c-0.41 0-0.75-0.34-0.75-0.75s0.34-0.75 0.75-0.75h17c0.41 0 0.75 0.34 0.75 0.75s-0.34 0.75-0.75 0.75z"/>
 <path d="m18 23.75c-2.62 0-4.75-2.13-4.75-4.75s2.13-4.75 4.75-4.75 4.75 2.13 4.75 4.75-2.13 4.75-4.75 4.75zm0-8c-1.79 0-3.25 1.46-3.25 3.25s1.46 3.25 3.25 3.25 3.25-1.46 3.25-3.25-1.46-3.25-3.25-3.25z"/>
 <path d="m19.07 20.86c-0.19 0-0.38-0.07-0.53-0.22l-2.11-2.11c-0.29-0.29-0.29-0.77 0-1.06s0.77-0.29 1.06 0l2.11 2.11c0.29 0.29 0.29 0.77 0 1.06-0.15 0.15-0.34 0.22-0.53 0.22z"/>
 <path d="m16.93 20.89c-0.19 0-0.38-0.07-0.53-0.22-0.29-0.29-0.29-0.77 0-1.06l2.11-2.11c0.29-0.29 0.77-0.29 1.06 0s0.29 0.77 0 1.06l-2.11 2.11c-0.15 0.14-0.34 0.22-0.53 0.22z"/>
 <path d="m15.37 22.75h-7.37c-3.65 0-5.75-2.1-5.75-5.75v-8.5c0-3.65 2.1-5.75 5.75-5.75h8c3.65 0 5.75 2.1 5.75 5.75v7.86c0 0.31-0.19 0.59-0.49 0.7-0.29 0.11-0.62 0.03-0.83-0.21-0.62-0.7-1.51-1.1-2.44-1.1-1.79 0-3.25 1.46-3.25 3.25 0 0.59 0.16 1.17 0.47 1.67 0.17 0.3 0.39 0.55 0.63 0.76 0.24 0.2 0.33 0.53 0.22 0.83-0.09 0.29-0.37 0.49-0.69 0.49zm-7.37-18.5c-2.86 0-4.25 1.39-4.25 4.25v8.5c0 2.86 1.39 4.25 4.25 4.25h5.82c-0.37-0.68-0.57-1.45-0.57-2.25 0-2.62 2.13-4.75 4.75-4.75 0.79 0 1.57 0.2 2.25 0.57v-6.32c0-2.86-1.39-4.25-4.25-4.25h-8z"/>
</svg>
