<?xml version="1.0" encoding="UTF-8"?>
<svg width="24" height="24" viewBox="0 0 24 24" xmlns="http://www.w3.org/2000/svg">
 <path d="m17.45 22.75c-1.13 0-2.32-0.27-3.55-0.79-1.2-0.51-2.41-1.21-3.59-2.06-1.18-0.86-2.31-1.83-3.37-2.88-1.06-1.07-2.02-2.2-2.87-3.36-0.86-1.2-1.55-2.39-2.04-3.56-0.52-1.23-0.78-2.43-0.78-3.56 0-0.78 0.14-1.52 0.41-2.21 0.29-0.72 0.73-1.37 1.34-1.94 0.77-0.75 1.65-1.14 2.59-1.14 0.39 0 0.79 0.09 1.13 0.25 0.39 0.18 0.72 0.45 0.96 0.81l2.32 3.27c0.21 0.29 0.37 0.57 0.48 0.85 0.13 0.3 0.2 0.6 0.2 0.89 0 0.38-0.11 0.75-0.32 1.1-0.15 0.27-0.38 0.56-0.67 0.85l-0.68 0.71c0.01 0.03 0.02 0.05 0.03 0.07 0.12 0.21 0.36 0.57 0.82 1.11 0.48 0.56 0.95 1.06 1.41 1.54 0.6 0.59 1.08 1.04 1.54 1.42 0.57 0.48 0.94 0.72 1.16 0.83l-0.02 0.05 0.73-0.72c0.31-0.31 0.61-0.54 0.9-0.69 0.55-0.34 1.25-0.4 1.95-0.11 0.26 0.11 0.54 0.26 0.84 0.47l3.32 2.36c0.36 0.25 0.64 0.57 0.8 0.95 0.15 0.38 0.22 0.73 0.22 1.08 0 0.48-0.11 0.96-0.32 1.41s-0.47 0.84-0.8 1.2c-0.57 0.63-1.19 1.08-1.91 1.37-0.69 0.28-1.44 0.43-2.23 0.43zm-11.86-20c-0.55 0-1.06 0.24-1.55 0.72-0.45 0.43-0.78 0.9-0.98 1.41-0.21 0.52-0.31 1.07-0.31 1.66 0 0.93 0.22 1.94 0.66 2.98 0.45 1.06 1.08 2.16 1.88 3.26s1.71 2.17 2.71 3.18c1 0.99 2.08 1.91 3.19 2.72 1.08 0.79 2.19 1.43 3.29 1.89 1.71 0.73 3.31 0.9 4.63 0.35 0.51-0.21 0.96-0.53 1.37-0.99 0.23-0.25 0.41-0.52 0.56-0.84 0.12-0.25 0.18-0.51 0.18-0.77 0-0.16-0.03-0.32-0.11-0.5-0.02-0.05-0.09-0.17-0.28-0.3l-3.32-2.36c-0.2-0.14-0.38-0.24-0.55-0.31-0.26-0.1-0.43-0.11-0.65 0.03-0.2 0.1-0.38 0.25-0.58 0.45l-0.76 0.75c-0.39 0.38-0.99 0.47-1.45 0.3l-0.27-0.12c-0.41-0.22-0.89-0.56-1.42-1.01-0.49-0.41-0.99-0.88-1.63-1.51-0.5-0.51-0.98-1.04-1.49-1.62-0.47-0.55-0.81-1.02-1.02-1.41l-0.13-0.3c-0.06-0.22-0.08-0.35-0.08-0.49 0-0.36 0.13-0.68 0.38-0.93l0.75-0.78c0.2-0.2 0.35-0.39 0.45-0.56 0.08-0.13 0.11-0.24 0.11-0.34 0-0.08-0.03-0.2-0.08-0.32-0.06-0.17-0.17-0.34-0.31-0.54l-2.32-3.28c-0.1-0.14-0.22-0.24-0.37-0.31-0.16-0.07-0.33-0.11-0.5-0.11zm8.36 12.26-0.16 0.68 0.27-0.7c-0.04-0.01-0.08 0-0.11 0.02z"/>
 <path d="m20.5 6.75h-5c-0.41 0-0.75-0.34-0.75-0.75s0.34-0.75 0.75-0.75h5c0.41 0 0.75 0.34 0.75 0.75s-0.34 0.75-0.75 0.75z"/>
 <path d="m18 9.25c-0.41 0-0.75-0.34-0.75-0.75v-5c0-0.41 0.34-0.75 0.75-0.75s0.75 0.34 0.75 0.75v5c0 0.41-0.34 0.75-0.75 0.75z"/>
</svg>
