<?xml version="1.0" encoding="UTF-8"?>
<svg width="24" height="24" viewBox="0 0 24 24" xmlns="http://www.w3.org/2000/svg">
 <path d="m17.45 22.75c-1.13 0-2.32-0.27-3.55-0.79-1.2-0.51-2.41-1.21-3.59-2.06l-0.43999-0.33c-0.33-0.25-0.39-0.72-0.14-1.05s0.71999-0.39 1.05-0.14l0.42 0.31c1.08 0.79 2.19 1.43 3.29 1.89 1.71 0.73 3.31 0.9 4.63 0.35 0.51-0.21 0.96-0.53 1.37-0.99 0.23-0.25 0.41-0.52 0.56-0.84 0.12-0.25 0.18-0.51 0.18-0.77 0-0.16-0.03-0.32-0.11-0.5-0.02-0.05-0.09-0.17-0.28-0.3l-3.32-2.36c-0.2-0.14-0.38-0.24-0.55-0.31-0.26-0.1-0.43-0.11-0.65 0.03-0.2 0.1-0.38 0.25-0.58 0.45l-0.76 0.75c-0.39 0.38-0.99 0.47-1.45 0.3-0.02-0.01-0.12-0.05-0.14-0.06-0.01-0.01-0.12-0.05-0.13-0.06-0.22-0.11-0.46-0.27-0.74-0.47-0.33-0.24-0.41-0.71-0.17-1.05s0.71-0.41 1.05-0.17c0.21 0.15 0.4 0.27 0.56 0.36l-0.01 0.06 0.73-0.73c0.31-0.31 0.61-0.54 0.9-0.69 0.55-0.34 1.25-0.4 1.95-0.11 0.26 0.11 0.54 0.26 0.84 0.47l3.32 2.36c0.36 0.25 0.64 0.57 0.8 0.95 0.15 0.38 0.22 0.73 0.22 1.08 0 0.48-0.11 0.96-0.32 1.41s-0.47 0.84-0.8 1.2c-0.57 0.63-1.19 1.08-1.91 1.37-0.69 0.29-1.44 0.44-2.23 0.44zm-3.5-7.74-0.16 0.68 0.27-0.7c-0.04-0.01-0.09 0-0.11 0.02z"/>
 <path d="m7.47 17.24c-0.19 0-0.39-0.07-0.53-0.22-1.05-1.06-2.02-2.19-2.86-3.36-0.86-1.2-1.55-2.39-2.04-3.56-0.53-1.23-0.79-2.43-0.79-3.56 0-0.78 0.14-1.52 0.41-2.21 0.29-0.72 0.73-1.37 1.34-1.94 0.77-0.75 1.65-1.14 2.59-1.14 0.39 0 0.79 0.09 1.13 0.25 0.39 0.18 0.72 0.45 0.96 0.81l2.32 3.27c0.21 0.29 0.37 0.57 0.48 0.85 0.13 0.3 0.2 0.6 0.2 0.89 0 0.38-0.11 0.75-0.32 1.1-0.15 0.27-0.38 0.56-0.67 0.85l-0.68 0.71c0.01 0.03 0.02 0.05 0.03 0.07 0.12 0.21 0.36 0.57 0.82 1.11 0.48 0.56 0.95 1.06 1.41 1.54 0.29 0.3 0.29 0.77-0.01 1.06s-0.77 0.29-1.06-0.01c-0.49-0.5-0.97-1.03-1.48-1.62-0.47-0.55-0.81-1.02-1.02-1.41-0.02-0.04-0.04-0.08-0.05-0.12l-0.07-0.17c-0.06-0.22-0.08-0.35-0.08-0.49 0-0.36 0.13-0.68 0.38-0.93l0.75-0.78c0.2-0.2 0.35-0.39 0.45-0.56 0.08-0.13 0.11-0.24 0.11-0.34 0-0.08-0.03-0.2-0.08-0.32-0.08-0.19-0.19-0.36-0.33-0.56l-2.32-3.28c-0.1-0.14-0.22-0.24-0.37-0.31s-0.32-0.11-0.5-0.11c-0.55 0-1.06 0.24-1.55 0.72-0.45 0.43-0.78 0.9-0.98 1.41-0.21 0.52-0.31 1.07-0.31 1.66 0 0.93 0.22 1.94 0.66 2.98 0.45 1.06 1.08 2.16 1.88 3.26s1.71 2.17 2.71 3.18c0.29 0.29 0.29 0.77 0 1.06-0.15 0.15-0.34 0.22-0.53 0.22z"/>
 <path d="m1.9999 22.75c-0.19 0-0.38-0.07-0.53-0.22-0.29-0.29-0.29-0.77 0-1.06l20-20c0.29-0.29 0.77-0.29 1.06 0s0.29 0.77 0 1.06l-20 20c-0.15 0.15-0.34 0.22-0.53 0.22z"/>
</svg>
