<?xml version="1.0" encoding="UTF-8"?>
<svg width="24" height="24" viewBox="0 0 24 24" xmlns="http://www.w3.org/2000/svg">
 <path d="m9 10.75h-3c-0.41 0-0.75-0.34-0.75-0.75s0.34-0.75 0.75-0.75h3c0.41 0 0.75 0.34 0.75 0.75s-0.34 0.75-0.75 0.75z"/>
 <path d="m17.24 22.75h-10.48c-0.41 0-0.75-0.34-0.75-0.75s0.34-0.75 0.75-0.75h10.48c2.02 0 3.11-1.03 3.24-3.05l0.52-8.26c0.05-0.71-0.16-1.41-0.59-1.98-0.25-0.33-0.18-0.8 0.15-1.05s0.8-0.18 1.05 0.15c0.64 0.86 0.96 1.91 0.89 2.98l-0.52 8.26c-0.18 2.83-1.91 4.45-4.74 4.45z"/>
 <path d="m3.4402 21.21c-0.24 0-0.48-0.12-0.63-0.34-0.46-0.7-0.73-1.57-0.79-2.58l-0.52-8.25c-0.08-1.25 0.35-2.45 1.21-3.36 0.85-0.91 2.05-1.43 3.29-1.43 0.32 0 0.63-0.19 0.78-0.49l0.72-1.43c0.59-1.17 2.07-2.08 3.36-2.08h2.29c1.29 0 2.76 0.91 3.35 2.07l0.72 1.46c0.15 0.28 0.45 0.47 0.78 0.47 0.41 0 0.75 0.34 0.75 0.75s-0.34 0.75-0.75 0.75c-0.89 0-1.7-0.5-2.12-1.29l-0.73-1.46c-0.33-0.66-1.27-1.24-2.01-1.24h-2.29c-0.74 0-1.68 0.58-2.02 1.25l-0.71 1.43c-0.42 0.81-1.23 1.31-2.12 1.31-0.84 0-1.62 0.34-2.2 0.95-0.57 0.61-0.86 1.41-0.8 2.24l0.52 8.26c0.04 0.73 0.23 1.37 0.55 1.84 0.23 0.35 0.13 0.81-0.21 1.04-0.13 0.09-0.28 0.13-0.42 0.13z"/>
 <path d="m12 18.75c-0.89 0-1.76-0.3-2.46-0.85-0.33-0.26-0.38-0.73-0.13-1.05 0.26-0.33 0.73003-0.38 1.05-0.13 0.44 0.34 0.98 0.53 1.54 0.53 1.38 0 2.5-1.12 2.5-2.5 0-0.48-0.13-0.94-0.38-1.33-0.22-0.35-0.12-0.81 0.23-1.04 0.35-0.22 0.81-0.12 1.04 0.23 0.4 0.63 0.62 1.37 0.62 2.13-0.01 2.22-1.8 4.01-4.01 4.01z"/>
 <path d="m1.9999 22.75c-0.19 0-0.38-0.07-0.53-0.22-0.29-0.29-0.29-0.77 0-1.06l20-20c0.29-0.29 0.77-0.29 1.06 0s0.29 0.77 0 1.06l-20 20c-0.15 0.15-0.34 0.22-0.53 0.22z"/>
</svg>
