<svg width="24" height="24" viewBox="0 0 24 24"  xmlns="http://www.w3.org/2000/svg">
<path d="M21.7699 2.22988C21.4699 1.92988 20.9799 1.92988 20.6799 2.22988L2.22988 20.6899C1.92988 20.9899 1.92988 21.4799 2.22988 21.7799C2.37988 21.9199 2.56988 21.9999 2.76988 21.9999C2.96988 21.9999 3.15988 21.9199 3.30988 21.7699L21.7699 3.30988C22.0799 3.00988 22.0799 2.52988 21.7699 2.22988Z" />
<path opacity="0.4" d="M21.75 9.99L21.23 18.25C21.1 20.31 20 22 17.24 22H6.75997C6.16997 22 5.65997 21.92 5.21997 21.78L20.25 6.75C21.23 7.48 21.84 8.67 21.75 9.99Z" />
<path opacity="0.4" d="M17.9999 6L3.47992 20.52C3.02992 19.89 2.81992 19.1 2.76992 18.25L2.24992 9.99C2.10992 7.83 3.82992 6 5.99992 6C6.60992 6 7.16992 5.65 7.44992 5.11L8.16992 3.66C8.62992 2.75 9.82992 2 10.8599 2H13.1499C14.1699 2 15.3699 2.75 15.8299 3.66L16.5499 5.11C16.8299 5.65 17.3899 6 17.9999 6Z" />
<path d="M9.5 10.75H6.5C6.09 10.75 5.75 10.41 5.75 10C5.75 9.59 6.09 9.25 6.5 9.25H9.5C9.91 9.25 10.25 9.59 10.25 10C10.25 10.41 9.91 10.75 9.5 10.75Z" />
<path d="M12.5699 11.4299L8.67988 15.3199C8.64988 15.1399 8.62988 14.9399 8.62988 14.7499C8.62988 12.8899 10.1399 11.3799 11.9999 11.3799C12.1899 11.3799 12.3899 11.3999 12.5699 11.4299Z" />
<path d="M15.38 14.75C15.38 16.61 13.86 18.12 12 18.12C11.13 18.12 10.34 17.79 9.75 17.25L14.5 12.5C15.05 13.09 15.38 13.88 15.38 14.75Z" />
</svg>
