<?xml version="1.0" encoding="UTF-8"?>
<svg width="24" height="24" viewBox="0 0 24 24" xmlns="http://www.w3.org/2000/svg">
 <path d="m17.24 22.75h-10.48c-2.8 0-4.58-1.67-4.74-4.46l-0.52-8.25c-0.08-1.25 0.35-2.45 1.21-3.36 0.85-0.91 2.05-1.43 3.29-1.43 0.32 0 0.63-0.19 0.78-0.49l0.72-1.43c0.59-1.17 2.07-2.08 3.36-2.08h2.29c1.29 0 2.76 0.91 3.35 2.07l0.72 1.46c0.15 0.28 0.45 0.47 0.78 0.47 1.24 0 2.44 0.52 3.29 1.43 0.86 0.92 1.29 2.11 1.21 3.36l-0.52 8.26c-0.18 2.83-1.91 4.45-4.74 4.45zm-6.38-20c-0.74 0-1.68 0.58-2.02 1.25l-0.72 1.44c-0.42 0.81-1.23 1.31-2.12 1.31-0.84 0-1.62 0.34-2.2 0.95-0.57 0.61-0.86 1.41-0.8 2.24l0.52 8.26c0.12 2.02 1.21 3.05 3.24 3.05h10.48c2.02 0 3.11-1.03 3.24-3.05l0.52-8.26c0.05-0.83-0.23-1.63-0.8-2.24-0.58-0.61-1.36-0.95-2.2-0.95-0.89 0-1.7-0.5-2.12-1.29l-0.73-1.46c-0.33-0.66-1.27-1.24-2.01-1.24h-2.28v-0.01z"/>
 <path d="m13.5 8.75h-3c-0.41 0-0.75-0.34-0.75-0.75s0.34-0.75 0.75-0.75h3c0.41 0 0.75 0.34 0.75 0.75s-0.34 0.75-0.75 0.75z"/>
 <path d="m12 18.75c-2.21 0-4-1.79-4-4s1.79-4 4-4 4 1.79 4 4-1.79 4-4 4zm0-6.5c-1.38 0-2.5 1.12-2.5 2.5s1.12 2.5 2.5 2.5 2.5-1.12 2.5-2.5-1.12-2.5-2.5-2.5z"/>
</svg>
