<?xml version="1.0" encoding="UTF-8"?>
<svg width="24" height="24" viewBox="0 0 24 24" xmlns="http://www.w3.org/2000/svg">
 <path d="m6.5 22.75c-0.41 0-0.75-0.34-0.75-0.75v-7c0-0.41 0.34-0.75 0.75-0.75s0.75 0.34 0.75 0.75v7c0 0.41-0.34 0.75-0.75 0.75z"/>
 <path d="m6.5 5.75c-0.41 0-0.75-0.34-0.75-0.75v-3c0-0.41 0.34-0.75 0.75-0.75s0.75 0.34 0.75 0.75v3c0 0.41-0.34 0.75-0.75 0.75z"/>
 <path d="m17.5 22.75c-0.41 0-0.75-0.34-0.75-0.75v-3c0-0.41 0.34-0.75 0.75-0.75s0.75 0.34 0.75 0.75v3c0 0.41-0.34 0.75-0.75 0.75z"/>
 <path d="m17.5 9.75c-0.41 0-0.75-0.34-0.75-0.75v-7c0-0.41 0.34-0.75 0.75-0.75s0.75 0.34 0.75 0.75v7c0 0.41-0.34 0.75-0.75 0.75z"/>
 <path d="m7.5 15.75h-2c-1.72 0-2.75-1.03-2.75-2.75v-6c0-1.72 1.03-2.75 2.75-2.75h2c1.72 0 2.75 1.03 2.75 2.75v6c0 1.72-1.03 2.75-2.75 2.75zm-2-10c-0.89 0-1.25 0.36-1.25 1.25v6c0 0.89 0.36 1.25 1.25 1.25h2c0.89 0 1.25-0.36 1.25-1.25v-6c0-0.89-0.36-1.25-1.25-1.25h-2z"/>
 <path d="m18.5 19.75h-2c-1.72 0-2.75-1.03-2.75-2.75v-6c0-1.72 1.03-2.75 2.75-2.75h2c1.72 0 2.75 1.03 2.75 2.75v6c0 1.72-1.03 2.75-2.75 2.75zm-2-10c-0.89 0-1.25 0.36-1.25 1.25v6c0 0.89 0.36 1.25 1.25 1.25h2c0.89 0 1.25-0.36 1.25-1.25v-6c0-0.89-0.36-1.25-1.25-1.25h-2z"/>
</svg>
