<?xml version="1.0" encoding="UTF-8"?>
<svg width="24" height="24" viewBox="0 0 24 24" xmlns="http://www.w3.org/2000/svg">
 <path d="m22 18.25h-7c-0.41 0-0.75-0.34-0.75-0.75s0.34-0.75 0.75-0.75h7c0.41 0 0.75 0.34 0.75 0.75s-0.34 0.75-0.75 0.75z"/>
 <path d="m5 18.25h-3c-0.41 0-0.75-0.34-0.75-0.75s0.34-0.75 0.75-0.75h3c0.41 0 0.75 0.34 0.75 0.75s-0.34 0.75-0.75 0.75z"/>
 <path d="m22 7.25h-3c-0.41 0-0.75-0.34-0.75-0.75s0.34-0.75 0.75-0.75h3c0.41 0 0.75 0.34 0.75 0.75s-0.34 0.75-0.75 0.75z"/>
 <path d="m9 7.25h-7c-0.41 0-0.75-0.34-0.75-0.75s0.34-0.75 0.75-0.75h7c0.41 0 0.75 0.34 0.75 0.75s-0.34 0.75-0.75 0.75z"/>
 <path d="m13 21.25h-6c-1.72 0-2.75-1.03-2.75-2.75v-2c0-1.72 1.03-2.75 2.75-2.75h6c1.72 0 2.75 1.03 2.75 2.75v2c0 1.72-1.03 2.75-2.75 2.75zm-6-6c-0.89 0-1.25 0.36-1.25 1.25v2c0 0.89 0.36 1.25 1.25 1.25h6c0.89 0 1.25-0.36 1.25-1.25v-2c0-0.89-0.36-1.25-1.25-1.25h-6z"/>
 <path d="m17 10.25h-6c-1.72 0-2.75-1.03-2.75-2.75v-2c0-1.72 1.03-2.75 2.75-2.75h6c1.72 0 2.75 1.03 2.75 2.75v2c0 1.72-1.03 2.75-2.75 2.75zm-6-6c-0.89 0-1.25 0.36-1.25 1.25v2c0 0.89 0.36 1.25 1.25 1.25h6c0.89 0 1.25-0.36 1.25-1.25v-2c0-0.89-0.36-1.25-1.25-1.25h-6z"/>
</svg>
