<?xml version="1.0" encoding="UTF-8"?>
<svg width="24" height="24" viewBox="0 0 24 24" xmlns="http://www.w3.org/2000/svg">
 <path d="m19.999 11.75h-16c-0.23 0-0.44-0.1-0.58-0.28-0.14-0.17-0.2-0.41-0.15-0.63l1.13-5.4c0.37-1.75 1.12-3.36 4.09-3.36h7.03c2.97 0 3.72 1.62 4.09 3.36l1.13 5.41c0.05 0.22-0.01 0.45-0.15 0.63-0.15 0.17-0.36 0.27-0.59 0.27zm-15.08-1.5h14.15l-0.94-4.5c-0.28-1.31-0.61-2.17-2.62-2.17h-7.02c-2.01 0-2.34 0.86-2.62 2.17l-0.95 4.5z"/>
 <path d="m19.96 22.75h-1.88c-1.62 0-1.93-0.93-2.13-1.54l-0.2-0.6c-0.26-0.76-0.29-0.86-1.19-0.86h-5.12c-0.9 0-0.96 0.17-1.19 0.86l-0.2 0.6c-0.21 0.62-0.51 1.54-2.13 1.54h-1.88c-0.79 0-1.55-0.33-2.08-0.91-0.52-0.57-0.77-1.33-0.7-2.09l0.56-6.09c0.15-1.65 0.59-3.41 3.8-3.41h12.76c3.21 0 3.64 1.76 3.8 3.41l0.56 6.09c0.07 0.76-0.18 1.52-0.7 2.09-0.53 0.58-1.29 0.91-2.08 0.91zm-10.52-4.5h5.12c1.82 0 2.25 0.81 2.61 1.87l0.21 0.62c0.17 0.51 0.17 0.52 0.71 0.52h1.88c0.37 0 0.72-0.15 0.97-0.42 0.24-0.26 0.35-0.59 0.32-0.94l-0.56-6.09c-0.13-1.35-0.29-2.05-2.3-2.05h-12.78c-2.02 0-2.18 0.7-2.3 2.05l-0.56 6.09c-0.03 0.35 0.08 0.68 0.32 0.94 0.24 0.27 0.6 0.42 0.97 0.42h1.88c0.54 0 0.54-0.01 0.71-0.51l0.2-0.61c0.25-0.8 0.62-1.89 2.6-1.89z"/>
 <path d="m3.9995 8.75h-1c-0.41 0-0.75-0.34-0.75-0.75s0.34-0.75 0.75-0.75h1c0.41 0 0.75 0.34 0.75 0.75s-0.34 0.75-0.75 0.75z"/>
 <path d="m21 8.75h-1c-0.41 0-0.75-0.34-0.75-0.75s0.34-0.75 0.75-0.75h1c0.41 0 0.75 0.34 0.75 0.75s-0.34 0.75-0.75 0.75z"/>
 <path d="m12 5.75c-0.41 0-0.75-0.34-0.75-0.75v-2c0-0.41 0.34-0.75 0.75-0.75s0.75 0.34 0.75 0.75v2c0 0.41-0.34 0.75-0.75 0.75z"/>
 <path d="m13.5 5.75h-3c-0.41 0-0.74999-0.34-0.74999-0.75s0.33999-0.75 0.74999-0.75h3c0.41 0 0.75 0.34 0.75 0.75s-0.34 0.75-0.75 0.75z"/>
 <path d="m8.9995 15.75h-3c-0.41 0-0.75-0.34-0.75-0.75s0.34-0.75 0.75-0.75h3c0.41 0 0.75 0.34 0.75 0.75s-0.34 0.75-0.75 0.75z"/>
 <path d="m18 15.75h-3c-0.41 0-0.75-0.34-0.75-0.75s0.34-0.75 0.75-0.75h3c0.41 0 0.75 0.34 0.75 0.75s-0.34 0.75-0.75 0.75z"/>
</svg>
