<?xml version="1.0" encoding="UTF-8"?>
<svg width="24" height="24" viewBox="0 0 24 24" xmlns="http://www.w3.org/2000/svg">
 <path d="m13.5 9.25h-11.5c-0.41 0-0.75-0.34-0.75-0.75s0.34-0.75 0.75-0.75h11.5c0.41 0 0.75 0.34 0.75 0.75s-0.34 0.75-0.75 0.75z"/>
 <path d="m8 17.25h-2c-0.41 0-0.75-0.34-0.75-0.75s0.34-0.75 0.75-0.75h2c0.41 0 0.75 0.34 0.75 0.75s-0.34 0.75-0.75 0.75z"/>
 <path d="m14.5 17.25h-4c-0.41 0-0.75-0.34-0.75-0.75s0.34-0.75 0.75-0.75h4c0.41 0 0.75 0.34 0.75 0.75s-0.34 0.75-0.75 0.75z"/>
 <path d="m17.56 21.25h-11.12c-3.98 0-5.19-1.2-5.19-5.14v-8.22c0-3.94 1.21-5.14 5.19-5.14h7.06c0.41 0 0.75 0.34 0.75 0.75s-0.34 0.75-0.75 0.75h-7.06c-3.14 0-3.69 0.54-3.69 3.64v8.21c0 3.1 0.55 3.64 3.69 3.64h11.11c3.14 0 3.69-0.54 3.69-3.64v-5.08c0-0.41 0.34-0.75 0.75-0.75s0.75 0.34 0.75 0.75v5.08c0.01 3.95-1.2 5.15-5.18 5.15z"/>
 <path d="m18 8.25c-0.19 0-0.38-0.07-0.53-0.22l-1.5-1.5c-0.29-0.29-0.29-0.77 0-1.06s0.77-0.29 1.06 0l0.97 0.97 3.47-3.47c0.29-0.29 0.77-0.29 1.06 0s0.29 0.77 0 1.06l-4 4c-0.15 0.15-0.34 0.22-0.53 0.22z"/>
</svg>
