<svg width="24" height="24" viewBox="0 0 24 24"  xmlns="http://www.w3.org/2000/svg">
<path d="M13.7498 10.5002C12.9198 10.5002 12.2498 9.8302 12.2498 9.0002C12.2498 8.1702 12.9198 7.5002 13.7498 7.5002C14.5798 7.5002 15.2498 8.1702 15.2498 9.0002C15.2498 9.8302 14.5798 10.5002 13.7498 10.5002ZM13.7498 8.5002C13.4698 8.5002 13.2498 8.7202 13.2498 9.0002C13.2498 9.2802 13.4698 9.5002 13.7498 9.5002C14.0298 9.5002 14.2498 9.2802 14.2498 9.0002C14.2498 8.7202 14.0298 8.5002 13.7498 8.5002Z" />
<path d="M10.2498 10.5002C9.41982 10.5002 8.74982 9.8302 8.74982 9.0002C8.74982 8.1702 9.41982 7.5002 10.2498 7.5002C11.0798 7.5002 11.7498 8.1702 11.7498 9.0002C11.7498 9.8302 11.0798 10.5002 10.2498 10.5002ZM10.2498 8.5002C9.96982 8.5002 9.74982 8.7202 9.74982 9.0002C9.74982 9.2802 9.96982 9.5002 10.2498 9.5002C10.5298 9.5002 10.7498 9.2802 10.7498 9.0002C10.7498 8.7202 10.5298 8.5002 10.2498 8.5002Z" />
<path d="M15.4998 13.5002C14.6698 13.5002 13.9998 12.8302 13.9998 12.0002C13.9998 11.1702 14.6698 10.5002 15.4998 10.5002C16.3298 10.5002 16.9998 11.1702 16.9998 12.0002C16.9998 12.8302 16.3298 13.5002 15.4998 13.5002ZM15.4998 11.5002C15.2198 11.5002 14.9998 11.7202 14.9998 12.0002C14.9998 12.2802 15.2198 12.5002 15.4998 12.5002C15.7798 12.5002 15.9998 12.2802 15.9998 12.0002C15.9998 11.7202 15.7798 11.5002 15.4998 11.5002Z" />
<path d="M17.1498 10.2502C16.4598 10.2502 15.8998 9.6902 15.8998 9.0002C15.8998 8.3102 16.4598 7.7502 17.1498 7.7502C17.8398 7.7502 18.3998 8.3102 18.3998 9.0002C18.3998 9.6902 17.8398 10.2502 17.1498 10.2502ZM17.1498 8.7502C17.0098 8.7502 16.8998 8.8602 16.8998 9.0002C16.8998 9.2802 17.3998 9.2802 17.3998 9.0002C17.3998 8.8602 17.2898 8.7502 17.1498 8.7502Z" />
<path d="M17.1498 16.2502C16.4598 16.2502 15.8998 15.6902 15.8998 15.0002C15.8998 14.3102 16.4598 13.7502 17.1498 13.7502C17.8398 13.7502 18.3998 14.3102 18.3998 15.0002C18.3998 15.6902 17.8398 16.2502 17.1498 16.2502ZM17.1498 14.7502C17.0098 14.7502 16.8998 14.8602 16.8998 15.0002C16.8998 15.2802 17.3998 15.2802 17.3998 15.0002C17.3998 14.8602 17.2898 14.7502 17.1498 14.7502Z" />
<path d="M19.7498 13.2502C19.0598 13.2502 18.4998 12.6902 18.4998 12.0002C18.4998 11.3102 19.0598 10.7502 19.7498 10.7502C20.4398 10.7502 20.9998 11.3102 20.9998 12.0002C20.9998 12.6902 20.4398 13.2502 19.7498 13.2502ZM19.7498 11.7502C19.6098 11.7502 19.4998 11.8602 19.4998 12.0002C19.4998 12.2802 19.9998 12.2802 19.9998 12.0002C19.9998 11.8602 19.8898 11.7502 19.7498 11.7502Z" />
<path d="M6.7998 10.2502C6.1098 10.2502 5.5498 9.6902 5.5498 9.0002C5.5498 8.3102 6.1098 7.7502 6.7998 7.7502C7.4898 7.7502 8.0498 8.3102 8.0498 9.0002C8.0498 9.6902 7.4898 10.2502 6.7998 10.2502ZM6.7998 8.7502C6.6598 8.7502 6.5498 8.8602 6.5498 9.0002C6.5498 9.2802 7.0498 9.2802 7.0498 9.0002C7.0498 8.8602 6.9398 8.7502 6.7998 8.7502Z" />
<path d="M6.7998 16.2502C6.1098 16.2502 5.5498 15.6902 5.5498 15.0002C5.5498 14.3102 6.1098 13.7502 6.7998 13.7502C7.4898 13.7502 8.0498 14.3102 8.0498 15.0002C8.0498 15.6902 7.4898 16.2502 6.7998 16.2502ZM6.7998 14.7502C6.6598 14.7502 6.5498 14.8602 6.5498 15.0002C6.5498 15.2802 7.0498 15.2802 7.0498 15.0002C7.0498 14.8602 6.9398 14.7502 6.7998 14.7502Z" />
<path d="M4.19983 13.2502C3.50983 13.2502 2.94983 12.6902 2.94983 12.0002C2.94983 11.3102 3.50983 10.7502 4.19983 10.7502C4.88983 10.7502 5.44983 11.3102 5.44983 12.0002C5.44983 12.6902 4.88983 13.2502 4.19983 13.2502ZM4.19983 11.7502C4.05983 11.7502 3.94983 11.8602 3.94983 12.0002C3.94983 12.2802 4.44983 12.2802 4.44983 12.0002C4.44983 11.8602 4.33983 11.7502 4.19983 11.7502Z" />
<path d="M15.8998 6.4502C15.2098 6.4502 14.6498 5.8902 14.6498 5.2002C14.6498 4.5102 15.2098 3.9502 15.8998 3.9502C16.5898 3.9502 17.1498 4.5102 17.1498 5.2002C17.1498 5.8902 16.5898 6.4502 15.8998 6.4502ZM15.8998 4.9502C15.7598 4.9502 15.6498 5.0602 15.6498 5.2002C15.6498 5.4802 16.1498 5.4802 16.1498 5.2002C16.1498 5.0602 16.0398 4.9502 15.8998 4.9502Z" />
<path d="M8.09982 6.4502C7.40982 6.4502 6.84982 5.8902 6.84982 5.2002C6.84982 4.5102 7.40982 3.9502 8.09982 3.9502C8.78982 3.9502 9.34982 4.5102 9.34982 5.2002C9.34982 5.8902 8.78982 6.4502 8.09982 6.4502ZM8.09982 4.9502C7.95982 4.9502 7.84982 5.0602 7.84982 5.2002C7.84982 5.4802 8.34982 5.4802 8.34982 5.2002C8.34982 5.0602 8.23982 4.9502 8.09982 4.9502Z" />
<path d="M12.0498 7.2502C11.3598 7.2502 10.7998 6.6902 10.7998 6.0002C10.7998 5.3102 11.3598 4.7502 12.0498 4.7502C12.7398 4.7502 13.2998 5.3102 13.2998 6.0002C13.2998 6.6902 12.7398 7.2502 12.0498 7.2502ZM12.0498 5.7502C11.9098 5.7502 11.7998 5.8602 11.7998 6.0002C11.7998 6.2802 12.2998 6.2802 12.2998 6.0002C12.2998 5.8602 12.1898 5.7502 12.0498 5.7502Z" />
<path d="M15.8998 20.2502C15.2098 20.2502 14.6498 19.6902 14.6498 19.0002C14.6498 18.3102 15.2098 17.7502 15.8998 17.7502C16.5898 17.7502 17.1498 18.3102 17.1498 19.0002C17.1498 19.6902 16.5898 20.2502 15.8998 20.2502ZM15.8998 18.7502C15.7598 18.7502 15.6498 18.8602 15.6498 19.0002C15.6498 19.2802 16.1498 19.2802 16.1498 19.0002C16.1498 18.8602 16.0398 18.7502 15.8998 18.7502Z" />
<path d="M8.09982 20.2502C7.40982 20.2502 6.84982 19.6902 6.84982 19.0002C6.84982 18.3102 7.40982 17.7502 8.09982 17.7502C8.78982 17.7502 9.34982 18.3102 9.34982 19.0002C9.34982 19.6902 8.78982 20.2502 8.09982 20.2502ZM8.09982 18.7502C7.95982 18.7502 7.84982 18.8602 7.84982 19.0002C7.84982 19.2802 8.34982 19.2802 8.34982 19.0002C8.34982 18.8602 8.23982 18.7502 8.09982 18.7502Z" />
<path d="M12.0498 19.4502C11.3598 19.4502 10.7998 18.8902 10.7998 18.2002C10.7998 17.5102 11.3598 16.9502 12.0498 16.9502C12.7398 16.9502 13.2998 17.5102 13.2998 18.2002C13.2998 18.8902 12.7398 19.4502 12.0498 19.4502ZM12.0498 17.9502C11.9098 17.9502 11.7998 18.0602 11.7998 18.2002C11.7998 18.4802 12.2998 18.4802 12.2998 18.2002C12.2998 18.0602 12.1898 17.9502 12.0498 17.9502Z" />
<path d="M8.49982 13.5002C7.66982 13.5002 6.99982 12.8302 6.99982 12.0002C6.99982 11.1702 7.66982 10.5002 8.49982 10.5002C9.32982 10.5002 9.99982 11.1702 9.99982 12.0002C9.99982 12.8302 9.32982 13.5002 8.49982 13.5002ZM8.49982 11.5002C8.21982 11.5002 7.99982 11.7202 7.99982 12.0002C7.99982 12.2802 8.21982 12.5002 8.49982 12.5002C8.77982 12.5002 8.99982 12.2802 8.99982 12.0002C8.99982 11.7202 8.77982 11.5002 8.49982 11.5002Z" />
<path d="M10.2498 16.5002C9.41982 16.5002 8.74982 15.8302 8.74982 15.0002C8.74982 14.1702 9.41982 13.5002 10.2498 13.5002C11.0798 13.5002 11.7498 14.1702 11.7498 15.0002C11.7498 15.8302 11.0798 16.5002 10.2498 16.5002ZM10.2498 14.5002C9.96982 14.5002 9.74982 14.7202 9.74982 15.0002C9.74982 15.2802 9.96982 15.5002 10.2498 15.5002C10.5298 15.5002 10.7498 15.2802 10.7498 15.0002C10.7498 14.7202 10.5298 14.5002 10.2498 14.5002Z" />
<path d="M13.7498 16.5002C12.9198 16.5002 12.2498 15.8302 12.2498 15.0002C12.2498 14.1702 12.9198 13.5002 13.7498 13.5002C14.5798 13.5002 15.2498 14.1702 15.2498 15.0002C15.2498 15.8302 14.5798 16.5002 13.7498 16.5002ZM13.7498 14.5002C13.4698 14.5002 13.2498 14.7202 13.2498 15.0002C13.2498 15.2802 13.4698 15.5002 13.7498 15.5002C14.0298 15.5002 14.2498 15.2802 14.2498 15.0002C14.2498 14.7202 14.0298 14.5002 13.7498 14.5002Z" />
<path d="M11.9998 3.4502C11.4398 3.4502 10.9898 3.0002 10.9898 2.4502C10.9898 1.9002 11.4398 1.4502 11.9898 1.4502C12.5398 1.4502 12.9898 1.9002 12.9898 2.4502C12.9898 3.0002 12.5598 3.4502 11.9998 3.4502Z" />
<path d="M17.2498 3.6002C16.8298 3.6002 16.4898 3.2602 16.4898 2.8502C16.4898 2.4402 16.8298 2.1002 17.2398 2.1002C17.6498 2.1002 17.9998 2.4402 17.9998 2.8502C17.9998 3.2602 17.6698 3.6002 17.2498 3.6002Z" />
<path d="M6.74982 3.6002C6.33982 3.6002 5.99982 3.2602 5.99982 2.8502C5.99982 2.4402 6.32982 2.1002 6.74982 2.1002H6.75983C7.16983 2.1002 7.50983 2.4402 7.50983 2.8502C7.50983 3.2602 7.16982 3.6002 6.74982 3.6002Z" />
<path d="M11.9998 22.5002C11.4398 22.5002 10.9898 22.0502 10.9898 21.5002C10.9898 20.9502 11.4398 20.5002 11.9898 20.5002C12.5398 20.5002 12.9898 20.9502 12.9898 21.5002C12.9898 22.0502 12.5598 22.5002 11.9998 22.5002Z" />
<path d="M17.2498 21.8502C16.8298 21.8502 16.4898 21.5102 16.4898 21.1002C16.4898 20.6902 16.8298 20.3502 17.2398 20.3502C17.6498 20.3502 17.9998 20.6902 17.9998 21.1002C17.9998 21.5102 17.6698 21.8502 17.2498 21.8502Z" />
<path d="M6.74982 21.8502C6.33982 21.8502 5.99982 21.5102 5.99982 21.1002C5.99982 20.6902 6.32982 20.3502 6.74982 20.3502H6.75983C7.16983 20.3502 7.50983 20.6902 7.50983 21.1002C7.50983 21.5102 7.16982 21.8502 6.74982 21.8502Z" />
<path d="M1.5498 13.0002C0.999805 13.0002 0.549805 12.5602 0.549805 12.0002C0.549805 11.4502 0.999805 11.0002 1.5498 11.0002C2.0998 11.0002 2.5498 11.4502 2.5498 12.0002C2.5498 12.5502 2.0998 13.0002 1.5498 13.0002Z" />
<path d="M3.74982 17.7502C3.33982 17.7502 2.99982 17.4202 2.99982 17.0002V16.9902C2.99982 16.5802 3.33982 16.2402 3.74982 16.2402C4.15982 16.2402 4.49982 16.5802 4.49982 16.9902C4.49982 17.4002 4.15982 17.7502 3.74982 17.7502Z" />
<path d="M3.74982 7.7602C3.33982 7.7602 2.99982 7.4202 2.99982 7.0102C2.99982 6.6002 3.33982 6.2602 3.74982 6.2602C4.15982 6.2602 4.49982 6.5902 4.49982 7.0002V7.0102C4.49982 7.4202 4.15982 7.7602 3.74982 7.7602Z" />
<path d="M22.4998 13.0002C21.9498 13.0002 21.4998 12.5602 21.4998 12.0002C21.4998 11.4502 21.9498 11.0002 22.4998 11.0002C23.0498 11.0002 23.4998 11.4502 23.4998 12.0002C23.4998 12.5502 23.0498 13.0002 22.4998 13.0002Z" />
<path d="M20.2998 17.7502C19.8898 17.7502 19.5498 17.4202 19.5498 17.0002V16.9902C19.5498 16.5802 19.8898 16.2402 20.2998 16.2402C20.7098 16.2402 21.0498 16.5802 21.0498 16.9902C21.0498 17.4002 20.7098 17.7502 20.2998 17.7502Z" />
<path d="M20.2998 7.7602C19.8898 7.7602 19.5498 7.4202 19.5498 7.0102C19.5498 6.6002 19.8898 6.2602 20.2998 6.2602C20.7098 6.2602 21.0498 6.5902 21.0498 7.0102V7.0202C21.0498 7.4202 20.7098 7.7602 20.2998 7.7602Z" />
</svg>
