<?xml version="1.0" encoding="UTF-8"?>
<svg width="24" height="24" viewBox="0 0 24 24" xmlns="http://www.w3.org/2000/svg">
 <path d="m21.9 10.78h-20c-0.41 0-0.75-0.34-0.75-0.75 0-0.40997 0.34-0.74997 0.75-0.74997h20c0.41 0 0.75 0.34 0.75 0.74997 0 0.41-0.33 0.75-0.75 0.75z"/>
 <path d="m11.46 21.28h-5.11c-3.98 0-5.2-1.2-5.2-5.14v-8.22c0-3.15 0.66999-4.9 4.24-5.11 0.31-0.01 0.61996-0.02 0.95996-0.02h11.11c3.98 0 5.2 1.2 5.2 5.14v4.41c0 0.41-0.34 0.75-0.75 0.75s-0.75-0.34-0.75-0.75v-4.41c0-3.09-0.55-3.64-3.7-3.64h-11.11c-0.32 0-0.60995 0.01-0.88995 0.02-2.17 0.13-2.81 0.62-2.81 3.62v8.22c0 3.09 0.54995 3.64 3.7 3.64h5.11c0.41 0 0.75 0.34 0.75 0.75s-0.34 0.74-0.75 0.74z"/>
 <path d="m17.9 22.78c-2.62 0-4.75-2.13-4.75-4.75s2.13-4.75 4.75-4.75 4.75 2.13 4.75 4.75-2.13 4.75-4.75 4.75zm0-8c-1.79 0-3.25 1.46-3.25 3.25s1.46 3.25 3.25 3.25 3.25-1.46 3.25-3.25-1.46-3.25-3.25-3.25z"/>
 <path d="m18.97 19.9c-0.19 0-0.38-0.07-0.53-0.22l-2.11-2.11c-0.29-0.29-0.29-0.77 0-1.06s0.77-0.29 1.06 0l2.11 2.11c0.29 0.29 0.29 0.77 0 1.06-0.14 0.14-0.34 0.22-0.53 0.22z"/>
 <path d="m16.83 19.92c-0.19 0-0.38-0.07-0.53-0.22-0.29-0.29-0.29-0.77 0-1.06l2.11-2.11c0.29-0.29 0.77-0.29 1.06 0s0.29 0.77 0 1.06l-2.11 2.11c-0.14 0.15-0.33 0.22-0.53 0.22z"/>
 <path d="m9.8999 16.78h-4c-0.41 0-0.75-0.34-0.75-0.75s0.34-0.75 0.75-0.75h4c0.41 0 0.75 0.34 0.75 0.75s-0.33 0.75-0.75 0.75z"/>
</svg>
