<svg width="24" height="24" viewBox="0 0 24 24"  xmlns="http://www.w3.org/2000/svg">
<path opacity="0.4" d="M21.9999 9V16.46C21.9999 18.75 20.1399 20.6 17.8499 20.6H6.3999L9.9699 17.03L11.2499 15.75L17.9999 9H21.9999Z" />
<path opacity="0.4" d="M15 9L4 20C2.8 19.28 2 17.96 2 16.46V9H15Z" />
<path d="M22 7.53978V8.99978H18L21.47 5.52979C21.81 6.11979 22 6.80978 22 7.53978Z" />
<path d="M20 3.9999L15 8.9999H2V7.5399C2 5.2499 3.86 3.3999 6.15 3.3999H17.85C18.64 3.3999 19.37 3.6199 20 3.9999Z" />
<path d="M8.21 15.79L6.75 17.25H6C5.59 17.25 5.25 16.91 5.25 16.5C5.25 16.09 5.59 15.75 6 15.75H8C8.07 15.75 8.14 15.76 8.21 15.79Z" />
<path d="M15.25 16.5C15.25 16.91 14.91 17.25 14.5 17.25H10.5C10.3 17.25 10.11 17.16 9.96997 17.03L11.25 15.75H14.5C14.91 15.75 15.25 16.09 15.25 16.5Z" />
<path d="M21.7699 2.22988C21.4699 1.92988 20.9799 1.92988 20.6799 2.22988L2.22988 20.6899C1.92988 20.9899 1.92988 21.4799 2.22988 21.7799C2.37988 21.9199 2.56988 21.9999 2.76988 21.9999C2.96988 21.9999 3.15988 21.9199 3.30988 21.7699L21.7699 3.30988C22.0799 3.00988 22.0799 2.52988 21.7699 2.22988Z" />
</svg>
