<svg width="24" height="24" viewBox="0 0 24 24"  xmlns="http://www.w3.org/2000/svg">
<path d="M18.8999 15.0298C16.6899 15.0298 14.8999 16.8198 14.8999 19.0298C14.8999 21.2398 16.6899 23.0298 18.8999 23.0298C21.1099 23.0298 22.8999 21.2398 22.8999 19.0298C22.8999 16.8198 21.1099 15.0298 18.8999 15.0298ZM20.4999 20.6798C20.3499 20.8298 20.1598 20.8998 19.9698 20.8998C19.7798 20.8998 19.5899 20.8298 19.4399 20.6798L18.9099 20.1498L18.3599 20.6998C18.2099 20.8498 18.0199 20.9198 17.8299 20.9198C17.6399 20.9198 17.4499 20.8498 17.2999 20.6998C17.0099 20.4098 17.0099 19.9298 17.2999 19.6398L17.8499 19.0898L17.3199 18.5598C17.0299 18.2698 17.0299 17.7898 17.3199 17.4998C17.6099 17.2098 18.0899 17.2098 18.3799 17.4998L18.9099 18.0298L19.4099 17.5298C19.6999 17.2398 20.1798 17.2398 20.4698 17.5298C20.7598 17.8198 20.7598 18.2998 20.4698 18.5898L19.9698 19.0898L20.4999 19.6198C20.7899 19.9098 20.7899 20.3898 20.4999 20.6798Z" />
<path d="M22 7.5399V8.9999H2V7.5399C2 5.2499 3.86002 3.3999 6.15002 3.3999H17.85C20.14 3.3999 22 5.2499 22 7.5399Z" />
<path opacity="0.4" d="M2 9V16.46C2 18.75 3.85001 20.6 6.14001 20.6H12.4C12.98 20.6 13.48 20.11 13.43 19.53C13.29 18 13.78 16.34 15.14 15.02C15.7 14.47 16.39 14.05 17.14 13.81C18.39 13.41 19.6 13.46 20.67 13.82C21.32 14.04 22 13.57 22 12.88V9H2ZM8 17.25H6C5.59 17.25 5.25 16.91 5.25 16.5C5.25 16.09 5.59 15.75 6 15.75H8C8.41 15.75 8.75 16.09 8.75 16.5C8.75 16.91 8.41 17.25 8 17.25Z" />
<path d="M8.75 16.5C8.75 16.91 8.41 17.25 8 17.25H6C5.59 17.25 5.25 16.91 5.25 16.5C5.25 16.09 5.59 15.75 6 15.75H8C8.41 15.75 8.75 16.09 8.75 16.5Z" />
</svg>
