<?xml version="1.0" encoding="UTF-8"?>
<svg width="24" height="24" viewBox="0 0 24 24" xmlns="http://www.w3.org/2000/svg">
 <path d="m22 10.75h-20c-0.41 0-0.75-0.34-0.75-0.75s0.34-0.75 0.75-0.75h20c0.41 0 0.75 0.34 0.75 0.75s-0.34 0.75-0.75 0.75z"/>
 <path d="m11.55 21.25h-5.11c-3.98 0-5.2-1.2-5.2-5.14v-8.22c0-3.15 0.66999-4.9 4.24-5.11 0.3-0.01 0.62003-0.02 0.96003-0.02h11.11c3.98 0 5.2 1.2 5.2 5.14v4.41c0 0.41-0.34 0.75-0.75 0.75s-0.75-0.34-0.75-0.75v-4.41c0-3.09-0.55-3.64-3.7-3.64h-11.11c-0.32 0-0.61002 0.01-0.89002 0.02-2.17 0.13-2.81 0.62-2.81 3.62v8.22c0 3.09 0.55002 3.64 3.7 3.64h5.11c0.41 0 0.75 0.34 0.75 0.75s-0.33 0.74-0.75 0.74z"/>
 <path d="m10 16.75h-4c-0.41 0-0.75-0.34-0.75-0.75s0.34-0.75 0.75-0.75h4c0.41 0 0.75 0.34 0.75 0.75s-0.34 0.75-0.75 0.75z"/>
 <path d="m18 22.75c-1.66 0-3.22-0.88-4.06-2.31-0.45-0.72-0.69-1.57-0.69-2.44 0-2.62 2.13-4.75 4.75-4.75s4.75 2.13 4.75 4.75c0 0.87-0.24 1.72-0.69 2.45-0.84 1.42-2.4 2.3-4.06 2.3zm0-8c-1.79 0-3.25 1.46-3.25 3.25 0 0.59 0.16 1.17 0.47 1.67 0.58 0.98 1.65 1.58 2.78 1.58s2.2-0.6 2.78-1.57c0.31-0.51 0.47-1.08 0.47-1.68 0-1.79-1.46-3.25-3.25-3.25z"/>
 <path d="m17.43 19.74c-0.19 0-0.38-0.07-0.53-0.22l-0.99-0.99c-0.29-0.29-0.29-0.77 0-1.06s0.77-0.29 1.06 0l0.48 0.48 1.6-1.48c0.3-0.28 0.78-0.26 1.06 0.04s0.26 0.78-0.04 1.06l-2.13 1.97c-0.15 0.13-0.33 0.2-0.51 0.2z"/>
</svg>
