<svg width="24" height="24" viewBox="0 0 24 24"  xmlns="http://www.w3.org/2000/svg">
<path d="M15.24 9.24994H2C1.59 9.24994 1.25 8.90994 1.25 8.49994C1.25 8.08994 1.59 7.74994 2 7.74994H15.24C15.65 7.74994 15.99 8.08994 15.99 8.49994C15.99 8.90994 15.65 9.24994 15.24 9.24994Z" />
<path d="M7.29 17.2499H6C5.59 17.2499 5.25 16.9099 5.25 16.4999C5.25 16.0899 5.59 15.7499 6 15.7499H7.29C7.7 15.7499 8.04 16.0899 8.04 16.4999C8.04 16.9099 7.71 17.2499 7.29 17.2499Z" />
<path d="M14.5 17.2499H11C10.59 17.2499 10.25 16.9099 10.25 16.4999C10.25 16.0899 10.59 15.7499 11 15.7499H14.5C14.91 15.7499 15.25 16.0899 15.25 16.4999C15.25 16.9099 14.91 17.2499 14.5 17.2499Z" />
<path d="M17.56 21.2499H7.98C7.57 21.2499 7.23 20.9099 7.23 20.4999C7.23 20.0899 7.57 19.7499 7.98 19.7499H17.56C20.7 19.7499 21.25 19.2099 21.25 16.1099V6.88994C21.25 6.47994 21.59 6.13994 22 6.13994C22.41 6.13994 22.75 6.47994 22.75 6.88994V16.0999C22.75 20.0499 21.54 21.2499 17.56 21.2499Z" />
<path d="M3.71 20.8899C3.62 20.8899 3.52 20.8699 3.43 20.8399C1.62 20.1199 1.25 18.4299 1.25 16.1099V7.88994C1.25 3.94994 2.46 2.74994 6.44 2.74994H17.55C18.69 2.74994 19.53 2.83994 20.19 3.03994C20.59 3.15994 20.81 3.56994 20.7 3.96994C20.58 4.36994 20.16 4.58994 19.77 4.47994C19.25 4.32994 18.55 4.25994 17.55 4.25994H6.44C3.3 4.25994 2.75 4.79994 2.75 7.89994V16.1099C2.75 18.4999 3.18 19.1299 3.99 19.4499C4.38 19.5999 4.56 20.0399 4.41 20.4199C4.29 20.7099 4.01 20.8899 3.71 20.8899Z" />
<path d="M2 22.7499C1.81 22.7499 1.62 22.6799 1.47 22.5299C1.18 22.2399 1.18 21.7599 1.47 21.4699L21.47 1.46994C21.76 1.17994 22.24 1.17994 22.53 1.46994C22.82 1.75994 22.82 2.23994 22.53 2.52994L2.53 22.5299C2.38 22.6799 2.19 22.7499 2 22.7499Z" />
</svg>
