<?xml version="1.0" encoding="UTF-8"?>
<svg width="24" height="24" viewBox="0 0 24 24" xmlns="http://www.w3.org/2000/svg">
 <path d="m14.5 9.25h-12.5c-0.41 0-0.75-0.34-0.75-0.75s0.34-0.75 0.75-0.75h12.5c0.41 0 0.75 0.34 0.75 0.75s-0.34 0.75-0.75 0.75z"/>
 <path d="m8 17.25h-2c-0.41 0-0.75-0.34-0.75-0.75s0.34-0.75 0.75-0.75h2c0.41 0 0.75 0.34 0.75 0.75s-0.34 0.75-0.75 0.75z"/>
 <path d="m14.5 17.25h-4c-0.41 0-0.75-0.34-0.75-0.75s0.34-0.75 0.75-0.75h4c0.41 0 0.75 0.34 0.75 0.75s-0.34 0.75-0.75 0.75z"/>
 <path d="m17.56 21.25h-11.12c-3.98 0-5.19-1.2-5.19-5.14v-8.22c0-3.94 1.21-5.14 5.19-5.14h8.06c0.41 0 0.75 0.34 0.75 0.75s-0.34 0.75-0.75 0.75h-8.06c-3.14 0-3.69 0.54-3.69 3.64v8.21c0 3.1 0.55 3.64 3.69 3.64h11.11c3.14 0 3.69-0.54 3.69-3.64v-2.08c0-0.41 0.34-0.75 0.75-0.75s0.75 0.34 0.75 0.75v2.08c0.01 3.95-1.2 5.15-5.18 5.15z"/>
 <path d="m20 10.25c-0.41 0-0.75-0.34-0.75-0.75v-6c0-0.3 0.18-0.58 0.46-0.69s0.6-0.05 0.82 0.16l2 2c0.29 0.29 0.29 0.77 0 1.06s-0.77 0.29-1.06 0l-0.72-0.72v4.19c0 0.41-0.34 0.75-0.75 0.75z"/>
 <path d="m18 6.25c-0.19 0-0.38-0.07-0.53-0.22-0.29-0.29-0.29-0.77 0-1.06l2-2c0.29-0.29 0.77-0.29 1.06 0s0.29 0.77 0 1.06l-2 2c-0.15 0.15-0.34 0.22-0.53 0.22z"/>
</svg>
