<?xml version="1.0" encoding="UTF-8"?>
<svg width="24" height="24" viewBox="0 0 24 24" xmlns="http://www.w3.org/2000/svg">
 <path d="m19 13.36h-17c-0.41 0-0.75-0.34-0.75-0.75s0.34-0.75 0.75-0.75h17c0.41 0 0.75 0.34 0.75 0.75s-0.34 0.75-0.75 0.75z"/>
 <path d="m15.22 21.75h-9.44c-3.43 0-4.53-1.09-4.53-4.48v-6.99c0-2.69 0.61002-4.28 3.71-4.46 0.26-0.01 0.53001-0.02 0.82001-0.02h9.44c3.43 0 4.53 1.09 4.53 4.48v7.15c-0.04 3.27-1.14 4.32-4.53 4.32zm-9.44-14.45c-0.27 0-0.52 0.01-0.75 0.02-1.79 0.11-2.28 0.49-2.28 2.96v6.99c0 2.56 0.42003 2.98 3.03 2.98h9.44c2.58 0 3-0.4 3.03-2.83v-7.14c0-2.56-0.42-2.98-3.03-2.98h-9.44z"/>
 <path d="m19 18.18c-0.19 0-0.38-0.07-0.51-0.2-0.15-0.14-0.24-0.34-0.24-0.55v-7.15c0-2.56-0.42-2.98-3.03-2.98h-9.44c-0.27 0-0.52 0.01-0.75 0.02-0.2 0.01-0.40005-0.07-0.55005-0.21s-0.22998-0.34-0.22998-0.55c0.04-3.26 1.14-4.31 4.53-4.31h9.44c3.43 0 4.53 1.09 4.53 4.48v6.99c0 2.69-0.61 4.28-3.71 4.46h-0.04zm-13.22-12.38h9.44c3.43 0 4.53 1.09 4.53 4.48v6.32c1.16-0.21 1.5-0.81 1.5-2.88v-6.99c0-2.56-0.42-2.98-3.03-2.98h-9.44c-2.28 0-2.87 0.31-3 2.05z"/>
 <path d="m6.9603 18.56h-1.72c-0.41 0-0.75-0.34-0.75-0.75s0.34-0.75 0.75-0.75h1.72c0.41 0 0.75 0.34 0.75 0.75s-0.33 0.75-0.75 0.75z"/>
 <path d="m12.55 18.56h-3.44c-0.41 0-0.75-0.34-0.75-0.75s0.34-0.75 0.75-0.75h3.44c0.41 0 0.75 0.34 0.75 0.75s-0.33 0.75-0.75 0.75z"/>
</svg>
