<svg width="24" height="24" viewBox="0 0 24 24"  xmlns="http://www.w3.org/2000/svg">
<path opacity="0.4" d="M19 10.2798V17.4298C18.97 20.2798 18.19 20.9998 15.22 20.9998H5.78003C2.76003 20.9998 2 20.2498 2 17.2698V10.2798C2 7.5798 2.63 6.7098 5 6.5698C5.24 6.5598 5.50003 6.5498 5.78003 6.5498H15.22C18.24 6.5498 19 7.2998 19 10.2798Z" />
<path d="M22 6.73V13.72C22 16.42 21.37 17.29 19 17.43V10.28C19 7.3 18.24 6.55 15.22 6.55H5.78003C5.50003 6.55 5.24 6.56 5 6.57C5.03 3.72 5.81003 3 8.78003 3H18.22C21.24 3 22 3.75 22 6.73Z" />
<path d="M6.96002 18.5601H5.23999C4.82999 18.5601 4.48999 18.2201 4.48999 17.8101C4.48999 17.4001 4.82999 17.0601 5.23999 17.0601H6.96002C7.37002 17.0601 7.71002 17.4001 7.71002 17.8101C7.71002 18.2201 7.38002 18.5601 6.96002 18.5601Z" />
<path d="M12.5499 18.5601H9.10986C8.69986 18.5601 8.35986 18.2201 8.35986 17.8101C8.35986 17.4001 8.69986 17.0601 9.10986 17.0601H12.5499C12.9599 17.0601 13.2999 17.4001 13.2999 17.8101C13.2999 18.2201 12.9699 18.5601 12.5499 18.5601Z" />
<path d="M19 11.8599H2V13.3599H19V11.8599Z" />
</svg>
