<?xml version="1.0" encoding="UTF-8"?>
<svg width="24" height="24" viewBox="0 0 24 24" xmlns="http://www.w3.org/2000/svg">
 <path d="m15.24 9.25h-13.24c-0.41 0-0.75-0.34-0.75-0.75s0.34-0.75 0.75-0.75h13.24c0.41 0 0.75 0.34 0.75 0.75s-0.34 0.75-0.75 0.75z"/>
 <path d="m7.29 17.25h-1.29c-0.41 0-0.75-0.34-0.75-0.75s0.34-0.75 0.75-0.75h1.29c0.41 0 0.75 0.34 0.75 0.75s-0.33 0.75-0.75 0.75z"/>
 <path d="m14.5 17.25h-3.5c-0.41 0-0.75-0.34-0.75-0.75s0.34-0.75 0.75-0.75h3.5c0.41 0 0.75 0.34 0.75 0.75s-0.34 0.75-0.75 0.75z"/>
 <path d="m17.56 21.25h-9.58c-0.41 0-0.75-0.34-0.75-0.75s0.34-0.75 0.75-0.75h9.58c3.14 0 3.69-0.54 3.69-3.64v-9.22c0-0.41 0.34-0.75 0.75-0.75s0.75 0.34 0.75 0.75v9.21c0 3.95-1.21 5.15-5.19 5.15z"/>
 <path d="m3.71 20.89c-0.09 0-0.19-0.02-0.28-0.05-1.81-0.72-2.18-2.41-2.18-4.73v-8.22c0-3.94 1.21-5.14 5.19-5.14h11.11c1.14 0 1.98 0.09 2.64 0.29 0.4 0.12 0.62 0.53 0.51 0.93-0.12 0.4-0.54 0.62-0.93 0.51-0.52-0.15-1.22-0.22-2.22-0.22h-11.11c-3.14 0-3.69 0.54-3.69 3.64v8.21c0 2.39 0.43 3.02 1.24 3.34 0.39 0.15 0.57 0.59 0.42 0.97-0.12 0.29-0.4 0.47-0.7 0.47z"/>
 <path d="m1.9999 22.75c-0.19 0-0.38-0.07-0.53-0.22-0.29-0.29-0.29-0.77 0-1.06l20-20c0.29-0.29 0.77-0.29 1.06 0s0.29 0.77 0 1.06l-20 20c-0.15 0.15-0.34 0.22-0.53 0.22z"/>
</svg>
