<?xml version="1.0" encoding="UTF-8"?>
<svg width="24" height="24" viewBox="0 0 24 24" xmlns="http://www.w3.org/2000/svg">
 <path d="m3.9301 16.63c-0.19 0-0.38-0.07-0.53-0.22-0.29-0.29-0.29-0.77 0-1.06l11.95-11.95c0.29-0.29 0.77-0.29 1.06 0s0.29 0.77 0 1.06l-11.95 11.96c-0.14 0.14-0.34 0.21-0.53 0.21z"/>
 <path d="m11.1 19.03c-0.19 0-0.38-0.07-0.53-0.22-0.29-0.29-0.29-0.77 0-1.06l1.2-1.2c0.29-0.29 0.77-0.29 1.06 0s0.29 0.77 0 1.06l-1.2 1.2c-0.14 0.14-0.33 0.22-0.53 0.22z"/>
 <path d="m13.79 16.34c-0.19 0-0.38-0.07-0.53-0.22-0.29-0.29-0.29-0.77 0-1.06l2.39-2.39c0.29-0.29 0.77-0.29 1.06 0s0.29 0.77 0 1.06l-2.39 2.39c-0.14 0.14-0.34 0.22-0.53 0.22z"/>
 <path d="m11.1 22.75c-0.98 0-1.96-0.6-3.15-1.79l-4.91-4.91c-2.39-2.39-2.38-3.93 0.03-6.34l6.64-6.64c2.41-2.41 3.95-2.42 6.34-0.03l4.91 4.91c2.39 2.39 2.38 3.93-0.03 6.34l-6.64 6.64c-1.21 1.21-2.2 1.82-3.19 1.82zm1.8-20c-0.52 0-1.18 0.43-2.13 1.38l-6.64 6.64c-0.95 0.95-1.38 1.61-1.38 2.12 0 0.52 0.4 1.15 1.35 2.1l4.91 4.91c0.95 0.95 1.57 1.35 2.09 1.35h0.01c0.52 0 1.17-0.43 2.12-1.38l6.64-6.64c0.95-0.95 1.38-1.61 1.38-2.12 0-0.52-0.4-1.15-1.35-2.1l-4.91-4.91c-0.94-0.95-1.57-1.35-2.09-1.35z"/>
 <path d="m22 22.75h-20c-0.41 0-0.75-0.34-0.75-0.75s0.34-0.75 0.75-0.75h20c0.41 0 0.75 0.34 0.75 0.75s-0.34 0.75-0.75 0.75z"/>
</svg>
