<?xml version="1.0" encoding="UTF-8"?>
<svg width="24" height="24" viewBox="0 0 24 24" xmlns="http://www.w3.org/2000/svg">
 <path d="m11.5 9.25h-9.5c-0.41 0-0.75-0.34-0.75-0.75s0.34-0.75 0.75-0.75h9.5c0.41 0 0.75 0.34 0.75 0.75s-0.34 0.75-0.75 0.75z"/>
 <path d="m8 17.25h-2c-0.41 0-0.75-0.34-0.75-0.75s0.34-0.75 0.75-0.75h2c0.41 0 0.75 0.34 0.75 0.75s-0.34 0.75-0.75 0.75z"/>
 <path d="m14.5 17.25h-4c-0.41 0-0.75-0.34-0.75-0.75s0.34-0.75 0.75-0.75h4c0.41 0 0.75 0.34 0.75 0.75s-0.34 0.75-0.75 0.75z"/>
 <path d="m17.56 21.25h-11.12c-3.98 0-5.19-1.2-5.19-5.14v-8.22c0-3.94 1.21-5.14 5.19-5.14h8.06c0.41 0 0.75 0.34 0.75 0.75s-0.34 0.75-0.75 0.75h-8.06c-3.14 0-3.69 0.54-3.69 3.64v8.21c0 3.1 0.55 3.64 3.69 3.64h11.11c3.14 0 3.69-0.54 3.69-3.64v-4.08c0-0.41 0.34-0.75 0.75-0.75s0.75 0.34 0.75 0.75v4.08c0.01 3.95-1.2 5.15-5.18 5.15z"/>
 <path d="m15.52 11.44c-0.39 0-0.76-0.14-1.02-0.41-0.32-0.32-0.46-0.78-0.39-1.26l0.2-1.42c0.05-0.36 0.27-0.79 0.52-1.04l3.71-3.71c1.47-1.47 2.75-0.63 3.39 0 0.63 0.63 1.47 1.91 0 3.39l-3.71 3.71c-0.26 0.26-0.69 0.47-1.04 0.52l-1.42 0.2c-0.08 0.01-0.16 0.02-0.24 0.02zm4.71-7.16c-0.2 0-0.38 0.14-0.63 0.38l-3.7 3.71c-0.03 0.04-0.09 0.15-0.1 0.2l-0.2 1.35 1.36-0.19c0.05-0.01 0.16-0.07 0.2-0.1l3.71-3.71c0.47-0.47 0.54-0.73 0-1.26-0.26-0.26-0.45-0.38-0.64-0.38z"/>
 <path d="m20.87 7.74c-0.07 0-0.14-0.00999-0.2-0.02999-1.37-0.39001-2.46-1.47-2.84-2.84-0.11-0.4 0.12-0.81 0.52-0.93 0.4-0.11 0.81 0.12 0.93 0.52 0.25 0.87 0.94 1.56 1.81 1.81 0.4 0.11 0.63 0.53 0.52 0.92001-0.11 0.32999-0.41 0.54999-0.74 0.54999z"/>
</svg>
