<?xml version="1.0" encoding="UTF-8"?>
<svg width="24" height="24" viewBox="0 0 24 24" xmlns="http://www.w3.org/2000/svg">
 <path d="m13.75 10.5c-0.83 0-1.5-0.67-1.5-1.5s0.67-1.5 1.5-1.5 1.5 0.67 1.5 1.5-0.67 1.5-1.5 1.5zm0-2c-0.28 0-0.5 0.22-0.5 0.5s0.22 0.5 0.5 0.5 0.5-0.22 0.5-0.5-0.22-0.5-0.5-0.5z"/>
 <path d="m10.25 10.5c-0.83 0-1.5-0.67-1.5-1.5s0.67-1.5 1.5-1.5 1.5 0.67 1.5 1.5-0.67 1.5-1.5 1.5zm0-2c-0.28 0-0.5 0.22-0.5 0.5s0.22 0.5 0.5 0.5 0.5-0.22 0.5-0.5-0.22-0.5-0.5-0.5z"/>
 <path d="m15.5 13.5c-0.83 0-1.5-0.67-1.5-1.5s0.67-1.5 1.5-1.5 1.5 0.67 1.5 1.5-0.67 1.5-1.5 1.5zm0-2c-0.28 0-0.5 0.22-0.5 0.5s0.22 0.5 0.5 0.5 0.5-0.22 0.5-0.5-0.22-0.5-0.5-0.5z"/>
 <path d="m17.15 10.25c-0.69 0-1.25-0.56-1.25-1.25s0.56-1.25 1.25-1.25 1.25 0.56 1.25 1.25-0.56 1.25-1.25 1.25zm0-1.5c-0.14 0-0.25 0.11-0.25 0.25 0 0.28 0.5 0.28 0.5 0 0-0.14-0.11-0.25-0.25-0.25z"/>
 <path d="m17.15 16.25c-0.69 0-1.25-0.56-1.25-1.25s0.56-1.25 1.25-1.25 1.25 0.56 1.25 1.25-0.56 1.25-1.25 1.25zm0-1.5c-0.14 0-0.25 0.11-0.25 0.25 0 0.28 0.5 0.28 0.5 0 0-0.14-0.11-0.25-0.25-0.25z"/>
 <path d="m19.75 13.25c-0.69 0-1.25-0.56-1.25-1.25s0.56-1.25 1.25-1.25 1.25 0.56 1.25 1.25-0.56 1.25-1.25 1.25zm0-1.5c-0.14 0-0.25 0.11-0.25 0.25 0 0.28 0.5 0.28 0.5 0 0-0.14-0.11-0.25-0.25-0.25z"/>
 <path d="m6.7998 10.25c-0.69 0-1.25-0.56-1.25-1.25s0.56-1.25 1.25-1.25 1.25 0.56 1.25 1.25-0.56 1.25-1.25 1.25zm0-1.5c-0.14 0-0.25 0.11-0.25 0.25 0 0.28 0.5 0.28 0.5 0 0-0.14-0.11-0.25-0.25-0.25z"/>
 <path d="m6.7998 16.25c-0.69 0-1.25-0.56-1.25-1.25s0.56-1.25 1.25-1.25 1.25 0.56 1.25 1.25-0.56 1.25-1.25 1.25zm0-1.5c-0.14 0-0.25 0.11-0.25 0.25 0 0.28 0.5 0.28 0.5 0 0-0.14-0.11-0.25-0.25-0.25z"/>
 <path d="m4.2002 13.25c-0.69 0-1.25-0.56-1.25-1.25s0.56-1.25 1.25-1.25 1.25 0.56 1.25 1.25-0.56 1.25-1.25 1.25zm0-1.5c-0.14 0-0.25 0.11-0.25 0.25 0 0.28 0.5 0.28 0.5 0 0-0.14-0.11-0.25-0.25-0.25z"/>
 <path d="m15.9 6.4492c-0.69 0-1.25-0.56-1.25-1.25s0.56-1.25 1.25-1.25 1.25 0.56 1.25 1.25-0.56 1.25-1.25 1.25zm0-1.5c-0.14 0-0.25 0.11-0.25 0.25 0 0.28 0.5 0.28 0.5 0 0-0.14-0.11-0.25-0.25-0.25z"/>
 <path d="m8.1001 6.4492c-0.69 0-1.25-0.56-1.25-1.25s0.56-1.25 1.25-1.25 1.25 0.56 1.25 1.25-0.56 1.25-1.25 1.25zm0-1.5c-0.14 0-0.25 0.11-0.25 0.25 0 0.28 0.5 0.28 0.5 0 0-0.14-0.11-0.25-0.25-0.25z"/>
 <path d="m12.05 7.25c-0.69 0-1.25-0.56-1.25-1.25s0.56-1.25 1.25-1.25 1.25 0.56 1.25 1.25-0.56 1.25-1.25 1.25zm0-1.5c-0.14 0-0.25 0.11-0.25 0.25 0 0.28 0.5 0.28 0.5 0 0-0.14-0.11-0.25-0.25-0.25z"/>
 <path d="m15.9 20.25c-0.69 0-1.25-0.56-1.25-1.25s0.56-1.25 1.25-1.25 1.25 0.56 1.25 1.25-0.56 1.25-1.25 1.25zm0-1.5c-0.14 0-0.25 0.11-0.25 0.25 0 0.28 0.5 0.28 0.5 0 0-0.14-0.11-0.25-0.25-0.25z"/>
 <path d="m8.1001 20.25c-0.69 0-1.25-0.56-1.25-1.25s0.56-1.25 1.25-1.25 1.25 0.56 1.25 1.25-0.56 1.25-1.25 1.25zm0-1.5c-0.14 0-0.25 0.11-0.25 0.25 0 0.28 0.5 0.28 0.5 0 0-0.14-0.11-0.25-0.25-0.25z"/>
 <path d="m12.05 19.449c-0.69 0-1.25-0.56-1.25-1.25s0.56-1.25 1.25-1.25 1.25 0.56 1.25 1.25-0.56 1.25-1.25 1.25zm0-1.5c-0.14 0-0.25 0.11-0.25 0.25 0 0.28 0.5 0.28 0.5 0 0-0.14-0.11-0.25-0.25-0.25z"/>
 <path d="m8.5 13.5c-0.83 0-1.5-0.67-1.5-1.5s0.67-1.5 1.5-1.5 1.5 0.67 1.5 1.5-0.67 1.5-1.5 1.5zm0-2c-0.28 0-0.5 0.22-0.5 0.5s0.22 0.5 0.5 0.5 0.5-0.22 0.5-0.5-0.22-0.5-0.5-0.5z"/>
 <path d="m10.25 16.5c-0.83 0-1.5-0.67-1.5-1.5s0.67-1.5 1.5-1.5 1.5 0.67 1.5 1.5-0.67 1.5-1.5 1.5zm0-2c-0.28 0-0.5 0.22-0.5 0.5s0.22 0.5 0.5 0.5 0.5-0.22 0.5-0.5-0.22-0.5-0.5-0.5z"/>
 <path d="m13.75 16.5c-0.83 0-1.5-0.67-1.5-1.5s0.67-1.5 1.5-1.5 1.5 0.67 1.5 1.5-0.67 1.5-1.5 1.5zm0-2c-0.28 0-0.5 0.22-0.5 0.5s0.22 0.5 0.5 0.5 0.5-0.22 0.5-0.5-0.22-0.5-0.5-0.5z"/>
 <path d="m12 3.4492c-0.56 0-1.01-0.45-1.01-1s0.45-1 1-1 1 0.45 1 1-0.43 1-0.99 1z"/>
 <path d="m17.25 3.5996c-0.42 0-0.76-0.34-0.76-0.75s0.34-0.75 0.75-0.75 0.76 0.34 0.76 0.75-0.33 0.75-0.75 0.75z"/>
 <path d="m6.75 3.5996c-0.41 0-0.75-0.34-0.75-0.75s0.33-0.75 0.75-0.75h0.01001c0.41 0 0.75 0.34 0.75 0.75s-0.34001 0.75-0.76001 0.75z"/>
 <path d="m12 22.5c-0.56 0-1.01-0.45-1.01-1s0.45-1 1-1 1 0.45 1 1-0.43 1-0.99 1z"/>
 <path d="m17.25 21.85c-0.42 0-0.76-0.34-0.76-0.75s0.34-0.75 0.75-0.75 0.76 0.34 0.76 0.75-0.33 0.75-0.75 0.75z"/>
 <path d="m6.75 21.85c-0.41 0-0.75-0.34-0.75-0.75s0.33-0.75 0.75-0.75h0.01001c0.41 0 0.75 0.34 0.75 0.75s-0.34001 0.75-0.76001 0.75z"/>
 <path d="m1.5498 13c-0.55 0-1-0.44-1-1 0-0.55 0.45-1 1-1 0.55 0 1 0.45 1 1s-0.45 1-1 1z"/>
 <path d="m3.75 17.75c-0.41 0-0.75-0.33-0.75-0.75v-0.01c0-0.41 0.34-0.75 0.75-0.75s0.75 0.34 0.75 0.75-0.34 0.76-0.75 0.76z"/>
 <path d="m3.75 7.7598c-0.41 0-0.75-0.34-0.75-0.75s0.34-0.75 0.75-0.75 0.75 0.33 0.75 0.74v0.01c0 0.41-0.34 0.75-0.75 0.75z"/>
 <path d="m22.5 13c-0.55 0-1-0.44-1-1 0-0.55 0.45-1 1-1s1 0.45 1 1-0.45 1-1 1z"/>
 <path d="m20.3 17.75c-0.41 0-0.75-0.33-0.75-0.75v-0.01c0-0.41 0.34-0.75 0.75-0.75s0.75 0.34 0.75 0.75-0.34 0.76-0.75 0.76z"/>
 <path d="m20.3 7.7598c-0.41 0-0.75-0.34-0.75-0.75s0.34-0.75 0.75-0.75 0.75 0.33 0.75 0.75v0.01c0 0.4-0.34 0.74-0.75 0.74z"/>
</svg>
