<?xml version="1.0" encoding="UTF-8"?>
<svg width="24" height="24" viewBox="0 0 24 24" xmlns="http://www.w3.org/2000/svg">
 <path d="m7 10.75h-2c-2.42 0-3.75-1.33-3.75-3.75v-2c0-2.42 1.33-3.75 3.75-3.75h2c2.42 0 3.75 1.33 3.75 3.75v2c0 2.42-1.33 3.75-3.75 3.75zm-2-8c-1.58 0-2.25 0.67-2.25 2.25v2c0 1.58 0.67 2.25 2.25 2.25h2c1.58 0 2.25-0.67 2.25-2.25v-2c0-1.58-0.67-2.25-2.25-2.25h-2z"/>
 <path d="m19 10.75h-2c-2.42 0-3.75-1.33-3.75-3.75v-2c0-2.42 1.33-3.75 3.75-3.75h2c2.42 0 3.75 1.33 3.75 3.75v2c0 2.42-1.33 3.75-3.75 3.75zm-2-8c-1.58 0-2.25 0.67-2.25 2.25v2c0 1.58 0.67 2.25 2.25 2.25h2c1.58 0 2.25-0.67 2.25-2.25v-2c0-1.58-0.67-2.25-2.25-2.25h-2z"/>
 <path d="m19 22.75h-2c-2.42 0-3.75-1.33-3.75-3.75v-2c0-2.42 1.33-3.75 3.75-3.75h2c2.42 0 3.75 1.33 3.75 3.75v2c0 2.42-1.33 3.75-3.75 3.75zm-2-8c-1.58 0-2.25 0.67-2.25 2.25v2c0 1.58 0.67 2.25 2.25 2.25h2c1.58 0 2.25-0.67 2.25-2.25v-2c0-1.58-0.67-2.25-2.25-2.25h-2z"/>
 <path d="m7 22.75h-2c-2.42 0-3.75-1.33-3.75-3.75v-2c0-2.42 1.33-3.75 3.75-3.75h2c2.42 0 3.75 1.33 3.75 3.75v2c0 2.42-1.33 3.75-3.75 3.75zm-2-8c-1.58 0-2.25 0.67-2.25 2.25v2c0 1.58 0.67 2.25 2.25 2.25h2c1.58 0 2.25-0.67 2.25-2.25v-2c0-1.58-0.67-2.25-2.25-2.25h-2z"/>
</svg>
