<?xml version="1.0" encoding="UTF-8"?>
<svg width="24" height="24" viewBox="0 0 24 24" xmlns="http://www.w3.org/2000/svg">
 <path d="m15 16.75c-4.27 0-7.75-3.48-7.75-7.75s3.48-7.75 7.75-7.75 7.75 3.48 7.75 7.75-3.48 7.75-7.75 7.75zm0-14c-3.45 0-6.25 2.8-6.25 6.25s2.8 6.25 6.25 6.25 6.25-2.8 6.25-6.25-2.8-6.25-6.25-6.25z"/>
 <path d="m9 22.75c-4.27 0-7.75-3.48-7.75-7.75s3.48-7.75 7.75-7.75 7.75 3.48 7.75 7.75-3.48 7.75-7.75 7.75zm0-14c-3.45 0-6.25 2.8-6.25 6.25s2.8 6.25 6.25 6.25 6.25-2.8 6.25-6.25-2.8-6.25-6.25-6.25z"/>
</svg>
