<svg width="24" height="24" viewBox="0 0 24 24"  xmlns="http://www.w3.org/2000/svg">
<path opacity="0.4" d="M12 22C17.5228 22 22 17.5228 22 12C22 6.47715 17.5228 2 12 2C6.47715 2 2 6.47715 2 12C2 17.5228 6.47715 22 12 22Z" />
<path d="M12.0001 18.1905C8.59006 18.1905 5.81006 15.4105 5.81006 12.0005C5.81006 8.59055 8.59006 5.81055 12.0001 5.81055C13.3501 5.81055 14.6401 6.24055 15.7201 7.05055C16.0501 7.30055 16.1201 7.77055 15.8701 8.10055C15.6201 8.43055 15.1501 8.50055 14.8201 8.25055C14.0001 7.64055 13.0301 7.31055 12.0001 7.31055C9.42006 7.31055 7.31006 9.41055 7.31006 12.0005C7.31006 14.5905 9.41006 16.6905 12.0001 16.6905C13.4801 16.6905 14.8401 16.0105 15.7401 14.8305C15.9901 14.5005 16.4601 14.4405 16.7901 14.6905C17.1201 14.9405 17.1801 15.4105 16.9301 15.7405C15.7501 17.2905 13.9501 18.1905 12.0001 18.1905Z" />
<path d="M17.42 11.34C18.0662 11.34 18.59 10.8162 18.59 10.17C18.59 9.52383 18.0662 9 17.42 9C16.7738 9 16.25 9.52383 16.25 10.17C16.25 10.8162 16.7738 11.34 17.42 11.34Z" />
</svg>
