<?xml version="1.0" encoding="UTF-8"?>
<svg width="24" height="24" viewBox="0 0 24 24" xmlns="http://www.w3.org/2000/svg">
 <path d="m12 18.191c-3.41 0-6.19-2.7801-6.19-6.1901 0-3.41 2.78-6.19 6.19-6.19 1.35 0 2.64 0.43 3.72 1.24 0.33 0.25 0.4 0.72001 0.15 1.05s-0.72 0.39999-1.05 0.14999c-0.82-0.62-1.79-0.94-2.82-0.94-2.58 0-4.69 2.1-4.69 4.69 0 2.59 2.1 4.6901 4.69 4.6901 1.48 0 2.84-0.68 3.74-1.86 0.25-0.33 0.72-0.39 1.05-0.14s0.39 0.72 0.14 1.05c-1.18 1.55-2.98 2.45-4.93 2.45z"/>
 <path d="m17.42 12.09c-1.06 0-1.92-0.86-1.92-1.92s0.86-1.92 1.92-1.92 1.92 0.86 1.92 1.92-0.86 1.92-1.92 1.92zm0-2.34c-0.23 0-0.42 0.19-0.42 0.42s0.19 0.42 0.42 0.42 0.42-0.19 0.42-0.42-0.19-0.42-0.42-0.42z"/>
 <path d="m12 22.75c-5.93 0-10.75-4.82-10.75-10.75s4.82-10.75 10.75-10.75 10.75 4.82 10.75 10.75-4.82 10.75-10.75 10.75zm0-20c-5.1 0-9.25 4.15-9.25 9.25s4.15 9.25 9.25 9.25 9.25-4.15 9.25-9.25-4.15-9.25-9.25-9.25z"/>
</svg>
