<?xml version="1.0" encoding="UTF-8"?>
<svg width="24" height="24" viewBox="0 0 24 24" xmlns="http://www.w3.org/2000/svg">
 <path d="m12 22.429c-0.48 0-0.95-0.11-1.34-0.32l-7-3.89c-0.81-0.45-1.41-1.48-1.41-2.4v-7.64c0-0.92 0.61001-1.96 1.42-2.4l7-3.89c0.76-0.42 1.91-0.42 2.67 0l7 3.89c0.81 0.45 1.41 1.48 1.41 2.4v7.65c0 0.92-0.61 1.96-1.42 2.4l-7 3.89c-0.37 0.21-0.85 0.31-1.33 0.31zm0-19.36c-0.23 0-0.45 0.04-0.61 0.13l-7 3.89c-0.33 0.18-0.64001 0.71-0.64001 1.09v7.65c0 0.38 0.31001 0.91 0.64001 1.09l7 3.89c0.31 0.17 0.91 0.17 1.21 0l7-3.89c0.33-0.18 0.64-0.71 0.64-1.09v-7.65c0-0.38-0.31-0.91-0.64-1.09l-7-3.89c-0.15-0.09-0.37-0.13-0.6-0.13z"/>
</svg>
