<?xml version="1.0" encoding="UTF-8"?>
<svg width="24" height="24" viewBox="0 0 24 24" xmlns="http://www.w3.org/2000/svg">
 <path d="m13 22.75h-4c-5.43 0-7.75-2.32-7.75-7.75v-6c0-5.43 2.32-7.75 7.75-7.75h6c5.43 0 7.75 2.32 7.75 7.75v4c0 0.41-0.34 0.75-0.75 0.75s-0.75-0.34-0.75-0.75v-4c0-4.61-1.64-6.25-6.25-6.25h-6c-4.61 0-6.25 1.64-6.25 6.25v6c0 4.61 1.64 6.25 6.25 6.25h4c0.41 0 0.75 0.34 0.75 0.75s-0.34 0.75-0.75 0.75z"/>
 <path d="m13 22.75h-4c-5.43 0-7.75-2.32-7.75-7.75v-6c0-5.43 2.32-7.75 7.75-7.75h6c5.43 0 7.75 2.32 7.75 7.75v4c0 0.41-0.34 0.75-0.75 0.75s-0.75-0.34-0.75-0.75v-4c0-4.61-1.64-6.25-6.25-6.25h-6c-4.61 0-6.25 1.64-6.25 6.25v6c0 4.61 1.64 6.25 6.25 6.25h4c0.41 0 0.75 0.34 0.75 0.75s-0.34 0.75-0.75 0.75z"/>
 <path d="m7 14.69c-0.41 0-0.75-0.34-0.75-0.75v-3.21c0-0.41 0.34-0.75003 0.75-0.75003s0.75 0.34003 0.75 0.75003v3.21c0 0.42-0.34 0.75-0.75 0.75z"/>
 <path d="m17 14.69c-0.41 0-0.75-0.34-0.75-0.75v-3.21c0-0.41 0.34-0.75003 0.75-0.75003s0.75 0.34003 0.75 0.75003v3.21c0 0.42-0.34 0.75-0.75 0.75z"/>
 <path d="m13 22.75h-4c-5.43 0-7.75-2.32-7.75-7.75v-6c0-5.43 2.32-7.75 7.75-7.75h6c5.43 0 7.75 2.32 7.75 7.75v4c0 0.41-0.34 0.75-0.75 0.75s-0.75-0.34-0.75-0.75v-4c0-4.61-1.64-6.25-6.25-6.25h-6c-4.61 0-6.25 1.64-6.25 6.25v6c0 4.61 1.64 6.25 6.25 6.25h4c0.41 0 0.75 0.34 0.75 0.75s-0.34 0.75-0.75 0.75z"/>
 <path d="m17.58 21.75c-0.2 0-0.39-0.08-0.53-0.22l-1.58-1.57c-0.29-0.29-0.3-0.77 0-1.06 0.29-0.29 0.77-0.3 1.06 0l1.01 1 2.9-3.39c0.27-0.32 0.74-0.35 1.06-0.08 0.31 0.27 0.35 0.74 0.08 1.06l-3.42 4c-0.14 0.16-0.33 0.25-0.54 0.26h-0.04z"/>
 <path d="m12 14.25c-0.41 0-0.75-0.34-0.75-0.75v-3c0-0.41 0.34-0.75 0.75-0.75s0.75 0.34 0.75 0.75v3c0 0.41-0.34 0.75-0.75 0.75z"/>
</svg>
