<?xml version="1.0" encoding="UTF-8"?>
<svg width="24" height="24" viewBox="0 0 24 24" xmlns="http://www.w3.org/2000/svg">
 <path d="m21 22.75h-18c-0.41 0-0.75-0.34-0.75-0.75s0.34-0.75 0.75-0.75h18c0.41 0 0.75 0.34 0.75 0.75s-0.34 0.75-0.75 0.75z"/>
 <path d="m5.6 19.75h-1.6c-0.96 0-1.75-0.79-1.75-1.75v-8.62c0-0.96 0.79-1.75 1.75-1.75h1.6c0.96 0 1.75 0.79 1.75 1.75v8.62c0 0.96-0.79 1.75-1.75 1.75zm-1.6-10.63c-0.14 0-0.25 0.11-0.25 0.25v8.63c0 0.14 0.11 0.25 0.25 0.25h1.6c0.14 0 0.25-0.11 0.25-0.25v-8.62c0-0.14-0.11-0.25-0.25-0.25h-1.6v-0.01001z"/>
 <path d="m12.8 19.75h-1.6c-0.96 0-1.75-0.79-1.75-1.75v-11.81c0-0.96 0.79-1.75 1.75-1.75h1.6c0.96 0 1.75 0.79 1.75 1.75v11.81c0 0.96-0.79 1.75-1.75 1.75zm-1.6-13.81c-0.14 0-0.25 0.11-0.25 0.25v11.81c0 0.14 0.11 0.25 0.25 0.25h1.6c0.14 0 0.25-0.11 0.25-0.25v-11.81c0-0.14-0.11-0.25-0.25-0.25h-1.6z"/>
 <path d="m20 19.75h-1.6c-0.96 0-1.75-0.79-1.75-1.75v-15c0-0.96 0.79-1.75 1.75-1.75h1.6c0.96 0 1.75 0.79 1.75 1.75v15c0 0.96-0.79 1.75-1.75 1.75zm-1.6-17c-0.14 0-0.25 0.11-0.25 0.25v15c0 0.14 0.11 0.25 0.25 0.25h1.6c0.14 0 0.25-0.11 0.25-0.25v-15c0-0.14-0.11-0.25-0.25-0.25h-1.6z"/>
</svg>
