<svg width="24" height="24" viewBox="0 0 24 24"  xmlns="http://www.w3.org/2000/svg">
<path opacity="0.4" d="M16.19 2H7.82001C4.18001 2 2.01001 4.17 2.01001 7.81V16.18C2.01001 19.82 4.18001 21.99 7.82001 21.99H16.19C19.83 21.99 22 19.82 22 16.18V7.81C22 4.17 19.83 2 16.19 2Z" />
<path d="M10.11 11.1504H7.46005C6.83005 11.1504 6.32007 11.6603 6.32007 12.2903V17.4103H10.11V11.1504V11.1504Z" />
<path opacity="0.4" d="M12.7601 6.6001H11.2401C10.6101 6.6001 10.1001 7.11011 10.1001 7.74011V17.4001H13.8901V7.74011C13.8901 7.11011 13.3901 6.6001 12.7601 6.6001Z" />
<path d="M16.5501 12.8501H13.9001V17.4001H17.6902V13.9901C17.6802 13.3601 17.1701 12.8501 16.5501 12.8501Z" />
</svg>
