<?xml version="1.0" encoding="UTF-8"?>
<svg width="24" height="24" viewBox="0 0 24 24" xmlns="http://www.w3.org/2000/svg">
 <path d="m10.11 18.15h-3.79c-0.41 0-0.75-0.34-0.75-0.75v-5.12c0-1.04 0.84999-1.89 1.89-1.89h2.65c0.41 0 0.75 0.34 0.75 0.75v6.25c0 0.42-0.34 0.76-0.75 0.76zm-3.04-1.5h2.29v-4.75h-1.9c-0.21 0-0.38999 0.17-0.38999 0.39v4.36z"/>
 <path d="m13.89 18.15h-3.79c-0.41 0-0.75-0.34-0.75-0.75v-9.66c0-1.04 0.85-1.89 1.89-1.89h1.52c1.04 0 1.89 0.85001 1.89 1.89v9.66c-0.01 0.41-0.34 0.75-0.76 0.75zm-3.03-1.5h2.29v-8.91c0-0.21-0.17-0.39001-0.39-0.39001h-1.52c-0.21 0-0.39 0.17001-0.39 0.39001v8.91h0.01z"/>
 <path d="m17.68 18.15h-3.79c-0.41 0-0.75-0.34-0.75-0.75v-4.55c0-0.41 0.34-0.75 0.75-0.75h2.65c1.04 0 1.89 0.85 1.89 1.89v3.41c0 0.41-0.33 0.75-0.75 0.75zm-3.04-1.5h2.29v-2.66c0-0.21-0.17-0.39-0.39-0.39h-1.9v3.05z"/>
 <path d="m15 22.75h-6c-5.43 0-7.75-2.32-7.75-7.75v-6c0-5.43 2.32-7.75 7.75-7.75h6c5.43 0 7.75 2.32 7.75 7.75v6c0 5.43-2.32 7.75-7.75 7.75zm-6-20c-4.61 0-6.25 1.64-6.25 6.25v6c0 4.61 1.64 6.25 6.25 6.25h6c4.61 0 6.25-1.64 6.25-6.25v-6c0-4.61-1.64-6.25-6.25-6.25h-6z"/>
</svg>
