<?xml version="1.0" encoding="UTF-8"?>
<svg width="24" height="24" viewBox="0 0 24 24" xmlns="http://www.w3.org/2000/svg">
 <path d="m17.23 21.52c-0.19 0-0.38-0.07-0.53-0.22-0.29-0.29-0.29-0.77 0-1.06l3.54-3.54c0.29-0.29 0.77-0.29 1.06 0s0.29 0.77 0 1.06l-3.54 3.54c-0.14 0.14-0.34 0.22-0.53 0.22z"/>
 <path d="m20.77 21.52c-0.19 0-0.38-0.07-0.53-0.22l-3.54-3.54c-0.29-0.29-0.29-0.77 0-1.06s0.77-0.29 1.06 0l3.54 3.54c0.29 0.29 0.29 0.77 0 1.06-0.15 0.14-0.34 0.22-0.53 0.22z"/>
 <path d="m7 14.25c-0.41 0-0.75-0.34-0.75-0.75v-3c0-0.41 0.34-0.75 0.75-0.75s0.75 0.34 0.75 0.75v3c0 0.41-0.34 0.75-0.75 0.75z"/>
 <path d="m12 14.25c-0.41 0-0.75-0.34-0.75-0.75v-3c0-0.41 0.34-0.75 0.75-0.75s0.75 0.34 0.75 0.75v3c0 0.41-0.34 0.75-0.75 0.75z"/>
 <path d="m17 14.25c-0.41 0-0.75-0.34-0.75-0.75v-3c0-0.41 0.34-0.75 0.75-0.75s0.75 0.34 0.75 0.75v3c0 0.41-0.34 0.75-0.75 0.75z"/>
 <path d="m13 22.75h-4c-5.43 0-7.75-2.32-7.75-7.75v-6c0-5.43 2.32-7.75 7.75-7.75h6c5.43 0 7.75 2.32 7.75 7.75v4c0 0.41-0.34 0.75-0.75 0.75s-0.75-0.34-0.75-0.75v-4c0-4.61-1.64-6.25-6.25-6.25h-6c-4.61 0-6.25 1.64-6.25 6.25v6c0 4.61 1.64 6.25 6.25 6.25h4c0.41 0 0.75 0.34 0.75 0.75s-0.34 0.75-0.75 0.75z"/>
</svg>
