<?xml version="1.0" encoding="UTF-8"?>
<svg width="24" height="24" viewBox="0 0 24 24" xmlns="http://www.w3.org/2000/svg">
 <path d="m7 14.69c-0.41 0-0.75-0.34-0.75-0.75v-3.21c0-0.41 0.34-0.75003 0.75-0.75003s0.75 0.34003 0.75 0.75003v3.21c0 0.42-0.34 0.75-0.75 0.75z"/>
 <path d="m12 16.43c-0.41 0-0.75-0.34-0.75-0.75v-6.68c0-0.41 0.34-0.75 0.75-0.75s0.75 0.34 0.75 0.75v6.68c0 0.41-0.34 0.75-0.75 0.75z"/>
 <path d="m17 14.69c-0.41 0-0.75-0.34-0.75-0.75v-3.21c0-0.41 0.34-0.75003 0.75-0.75003s0.75 0.34003 0.75 0.75003v3.21c0 0.42-0.34 0.75-0.75 0.75z"/>
 <path d="m15 22.75h-6c-5.43 0-7.75-2.32-7.75-7.75v-6c0-5.43 2.32-7.75 7.75-7.75h6c5.43 0 7.75 2.32 7.75 7.75v6c0 5.43-2.32 7.75-7.75 7.75zm-6-20c-4.61 0-6.25 1.64-6.25 6.25v6c0 4.61 1.64 6.25 6.25 6.25h6c4.61 0 6.25-1.64 6.25-6.25v-6c0-4.61-1.64-6.25-6.25-6.25h-6z"/>
</svg>
