<?xml version="1.0" encoding="UTF-8"?>
<svg width="24" height="24" viewBox="0 0 24 24" xmlns="http://www.w3.org/2000/svg">
 <path d="m15 22.75h-6c-5.43 0-7.75-2.32-7.75-7.75v-6c0-5.43 2.32-7.75 7.75-7.75h6c5.43 0 7.75 2.32 7.75 7.75v6c0 5.43-2.32 7.75-7.75 7.75zm-6-20c-4.61 0-6.25 1.64-6.25 6.25v6c0 4.61 1.64 6.25 6.25 6.25h6c4.61 0 6.25-1.64 6.25-6.25v-6c0-4.61-1.64-6.25-6.25-6.25h-6z"/>
 <path d="m15.5 19.25c-1.52 0-2.75-1.23-2.75-2.75v-9c0-1.52 1.23-2.75 2.75-2.75s2.75 1.23 2.75 2.75v9c0 1.52-1.23 2.75-2.75 2.75zm0-13c-0.69 0-1.25 0.56-1.25 1.25v9c0 0.69 0.56 1.25 1.25 1.25s1.25-0.56 1.25-1.25v-9c0-0.69-0.56-1.25-1.25-1.25z"/>
 <path d="m8.5 19.25c-1.52 0-2.75-1.23-2.75-2.75v-3.5c0-1.52 1.23-2.75 2.75-2.75s2.75 1.23 2.75 2.75v3.5c0 1.52-1.23 2.75-2.75 2.75zm0-7.5c-0.69 0-1.25 0.56-1.25 1.25v3.5c0 0.69 0.56 1.25 1.25 1.25s1.25-0.56 1.25-1.25v-3.5c0-0.69-0.56-1.25-1.25-1.25z"/>
</svg>
