<svg width="24" height="24" viewBox="0 0 24 24"  xmlns="http://www.w3.org/2000/svg">
<path opacity="0.4" d="M16.19 2H7.81C4.17 2 2 4.17 2 7.81V16.18C2 19.83 4.17 22 7.81 22H16.18C19.82 22 21.99 19.83 21.99 16.19V7.81C22 4.17 19.83 2 16.19 2Z" />
<path d="M16.4201 7.81039V16.1904C16.4201 16.8304 15.9001 17.3504 15.2601 17.3504C14.6101 17.3504 14.0901 16.8304 14.0901 16.1904V7.81039C14.0901 7.17039 14.6101 6.65039 15.2601 6.65039C15.9001 6.65039 16.4201 7.17039 16.4201 7.81039Z" />
<path d="M9.91008 12.9295V16.1895C9.91008 16.8295 9.39008 17.3495 8.74008 17.3495C8.10008 17.3495 7.58008 16.8295 7.58008 16.1895V12.9295C7.58008 12.2895 8.10008 11.7695 8.74008 11.7695C9.39008 11.7695 9.91008 12.2895 9.91008 12.9295Z" />
</svg>
