<svg width="24" height="24" viewBox="0 0 24 24"  xmlns="http://www.w3.org/2000/svg">
<path opacity="0.4" d="M16.19 2H7.81C4.17 2 2 4.17 2 7.81V16.18C2 19.83 4.17 22 7.81 22H16.18C19.82 22 21.99 19.83 21.99 16.19V7.81C22 4.17 19.83 2 16.19 2Z" />
<path d="M7 14.3504C6.59 14.3504 6.25 14.0104 6.25 13.6004V10.4004C6.25 9.99039 6.59 9.65039 7 9.65039C7.41 9.65039 7.75 9.99039 7.75 10.4004V13.6104C7.75 14.0204 7.41 14.3504 7 14.3504Z" />
<path d="M12 16.0902C11.59 16.0902 11.25 15.7502 11.25 15.3402V8.66016C11.25 8.25016 11.59 7.91016 12 7.91016C12.41 7.91016 12.75 8.25016 12.75 8.66016V15.3402C12.75 15.7502 12.41 16.0902 12 16.0902Z" />
<path d="M17 14.3504C16.59 14.3504 16.25 14.0104 16.25 13.6004V10.4004C16.25 9.99039 16.59 9.65039 17 9.65039C17.41 9.65039 17.75 9.99039 17.75 10.4004V13.6104C17.75 14.0204 17.41 14.3504 17 14.3504Z" />
</svg>
