<?xml version="1.0" encoding="UTF-8"?>
<svg width="24" height="24" viewBox="0 0 24 24" xmlns="http://www.w3.org/2000/svg">
 <path d="m22 22.75h-20c-0.41 0-0.75-0.34-0.75-0.75s0.34-0.75 0.75-0.75h20c0.41 0 0.75 0.34 0.75 0.75s-0.34 0.75-0.75 0.75z"/>
 <path d="m14.25 22.75h-4.5c-0.41 0-0.75-0.34-0.75-0.75v-18c0-1.72 0.95-2.75 2.55-2.75h0.9c1.6 0 2.55 1.03 2.55 2.75v18c0 0.41-0.34 0.75-0.75 0.75zm-3.75-1.5h3v-17.25c0-1.15-0.54-1.25-1.05-1.25h-0.9c-0.51 0-1.05 0.1-1.05 1.25v17.25z"/>
 <path d="m7 22.75h-4c-0.41 0-0.75-0.34-0.75-0.75v-12c0-1.72 0.88-2.75 2.35-2.75h0.8c1.47 0 2.35 1.03 2.35 2.75v12c0 0.41-0.34 0.75-0.75 0.75zm-3.25-1.5h2.5v-11.25c0-1.25-0.55-1.25-0.85-1.25h-0.8c-0.3 0-0.85 0-0.85 1.25v11.25z"/>
 <path d="m21 22.75h-4c-0.41 0-0.75-0.34-0.75-0.75v-7c0-1.72 0.88-2.75 2.35-2.75h0.8c1.47 0 2.35 1.03 2.35 2.75v7c0 0.41-0.34 0.75-0.75 0.75zm-3.25-1.5h2.5v-6.25c0-1.25-0.55-1.25-0.85-1.25h-0.8c-0.3 0-0.85 0-0.85 1.25v6.25z"/>
</svg>
