<?xml version="1.0" encoding="UTF-8"?>
<svg width="24" height="24" viewBox="0 0 24 24" xmlns="http://www.w3.org/2000/svg">
 <path d="m12 22.75c-5.93 0-10.75-4.82-10.75-10.75 0-2.36 0.75-4.6 2.17-6.48 0.25-0.33 0.72-0.39 1.05-0.14s0.4 0.72 0.15 1.05c-1.22 1.61-1.87 3.54-1.87 5.57 0 5.1 4.15 9.25 9.25 9.25s9.25-4.15 9.25-9.25-4.15-9.25-9.25-9.25c-0.41 0-0.75-0.34-0.75-0.75s0.34-0.75 0.75-0.75c5.93 0 10.75 4.82 10.75 10.75s-4.82 10.75-10.75 10.75z"/>
 <path d="m12 19.75c-4.27 0-7.75-3.48-7.75-7.75 0-0.41 0.34-0.75 0.75-0.75s0.75 0.34 0.75 0.75c0 3.45 2.8 6.25 6.25 6.25s6.25-2.8 6.25-6.25-2.8-6.25-6.25-6.25c-0.41 0-0.75-0.34-0.75-0.75s0.34-0.75 0.75-0.75c4.27 0 7.75 3.48 7.75 7.75s-3.48 7.75-7.75 7.75z"/>
 <path d="m12 16.75c-0.41 0-0.75-0.34-0.75-0.75s0.34-0.75 0.75-0.75c1.79 0 3.25-1.46 3.25-3.25s-1.46-3.25-3.25-3.25c-0.41 0-0.75-0.34-0.75-0.75s0.34-0.75 0.75-0.75c2.62 0 4.75 2.13 4.75 4.75s-2.13 4.75-4.75 4.75z"/>
</svg>
