<?xml version="1.0" encoding="UTF-8"?>
<svg width="24" height="24" viewBox="0 0 24 24" xmlns="http://www.w3.org/2000/svg">
 <path d="m11.02 20.25h-3.52c-0.75 0-1.3-0.03-1.77-0.1-3.33-0.37-3.98-2.35-3.98-5.65v-5c0-3.3 0.66-5.29 4.01-5.66 0.44-0.06 0.99-0.09 1.74-0.09h3.46c0.41 0 0.75 0.34 0.75 0.75s-0.34 0.75-0.75 0.75h-3.46c-0.68 0-1.16 0.03-1.55 0.08-2.03 0.22-2.7 0.86-2.7 4.17v5c0 3.31 0.67 3.94 2.67 4.17 0.42 0.06 0.9 0.08 1.58 0.08h3.52c0.41 0 0.75 0.34 0.75 0.75s-0.34 0.75-0.75 0.75z"/>
 <path d="m16.5 20.25h-1.48c-0.41 0-0.75-0.34-0.75-0.75s0.34-0.75 0.75-0.75h1.48c0.68 0 1.16-0.03 1.55-0.08 2.03-0.22 2.7-0.86 2.7-4.17v-5c0-3.31-0.67-3.94-2.67-4.17-0.42-0.06-0.9-0.08-1.58-0.08h-1.48c-0.41 0-0.75-0.34-0.75-0.75s0.34-0.75 0.75-0.75h1.48c0.75 0 1.3 0.03 1.77 0.1 3.33 0.37 3.98 2.35 3.98 5.65v5c0 3.3-0.66 5.29-4.01 5.66-0.44 0.06-0.99 0.09-1.74 0.09z"/>
 <path d="m15 22.75c-0.41 0-0.75-0.34-0.75-0.75v-20c0-0.41 0.34-0.75 0.75-0.75s0.75 0.34 0.75 0.75v20c0 0.41-0.34 0.75-0.75 0.75z"/>
 <path d="m8 16.25c-0.41 0-0.75-0.34-0.75-0.75v-7c0-0.41 0.34-0.75 0.75-0.75s0.75 0.34 0.75 0.75v7c0 0.41-0.34 0.75-0.75 0.75z"/>
</svg>
