<?xml version="1.0" encoding="UTF-8"?>
<svg width="24" height="24" viewBox="0 0 24 24" xmlns="http://www.w3.org/2000/svg">
 <path d="m12 22.75c-5.93 0-10.75-4.82-10.75-10.75s4.82-10.75 10.75-10.75 10.75 4.82 10.75 10.75-4.82 10.75-10.75 10.75zm0-20c-5.1 0-9.25 4.15-9.25 9.25s4.15 9.25 9.25 9.25 9.25-4.15 9.25-9.25-4.15-9.25-9.25-9.25z"/>
 <path d="m12 16.75c-2.62 0-4.75-2.13-4.75-4.75s2.13-4.75 4.75-4.75 4.75 2.13 4.75 4.75-2.13 4.75-4.75 4.75zm0-8c-1.79 0-3.25 1.46-3.25 3.25s1.46 3.25 3.25 3.25 3.25-1.46 3.25-3.25-1.46-3.25-3.25-3.25z"/>
 <path d="m21.17 8.7504c-0.05 0-0.11-0.01-0.16-0.02-2.94-0.64-5.91-0.64-8.85 0-0.41 0.09-0.8-0.17-0.89-0.57-0.09-0.41 0.17-0.8 0.57-0.89 3.15-0.69 6.34-0.69 9.49 0 0.4 0.09 0.66 0.49 0.57 0.89-0.07 0.35-0.38 0.59-0.73 0.59z"/>
 <path d="m8.5398 14.75c-0.21 0-0.42-0.09-0.57-0.26-2.08-2.39-3.66-5.12-4.71-8.12l0.69-0.31 0.71-0.24 0.02 0.06c0.98 2.81 2.47 5.38 4.43 7.63 0.27 0.31 0.24 0.79-0.07 1.06-0.15 0.12-0.33 0.18-0.5 0.18z"/>
 <path d="m10.88 22.69c-0.18 0-0.36-0.06-0.5-0.19-0.31-0.28-0.33-0.75-0.05-1.06 2-2.2 3.48-4.75 4.4-7.58 0.13-0.39 0.57-0.65 0.96-0.52s0.62 0.51 0.5 0.9c-1.01 3.12-2.6 5.86-4.74 8.22-0.16 0.15-0.37 0.23-0.57 0.23z"/>
</svg>
