<svg width="24" height="24" viewBox="0 0 24 24"  xmlns="http://www.w3.org/2000/svg">
<path d="M12.0001 16.7505C10.9001 16.7505 10.0001 15.8505 10.0001 14.7505V13.1505C9.29012 12.5605 8.87012 11.6905 8.87012 10.7505C8.87012 9.78051 9.31012 8.88051 10.0901 8.28051C10.8701 7.68051 11.8701 7.48052 12.8401 7.74052C13.9001 8.02052 14.7601 8.88052 15.0301 9.94052C15.3401 11.1505 14.9301 12.3905 14.0001 13.1505V14.7505C14.0001 15.8505 13.1001 16.7505 12.0001 16.7505ZM12.0001 9.13052C11.6401 9.13052 11.3001 9.25051 11.0101 9.47051C10.6101 9.78051 10.3801 10.2505 10.3801 10.7505C10.3801 11.3205 10.6701 11.8305 11.1501 12.1305L11.5101 12.3505V14.7505C11.5101 15.0305 11.7301 15.2505 12.0101 15.2505C12.2901 15.2505 12.5101 15.0305 12.5101 14.7505V12.3505L12.8701 12.1305C13.4901 11.7505 13.7701 11.0305 13.5901 10.3105C13.4501 9.78051 13.0001 9.33052 12.4701 9.19052C12.3001 9.15052 12.1501 9.13052 12.0001 9.13052Z" />
<path d="M12 22.75C6.07 22.75 1.25 17.93 1.25 12C1.25 6.07 6.07 1.25 12 1.25C16.74 1.25 20.86 4.29 22.27 8.8C22.39 9.2 22.17 9.62001 21.78 9.74001C21.38 9.86001 20.96 9.64 20.84 9.25C19.63 5.36 16.08 2.75 12.01 2.75C6.90999 2.75 2.75999 6.9 2.75999 12C2.75999 17.1 6.90999 21.25 12.01 21.25C16.07 21.25 19.62 18.65 20.83 14.78C20.95 14.38 21.37 14.17 21.77 14.29C22.17 14.41 22.38 14.84 22.26 15.23C20.84 19.73 16.72 22.75 12 22.75Z" />
</svg>
