<?xml version="1.0" encoding="UTF-8"?>
<svg width="24" height="24" viewBox="0 0 24 24" xmlns="http://www.w3.org/2000/svg">
 <path d="m12 16.75c-1.1 0-2-0.9-2-2v-1.6c-0.70998-0.59-1.13-1.46-1.13-2.4 0-0.96999 0.44-1.87 1.22-2.47 0.78-0.6 1.78-0.79999 2.75-0.53999 1.06 0.28 1.92 1.14 2.19 2.2 0.31 1.21-0.1 2.45-1.03 3.21v1.6c0 1.1-0.9 2-2 2zm0-7.62c-0.36 0-0.7 0.11999-0.99 0.33999-0.4 0.31-0.63 0.77999-0.63 1.28 0 0.57 0.29 1.08 0.77 1.38l0.36 0.22v2.4c0 0.28 0.22 0.5 0.5 0.5s0.5-0.22 0.5-0.5v-2.4l0.36-0.22c0.62-0.38 0.9-1.1 0.72-1.82-0.14-0.52999-0.59-0.97998-1.12-1.12-0.17-0.04-0.32-0.06-0.47-0.06z"/>
 <path d="m12 22.75c-5.93 0-10.75-4.82-10.75-10.75s4.82-10.75 10.75-10.75c4.74 0 8.86 3.04 10.27 7.55 0.12 0.4-0.1 0.82001-0.49 0.94001-0.4 0.12-0.82-0.10001-0.94-0.49001-1.21-3.89-4.76-6.5-8.83-6.5-5.1 0-9.25 4.15-9.25 9.25s4.15 9.25 9.25 9.25c4.06 0 7.61-2.6 8.82-6.47 0.12-0.4 0.54-0.61 0.94-0.49s0.61 0.55 0.49 0.94c-1.42 4.5-5.54 7.52-10.26 7.52z"/>
</svg>
