<svg width="24" height="24" viewBox="0 0 24 24"  xmlns="http://www.w3.org/2000/svg">
<path opacity="0.4" d="M16.24 3.6499H7.76004C5.29004 3.6499 3.29004 5.6599 3.29004 8.1199V17.5299C3.29004 19.9899 5.30004 21.9999 7.76004 21.9999H16.23C18.7 21.9999 20.7 19.9899 20.7 17.5299V8.1199C20.71 5.6499 18.7 3.6499 16.24 3.6499Z" />
<path d="M14.35 2H9.65001C8.61001 2 7.76001 2.84 7.76001 3.88V4.82C7.76001 5.86 8.60001 6.7 9.64001 6.7H14.35C15.39 6.7 16.23 5.86 16.23 4.82V3.88C16.24 2.84 15.39 2 14.35 2Z" />
<path d="M15.53 16.47L10.81 11.75H12C12.41 11.75 12.75 11.41 12.75 11C12.75 10.59 12.41 10.25 12 10.25H9C8.59 10.25 8.25 10.59 8.25 11V14C8.25 14.41 8.59 14.75 9 14.75C9.41 14.75 9.75 14.41 9.75 14V12.81L14.47 17.53C14.62 17.68 14.81 17.75 15 17.75C15.19 17.75 15.38 17.68 15.53 17.53C15.82 17.24 15.82 16.76 15.53 16.47Z" />
</svg>
