<?xml version="1.0" encoding="UTF-8"?>
<svg width="24" height="24" viewBox="0 0 24 24" xmlns="http://www.w3.org/2000/svg">
 <path d="m13.05 19.42c-0.54 0-1.11-0.05-1.73-0.15l-4.69-0.74c-1.48-0.23-2.62-0.64-3.47-1.24-2.19-1.52-2.06-4.13-1.78-5.96l0.74-4.69c0.68-4.3 2.9-5.91 7.2-5.24l4.69 0.74c2.21 0.35 5.18 1.24 5.37 4.97 0.04 0.64 0 1.37-0.14 2.23l-0.73 4.69c-0.58 3.67-2.29 5.39-5.46 5.39zm-5.52-16.67c-2.38 0-3.46 1.21-3.93 4.13l-0.74 4.69c-0.46 2.95 0.38 3.95 1.16 4.5 0.66 0.47 1.59 0.79 2.84 0.98l4.69 0.74c3.49 0.55 4.93-0.5 5.48-4l0.73-4.69c0.12-0.75 0.16-1.38 0.12-1.91v-0.01c-0.11-2.1-1.3-3.13-4.11-3.57l-4.68-0.73c-0.58-0.09-1.09-0.13-1.56-0.13z"/>
 <path d="m14.68 22.75c-0.85 0-1.81-0.18-2.92-0.55l-4.51-1.5c-2.57-0.8501-3.96-2.0701-4.38-3.8501-0.07-0.3 0.05-0.62 0.31-0.79s0.6-0.17 0.85 0.01c0.66 0.47 1.58 0.79 2.83 0.98l4.69 0.7401c3.49 0.55 4.93-0.5001 5.48-4.0001l0.73-4.69c0.12-0.75 0.16-1.38 0.12-1.91-0.01-0.26 0.12-0.52 0.35-0.67s0.52-0.16 0.76-0.03c2.68 1.43 3.39 3.72 2.23 7.22l-1.5 4.51c-0.71 2.12-1.64 3.4201-2.94 4.0701-0.63 0.31-1.32 0.46-2.1 0.46zm-8.95-4.39c0.48 0.3199 1.12 0.63 1.99 0.92l4.51 1.5c1.72 0.5699 2.95 0.62 3.87 0.17 0.92-0.46 1.62-1.4801 2.19-3.2001l1.5-4.51c0.82-2.48 0.5-3.8-0.45-4.69-0.02 0.25-0.06 0.51-0.1 0.79l-0.73 4.69c-0.68 4.3001-2.9 5.91-7.2 5.2501l-4.69-0.74c-0.31-0.0601-0.61-0.12-0.89-0.18z"/>
 <path d="m8.24 9.7202c-1.37 0-2.49-1.12-2.49-2.49s1.12-2.49 2.49-2.49 2.49 1.12 2.49 2.49-1.12 2.49-2.49 2.49zm0-3.47c-0.54 0-0.99 0.44-0.99 0.99s0.44 0.99 0.99 0.99c0.54 0 0.99-0.44 0.99-0.99s-0.45-0.99-0.99-0.99z"/>
</svg>
