<?xml version="1.0" encoding="UTF-8"?>
<svg width="24" height="24" viewBox="0 0 24 24" xmlns="http://www.w3.org/2000/svg">
 <path d="m10.81 16.95c-0.19 0-0.38-0.07-0.53-0.22l-1.5-1.5c-0.29-0.29-0.29-0.77 0-1.06s0.77-0.29 1.06 0l0.97 0.97 3.47-3.47c0.29-0.29 0.77-0.29 1.06 0s0.29 0.77 0 1.06l-4 4c-0.14 0.15-0.34 0.22-0.53 0.22z"/>
 <path d="m14 6.75h-4c-0.96 0-2.75 0-2.75-2.75s1.79-2.75 2.75-2.75h4c0.96 0 2.75 0 2.75 2.75 0 0.96 0 2.75-2.75 2.75zm-4-4c-0.99 0-1.25 0-1.25 1.25s0.26 1.25 1.25 1.25h4c1.25 0 1.25-0.26 1.25-1.25 0-1.25-0.26-1.25-1.25-1.25h-4z"/>
 <path d="m15 22.75h-6c-5.62 0-6.75-2.58-6.75-6.75v-6c0-4.56 1.65-6.51 5.71-6.72 0.41-0.02 0.77 0.29 0.79 0.71s-0.3 0.76-0.71 0.78c-2.84 0.16-4.29 1.01-4.29 5.23v6c0 3.7 0.73 5.25 5.25 5.25h6c4.52 0 5.25-1.55 5.25-5.25v-6c0-4.22-1.45-5.07-4.29-5.23-0.41-0.02-0.73-0.38-0.71-0.79s0.37-0.73 0.79-0.71c4.06 0.22 5.71 2.17 5.71 6.72v6c0 4.18-1.13 6.76-6.75 6.76z"/>
</svg>
