<?xml version="1.0" encoding="UTF-8"?>
<svg width="24" height="24" viewBox="0 0 24 24" xmlns="http://www.w3.org/2000/svg">
 <path d="m13.4 14.6c-0.19 0-0.38-0.07-0.53-0.22l-1.4-1.4c-0.14-0.14-0.22-0.33-0.22-0.53v-2.79c0-0.41 0.34-0.75 0.75-0.75s0.75 0.34 0.75 0.75v2.48l1.18 1.18c0.29 0.29 0.29 0.77 0 1.06-0.15 0.15-0.34 0.22-0.53 0.22z"/>
 <path d="m12 19.25c-1.59 0-3.09-0.5-4.35-1.45-0.03-0.02-0.05-0.03-0.08-0.05-1.79-1.39-2.82-3.49-2.82-5.75 0-4 3.25-7.25 7.25-7.25s7.25 3.25 7.25 7.25c0 2.25-1.02 4.33-2.79 5.72-0.03 0.02-0.05 0.04-0.08 0.06-1.27 0.96-2.78 1.47-4.38 1.47zm-3.57-2.74c0.03 0.02 0.05 0.03 0.07 0.05 2.03 1.57 5.01 1.56 7.03-0.02 0.02-0.02 0.05-0.04 0.07-0.05 1.37-1.1 2.15-2.73 2.15-4.49 0-3.17-2.58-5.75-5.75-5.75s-5.75 2.58-5.75 5.75c0 1.77 0.79 3.41 2.18 4.51z"/>
 <path d="m12.55 22.75h-1.09c-1.96 0-3.16-0.97-3.67-2.98l-0.5-2.47c-0.04-0.22 0.01-0.45 0.16-0.62s0.36-0.27 0.58-0.27h0.01c0.17 0 0.33 0.05 0.46 0.16 2.03 1.57 5.01 1.56 7.03-0.02 0.31-0.24 0.8-0.19 1.05 0.12 0.14 0.17 0.2 0.4 0.16 0.62l-0.51 2.47c-0.53 2.02-1.73 2.99-3.68 2.99zm-3.46-4.11 0.16 0.8c0.38 1.5 1.16 1.81 2.21 1.81h1.09c1.04 0 1.82-0.31 2.21-1.83l0.16-0.78c-1.81 0.8-4.01 0.81-5.83 0z"/>
 <path d="m16 7.62c-0.17 0-0.34-0.06-0.47-0.16-2.02-1.58-5-1.59-7.03-0.02-0.31 0.24-0.8 0.19-1.04-0.11-0.14-0.17-0.2-0.4-0.16-0.62l0.49-2.44c0.51-2.05 1.71-3.02 3.67-3.02h1.09c1.95 0 3.15 0.97 3.66 2.96l0.52 2.51c0.05 0.22-0.01 0.45-0.15 0.62-0.14 0.18-0.35 0.28-0.58 0.28zm-4-2.87c1.03 0 2.01 0.21 2.92 0.61l-0.17-0.81c-0.39-1.48-1.16-1.8-2.2-1.8h-1.09c-1.05 0-1.83 0.31-2.21 1.85l-0.16 0.76c0.91-0.4 1.89-0.61 2.91-0.61z"/>
</svg>
