<?xml version="1.0" encoding="UTF-8"?>
<svg width="24" height="24" viewBox="0 0 24 24" xmlns="http://www.w3.org/2000/svg">
 <path d="m12 22.75c-5.93 0-10.75-4.82-10.75-10.75s4.82-10.75 10.75-10.75 10.75 4.82 10.75 10.75-4.82 10.75-10.75 10.75zm0-20c-5.1 0-9.25 4.15-9.25 9.25s4.15 9.25 9.25 9.25 9.25-4.15 9.25-9.25-4.15-9.25-9.25-9.25z"/>
 <path d="m15.71 15.93c-0.13 0-0.26-0.03-0.38-0.11l-3.1-1.85c-0.77-0.46-1.34-1.47-1.34-2.36v-4.1c0-0.41 0.34-0.75 0.75-0.75s0.75 0.34 0.75 0.75v4.1c0 0.36 0.3 0.89 0.61 1.07l3.1 1.85c0.36 0.21 0.47 0.67 0.26 1.03-0.15 0.24-0.4 0.37-0.65 0.37z"/>
</svg>
