<svg width="24" height="24" viewBox="0 0 24 24"  xmlns="http://www.w3.org/2000/svg">
<path d="M16.6501 20.7498C16.6401 20.7498 16.6201 20.7498 16.6101 20.7498C16.2001 20.7498 15.8601 20.4098 15.8701 19.9898C15.8701 19.5798 16.2101 19.2498 16.6201 19.2498C16.6301 19.2498 16.6501 19.2498 16.6601 19.2498C17.8001 19.2498 18.8901 18.8298 19.7301 18.0498C21.2801 16.6898 21.3901 14.7498 20.9701 13.3798C20.5501 12.0098 19.3901 10.4598 17.3601 10.1998C17.0301 10.1598 16.7701 9.90977 16.7101 9.57977C16.3101 7.18977 15.0201 5.53977 13.0801 4.93977C11.0601 4.31977 8.73008 4.92977 7.27008 6.45977C5.85008 7.94977 5.52008 10.0198 6.34008 12.3098C6.48008 12.6998 6.28008 13.1298 5.89008 13.2698C5.50008 13.4098 5.07008 13.2098 4.93008 12.8198C3.92008 10.0098 4.38008 7.31977 6.19008 5.42977C8.04008 3.49977 10.9801 2.72977 13.5301 3.51977C15.8601 4.23977 17.5101 6.15977 18.1001 8.81977C20.1401 9.27977 21.7701 10.8198 22.4201 12.9498C23.1301 15.2698 22.4801 17.6498 20.7501 19.1698C19.6101 20.1898 18.1601 20.7498 16.6501 20.7498Z" />
<path d="M5.57008 20.7498C5.55008 20.7498 5.53008 20.7498 5.52008 20.7498C2.64008 20.5498 1.33008 18.2898 1.33008 16.2798C1.33008 14.2698 2.64008 12.0198 5.52008 11.8098C6.26008 11.7998 6.99008 11.9698 7.63008 12.2898C8.00008 12.4798 8.14008 12.9298 7.96008 13.2998C7.77008 13.6698 7.32008 13.8098 6.95008 13.6298C6.53008 13.4098 6.05008 13.3198 5.59008 13.3098C3.70008 13.4498 2.84008 14.8998 2.84008 16.2798C2.84008 17.6598 3.70008 19.1098 5.64008 19.2498C6.05008 19.2798 6.36008 19.6398 6.33008 20.0498C6.29008 20.4498 5.96008 20.7498 5.57008 20.7498Z" />
<path d="M15.8201 10.6398C15.5501 10.6398 15.2801 10.4898 15.1501 10.2198C14.9601 9.84977 15.1101 9.39977 15.4901 9.20977C16.1001 8.89977 16.7901 8.72977 17.4701 8.71977C17.8501 8.73977 18.2301 9.03977 18.2301 9.45977C18.2401 9.86977 17.9101 10.2198 17.4901 10.2198C17.0301 10.2298 16.5701 10.3398 16.1501 10.5498C16.0501 10.6198 15.9301 10.6398 15.8201 10.6398Z" />
<path d="M7.97008 22.7498C7.78008 22.7498 7.59008 22.6798 7.44008 22.5298C7.15008 22.2398 7.15008 21.7598 7.44008 21.4698L9.44008 19.4698C9.73008 19.1798 10.2101 19.1798 10.5001 19.4698C10.7901 19.7598 10.7901 20.2398 10.5001 20.5298L8.50008 22.5298C8.36008 22.6798 8.17008 22.7498 7.97008 22.7498Z" />
<path d="M11.9701 22.7498C11.7801 22.7498 11.5901 22.6798 11.4401 22.5298C11.1501 22.2398 11.1501 21.7598 11.4401 21.4698L13.4401 19.4698C13.7301 19.1798 14.2101 19.1798 14.5001 19.4698C14.7901 19.7598 14.7901 20.2398 14.5001 20.5298L12.5001 22.5298C12.3601 22.6798 12.1701 22.7498 11.9701 22.7498Z" />
<path d="M11.9701 18.7498C11.7801 18.7498 11.5901 18.6798 11.4401 18.5298C11.1501 18.2398 11.1501 17.7598 11.4401 17.4698L13.4401 15.4698C13.7301 15.1798 14.2101 15.1798 14.5001 15.4698C14.7901 15.7598 14.7901 16.2398 14.5001 16.5298L12.5001 18.5298C12.3601 18.6798 12.1701 18.7498 11.9701 18.7498Z" />
<path d="M7.97008 18.7498C7.78008 18.7498 7.59008 18.6798 7.44008 18.5298C7.15008 18.2398 7.15008 17.7598 7.44008 17.4698L9.44008 15.4698C9.73008 15.1798 10.2101 15.1798 10.5001 15.4698C10.7901 15.7598 10.7901 16.2398 10.5001 16.5298L8.50008 18.5298C8.36008 18.6798 8.17008 18.7498 7.97008 18.7498Z" />
</svg>
