<svg width="24" height="24" viewBox="0 0 24 24"  xmlns="http://www.w3.org/2000/svg">
<path d="M19.8 12.0003H4.20005C3.98005 12.0003 3.78006 11.8503 3.71006 11.6403C0.960057 2.55027 14.84 -0.939719 16.44 8.82028C18.1 9.03028 19.41 9.97027 20.22 11.2303C20.44 11.5603 20.19 12.0003 19.8 12.0003Z" />
<path opacity="0.4" d="M20 15.7803H4C3.59 15.7803 3.25 15.4403 3.25 15.0303C3.25 14.6203 3.59 14.2803 4 14.2803H20C20.41 14.2803 20.75 14.6203 20.75 15.0303C20.75 15.4403 20.41 15.7803 20 15.7803Z" />
<path opacity="0.4" d="M18 18.7803H6C5.59 18.7803 5.25 18.4403 5.25 18.0303C5.25 17.6203 5.59 17.2803 6 17.2803H18C18.41 17.2803 18.75 17.6203 18.75 18.0303C18.75 18.4403 18.41 18.7803 18 18.7803Z" />
<path opacity="0.4" d="M15 21.7803H9C8.59 21.7803 8.25 21.4403 8.25 21.0303C8.25 20.6203 8.59 20.2803 9 20.2803H15C15.41 20.2803 15.75 20.6203 15.75 21.0303C15.75 21.4403 15.41 21.7803 15 21.7803Z" />
</svg>
