<svg width="24" height="24" viewBox="0 0 24 24"  xmlns="http://www.w3.org/2000/svg">
<path d="M4.29008 12.3703C3.98008 12.3703 3.69011 12.1803 3.58011 11.8703C2.57011 9.05033 3.03012 6.34034 4.84012 4.45034C6.69012 2.51034 9.65012 1.74033 12.2101 2.53033C14.5501 3.25033 16.2001 5.18032 16.8001 7.86032C18.6001 8.27032 20.1101 9.53032 20.8801 11.3303C21.0401 11.7103 20.8701 12.1503 20.4901 12.3203C20.1101 12.4803 19.6701 12.3103 19.5001 11.9303C18.8501 10.4303 17.6001 9.46034 16.0601 9.26034C15.7301 9.22034 15.4701 8.97035 15.4101 8.64035C15.0101 6.24035 13.7101 4.58034 11.7601 3.98034C9.74011 3.36034 7.39008 3.97033 5.92008 5.50033C4.49008 6.99033 4.16008 9.08034 4.98008 11.3803C5.12008 11.7703 4.92013 12.2003 4.53013 12.3403C4.46013 12.3503 4.37008 12.3703 4.29008 12.3703Z" />
<path d="M14.5399 9.68036C14.2599 9.68036 14 9.53038 13.87 9.26038C13.68 8.89038 13.84 8.44037 14.21 8.25037C14.84 7.94037 15.51 7.77038 16.2 7.76038C16.63 7.78038 16.96 8.08037 16.96 8.50037C16.97 8.91037 16.6399 9.26038 16.2199 9.26038C15.7499 9.27038 15.3 9.38036 14.87 9.59036C14.76 9.66036 14.6499 9.68036 14.5399 9.68036Z" />
<path d="M20 15.7804H4C3.59 15.7804 3.25 15.4404 3.25 15.0304C3.25 14.6204 3.59 14.2804 4 14.2804H20C20.41 14.2804 20.75 14.6204 20.75 15.0304C20.75 15.4404 20.41 15.7804 20 15.7804Z" />
<path d="M18 18.7804H6C5.59 18.7804 5.25 18.4404 5.25 18.0304C5.25 17.6204 5.59 17.2804 6 17.2804H18C18.41 17.2804 18.75 17.6204 18.75 18.0304C18.75 18.4404 18.41 18.7804 18 18.7804Z" />
<path d="M15 21.7804H9C8.59 21.7804 8.25 21.4404 8.25 21.0304C8.25 20.6204 8.59 20.2804 9 20.2804H15C15.41 20.2804 15.75 20.6204 15.75 21.0304C15.75 21.4404 15.41 21.7804 15 21.7804Z" />
</svg>
