<?xml version="1.0" encoding="UTF-8"?>
<svg width="24" height="24" viewBox="0 0 24 24" xmlns="http://www.w3.org/2000/svg">
 <path d="m16.68 20.83h-0.04-11.09c-2.94-0.21-4.26-2.47-4.26-4.49 0-1.8 1.05-3.8 3.34-4.35-0.64-2.5-0.1-4.85 1.53-6.55 1.85-1.94 4.82-2.71 7.37-1.92 2.34 0.72 3.99 2.65 4.59 5.33 2.05 0.46 3.68 2.01 4.34 4.15 0.71 2.33 0.07 4.72-1.68 6.25-1.12 1.01-2.58 1.58-4.1 1.58zm-11.11-7.48h-0.02c-1.9 0.14-2.77 1.6-2.77 2.99s0.87 2.85 2.81 2.99h11.04c1.16-0.02 2.27-0.42 3.13-1.2 1.56-1.37 1.67-3.32 1.25-4.69-0.42-1.38-1.59-2.94-3.63-3.2-0.33-0.04-0.59-0.29004-0.65-0.62004-0.4-2.4-1.7-4.06-3.65-4.66-2.03-0.62-4.37-0.01-5.84 1.52-1.33 1.39-1.71 3.31-1.09 5.42 0.51 0.07 1 0.22 1.45 0.45 0.37 0.19 0.52 0.64 0.33 1.01s-0.64 0.52-1.01 0.33c-0.41-0.21-0.86-0.32-1.31-0.32-0.01-0.02-0.02-0.02-0.04-0.02z"/>
 <path d="m15.85 10.67c-0.28 0-0.54-0.15-0.67-0.42-0.19-0.37002-0.03-0.82002 0.34-1.01 0.62-0.31 1.31-0.48 1.99-0.49 0.4-0.01 0.76 0.32 0.76 0.74 0.01 0.41-0.32 0.76002-0.74 0.76002-0.46 0.01-0.93 0.12-1.35 0.33-0.11 0.06-0.22 0.09-0.33 0.09z"/>
</svg>
