<?xml version="1.0" encoding="UTF-8"?>
<svg width="24" height="24" viewBox="0 0 24 24" xmlns="http://www.w3.org/2000/svg">
 <path d="m4.2901 12.37c-0.31 0-0.59997-0.19-0.70997-0.5-1.01-2.82-0.54999-5.5299 1.26-7.4199 1.85-1.94 4.81-2.71 7.37-1.92 2.34 0.72 3.99 2.65 4.59 5.33 1.8 0.41 3.31 1.67 4.08 3.47 0.16 0.38-0.01 0.8201-0.39 0.9901-0.38 0.16-0.82-0.0101-0.99-0.3901-0.65-1.5-1.9-2.47-3.44-2.67-0.33-0.04-0.59-0.28999-0.65-0.61999-0.4-2.4-1.7-4.06-3.65-4.66-2.02-0.62-4.37-0.01001-5.84 1.52-1.43 1.49-1.76 3.58-0.94 5.88 0.14 0.39-0.05995 0.82-0.44995 0.96-0.07 0.01-0.16005 0.03-0.24005 0.03z"/>
 <path d="m14.54 9.68c-0.28 0-0.5399-0.14998-0.6699-0.41998-0.19-0.37-0.03-0.82001 0.34-1.01 0.63-0.31 1.3-0.47999 1.99-0.48999 0.43 0.02 0.76 0.31999 0.76 0.73999 0.01 0.41-0.3201 0.76001-0.7401 0.76001-0.47 0.01-0.9199 0.11999-1.3499 0.32999-0.11 0.07-0.2201 0.08999-0.3301 0.08999z"/>
 <path d="m20 15.78h-16c-0.41 0-0.75-0.34-0.75-0.75s0.34-0.75 0.75-0.75h16c0.41 0 0.75 0.34 0.75 0.75s-0.34 0.75-0.75 0.75z"/>
 <path d="m18 18.78h-12c-0.41 0-0.75-0.34-0.75-0.75s0.34-0.75 0.75-0.75h12c0.41 0 0.75 0.34 0.75 0.75s-0.34 0.75-0.75 0.75z"/>
 <path d="m15 21.78h-6c-0.41 0-0.75-0.34-0.75-0.75s0.34-0.75 0.75-0.75h6c0.41 0 0.75 0.34 0.75 0.75s-0.34 0.75-0.75 0.75z"/>
</svg>
