<svg width="24" height="24" viewBox="0 0 24 24"  xmlns="http://www.w3.org/2000/svg">
<path d="M16.6501 20.7498C16.6401 20.7498 16.6201 20.7498 16.6101 20.7498C16.2001 20.7498 15.8601 20.4098 15.8701 19.9898C15.8701 19.5798 16.2401 19.2098 16.6301 19.2498C17.7301 19.2498 18.8901 18.8298 19.7401 18.0498C21.2901 16.6898 21.4001 14.7498 20.9801 13.3798C20.5601 12.0098 19.3901 10.4598 17.3701 10.1998C17.0401 10.1598 16.7801 9.90977 16.7201 9.57977C16.3301 7.18977 15.0301 5.53977 13.0901 4.93977C11.0701 4.31977 8.74008 4.92977 7.28008 6.45977C5.86008 7.94977 5.53008 10.0198 6.35008 12.3098C6.49008 12.6998 6.29008 13.1298 5.90008 13.2698C5.51008 13.4098 5.08008 13.2098 4.94008 12.8198C3.93008 10.0098 4.39008 7.31977 6.20008 5.42977C8.05008 3.49977 10.9901 2.72977 13.5401 3.51977C15.8701 4.23977 17.5201 6.15977 18.1101 8.81977C20.1501 9.27977 21.7801 10.8198 22.4301 12.9498C23.1401 15.2698 22.5001 17.6498 20.7601 19.1698C19.6101 20.1898 18.1601 20.7498 16.6501 20.7498Z" />
<path d="M5.57008 20.7498C5.55008 20.7498 5.53008 20.7498 5.52008 20.7498C2.64008 20.5498 1.33008 18.2898 1.33008 16.2798C1.33008 14.2698 2.64008 12.0198 5.52008 11.8098C6.28008 11.8198 6.99008 11.9698 7.63008 12.2898C8.00008 12.4798 8.14008 12.9298 7.96008 13.2998C7.77008 13.6698 7.32008 13.8098 6.95008 13.6298C6.53008 13.4098 6.06008 13.3098 5.59008 13.3098C3.70008 13.4498 2.84008 14.8998 2.84008 16.2798C2.84008 17.6598 3.70008 19.1098 5.63008 19.2498C6.04008 19.2798 6.35008 19.6398 6.33008 20.0498C6.29008 20.4498 5.96008 20.7498 5.57008 20.7498Z" />
<path d="M15.8201 10.6398C15.5401 10.6398 15.2801 10.4898 15.1501 10.2198C14.9601 9.84977 15.1101 9.39977 15.4901 9.20977C16.1001 8.89977 16.7901 8.72977 17.4701 8.71977H17.4801C17.8901 8.71977 18.2201 9.04977 18.2301 9.45977C18.2401 9.86977 17.9101 10.2198 17.4901 10.2198C17.0301 10.2298 16.5701 10.3398 16.1501 10.5498C16.0401 10.6198 15.9301 10.6398 15.8201 10.6398Z" />
<path d="M12.9801 18.9998C12.4201 18.9998 11.9801 18.5498 11.9801 17.9998C11.9801 17.4498 12.4301 16.9998 12.9801 16.9998C13.5301 16.9998 13.9801 17.4498 13.9801 17.9998C13.9801 18.5498 13.5301 18.9998 12.9801 18.9998Z" />
<path d="M8.98008 18.9998C8.42008 18.9998 7.98008 18.5498 7.98008 17.9998C7.98008 17.4498 8.43008 16.9998 8.98008 16.9998C9.53008 16.9998 9.98008 17.4498 9.98008 17.9998C9.98008 18.5498 9.53008 18.9998 8.98008 18.9998Z" />
<path d="M10.9801 21.9998C10.4201 21.9998 9.98008 21.5498 9.98008 20.9998C9.98008 20.4498 10.4301 19.9998 10.9801 19.9998C11.5301 19.9998 11.9801 20.4498 11.9801 20.9998C11.9801 21.5498 11.5301 21.9998 10.9801 21.9998Z" />
</svg>
