<svg width="24" height="24" viewBox="0 0 24 24"  xmlns="http://www.w3.org/2000/svg">
<path opacity="0.4" d="M20.2701 17.1897C19.2701 18.0997 17.9801 18.5997 16.6301 18.5897H16.54C16.84 17.9697 17.0001 17.2697 17.0001 16.5297C17.0001 13.7697 14.7601 11.5297 12.0001 11.5297C9.24005 11.5297 7.00005 13.7697 7.00005 16.5297C7.00005 17.2697 7.16007 17.9697 7.46007 18.5897H5.54003C0.860029 18.2597 0.860029 11.4497 5.54003 11.1197H5.59008C2.38008 2.18966 15.92 -1.38034 17.47 7.99966C21.8 8.54966 23.5501 14.3197 20.2701 17.1897Z" />
<path d="M12 11.5303C9.24 11.5303 7 13.7703 7 16.5303C7 17.2703 7.16002 17.9703 7.46002 18.5903C7.54002 18.7703 7.62998 18.9403 7.72998 19.1003C8.58998 20.5503 10.18 21.5303 12 21.5303C13.82 21.5303 15.41 20.5503 16.27 19.1003C16.37 18.9403 16.46 18.7703 16.54 18.5903C16.84 17.9703 17 17.2703 17 16.5303C17 13.7703 14.76 11.5303 12 11.5303ZM14.07 16.1003L11.94 18.0703C11.8 18.2003 11.61 18.2703 11.43 18.2703C11.24 18.2703 11.05 18.2003 10.9 18.0503L9.90997 17.0603C9.61997 16.7703 9.61997 16.2903 9.90997 16.0003C10.2 15.7103 10.68 15.7103 10.97 16.0003L11.45 16.4803L13.05 15.0003C13.36 14.7203 13.83 14.7403 14.11 15.0403C14.39 15.3403 14.37 15.8103 14.07 16.1003Z" />
</svg>
