<?xml version="1.0" encoding="UTF-8"?>
<svg width="24" height="24" viewBox="0 0 24 24" xmlns="http://www.w3.org/2000/svg">
 <path d="m12.97 18.36c-0.19 0-0.38-0.07-0.53-0.22l-2.11-2.11c-0.29-0.29-0.29-0.77 0-1.06s0.77-0.29 1.06 0l2.11 2.11c0.29 0.29 0.29 0.77 0 1.06-0.14 0.15-0.34 0.22-0.53 0.22z"/>
 <path d="m10.83 18.39c-0.19 0-0.38-0.07-0.53-0.22-0.29-0.29-0.29-0.77 0-1.06l2.11-2.11c0.29-0.29 0.77-0.29 1.06 0s0.29 0.77 0 1.06l-2.11 2.11c-0.14 0.14-0.33 0.22-0.53 0.22z"/>
 <path d="m7.4598 19.34h-1.92c-2.94-0.21-4.26-2.47-4.26-4.49s1.32-4.28 4.21-4.48c0.4-0.04 0.77 0.28 0.8 0.7s-0.28 0.77-0.7 0.8c-1.94 0.14-2.81 1.6-2.81 2.99s0.87 2.85 2.81 2.99h1.87c0.41 0 0.75 0.34 0.75 0.75s-0.34 0.74-0.75 0.74z"/>
 <path d="m16.67 19.34h-0.05c-0.41 0-0.79-0.34-0.79-0.75 0-0.43 0.33-0.75 0.74-0.75 1.24 0 2.33-0.43 3.19-1.2 1.56-1.36 1.66-3.32 1.24-4.7-0.42-1.37-1.59-2.94-3.63-3.19-0.33-0.04-0.59-0.28999-0.65-0.61999-0.4-2.4-1.69-4.06-3.65-4.66-2.03-0.63-4.38-0.01-5.85 1.53-1.43 1.49-1.76 3.58-0.93 5.88 0.14 0.39-0.06 0.82-0.45 0.96s-0.82-0.06-0.96-0.45c-1.01-2.82-0.55-5.52 1.26-7.42 1.85-1.94 4.82-2.71 7.37-1.93 2.34 0.72 3.99 2.65 4.59 5.33 2.05 0.46 3.68 2.01 4.33 4.15 0.71 2.33 0.07 4.73-1.67 6.25-1.12 1-2.57 1.57-4.09 1.57z"/>
 <path d="m12 22.28c-2.01 0-3.89-1.07-4.92-2.8-0.11-0.17-0.22-0.38-0.31-0.59-0.34-0.71-0.52-1.51-0.52-2.36 0-3.17 2.58-5.75 5.75-5.75s5.75 2.58 5.75 5.75c0 0.85-0.18 1.65-0.53 2.39-0.08 0.19-0.19 0.39-0.31 0.58-1.02 1.71-2.9 2.78-4.91 2.78zm0-10c-2.34 0-4.25 1.91-4.25 4.25 0 0.62 0.13 1.21 0.38 1.73 0.08 0.17 0.15 0.31 0.23 0.44 0.76 1.29 2.15 2.08 3.63 2.08s2.87-0.79 3.62-2.06c0.09-0.15 0.16-0.28 0.23-0.43 0.27-0.55 0.4-1.13 0.4-1.76 0.01-2.34-1.9-4.25-4.24-4.25z"/>
</svg>
