<?xml version="1.0" encoding="UTF-8"?>
<svg width="24" height="24" viewBox="0 0 24 24" xmlns="http://www.w3.org/2000/svg">
 <path d="m16.67 20.83h-0.04-11.09c-2.94-0.21-4.26-2.48-4.26-4.49 0-1.8 1.05-3.8 3.33-4.35-1-3.84 0.9-6.53 3.14-7.8 2.6-1.48 6.47-1.49 8.82 1.36l0.06 0.09c0.7 0.89 1.19 1.96 1.47 3.2 1.23 0.27 2.29 0.93 3.12 1.91 1.89 2.23 2.25 6.11-0.45 8.49-1.12 1.03-2.57 1.59-4.1 1.59zm-5.18-16.13c-1.06 0-2.11 0.29-2.99 0.79-2.42 1.38-3.24 3.94-2.2 6.86 0.08 0.23 0.05 0.49-0.09 0.68s-0.37001 0.32-0.61001 0.32c-1.94 0.14-2.81 1.6-2.81 2.99s0.86999 2.85 2.81 3h11.04c1.16 0.01 2.28-0.42 3.13-1.2l0.01-0.01c2.03-1.78 1.73-4.71 0.3-6.4-0.7-0.83-1.63-1.34-2.7-1.48-0.33-0.04-0.59-0.28995-0.64-0.61995-0.21-1.24-0.65-2.28-1.31-3.1-0.02-0.02-0.03-0.05-0.05-0.07-1.06-1.24-2.48-1.76-3.89-1.76z"/>
 <path d="m7.2598 13.76c-0.11 0-0.23-0.03-0.33-0.08-0.42-0.21-0.88-0.32-1.35-0.33-0.41-0.01-0.74-0.35-0.74-0.76 0.01-0.41 0.4-0.75 0.76-0.74 0.69 0.01 1.38 0.18 1.99 0.49 0.37 0.18 0.52 0.64 0.34 1.01-0.13 0.26-0.39 0.41-0.67 0.41z"/>
 <path d="m15.85 10.67c-0.28 0-0.54-0.15-0.67-0.42-0.19-0.37002-0.03-0.82002 0.34-1.01 0.62-0.31 1.31-0.48 1.99-0.49 0.4-0.01 0.76 0.32 0.76 0.74 0.01 0.41-0.32 0.76002-0.74 0.76002-0.46 0.01-0.93 0.12-1.35 0.33-0.11 0.06-0.22 0.09-0.33 0.09z"/>
 <path d="m20.65 11.98c-0.21 0-0.43-0.09-0.58-0.27-0.69-0.83-1.63-1.34-2.7-1.48-0.33-0.04-0.59-0.29-0.64-0.62-0.21-1.24-0.65-2.28-1.31-3.1-0.11-0.13-0.17-0.3-0.17-0.47 0-0.2 0.08-0.4 0.22-0.54 0.8-0.81 1.86-1.25 3-1.25 2.34 0 4.25 1.91 4.25 4.25 0 1.3-0.58 2.51-1.6 3.32-0.14 0.11-0.3 0.16-0.47 0.16zm-2.54-3.14c0.96 0.21 1.83 0.66 2.55 1.32 0.36-0.47 0.56-1.05 0.56-1.66 0-1.52-1.23-2.75-2.75-2.75-0.52 0-1.02 0.14-1.45 0.42 0.51 0.77 0.87 1.67 1.09 2.67z"/>
</svg>
