<?xml version="1.0" encoding="UTF-8"?>
<svg width="24" height="24" viewBox="0 0 24 24" xmlns="http://www.w3.org/2000/svg">
 <path d="m14.81 17.1h-0.03-6.67c-1.98-0.14-2.86-1.65-2.86-3 0-1.13 0.62001-2.37 1.95-2.83-0.3-1.5 0.07-2.9 1.06-3.94 1.19-1.25 3.1-1.74 4.74-1.24 1.46 0.45 2.51 1.62 2.92 3.25 1.25 0.35 2.24 1.3299 2.65 2.6599 0.46 1.52 0.04 3.08-1.1 4.07-0.72 0.66-1.67 1.03-2.66 1.03zm-6.67-4.5c-1.02 0.09-1.39 0.86-1.39 1.5 0 0.65 0.37 1.43 1.41 1.5h6.62c0.65 0 1.22-0.22 1.68-0.65 0.84-0.73 0.89-1.78 0.67-2.52s-0.85-1.58-1.94-1.71c-0.33-0.04-0.59-0.29-0.65-0.62-0.22-1.33-0.93-2.2399-1.99-2.5699-1.09-0.34-2.42 0.00997-3.21 0.83997-0.78 0.81-0.95 1.96-0.5 3.23 0.14 0.39-0.05999 0.82-0.44999 0.96-0.08 0.03-0.21 0.05-0.25 0.04z"/>
 <path d="m9 22.75c-4.27 0-7.75-3.48-7.75-7.75 0-0.41 0.34-0.75 0.75-0.75s0.75 0.34 0.75 0.75c0 2.96 2.06 5.44 4.83 6.09l-0.26999-0.45c-0.21-0.36-0.09999-0.82 0.26001-1.03 0.35-0.21 0.82-0.1 1.03 0.26l1.05 1.75c0.14 0.23 0.14001 0.52 0.01001 0.75-0.14 0.23-0.39 0.38-0.66 0.38z"/>
 <path d="m22 9.75c-0.41 0-0.75-0.34-0.75-0.75 0-2.96-2.06-5.44-4.83-6.09l0.27 0.45002c0.21 0.36 0.1 0.82002-0.26 1.03-0.35 0.21-0.82 0.1-1.03-0.26001l-1.05-1.75c-0.14-0.23-0.14-0.52-0.01-0.75 0.13-0.24 0.38-0.38 0.65-0.38 4.27 0 7.75 3.48 7.75 7.75 0.01 0.41-0.33 0.75-0.74 0.75z"/>
</svg>
