<svg width="24" height="24" viewBox="0 0 24 24"  xmlns="http://www.w3.org/2000/svg">
<path d="M20.48 10.6899L2.01001 15.7199C2.12001 14.1299 3.11001 12.4599 5.11001 11.9699C4.52001 9.63986 5.02001 7.44986 6.54001 5.85986C8.27001 4.04986 11.03 3.32986 13.41 4.06986C15.6 4.73986 17.14 6.53986 17.69 9.03986C18.78 9.28986 19.75 9.85986 20.48 10.6899Z" />
<path opacity="0.4" d="M20.17 18.7404C19.13 19.6904 17.77 20.2204 16.35 20.2204H5.97C3.23 20.0204 2 17.9104 2 16.0304C2 15.9304 2 15.8304 2.01 15.7204L20.48 10.6904C21.05 11.3004 21.48 12.0504 21.74 12.9104C22.4 15.0804 21.8 17.3104 20.17 18.7404Z" />
</svg>
