<?xml version="1.0" encoding="UTF-8"?>
<svg width="24" height="24" viewBox="0 0 24 24" xmlns="http://www.w3.org/2000/svg">
 <path d="m16.67 20.83h-0.04-11.09c-2.94-0.21-4.26-2.48-4.26-4.49 0-1.8 1.05-3.8 3.33-4.35-0.63-2.52-0.08-4.88 1.58-6.59 1.88-1.94 4.87-2.69 7.42-1.86 0.39 0.13 0.61 0.55 0.48 0.94s-0.55 0.61-0.94 0.48c-2.03-0.65-4.4-0.06-5.89 1.49-1.45 1.5-1.79 3.59-0.96 5.9 0.08 0.23 0.05 0.49-0.09 0.68s-0.37001 0.32-0.61001 0.32c-1.94 0.14-2.81 1.6-2.81 2.99s0.86999 2.85 2.81 3h11.04c1.14 0.01 2.28-0.42 3.13-1.2 1.15-1.01 1.65-2.48 1.4-4.04-0.07-0.41 0.21-0.79 0.62-0.86s0.79 0.21 0.86 0.62c0.34 2.06-0.37 4.08-1.87 5.4-1.12 1-2.58 1.57-4.11 1.57z"/>
 <path d="m7.2598 13.76c-0.11 0-0.23-0.03-0.33-0.08-0.42-0.21-0.88-0.32-1.35-0.33-0.41-0.01-0.74-0.35-0.74-0.76 0.01-0.41 0.4-0.75 0.76-0.74 0.69 0.01 1.38 0.18 1.99 0.49 0.37 0.18 0.52 0.64 0.34 1.01-0.13 0.26-0.39 0.41-0.67 0.41z"/>
 <path d="m18.47 12.75c-2.34 0-4.25-1.91-4.25-4.25 0-1.1 0.42-2.14 1.18-2.92 0.02-0.03 0.04-0.05 0.06-0.07 0.8-0.81 1.86-1.25 3-1.25 2.34 0 4.25 1.91 4.25 4.25 0 1.3-0.58 2.51-1.6 3.32-0.73 0.59-1.67 0.92-2.64 0.92zm-1.87-6.25c-0.02 0.03-0.04 0.05-0.07 0.08-0.52 0.51-0.81 1.2-0.81 1.93 0 1.52 1.23 2.75 2.75 2.75 0.62 0 1.23-0.21 1.71-0.6 0.67-0.53 1.04-1.31 1.04-2.15 0-1.52-1.23-2.75-2.75-2.75-0.71-0.01-1.37 0.26-1.87 0.74z"/>
</svg>
