<?xml version="1.0" encoding="UTF-8"?>
<svg width="24" height="24" viewBox="0 0 24 24" xmlns="http://www.w3.org/2000/svg">
 <path d="m16.06 16.75h-0.04-9.66c-2.63-0.18-3.81-2.2-3.81-4 0-1.58 0.91002-3.33 2.89-3.85-0.52-2.17-0.04001-4.2001 1.37-5.6801 1.64-1.72 4.26-2.3999 6.53-1.7 2.06 0.63 3.51 2.31 4.05 4.64 1.79 0.43 3.22 1.79 3.79 3.67 0.63 2.06 0.05 4.1699-1.5 5.5199-0.97 0.9-2.26 1.4001-3.62 1.4001zm-9.66-6.49c-1.61 0.13-2.33 1.34-2.33 2.49 0 1.16 0.72999 2.38 2.36 2.5h9.61 0.03c0.98 0 1.92-0.3601 2.63-1.0201 1.32-1.15 1.41-2.7999 1.06-3.9699-0.36-1.17-1.35-2.49-3.09-2.71-0.33-0.04-0.59-0.28999-0.65-0.61999-0.34-2.05-1.45-3.46-3.11-3.97-1.71-0.52-3.76 0.00999-5 1.31-1.21 1.27-1.49 3.04-0.79001 5 0.14 0.39-0.05998 0.81992-0.44998 0.95992-0.09 0.02-0.17002 0.0401-0.27002 0.0301z"/>
 <path d="m12 19.75c-0.41 0-0.75-0.34-0.75-0.75v-3c0-0.41 0.34-0.75 0.75-0.75s0.75 0.34 0.75 0.75v3c0 0.41-0.34 0.75-0.75 0.75z"/>
 <path d="m12 23.75c-1.52 0-2.75-1.23-2.75-2.75s1.23-2.75 2.75-2.75 2.75 1.23 2.75 2.75-1.23 2.75-2.75 2.75zm0-4c-0.69 0-1.25 0.56-1.25 1.25s0.56 1.25 1.25 1.25 1.25-0.56 1.25-1.25-0.56-1.25-1.25-1.25z"/>
 <path d="m18 21.75h-4c-0.41 0-0.75-0.34-0.75-0.75s0.34-0.75 0.75-0.75h4c0.41 0 0.75 0.34 0.75 0.75s-0.34 0.75-0.75 0.75z"/>
 <path d="m10 21.75h-4c-0.41 0-0.75-0.34-0.75-0.75s0.34-0.75 0.75-0.75h4c0.41 0 0.75 0.34 0.75 0.75s-0.34 0.75-0.75 0.75z"/>
</svg>
