<?xml version="1.0" encoding="UTF-8"?>
<svg width="24" height="24" viewBox="0 0 24 24" xmlns="http://www.w3.org/2000/svg">
 <path d="m16.65 20.75h-0.04c-0.41 0-0.75-0.34-0.74-0.76 0-0.41 0.37-0.78 0.76-0.74 1.1 0 2.26-0.42 3.11-1.2 1.55-1.36 1.66-3.3 1.24-4.67s-1.59-2.92-3.61-3.18c-0.33-0.04-0.59-0.28999-0.65-0.61999-0.39-2.39-1.69-4.04-3.63-4.64-2.02-0.62-4.35-0.01-5.81 1.52-1.42 1.49-1.75 3.56-0.93 5.85 0.14 0.39-0.06 0.82-0.45 0.96s-0.82-0.06-0.96-0.45c-1.01-2.81-0.55-5.5 1.26-7.39 1.85-1.93 4.79-2.7 7.34-1.91 2.33 0.72 3.98 2.64 4.57 5.3 2.04 0.46 3.67 2 4.32 4.13 0.71 2.32 0.07 4.7-1.67 6.22-1.15 1.02-2.6 1.58-4.11 1.58z"/>
 <path d="m5.5701 20.75h-0.05c-2.88-0.2-4.19-2.46-4.19-4.47s1.31-4.26 4.19-4.47c0.76 0.01 1.47 0.16 2.11 0.48 0.37 0.19 0.51 0.64 0.33 1.01-0.19 0.37-0.64 0.51-1.01 0.33-0.42-0.22-0.89-0.32-1.36-0.32-1.89 0.14-2.75 1.59-2.75 2.97s0.86 2.83 2.79 2.97c0.41 0.03 0.72 0.39 0.7 0.8-0.04 0.4-0.37 0.7-0.76 0.7z"/>
 <path d="m15.82 10.64c-0.28 0-0.54-0.15-0.67-0.42-0.19-0.37003-0.04-0.82003 0.34-1.01 0.61-0.31 1.3-0.48 1.98-0.49h0.01c0.41 0 0.74 0.33 0.75 0.74s-0.32 0.76003-0.74 0.76003c-0.46 0.01-0.92 0.12-1.34 0.33-0.11 0.07-0.22 0.09-0.33 0.09z"/>
 <path d="m12.98 19c-0.56 0-1-0.45-1-1s0.45-1 1-1 1 0.45 1 1-0.45 1-1 1z"/>
 <path d="m8.98 19c-0.56 0-1-0.45-1-1s0.45-1 1-1 1 0.45 1 1-0.45 1-1 1z"/>
 <path d="m10.98 22c-0.56 0-1-0.45-1-1s0.45002-1 1-1 1 0.45 1 1-0.45 1-1 1z"/>
</svg>
