<svg width="24" height="24" viewBox="0 0 24 24"  xmlns="http://www.w3.org/2000/svg">
<path opacity="0.4" d="M21.74 11.7396C21.13 9.73956 19.61 8.29956 17.7 7.86956C17.14 5.36956 15.6 3.57956 13.42 2.89956C11.04 2.16956 8.28 2.87956 6.55 4.68956C5.02 6.27956 4.52 8.46956 5.11 10.7996C2.98 11.3196 2 13.1796 2 14.8596C2 16.7396 3.23 18.8496 5.97 19.0396H8.5V16.4096C8.5 15.1396 9.26 14.3796 10.53 14.3796H13.47C14.74 14.3796 15.5 15.1396 15.5 16.4096V19.0396H16.31C16.32 19.0396 16.34 19.0396 16.35 19.0396C17.77 19.0396 19.13 18.5096 20.17 17.5596C21.8 16.1396 22.4 13.9096 21.74 11.7396Z" />
<path d="M13.47 14.3896H10.53C9.26 14.3896 8.5 15.1496 8.5 16.4196V19.3596C8.5 20.6296 9.26 21.3896 10.53 21.3896H13.47C14.74 21.3896 15.5 20.6296 15.5 19.3596V16.4196C15.5 15.1496 14.74 14.3896 13.47 14.3896ZM10.5 17.6296C10.08 17.6296 9.75 17.2896 9.75 16.8796C9.75 16.4696 10.08 16.1296 10.5 16.1296C10.92 16.1296 11.25 16.4696 11.25 16.8796C11.25 17.2896 10.91 17.6296 10.5 17.6296ZM12 19.8796C11.59 19.8796 11.25 19.5396 11.25 19.1296C11.25 18.7196 11.59 18.3796 12 18.3796C12.41 18.3796 12.75 18.7196 12.75 19.1296C12.75 19.5396 12.42 19.8796 12 19.8796ZM13.51 17.6296C13.09 17.6296 12.76 17.2896 12.76 16.8796C12.76 16.4696 13.09 16.1296 13.51 16.1296C13.93 16.1296 14.26 16.4696 14.26 16.8796C14.26 17.2896 13.92 17.6296 13.51 17.6296Z" />
</svg>
