<?xml version="1.0" encoding="UTF-8"?>
<svg width="24" height="24" viewBox="0 0 24 24" xmlns="http://www.w3.org/2000/svg">
 <path d="m9 17.75c-0.11 0-0.23-0.03-0.33-0.08-0.77-0.39-1.43-0.97-1.91-1.69-0.4-0.6-0.4-1.37 0-1.97 0.48-0.72 1.14-1.3 1.91-1.68 0.37-0.19 0.82-0.03 1.01 0.34s0.04 0.82-0.34 1.01c-0.54 0.27-1 0.68-1.33 1.18-0.06 0.09-0.06 0.21 0 0.31 0.33 0.5 0.79 0.91 1.33 1.18 0.37 0.19 0.52 0.64 0.34 1.01-0.14 0.24-0.41 0.39-0.68 0.39z"/>
 <path d="m15.21 17.75c-0.28 0-0.54-0.15-0.67-0.41-0.19-0.37-0.04-0.82 0.34-1.01 0.54-0.27 1-0.68 1.33-1.18 0.06-0.09 0.06-0.21 0-0.31-0.33-0.5-0.79-0.91-1.33-1.18-0.37-0.19-0.52-0.64-0.34-1.01 0.19-0.37 0.64-0.52 1.01-0.34 0.77 0.39 1.43 0.97 1.91 1.69 0.4 0.6 0.4 1.37 0 1.97-0.48 0.72-1.14 1.3-1.91 1.68-0.12 0.07-0.23 0.1-0.34 0.1z"/>
 <path d="m15 22.75h-6c-5.43 0-7.75-2.32-7.75-7.75v-6c0-5.43 2.32-7.75 7.75-7.75h6c5.43 0 7.75 2.32 7.75 7.75v6c0 5.43-2.32 7.75-7.75 7.75zm-6-20c-4.61 0-6.25 1.64-6.25 6.25v6c0 4.61 1.64 6.25 6.25 6.25h6c4.61 0 6.25-1.64 6.25-6.25v-6c0-4.61-1.64-6.25-6.25-6.25h-6z"/>
 <path d="m2.23 8.76c-0.41 0-0.75-0.34-0.75-0.75s0.33-0.75 0.75-0.75l19.22-0.01c0.41 0 0.75 0.34 0.75 0.75s-0.33 0.75-0.75 0.75l-19.22 0.01z"/>
</svg>
