<?xml version="1.0" encoding="UTF-8"?>
<svg width="24" height="24" viewBox="0 0 24 24" xmlns="http://www.w3.org/2000/svg">
 <path d="m6.8899 15.75c-0.28 0-0.54-0.15-0.67-0.41-0.19-0.37-0.04-0.82 0.34-1.01 0.87-0.43 1.61-1.09 2.14-1.89 0.18-0.27 0.18-0.61 0-0.88-0.54-0.8-1.28-1.46-2.14-1.89-0.38-0.18-0.53-0.63-0.34-1.01 0.18-0.37 0.63-0.52 1-0.33 1.1 0.55 2.04 1.38 2.72 2.4 0.50999 0.77 0.50999 1.77 0 2.54-0.68 1.02-1.62 1.85-2.72 2.4-0.1 0.05-0.22 0.08-0.33 0.08z"/>
 <path d="m17 15.75h-4c-0.41 0-0.75-0.34-0.75-0.75s0.34-0.75 0.75-0.75h4c0.41 0 0.75 0.34 0.75 0.75s-0.34 0.75-0.75 0.75z"/>
 <path d="m15 22.75h-6c-5.43 0-7.75-2.32-7.75-7.75v-6c0-5.43 2.32-7.75 7.75-7.75h6c5.43 0 7.75 2.32 7.75 7.75v6c0 5.43-2.32 7.75-7.75 7.75zm-6-20c-4.61 0-6.25 1.64-6.25 6.25v6c0 4.61 1.64 6.25 6.25 6.25h6c4.61 0 6.25-1.64 6.25-6.25v-6c0-4.61-1.64-6.25-6.25-6.25h-6z"/>
</svg>
