<?xml version="1.0" encoding="UTF-8"?>
<svg width="24" height="24" viewBox="0 0 24 24" xmlns="http://www.w3.org/2000/svg">
 <path d="m13.58 22.75h-7.37c-2.74 0-4.96-2.23-4.96-4.96v-7.32c0-2.74 2.23-4.96 4.96-4.96h7.37c2.74 0 4.96 2.23 4.96 4.96v7.32c0 2.73-2.23 4.96-4.96 4.96zm-7.37-15.74c-1.91 0-3.46 1.55-3.46 3.46v7.32c0 1.91 1.55 3.46 3.46 3.46h7.37c1.91 0 3.46-1.55 3.46-3.46v-7.32c0-1.91-1.55-3.46-3.46-3.46h-7.37z"/>
 <path d="m5.5 4.75c-0.41 0-0.75-0.34-0.75-0.75v-1.75c0-0.41 0.34-0.75 0.75-0.75s0.75 0.34 0.75 0.75v1.75c0 0.41-0.34 0.75-0.75 0.75z"/>
 <path d="m9.5 4.75c-0.41 0-0.75-0.34-0.75-0.75v-1.75c0-0.41 0.34-0.75 0.75-0.75s0.75 0.34 0.75 0.75v1.75c0 0.41-0.34 0.75-0.75 0.75z"/>
 <path d="m13.5 4.75c-0.41 0-0.75-0.34-0.75-0.75v-1.75c0-0.41 0.34-0.75 0.75-0.75s0.75 0.34 0.75 0.75v1.75c0 0.41-0.34 0.75-0.75 0.75z"/>
 <path d="m17.79 18.12c-0.41 0-0.75-0.34-0.75-0.75v-8.42c0-0.41 0.34-0.75 0.75-0.75 2.74 0 4.96 2.23 4.96 4.96s-2.23 4.96-4.96 4.96zm0.75-8.34v6.76c1.55-0.34 2.71-1.73 2.71-3.38s-1.16-3.04-2.71-3.38z"/>
 <path d="m17.51 12.75h-15.51c-0.41 0-0.75-0.34-0.75-0.75s0.34-0.75 0.75-0.75h15.51c0.41 0 0.75 0.34 0.75 0.75s-0.34 0.75-0.75 0.75z"/>
</svg>
