<svg width="24" height="24" viewBox="0 0 24 24"  xmlns="http://www.w3.org/2000/svg">
<path d="M10.84 13.5402H9.34C8.19 13.5402 7.26 12.5802 7.26 11.3902C7.26 10.9802 7.6 10.6402 8.01 10.6402C8.42 10.6402 8.76 10.9802 8.76 11.3902C8.76 11.7502 9.02 12.0402 9.34 12.0402H10.84C11.07 12.0402 11.25 11.8302 11.25 11.5702C11.25 11.2202 11.19 11.2002 10.96 11.1202L8.55 10.2802C7.68 9.98023 7.25 9.37023 7.25 8.42023C7.25 7.34023 8.11 6.45023 9.16 6.45023H10.66C11.81 6.45023 12.74 7.41023 12.74 8.60023C12.74 9.01023 12.4 9.35023 11.99 9.35023C11.58 9.35023 11.24 9.01023 11.24 8.60023C11.24 8.24023 10.98 7.95023 10.66 7.95023H9.16C8.93 7.95023 8.75 8.16023 8.75 8.42023C8.75 8.77023 8.81 8.79023 9.04 8.87023L11.45 9.71023C12.32 10.0202 12.74 10.6302 12.74 11.5702C12.75 12.6602 11.89 13.5402 10.84 13.5402Z" />
<path d="M10 14.3402C9.59 14.3402 9.25 14.0002 9.25 13.5902V12.8502C9.25 12.4402 9.59 12.1002 10 12.1002C10.41 12.1002 10.75 12.4402 10.75 12.8502V13.5902C10.75 14.0102 10.41 14.3402 10 14.3402Z" />
<path d="M10 7.94023C9.59 7.94023 9.25 7.60023 9.25 7.19023V6.41023C9.25 6.00023 9.59 5.66023 10 5.66023C10.41 5.66023 10.75 6.00023 10.75 6.41023V7.19023C10.75 7.60023 10.41 7.94023 10 7.94023Z" />
<path d="M9.99 18.7202C5.17 18.7202 1.25 14.8002 1.25 9.98023C1.25 5.16023 5.17 1.24023 9.99 1.24023C14.81 1.24023 18.73 5.16023 18.73 9.98023C18.73 14.8002 14.8 18.7202 9.99 18.7202ZM9.99 2.75023C6 2.75023 2.75 6.00023 2.75 9.99023C2.75 13.9802 6 17.2202 9.99 17.2202C13.98 17.2202 17.23 13.9702 17.23 9.98023C17.23 5.99023 13.98 2.75023 9.99 2.75023Z" />
<path d="M17.02 22.7202C15.17 22.7202 13.43 21.8202 12.36 20.3002C12.12 19.9602 12.2 19.4902 12.54 19.2502C12.88 19.0102 13.35 19.0902 13.59 19.4302C14.38 20.5502 15.66 21.2102 17.02 21.2102C19.34 21.2102 21.22 19.3302 21.22 17.0102C21.22 15.6602 20.56 14.3802 19.46 13.5902C19.12 13.3502 19.05 12.8802 19.29 12.5402C19.53 12.2002 20 12.1302 20.34 12.3702C21.83 13.4402 22.72 15.1702 22.72 17.0102C22.72 20.1702 20.17 22.7202 17.02 22.7202Z" />
</svg>
