<?xml version="1.0" encoding="UTF-8"?>
<svg width="24" height="24" viewBox="0 0 24 24" xmlns="http://www.w3.org/2000/svg">
 <path d="m10.84 13.54h-1.5c-1.15 0-2.08-0.96-2.08-2.15 0-0.41 0.34-0.75 0.75-0.75s0.75 0.34 0.75 0.75c0 0.36 0.26 0.65 0.58 0.65h1.5c0.23 0 0.41-0.21 0.41-0.47 0-0.35-0.06-0.37-0.29-0.45l-2.41-0.84c-0.87-0.29999-1.3-0.90999-1.3-1.86 0-1.08 0.86-1.97 1.91-1.97h1.5c1.15 0 2.08 0.96 2.08 2.15 0 0.41-0.34 0.75-0.75 0.75s-0.75-0.34-0.75-0.75c0-0.36-0.26-0.65-0.58-0.65h-1.5c-0.23 0-0.41 0.21-0.41 0.47 0 0.35 0.06 0.37 0.29 0.45l2.41 0.84c0.87 0.30999 1.29 0.91999 1.29 1.86 0.01 1.09-0.85 1.97-1.9 1.97z"/>
 <path d="m10 14.34c-0.41 0-0.75-0.34-0.75-0.75v-0.74c0-0.41 0.34-0.75 0.75-0.75s0.75 0.34 0.75 0.75v0.74c0 0.42-0.34 0.75-0.75 0.75z"/>
 <path d="m10 7.94c-0.41 0-0.75-0.34-0.75-0.75v-0.78c0-0.41 0.34-0.75 0.75-0.75s0.75 0.34 0.75 0.75v0.78c0 0.41-0.34 0.75-0.75 0.75z"/>
 <path d="m9.99 18.72c-4.82 0-8.74-3.92-8.74-8.74 0-4.82 3.92-8.74 8.74-8.74s8.74 3.92 8.74 8.74c0 4.82-3.93 8.74-8.74 8.74zm0-15.97c-3.99 0-7.24 3.25-7.24 7.24 0 3.99 3.25 7.23 7.24 7.23s7.24-3.25 7.24-7.24c0-3.99-3.25-7.23-7.24-7.23z"/>
 <path d="m17.02 22.72c-1.85 0-3.59-0.9-4.66-2.42-0.24-0.34-0.16-0.81 0.18-1.05s0.81-0.16 1.05 0.18c0.79 1.12 2.07 1.78 3.43 1.78 2.32 0 4.2-1.88 4.2-4.2 0-1.35-0.66-2.63-1.76-3.42-0.34-0.24-0.41-0.71-0.17-1.05s0.71-0.41 1.05-0.17c1.49 1.07 2.38 2.8 2.38 4.64 0 3.16-2.55 5.71-5.7 5.71z"/>
</svg>
