<?xml version="1.0" encoding="UTF-8"?>
<svg width="24" height="24" viewBox="0 0 24 24" xmlns="http://www.w3.org/2000/svg">
 <path d="m8 22.75c-3.72 0-6.75-3.03-6.75-6.75 0-3.04 2.04-5.72 4.97-6.51 0.37-0.1 0.75 0.09 0.89 0.45 0.61 1.53 1.91 2.7 3.5 3.13 0.88 0.24 1.9 0.24 2.76 0 0.37-0.1 0.76 0.09 0.9 0.45 0.31 0.79 0.47 1.63 0.47 2.49 0 1.92-0.82 3.75-2.25 5.02-1.22 1.1-2.82 1.72-4.49 1.72zm-1.98-11.62c-1.95 0.8-3.27 2.72-3.27 4.87 0 2.89 2.36 5.25 5.25 5.25 1.3 0 2.54-0.48 3.5-1.35 1.12-0.99 1.75-2.41 1.75-3.9 0-0.46-0.06-0.9-0.17-1.33-0.94 0.15-1.96 0.1-2.86-0.15-1.81-0.5-3.33-1.74-4.2-3.39z"/>
 <path d="m12 14.75c-0.62 0-1.22-0.08-1.78-0.24-2.03-0.56-3.72-2.06-4.5-4.03-0.31-0.78-0.47-1.62-0.47-2.48 0-3.72 3.03-6.75 6.75-6.75s6.75 3.03 6.75 6.75c0 0.86-0.16 1.7-0.47 2.49-0.78 1.96-2.46 3.47-4.5 4.03-0.56 0.15-1.16 0.23-1.78 0.23zm0-12c-2.89 0-5.25 2.36-5.25 5.25 0 0.67 0.12 1.32 0.37 1.93 0.61 1.53 1.91 2.7 3.5 3.13 0.88 0.24 1.9 0.24 2.76 0 1.59-0.43 2.9-1.61 3.5-3.13 0.24-0.61 0.37-1.26 0.37-1.93 0-2.89-2.36-5.25-5.25-5.25z"/>
 <path d="m16 22.75c-1.67 0-3.27-0.62-4.5-1.73-0.16-0.14-0.25-0.35-0.25-0.56s0.09-0.42 0.25-0.56c1.11-0.98 1.75-2.4 1.75-3.9 0-0.67-0.12-1.32-0.37-1.93-0.08-0.2-0.07-0.42 0.03-0.61s0.27-0.33 0.47-0.39c1.59-0.43 2.89-1.6 3.5-3.13 0.14-0.36 0.53-0.54 0.89-0.45 2.93 0.79998 4.97 3.47 4.97 6.51 0.01 3.72-3.02 6.75-6.74 6.75zm-2.88-2.36c0.85 0.56 1.84 0.86 2.88 0.86 2.89 0 5.25-2.36 5.25-5.25 0-2.15-1.32-4.07-3.27-4.87-0.74 1.41-1.98 2.53-3.46 3.13 0.15 0.56 0.23 1.15 0.23 1.74 0 1.62-0.58 3.18-1.63 4.39z"/>
</svg>
