<?xml version="1.0" encoding="UTF-8"?>
<svg width="24" height="24" viewBox="0 0 24 24" xmlns="http://www.w3.org/2000/svg">
 <path d="m5.9998 22.75c-0.3 0-0.62001-0.03-0.94001-0.09-0.17-0.04-0.32-0.08-0.47-0.12-0.17-0.05-0.33001-0.11-0.48001-0.17-0.04-0.01-0.06997-0.03-0.09997-0.04-0.35-0.18-0.65002-0.36-0.92002-0.56-0.02-0.01-0.02999-0.03-0.04999-0.04-0.15-0.12-0.29001-0.24-0.42001-0.38-0.14-0.15-0.24001-0.27-0.35001-0.39-0.23-0.3-0.41999-0.6-0.58999-0.95-0.02-0.03-0.02998-0.07-0.03998-0.11-0.06-0.14-0.11002-0.28-0.15002-0.43-0.06-0.21-0.10001-0.35-0.13001-0.5-0.07-0.35-0.09997-0.66-0.09997-0.96v-13.5c0-1.91 1.34-3.25 3.25-3.25h3c1.91 0 3.25 1.34 3.25 3.25v13.49c0 1.24-0.48 2.42-1.35 3.31-0.16 0.16-0.28001 0.27-0.39002 0.36-0.32 0.28-0.72998 0.53-1.17 0.71-0.1 0.04-0.22 0.09-0.35 0.14-0.49 0.15-1 0.23-1.5 0.23zm-1.26-1.75c0.1 0.04 0.20001 0.07 0.30001 0.1 0.11 0.03 0.21999 0.06 0.32999 0.09 0.55 0.1 1.14 0.07 1.61-0.09 0.07-0.03 0.16998-0.06 0.25998-0.1 0.32-0.13 0.57999-0.29 0.80999-0.48 0.1-0.08 0.17002-0.15 0.24002-0.21 0.63-0.65 0.96-1.45 0.96-2.3v-13.5c0-1.08-0.67-1.75-1.75-1.75h-3c-1.08 0-1.75 0.67-1.75 1.75v13.49c0 0.21 0.02 0.43 0.07 0.66 0.02 0.09 0.04999 0.2 0.07999 0.32 0.04 0.11 0.07002 0.2 0.11002 0.3 0.02 0.03 0.02997 0.06 0.03997 0.08s0.02 0.05 0.03 0.07c0.12 0.22 0.24003 0.41 0.37003 0.58 0.07 0.08 0.16 0.18 0.25 0.28 0.11 0.12 0.19999 0.19 0.29999 0.27 0.01 0.01 0.03 0.02 0.04 0.03 0.16 0.12 0.33999 0.23 0.54999 0.34 0.02 0.01 0.04 0.01 0.06 0.02s0.05 0.03 0.09 0.05z"/>
 <path d="m19.5 22.75h-13.5c-0.41 0-0.75-0.34-0.75-0.75s0.34-0.75 0.75-0.75c0.35 0 0.69001-0.05 0.98001-0.15 0.07-0.03 0.16998-0.06 0.25998-0.1 0.32-0.13 0.58-0.29 0.81-0.48 0.1-0.08 0.17002-0.15 0.24002-0.21l6.84-6.83c0.14-0.14 0.33-0.22 0.53-0.22h3.84c1.91 0 3.25 1.34 3.25 3.25v3c0 1.9-1.34 3.24-3.25 3.24zm-10.04-1.5h10.04c1.08 0 1.75-0.67 1.75-1.75v-3c0-1.08-0.67-1.75-1.75-1.75h-3.53l-6.51 6.5z"/>
 <path d="m4.8102 22.57c-0.07 0-0.13999-0.01-0.20999-0.03-0.74-0.22-1.42-0.63-1.96-1.18-0.54-0.53-0.95002-1.21-1.17-1.95-0.12-0.4 0.1-0.81 0.5-0.93s0.81001 0.1 0.94001 0.49c0.32 1.02 1.12 1.82 2.14 2.14 0.39 0.12 0.61002 0.54 0.49002 0.94-0.11 0.31-0.41001 0.52-0.73001 0.52z"/>
 <path d="m8.86 21.54c-0.19 0-0.37999-0.07-0.52999-0.22-0.29-0.29-0.29998-0.76-0.00998-1.06 0.6-0.61 0.92999-1.42 0.92999-2.27v-9.66c0-0.2 0.08-0.39 0.22-0.53l2.71-2.71c1.31-1.31 3.29-1.31 4.6 0l2.12 2.12c1.35 1.35 1.35 3.25 0 4.6l-9.51 9.5c-0.15 0.16-0.34003 0.23-0.53003 0.23zm1.89-12.89v9.19l7.09-7.08c0.76-0.75998 0.76-1.71 0-2.48l-2.12-2.12c-0.75-0.75-1.73-0.75-2.48 0l-2.49 2.49z"/>
 <path d="m6 19.75c-0.96 0-1.75-0.79-1.75-1.75s0.79-1.75 1.75-1.75 1.75 0.79 1.75 1.75-0.79 1.75-1.75 1.75zm0-2c-0.14 0-0.25 0.11-0.25 0.25 0 0.28 0.5 0.28 0.5 0 0-0.14-0.11-0.25-0.25-0.25z"/>
</svg>
