<?xml version="1.0" encoding="UTF-8"?>
<svg width="24" height="24" viewBox="0 0 24 24" xmlns="http://www.w3.org/2000/svg">
 <path d="m9.6 18.75c-2.4 0-4.35-1.95-4.35-4.35 0-1.96 1.32-3.69 3.21-4.2 0.37-0.1 0.74996 0.09 0.88996 0.45 0.33 0.83 1.04 1.47 1.9 1.7 0.47 0.13 1.03 0.13 1.5 0 0.37-0.1 0.76 0.09 0.9 0.44 0.2 0.51 0.3 1.05 0.3 1.6 0 1.24-0.53 2.42-1.45 3.24-0.79 0.72-1.82 1.12-2.9 1.12zm-1.31-6.88c-0.93 0.48-1.54 1.45-1.54 2.53 0 1.57 1.28 2.85 2.85 2.85 0.70002 0 1.38-0.26 1.9-0.73 0.61-0.54 0.95-1.31 0.95-2.12 0-0.16-0.01-0.31-0.04-0.47-0.53 0.05-1.07 0-1.56-0.14-1.07-0.29-1.99-0.99-2.56-1.92z"/>
 <path d="m12 13.95c-0.4 0-0.79-0.05-1.15-0.15-1.31-0.36-2.39-1.33-2.89-2.59-0.2-0.51-0.30005-1.05-0.30005-1.6 0-2.4 1.95-4.35 4.35-4.35 2.4 0 4.35 1.95 4.35 4.35 0 0.55003-0.1 1.09-0.3 1.6-0.5 1.27-1.59 2.24-2.9 2.59-0.37 0.1-0.76 0.15-1.16 0.15zm0-7.2c-1.57 0-2.85 1.28-2.85 2.85 0 0.36 0.06995 0.72003 0.19995 1.05 0.33 0.83 1.04 1.47 1.9 1.7 0.47 0.13 1.03 0.13 1.5 0 0.87-0.24 1.58-0.87 1.9-1.7 0.13-0.33 0.2-0.69003 0.2-1.05 0-1.57-1.28-2.85-2.85-2.85z"/>
 <path d="m14.4 18.75c-1.08 0-2.11-0.4-2.9-1.12-0.16-0.14-0.25-0.35-0.25-0.56s0.09-0.42 0.25-0.56c0.6-0.53 0.95-1.3 0.95-2.11 0-0.36-0.07-0.72-0.2-1.05-0.08-0.2-0.07-0.42 0.03-0.61 0.09-0.19 0.27-0.33 0.47-0.39 0.86-0.24 1.57-0.87 1.9-1.7 0.14-0.35 0.52-0.55 0.89-0.45 1.89 0.51 3.21 2.24 3.21 4.2 0 2.4-1.95 4.35-4.35 4.35zm-1.28-1.8c0.39 0.2 0.83 0.3 1.28 0.3 1.57 0 2.85-1.28 2.85-2.85 0-1.08-0.61-2.05-1.54-2.53-0.44 0.72-1.09 1.3-1.85 1.66 0.06 0.28 0.09 0.57 0.09 0.87 0 0.92-0.29 1.81-0.83 2.55z"/>
 <path d="m15 22.75h-6c-5.43 0-7.75-2.32-7.75-7.75v-6c0-5.43 2.32-7.75 7.75-7.75h6c5.43 0 7.75 2.32 7.75 7.75v6c0 5.43-2.32 7.75-7.75 7.75zm-6-20c-4.61 0-6.25 1.64-6.25 6.25v6c0 4.61 1.64 6.25 6.25 6.25h6c4.61 0 6.25-1.64 6.25-6.25v-6c0-4.61-1.64-6.25-6.25-6.25h-6z"/>
</svg>
