<?xml version="1.0" encoding="UTF-8"?>
<svg width="24" height="24" viewBox="0 0 24 24" xmlns="http://www.w3.org/2000/svg">
 <path d="m14.4 15.15h-4.8c-0.41 0-0.75-0.34-0.75-0.75v-4.8c0-0.41 0.34-0.75 0.75-0.75h4.8c0.41 0 0.75 0.34 0.75 0.75v4.8c0 0.41-0.34 0.75-0.75 0.75zm-4.05-1.5h3.3v-3.3h-3.3v3.3z"/>
 <path d="m7.8 18.75c-1.41 0-2.55-1.14-2.55-2.55s1.14-2.55 2.55-2.55h1.8c0.41002 0 0.75002 0.34 0.75002 0.75v1.8c0 1.41-1.14 2.55-2.55 2.55zm0-3.6c-0.58 0-1.05 0.47-1.05 1.05s0.46999 1.05 1.05 1.05 1.05-0.47 1.05-1.05v-1.05h-1.05z"/>
 <path d="m9.6 10.35h-1.8c-1.41 0-2.55-1.14-2.55-2.55s1.14-2.55 2.55-2.55 2.55 1.14 2.55 2.55v1.8c0 0.40999-0.34 0.74999-0.75002 0.74999zm-1.8-3.6c-0.58 0-1.05 0.46999-1.05 1.05s0.46999 1.05 1.05 1.05h1.05v-1.05c0-0.58-0.46999-1.05-1.05-1.05z"/>
 <path d="m16.2 10.35h-1.8c-0.41 0-0.75-0.34-0.75-0.74999v-1.8c0-1.41 1.14-2.55 2.55-2.55s2.55 1.14 2.55 2.55-1.14 2.55-2.55 2.55zm-1.05-1.5h1.05c0.58 0 1.05-0.47002 1.05-1.05s-0.47-1.05-1.05-1.05-1.05 0.46999-1.05 1.05v1.05z"/>
 <path d="m16.2 18.75c-1.41 0-2.55-1.14-2.55-2.55v-1.8c0-0.41 0.34-0.75 0.75-0.75h1.8c1.41 0 2.55 1.14 2.55 2.55s-1.14 2.55-2.55 2.55zm-1.05-3.6v1.05c0 0.58 0.47 1.05 1.05 1.05s1.05-0.47 1.05-1.05-0.47-1.05-1.05-1.05h-1.05z"/>
 <path d="m15 22.75h-6c-5.43 0-7.75-2.32-7.75-7.75v-6c0-5.43 2.32-7.75 7.75-7.75h6c5.43 0 7.75 2.32 7.75 7.75v6c0 5.43-2.32 7.75-7.75 7.75zm-6-20c-4.61 0-6.25 1.64-6.25 6.25v6c0 4.61 1.64 6.25 6.25 6.25h6c4.61 0 6.25-1.64 6.25-6.25v-6c0-4.61-1.64-6.25-6.25-6.25h-6z"/>
</svg>
