<?xml version="1.0" encoding="UTF-8"?>
<svg width="24" height="24" viewBox="0 0 24 24" xmlns="http://www.w3.org/2000/svg">
 <path d="m16 16.75h-8c-0.41 0-0.75-0.34-0.75-0.75v-8c0-0.41 0.34-0.75 0.75-0.75h8c0.41 0 0.75 0.34 0.75 0.75v8c0 0.41-0.34 0.75-0.75 0.75zm-7.25-1.5h6.5v-6.5h-6.5v6.5z"/>
 <path d="m5 22.75c-2.07 0-3.75-1.68-3.75-3.75s1.68-3.75 3.75-3.75h3c0.41 0 0.75 0.34 0.75 0.75v3c0 2.07-1.68 3.75-3.75 3.75zm0-6c-1.24 0-2.25 1.01-2.25 2.25s1.01 2.25 2.25 2.25 2.25-1.01 2.25-2.25v-2.25h-2.25z"/>
 <path d="m8 8.75h-3c-2.07 0-3.75-1.68-3.75-3.75s1.68-3.75 3.75-3.75 3.75 1.68 3.75 3.75v3c0 0.41-0.34 0.75-0.75 0.75zm-3-6c-1.24 0-2.25 1.01-2.25 2.25s1.01 2.25 2.25 2.25h2.25v-2.25c0-1.24-1.01-2.25-2.25-2.25z"/>
 <path d="m19 8.75h-3c-0.41 0-0.75-0.34-0.75-0.75v-3c0-2.07 1.68-3.75 3.75-3.75s3.75 1.68 3.75 3.75-1.68 3.75-3.75 3.75zm-2.25-1.5h2.25c1.24 0 2.25-1.01 2.25-2.25s-1.01-2.25-2.25-2.25-2.25 1.01-2.25 2.25v2.25z"/>
 <path d="m19 22.75c-2.07 0-3.75-1.68-3.75-3.75v-3c0-0.41 0.34-0.75 0.75-0.75h3c2.07 0 3.75 1.68 3.75 3.75s-1.68 3.75-3.75 3.75zm-2.25-6v2.25c0 1.24 1.01 2.25 2.25 2.25s2.25-1.01 2.25-2.25-1.01-2.25-2.25-2.25h-2.25z"/>
</svg>
