<svg width="24" height="24" viewBox="0 0 24 24"  xmlns="http://www.w3.org/2000/svg">
<path opacity="0.4" d="M14.9999 22.75C14.7299 22.75 14.4799 22.6 14.3499 22.37C14.2199 22.14 14.2199 21.85 14.3599 21.62L15.4099 19.87C15.6199 19.51 16.0799 19.4 16.4399 19.61C16.7999 19.82 16.9099 20.28 16.6999 20.64L16.4299 21.09C19.1899 20.44 21.2599 17.96 21.2599 15C21.2599 14.59 21.5999 14.25 22.0099 14.25C22.4199 14.25 22.7599 14.59 22.7599 15C22.7499 19.27 19.2699 22.75 14.9999 22.75Z" />
<path opacity="0.4" d="M2 9.75C1.59 9.75 1.25 9.41 1.25 9C1.25 4.73 4.73 1.25 9 1.25C9.27 1.25 9.51999 1.4 9.64999 1.63C9.77999 1.86 9.78 2.15 9.64 2.38L8.59 4.13C8.38 4.49 7.92 4.60001 7.56 4.39001C7.2 4.18001 7.09 3.71999 7.3 3.35999L7.57001 2.90997C4.81001 3.55997 2.74001 6.04 2.74001 9C2.75001 9.41 2.41 9.75 2 9.75Z" />
<path d="M10.67 13.8504L7.52995 12.1604C7.19995 11.9804 6.79996 11.9804 6.46996 12.1604L3.32996 13.8504C3.09996 13.9704 2.95996 14.2204 2.95996 14.4904C2.95996 14.7604 3.09996 15.0104 3.32996 15.1304L6.46996 16.8204C6.63996 16.9104 6.81995 16.9504 6.99995 16.9504C7.17995 16.9504 7.35995 16.9104 7.52995 16.8204L10.67 15.1304C10.9 15.0104 11.0399 14.7604 11.0399 14.4904C11.0399 14.2204 10.89 13.9804 10.67 13.8504Z" />
<path d="M5.94998 17.4106L3.02998 15.9506C2.80998 15.8406 2.54999 15.8506 2.32999 15.9806C2.11999 16.1106 1.98999 16.3407 1.98999 16.5907V19.3506C1.98999 19.8306 2.24998 20.2606 2.67998 20.4706L5.59999 21.9306C5.69999 21.9806 5.80998 22.0106 5.91998 22.0106C6.04998 22.0106 6.17999 21.9707 6.29999 21.9007C6.50999 21.7707 6.63998 21.5406 6.63998 21.2906V18.5307C6.64998 18.0507 6.37998 17.6206 5.94998 17.4106Z" />
<path d="M11.6601 15.9806C11.4501 15.8506 11.1901 15.8406 10.9601 15.9506L8.04008 17.4106C7.61008 17.6206 7.3501 18.0507 7.3501 18.5307V21.2906C7.3501 21.5406 7.48009 21.7707 7.69009 21.9007C7.81009 21.9707 7.9401 22.0106 8.0701 22.0106C8.1801 22.0106 8.29009 21.9806 8.39009 21.9306L11.3101 20.4706C11.7401 20.2606 12.0001 19.8306 12.0001 19.3506V16.5907C12.0001 16.3407 11.8701 16.1106 11.6601 15.9806Z" />
<path d="M20.67 3.82989L17.53 2.13988C17.2 1.95988 16.8 1.95988 16.47 2.13988L13.33 3.82989C13.1 3.94989 12.96 4.19984 12.96 4.46984C12.96 4.73984 13.1 4.98985 13.33 5.10985L16.47 6.79986C16.64 6.88986 16.82 6.92986 17 6.92986C17.18 6.92986 17.36 6.88986 17.53 6.79986L20.67 5.10985C20.9 4.98985 21.0399 4.73984 21.0399 4.46984C21.0399 4.18984 20.89 3.94989 20.67 3.82989Z" />
<path d="M15.95 7.37938L13.03 5.91936C12.81 5.80936 12.55 5.81939 12.33 5.94939C12.12 6.07939 11.99 6.30938 11.99 6.55938V9.31939C11.99 9.79939 12.25 10.2294 12.68 10.4394L15.6 11.8994C15.7 11.9494 15.81 11.9794 15.92 11.9794C16.05 11.9794 16.18 11.9394 16.3 11.8694C16.51 11.7394 16.64 11.5094 16.64 11.2594V8.49938C16.65 8.01938 16.38 7.58938 15.95 7.37938Z" />
<path d="M21.6601 5.94939C21.4501 5.81939 21.1901 5.80936 20.9601 5.91936L18.0401 7.37938C17.6101 7.58938 17.3501 8.01938 17.3501 8.49938V11.2594C17.3501 11.5094 17.4801 11.7394 17.6901 11.8694C17.8101 11.9394 17.9401 11.9794 18.0701 11.9794C18.1801 11.9794 18.2901 11.9494 18.3901 11.8994L21.3101 10.4394C21.7401 10.2294 22.0001 9.79939 22.0001 9.31939V6.55938C22.0001 6.30938 21.8701 6.07939 21.6601 5.94939Z" />
</svg>
