<?xml version="1.0" encoding="UTF-8"?>
<svg width="24" height="24" viewBox="0 0 24 24" xmlns="http://www.w3.org/2000/svg">
 <path d="m7.85 22.75h-2.7c-2.66 0-3.9-1.24-3.9-3.9v-2.7c0-2.66 1.24-3.9 3.9-3.9h2.7c2.66 0 3.9 1.24 3.9 3.9v2.7c0 2.66-1.24 3.9-3.9 3.9zm-2.7-9c-1.84 0-2.4 0.56-2.4 2.4v2.7c0 1.84 0.56 2.4 2.4 2.4h2.7c1.84 0 2.4-0.56 2.4-2.4v-2.7c0-1.84-0.56-2.4-2.4-2.4h-2.7z"/>
 <path d="m15 22.75c-0.27 0-0.52-0.15-0.65-0.38s-0.13-0.52 0.01-0.75l1.05-1.75c0.21-0.36 0.67-0.47 1.03-0.26s0.47 0.67 0.26 1.03l-0.27 0.45c2.76-0.65 4.83-3.13 4.83-6.09 0-0.41 0.34-0.75 0.75-0.75s0.75 0.34 0.75 0.75c-0.01 4.27-3.49 7.75-7.76 7.75z"/>
 <path d="m2 9.75c-0.41 0-0.75-0.34-0.75-0.75 0-4.27 3.48-7.75 7.75-7.75 0.27 0 0.52 0.15 0.65 0.38s0.13 0.52-0.01 0.75l-1.05 1.76c-0.21 0.35-0.67 0.47-1.03 0.25-0.35-0.21-0.47-0.67-0.25-1.03l0.27-0.45c-2.77 0.65-4.83 3.13-4.83 6.09 0 0.41-0.34 0.75-0.75 0.75z"/>
 <path d="m17.5 11.75c-2.89 0-5.25-2.36-5.25-5.25s2.36-5.25 5.25-5.25 5.25 2.36 5.25 5.25-2.36 5.25-5.25 5.25zm0-9c-2.07 0-3.75 1.68-3.75 3.75s1.68 3.75 3.75 3.75 3.75-1.68 3.75-3.75-1.68-3.75-3.75-3.75z"/>
</svg>
