<?xml version="1.0" encoding="UTF-8"?>
<svg width="24" height="24" viewBox="0 0 24 24" xmlns="http://www.w3.org/2000/svg">
 <path d="m22 6.31h-10c-0.41 0-0.75-0.34-0.75-0.75s0.34-0.75 0.75-0.75h10c0.41 0 0.75 0.34 0.75 0.75 0 0.42-0.34 0.75-0.75 0.75z"/>
 <path d="m19.78 11.25h-5.55c-2.19 0-2.97-0.77-2.97-2.95v-4.1c0-2.18 0.78-2.95 2.97-2.95h5.55c2.19 0 2.97 0.77 2.97 2.95v4.11c0 2.17-0.78 2.94-2.97 2.94zm-5.56-8.5c-1.36 0-1.47 0.11-1.47 1.45v4.11c0 1.34 0.11 1.45 1.47 1.45h5.5499c1.36 0 1.47-0.11 1.47-1.45v-4.11c0-1.34-0.11-1.45-1.47-1.45h-5.5499z"/>
 <path d="m12 17.81h-10c-0.41 0-0.75-0.34-0.75-0.75s0.34-0.75 0.75-0.75h10c0.41 0 0.75 0.34 0.75 0.75 0 0.42-0.34 0.75-0.75 0.75z"/>
 <path d="m9.7798 22.75h-5.55c-2.19 0-2.97-0.77-2.97-2.95v-4.1c0-2.18 0.78-2.95 2.97-2.95h5.55c2.19 0 2.97 0.77 2.97 2.95v4.11c0 2.17-0.78 2.94-2.97 2.94zm-5.56-8.5c-1.36 0-1.47 0.11-1.47 1.45v4.11c0 1.34 0.11 1.45 1.47 1.45h5.55c1.36 0 1.47-0.11 1.47-1.45v-4.11c0-1.34-0.11-1.45-1.47-1.45h-5.55z"/>
 <path d="m15 22.75c-0.27 0-0.52-0.15-0.65-0.38-0.13-0.24-0.13-0.52 0.01-0.76l1.05-1.75c0.21-0.35 0.67-0.47 1.03-0.26s0.47 0.67 0.26 1.03l-0.27 0.45c2.76-0.65 4.83-3.13 4.83-6.09 0-0.41 0.34-0.75 0.75-0.75s0.75 0.34 0.75 0.75c-0.01 4.28-3.49 7.76-7.76 7.76z"/>
 <path d="m2 9.75c-0.41 0-0.75-0.34-0.75-0.75 0-4.27 3.48-7.75 7.75-7.75 0.27 0 0.51999 0.15 0.64999 0.38 0.13 0.24 0.13002 0.52-0.00998 0.76l-1.05 1.75c-0.21 0.35-0.67 0.47-1.03 0.26s-0.47001-0.67-0.26001-1.03l0.27002-0.45c-2.76 0.65-4.83 3.13-4.83 6.09 0.01 0.4-0.32999 0.74-0.73999 0.74z"/>
</svg>
