<?xml version="1.0" encoding="UTF-8"?>
<svg width="24" height="24" viewBox="0 0 24 24" xmlns="http://www.w3.org/2000/svg">
 <path d="m15 22.75c-0.27 0-0.52-0.15-0.65-0.38s-0.13-0.52 0.01-0.75l1.05-1.75c0.21-0.36 0.67-0.47 1.03-0.26s0.47 0.67 0.26 1.03l-0.27 0.45c2.76-0.65 4.83-3.13 4.83-6.09 0-0.41 0.34-0.75 0.75-0.75s0.75 0.34 0.75 0.75c-0.01 4.27-3.49 7.75-7.76 7.75z"/>
 <path d="m2 9.75c-0.41 0-0.75-0.34-0.75-0.75 0-4.27 3.48-7.75 7.75-7.75 0.27 0 0.51999 0.15 0.64999 0.38s0.13001 0.52-0.00999 0.75l-1.05 1.75c-0.21 0.36001-0.67 0.47001-1.03 0.26001s-0.47-0.67002-0.26-1.03l0.27001-0.45002c-2.76 0.65-4.83 3.13-4.83 6.09 0.01 0.41-0.33001 0.75-0.74001 0.75z"/>
 <path d="m17.68 7.4996c-0.13 0-0.26-0.02998-0.38-0.09998l-3.97-2.3c-0.36-0.21-0.48-0.66997-0.27-1.03s0.67-0.48002 1.02-0.27002l3.6 2.08 3.57-2.07c0.36-0.21 0.82-0.07998 1.02 0.27002 0.21 0.36 0.08 0.81996-0.27 1.03l-3.95 2.28c-0.11 0.07-0.24 0.10999-0.37 0.10999z"/>
 <path d="m17.68 11.57c-0.41 0-0.75-0.34-0.75-0.75v-4.08c0-0.41 0.34-0.75 0.75-0.75s0.75 0.34 0.75 0.75v4.08c0 0.42-0.34 0.75-0.75 0.75z"/>
 <path d="m17.68 11.75c-0.46 0-0.93-0.1-1.3-0.31l-2.4-1.33c-0.78-0.43003-1.37-1.44-1.37-2.33v-2.54c0-0.9 0.59-1.9 1.38-2.34l2.4-1.33c0.74-0.41 1.85-0.41 2.6 0l2.4 1.33c0.78 0.43 1.37 1.44 1.37 2.33v2.54c0 0.9-0.59 1.9-1.37 2.33l-2.4 1.33c-0.39 0.22-0.85 0.32-1.31 0.32zm-0.57-8.88-2.4 1.33c-0.3 0.17-0.6 0.67996-0.6 1.02v2.54c0 0.35 0.3 0.86002 0.6 1.02l2.4 1.34c0.29 0.16 0.85 0.16 1.14 0l2.4-1.33c0.3-0.17 0.6-0.67996 0.6-1.02v-2.54c0-0.35-0.3-0.85996-0.6-1.02l-2.4-1.33c-0.29-0.17-0.86-0.17001-1.14-0.01001z"/>
 <path d="m6.32 18.5c-0.13 0-0.26-0.0299-0.38-0.0999l-3.97-2.3001c-0.36-0.21-0.48001-0.67-0.27001-1.03s0.67001-0.48 1.02-0.27l3.6 2.08 3.57-2.07c0.35999-0.21 0.81999-0.08 1.02 0.27 0.21 0.36 0.08 0.82-0.27 1.03l-3.95 2.28c-0.11 0.07-0.24 0.11-0.37 0.11z"/>
 <path d="m6.3198 22.57c-0.41 0-0.75-0.34-0.75-0.75v-4.0801c0-0.41 0.34-0.75 0.75-0.75s0.75 0.34 0.75 0.75v4.0801c0 0.42-0.33 0.75-0.75 0.75z"/>
 <path d="m6.32 22.75c-0.46 0-0.93001-0.1-1.3-0.31l-2.4-1.33c-0.78-0.43-1.37-1.4399-1.37-2.3299v-2.5401c0-0.9 0.59-1.9 1.37-2.33l2.4-1.3299c0.74-0.41 1.86-0.41 2.6 0l2.4 1.3299c0.78 0.43 1.37 1.44 1.37 2.33v2.5401c0 0.9-0.59 1.8999-1.38 2.3399l-2.4 1.3301c-0.36 0.2-0.81999 0.2999-1.29 0.2999zm-0.57001-8.88-2.4 1.3301c-0.3 0.17-0.60001 0.6799-0.60001 1.0199v2.5401c0 0.35 0.30001 0.86 0.60001 1.02l2.4 1.3299c0.29 0.16 0.85 0.16 1.14 0l2.4-1.3299c0.3-0.17 0.60001-0.68 0.60001-1.02v-2.5401c0-0.35-0.30001-0.8599-0.60001-1.0199l-2.4-1.3401c-0.28-0.15-0.85-0.15-1.14 0.01z"/>
</svg>
