<?xml version="1.0" encoding="UTF-8"?>
<svg width="24" height="24" viewBox="0 0 24 24" xmlns="http://www.w3.org/2000/svg">
 <path d="m12.005 22.733c-5.9177 0-10.728-4.8099-10.728-10.728 0-5.9177 4.81-10.728 10.728-10.728 5.9177 0 10.728 4.81 10.728 10.728 0 5.9177-4.8199 10.728-10.728 10.728zm0-19.958c-5.0894 0-9.2308 4.1414-9.2308 9.2308s4.1414 9.2308 9.2308 9.2308 9.2308-4.1414 9.2308-9.2308-4.1414-9.2308-9.2308-9.2308z"/>
 <path d="m14.3 12.953c-0.1996 0-0.3892-0.0799-0.5289-0.2196l-8.163-8.1829c-0.2894-0.2894-0.2894-0.7684 0-1.0578 0.2894-0.28939 0.7684-0.28939 1.0578 0l6.8956 6.9056 0.01-2.7343c0-0.40914 0.3393-0.74844 0.7484-0.74844 0.4092-0.02994 0.7485 0.3393 0.7485 0.74844l-0.01 4.5405c0 0.2994-0.1797 0.5788-0.4591 0.6886-0.0998 0.0399-0.1996 0.0599-0.2993 0.0599z"/>
 <path d="m17.862 20.727c-0.1896 0-0.3792-0.0699-0.5289-0.2195l-6.8956-6.9057-0.01 2.7343c0 0.4092-0.3393 0.7485-0.74841 0.7485-0.40914 0-0.74844-0.3393-0.74844-0.7485l0.00998-4.5405c0-0.2994 0.17963-0.5788 0.45905-0.6886 0.27941-0.1197 0.59875-0.0499 0.81832 0.1597l8.163 8.183c0.2894 0.2894 0.2894 0.7684 0 1.0578-0.1298 0.1496-0.3293 0.2195-0.519 0.2195z"/>
</svg>
