<svg width="24" height="24" viewBox="0 0 24 24"  xmlns="http://www.w3.org/2000/svg">
<path opacity="0.4" d="M22.03 12.03C22.03 15.06 20.68 17.78 18.54 19.62C18.16 19.94 17.76 20.24 17.33 20.51C15.8 21.47 13.98 22.03 12.03 22.03C6.51003 22.03 2.03003 17.55 2.03003 12.03C2.03003 9.00003 3.38003 6.28003 5.52003 4.44003C5.90003 4.12003 6.30003 3.82003 6.73003 3.55003C8.26003 2.59003 10.08 2.03003 12.03 2.03003C17.55 2.03003 22.03 6.51003 22.03 12.03Z" />
<path d="M15.1 7.68005L15.09 12.23C15.09 12.54 14.9 12.81 14.62 12.92C14.53 12.96 14.43 12.98 14.34 12.98C14.14 12.98 13.95 12.9 13.81 12.76L5.62002 4.56005C5.58002 4.52005 5.55002 4.48005 5.52002 4.44005C5.90002 4.12005 6.30002 3.82005 6.73002 3.55005L13.59 10.42L13.6 7.68005C13.6 7.27005 13.94 6.93005 14.35 6.93005C14.77 6.93005 15.1 7.27005 15.1 7.68005Z" />
<path d="M18.54 19.6201C18.16 19.9401 17.76 20.2401 17.33 20.5101L10.47 13.6401L10.46 16.3801C10.46 16.7901 10.12 17.1301 9.70996 17.1301C9.28996 17.1301 8.95996 16.7901 8.95996 16.3801L8.96996 11.8301C8.96996 11.5201 9.15996 11.2501 9.43996 11.1401C9.70996 11.0201 10.04 11.0801 10.25 11.3001L18.44 19.5001C18.48 19.5401 18.51 19.5801 18.54 19.6201Z" />
</svg>
