<?xml version="1.0" encoding="UTF-8"?>
<svg width="24" height="24" viewBox="0 0 24 24" xmlns="http://www.w3.org/2000/svg">
 <path d="m17.1 1.25h-4.2c-3.91 0-5.65 1.74-5.65 5.65v1.1c0 0.41 0.34 0.75 0.75 0.75h3.1c3.1 0 4.15 1.05 4.15 4.15v3.1c0 0.41 0.34 0.75 0.75 0.75h1.1c3.91 0 5.65-1.74 5.65-5.65v-4.2c0-3.91-1.74-5.65-5.65-5.65zm-8.35 6v-0.35c0-3.1 1.05-4.15 4.15-4.15h4.2c3.1 0 4.15 1.05 4.15 4.15v4.2c0 3.1-1.05 4.15-4.15 4.15h-0.35v-2.35c0-3.91-1.74-5.65-5.65-5.65h-2.35z"/>
 <path d="m11.1 7.25h-4.2c-3.91 0-5.65 1.74-5.65 5.65v4.2c0 3.91 1.74 5.65 5.65 5.65h4.2c3.91 0 5.65-1.74 5.65-5.65v-4.2c0-3.91-1.74-5.65-5.65-5.65zm-4.2 14c-3.1 0-4.15-1.05-4.15-4.15v-4.2c0-3.1 1.05-4.15 4.15-4.15h4.2c3.1 0 4.15 1.05 4.15 4.15v4.2c0 3.1-1.05 4.15-4.15 4.15h-4.2z"/>
 <path d="m8.03 17.7c-0.19 0-0.38-0.07-0.53-0.22l-1.95-1.95c-0.29-0.29-0.29-0.77 0-1.06s0.77-0.29 1.06 0l1.42 1.42 3.36-3.36c0.29-0.29 0.77-0.29 1.06 0s0.29 0.77 0 1.06l-3.9 3.89c-0.14 0.14-0.33 0.22-0.52 0.22z"/>
</svg>
