<?xml version="1.0" encoding="UTF-8"?>
<svg width="24" height="24" viewBox="0 0 24 24" xmlns="http://www.w3.org/2000/svg">
 <path d="m12 22.75c-5.93 0-10.75-4.82-10.75-10.75s4.82-10.75 10.75-10.75 10.75 4.82 10.75 10.75-4.82 10.75-10.75 10.75zm0-20c-5.1 0-9.25 4.15-9.25 9.25s4.15 9.25 9.25 9.25 9.25-4.15 9.25-9.25-4.15-9.25-9.25-9.25z"/>
 <path d="m12.24 16.75c-2.62 0-4.75-2.13-4.75-4.75s2.13-4.75 4.75-4.75c1.15 0 2.27 0.42 3.13 1.19 0.31 0.27 0.34 0.75 0.07 1.06s-0.75 0.34001-1.06 0.07001c-0.59-0.52-1.35-0.81-2.14-0.81-1.79 0-3.25 1.46-3.25 3.25s1.46 3.25 3.25 3.25c0.78 0 1.55-0.29 2.14-0.81 0.31-0.27 0.79-0.24 1.06 0.07s0.24 0.79-0.07 1.06c-0.87 0.75-1.98 1.17-3.13 1.17z"/>
</svg>
