<?xml version="1.0" encoding="UTF-8"?>
<svg width="24" height="24" viewBox="0 0 24 24" xmlns="http://www.w3.org/2000/svg">
 <path d="m22 22.75h-20c-0.41 0-0.75-0.34-0.75-0.75s0.34-0.75 0.75-0.75h20c0.41 0 0.75 0.34 0.75 0.75s-0.34 0.75-0.75 0.75z"/>
 <path d="m14.5 6.2294c-0.94 0-1.88-0.17997-2.78-0.53997-0.28-0.11001-0.47-0.39002-0.47-0.70002v-3c0-0.25 0.12-0.47999 0.33-0.61999s0.47-0.17002 0.7-0.08002c1.43 0.57 3.01 0.57 4.44 0 0.23-0.09 0.49-0.05998 0.7 0.08002s0.33 0.36999 0.33 0.61999v3c0 0.31-0.19 0.58002-0.47 0.70002-0.9 0.36-1.84 0.53997-2.78 0.53997zm-1.75-1.76c1.14 0.35 2.36 0.35 3.5 0v-1.45c-1.15 0.28-2.35 0.28-3.5 0v1.45z"/>
 <path d="m12 8.75c-0.41 0-0.75-0.34-0.75-0.75v-3c0-0.41 0.34-0.75 0.75-0.75s0.75 0.34 0.75 0.75v3c0 0.41-0.34 0.75-0.75 0.75z"/>
 <path d="m20 22.75h-16c-0.41 0-0.75-0.34-0.75-0.75v-11c0-2.42 1.33-3.75 3.75-3.75h10c2.42 0 3.75 1.33 3.75 3.75v11c0 0.41-0.34 0.75-0.75 0.75zm-15.25-1.5h14.5v-10.25c0-1.58-0.67-2.25-2.25-2.25h-10c-1.58 0-2.25 0.67-2.25 2.25v10.25z"/>
 <path d="m19.42 12.75h-14.84c-0.41 0-0.75-0.34-0.75-0.75s0.34-0.75 0.75-0.75h14.84c0.41 0 0.75 0.34 0.75 0.75s-0.34 0.75-0.75 0.75z"/>
 <path d="m8.7402 12h-1.5v10h1.5v-10z"/>
 <path d="m12.74 12h-1.5v10h1.5v-10z"/>
 <path d="m16.74 12h-1.5v10h1.5v-10z"/>
</svg>
