<svg width="24" height="24" viewBox="0 0 24 24"  xmlns="http://www.w3.org/2000/svg">
<path opacity="0.4" d="M15 4H9C6.24 4 4 6.24 4 9V15C4 17.76 6.24 20 9 20H15C17.76 20 20 17.76 20 15V9C20 6.24 17.76 4 15 4ZM17.26 14.26C17.26 15.92 15.92 17.26 14.26 17.26H9.74C8.08 17.26 6.74 15.92 6.74 14.26V9.74C6.74 8.08 8.08 6.74 9.74 6.74H14.25C15.91 6.74 17.25 8.08 17.25 9.74V14.26H17.26Z" />
<path d="M9.06006 2.75V4H9.00006C8.50006 4 8.02006 4.07 7.56006 4.21V2.75C7.56006 2.34 7.89006 2 8.31006 2C8.72006 2 9.06006 2.34 9.06006 2.75Z" />
<path d="M12.75 2.75V4H11.25V2.75C11.25 2.34 11.59 2 12 2C12.41 2 12.75 2.34 12.75 2.75Z" />
<path d="M16.45 2.75V4.21C15.99 4.07 15.5 4 15 4H14.95V2.75C14.95 2.34 15.29 2 15.7 2C16.11 2 16.45 2.34 16.45 2.75Z" />
<path d="M22 8.2998C22 8.7198 21.67 9.0498 21.25 9.0498H20V8.9998C20 8.4998 19.93 8.0098 19.79 7.5498H21.25C21.67 7.5498 22 7.8898 22 8.2998Z" />
<path d="M22 12C22 12.41 21.67 12.75 21.25 12.75H20V11.25H21.25C21.67 11.25 22 11.58 22 12Z" />
<path d="M22 15.7002C22 16.1102 21.67 16.4502 21.25 16.4502H19.79C19.93 15.9902 20 15.5002 20 15.0002V14.9502H21.25C21.67 14.9502 22 15.2802 22 15.7002Z" />
<path d="M16.45 19.79V21.25C16.45 21.66 16.11 22 15.7 22C15.29 22 14.95 21.66 14.95 21.25V20H15C15.5 20 15.99 19.93 16.45 19.79Z" />
<path d="M12.76 20V21.25C12.76 21.66 12.42 22 12.01 22C11.59 22 11.26 21.66 11.26 21.25V20H12.76Z" />
<path d="M9.06006 20V21.25C9.06006 21.66 8.72006 22 8.31006 22C7.89006 22 7.56006 21.66 7.56006 21.25V19.79C8.02006 19.93 8.50006 20 9.00006 20H9.06006Z" />
<path d="M4.21 7.5498C4.07 8.0098 4 8.4998 4 8.9998V9.0498H2.75C2.34 9.0498 2 8.7198 2 8.2998C2 7.8898 2.34 7.5498 2.75 7.5498H4.21V7.5498Z" />
<path d="M4 11.25V12.75H2.75C2.34 12.75 2 12.41 2 12C2 11.58 2.34 11.25 2.75 11.25H4Z" />
<path d="M4.21 16.4502H2.75C2.34 16.4502 2 16.1102 2 15.7002C2 15.2802 2.34 14.9502 2.75 14.9502H4V15.0002C4 15.5002 4.07 15.9902 4.21 16.4502Z" />
<path d="M17.26 9.74023V14.2502C17.26 15.9102 15.92 17.2502 14.26 17.2502H9.73999C8.07999 17.2502 6.73999 15.9102 6.73999 14.2502V9.74023C6.73999 8.08023 8.07999 6.74023 9.73999 6.74023H14.25C15.91 6.74023 17.26 8.09023 17.26 9.74023Z" />
</svg>
