<?xml version="1.0" encoding="UTF-8"?>
<svg width="24" height="24" viewBox="0 0 24 24" xmlns="http://www.w3.org/2000/svg">
 <path d="m14.4 20.75h-4.8c-4.39 0-6.35-1.96-6.35-6.35v-4.8c0-4.39 1.96-6.35 6.35-6.35h4.8c4.39 0 6.35 1.96 6.35 6.35v4.8c0 4.39-1.96 6.35-6.35 6.35zm-4.8-16c-3.58 0-4.85 1.27-4.85 4.85v4.8c0 3.58 1.27 4.85 4.85 4.85h4.8c3.58 0 4.85-1.27 4.85-4.85v-4.8c0-3.58-1.27-4.85-4.85-4.85h-4.8z"/>
 <path d="m13.5 17.75h-3c-2.9 0-4.25-1.35-4.25-4.25v-3c0-2.9 1.35-4.25 4.25-4.25h3c2.9 0 4.25 1.35 4.25 4.25v3c0 2.9-1.35 4.25-4.25 4.25zm-3-10c-2.08 0-2.75 0.67-2.75 2.75v3c0 2.08 0.67 2.75 2.75 2.75h3c2.08 0 2.75-0.67 2.75-2.75v-3c0-2.08-0.67-2.75-2.75-2.75h-3z"/>
 <path d="m8.0098 4.75c-0.42 0-0.75-0.34-0.75-0.75v-2c0-0.41 0.34-0.75 0.75-0.75s0.75 0.34 0.75 0.75v2c0 0.41-0.34 0.75-0.75 0.75z"/>
 <path d="m12 4.75c-0.41 0-0.75-0.34-0.75-0.75v-2c0-0.41 0.34-0.75 0.75-0.75s0.75 0.34 0.75 0.75v2c0 0.41-0.34 0.75-0.75 0.75z"/>
 <path d="m16 4.75c-0.41 0-0.75-0.34-0.75-0.75v-2c0-0.41 0.34-0.75 0.75-0.75s0.75 0.34 0.75 0.75v2c0 0.41-0.34 0.75-0.75 0.75z"/>
 <path d="m22 8.75h-2c-0.41 0-0.75-0.34-0.75-0.75s0.34-0.75 0.75-0.75h2c0.41 0 0.75 0.34 0.75 0.75s-0.33 0.75-0.75 0.75z"/>
 <path d="m22 12.75h-2c-0.41 0-0.75-0.34-0.75-0.75s0.34-0.75 0.75-0.75h2c0.41 0 0.75 0.34 0.75 0.75s-0.33 0.75-0.75 0.75z"/>
 <path d="m22 16.75h-2c-0.41 0-0.75-0.34-0.75-0.75s0.34-0.75 0.75-0.75h2c0.41 0 0.75 0.34 0.75 0.75s-0.33 0.75-0.75 0.75z"/>
 <path d="m16 22.75c-0.41 0-0.75-0.34-0.75-0.75v-2c0-0.41 0.34-0.75 0.75-0.75s0.75 0.34 0.75 0.75v2c0 0.41-0.34 0.75-0.75 0.75z"/>
 <path d="m12.01 22.75c-0.41 0-0.75-0.34-0.75-0.75v-2c0-0.41 0.34-0.75 0.75-0.75s0.75 0.34 0.75 0.75v2c0 0.41-0.34 0.75-0.75 0.75z"/>
 <path d="m8.0098 22.75c-0.41 0-0.75-0.34-0.75-0.75v-2c0-0.41 0.34-0.75 0.75-0.75s0.75 0.34 0.75 0.75v2c0 0.41-0.34 0.75-0.75 0.75z"/>
 <path d="m4 8.75h-2c-0.41 0-0.75-0.33-0.75-0.75s0.34-0.75 0.75-0.75h2c0.41 0 0.75 0.34 0.75 0.75s-0.33 0.75-0.75 0.75z"/>
 <path d="m4 12.75h-2c-0.41 0-0.75-0.34-0.75-0.75s0.34-0.75 0.75-0.75h2c0.41 0 0.75 0.34 0.75 0.75s-0.33 0.75-0.75 0.75z"/>
 <path d="m4 16.75h-2c-0.41 0-0.75-0.34-0.75-0.75s0.34-0.75 0.75-0.75h2c0.41 0 0.75 0.34 0.75 0.75s-0.33 0.75-0.75 0.75z"/>
 <path d="m12 15.05c-0.13 0-0.26-0.03-0.37-0.1-0.36-0.21-0.48-0.67-0.28-1.02l0.68-1.18h-0.59c-0.48 0-0.87-0.21-1.08-0.57s-0.19-0.81 0.04-1.22l0.94-1.64c0.21-0.36 0.67-0.48 1.02-0.28 0.36 0.21 0.48 0.67 0.28 1.02l-0.68 1.18h0.59c0.48 0 0.87 0.21 1.08 0.57s0.19 0.81-0.04 1.22l-0.94 1.64c-0.14 0.25-0.39 0.38-0.65 0.38z"/>
</svg>
