<?xml version="1.0" encoding="UTF-8"?>
<svg width="24" height="24" viewBox="0 0 24 24" xmlns="http://www.w3.org/2000/svg">
 <path d="m9.6 20.75c-4.39 0-6.35-1.96-6.35-6.35v-4.8c0-4.39 1.96-6.35 6.35-6.35h4.8c4.39 0 6.35 1.96 6.35 6.35 0 0.41-0.34 0.75-0.75 0.75s-0.75-0.34-0.75-0.75c0-3.58-1.27-4.85-4.85-4.85h-4.8c-3.58 0-4.85 1.27-4.85 4.85v4.8c0 3.58 1.27 4.85 4.85 4.85 0.41 0 0.75 0.34 0.75 0.75s-0.34 0.75-0.75 0.75z"/>
 <path d="m7.9902 17.1c-0.16 0-0.33-0.05-0.47-0.16-0.87-0.69-1.28-1.79-1.28-3.44v-3c0-2.9 1.35-4.25 4.25-4.25h3c1.65 0 2.74 0.41 3.44 1.28 0.26 0.32 0.2 0.8-0.12 1.05-0.32 0.26-0.8 0.21-1.05-0.12-0.24-0.31-0.74-0.71-2.26-0.71h-3c-2.08 0-2.75 0.67-2.75 2.75v3c0 1.52 0.41 2.02 0.71 2.26 0.32 0.26 0.38 0.73 0.12 1.05-0.15 0.19-0.37 0.29-0.59 0.29z"/>
 <path d="m8.0098 4.75c-0.42 0-0.75-0.34-0.75-0.75v-2c0-0.41 0.34-0.75 0.75-0.75s0.75 0.34 0.75 0.75v2c0 0.41-0.34 0.75-0.75 0.75z"/>
 <path d="m12 4.75c-0.41 0-0.75-0.34-0.75-0.75v-2c0-0.41 0.34-0.75 0.75-0.75s0.75 0.34 0.75 0.75v2c0 0.41-0.34 0.75-0.75 0.75z"/>
 <path d="m16 4.75c-0.41 0-0.75-0.34-0.75-0.75v-2c0-0.41 0.34-0.75 0.75-0.75s0.75 0.34 0.75 0.75v2c0 0.41-0.34 0.75-0.75 0.75z"/>
 <path d="m22 8.75h-2c-0.41 0-0.75-0.34-0.75-0.75s0.34-0.75 0.75-0.75h2c0.41 0 0.75 0.34 0.75 0.75s-0.33 0.75-0.75 0.75z"/>
 <path d="m8.0098 22.75c-0.41 0-0.75-0.34-0.75-0.75v-2c0-0.41 0.34-0.75 0.75-0.75s0.75 0.34 0.75 0.75v2c0 0.41-0.34 0.75-0.75 0.75z"/>
 <path d="m4 8.75h-2c-0.41 0-0.75-0.33-0.75-0.75s0.34-0.75 0.75-0.75h2c0.41 0 0.75 0.34 0.75 0.75s-0.33 0.75-0.75 0.75z"/>
 <path d="m4 12.75h-2c-0.41 0-0.75-0.34-0.75-0.75s0.34-0.75 0.75-0.75h2c0.41 0 0.75 0.34 0.75 0.75s-0.33 0.75-0.75 0.75z"/>
 <path d="m4 16.75h-2c-0.41 0-0.75-0.34-0.75-0.75s0.34-0.75 0.75-0.75h2c0.41 0 0.75 0.34 0.75 0.75s-0.33 0.75-0.75 0.75z"/>
 <path d="m16.71 19.34c-1.29 0-2.34-1.05-2.34-2.34s1.05-2.34 2.34-2.34 2.34 1.05 2.34 2.34c-0.01 1.29-1.05 2.34-2.34 2.34zm0-3.18c-0.46 0-0.84 0.38-0.84 0.84s0.38 0.84 0.84 0.84 0.84-0.38 0.84-0.84c-0.01-0.46-0.38-0.84-0.84-0.84z"/>
 <path d="m18.4 22.75c-0.56 0-1.11-0.29-1.41-0.81l-0.07-0.11c-0.11-0.19-0.2-0.24-0.22-0.25-0.01 0-0.11 0.06-0.22 0.25l-0.06 0.1c-0.46 0.79-1.47 1.05-2.24 0.59l-0.9-0.52c-0.41-0.23-0.7-0.61-0.82-1.07-0.12-0.45-0.06-0.93 0.17-1.33 0.11-0.19 0.11-0.3 0.1-0.32-0.01-0.01-0.1-0.06-0.32-0.06-0.97 0-1.76-0.79-1.76-1.75v-0.93c0-0.97 0.79-1.75 1.75-1.75 0.22 0 0.31-0.06 0.33-0.07 0-0.01 0-0.12-0.11-0.31-0.23-0.41-0.3-0.88-0.17-1.33 0.12-0.45 0.41-0.83 0.82-1.07l0.91-0.53c0.76-0.45 1.77-0.19 2.22 0.59l0.06 0.11c0.11 0.19 0.2 0.24 0.22 0.25 0.01 0 0.11-0.06 0.22-0.25l0.06-0.1c0.47-0.79 1.47-1.05 2.24-0.59l0.93 0.51c0.41 0.23 0.7 0.61 0.82 1.07 0.12 0.45 0.06 0.93-0.17 1.33-0.11 0.19-0.11 0.3-0.1 0.32 0.01 0.01 0.1 0.06 0.32 0.06 0.97 0 1.76 0.79 1.76 1.75v0.93c0 0.97-0.79 1.75-1.75 1.75-0.22 0-0.31 0.06-0.33 0.07 0 0.01 0 0.12 0.11 0.31 0.23 0.41 0.3 0.88 0.17 1.33-0.12 0.45-0.41 0.83-0.82 1.07l-0.91 0.53c-0.27 0.15-0.55 0.23-0.83 0.23zm-1.69-2.67c0.6 0 1.15 0.36 1.52 1l0.06 0.11c0.03 0.05 0.11 0.08 0.17 0.04l0.92-0.53c0.08-0.04 0.11-0.12 0.12-0.16s0.02-0.11-0.02-0.19c-0.37-0.63-0.4-1.29-0.1-1.81s0.89-0.82 1.62-0.82c0.14 0 0.26-0.12 0.26-0.25v-0.93c0-0.14-0.12-0.25-0.25-0.25-0.73 0-1.33-0.3-1.62-0.82-0.3-0.52-0.26-1.18 0.1-1.81 0.05-0.08 0.04-0.16 0.02-0.19-0.01-0.04-0.04-0.11-0.12-0.16l-0.91-0.53c-0.07-0.04-0.15-0.01-0.19 0.05l-0.05 0.09c-0.37 0.64-0.92 1-1.52 1s-1.15-0.36-1.52-1l-0.06-0.1c-0.03-0.06-0.12-0.08-0.17-0.05l-0.92 0.53c-0.08 0.04-0.11 0.12-0.12 0.16s-0.02 0.11 0.02 0.19c0.37 0.63 0.4 1.29 0.1 1.81s-0.89 0.82-1.62 0.82c-0.14 0-0.26 0.12-0.26 0.25v0.93c0 0.14 0.12 0.25 0.25 0.25 0.73 0 1.33 0.3 1.62 0.82 0.3 0.52 0.26 1.18-0.1 1.81-0.04 0.08-0.03 0.15-0.02 0.19s0.04 0.11 0.12 0.16l0.91 0.53c0.07 0.04 0.15 0.01 0.19-0.05l0.05-0.1c0.36-0.63 0.92-0.99 1.52-0.99z"/>
</svg>
