<?xml version="1.0" encoding="UTF-8"?>
<svg width="24" height="24" viewBox="0 0 24 24" xmlns="http://www.w3.org/2000/svg">
 <path d="m16.7 19.73h-9.4c-0.74 0-1.49-0.53-1.74-1.22l-4.14-11.59c-0.51-1.46-0.14-2.13 0.26-2.43s1.15-0.48 2.41 0.42l3.9 2.79c0.12 0.07 0.23001 0.1 0.31001 0.08 0.09-0.03 0.16-0.11 0.21-0.25l1.76-4.69c0.53-1.4 1.31-1.61 1.73-1.61s1.2 0.21 1.73 1.61l1.76 4.69c0.05 0.13 0.12 0.22 0.21 0.25s0.2 0 0.31-0.09l3.66-2.61c1.34-0.96 2.12-0.77 2.55-0.46 0.42 0.32 0.81 1.03 0.26 2.58l-4.04 11.31c-0.25 0.69-1 1.22-1.74 1.22zm-14.02-13.92c0.02 0.14 0.05999 0.34 0.15999 0.6l4.14 11.59c0.04 0.1 0.22 0.23 0.32 0.23h9.4c0.11 0 0.29-0.13 0.32-0.23l4.04-11.3c0.14-0.38 0.18-0.64 0.19-0.79-0.15 0.05-0.38 0.16-0.71 0.4l-3.66 2.61c-0.5 0.35-1.09 0.46-1.62 0.3s-0.96-0.58-1.18-1.15l-1.76-4.69c-0.13-0.35-0.25-0.52-0.32-0.6-0.07 0.08-0.19 0.25-0.32 0.59l-1.76 4.69c-0.21 0.57-0.64001 0.99-1.18 1.15-0.52999 0.16-1.13 0.05-1.62-0.3l-3.9-2.79c-0.23-0.16-0.41-0.26-0.54-0.31z"/>
 <path d="m17.5 22.75h-11c-0.41 0-0.75-0.34-0.75-0.75s0.34-0.75 0.75-0.75h11c0.41 0 0.75 0.34 0.75 0.75s-0.34 0.75-0.75 0.75z"/>
 <path d="m14.5 14.75h-5c-0.41 0-0.75-0.34-0.75-0.75s0.34-0.75 0.75-0.75h5c0.41 0 0.75 0.34 0.75 0.75s-0.34 0.75-0.75 0.75z"/>
</svg>
