<?xml version="1.0" encoding="UTF-8"?>
<svg width="24" height="24" viewBox="0 0 24 24" xmlns="http://www.w3.org/2000/svg">
 <path d="m17 21.04h-10c-3.17 0-5.75-2.58-5.75-5.75v-9.58c0-1.3 0.6-1.75 0.96-1.9s1.1-0.26 2.02 0.66l2.59 2.59c0.1 0.1 0.26 0.1 0.35 0l3.59-3.59c0.66-0.66 1.82-0.66 2.47 0l3.59 3.59c0.1 0.1 0.26 0.1 0.35 0l2.59-2.59c0.92-0.92 1.66-0.8 2.02-0.66 0.36 0.15 0.96 0.59 0.96 1.9v9.59c0.01 3.43-2.3 5.74-5.74 5.74zm-14.19-15.8c-0.03 0.08-0.06 0.23-0.06 0.47v9.59c0 2.34 1.91 4.25 4.25 4.25h10c2.58 0 4.25-1.67 4.25-4.25v-9.59c0-0.24-0.03-0.38-0.06-0.46-0.08 0.04-0.2 0.12-0.37 0.29l-2.59 2.59c-0.66 0.66-1.82 0.66-2.47 0l-3.59-3.59c-0.1-0.1-0.26-0.1-0.35 0l-3.58 3.58c-0.66 0.66-1.82 0.66-2.47 0l-2.59-2.59c-0.17-0.17-0.3-0.25-0.37-0.29z"/>
</svg>
