<?xml version="1.0" encoding="UTF-8"?>
<svg width="24" height="24" viewBox="0 0 24 24" xmlns="http://www.w3.org/2000/svg">
 <path d="m22 9.75c-0.41 0-0.75-0.34-0.75-0.75v-2c0-2.58-1.67-4.25-4.25-4.25h-10c-2.58 0-4.25 1.67-4.25 4.25v2c0 0.41-0.34 0.75-0.75 0.75s-0.75-0.34-0.75-0.75v-2c0-3.44 2.31-5.75 5.75-5.75h10c3.44 0 5.75 2.31 5.75 5.75v2c0 0.41-0.34 0.75-0.75 0.75z"/>
 <path d="m17 22.75h-10c-3.44 0-5.75-2.31-5.75-5.75v-2c0-0.41 0.34-0.75 0.75-0.75s0.75 0.34 0.75 0.75v2c0 2.58 1.67 4.25 4.25 4.25h10c2.58 0 4.25-1.67 4.25-4.25v-2c0-0.41 0.34-0.75 0.75-0.75s0.75 0.34 0.75 0.75v2c0 3.44-2.31 5.75-5.75 5.75z"/>
 <path d="m12 13.08c-0.13 0-0.26-0.0301-0.38-0.1001l-5.3-3.06c-0.36-0.21-0.48-0.66997-0.27-1.03s0.67-0.48002 1.02-0.27002l4.92 2.85 4.89-2.83c0.36-0.21 0.82-0.08004 1.02 0.26996 0.21 0.36 0.08 0.82003-0.27 1.03l-5.26 3.04c-0.11 0.06-0.24 0.1001-0.37 0.1001z"/>
 <path d="m12 18.52c-0.41 0-0.75-0.34-0.75-0.75v-5.44c0-0.41 0.34-0.75 0.75-0.75s0.75 0.34 0.75 0.75v5.44c0 0.41-0.34 0.75-0.75 0.75z"/>
 <path d="m12 18.75c-0.58 0-1.15-0.13-1.61-0.38l-3.2-1.78c-0.96-0.53-1.7-1.8-1.7-2.9v-3.39c0-1.09 0.75-2.36 1.7-2.9l3.2-1.78c0.92-0.51 2.3-0.51 3.22 0l3.2 1.78c0.96 0.53 1.7 1.8 1.7 2.9v3.39c0 1.09-0.75 2.36-1.7 2.9l-3.2 1.78c-0.46 0.25-1.03 0.38-1.61 0.38zm-0.88-11.81-3.2 1.78c-0.49 0.27-0.93 1.03-0.93 1.58v3.39c0 0.56 0.44 1.31 0.93 1.58l3.2 1.78c0.46 0.25 1.3 0.25 1.76 0l3.2-1.78c0.49-0.27 0.93-1.03 0.93-1.58v-3.39c0-0.56-0.44-1.31-0.93-1.58l-3.2-1.78c-0.46-0.25-1.3-0.25-1.76 0z"/>
</svg>
