<?xml version="1.0" encoding="UTF-8"?>
<svg width="24" height="24" viewBox="0 0 24 24" xmlns="http://www.w3.org/2000/svg">
 <path d="m12 12.25c-0.44 0-0.88-0.11-1.28-0.32l-6.51-3.51c-0.59-0.32-0.96-0.95-0.96-1.65s0.37-1.33 0.96-1.65l6.51-3.51c0.8-0.43 1.76-0.43 2.55 0l6.51 3.51c0.59 0.32 0.96 0.95 0.96 1.65s-0.37 1.33-0.96 1.65l-6.51 3.51c-0.39 0.22-0.83 0.32-1.27 0.32zm0-9.47c-0.19 0-0.39 0.05-0.57 0.15l-6.5 3.5c-0.17 0.09-0.18 0.28-0.18 0.34s0.01 0.25 0.18 0.33l6.51 3.51c0.36 0.19 0.77 0.19 1.13 0l6.51-3.51c0.16-0.09 0.18-0.28 0.18-0.33 0-0.06-0.01-0.25-0.18-0.33l-6.51-3.51c-0.18-0.1-0.38-0.15-0.57-0.15z"/>
 <path d="m9.78 22.72c-0.28 0-0.57-0.07-0.83-0.2l-6.06-3.02c-1.01-0.51-1.64-1.53-1.64-2.66v-5.72c0-0.65 0.33-1.24 0.88-1.58 0.56-0.34 1.23-0.37 1.81-0.08l6.06 3.02c1.01 0.51 1.64 1.52 1.64 2.66v5.72c0 0.65-0.33 1.24-0.88 1.58-0.3 0.19-0.64 0.28-0.98 0.28zm-6.67-11.96c-0.08 0-0.15 0.03-0.19 0.05-0.06 0.04-0.17 0.13-0.17 0.31v5.72c0 0.56 0.31 1.07 0.81 1.32l6.05 3.03c0.16 0.08 0.29 0.02 0.35-0.01 0.06-0.04 0.17-0.13 0.17-0.31v-5.72c0-0.56-0.31-1.07-0.81-1.32l-6.05-3.03c-0.06-0.03-0.11-0.04-0.16-0.04z"/>
 <path d="m14.22 22.72c-0.34 0-0.68-0.09-0.98-0.28-0.55-0.34-0.88-0.93-0.88-1.58v-5.72c0-1.13 0.63-2.15 1.64-2.66l6.05-3.03c0.58-0.29 1.26-0.26 1.81 0.08s0.88 0.93 0.88 1.58v5.72c0 1.13-0.63 2.15-1.64 2.66l-6.05 3.03c-0.26 0.14-0.55 0.2-0.83 0.2zm6.67-11.96c-0.05 0-0.1 0.01-0.16 0.04l-6.05 3.03c-0.5 0.25-0.81 0.75-0.81 1.32v5.72c0 0.18 0.11 0.27 0.17 0.31s0.19 0.09 0.35 0.01l6.05-3.03c0.5-0.25 0.81-0.76 0.81-1.32v-5.72c0-0.18-0.11-0.27-0.17-0.31-0.04-0.02-0.11-0.05-0.19-0.05z"/>
</svg>
