<?xml version="1.0" encoding="UTF-8"?>
<svg width="24" height="24" viewBox="0 0 24 24" xmlns="http://www.w3.org/2000/svg">
 <path d="m12.15 19.35c-0.41 0-0.75-0.34-0.75-0.75v-2.1c0-0.41 0.34-0.75 0.75-0.75s0.75 0.34 0.75 0.75v2.1c0 0.41-0.34 0.75-0.75 0.75z"/>
 <path d="m17.9 22.75h-11.5v-1.75c0-1.52 1.23-2.75 2.75-2.75h6c1.52 0 2.75 1.23 2.75 2.75v1.75zm-10-1.5h8.5v-0.25c0-0.69-0.56-1.25-1.25-1.25h-6c-0.69 0-1.25 0.56-1.25 1.25v0.25z"/>
 <path d="m18.15 22.75h-12c-0.41 0-0.75-0.34-0.75-0.75s0.34-0.75 0.75-0.75h12c0.41 0 0.75 0.34 0.75 0.75s-0.34 0.75-0.75 0.75z"/>
 <path d="m18.43 12.44c-0.21 0-0.42-0.09-0.57-0.26-0.19-0.22-0.24-0.53-0.12-0.79 0.34-0.78 0.51-1.61 0.51-2.48v-3c0-0.35-0.06-0.69-0.18-1.05-0.01-0.03-0.02-0.07-0.03-0.11-0.03-0.15-0.04-0.3-0.04-0.44 0-0.41 0.34-0.75 0.75-0.75h0.6c1.79 0 3.25 1.5 3.25 3.35 0 1.53-0.63 3.04-1.72 4.13-0.02 0.02-0.08 0.07-0.09 0.08-0.59 0.49-1.26 1.04-2.16 1.29-0.07 0.02-0.13 0.03-0.2 0.03zm1.25-7.35c0.05 0.27 0.07 0.55 0.07 0.82v3c0 0.41-0.03 0.8-0.09 1.2 0.06-0.05 0.11-0.09 0.17-0.14003 0.8-0.8 1.27-1.92 1.27-3.06 0-0.9-0.61-1.66-1.42-1.82z"/>
 <path d="m5.5799 12.4c-0.08 0-0.15-0.01-0.23-0.04-0.82-0.26-1.59-0.74-2.23-1.38-1.15-1.27-1.72-2.66-1.72-4.13 0-1.82 1.43-3.25 3.25-3.25h0.65c0.25 0 0.49 0.13 0.63 0.34s0.16 0.48 0.06 0.71c-0.16 0.36-0.24 0.77-0.24 1.2v3c0 0.86 0.17 1.7 0.52 2.5 0.12 0.27 0.06 0.58-0.13 0.8-0.15 0.16-0.35 0.25-0.56 0.25zm-1.28-7.27c-0.81 0.16-1.4 0.86-1.4 1.72 0 1.09 0.44 2.14 1.31 3.1 0.04 0.05 0.09 0.08999 0.14 0.12999-0.07-0.40999-0.1-0.81999-0.1-1.23v-3c0-0.24 0.02-0.48 0.05-0.72z"/>
 <path d="m12 16.75c-4.27 0-7.75-3.48-7.75-7.75v-3c0-2.62 2.13-4.75 4.75-4.75h6c2.62 0 4.75 2.13 4.75 4.75v3c0 4.27-3.48 7.75-7.75 7.75zm-3-14c-1.79 0-3.25 1.46-3.25 3.25v3c0 3.45 2.8 6.25 6.25 6.25s6.25-2.8 6.25-6.25v-3c0-1.79-1.46-3.25-3.25-3.25h-6z"/>
</svg>
