<svg width="24" height="24" viewBox="0 0 24 24"  xmlns="http://www.w3.org/2000/svg">
<path d="M12.1499 19.35C11.7399 19.35 11.3999 19.01 11.3999 18.6V16.5C11.3999 16.09 11.7399 15.75 12.1499 15.75C12.5599 15.75 12.8999 16.09 12.8999 16.5V18.6C12.8999 19.01 12.5599 19.35 12.1499 19.35Z" />
<path d="M17.8999 22.75H6.3999V21C6.3999 19.48 7.6299 18.25 9.1499 18.25H15.1499C16.6699 18.25 17.8999 19.48 17.8999 21V22.75ZM7.8999 21.25H16.3999V21C16.3999 20.31 15.8399 19.75 15.1499 19.75H9.1499C8.4599 19.75 7.8999 20.31 7.8999 21V21.25Z" />
<path d="M18.1499 22.75H6.1499C5.7399 22.75 5.3999 22.41 5.3999 22C5.3999 21.59 5.7399 21.25 6.1499 21.25H18.1499C18.5599 21.25 18.8999 21.59 18.8999 22C18.8999 22.41 18.5599 22.75 18.1499 22.75Z" />
<path d="M18.4302 12.4396C18.2202 12.4396 18.0102 12.3496 17.8602 12.1796C17.6702 11.9596 17.6202 11.6496 17.7402 11.3896C18.0802 10.6096 18.2502 9.77957 18.2502 8.90957V5.90957C18.2502 5.55957 18.1902 5.21957 18.0702 4.85957C18.0602 4.82957 18.0502 4.78957 18.0402 4.74957C18.0102 4.59957 18.0002 4.44957 18.0002 4.30957C18.0002 3.89957 18.3402 3.55957 18.7502 3.55957H19.3502C21.1402 3.55957 22.6002 5.05957 22.6002 6.90957C22.6002 8.43957 21.9702 9.94957 20.8802 11.0396C20.8602 11.0596 20.8002 11.1096 20.7902 11.1196C20.2002 11.6096 19.5302 12.1596 18.6302 12.4096C18.5602 12.4296 18.5002 12.4396 18.4302 12.4396ZM19.6802 5.08957C19.7302 5.35957 19.7502 5.63957 19.7502 5.90957V8.90957C19.7502 9.31957 19.7202 9.70957 19.6602 10.1096C19.7202 10.0596 19.7702 10.0196 19.8302 9.96957C20.6302 9.16957 21.1002 8.04957 21.1002 6.90957C21.1002 6.00957 20.4902 5.24957 19.6802 5.08957Z" />
<path d="M5.5799 12.3996C5.4999 12.3996 5.4299 12.3896 5.3499 12.3596C4.5299 12.0996 3.7599 11.6196 3.1199 10.9796C1.9699 9.70961 1.3999 8.31961 1.3999 6.84961C1.3999 5.02961 2.8299 3.59961 4.6499 3.59961H5.2999C5.5499 3.59961 5.7899 3.72961 5.9299 3.93961C6.0699 4.14961 6.0899 4.41961 5.9899 4.64961C5.8299 5.00961 5.7499 5.41961 5.7499 5.84961V8.84961C5.7499 9.70961 5.9199 10.5496 6.2699 11.3496C6.3899 11.6196 6.3299 11.9296 6.1399 12.1496C5.9899 12.3096 5.7899 12.3996 5.5799 12.3996ZM4.2999 5.12961C3.4899 5.28961 2.8999 5.98961 2.8999 6.84961C2.8999 7.93961 3.3399 8.98961 4.2099 9.94961C4.2499 9.99961 4.2999 10.0396 4.3499 10.0796C4.2799 9.66961 4.2499 9.25961 4.2499 8.84961V5.84961C4.2499 5.60961 4.2699 5.36961 4.2999 5.12961Z" />
<path d="M12 16.75C7.73 16.75 4.25 13.27 4.25 9V6C4.25 3.38 6.38 1.25 9 1.25H15C17.62 1.25 19.75 3.38 19.75 6V9C19.75 13.27 16.27 16.75 12 16.75ZM9 2.75C7.21 2.75 5.75 4.21 5.75 6V9C5.75 12.45 8.55 15.25 12 15.25C15.45 15.25 18.25 12.45 18.25 9V6C18.25 4.21 16.79 2.75 15 2.75H9Z" />
</svg>
