<?xml version="1.0" encoding="UTF-8"?>
<svg width="24" height="24" viewBox="0 0 24 24" xmlns="http://www.w3.org/2000/svg">
 <path d="m12 22.75c-5.93 0-10.75-4.82-10.75-10.75s4.82-10.75 10.75-10.75 10.75 4.82 10.75 10.75-4.82 10.75-10.75 10.75zm0-20c-5.1 0-9.25 4.15-9.25 9.25s4.15 9.25 9.25 9.25 9.25-4.15 9.25-9.25-4.15-9.25-9.25-9.25z"/>
 <path d="m12 17.75h-4c-0.41 0-0.75-0.34-0.75-0.75v-10c0-0.41 0.34-0.75 0.75-0.75h4c3.17 0 5.75 2.58 5.75 5.75s-2.58 5.75-5.75 5.75zm-3.25-1.5h3.25c2.34 0 4.25-1.91 4.25-4.25s-1.91-4.25-4.25-4.25h-3.25v8.5z"/>
 <path d="m18.52 10.75h-12.04c-0.41 0-0.75-0.34-0.75-0.75s0.34-0.75 0.75-0.75h12.04c0.41 0 0.75 0.34 0.75 0.75s-0.34 0.75-0.75 0.75z"/>
 <path d="m18.52 14.75h-12.04c-0.41 0-0.75-0.34-0.75-0.75s0.34-0.75 0.75-0.75h12.04c0.41 0 0.75 0.34 0.75 0.75s-0.34 0.75-0.75 0.75z"/>
</svg>
