<?xml version="1.0" encoding="UTF-8"?>
<svg width="24" height="24" viewBox="0 0 24 24" xmlns="http://www.w3.org/2000/svg">
 <path d="m12 14.75c-0.41 0-0.75-0.34-0.75-0.75v-5c0-0.41 0.34-0.75 0.75-0.75s0.75 0.34 0.75 0.75v5c0 0.41-0.34 0.75-0.75 0.75z"/>
 <path d="m12 18c-0.06 0-0.13-0.01-0.2-0.02-0.06-0.01-0.12-0.03-0.18-0.06-0.06-0.02-0.12-0.05-0.18-0.09l-0.15-0.12c-0.18-0.19-0.29-0.45-0.29-0.71s0.11-0.52 0.29-0.71l0.15-0.12c0.06-0.04 0.12-0.07 0.18-0.09 0.06-0.03 0.12-0.05 0.18-0.06 0.13-0.03 0.27-0.03 0.39 0 0.07 0.01 0.13 0.03 0.19 0.06 0.06 0.02 0.12 0.05 0.18 0.09l0.15 0.12c0.18 0.19 0.29 0.45 0.29 0.71s-0.11 0.52-0.29 0.71l-0.15 0.12c-0.06 0.04-0.12 0.07-0.18 0.09-0.06 0.03-0.12 0.05-0.19 0.06-0.06 0.01-0.13 0.02-0.19 0.02z"/>
 <path d="m18.06 22.16h-12.12c-1.95 0-3.44-0.71-4.2-1.99-0.75-1.28-0.65-2.93 0.3-4.64l6.06-10.9c1-1.8 2.38-2.79 3.9-2.79s2.9 0.99 3.9 2.79l6.06 10.91c0.95 1.71 1.06 3.35 0.3 4.64-0.76 1.27-2.25 1.98-4.2 1.98zm-6.06-18.82c-0.94 0-1.86 0.72-2.59 2.02l-6.05 10.91c-0.68 1.22-0.79 2.34-0.32 3.15s1.51 1.25 2.91 1.25h12.12c1.4 0 2.43-0.44 2.91-1.25s0.36-1.92-0.32-3.15l-6.07-10.91c-0.73-1.3-1.65-2.02-2.59-2.02z"/>
</svg>
