<?xml version="1.0" encoding="UTF-8"?>
<svg width="24" height="24" viewBox="0 0 24 24" xmlns="http://www.w3.org/2000/svg">
 <path d="m13.5 21.25h-9.56c-0.23 0-0.45-0.11-0.59-0.29s-0.19-0.42-0.14-0.64l1.06-4.25c0.08-0.33 0.38-0.57 0.73-0.57h7.44c2.9 0 4.56-1.66 4.56-4.56v-0.19c0-1.6-0.65-2.25-2.25-2.25h-8.69c-0.23 0-0.45-0.10999-0.59-0.28999s-0.19-0.42-0.14-0.64l1.06-4.25c0.08-0.33 0.38-0.57001 0.73-0.57001h8.88c4.16 0 6.75 2.59 6.75 6.75v2.5c0 5.71-3.54 9.25-9.25 9.25zm-8.6-1.5h8.6c4.85 0 7.75-2.9 7.75-7.75v-2.5c0-3.34-1.91-5.25-5.25-5.25h-8.29l-0.69 2.75h7.73c2.42 0 3.75 1.33 3.75 3.75v0.19c0 3.74-2.32 6.06-6.06 6.06h-6.85l-0.69 2.75z"/>
 <path d="m9.1899 14.25h-7.19c-0.23 0-0.45-0.11-0.59-0.29s-0.19-0.42-0.14-0.64l0.37-1.48c0.31-1.23 1.4-2.08 2.67-2.08h7.19c0.23 0 0.45 0.11 0.59 0.29003 0.14 0.18 0.19 0.42 0.14 0.64l-0.37 1.48c-0.31 1.22-1.41 2.08-2.67 2.08zm-6.23-1.5h6.23c0.57 0 1.07-0.39 1.21-0.95l0.14-0.55h-6.23c-0.57 0-1.07 0.39-1.21 0.95l-0.14 0.55z"/>
</svg>
