<?xml version="1.0" encoding="UTF-8"?>
<svg width="24" height="24" viewBox="0 0 24 24" xmlns="http://www.w3.org/2000/svg">
 <path d="M7 8.75H4C2.48 8.75 1.25 7.52 1.25 6V4C1.25 2.48 2.48 1.25 4 1.25H7C8.52 1.25 9.75 2.48 9.75 4V6C9.75 7.52 8.52 8.75 7 8.75ZM4 2.75C3.31 2.75 2.75 3.31 2.75 4V6C2.75 6.69 3.31 7.25 4 7.25H7C7.69 7.25 8.25 6.69 8.25 6V4C8.25 3.31 7.69 2.75 7 2.75H4Z"/>
 <path d="m20.8 7.75h-3.6c-1.08 0-1.95-0.88001-1.95-1.95v-1.6c0-1.08 0.88-1.95 1.95-1.95h3.6c1.08 0 1.95 0.88001 1.95 1.95v1.6c0 1.08-0.87 1.95-1.95 1.95zm-3.6-4c-0.24 0-0.45 0.21001-0.45 0.45001v1.6c0 0.24 0.21 0.45001 0.45 0.45001h3.6c0.24 0 0.45-0.21001 0.45-0.45001v-1.6c0-0.24-0.21-0.45001-0.45-0.45001h-3.6z"/>
 <path d="m20.8 15.25h-3.6c-1.08 0-1.95-0.88-1.95-1.95v-1.6c0-1.08 0.88-1.95 1.95-1.95h3.6c1.08 0 1.95 0.88 1.95 1.95v1.6c0 1.08-0.87 1.95-1.95 1.95zm-3.6-4c-0.24 0-0.45 0.21-0.45 0.45v1.6c0 0.24 0.21 0.45 0.45 0.45h3.6c0.24 0 0.45-0.21 0.45-0.45v-1.6c0-0.24-0.21-0.45-0.45-0.45h-3.6z"/>
 <path d="m16 5.75h-7c-0.41 0-0.75-0.34-0.75-0.75s0.34-0.75 0.75-0.75h7c0.41 0 0.75 0.34 0.75 0.75s-0.34 0.75-0.75 0.75z"/>
 <path d="m12.5 5v13c0 1.1 0.9 2 2 2h1.5"/>
 <path d="m16 20.75h-1.5c-1.52 0-2.75-1.23-2.75-2.75v-13c0-0.41 0.34-0.75 0.75-0.75s0.75 0.34 0.75 0.75v13c0 0.69 0.56 1.25 1.25 1.25h1.5c0.41 0 0.75 0.34 0.75 0.75s-0.34 0.75-0.75 0.75z"/>
 <path d="m16 13.25h-3.5c-0.41 0-0.75-0.34-0.75-0.75s0.34-0.75 0.75-0.75h3.5c0.41 0 0.75 0.34 0.75 0.75s-0.34 0.75-0.75 0.75z"/>
 <path d="m20.8 22.75h-3.6c-1.08 0-1.95-0.88-1.95-1.95v-1.6c0-1.08 0.88-1.95 1.95-1.95h3.6c1.08 0 1.95 0.88 1.95 1.95v1.6c0 1.08-0.87 1.95-1.95 1.95zm-3.6-4c-0.24 0-0.45 0.21-0.45 0.45v1.6c0 0.24 0.21 0.45 0.45 0.45h3.6c0.24 0 0.45-0.21 0.45-0.45v-1.6c0-0.24-0.21-0.45-0.45-0.45h-3.6z"/>
</svg>
