<svg width="24" height="24" viewBox="0 0 24 24"  xmlns="http://www.w3.org/2000/svg">
<path d="M9.56241 10.3594H20.8124C20.9155 10.3594 20.9999 10.275 20.9999 10.1719V8.85938C20.9999 8.75625 20.9155 8.67188 20.8124 8.67188H9.56241C9.45929 8.67188 9.37491 8.75625 9.37491 8.85938V10.1719C9.37491 10.275 9.45929 10.3594 9.56241 10.3594ZM9.37491 15.1406C9.37491 15.2438 9.45929 15.3281 9.56241 15.3281H20.8124C20.9155 15.3281 20.9999 15.2438 20.9999 15.1406V13.8281C20.9999 13.725 20.9155 13.6406 20.8124 13.6406H9.56241C9.45929 13.6406 9.37491 13.725 9.37491 13.8281V15.1406ZM2.7046 12.1617L6.36788 15.0469C6.50382 15.1547 6.70538 15.0586 6.70538 14.8852V9.11484C6.70538 8.94141 6.50616 8.84531 6.36788 8.95312L2.7046 11.8383C2.67997 11.8574 2.66004 11.882 2.64633 11.91C2.63262 11.938 2.62549 11.9688 2.62549 12C2.62549 12.0312 2.63262 12.062 2.64633 12.09C2.66004 12.118 2.67997 12.1426 2.7046 12.1617Z" />
<g opacity="0.4">
<path d="M2.8125 3.75H21.1875C21.2906 3.75 21.375 3.83437 21.375 3.9375V5.25C21.375 5.35312 21.2906 5.4375 21.1875 5.4375H2.8125C2.70937 5.4375 2.625 5.35312 2.625 5.25V3.9375C2.625 3.83437 2.70937 3.75 2.8125 3.75Z" />
<path d="M2.8125 18.5625H21.1875C21.2906 18.5625 21.375 18.6469 21.375 18.75V20.0625C21.375 20.1656 21.2906 20.25 21.1875 20.25H2.8125C2.70937 20.25 2.625 20.1656 2.625 20.0625V18.75C2.625 18.6469 2.70937 18.5625 2.8125 18.5625Z" />
</g>
</svg>
