<?xml version="1.0" encoding="UTF-8"?>
<svg width="24" height="24" viewBox="0 0 24 24" xmlns="http://www.w3.org/2000/svg">
 <path d="m13 20.75h-4.5c-4 0-7.25-3.25-7.25-7.25 0-2.43 1.2-4.66 3.19-6l-2.97-2.97c-0.21-0.21-0.28-0.53999-0.16-0.81999s0.39-0.46001 0.69-0.46001h5c0.2 0 0.39 0.08 0.53 0.22l6 6c0.21 0.21 0.28 0.54 0.16 0.82s-0.39 0.46-0.69 0.46h-4.5c-1.52 0-2.75 1.23-2.75 2.75s1.23 2.75 2.75 2.75h1.5c0.2 0 0.39 0.08 0.53 0.22l3 3c0.21 0.21 0.28 0.54 0.16 0.82s-0.39 0.46-0.69 0.46zm-9.19-16 2.37 2.37c0.17 0.17 0.25002 0.41 0.21002 0.65s-0.19002 0.44001-0.40002 0.55001l-0.19 0.09999c-1.88 0.99-3.06 2.94-3.06 5.08 0 3.17 2.58 5.75 5.75 5.75h2.69l-1.5-1.5h-1.19c-2.34 0-4.25-1.91-4.25-4.25s1.91-4.25 4.25-4.25h2.69l-4.5-4.5h-2.87z"/>
 <path d="m22 20.75h-5c-0.2 0-0.39-0.08-0.53-0.22l-6-6c-0.21-0.21-0.28-0.54-0.16-0.82s0.39-0.46 0.69-0.46h4.5c1.52 0 2.75-1.23 2.75-2.75s-1.23-2.75-2.75-2.75h-1.5c-0.2 0-0.39-0.08-0.53-0.22l-3-3c-0.21-0.21-0.28-0.53999-0.16-0.81999s0.39-0.46001 0.69-0.46001h4.5c4 0 7.25 3.25 7.25 7.25 0 2.43-1.2 4.66-3.19 6l2.97 2.97c0.21 0.21 0.28 0.54 0.16 0.82s-0.39 0.46-0.69 0.46zm-4.69-1.5h2.88l-2.37-2.37c-0.17-0.17-0.25-0.41-0.21-0.65s0.19-0.44 0.4-0.55l0.19-0.1c1.88-0.99 3.06-2.94 3.06-5.08 0-3.17-2.58-5.75-5.75-5.75h-2.69l1.5 1.5h1.19c2.34 0 4.25 1.91 4.25 4.25s-1.91 4.25-4.25 4.25h-2.69l4.49 4.5z"/>
</svg>
