<svg width="24" height="24" viewBox="0 0 24 24"  xmlns="http://www.w3.org/2000/svg">
<path d="M12.0002 18.8996C10.8602 18.8996 9.93018 17.9696 9.93018 16.8296V7.1696C9.93018 6.0296 10.8602 5.09961 12.0002 5.09961C13.1402 5.09961 14.0702 6.0296 14.0702 7.1696V16.8296C14.0702 17.9696 13.1402 18.8996 12.0002 18.8996ZM12.0002 6.59961C11.6902 6.59961 11.4302 6.8496 11.4302 7.1696V16.8296C11.4302 17.1396 11.6802 17.3996 12.0002 17.3996C12.3202 17.3996 12.5702 17.1496 12.5702 16.8296V7.1696C12.5702 6.8596 12.3102 6.59961 12.0002 6.59961Z" />
<path d="M16.18 16.4803C15.83 16.4803 15.47 16.3903 15.15 16.2003L6.78 11.3703C6.3 11.0903 5.96 10.6503 5.82 10.1103C5.68 9.58026 5.75 9.02025 6.03 8.54025C6.6 7.55025 7.87 7.21026 8.85 7.78026L17.22 12.6103C18.21 13.1803 18.55 14.4503 17.98 15.4303C17.59 16.1103 16.89 16.4803 16.18 16.4803ZM7.82 9.02026C7.77 9.02026 7.72 9.03025 7.67 9.04025C7.52 9.08025 7.4 9.17026 7.32 9.30026C7.25 9.43026 7.23 9.58026 7.26 9.73026C7.3 9.88026 7.39 10.0003 7.52 10.0803L15.89 14.9103C16.16 15.0603 16.51 14.9703 16.67 14.7003C16.83 14.4303 16.73 14.0803 16.46 13.9203L8.09 9.09026C8.01 9.04026 7.92 9.02026 7.82 9.02026Z" />
<path d="M7.81977 16.4798C7.09977 16.4798 6.40977 16.1098 6.02977 15.4498C5.45977 14.4598 5.79977 13.1998 6.78977 12.6298L15.1598 7.79979C16.1498 7.22979 17.4098 7.56978 17.9798 8.55978C18.2598 9.03978 18.3298 9.58979 18.1898 10.1298C18.0498 10.6598 17.7098 11.1098 17.2298 11.3898L8.85977 16.2198C8.52977 16.3898 8.16977 16.4798 7.81977 16.4798ZM7.31977 14.6998C7.46977 14.9698 7.82977 15.0598 8.09977 14.9098L16.4698 10.0798C16.5998 9.99979 16.6898 9.87978 16.7298 9.72978C16.7698 9.57978 16.7498 9.42979 16.6698 9.29979C16.5898 9.16979 16.4698 9.07978 16.3198 9.03978C16.1698 8.99978 16.0198 9.01979 15.8898 9.09979L7.51977 13.9298C7.25977 14.0798 7.16977 14.4298 7.31977 14.6998Z" />
<path d="M12 22.75C6.07 22.75 1.25 17.93 1.25 12C1.25 6.07 6.07 1.25 12 1.25C17.93 1.25 22.75 6.07 22.75 12C22.75 17.93 17.93 22.75 12 22.75ZM12 2.75C6.9 2.75 2.75 6.9 2.75 12C2.75 17.1 6.9 21.25 12 21.25C17.1 21.25 21.25 17.1 21.25 12C21.25 6.9 17.1 2.75 12 2.75Z" />
</svg>
