<?xml version="1.0" encoding="UTF-8"?>
<svg width="24" height="24" viewBox="0 0 24 24" xmlns="http://www.w3.org/2000/svg">
 <path d="m12 18.9c-1.14 0-2.07-0.93-2.07-2.07v-9.66c0-1.14 0.93002-2.07 2.07-2.07s2.07 0.92999 2.07 2.07v9.66c0 1.14-0.93 2.07-2.07 2.07zm0-12.3c-0.31 0-0.57 0.24999-0.57 0.56999v9.66c0 0.31 0.25 0.57 0.57 0.57s0.57-0.25 0.57-0.57v-9.66c0-0.31-0.26-0.56999-0.57-0.56999z"/>
 <path d="m16.18 16.48c-0.35 0-0.71-0.09-1.03-0.28l-8.37-4.83c-0.48-0.28-0.82-0.72-0.96-1.26-0.14-0.53004-0.07-1.09 0.21-1.57 0.57-0.99 1.84-1.33 2.82-0.75999l8.37 4.83c0.99 0.57 1.33 1.84 0.76 2.82-0.39 0.68-1.09 1.05-1.8 1.05zm-8.36-7.46c-0.05 0-0.1 0.00999-0.15 0.01999-0.15 0.04-0.27 0.13001-0.35 0.26001-0.07 0.13-0.09 0.28-0.06 0.43 0.04 0.15 0.13 0.27004 0.26 0.35004l8.37 4.83c0.27 0.15 0.62 0.06 0.78-0.21s0.06-0.62-0.21-0.78l-8.37-4.83c-0.08-0.05-0.17-0.07-0.27-0.07z"/>
 <path d="m7.8198 16.48c-0.72 0-1.41-0.37-1.79-1.03-0.57-0.99-0.23-2.25 0.76-2.82l8.37-4.83c0.99-0.57 2.25-0.23001 2.82 0.75999 0.28 0.48 0.35 1.03 0.21 1.57-0.14 0.53-0.48 0.98-0.96 1.26l-8.37 4.83c-0.33 0.17-0.69 0.26-1.04 0.26zm-0.5-1.78c0.15 0.27 0.51 0.36 0.78 0.21l8.37-4.83c0.13-0.08001 0.22-0.20002 0.26-0.35002s0.02-0.29999-0.06-0.42999-0.2-0.22001-0.35-0.26001-0.3-0.01999-0.43 0.06001l-8.37 4.83c-0.26 0.15-0.35 0.5-0.2 0.77z"/>
 <path d="m12 22.75c-5.93 0-10.75-4.82-10.75-10.75s4.82-10.75 10.75-10.75 10.75 4.82 10.75 10.75-4.82 10.75-10.75 10.75zm0-20c-5.1 0-9.25 4.15-9.25 9.25s4.15 9.25 9.25 9.25 9.25-4.15 9.25-9.25-4.15-9.25-9.25-9.25z"/>
</svg>
