<?xml version="1.0" encoding="UTF-8"?>
<svg width="24" height="24" viewBox="0 0 24 24" xmlns="http://www.w3.org/2000/svg">
 <path d="m15.5 19.15h-9c-3.34 0-5.25-1.91-5.25-5.25v-5.4c0-3.34 1.91-5.25 5.25-5.25h2.7c0.24 0 0.47 0.12006 0.61 0.31006s0.18 0.44993 0.1 0.67993c-0.11 0.31-0.16 0.65001-0.16 1.01v3.9c0 0.76 0.23 1.39 0.67 1.83s1.07 0.67 1.83 0.67c0.41 0 0.75 0.34 0.75 0.75v1.2l2.73-1.83c0.12-0.08 0.27-0.13 0.42-0.13h2.6c0.36 0 0.7-0.05 1.01-0.16 0.23-0.08 0.48-0.04 0.68 0.1s0.31 0.3699 0.31 0.6099v1.7001c0 3.35-1.91 5.26-5.25 5.26zm-9-14.4c-2.52 0-3.75 1.23-3.75 3.75v5.4c0 2.52 1.23 3.75 3.75 3.75h9c2.52 0 3.75-1.23 3.75-3.75v-0.78c-0.16 0.02-0.33 0.03-0.5 0.03h-2.37l-2.7 1.8c-0.44 0.28-0.99 0.31-1.44 0.06-0.45-0.24-0.73-0.71-0.73-1.22v-0.7c-0.84-0.13-1.58-0.5-2.14-1.05-0.71-0.71-1.11-1.74-1.11-2.89v-3.9c0-0.17 0.01-0.34 0.02-0.5h-1.78z"/>
 <path d="m12.9 15.18c-0.23 0-0.46-0.0601-0.67-0.1701-0.45-0.24-0.73-0.71-0.73-1.22v-0.7c-0.84-0.13-1.58-0.5-2.14-1.05-0.71-0.71-1.11-1.74-1.11-2.89v-3.9c0-0.53 0.08-1.03 0.24-1.49 0.56-1.57 1.96-2.51 3.76-2.51h6.5c2.35 0 4 1.64 4 4v3.9c0 1.8-0.93 3.2-2.5 3.76-0.48 0.16-0.98 0.24-1.5 0.24h-2.37l-2.7 1.8c-0.24 0.16-0.51 0.2301-0.78 0.2301zm-0.65-12.43c-1.15 0-2 0.55-2.34 1.5-0.1 0.3-0.16 0.64-0.16 1v3.9c0 0.76 0.23 1.39 0.67 1.83s1.07 0.67 1.83 0.67c0.41 0 0.75 0.34 0.75 0.75v1.2l2.73-1.83c0.12-0.08 0.27-0.13 0.42-0.13h2.6c0.36 0 0.7-0.05 1.01-0.16 0.95-0.34 1.49-1.19 1.49-2.34v-3.9c0-1.54-0.96-2.5-2.5-2.5h-6.5v0.01001z"/>
 <path d="m14.6 22.75h-7.2c-0.41 0-0.75-0.34-0.75-0.75s0.34-0.75 0.75-0.75h7.2c0.41 0 0.75 0.34 0.75 0.75s-0.34 0.75-0.75 0.75z"/>
 <path d="m11 22.75c-0.41 0-0.75-0.34-0.75-0.75v-3.6c0-0.41 0.34-0.75 0.75-0.75s0.75 0.34 0.75 0.75v3.6c0 0.41-0.34 0.75-0.75 0.75z"/>
 <path d="m15.44 8c-0.42 0-0.75-0.34-0.75-0.75s0.34-0.75 0.75-0.75 0.75 0.34 0.75 0.75-0.34 0.75-0.75 0.75z"/>
 <path d="m18.25 8c-0.42 0-0.75-0.34-0.75-0.75s0.34-0.75 0.75-0.75 0.75 0.34 0.75 0.75-0.34 0.75-0.75 0.75z"/>
 <path d="m12.62 8c-0.42 0-0.75-0.34-0.75-0.75s0.34-0.75 0.75-0.75 0.75 0.34 0.75 0.75-0.33 0.75-0.75 0.75z"/>
</svg>
