<svg width="24" height="24" viewBox="0 0 24 24"  xmlns="http://www.w3.org/2000/svg">
<path d="M17.0099 13.48C16.0099 13.48 15.1899 12.66 15.1899 11.66C15.1899 10.66 16.0099 9.84009 17.0099 9.84009C18.0099 9.84009 18.8299 10.66 18.8299 11.66C18.8299 12.66 18.0099 13.48 17.0099 13.48ZM17.0099 11.3401C16.8299 11.3401 16.6899 11.48 16.6899 11.66C16.6899 11.84 16.8299 11.98 17.0099 11.98C17.1899 11.98 17.3299 11.84 17.3299 11.66C17.3299 11.48 17.1899 11.3401 17.0099 11.3401Z" />
<path d="M12.02 16.45H6C2.4 16.45 1.25 15.3 1.25 11.7V6C1.25 2.4 2.4 1.25 6 1.25H16C19.6 1.25 20.75 2.4 20.75 6V7.78998C20.75 7.99998 20.66 8.20998 20.5 8.34998C20.34 8.48998 20.13 8.56003 19.91 8.53003C19.69 8.50003 19.43 8.48999 19.15 8.48999H14.87C13.14 8.48999 12.77 8.86003 12.77 10.59V15.7C12.77 16.11 12.43 16.45 12.02 16.45ZM6 2.75C3.21 2.75 2.75 3.21 2.75 6V11.7C2.75 14.49 3.21 14.95 6 14.95H11.27V10.59C11.27 8.03003 12.31 6.98999 14.87 6.98999H19.15C19.18 6.98999 19.22 6.98999 19.25 6.98999V6C19.25 3.21 18.79 2.75 16 2.75H6Z" />
<path d="M9 20.7499C8.59 20.7499 8.25 20.4099 8.25 19.9999V15.7C8.25 15.29 8.59 14.95 9 14.95C9.41 14.95 9.75 15.29 9.75 15.7V19.9999C9.75 20.4099 9.41 20.7499 9 20.7499Z" />
<path d="M12 12.65H2C1.59 12.65 1.25 12.31 1.25 11.9C1.25 11.49 1.59 11.15 2 11.15H12C12.41 11.15 12.75 11.49 12.75 11.9C12.75 12.31 12.41 12.65 12 12.65Z" />
<path d="M12.0002 20.75H5.9502C5.5402 20.75 5.2002 20.41 5.2002 20C5.2002 19.59 5.5402 19.25 5.9502 19.25H12.0002C12.4102 19.25 12.7502 19.59 12.7502 20C12.7502 20.41 12.4102 20.75 12.0002 20.75Z" />
<path d="M17.0099 13.48C16.0099 13.48 15.1899 12.66 15.1899 11.66C15.1899 10.66 16.0099 9.84009 17.0099 9.84009C18.0099 9.84009 18.8299 10.66 18.8299 11.66C18.8299 12.66 18.0099 13.48 17.0099 13.48ZM17.0099 11.3401C16.8299 11.3401 16.6899 11.48 16.6899 11.66C16.6899 11.84 16.8299 11.98 17.0099 11.98C17.1899 11.98 17.3299 11.84 17.3299 11.66C17.3299 11.48 17.1899 11.3401 17.0099 11.3401Z" />
<path fill-rule="evenodd" clip-rule="evenodd" d="M12.1122 7.83218C12.7799 7.16445 13.7592 6.98999 14.87 6.98999H19.15C19.4914 6.98999 19.8113 7.01195 20.0894 7.04532L20.0955 7.04606C20.9512 7.15591 21.687 7.45956 22.1683 8.14331C22.6207 8.78596 22.75 9.63405 22.75 10.59V19.15C22.75 20.2608 22.5756 21.2401 21.9079 21.9078C21.2401 22.5756 20.2608 22.75 19.15 22.75H14.87C13.7593 22.75 12.7799 22.5756 12.1122 21.9078C11.4445 21.2401 11.27 20.2608 11.27 19.15L11.27 10.59C11.27 9.47928 11.4445 8.49991 12.1122 7.83218ZM13.1729 8.89283C12.9506 9.11512 12.77 9.56077 12.77 10.59L12.77 19.15C12.77 20.1793 12.9506 20.6249 13.1728 20.8472C13.3951 21.0695 13.8408 21.25 14.87 21.25H19.15C20.1793 21.25 20.6249 21.0695 20.8472 20.8472C21.0695 20.6249 21.25 20.1793 21.25 19.15V10.59C21.25 9.71601 21.1194 9.25907 20.9417 9.0067C20.7933 8.79576 20.5297 8.61461 19.9076 8.53426C19.6863 8.50783 19.4273 8.48999 19.15 8.48999H14.87C13.8407 8.48999 13.3951 8.67055 13.1729 8.89283ZM17.0099 11.3401C16.8341 11.3401 16.6899 11.4843 16.6899 11.66C16.6899 11.8358 16.8342 11.98 17.0099 11.98C17.1857 11.98 17.3299 11.8358 17.3299 11.66C17.3299 11.4843 17.1858 11.3401 17.0099 11.3401ZM15.1899 11.66C15.1899 10.6558 16.0058 9.84009 17.0099 9.84009C18.0141 9.84009 18.8299 10.6558 18.8299 11.66C18.8299 12.6642 18.0142 13.48 17.0099 13.48C16.0057 13.48 15.1899 12.6642 15.1899 11.66ZM17.01 15.62C16.5655 15.62 16.1686 15.8318 15.9117 16.1609C15.7301 16.3946 15.62 16.6937 15.62 17.01C15.62 17.7758 16.2443 18.4 17.01 18.4C17.7758 18.4 18.4 17.7758 18.4 17.01C18.4 16.603 18.2164 16.2232 17.9156 15.954C17.6762 15.7485 17.3601 15.62 17.01 15.62ZM14.7287 15.2387C15.2518 14.568 16.0747 14.12 17.01 14.12C17.7381 14.12 18.4005 14.3901 18.9006 14.8227L18.9084 14.8294C19.5053 15.36 19.9 16.1388 19.9 17.01C19.9 18.6042 18.6043 19.9 17.01 19.9C15.4158 19.9 14.12 18.6042 14.12 17.01C14.12 16.3465 14.3498 15.7258 14.728 15.2396L14.7287 15.2387Z" />
<path d="M17.01 19.9C15.42 19.9 14.12 18.6 14.12 17.01C14.12 16.37 14.3401 15.74 14.7301 15.24C15.2801 14.53 16.12 14.12 17.01 14.12C17.7 14.12 18.3801 14.37 18.9001 14.82C19.5401 15.39 19.9 16.18 19.9 17.01C19.9 18.6 18.6 19.9 17.01 19.9ZM17.01 15.62C16.58 15.62 16.1801 15.82 15.9101 16.16C15.7201 16.4 15.62 16.7 15.62 17.01C15.62 17.78 16.24 18.4 17.01 18.4C17.78 18.4 18.4 17.78 18.4 17.01C18.4 16.61 18.2201 16.23 17.9101 15.95C17.6701 15.74 17.34 15.62 17.01 15.62Z" />
<path d="M17.0099 13.48C16.0099 13.48 15.1899 12.66 15.1899 11.66C15.1899 10.66 16.0099 9.84009 17.0099 9.84009C18.0099 9.84009 18.8299 10.66 18.8299 11.66C18.8299 12.66 18.0099 13.48 17.0099 13.48ZM17.0099 11.3401C16.8299 11.3401 16.6899 11.48 16.6899 11.66C16.6899 11.84 16.8299 11.98 17.0099 11.98C17.1899 11.98 17.3299 11.84 17.3299 11.66C17.3299 11.48 17.1899 11.3401 17.0099 11.3401Z" />
</svg>
