<?xml version="1.0" encoding="UTF-8"?>
<svg width="24" height="24" viewBox="0 0 24 24" xmlns="http://www.w3.org/2000/svg">
 <path d="m12 19.42c-1.54 0-3.08-0.59-4.25-1.76-2.35-2.35-2.35-6.16 0-8.51 1.14-1.14 2.65-1.76 4.25-1.76s3.12 0.63001 4.25 1.76c2.35 2.35 2.35 6.16 0 8.51-1.17 1.17-2.71 1.76-4.25 1.76zm0-10.52c-1.2 0-2.34 0.46994-3.19 1.32-1.76 1.76-1.76 4.62 0 6.38s4.62 1.75 6.38 0c1.76-1.76 1.76-4.62 0-6.38-0.85-0.85001-1.99-1.32-3.19-1.32z"/>
 <path d="m10.41 15.75c-0.19 0-0.39-0.0699-0.53-0.2199-0.29-0.29-0.29-0.77 0-1.07l1.59-1.5901c0.29-0.29 0.77-0.29 1.07 0 0.29 0.29 0.29 0.7701 0 1.0701l-1.59 1.59c-0.16 0.15-0.35 0.2199-0.54 0.2199z"/>
 <path d="m18.79 7.51c-0.24 0-0.46-0.09001-0.63-0.26001-0.35-0.35-0.35-0.92001 0-1.26 0.17-0.17 0.39-0.26001 0.63-0.26001s0.46 0.09001 0.63 0.26001 0.2599 0.39001 0.2599 0.63001-0.0899 0.46-0.2599 0.63c-0.16 0.17-0.39 0.26001-0.63 0.26001zm-0.07-0.97003v0.15002c0.02 0.02 0.0499 0.02997 0.0799 0.02997 0.12-0.07 0.1201-0.13999 0.0701-0.17999h-0.15z"/>
 <path d="m18.79 7.76c-0.31 0-0.59-0.12003-0.81-0.34003-0.44-0.44-0.44-1.17 0-1.62 0.22-0.22 0.5-0.33002 0.81-0.33002s0.59 0.12003 0.81 0.34003 0.33 0.5 0.33 0.81-0.12 0.58999-0.34 0.80999c-0.2 0.21-0.49 0.33002-0.8 0.33002zm-0.25-0.89001c0.07 0.07 0.16 0.09997 0.25 0.09997s0.18-0.03997 0.25-0.09997c0.14-0.14 0.14-0.36 0-0.5-0.13-0.13-0.37-0.13-0.5 0-0.06 0.06-0.1 0.15-0.1 0.25 0 0.09 0.03 0.18 0.1 0.25z"/>
 <path d="m5.2098 21.09c-0.23 0-0.46001-0.09-0.63001-0.26s-0.25998-0.4-0.25998-0.63c0-0.24 0.08998-0.46 0.25998-0.63s0.39001-0.26 0.63001-0.26 0.46 0.09 0.63 0.26c0.35 0.35 0.35 0.92 0 1.26-0.17 0.17-0.4 0.26-0.63 0.26zm-0.01999-0.9901c-0.02 0-0.04 0.0101-0.06 0.0301-0.04 0.04-0.04 0.11 0 0.15 0.02 0.02 0.05001 0.03 0.07001 0.03l0.09997-0.1c-0.03-0.09-0.06998-0.1101-0.10998-0.1101z"/>
 <path d="m5.21 21.34c-0.29 0-0.59-0.11-0.81-0.33s-0.33999-0.51-0.33999-0.81c0-0.31 0.11999-0.59 0.33999-0.81 0.21-0.21 0.5-0.33 0.81-0.33s0.59 0.12 0.81 0.34c0.45 0.45 0.45 1.17 0 1.62-0.22 0.21-0.52 0.32-0.81 0.32zm0-1.5c-0.09 0-0.18 0.03-0.25 0.1-0.14 0.14-0.14 0.36 0 0.5 0.07 0.07 0.16 0.0999 0.25 0.0999s0.19-0.0399 0.25-0.1099c0.06-0.06 0.10001-0.15 0.10001-0.25 0-0.09-0.04001-0.19-0.10001-0.25-0.07-0.05-0.16-0.09-0.25-0.09z"/>
 <path d="m21.6 14.3c-0.23 0-0.46-0.09-0.63-0.26-0.35-0.35-0.35-0.92 0-1.27 0.17-0.17 0.4-0.21 0.63-0.26 0.24 0 0.46 0.09 0.63 0.26 0.35 0.35 0.35 0.92 0 1.27-0.17 0.17-0.4 0.26-0.63 0.26zm-0.07-0.82c0.02 0.02 0.05 0.03 0.08 0.03 0.11-0.07 0.11-0.14 0.07-0.18s-0.11-0.04-0.15 0-0.04 0.11 0 0.15z"/>
 <path d="m21.6 14.55c-0.29 0-0.59-0.11-0.81-0.33-0.45-0.45-0.45-1.17 0-1.62 0.22-0.22 0.5-0.34 0.81-0.34s0.59 0.12 0.81 0.34c0.45 0.45 0.45 1.17 0 1.62-0.22 0.22-0.51 0.33-0.81 0.33zm-0.25-0.89c0.07 0.07 0.16 0.1 0.25 0.1s0.18-0.04 0.25-0.1c0.14-0.14 0.14-0.36 0-0.5s-0.36-0.14-0.5 0c-0.13 0.13-0.14 0.36 0 0.5z"/>
 <path d="m2.3998 14.3c-0.23 0-0.46001-0.09-0.63001-0.26-0.35-0.35-0.35-0.9199 0-1.2699s0.92002-0.35 1.27 0 0.35 0.9199 0 1.2699c-0.19 0.17-0.42001 0.26-0.64001 0.26zm-0.07999-0.82c0.04 0.04 0.11 0.04 0.15 0s0.04-0.1099 0-0.1499-0.11-0.04-0.15 0-0.04 0.1099 0 0.1499z"/>
 <path d="m2.3999 14.55c-0.29 0-0.59-0.11-0.81-0.33-0.45-0.45-0.45-1.17 0-1.62s1.18-0.44 1.62 0c0.45 0.45 0.45 1.17 0 1.62-0.23 0.22-0.52 0.33-0.81 0.33zm-0.25998-0.89c0.14 0.14 0.36 0.14 0.5 0s0.14-0.37 0-0.5c-0.14-0.14-0.36-0.14-0.5 0-0.13 0.13-0.13 0.36 0 0.5z"/>
 <path d="m18.79 21.09c-0.23 0-0.46-0.09-0.63-0.26-0.35-0.35-0.35-0.92 0-1.27s0.9199-0.35 1.2699 0c0.17 0.17 0.2601 0.39 0.2601 0.63s-0.0901 0.46-0.2601 0.63c-0.18 0.18-0.4099 0.27-0.6399 0.27zm0-1c-0.03 0-0.05 0.01-0.07 0.03v0.15c0.04 0.04 0.11 0.04 0.15 0s0.04-0.11 0-0.15c-0.03-0.02-0.05-0.03-0.08-0.03z"/>
 <path d="m18.79 21.34c-0.29 0-0.59-0.11-0.81-0.33-0.45-0.45-0.45-1.17 0-1.62s1.17-0.45 1.62 0c0.22 0.22 0.34 0.5 0.34 0.81s-0.12 0.59-0.34 0.81-0.52 0.33-0.81 0.33zm-0.25-0.89c0.14 0.14 0.36 0.14 0.5 0s0.14-0.36 0-0.5-0.36-0.14-0.5 0c-0.07 0.07-0.1 0.16-0.1 0.25s0.03 0.18 0.1 0.25z"/>
 <path d="m5.2098 7.51c-0.24 0-0.46001-0.09001-0.63001-0.26001s-0.25998-0.39-0.25998-0.63 0.08998-0.46001 0.25998-0.63001 0.39001-0.26001 0.63001-0.26001 0.46 0.09001 0.63 0.26001c0.35 0.35 0.35 0.92002 0 1.27-0.17 0.16-0.39 0.25-0.63 0.25zm-0.07999-0.82001c0.02 0.02 0.05001 0.02997 0.07001 0.02997l0.09997-0.09997-0.09997-0.09998c-0.11 0.06-0.11001 0.12998-0.07001 0.16998z"/>
 <path d="m5.2098 7.76c-0.31 0-0.59-0.12003-0.81-0.34003-0.21-0.21-0.32999-0.49999-0.32999-0.80999s0.12-0.59 0.34-0.81c0.21-0.21 0.5-0.33002 0.81-0.33002s0.59 0.12003 0.81 0.34003c0.44 0.45 0.44 1.17 0 1.62-0.23 0.21-0.51001 0.33002-0.82001 0.33002zm-0.25-0.89001c0.07 0.07 0.16 0.10998 0.25 0.10998s0.18-0.03998 0.25-0.09998 0.1-0.16 0.1-0.25-0.03998-0.19-0.10998-0.25c-0.12-0.13-0.37-0.13-0.5 0-0.13 0.12-0.13002 0.35 0.00998 0.49z"/>
 <path d="m12 4.7c-0.24 0-0.46-0.09001-0.63-0.26001s-0.26-0.39-0.26-0.63 0.09-0.46001 0.26-0.63001c0.35-0.35 0.92-0.35 1.27 0s0.35 0.92001 0 1.26c-0.17 0.16-0.4 0.26001-0.64 0.26001zm0.07-0.97003-0.15 0.15002c0.04 0.04 0.11 0.04 0.15 0v-0.15002zm-0.14 0c-0.04 0.04-0.04 0.11002 0 0.15002l0.15-0.15002h-0.15z"/>
 <path d="m12 4.9499c-0.31 0-0.59-0.12003-0.81-0.34003-0.21-0.21-0.33-0.5-0.33-0.81s0.12-0.59 0.34-0.81c0.45-0.45 1.17-0.45 1.62 0 0.44 0.45 0.44 1.17 0 1.62-0.22 0.22-0.51 0.34003-0.82 0.34003zm0.25-1.4-0.5 0.5c0.14 0.14 0.36 0.14 0.5 0 0.07-0.07 0.1-0.16 0.1-0.25s-0.03-0.18-0.1-0.25zm-0.25-0.09997c-0.09 0-0.19 0.03998-0.25 0.10998-0.14 0.14-0.14 0.36 0 0.5l0.5-0.5c-0.06-0.07-0.15-0.10998-0.25-0.10998z"/>
</svg>
