<?xml version="1.0" encoding="UTF-8"?>
<svg width="24" height="24" viewBox="0 0 24 24" xmlns="http://www.w3.org/2000/svg">
 <path d="m17.01 13.48c-1 0-1.82-0.82-1.82-1.82s0.82-1.82 1.82-1.82 1.82 0.81996 1.82 1.82-0.82 1.82-1.82 1.82zm0-2.14c-0.18 0-0.32 0.14-0.32 0.32s0.14 0.32 0.32 0.32 0.32-0.14 0.32-0.32-0.14-0.32-0.32-0.32z"/>
 <path d="m12.02 16.45h-6.02c-3.6 0-4.75-1.15-4.75-4.75v-5.7c0-3.6 1.15-4.75 4.75-4.75h10c3.6 0 4.75 1.15 4.75 4.75v1.79c0 0.21-0.09 0.42-0.25 0.56s-0.37 0.21005-0.59 0.18005-0.48-0.04004-0.76-0.04004h-4.28c-1.73 0-2.1 0.37004-2.1 2.1v5.11c0 0.41-0.34 0.75-0.75 0.75zm-6.02-13.7c-2.79 0-3.25 0.46-3.25 3.25v5.7c0 2.79 0.46 3.25 3.25 3.25h5.27v-4.36c0-2.56 1.04-3.6 3.6-3.6h4.28 0.1v-0.98999c0-2.79-0.46-3.25-3.25-3.25h-10z"/>
 <path d="m9 20.75c-0.41 0-0.75-0.34-0.75-0.75v-4.3c0-0.41 0.34-0.75 0.75-0.75s0.75 0.34 0.75 0.75v4.3c0 0.41-0.34 0.75-0.75 0.75z"/>
 <path d="m12 12.65h-10c-0.41 0-0.75-0.34-0.75-0.75s0.34-0.75 0.75-0.75h10c0.41 0 0.75 0.34 0.75 0.75s-0.34 0.75-0.75 0.75z"/>
 <path d="m12 20.75h-6.05c-0.41 0-0.75-0.34-0.75-0.75s0.34-0.75 0.75-0.75h6.05c0.41 0 0.75 0.34 0.75 0.75s-0.34 0.75-0.75 0.75z"/>
 <path d="m17.01 13.48c-1 0-1.82-0.82-1.82-1.82s0.82-1.82 1.82-1.82 1.82 0.81996 1.82 1.82-0.82 1.82-1.82 1.82zm0-2.14c-0.18 0-0.32 0.14-0.32 0.32s0.14 0.32 0.32 0.32 0.32-0.14 0.32-0.32-0.14-0.32-0.32-0.32z"/>
 <path d="m12.112 7.8324c0.6677-0.66774 1.6471-0.8422 2.7578-0.8422h4.28c0.3415 0 0.6613 0.02197 0.9394 0.05533l0.0061 7.4e-4v3e-5c0.8557 0.10985 1.5915 0.41347 2.0728 1.0972 0.4524 0.64266 0.5817 1.4907 0.5817 2.4468v8.56c0 1.1107-0.1744 2.0901-0.8421 2.7578-0.6678 0.6677-1.6471 0.8421-2.7579 0.8421h-4.28c-1.1107 0-2.0901-0.1744-2.7578-0.8421s-0.8422-1.6471-0.8422-2.7578v-8.56c0-1.1108 0.1745-2.0901 0.8422-2.7579zm1.0607 1.0606c-0.2223 0.22229-0.4029 0.66793-0.4029 1.6972v8.56c0 1.0292 0.1806 1.4749 0.4028 1.6971 0.2223 0.2223 0.668 0.4028 1.6972 0.4028h4.28c1.0293 0 1.4749-0.1805 1.6972-0.4028 0.2223-0.2222 0.4028-0.6679 0.4028-1.6971v-8.56c0-0.87405-0.1306-1.331-0.3083-1.5834-0.1484-0.21093-0.412-0.39208-1.0341-0.47243-0.2213-0.02643-0.4803-0.04428-0.7576-0.04428h-4.28c-1.0292 0-1.4749 0.18056-1.6971 0.40285zm3.8371 2.4472c-0.1758 0-0.32 0.1442-0.32 0.3199 0 0.1758 0.1443 0.32 0.32 0.32 0.1758 0 0.32-0.1442 0.32-0.32 0-0.1757-0.1441-0.3199-0.32-0.3199zm-1.82 0.3199c0-1.0043 0.8159-1.8199 1.82-1.8199 1.0042 0 1.82 0.81573 1.82 1.8199s-0.8157 1.82-1.82 1.82c-1.0042 0-1.82-0.8158-1.82-1.82zm1.82 3.96c-0.4445 0-0.8414 0.2119-1.0983 0.5409-0.1816 0.2337-0.2917 0.5328-0.2917 0.8492 0 0.7657 0.6243 1.39 1.39 1.39 0.7658 0 1.39-0.6242 1.39-1.39 0-0.4071-0.1836-0.7869-0.4844-1.0561-0.2394-0.2055-0.5555-0.334-0.9056-0.334zm-2.2813-0.3812c0.5231-0.6707 1.346-1.1188 2.2813-1.1188 0.7281 0 1.3905 0.2702 1.8906 0.7028l0.0078 0.0066-1e-4 1e-4c0.597 0.5306 0.9917 1.3093 0.9917 2.1806 0 1.5942-1.2957 2.89-2.89 2.89-1.5942 0-2.89-1.2958-2.89-2.89 0-0.6635 0.2298-1.2843 0.608-1.7705l7e-4 -8e-4z" clip-rule="evenodd" fill-rule="evenodd"/>
 <path d="m17.01 19.9c-1.59 0-2.89-1.3-2.89-2.89 0-0.64 0.22-1.27 0.61-1.77 0.55-0.71 1.39-1.12 2.28-1.12 0.69 0 1.37 0.25 1.89 0.7 0.64 0.57 1 1.36 1 2.19 0 1.59-1.3 2.89-2.89 2.89zm0-4.28c-0.43 0-0.83 0.2-1.1 0.54-0.19 0.24-0.29 0.54-0.29 0.85 0 0.77 0.62 1.39 1.39 1.39s1.39-0.62 1.39-1.39c0-0.4-0.18-0.78-0.49-1.06-0.24-0.21-0.57-0.33-0.9-0.33z"/>
 <path d="m17.01 13.48c-1 0-1.82-0.82-1.82-1.82s0.82-1.82 1.82-1.82 1.82 0.81996 1.82 1.82-0.82 1.82-1.82 1.82zm0-2.14c-0.18 0-0.32 0.14-0.32 0.32s0.14 0.32 0.32 0.32 0.32-0.14 0.32-0.32-0.14-0.32-0.32-0.32z"/>
</svg>
