<?xml version="1.0" encoding="UTF-8"?>
<svg width="24" height="24" viewBox="0 0 24 24" xmlns="http://www.w3.org/2000/svg">
 <path d="m12 22.6c-1.11 0-2.14-0.47-2.91-1.31l-6.86-7.54c-0.97-1.06-1.27-2.93-0.69-4.24l2.56-5.76c0.7-1.57 1.87-2.34 3.59-2.34h8.59v0.75-0.75c1.72 0 2.89 0.76 3.59 2.33l2.56 5.76c0.58 1.31 0.29 3.18-0.68 4.24l-6.85 7.55c-0.75 0.84-1.79 1.31-2.9 1.31zm4.29-19.7h-8.59c-1.31 0-1.84 0.57999-2.22 1.45l-2.56 5.76c-0.34 0.77-0.14 2 0.42 2.62l6.86 7.54c0.48 0.53 1.12 0.82 1.8 0.82s1.32-0.29 1.8-0.82l6.85-7.55c0.57-0.63 0.77-1.85 0.42-2.62l-2.56-5.76c-0.38-0.86-0.91-1.44-2.22-1.44z"/>
 <path d="m3.5 8.7502c-0.41 0-0.75-0.34-0.75-0.75s0.34-0.75 0.75-0.75l17-0.01c0.41 0 0.75 0.34 0.75 0.75s-0.34 0.75-0.75 0.75l-17 0.01z"/>
</svg>
