<?xml version="1.0" encoding="UTF-8"?>
<svg width="24" height="24" viewBox="0 0 24 24" xmlns="http://www.w3.org/2000/svg">
 <path d="m12 8.75c-0.41 0-0.75-0.34-0.75-0.75v-4.19l-0.72 0.72c-0.29 0.29-0.76996 0.29-1.06 0s-0.29-0.77 0-1.06l2-2c0.21-0.21 0.54-0.28 0.82-0.16 0.28 0.11 0.46 0.39 0.46 0.69v6c0 0.41-0.34 0.75-0.75 0.75z"/>
 <path d="m14 4.7499c-0.19 0-0.38-0.07-0.53-0.22l-2-2c-0.29-0.29-0.29-0.77 0-1.06s0.77-0.29 1.06 0l2 2c0.29 0.29 0.29 0.77 0 1.06-0.15 0.15-0.34 0.22-0.53 0.22z"/>
 <path d="m16 22.75h-8c-5.75 0-5.75-3.05-5.75-5.75v-1c0-2.23 0-4.75 4.75-4.75 1.19 0 1.63 0.29 2.25 0.75 0.03 0.03 0.07 0.05 0.1 0.09l1.02 1.08c0.86 0.91 2.42 0.91 3.28 0l1.02-1.08c0.03-0.03 0.06-0.06 0.1-0.09 0.62-0.47 1.06-0.75 2.25-0.75 4.75 0 4.75 2.52 4.75 4.75v1c-0.02 3.82-1.95 5.75-5.77 5.75zm-9-10c-3.25 0-3.25 1.02-3.25 3.25v1c0 2.74 0 4.25 4.25 4.25h8c2.98 0 4.25-1.27 4.25-4.25v-1c0-2.23 0-3.25-3.25-3.25-0.72 0-0.87 0.09-1.3 0.41l-0.97 1.03c-0.72 0.76-1.69 1.18-2.73 1.18s-2.01-0.42-2.73-1.18l-0.97-1.03c-0.43-0.32-0.58-0.41-1.3-0.41z"/>
 <path d="m5 12.75c-0.41 0-0.75-0.34-0.75-0.75v-2c0-1.94 0-4.35 3.68-4.7 0.4-0.05 0.78 0.26 0.82 0.68 0.04 0.41-0.26 0.78-0.68 0.82-2.32 0.21-2.32 1.15-2.32 3.2v2c0 0.41-0.34 0.75-0.75 0.75z"/>
 <path d="m19 12.75c-0.41 0-0.75-0.34-0.75-0.75v-2c0-2.05 0-2.99-2.32-3.21-0.41-0.04-0.71-0.41-0.67-0.82s0.4-0.72 0.82-0.67c3.68 0.35 3.68 2.76 3.68 4.7v2c-0.01 0.41-0.35 0.75-0.76 0.75z"/>
</svg>
