<?xml version="1.0" encoding="UTF-8"?>
<svg width="24" height="24" viewBox="0 0 24 24" xmlns="http://www.w3.org/2000/svg">
 <path d="m12 21.75c-1.47 0-2.81-0.81-3.49-2.11l-6.1-11.59c-0.82-1.55-0.55-3.35 0.67-4.6s3.02-1.55 4.58-0.77l3.24 1.62c0.68 0.34 1.5 0.34 2.19 0l3.24-1.62c1.57-0.78 3.37-0.48 4.59 0.77s1.49 3.05 0.67 4.6l-6.1 11.59c-0.68 1.3-2.02 2.11-3.49 2.11zm-6.12-18c-0.71 0-1.33 0.34-1.73 0.75-0.6 0.62-1.03 1.69-0.42 2.85l6.1 11.59c0.42995 0.82 1.24 1.31 2.16 1.31s1.73-0.49 2.16-1.31l6.1-11.59c0.61-1.16 0.19-2.24-0.42-2.85-0.6-0.61-1.66-1.06-2.84-0.48l-3.24 1.62c-1.11 0.55-2.42 0.55-3.53 0l-3.23-1.62c-0.38-0.19-0.76-0.27-1.11-0.27z"/>
</svg>
