<svg width="24" height="24" viewBox="0 0 24 24"  xmlns="http://www.w3.org/2000/svg">
<path d="M12 9.74999C11.59 9.74999 11.25 9.40999 11.25 8.99999V3.80999L10.53 4.52999C10.24 4.81999 9.75998 4.81999 9.46998 4.52999C9.17998 4.23999 9.17998 3.75999 9.46998 3.46999L11.47 1.46999C11.68 1.25999 12.01 1.18999 12.29 1.30999C12.57 1.41999 12.75 1.69999 12.75 1.99999V8.99999C12.75 9.40999 12.41 9.74999 12 9.74999Z" />
<path d="M14 4.74999C13.81 4.74999 13.62 4.67999 13.47 4.52999L11.47 2.52999C11.18 2.23999 11.18 1.75999 11.47 1.46999C11.76 1.17999 12.24 1.17999 12.53 1.46999L14.53 3.46999C14.82 3.75999 14.82 4.23999 14.53 4.52999C14.38 4.67999 14.19 4.74999 14 4.74999Z" />
<path d="M13.76 17.75H10.23C9.17998 17.75 8.23998 17.17 7.76998 16.23L6.59998 13.89C6.55998 13.8 6.46998 13.75 6.37998 13.75H1.97998C1.56998 13.75 1.22998 13.41 1.22998 13C1.22998 12.59 1.56998 12.25 1.97998 12.25H6.38998C7.05998 12.25 7.65998 12.62 7.95998 13.22L9.12998 15.56C9.33998 15.99 9.76998 16.25 10.25 16.25H13.78C14.26 16.25 14.69 15.99 14.9 15.56L16.07 13.22C16.37 12.62 16.97 12.25 17.64 12.25H22C22.41 12.25 22.75 12.59 22.75 13C22.75 13.41 22.41 13.75 22 13.75H17.64C17.54 13.75 17.46 13.8 17.42 13.89L16.25 16.23C15.75 17.17 14.81 17.75 13.76 17.75Z" />
<path d="M15 22.75H8.99998C3.56998 22.75 1.24998 20.43 1.24998 15V12C1.24998 7.30999 2.98998 4.95999 6.88998 4.38999C7.30998 4.32999 7.67998 4.60999 7.73998 5.01999C7.79998 5.42999 7.51998 5.80999 7.10998 5.86999C3.96998 6.32999 2.74998 8.04999 2.74998 12V15C2.74998 19.61 4.38998 21.25 8.99998 21.25H15C19.61 21.25 21.25 19.61 21.25 15V12C21.25 8.04999 20.03 6.32999 16.89 5.86999C16.48 5.80999 16.2 5.42999 16.26 5.01999C16.32 4.60999 16.7 4.32999 17.11 4.38999C21.01 4.95999 22.75 7.30999 22.75 12V15C22.75 20.43 20.43 22.75 15 22.75Z" />
</svg>
