<?xml version="1.0" encoding="UTF-8"?>
<svg width="24" height="24" viewBox="0 0 24 24" xmlns="http://www.w3.org/2000/svg">
 <path d="m16 22.75h-8c-5.75 0-5.75-3.05-5.75-5.75v-1c0-2.23 0-4.75 4.75-4.75 1.19 0 1.63 0.29 2.25 0.75 0.03 0.03 0.07 0.05 0.1 0.09l1.02 1.08c0.86 0.91 2.42 0.91 3.28 0l1.02-1.08c0.03-0.03 0.06-0.06 0.1-0.09 0.62-0.47 1.06-0.75 2.25-0.75 4.75 0 4.75 2.52 4.75 4.75v1c-0.02 3.82-1.95 5.75-5.77 5.75zm-9-10c-3.25 0-3.25 1.02-3.25 3.25v1c0 2.74 0 4.25 4.25 4.25h8c2.98 0 4.25-1.27 4.25-4.25v-1c0-2.23 0-3.25-3.25-3.25-0.72 0-0.87 0.09-1.3 0.41l-0.97 1.03c-0.72 0.76-1.69 1.18-2.73 1.18s-2.01-0.42-2.73-1.18l-0.97-1.03c-0.43-0.32-0.58-0.41-1.3-0.41z"/>
 <path d="m19 12.75c-0.41 0-0.75-0.34-0.75-0.75v-6c0-2.23 0-3.25-3.25-3.25h-6c-3.25 0-3.25 1.02-3.25 3.25v6c0 0.41-0.34 0.75-0.75 0.75s-0.75-0.34-0.75-0.75v-6c0-2.23 0-4.75 4.75-4.75h6c4.75 0 4.75 2.52 4.75 4.75v6c0 0.41-0.34 0.75-0.75 0.75z"/>
 <path d="m13.88 9.98h-3.33c-0.41 0-0.75-0.34-0.75-0.75s0.34-0.75 0.75-0.75h3.33c0.41 0 0.75 0.34 0.75 0.75s-0.33 0.75-0.75 0.75z"/>
 <path d="m14.72 6.98h-5c-0.41 0-0.75-0.34-0.75-0.75s0.34-0.75 0.75-0.75h5c0.41 0 0.75 0.34 0.75 0.75s-0.33 0.75-0.75 0.75z"/>
</svg>
