<?xml version="1.0" encoding="UTF-8"?>
<svg width="24" height="24" viewBox="0 0 24 24" xmlns="http://www.w3.org/2000/svg">
 <path d="m17.81 22.06c-0.63 0-1.26-0.15-1.86-0.47l-11.59-6.1c-1.3-0.68-2.11-2.02-2.11-3.49s0.81-2.81 2.11-3.49l11.59-6.1c1.55-0.81 3.35-0.55 4.6 0.67s1.55 3.02 0.77 4.58l-1.62 3.24c-0.34 0.68-0.34 1.5 0 2.19l1.62 3.24c0.78 1.56 0.48 3.36-0.77 4.58-0.77 0.76-1.74 1.15-2.74 1.15zm-0.01-18.62c-0.36 0-0.75 0.09-1.15 0.3l-11.59 6.1c-0.82 0.43002-1.31 1.24-1.31 2.16s0.49 1.73 1.31 2.16l11.59 6.1c1.16 0.61 2.24 0.19 2.85-0.42 0.62-0.6 1.06-1.67 0.48-2.84l-1.62-3.24c-0.55-1.11-0.55-2.42 0-3.53l1.62-3.24c0.59-1.17 0.14-2.24-0.48-2.84-0.4-0.39-1-0.71-1.7-0.71z"/>
</svg>
