<?xml version="1.0" encoding="UTF-8"?>
<svg width="24" height="24" viewBox="0 0 24 24" xmlns="http://www.w3.org/2000/svg">
 <path d="m6.1898 22.06c-1 0-1.97-0.39-2.74-1.14-1.25-1.22-1.55-3.02-0.77-4.58l1.62-3.24c0.34-0.68 0.34-1.5 0-2.19l-1.62-3.25c-0.78-1.56-0.48-3.36 0.77-4.58s3.05-1.49 4.6-0.67l11.59 6.1c1.3 0.68 2.11 2.02 2.11 3.49s-0.81 2.81-2.11 3.49l-11.59 6.1c-0.6 0.32-1.23 0.47-1.86 0.47zm0.01-18.62c-0.69 0-1.29 0.32-1.7 0.72-0.62 0.6-1.06 1.67-0.48 2.84l1.62 3.24c0.55 1.11 0.55 2.42 0 3.53l-1.62 3.24c-0.59 1.17-0.14 2.24 0.48 2.84s1.69 1.03 2.85 0.42l11.59-6.1c0.82-0.43 1.31-1.24 1.31-2.16s-0.49-1.73-1.31-2.16l-11.59-6.12c-0.4-0.21-0.79-0.29-1.15-0.29z"/>
</svg>
