<?xml version="1.0" encoding="UTF-8"?>
<svg width="24" height="24" viewBox="0 0 24 24" xmlns="http://www.w3.org/2000/svg">
 <path d="m12 9.75c-0.1 0-0.19-0.02-0.29-0.06-0.28-0.11-0.46-0.39-0.46-0.69v-7c0-0.41 0.34-0.75 0.75-0.75s0.75 0.34 0.75 0.75v5.19l0.72-0.72c0.29-0.29 0.77-0.29 1.06 0s0.29 0.77 0 1.06l-2 2c-0.14 0.14-0.33 0.22-0.53 0.22z"/>
 <path d="m12 9.7499c-0.19 0-0.38-0.07-0.53-0.22l-2-2c-0.29-0.29-0.29-0.77 0-1.06s0.76996-0.29 1.06 0l2 2c0.29 0.29 0.29 0.77 0 1.06-0.15 0.15-0.34 0.22-0.53 0.22z"/>
 <path d="m13.76 17.75h-3.53c-1.05 0-1.99-0.58-2.46-1.52l-1.17-2.34c-0.04-0.09-0.13-0.14-0.22-0.14h-4.4c-0.41 0-0.75-0.34-0.75-0.75s0.34-0.75 0.75-0.75h4.41c0.67 0 1.27 0.37 1.57 0.97l1.17 2.34c0.21 0.43 0.64 0.69 1.12 0.69h3.53c0.48 0 0.91-0.26 1.12-0.69l1.17-2.34c0.3-0.6 0.9-0.97 1.57-0.97h4.36c0.41 0 0.75 0.34 0.75 0.75s-0.34 0.75-0.75 0.75h-4.36c-0.1 0-0.18 0.05-0.22 0.14l-1.17 2.34c-0.5 0.94-1.44 1.52-2.49 1.52z"/>
 <path d="m15 22.75h-6c-5.43 0-7.75-2.32-7.75-7.75v-4c0-4.69 1.74-7.04 5.64-7.61 0.42-0.06 0.79 0.22 0.85 0.63s-0.22 0.79-0.63 0.85c-3.14 0.46-4.36 2.18-4.36 6.13v4c0 4.61 1.64 6.25 6.25 6.25h6c4.61 0 6.25-1.64 6.25-6.25v-4c0-3.95-1.22-5.67-4.36-6.13-0.41-0.06-0.69-0.44-0.63-0.85s0.44-0.69 0.85-0.63c3.9 0.57 5.64 2.92 5.64 7.61v4c0 5.43-2.32 7.75-7.75 7.75z"/>
</svg>
