<?xml version="1.0" encoding="UTF-8"?>
<svg width="24" height="24" viewBox="0 0 24 24" xmlns="http://www.w3.org/2000/svg">
 <path d="m15 22.75h-6c-5.43 0-7.75-2.32-7.75-7.75v-6c0-5.43 2.32-7.75 7.75-7.75h6c5.43 0 7.75 2.32 7.75 7.75v6c0 5.43-2.32 7.75-7.75 7.75zm-6-20c-4.61 0-6.25 1.64-6.25 6.25v6c0 4.61 1.64 6.25 6.25 6.25h6c4.61 0 6.25-1.64 6.25-6.25v-6c0-4.61-1.64-6.25-6.25-6.25h-6z"/>
 <path d="m13.76 17.75h-3.53c-1.1 0-1.97-0.54-2.46-1.52l-0.89-1.79c-0.21-0.43-0.64-0.69-1.12-0.69h-3.77c-0.41 0-0.75-0.34-0.75-0.75s0.35-0.75 0.76-0.75h3.76c1.05 0 1.99 0.58 2.46 1.52l0.89 1.79c0.23 0.46 0.6 0.69 1.12 0.69h3.53c0.48 0 0.91-0.26 1.12-0.69l0.89-1.79c0.47-0.94 1.41-1.52 2.46-1.52h3.74c0.41 0 0.75 0.34 0.75 0.75s-0.34 0.75-0.75 0.75h-3.74c-0.48 0-0.91 0.26-1.12 0.69l-0.89 1.79c-0.47 0.94-1.41 1.52-2.46 1.52z"/>
 <path d="m13.67 7.75h-3.33c-0.42002 0-0.76002-0.34-0.76002-0.75s0.34-0.75 0.75002-0.75h3.33c0.41 0 0.75 0.34 0.75 0.75s-0.33 0.75-0.74 0.75z"/>
 <path d="m14.5 10.75h-5c-0.41 0-0.75-0.34-0.75-0.75s0.34-0.75 0.75-0.75h5c0.41 0 0.75 0.34 0.75 0.75s-0.34 0.75-0.75 0.75z"/>
</svg>
