<?xml version="1.0" encoding="UTF-8"?>
<svg width="24" height="24" viewBox="0 0 24 24" xmlns="http://www.w3.org/2000/svg">
 <path d="m18.12 21.75c-0.6 0-1.21-0.14-1.79-0.43l-3.24-1.62c-0.68-0.34-1.5-0.34-2.19 0l-3.24 1.62c-1.56 0.78-3.36 0.48-4.58-0.77s-1.49-3.05-0.67-4.6l6.1-11.59c0.68-1.3 2.02-2.11 3.49-2.11s2.81 0.81 3.49 2.11l6.1 11.59c0.81 1.55 0.55 3.35-0.67 4.6-0.77 0.79-1.77 1.2-2.8 1.2zm-6.12-3.81c0.61 0 1.21 0.14 1.76 0.41l3.24 1.62c1.17 0.59 2.24 0.14 2.84-0.48s1.03-1.69 0.42-2.85l-6.1-11.59c-0.43-0.81-1.24-1.3-2.16-1.3s-1.73 0.49-2.16 1.31l-6.1 11.59c-0.61 1.16-0.19 2.24 0.42 2.85s1.67 1.06 2.84 0.48l3.24-1.62c0.55-0.28 1.15-0.42 1.76-0.42z"/>
</svg>
