<svg width="24" height="24" viewBox="0 0 24 24"  xmlns="http://www.w3.org/2000/svg">
<path d="M4.91024 22.8198C3.82024 22.8198 2.89024 22.4698 2.21024 21.7898C1.24024 20.8198 0.940238 19.3398 1.37024 17.6198L3.85024 7.68977C4.28024 5.96977 5.96024 4.29977 7.67024 3.86977L17.6002 1.38977C19.3202 0.959769 20.8002 1.25977 21.7702 2.22977C22.7402 3.19977 23.0402 4.67977 22.6102 6.39977L20.1302 16.3298C19.7002 18.0498 18.0202 19.7198 16.3102 20.1498L6.38024 22.6298C5.87024 22.7498 5.38024 22.8198 4.91024 22.8198ZM17.9802 2.82977L8.05024 5.31977C6.88024 5.60977 5.61024 6.87977 5.31024 8.04977L2.83024 17.9798C2.53024 19.1698 2.69024 20.1398 3.27024 20.7298C3.85024 21.3098 4.83024 21.4698 6.02024 21.1698L15.9502 18.6898C17.1202 18.3998 18.3902 17.1198 18.6802 15.9598L21.1602 6.02977C21.4602 4.83977 21.3002 3.86977 20.7202 3.27977C20.1402 2.68977 19.1702 2.53977 17.9802 2.82977Z" />
<path d="M12 16.25C9.66 16.25 7.75 14.34 7.75 12C7.75 9.66 9.66 7.75 12 7.75C14.34 7.75 16.25 9.66 16.25 12C16.25 14.34 14.34 16.25 12 16.25ZM12 9.25C10.48 9.25 9.25 10.48 9.25 12C9.25 13.52 10.48 14.75 12 14.75C13.52 14.75 14.75 13.52 14.75 12C14.75 10.48 13.52 9.25 12 9.25Z" />
</svg>
