<svg width="24" height="24" viewBox="0 0 24 24"  xmlns="http://www.w3.org/2000/svg">
<path d="M18.9308 5.25124C17.6561 4.67209 16.2892 4.24541 14.8599 4.00103C14.8339 3.99631 14.8079 4.0081 14.7945 4.03167C14.6187 4.34127 14.4239 4.74517 14.2876 5.06263C12.7503 4.83476 11.221 4.83476 9.71527 5.06263C9.57887 4.73811 9.37707 4.34127 9.20048 4.03167C9.18707 4.00888 9.16107 3.9971 9.13504 4.00103C7.70659 4.24463 6.33963 4.67131 5.06411 5.25124C5.05307 5.25595 5.04361 5.26382 5.03732 5.27403C2.44449 9.10953 1.73421 12.8508 2.08265 16.5456C2.08423 16.5637 2.09447 16.581 2.10867 16.592C3.81934 17.8359 5.47642 18.591 7.10273 19.0916C7.12876 19.0995 7.15634 19.09 7.1729 19.0688C7.55761 18.5486 7.90054 18.0001 8.19456 17.4233C8.21192 17.3896 8.19535 17.3495 8.15989 17.3361C7.61594 17.1318 7.098 16.8827 6.59978 16.5998C6.56037 16.577 6.55721 16.5212 6.59347 16.4945C6.69831 16.4167 6.80318 16.3358 6.9033 16.2541C6.92141 16.2391 6.94665 16.236 6.96794 16.2454C10.2411 17.7251 13.7846 17.7251 17.0191 16.2454C17.0404 16.2352 17.0657 16.2383 17.0846 16.2533C17.1847 16.335 17.2896 16.4167 17.3952 16.4945C17.4314 16.5212 17.4291 16.577 17.3897 16.5998C16.8914 16.8882 16.3735 17.1318 15.8288 17.3353C15.7933 17.3487 15.7775 17.3896 15.7949 17.4233C16.0952 17.9993 16.4381 18.5478 16.8157 19.068C16.8315 19.09 16.8599 19.0995 16.8859 19.0916C18.5201 18.591 20.1772 17.8359 21.8879 16.592C21.9028 16.581 21.9123 16.5645 21.9139 16.5464C22.3309 12.2747 21.2154 8.56419 18.9568 5.27481C18.9513 5.26382 18.9419 5.25595 18.9308 5.25124ZM8.68335 14.2958C7.69792 14.2958 6.88594 13.4 6.88594 12.2999C6.88594 11.1998 7.68217 10.304 8.68335 10.304C9.69239 10.304 10.4965 11.2076 10.4807 12.2999C10.4807 13.4 9.68451 14.2958 8.68335 14.2958ZM15.329 14.2958C14.3435 14.2958 13.5316 13.4 13.5316 12.2999C13.5316 11.1998 14.3278 10.304 15.329 10.304C16.338 10.304 17.1421 11.2076 17.1264 12.2999C17.1264 13.4 16.338 14.2958 15.329 14.2958Z" />
</svg>
