<?xml version="1.0" encoding="UTF-8"?>
<svg width="24" height="24" viewBox="0 0 24 24" xmlns="http://www.w3.org/2000/svg">
 <path d="m4.9102 22.82c-1.09 0-2.02-0.35-2.7-1.03-0.97-0.97-1.27-2.45-0.84-4.17l2.48-9.93c0.43-1.72 2.11-3.39 3.82-3.82l9.93-2.48c1.72-0.43 3.2-0.13 4.17 0.84s1.27 2.45 0.84 4.17l-2.48 9.93c-0.43 1.72-2.11 3.39-3.82 3.82l-9.93 2.48c-0.51 0.12-1 0.19-1.47 0.19zm13.07-19.99-9.93 2.49c-1.17 0.29-2.44 1.56-2.74 2.73l-2.48 9.93c-0.3 1.19-0.14 2.16 0.44 2.75 0.58 0.58 1.56 0.74 2.75 0.44l9.93-2.48c1.17-0.29 2.44-1.57 2.73-2.73l2.48-9.93c0.3-1.19 0.14-2.16-0.44-2.75s-1.55-0.74-2.74-0.45z"/>
 <path d="m12 16.25c-2.34 0-4.25-1.91-4.25-4.25s1.91-4.25 4.25-4.25 4.25 1.91 4.25 4.25-1.91 4.25-4.25 4.25zm0-7c-1.52 0-2.75 1.23-2.75 2.75s1.23 2.75 2.75 2.75 2.75-1.23 2.75-2.75-1.23-2.75-2.75-2.75z"/>
</svg>
