<?xml version="1.0" encoding="UTF-8"?>
<svg width="24" height="24" viewBox="0 0 24 24" xmlns="http://www.w3.org/2000/svg">
 <path d="m12 22.75c-0.63 0-1.22-0.24-1.66-0.69l-1.52-1.52c-0.12-0.12-0.44001-0.25-0.60001-0.25h-2.16c-1.3 0-2.35-1.0501-2.35-2.3501v-2.1599c0-0.16-0.13-0.48-0.25-0.6l-1.52-1.52c-0.44-0.44-0.69-1.03-0.69-1.66s0.24-1.2201 0.69-1.6601l1.52-1.52c0.12-0.12 0.25-0.43997 0.25-0.59997v-2.1599c0-1.3 1.05-2.3501 2.35-2.3501h2.16c0.16 0 0.48001-0.13 0.60001-0.25l1.52-1.52c0.88-0.88 2.44-0.88 3.32 0l1.52 1.52c0.12 0.12 0.44 0.25 0.6 0.25h2.16c1.3 0 2.35 1.0501 2.35 2.3501v2.1599c0 0.16 0.13 0.47997 0.25 0.59997l1.52 1.52c0.44 0.44 0.69 1.0301 0.69 1.6601s-0.24 1.22-0.69 1.66l-1.52 1.52c-0.12 0.12-0.25 0.44-0.25 0.6v2.1599c0 1.3-1.05 2.3501-2.35 2.3501h-2.16c-0.16 0-0.48 0.13-0.6 0.25l-1.52 1.52c-0.44 0.45-1.03 0.69-1.66 0.69zm-7.48-8.63c0.4 0.4 0.69 1.1 0.69 1.66v2.1599c0 0.47 0.38001 0.8501 0.85001 0.8501h2.16c0.56 0 1.26 0.2899 1.66 0.6899l1.52 1.5201c0.32 0.32 0.88 0.32 1.2 0l1.52-1.5201c0.4-0.4 1.1-0.6899 1.66-0.6899h2.16c0.47 0 0.85-0.3801 0.85-0.8501v-2.1599c0-0.56 0.29-1.26 0.69-1.66l1.52-1.5201c0.16-0.16 0.25-0.3699 0.25-0.5999s-0.09-0.44-0.25-0.6l-1.52-1.52c-0.4-0.4-0.69-1.1-0.69-1.66v-2.1599c0-0.47-0.38-0.85009-0.85-0.85009h-2.16c-0.56 0-1.26-0.28994-1.66-0.68994l-1.52-1.52c-0.32-0.32-0.88-0.32-1.2 0l-1.52 1.52c-0.39999 0.4-1.1 0.68994-1.66 0.68994h-2.16c-0.47 0-0.85001 0.38009-0.85001 0.85009v2.1599c0 0.56-0.29 1.26-0.69 1.66l-1.52 1.52c-0.16 0.16-0.25 0.37-0.25 0.6s0.09 0.4399 0.25 0.5999l1.52 1.5201z"/>
 <path d="m15 16c-0.56 0-1.01-0.45-1.01-1s0.45-1 1-1 1 0.45 1 1-0.44 1-0.99 1z"/>
 <path d="m9.01 10c-0.56 0-1.01-0.45-1.01-1s0.45-1 1-1 1 0.45 1 1-0.43999 1-0.98999 1z"/>
 <path d="m8.9999 15.75c-0.19 0-0.38-0.07-0.53-0.22-0.29-0.29-0.29-0.7701 0-1.0601l6-6c0.29-0.29 0.77-0.29 1.06 0s0.29 0.77006 0 1.0601l-6 6c-0.15 0.15-0.34 0.22-0.53 0.22z"/>
</svg>
