<?xml version="1.0" encoding="UTF-8"?>
<svg width="24" height="24" viewBox="0 0 24 24" xmlns="http://www.w3.org/2000/svg">
 <path d="m12 22.75c-5.93 0-10.75-4.82-10.75-10.75s4.82-10.75 10.75-10.75 10.75 4.82 10.75 10.75-4.82 10.75-10.75 10.75zm0-20c-5.1 0-9.25 4.15-9.25 9.25s4.15 9.25 9.25 9.25 9.25-4.15 9.25-9.25-4.15-9.25-9.25-9.25z"/>
 <path d="m15 16c-0.56 0-1.01-0.45-1.01-1s0.45-1 1-1 1 0.45 1 1-0.44 1-0.99 1z"/>
 <path d="m9.01 10c-0.56 0-1.01-0.45-1.01-1s0.45-1 1-1 1 0.45 1 1-0.43999 1-0.98999 1z"/>
 <path d="m9 15.75c-0.19 0-0.38003-0.07-0.53003-0.22-0.29-0.29-0.29-0.7701 0-1.0601l6-6c0.29-0.29 0.7701-0.29 1.0601 0s0.29 0.77006 0 1.0601l-6 6c-0.15 0.15-0.34003 0.22-0.53003 0.22z"/>
</svg>
