<?xml version="1.0" encoding="UTF-8"?>
<svg width="24" height="24" viewBox="0 0 24 24" xmlns="http://www.w3.org/2000/svg">
 <path d="m12 22.75c-5.93 0-10.75-4.82-10.75-10.75s4.82-10.75 10.75-10.75 10.75 4.82 10.75 10.75-4.82 10.75-10.75 10.75zm0-20c-5.1 0-9.25 4.15-9.25 9.25s4.15 9.25 9.25 9.25 9.25-4.15 9.25-9.25-4.15-9.25-9.25-9.25z"/>
 <path d="m10.5 16.75c-1.79 0-3.25-1.46-3.25-3.25 0-3.45 2.8-6.25 6.25-6.25 1.79 0 3.25 1.46 3.25 3.25 0 3.45-2.8 6.25-6.25 6.25zm3-8c-2.62 0-4.75 2.13-4.75 4.75 0 0.96 0.79 1.75 1.75 1.75 2.62 0 4.75-2.13 4.75-4.75 0-0.96-0.79-1.75-1.75-1.75z"/>
</svg>
