<?xml version="1.0" encoding="UTF-8"?>
<svg width="24" height="24" viewBox="0 0 24 24" xmlns="http://www.w3.org/2000/svg">
 <path d="m10.8 22.1c-0.29 0-0.58-0.05-0.84996-0.15-1.25-0.41-2.05-1.79-1.77-3.07l0.49-3.15c0.01-0.07 0.01-0.17-0.06-0.25-0.05-0.05-0.12-0.08-0.2-0.08h-4c-0.98 0-1.83-0.41-2.33-1.12-0.49-0.69-0.59-1.6-0.27-2.48l2.39-7.28c0.37-1.45 1.92-2.62 3.52-2.62h3.8c0.56 0 1.78 0.17 2.43 0.82l3.03 2.34-0.92 1.19-3.1-2.4c-0.25-0.25-0.88-0.45-1.44-0.45h-3.8c-0.9 0-1.87 0.72-2.07 1.53l-2.42 7.35c-0.16 0.44-0.13 0.84 0.08 1.13 0.22 0.31 0.62 0.49 1.11 0.49h4c0.52 0 1 0.22 1.33 0.6 0.33996 0.39 0.48996 0.91 0.40996 1.45l-0.49996 3.21c-0.12 0.56 0.26 1.19 0.79996 1.37 0.48 0.18 1.12-0.08 1.34-0.4l4.1-6.1 1.24 0.84-4.1 6.1c-0.47 0.7-1.36 1.13-2.24 1.13z"/>
 <path d="m19.62 18.1h-1c-1.85 0-2.75-0.87-2.75-2.65v-9.8c0-1.78 0.9-2.65 2.75-2.65h1c1.85 0 2.75 0.87 2.75 2.65v9.8c0 1.78-0.9 2.65-2.75 2.65zm-1-13.6c-1.09 0-1.25 0.26-1.25 1.15v9.8c0 0.89 0.16 1.15 1.25 1.15h1c1.09 0 1.25-0.26 1.25-1.15v-9.8c0-0.89-0.16-1.15-1.25-1.15h-1z"/>
</svg>
