<svg width="24" height="24" viewBox="0 0 24 24"  xmlns="http://www.w3.org/2000/svg">
<path opacity="0.4" d="M2.35002 13.96C2.74002 14.52 3.43002 14.84 4.22002 14.84H8.32002C8.59002 14.84 8.84002 14.95 9.01002 15.15C9.19002 15.35 9.26002 15.63 9.22002 15.92L8.71002 19.2C8.49002 20.18 9.14002 21.28 10.12 21.61C11.03 21.95 12.1 21.49 12.53 20.84L16.74 14.57L16.86 14.37V5.53003L16.71 5.38003L13.54 2.93003C13.12 2.51003 12.17 2.28003 11.5 2.28003H7.60002C6.26002 2.28003 4.91002 3.29003 4.61002 4.52003L2.15002 12.01C1.90002 12.72 1.97002 13.42 2.35002 13.96Z" />
<path d="M18.7901 17.6099H19.8201C21.3701 17.6099 22.0001 17.0099 22.0001 15.5299V5.4799C22.0001 3.9999 21.3701 3.3999 19.8201 3.3999H18.7901C17.2401 3.3999 16.6101 3.9999 16.6101 5.4799V15.5399C16.6101 17.0099 17.2401 17.6099 18.7901 17.6099Z" />
</svg>
