<svg width="24" height="24" viewBox="0 0 24 24"  xmlns="http://www.w3.org/2000/svg">
<path opacity="0.4" d="M20.5 10.19H17.61C15.24 10.19 13.31 8.26 13.31 5.89V3C13.31 2.45 12.86 2 12.31 2H8.07C4.99 2 2.5 4 2.5 7.57V16.43C2.5 20 4.99 22 8.07 22H15.93C19.01 22 21.5 20 21.5 16.43V11.19C21.5 10.64 21.05 10.19 20.5 10.19Z" />
<path d="M15.7999 2.20999C15.3899 1.79999 14.6799 2.07999 14.6799 2.64999V6.13999C14.6799 7.59999 15.9199 8.80999 17.4299 8.80999C18.3799 8.81999 19.6999 8.81999 20.8299 8.81999C21.3999 8.81999 21.6999 8.14999 21.2999 7.74999C19.8599 6.29999 17.2799 3.68999 15.7999 2.20999Z" />
<path d="M13 14.2499H8.80999L9.52999 13.5299C9.81999 13.2399 9.81999 12.7599 9.52999 12.4699C9.23999 12.1799 8.75999 12.1799 8.46999 12.4699L6.46999 14.4699C6.45999 14.4799 6.45999 14.4899 6.44999 14.4899C6.38999 14.5499 6.33999 14.6299 6.29999 14.7099C6.29999 14.7199 6.29999 14.7199 6.28999 14.7299C6.25999 14.8099 6.24999 14.8899 6.23999 14.9699C6.23999 14.9999 6.23999 15.0199 6.23999 15.0499C6.23999 15.1099 6.25999 15.1699 6.27999 15.2299C6.28999 15.2599 6.29999 15.2799 6.30999 15.2999C6.34999 15.3799 6.38999 15.4599 6.45999 15.5199L8.45999 17.5199C8.60999 17.6699 8.79999 17.7399 8.98999 17.7399C9.17999 17.7399 9.36999 17.6699 9.51999 17.5199C9.80999 17.2299 9.80999 16.7499 9.51999 16.4599L8.79999 15.7399H13C13.41 15.7399 13.75 15.3999 13.75 14.9899C13.75 14.5799 13.41 14.2499 13 14.2499Z" />
</svg>
