<?xml version="1.0" encoding="UTF-8"?>
<svg width="24" height="24" viewBox="0 0 24 24" xmlns="http://www.w3.org/2000/svg">
 <path d="m16 22.75h-8c-3.65 0-5.75-2.1-5.75-5.75v-10c0-3.65 2.1-5.75 5.75-5.75h8c3.65 0 5.75 2.1 5.75 5.75v10c0 3.65-2.1 5.75-5.75 5.75zm-8-20c-2.86 0-4.25 1.39-4.25 4.25v10c0 2.86 1.39 4.25 4.25 4.25h8c2.86 0 4.25-1.39 4.25-4.25v-10c0-2.86-1.39-4.25-4.25-4.25h-8z"/>
 <path d="m18.5 9.25h-2c-1.52 0-2.75-1.23-2.75-2.75v-2c0-0.41 0.34-0.75 0.75-0.75s0.75 0.34 0.75 0.75v2c0 0.69 0.56 1.25 1.25 1.25h2c0.41 0 0.75 0.34 0.75 0.75s-0.34 0.75-0.75 0.75z"/>
 <path d="m10.27 18.72c-0.87995-0.02-2.89-1.09-3.5-3-0.43-1.33 0.07002-3.0899 1.61-3.5899 0.66-0.21 1.34-0.12 1.88 0.22 0.54-0.34 1.23-0.43 1.9-0.22 1.54 0.5 2.04 2.2499 1.63 3.5899-0.62 1.98-2.7501 3-3.5201 3zm-2.0699-3.4599c0.42 1.29 1.85 1.9299 2.11 1.9599 0.27-0.03 1.6699-0.7199 2.0499-1.9599 0.2-0.66-0.0099-1.5-0.6599-1.71-0.26-0.08-0.63-0.04-0.8 0.22-0.13 0.21-0.37 0.34-0.61 0.34-0.29003 0-0.48004-0.11-0.63004-0.32-0.2-0.28-0.56-0.32-0.82-0.24-0.64 0.21-0.84999 1.06-0.63999 1.71z"/>
</svg>
