<?xml version="1.0" encoding="UTF-8"?>
<svg width="24" height="24" viewBox="0 0 24 24" xmlns="http://www.w3.org/2000/svg">
 <path d="m7.08 16.1c-0.36 0-0.71999-0.09-1.05-0.28-0.67-0.38-1.07-1.0601-1.07-1.8201v-3.57c0-0.26-0.17-0.69994-0.38-0.94994l-2.52-2.65c-0.47-0.46-0.81-1.26-0.81-1.87v-1.55c0-1.21 0.91998-2.17 2.1-2.17h8.9c1.16 0 2.1 0.94001 2.1 2.1v1.48c0 0.78-0.45 1.64-0.89 2.08l-2.93 2.59c-0.23 0.19-0.42 0.65007-0.42 0.99007v2.8999c0 0.69-0.41999 1.4601-0.96999 1.7901l-0.92004 0.5999c-0.36 0.22-0.74995 0.3301-1.14 0.3301zm-3.73-13.35c-0.34 0-0.59998 0.29002-0.59998 0.67002v1.55c0 0.17 0.17001 0.6 0.39001 0.82l2.58 2.71c0.38 0.47 0.75 1.24 0.75 1.93v3.57c0 0.3 0.19006 0.4501 0.31006 0.5101 0.16 0.09 0.41995 0.14 0.63995 0l0.93-0.6001c0.12-0.07 0.26001-0.3499 0.26001-0.5199v-2.9001c0-0.78997 0.39-1.66 0.94-2.13l2.88-2.55c0.18-0.18 0.42-0.66999 0.42-0.98999v-1.48c0-0.33-0.27-0.60001-0.6-0.60001h-8.9v0.01001z"/>
 <path d="m15 22.75h-6c-5.43 0-7.75-2.32-7.75-7.75v-3c0-0.41 0.34-0.75 0.75-0.75s0.75 0.34 0.75 0.75v3c0 4.61 1.64 6.25 6.25 6.25h6c4.61 0 6.25-1.64 6.25-6.25v-6c0-2.9-0.68-4.58-2.21-5.45-0.16-0.09-0.69-0.32998-2.21-0.56998-0.41-0.06-0.69-0.45002-0.62-0.86002s0.46-0.68999 0.86-0.61999c1.31 0.21 2.2 0.44999 2.71 0.73999 2.02 1.15 2.97 3.3 2.97 6.76v6c0 5.43-2.32 7.75-7.75 7.75z"/>
 <path d="m18 13.75h-5c-0.41 0-0.75-0.34-0.75-0.75s0.34-0.75 0.75-0.75h5c0.41 0 0.75 0.34 0.75 0.75s-0.34 0.75-0.75 0.75z"/>
 <path d="m18 17.75h-7c-0.41 0-0.75-0.34-0.75-0.75s0.34-0.75 0.75-0.75h7c0.41 0 0.75 0.34 0.75 0.75s-0.34 0.75-0.75 0.75z"/>
</svg>
