<?xml version="1.0" encoding="UTF-8"?>
<svg width="24" height="24" viewBox="0 0 24 24" xmlns="http://www.w3.org/2000/svg">
 <path d="m15 22.75h-6c-5.43 0-7.75-2.32-7.75-7.75v-6c0-5.43 2.32-7.75 7.75-7.75h5c0.41 0 0.75 0.34 0.75 0.75s-0.34 0.75-0.75 0.75h-5c-4.61 0-6.25 1.64-6.25 6.25v6c0 4.61 1.64 6.25 6.25 6.25h6c4.61 0 6.25-1.64 6.25-6.25v-5c0-0.41 0.34-0.75 0.75-0.75s0.75 0.34 0.75 0.75v5c0 5.43-2.32 7.75-7.75 7.75z"/>
 <path d="m22 10.75h-4c-3.42 0-4.75-1.33-4.75-4.75v-4c0-0.3 0.18-0.58 0.46-0.69 0.28-0.12 0.6-0.05 0.82 0.16l8 8c0.21 0.21 0.28 0.54002 0.16 0.82002-0.11 0.28-0.39 0.46-0.69 0.46zm-7.25-6.94v2.19c0 2.58 0.67 3.25 3.25 3.25h2.19l-5.44-5.44z"/>
 <path d="m9.6502 18.71c-0.44 0-0.86-0.17-1.17-0.48l-2.46-2.46c-0.54-0.54-0.63-1.45-0.21-2.09l1.13-1.7c0.28-0.43 0.86-0.74 1.38-0.74h2.65c0.51 0 1.09 0.31 1.38 0.74l1.13 1.69c0.42 0.63 0.33 1.55-0.21 2.09l-2.46 2.46c-0.3 0.32-0.72 0.49-1.16 0.49zm-1.32-5.96c-0.04 0.01-0.12 0.05-0.14 0.08l-1.12 1.69c-0.03 0.04-0.02 0.16 0.02 0.2l2.46 2.46c0.05 0.05 0.17 0.05 0.22 0l2.46-2.46c0.04-0.04 0.05-0.15 0.02-0.2l-1.13-1.69c-0.02-0.02-0.1-0.06-0.14-0.07l-2.65-0.01z"/>
</svg>
