<?xml version="1.0" encoding="UTF-8"?>
<svg width="24" height="24" viewBox="0 0 24 24" xmlns="http://www.w3.org/2000/svg">
 <path d="m15 22.75h-6c-5.43 0-7.75-2.32-7.75-7.75v-6c0-5.43 2.32-7.75 7.75-7.75h5c0.41 0 0.75 0.34 0.75 0.75s-0.34 0.75-0.75 0.75h-5c-4.61 0-6.25 1.64-6.25 6.25v6c0 4.61 1.64 6.25 6.25 6.25h6c4.61 0 6.25-1.64 6.25-6.25v-5c0-0.41 0.34-0.75 0.75-0.75s0.75 0.34 0.75 0.75v5c0 5.43-2.32 7.75-7.75 7.75z"/>
 <path d="m22 10.75h-4c-3.42 0-4.75-1.33-4.75-4.75v-4c0-0.3 0.18-0.58 0.46-0.69 0.28-0.12 0.6-0.05 0.82 0.16l8 8c0.21 0.21 0.28 0.54002 0.16 0.82002s-0.39 0.46-0.69 0.46zm-7.25-6.94v2.19c0 2.58 0.67 3.25 3.25 3.25h2.19l-5.44-5.44z"/>
 <path d="m9.4199 18.95c-0.87 0-2.89-1.06-3.51-3-0.43-1.34 0.07-3.09 1.62-3.59 0.65-0.21 1.34-0.12 1.89 0.22 0.54-0.34 1.24-0.43 1.9-0.22 1.55 0.5 2.05 2.25 1.62 3.59-0.63 1.98-2.75 3-3.52 3zm-2.09-3.45c0.42 1.31 1.84 1.93 2.1 1.95 0.28-0.03 1.68-0.72 2.07-1.95 0.21-0.66 0-1.5-0.65-1.71-0.27-0.09-0.64-0.04-0.81 0.22-0.14003 0.21-0.36003 0.33-0.61003 0.34-0.27 0-0.48-0.11-0.62-0.31-0.21-0.29-0.57-0.33-0.83-0.24-0.64 0.2-0.86 1.04-0.65 1.7z"/>
</svg>
