<svg width="24" height="24" viewBox="0 0 24 24"  xmlns="http://www.w3.org/2000/svg">
<path opacity="0.4" d="M20.5 10.19H17.61C15.24 10.19 13.31 8.26 13.31 5.89V3C13.31 2.45 12.86 2 12.31 2H8.07C4.99 2 2.5 4.00001 2.5 7.57001V16.43C2.5 20 4.99 22 8.07 22H15.93C19.01 22 21.5 20 21.5 16.43V11.19C21.5 10.64 21.05 10.19 20.5 10.19Z" />
<path d="M15.7999 2.21C15.3899 1.8 14.6799 2.07998 14.6799 2.64998V6.13999C14.6799 7.59999 15.9199 8.80999 17.4299 8.80999C18.3799 8.81999 19.6999 8.82 20.8299 8.82C21.3999 8.82 21.6999 8.14999 21.2999 7.74999C19.8599 6.29999 17.2799 3.69 15.7999 2.21Z" />
<path d="M14.7601 19.2598C12.4101 19.4298 12.4101 22.8298 14.7601 22.9998H20.3201C20.9901 22.9998 21.6501 22.7498 22.1401 22.2998C23.7901 20.8598 22.9101 17.9798 20.7401 17.7098C19.9601 13.0198 13.1801 14.7998 14.7801 19.2698" />
</svg>
