<svg width="24" height="24" viewBox="0 0 24 24"  xmlns="http://www.w3.org/2000/svg">
<path opacity="0.4" d="M20.5 10.19H17.61C15.24 10.19 13.31 8.26 13.31 5.89V3C13.31 2.45 12.86 2 12.31 2H8.07C4.99 2 2.5 4 2.5 7.57V16.43C2.5 20 4.99 22 8.07 22H15.93C19.01 22 21.5 20 21.5 16.43V11.19C21.5 10.64 21.05 10.19 20.5 10.19Z" />
<path d="M15.7999 2.20999C15.3899 1.79999 14.6799 2.07999 14.6799 2.64999V6.13999C14.6799 7.59999 15.9199 8.80999 17.4299 8.80999C18.3799 8.81999 19.6999 8.81999 20.8299 8.81999C21.3999 8.81999 21.6999 8.14999 21.2999 7.74999C19.8599 6.29999 17.2799 3.68999 15.7999 2.20999Z" />
</svg>
