<svg width="24" height="24" viewBox="0 0 24 24"  xmlns="http://www.w3.org/2000/svg">
<path opacity="0.4" d="M20.5 10.19H17.61C15.24 10.19 13.31 8.26 13.31 5.89V3C13.31 2.45 12.86 2 12.31 2H8.07C4.99 2 2.5 4 2.5 7.57V16.43C2.5 20 4.99 22 8.07 22H15.93C19.01 22 21.5 20 21.5 16.43V11.19C21.5 10.64 21.05 10.19 20.5 10.19Z" />
<path d="M15.7999 2.20999C15.3899 1.79999 14.6799 2.07999 14.6799 2.64999V6.13999C14.6799 7.59999 15.9199 8.80999 17.4299 8.80999C18.3799 8.81999 19.6999 8.81999 20.8299 8.81999C21.3999 8.81999 21.6999 8.14999 21.2999 7.74999C19.8599 6.29999 17.2799 3.68999 15.7999 2.20999Z" />
<path d="M12.5501 14.0002L11.7001 12.7202C11.4901 12.3902 11.0501 12.1602 10.6601 12.1602H8.64011C8.25011 12.1602 7.82011 12.3902 7.60011 12.7202L6.75011 14.0002C6.42011 14.4802 6.49011 15.1702 6.90011 15.5802L8.76011 17.4402C9.00011 17.6702 9.32011 17.8002 9.65011 17.8002C9.98011 17.8002 10.3001 17.6702 10.5401 17.4402L12.4001 15.5802C12.8001 15.1702 12.8601 14.4802 12.5501 14.0002Z" />
</svg>
