<svg width="24" height="24" viewBox="0 0 24 24"  xmlns="http://www.w3.org/2000/svg">
<path d="M16 22.75H11C10.59 22.75 10.25 22.41 10.25 22C10.25 21.59 10.59 21.25 11 21.25H16C18.86 21.25 20.25 19.86 20.25 17V7C20.25 4.14 18.86 2.75 16 2.75H8C5.14 2.75 3.75 4.14 3.75 7V14C3.75 14.41 3.41 14.75 3 14.75C2.59 14.75 2.25 14.41 2.25 14V7C2.25 3.35 4.35 1.25 8 1.25H16C19.65 1.25 21.75 3.35 21.75 7V17C21.75 20.65 19.65 22.75 16 22.75Z" />
<path d="M18.5 9.25H16.5C14.98 9.25 13.75 8.02 13.75 6.5V4.5C13.75 4.09 14.09 3.75 14.5 3.75C14.91 3.75 15.25 4.09 15.25 4.5V6.5C15.25 7.19 15.81 7.75 16.5 7.75H18.5C18.91 7.75 19.25 8.09 19.25 8.5C19.25 8.91 18.91 9.25 18.5 9.25Z" />
<path d="M3.99994 21.7495C3.80994 21.7495 3.61994 21.6795 3.46994 21.5295L1.46994 19.5295C1.17994 19.2395 1.17994 18.7595 1.46994 18.4695L3.46994 16.4695C3.75994 16.1795 4.23994 16.1795 4.52994 16.4695C4.81994 16.7595 4.81994 17.2395 4.52994 17.5295L3.05994 18.9995L4.52994 20.4695C4.81994 20.7595 4.81994 21.2395 4.52994 21.5295C4.37994 21.6795 4.18994 21.7495 3.99994 21.7495Z" />
<path d="M6.99994 21.7495C6.80994 21.7495 6.61994 21.6795 6.46994 21.5295C6.17994 21.2395 6.17994 20.7595 6.46994 20.4695L7.93994 18.9995L6.46994 17.5295C6.17994 17.2395 6.17994 16.7595 6.46994 16.4695C6.75994 16.1795 7.23994 16.1795 7.52994 16.4695L9.52994 18.4695C9.81994 18.7595 9.81994 19.2395 9.52994 19.5295L7.52994 21.5295C7.37994 21.6795 7.18994 21.7495 6.99994 21.7495Z" />
</svg>
