<?xml version="1.0" encoding="UTF-8"?>
<svg width="24" height="24" viewBox="0 0 24 24" xmlns="http://www.w3.org/2000/svg">
 <path d="m11.4 22.75h-3.8c-4.39 0-6.35-1.96-6.35-6.35v-3.8c0-4.39 1.96-6.35 6.35-6.35h3c0.41 0 0.75 0.34 0.75 0.75s-0.34 0.75-0.75 0.75h-3c-3.58 0-4.85 1.27-4.85 4.85v3.8c0 3.58 1.27 4.85 4.85 4.85h3.8c3.58 0 4.85-1.27 4.85-4.85v-3c0-0.41 0.34-0.75 0.75-0.75s0.75 0.34 0.75 0.75v3c0 4.39-1.96 6.35-6.35 6.35z"/>
 <path d="m17 14.15h-3.2c-2.81 0-3.95-1.14-3.95-3.95v-3.2c0-0.3 0.18-0.58 0.46-0.69 0.28-0.12 0.6-0.05 0.82 0.16l6.4 6.4c0.21 0.21 0.28 0.54 0.16 0.82-0.11 0.28-0.39 0.46-0.69 0.46zm-5.65-5.34v1.39c0 1.99 0.46 2.45 2.45 2.45h1.39l-3.84-3.84z"/>
 <path d="m15.6 2.75h-4c-0.41 0-0.75-0.34-0.75-0.75s0.34-0.75 0.75-0.75h4c0.41 0 0.75 0.34 0.75 0.75s-0.34 0.75-0.75 0.75z"/>
 <path d="m7 5.75c-0.41 0-0.75-0.34-0.75-0.75 0-2.07 1.68-3.75 3.75-3.75h2.62c0.41 0 0.75 0.34 0.75 0.75s-0.34 0.75-0.75 0.75h-2.62c-1.24 0-2.25 1.01-2.25 2.25 0 0.41-0.34 0.75-0.75 0.75z"/>
 <path d="m19.19 17.75c-0.41 0-0.75-0.34-0.75-0.75s0.34-0.75 0.75-0.75c1.14 0 2.06-0.93 2.06-2.06v-6.19c0-0.41 0.34-0.75 0.75-0.75s0.75 0.34 0.75 0.75v6.19c0 1.96-1.6 3.56-3.56 3.56z"/>
 <path d="m22 8.7505h-3c-2.66 0-3.75-1.09-3.75-3.75v-3c0-0.3 0.18-0.58 0.46-0.69 0.28-0.12 0.6-0.05 0.82 0.16l6 6c0.21 0.21 0.28 0.54 0.16 0.82-0.11 0.28-0.39 0.46-0.69 0.46zm-5.25-4.94v1.19c0 1.83 0.42 2.25 2.25 2.25h1.19l-3.44-3.44z"/>
</svg>
