<?xml version="1.0" encoding="UTF-8"?>
<svg width="24" height="24" viewBox="0 0 24 24" xmlns="http://www.w3.org/2000/svg">
 <path d="m9 22.75c-5.43 0-7.75-2.32-7.75-7.75v-6c0-5.43 2.32-7.75 7.75-7.75h5c0.41 0 0.75 0.34 0.75 0.75s-0.34 0.75-0.75 0.75h-5c-4.61 0-6.25 1.64-6.25 6.25v6c0 4.61 1.64 6.25 6.25 6.25 0.41 0 0.75 0.34 0.75 0.75s-0.34 0.75-0.75 0.75z"/>
 <path d="m22 13.75c-0.41 0-0.75-0.34-0.75-0.75v-3c0-0.41 0.34-0.75 0.75-0.75s0.75 0.34 0.75 0.75v3c0 0.41-0.34 0.75-0.75 0.75z"/>
 <path d="m22 10.75h-4c-3.42 0-4.75-1.33-4.75-4.75v-4c0-0.3 0.18-0.58 0.46-0.69 0.28-0.12 0.6-0.05 0.82 0.16l8 8c0.21 0.21 0.28 0.54002 0.16 0.82002s-0.39 0.46-0.69 0.46zm-7.25-6.94v2.19c0 2.58 0.67 3.25 3.25 3.25h2.19l-5.44-5.44z"/>
 <path d="m19.34 22.75h-0.02-5.56c-1.67-0.12-2.51-1.4-2.51-2.62 0-0.98 0.55-2.01 1.61-2.43-0.22-1.25 0.1-2.41 0.93-3.28 1.02-1.07 2.66-1.5 4.08-1.06 1.24 0.38 2.13 1.36 2.5 2.72 1.05 0.32 1.88 1.15 2.22 2.28 0.4 1.31 0.03 2.65-0.96 3.51-0.61 0.56-1.43 0.88-2.29 0.88zm-5.55-3.74c-0.76 0.07-1.04 0.64-1.04 1.12s0.28 1.06 1.06 1.12h5.51c0.51-0.03 0.96-0.18 1.32-0.5 0.65-0.57 0.7-1.38 0.52-1.96s-0.67-1.23-1.51-1.34c-0.33-0.04-0.59-0.29-0.65-0.62-0.22-1.35-0.98-1.85-1.57-2.03-0.87-0.27-1.92 0-2.55 0.67-0.43 0.45-0.85 1.26-0.38 2.55 0.14 0.39-0.06 0.82-0.45 0.96-0.09 0.02-0.18 0.03-0.26 0.03z"/>
</svg>
