<?xml version="1.0" encoding="UTF-8"?>
<svg width="24" height="24" viewBox="0 0 24 24" xmlns="http://www.w3.org/2000/svg">
 <path d="m13.4 17.42h-2.51c-1.64 0-2.97-1.38-2.97-3.08 0-0.41 0.34-0.75 0.75-0.75s0.75 0.34 0.75 0.75c0 0.87 0.66004 1.58 1.47 1.58h2.51c0.65 0 1.19-0.58 1.19-1.28 0-0.87-0.31-1.04-0.82-1.22l-4.03-1.42c-0.78-0.27-1.83-0.85-1.83-2.64 0-1.54 1.21-2.78 2.69-2.78h2.51c1.64 0 2.97 1.38 2.97 3.08 0 0.40998-0.34 0.74998-0.75 0.74998s-0.75-0.34-0.75-0.74998c0-0.87-0.66-1.58-1.47-1.58h-2.51c-0.65004 0-1.19 0.58-1.19 1.28 0 0.86998 0.31 1.04 0.82004 1.22l4.03 1.42c0.78 0.27 1.83 0.85 1.83 2.64-0.01 1.53-1.21 2.78-2.69 2.78z"/>
 <path d="m12 18.75c-0.41 0-0.75-0.34-0.75-0.75v-12c0-0.41 0.34-0.75 0.75-0.75s0.75 0.34 0.75 0.75v12c0 0.41-0.34 0.75-0.75 0.75z"/>
 <path d="m12 22.75c-5.93 0-10.75-4.82-10.75-10.75s4.82-10.75 10.75-10.75 10.75 4.82 10.75 10.75-4.82 10.75-10.75 10.75zm0-20c-5.1 0-9.25 4.15-9.25 9.25s4.15 9.25 9.25 9.25 9.25-4.15 9.25-9.25-4.15-9.25-9.25-9.25z"/>
</svg>
