<?xml version="1.0" encoding="UTF-8"?>
<svg width="24" height="24" viewBox="0 0 24 24" xmlns="http://www.w3.org/2000/svg">
 <path d="m6.87 12.28c-0.42 0-0.85002-0.02-1.27-0.06l-3.17-0.29c-0.41-0.04-0.71999-0.4-0.67999-0.82 0.04-0.41 0.39001-0.72 0.82001-0.68l3.17 0.29c4.9 0.45 9.66-2.03 12.11-6.31 0.21-0.36 0.6601-0.48 1.0201-0.28 0.36 0.21 0.48 0.65999 0.28 1.02-2.52 4.43-7.25 7.13-12.28 7.13z"/>
 <path d="m5.5003 20.121c-0.13 0-0.24999-0.0301-0.36999-0.1001-0.36001-0.21-0.48003-0.6599-0.28003-1.0199 2.74-4.79 8.06-7.57 13.55-7.06l3.17 0.29c0.41 0.04 0.72 0.3999 0.68 0.8199-0.04 0.41-0.39 0.7101-0.82 0.6801l-3.17-0.29c-4.9-0.45-9.66 2.03-12.11 6.31-0.14 0.24-0.39002 0.37-0.65002 0.37z"/>
 <path d="m12 22.75c-5.93 0-10.75-4.82-10.75-10.75s4.82-10.75 10.75-10.75 10.75 4.82 10.75 10.75-4.82 10.75-10.75 10.75zm0-20c-5.1 0-9.25 4.15-9.25 9.25s4.15 9.25 9.25 9.25 9.25-4.15 9.25-9.25-4.15-9.25-9.25-9.25z"/>
 <path d="m16.47 21.7c-0.34 0-0.64-0.23-0.73-0.57l-1.2099-4.99c-0.77-3.16-2.2501-6.17-4.3001-8.71l-3.18-3.95c-0.26-0.32-0.21001-0.79002 0.10999-1.05s0.79005-0.20998 1.05 0.11002l3.18 3.95c2.18 2.71 3.7699 5.92 4.5899 9.29l1.21 4.99c0.1 0.4-0.1499 0.81-0.5499 0.91-0.05 0.01-0.1101 0.02-0.1701 0.02z"/>
</svg>
