<svg width="24" height="24" viewBox="0 0 24 24"  xmlns="http://www.w3.org/2000/svg">
<path d="M6.87005 12.2795C6.45005 12.2795 6.02003 12.2595 5.60003 12.2195L2.43005 11.9295C2.02005 11.8895 1.71006 11.5295 1.75006 11.1095C1.79006 10.6995 2.14007 10.3895 2.57007 10.4295L5.74005 10.7195C10.64 11.1695 15.4 8.68955 17.85 4.40955C18.06 4.04955 18.5101 3.92955 18.8701 4.12955C19.2301 4.33955 19.3501 4.78954 19.1501 5.14954C16.6301 9.57954 11.9001 12.2795 6.87005 12.2795Z" />
<path d="M5.50027 20.1208C5.37027 20.1208 5.25028 20.0907 5.13028 20.0207C4.77027 19.8107 4.65025 19.3608 4.85025 19.0008C7.59025 14.2108 12.9103 11.4308 18.4003 11.9408L21.5703 12.2308C21.9803 12.2708 22.2903 12.6307 22.2503 13.0507C22.2103 13.4607 21.8603 13.7608 21.4303 13.7308L18.2603 13.4408C13.3603 12.9908 8.60029 15.4708 6.15029 19.7508C6.01029 19.9908 5.76027 20.1208 5.50027 20.1208Z" />
<path d="M12 22.75C6.07 22.75 1.25 17.93 1.25 12C1.25 6.07 6.07 1.25 12 1.25C17.93 1.25 22.75 6.07 22.75 12C22.75 17.93 17.93 22.75 12 22.75ZM12 2.75C6.9 2.75 2.75 6.9 2.75 12C2.75 17.1 6.9 21.25 12 21.25C17.1 21.25 21.25 17.1 21.25 12C21.25 6.9 17.1 2.75 12 2.75Z" />
<path d="M16.4699 21.7003C16.1299 21.7003 15.8299 21.4703 15.7399 21.1303L14.53 16.1403C13.76 12.9803 12.2799 9.97029 10.2299 7.43029L7.04993 3.48031C6.78993 3.16031 6.83992 2.69029 7.15992 2.43029C7.47992 2.17029 7.94997 2.22031 8.20997 2.54031L11.39 6.49029C13.57 9.20029 15.1599 12.4103 15.9799 15.7803L17.1899 20.7703C17.2899 21.1703 17.04 21.5803 16.64 21.6803C16.59 21.6903 16.5299 21.7003 16.4699 21.7003Z" />
</svg>
