<svg width="24" height="24" viewBox="0 0 24 24"  xmlns="http://www.w3.org/2000/svg">
<path fill-rule="evenodd" clip-rule="evenodd" d="M15.88 20.9198C15.91 21.0798 15.82 21.2498 15.67 21.3098C14.53 21.7598 13.3 21.9998 12.01 21.9998C9.80998 21.9998 7.75998 21.2898 6.10998 20.0698C5.96998 19.9698 5.92998 19.7698 6.01998 19.6198C6.56998 18.6398 8.71998 15.4898 13.47 13.7298C13.65 13.6598 13.85 13.7498 13.91 13.9298C15.11 17.1198 15.67 19.8198 15.88 20.9198Z" />
<path fill-rule="evenodd" clip-rule="evenodd" d="M21.8199 13.89C21.3599 16.35 19.9799 18.49 18.0499 19.95C17.8399 20.11 17.5399 19.99 17.4899 19.74C17.2799 18.66 16.7699 16.33 15.7899 13.56C15.7199 13.35 15.8599 13.12 16.0799 13.09C18.5699 12.79 20.7499 13.27 21.5699 13.49C21.7399 13.55 21.8499 13.72 21.8199 13.89Z" />
<path opacity="0.4" fill-rule="evenodd" clip-rule="evenodd" d="M21.59 11.8197C20.57 11.6397 17.97 11.2597 15.31 11.5497C15.15 11.5697 15.01 11.4797 14.94 11.3297C14.9 11.2397 14.87 11.1497 14.83 11.0597C14.67 10.6897 14.5 10.3097 14.33 9.93965C14.24 9.75965 14.33 9.53966 14.51 9.45966C17.31 8.24966 18.87 6.68965 19.48 5.98965C19.63 5.81965 19.89 5.82966 20.03 6.00966C21.18 7.53966 21.89 9.40966 22 11.4297C22.01 11.6797 21.81 11.8597 21.59 11.8197Z" />
<path fill-rule="evenodd" clip-rule="evenodd" d="M18.4399 4.79C17.9199 5.42 16.4599 6.92 13.6899 8.02C13.5299 8.09 13.3399 8.02 13.2499 7.86C11.9699 5.54 10.6099 3.59 9.97992 2.71C9.82992 2.49 9.94992 2.2 10.2099 2.15C10.7899 2.05 11.3899 2 12.0099 2C14.4299 2 16.6599 2.86 18.3899 4.3C18.5399 4.42 18.5599 4.64 18.4399 4.79Z" />
<path fill-rule="evenodd" clip-rule="evenodd" d="M11.02 8.84041C7.23001 9.79041 3.88001 9.92041 2.66001 9.94041C2.43001 9.94041 2.26001 9.72041 2.32001 9.50041C3.04001 6.70041 4.96001 4.36041 7.49001 3.07041C7.64001 2.99041 7.83001 3.04041 7.93001 3.18041C8.45001 3.90041 9.86001 5.93041 11.24 8.32041C11.35 8.52041 11.25 8.78041 11.02 8.84041Z" />
<path opacity="0.4" fill-rule="evenodd" clip-rule="evenodd" d="M12.92 11.5998C13.01 11.7898 12.9 12.0198 12.7 12.0898C8.27 13.5198 5.62 17.0698 4.82 18.2898C4.69 18.4898 4.41 18.4998 4.26 18.3198C2.85 16.5998 2 14.6298 2 12.2298V12.0498C2 11.8498 2.16 11.6898 2.36 11.6998C3.62 11.7498 7.73 11.5798 12 10.3498C12.16 10.2998 12.34 10.3798 12.41 10.5298C12.59 10.8898 12.76 11.2398 12.92 11.5998Z" />
</svg>
