<svg width="24" height="24" viewBox="0 0 24 24"  xmlns="http://www.w3.org/2000/svg">
<path d="M6 9C5.59 9 5.25 8.66 5.25 8.25V6.25C5.25 5.84 5.59 5.5 6 5.5C6.41 5.5 6.75 5.84 6.75 6.25V8.25C6.75 8.66 6.41 9 6 9Z" />
<path d="M12 22.75H9C3.57 22.75 1.25 20.43 1.25 15V9C1.25 3.57 3.57 1.25 9 1.25H15C20.43 1.25 22.75 3.57 22.75 9V12C22.75 12.41 22.41 12.75 22 12.75C21.59 12.75 21.25 12.41 21.25 12V9C21.25 4.39 19.61 2.75 15 2.75H9C4.39 2.75 2.75 4.39 2.75 9V15C2.75 19.61 4.39 21.25 9 21.25H12C12.41 21.25 12.75 21.59 12.75 22C12.75 22.41 12.41 22.75 12 22.75Z" />
<path d="M10 9C9.59 9 9.25 8.66 9.25 8.25V6.25C9.25 5.84 9.59 5.5 10 5.5C10.41 5.5 10.75 5.84 10.75 6.25V8.25C10.75 8.66 10.41 9 10 9Z" />
<path d="M6 18.75C5.59 18.75 5.25 18.41 5.25 18V16C5.25 15.59 5.59 15.25 6 15.25C6.41 15.25 6.75 15.59 6.75 16V18C6.75 18.41 6.41 18.75 6 18.75Z" />
<path d="M10 18.75C9.59 18.75 9.25 18.41 9.25 18V16C9.25 15.59 9.59 15.25 10 15.25C10.41 15.25 10.75 15.59 10.75 16V18C10.75 18.41 10.41 18.75 10 18.75Z" />
<path d="M18 8H14C13.59 8 13.25 7.66 13.25 7.25C13.25 6.84 13.59 6.5 14 6.5H18C18.41 6.5 18.75 6.84 18.75 7.25C18.75 7.66 18.41 8 18 8Z" />
<path d="M22 12.75H2C1.59 12.75 1.25 12.41 1.25 12C1.25 11.59 1.59 11.25 2 11.25H22C22.41 11.25 22.75 11.59 22.75 12C22.75 12.41 22.41 12.75 22 12.75Z" />
<path fill-rule="evenodd" clip-rule="evenodd" d="M21.9999 14.5C22.4141 14.5 22.7499 14.8358 22.7499 15.25V17.2463C22.7544 17.5056 22.6241 17.7601 22.3858 17.9031C22.227 17.9984 22.0471 18.028 21.8778 18H19.9999C19.5857 18 19.2499 17.6642 19.2499 17.25C19.2499 16.8358 19.5857 16.5 19.9999 16.5H20.0334C19.6755 16.3284 19.2485 16.21 18.7499 16.21C17.8166 16.21 17.0113 16.7091 16.5811 17.4621C16.3755 17.8217 15.9174 17.9467 15.5578 17.7412C15.1981 17.5357 15.0732 17.0775 15.2787 16.7179C15.9684 15.5108 17.2632 14.71 18.7499 14.71C19.7973 14.71 20.6325 15.0603 21.2499 15.4714V15.25C21.2499 14.8358 21.5857 14.5 21.9999 14.5Z" />
</svg>
