<?xml version="1.0" encoding="UTF-8"?>
<svg width="24" height="24" viewBox="0 0 24 24" xmlns="http://www.w3.org/2000/svg">
 <path d="m19.32 10.75h-14.63c-1.89 0-3.43-1.54-3.43-3.43v-2.63c0-1.89 1.54-3.43 3.43-3.43h14.63c1.89 0 3.43 1.54 3.43 3.43v2.63c0 1.89-1.54 3.43-3.43 3.43zm-14.64-8c-1.07 0-1.93 0.86999-1.93 1.93v2.63c0 1.07 0.86999 1.93 1.93 1.93h14.63c1.07 0 1.93-0.87001 1.93-1.93v-2.63c0-1.07-0.87-1.93-1.93-1.93h-14.63z"/>
 <path d="m19.32 22.75h-14.63c-1.89 0-3.43-1.54-3.43-3.43v-2.63c0-1.89 1.54-3.43 3.43-3.43h14.63c1.89 0 3.43 1.54 3.43 3.43v2.63c0 1.89-1.54 3.43-3.43 3.43zm-14.64-8c-1.07 0-1.93 0.87-1.93 1.93v2.63c0 1.07 0.86999 1.93 1.93 1.93h14.63c1.07 0 1.93-0.87 1.93-1.93v-2.63c0-1.07-0.87-1.93-1.93-1.93h-14.63z"/>
 <path d="m6 7.75c-0.41 0-0.75-0.34-0.75-0.75v-2c0-0.41 0.34-0.75 0.75-0.75s0.75 0.34 0.75 0.75v2c0 0.41-0.34 0.75-0.75 0.75z"/>
 <path d="m10 7.75c-0.41 0-0.75-0.34-0.75-0.75v-2c0-0.41 0.34-0.75 0.75-0.75s0.75 0.34 0.75 0.75v2c0 0.41-0.34 0.75-0.75 0.75z"/>
 <path d="m6 19.75c-0.41 0-0.75-0.34-0.75-0.75v-2c0-0.41 0.34-0.75 0.75-0.75s0.75 0.34 0.75 0.75v2c0 0.41-0.34 0.75-0.75 0.75z"/>
 <path d="m10 19.75c-0.41 0-0.75-0.34-0.75-0.75v-2c0-0.41 0.34-0.75 0.75-0.75s0.75 0.34 0.75 0.75v2c0 0.41-0.34 0.75-0.75 0.75z"/>
 <path d="m18 6.75h-4c-0.41 0-0.75-0.34-0.75-0.75s0.34-0.75 0.75-0.75h4c0.41 0 0.75 0.34 0.75 0.75s-0.34 0.75-0.75 0.75z"/>
 <path d="m18 18.75h-4c-0.41 0-0.75-0.34-0.75-0.75s0.34-0.75 0.75-0.75h4c0.41 0 0.75 0.34 0.75 0.75s-0.34 0.75-0.75 0.75z"/>
</svg>
