<?xml version="1.0" encoding="UTF-8"?>
<svg width="24" height="24" viewBox="0 0 24 24" xmlns="http://www.w3.org/2000/svg">
 <path d="m17.8 8.68h-11.6c-0.23 0-0.44-0.09997-0.58-0.27997s-0.2-0.41-0.15-0.63l0.81999-3.92c0.27-1.29 0.86001-2.6 3.16-2.6h5.1c2.31 0 2.9 1.32 3.16 2.6l0.82 3.92c0.05 0.22-0.01 0.45-0.15 0.63s-0.35 0.27997-0.58 0.27997zm-10.68-1.5h9.75l-0.6299-3.01c-0.2-0.96-0.4301-1.41-1.7001-1.41h-5.1c-1.26 0-1.5 0.44997-1.7 1.41l-0.62001 3.01z"/>
 <path d="m17.77 16.65h-1.36c-1.32 0-1.59-0.82-1.74-1.26l-0.15-0.44c-0.16-0.48-0.1599-0.48-0.6699-0.48h-3.7101c-0.50996 0-0.50995 0.01-0.66995 0.48l-0.15 0.44c-0.15 0.44-0.42 1.26-1.74 1.26h-1.36c-0.63 0-1.24-0.27-1.66-0.73-0.41-0.45-0.62-1.06-0.56-1.67l0.41001-4.41c0.13-1.38 0.57999-2.66 2.96-2.66h9.25c2.38 0 2.83 1.28 2.96 2.66l0.41 4.42c0.06 0.61-0.15 1.22-0.56 1.67-0.42 0.46-1.03 0.72-1.66 0.72zm-1.59-1.51c0.02 0 0.1 0.01 0.23 0.01h1.36c0.21 0 0.4101-0.08 0.5501-0.24 0.13-0.14 0.1899-0.33 0.1799-0.52l-0.41-4.42c-0.08-0.89-0.12-1.3-1.46-1.3h-9.25c-1.34 0-1.38 0.40999-1.46 1.3l-0.41 4.42c-0.02 0.19 0.04001 0.38 0.18001 0.52 0.14 0.15 0.34 0.24 0.55 0.24h1.36c0.2 0 0.25999-0.03 0.26999-0.03-0.01 0 0.02-0.12 0.05-0.2l0.15001-0.44c0.19-0.56 0.5-1.51 2.09-1.51h3.71c1.45 0 1.82 0.71 2.08 1.49l0.1501 0.45c0.02 0.09 0.0499 0.19 0.0799 0.23 0 0-0.01 0 0 0z"/>
 <path d="m6.2002 6.5h-0.73c-0.41 0-0.75-0.34-0.75-0.75s0.34-0.75 0.75-0.75h0.73c0.41 0 0.75 0.34 0.75 0.75s-0.34 0.75-0.75 0.75z"/>
 <path d="m18.53 6.5h-0.73c-0.41 0-0.75-0.34-0.75-0.75s0.34-0.75 0.75-0.75h0.73c0.41 0 0.75 0.34 0.75 0.75s-0.34 0.75-0.75 0.75z"/>
 <path d="m9.8201 11.58h-2.18c-0.41 0-0.75-0.34-0.75-0.75s0.34-0.75 0.75-0.75h2.18c0.40996 0 0.74996 0.34 0.74996 0.75s-0.33 0.75-0.74996 0.75z"/>
 <path d="m16.35 11.58h-2.18c-0.41 0-0.75-0.34-0.75-0.75s0.34-0.75 0.75-0.75h2.18c0.41 0 0.75 0.34 0.75 0.75s-0.34 0.75-0.75 0.75z"/>
 <path d="m12 18.75c-0.41 0-0.75-0.34-0.75-0.75v-1c0-0.41 0.34-0.75 0.75-0.75s0.75 0.34 0.75 0.75v1c0 0.41-0.34 0.75-0.75 0.75z"/>
 <path d="m12 22.75c-0.41 0-0.75-0.34-0.75-0.75v-1c0-0.41 0.34-0.75 0.75-0.75s0.75 0.34 0.75 0.75v1c0 0.41-0.34 0.75-0.75 0.75z"/>
 <path d="m2.0001 22.75c-0.06 0-0.11999-0.01-0.17999-0.02-0.4-0.1-0.65-0.51-0.55-0.91l1-4c0.1-0.4 0.49999-0.65 0.90999-0.55 0.4 0.1 0.65 0.51 0.55 0.91l-1 4c-0.09 0.34-0.39 0.57-0.73 0.57z"/>
 <path d="m22 22.75c-0.34 0-0.64-0.23-0.73-0.57l-1-4c-0.1-0.4 0.14-0.81 0.55-0.91 0.4-0.1 0.81 0.14 0.91 0.55l1 4c0.1 0.4-0.14 0.81-0.55 0.91-0.06 0.01-0.12 0.02-0.18 0.02z"/>
</svg>
