<svg width="24" height="24" viewBox="0 0 24 24"  xmlns="http://www.w3.org/2000/svg">
<path d="M12 18.75C11.59 18.75 11.25 18.41 11.25 18V17C11.25 16.59 11.59 16.25 12 16.25C12.41 16.25 12.75 16.59 12.75 17V18C12.75 18.41 12.41 18.75 12 18.75Z" />
<path d="M12 22.75C11.59 22.75 11.25 22.41 11.25 22V21C11.25 20.59 11.59 20.25 12 20.25C12.41 20.25 12.75 20.59 12.75 21V22C12.75 22.41 12.41 22.75 12 22.75Z" />
<path d="M2.00009 22.7501C1.94009 22.7501 1.8801 22.7401 1.8201 22.7301C1.4201 22.6301 1.1701 22.2201 1.2701 21.8201L2.2701 17.8201C2.3701 17.4201 2.77009 17.1701 3.18009 17.2701C3.58009 17.3701 3.83009 17.7801 3.73009 18.1801L2.73009 22.1801C2.64009 22.5201 2.34009 22.7501 2.00009 22.7501Z" />
<path d="M21.9999 22.7497C21.6599 22.7497 21.3599 22.5197 21.2699 22.1797L20.2699 18.1797C20.1699 17.7797 20.4099 17.3697 20.8199 17.2697C21.2199 17.1697 21.6299 17.4097 21.7299 17.8197L22.7299 21.8197C22.8299 22.2197 22.5899 22.6297 22.1799 22.7297C22.1199 22.7397 22.0599 22.7497 21.9999 22.7497Z" />
<path opacity="0.4" d="M19.26 9.51984C19.15 8.33984 18.84 7.08984 16.55 7.08984H7.44999C5.15999 7.08984 4.85 8.34984 4.74 9.51984L4.33999 13.8598C4.28999 14.3998 4.46999 14.9398 4.83999 15.3498C5.21999 15.7598 5.76 15.9998 6.32 15.9998H7.66C8.81 15.9998 9.02999 15.3398 9.17999 14.8998L9.32 14.4698C9.48 13.9798 9.51999 13.8598 10.17 13.8598H13.82C14.46 13.8598 14.48 13.9298 14.67 14.4698L14.81 14.8998C14.96 15.3398 15.18 15.9998 16.33 15.9998H17.67C18.23 15.9998 18.77 15.7598 19.15 15.3498C19.52 14.9498 19.7 14.3998 19.65 13.8598L19.26 9.51984Z" />
<path d="M18.42 4.94H17.7101C17.7001 4.94 17.7 4.94 17.7 4.94L17.43 3.65002C17.17 2.40002 16.64 1.25 14.51 1.25H12.54H11.47H9.50005C7.37005 1.25 6.84005 2.40002 6.58005 3.65002L6.31004 4.94C6.30004 4.94 6.30005 4.94 6.30005 4.94H5.59004C5.29004 4.94 5.05005 5.17998 5.05005 5.47998C5.05005 5.77998 5.29004 6.02002 5.59004 6.02002H6.10005L5.80005 7.45001C6.19005 7.23001 6.72005 7.09003 7.46005 7.09003H16.56C17.3 7.09003 17.84 7.23001 18.22 7.45001L17.92 6.02002H18.43C18.73 6.02002 18.97 5.77998 18.97 5.47998C18.96 5.17998 18.72 4.94 18.42 4.94Z" />
<path d="M9.85994 11.0097H7.71994C7.41994 11.0097 7.17993 10.7697 7.17993 10.4697C7.17993 10.1697 7.41994 9.92969 7.71994 9.92969H9.85994C10.1599 9.92969 10.3999 10.1697 10.3999 10.4697C10.3899 10.7697 10.1499 11.0097 9.85994 11.0097Z" />
<path d="M16.2801 11.0097H14.1401C13.8401 11.0097 13.6001 10.7697 13.6001 10.4697C13.6001 10.1697 13.8401 9.92969 14.1401 9.92969H16.2801C16.5801 9.92969 16.8201 10.1697 16.8201 10.4697C16.8201 10.7697 16.5801 11.0097 16.2801 11.0097Z" />
</svg>
