<svg width="24" height="24" viewBox="0 0 24 24"  xmlns="http://www.w3.org/2000/svg">
<path opacity="0.4" d="M11.9999 6.0003L6.43985 10.0003L3.18985 7.8003C2.60985 7.4103 2.59986 6.5703 3.16986 6.1603L6.99985 3.4003C7.33985 3.1603 7.79986 3.15029 8.13986 3.38029L11.9999 6.0003Z" />
<path opacity="0.4" d="M20.81 7.80078L17.56 10.0008L12 6.00078L15.86 3.39078C16.21 3.16078 16.66 3.16078 17 3.41078L20.83 6.17078C21.4 6.57078 21.39 7.41078 20.81 7.80078Z" />
<path opacity="0.4" d="M11.9999 14L7.55992 17L4.99992 15.16L3.15992 13.84C2.59992 13.43 2.60991 12.59 3.17991 12.2L6.42991 10L11.9999 14Z" />
<path opacity="0.4" d="M20.81 12.2C21.39 12.59 21.4 13.43 20.83 13.84L19 15.16L16.44 17L12 14L17.56 10L20.81 12.2Z" />
<path d="M19 15.16V18.13C19 18.52 18.77 18.87 18.42 19.04L12.42 21.81C12.15 21.93 11.85 21.93 11.58 21.81L5.57999 19.04C5.22999 18.88 5 18.52 5 18.13V15.16L7.56 17L12 14L16.44 17L19 15.16Z" />
</svg>
