<?xml version="1.0" encoding="UTF-8"?>
<svg width="24" height="24" viewBox="0 0 24 24" xmlns="http://www.w3.org/2000/svg">
 <path d="m6.44 9.7501c-0.15 0-0.29001-0.04-0.42001-0.13l-4.44-3c-0.2-0.14-0.32999-0.36999-0.32999-0.60999 0-0.25 0.11-0.47999 0.31-0.61999l5.56-4c0.26-0.18 0.60001-0.19001 0.86001-0.01001l4.44 3c0.2 0.14 0.33 0.36998 0.33 0.60998 0 0.25-0.11 0.48-0.31 0.62l-5.56 4c-0.13 0.09-0.28 0.14001-0.44 0.14001zm-3.13-3.77 3.12 2.11 4.26-3.07-3.12-2.11-4.26 3.07z"/>
 <path d="m17.56 9.7502c-0.15 0-0.31-0.05001-0.44-0.14001l-5.56-4c-0.2-0.14-0.32-0.38-0.31-0.62 0-0.25 0.13-0.46998 0.33-0.60998l4.44-3c0.26-0.17 0.6-0.16999 0.86 0.01001l5.56 4c0.2 0.14 0.32 0.37999 0.31 0.61999 0 0.25-0.13 0.46999-0.33 0.60999l-4.44 3c-0.13 0.09-0.28 0.13-0.42 0.13zm-4.25-4.73 4.26 3.07 3.12-2.11-4.26-3.07-3.12 2.11z"/>
 <path d="m7.5601 17.75c-0.15 0-0.31-0.05-0.44-0.14l-5.56-4c-0.2-0.14-0.32-0.38-0.31-0.62 0-0.25 0.12999-0.47 0.32999-0.61l4.44-3c0.26-0.17 0.60002-0.16999 0.86002 0.01001l5.56 4c0.2 0.14 0.32 0.38 0.31 0.62 0 0.25-0.13 0.47-0.33 0.61l-4.44 3c-0.13 0.09-0.28001 0.13-0.42001 0.13zm-4.25-4.73 4.26 3.07 3.12-2.11-4.26-3.07-3.12 2.11z"/>
 <path d="m16.44 17.75c-0.15 0-0.29-0.04-0.42-0.13l-4.44-3c-0.2-0.14-0.33-0.37-0.33-0.61 0-0.25 0.11-0.48 0.31-0.62l5.56-4c0.25-0.18 0.6-0.19001 0.86-0.01001l4.44 3c0.2 0.14 0.33 0.37 0.33 0.61 0 0.25-0.11 0.48-0.31 0.62l-5.56 4c-0.13 0.09-0.28 0.14-0.44 0.14zm-3.13-3.77 3.12 2.11 4.26-3.07-3.12-2.11-4.26 3.07z"/>
 <path d="m12 22.65c-0.25 0-0.5-0.05-0.73-0.16l-6.58-3.04c-0.27-0.12-0.44-0.39-0.44-0.68v-3.27c0-0.41 0.34-0.75 0.75-0.75s0.75 0.34 0.75 0.75v2.79l6.15 2.84c0.07 0.03 0.14 0.03 0.21 0l6.15-2.84v-2.79c0-0.41 0.34-0.75 0.75-0.75s0.75 0.34 0.75 0.75v3.27c0 0.29-0.17 0.56-0.44 0.68l-6.58 3.04c-0.24 0.11-0.49 0.16-0.74 0.16z"/>
</svg>
