<?xml version="1.0" encoding="UTF-8"?>
<svg width="24" height="24" viewBox="0 0 24 24" xmlns="http://www.w3.org/2000/svg">
 <path d="m5.54 19.52c-0.61 0-1.18-0.21-1.59-0.6-0.52-0.49-0.77-1.23-0.68-2.03l0.37-3.24c0.07-0.61 0.44-1.42 0.87-1.86l8.21-8.69c2.05-2.17 4.19-2.23 6.36-0.18 2.17 2.05 2.23 4.19 0.18 6.36l-8.21 8.69c-0.42 0.45-1.2 0.87-1.81 0.97l-3.22 0.55c-0.17 0.01-0.32 0.03-0.48 0.03zm10.39-16.61c-0.77 0-1.44 0.48-2.12 1.2l-8.21 8.7c-0.2 0.21-0.43 0.71-0.47 1l-0.37 3.24c-0.04 0.33 0.04 0.6 0.22 0.77s0.45 0.23 0.78 0.18l3.22-0.55c0.29-0.05 0.77-0.31 0.97-0.52l8.21-8.69c1.24-1.32 1.69-2.54-0.12-4.24-0.8-0.77-1.49-1.09-2.11-1.09z"/>
 <path d="m17.34 10.95h-0.07c-3.12-0.31-5.63-2.68-6.11-5.78-0.06-0.41 0.22-0.79 0.63-0.86 0.41-0.06 0.79 0.22 0.86 0.63 0.38 2.42 2.34 4.28 4.78 4.52 0.41 0.04 0.71 0.41 0.67 0.81995-0.05 0.38-0.38 0.67-0.76 0.67z"/>
 <path d="m21 22.75h-18c-0.41 0-0.75-0.34-0.75-0.75s0.34-0.75 0.75-0.75h18c0.41 0 0.75 0.34 0.75 0.75s-0.34 0.75-0.75 0.75z"/>
</svg>
