<?xml version="1.0" encoding="UTF-8"?>
<svg width="24" height="24" viewBox="0 0 24 24" xmlns="http://www.w3.org/2000/svg">
 <path d="m15 22.75h-6c-5.43 0-7.75-2.32-7.75-7.75v-6c0-5.43 2.32-7.75 7.75-7.75h2c0.41 0 0.75 0.34 0.75 0.75s-0.34 0.75-0.75 0.75h-2c-4.61 0-6.25 1.64-6.25 6.25v6c0 4.61 1.64 6.25 6.25 6.25h6c4.61 0 6.25-1.64 6.25-6.25v-2c0-0.41 0.34-0.75 0.75-0.75s0.75 0.34 0.75 0.75v2c0 5.43-2.32 7.75-7.75 7.75z"/>
 <path d="m8.4998 17.69c-0.61 0-1.17-0.22-1.58-0.62-0.49-0.49-0.7-1.2-0.59-1.95l0.43-3.01c0.08-0.58 0.46-1.33 0.87-1.74l7.88-7.88c1.99-1.99 4.01-1.99 6 0 1.09 1.09 1.58 2.2 1.48 3.31-0.09 0.9-0.57 1.78-1.48 2.68l-7.88 7.88c-0.41 0.41-1.16 0.79-1.74 0.87l-3.01 0.43c-0.13 0.03-0.26 0.03-0.38 0.03zm8.07-14.14-7.88 7.88c-0.19 0.19-0.41 0.63-0.45 0.89l-0.43 3.01c-0.04 0.29 0.02 0.53 0.17 0.68s0.39 0.21 0.68 0.17l3.01-0.43c0.26-0.04 0.71-0.26 0.89-0.45l7.88-7.88c0.65-0.65 0.99-1.23 1.04-1.77 0.06-0.65-0.28-1.34-1.04-2.11-1.6-1.6-2.7-1.15-3.87 0.01z"/>
 <path d="m19.85 9.8303c-0.07 0-0.14-0.01-0.2-0.03-2.63-0.74-4.72-2.83-5.46-5.46-0.11-0.4 0.12-0.81 0.52-0.93 0.4-0.11 0.81 0.12 0.92 0.52 0.6 2.13 2.29 3.82 4.42 4.42 0.4 0.11 0.63 0.53 0.52 0.93-0.09 0.34-0.39 0.55-0.72 0.55z"/>
</svg>
