<?xml version="1.0" encoding="UTF-8"?>
<svg width="24" height="24" viewBox="0 0 24 24" xmlns="http://www.w3.org/2000/svg">
 <path d="m12 8.9092c-0.49 0-0.97-0.18001-1.34-0.55001l-2.67-2.67c-0.54-0.54-0.70997-1.35-0.40997-2.07 0.29-0.71 0.98-1.17 1.75-1.17h5.3499c0.77 0 1.46 0.46 1.75 1.17s0.1301 1.52-0.4099 2.07l-2.6701 2.67c-0.38 0.36-0.86 0.55001-1.35 0.55001zm-2.95-4.29 2.67 2.67c0.15 0.15 0.4001 0.15 0.5601 0l2.67-2.67c0.17-0.17 0.12-0.36 0.08-0.43s-0.1301-0.24-0.3601-0.24h-5.35c-0.24 0-0.32999 0.17-0.35999 0.24s-0.08003 0.26 0.08997 0.43z"/>
 <path d="m14.67 21.559h-5.35c-0.77 0-1.46-0.46-1.75-1.17s-0.13002-1.52 0.40998-2.07l2.6701-2.67c0.72-0.72 1.96-0.72 2.68 0l2.6699 2.67c0.54 0.54 0.71 1.36 0.41 2.07-0.28 0.71-0.97 1.17-1.74 1.17zm-5.62-2.18c-0.17 0.17-0.12001 0.36-0.08001 0.43s0.13004 0.24 0.36004 0.24h5.3499c0.24 0 0.33-0.17 0.36-0.24s0.0801-0.26-0.0799-0.43l-2.6701-2.67c-0.15-0.15-0.4-0.15-0.56 0l-2.68 2.67z"/>
 <path d="m5.2301 17.251c-0.06 0-0.12995 0-0.19995-0.01-0.54-0.06-1.01-0.35-1.3-0.81l-2.21-3.48c-0.37-0.58-0.37-1.32 0-1.9l2.21-3.48c0.29-0.45 0.76005-0.75001 1.3-0.81001 0.53-0.06 1.0599 0.13001 1.4399 0.51001l3.48 3.48c0.33003 0.33 0.51993 0.78 0.51993 1.25s-0.1799 0.92-0.51993 1.25l-3.47 3.48c-0.33 0.33-0.78 0.52-1.25 0.52zm-2.44-5.39c-0.06 0.09-0.06 0.2 0 0.29l2.21 3.48c0.06 0.09 0.15001 0.12 0.20001 0.12s0.13997 0 0.21997-0.08l3.48-3.48c0.07-0.07 0.07996-0.15 0.07996-0.19s-0.00996-0.12-0.07996-0.19l-3.48-3.48c-0.08-0.08-0.16997-0.08-0.21997-0.08-0.05 0.01-0.14001 0.03-0.20001 0.12l-2.21 3.49z"/>
 <path d="m18.77 17.251c-0.47 0-0.91-0.18-1.25-0.52l-3.48-3.48c-0.33-0.33-0.52-0.78-0.52-1.25s0.18-0.92 0.52-1.25l3.47-3.48c0.38-0.38 0.91-0.57001 1.44-0.51001 0.54 0.06 1.01 0.35001 1.3 0.81001l2.21 3.48c0.37 0.58 0.37 1.32 0 1.9l-2.21 3.48c-0.29 0.46-0.76 0.75-1.3 0.81-0.05 0-0.12 0.01-0.18 0.01zm0-8.99c-0.05 0-0.12 0.01-0.19 0.08l-3.48 3.48c-0.07 0.07-0.08 0.15-0.08 0.19s0.01 0.12 0.08 0.19l3.48 3.48c0.08 0.08 0.17 0.08 0.22 0.08 0.05-0.01 0.14-0.03 0.2-0.12l2.21-3.48c0.06-0.09 0.06-0.2 0-0.29l-2.21-3.48c-0.06-0.09-0.15-0.11999-0.2-0.11999-0.01-0.01-0.02-0.01001-0.03-0.01001z"/>
</svg>
