<svg width="24" height="24" viewBox="0 0 24 24"  xmlns="http://www.w3.org/2000/svg">
<path d="M12.0002 8.9102C11.5102 8.9102 11.0302 8.7302 10.6602 8.3602L7.99019 5.6902C7.45019 5.1502 7.28022 4.34019 7.58022 3.62019C7.87022 2.91019 8.56022 2.4502 9.33022 2.4502H14.6802C15.4502 2.4502 16.1402 2.91019 16.4302 3.62019C16.7202 4.33019 16.5602 5.1402 16.0202 5.6902L13.3502 8.3602C12.9702 8.7202 12.4902 8.9102 12.0002 8.9102ZM9.05019 4.62019L11.7202 7.29019C11.8702 7.44019 12.1202 7.44019 12.2802 7.29019L14.9502 4.62019C15.1202 4.45019 15.0702 4.2602 15.0302 4.1902C14.9902 4.1202 14.9002 3.9502 14.6702 3.9502H9.32021C9.08021 3.9502 8.99022 4.1202 8.96022 4.1902C8.93022 4.2602 8.88019 4.45019 9.05019 4.62019Z" />
<path d="M14.6702 21.5602H9.32022C8.55022 21.5602 7.86022 21.1002 7.57022 20.3902C7.28022 19.6802 7.44019 18.8702 7.98019 18.3202L10.6502 15.6502C11.3702 14.9302 12.6102 14.9302 13.3302 15.6502L16.0002 18.3202C16.5402 18.8602 16.7102 19.6802 16.4102 20.3902C16.1302 21.1002 15.4402 21.5602 14.6702 21.5602ZM9.0502 19.3802C8.8802 19.5502 8.93018 19.7402 8.97018 19.8102C9.01018 19.8802 9.10023 20.0502 9.33023 20.0502H14.6802C14.9202 20.0502 15.0102 19.8802 15.0402 19.8102C15.0702 19.7402 15.1202 19.5502 14.9602 19.3802L12.2902 16.7102C12.1402 16.5602 11.8902 16.5602 11.7302 16.7102L9.0502 19.3802Z" />
<path d="M5.23014 17.2502C5.17014 17.2502 5.10019 17.2502 5.03019 17.2402C4.49019 17.1802 4.02014 16.8902 3.73014 16.4302L1.52018 12.9502C1.15018 12.3702 1.15018 11.6302 1.52018 11.0502L3.73014 7.5702C4.02014 7.1202 4.49019 6.82019 5.03019 6.76019C5.56019 6.70019 6.09013 6.8902 6.47013 7.2702L9.95017 10.7502C10.2802 11.0802 10.4701 11.5302 10.4701 12.0002C10.4701 12.4702 10.2902 12.9202 9.95017 13.2502L6.48014 16.7302C6.15014 17.0602 5.70014 17.2502 5.23014 17.2502ZM2.79013 11.8602C2.73013 11.9502 2.73013 12.0602 2.79013 12.1502L5.00016 15.6302C5.06016 15.7202 5.15017 15.7502 5.20017 15.7502C5.25017 15.7502 5.34014 15.7502 5.42014 15.6702L8.90018 12.1902C8.97018 12.1202 8.98014 12.0402 8.98014 12.0002C8.98014 11.9602 8.97018 11.8802 8.90018 11.8102L5.42014 8.3302C5.34014 8.2502 5.25017 8.25019 5.20017 8.25019C5.15017 8.26019 5.06016 8.28019 5.00016 8.37019L2.79013 11.8602Z" />
<path d="M18.7702 17.2502C18.3002 17.2502 17.8602 17.0702 17.5202 16.7302L14.0402 13.2502C13.7102 12.9202 13.5202 12.4702 13.5202 12.0002C13.5202 11.5302 13.7002 11.0802 14.0402 10.7502L17.5102 7.2702C17.8902 6.8902 18.4202 6.70019 18.9502 6.76019C19.4902 6.82019 19.9602 7.1102 20.2502 7.5702L22.4602 11.0502C22.8302 11.6302 22.8302 12.3702 22.4602 12.9502L20.2502 16.4302C19.9602 16.8902 19.4902 17.1802 18.9502 17.2402C18.9002 17.2402 18.8302 17.2502 18.7702 17.2502ZM18.7702 8.26019C18.7202 8.26019 18.6502 8.27019 18.5802 8.34019L15.1002 11.8202C15.0302 11.8902 15.0202 11.9702 15.0202 12.0102C15.0202 12.0502 15.0302 12.1302 15.1002 12.2002L18.5802 15.6802C18.6602 15.7602 18.7502 15.7602 18.8002 15.7602C18.8502 15.7502 18.9402 15.7302 19.0002 15.6402L21.2102 12.1602C21.2702 12.0702 21.2702 11.9602 21.2102 11.8702L19.0002 8.39019C18.9402 8.30019 18.8502 8.2702 18.8002 8.2702C18.7902 8.2602 18.7802 8.26019 18.7702 8.26019Z" />
</svg>
