<?xml version="1.0" encoding="UTF-8"?>
<svg width="24" height="24" viewBox="0 0 24 24" xmlns="http://www.w3.org/2000/svg">
 <path d="m13.5 16.75h-3c-2.75 0-4.75-2-4.75-4.75v-5.08c0-1.47 1.2-2.67 2.67-2.67h7.17c1.47 0 2.67 1.2 2.67 2.67v5.08c-0.01 2.75-2.01 4.75-4.76 4.75zm-5.08-11c-0.64 0-1.17 0.52-1.17 1.17v5.08c0 1.62 1 3.25 3.25 3.25h3c2.25 0 3.25-1.63 3.25-3.25v-5.08c0-0.64-0.52-1.17-1.17-1.17h-7.16z"/>
 <path d="m9.5 5.75c-0.41 0-0.75-0.34-0.75-0.75v-3c0-0.41 0.34-0.75 0.75-0.75s0.75 0.34 0.75 0.75v3c0 0.41-0.34 0.75-0.75 0.75z"/>
 <path d="m14.5 5.75c-0.41 0-0.75-0.34-0.75-0.75v-3c0-0.41 0.34-0.75 0.75-0.75s0.75 0.34 0.75 0.75v3c0 0.41-0.34 0.75-0.75 0.75z"/>
 <path d="m12 22.75c-0.41 0-0.75-0.34-0.75-0.75v-6c0-0.41 0.34-0.75 0.75-0.75s0.75 0.34 0.75 0.75v6c0 0.41-0.34 0.75-0.75 0.75z"/>
</svg>
