<?xml version="1.0" encoding="UTF-8"?>
<svg width="24" height="24" viewBox="0 0 24 24" xmlns="http://www.w3.org/2000/svg">
 <path d="m19.77 13.75h-4.04c-2.01 0-2.98-0.93-2.98-2.85v-6.8c0-1.92 0.98-2.85 2.98-2.85h4.04c2.01 0 2.98 0.93 2.98 2.85v6.8c0 1.92-0.98 2.85-2.98 2.85zm-4.04-11c-1.27 0-1.48 0.34-1.48 1.35v6.8c0 1.01 0.21 1.35 1.48 1.35h4.04c1.27 0 1.48-0.34 1.48-1.35v-6.8c0-1.01-0.21-1.35-1.48-1.35h-4.04z"/>
 <path d="m19.77 22.75h-4.04c-2.01 0-2.98-0.93-2.98-2.85v-1.8c0-1.92 0.98-2.85 2.98-2.85h4.04c2.01 0 2.98 0.93 2.98 2.85v1.8c0 1.92-0.98 2.85-2.98 2.85zm-4.04-6c-1.27 0-1.48 0.34-1.48 1.35v1.8c0 1.01 0.21 1.35 1.48 1.35h4.04c1.27 0 1.48-0.34 1.48-1.35v-1.8c0-1.01-0.21-1.35-1.48-1.35h-4.04z"/>
 <path d="m8.27 22.75h-4.04c-2.01 0-2.98-0.93-2.98-2.85v-6.8c0-1.92 0.98-2.85 2.98-2.85h4.04c2.01 0 2.98 0.93 2.98 2.85v6.8c0 1.92-0.98 2.85-2.98 2.85zm-4.04-11c-1.27 0-1.48 0.34-1.48 1.35v6.8c0 1.01 0.21 1.35 1.48 1.35h4.04c1.27 0 1.48-0.34 1.48-1.35v-6.8c0-1.01-0.21-1.35-1.48-1.35h-4.04z"/>
 <path d="m8.27 8.75h-4.04c-2.01 0-2.98-0.93-2.98-2.85v-1.8c0-1.92 0.98-2.85 2.98-2.85h4.04c2.01 0 2.98 0.93 2.98 2.85v1.8c0 1.92-0.98 2.85-2.98 2.85zm-4.04-6c-1.27 0-1.48 0.34-1.48 1.35v1.8c0 1.01 0.21 1.35 1.48 1.35h4.04c1.27 0 1.48-0.34 1.48-1.35v-1.8c0-1.01-0.21-1.35-1.48-1.35h-4.04z"/>
</svg>
