<?xml version="1.0" encoding="UTF-8"?>
<svg width="24" height="24" viewBox="0 0 24 24" xmlns="http://www.w3.org/2000/svg">
 <path d="m15 22.75h-6c-5.43 0-7.75-2.32-7.75-7.75v-6c0-5.43 2.32-7.75 7.75-7.75h6c5.43 0 7.75 2.32 7.75 7.75v6c0 5.43-2.32 7.75-7.75 7.75zm-6-20c-4.61 0-6.25 1.64-6.25 6.25v6c0 4.61 1.64 6.25 6.25 6.25h6c4.61 0 6.25-1.64 6.25-6.25v-6c0-4.61-1.64-6.25-6.25-6.25h-6z"/>
 <path d="m8.8199 9.7504c-0.85 0-1.7-0.32-2.35-0.97-0.29-0.29-0.29-0.77 0-1.06s0.77-0.29 1.06 0c0.71 0.71 1.87 0.71 2.58 0 0.29-0.29 0.77-0.29 1.06 0s0.29 0.77 0 1.06c-0.65 0.64-1.5 0.97-2.35 0.97z"/>
 <path d="m15.18 9.7504c-0.85 0-1.7-0.32-2.35-0.97-0.29-0.29-0.29-0.77 0-1.06s0.77-0.29 1.06 0c0.71 0.71 1.87 0.71 2.58 0 0.29-0.29 0.77-0.29 1.06 0s0.29 0.77 0 1.06c-0.65 0.64-1.5 0.97-2.35 0.97z"/>
 <path d="m12 19.15c-2.9 0-5.25-2.36-5.25-5.25 0-0.91 0.74-1.65 1.65-1.65h7.2c0.91 0 1.65 0.74 1.65 1.65 0 2.89-2.35 5.25-5.25 5.25zm-3.6-5.4c-0.08 0-0.15 0.07-0.15 0.15 0 2.07 1.68 3.75 3.75 3.75s3.75-1.68 3.75-3.75c0-0.08-0.07-0.15-0.15-0.15h-7.2z"/>
</svg>
