<?xml version="1.0" encoding="UTF-8"?>
<svg width="24" height="24" viewBox="0 0 24 24" xmlns="http://www.w3.org/2000/svg">
 <path d="m15 22.75h-6c-5.43 0-7.75-2.32-7.75-7.75v-6c0-5.43 2.32-7.75 7.75-7.75h6c5.43 0 7.75 2.32 7.75 7.75v6c0 5.43-2.32 7.75-7.75 7.75zm-6-20c-4.61 0-6.25 1.64-6.25 6.25v6c0 4.61 1.64 6.25 6.25 6.25h6c4.61 0 6.25-1.64 6.25-6.25v-6c0-4.61-1.64-6.25-6.25-6.25h-6z"/>
 <path d="m10.64 9.5004c-0.19 0-0.38-0.07-0.53-0.22-0.70996-0.71-1.87-0.71-2.58 0-0.29 0.29-0.77 0.29-1.06 0s-0.29-0.77 0-1.06c1.29-1.29 3.4-1.29 4.7 0 0.29 0.29 0.29 0.77 0 1.06-0.15 0.15-0.34 0.22-0.53 0.22z"/>
 <path d="m13.36 9.5004c-0.19 0-0.38-0.07-0.53-0.22-0.29-0.29-0.29-0.77 0-1.06 1.29-1.29 3.4-1.29 4.7 0 0.29 0.29 0.29 0.77 0 1.06s-0.77 0.29-1.06 0c-0.71-0.71-1.87-0.71-2.58 0-0.14 0.15-0.33 0.22-0.53 0.22z"/>
 <path d="m15.6 18.45h-7.2c-0.91 0-1.65-0.74-1.65-1.65 0-2.89 2.35-5.25 5.25-5.25s5.25 2.36 5.25 5.25c0 0.91-0.74 1.65-1.65 1.65zm-3.6-5.4c-2.07 0-3.75 1.68-3.75 3.75 0 0.08 0.07 0.15 0.15 0.15h7.2c0.08 0 0.15-0.07 0.15-0.15 0-2.07-1.68-3.75-3.75-3.75z"/>
</svg>
