<svg width="24" height="24" viewBox="0 0 24 24"  xmlns="http://www.w3.org/2000/svg">
<path opacity="0.4" d="M19.6003 12.6049H21.5664V11.2033C21.5664 9.18843 19.9215 7.54346 17.9066 7.54346H6.73256C4.71772 7.54346 3.07275 9.18843 3.07275 11.2033V15.4568C3.74437 14.9215 4.59118 14.6003 5.50613 14.6003C7.65724 14.6003 9.39954 16.3425 9.39954 18.4937C9.39954 19.2237 9.19513 19.9147 8.83499 20.4988C8.63059 20.8492 8.36778 21.1606 8.06604 21.4137H17.9066C19.9215 21.4137 21.5664 19.7687 21.5664 17.7539V16.5956H19.7171C18.6658 16.5956 17.7022 15.8267 17.6146 14.7754C17.5562 14.1622 17.7898 13.588 18.1986 13.1889C18.5588 12.819 19.0552 12.6049 19.6003 12.6049Z" />
<path d="M15.0936 3.84478V7.5435H6.73256C4.71772 7.5435 3.07275 9.18847 3.07275 11.2033V7.63113C3.07275 6.47284 3.7833 5.44105 4.86372 5.03224L12.5921 2.11219C13.7991 1.66445 15.0936 2.55022 15.0936 3.84478Z" />
<path d="M22.5989 13.5978V15.6029C22.5989 16.1383 22.1706 16.5762 21.6255 16.5957H19.7178C18.6665 16.5957 17.7029 15.8268 17.6153 14.7755C17.5569 14.1623 17.7905 13.588 18.1993 13.189C18.5595 12.8191 19.0559 12.605 19.601 12.605H21.6255C22.1706 12.6244 22.5989 13.0624 22.5989 13.5978Z" />
<path d="M14.2664 12.4102H7.45291C7.05384 12.4102 6.7229 12.0793 6.7229 11.6802C6.7229 11.2811 7.05384 10.9502 7.45291 10.9502H14.2664C14.6654 10.9502 14.9964 11.2811 14.9964 11.6802C14.9964 12.0793 14.6654 12.4102 14.2664 12.4102Z" />
<path d="M8.25916 15.7408C7.61219 15.0939 6.78627 14.7222 5.93282 14.6259C4.79719 14.4951 3.62026 14.8736 2.75305 15.7408C2.23685 16.257 1.89273 16.8902 1.73443 17.5579C1.41094 18.8311 1.74819 20.2421 2.75305 21.2469C3.4482 21.9421 4.33605 22.3206 5.25144 22.3688C5.64375 22.4032 6.04983 22.3688 6.44214 22.2656C7.10976 22.1073 7.74296 21.7631 8.25916 21.2469C9.78022 19.7259 9.78022 17.2619 8.25916 15.7408ZM4.79029 17.0348C4.79029 16.6356 5.12066 16.3052 5.51985 16.3052C5.92593 16.3121 6.24941 16.6356 6.25629 17.0417L6.24943 17.7643L6.94459 17.7574C7.35066 17.7643 7.67414 18.0878 7.68103 18.4939C7.67414 18.9 7.35066 19.2235 6.94458 19.2303L6.24943 19.2234L6.2563 19.9461C6.24942 20.3522 5.92593 20.6757 5.51986 20.6826C5.32026 20.6757 5.14134 20.5931 5.01057 20.4623C4.8798 20.3315 4.79718 20.1526 4.7903 19.953L4.79032 19.2234L4.03324 19.2234C3.82676 19.2234 3.64779 19.1409 3.51702 19.0101C3.38625 18.8793 3.30368 18.7004 3.30368 18.4939C3.30368 18.0947 3.63404 17.7643 4.03324 17.7643L4.79031 17.7643L4.79029 17.0348Z" />
</svg>
