<?xml version="1.0" encoding="UTF-8"?>
<svg width="24" height="24" viewBox="0 0 24 24" xmlns="http://www.w3.org/2000/svg">
 <path d="m17.74 22.75h-10.11c-0.32 0-0.6-0.2-0.71-0.49-0.11-0.3-0.02-0.63 0.22-0.83s0.46-0.46 0.62-0.74c0.32-0.51 0.48-1.09 0.48-1.68 0-1.79-1.46-3.25-3.25-3.25-0.74 0-1.44 0.25-2.03 0.72-0.23 0.18-0.53 0.21-0.79 0.09s-0.42-0.39-0.42-0.68v-4.37c0-2.49 2.02-4.51 4.51-4.51h11.48c2.49 0 4.51 2.02 4.51 4.51v1.44c0 0.41-0.34 0.75-0.75 0.75h-2.02c-0.35 0-0.67 0.13-0.9 0.37l-0.01 0.01c-0.28 0.27-0.41 0.64-0.38 1.02 0.06 0.66 0.69 1.19 1.41 1.19h1.9c0.41 0 0.75 0.34 0.75 0.75v1.19c0 2.49-2.02 4.51-4.51 4.51zm-8.56-1.5h8.56c1.66 0 3.01-1.35 3.01-3.01v-0.44h-1.15c-1.51 0-2.79-1.12-2.91-2.56-0.08-0.82 0.22-1.63 0.82-2.22 0.52-0.53 1.22-0.82 1.97-0.82h1.27v-0.69c0-1.66-1.35-3.01-3.01-3.01h-11.48c-1.66 0-3.01 1.35-3.01 3.01v3.08c0.56-0.22 1.15-0.34 1.75-0.34 2.62 0 4.75 2.13 4.75 4.75 0 0.79-0.2 1.57-0.57 2.25z"/>
 <path d="m2.5 13.16c-0.41 0-0.75-0.34-0.75-0.75v-4.5699c0-1.49 0.94-2.84 2.33-3.37l7.94-3c0.82-0.31 1.73-0.19996 2.44 0.30004 0.72 0.5 1.14 1.31 1.14 2.18v3.8c0 0.41-0.34 0.75-0.75 0.75s-0.75-0.34-0.75-0.75v-3.8c0-0.38-0.18-0.73002-0.5-0.95002s-0.7-0.27-1.06-0.13l-7.94 3c-0.81 0.31-1.36 1.1-1.36 1.97v4.5699c0.01 0.42-0.33 0.75-0.74 0.75z"/>
 <path d="m19.6 17.8c-1.51 0-2.79-1.12-2.91-2.56-0.08-0.83 0.22-1.64 0.82-2.23 0.51-0.52 1.21-0.8099 1.96-0.8099h2.08c0.99 0.03 1.75 0.8099 1.75 1.7699v2.0601c0 0.96-0.76 1.7399-1.72 1.7699h-1.98zm1.93-4.0999h-2.05c-0.35 0-0.67 0.1299-0.9 0.3699-0.29 0.28-0.43 0.66-0.39 1.04 0.06 0.66 0.69 1.19 1.41 1.19h1.96c0.13 0 0.25-0.1199 0.25-0.2699v-2.0601c0-0.15-0.12-0.2599-0.28-0.2699z"/>
 <path d="m14 12.75h-7c-0.41 0-0.75-0.34-0.75-0.75s0.34-0.75 0.75-0.75h7c0.41 0 0.75 0.34 0.75 0.75s-0.34 0.75-0.75 0.75z"/>
 <path d="m5 23.75c-1.66 0-3.22-0.88-4.06-2.31-0.45-0.72-0.69-1.57-0.69-2.44 0-1.46 0.65-2.81 1.78-3.71 0.84-0.67 1.9-1.04 2.97-1.04 2.62 0 4.75 2.13 4.75 4.75 0 0.87-0.24 1.72-0.69 2.45-0.24 0.42-0.57 0.8-0.95 1.12-0.83 0.76-1.94 1.18-3.11 1.18zm0-8c-0.74 0-1.44 0.25-2.03 0.72-0.77 0.61-1.22 1.54-1.22 2.53 0 0.59 0.16 1.17 0.47 1.67 0.59 1 1.63 1.58 2.78 1.58 0.79 0 1.55-0.29 2.13-0.81 0.26-0.22 0.48-0.48 0.64-0.76 0.32-0.51 0.48-1.09 0.48-1.68 0-1.79-1.46-3.25-3.25-3.25z"/>
 <path d="m6.0699 20.79c-0.19 0-0.38-0.0699-0.53-0.2199l-2.11-2.11c-0.29-0.29-0.29-0.77 0-1.06s0.77-0.29 1.06 0l2.11 2.11c0.29 0.29 0.29 0.77 0 1.06-0.15 0.15-0.34 0.2199-0.53 0.2199z"/>
 <path d="m3.9301 20.82c-0.19 0-0.38-0.07-0.53-0.22-0.29-0.29-0.29-0.77 0-1.06l2.11-2.11c0.29-0.29 0.77001-0.29 1.06 0s0.29 0.77 0 1.06l-2.11 2.11c-0.15 0.15-0.33999 0.22-0.52999 0.22z"/>
</svg>
