<?xml version="1.0" encoding="UTF-8"?>
<svg width="24" height="24" viewBox="0 0 24 24" xmlns="http://www.w3.org/2000/svg">
 <path d="m17.74 22.75h-5.48c-0.41 0-0.75-0.34-0.75-0.75s0.34-0.75 0.75-0.75h5.48c1.66 0 3.01-1.35 3.01-3.01v-0.44h-1.15c-1.51 0-2.79-1.12-2.91-2.56-0.08-0.83 0.22-1.64 0.82-2.23 0.51-0.52 1.21-0.81 1.96-0.81h1.27v-0.69c0-1.66-1.35-3.01-3.01-3.01h-11.48c-1.66 0-3.01 1.35-3.01 3.01v1.73c0 0.41-0.34 0.75-0.75 0.75s-0.75-0.34-0.75-0.75v-1.73c0-2.49 2.02-4.51 4.51-4.51h11.48c2.49 0 4.51 2.02 4.51 4.51v1.44c0 0.41-0.34 0.75-0.75 0.75h-2.02c-0.35 0-0.67 0.13-0.9 0.37-0.29 0.28-0.43 0.66-0.39 1.04 0.06 0.66 0.69 1.19 1.41 1.19h1.9c0.41 0 0.75 0.34 0.75 0.75v1.19c0.01 2.49-2.01 4.51-4.5 4.51z"/>
 <path d="m2.5 13.16c-0.41 0-0.75-0.34-0.75-0.75v-4.5699c0-1.49 0.94-2.84 2.33-3.37l7.94-3c0.82-0.31 1.73-0.19996 2.44 0.30004 0.72 0.5 1.14 1.31 1.14 2.18v3.8c0 0.41-0.34 0.75-0.75 0.75s-0.75-0.34-0.75-0.75v-3.8c0-0.38-0.18-0.73002-0.5-0.95002s-0.7-0.27-1.06-0.13l-7.94 3c-0.81 0.31-1.36 1.1-1.36 1.97v4.5699c0.01 0.42-0.33001 0.75-0.74001 0.75z"/>
 <path d="m19.6 17.8c-1.51 0-2.79-1.12-2.91-2.56-0.08-0.83 0.22-1.64 0.82-2.23 0.51-0.52 1.21-0.8099 1.96-0.8099h2.08c0.99 0.03 1.75 0.8099 1.75 1.7699v2.0601c0 0.96-0.76 1.7399-1.72 1.7699h-1.98zm1.93-4.0999h-2.05c-0.35 0-0.67 0.1299-0.9 0.3699-0.29 0.28-0.43 0.66-0.39 1.04 0.06 0.66 0.69 1.19 1.41 1.19h1.96c0.13 0 0.25-0.1199 0.25-0.2699v-2.0601c0-0.15-0.12-0.2599-0.28-0.2699z"/>
 <path d="m14 12.75h-7c-0.41 0-0.75-0.34-0.75-0.75s0.34-0.75 0.75-0.75h7c0.41 0 0.75 0.34 0.75 0.75s-0.34 0.75-0.75 0.75z"/>
 <path d="m9.5 19.69c-0.41 0-0.75-0.34-0.75-0.75v-1.28c0-0.22-0.18-0.41-0.41-0.41h-5.34c-0.41 0-0.75-0.34-0.75-0.75s0.34-0.75 0.75-0.75h5.34c1.05 0 1.91 0.86 1.91 1.91v1.28c0 0.41-0.34 0.75-0.75 0.75z"/>
 <path d="m4.2199 18.47c-0.19 0-0.38-0.0699-0.53-0.2199l-1.22-1.22c-0.29-0.29-0.29-0.7701 0-1.0601l1.22-1.2199c0.29-0.29 0.77-0.29 1.06 0s0.29 0.77 0 1.06l-0.69 0.69 0.69 0.69c0.29 0.29 0.29 0.77 0 1.06-0.15 0.15-0.34 0.2199-0.53 0.2199z"/>
 <path d="m9.5 22.53h-5.34c-1.05 0-1.91-0.86-1.91-1.91v-1.28c0-0.41 0.34-0.75 0.75-0.75s0.75 0.34 0.75 0.75v1.28c0 0.22 0.18 0.41 0.41 0.41h5.34c0.41 0 0.75 0.34 0.75 0.75s-0.34 0.75-0.75 0.75z"/>
 <path d="m8.2802 23.75c-0.19 0-0.38-0.07-0.53-0.22-0.29-0.29-0.29-0.7701 0-1.0601l0.69001-0.6899-0.69001-0.69c-0.29-0.29-0.29-0.77 0-1.06s0.77-0.29 1.06 0l1.22 1.22c0.29 0.29 0.29 0.77 0 1.06l-1.22 1.22c-0.14 0.15-0.34 0.22-0.53 0.22z"/>
</svg>
