<?xml version="1.0" encoding="UTF-8"?>
<svg width="24" height="24" viewBox="0 0 24 24" xmlns="http://www.w3.org/2000/svg">
 <path d="m12 22.5c-0.4 0-0.8-0.09-1.12-0.27l-5.32-3.04c-0.8-0.46-1.27-1.49-1.09-2.4l1.71-8.57c0.07-0.33 0.26001-0.74 0.48001-1l3.6-4.32c0.89-1.07 2.57-1.07 3.46 0l3.6 4.32c0.22 0.26 0.41 0.67 0.48 1l1.71 8.57c0.18 0.91-0.29 1.94-1.09 2.39l-5.32 3.04c-0.3 0.19-0.7 0.28-1.1 0.28zm0-18.94c-0.21 0-0.41 0.11-0.58 0.3l-3.6 4.32c-0.05 0.06-0.14001 0.25-0.16001 0.33l-1.71 8.57c-0.05 0.27 0.12999 0.66 0.35999 0.8l5.32 3.04c0.18 0.1 0.57 0.1 0.74 0l5.32-3.04c0.24-0.14 0.42-0.53 0.36-0.8l-1.71-8.57c-0.02-0.08-0.11-0.27-0.16-0.33l-3.6-4.32c-0.17-0.19-0.37-0.3-0.58-0.3z"/>
 <path d="m12 21.761c-0.54 0-1-0.33-1.18-0.83l-4.35-12.18c-0.14-0.39 0.06002-0.82 0.45002-0.96s0.81999 0.06 0.95999 0.45l4.12 11.53 4.11-11.5c0.14-0.39 0.57-0.59 0.96-0.45s0.59 0.57 0.45 0.96l-4.34 12.16c-0.18 0.5-0.64 0.82-1.18 0.82z"/>
</svg>
