<?xml version="1.0" encoding="UTF-8"?>
<svg width="24" height="24" viewBox="0 0 24 24" xmlns="http://www.w3.org/2000/svg">
 <path d="m21 22.75h-12c-0.41 0-0.75-0.34-0.75-0.75s0.34-0.75 0.75-0.75h12c0.41 0 0.75 0.34 0.75 0.75s-0.34 0.75-0.75 0.75z"/>
 <path d="m8.5401 22.71c-1 0-1.95-0.39-2.65-1.1l-3.51-3.51c-1.46-1.46-1.46-3.84 0-5.3l10.43-10.43c1.41-1.41 3.89-1.41 5.3 0l3.51 3.51c1.46 1.46 1.46 3.84 0 5.3l-10.43 10.43c-0.7 0.72-1.6401 1.1-2.6501 1.1zm-5.1-5.66 3.51 3.51c0.85 0.85 2.34 0.85 3.18 0l10.43-10.43c0.88-0.88001 0.88-2.3 0-3.18l-3.51-3.51c-0.84-0.84-2.33-0.85-3.18 0l-10.43 10.43c-0.88 0.87-0.88 2.3 0 3.18z"/>
 <path d="m14.87 17.63c-0.19 0-0.3799-0.07-0.5299-0.22l-7.75-7.75c-0.29-0.29-0.29-0.77001 0-1.06s0.77-0.29 1.06 0l7.75 7.75c0.29 0.29 0.29 0.77 0 1.06-0.15 0.15-0.3401 0.22-0.5301 0.22z"/>
 <path d="m3.52 18.41c-0.19 0-0.38003-0.07-0.53003-0.22-0.29-0.29-0.29-0.77 0-1.06l5.66-5.66c0.29-0.29 0.76999-0.29 1.06 0s0.29 0.77 0 1.06l-5.66 5.66c-0.15 0.15-0.33997 0.22-0.52997 0.22z"/>
 <path d="m6.3398 21.24c-0.19 0-0.38002-0.07-0.53002-0.22-0.29-0.29-0.29-0.77 0-1.06l5.66-5.66c0.29-0.29 0.77-0.29 1.06 0s0.29 0.77 0 1.06l-5.66 5.66c-0.14 0.14-0.32997 0.22-0.52997 0.22z"/>
</svg>
