<?xml version="1.0" encoding="UTF-8"?>
<svg width="24" height="24" viewBox="0 0 24 24" xmlns="http://www.w3.org/2000/svg">
 <path d="m15 22.75h-6c-5.43 0-7.75-2.32-7.75-7.75v-6c0-5.43 2.32-7.75 7.75-7.75h6c5.43 0 7.75 2.32 7.75 7.75v6c0 5.43-2.32 7.75-7.75 7.75zm-6-20c-4.61 0-6.25 1.64-6.25 6.25v6c0 4.61 1.64 6.25 6.25 6.25h6c4.61 0 6.25-1.64 6.25-6.25v-6c0-4.61-1.64-6.25-6.25-6.25h-6z"/>
 <path d="m10.09 18.25c-0.61998 0-1.23-0.23-1.7-0.7l-1.94-1.94c-0.94-0.94-0.94-2.46 0-3.4l5.75-5.75c0.94-0.94 2.46-0.94 3.4 0l1.94 1.94c0.94 0.94 0.94 2.46 0 3.4l-5.75 5.75c-0.47 0.46-1.08 0.7-1.7 0.7zm-2.57-3.7 1.94 1.94c0.35 0.35 0.92997 0.35 1.28 0l5.75-5.75c0.35-0.35 0.35-0.93 0-1.28l-1.94-1.94c-0.35-0.35-0.93-0.35-1.28 0l-5.75 5.75c-0.35 0.35-0.35 0.92 0 1.28z"/>
 <path d="m13.58 15.44c-0.19 0-0.38-0.07-0.53-0.22l-4.28-4.28c-0.29-0.29-0.29-0.77 0-1.06 0.29-0.29 0.77-0.29 1.06 0l4.28 4.28c0.29 0.29 0.29 0.77 0 1.06-0.14 0.15-0.34 0.22-0.53 0.22z"/>
</svg>
