<?xml version="1.0" encoding="UTF-8"?>
<svg width="24" height="24" viewBox="0 0 24 24" xmlns="http://www.w3.org/2000/svg">
 <path d="m17.28 9.8896c-0.16 0-0.3301-0.03-0.4901-0.1l-4.7699-2.12-4.82 2.12c-0.5 0.21999-1.09 0.08-1.43-0.36s-0.33003-1.05 0.02997-1.47l5-6.11c0.61-0.75 1.79-0.75 2.41 0l5 6.11c0.35 0.43 0.36 1.03 0.03 1.47-0.25 0.29-0.6 0.46-0.96 0.46zm-5.28-3.73c0.21 0 0.43 0.04 0.63 0.13l3.58 1.59-4.1701-5.09-4.2299 5.08 3.56-1.58c0.2-0.09 0.41-0.13 0.63-0.13z"/>
 <path d="m12 22.75c-0.46 0-0.9-0.21-1.2-0.59l-5-6.11c-0.35-0.43-0.35997-1.03-0.02997-1.47 0.34-0.44 0.91999-0.59 1.43-0.37l4.78 2.12 4.82-2.12c0.51-0.22 1.09-0.07 1.43 0.37 0.33 0.44 0.32 1.04-0.03 1.47l-5 6.11c-0.3 0.38-0.74 0.59-1.2 0.59zm-4.21-6.63 4.16 5.09 4.23-5.08-3.55 1.58c-0.4 0.18-0.86 0.18-1.26 0l-3.58-1.59z"/>
 <path d="m12 15.37c-0.12 0-0.23-0.03-0.33-0.08l-5.25-2.62c-0.25-0.13-0.41998-0.39-0.41998-0.67s0.15998-0.54 0.41998-0.67l5.25-2.62c0.21-0.11 0.46-0.11 0.67 0l5.25 2.62c0.25 0.13 0.42 0.39 0.42 0.67s-0.16 0.54-0.42 0.67l-5.25 2.62c-0.11 0.06-0.22 0.08-0.34 0.08zm-3.57-3.37 3.57 1.78 3.57-1.78-3.57-1.78-3.57 1.78z"/>
</svg>
