<svg width="24" height="24" viewBox="0 0 24 24"  xmlns="http://www.w3.org/2000/svg">
<path d="M17.2802 9.88961C17.1202 9.88961 16.9501 9.85961 16.7901 9.78961L12.0202 7.66961L7.20018 9.78961C6.70018 10.0096 6.11019 9.86961 5.77019 9.42961C5.43019 8.98961 5.44016 8.37961 5.80016 7.95961L10.8002 1.84961C11.4102 1.09961 12.5902 1.09961 13.2102 1.84961L18.2102 7.95961C18.5602 8.38961 18.5702 8.98961 18.2402 9.42961C17.9902 9.71961 17.6402 9.88961 17.2802 9.88961ZM12.0002 6.15961C12.2102 6.15961 12.4302 6.19961 12.6302 6.28961L16.2102 7.87961L12.0401 2.78961L7.81017 7.86961L11.3702 6.28961C11.5702 6.19961 11.7802 6.15961 12.0002 6.15961Z" />
<path d="M12 22.7497C11.54 22.7497 11.1 22.5397 10.8 22.1597L5.79999 16.0497C5.44999 15.6197 5.44002 15.0197 5.77002 14.5797C6.11002 14.1397 6.69001 13.9897 7.20001 14.2097L11.98 16.3297L16.8 14.2097C17.31 13.9897 17.89 14.1397 18.23 14.5797C18.56 15.0197 18.55 15.6197 18.2 16.0497L13.2 22.1597C12.9 22.5397 12.46 22.7497 12 22.7497ZM7.78998 16.1197L11.95 21.2097L16.18 16.1297L12.63 17.7097C12.23 17.8897 11.77 17.8897 11.37 17.7097L7.78998 16.1197Z" />
<path d="M12 15.3695C11.88 15.3695 11.77 15.3395 11.67 15.2895L6.41998 12.6695C6.16998 12.5395 6 12.2795 6 11.9995C6 11.7195 6.15998 11.4595 6.41998 11.3295L11.67 8.70945C11.88 8.59945 12.13 8.59945 12.34 8.70945L17.59 11.3295C17.84 11.4595 18.01 11.7195 18.01 11.9995C18.01 12.2795 17.85 12.5395 17.59 12.6695L12.34 15.2895C12.23 15.3495 12.12 15.3695 12 15.3695ZM8.42999 11.9995L12 13.7795L15.57 11.9995L12 10.2195L8.42999 11.9995Z" />
</svg>
