<svg width="24" height="24" viewBox="0 0 24 24"  xmlns="http://www.w3.org/2000/svg">
<path opacity="0.4" d="M17.4999 11.4904C17.3899 11.5804 17.2799 11.6504 17.1499 11.7104L16.0599 12.2604L12.9899 13.7904C12.4399 14.0704 11.5499 14.0704 11.0099 13.7904L7.93991 12.2604L6.84991 11.7104C6.72991 11.6404 6.61991 11.5804 6.49991 11.4904C5.43991 10.7504 5.24991 9.40035 6.09991 8.33035L10.2699 3.13035C10.5299 2.81035 10.8399 2.57035 11.1599 2.43035C11.6999 2.17035 12.2999 2.17035 12.8299 2.43035C13.1499 2.57035 13.4699 2.81035 13.7199 3.13035L17.8899 8.33035C18.7499 9.41035 18.5599 10.7604 17.4999 11.4904Z" />
<path d="M17.5 11.4901C17.39 11.5801 17.28 11.6501 17.15 11.7101L16.06 12.2601L12 9.21012L7.94 12.2701L6.85 11.7201C6.73 11.6501 6.62 11.5901 6.5 11.5001C6.54 11.3101 6.64 11.1401 6.81 11.0201L11.16 7.75012V2.44012C11.7 2.18012 12.3 2.18012 12.83 2.44012V7.75012L17.18 11.0201C17.35 11.1401 17.45 11.3001 17.5 11.4901Z" />
<path d="M8.77011 14.4301L10.3801 15.1501C11.4101 15.6101 12.5901 15.6101 13.6301 15.1501L15.2401 14.4301C16.6801 13.7901 18.0101 15.5301 17.0101 16.7501L13.5501 20.9801C12.7001 22.0201 11.3101 22.0201 10.4501 20.9801L7.00011 16.7501C5.99011 15.5301 7.32011 13.7901 8.77011 14.4301Z" />
</svg>
