<?xml version="1.0" encoding="UTF-8"?>
<svg width="24" height="24" viewBox="0 0 24 24" xmlns="http://www.w3.org/2000/svg">
 <path d="m12 13.53c-0.44 0-0.88-0.09-1.23-0.26l-3.73-1.87c-0.78-0.39-1.33-1.07-1.5-1.85-0.17-0.79 0.03999-1.63 0.58999-2.31l3.73-4.66c0.54998-0.69 1.33-1.08 2.14-1.08s1.59 0.39 2.14 1.08l3.73 4.67c0.55 0.68 0.76 1.52 0.59 2.31s-0.72 1.46-1.5 1.85l-3.73 1.87c-0.35 0.17-0.79 0.25-1.23 0.25zm-0.97-10.01-3.73 4.66c-0.26 0.33-0.37 0.7-0.29 1.05s0.33 0.64 0.71 0.83l3.73 1.87c0.28 0.14 0.83 0.14 1.11 0l3.73-1.87c0.38-0.19 0.63-0.49 0.71-0.83s-0.03-0.72-0.29-1.05l-3.73-4.66c-0.55-0.67-1.41-0.67-1.95 0z"/>
 <path d="m12 8.3108c-0.41 0-0.75-0.34-0.75-0.75v-5.26c0-0.41 0.34-0.75 0.75-0.75s0.75 0.34 0.75 0.75v5.26c0 0.41-0.34 0.75-0.75 0.75z"/>
 <path d="m16.2 11.46c-0.16 0-0.31-0.05-0.45-0.15l-3.75-2.82-3.75 2.82c-0.33 0.25-0.8 0.18-1.05-0.15s-0.18-0.8 0.15-1.05l4.2-3.15c0.27-0.2 0.63-0.2 0.9 0l4.2 3.15c0.33 0.25 0.4 0.72 0.15 1.05-0.14 0.2-0.37 0.3-0.6 0.3z"/>
 <path d="m12 22.499c-0.8 0-1.58-0.38-2.13-1.06l-3.46-4.23c-0.67-0.82-0.69001-1.94-0.05001-2.79s1.73-1.12 2.7-0.69l1.61 0.72c0.84 0.37 1.8 0.37 2.64 0l1.61-0.72c0.97-0.43 2.06-0.15 2.7 0.69 0.65 0.85 0.63 1.97-0.05 2.79l-3.46 4.23c-0.53 0.68-1.31 1.06-2.11 1.06zm-3.86-7.46c-0.31 0-0.51 0.22-0.58 0.3-0.08 0.11-0.32999 0.5 0.02001 0.93l3.46 4.23c0.53 0.65 1.4 0.65 1.93 0l3.46-4.23c0.35-0.43 0.1-0.82 0.02-0.93s-0.4-0.45-0.9-0.23l-1.61 0.72c-1.23 0.54-2.63 0.54-3.86 0l-1.61-0.72c-0.13-0.05-0.24-0.07-0.33-0.07z"/>
</svg>
