<?xml version="1.0" encoding="UTF-8"?>
<svg width="24" height="24" viewBox="0 0 24 24" xmlns="http://www.w3.org/2000/svg">
 <path d="m14.44 7.2499c-0.19 0-0.38-0.07-0.53-0.22l-2.03-2.03-2.03 2.03c-0.29 0.29-0.77 0.29-1.06 0s-0.29-0.77 0-1.06l2.56-2.56c0.29-0.29 0.77-0.29 1.06 0l2.56 2.56c0.29 0.29 0.29 0.77 0 1.06-0.15 0.15-0.34 0.22-0.53 0.22z"/>
 <path d="m11.88 14.93c-0.41 0-0.75-0.34-0.75-0.75v-10.17c0-0.41 0.34-0.75 0.75-0.75s0.75 0.34 0.75 0.75v10.17c0 0.42-0.34 0.75-0.75 0.75z"/>
 <path d="m12 20.75c-5.15 0-8.75-3.6-8.75-8.75 0-0.41 0.34-0.75 0.75-0.75s0.75 0.34 0.75 0.75c0 4.27 2.98 7.25 7.25 7.25s7.25-2.98 7.25-7.25c0-0.41 0.34-0.75 0.75-0.75s0.75 0.34 0.75 0.75c0 5.15-3.6 8.75-8.75 8.75z"/>
</svg>
