<svg width="24" height="24" viewBox="0 0 24 24"  xmlns="http://www.w3.org/2000/svg">
<path opacity="0.4" d="M16.8 9H7.2C4 9 2 11 2 14.2V16.79C2 20 4 22 7.2 22H16.79C19.99 22 21.99 20 21.99 16.8V14.2C22 11 20 9 16.8 9Z" />
<path d="M15.8801 5.56994L12.5301 2.21994C12.2401 1.92994 11.7601 1.92994 11.4701 2.21994L8.12009 5.56994C7.83009 5.85994 7.83009 6.33994 8.12009 6.62994C8.41009 6.91994 8.89009 6.91994 9.18009 6.62994L11.2501 4.55994V15.2499C11.2501 15.6599 11.5901 15.9999 12.0001 15.9999C12.4101 15.9999 12.7501 15.6599 12.7501 15.2499V4.55994L14.8201 6.62994C14.9701 6.77994 15.1601 6.84994 15.3501 6.84994C15.5401 6.84994 15.7301 6.77994 15.8801 6.62994C16.1801 6.33994 16.1801 5.86994 15.8801 5.56994Z" />
</svg>
