<svg width="24" height="24" viewBox="0 0 24 24"  xmlns="http://www.w3.org/2000/svg">
<path d="M9.46994 15.2799C9.27994 15.2799 9.08994 15.2099 8.93994 15.0599C8.11994 14.2399 7.66994 13.1499 7.66994 11.9999C7.66994 9.60994 9.60994 7.66994 11.9999 7.66994C13.1499 7.66994 14.2399 8.11994 15.0599 8.93994C15.1999 9.07994 15.2799 9.26994 15.2799 9.46994C15.2799 9.66994 15.1999 9.85994 15.0599 9.99994L9.99994 15.0599C9.84994 15.2099 9.65994 15.2799 9.46994 15.2799ZM11.9999 9.16994C10.4399 9.16994 9.16994 10.4399 9.16994 11.9999C9.16994 12.4999 9.29994 12.9799 9.53994 13.3999L13.3999 9.53994C12.9799 9.29994 12.4999 9.16994 11.9999 9.16994Z" />
<path d="M5.59994 18.5099C5.42994 18.5099 5.24994 18.4499 5.10994 18.3299C4.03994 17.4199 3.07994 16.2999 2.25994 14.9999C1.19994 13.3499 1.19994 10.6599 2.25994 8.99994C4.69994 5.17994 8.24994 2.97994 11.9999 2.97994C14.1999 2.97994 16.3699 3.73994 18.2699 5.16994C18.5999 5.41994 18.6699 5.88994 18.4199 6.21994C18.1699 6.54994 17.6999 6.61994 17.3699 6.36994C15.7299 5.12994 13.8699 4.47994 11.9999 4.47994C8.76994 4.47994 5.67994 6.41994 3.51994 9.80994C2.76994 10.9799 2.76994 13.0199 3.51994 14.1899C4.26994 15.3599 5.12994 16.3699 6.07994 17.1899C6.38994 17.4599 6.42994 17.9299 6.15994 18.2499C6.01994 18.4199 5.80994 18.5099 5.59994 18.5099Z" />
<path d="M11.9999 21.0199C10.6699 21.0199 9.36994 20.7499 8.11994 20.2199C7.73994 20.0599 7.55994 19.6199 7.71994 19.2399C7.87994 18.8599 8.31994 18.6799 8.69994 18.8399C9.75994 19.2899 10.8699 19.5199 11.9899 19.5199C15.2199 19.5199 18.3099 17.5799 20.4699 14.1899C21.2199 13.0199 21.2199 10.9799 20.4699 9.80994C20.1599 9.31994 19.8199 8.84994 19.4599 8.40994C19.1999 8.08994 19.2499 7.61994 19.5699 7.34994C19.8899 7.08994 20.3599 7.12994 20.6299 7.45994C21.0199 7.93994 21.3999 8.45994 21.7399 8.99994C22.7999 10.6499 22.7999 13.3399 21.7399 14.9999C19.2999 18.8199 15.7499 21.0199 11.9999 21.0199Z" />
<path d="M12.6899 16.2699C12.3399 16.2699 12.0199 16.0199 11.9499 15.6599C11.8699 15.2499 12.1399 14.8599 12.5499 14.7899C13.6499 14.5899 14.5699 13.6699 14.7699 12.5699C14.8499 12.1599 15.2399 11.8999 15.6499 11.9699C16.0599 12.0499 16.3299 12.4399 16.2499 12.8499C15.9299 14.5799 14.5499 15.9499 12.8299 16.2699C12.7799 16.2599 12.7399 16.2699 12.6899 16.2699Z" />
<path d="M1.99994 22.7499C1.80994 22.7499 1.61994 22.6799 1.46994 22.5299C1.17994 22.2399 1.17994 21.7599 1.46994 21.4699L8.93994 13.9999C9.22994 13.7099 9.70994 13.7099 9.99994 13.9999C10.2899 14.2899 10.2899 14.7699 9.99994 15.0599L2.52994 22.5299C2.37994 22.6799 2.18994 22.7499 1.99994 22.7499Z" />
<path d="M14.5299 10.2199C14.3399 10.2199 14.1499 10.1499 13.9999 9.99994C13.7099 9.70994 13.7099 9.22994 13.9999 8.93994L21.4699 1.46994C21.7599 1.17994 22.2399 1.17994 22.5299 1.46994C22.8199 1.75994 22.8199 2.23994 22.5299 2.52994L15.0599 9.99994C14.9099 10.1499 14.7199 10.2199 14.5299 10.2199Z" />
</svg>
