<?xml version="1.0" encoding="UTF-8"?>
<svg width="24" height="24" viewBox="0 0 24 24" xmlns="http://www.w3.org/2000/svg">
 <path d="m9.4699 15.28c-0.19 0-0.38-0.07-0.53-0.22-0.82-0.82-1.27-1.91-1.27-3.06 0-2.39 1.94-4.33 4.33-4.33 1.15 0 2.24 0.45 3.06 1.27 0.14 0.14 0.22 0.33 0.22 0.53s-0.08 0.39-0.22 0.53l-5.06 5.06c-0.15 0.15-0.34 0.22-0.53 0.22zm2.53-6.11c-1.56 0-2.83 1.27-2.83 2.83 0 0.5 0.13 0.98 0.37 1.4l3.86-3.86c-0.42-0.24-0.9-0.37-1.4-0.37z"/>
 <path d="m5.5998 18.51c-0.17 0-0.35-0.06-0.49-0.18-1.07-0.91-2.03-2.03-2.85-3.33-1.06-1.65-1.06-4.34 0-6 2.44-3.82 5.99-6.02 9.74-6.02 2.2 0 4.37 0.76 6.27 2.19 0.33 0.25 0.4 0.72 0.15 1.05s-0.72 0.4-1.05 0.15c-1.64-1.24-3.5-1.89-5.37-1.89-3.23 0-6.32 1.94-8.48 5.33-0.75 1.17-0.75 3.21 0 4.38s1.61 2.18 2.56 3c0.31 0.27 0.35 0.74 0.08 1.06-0.14 0.17-0.35 0.26-0.56 0.26z"/>
 <path d="m12 21.02c-1.33 0-2.63-0.27-3.88-0.8-0.38-0.16-0.56-0.6-0.4-0.98s0.6-0.56 0.98-0.4c1.06 0.45 2.17 0.68 3.29 0.68 3.23 0 6.32-1.94 8.48-5.33 0.75-1.17 0.75-3.21 0-4.38-0.31-0.49-0.65-0.96-1.01-1.4-0.26-0.32-0.21-0.79 0.11-1.06 0.32-0.26 0.79-0.22 1.06 0.11 0.39 0.48 0.77 1 1.11 1.54 1.06 1.65 1.06 4.34 0 6-2.44 3.82-5.99 6.02-9.74 6.02z"/>
 <path d="m12.69 16.27c-0.35 0-0.67-0.25-0.74-0.61-0.08-0.41 0.19-0.8 0.6-0.87 1.1-0.2 2.02-1.12 2.22-2.22 0.08-0.41 0.47-0.67 0.88-0.6 0.41 0.08 0.68 0.47 0.6 0.88-0.32 1.73-1.7 3.1-3.42 3.42-0.05-0.01-0.09 0-0.14 0z"/>
 <path d="m1.9999 22.75c-0.19 0-0.38-0.07-0.53-0.22-0.29-0.29-0.29-0.77 0-1.06l7.47-7.47c0.29-0.29 0.77-0.29 1.06 0 0.28996 0.29 0.28996 0.77 0 1.06l-7.47 7.47c-0.15 0.15-0.34 0.22-0.53 0.22z"/>
 <path d="m14.53 10.22c-0.19 0-0.38-0.07-0.53-0.21996-0.29-0.29-0.29-0.77 0-1.06l7.47-7.47c0.29-0.29 0.77-0.29 1.06 0s0.29 0.77 0 1.06l-7.47 7.47c-0.15 0.14996-0.34 0.21996-0.53 0.21996z"/>
</svg>
