<?xml version="1.0" encoding="UTF-8"?>
<svg width="24" height="24" viewBox="0 0 24 24" xmlns="http://www.w3.org/2000/svg">
 <path d="m14.75 22.75h-4.5v-7.25h-0.95001c-0.58 0-1.05-0.47-1.05-1.05v-1.9c0-0.58 0.46999-1.05 1.05-1.05h0.95001v-2.5c0-2.07 1.68-3.75 3.75-3.75h2.7c0.58 0 1.05 0.46999 1.05 1.05v2.4c0 0.58-0.47 1.05-1.05 1.05h-1.95v1.75h1.88c0.32 0 0.61 0.14 0.81 0.38s0.28 0.56 0.22 0.87l-0.38 1.9c-0.1 0.49-0.53 0.84-1.03 0.84h-1.5v7.26zm-3-1.5h1.5v-7.25h2.64l0.2-1h-2.83v-3.7c0-0.58 0.47-1.05 1.05-1.05h1.95v-1.5h-2.26c-1.24 0-2.25 1.01-2.25 2.25v4h-2v1h2v7.25z"/>
 <path d="m15 22.75h-6c-5.43 0-7.75-2.32-7.75-7.75v-6c0-5.43 2.32-7.75 7.75-7.75h6c5.43 0 7.75 2.32 7.75 7.75v6c0 5.43-2.32 7.75-7.75 7.75zm-6-20c-4.61 0-6.25 1.64-6.25 6.25v6c0 4.61 1.64 6.25 6.25 6.25h6c4.61 0 6.25-1.64 6.25-6.25v-6c0-4.61-1.64-6.25-6.25-6.25h-6z"/>
</svg>
