<?xml version="1.0" encoding="UTF-8"?>
<svg width="24" height="24" viewBox="0 0 24 24" xmlns="http://www.w3.org/2000/svg">
 <path d="m13 22.75h-4c-5.43 0-7.75-2.32-7.75-7.75v-6c0-5.43 2.32-7.75 7.75-7.75h6c5.43 0 7.75 2.32 7.75 7.75v4c0 0.41-0.34 0.75-0.75 0.75s-0.75-0.34-0.75-0.75v-4c0-4.61-1.64-6.25-6.25-6.25h-6c-4.61 0-6.25 1.64-6.25 6.25v6c0 4.61 1.64 6.25 6.25 6.25h4c0.41 0 0.75 0.34 0.75 0.75s-0.34 0.75-0.75 0.75z"/>
 <path d="m7.3301 15.24c-0.16 0-0.31999-0.05-0.45999-0.16-0.33-0.25-0.38998-0.72-0.13998-1.05l2.38-3.09c0.29-0.37 0.70002-0.61 1.17-0.67 0.47-0.06 0.93 0.07 1.3 0.36l1.83 1.44c0.07 0.06 0.14 0.05 0.19 0.05 0.04 0 0.11-0.02 0.17-0.1l2.31-2.98c0.25-0.33 0.72-0.38999 1.05-0.12999 0.33 0.25 0.39 0.72 0.13 1.05l-2.31 2.98c-0.29 0.37-0.7 0.61-1.17 0.66-0.46 0.06-0.93-0.07-1.29-0.36l-1.83-1.44c-0.07-0.06-0.15-0.06-0.19-0.05-0.04 0-0.11 0.02-0.17 0.1l-2.38 3.09c-0.14 0.2-0.36003 0.3-0.59003 0.3z"/>
 <path d="m20.26 22.75c-0.35 0-0.8-0.11-1.33-0.43l-0.25-0.15c-0.07-0.04-0.2801-0.04-0.3501 0l-0.25 0.15c-1.15 0.69-1.8799 0.4-2.1999 0.16-0.33-0.24-0.84-0.84-0.54-2.16l0.05-0.21c0.02-0.08-0.0401-0.27-0.0901-0.33l-0.3499-0.35c-0.59-0.6-0.8201-1.3-0.6201-1.93 0.2-0.62 0.7901-1.06 1.6201-1.2l0.3799-0.06c0.07-0.02 0.21-0.12 0.25-0.19l0.28-0.57c0.39-0.79 0.9901-1.24 1.6501-1.24s1.26 0.45 1.65 1.24l0.28 0.56c0.04 0.07 0.18 0.17 0.25 0.19l0.38 0.06c0.83 0.14 1.42 0.58 1.62 1.2s-0.02 1.32-0.62 1.93l-0.35 0.35c-0.05 0.06-0.11 0.25-0.09 0.33l0.05 0.21c0.3 1.32-0.21 1.92-0.54 2.16-0.18 0.14-0.47 0.28-0.88 0.28zm-1.77-7c-0.01 0.01-0.15 0.11-0.29 0.4l-0.28 0.57c-0.24 0.49-0.8101 0.91-1.3401 1l-0.3799 0.06c-0.32 0.05-0.43 0.16-0.44 0.18 0 0.02 0.03 0.18 0.26 0.41l0.35 0.35c0.41 0.42 0.6199 1.14 0.4899 1.71l-0.0499 0.21c-0.09 0.39-0.05 0.56-0.03 0.62 0.03-0.02 0.2-0.04 0.53-0.24l0.25-0.15c0.55-0.33 1.34-0.33 1.89 0l0.25 0.15c0.41 0.25 0.58 0.22 0.59 0.22-0.04 0 0.01-0.2-0.08-0.6l-0.05-0.21c-0.13-0.58 0.08-1.29 0.49-1.71l0.35-0.35c0.23-0.23 0.26-0.39 0.26-0.42-0.01-0.02-0.12-0.12-0.44-0.18l-0.38-0.06c-0.54-0.09-1.1-0.51-1.34-1l-0.28-0.56c-0.16-0.3-0.3-0.39-0.33-0.4z"/>
</svg>
