<svg width="24" height="24" viewBox="0 0 24 24"  xmlns="http://www.w3.org/2000/svg">
<path opacity="0.4" d="M22 7.81V15.16C21.71 15.02 21.39 14.92 21.03 14.86L20.72 14.81L20.46 14.27C19.91 13.15 19.01 12.5 18 12.5C16.99 12.5 16.09 13.15 15.54 14.27L15.27 14.81L14.97 14.86C13.78 15.06 12.92 15.72 12.61 16.66C12.31 17.61 12.62 18.65 13.47 19.51L13.78 19.82L13.75 19.94C13.55 20.83 13.63 21.51 13.82 22H7.81C4.17 22 2 19.83 2 16.19V7.81C2 4.17 4.17 2 7.81 2H16.19C19.83 2 22 4.17 22 7.81Z" />
<path d="M19.1199 14.9404L19.4399 15.5904C19.5999 15.9104 20.0099 16.2104 20.3499 16.2704L20.7799 16.3404C22.0899 16.5604 22.3899 17.5204 21.4599 18.4604L21.0599 18.8604C20.7899 19.1304 20.6499 19.6504 20.7299 20.0304L20.7799 20.2704C21.1399 21.8504 20.2999 22.4604 18.9299 21.6304L18.6399 21.4504C18.2899 21.2404 17.7099 21.2404 17.3599 21.4504L17.0699 21.6304C15.6899 22.4604 14.8599 21.8504 15.2199 20.2704L15.2699 20.0304C15.3499 19.6604 15.2099 19.1304 14.9399 18.8604L14.5399 18.4604C13.6099 17.5104 13.9099 16.5604 15.2199 16.3404L15.6499 16.2704C15.9999 16.2104 16.3999 15.9104 16.5599 15.5904L16.8799 14.9404C17.4999 13.6904 18.4999 13.6904 19.1199 14.9404Z" />
<path fill-rule="evenodd" clip-rule="evenodd" d="M16.1294 7.91704C16.4568 8.17081 16.5164 8.64192 16.2627 8.9693L13.9482 11.955C13.3533 12.7073 12.2565 12.8445 11.4913 12.2533L11.4861 12.2492L9.65952 10.8119C9.54667 10.7262 9.38927 10.7475 9.30358 10.8581C9.3035 10.8582 9.30366 10.858 9.30358 10.8581L6.92405 13.9475C6.6713 14.2756 6.20037 14.3367 5.87222 14.084C5.54406 13.8312 5.48293 13.3603 5.73569 13.0321L8.11641 9.94122C8.71032 9.17263 9.81154 9.03371 10.5785 9.62634L10.5837 9.63038L12.4103 11.0677C12.5243 11.1543 12.685 11.132 12.7701 11.0265L15.0771 8.05031C15.3309 7.72293 15.802 7.66327 16.1294 7.91704Z" />
</svg>
