<?xml version="1.0" encoding="UTF-8"?>
<svg width="24" height="24" viewBox="0 0 24 24" xmlns="http://www.w3.org/2000/svg">
 <path d="m12.75 9.4198h-4.08c-2.25 0-4.08-1.83-4.08-4.08s1.83-4.08 4.08-4.08h4.08v8.16zm-4.08-6.67c-1.42 0-2.58 1.16-2.58 2.58s1.16 2.58 2.58 2.58h2.58v-5.17h-2.58v0.01001z"/>
 <path d="m12.75 16.08h-4.08c-2.25 0-4.08-1.83-4.08-4.08 0-2.25 1.83-4.08 4.08-4.08h4.08v8.16zm-4.08-6.66c-1.42 0-2.58 1.16-2.58 2.58s1.16 2.58 2.58 2.58h2.58v-5.17h-2.58v0.01001z"/>
 <path d="m8.6698 22.75c-2.25 0-4.08-1.8299-4.08-4.0799s1.83-4.0801 4.08-4.0801h4.08v4.0801c0 2.25-1.83 4.0799-4.08 4.0799zm0-6.67c-1.42 0-2.58 1.1601-2.58 2.5801s1.16 2.5799 2.58 2.5799 2.58-1.1599 2.58-2.5799v-2.5801h-2.58z"/>
 <path d="m15.33 9.42h-4.08v-8.17h4.08c2.25 0 4.08 1.83 4.08 4.08 0.01 2.25-1.83 4.09-4.08 4.09zm-2.58-1.5h2.58c1.42 0 2.58-1.16 2.58-2.58s-1.16-2.58-2.58-2.58h-2.58v5.16z"/>
 <path d="m15.33 16.08c-2.25 0-4.08-1.83-4.08-4.08 0-2.25 1.83-4.08 4.08-4.08s4.08 1.83 4.08 4.08c0 2.25-1.83 4.08-4.08 4.08zm0-6.66c-1.42 0-2.58 1.16-2.58 2.58s1.16 2.58 2.58 2.58 2.58-1.16 2.58-2.58-1.15-2.58-2.58-2.58z"/>
</svg>
