<?xml version="1.0" encoding="UTF-8"?>
<svg width="24" height="24" viewBox="0 0 24 24" xmlns="http://www.w3.org/2000/svg">
 <path d="m12.75 10.75h-2.75c-1.52 0-2.75-1.23-2.75-2.75s1.23-2.75 2.75-2.75h2.75v5.5zm-2.75-4c-0.69 0-1.25 0.56-1.25 1.25s0.56 1.25 1.25 1.25h1.25v-2.5h-1.25z"/>
 <path d="m12.75 14.75h-2.75c-1.52 0-2.75-1.23-2.75-2.75s1.23-2.75 2.75-2.75h2.75v5.5zm-2.75-4c-0.69 0-1.25 0.56-1.25 1.25s0.56 1.25 1.25 1.25h1.25v-2.5h-1.25z"/>
 <path d="m10 18.75c-1.52 0-2.75-1.23-2.75-2.75s1.23-2.75 2.75-2.75h2.75v2.75c0 1.52-1.23 2.75-2.75 2.75zm0-4c-0.69 0-1.25 0.56-1.25 1.25s0.56 1.25 1.25 1.25 1.25-0.56 1.25-1.25v-1.25h-1.25z"/>
 <path d="m14 10.75h-2.75v-5.5h2.75c1.52 0 2.75 1.23 2.75 2.75s-1.23 2.75-2.75 2.75zm-1.25-1.5h1.25c0.69 0 1.25-0.56 1.25-1.25s-0.56-1.25-1.25-1.25h-1.25v2.5z"/>
 <path d="m14 14.75c-1.52 0-2.75-1.23-2.75-2.75s1.23-2.75 2.75-2.75 2.75 1.23 2.75 2.75-1.23 2.75-2.75 2.75zm0-4c-0.69 0-1.25 0.56-1.25 1.25s0.56 1.25 1.25 1.25 1.25-0.56 1.25-1.25-0.56-1.25-1.25-1.25z"/>
 <path d="m12 22.75c-5.93 0-10.75-4.82-10.75-10.75s4.82-10.75 10.75-10.75 10.75 4.82 10.75 10.75-4.82 10.75-10.75 10.75zm0-20c-5.1 0-9.25 4.15-9.25 9.25s4.15 9.25 9.25 9.25 9.25-4.15 9.25-9.25-4.15-9.25-9.25-9.25z"/>
</svg>
