<?xml version="1.0" encoding="UTF-8"?>
<svg width="24" height="24" viewBox="0 0 24 24" xmlns="http://www.w3.org/2000/svg">
 <path d="m10.93 22.75c-0.48 0-0.96-0.12-1.4-0.37-0.89-0.5-1.42-1.3901-1.42-2.4001v-5.3499c0-0.51-0.33-1.2601-0.64-1.6501l-3.8-3.99c-0.63-0.63-1.12-1.73-1.12-2.54v-2.32c0-1.61 1.22-2.87 2.77-2.87h13.33c1.53 0 2.77 1.24 2.77 2.77v2.22c0 1.05-0.63 2.26-1.23 2.85-0.29 0.29-0.77 0.29-1.06 0s-0.29-0.77 0-1.06c0.37-0.37 0.79-1.2 0.79-1.79v-2.22c0-0.7-0.57-1.27-1.27-1.27h-13.32c-0.71 0-1.27 0.59999-1.27 1.37v2.32c0 0.37 0.3 1.1 0.69 1.49l3.85 4.0499c0.51001 0.63 1.01 1.6901 1.01 2.6401v5.3499c0 0.66 0.45 0.9801 0.65 1.0901 0.43 0.24 0.94 0.23 1.34-0.01l1.4-0.9001c0.35-0.22 0.81-0.1199 1.04 0.2301 0.22 0.35 0.12 0.8099-0.23 1.0399l-1.41 0.9101c-0.45 0.27-0.96 0.41-1.47 0.41z"/>
 <path d="m16.88 20.25c-1.92 0-3.73-1.02-4.71-2.67-0.52-0.84-0.79-1.82-0.79-2.83 0-3.03 2.47-5.5 5.5-5.5s5.5 2.47 5.5 5.5c0 1.01-0.28 1.99-0.8 2.84-0.97 1.64-2.77 2.66-4.7 2.66zm0-9.5c-2.21 0-4 1.79-4 4 0 0.73 0.2 1.44 0.58 2.05 0.72 1.21 2.03 1.95 3.42 1.95 1.42 0 2.7-0.72 3.42-1.94 0.38-0.62 0.58-1.33 0.58-2.06 0-2.21-1.79-4-4-4z"/>
 <path d="m18.15 16.74c-0.19 0-0.38-0.07-0.53-0.22l-2.51-2.51c-0.29-0.29-0.29-0.77 0-1.06s0.77-0.29 1.06 0l2.51 2.51c0.29 0.29 0.29 0.77 0 1.06-0.14 0.15-0.33 0.22-0.53 0.22z"/>
 <path d="m15.62 16.77c-0.19 0-0.38-0.07-0.53-0.22-0.29-0.29-0.29-0.77 0-1.06l2.51-2.51c0.29-0.29 0.77-0.29 1.06 0s0.29 0.77 0 1.06l-2.51 2.51c-0.15 0.15-0.34 0.22-0.53 0.22z"/>
 <path d="m10.93 22.75c-0.48 0-0.96-0.12-1.39-0.36-0.89-0.5-1.42-1.4-1.42-2.41v-5.35c0-0.5-0.33-1.26-0.65-1.65l-3.8-3.99c-0.63-0.65-1.12-1.74-1.12-2.54v-2.33c0-1.61 1.22-2.87 2.77-2.87h13.34c1.53 0 2.77 1.24 2.77 2.77v2.22c0 1.05-0.62 2.23-1.22 2.85l-1.8 1.59c-0.18 0.16-0.44 0.22-0.67 0.17-0.27-0.07-0.56-0.1-0.86-0.1-2.21 0-4 1.79-4 4 0 0.73 0.2 1.44 0.58 2.06 0.32 0.53 0.75 0.97 1.25 1.28 0.22 0.14 0.36 0.38 0.36 0.64v0.34c0 0.79-0.48 1.9-1.28 2.37l-1.38 0.89c-0.45 0.28-0.97 0.42-1.48 0.42zm-5.6-20c-0.71 0-1.27 0.6-1.27 1.37v2.33c0 0.36 0.3 1.1 0.7 1.5l3.85 4.05c0.51 0.63 1.02 1.7 1.02 2.64v5.35c0 0.66 0.46 0.99 0.65 1.1 0.43 0.24 0.94 0.23 1.33-0.01l1.4-0.9c0.27-0.16 0.54-0.67 0.56-1.03-0.55-0.41-1.03-0.94-1.39-1.54-0.52-0.85-0.8-1.83-0.8-2.83 0-3.03 2.47-5.5 5.5-5.5 0.28 0 0.56 0.02 0.82 0.06l1.48-1.31c0.34-0.35 0.76-1.18 0.76-1.77v-2.22c0-0.7-0.57-1.27-1.27-1.27h-13.34v-0.02002z"/>
</svg>
