<?xml version="1.0" encoding="UTF-8"?>
<svg width="24" height="24" viewBox="0 0 24 24" xmlns="http://www.w3.org/2000/svg">
 <path d="m10.94 22.65c-0.48 0-0.95-0.12-1.39-0.36-0.88-0.49-1.41-1.38-1.41-2.38v-5.3c0-0.5-0.33-1.25-0.64-1.63l-3.74-3.96c-0.63-0.63-1.11-1.71-1.11-2.52v-2.3c0-1.6 1.21-2.85 2.75-2.85h13.2c1.52 0 2.75 1.23 2.75 2.75v2.2c0 1.05-0.63 2.24-1.22 2.83l-4.33 3.83c-0.42 0.35-0.75 1.12-0.75 1.74v4.3c0 0.89-0.56 1.92-1.26 2.34l-1.38 0.89c-0.45 0.28-0.96 0.42-1.47 0.42zm-5.54-19.8c-0.7 0-1.25 0.59-1.25 1.35v2.3c0 0.37 0.3 1.09 0.68 1.47l3.81 4.01c0.51 0.63 1.01 1.68 1.01 2.62v5.3c0 0.65 0.45 0.97 0.64 1.07 0.42 0.23 0.93 0.23 1.32-0.01l1.39-0.89c0.28-0.17 0.56-0.71 0.56-1.07v-4.3c0-1.07 0.52-2.25 1.27-2.88l4.28-3.79c0.34-0.34 0.75-1.15 0.75-1.74v-2.19c0-0.69-0.56-1.25-1.25-1.25h-13.21z"/>
 <path d="m6.0002 10.75c-0.14 0-0.27-0.04-0.4-0.11-0.35-0.22-0.46-0.69004-0.24-1.04l4.93-7.9c0.22-0.35 0.68-0.46 1.03-0.24s0.46 0.68 0.24 1.03l-4.93 7.9c-0.14 0.23-0.38 0.36-0.63 0.36z"/>
</svg>
