<?xml version="1.0" encoding="UTF-8"?>
<svg width="24" height="24" viewBox="0 0 24 24" xmlns="http://www.w3.org/2000/svg">
 <path d="m11.38 18.9c-0.33 0-0.66-0.08-0.96-0.25-0.61-0.34-0.98-0.96-0.98-1.66v-3.08c0-0.19-0.15-0.56-0.3-0.75l-2.17-2.28c-0.41-0.41-0.72-1.13-0.72-1.68v-1.33c0-1.11 0.84-1.97 1.91-1.97h7.67c1.05 0 1.91 0.86 1.91 1.91v1.28c0 0.7-0.4 1.47-0.8 1.87l-2.53 2.24c-0.16 0.14-0.33 0.49-0.33 0.78v2.5c0 0.63-0.38 1.33-0.89 1.63l-0.79 0.51c-0.31 0.19-0.66 0.28-1.02 0.28zm-3.22-11.5c-0.24 0-0.41 0.2-0.41 0.47v1.33c0 0.13 0.14 0.47 0.3 0.63l2.22 2.34c0.34 0.43 0.67 1.12 0.67 1.74v3.08c0 0.2 0.13 0.31 0.21 0.35 0.11 0.06 0.29 0.1 0.45 0l0.8-0.52c0.08-0.06 0.18-0.26 0.18-0.36v-2.5c0-0.71 0.35-1.5 0.85-1.91l2.48-2.2c0.13-0.13 0.33-0.53 0.33-0.78v-1.26c0-0.22-0.19-0.41-0.41-0.41h-7.67z"/>
 <path d="m15 22.75h-6c-5.43 0-7.75-2.32-7.75-7.75v-6c0-5.43 2.32-7.75 7.75-7.75h6c5.43 0 7.75 2.32 7.75 7.75v6c0 5.43-2.32 7.75-7.75 7.75zm-6-20c-4.61 0-6.25 1.64-6.25 6.25v6c0 4.61 1.64 6.25 6.25 6.25h6c4.61 0 6.25-1.64 6.25-6.25v-6c0-4.61-1.64-6.25-6.25-6.25h-6z"/>
</svg>
