<?xml version="1.0" encoding="UTF-8"?>
<svg width="24" height="24" viewBox="0 0 24 24" xmlns="http://www.w3.org/2000/svg">
 <path d="m10.93 22.75c-0.48 0-0.95995-0.1199-1.4-0.3599-0.89-0.5-1.42-1.3901-1.42-2.4001v-5.3499c0-0.51-0.33001-1.2601-0.64001-1.6501l-3.8-3.99c-0.63-0.63-1.12-1.73-1.12-2.54v-2.32c0-1.61 1.22-2.87 2.77-2.87h13.34c1.53 0 2.77 1.24 2.77 2.77v2.22c0 1.05-0.63 2.26-1.23 2.85-0.29 0.29-0.77 0.29-1.06 0s-0.29-0.77 0-1.06c0.37-0.37 0.79-1.2 0.79-1.79v-2.22c0-0.7-0.57-1.27-1.27-1.27h-13.34c-0.71 0-1.27 0.60003-1.27 1.37v2.32c0 0.37 0.30001 1.1 0.69001 1.49l3.85 4.05c0.51 0.63 1.01 1.6901 1.01 2.6401v5.3499c0 0.66 0.45001 0.98 0.65001 1.09 0.43 0.24 0.94 0.23 1.34-0.01l1.4-0.8999c0.29-0.17 0.57-0.7201 0.57-1.0901 0-0.41 0.34-0.75 0.75-0.75s0.75 0.34 0.75 0.75c0 0.9-0.56 1.93-1.27 2.36l-1.39 0.9c-0.45 0.27-0.96 0.41-1.47 0.41z"/>
 <path d="m16.07 17.27c-2.18 0-3.95-1.77-3.95-3.95s1.77-3.95 3.95-3.95 3.95 1.77 3.95 3.95-1.77 3.95-3.95 3.95zm0-6.4c-1.35 0-2.45 1.1-2.45 2.45s1.1 2.45 2.45 2.45 2.45-1.1 2.45-2.45-1.1-2.45-2.45-2.45z"/>
 <path d="m19.87 17.87c-0.19 0-0.3799-0.07-0.5299-0.22l-1-1c-0.29-0.29-0.29-0.77 0-1.06s0.77-0.29 1.06 0l1 1c0.29 0.29 0.29 0.77 0 1.06-0.14 0.14-0.3401 0.22-0.5301 0.22z"/>
</svg>
