<?xml version="1.0" encoding="UTF-8"?>
<svg width="24" height="24" viewBox="0 0 24 24" xmlns="http://www.w3.org/2000/svg">
 <path d="m10.93 22.75c-0.48 0-0.95995-0.1199-1.4-0.3599-0.89-0.5-1.42-1.3901-1.42-2.4001v-5.3499c0-0.51-0.33001-1.2601-0.64001-1.6501l-3.8-3.99c-0.63-0.63-1.12-1.73-1.12-2.54v-2.32c0-1.61 1.22-2.87 2.77-2.87h13.34c1.53 0 2.77 1.24 2.77 2.77v2.22c0 1.05-0.63 2.26-1.23 2.85-0.29 0.29-0.77 0.29-1.06 0s-0.29-0.77 0-1.06c0.37-0.37 0.79-1.2 0.79-1.79v-2.22c0-0.7-0.57-1.27-1.27-1.27h-13.34c-0.71 0-1.27 0.60003-1.27 1.37v2.32c0 0.37 0.30001 1.1 0.69001 1.49l3.85 4.05c0.51 0.63 1.01 1.6901 1.01 2.6401v5.3499c0 0.66 0.45001 0.98 0.65001 1.09 0.43 0.24 0.94 0.23 1.34-0.01l1.4-0.8999c0.35-0.22 0.81-0.1201 1.04 0.2299 0.22 0.35 0.12 0.81-0.22 1.04l-1.41 0.91c-0.45 0.26-0.96 0.4-1.47 0.4z"/>
 <path d="m13.69 18.89c-0.38 0-0.74-0.1401-1-0.4001-0.31-0.31-0.45-0.76-0.38-1.23l0.19-1.35c0.05-0.35 0.26-0.76 0.51-1.01l3.54-3.54c0.48-0.48 0.95-0.73 1.46-0.78 0.62-0.06 1.24 0.2 1.82 0.78s0.84 1.19 0.78 1.82c-0.05 0.5-0.31 0.9801-0.78 1.4601l-3.54 3.5399c-0.25 0.25-0.67 0.46-1.02 0.51l-1.35 0.19c-0.08 0.01-0.15 0.0101-0.23 0.0101zm4.49-6.8301h-0.03c-0.14 0.01-0.33 0.13-0.54 0.35l-3.54 3.5401c-0.03 0.03-0.08 0.1299-0.08 0.1699l-0.18 1.25 1.25-0.18c0.04-0.01 0.14-0.06 0.17-0.09l3.54-3.54c0.21-0.21 0.34-0.4 0.35-0.54 0.02-0.2-0.18-0.44-0.35-0.61-0.16-0.16-0.39-0.35-0.59-0.35z"/>
 <path d="m18.79 15.36c-0.07 0-0.1399-0.01-0.1999-0.03-1.32-0.37-2.3701-1.42-2.7401-2.74-0.11-0.4 0.12-0.81 0.52-0.93 0.4-0.11 0.81 0.12 0.92 0.52 0.23 0.82 0.88 1.47 1.7 1.7 0.4 0.11 0.6301 0.53 0.5201 0.93-0.09 0.34-0.3901 0.55-0.7201 0.55z"/>
</svg>
