<?xml version="1.0" encoding="UTF-8"?>
<svg width="24" height="24" viewBox="0 0 24 24" xmlns="http://www.w3.org/2000/svg">
 <path d="m16.88 20.25c-1.06 0-2.09-0.31-2.97-0.9-0.69-0.42-1.29-1.04-1.73-1.77-0.52-0.85-0.8-1.83-0.8-2.83 0-3.03 2.47-5.5 5.5-5.5 0.42 0 0.83 0.05001 1.22 0.14001 2.48 0.55 4.28 2.8 4.28 5.36 0 1.01-0.27 1.99-0.79 2.84-0.98 1.64-2.79 2.66-4.71 2.66zm0-9.5c-2.21 0-4 1.79-4 4 0 0.73 0.2 1.44 0.58 2.06 0.32 0.53 0.75 0.97 1.25 1.28 0.66 0.44 1.4 0.66 2.17 0.66 1.4 0 2.71-0.74 3.43-1.94 0.38-0.62 0.57-1.33 0.57-2.06 0-1.86-1.31-3.5-3.12-3.9-0.29-0.07-0.58-0.1-0.88-0.1z"/>
 <path d="m16.2 16.67c-0.19 0-0.38-0.07-0.53-0.22l-1.17-1.17c-0.29-0.29-0.29-0.77 0-1.06s0.77-0.29 1.06 0l0.66 0.66 2.01-1.85c0.31-0.28 0.78-0.26 1.06 0.04s0.26 0.78-0.04 1.06l-2.54 2.34c-0.14 0.13-0.33 0.2-0.51 0.2z"/>
 <path d="m10.93 22.75c-0.48 0-0.96001-0.12-1.39-0.36-0.88999-0.5-1.42-1.4-1.42-2.41v-5.35c0-0.51-0.33002-1.26-0.65002-1.65l-3.8-3.99c-0.63-0.65-1.12-1.74-1.12-2.54v-2.33c0-1.61 1.22-2.87 2.77-2.87h13.34c1.53 0 2.77 1.24 2.77 2.77v2.22c0 1.05-0.62 2.23-1.23 2.85l-1.8 1.59c-0.18 0.16-0.43 0.22-0.67 0.17-0.27-0.07-0.56-0.1-0.86-0.1-2.21 0-4 1.79-4 4 0 0.73 0.2 1.44 0.58 2.06 0.32 0.53 0.75 0.97 1.25 1.28 0.22 0.14 0.36 0.38 0.36 0.64v0.34c0 0.79-0.48 1.9-1.28 2.37l-1.38 0.89c-0.44 0.28-0.96 0.42-1.47 0.42zm-5.6-20c-0.71 0-1.27 0.6-1.27 1.37v2.33c0 0.36 0.30002 1.09 0.70002 1.49l3.85 4.05c0.51 0.63 1.02 1.69 1.02 2.64v5.35c0 0.66 0.45998 0.99 0.64998 1.1 0.43 0.24 0.94 0.23 1.33-0.01l1.4-0.9c0.27-0.16 0.54-0.67 0.56-1.03-0.55-0.41-1.03-0.94-1.39-1.54-0.52-0.85-0.8-1.83-0.8-2.83 0-3.03 2.47-5.5 5.5-5.5 0.28 0 0.56 0.02 0.82 0.06l1.48-1.31c0.34-0.35 0.76-1.18 0.76-1.77v-2.22c0-0.7-0.57-1.27-1.27-1.27h-13.34v-0.01001z"/>
</svg>
