<svg width="24" height="24" viewBox="0 0 24 24"  xmlns="http://www.w3.org/2000/svg">
<path opacity="0.4" d="M16.99 10.9302V13.0702C16.99 14.9502 15.95 16.6002 14.41 17.4502C14.24 17.5402 14.06 17.6302 13.87 17.7102C13.59 17.8202 13.3 17.9102 13 17.9702C12.68 18.0302 12.35 18.0702 12.01 18.0702C12 18.0702 12 18.0702 11.99 18.0702C11.65 18.0702 11.32 18.0302 11 17.9702C10.71 17.9102 10.42 17.8202 10.14 17.7102L9.59 17.4502C9.46 17.3702 9.33001 17.3002 9.21001 17.2102C7.89001 16.3202 7.01001 14.8002 7.01001 13.0702V10.9302C7.01001 10.0702 7.23001 9.26017 7.61001 8.55017C7.69001 8.41017 7.77001 8.2702 7.86001 8.1402C7.95001 8.0002 8.05001 7.88018 8.15001 7.75018C8.25001 7.63018 8.36001 7.51018 8.47001 7.40018C8.70001 7.17018 8.95001 6.97019 9.21001 6.79019C9.35001 6.70019 9.48 6.61018 9.63 6.53018C9.75 6.47018 9.88001 6.40018 10.01 6.34018C10.18 6.27018 10.35 6.20019 10.52 6.16019C10.66 6.11019 10.8 6.08017 10.94 6.05017C10.97 6.03017 11.01 6.03017 11.05 6.02017C11.36 5.96017 11.67 5.93018 11.99 5.93018H12.01C12.33 5.93018 12.65 5.96017 12.96 6.02017C12.97 6.03017 12.99 6.03018 13 6.03018C13.16 6.07018 13.32 6.11019 13.48 6.16019C13.64 6.20019 13.79 6.26019 13.94 6.32019C14.09 6.39019 14.24 6.46018 14.38 6.53018C14.8 6.77018 15.19 7.06018 15.53 7.40018C16.43 8.30018 16.99 9.55018 16.99 10.9302Z" />
<path d="M22 9.75C21.59 9.75 21.25 9.41 21.25 9V7C21.25 4.42 19.58 2.75 17 2.75H15C14.59 2.75 14.25 2.41 14.25 2C14.25 1.59 14.59 1.25 15 1.25H17C20.44 1.25 22.75 3.56 22.75 7V9C22.75 9.41 22.41 9.75 22 9.75Z" />
<path d="M2 9.75C1.59 9.75 1.25 9.41 1.25 9V7C1.25 3.56 3.56 1.25 7 1.25H9C9.41 1.25 9.75 1.59 9.75 2C9.75 2.41 9.41 2.75 9 2.75H7C4.42 2.75 2.75 4.42 2.75 7V9C2.75 9.41 2.41 9.75 2 9.75Z" />
<path d="M17 22.75H15C14.59 22.75 14.25 22.41 14.25 22C14.25 21.59 14.59 21.25 15 21.25H17C19.58 21.25 21.25 19.58 21.25 17V15C21.25 14.59 21.59 14.25 22 14.25C22.41 14.25 22.75 14.59 22.75 15V17C22.75 20.44 20.44 22.75 17 22.75Z" />
<path d="M9 22.75H7C3.56 22.75 1.25 20.44 1.25 17V15C1.25 14.59 1.59 14.25 2 14.25C2.41 14.25 2.75 14.59 2.75 15V17C2.75 19.58 4.42 21.25 7 21.25H9C9.41 21.25 9.75 21.59 9.75 22C9.75 22.41 9.41 22.75 9 22.75Z" />
<path d="M12.0001 15.6299C10.6801 15.6299 9.6001 14.5499 9.6001 13.2299V10.7599C9.6001 9.43989 10.6801 8.35986 12.0001 8.35986C13.3201 8.35986 14.4001 9.43989 14.4001 10.7599V13.2299C14.4001 14.5599 13.3201 15.6299 12.0001 15.6299ZM12.0001 9.86987C11.5101 9.86987 11.1001 10.2699 11.1001 10.7699V13.2399C11.1001 13.7399 11.5001 14.1399 12.0001 14.1399C12.5001 14.1399 12.9001 13.7399 12.9001 13.2399V10.7699C12.9001 10.2699 12.4901 9.86987 12.0001 9.86987Z" />
</svg>
