<?xml version="1.0" encoding="UTF-8"?>
<svg width="24" height="24" viewBox="0 0 24 24" xmlns="http://www.w3.org/2000/svg">
 <path d="m12 22.75c-5.93 0-10.75-4.82-10.75-10.75s4.82-10.75 10.75-10.75 10.75 4.82 10.75 10.75-4.82 10.75-10.75 10.75zm0-20c-5.1 0-9.25 4.15-9.25 9.25s4.15 9.25 9.25 9.25 9.25-4.15 9.25-9.25-4.15-9.25-9.25-9.25z"/>
 <path d="m12 15.63c-1.32 0-2.4-1.08-2.4-2.4v-2.47c0-1.32 1.08-2.4 2.4-2.4s2.4 1.08 2.4 2.4v2.47c0 1.33-1.08 2.4-2.4 2.4zm0-5.76c-0.49 0-0.9 0.40003-0.9 0.90003v2.47c0 0.5 0.4 0.9 0.9 0.9s0.9-0.4 0.9-0.9v-2.47c0-0.5-0.41-0.90003-0.9-0.90003z"/>
 <path d="m12 18.82c-3.17 0-5.75-2.58-5.75-5.75v-2.14c0-3.17 2.58-5.75 5.75-5.75 2.96 0 5.42 2.22 5.72 5.16 0.04 0.41-0.26 0.78-0.67 0.82-0.41 0.05-0.78-0.26-0.82-0.67-0.22-2.17-2.04-3.81-4.23-3.81-2.34 0-4.25 1.91-4.25 4.25v2.14c0 2.34 1.91 4.25 4.25 4.25 2.2 0 4.06-1.72 4.24-3.91 0.03-0.41 0.39-0.72 0.81-0.69 0.41 0.03 0.72 0.39 0.69 0.81-0.24 2.97-2.76 5.29-5.74 5.29z"/>
</svg>
