<?xml version="1.0" encoding="UTF-8"?>
<svg width="24" height="24" viewBox="0 0 24 24" xmlns="http://www.w3.org/2000/svg">
 <path d="m21 5.25h-7c-0.41 0-0.75-0.34-0.75-0.75s0.34-0.75 0.75-0.75h7c0.41 0 0.75 0.34 0.75 0.75s-0.34 0.75-0.75 0.75z"/>
 <path d="m21 10.25h-7c-0.41 0-0.75-0.34-0.75-0.75s0.34-0.75 0.75-0.75h7c0.41 0 0.75 0.34 0.75 0.75s-0.34 0.75-0.75 0.75z"/>
 <path d="m21 15.25h-18c-0.41 0-0.75-0.34-0.75-0.75s0.34-0.75 0.75-0.75h18c0.41 0 0.75 0.34 0.75 0.75s-0.34 0.75-0.75 0.75z"/>
 <path d="m21 20.25h-18c-0.41 0-0.75-0.34-0.75-0.75s0.34-0.75 0.75-0.75h18c0.41 0 0.75 0.34 0.75 0.75s-0.34 0.75-0.75 0.75z"/>
 <path d="m7.92 10.75h-2.84c-1.54 0-2.33-0.78-2.33-2.33v-2.84c0-1.54 0.78-2.33 2.33-2.33h2.85c1.54 0 2.33 0.78 2.33 2.33v2.85c-0.01 1.54-0.79 2.32-2.34 2.32zm-2.84-6c-0.71 0-0.83 0.12-0.83 0.83v2.85c0 0.71 0.12 0.83 0.83 0.83h2.85c0.71 0 0.83-0.12 0.83-0.83v-2.85c0-0.71-0.12-0.83-0.83-0.83h-2.85z"/>
</svg>
