<svg width="24" height="24" viewBox="0 0 24 24"  xmlns="http://www.w3.org/2000/svg">
<path d="M6.44995 22C6.03995 22 5.69995 21.66 5.69995 21.25V2.75C5.69995 2.34 6.03995 2 6.44995 2C6.85995 2 7.19995 2.34 7.19995 2.75V21.25C7.19995 21.66 6.85995 22 6.44995 22Z" />
<path opacity="0.4" d="M15.2001 7.15998L7.10008 3.65998C6.98008 3.59998 6.85008 3.61998 6.74008 3.68998C6.64008 3.75998 6.58008 3.86998 6.58008 3.99998V17C6.58008 17.13 6.65008 17.25 6.76008 17.32C6.82008 17.36 6.89008 17.38 6.96008 17.38C7.02008 17.38 7.07008 17.37 7.13008 17.34L15.4301 13.24C15.4301 13.24 15.4301 13.24 15.4401 13.24C17.1001 12.38 17.9901 11.27 17.9401 10.1C17.8801 8.91998 16.9101 7.87998 15.2001 7.15998Z" />
</svg>
