<?xml version="1.0" encoding="UTF-8"?>
<svg width="24" height="24" viewBox="0 0 24 24" xmlns="http://www.w3.org/2000/svg">
 <path d="m5.1499 22.75c-0.41 0-0.75-0.34-0.75-0.75v-20c0-0.41 0.34-0.75 0.75-0.75s0.75 0.34 0.75 0.75v20c0 0.41-0.34 0.75-0.75 0.75z"/>
 <path d="m16.35 16.75h-11.2c-0.41 0-0.75-0.34-0.75-0.75s0.34-0.75 0.75-0.75h11.2c1.09 0 1.6-0.29 1.7-0.54s-0.05-0.81-0.83-1.58l-1.2-1.2c-0.49-0.43-0.79-1.08-0.82-1.8-0.03-0.76 0.27-1.51 0.82-2.06l1.2-1.2c0.74-0.74 0.97-1.34 0.86-1.6s-0.68-0.52-1.73-0.52h-11.2c-0.42 0-0.75-0.34-0.75-0.75s0.34-0.75 0.75-0.75h11.2c2.19 0 2.89 0.91 3.12 1.45 0.22 0.54 0.37 1.68-1.19 3.24l-1.2 1.2c-0.25 0.25-0.39 0.6-0.38 0.95 0.01 0.3 0.13 0.57 0.34 0.76l1.24 1.23c1.53 1.53 1.38 2.67 1.16 3.22-0.23 0.53-0.94 1.45-3.09 1.45z"/>
</svg>
