<?xml version="1.0" encoding="UTF-8"?>
<svg width="24" height="24" viewBox="0 0 24 24" xmlns="http://www.w3.org/2000/svg">
 <path d="m6.4502 22.75c-0.41 0-0.75-0.34-0.75-0.75v-20c0-0.41 0.34-0.75 0.75-0.75s0.75 0.34 0.75 0.75v20c0 0.41-0.34 0.75-0.75 0.75z"/>
 <path d="m6.95 17.75c-0.28 0-0.54-0.15-0.67-0.42-0.18-0.37-0.03-0.82 0.34-1l8.3-4.1c1.22-0.63 1.91-1.39 1.88-2.1-0.03-0.69004-0.77-1.4-2.04-1.94l-8.1-3.5c-0.39-0.17-0.56-0.61-0.4-0.99s0.61-0.56 0.99-0.39l8.1 3.5c2.5 1.06 2.92 2.5 2.95 3.26 0.05 1.33-0.91 2.57-2.7 3.49l-8.31 4.11c-0.11 0.06-0.23 0.08-0.34 0.08z"/>
</svg>
