<svg width="24" height="24" viewBox="0 0 24 24"  xmlns="http://www.w3.org/2000/svg">
<path d="M6.4502 22.75C6.0402 22.75 5.7002 22.41 5.7002 22V2C5.7002 1.59 6.0402 1.25 6.4502 1.25C6.8602 1.25 7.2002 1.59 7.2002 2V22C7.2002 22.41 6.8602 22.75 6.4502 22.75Z" />
<path d="M6.95005 17.7504C6.67005 17.7504 6.41005 17.6004 6.28005 17.3304C6.10005 16.9604 6.25005 16.5104 6.62005 16.3304L14.92 12.2304C16.14 11.6004 16.83 10.8404 16.8 10.1304C16.77 9.44036 16.03 8.73036 14.76 8.19036L6.66005 4.69036C6.27005 4.52036 6.10005 4.08036 6.26005 3.70036C6.42005 3.32036 6.87005 3.14036 7.25005 3.31036L15.35 6.81036C17.85 7.87036 18.27 9.31036 18.3 10.0704C18.35 11.4004 17.39 12.6404 15.6 13.5604L7.29005 17.6704C7.18005 17.7304 7.06005 17.7504 6.95005 17.7504Z" />
</svg>
