<svg width="24" height="24" viewBox="0 0 24 24"  xmlns="http://www.w3.org/2000/svg">
<path d="M9.99018 22.75C9.79018 22.75 9.63018 22.71 9.51018 22.66C9.11018 22.51 8.43018 22.02 8.43018 20.47V18.03C8.43018 17.62 8.77018 17.28 9.18018 17.28C9.59018 17.28 9.93018 17.62 9.93018 18.03V20.47C9.93018 20.97 10.0202 21.19 10.0602 21.25C10.0902 21.21 10.3002 21.11 10.6302 20.73L18.2002 12.13C18.4802 11.81 18.5202 11.61 18.5202 11.57C18.5002 11.56 18.3202 11.46 17.9002 11.46H16.9702C16.5602 11.46 16.2202 11.12 16.2202 10.71C16.2202 10.3 16.5602 9.95996 16.9702 9.95996H17.9002C19.2402 9.95996 19.7202 10.59 19.8902 10.96C20.0602 11.34 20.2102 12.11 19.3302 13.12L11.7602 21.72C11.0502 22.54 10.4302 22.75 9.99018 22.75Z" />
<path d="M9.18008 15.2201C8.77008 15.2201 8.43008 14.8801 8.43008 14.4701V14.0401H6.09008C4.75008 14.0401 4.27008 13.4101 4.10008 13.0401C3.93008 12.6601 3.78008 11.8901 4.66008 10.8801L12.2301 2.28015C13.2501 1.12015 14.0801 1.20015 14.4801 1.35015C14.8801 1.50015 15.5601 1.99015 15.5601 3.54015V8.85015C15.5601 9.26015 15.2201 9.60015 14.8101 9.60015C14.4001 9.60015 14.0601 9.26015 14.0601 8.85015V3.52015C14.0601 3.02015 13.9701 2.80015 13.9301 2.74015C13.9001 2.78015 13.6901 2.88015 13.3601 3.26015L5.79008 11.8601C5.51008 12.1801 5.47008 12.3801 5.47008 12.4201C5.49008 12.4301 5.67008 12.5301 6.09008 12.5301H9.18008C9.59008 12.5301 9.93008 12.8701 9.93008 13.2801V14.4601C9.93008 14.8801 9.59008 15.2201 9.18008 15.2201Z" />
<path d="M1.99994 22.7504C1.80994 22.7504 1.61994 22.6804 1.46994 22.5304C1.17994 22.2404 1.17994 21.7604 1.46994 21.4704L21.4699 1.47043C21.7599 1.18043 22.2399 1.18043 22.5299 1.47043C22.8199 1.76043 22.8199 2.24043 22.5299 2.53043L2.52994 22.5304C2.37994 22.6804 2.18994 22.7504 1.99994 22.7504Z" />
</svg>
