<svg width="24" height="24" viewBox="0 0 24 24"  xmlns="http://www.w3.org/2000/svg">
<path d="M11.0698 18.1696C10.8998 18.1696 10.7398 18.1396 10.5698 18.0796C10.0198 17.8696 9.65983 17.3596 9.65983 16.7696V13.4696H8.67983C8.11983 13.4696 7.62983 13.1496 7.39983 12.6496C7.16983 12.1396 7.25983 11.5696 7.62983 11.1496L11.8898 6.30963C12.2798 5.86963 12.8798 5.71963 13.4298 5.92963C13.9798 6.13963 14.3398 6.64963 14.3398 7.23963V10.5396H15.3298C15.8898 10.5396 16.3798 10.8596 16.6098 11.3596C16.8398 11.8696 16.7498 12.4396 16.3798 12.8596L12.1198 17.6996C11.8398 17.9996 11.4598 18.1696 11.0698 18.1696ZM8.89983 11.9696H10.4098C10.8198 11.9696 11.1598 12.3096 11.1598 12.7196V16.4996L15.0998 12.0296H13.5898C13.1798 12.0296 12.8398 11.6896 12.8398 11.2796V7.49963L8.89983 11.9696Z" />
<path d="M11.9702 22.75C6.05021 22.75 1.22021 17.93 1.22021 12C1.22021 6.07 6.05021 1.25 11.9702 1.25C17.8902 1.25 22.7202 6.07 22.7202 12C22.7202 17.93 17.9002 22.75 11.9702 22.75ZM11.9702 2.75C6.87021 2.75 2.72021 6.9 2.72021 12C2.72021 17.1 6.87021 21.25 11.9702 21.25C17.0702 21.25 21.2202 17.1 21.2202 12C21.2202 6.9 17.0702 2.75 11.9702 2.75Z" />
</svg>
