<?xml version="1.0" encoding="UTF-8"?>
<svg width="24" height="24" viewBox="0 0 24 24" xmlns="http://www.w3.org/2000/svg">
 <path d="m11.07 18.17c-0.17 0-0.33-0.03-0.5-0.09-0.55-0.21-0.90997-0.72-0.90997-1.31v-3.3h-0.98c-0.56 0-1.05-0.32-1.28-0.82-0.23-0.51-0.14-1.08 0.23-1.5l4.26-4.84c0.39-0.44 0.99-0.59 1.54-0.38s0.91 0.72 0.91 1.31v3.3h0.99c0.56 0 1.05 0.32 1.28 0.82 0.23 0.51 0.14 1.08-0.23 1.5l-4.26 4.84c-0.28 0.3-0.66 0.47-1.05 0.47zm-2.17-6.2h1.51c0.41 0 0.75 0.34 0.75 0.75v3.78l3.94-4.47h-1.51c-0.41 0-0.75-0.34-0.75-0.75v-3.78l-3.94 4.47z"/>
 <path d="m11.97 22.75c-5.92 0-10.75-4.82-10.75-10.75s4.83-10.75 10.75-10.75c5.92 0 10.75 4.82 10.75 10.75s-4.82 10.75-10.75 10.75zm0-20c-5.1 0-9.25 4.15-9.25 9.25s4.15 9.25 9.25 9.25c5.1 0 9.25-4.15 9.25-9.25s-4.15-9.25-9.25-9.25z"/>
</svg>
