<?xml version="1.0" encoding="UTF-8"?>
<svg width="24" height="24" viewBox="0 0 24 24" xmlns="http://www.w3.org/2000/svg">
 <path d="m9.9902 22.75c-0.2 0-0.36-0.04-0.48-0.09-0.4-0.15-1.08-0.64-1.08-2.19v-2.44c0-0.41 0.34-0.75 0.75-0.75s0.75 0.34 0.75 0.75v2.44c0 0.5 0.09002 0.72 0.13002 0.78 0.03-0.04 0.24-0.14 0.57-0.52l7.57-8.6c0.28-0.32 0.32-0.52 0.32-0.56-0.02-0.01-0.2-0.11-0.62-0.11h-0.93c-0.41 0-0.75-0.34-0.75-0.75s0.34-0.75004 0.75-0.75004h0.93c1.34 0 1.82 0.63004 1.99 1 0.17 0.38 0.32 1.15-0.56 2.16l-7.57 8.6c-0.71 0.82-1.33 1.03-1.77 1.03z"/>
 <path d="m9.1801 15.22c-0.41 0-0.75-0.34-0.75-0.75v-0.43h-2.34c-1.34 0-1.82-0.63-1.99-1-0.17-0.38-0.32-1.15 0.56-2.16l7.57-8.6c1.02-1.16 1.85-1.08 2.25-0.93s1.08 0.64 1.08 2.19v5.31c0 0.41-0.34 0.75-0.75 0.75s-0.75-0.34-0.75-0.75v-5.33c0-0.5-0.09-0.72-0.13-0.78-0.03 0.04-0.24 0.14-0.57 0.52l-7.57 8.6c-0.28 0.32-0.32 0.52-0.32 0.56 0.02 0.01 0.2 0.11 0.62 0.11h3.09c0.41 0 0.75 0.34 0.75 0.75v1.18c0 0.42-0.34 0.76-0.75 0.76z"/>
 <path d="m1.9999 22.75c-0.19 0-0.38-0.07-0.53-0.22-0.29-0.29-0.29-0.77 0-1.06l20-20c0.29-0.29 0.77-0.29 1.06 0s0.29 0.77 0 1.06l-20 20c-0.15 0.15-0.34 0.22-0.53 0.22z"/>
</svg>
