<?xml version="1.0" encoding="UTF-8"?>
<svg width="24" height="24" viewBox="0 0 24 24" xmlns="http://www.w3.org/2000/svg">
 <path d="m12 22.75c-5.93 0-10.75-4.82-10.75-10.75s4.82-10.75 10.75-10.75 10.75 4.82 10.75 10.75-4.82 10.75-10.75 10.75zm0-20c-5.1 0-9.25 4.15-9.25 9.25s4.15 9.25 9.25 9.25 9.25-4.15 9.25-9.25-4.15-9.25-9.25-9.25z"/>
 <path d="m9.71 17.84c-0.29 0-0.50998-0.0999-0.63998-0.1999-0.27-0.18-0.68001-0.6401-0.42001-1.6701l0.77002-3.11-0.92002-0.23c-0.93-0.23-1.14-0.82-1.18-1.06s-0.06-0.8699 0.72-1.4199l5.18-3.5901c0.87-0.6 1.44-0.38001 1.71-0.20001s0.68 0.64005 0.42 1.67l-0.77 3.11 0.92 0.2299c0.93 0.23 1.14 0.82 1.18 1.07s0.06 0.87-0.72 1.42l-5.18 3.59c-0.43 0.29-0.78 0.39-1.07 0.39zm-0.6-6.6 1.4001 0.3501c0.4 0.1 0.6499 0.5099 0.5499 0.9099l-0.88 3.5401 4.7101-3.27-1.4001-0.35c-0.4-0.1-0.65-0.5101-0.55-0.9101l0.8801-3.54-4.7101 3.27z"/>
</svg>
