<?xml version="1.0" encoding="UTF-8"?>
<svg width="24" height="24" viewBox="0 0 24 24" xmlns="http://www.w3.org/2000/svg">
 <path d="m13.57 22.38c-0.23 0-0.46-0.04-0.68-0.12-0.75-0.28-1.23-0.98-1.23-1.78v-6.45h-2.34c-0.76 0-1.42-0.43-1.73-1.12s-0.19-1.47 0.31-2.04l7.57-8.6c0.53-0.6 1.35-0.81 2.1-0.52 0.75 0.28 1.2299 0.98 1.2299 1.78v6.45h2.3401c0.76 0 1.42 0.43004 1.73 1.12s0.19 1.47-0.31 2.04l-7.57 8.6c-0.37 0.42-0.89 0.64-1.42 0.64zm3.31-19.26c-0.09 0-0.2 0.03-0.29 0.14l-7.57 8.61c-0.16 0.18-0.09998 0.36-0.06998 0.43s0.13 0.24 0.37 0.24h3.09c0.41 0 0.75 0.34 0.75 0.75v7.2c0 0.25 0.18 0.35 0.26 0.38s0.2799 0.08 0.4399-0.11l7.5701-8.61c0.16-0.18 0.1-0.36 0.07-0.43s-0.13-0.24-0.37-0.24h-3.09c-0.41 0-0.75-0.34-0.75-0.75v-7.2c0-0.25-0.18-0.35-0.26-0.38-0.03-0.02-0.09-0.03-0.15-0.03z"/>
 <path d="m8.5 4.75h-7c-0.41 0-0.75-0.34-0.75-0.75s0.34-0.75 0.75-0.75h7c0.41 0 0.75 0.34 0.75 0.75s-0.34 0.75-0.75 0.75z"/>
 <path d="m7.5 20.75h-6c-0.41 0-0.75-0.34-0.75-0.75s0.34-0.75 0.75-0.75h6c0.41 0 0.75 0.34 0.75 0.75s-0.34 0.75-0.75 0.75z"/>
 <path d="m4.5 12.75h-3c-0.41 0-0.75-0.34-0.75-0.75s0.34-0.75 0.75-0.75h3c0.41 0 0.75 0.34 0.75 0.75s-0.34 0.75-0.75 0.75z"/>
</svg>
