<svg width="24" height="24" viewBox="0 0 24 24"  xmlns="http://www.w3.org/2000/svg">
<path opacity="0.4" d="M12 22C17.5228 22 22 17.5228 22 12C22 6.47715 17.5228 2 12 2C6.47715 2 2 6.47715 2 12C2 17.5228 6.47715 22 12 22Z" />
<path d="M8.67987 11.9098L10.3299 12.3198L9.37988 16.1598C9.15988 17.0598 9.59986 17.3599 10.3599 16.8299L15.5399 13.2398C16.1699 12.7998 16.0799 12.2898 15.3299 12.0998L13.6799 11.6898L14.6299 7.84981C14.8499 6.94981 14.4099 6.64983 13.6499 7.17983L8.46988 10.7699C7.83988 11.2099 7.92987 11.7198 8.67987 11.9098Z" />
</svg>
