<svg width="24" height="24" viewBox="0 0 24 24"  xmlns="http://www.w3.org/2000/svg">
<path d="M9.98994 22.75C9.78994 22.75 9.62994 22.71 9.50994 22.66C9.10994 22.51 8.42994 22.02 8.42994 20.47V18.03C8.42994 17.62 8.76994 17.28 9.17994 17.28C9.58994 17.28 9.92994 17.62 9.92994 18.03V20.47C9.92994 20.97 10.0199 21.19 10.0599 21.25C10.0899 21.21 10.2999 21.11 10.6299 20.73L18.1999 12.13C18.4799 11.81 18.5199 11.61 18.5199 11.57C18.4999 11.56 18.3199 11.46 17.8999 11.46H16.9699C16.5599 11.46 16.2199 11.12 16.2199 10.71C16.2199 10.3 16.5599 9.96 16.9699 9.96H17.8999C19.2399 9.96 19.7199 10.59 19.8899 10.96C20.0599 11.34 20.2099 12.11 19.3299 13.12L11.7599 21.72C11.0499 22.54 10.4299 22.75 9.98994 22.75Z" />
<path d="M9.17994 15.22C8.76994 15.22 8.42994 14.88 8.42994 14.47V14.04H6.08994C4.74994 14.04 4.26994 13.41 4.09994 13.04C3.92994 12.66 3.77994 11.89 4.65994 10.88L12.2299 2.28C13.2499 1.12 14.0799 1.2 14.4799 1.35C14.8799 1.5 15.5599 1.99 15.5599 3.54V8.85C15.5599 9.26 15.2199 9.6 14.8099 9.6C14.3999 9.6 14.0599 9.26 14.0599 8.85V3.52C14.0599 3.02 13.9699 2.8 13.9299 2.74C13.8999 2.78 13.6899 2.88 13.3599 3.26L5.78994 11.86C5.50994 12.18 5.46994 12.38 5.46994 12.42C5.48994 12.43 5.66994 12.53 6.08994 12.53H9.17994C9.58994 12.53 9.92994 12.87 9.92994 13.28V14.46C9.92994 14.88 9.58994 15.22 9.17994 15.22Z" />
<path d="M1.99994 22.75C1.80994 22.75 1.61994 22.68 1.46994 22.53C1.17994 22.24 1.17994 21.76 1.46994 21.47L21.4699 1.47C21.7599 1.18 22.2399 1.18 22.5299 1.47C22.8199 1.76 22.8199 2.24 22.5299 2.53L2.52994 22.53C2.37994 22.68 2.18994 22.75 1.99994 22.75Z" />
</svg>
