<?xml version="1.0" encoding="UTF-8"?>
<svg width="24" height="24" viewBox="0 0 24 24" xmlns="http://www.w3.org/2000/svg">
 <path d="m9.9901 22.75c-0.2 0-0.36-0.04-0.48-0.09-0.4-0.15-1.08-0.64-1.08-2.19v-6.45h-2.34c-1.34 0-1.82-0.63-1.99-1-0.17-0.38-0.32-1.15 0.56-2.16l7.57-8.6c1.02-1.16 1.85-1.08 2.25-0.93s1.08 0.64 1.08 2.19v6.45h2.34c1.34 0 1.82 0.62996 1.99 0.99996 0.17 0.38 0.32 1.15-0.56 2.16l-7.57 8.6c-0.71 0.81-1.33 1.02-1.77 1.02zm3.94-20.01c-0.03 0.04-0.24 0.14-0.57 0.52l-7.57 8.6c-0.28 0.32-0.32 0.52-0.32 0.56 0.02 0.01 0.2 0.11 0.62 0.11h3.09c0.41 0 0.75 0.34 0.75 0.75v7.2c0 0.5 0.09002 0.72 0.13002 0.78 0.03-0.04 0.24-0.14 0.57-0.52l7.57-8.6c0.28-0.32 0.32-0.52 0.32-0.56-0.02-0.01-0.2-0.11-0.62-0.11h-3.09c-0.41 0-0.75-0.34-0.75-0.75v-7.2c0.01-0.5-0.09-0.71-0.13-0.78z"/>
</svg>
