<?xml version="1.0" encoding="UTF-8"?>
<svg width="24" height="24" viewBox="0 0 24 24" xmlns="http://www.w3.org/2000/svg">
 <path d="m12 17.88c-0.25 0-0.51-0.09-0.71-0.27l-2.58-2.26c-0.97-0.85-1.1-2.31-0.29-3.32 0.82-1.02 2.28-1.21 3.33-0.42l0.25 0.19 0.26-0.2c1.05-0.79 2.51-0.6 3.33 0.42 0.81 1.01 0.68 2.47-0.29 3.32l-2.58 2.26c-0.21 0.19-0.47 0.28-0.72 0.28zm-2.31-3.66 2.31 2.02 2.31-2.02c0.37-0.32 0.42-0.87 0.11-1.25-0.31-0.39-0.86-0.46-1.26-0.16l-0.71 0.53c-0.27 0.2-0.63 0.2-0.9 0l-0.71-0.53c-0.39-0.3-0.95005-0.23-1.26 0.16-0.3 0.38-0.25 0.93 0.11 1.25z"/>
 <path d="m17 22.75h-10c-4.41 0-5.75-1.34-5.75-5.75v-10c0-4.41 1.34-5.75 5.75-5.75h1.5c1.75 0 2.3 0.57 3 1.5l1.5 2c0.33 0.44 0.38 0.5 1 0.5h3c4.41 0 5.75 1.34 5.75 5.75v6c0 4.41-1.34 5.75-5.75 5.75zm-10-20c-3.58 0-4.25 0.68-4.25 4.25v10c0 3.57 0.67 4.25 4.25 4.25h10c3.58 0 4.25-0.68 4.25-4.25v-6c0-3.57-0.67-4.25-4.25-4.25h-3c-1.28 0-1.7-0.44-2.2-1.1l-1.5-2c-0.52-0.69-0.68-0.9-1.8-0.9h-1.5z"/>
</svg>
