<?xml version="1.0" encoding="UTF-8"?>
<svg width="24" height="24" viewBox="0 0 24 24" xmlns="http://www.w3.org/2000/svg">
 <path d="m13.81 16.48c-0.19 0-0.38-0.07-0.53-0.22l-3.54-3.54c-0.29-0.29-0.29-0.77 0-1.06 0.29004-0.29 0.77004-0.29 1.06 0l3.54 3.54c0.29 0.29 0.29 0.77 0 1.06-0.15 0.14-0.34 0.22-0.53 0.22z"/>
 <path d="m10.23 16.52c-0.19 0-0.37998-0.07-0.52998-0.22-0.29-0.29-0.29-0.77 0-1.06l3.54-3.54c0.29-0.29 0.77-0.29 1.06 0s0.29 0.77 0 1.06l-3.54 3.54c-0.14 0.14-0.34 0.22-0.53 0.22z"/>
 <path d="m17 22.75h-10c-4.41 0-5.75-1.34-5.75-5.75v-10c0-4.41 1.34-5.75 5.75-5.75h1.5c1.75 0 2.3 0.57 3 1.5l1.5 2c0.33 0.44 0.38 0.5 1 0.5h3c4.41 0 5.75 1.34 5.75 5.75v6c0 4.41-1.34 5.75-5.75 5.75zm-10-20c-3.57 0-4.25 0.68-4.25 4.25v10c0 3.57 0.68 4.25 4.25 4.25h10c3.57 0 4.25-0.68 4.25-4.25v-6c0-3.57-0.68-4.25-4.25-4.25h-3c-1.28 0-1.7-0.44-2.2-1.1l-1.5-2c-0.52-0.69-0.67-0.9-1.8-0.9h-1.5z"/>
</svg>
