<svg width="24" height="24" viewBox="0 0 24 24"  xmlns="http://www.w3.org/2000/svg">
<path d="M21.06 11.8201L20.9 11.6001C20.62 11.2601 20.29 10.9901 19.91 10.7901C19.4 10.5001 18.82 10.3501 18.22 10.3501H5.76995C5.16995 10.3501 4.59995 10.5001 4.07995 10.7901C3.68995 11.0001 3.33995 11.2901 3.04995 11.6501C2.47995 12.3801 2.20995 13.2801 2.29995 14.1801L2.66995 18.8501C2.79995 20.2601 2.96995 22.0001 6.13995 22.0001H17.86C21.03 22.0001 21.19 20.2601 21.33 18.8401L21.7 14.1901C21.79 13.3501 21.57 12.5101 21.06 11.8201ZM14.39 17.3401H9.59995C9.20995 17.3401 8.89995 17.0201 8.89995 16.6401C8.89995 16.2601 9.20995 15.9401 9.59995 15.9401H14.39C14.78 15.9401 15.09 16.2601 15.09 16.6401C15.09 17.0301 14.78 17.3401 14.39 17.3401Z" />
<path opacity="0.4" d="M3.37988 11.31C3.59988 11.11 3.81988 10.93 4.07988 10.79C4.58988 10.5 5.16988 10.35 5.76988 10.35H18.2299C18.8299 10.35 19.3999 10.5 19.9199 10.79C20.1799 10.93 20.4099 11.11 20.6199 11.32V10.79V9.82C20.6199 6.25 19.5299 5.16 15.9599 5.16H13.5799C13.1399 5.16 13.1299 5.15 12.8699 4.81L11.6699 3.2C11.0999 2.46 10.6499 2 9.21988 2H8.03988C4.46988 2 3.37988 3.09 3.37988 6.66V10.8V11.31Z" />
</svg>
