<?xml version="1.0" encoding="UTF-8"?>
<svg width="24" height="24" viewBox="0 0 24 24" xmlns="http://www.w3.org/2000/svg">
 <path d="m9 22.75h-2c-4.41 0-5.75-1.34-5.75-5.75v-10c0-4.41 1.34-5.75 5.75-5.75h1.5c1.75 0 2.3 0.57 3 1.5l1.5 2c0.33 0.44 0.38 0.5 1 0.5h3c4.41 0 5.75 1.34 5.75 5.75v2c0 0.41-0.34 0.75-0.75 0.75s-0.75-0.34-0.75-0.75v-2c0-3.57-0.67-4.25-4.25-4.25h-3c-1.28 0-1.7-0.44001-2.2-1.1l-1.5-2c-0.52001-0.69-0.68-0.89999-1.8-0.89999h-1.5c-3.58 0-4.25 0.68-4.25 4.25v10c0 3.57 0.67 4.25 4.25 4.25h2c0.41 0 0.75 0.34 0.75 0.75s-0.34 0.75-0.75 0.75z"/>
 <path d="m19.34 22.81h-0.0301-5.56c-1.67-0.12-2.51-1.4-2.51-2.62 0-0.98 0.55-2.01 1.61-2.43-0.22-1.25 0.1001-2.41 0.9301-3.28 1.02-1.07 2.6599-1.5 4.0799-1.07 1.24 0.38 2.13 1.36 2.5 2.72 1.05 0.32 1.8801 1.15 2.2201 2.28 0.4 1.31 0.0299 2.65-0.9601 3.51-0.6 0.57-1.4199 0.89-2.2799 0.89zm-5.5501-3.74c-0.76 0.07-1.04 0.64-1.04 1.12s0.28 1.06 1.06 1.12h5.5101c0.48 0.04 0.96-0.18 1.32-0.5 0.65-0.57 0.6899-1.38 0.5199-1.96s-0.6699-1.23-1.5099-1.34c-0.33-0.04-0.5901-0.29-0.6501-0.62-0.22-1.35-0.98-1.85-1.57-2.04-0.88-0.27-1.92 0.01-2.55 0.67-0.43 0.45-0.85 1.26-0.38 2.55 0.14 0.39-0.06 0.82-0.45 0.96-0.09 0.03-0.18 0.04-0.26 0.04z"/>
</svg>
