<?xml version="1.0" encoding="UTF-8"?>
<svg width="24" height="24" viewBox="0 0 24 24" xmlns="http://www.w3.org/2000/svg">
 <path d="m17 22.75h-10c-4.41 0-5.75-1.34-5.75-5.75v-10c0-4.41 1.34-5.75 5.75-5.75h1.5c1.75 0 2.3 0.57 3 1.5l1.5 2c0.33 0.44 0.38 0.5 1 0.5h3c4.41 0 5.75 1.34 5.75 5.75v6c0 4.41-1.34 5.75-5.75 5.75zm-10-20c-3.58 0-4.25 0.68-4.25 4.25v10c0 3.57 0.67 4.25 4.25 4.25h10c3.58 0 4.25-0.68 4.25-4.25v-6c0-3.57-0.67-4.25-4.25-4.25h-3c-1.28 0-1.7-0.44-2.2-1.1l-1.5-2c-0.52-0.69-0.68-0.9-1.8-0.9h-1.5z"/>
 <path d="m20 7.13c-0.41 0-0.75-0.34-0.75-0.75v-1.38c0-1.58-0.67-2.25-2.25-2.25h-9c-0.41 0-0.75-0.34-0.75-0.75s0.34-0.75 0.75-0.75h9c2.42 0 3.75 1.33 3.75 3.75v1.38c0 0.41-0.34 0.75-0.75 0.75z"/>
</svg>
