<?xml version="1.0" encoding="UTF-8"?>
<svg width="24" height="24" viewBox="0 0 24 24" xmlns="http://www.w3.org/2000/svg">
 <path d="m18.29 22.75h-12.58c-3.4 0-3.58-1.87-3.73-3.38l-0.4-5.01c-0.09-0.97 0.19-1.94 0.81-2.72 0.74-0.9 1.79-1.39 2.92-1.39h13.38c1.11 0 2.16 0.49 2.8699 1.34l0.17 0.23c0.5401 0.74 0.7801 1.64 0.6901 2.55l-0.4 4.99c-0.15 1.52-0.33 3.39-3.73 3.39zm-12.98-11c-0.67 0-1.31 0.3-1.73 0.82l-0.07 0.07c-0.32 0.41-0.49 0.99-0.43 1.59l0.4 5.01c0.14 1.46 0.2 2.01 2.23 2.01h12.58c2.04 0 2.09-0.55 2.23-2.02l0.4-5.01c0.0599-0.59-0.1101-1.18-0.5-1.64l-0.1-0.12c-0.4501-0.47-1.02-0.71-1.64-0.71h-13.37z"/>
 <path d="m20.5 12.22c-0.41 0-0.75-0.34-0.75-0.75v-1.79c0-2.98-0.52-3.5-3.5-3.5h-2.55c-1.13 0-1.52-0.4-1.95-0.97l-1.29-1.71c-0.44-0.58-0.54-0.72-1.44-0.72h-1.27c-2.98 0-3.5 0.52-3.5 3.5v5.15c0 0.41-0.34 0.75-0.75 0.75s-0.75-0.34-0.75-0.75v-5.15c0-3.83 1.17-5 5-5h1.28c1.54 0 2.02 0.5 2.64 1.32l1.28 1.7c0.27 0.36 0.29 0.38 0.76 0.38h2.55c3.83 0 5 1.17 5 5v1.79c-0.01 0.41-0.35 0.75-0.76 0.75z"/>
 <path d="m14.57 17.75h-5.14c-0.41 0-0.75-0.34-0.75-0.75s0.34-0.75 0.75-0.75h5.14c0.41 0 0.75 0.34 0.75 0.75s-0.33 0.75-0.75 0.75z"/>
</svg>
