<svg width="24" height="24" viewBox="0 0 24 24"  xmlns="http://www.w3.org/2000/svg">
<path d="M18.29 22.7503H5.70995C2.30995 22.7503 2.12995 20.8803 1.97995 19.3703L1.57995 14.3603C1.48995 13.3903 1.76995 12.4203 2.38995 11.6403C3.12995 10.7403 4.17995 10.2503 5.30995 10.2503H18.69C19.8 10.2503 20.8499 10.7403 21.5599 11.5903L21.7299 11.8203C22.2699 12.5603 22.51 13.4603 22.42 14.3703L22.02 19.3603C21.87 20.8803 21.69 22.7503 18.29 22.7503ZM5.30995 11.7503C4.63995 11.7503 3.99995 12.0503 3.57995 12.5703L3.50995 12.6403C3.18995 13.0503 3.01995 13.6303 3.07995 14.2303L3.47995 19.2403C3.61995 20.7003 3.67995 21.2503 5.70995 21.2503H18.29C20.33 21.2503 20.38 20.7003 20.52 19.2303L20.92 14.2203C20.98 13.6303 20.81 13.0403 20.42 12.5803L20.32 12.4603C19.87 11.9903 19.3 11.7503 18.68 11.7503H5.30995Z" />
<path d="M20.5 12.2203C20.09 12.2203 19.75 11.8803 19.75 11.4703V9.68027C19.75 6.70027 19.2299 6.18027 16.2499 6.18027H13.6999C12.5699 6.18027 12.1799 5.78027 11.7499 5.21027L10.4599 3.50027C10.0199 2.92027 9.91995 2.78027 9.01995 2.78027H7.74995C4.76995 2.78027 4.24995 3.30027 4.24995 6.28027V11.4303C4.24995 11.8403 3.90995 12.1803 3.49995 12.1803C3.08995 12.1803 2.74995 11.8403 2.74995 11.4303V6.28027C2.74995 2.45027 3.91995 1.28027 7.74995 1.28027H9.02995C10.5699 1.28027 11.0499 1.78027 11.6699 2.60027L12.9499 4.30027C13.2199 4.66027 13.2399 4.68027 13.7099 4.68027H16.2599C20.0899 4.68027 21.26 5.85027 21.26 9.68027V11.4703C21.25 11.8803 20.91 12.2203 20.5 12.2203Z" />
<path d="M14.5699 17.7503H9.42995C9.01995 17.7503 8.67995 17.4103 8.67995 17.0003C8.67995 16.5903 9.01995 16.2503 9.42995 16.2503H14.5699C14.9799 16.2503 15.3199 16.5903 15.3199 17.0003C15.3199 17.4103 14.9899 17.7503 14.5699 17.7503Z" />
</svg>
