<?xml version="1.0" encoding="UTF-8"?>
<svg width="24" height="24" viewBox="0 0 24 24" xmlns="http://www.w3.org/2000/svg">
 <path d="m12 19.75c-0.41 0-0.75-0.34-0.75-0.75v-3c0-0.41 0.34-0.75 0.75-0.75s0.75 0.34 0.75 0.75v3c0 0.41-0.34 0.75-0.75 0.75z"/>
 <path d="m12 23.75c-1.52 0-2.75-1.23-2.75-2.75s1.23-2.75 2.75-2.75 2.75 1.23 2.75 2.75-1.23 2.75-2.75 2.75zm0-4c-0.69 0-1.25 0.56-1.25 1.25s0.56 1.25 1.25 1.25 1.25-0.56 1.25-1.25-0.56-1.25-1.25-1.25z"/>
 <path d="m18 21.75h-4c-0.41 0-0.75-0.34-0.75-0.75s0.34-0.75 0.75-0.75h4c0.41 0 0.75 0.34 0.75 0.75s-0.34 0.75-0.75 0.75z"/>
 <path d="m10 21.75h-4c-0.41 0-0.75-0.34-0.75-0.75s0.34-0.75 0.75-0.75h4c0.41 0 0.75 0.34 0.75 0.75s-0.34 0.75-0.75 0.75z"/>
 <path d="m15.5 16.75h-7c-3.22 0-4.25-1.03-4.25-4.25v-7c0-3.22 1.03-4.25 4.25-4.25h1.05c1.33 0 1.76 0.45001 2.28 1.14l1.05 1.4c0.2 0.26 0.2 0.26001 0.52 0.26001h2.1c3.22 0 4.25 1.03 4.25 4.25v4.2c0 3.22-1.03 4.25-4.25 4.25zm-7-14c-2.39 0-2.75 0.36-2.75 2.75v7c0 2.39 0.36 2.75 2.75 2.75h7c2.39 0 2.75-0.36 2.75-2.75v-4.2c0-2.39-0.36-2.75-2.75-2.75h-2.1c-0.99 0-1.35-0.3701-1.71-0.8501l-1.06-1.4099c-0.35-0.47-0.4-0.54004-1.08-0.54004h-1.05z"/>
</svg>
