<svg width="24" height="24" viewBox="0 0 24 24"  xmlns="http://www.w3.org/2000/svg">
<path opacity="0.4" d="M21.99 10.8402C21.97 10.3602 21.89 9.89023 21.74 9.44023C21.05 7.28023 19.03 5.72023 16.65 5.72023H13.86C13.28 5.72023 13.24 5.66023 12.93 5.25023L11.53 3.39023C10.88 2.52023 10.37 1.99023 8.73999 1.99023H6.40997C3.96997 1.99023 1.98999 3.97023 1.98999 6.41023V9.43022V16.6402C1.98999 19.5902 4.39003 21.9902 7.34003 21.9902H16.64C19.59 21.9902 21.99 19.5902 21.99 16.6402V11.0602C22 11.0002 22 10.9102 21.99 10.8402Z" />
<path d="M15.5801 19.7C13.4701 19.85 13.4701 22.91 15.5801 23.06H20.5901C21.2001 23.06 21.78 22.84 22.23 22.43C23.71 21.14 22.92 18.54 20.97 18.3C20.27 14.08 14.16 15.68 15.61 19.7" />
</svg>
