<?xml version="1.0" encoding="UTF-8"?>
<svg width="24" height="24" viewBox="0 0 24 24" xmlns="http://www.w3.org/2000/svg">
 <path d="m14.9 22.75h-5.8c-0.89 0-2.03-0.47-2.65-1.1l-4.1-4.1c-0.63-0.63-1.1-1.77-1.1-2.65v-5.8c0-0.89 0.47001-2.03 1.1-2.65l4.1-4.1c0.63-0.63 1.77-1.1 2.65-1.1h5.8c0.89 0 2.03 0.47001 2.65 1.1l4.1 4.1c0.63 0.63 1.1 1.77 1.1 2.65v5.8c0 0.89-0.47 2.03-1.1 2.65l-4.1 4.1c-0.63 0.63-1.76 1.1-2.65 1.1zm-5.8-20c-0.49 0-1.25 0.31-1.59 0.66l-4.1 4.1c-0.34 0.35-0.66 1.1-0.66 1.59v5.8c0 0.49 0.31 1.25 0.66 1.59l4.1 4.1c0.35 0.34 1.1 0.66 1.59 0.66h5.8c0.49 0 1.25-0.31 1.59-0.66l4.1-4.1c0.34-0.35 0.66-1.1 0.66-1.59v-5.8c0-0.49-0.31-1.25-0.66-1.59l-4.1-4.1c-0.35-0.34-1.1-0.66-1.59-0.66h-5.8z"/>
 <path d="m8.4999 16.25c-0.19 0-0.38-0.07-0.53-0.22-0.29-0.29-0.29-0.77 0-1.06l7-7c0.29-0.29 0.77-0.29 1.06 0s0.29 0.77 0 1.06l-7 7c-0.15 0.15-0.34 0.22-0.53 0.22z"/>
 <path d="m15.5 16.25c-0.19 0-0.38-0.07-0.53-0.22l-7-7c-0.29-0.29-0.29-0.77 0-1.06s0.77-0.29 1.06 0l7 7c0.29 0.29 0.29 0.77 0 1.06-0.15 0.15-0.34 0.22-0.53 0.22z"/>
</svg>
