<?xml version="1.0" encoding="UTF-8"?>
<svg width="24" height="24" viewBox="0 0 24 24" xmlns="http://www.w3.org/2000/svg">
 <path d="m18.65 8.95c-1.99 0-3.6-1.62-3.6-3.6 0-0.81 0.27-1.58 0.77-2.22 0.02-0.03 0.05-0.05 0.07-0.08 0.68-0.83 1.68-1.3 2.76-1.3 1.98 0 3.6 1.62 3.6 3.6 0 1.11-0.5 2.14-1.38 2.83-0.64 0.5-1.41 0.77-2.22 0.77zm-1.7-4.83c-0.26 0.36-0.4 0.78-0.4 1.23 0 1.16 0.94 2.1 2.1 2.1 0.47 0 0.92-0.16 1.29-0.45 0.51-0.4 0.81-1 0.81-1.65 0-1.16-0.94-2.1-2.1-2.1-0.65 0-1.25 0.29-1.64 0.8-0.02 0.03-0.04 0.05-0.06 0.07z"/>
 <path d="m5.35 8.95c-0.81 0-1.58-0.27-2.22-0.77-0.88-0.69-1.38-1.72-1.38-2.83 0-1.98 1.62-3.6 3.6-3.6 1.11 0 2.14 0.5 2.83 1.38 0.5 0.64 0.77 1.41 0.77 2.22 0 1.98-1.62 3.6-3.6 3.6zm0-5.7c-1.16 0-2.1 0.94-2.1 2.1 0 0.65 0.29 1.25 0.81 1.65 0.37 0.29 0.82 0.45 1.29 0.45 1.16 0 2.1-0.94 2.1-2.1 0-0.47-0.16-0.92-0.45-1.29-0.4-0.52-1-0.81-1.65-0.81z"/>
 <path d="m18.65 22.25c-1.08 0-2.08-0.47-2.76-1.3-0.03-0.02-0.05-0.05-0.07-0.08-0.5-0.64-0.77-1.41-0.77-2.22 0-1.99 1.62-3.6 3.6-3.6 0.81 0 1.58 0.27 2.22 0.77 0.03 0.02 0.05 0.05 0.08 0.07 0.83 0.68 1.3 1.68 1.3 2.76 0 1.98-1.62 3.6-3.6 3.6zm-1.7-2.37c0.02 0.02 0.04 0.04 0.06 0.07 0.39 0.51 0.99 0.8 1.64 0.8 1.16 0 2.1-0.94 2.1-2.1 0-0.65-0.29-1.25-0.8-1.64-0.03-0.02-0.05-0.04-0.07-0.06-0.36-0.26-0.78-0.4-1.23-0.4-1.16 0-2.1 0.94-2.1 2.1 0 0.45 0.14 0.87 0.4 1.23z"/>
 <path d="m5.35 22.25c-1.98 0-3.6-1.62-3.6-3.6 0-1.08 0.47-2.08 1.3-2.76 0.02-0.03 0.05-0.05 0.08-0.07 0.64-0.5 1.41-0.77 2.22-0.77 1.99 0 3.6 1.62 3.6 3.6 0 0.81-0.27 1.58-0.77 2.22-0.69 0.88-1.72 1.38-2.83 1.38zm-1.23-5.3c-0.02 0.02-0.04 0.04-0.07 0.06-0.51 0.39-0.8 0.99-0.8 1.64 0 1.16 0.94 2.1 2.1 2.1 0.65 0 1.25-0.29 1.65-0.81 0.29-0.37 0.45-0.82 0.45-1.29 0-1.16-0.94-2.1-2.1-2.1-0.45 0-0.87 0.14-1.23 0.4z"/>
 <path d="m12 22.25c-1.66 0-3.31-0.41-4.76-1.18-0.2-0.1-0.33-0.29-0.38-0.51s0-0.44 0.14-0.62c0.29-0.37 0.45-0.82 0.45-1.29 0-1.16-0.94-2.1-2.1-2.1-0.47 0-0.92 0.16-1.29 0.45-0.17 0.14-0.4 0.19-0.62 0.14s-0.4-0.18-0.51-0.38c-0.78-1.47-1.18-3.07-1.18-4.76 0-1.66 0.41-3.31 1.18-4.76 0.1-0.2 0.29-0.33 0.51-0.38s0.44 0.01 0.62 0.14c0.37 0.29 0.82 0.45 1.29 0.45 1.16 0 2.1-0.94 2.1-2.1 0-0.47-0.16-0.92-0.45-1.29-0.14-0.17-0.19-0.4-0.14-0.62s0.18-0.4 0.38-0.51c1.45-0.77 3.1-1.18 4.76-1.18 1.69 0 3.29 0.4 4.76 1.18 0.2 0.1 0.33 0.29 0.38 0.51s-0.01 0.44-0.14 0.62c-0.29 0.37-0.45 0.82-0.45 1.29 0 1.16 0.94 2.1 2.1 2.1 0.47 0 0.92-0.16 1.29-0.45 0.17-0.14 0.4-0.19 0.62-0.14s0.4 0.18 0.51 0.38c0.77 1.45 1.18 3.1 1.18 4.76 0 1.69-0.4 3.29-1.18 4.76-0.1 0.2-0.29 0.33-0.51 0.38s-0.44-0.01-0.62-0.14c-0.37-0.29-0.82-0.45-1.29-0.45-1.16 0-2.1 0.94-2.1 2.1 0 0.47 0.16 0.92 0.45 1.29 0.14 0.17 0.19 0.4 0.14 0.62s-0.18 0.4-0.38 0.51c-1.47 0.78-3.07 1.18-4.76 1.18zm-3.35-2.17c2.12 0.89 4.6 0.88 6.69 0-0.2-0.45-0.3-0.93-0.3-1.43 0-1.99 1.62-3.6 3.6-3.6 0.5 0 0.98 0.1 1.43 0.3 0.44-1.05 0.67-2.17 0.67-3.35 0-1.15-0.23-2.3-0.67-3.35-0.45 0.2-0.93 0.3-1.43 0.3-1.99 0-3.6-1.62-3.6-3.6 0-0.5 0.1-0.98 0.3-1.43-2.09-0.88-4.58-0.88-6.69 0 0.2 0.45 0.3 0.93 0.3 1.43 0 1.99-1.62 3.6-3.6 3.6-0.5 0-0.98-0.1-1.43-0.3-0.44 1.05-0.67 2.2-0.67 3.35 0 1.17 0.22 2.29 0.67 3.35 0.45-0.2 0.93-0.3 1.43-0.3 1.99 0 3.6 1.62 3.6 3.6 0 0.5-0.1 0.98-0.3 1.43z"/>
</svg>
