<?xml version="1.0" encoding="UTF-8"?>
<svg width="24" height="24" viewBox="0 0 24 24" xmlns="http://www.w3.org/2000/svg">
 <path d="m17.05 20.75h-10.1c-0.22 0-0.43-0.1-0.58-0.27s-0.2-0.4-0.16-0.62c0.02-0.12 0.04-0.24 0.04-0.36 0-0.96-0.79-1.75-1.75-1.75-0.12 0-0.25 0.01-0.36 0.04-0.22 0.04-0.45-0.02-0.62-0.16s-0.27-0.35-0.27-0.58v-10.1c0-0.22 0.1-0.43 0.27-0.58s0.39-0.2 0.62-0.16c0.11 0.03 0.24 0.04 0.36 0.04 0.96 0 1.75-0.79 1.75-1.75 0-0.12-0.01-0.25-0.04-0.36-0.04-0.22 0.02-0.45 0.16-0.62s0.35-0.27 0.58-0.27h10.1c0.22 0 0.43 0.1 0.58 0.27s0.2 0.4 0.16 0.62c-0.02 0.12-0.04 0.24-0.04 0.36 0 0.96 0.79 1.75 1.75 1.75 0.12 0 0.25-0.01 0.36-0.04 0.22-0.04 0.45 0.02 0.62 0.16s0.27 0.35 0.27 0.58v10.1c0 0.22-0.1 0.43-0.27 0.58s-0.4 0.2-0.62 0.16c-0.12-0.02-0.24-0.04-0.36-0.04-0.96 0-1.75 0.79-1.75 1.75 0 0.12 0.01 0.25 0.04 0.36 0.04 0.22-0.02 0.45-0.16 0.62s-0.36 0.27-0.58 0.27zm-9.31-1.5h8.52c0.12-1.59 1.4-2.87 2.99-2.99v-8.52c-1.59-0.12-2.87-1.4-2.99-2.99h-8.52c-0.12 1.59-1.4 2.87-2.99 2.99v8.52c1.59 0.12 2.87 1.4 2.99 2.99z"/>
 <path d="m4.5 7.75c-0.22 0-0.43-0.02-0.64-0.06-1.52-0.31-2.61-1.65-2.61-3.19 0-1.79 1.46-3.25 3.25-3.25 1.54 0 2.88 1.09 3.19 2.6 0.04 0.22 0.06 0.43 0.06 0.65 0 1.79-1.46 3.25-3.25 3.25zm0-5c-0.96 0-1.75 0.79-1.75 1.75 0 0.83 0.59 1.55 1.4 1.71 0.1 0.03 0.23 0.04 0.35 0.04 0.96 0 1.75-0.79 1.75-1.75 0-0.12-0.01-0.25-0.04-0.36-0.16-0.8-0.88-1.39-1.71-1.39z"/>
 <path d="m19.5 7.75c-1.79 0-3.25-1.46-3.25-3.25 0-0.22 0.02-0.43 0.06-0.64 0.31-1.52 1.65-2.61 3.19-2.61 1.79 0 3.25 1.46 3.25 3.25 0 1.54-1.09 2.88-2.6 3.19-0.22 0.04-0.43 0.06-0.65 0.06zm0-5c-0.83 0-1.55 0.59-1.71 1.4-0.02 0.11-0.04 0.23-0.04 0.35 0 0.96 0.79 1.75 1.75 1.75 0.12 0 0.25-0.01 0.36-0.04 0.8-0.16 1.39-0.88 1.39-1.71 0-0.96-0.79-1.75-1.75-1.75z"/>
 <path d="m4.5 22.75c-1.79 0-3.25-1.46-3.25-3.25 0-1.54 1.09-2.88 2.6-3.19 0.21-0.04 0.43-0.06 0.65-0.06 1.79 0 3.25 1.46 3.25 3.25 0 0.22-0.02 0.43-0.06 0.64-0.31 1.52-1.65 2.61-3.19 2.61zm0-5c-0.12 0-0.25 0.01-0.36 0.04-0.8 0.16-1.39 0.88-1.39 1.71 0 0.96 0.79 1.75 1.75 1.75 0.83 0 1.55-0.59 1.71-1.4 0.02-0.11 0.04-0.23 0.04-0.35 0-0.96-0.79-1.75-1.75-1.75z"/>
 <path d="m19.5 22.75c-1.54 0-2.88-1.09-3.19-2.6-0.04-0.21-0.06-0.43-0.06-0.65 0-1.79 1.46-3.25 3.25-3.25 0.22 0 0.43 0.02 0.64 0.06 1.52 0.31 2.61 1.65 2.61 3.19 0 1.79-1.46 3.25-3.25 3.25zm0-5c-0.96 0-1.75 0.79-1.75 1.75 0 0.12 0.01 0.25 0.04 0.36 0.16 0.8 0.88 1.39 1.71 1.39 0.96 0 1.75-0.79 1.75-1.75 0-0.83-0.59-1.55-1.4-1.71-0.1-0.03-0.23-0.04-0.35-0.04z"/>
</svg>
