<?xml version="1.0" encoding="UTF-8"?>
<svg width="24" height="24" viewBox="0 0 24 24" xmlns="http://www.w3.org/2000/svg">
 <path d="m13.98 5.22c-0.22 0-0.44-0.09997-0.58-0.27997l-1.98-2.47c-0.26-0.32-0.21-0.79999 0.12-1.05 0.32-0.26 0.79-0.21 1.05 0.12l1.98 2.47c0.26 0.32 0.21 0.79999-0.12 1.05-0.14 0.1-0.31 0.15997-0.47 0.15997z"/>
 <path d="m12 22.75c-5.31 0-9.64-4.32-9.64-9.64 0-5.32 4.32-9.64 9.64-9.64 0.69 0 1.39 0.08001 2.15 0.26001 0.4 0.09 0.66 0.50002 0.56 0.90002-0.09 0.4-0.49 0.66-0.9 0.56-0.64-0.15-1.24-0.22003-1.81-0.22003-4.49 0-8.14 3.65-8.14 8.14 0 4.49 3.65 8.14 8.14 8.14 4.49 0 8.14-3.65 8.14-8.14 0-1.74-0.57-3.42-1.65-4.86-0.25-0.33-0.18-0.79999 0.15-1.05s0.8-0.18003 1.05 0.14997c1.28 1.7 1.95 3.69 1.95 5.76 0 5.32-4.33 9.64-9.64 9.64z"/>
 <path d="m9.54 16.67c-0.41 0-0.75-0.34-0.75-0.75v-3.39l-0.19001 0.21c-0.28 0.31-0.74999 0.33-1.06 0.06-0.31-0.28-0.33-0.75-0.06-1.06l1.5-1.67c0.21-0.23002 0.53999-0.31003 0.82999-0.20003 0.28997 0.11 0.47997 0.39003 0.47997 0.70003v5.35c0 0.42-0.32996 0.75-0.74996 0.75z"/>
 <path d="m14 16.67c-1.52 0-2.75-1.23-2.75-2.75v-1.3499c0-1.52 1.23-2.75 2.75-2.75s2.75 1.23 2.75 2.75v1.3499c0 1.52-1.23 2.75-2.75 2.75zm0-5.3399c-0.69 0-1.25 0.56-1.25 1.25v1.35c0 0.69 0.56 1.25 1.25 1.25s1.25-0.56 1.25-1.25v-1.35c0-0.69-0.56-1.25-1.25-1.25z"/>
</svg>
