<?xml version="1.0" encoding="UTF-8"?>
<svg width="24" height="24" viewBox="0 0 24 24" xmlns="http://www.w3.org/2000/svg">
 <path d="m3.95 18.36c-0.46 0-0.93-0.12-1.35-0.37-0.85-0.49-1.35-1.36-1.35-2.34v-7.32c0-0.98 0.50001-1.85 1.35-2.34s1.86-0.49 2.7 0l6.34 3.66c0.29 0.17 0.52 0.37004 0.7 0.59004 0.11 0.13 0.17 0.3 0.17 0.47v2.56c0 0.17-0.06 0.34-0.17 0.47-0.18 0.22-0.41 0.42-0.68 0.58l-6.36 3.68c-0.42 0.24-0.87998 0.36-1.35 0.36zm0-11.22c-0.21 0-0.41 0.04998-0.6 0.15998-0.38 0.22-0.60001 0.61-0.60001 1.04v7.32c0 0.43 0.22001 0.82 0.60001 1.04s0.81998 0.22 1.2 0l6.34-3.66c0.04-0.02 0.08-0.05 0.11-0.08v-1.93c-0.04-0.03-0.08-0.06-0.12-0.08l-6.33-3.65c-0.19-0.11-0.38998-0.15998-0.59998-0.15998z"/>
 <path d="m13.71 18.36c-0.46 0-0.93-0.12-1.35-0.37-0.85-0.49-1.3499-1.36-1.3499-2.34v-7.32c0-0.98 0.4999-1.85 1.3499-2.34s1.8601-0.49 2.7001 0l6.3399 3.66c0.84 0.49004 1.3501 1.36 1.3501 2.34s-0.5 1.85-1.3501 2.34l-6.3399 3.66c-0.42 0.25-0.8901 0.37-1.3501 0.37zm0-11.22c-0.21 0-0.41 0.04998-0.6 0.15998-0.38 0.22-0.5999 0.6-0.5999 1.04v7.32c0 0.43 0.2199 0.82 0.5999 1.04s0.8301 0.22 1.2001 0l6.3399-3.66c0.38-0.22 0.6001-0.61 0.6001-1.04s-0.2201-0.82-0.6001-1.04l-6.3399-3.66c-0.19-0.11-0.3901-0.15998-0.6001-0.15998z"/>
</svg>
