<?xml version="1.0" encoding="UTF-8"?>
<svg width="24" height="24" viewBox="0 0 24 24" xmlns="http://www.w3.org/2000/svg">
 <path d="m13.62 18.13h-3.23c-3.13 0-4.52-1.39-4.52-4.52v-3.23c0-3.13 1.39-4.52 4.52-4.52h3.23c3.13 0 4.52 1.39 4.52 4.52v3.23c-0.01 3.13-1.4 4.52-4.52 4.52zm-3.24-10.76c-2.29 0-3.02 0.73002-3.02 3.02v3.23c0 2.29 0.73 3.02 3.02 3.02h3.23c2.29 0 3.02-0.73 3.02-3.02v-3.23c0-2.29-0.73-3.02-3.02-3.02h-3.23z"/>
 <path d="m18.23 13.52h-0.85c-0.41 0-0.75-0.34-0.75-0.75v-2.38c0-2.29-0.73-3.02-3.02-3.02h-2.38c-0.41 0-0.75-0.34001-0.75-0.75v-0.85001c0-3.13 1.39-4.52 4.52-4.52h3.23c3.13 0 4.52 1.39 4.52 4.52v3.23c0 3.13-1.39 4.52-4.52 4.52zm-0.1-1.5h0.1c2.29 0 3.02-0.73 3.02-3.02v-3.23c0-2.29-0.73-3.02-3.02-3.02h-3.23c-2.29 0-3.02 0.72999-3.02 3.02v0.10001h1.63c3.13 0 4.52 1.39 4.52 4.52v1.63z"/>
 <path d="m9 22.75h-3.23c-3.13 0-4.52-1.39-4.52-4.52v-3.23c0-3.13 1.39-4.52 4.52-4.52h0.85c0.41 0 0.75 0.34 0.75 0.75v2.3799c0 2.29 0.73 3.0201 3.02 3.0201h2.38c0.41 0 0.75 0.34 0.75 0.75v0.85c0 3.13-1.39 4.52-4.52 4.52zm-3.23-10.77c-2.29 0-3.02 0.73-3.02 3.02v3.23c0 2.29 0.73 3.02 3.02 3.02h3.23c2.29 0 3.02-0.73 3.02-3.02v-0.1h-1.63c-3.13 0-4.52-1.3901-4.52-4.5201v-1.6299h-0.1z"/>
</svg>
