<?xml version="1.0" encoding="UTF-8"?>
<svg width="24" height="24" viewBox="0 0 24 24" xmlns="http://www.w3.org/2000/svg">
 <path d="m13.98 5.2199c-0.22 0-0.4399-0.09997-0.5799-0.27997l-1.9801-2.47c-0.26-0.32-0.21-0.79999 0.12-1.05s0.7901-0.21 1.0501 0.12l1.98 2.47c0.26 0.32 0.21 0.79999-0.12 1.05-0.14 0.1-0.3101 0.15997-0.4701 0.15997z"/>
 <path d="m12 22.75c-5.31 0-9.64-4.32-9.64-9.64 0-5.32 4.32-9.64 9.64-9.64 0.69 0 1.39 0.08001 2.15 0.26001 0.4 0.09 0.66 0.50002 0.56 0.90002-0.09 0.4-0.49 0.66-0.9 0.56-0.64-0.15-1.24-0.22003-1.81-0.22003-4.49 0-8.14 3.65-8.14 8.14 0 4.49 3.65 8.14 8.14 8.14 4.49 0 8.14-3.65 8.14-8.14 0-1.74-0.57-3.42-1.65-4.86-0.25-0.33-0.18-0.79999 0.15-1.05s0.8-0.18003 1.05 0.14997c1.28 1.7 1.95 3.69 1.95 5.76 0 5.32-4.33 9.64-9.64 9.64z"/>
 <path d="m12.38 16.92h-2.2899c-0.41004 0-0.75004-0.34-0.75004-0.75s0.34-0.75 0.75004-0.75h2.2899c0.43 0 0.78-0.3499 0.78-0.7799s-0.35-0.7801-0.78-0.7801h-2.2899c-0.24004 0-0.47009-0.12-0.61009-0.31s-0.17997-0.4499-0.09997-0.6799l0.75996-2.29c0.1-0.31 0.39-0.51 0.71-0.51h3.06c0.41 0 0.75 0.34 0.75 0.75s-0.34 0.75-0.75 0.75h-2.52l-0.26 0.7899h1.25c1.26 0 2.28 1.0201 2.28 2.2801s-1.02 2.2799-2.28 2.2799z"/>
</svg>
