<svg width="24" height="24" viewBox="0 0 24 24"  xmlns="http://www.w3.org/2000/svg">
<path d="M14.4299 16.9198H12.1399C11.7299 16.9198 11.3899 16.5798 11.3899 16.1698C11.3899 15.7598 11.7299 15.4198 12.1399 15.4198H14.4299C14.8599 15.4198 15.21 15.0698 15.21 14.6398C15.21 14.2098 14.8599 13.8598 14.4299 13.8598H12.1399C11.8999 13.8598 11.67 13.7398 11.53 13.5498C11.39 13.3598 11.3499 13.0998 11.4299 12.8698L12.1899 10.5798C12.2899 10.2698 12.58 10.0698 12.9 10.0698H15.96C16.37 10.0698 16.71 10.4098 16.71 10.8198C16.71 11.2298 16.37 11.5698 15.96 11.5698H13.4399L13.1799 12.3598H14.4299C15.6899 12.3598 16.71 13.3798 16.71 14.6398C16.71 15.8998 15.6799 16.9198 14.4299 16.9198Z" />
<path d="M9.54004 16.9198C9.13004 16.9198 8.79004 16.5798 8.79004 16.1698V12.7799L8.60003 12.9998C8.32003 13.3098 7.85004 13.3298 7.54004 13.0598C7.23004 12.7798 7.21004 12.3098 7.48004 11.9998L8.98004 10.3298C9.19004 10.0998 9.52006 10.0198 9.81006 10.1298C10.1001 10.2398 10.29 10.5198 10.29 10.8298V16.1798C10.29 16.5898 9.96004 16.9198 9.54004 16.9198Z" />
<path opacity="0.4" d="M19.6901 7.35021C19.4401 7.02021 18.9701 6.95025 18.6401 7.20025C18.3101 7.45025 18.2401 7.92024 18.4901 8.25024C19.5701 9.69024 20.1401 11.3702 20.1401 13.1102C20.1401 17.6002 16.4901 21.2502 12.0001 21.2502C7.51006 21.2502 3.86005 17.6002 3.86005 13.1102C3.86005 8.62022 7.51006 4.97021 12.0001 4.97021C12.5801 4.97021 13.1701 5.04024 13.8101 5.19024C13.8401 5.20024 13.8701 5.19024 13.9001 5.19024C13.9301 5.19024 13.95 5.21026 13.97 5.21026C14 5.21026 14.02 5.20025 14.05 5.20025C14.08 5.20025 14.1101 5.19023 14.1501 5.18023C14.2101 5.17023 14.2601 5.14023 14.3101 5.12023C14.3401 5.10023 14.3701 5.09024 14.4001 5.07024C14.4101 5.06024 14.4301 5.06022 14.4401 5.05022C14.4701 5.03022 14.4801 5.00022 14.5001 4.98022C14.5401 4.94022 14.57 4.91022 14.6 4.86022C14.63 4.82022 14.64 4.77021 14.66 4.72021C14.67 4.69021 14.6901 4.66024 14.7001 4.63024C14.7001 4.61024 14.7001 4.60025 14.7001 4.58025C14.7101 4.53025 14.7101 4.48023 14.7001 4.43023C14.7001 4.38023 14.7001 4.34021 14.6901 4.29021C14.6801 4.25021 14.6601 4.21021 14.6401 4.16021C14.6201 4.11021 14.6001 4.06026 14.5701 4.02026C14.5601 4.01026 14.56 3.99022 14.55 3.98022L12.5701 1.51025C12.3101 1.19025 11.8401 1.13025 11.5201 1.39025C11.2001 1.65025 11.1501 2.12024 11.4001 2.44024L12.22 3.46026C12.14 3.46026 12.06 3.45025 11.98 3.45025C6.67004 3.45025 2.34009 7.77026 2.34009 13.0903C2.34009 18.4103 6.66004 22.7302 11.98 22.7302C17.3 22.7302 21.6201 18.4103 21.6201 13.0903C21.6401 11.0403 20.9601 9.05021 19.6901 7.35021Z" />
</svg>
