<?xml version="1.0" encoding="UTF-8"?>
<svg width="24" height="24" viewBox="0 0 24 24" xmlns="http://www.w3.org/2000/svg">
 <path d="m12.16 11.62h-0.08c-0.05-0.01-0.12-0.01-0.18 0-2.9-0.09-5.09-2.37-5.09-5.18 0-2.86 2.33-5.19 5.19-5.19 2.86 0 5.19 2.33 5.19 5.19-0.01 2.81-2.21 5.09-5 5.18h-0.03zm-0.16-8.87c-2.03 0-3.69 1.66-3.69 3.69 0 2 1.56 3.61 3.55 3.68 0.05-0.01 0.19-0.01 0.32 0 1.96-0.09 3.5-1.7 3.51-3.68 0-2.03-1.66-3.69-3.69-3.69z"/>
 <path d="m12.17 22.55c-1.96 0-3.93-0.5-5.42-1.5-1.39-0.92-2.15-2.18-2.15-3.55s0.76-2.64 2.15-3.57c3-1.99 7.86-1.99 10.84 0 1.38 0.92 2.15 2.18 2.15 3.55s-0.76 2.64-2.15 3.57c-1.5 1-3.46 1.5-5.42 1.5zm-4.59-7.36c-0.96 0.64-1.48 1.46-1.48 2.32 0 0.85 0.53 1.67 1.48 2.3 2.49 1.67 6.69 1.67 9.18 0 0.96-0.64 1.48-1.46 1.48-2.32 0-0.85-0.53-1.67-1.48-2.3-2.49-1.66-6.69-1.66-9.18 0z"/>
</svg>
