<?xml version="1.0" encoding="UTF-8"?>
<svg width="24" height="24" viewBox="0 0 24 24" xmlns="http://www.w3.org/2000/svg">
 <path d="m12 22.76c-1.09 0-2.17-0.32-3.02-0.95l-4.3-3.21c-1.14-0.85-2.03-2.62-2.03-4.04v-7.44c0-1.54 1.13-3.18 2.58-3.72l4.99-1.87c0.99-0.37 2.55-0.37 3.54 0l5 1.87c1.45 0.54 2.58 2.18 2.58 3.72v7.43c0 1.42-0.89 3.19-2.03 4.04l-4.3 3.21c-0.84 0.64-1.92 0.96-3.01 0.96zm-1.25-19.82-4.99 1.87c-0.86 0.32-1.61 1.4-1.61 2.32v7.43c0 0.95 0.67 2.28 1.42 2.84l4.3 3.21c1.15 0.86 3.1 0.86 4.25 0l4.3-3.21c0.76-0.57 1.42-1.9 1.42-2.84v-7.44c0-0.91-0.75-1.99-1.61-2.32l-4.99-1.87c-0.66-0.24-1.82-0.24-2.49 0.01z"/>
 <path d="m12 13.25c-1.52 0-2.75-1.23-2.75-2.75s1.23-2.75 2.75-2.75 2.75 1.23 2.75 2.75-1.23 2.75-2.75 2.75zm0-4c-0.69 0-1.25 0.56-1.25 1.25s0.56 1.25 1.25 1.25 1.25-0.56 1.25-1.25-0.56-1.25-1.25-1.25z"/>
 <path d="m12 16.25c-0.41 0-0.75-0.34-0.75-0.75v-3c0-0.41 0.34-0.75 0.75-0.75s0.75 0.34 0.75 0.75v3c0 0.41-0.34 0.75-0.75 0.75z"/>
</svg>
