<?xml version="1.0" encoding="UTF-8"?>
<svg width="24" height="24" viewBox="0 0 24 24" xmlns="http://www.w3.org/2000/svg">
 <path d="m19.26 19.65c-0.41 0-0.75-0.34-0.75-0.75v-11.8c0-1.01-0.21-1.35-1.48-1.35h-1.04c-1.27 0-1.48 0.34-1.48 1.35v11.8c0 0.41-0.34 0.75-0.75 0.75s-0.75-0.34-0.75-0.75v-11.8c0-1.92 0.98-2.85 2.98-2.85h1.04c2.01 0 2.98 0.93 2.98 2.85v11.8c0 0.41-0.34 0.75-0.75 0.75z"/>
 <path d="m10.76 19.65c-0.41 0-0.75-0.34-0.75-0.75v-6.8c0-1.01-0.21003-1.35-1.48-1.35h-1.04c-1.27 0-1.48 0.34-1.48 1.35v6.8c0 0.41-0.34 0.75-0.75 0.75s-0.75-0.34-0.75-0.75v-6.8c0-1.92 0.98-2.85 2.98-2.85h1.04c2.01 0 2.98 0.93 2.98 2.85v6.8c0 0.41-0.34 0.75-0.75 0.75z"/>
 <path d="m22 19.75h-20c-0.41 0-0.75-0.34-0.75-0.75s0.33-0.75 0.75-0.75h20c0.41 0 0.75 0.34 0.75 0.75s-0.33 0.75-0.75 0.75z"/>
</svg>
