<?xml version="1.0" encoding="UTF-8"?>
<svg width="24" height="24" viewBox="0 0 24 24" xmlns="http://www.w3.org/2000/svg">
 <path d="m19 16.75h-14c-0.41 0-0.75-0.34-0.75-0.75v-7c0-0.41 0.34-0.75 0.75-0.75h5.19l-5.72-5.72c-0.21-0.21-0.28-0.54001-0.16-0.82001s0.39-0.45999 0.69-0.45999h14c0.41 0 0.75 0.34 0.75 0.75v7c0 0.41-0.34 0.75-0.75 0.75h-5.19l5.72 5.72c0.21 0.21 0.28 0.54 0.16 0.82s-0.39 0.46-0.69 0.46zm-13.25-1.5h11.44l-5.5-5.5h-5.94v5.5zm6.56-7h5.94v-5.5h-11.44l5.5 5.5z"/>
 <path d="m12 22.75c-0.18 0-0.3499-0.06-0.4899-0.18l-7-6c-0.24-0.2-0.32-0.54-0.22-0.83 0.11-0.29 0.38998-0.49 0.69998-0.49h7c0.41 0 0.75 0.34 0.75 0.75v6c0 0.29-0.17 0.56-0.44 0.68-0.09 0.05-0.19 0.07-0.3 0.07zm-4.97-6 4.22 3.62v-3.62h-4.22z"/>
</svg>
