<?xml version="1.0" encoding="UTF-8"?>
<svg width="24" height="24" viewBox="0 0 24 24" xmlns="http://www.w3.org/2000/svg">
 <path d="m12 22.75c-5.93 0-10.75-4.82-10.75-10.75s4.82-10.75 10.75-10.75c0.41 0 0.75 0.34 0.75 0.75s-0.34 0.75-0.75 0.75c-5.1 0-9.25 4.15-9.25 9.25s4.15 9.25 9.25 9.25 9.25-4.15 9.25-9.25c0-0.41 0.34-0.75 0.75-0.75s0.75 0.34 0.75 0.75c0 5.93-4.82 10.75-10.75 10.75z"/>
 <path d="m13.8 10.95c-0.19 0-0.38-0.07-0.53-0.22-0.29-0.29-0.29-0.76996 0-1.06l8.2-8.2c0.29-0.29 0.77-0.29 1.06 0s0.29 0.77 0 1.06l-8.2 8.2c-0.14 0.14-0.33 0.22-0.53 0.22z"/>
 <path d="m17.83 11.75h-4.83c-0.41 0-0.75-0.34-0.75-0.75v-4.83c0-0.41 0.34-0.75 0.75-0.75s0.75 0.34 0.75 0.75v4.08h4.08c0.41 0 0.75 0.34 0.75 0.75s-0.34 0.75-0.75 0.75z"/>
</svg>
