<?xml version="1.0" encoding="UTF-8"?>
<svg width="24" height="24" viewBox="0 0 24 24" xmlns="http://www.w3.org/2000/svg">
 <path d="m8.27 22.75h-4.04c-2.01 0-2.98-0.93-2.98-2.85v-15.8c0-1.92 0.98-2.85 2.98-2.85h4.04c2.01 0 2.98 0.93 2.98 2.85v15.8c0 1.92-0.98 2.85-2.98 2.85zm-4.04-20c-1.27 0-1.48 0.34-1.48 1.35v15.8c0 1.01 0.21 1.35 1.48 1.35h4.04c1.27 0 1.48-0.34 1.48-1.35v-15.8c0-1.01-0.21-1.35-1.48-1.35h-4.04z"/>
 <path d="m19.77 11.25h-4.04c-2.01 0-2.98-0.89-2.98-2.73v-4.54c0-1.84 0.98-2.73 2.98-2.73h4.04c2.01 0 2.98 0.89 2.98 2.73v4.53c0 1.85-0.98 2.74-2.98 2.74zm-4.04-8.5c-1.34 0-1.48 0.38-1.48 1.23v4.53c0 0.86 0.14 1.23 1.48 1.23h4.04c1.34 0 1.48-0.38 1.48-1.23v-4.53c0-0.86-0.14-1.23-1.48-1.23h-4.04z"/>
 <path d="m19.77 22.75h-4.04c-2.01 0-2.98-0.98-2.98-2.98v-4.04c0-2.01 0.98-2.98 2.98-2.98h4.04c2.01 0 2.98 0.98 2.98 2.98v4.04c0 2-0.98 2.98-2.98 2.98zm-4.04-8.5c-1.18 0-1.48 0.3-1.48 1.48v4.04c0 1.18 0.3 1.48 1.48 1.48h4.04c1.18 0 1.48-0.3 1.48-1.48v-4.04c0-1.18-0.3-1.48-1.48-1.48h-4.04z"/>
</svg>
