<?xml version="1.0" encoding="UTF-8"?>
<svg width="24" height="24" viewBox="0 0 24 24" xmlns="http://www.w3.org/2000/svg">
 <path d="m21 7.75h-12c-0.96 0-1.75-0.79-1.75-1.75v-3c0-0.96 0.79-1.75 1.75-1.75h12c0.96 0 1.75 0.79 1.75 1.75v3c0 0.96-0.79 1.75-1.75 1.75zm-12-5c-0.14 0-0.25 0.11-0.25 0.25v3c0 0.14 0.11 0.25 0.25 0.25h12c0.14 0 0.25-0.11 0.25-0.25v-3c0-0.14-0.11-0.25-0.25-0.25h-12z"/>
 <path d="m12 22.75h-5c-0.41 0-0.75-0.34-0.75-0.75v-5c0-0.41 0.34-0.75 0.75-0.75h5c0.41 0 0.75 0.34 0.75 0.75v5c0 0.41-0.34 0.75-0.75 0.75zm-4.25-1.5h3.5v-3.5h-3.5v3.5z"/>
 <path d="m7 15.25h-5c-0.41 0-0.75-0.34-0.75-0.75v-5c0-0.41 0.34-0.75 0.75-0.75h5c0.41 0 0.75 0.34 0.75 0.75v5c0 0.41-0.34 0.75-0.75 0.75zm-4.25-1.5h3.5v-3.5h-3.5v3.5z"/>
 <path d="m18 15.111h-8.5c-0.41 0-0.75-0.34-0.75-0.75v-4.72c0-0.40999 0.34-0.75 0.75-0.75h8.5c0.41 0 0.75 0.34001 0.75 0.75v4.72c0 0.42-0.34 0.75-0.75 0.75zm-7.75-1.5h7v-3.22h-7v3.22z"/>
</svg>
