<?xml version="1.0" encoding="UTF-8"?>
<svg width="24" height="24" viewBox="0 0 24 24" xmlns="http://www.w3.org/2000/svg">
 <path d="m9 10.75c-1.52 0-2.75-1.23-2.75-2.75s1.23-2.75 2.75-2.75 2.75 1.23 2.75 2.75-1.23 2.75-2.75 2.75zm0-4c-0.69 0-1.25 0.56-1.25 1.25s0.56 1.25 1.25 1.25 1.25-0.56 1.25-1.25-0.56-1.25-1.25-1.25z"/>
 <path d="m15 22.75h-6c-5.43 0-7.75-2.32-7.75-7.75v-6c0-5.43 2.32-7.75 7.75-7.75h4c0.41 0 0.75 0.34 0.75 0.75s-0.34 0.75-0.75 0.75h-4c-4.61 0-6.25 1.64-6.25 6.25v6c0 4.61 1.64 6.25 6.25 6.25h6c4.61 0 6.25-1.64 6.25-6.25v-5c0-0.41 0.34-0.75 0.75-0.75s0.75 0.34 0.75 0.75v5c0 5.43-2.32 7.75-7.75 7.75z"/>
 <path d="m15.67 9.7499c-0.39 0-0.75-0.14-1.01-0.41-0.31-0.31-0.46-0.77-0.39-1.24l0.2-1.39c0.05-0.35 0.26-0.78 0.52-1.03l3.63-3.63c1.45-1.45 2.71-0.62 3.33 0 0.59 0.59 0.86 1.21 0.8 1.85-0.05 0.51-0.31 1-0.8 1.48l-3.63 3.63c-0.25 0.25-0.68 0.46-1.03 0.52l-1.39 0.2c-0.08 0.02-0.16 0.02-0.23 0.02zm4-6.63-3.63 3.63c-0.03 0.03-0.08 0.14-0.09 0.19l-0.19 1.3 1.31-0.18c0.04-0.01 0.15-0.06 0.19-0.1l3.63-3.63c0.22-0.22 0.35-0.42 0.36-0.57 0.02-0.21-0.19-0.47-0.36-0.64-0.52-0.52-0.76-0.46-1.22 0z"/>
 <path d="m20.9 6.13c-0.07 0-0.14-0.01-0.2-0.03-1.34-0.38-2.41-1.45-2.79-2.79-0.11-0.4 0.12-0.81 0.52-0.92s0.81 0.12 0.92 0.52c0.24 0.84 0.91 1.52 1.76 1.76 0.4 0.11 0.63 0.53 0.52 0.92-0.11 0.32-0.41 0.54-0.73 0.54z"/>
 <path d="m2.6698 19.7c-0.24 0-0.48-0.12-0.62-0.33-0.23-0.34-0.14-0.81 0.2-1.04l4.93-3.31c1.08-0.72 2.57-0.64 3.55 0.19l0.33 0.29c0.5 0.43 1.35 0.43 1.84 0l4.16-3.57c1.06-0.91 2.73-0.91 3.8 0l1.63 1.4c0.31 0.27 0.35 0.74 0.08 1.06-0.27 0.31-0.74 0.35-1.06 0.08l-1.63-1.4c-0.5-0.43-1.35-0.43-1.84 0l-4.16 3.57c-1.06 0.91-2.73 0.91-3.8 0l-0.33-0.29c-0.46-0.39-1.22-0.43-1.73-0.08l-4.92 3.31c-0.14 0.08-0.29 0.12-0.43 0.12z"/>
</svg>
