<svg width="24" height="24" viewBox="0 0 24 24"  xmlns="http://www.w3.org/2000/svg">
<path opacity="0.4" d="M20.46 3.54L3.54 20.46C2.54 19.46 2 18.01 2 16.19V7.81C2 4.17 4.17 2 7.81 2H16.19C18.01 2 19.46 2.54 20.46 3.54Z" />
<path opacity="0.4" d="M22 7.81014V13.9001L20.37 12.5001C19.59 11.8301 18.33 11.8301 17.55 12.5001L13.39 16.0701C12.68 16.6801 11.56 16.7401 10.78 16.2201L21.61 5.39014C21.75 5.77014 21.85 6.17014 21.91 6.60014C21.97 6.98014 22 7.39014 22 7.81014Z" />
<path d="M21.9999 13.9001V16.1901C21.9999 19.8301 19.8299 22.0001 16.1899 22.0001H7.80989C7.38989 22.0001 6.97989 21.9701 6.59989 21.9101C6.16989 21.8501 5.76989 21.7501 5.38989 21.6101L10.7799 16.2201C11.5599 16.7401 12.6799 16.6801 13.3899 16.0701L17.5499 12.5001C18.3299 11.8301 19.5899 11.8301 20.3699 12.5001L21.9999 13.9001Z" />
<path d="M21.7699 2.22988C21.4699 1.92988 20.9799 1.92988 20.6799 2.22988L2.22988 20.6899C1.92988 20.9899 1.92988 21.4799 2.22988 21.7799C2.37988 21.9199 2.56988 21.9999 2.76988 21.9999C2.96988 21.9999 3.15988 21.9199 3.30988 21.7699L21.7699 3.30988C22.0799 3.00988 22.0799 2.52988 21.7699 2.22988Z" />
<path d="M8.00012 10.3801C9.31456 10.3801 10.3801 9.31456 10.3801 8.00012C10.3801 6.68568 9.31456 5.62012 8.00012 5.62012C6.68568 5.62012 5.62012 6.68568 5.62012 8.00012C5.62012 9.31456 6.68568 10.3801 8.00012 10.3801Z" />
</svg>
