<?xml version="1.0" encoding="UTF-8"?>
<svg width="24" height="24" viewBox="0 0 24 24" xmlns="http://www.w3.org/2000/svg">
 <path d="m9 10.75c-1.52 0-2.75-1.23-2.75-2.75s1.23-2.75 2.75-2.75 2.75 1.23 2.75 2.75-1.23 2.75-2.75 2.75zm0-4c-0.69 0-1.25 0.56-1.25 1.25s0.56 1.25 1.25 1.25 1.25-0.56 1.25-1.25-0.56-1.25-1.25-1.25z"/>
 <path d="m15 22.75h-6c-5.43 0-7.75-2.32-7.75-7.75v-6c0-5.43 2.32-7.75 7.75-7.75h3c0.41 0 0.75 0.34 0.75 0.75s-0.34 0.75-0.75 0.75h-3c-4.61 0-6.25 1.64-6.25 6.25v6c0 4.61 1.64 6.25 6.25 6.25h6c4.61 0 6.25-1.64 6.25-6.25v-4c0-0.41 0.34-0.75 0.75-0.75s0.75 0.34 0.75 0.75v4c0 5.43-2.32 7.75-7.75 7.75z"/>
 <path d="m18.94 8.3599c-0.87 0-2.91-1.07-3.54-3.02-0.43-1.35 0.07-3.12 1.63-3.62 0.66-0.21 1.35-0.12 1.9 0.22 0.54-0.34 1.25-0.44 1.92-0.22 1.56 0.5 2.06 2.27 1.63 3.62-0.63 1.99-2.77 3.02-3.54 3.02zm-2.11-3.48c0.43 1.33 1.87 1.95 2.13 1.98 0.29-0.03 1.7-0.73 2.09-1.98 0.21-0.67 0-1.52-0.66-1.74-0.28-0.09-0.65-0.04-0.82 0.22-0.14 0.21-0.37 0.34-0.61 0.34-0.23 0-0.48-0.11-0.62-0.31-0.21-0.29-0.58-0.33-0.84-0.25-0.67 0.22-0.88 1.07-0.67 1.74z"/>
 <path d="m2.6698 19.7c-0.24 0-0.48-0.12-0.62-0.33-0.23-0.34-0.14-0.81 0.21-1.04l4.93-3.31c1.08-0.73 2.57-0.64 3.55 0.19l0.33 0.29c0.5 0.43 1.35 0.43 1.84 0l4.16-3.57c1.06-0.91 2.73-0.91 3.8 0l1.63 1.4c0.31 0.27 0.35 0.74 0.08 1.06-0.27 0.31-0.74 0.35-1.06 0.08l-1.63-1.4c-0.5-0.43-1.35-0.43-1.85 0l-4.16 3.57c-1.06 0.91-2.73 0.91-3.8 0l-0.33003-0.29c-0.46-0.39-1.22-0.43-1.73-0.08l-4.93 3.31c-0.13 0.08-0.28 0.12-0.42 0.12z"/>
</svg>
