<?xml version="1.0" encoding="UTF-8"?>
<svg width="24" height="24" viewBox="0 0 24 24" xmlns="http://www.w3.org/2000/svg">
 <path d="m3.38 20.85c-0.21 0-0.43-0.09-0.57-0.27-1.07-1.25-1.56-3.03-1.56-5.58v-6c0-5.43 2.32-7.75 7.75-7.75h6c2.39 0 4.14 0.45 5.38 1.38 0.33 0.25 0.4 0.72 0.15 1.05s-0.72 0.4-1.05 0.15c-0.97-0.73-2.43-1.08-4.48-1.08h-6c-4.61 0-6.25 1.64-6.25 6.25v6c0 2.15 0.39 3.66 1.2 4.62 0.27 0.32 0.23 0.79-0.09 1.06-0.14 0.11-0.31 0.17-0.48 0.17z"/>
 <path d="m15 22.75h-6c-0.79 0-1.5-0.05-2.15-0.14-0.41-0.06-0.69-0.44-0.63-0.85s0.45-0.69 0.85-0.63c0.57 0.08 1.22 0.13 1.93 0.13h6c4.61 0 6.25-1.64 6.25-6.25v-6.01c0-0.33-0.01-0.66-0.03-0.96-0.03-0.41 0.29-0.77 0.7-0.8 0.43-0.02 0.77 0.29 0.8 0.7 0.02 0.34 0.03 0.69 0.03 1.06v6c0 5.43-2.32 7.75-7.75 7.75z"/>
 <path d="m8 10.75c-1.52 0-2.75-1.23-2.75-2.75s1.23-2.75 2.75-2.75 2.75 1.23 2.75 2.75-1.23 2.75-2.75 2.75zm0-4c-0.69 0-1.25 0.56-1.25 1.25s0.56 1.25 1.25 1.25 1.25-0.56 1.25-1.25-0.56-1.25-1.25-1.25z"/>
 <path d="m1.9999 22.75c-0.19 0-0.38-0.07-0.53-0.22-0.29-0.29-0.29-0.77 0-1.06l20-20c0.29-0.29 0.77-0.29 1.06 0s0.29 0.77 0 1.06l-20 20c-0.15 0.15-0.34 0.22-0.53 0.22z"/>
 <path d="m11.98 17.43c-0.39 0-0.78-0.15-1.07-0.44s-0.29-0.77 0-1.06 0.77-0.29 1.06 0c0.01 0.01 0.02 0.01 0.03 0l5.03-5.04c1.04-1.04 2.85-1.04 3.88 0l1.63 1.63c0.29 0.29 0.29 0.77 0 1.06s-0.77 0.29-1.06 0l-1.63-1.63c-0.47-0.47-1.29-0.47-1.76 0l-5.03 5.04c-0.3 0.29-0.69 0.44-1.08 0.44z"/>
</svg>
