<?xml version="1.0" encoding="UTF-8"?>
<svg width="24" height="24" viewBox="0 0 24 24" xmlns="http://www.w3.org/2000/svg">
 <path d="m16 22.75h-8c-3.65 0-5.75-2.1-5.75-5.75v-10c0-3.65 2.1-5.75 5.75-5.75h8c3.65 0 5.75 2.1 5.75 5.75v10c0 3.65-2.1 5.75-5.75 5.75zm-8-20c-2.86 0-4.25 1.39-4.25 4.25v10c0 2.86 1.39 4.25 4.25 4.25h8c2.86 0 4.25-1.39 4.25-4.25v-10c0-2.86-1.39-4.25-4.25-4.25h-8z"/>
 <path d="m16.25 11.75h-8.5c-1.38 0-2.5-1.12-2.5-2.5v-2.5c0-1.38 1.12-2.5 2.5-2.5h8.5c1.38 0 2.5 1.12 2.5 2.5v2.5c0 1.38-1.12 2.5-2.5 2.5zm-8.5-6c-0.55 0-1 0.45-1 1v2.5c0 0.55 0.45 1 1 1h8.5c0.55 0 1-0.45 1-1v-2.5c0-0.55-0.45-1-1-1h-8.5z"/>
 <path d="m7.9999 18.33c-0.19 0-0.38-0.07-0.53-0.22-0.29-0.29-0.29-0.77 0-1.06l2.3-2.3c0.28997-0.29 0.76997-0.29 1.06 0s0.29 0.77 0 1.06l-2.3 2.3c-0.15 0.15-0.34 0.22-0.53 0.22z"/>
 <path d="m10.33 18.36c-0.19 0-0.37999-0.07-0.52999-0.22l-2.3-2.3c-0.29-0.29-0.29-0.77 0-1.06s0.76999-0.29 1.06 0l2.3 2.3c0.29 0.29 0.29 0.77 0 1.06-0.15 0.15-0.34 0.22-0.53 0.22z"/>
 <path d="m16.51 16.33c-0.55 0-1.01-0.45-1.01-1s0.44-1 0.99-1h0.02c0.55 0 1 0.45 1 1s-0.45 1-1 1z"/>
 <path d="m14.49 18.49c-0.55 0-1-0.44-1-0.99v-0.02c0-0.55 0.45-1 1-1s1 0.45 1 1-0.45 1.01-1 1.01z"/>
</svg>
