<?xml version="1.0" encoding="UTF-8"?>
<svg width="24" height="24" viewBox="0 0 24 24" xmlns="http://www.w3.org/2000/svg">
 <path d="m6.52 16.26c-0.19 0-0.38-0.07-0.53-0.22-0.29-0.29-0.29-0.77 0-1.06l3.05-3.05c0.29-0.29 0.77-0.29 1.06 0 0.29 0.29 0.29 0.77 0 1.06l-3.05 3.05c-0.15 0.14-0.34 0.22-0.53 0.22z"/>
 <path d="m9.6002 16.29c-0.19 0-0.38-0.07-0.53-0.22l-3.05-3.05c-0.29-0.29-0.29-0.77 0-1.06s0.77-0.29 1.06 0l3.05 3.05c0.29 0.29 0.29 0.77 0 1.06-0.14997 0.15-0.33997 0.22-0.52997 0.22z"/>
 <path d="m13.54 15c-0.55 0-1.01-0.45-1.01-1s0.44-1 0.99-1h0.02c0.55 0 1 0.45 1 1s-0.44 1-1 1z"/>
 <path d="m17.48 15c-0.55 0-1.01-0.45-1.01-1s0.44-1 0.99-1h0.02c0.55 0 1 0.45 1 1s-0.45 1-1 1z"/>
 <path d="m15.5 16.97c-0.55 0-1-0.44-1-0.99v-0.02c0-0.55 0.45-1 1-1s1 0.45 1 1-0.44 1.01-1 1.01z"/>
 <path d="m15.5 13.03c-0.55 0-1-0.44-1-0.99v-0.02c0-0.55 0.45-1 1-1s1 0.45 1 1-0.44 1.01-1 1.01z"/>
 <path d="m15 22.75h-6c-5.43 0-7.75-2.32-7.75-7.75v-2c0-5.43 2.32-7.75 7.75-7.75h6c5.43 0 7.75 2.32 7.75 7.75v2c0 5.43-2.32 7.75-7.75 7.75zm-6-16c-4.61 0-6.25 1.64-6.25 6.25v2c0 4.61 1.64 6.25 6.25 6.25h6c4.61 0 6.25-1.64 6.25-6.25v-2c0-4.61-1.64-6.25-6.25-6.25h-6z"/>
 <path d="m12.99 6.75h-1c-0.96 0-1.75-0.79-1.75-1.75s0.78-1.75 1.74-1.75c0.16 0 0.27-0.11 0.28-0.25l0.01-1.01c0.01-0.41 0.34-0.74 0.75-0.74h0.01c0.41 0.01 0.75 0.35 0.74 0.76l-0.01 1.01c-0.01 0.95-0.8 1.73-1.75 1.73-0.16 0-0.26 0.11-0.26 0.25s0.11 0.25 0.25 0.25h1c0.41 0 0.75 0.34 0.75 0.75s-0.35 0.75-0.76 0.75z"/>
</svg>
