<?xml version="1.0" encoding="UTF-8"?>
<svg width="24" height="24" viewBox="0 0 24 24" xmlns="http://www.w3.org/2000/svg">
 <path d="m17.5 22.75h-14c-0.41 0-0.75-0.34-0.75-0.75v-17c0-2.24 1.51-3.75 3.75-3.75h8c2.24 0 3.75 1.51 3.75 3.75v17c0 0.41-0.34 0.75-0.75 0.75zm-13.25-1.5h12.5v-16.25c0-1.41-0.84-2.25-2.25-2.25h-8c-1.41 0-2.25 0.84-2.25 2.25v16.25z"/>
 <path d="m19 22.75h-17c-0.41 0-0.75-0.34-0.75-0.75s0.34-0.75 0.75-0.75h17c0.41 0 0.75 0.34 0.75 0.75s-0.34 0.75-0.75 0.75z"/>
 <path d="m12.61 10.75h-4.23c-1.63 0-2.64-1.01-2.64-2.64v-1.23c0-1.63 1.01-2.64 2.64-2.64h4.23c1.63 0 2.64 1.01 2.64 2.64v1.23c0 1.63-1.01 2.64-2.64 2.64zm-4.22-5c-0.81 0-1.14 0.33-1.14 1.14v1.23c0 0.81 0.33 1.14 1.14 1.14h4.23c0.81 0 1.14-0.33 1.14-1.14v-1.23c0-0.81-0.33-1.14-1.14-1.14h-4.23z"/>
 <path d="m9.5 13.75h-3c-0.41 0-0.75-0.34-0.75-0.75s0.34-0.75 0.75-0.75h3c0.41 0 0.75 0.34 0.75 0.75s-0.34 0.75-0.75 0.75z"/>
 <path d="m17.5 16.76c-0.41 0-0.75-0.33-0.75-0.75 0-0.41 0.33-0.75 0.75-0.75l3.75-0.01v-4.79l-1.59-0.79003c-0.37-0.19-0.52-0.64-0.34-1.01 0.19-0.37 0.64-0.51999 1.01-0.33999l2 1c0.25 0.13 0.41 0.38999 0.41 0.66999v6c0 0.41-0.33 0.75-0.75 0.75l-4.49 0.02z"/>
</svg>
