<?xml version="1.0" encoding="UTF-8"?>
<svg width="24" height="24" viewBox="0 0 24 24" xmlns="http://www.w3.org/2000/svg">
 <path d="m15.33 22.75c-0.42 0-0.85-0.15-1.18-0.45l-2-1.83c-0.08-0.07-0.24-0.07-0.33 0l-1.99 1.83c-0.66 0.61-1.69 0.6-2.35 0l-2-1.83c-0.08-0.07-0.23995-0.07-0.32995 0l-0.99005 0.91c-0.91 0.83-1.63 0.7-1.98 0.54s-0.94001-0.6-0.94001-1.85v-7.89c0-6.03 4.82-10.93 10.75-10.93 5.93 0 10.75 4.9 10.75 10.93v7.89c0 1.25-0.59 1.7-0.94 1.85s-1.0699 0.29-1.9799-0.54l-1-0.91c-0.08-0.07-0.2401-0.07-0.3201 0l-2 1.83c-0.32 0.3-0.7399 0.45-1.1699 0.45zm-3.3301-3.84c0.42 0 0.85 0.15 1.17 0.45l2 1.83c0.08 0.07 0.24 0.07 0.32 0l2-1.83c0.66-0.6 1.6901-0.6 2.3501 0l1 0.91c0.17 0.15 0.2799 0.22 0.3499 0.24 0.03-0.07 0.06-0.21 0.06-0.45v-7.89c0-5.2-4.15-9.43-9.25-9.43-5.1 0-9.25 4.23-9.25 9.43v7.89c0 0.24 0.04 0.38 0.06 0.45 0.07-0.03 0.18998-0.09 0.34998-0.24l1-0.91c0.66-0.6 1.69-0.6 2.35 0l2 1.83c0.08 0.07 0.24001 0.07 0.32001 0l2-1.83c0.32-0.3 0.7499-0.45 1.1699-0.45z"/>
 <path d="m12 16.07c-1.57 0-3.14-0.49-4.45-1.47-0.33-0.25-0.39996-0.72-0.14996-1.05s0.71998-0.4 1.05-0.15c2.09 1.57 5.0099 1.57 7.0999 0 0.33-0.25 0.8-0.18 1.05 0.15s0.1801 0.8-0.1499 1.05c-1.31 0.98-2.88 1.47-4.45 1.47z"/>
 <path d="m12 11.75c-1.52 0-2.75-1.23-2.75-2.75s1.23-2.75 2.75-2.75 2.75 1.23 2.75 2.75-1.23 2.75-2.75 2.75zm0-4c-0.69 0-1.25 0.56-1.25 1.25s0.56 1.25 1.25 1.25 1.25-0.56 1.25-1.25-0.56-1.25-1.25-1.25z"/>
</svg>
