<?xml version="1.0" encoding="UTF-8"?>
<svg width="24" height="24" viewBox="0 0 24 24" xmlns="http://www.w3.org/2000/svg">
 <path d="m15.97 22.75h-8c-3.42 0-4.75-1.33-4.75-4.75v-8c0-0.41 0.34-0.75 0.75-0.75h16c0.41 0 0.75 0.34 0.75 0.75v8c0 3.42-1.33 4.75-4.75 4.75zm-11.25-12v7.25c0 2.58 0.67 3.25 3.25 3.25h8c2.58 0 3.25-0.67 3.25-3.25v-7.25h-14.5z"/>
 <path d="m19.5 10.75h-15c-1.75 0-2.75-1-2.75-2.75v-1c0-1.75 1-2.75 2.75-2.75h15c1.7 0 2.75 1.05 2.75 2.75v1c0 1.7-1.05 2.75-2.75 2.75zm-15-5c-0.91 0-1.25 0.34-1.25 1.25v1c0 0.91 0.34 1.25 1.25 1.25h15c0.88 0 1.25-0.37 1.25-1.25v-1c0-0.88-0.37-1.25-1.25-1.25h-15z"/>
 <path d="m11.64 5.7499h-5.52c-0.21 0-0.41-0.09-0.55-0.24-0.61-0.67-0.59-1.7 0.05-2.34l1.42-1.42c0.66-0.66 1.75-0.66 2.41 0l2.72 2.72c0.21 0.21 0.28 0.54 0.16 0.82-0.11 0.28-0.38 0.46-0.69 0.46zm-4.97-1.5h3.17l-1.45-1.44c-0.08-0.08-0.21-0.08-0.29 0l-1.42 1.42c0 0.01-0.01 0.01-0.01 0.02z"/>
 <path d="m17.87 5.7499h-5.52c-0.3 0-0.58-0.18-0.69-0.46-0.12-0.28-0.05-0.6 0.16-0.82l2.72-2.72c0.66-0.66 1.75-0.66 2.41 0l1.42 1.42c0.64 0.64 0.67 1.67 0.05 2.34-0.14 0.15-0.34 0.24-0.55 0.24zm-3.7-1.5h3.17l-1.44-1.44c-0.08-0.08-0.21-0.08-0.29 0l-1.44 1.44z"/>
 <path d="m9.9399 16.9c-0.28 0-0.57-0.07-0.83-0.21-0.57-0.31-0.92-0.9-0.92-1.54v-5.15c0-0.41 0.34-0.75 0.75-0.75h6.04c0.41 0 0.75 0.34 0.75 0.75v5.13c0 0.65-0.35 1.24-0.92 1.54-0.57 0.31-1.26 0.27-1.8-0.09l-0.89-0.6c-0.08-0.06-0.19-0.06-0.28 0l-0.94 0.62c-0.29 0.2-0.63 0.3-0.95996 0.3zm-0.25-6.15v4.39c0 0.13 0.08 0.19 0.13 0.22s0.15 0.06 0.25996-0.01l0.94-0.62c0.59-0.39 1.35-0.39 1.93 0l0.89 0.6c0.11 0.07 0.21 0.04 0.26 0.01s0.13-0.09 0.13-0.22v-4.38h-4.54v0.01z"/>
</svg>
