<svg width="24" height="24" viewBox="0 0 24 24"  xmlns="http://www.w3.org/2000/svg">
<path d="M15.97 22.7499H7.97C4.55 22.7499 3.22 21.4199 3.22 17.9999V9.99988C3.22 9.58988 3.56 9.24988 3.97 9.24988H19.97C20.38 9.24988 20.72 9.58988 20.72 9.99988V17.9999C20.72 21.4199 19.39 22.7499 15.97 22.7499ZM4.72 10.7499V17.9999C4.72 20.5799 5.39 21.2499 7.97 21.2499H15.97C18.55 21.2499 19.22 20.5799 19.22 17.9999V10.7499H4.72Z" />
<path d="M19.5 10.7499H4.5C2.75 10.7499 1.75 9.74988 1.75 7.99988V6.99988C1.75 5.24988 2.75 4.24988 4.5 4.24988H19.5C21.2 4.24988 22.25 5.29988 22.25 6.99988V7.99988C22.25 9.69988 21.2 10.7499 19.5 10.7499ZM4.5 5.74988C3.59 5.74988 3.25 6.08988 3.25 6.99988V7.99988C3.25 8.90988 3.59 9.24988 4.5 9.24988H19.5C20.38 9.24988 20.75 8.87988 20.75 7.99988V6.99988C20.75 6.11988 20.38 5.74988 19.5 5.74988H4.5Z" />
<path d="M11.64 5.74988H6.12C5.91 5.74988 5.71 5.65988 5.57 5.50988C4.96 4.83988 4.98 3.80988 5.62 3.16988L7.04 1.74988C7.7 1.08988 8.79 1.08988 9.45 1.74988L12.17 4.46988C12.38 4.67988 12.45 5.00988 12.33 5.28988C12.22 5.56988 11.95 5.74988 11.64 5.74988ZM6.67 4.24988H9.84L8.39 2.80988C8.31 2.72988 8.18 2.72988 8.1 2.80988L6.68 4.22988C6.68 4.23988 6.67 4.23988 6.67 4.24988Z" />
<path d="M17.87 5.74988H12.35C12.05 5.74988 11.77 5.56988 11.66 5.28988C11.54 5.00988 11.61 4.68988 11.82 4.46988L14.54 1.74988C15.2 1.08988 16.29 1.08988 16.95 1.74988L18.37 3.16988C19.01 3.80988 19.04 4.83988 18.42 5.50988C18.28 5.65988 18.08 5.74988 17.87 5.74988ZM14.17 4.24988H17.34C17.33 4.23988 17.33 4.23988 17.32 4.22988L15.9 2.80988C15.82 2.72988 15.69 2.72988 15.61 2.80988L14.17 4.24988Z" />
<path d="M9.94 16.8999C9.66 16.8999 9.37 16.8299 9.11 16.6899C8.54 16.3799 8.19 15.7899 8.19 15.1499V9.99988C8.19 9.58988 8.53 9.24988 8.94 9.24988H14.98C15.39 9.24988 15.73 9.58988 15.73 9.99988V15.1299C15.73 15.7799 15.38 16.3699 14.81 16.6699C14.24 16.9799 13.55 16.9399 13.01 16.5799L12.12 15.9799C12.04 15.9199 11.93 15.9199 11.84 15.9799L10.9 16.5999C10.61 16.7999 10.27 16.8999 9.94 16.8999ZM9.69 15.1399C9.69 15.2699 9.77 15.3299 9.82 15.3599C9.87 15.3899 9.97 15.4199 10.08 15.3499L11.02 14.7299C11.61 14.3399 12.37 14.3399 12.95 14.7299L13.84 15.3299C13.95 15.3999 14.05 15.3699 14.1 15.3399C14.15 15.3099 14.23 15.2499 14.23 15.1199V10.7399H9.69V15.1399Z" />
</svg>
