<svg width="24" height="24" viewBox="0 0 24 24"  xmlns="http://www.w3.org/2000/svg">
<path d="M15.8401 22.0002H8.1601C3.9701 22.0002 3.1401 19.4702 4.5001 16.3902L5.9401 13.1202C5.9401 13.1202 9.0001 13.0002 12.0001 14.0002C15.0001 15.0002 17.8301 13.1102 17.8301 13.1102L18.0201 12.9902L19.5101 16.4002C20.8501 19.4802 19.9701 22.0002 15.8401 22.0002Z" />
<path opacity="0.4" d="M18.0199 12.99L17.8299 13.11C17.8299 13.11 14.9999 15 11.9999 14C8.99994 13 5.93994 13.12 5.93994 13.12L8.73994 6.74H8.43994C7.78994 6.74 7.18994 6.48 6.75994 6.05C6.32994 5.62 6.06994 5.02 6.06994 4.37C6.06994 3.07 7.12994 2 8.43994 2H15.5499C16.2099 2 16.7999 2.27 17.2299 2.7C17.7899 3.26 18.0799 4.08 17.8599 4.95C17.5999 6.03 16.5599 6.74 15.4399 6.74H15.2799L18.0199 12.99Z" />
</svg>
