<svg width="24" height="24" viewBox="0 0 24 24"  xmlns="http://www.w3.org/2000/svg">
<path d="M14 18.25H10C9.59 18.25 9.25 17.91 9.25 17.5C9.25 17.09 9.59 16.75 10 16.75H14C14.41 16.75 14.75 17.09 14.75 17.5C14.75 17.91 14.41 18.25 14 18.25Z" />
<path d="M2 18.25C1.59 18.25 1.25 17.91 1.25 17.5V7.5C1.25 3.09 2.59 1.75 7 1.75C7.41 1.75 7.75 2.09 7.75 2.5C7.75 2.91 7.41 3.25 7 3.25C3.43 3.25 2.75 3.92 2.75 7.5V17.5C2.75 17.91 2.41 18.25 2 18.25Z" />
<path d="M22 18.25C21.59 18.25 21.25 17.91 21.25 17.5V7.5C21.25 3.92 20.57 3.25 17 3.25C16.59 3.25 16.25 2.91 16.25 2.5C16.25 2.09 16.59 1.75 17 1.75C21.41 1.75 22.75 3.09 22.75 7.5V17.5C22.75 17.91 22.41 18.25 22 18.25Z" />
<path d="M7.2 22.7504H4.8C2.38 22.7504 1.25 21.6204 1.25 19.2004V15.9104C1.25 13.4904 2.38 12.3604 4.8 12.3604H7.2C9.62 12.3604 10.75 13.4904 10.75 15.9104V19.2004C10.75 21.6204 9.62 22.7504 7.2 22.7504ZM4.8 13.8604C3.21 13.8604 2.75 14.3204 2.75 15.9104V19.2004C2.75 20.7904 3.21 21.2504 4.8 21.2504H7.2C8.79 21.2504 9.25 20.7904 9.25 19.2004V15.9104C9.25 14.3204 8.79 13.8604 7.2 13.8604H4.8Z" />
<path d="M19.2 22.7504H16.8C14.38 22.7504 13.25 21.6204 13.25 19.2004V15.9104C13.25 13.4904 14.38 12.3604 16.8 12.3604H19.2C21.62 12.3604 22.75 13.4904 22.75 15.9104V19.2004C22.75 21.6204 21.62 22.7504 19.2 22.7504ZM16.8 13.8604C15.21 13.8604 14.75 14.3204 14.75 15.9104V19.2004C14.75 20.7904 15.21 21.2504 16.8 21.2504H19.2C20.79 21.2504 21.25 20.7904 21.25 19.2004V15.9104C21.25 14.3204 20.79 13.8604 19.2 13.8604H16.8Z" />
</svg>
