<?xml version="1.0" encoding="UTF-8"?>
<svg width="24" height="24" viewBox="0 0 24 24" xmlns="http://www.w3.org/2000/svg">
 <path d="m14 18.25h-4c-0.41 0-0.75-0.34-0.75-0.75s0.34-0.75 0.75-0.75h4c0.41 0 0.75 0.34 0.75 0.75s-0.34 0.75-0.75 0.75z"/>
 <path d="m2 18.25c-0.41 0-0.75-0.34-0.75-0.75v-10c0-4.41 1.34-5.75 5.75-5.75 0.41 0 0.75 0.34 0.75 0.75s-0.34 0.75-0.75 0.75c-3.57 0-4.25 0.67-4.25 4.25v10c0 0.41-0.34 0.75-0.75 0.75z"/>
 <path d="m22 18.25c-0.41 0-0.75-0.34-0.75-0.75v-10c0-3.58-0.68-4.25-4.25-4.25-0.41 0-0.75-0.34-0.75-0.75s0.34-0.75 0.75-0.75c4.41 0 5.75 1.34 5.75 5.75v10c0 0.41-0.34 0.75-0.75 0.75z"/>
 <path d="m7.2 22.75h-2.4c-2.42 0-3.55-1.13-3.55-3.55v-3.29c0-2.42 1.13-3.55 3.55-3.55h2.4c2.42 0 3.55 1.13 3.55 3.55v3.29c0 2.42-1.13 3.55-3.55 3.55zm-2.4-8.89c-1.59 0-2.05 0.46-2.05 2.05v3.29c0 1.59 0.46 2.05 2.05 2.05h2.4c1.59 0 2.05-0.46 2.05-2.05v-3.29c0-1.59-0.46-2.05-2.05-2.05h-2.4z"/>
 <path d="m19.2 22.75h-2.4c-2.42 0-3.55-1.13-3.55-3.55v-3.29c0-2.42 1.13-3.55 3.55-3.55h2.4c2.42 0 3.55 1.13 3.55 3.55v3.29c0 2.42-1.13 3.55-3.55 3.55zm-2.4-8.89c-1.59 0-2.05 0.46-2.05 2.05v3.29c0 1.59 0.46 2.05 2.05 2.05h2.4c1.59 0 2.05-0.46 2.05-2.05v-3.29c0-1.59-0.46-2.05-2.05-2.05h-2.4z"/>
</svg>
