<?xml version="1.0" encoding="UTF-8"?>
<svg width="24" height="24" viewBox="0 0 24 24" xmlns="http://www.w3.org/2000/svg">
 <path d="m15.84 22.75h-7.68c-2.68 0-3.9-1-4.44-1.83-0.79-1.22-0.76-2.89 0.09-4.83l3.83-8.7c-0.53-0.14-1.02-0.42-1.41-0.81-0.57-0.58-0.91-1.38-0.91-2.21 0-1.72 1.4-3.12 3.12-3.12h7.11c0.83 0 1.62 0.33 2.21 0.92 0.78 0.78 1.09 1.89 0.83 2.96s-1.14 1.92-2.22 2.23l3.82 8.74c0.84 1.93 0.87 3.6 0.07 4.82-0.54 0.83-1.76 1.83-4.42 1.83zm-7.4-20c-0.89 0-1.62 0.73-1.62 1.62 0 0.43 0.18 0.85 0.47 1.15 0.3 0.3 0.72 0.47 1.15 0.47h0.3c0.25 0 0.49 0.13 0.63 0.34s0.16 0.48 0.06 0.71l-4.25 9.65c-0.63 1.44-0.71 2.65-0.21 3.41 0.62 0.95 2.07 1.15 3.18 1.15h7.68c1.1 0 2.54-0.2 3.17-1.15 0.5-0.77 0.43-1.97-0.19-3.4l-4.21-9.66c-0.1-0.23-0.08-0.5 0.06-0.71s0.37-0.34 0.63-0.34h0.16c0.8 0 1.52-0.51 1.69-1.22 0.14-0.57-0.02-1.13-0.43-1.54-0.31-0.31-0.72-0.48-1.15-0.48h-7.12z"/>
 <path d="m13.84 15.04c-0.66 0-1.37-0.09-2.08-0.33-2.84-0.95-5.77-0.85-5.8-0.85-0.4 0.06-0.76-0.31-0.78-0.72s0.31-0.76 0.72-0.78c0.13-0.01 3.24-0.11 6.33 0.92 2.6 0.87 5.15-0.78 5.18-0.8 0.34-0.23 0.81-0.13 1.04 0.21s0.14 0.81-0.21 1.04c-0.09 0.07-1.99 1.31-4.4 1.31z"/>
</svg>
