<svg width="24" height="24" viewBox="0 0 24 24"  xmlns="http://www.w3.org/2000/svg">
<path d="M12 22.75C6.07 22.75 1.25 17.93 1.25 12C1.25 6.07 6.07 1.25 12 1.25C17.93 1.25 22.75 6.07 22.75 12C22.75 12.41 22.41 12.75 22 12.75C21.59 12.75 21.25 12.41 21.25 12C21.25 6.9 17.1 2.75 12 2.75C6.9 2.75 2.75 6.9 2.75 12C2.75 17.1 6.9 21.25 12 21.25C12.41 21.25 12.75 21.59 12.75 22C12.75 22.41 12.41 22.75 12 22.75Z" />
<path d="M9.00024 21.75H8.00024C7.59024 21.75 7.25024 21.41 7.25024 21C7.25024 20.59 7.57023 20.26 7.98023 20.25C6.41023 14.89 6.41023 9.11 7.98023 3.75C7.58023 3.74 7.25024 3.41 7.25024 3C7.25024 2.59 7.59024 2.25 8.00024 2.25H9.00024C9.24024 2.25 9.47024 2.37 9.61024 2.56C9.75024 2.76 9.79025 3.00999 9.71025 3.23999C7.83025 8.88999 7.83025 15.12 9.71025 20.77C9.79025 21 9.75024 21.25 9.61024 21.45C9.47024 21.65 9.24024 21.75 9.00024 21.75Z" />
<path d="M16.46 12.75C16.05 12.75 15.71 12.41 15.71 12C15.71 9.02002 15.2299 6.07002 14.2899 3.24002C14.1599 2.85002 14.3699 2.42 14.7599 2.29C15.1499 2.16 15.58 2.37003 15.71 2.76003C16.7 5.74003 17.21 8.85002 17.21 12C17.21 12.41 16.87 12.75 16.46 12.75Z" />
<path d="M12 17.21C9.2 17.21 6.43 16.81 3.75 16.02C3.74 16.42 3.41 16.75 3 16.75C2.59 16.75 2.25 16.41 2.25 16V15C2.25 14.76 2.37 14.53 2.56 14.39C2.75 14.25 3.01001 14.21 3.24001 14.29C6.07001 15.23 9.02 15.71 12 15.71C12.41 15.71 12.75 16.05 12.75 16.46C12.75 16.87 12.41 17.21 12 17.21Z" />
<path d="M21.0002 9.75001C20.9202 9.75001 20.8402 9.74003 20.7602 9.71003C15.1102 7.83003 8.88018 7.83003 3.23018 9.71003C2.84018 9.84003 2.41018 9.63 2.28018 9.24C2.15018 8.85 2.36018 8.41999 2.75018 8.28999C8.71018 6.29999 15.2702 6.29999 21.2202 8.28999C21.6102 8.41999 21.8202 8.85 21.6902 9.24C21.6102 9.55 21.3102 9.75001 21.0002 9.75001Z" />
<path d="M15.8201 22.75C15.4401 22.75 15.0801 22.61 14.8201 22.35C14.5101 22.04 14.3701 21.59 14.4401 21.12L14.6301 19.77C14.6801 19.42 14.89 19 15.14 18.75L18.68 15.21C19.16 14.73 19.63 14.48 20.14 14.43C20.77 14.37 21.3801 14.63 21.9601 15.21C22.5401 15.79 22.8001 16.4 22.7401 17.03C22.6901 17.53 22.4301 18.01 21.9601 18.49L18.42 22.03C18.17 22.28 17.7601 22.49 17.4101 22.54L16.06 22.73C15.97 22.74 15.9001 22.75 15.8201 22.75ZM20.31 15.92C20.3 15.92 20.29 15.92 20.28 15.92C20.14 15.93 19.9501 16.05 19.7401 16.27L16.2 19.81C16.17 19.84 16.12 19.94 16.12 19.98L15.9401 21.23L17.1901 21.05C17.2301 21.04 17.3301 20.99 17.3601 20.96L20.9 17.42C21.11 17.21 21.24 17.02 21.25 16.88C21.27 16.68 21.07 16.44 20.9 16.27C20.74 16.11 20.51 15.92 20.31 15.92Z" />
<path d="M20.9201 19.22C20.8501 19.22 20.7801 19.21 20.7201 19.19C19.4001 18.82 18.3501 17.77 17.9801 16.45C17.8701 16.05 18.1001 15.64 18.5001 15.53C18.9001 15.42 19.3101 15.65 19.4301 16.05C19.6601 16.87 20.3101 17.52 21.1301 17.75C21.5301 17.86 21.7601 18.28 21.6501 18.67C21.5501 19 21.2501 19.22 20.9201 19.22Z" />
</svg>
