<?xml version="1.0" encoding="UTF-8"?>
<svg width="24" height="24" viewBox="0 0 24 24" xmlns="http://www.w3.org/2000/svg">
 <path d="m12 22.75c-5.93 0-10.75-4.82-10.75-10.75s4.82-10.75 10.75-10.75 10.75 4.82 10.75 10.75c0 0.41-0.34 0.75-0.75 0.75s-0.75-0.34-0.75-0.75c0-5.1-4.15-9.25-9.25-9.25s-9.25 4.15-9.25 9.25 4.15 9.25 9.25 9.25c0.41 0 0.75 0.34 0.75 0.75s-0.34 0.75-0.75 0.75z"/>
 <path d="m9.0002 21.75h-1c-0.41 0-0.75-0.34-0.75-0.75s0.32001-0.74 0.73001-0.75c-1.57-5.36-1.57-11.14 0-16.5-0.4-0.01-0.73001-0.34-0.73001-0.75s0.34-0.75 0.75-0.75h1c0.24 0 0.46999 0.12 0.60999 0.31 0.14 0.2 0.18 0.44999 0.1 0.67999-1.88 5.65-1.88 11.88 0 17.53 0.08 0.23 0.04 0.48-0.1 0.68s-0.36999 0.3-0.60999 0.3z"/>
 <path d="m16.46 12.75c-0.41 0-0.75-0.34-0.75-0.75 0-2.98-0.48-5.93-1.42-8.76-0.13-0.39 0.08-0.82001 0.47-0.95001s0.82 0.08003 0.95 0.47003c0.99 2.98 1.5 6.09 1.5 9.24 0 0.41-0.34 0.75-0.75 0.75z"/>
 <path d="m12 17.21c-2.8 0-5.57-0.4-8.25-1.19-0.01 0.4-0.34 0.73-0.75 0.73s-0.75-0.34-0.75-0.75v-1c0-0.24 0.12-0.47 0.31-0.61s0.44999-0.18 0.67999-0.1c2.83 0.94 5.78 1.42 8.76 1.42 0.41 0 0.75 0.34 0.75 0.75s-0.34 0.75-0.75 0.75z"/>
 <path d="m21 9.7499c-0.08 0-0.16-0.00998-0.24-0.03998-5.65-1.88-11.88-1.88-17.53 0-0.39 0.13-0.82001-0.08003-0.95001-0.47003s0.08-0.82002 0.47-0.95002c5.96-1.99 12.52-1.99 18.47 0 0.39 0.13 0.6 0.56002 0.47 0.95002-0.08 0.31-0.38 0.51001-0.69 0.51001z"/>
 <path d="m18.26 22.75c-2.48 0-4.49-2.02-4.49-4.49s2.02-4.5 4.49-4.5c0.5 0 1 0.0699 1.47 0.2199 0.4 0.12 0.62 0.54 0.5 0.94s-0.54 0.62-0.94 0.5c-0.33-0.1-0.68-0.1499-1.03-0.1499-1.65 0-2.99 1.34-2.99 3s1.34 2.99 2.99 2.99 2.99-1.34 2.99-2.99c0-0.6-0.17-1.1701-0.5-1.6601-0.23-0.34-0.14-0.8099 0.21-1.0399 0.34-0.23 0.81-0.14 1.04 0.21 0.5 0.74 0.76 1.61 0.76 2.5-0.01 2.45-2.03 4.47-4.5 4.47z"/>
 <path d="m20.04 15.55c-0.21 0-0.4201-0.09-0.5701-0.26l-1.25-1.43c-0.27-0.31-0.2399-0.79 0.0701-1.06s0.7799-0.24 1.0599 0.07l1.25 1.43c0.27 0.31 0.24 0.79-0.07 1.06-0.14 0.13-0.3099 0.19-0.4899 0.19z"/>
 <path d="m18.58 16.61c-0.23 0-0.46-0.11-0.61-0.31-0.24-0.33-0.17-0.8 0.16-1.05l1.46-1.06c0.33-0.25 0.8-0.17 1.05 0.16 0.24 0.33 0.17 0.8-0.16 1.05l-1.46 1.06c-0.13 0.1-0.28 0.15-0.44 0.15z"/>
</svg>
