<?xml version="1.0" encoding="UTF-8"?>
<svg width="24" height="24" viewBox="0 0 24 24" xmlns="http://www.w3.org/2000/svg">
 <path d="m12 22.75c-5.93 0-10.75-4.82-10.75-10.75s4.82-10.75 10.75-10.75 10.75 4.82 10.75 10.75-4.82 10.75-10.75 10.75zm0-20c-5.1 0-9.25 4.15-9.25 9.25s4.15 9.25 9.25 9.25 9.25-4.15 9.25-9.25-4.15-9.25-9.25-9.25z"/>
 <path d="m9.0002 21.75h-1c-0.41 0-0.75-0.34-0.75-0.75s0.32-0.74 0.73-0.75c-1.57-5.36-1.57-11.14 0-16.5-0.41-0.01-0.73-0.34-0.73-0.75s0.34-0.75 0.75-0.75h1c0.24 0 0.47 0.12 0.61 0.31 0.14 0.2 0.18 0.45 0.1 0.68-1.88 5.65-1.88 11.87 0 17.53 0.08 0.23 0.04 0.48-0.1 0.68-0.14 0.18-0.37 0.3-0.61 0.3z"/>
 <path d="m15 21.75c-0.08 0-0.16-0.01-0.24-0.04-0.39-0.13-0.61-0.56-0.47-0.95 1.88-5.65 1.88-11.87 0-17.53-0.13-0.39 0.08-0.82 0.47-0.95 0.4-0.13 0.82 0.08 0.95 0.47 1.99 5.96 1.99 12.52 0 18.47-0.1 0.33-0.4 0.53-0.71 0.53z"/>
 <path d="m12 17.2c-2.79 0-5.57-0.39-8.25-1.18-0.01 0.4-0.34 0.73-0.75 0.73s-0.75-0.34-0.75-0.75v-1c0-0.24 0.12-0.47 0.31-0.61 0.2-0.14 0.45-0.18 0.68-0.1 5.65 1.88 11.88 1.88 17.53 0 0.23-0.08 0.48-0.04 0.68 0.1s0.31 0.37 0.31 0.61v1c0 0.41-0.34 0.75-0.75 0.75s-0.74-0.32-0.75-0.73c-2.69 0.79-5.47 1.18-8.26 1.18z"/>
 <path d="m21 9.7499c-0.08 0-0.16-0.01-0.24-0.04-5.65-1.88-11.88-1.88-17.53 0-0.4 0.13-0.82-0.08-0.95-0.47-0.12-0.4 0.09-0.82 0.48-0.95 5.96-1.99 12.52-1.99 18.47 0 0.39 0.13 0.61 0.56 0.47 0.95-0.09 0.31-0.39 0.51-0.7 0.51z"/>
</svg>
