<?xml version="1.0" encoding="UTF-8"?>
<svg width="24" height="24" viewBox="0 0 24 24" xmlns="http://www.w3.org/2000/svg">
 <path d="m12 22.75c-5.93 0-10.75-4.82-10.75-10.75s4.82-10.75 10.75-10.75 10.75 4.82 10.75 10.75c0 0.41-0.34 0.75-0.75 0.75s-0.75-0.34-0.75-0.75c0-5.1-4.15-9.25-9.25-9.25s-9.25 4.15-9.25 9.25 4.15 9.25 9.25 9.25c0.41 0 0.75 0.34 0.75 0.75s-0.34 0.75-0.75 0.75z"/>
 <path d="m9.0002 21.75h-1c-0.41 0-0.75-0.34-0.75-0.75s0.31999-0.74 0.72999-0.75c-1.57-5.36-1.57-11.14 0-16.5-0.4-0.01-0.72999-0.34-0.72999-0.75s0.34-0.75 0.75-0.75h1c0.24 0 0.47 0.12 0.61 0.31 0.14 0.2 0.18001 0.44999 0.10001 0.67999-1.88 5.65-1.88 11.88 0 17.53 0.08 0.23 0.03999 0.48-0.10001 0.68s-0.37 0.3-0.61 0.3z"/>
 <path d="m16.46 12.75c-0.41 0-0.75-0.34-0.75-0.75 0-2.98-0.4801-5.93-1.4201-8.76-0.13-0.39 0.08-0.82001 0.47-0.95001s0.8201 0.08003 0.9501 0.47003c0.99 2.98 1.5 6.09 1.5 9.24 0 0.41-0.34 0.75-0.75 0.75z"/>
 <path d="m12 17.21c-2.8 0-5.57-0.4-8.25-1.19-0.01 0.4-0.34 0.73-0.75 0.73s-0.75-0.34-0.75-0.75v-1c0-0.24 0.12-0.47 0.31-0.61s0.45001-0.18 0.68001-0.1c2.83 0.94 5.78 1.42 8.76 1.42 0.41 0 0.75 0.34 0.75 0.75s-0.34 0.75-0.75 0.75z"/>
 <path d="m21 9.7499c-0.08 0-0.16-0.00998-0.24-0.03998-5.65-1.88-11.88-1.88-17.53 0-0.39 0.13-0.82-0.08003-0.95-0.47003s0.08-0.82002 0.47-0.95002c5.96-1.99 12.52-1.99 18.47 0 0.39 0.13 0.6 0.56002 0.47 0.95002-0.08 0.31-0.38 0.51001-0.69 0.51001z"/>
 <path d="m15.82 22.75c-0.38 0-0.74-0.14-1-0.4-0.31-0.31-0.45-0.76-0.38-1.23l0.19-1.3499c0.05-0.35 0.2599-0.7701 0.5099-1.0201l3.54-3.5399c0.48-0.48 0.95-0.7301 1.46-0.7801 0.63-0.06 1.2401 0.2001 1.8201 0.7801s0.84 1.19 0.78 1.82c-0.05 0.5-0.31 0.9799-0.78 1.4599l-3.5401 3.5401c-0.25 0.25-0.6599 0.4599-1.0099 0.5099l-1.3501 0.19c-0.09 0.01-0.1599 0.02-0.2399 0.02zm4.4899-6.83h-0.03c-0.14 0.01-0.3299 0.1301-0.5399 0.3501l-3.5401 3.5399c-0.03 0.03-0.08 0.13-0.08 0.17l-0.1799 1.25 1.25-0.18c0.04-0.01 0.14-0.0599 0.17-0.0899l3.5399-3.5401c0.21-0.21 0.34-0.4 0.3501-0.54 0.02-0.2-0.1801-0.4399-0.3501-0.6099-0.16-0.16-0.39-0.3501-0.59-0.3501z"/>
 <path d="m20.92 19.22c-0.07 0-0.14-0.0099-0.2-0.0299-1.32-0.37-2.37-1.42-2.74-2.74-0.11-0.4 0.12-0.81 0.52-0.92s0.81 0.12 0.93 0.52c0.23 0.82 0.88 1.47 1.7 1.7 0.4 0.11 0.63 0.53 0.52 0.92-0.1 0.33-0.4 0.5499-0.73 0.5499z"/>
</svg>
