<?xml version="1.0" encoding="UTF-8"?>
<svg width="24" height="24" viewBox="0 0 24 24" xmlns="http://www.w3.org/2000/svg">
 <path d="m19.41 21.75h-14.82c-0.26 0-0.51002-0.14-0.64002-0.36l-3.18-5.29c-0.14-0.23-0.14-0.53 0-0.76l7.41-12.71c0.13-0.23 0.38003-0.36999 0.65003-0.36999h6.35c0.27 0 0.51 0.13999 0.65 0.36999 2.79 4.78 7 11.99 7.36 12.55 0.1 0.13 0.15 0.2801 0.15 0.4501 0 0.18-0.06 0.34-0.17 0.47-0.26 0.39-2.02 3.42-3.11 5.28-0.13 0.23-0.38 0.37-0.65 0.37zm-14.4-1.5h13.97c1.49-2.56 2.29-3.9201 2.78-4.6401-0.57-0.84-1.57-2.5399-3.54-5.9099l-3.47-5.95h-5.49l-6.97 11.95 2.72 4.55zm17.36-3.9201v0.0201-0.0201z"/>
 <path d="m19.41 21.749c-0.26 0-0.5099-0.13-0.6499-0.37l-10.59-18c-0.21-0.36-0.08998-0.82 0.27002-1.03s0.81997-0.09001 1.03 0.26999l10.59 18c0.21 0.36 0.09 0.82-0.27 1.03-0.12 0.07-0.25 0.1-0.38 0.1z"/>
 <path d="m4.5903 21.749c-0.13 0-0.26001-0.03-0.38001-0.1-0.36-0.21-0.48002-0.67-0.27002-1.03l10.59-18c0.21-0.36 0.6699-0.47999 1.0299-0.26999s0.4801 0.67 0.2701 1.03l-10.59 18c-0.15 0.24-0.39996 0.37-0.64996 0.37z"/>
 <path d="m22 16.461h-20.5c-0.41 0-0.75-0.34-0.75-0.75s0.34-0.75 0.75-0.75h20.5c0.41 0 0.75 0.34 0.75 0.75s-0.34 0.75-0.75 0.75z"/>
</svg>
