<?xml version="1.0" encoding="UTF-8"?>
<svg width="24" height="24" viewBox="0 0 24 24" xmlns="http://www.w3.org/2000/svg">
 <path d="m16.89 15.961c-0.19 0-0.39-0.08-0.53-0.22l-3.19-3.19c-0.29-0.29-0.29-0.77 0-1.06l3.22-3.22c0.23-0.23 0.58-0.27998 0.87-0.13998l4.49 2.25c0.62 0.3 1.01 0.92 1.01 1.62s-0.39 1.32-1.01 1.62l-4.51 2.26c-0.12 0.05-0.24 0.08-0.35 0.08zm-2.13-3.94 2.27 2.27 4.03-2.02h0.01c0.15-0.07 0.17-0.2 0.17-0.27s-0.02-0.2-0.17-0.27l-4.01-2.01-2.3 2.3z"/>
 <path d="m3.07 22.749c-0.33 0-0.67-0.09-0.96-0.28-0.54-0.33-0.86-0.9099-0.86-1.5499v-17.86c0-0.63 0.32-1.21 0.86-1.55 0.54-0.33 1.2-0.37002 1.77-0.08002l13.37 6.69c0.22 0.11 0.37 0.31002 0.4 0.55002s-0.04 0.48-0.21 0.65l-12.8 12.8c-0.06 0.06-0.12 0.1001-0.2 0.1401l-0.58 0.2899c-0.24 0.14-0.52 0.2-0.79 0.2zm0-20c-0.07 0-0.13 0.02999-0.17 0.04999-0.06 0.03-0.15 0.12002-0.15 0.27002v17.86c0 0.16 0.09 0.2401 0.15 0.2701 0.06 0.04 0.17 0.0799 0.32 0.0099l0.46-0.2299 11.97-11.97-12.44-6.22c-0.05-0.03-0.1-0.04001-0.14-0.04001z"/>
 <path d="m4.12 22.35c-0.23 0-0.46-0.1099-0.61-0.3099-0.22-0.3-0.18-0.7101 0.08-0.9701l9.58-9.58c0.14-0.14 0.33-0.22 0.53-0.22s0.39 0.08 0.53 0.22l3.19 3.19c0.17 0.17 0.25 0.41 0.21 0.65s-0.19 0.44-0.4 0.55l-12.76 6.39c-0.12 0.05-0.23 0.08-0.35 0.08zm9.58-9.27-5.77 5.77 7.69-3.85-1.92-1.92z"/>
 <path d="m13.7 12.77c-0.19 0-0.38-0.07-0.53-0.22l-9.61-9.61c-0.29-0.29-0.29-0.77 0-1.06s0.77-0.29 1.06 0l9.61 9.61c0.29 0.29 0.29 0.77 0 1.06-0.14 0.15-0.34 0.22-0.53 0.22z"/>
 <path d="m16.9 15.979c-0.18 0-0.37-0.07-0.51-0.22l-0.03-0.03c-0.29-0.29-0.29-0.77 0.01-1.06s0.77-0.29 1.06 0.01c0.29 0.29 0.3 0.79 0.01 1.08-0.16 0.15-0.35 0.22-0.54 0.22z"/>
</svg>
