<?xml version="1.0" encoding="UTF-8"?>
<svg width="24" height="24" viewBox="0 0 24 24" xmlns="http://www.w3.org/2000/svg">
 <path d="m12.2 22.75c-4.04 0-7.68-2.23-9.54-5.82-0.03-0.03-0.05-0.07-0.07-0.11-0.76-1.52-1.15-3.14-1.15-4.82s0.39-3.3 1.15-4.82c1.84-3.66 5.52-5.93 9.6-5.93 2.74 0 5.23 0.96999 7.2 2.8 0.15 0.14 0.24 0.33001 0.24 0.54001s-0.08 0.40001-0.23 0.55001l-2.82 2.76c-0.29 0.28-0.74 0.29001-1.04 0.01001-0.63-0.59-1.72-1.29-3.35-1.29-2.06 0-3.95 1.24-4.8 3.17-0.07 0.16-0.13 0.30999-0.19 0.47999-0.19 0.58-0.28 1.17-0.28 1.74s0.1 1.14 0.28 1.71c0 0.01 0.01 0.02 0.01 0.04 0.72 2.18 2.72 3.64 4.98 3.64 1.19 0 2.21-0.29 3.04-0.87 0.76-0.53 1.24-1.24 1.5-1.88h-4.53c-0.41 0-0.75-0.34-0.75-0.75v-3.71c0-0.41 0.34-0.75 0.75-0.75h9.39c0.35 0 0.65 0.23999 0.73 0.58 0.16 0.7 0.23 1.36 0.23 2.21 0 3.18-1.14 5.99-3.22 7.91-1.85 1.7-4.32 2.61-7.13 2.61zm-8.32-6.7c0.03 0.04 0.06 0.09 0.08 0.14 1.57 3.11 4.73 5.06 8.24 5.06 2.43 0 4.54-0.77 6.11-2.22 1.77-1.63 2.74-4.05 2.74-6.81 0-0.5-0.02-0.9-0.08-1.29h-8.02v2.21h4.76c0.21 0 0.42 0.09 0.56 0.25s0.21 0.38 0.18 0.59c-0.13 1.12-0.83 2.7-2.36 3.77-1.08 0.75-2.39 1.14-3.9 1.14-2.89 0-5.45-1.86-6.39-4.64 0-0.01-0.01-0.02-0.01-0.03-0.25-0.73-0.37-1.47-0.37-2.21 0-0.73 0.12-1.47 0.36-2.21 0.07-0.22 0.15-0.42 0.24-0.62 1.1-2.47 3.52-4.06 6.17-4.06 1.71 0 2.97 0.60001 3.83 1.23l1.75-1.71c-1.58-1.24-3.5-1.89-5.58-1.89-3.51 0-6.68 1.95-8.26 5.1-0.65 1.31-0.99 2.71-0.99 4.15 0.01 1.41 0.32 2.77 0.94 4.05z"/>
</svg>
