<?xml version="1.0" encoding="UTF-8"?>
<svg width="24" height="24" viewBox="0 0 24 24" xmlns="http://www.w3.org/2000/svg">
 <path d="m12 20.25c-1.15 0-2.26-0.23-3.3-0.69-0.38-0.17-0.55-0.61-0.39-0.99 0.17-0.38 0.61-0.55 0.99-0.39 0.84998 0.37 1.76 0.56 2.7 0.56 3.72 0 6.75-3.03 6.75-6.75 0-0.94-0.19-1.85-0.56-2.7-0.17-0.38 0.01-0.82 0.39-0.99 0.38-0.16 0.82 0.01 0.99 0.39 0.46 1.04 0.69 2.15 0.69 3.3-0.01 4.56-3.71 8.26-8.26 8.26z"/>
 <path d="m6.58 17.94c-0.2 0-0.39-0.08-0.54-0.23-1.48-1.55-2.29-3.57-2.29-5.71 0-4.55 3.7-8.25 8.25-8.25 2.15 0 4.18 0.82 5.73 2.31 0.3 0.29 0.31 0.76 0.02 1.06s-0.76 0.31-1.06 0.02c-1.27-1.22-2.93-1.89-4.69-1.89-3.72 0-6.75 3.03-6.75 6.75 0 1.75 0.67 3.41 1.88 4.67 0.29 0.3 0.28 0.77-0.02 1.06-0.15 0.14-0.34 0.21-0.53 0.21z"/>
 <path d="m12 4.75c-0.41 0-0.75-0.34-0.75-0.75v-2c0-0.41 0.34-0.75 0.75-0.75s0.75 0.34 0.75 0.75v2c0 0.41-0.34 0.75-0.75 0.75z"/>
 <path d="m4 12.75h-2c-0.41 0-0.75-0.34-0.75-0.75s0.34-0.75 0.75-0.75h2c0.41 0 0.75 0.34 0.75 0.75s-0.34 0.75-0.75 0.75z"/>
 <path d="m12 22.75c-0.41 0-0.75-0.34-0.75-0.75v-2c0-0.41 0.34-0.75 0.75-0.75s0.75 0.34 0.75 0.75v2c0 0.41-0.34 0.75-0.75 0.75z"/>
 <path d="m22 12.75h-2c-0.41 0-0.75-0.34-0.75-0.75s0.34-0.75 0.75-0.75h2c0.41 0 0.75 0.34 0.75 0.75s-0.34 0.75-0.75 0.75z"/>
 <path d="m9.88 14.87c-0.19 0-0.38-0.07-0.53-0.22-0.71-0.71-1.1-1.65-1.1-2.65 0-2.07 1.68-3.75 3.75-3.75 1 0 1.94 0.39 2.65 1.1 0.29 0.29 0.29 0.77 0 1.06l-4.24 4.24c-0.15 0.15-0.34 0.22-0.53 0.22zm2.12-5.12c-1.24 0-2.25 1.01-2.25 2.25 0 0.34 0.08 0.67 0.22 0.97l3-3c-0.3-0.14-0.63-0.22-0.97-0.22z"/>
 <path d="m1.9999 22.75c-0.19 0-0.38-0.07-0.53-0.22-0.29-0.29-0.29-0.77 0-1.06l20-20c0.29-0.29 0.77-0.29 1.06 0s0.29 0.77 0 1.06l-20 20c-0.15 0.15-0.34 0.22-0.53 0.22z"/>
</svg>
