<?xml version="1.0" encoding="UTF-8"?>
<svg width="24" height="24" viewBox="0 0 24 24" xmlns="http://www.w3.org/2000/svg">
 <path d="m12 22.72c-2.67 0-5.35-0.9599-7.38-2.8899-2.13-2.02-3.33-4.7401-3.37-7.6601-0.04-2.93 1.08-5.68 3.15-7.75 4.19-4.19 11.01-4.19 15.2 0 2.07 2.07 3.19 4.82 3.15 7.75-0.04 2.93-1.24 5.6501-3.37 7.6601-2.03 1.93-4.71 2.8899-7.38 2.8899zm0-19.94c-2.37 0-4.74 0.89995-6.54 2.7-1.78 1.78-2.74 4.15-2.71 6.6701 0.03 2.52 1.06 4.86 2.9 6.59 3.5 3.32 9.2 3.31 12.7 0 1.83-1.73 2.86-4.08 2.9-6.59 0.04-2.51-0.93-4.8901-2.71-6.6701-1.8-1.8-4.17-2.7-6.54-2.7z"/>
 <path d="m12 18.32c-1.58 0-3.15-0.57-4.35-1.7-0.3-0.29-0.31-0.76-0.03-1.06 0.29-0.3 0.76-0.31 1.06-0.03 1.83 1.73 4.81 1.73 6.64 0 0.3-0.28 0.78-0.27 1.06 0.03s0.27 0.78-0.03 1.06c-1.2 1.13-2.77 1.7-4.35 1.7z"/>
</svg>
