<?xml version="1.0" encoding="UTF-8"?>
<svg width="24" height="24" viewBox="0 0 24 24" xmlns="http://www.w3.org/2000/svg">
 <path d="m18.32 12.75h-3.32c-2.49 0-3.75-1.41-3.75-4.2v-2.87c0-1.02 0.12-2.48 1.18-3.28 0.89-0.66 2.17-0.71 4.06-0.16 2.48 0.72 4.55 2.79 5.27 5.27 0.55 1.88 0.5 3.17-0.16 4.05-0.8 1.07-2.26 1.19-3.28 1.19zm-4.04-9.39c-0.41 0-0.73 0.08-0.94 0.24-0.39 0.29-0.58 0.97-0.58 2.08v2.88c0 2.24 0.86 2.7 2.25 2.7h3.32c1.1 0 1.78-0.19 2.08-0.58 0.35-0.46 0.32-1.38-0.07-2.73-0.58-1.97-2.28-3.68-4.25-4.25-0.74-0.23-1.34-0.34-1.81-0.34z"/>
 <path d="m11.07 22.75c-0.53 0-1.07-0.04-1.61-0.13-4.09-0.66-7.42-3.98-8.08-8.07-0.85-5.26 2.54-10.22 7.73-11.28 0.41-0.08 0.8 0.18 0.89 0.58 0.08002 0.41-0.18 0.8-0.58 0.89-4.39 0.9-7.27 5.1-6.54 9.57 0.56 3.46 3.37 6.27 6.83 6.83 4.49 0.72 8.68-2.17 9.57-6.58 0.08-0.41 0.48-0.67 0.88-0.59 0.41 0.08 0.67 0.48 0.59 0.88-0.95 4.67-5.03 7.9-9.68 7.9z"/>
</svg>
