<svg width="24" height="24" viewBox="0 0 24 24"  xmlns="http://www.w3.org/2000/svg">
<path d="M21.3299 14.67C20.2799 13.62 19.4499 13.96 18.7299 14.67L14.5799 18.82C14.4199 18.98 14.2699 19.29 14.2299 19.51L13.9999 21.0999C13.9199 21.6699 14.3199 22.08 14.8899 21.99L16.4799 21.76C16.6999 21.73 17.0099 21.5699 17.1699 21.4099L21.3199 17.26C22.0499 16.55 22.3799 15.72 21.3299 14.67Z" />
<path d="M8.38995 2.16992V8.61993H1.92993V7.93994C1.92993 4.32994 4.07994 2.17993 7.68994 2.17993H8.38995V2.16992Z" />
<path d="M21.7698 7.93018C21.7698 8.31018 21.4598 8.61017 21.0898 8.61017H15.3398V2.16016H16.0098C19.1898 2.17016 21.7698 4.75018 21.7698 7.93018Z" />
<path d="M8.38995 15.5503V21.3103C8.38995 21.6903 8.07996 21.9903 7.70996 21.9903H7.69995C4.51995 21.9903 1.93994 19.4103 1.93994 16.2303V15.5503H8.38995Z" />
<path opacity="0.4" d="M8.39996 8.61035H1.93994V15.5504H8.39996V8.61035Z" />
<path d="M15.3299 8.61035V14.5504C15.3299 15.1004 14.8799 15.5504 14.3299 15.5504H8.38989V8.61035H15.3299Z" />
<path opacity="0.4" d="M15.3299 2.16992H8.38989V8.61993H15.3299V2.16992Z" />
</svg>
