<svg width="24" height="24" viewBox="0 0 24 24"  xmlns="http://www.w3.org/2000/svg">
<path d="M8.51 2V8.5H2V7.81C2 4.17 4.17 2 7.81 2H8.51Z" />
<path d="M22 7.81V8.5H15.51V2H16.19C19.83 2 22 4.17 22 7.81Z" />
<path d="M22 15.5V16.19C22 19.83 19.83 22 16.19 22H15.51V15.5H22Z" />
<path d="M8.51 15.5V22H7.81C4.17 22 2 19.83 2 16.19V15.5H8.51Z" />
<path opacity="0.4" d="M8.51 8.5H2V15.5H8.51V8.5Z" />
<path opacity="0.4" d="M22 8.5H15.51V15.5H22V8.5Z" />
<path d="M15.51 8.5H8.51001V15.5H15.51V8.5Z" />
<path opacity="0.4" d="M15.51 2H8.51001V8.5H15.51V2Z" />
<path opacity="0.4" d="M15.51 15.5H8.51001V22H15.51V15.5Z" />
</svg>
