<?xml version="1.0" encoding="UTF-8"?>
<svg width="24" height="24" viewBox="0 0 24 24" xmlns="http://www.w3.org/2000/svg">
 <path d="m10 22.75h-1c-5.43 0-7.75-2.32-7.75-7.75v-6c0-5.43 2.32-7.75 7.75-7.75h6c5.43 0 7.75 2.32 7.75 7.75v2c0 0.41-0.34 0.75-0.75 0.75s-0.75-0.34-0.75-0.75v-2c0-4.61-1.64-6.25-6.25-6.25h-6c-4.61 0-6.25 1.64-6.25 6.25v6c0 4.61 1.64 6.25 6.25 6.25h1c0.41 0 0.75 0.34 0.75 0.75s-0.34 0.75-0.75 0.75z"/>
 <path d="m22 9.25h-19.97c-0.41 0-0.75-0.34-0.75-0.75s0.34-0.75 0.75-0.75h19.97c0.41 0 0.75 0.34 0.75 0.75s-0.34 0.75-0.75 0.75z"/>
 <path d="m12 16.25h-9.97c-0.41 0-0.75-0.34-0.75-0.75s0.34-0.75 0.75-0.75h9.97c0.41 0 0.75 0.34 0.75 0.75s-0.34 0.75-0.75 0.75z"/>
 <path d="m8.5098 22.74c-0.41 0-0.75-0.34-0.75-0.75v-19.97c0-0.41 0.34-0.75 0.75-0.75s0.75 0.34 0.75 0.75v19.97c0 0.41-0.33 0.75-0.75 0.75z"/>
 <path d="m15.51 12.74c-0.41 0-0.75-0.34-0.75-0.75v-9.97c0-0.41 0.34-0.75 0.75-0.75s0.75 0.34 0.75 0.75v9.97c0 0.41-0.33 0.75-0.75 0.75z"/>
 <path d="m20.4 17.95c-0.41 0-0.75-0.34-0.75-0.75v-0.8c0-1.12-0.25-1.65-1.65-1.65s-1.65 0.53-1.65 1.65v0.8c0 0.41-0.34 0.75-0.75 0.75s-0.75-0.34-0.75-0.75v-0.8c0-2.09 1.06-3.15 3.15-3.15s3.15 1.06 3.15 3.15v0.8c0 0.41-0.34 0.75-0.75 0.75z"/>
 <path d="m20 22.75h-4c-2 0-2.75-0.75-2.75-2.75v-0.8c0-2 0.75-2.75 2.75-2.75h4c2 0 2.75 0.75 2.75 2.75v0.8c0 2-0.75 2.75-2.75 2.75zm-4-4.8c-1.19 0-1.25 0.06-1.25 1.25v0.8c0 1.18 0.07 1.25 1.25 1.25h4c1.18 0 1.25-0.07 1.25-1.25v-0.8c0-1.19-0.06-1.25-1.25-1.25h-4z"/>
</svg>
