<?xml version="1.0" encoding="UTF-8"?>
<svg width="24" height="24" viewBox="0 0 24 24" xmlns="http://www.w3.org/2000/svg">
 <path d="m10 22.75h-1c-5.43 0-7.75-2.32-7.75-7.75v-6c0-5.43 2.32-7.75 7.75-7.75h6c5.43 0 7.75 2.32 7.75 7.75v2c0 0.41-0.34 0.75-0.75 0.75s-0.75-0.34-0.75-0.75v-2c0-4.61-1.64-6.25-6.25-6.25h-6c-4.61 0-6.25 1.64-6.25 6.25v6c0 4.61 1.64 6.25 6.25 6.25h1c0.41 0 0.75 0.34 0.75 0.75s-0.34 0.75-0.75 0.75z"/>
 <path d="m22 9.25h-19.97c-0.41 0-0.75-0.34-0.75-0.75s0.34-0.75 0.75-0.75h19.97c0.41 0 0.75 0.34 0.75 0.75s-0.34 0.75-0.75 0.75z"/>
 <path d="m12 16.25h-9.9699c-0.41 0-0.75-0.34-0.75-0.75s0.34-0.75 0.75-0.75h9.9699c0.41 0 0.75 0.34 0.75 0.75s-0.34 0.75-0.75 0.75z"/>
 <path d="m8.5098 22.74c-0.41 0-0.75-0.34-0.75-0.75v-19.97c0-0.41 0.34-0.75 0.75-0.75s0.75 0.34 0.75 0.75v19.97c0 0.41-0.33 0.75-0.75 0.75z"/>
 <path d="m15.51 12.74c-0.41 0-0.75-0.34-0.75-0.75v-9.97c0-0.41 0.34-0.75 0.75-0.75s0.75 0.34 0.75 0.75v9.97c0 0.41-0.33 0.75-0.75 0.75z"/>
 <path d="m14.76 22.75c-0.42 0-0.8-0.1501-1.08-0.4301-0.34-0.33-0.49-0.8199-0.41-1.3299l0.23-1.59c0.05-0.38 0.28-0.84 0.56-1.12l4.15-4.15c0.54-0.54 1.07-0.82 1.63-0.88 0.69-0.07 1.38 0.23 2.03 0.88s0.95 1.33 0.88 2.03c-0.05 0.56-0.34 1.09-0.88 1.63l-4.15 4.1499c-0.27 0.27-0.73 0.5001-1.12 0.5601l-1.58 0.23c-0.09 0.01-0.18 0.02-0.26 0.02zm5.26-8h-0.04c-0.2 0.02-0.44 0.1699-0.72 0.4499l-4.15 4.1501c-0.05 0.05-0.12 0.2-0.13 0.27l-0.23 1.5899 1.63-0.1799c0.07-0.01 0.22-0.09 0.27-0.13l4.15-4.15c0.28-0.28 0.43-0.52 0.45-0.72 0.02-0.23-0.13-0.5001-0.45-0.8201-0.3-0.31-0.56-0.4599-0.78-0.4599z"/>
 <path d="m20.74 18.61c-0.07 0-0.13-0.01-0.2-0.03-1.5-0.42-2.7-1.62-3.12-3.12-0.11-0.4 0.1201-0.8099 0.5201-0.9199 0.41-0.11 0.8099 0.12 0.9199 0.52 0.28 1 1.0801 1.7999 2.0801 2.0799 0.4 0.11 0.63 0.5301 0.52 0.9201-0.09 0.34-0.4001 0.5499-0.7201 0.5499z"/>
</svg>
