<svg width="24" height="24" viewBox="0 0 24 24"  xmlns="http://www.w3.org/2000/svg">
<path d="M21.53 17.31V17.15C21.53 15.22 20.55 14.25 18.63 14.25C16.71 14.25 15.73 15.23 15.73 17.15V17.31C14.68 17.57 14.26 18.29 14.26 19.73V20.47C14.26 22.32 14.95 23 16.79 23H20.47C22.32 23 23 22.31 23 20.47V19.73C23 18.3 22.58 17.57 21.53 17.31ZM18.62 15.63C19.91 15.63 20.14 16.12 20.14 17.15V17.2H17.1V17.15C17.1 16.12 17.33 15.63 18.62 15.63Z" />
<path d="M8.38995 2.16992V8.61993H1.92993V7.93994C1.92993 4.32994 4.07994 2.17993 7.68994 2.17993H8.38995V2.16992Z" />
<path d="M21.7698 7.93018C21.7698 8.31018 21.4598 8.61017 21.0898 8.61017H15.3398V2.16016H16.0099C19.1899 2.17016 21.7698 4.75018 21.7698 7.93018Z" />
<path d="M8.38995 15.5503V21.3103C8.38995 21.6903 8.07993 21.9903 7.70993 21.9903H7.69995C4.51995 21.9903 1.93994 19.4103 1.93994 16.2303V15.5503H8.38995Z" />
<path opacity="0.4" d="M8.39993 8.61035H1.93994V15.5504H8.39993V8.61035Z" />
<path d="M15.3299 8.61035V14.5504C15.3299 15.1004 14.8799 15.5504 14.3299 15.5504H8.38989V8.61035H15.3299Z" />
<path opacity="0.4" d="M15.3299 2.16992H8.38989V8.61993H15.3299V2.16992Z" />
</svg>
