<?xml version="1.0" encoding="UTF-8"?>
<svg width="24" height="24" viewBox="0 0 24 24" xmlns="http://www.w3.org/2000/svg">
 <path d="m10 22.75h-1c-5.43 0-7.75-2.32-7.75-7.75v-6c0-5.43 2.32-7.75 7.75-7.75h6c5.43 0 7.75 2.32 7.75 7.75v2c0 0.41-0.34 0.75-0.75 0.75s-0.75-0.34-0.75-0.75v-2c0-4.61-1.64-6.25-6.25-6.25h-6c-4.61 0-6.25 1.64-6.25 6.25v6c0 4.61 1.64 6.25 6.25 6.25h1c0.41 0 0.75 0.34 0.75 0.75s-0.34 0.75-0.75 0.75z"/>
 <path d="m22 9.25h-19.97c-0.41 0-0.75-0.34-0.75-0.75s0.34-0.75 0.75-0.75h19.97c0.41 0 0.75 0.34 0.75 0.75s-0.34 0.75-0.75 0.75z"/>
 <path d="m12 16.25h-9.97c-0.41 0-0.75-0.34-0.75-0.75s0.34-0.75 0.75-0.75h9.97c0.41 0 0.75 0.34 0.75 0.75s-0.34 0.75-0.75 0.75z"/>
 <path d="m8.5098 22.74c-0.41 0-0.75-0.34-0.75-0.75v-19.97c0-0.41 0.34-0.75 0.75-0.75s0.75 0.34 0.75 0.75v19.97c0 0.41-0.33 0.75-0.75 0.75z"/>
 <path d="m15.51 12.74c-0.41 0-0.75-0.34-0.75-0.75v-9.97c0-0.41 0.34-0.75 0.75-0.75s0.75 0.34 0.75 0.75v9.97c0 0.41-0.33 0.75-0.75 0.75z"/>
 <path d="m15.95 22.75c-0.54 0-1.07-0.2-1.49-0.61l-1.59-1.6c-0.81-0.81-0.81-2.14 0-2.97l1.91-1.9c0.29-0.29 0.77-0.29 1.06 0l3.5 3.5c0.14 0.14 0.22 0.33 0.22 0.53s-0.08 0.39-0.22 0.53l-1.9 1.9c-0.42 0.41-0.95 0.62-1.49 0.62zm-0.65-5.48-1.37 1.37c-0.23 0.23-0.23 0.62 0 0.85l1.58 1.59c0.23 0.23 0.62 0.23 0.85 0l1.38-1.37-2.44-2.44z"/>
 <path d="m18.8 20.45c-0.2 0-0.39-0.0799-0.53-0.2199l-3.5-3.5c-0.29-0.29-0.29-0.77 0-1.06l2.81-2.82c0.82-0.82 2.16-0.82 2.98 0l1.5801 1.5899c0.39 0.39 0.6099 0.9201 0.6099 1.4901s-0.2199 1.09-0.6099 1.49l-2.8001 2.81c-0.15 0.15-0.34 0.2199-0.54 0.2199zm-2.43-4.24 2.44 2.4401 2.27-2.28c0.11-0.11 0.17-0.2601 0.17-0.4301 0-0.16-0.06-0.3199-0.17-0.4299l-1.58-1.59c-0.23-0.23-0.62-0.23-0.85 0l-2.28 2.2899z"/>
</svg>
