<svg width="24" height="24" viewBox="0 0 24 24"  xmlns="http://www.w3.org/2000/svg">
<path opacity="0.4" d="M11.97 22C17.4928 22 21.97 17.5228 21.97 12C21.97 6.47715 17.4928 2 11.97 2C6.44712 2 1.96997 6.47715 1.96997 12C1.96997 17.5228 6.44712 22 11.97 22Z" />
<path d="M11.9999 19.25C9.84988 19.25 7.82988 18.2 6.59988 16.43C6.35988 16.09 6.44988 15.62 6.78988 15.39C7.12988 15.15 7.59988 15.24 7.82988 15.58C8.77988 16.94 10.3399 17.76 11.9999 17.76C13.6599 17.76 15.2199 16.95 16.1699 15.58C16.4099 15.24 16.8699 15.16 17.2099 15.39C17.5499 15.63 17.6299 16.09 17.3999 16.43C16.1699 18.2 14.1499 19.25 11.9999 19.25Z" />
</svg>
