<?xml version="1.0" encoding="UTF-8"?>
<svg width="24" height="24" viewBox="0 0 24 24" xmlns="http://www.w3.org/2000/svg">
 <path d="m11.97 22.75c-5.92 0-10.75-4.82-10.75-10.75s4.83-10.75 10.75-10.75c5.92 0 10.75 4.82 10.75 10.75s-4.82 10.75-10.75 10.75zm0-20c-5.1 0-9.25 4.15-9.25 9.25s4.15 9.25 9.25 9.25c5.1 0 9.25-4.15 9.25-9.25s-4.15-9.25-9.25-9.25z"/>
 <path d="m12 19.25c-2.15 0-4.17-1.05-5.4-2.82-0.24-0.34-0.15-0.81 0.19-1.04 0.34-0.24 0.81-0.15 1.04 0.19 0.95 1.36 2.51 2.18 4.17 2.18s3.22-0.81 4.17-2.18c0.24-0.34 0.7-0.42 1.04-0.19 0.34 0.24 0.42 0.7 0.19 1.04-1.23 1.77-3.25 2.82-5.4 2.82z"/>
</svg>
