<?xml version="1.0" encoding="UTF-8"?>
<svg width="24" height="24" viewBox="0 0 24 24" xmlns="http://www.w3.org/2000/svg">
 <path d="m13.25 12.72v-6.98c0-2.48 2.01-4.49 4.49-4.49h0.52c2.48 0 4.49 2.01 4.49 4.49 0 1.99-0.98 3.8-2.63 4.83-1.75 1.1-3.78 1.79-6.03 2.05l-0.84 0.1zm4.49-9.97c-1.65 0-2.99 1.34-2.99 2.99v5.27c1.7-0.29 3.23-0.87 4.57-1.71 1.19-0.75 1.93-2.11 1.93-3.56 0-1.65-1.34-2.99-2.99-2.99h-0.52z"/>
 <path d="m18.26 22.75h-0.52c-2.48 0-4.49-2.01-4.49-4.49v-7.05l0.66-0.08c5.16-0.6 7.47-3.56 7.49-3.59l1.35-1.77v12.48c0 2.49-2.01 4.5-4.49 4.5zm-3.51-10.22v5.73c0 1.65 1.34 2.99 2.99 2.99h0.52c1.65 0 2.99-1.34 2.99-2.99v-8.48c-1.24 0.98997-3.36 2.26-6.5 2.75z"/>
 <path d="m6.26 22.749h-0.52002c-2.48 0-4.49-2.01-4.49-4.49 0-1.99 0.98-3.8 2.63-4.83 1.75-1.1 3.78-1.79 6.03-2.05l0.84003-0.1v6.98c0 2.48-2.01 4.49-4.49 4.49zm2.99-9.76c-1.7 0.29-3.23 0.87-4.57 1.71-1.19 0.75-1.93 2.11-1.93 3.56 0 1.65 1.34 2.99 2.99 2.99h0.52002c1.65 0 2.99-1.34 2.99-2.99v-5.27z"/>
 <path d="m1.25 18.22v-12.48c0-2.48 2.01-4.49 4.49-4.49h0.52002c2.48 0 4.49 2.01 4.49 4.49v7.05l-0.66 0.08c-5.16 0.6-7.47 3.56-7.49 3.59l-1.35 1.76zm4.49-15.47c-1.65 0-2.99 1.34-2.99 2.99v8.48c1.24-0.99 3.36-2.27 6.5-2.76v-5.73c0-1.65-1.34-2.99-2.99-2.99h-0.52002v0.00999z"/>
 <path d="m10.07 12.851-0.14002-1.49c1.48-0.14 2.78-0.06 3.98-0.22l0.19 1.49c-1.23 0.15-2.52 0.07-4.03 0.22z"/>
</svg>
