<svg width="24" height="24" viewBox="0 0 24 24"  xmlns="http://www.w3.org/2000/svg">
<path d="M8 21.7495C7.97 21.7495 7.94 21.7495 7.92 21.7495C7.51 21.6995 7.21 21.3295 7.26 20.9195L9.26 2.91954C9.31 2.50954 9.68 2.21954 10.09 2.25954C10.5 2.30954 10.8 2.67954 10.75 3.08954L8.75 21.0895C8.7 21.4695 8.38 21.7495 8 21.7495Z" />
<path d="M14 21.7495C13.97 21.7495 13.94 21.7495 13.92 21.7495C13.51 21.6995 13.21 21.3295 13.26 20.9195L15.26 2.91954C15.31 2.50954 15.67 2.21954 16.09 2.25954C16.5 2.30954 16.8 2.67954 16.75 3.08954L14.75 21.0895C14.7 21.4695 14.38 21.7495 14 21.7495Z" />
<path d="M21.5 9.74954H3.5C3.09 9.74954 2.75 9.40954 2.75 8.99954C2.75 8.58954 3.09 8.24954 3.5 8.24954H21.5C21.91 8.24954 22.25 8.58954 22.25 8.99954C22.25 9.40954 21.91 9.74954 21.5 9.74954Z" />
<path d="M20.5 15.7495H2.5C2.09 15.7495 1.75 15.4095 1.75 14.9995C1.75 14.5895 2.09 14.2495 2.5 14.2495H20.5C20.91 14.2495 21.25 14.5895 21.25 14.9995C21.25 15.4095 20.91 15.7495 20.5 15.7495Z" />
</svg>
