<?xml version="1.0" encoding="UTF-8"?>
<svg width="24" height="24" viewBox="0 0 24 24" xmlns="http://www.w3.org/2000/svg">
 <path d="m7.9998 21.75h-0.08c-0.41-0.05-0.71-0.42-0.66-0.83l2-18c0.05-0.41 0.42-0.7 0.82996-0.66 0.41 0.05 0.71 0.42 0.66 0.83l-2 18c-0.05 0.38-0.37 0.66-0.75 0.66z"/>
 <path d="m14 21.75h-0.08c-0.41-0.05-0.71-0.42-0.66-0.83l2-18c0.05-0.41 0.41-0.7 0.83-0.66 0.41 0.05 0.71 0.42 0.66 0.83l-2 18c-0.05 0.38-0.37 0.66-0.75 0.66z"/>
 <path d="m21.5 9.75h-18c-0.41 0-0.75-0.34-0.75-0.75s0.34-0.75 0.75-0.75h18c0.41 0 0.75 0.34 0.75 0.75s-0.34 0.75-0.75 0.75z"/>
 <path d="m20.5 15.75h-18c-0.41 0-0.75-0.34-0.75-0.75s0.34-0.75 0.75-0.75h18c0.41 0 0.75 0.34 0.75 0.75s-0.34 0.75-0.75 0.75z"/>
</svg>
