<svg width="24" height="24" viewBox="0 0 24 24"  xmlns="http://www.w3.org/2000/svg">
<path opacity="0.4" d="M16.19 2H7.81C4.17 2 2 4.17 2 7.81V16.18C2 19.83 4.17 22 7.81 22H16.18C19.82 22 21.99 19.83 21.99 16.19V7.81C22 4.17 19.83 2 16.19 2Z" />
<path d="M18.82 10.5804C19.22 10.5804 19.55 10.2504 19.55 9.85044C19.55 9.45044 19.22 9.12044 18.82 9.12044H15.21L15.6 5.62044C15.64 5.22044 15.36 4.86044 14.95 4.81044C14.55 4.77044 14.19 5.05044 14.14 5.46044L13.73 9.12044H10.9L11.29 5.62044C11.33 5.22044 11.05 4.86044 10.64 4.81044C10.24 4.77044 9.87995 5.05044 9.82995 5.46044L9.42995 9.12044H5.89995C5.49995 9.12044 5.16995 9.45044 5.16995 9.85044C5.16995 10.2504 5.49995 10.5804 5.89995 10.5804H9.26995L8.94995 13.4304H5.17995C4.77995 13.4304 4.44995 13.7604 4.44995 14.1604C4.44995 14.5604 4.77995 14.8904 5.17995 14.8904H8.78995L8.39995 18.3904C8.35995 18.7904 8.63995 19.1504 9.04995 19.2004C9.07995 19.2004 9.09995 19.2004 9.12995 19.2004C9.49995 19.2004 9.80995 18.9204 9.85995 18.5504L10.27 14.8904H13.11L12.72 18.3904C12.68 18.7904 12.96 19.1504 13.37 19.2004C13.4 19.2004 13.42 19.2004 13.45 19.2004C13.82 19.2004 14.13 18.9204 14.18 18.5504L14.59 14.8904H18.12C18.52 14.8904 18.85 14.5604 18.85 14.1604C18.85 13.7604 18.52 13.4304 18.12 13.4304H14.75L15.07 10.5804H18.82ZM13.26 13.4204H10.42L10.74 10.5704H13.58L13.26 13.4204Z" />
</svg>
