<?xml version="1.0" encoding="UTF-8"?>
<svg width="24" height="24" viewBox="0 0 24 24" xmlns="http://www.w3.org/2000/svg">
 <path d="m15 22.75h-6c-5.43 0-7.75-2.32-7.75-7.75v-6c0-5.43 2.32-7.75 7.75-7.75h6c5.43 0 7.75 2.32 7.75 7.75v4c0 0.41-0.34 0.75-0.75 0.75s-0.75-0.34-0.75-0.75v-4c0-4.61-1.64-6.25-6.25-6.25h-6c-4.61 0-6.25 1.64-6.25 6.25v6c0 4.61 1.64 6.25 6.25 6.25h6c0.41 0 0.75 0.34 0.75 0.75s-0.34 0.75-0.75 0.75z"/>
 <path d="m19 22.75c-0.41 0-0.75-0.34-0.75-0.75v-4.19l-0.72 0.72c-0.29 0.29-0.77 0.29-1.06 0s-0.29-0.77 0-1.06l2-2c0.21-0.21 0.54-0.28 0.82-0.16s0.46 0.39 0.46 0.69v6c0 0.41-0.34 0.75-0.75 0.75z"/>
 <path d="m21 18.75c-0.19 0-0.38-0.07-0.53-0.22l-2-2c-0.29-0.29-0.29-0.77 0-1.06s0.77-0.29 1.06 0l2 2c0.29 0.29 0.29 0.77 0 1.06-0.15 0.15-0.34 0.22-0.53 0.22z"/>
 <path d="m8.9002 16.49h-0.08c-0.41-0.05-0.71-0.42-0.66-0.83l1.04-9.48c0.05-0.41 0.42-0.71 0.82997-0.66 0.41 0.05 0.71 0.42 0.66 0.83l-1.05 9.47c-0.04 0.38-0.37 0.67-0.74 0.67z"/>
 <path d="m12.05 16.49h-0.08c-0.41-0.05-0.71-0.42-0.66-0.83l1.05-9.47c0.05-0.41 0.42-0.71 0.83-0.66s0.71 0.42 0.66 0.83l-1.05 9.47c-0.04 0.37-0.37 0.66-0.75 0.66z"/>
 <path d="m16 10.17h-9.47c-0.41 0-0.75-0.33998-0.75-0.74998s0.34-0.75 0.75-0.75h9.47c0.41 0 0.75 0.34 0.75 0.75s-0.34 0.74998-0.75 0.74998z"/>
 <path d="m15.47 13.33h-9.47c-0.41 0-0.75-0.34-0.75-0.75s0.34-0.75 0.75-0.75h9.47c0.41 0 0.75 0.34 0.75 0.75s-0.33 0.75-0.75 0.75z"/>
</svg>
