<svg width="24" height="24" viewBox="0 0 24 24"  xmlns="http://www.w3.org/2000/svg">
<path d="M7.99984 21.7495C7.96984 21.7495 7.93984 21.7495 7.91984 21.7495C7.50984 21.6995 7.20984 21.3295 7.25984 20.9195L9.25984 2.91954C9.30984 2.50954 9.67984 2.21954 10.0898 2.25954C10.4998 2.30954 10.7998 2.67954 10.7498 3.08954L8.74984 21.0895C8.69984 21.4695 8.37984 21.7495 7.99984 21.7495Z" />
<path d="M13.9998 21.7495C13.9698 21.7495 13.9398 21.7495 13.9198 21.7495C13.5098 21.6995 13.2098 21.3295 13.2598 20.9195L15.2598 2.91954C15.3098 2.50954 15.6698 2.21954 16.0898 2.25954C16.4998 2.30954 16.7998 2.67954 16.7498 3.08954L14.7498 21.0895C14.6998 21.4695 14.3798 21.7495 13.9998 21.7495Z" />
<path d="M21.5 9.75H3.5C3.09 9.75 2.75 9.41 2.75 9C2.75 8.59 3.09 8.25 3.5 8.25H21.5C21.91 8.25 22.25 8.59 22.25 9C22.25 9.41 21.91 9.75 21.5 9.75Z" />
<path d="M20.5 15.75H2.5C2.09 15.75 1.75 15.41 1.75 15C1.75 14.59 2.09 14.25 2.5 14.25H20.5C20.91 14.25 21.25 14.59 21.25 15C21.25 15.41 20.91 15.75 20.5 15.75Z" />
</svg>
