<svg width="24" height="24" viewBox="0 0 24 24"  xmlns="http://www.w3.org/2000/svg">
<path opacity="0.4" d="M16.19 2H7.81C4.17 2 2 4.17 2 7.81V16.18C2 19.83 4.17 22 7.81 22H16.18C19.82 22 21.99 19.83 21.99 16.19V7.81C22 4.17 19.83 2 16.19 2Z" />
<path d="M13.8599 6.65039H10.1399C8.2199 6.65039 6.6499 8.21039 6.6499 10.1404V13.8604C6.6499 15.7804 8.2199 17.3504 10.1399 17.3504H13.8599C15.7799 17.3504 17.3499 15.7904 17.3499 13.8604V10.1404C17.3499 8.22039 15.7799 6.65039 13.8599 6.65039ZM15.9499 10.1404V11.3004H12.6999V8.05039H13.8599C15.0099 8.05039 15.9499 8.99039 15.9499 10.1404ZM10.1399 8.05039H11.2999V11.3104H8.0499V10.1504C8.0499 8.99039 8.9899 8.05039 10.1399 8.05039ZM8.0499 13.8604V12.7004H11.3099V15.9604H10.1499C8.9899 15.9504 8.0499 15.0104 8.0499 13.8604ZM13.8599 15.9504H12.6999V12.7004H15.9599V13.8604C15.9499 15.0104 15.0099 15.9504 13.8599 15.9504Z" />
</svg>
