<?xml version="1.0" encoding="UTF-8"?>
<svg width="24" height="24" viewBox="0 0 24 24" xmlns="http://www.w3.org/2000/svg">
 <path d="m8.5 12.75c-0.41 0-0.75-0.34-0.75-0.75v-4.7801c0-0.41 0.34-0.75 0.75-0.75s0.75 0.34 0.75 0.75v4.7801c0 0.41-0.34 0.75-0.75 0.75z"/>
 <path d="m8.5 22.75c-0.41 0-0.75-0.34-0.75-0.75v-3c0-0.41 0.34-0.75 0.75-0.75s0.75 0.34 0.75 0.75v3c0 0.41-0.34 0.75-0.75 0.75z"/>
 <path d="m15.5 22.75c-0.41 0-0.75-0.34-0.75-0.75v-14.78c0-0.41 0.34-0.75 0.75-0.75s0.75 0.34 0.75 0.75v14.78c0 0.41-0.34 0.75-0.75 0.75z"/>
 <path d="m8.2999 7.8505h-2.25c-0.29 0-0.53998-0.15998-0.66998-0.41998s-0.1-0.55998 0.07-0.78998c0.19-0.25 0.29999-0.57002 0.29999-0.90002v-0.89996c0-0.32-0.10999-0.64003-0.29999-0.90003-0.17-0.23-0.2-0.52998-0.07-0.78998 0.13-0.25 0.38998-0.42004 0.66998-0.42004h2.25c1.41 0 2.55 1.14 2.55 2.55 0 0.69-0.27 1.33-0.76 1.81-0.45998 0.48999-1.1 0.75994-1.79 0.75994zm-1.11-1.5h1.11c0.28 0 0.54001-0.10998 0.73001-0.29998 0.21-0.2 0.32001-0.46 0.32001-0.75 0-0.58-0.47002-1.05-1.05-1.05h-1.11c0.04 0.2 0.06 0.39997 0.06 0.59997v0.90003c0 0.2-0.02 0.39997-0.06 0.59997z"/>
 <path d="m4.2498 8.7496c-0.66 0-1.54-0.21003-2.46-1.03-0.31-0.28-0.52999-0.77997-0.52999-1.22v-2.34c0-0.39 0.18-0.85 0.44-1.12 0.93-0.97 1.89-1.18 2.53-1.19h0.03c0.79 0 1.57 0.32 2.12 0.88 0.1 0.1 0.20001 0.22003 0.29001 0.34003 0.37 0.49 0.57999 1.13 0.57999 1.78v0.90002c0 0.65-0.21001 1.29-0.60001 1.8-0.5 0.67-1.27 1.1-2.1 1.18-0.09 0.01-0.19998 0.02002-0.29998 0.02002zm0-5.4h-0.01999c-0.51 0.01-1.01 0.26004-1.46 0.73004 0 0-0.01998 0.06998-0.01998 0.09998v2.33c0 0.02 0.02998 0.09 0.04998 0.12 0.51 0.45 1.07 0.67999 1.6 0.61999 0.42-0.04 0.79002-0.25002 1.05-0.59002 0.19-0.25 0.29999-0.56997 0.29999-0.89997v-0.90002c0-0.32-0.10999-0.63996-0.29999-0.89996-0.05-0.08-0.10002-0.12005-0.14002-0.17005-0.28-0.28-0.65999-0.44-1.06-0.44z"/>
 <path d="m17.95 7.85h-2.25c-0.69 0-1.33-0.26995-1.81-0.75995-0.47-0.46-0.74-1.1-0.74-1.79 0-1.41 1.14-2.55 2.55-2.55h2.25c0.28 0 0.54 0.15998 0.67 0.41998 0.13 0.25 0.1 0.56004-0.07 0.79004-0.19 0.25-0.3 0.56997-0.3 0.89997v0.90002c0 0.33 0.11 0.63996 0.3 0.89996 0.17 0.23 0.2 0.53004 0.07 0.79004-0.12 0.24-0.38 0.39997-0.67 0.39997zm-2.25-3.6c-0.58 0-1.05 0.46999-1.05 1.05 0 0.28 0.11 0.54004 0.3 0.73004 0.2 0.21 0.46 0.31995 0.75 0.31995h1.11c-0.04-0.2-0.06-0.39998-0.06-0.59998v-0.90002c0-0.2 0.02-0.39998 0.06-0.59998h-1.11z"/>
 <path d="m19.75 8.7504c-0.11 0-0.21-0.01001-0.31-0.01001-0.83-0.08-1.59-0.51-2.1-1.18-0.39-0.51-0.6-1.15-0.6-1.8v-0.90003c0-0.65 0.21-1.29 0.6-1.8 0.07-0.1 0.17-0.22 0.27-0.32 0.56-0.56 1.3301-0.88001 2.1201-0.88001h0.03c0.64 0.01 1.6 0.22 2.53 1.19 0.26 0.27 0.44 0.73 0.44 1.12v2.34c0 0.44-0.22 0.93996-0.53 1.21-0.91 0.82-1.7901 1.03-2.4501 1.03zm0-5.4c-0.4 0-0.79 0.16-1.06 0.44-0.04 0.04-0.0799 0.09002-0.1199 0.14002-0.21 0.28-0.3201 0.59998-0.3201 0.91998v0.90003c0 0.33 0.11 0.64002 0.3 0.90002 0.26 0.34 0.6301 0.54998 1.0501 0.59998 0.53 0.06 1.09-0.17002 1.63-0.64002 0 0 0.02-0.06997 0.03-0.09997v-2.33c0-0.02-0.0301-0.08999-0.0401-0.10999-0.43-0.45-0.93-0.70001-1.44-0.70001-0.02-0.02-0.02-0.02002-0.03-0.02002z"/>
 <path d="m8.5 19.75c-1.24 0-2.25-1.01-2.25-2.25v-4c0-1.24 1.01-2.25 2.25-2.25s2.25 1.01 2.25 2.25v4c0 1.24-1.01 2.25-2.25 2.25zm0-7c-0.41 0-0.75 0.34-0.75 0.75v4c0 0.41 0.34 0.75 0.75 0.75s0.75-0.34 0.75-0.75v-4c0-0.41-0.34-0.75-0.75-0.75z"/>
</svg>
