<?xml version="1.0" encoding="UTF-8"?>
<svg width="24" height="24" viewBox="0 0 24 24" xmlns="http://www.w3.org/2000/svg">
 <path d="m5.5702 22.7c-2.34 0-4.32-1.98-4.32-4.32v-6.16c-0.05-2.92 1.03-5.67 3.05-7.73 2.02-2.05 4.73-3.19 7.65-3.19 5.96 0 10.8 4.85 10.8 10.8v6.16c0 2.38-1.94 4.32-4.32 4.32-2.34 0-4.32-1.98-4.32-4.32v-2.81c0-1.45 1.14-2.59 2.59-2.59s2.59 1.14 2.59 2.59v3.03c0 0.41-0.34 0.75-0.75 0.75s-0.75-0.34-0.75-0.75v-3.03c0-0.68-0.55-1.09-1.09-1.09-0.68 0-1.09 0.55-1.09 1.09v2.81c0 1.53 1.29 2.82 2.82 2.82s2.82-1.29 2.82-2.82v-6.16c0-5.13-4.17-9.3-9.3-9.3-2.51 0-4.84 0.97-6.58 2.74s-2.67 4.14-2.62 6.66v6.18c0 1.53 1.29 2.82 2.82 2.82s2.82-1.29 2.82-2.82v-2.81c0-0.68-0.55-1.09-1.09-1.09-0.68 0-1.09 0.55-1.09 1.09v2.92c0 0.41-0.34 0.75-0.75 0.75s-0.75-0.34-0.75-0.75v-2.92c0-1.45 1.14-2.59 2.59-2.59s2.59 1.14 2.59 2.59v2.81c0 2.34-1.98 4.32-4.32 4.32z"/>
</svg>
