<?xml version="1.0" encoding="UTF-8"?>
<svg width="24" height="24" viewBox="0 0 24 24" xmlns="http://www.w3.org/2000/svg">
 <path d="m14.97 22.75h-6c-5.43 0-7.75-2.32-7.75-7.75v-6c0-5.43 2.32-7.75 7.75-7.75h6c5.43 0 7.75 2.32 7.75 7.75v6c0 5.43-2.31 7.75-7.75 7.75zm-6-20c-4.61 0-6.25 1.64-6.25 6.25v6c0 4.61 1.64 6.25 6.25 6.25h6c4.61 0 6.25-1.64 6.25-6.25v-6c0-4.61-1.64-6.25-6.25-6.25h-6z"/>
 <path d="m11.45 18.06c-0.24 0-0.82-0.09-1.16-0.96l-1.14-2.88c-0.16-0.41-0.73-0.79-1.16-0.79l-6 0.02c-0.41 0-0.75-0.33-0.75-0.75 0-0.41 0.33-0.75 0.75-0.75l6-0.02h0.01c1.05 0 2.17 0.76 2.56 1.74l0.91 2.3 2.06-5.22c0.31-0.78001 0.86-0.89001 1.09-0.91001 0.23-0.01 0.79 0.04 1.18 0.78001l1.04 1.97c0.18 0.34 0.72 0.67 1.11 0.67h4.06c0.41 0 0.75 0.34 0.75 0.75s-0.34 0.75-0.75 0.75h-4.06c-0.95 0-1.99-0.63-2.43-1.47l-0.78-1.48-2.1 5.29c-0.37 0.86-0.96 0.96-1.19 0.96z"/>
</svg>
