<svg width="24" height="24" viewBox="0 0 24 24"  xmlns="http://www.w3.org/2000/svg">
<path d="M14.9702 22.75H8.97021C3.54022 22.75 1.22021 20.43 1.22021 15V9C1.22021 3.57 3.54022 1.25 8.97021 1.25H14.9702C20.4002 1.25 22.7202 3.57 22.7202 9V15C22.7202 20.43 20.4102 22.75 14.9702 22.75ZM8.97021 2.75C4.36021 2.75 2.72021 4.39 2.72021 9V15C2.72021 19.61 4.36021 21.25 8.97021 21.25H14.9702C19.5802 21.25 21.2202 19.61 21.2202 15V9C21.2202 4.39 19.5802 2.75 14.9702 2.75H8.97021Z" />
<path d="M11.4502 18.06C11.2102 18.06 10.6302 17.97 10.2902 17.1L9.15021 14.22C8.99021 13.81 8.42021 13.43 7.99021 13.43L1.99021 13.45C1.58021 13.45 1.24021 13.12 1.24021 12.7C1.24021 12.29 1.57021 11.95 1.99021 11.95L7.99021 11.93H8.00022C9.05022 11.93 10.1702 12.69 10.5602 13.67L11.4702 15.97L13.5302 10.75C13.8402 9.97 14.3902 9.86 14.6202 9.84C14.8502 9.83 15.4102 9.88 15.8002 10.62L16.8402 12.59C17.0202 12.93 17.5602 13.26 17.9502 13.26H22.0102C22.4202 13.26 22.7602 13.6 22.7602 14.01C22.7602 14.42 22.4202 14.76 22.0102 14.76H17.9502C17.0002 14.76 15.9602 14.13 15.5202 13.29L14.7402 11.81L12.6402 17.1C12.2702 17.96 11.6802 18.06 11.4502 18.06Z" />
</svg>
