<svg width="24" height="24" viewBox="0 0 24 24"  xmlns="http://www.w3.org/2000/svg">
<path d="M12 21.6501C11.78 21.6501 11.45 21.6301 11.14 21.5201C7.32 20.2101 1.25 15.5701 1.25 8.69012C1.25 5.19012 4.08 2.3501 7.56 2.3501C9.25 2.3501 10.83 3.01012 12 4.19012C13.17 3.01012 14.75 2.3501 16.44 2.3501C19.92 2.3501 22.75 5.19012 22.75 8.69012C22.75 9.90012 22.57 11.0901 22.21 12.2301C22.09 12.6201 21.66 12.8501 21.27 12.7201C20.87 12.6001 20.66 12.1702 20.78 11.7802C21.09 10.7902 21.25 9.75013 21.25 8.70013C21.25 6.03013 19.09 3.86011 16.44 3.86011C14.92 3.86011 13.51 4.5701 12.6 5.7901C12.32 6.1701 11.68 6.1701 11.4 5.7901C10.48 4.5601 9.08 3.86011 7.56 3.86011C4.91 3.86011 2.75 6.03013 2.75 8.70013C2.75 15.5401 9.32 19.3301 11.63 20.1201C11.69 20.1401 11.83 20.1701 12 20.1701C12.41 20.1701 12.75 20.5101 12.75 20.9201C12.75 21.3301 12.41 21.6501 12 21.6501Z" />
<path d="M15.8201 22.7502C15.4401 22.7502 15.0801 22.6102 14.8201 22.3502C14.5101 22.0402 14.3701 21.5902 14.4401 21.1202L14.6301 19.7702C14.6801 19.4202 14.8901 19.0002 15.1401 18.7502L18.6801 15.2102C19.1601 14.7302 19.6301 14.4802 20.1401 14.4302C20.7701 14.3702 21.3801 14.6302 21.9601 15.2102C22.5401 15.7902 22.8001 16.4002 22.7401 17.0302C22.6901 17.5302 22.4301 18.0102 21.9601 18.4902L18.4201 22.0302C18.1701 22.2802 17.7601 22.4902 17.4101 22.5402L16.0601 22.7302C15.9701 22.7402 15.9001 22.7502 15.8201 22.7502ZM20.3101 15.9202C20.3001 15.9202 20.2901 15.9202 20.2801 15.9202C20.1401 15.9302 19.9501 16.0502 19.7401 16.2702L16.2001 19.8102C16.1701 19.8402 16.1201 19.9402 16.1201 19.9802L15.9401 21.2302L17.1901 21.0502C17.2301 21.0402 17.3301 20.9902 17.3601 20.9602L20.9001 17.4202C21.1101 17.2102 21.2401 17.0202 21.2501 16.8802C21.2701 16.6802 21.0701 16.4402 20.9001 16.2702C20.7401 16.1102 20.5101 15.9202 20.3101 15.9202Z" />
<path d="M20.9201 19.2202C20.8501 19.2202 20.7801 19.2102 20.7201 19.1902C19.4001 18.8202 18.3501 17.7703 17.9801 16.4503C17.8701 16.0503 18.1001 15.6403 18.5001 15.5303C18.9001 15.4203 19.3101 15.6502 19.4301 16.0502C19.6601 16.8702 20.3101 17.5202 21.1301 17.7502C21.5301 17.8602 21.7601 18.2802 21.6501 18.6702C21.5501 19.0002 21.2501 19.2202 20.9201 19.2202Z" />
</svg>
