<?xml version="1.0" encoding="UTF-8"?>
<svg width="24" height="24" viewBox="0 0 24 24" xmlns="http://www.w3.org/2000/svg">
 <path d="m17.2 22.75c-1.94 0-3.76-1.03-4.75-2.7-0.52-0.84-0.8-1.84-0.8-2.85 0-3.06 2.49-5.55 5.55-5.55s5.55 2.49 5.55 5.55c0 1.02-0.28 2.01-0.81 2.87-0.98 1.65-2.8 2.68-4.74 2.68zm0-9.6c-2.23 0-4.05 1.82-4.05 4.05 0 0.74 0.2 1.46 0.58 2.08 0.74 1.24 2.03 1.97 3.47 1.97s2.73-0.7301 3.46-1.9601c0.39-0.63 0.59-1.3499 0.59-2.0899 0-2.23-1.82-4.05-4.05-4.05z"/>
 <path d="m16.51 19.13c-0.19 0-0.38-0.07-0.53-0.22l-1.18-1.18c-0.29-0.29-0.29-0.77 0-1.06s0.77-0.29 1.06 0l0.67 0.67 2.03-1.88c0.31-0.28 0.78-0.26 1.06 0.04s0.26 0.78-0.04 1.06l-2.56 2.36c-0.14 0.15-0.33 0.21-0.51 0.21z"/>
 <path d="m12 21.65c-0.31 0-0.62-0.04-0.87-0.13-2.56-0.87-9.88-5.1101-9.88-12.83 0-3.5 2.83-6.34 6.31-6.34 1.66 0 3.27 0.67003 4.44 1.84 1.17-1.17 2.78-1.84 4.44-1.84 3.48 0 6.31 2.84 6.31 6.34 0 1.95-0.47 3.82-1.4 5.57-0.11 0.21-0.32 0.3601-0.56 0.3901s-0.48-0.0501-0.65-0.2301c-0.78-0.82-1.82-1.28-2.94-1.28-2.23 0-4.05 1.82-4.05 4.05 0 0.99 0.37 1.95 1.04 2.7 0.16 0.18 0.22 0.42 0.17 0.65s-0.21 0.43-0.42 0.53c-0.4 0.18-0.76 0.33-1.09 0.44-0.24 0.1-0.54 0.1401-0.85 0.1401zm-4.44-17.8c-2.65 0-4.81 2.17-4.81 4.84 0 6.84 6.57 10.62 8.87 11.41 0.19 0.07 0.57 0.06 0.75 0 0.03-0.01 0.06-0.02 0.09-0.03-0.53-0.86-0.81-1.85-0.81-2.87 0-3.06 2.49-5.5499 5.55-5.5499 1.16 0 2.3 0.3699 3.24 1.0499 0.54-1.28 0.81-2.62 0.81-4.01 0-2.67-2.16-4.84-4.81-4.84-1.5 0-2.94 0.72005-3.84 1.93-0.28 0.38-0.92 0.38-1.2 0-0.9-1.21-2.34-1.93-3.84-1.93z"/>
</svg>
