<?xml version="1.0" encoding="UTF-8"?>
<svg width="24" height="24" viewBox="0 0 24 24" xmlns="http://www.w3.org/2000/svg">
 <path d="m12 21.65c-0.22 0-0.55-0.02-0.86-0.13-3.82-1.31-9.89-5.9501-9.89-12.83 0-3.5 2.83-6.34 6.31-6.34 1.69 0 3.27 0.66003 4.44 1.84 1.17-1.18 2.75-1.84 4.44-1.84 3.48 0 6.31 2.84 6.31 6.34 0 1.21-0.18 2.4-0.54 3.54-0.12 0.39-0.55 0.62-0.94 0.49-0.4-0.12-0.61-0.5499-0.49-0.9399 0.31-0.99 0.47-2.03 0.47-3.08 0-2.67-2.16-4.84-4.81-4.84-1.52 0-2.93 0.70999-3.84 1.93-0.28 0.38-0.92 0.38-1.2 0-0.92-1.23-2.32-1.93-3.84-1.93-2.65 0-4.81 2.17-4.81 4.84 0 6.84 6.57 10.63 8.88 11.42 0.06 0.02 0.2 0.05 0.37 0.05 0.41 0 0.75 0.34 0.75 0.75s-0.34 0.7301-0.75 0.7301z"/>
 <path d="m17.74 21.75c-2.18 0-3.95-1.77-3.95-3.95s1.77-3.95 3.95-3.95 3.95 1.77 3.95 3.95-1.77 3.95-3.95 3.95zm0-6.4c-1.35 0-2.45 1.1-2.45 2.45s1.1 2.45 2.45 2.45 2.45-1.1 2.45-2.45-1.1-2.45-2.45-2.45z"/>
 <path d="m21.54 22.35c-0.19 0-0.38-0.07-0.53-0.22l-1-1c-0.29-0.29-0.29-0.77 0-1.06s0.77-0.29 1.06 0l1 1c0.29 0.29 0.29 0.77 0 1.06-0.15 0.14-0.34 0.22-0.53 0.22z"/>
</svg>
