<?xml version="1.0" encoding="UTF-8"?>
<svg width="24" height="24" viewBox="0 0 24 24" xmlns="http://www.w3.org/2000/svg">
 <path d="m6.11 18.25c-0.18 0-0.37001-0.07-0.51001-0.2-1.98-1.86-4.35-4.99-4.35-9.36 0-3.5 2.83-6.34 6.31-6.34 1.69 0 3.27 0.66003 4.44 1.84 1.17-1.18 2.75-1.84 4.44-1.84 1.26 0 2.48 0.38002 3.53 1.08 0.34 0.23 0.43 0.69997 0.2 1.04s-0.7 0.43002-1.04 0.20002c-0.79-0.54-1.72-0.82996-2.68-0.82996-1.52 0-2.93 0.71-3.84 1.94-0.28 0.38-0.92 0.38-1.2 0-0.92-1.23-2.32-1.94-3.84-1.94-2.65 0-4.81 2.17-4.81 4.84 0 3.84 2.11 6.61 3.88 8.27 0.3 0.28 0.31998 0.76 0.03998 1.06-0.17 0.16-0.37 0.24-0.57 0.24z"/>
 <path d="m12 21.65c-0.31 0-0.61-0.04-0.86-0.13-0.75-0.26-1.64-0.68-2.5-1.19-0.36-0.21-0.47001-0.67-0.26001-1.03 0.21-0.35 0.66997-0.47 1.03-0.26 0.78003 0.46 1.57 0.84 2.22 1.06 0.18 0.06 0.57 0.06 0.75 0 2.3-0.79 8.88-4.58 8.88-11.42 0-0.5-0.08-0.99002-0.22-1.46-0.12-0.4 0.09-0.81994 0.49-0.93994s0.82 0.09999 0.94 0.48999c0.19 0.62 0.29 1.26 0.29 1.91 0 6.88-6.07 11.52-9.89 12.83-0.26 0.1-0.56 0.14-0.87 0.14z"/>
 <path d="m2 22.75c-0.19 0-0.38003-0.07-0.53003-0.22-0.29-0.29-0.29-0.77 0-1.06l20-20c0.29-0.29 0.7701-0.29 1.0601 0s0.29 0.77006 0 1.0601l-20 20c-0.15 0.15-0.34003 0.22-0.53003 0.22z"/>
</svg>
