<?xml version="1.0" encoding="UTF-8"?>
<svg width="24" height="24" viewBox="0 0 24 24" xmlns="http://www.w3.org/2000/svg">
 <path d="m17.2 22.75c-3.06 0-5.55-2.49-5.55-5.55s2.49-5.55 5.55-5.55 5.55 2.49 5.55 5.55-2.49 5.55-5.55 5.55zm0-9.6c-2.23 0-4.05 1.82-4.05 4.05s1.82 4.05 4.05 4.05 4.05-1.82 4.05-4.05-1.82-4.05-4.05-4.05z"/>
 <path d="m18.99 18.01h-3.59c-0.41 0-0.75-0.34-0.75-0.75s0.34-0.75 0.75-0.75h3.59c0.41 0 0.75 0.34 0.75 0.75s-0.33 0.75-0.75 0.75z"/>
 <path d="m17.2 19.85c-0.41 0-0.75-0.34-0.75-0.75v-3.5899c0-0.41 0.34-0.75 0.75-0.75s0.75 0.34 0.75 0.75v3.5899c0 0.41-0.34 0.75-0.75 0.75z"/>
 <path d="m12 21.65c-0.31 0-0.62-0.04-0.87-0.13-2.56-0.87-9.88-5.1101-9.88-12.83 0-3.5 2.83-6.34 6.31-6.34 1.67 0 3.27 0.67003 4.44 1.84 1.17-1.17 2.78-1.84 4.44-1.84 3.48 0 6.31 2.84 6.31 6.34 0 1.95-0.47 3.82-1.4 5.57-0.11 0.21-0.32 0.3601-0.56 0.3901-0.25 0.03-0.48-0.0501-0.65-0.2301-0.78-0.82-1.83-1.28-2.95-1.28-2.23 0-4.05 1.82-4.05 4.05 0 0.99 0.37 1.95 1.04 2.7 0.16 0.18 0.22 0.42 0.17 0.65s-0.21 0.43-0.42 0.53c-0.4 0.18-0.76 0.33-1.09 0.44-0.23 0.1-0.53 0.1401-0.84 0.1401zm-4.44-17.8c-2.65 0-4.81 2.17-4.81 4.84 0 6.84 6.57 10.62 8.87 11.41 0.18 0.07 0.57 0.06 0.75 0 0.03-0.01 0.06-0.02 0.09-0.03-0.52-0.86-0.81-1.85-0.81-2.87 0-3.06 2.49-5.5499 5.55-5.5499 1.18 0 2.3 0.3699 3.24 1.0399 0.54-1.28 0.81-2.62 0.81-4 0-2.67-2.16-4.84-4.81-4.84-1.5 0-2.94 0.72005-3.84 1.93-0.28 0.38-0.92 0.38-1.2 0-0.9-1.21-2.34-1.93-3.84-1.93z"/>
</svg>
