<?xml version="1.0" encoding="UTF-8"?>
<svg width="24" height="24" viewBox="0 0 24 24" xmlns="http://www.w3.org/2000/svg">
 <path d="m12 22.75c-5.93 0-10.75-4.82-10.75-10.75s4.82-10.75 10.75-10.75 10.75 4.82 10.75 10.75-4.82 10.75-10.75 10.75zm0-20c-5.1 0-9.25 4.15-9.25 9.25s4.15 9.25 9.25 9.25 9.25-4.15 9.25-9.25-4.15-9.25-9.25-9.25z"/>
 <path d="m12 18.25c-0.21 0-0.41-0.03-0.58-0.09-2.15-0.73-5.56-3.35-5.56-7.25 0-2.08 1.68-3.77 3.75-3.77 0.90004 0 1.73 0.30999 2.4 0.86999 0.67-0.56 1.51-0.86999 2.39-0.86999 2.07 0 3.75 1.69 3.75 3.77 0 3.89-3.41 6.51-5.57 7.25-0.17 0.06-0.38 0.09-0.58 0.09zm-2.4-9.6c-1.24 0-2.25 1.02-2.25 2.27 0 3.49 3.37 5.43 4.55 5.83 0.04 0.01 0.14 0.01 0.18 0 1.18-0.4 4.55-2.34 4.55-5.83 0-1.25-1.01-2.27-2.25-2.27-0.7 0-1.37 0.34-1.79 0.91-0.28 0.38-0.92 0.38-1.2 0-0.42-0.58-1.07-0.91-1.79-0.91z"/>
</svg>
