<svg width="24" height="24" viewBox="0 0 24 24"  xmlns="http://www.w3.org/2000/svg">
<path d="M12 22.75C6.07 22.75 1.25 17.93 1.25 12C1.25 6.07 6.07 1.25 12 1.25C17.93 1.25 22.75 6.07 22.75 12C22.75 17.93 17.93 22.75 12 22.75ZM12 2.75C6.9 2.75 2.75 6.9 2.75 12C2.75 17.1 6.9 21.25 12 21.25C17.1 21.25 21.25 17.1 21.25 12C21.25 6.9 17.1 2.75 12 2.75Z" />
<path d="M11.9999 18.2496C11.7899 18.2496 11.5899 18.2196 11.4199 18.1596C9.26986 17.4296 5.85986 14.8096 5.85986 10.9096C5.85986 8.82964 7.53986 7.13965 9.60986 7.13965C10.5099 7.13965 11.3399 7.44964 12.0099 8.00964C12.6799 7.44964 13.5199 7.13965 14.3999 7.13965C16.4699 7.13965 18.1499 8.82964 18.1499 10.9096C18.1499 14.7996 14.7399 17.4196 12.5799 18.1596C12.4099 18.2196 12.1999 18.2496 11.9999 18.2496ZM9.59987 8.64963C8.35987 8.64963 7.34987 9.66965 7.34987 10.9196C7.34987 14.4096 10.7199 16.3496 11.8999 16.7496C11.9399 16.7596 12.0399 16.7596 12.0799 16.7496C13.2599 16.3496 16.6299 14.4096 16.6299 10.9196C16.6299 9.66965 15.6199 8.64963 14.3799 8.64963C13.6799 8.64963 13.0099 8.98963 12.5899 9.55963C12.3099 9.93963 11.6699 9.93963 11.3899 9.55963C10.9699 8.97963 10.3199 8.64963 9.59987 8.64963Z" />
</svg>
