<svg width="24" height="24" viewBox="0 0 24 24"  xmlns="http://www.w3.org/2000/svg">
<path d="M17.1999 22.7501C15.6299 22.7501 14.1299 22.0801 13.0699 20.9001C12.1499 19.8701 11.6499 18.5601 11.6499 17.2001C11.6499 14.1401 14.1399 11.6501 17.1999 11.6501C18.7399 11.6501 20.1699 12.2701 21.2399 13.3901C21.2699 13.4201 21.2999 13.4601 21.3199 13.4901C22.2599 14.5501 22.7499 15.8401 22.7499 17.1901C22.7499 20.2601 20.2599 22.7501 17.1999 22.7501ZM17.1999 13.1501C14.9699 13.1501 13.1499 14.9701 13.1499 17.2001C13.1499 18.1901 13.5199 19.1501 14.1899 19.9001C14.9599 20.7601 16.0599 21.2501 17.1999 21.2501C19.4299 21.2501 21.2499 19.4301 21.2499 17.2001C21.2499 16.1701 20.8599 15.1901 20.1399 14.4301C20.1199 14.4101 20.0999 14.3801 20.0799 14.3601C19.3099 13.5801 18.2899 13.1501 17.1999 13.1501Z" />
<path d="M18.4799 19.2901C18.2899 19.2901 18.0999 19.2201 17.9499 19.0701L15.4099 16.5301C15.1199 16.2401 15.1199 15.7601 15.4099 15.4701C15.6999 15.1801 16.1799 15.1801 16.4699 15.4701L19.0099 18.0101C19.2999 18.3001 19.2999 18.7801 19.0099 19.0701C18.8699 19.2101 18.6699 19.2901 18.4799 19.2901Z" />
<path d="M15.9198 19.3201C15.7298 19.3201 15.5399 19.2501 15.3899 19.1001C15.0999 18.8101 15.0999 18.3301 15.3899 18.0401L17.9298 15.5001C18.2198 15.2101 18.6998 15.2101 18.9898 15.5001C19.2798 15.7901 19.2798 16.2701 18.9898 16.5601L16.4499 19.1001C16.2999 19.2401 16.1098 19.3201 15.9198 19.3201Z" />
<path d="M12 21.6501C11.69 21.6501 11.38 21.6101 11.13 21.5201C8.57 20.6501 1.25 16.4101 1.25 8.69012C1.25 5.19012 4.08 2.3501 7.56 2.3501C9.23 2.3501 10.83 3.02012 12 4.19012C13.17 3.02012 14.78 2.3501 16.44 2.3501C19.92 2.3501 22.75 5.19012 22.75 8.69012C22.75 10.6401 22.28 12.5101 21.35 14.2601C21.24 14.4701 21.03 14.6201 20.79 14.6501C20.55 14.6801 20.31 14.6001 20.14 14.4201C19.36 13.6001 18.31 13.1401 17.19 13.1401C14.96 13.1401 13.14 14.9601 13.14 17.1901C13.14 18.1801 13.51 19.1401 14.18 19.8901C14.34 20.0701 14.4 20.3101 14.35 20.5401C14.3 20.7701 14.14 20.9701 13.93 21.0701C13.53 21.2501 13.17 21.4001 12.84 21.5101C12.61 21.6101 12.31 21.6501 12 21.6501ZM7.56 3.8501C4.91 3.8501 2.75 6.02012 2.75 8.69012C2.75 15.5301 9.32 19.3101 11.62 20.1001C11.8 20.1701 12.19 20.1601 12.37 20.1001C12.4 20.0901 12.43 20.0801 12.46 20.0701C11.94 19.2101 11.6499 18.2201 11.6499 17.2001C11.6499 14.1401 14.1399 11.6501 17.1999 11.6501C18.3799 11.6501 19.5 12.0201 20.44 12.6901C20.98 11.4101 21.25 10.0701 21.25 8.69012C21.25 6.02012 19.09 3.8501 16.44 3.8501C14.94 3.8501 13.5 4.57015 12.6 5.78015C12.32 6.16015 11.68 6.16015 11.4 5.78015C10.5 4.57015 9.06 3.8501 7.56 3.8501Z" />
</svg>
