<?xml version="1.0" encoding="UTF-8"?>
<svg width="24" height="24" viewBox="0 0 24 24" xmlns="http://www.w3.org/2000/svg">
 <path d="m17.2 22.75c-1.57 0-3.07-0.67-4.13-1.85-0.92-1.03-1.42-2.34-1.42-3.7 0-3.06 2.49-5.55 5.55-5.55 1.54 0 2.97 0.62 4.04 1.74 0.03 0.03 0.06 0.07 0.08 0.1 0.94 1.06 1.43 2.35 1.43 3.7 0 3.07-2.49 5.56-5.55 5.56zm0-9.6c-2.23 0-4.05 1.82-4.05 4.05 0 0.99 0.37 1.95 1.04 2.7 0.77 0.86 1.87 1.35 3.01 1.35 2.23 0 4.05-1.82 4.05-4.05 0-1.03-0.39-2.01-1.11-2.77-0.02-0.02-0.04-0.05-0.06-0.07-0.77-0.78-1.79-1.21-2.88-1.21z"/>
 <path d="m18.48 19.29c-0.19 0-0.38-0.07-0.53-0.22l-2.54-2.54c-0.29-0.29-0.29-0.77 0-1.06s0.77-0.29 1.06 0l2.54 2.54c0.29 0.29 0.29 0.77 0 1.06-0.14 0.14-0.34 0.22-0.53 0.22z"/>
 <path d="m15.92 19.32c-0.19 0-0.3799-0.07-0.5299-0.22-0.29-0.29-0.29-0.77 0-1.06l2.5399-2.54c0.29-0.29 0.77-0.29 1.06 0s0.29 0.77 0 1.06l-2.5399 2.54c-0.15 0.14-0.3401 0.22-0.5301 0.22z"/>
 <path d="m12 21.65c-0.31 0-0.62-0.04-0.87-0.13-2.56-0.87-9.88-5.1101-9.88-12.83 0-3.5 2.83-6.34 6.31-6.34 1.67 0 3.27 0.67003 4.44 1.84 1.17-1.17 2.78-1.84 4.44-1.84 3.48 0 6.31 2.84 6.31 6.34 0 1.95-0.47 3.82-1.4 5.57-0.11 0.21-0.32 0.3601-0.56 0.3901s-0.48-0.0501-0.65-0.2301c-0.78-0.82-1.83-1.28-2.95-1.28-2.23 0-4.05 1.82-4.05 4.05 0 0.99 0.37 1.95 1.04 2.7 0.16 0.18 0.22 0.42 0.17 0.65s-0.21 0.43-0.42 0.53c-0.4 0.18-0.76 0.33-1.09 0.44-0.23 0.1-0.53 0.1401-0.84 0.1401zm-4.44-17.8c-2.65 0-4.81 2.17-4.81 4.84 0 6.84 6.57 10.62 8.87 11.41 0.18 0.07 0.57 0.06 0.75 0 0.03-0.01 0.06-0.02 0.09-0.03-0.52-0.86-0.81-1.85-0.81-2.87 0-3.06 2.49-5.5499 5.55-5.5499 1.18 0 2.3 0.3699 3.24 1.0399 0.54-1.28 0.81-2.62 0.81-4 0-2.67-2.16-4.84-4.81-4.84-1.5 0-2.94 0.72005-3.84 1.93-0.28 0.38-0.92 0.38-1.2 0-0.9-1.21-2.34-1.93-3.84-1.93z"/>
</svg>
