<svg width="24" height="24" viewBox="0 0 24 24"  xmlns="http://www.w3.org/2000/svg">
<path opacity="0.4" d="M16.44 3.1001C14.63 3.1001 13.01 3.98008 12 5.33008C10.99 3.98008 9.37 3.1001 7.56 3.1001C4.49 3.1001 2 5.60009 2 8.69009C2 9.88009 2.19 10.9801 2.52 12.0001C4.1 17.0001 8.97 19.9901 11.38 20.8101C11.72 20.9301 12.28 20.9301 12.62 20.8101C15.03 19.9901 19.9 17.0001 21.48 12.0001C21.81 10.9801 22 9.88009 22 8.69009C22 5.60009 19.51 3.1001 16.44 3.1001Z" />
<path d="M14.8399 9.16C13.9399 8.26 13.2299 8.55 12.6199 9.16L9.07994 12.7C8.93994 12.84 8.80994 13.1 8.77994 13.29L8.58994 14.64C8.51994 15.13 8.85994 15.47 9.34994 15.4L10.6999 15.21C10.8899 15.18 11.1599 15.05 11.2899 14.91L14.8299 11.37C15.4499 10.77 15.7399 10.06 14.8399 9.16Z" />
</svg>
