<?xml version="1.0" encoding="UTF-8"?>
<svg width="24" height="24" viewBox="0 0 24 24" xmlns="http://www.w3.org/2000/svg">
 <path d="m12 21.65c-0.31 0-0.61-0.04-0.86-0.13-3.82-1.31-9.89-5.96-9.89-12.83 0-3.5 2.83-6.34 6.31-6.34 1.69 0 3.27 0.66 4.44 1.84 1.17-1.18 2.75-1.84 4.44-1.84 3.48 0 6.31 2.85 6.31 6.34 0 6.88-6.07 11.52-9.89 12.83-0.25 0.09-0.55 0.13-0.86 0.13zm-4.44-17.8c-2.65 0-4.81 2.17-4.81 4.84 0 6.83 6.57 10.63 8.88 11.42 0.18 0.06 0.57 0.06 0.75 0 2.3-0.79 8.88-4.58 8.88-11.42 0-2.67-2.16-4.84-4.81-4.84-1.52 0-2.93 0.71-3.84 1.94-0.28 0.38-0.92 0.38-1.2 0-0.93-1.24-2.33-1.94-3.85-1.94z"/>
</svg>
