<svg width="24" height="24" viewBox="0 0 24 24"  xmlns="http://www.w3.org/2000/svg">
<path d="M17.1999 22.7504C15.2599 22.7504 13.4399 21.7204 12.4499 20.0504C11.9299 19.2104 11.6499 18.2104 11.6499 17.2004C11.6499 14.1404 14.1399 11.6504 17.1999 11.6504C20.2599 11.6504 22.7499 14.1404 22.7499 17.2004C22.7499 18.2204 22.4699 19.2104 21.9399 20.0704C20.9599 21.7204 19.1399 22.7504 17.1999 22.7504ZM17.1999 13.1504C14.9699 13.1504 13.1499 14.9704 13.1499 17.2004C13.1499 17.9404 13.3499 18.6604 13.7299 19.2804C14.4699 20.5204 15.7599 21.2504 17.1999 21.2504C18.6399 21.2504 19.9299 20.5203 20.6599 19.2903C21.0499 18.6603 21.2499 17.9404 21.2499 17.2004C21.2499 14.9704 19.4299 13.1504 17.1999 13.1504Z" />
<path d="M16.51 19.1298C16.32 19.1298 16.13 19.0598 15.98 18.9098L14.8 17.7298C14.51 17.4398 14.51 16.9598 14.8 16.6698C15.09 16.3798 15.57 16.3798 15.86 16.6698L16.53 17.3398L18.56 15.4598C18.87 15.1798 19.34 15.1998 19.62 15.4998C19.9 15.7998 19.88 16.2798 19.58 16.5598L17.02 18.9198C16.88 19.0698 16.69 19.1298 16.51 19.1298Z" />
<path d="M12 21.6497C11.69 21.6497 11.38 21.6097 11.13 21.5197C8.57 20.6497 1.25 16.4096 1.25 8.68964C1.25 5.18964 4.08 2.34961 7.56 2.34961C9.22 2.34961 10.83 3.01964 12 4.18964C13.17 3.01964 14.78 2.34961 16.44 2.34961C19.92 2.34961 22.75 5.18964 22.75 8.68964C22.75 10.6396 22.28 12.5096 21.35 14.2596C21.24 14.4696 21.03 14.6197 20.79 14.6497C20.55 14.6797 20.31 14.5996 20.14 14.4196C19.36 13.5996 18.32 13.1396 17.2 13.1396C14.97 13.1396 13.15 14.9596 13.15 17.1896C13.15 18.1796 13.52 19.1396 14.19 19.8896C14.35 20.0696 14.41 20.3096 14.36 20.5396C14.31 20.7696 14.15 20.9696 13.94 21.0696C13.54 21.2496 13.18 21.3996 12.85 21.5096C12.61 21.6096 12.31 21.6497 12 21.6497ZM7.56 3.84961C4.91 3.84961 2.75 6.01964 2.75 8.68964C2.75 15.5296 9.32 19.3096 11.62 20.0996C11.81 20.1696 12.19 20.1596 12.37 20.0996C12.4 20.0896 12.43 20.0796 12.46 20.0696C11.93 19.2096 11.65 18.2196 11.65 17.1996C11.65 14.1396 14.14 11.6497 17.2 11.6497C18.36 11.6497 19.5 12.0196 20.44 12.6996C20.98 11.4196 21.25 10.0796 21.25 8.68964C21.25 6.01964 19.09 3.84961 16.44 3.84961C14.94 3.84961 13.5 4.56966 12.6 5.77966C12.32 6.15966 11.68 6.15966 11.4 5.77966C10.5 4.56966 9.06 3.84961 7.56 3.84961Z" />
</svg>
