<?xml version="1.0" encoding="UTF-8"?>
<svg width="24" height="24" viewBox="0 0 24 24" xmlns="http://www.w3.org/2000/svg">
 <path d="m12 21.65c-0.22 0-0.55-0.02-0.86-0.13-3.82-1.31-9.89-5.9501-9.89-12.83 0-3.5 2.83-6.34 6.31-6.34 1.69 0 3.27 0.66003 4.44 1.84 1.17-1.18 2.75-1.84 4.44-1.84 3.48 0 6.31 2.84 6.31 6.34 0 1.21-0.18 2.4-0.54 3.54-0.12 0.39-0.55 0.62-0.94 0.49-0.4-0.12-0.61-0.5499-0.49-0.9399 0.31-0.99 0.47-2.03 0.47-3.08 0-2.67-2.16-4.84-4.81-4.84-1.52 0-2.93 0.70999-3.84 1.93-0.28 0.38-0.92 0.38-1.2 0-0.92-1.23-2.32-1.93-3.84-1.93-2.65 0-4.81 2.17-4.81 4.84 0 6.84 6.57 10.63 8.88 11.42 0.06 0.02 0.2 0.05 0.37 0.05 0.41 0 0.75 0.34 0.75 0.75s-0.34 0.7301-0.75 0.7301z"/>
 <path d="m15.82 22.75c-0.38 0-0.74-0.14-1-0.4-0.31-0.31-0.45-0.76-0.38-1.23l0.19-1.35c0.05-0.35 0.26-0.77 0.51-1.02l3.54-3.54c0.48-0.48 0.95-0.73 1.46-0.78 0.63-0.06 1.24 0.2 1.82 0.78s0.84 1.19 0.78 1.82c-0.05 0.5-0.31 0.98-0.78 1.46l-3.54 3.54c-0.25 0.25-0.66 0.46-1.01 0.51l-1.35 0.19c-0.09 0.01-0.16 0.02-0.24 0.02zm4.49-6.83h-0.03c-0.14 0.01-0.33 0.13-0.54 0.35l-3.54 3.54c-0.03 0.03-0.08 0.13-0.08 0.17l-0.18 1.25 1.25-0.18c0.04-0.01 0.14-0.06 0.17-0.09l3.54-3.54c0.21-0.21 0.34-0.4 0.35-0.54 0.02-0.2-0.18-0.44-0.35-0.61-0.16-0.16-0.39-0.35-0.59-0.35z"/>
 <path d="m20.92 19.22c-0.07 0-0.14-0.0099-0.2-0.0299-1.32-0.37-2.37-1.42-2.74-2.74-0.11-0.4 0.12-0.81 0.52-0.92s0.81 0.1199 0.93 0.5199c0.23 0.82 0.88 1.4701 1.7 1.7001 0.4 0.11 0.63 0.5299 0.52 0.9199-0.1 0.33-0.4 0.55-0.73 0.55z"/>
</svg>
