<svg width="24" height="24" viewBox="0 0 24 24"  xmlns="http://www.w3.org/2000/svg">
<path d="M7.5 17.3996V6.59961" stroke="white" stroke-width="1.5" stroke-miterlimit="10" stroke-linecap="round" stroke-linejoin="round"/>
<path d="M7.5 9.75586H16.5" stroke="white" stroke-width="1.5" stroke-miterlimit="10" stroke-linecap="round" stroke-linejoin="round"/>
<path opacity="0.4" d="M12 24C18.6274 24 24 18.6274 24 12C24 5.37258 18.6274 0 12 0C5.37258 0 0 5.37258 0 12C0 18.6274 5.37258 24 12 24Z" />
<path d="M16.5001 18.3002C16.0081 18.3002 15.6001 17.8922 15.6001 17.4002V6.6002C15.6001 6.1082 16.0081 5.7002 16.5001 5.7002C16.9921 5.7002 17.4001 6.1082 17.4001 6.6002V17.4002C17.4001 17.8922 16.9921 18.3002 16.5001 18.3002Z" />
<path d="M16.4999 15.1437H7.49989C7.00789 15.1437 7.59989 14.7357 7.59989 14.2437C7.59989 13.7517 7.00789 13.3438 7.49989 13.3438H16.4999C16.9919 13.3438 17.3999 13.7517 17.3999 14.2437C17.3999 14.7357 16.9919 15.1437 16.4999 15.1437Z" />
</svg>
