<?xml version="1.0" encoding="UTF-8"?>
<svg width="24" height="24" viewBox="0 0 24 24" xmlns="http://www.w3.org/2000/svg">
 <path d="m17.43 21.41h-10.87l-5.43-9.4101 5.43-9.41h10.87l5.43 9.41-5.43 9.4101zm-10-1.5h9.13l4.57-7.9101-4.57-7.91h-9.13l-4.56 7.91 4.56 7.9101z"/>
 <path d="m11.31 21.41h-4.71l-2.36-4.08 2.36-4.08h4.71l2.3601 4.08-2.3601 4.08zm-3.85-1.5h2.98l1.49-2.58-1.49-2.58h-2.98l-1.49 2.58 1.49 2.58z"/>
 <path d="m14.78 21.41h-8.18l-4.09-7.08 4.09-7.08h8.18l4.09 7.08-4.09 7.08zm-7.31-1.5h6.44l3.22-5.58-3.22-5.58h-6.44l-3.22 5.58 3.22 5.58z"/>
</svg>
