<?xml version="1.0" encoding="UTF-8"?>
<svg width="24" height="24" viewBox="0 0 24 24" xmlns="http://www.w3.org/2000/svg">
 <path d="m16.45 15.15c-0.41 0-0.75-0.34-0.75-0.75v-5.9c0-0.14-0.11-0.25-0.25-0.25h-2.9c-0.41 0-0.75-0.34-0.75-0.75s0.34-0.75 0.75-0.75h2.9c0.96 0 1.75 0.79 1.75 1.75v5.9c0 0.41-0.34 0.75-0.75 0.75z"/>
 <path d="m14.05 9.7497c-0.17 0-0.34-0.06001-0.48-0.17001l-1.8-1.5c-0.17-0.14-0.27-0.34999-0.27-0.57999s0.1-0.42998 0.27-0.57998l1.8-1.5c0.32-0.26 0.79-0.22003 1.06 0.09997s0.22 0.79-0.1 1.06l-1.11 0.92001 1.11 0.92002c0.32 0.27 0.36 0.73999 0.1 1.06-0.15 0.18-0.37 0.26999-0.58 0.26999z"/>
 <path d="m7.5498 15.15c-0.41 0-0.75-0.34-0.75-0.75v-4.2c0-0.41 0.34-0.75 0.75-0.75s0.75 0.34 0.75 0.75v4.2c0 0.41-0.34 0.75-0.75 0.75z"/>
 <path d="m7.7 10.65c-1.49 0-2.7-1.21-2.7-2.7s1.21-2.7 2.7-2.7 2.7 1.21 2.7 2.7-1.21 2.7-2.7 2.7zm0-3.9c-0.66 0-1.2 0.54001-1.2 1.2s0.54001 1.2 1.2 1.2 1.2-0.53998 1.2-1.2-0.54001-1.2-1.2-1.2z"/>
 <path d="m7.55 18.75c-1.41 0-2.55-1.14-2.55-2.55s1.14-2.55 2.55-2.55 2.55 1.14 2.55 2.55-1.14 2.55-2.55 2.55zm0-3.6c-0.58 0-1.05 0.47-1.05 1.05s0.46999 1.05 1.05 1.05 1.05-0.47 1.05-1.05-0.46999-1.05-1.05-1.05z"/>
 <path d="m16.45 18.75c-1.41 0-2.55-1.14-2.55-2.55s1.14-2.55 2.55-2.55 2.55 1.14 2.55 2.55-1.14 2.55-2.55 2.55zm0-3.6c-0.58 0-1.05 0.47-1.05 1.05s0.47 1.05 1.05 1.05 1.05-0.47 1.05-1.05-0.47-1.05-1.05-1.05z"/>
 <path d="m15 22.75h-6c-5.43 0-7.75-2.32-7.75-7.75v-6c0-5.43 2.32-7.75 7.75-7.75h6c5.43 0 7.75 2.32 7.75 7.75v6c0 5.43-2.32 7.75-7.75 7.75zm-6-20c-4.61 0-6.25 1.64-6.25 6.25v6c0 4.61 1.64 6.25 6.25 6.25h6c4.61 0 6.25-1.64 6.25-6.25v-6c0-4.61-1.64-6.25-6.25-6.25h-6z"/>
</svg>
