<?xml version="1.0" encoding="UTF-8"?>
<svg width="24" height="24" viewBox="0 0 24 24" xmlns="http://www.w3.org/2000/svg">
 <path d="m5 15.75c-0.41 0-0.75-0.34-0.75-0.75v-7c0-0.41 0.34-0.75 0.75-0.75s0.75 0.34 0.75 0.75v7c0 0.41-0.34 0.75-0.75 0.75z"/>
 <path d="m5.25 22.75c-2.21 0-4-1.79-4-4s1.79-4 4-4 4 1.79 4 4-1.79 4-4 4zm0-6.5c-1.38 0-2.5 1.12-2.5 2.5s1.12 2.5 2.5 2.5 2.5-1.12 2.5-2.5-1.12-2.5-2.5-2.5z"/>
 <path d="m5 8.75c-2.07 0-3.75-1.68-3.75-3.75s1.68-3.75 3.75-3.75 3.75 1.68 3.75 3.75-1.68 3.75-3.75 3.75zm0-6c-1.24 0-2.25 1.01-2.25 2.25s1.01 2.25 2.25 2.25 2.25-1.01 2.25-2.25-1.01-2.25-2.25-2.25z"/>
 <path d="m19 8.75c-2.07 0-3.75-1.68-3.75-3.75s1.68-3.75 3.75-3.75 3.75 1.68 3.75 3.75-1.68 3.75-3.75 3.75zm0-6c-1.24 0-2.25 1.01-2.25 2.25s1.01 2.25 2.25 2.25 2.25-1.01 2.25-2.25-1.01-2.25-2.25-2.25z"/>
 <path d="m5.1301 15.75c-0.06 0-0.12-0.01-0.19-0.02-0.4-0.1-0.64-0.51-0.54-0.91 0.55-2.12 2.46-3.6 4.65-3.6h0.02l3.43 0.01h0.02c2.22 0 4.21-1.41 4.94-3.51 0.14-0.39 0.56-0.59999 0.95-0.45999s0.6 0.55998 0.46 0.94998c-0.94 2.71-3.53 4.49-6.38 4.52l-3.43-0.01h-0.01c-1.51 0-2.82 1.02-3.2 2.48-0.08 0.33-0.39 0.55-0.72 0.55z"/>
</svg>
