<?xml version="1.0" encoding="UTF-8"?>
<svg width="24" height="24" viewBox="0 0 24 24" xmlns="http://www.w3.org/2000/svg">
 <path d="m7.7998 15.15c-0.41 0-0.75-0.34-0.75-0.75v-4.2c0-0.41 0.34-0.75 0.75-0.75s0.75 0.34 0.75 0.75v4.2c0 0.41-0.34 0.75-0.75 0.75z"/>
 <path d="m7.95 10.65c-1.49 0-2.7-1.21-2.7-2.7s1.21-2.7 2.7-2.7 2.7 1.21 2.7 2.7-1.21 2.7-2.7 2.7zm0-3.9c-0.66 0-1.2 0.54001-1.2 1.2s0.54001 1.2 1.2 1.2 1.2-0.53998 1.2-1.2-0.54001-1.2-1.2-1.2z"/>
 <path d="m7.8 18.75c-1.41 0-2.55-1.14-2.55-2.55s1.14-2.55 2.55-2.55 2.55 1.14 2.55 2.55-1.14 2.55-2.55 2.55zm0-3.6c-0.58 0-1.05 0.47-1.05 1.05s0.46999 1.05 1.05 1.05 1.05-0.47 1.05-1.05-0.46999-1.05-1.05-1.05z"/>
 <path d="m16.2 18.75c-1.41 0-2.55-1.14-2.55-2.55s1.14-2.55 2.55-2.55 2.55 1.14 2.55 2.55-1.14 2.55-2.55 2.55zm0-3.6c-0.58 0-1.05 0.47-1.05 1.05s0.47 1.05 1.05 1.05 1.05-0.47 1.05-1.05-0.47-1.05-1.05-1.05z"/>
 <path d="m15.7 15.17c-0.31 0-0.6-0.19-0.71-0.5-0.4-1.14-1.47-1.9-2.68-1.9h-0.01l-2.06 0.01h-0.01c-1.45 0-2.72-0.98-3.08-2.38-0.1-0.40003 0.13998-0.81004 0.53998-0.91004 0.39-0.1 0.80997 0.14001 0.90997 0.54004 0.19 0.74 0.86001 1.26 1.63 1.26h0.01l2.06-0.01h0.02c1.84 0 3.49 1.17 4.1 2.91 0.14 0.39-0.07 0.82-0.46 0.96-0.09 0.01-0.18 0.02-0.26 0.02z"/>
 <path d="m15 22.75h-6c-5.43 0-7.75-2.32-7.75-7.75v-6c0-5.43 2.32-7.75 7.75-7.75h6c5.43 0 7.75 2.32 7.75 7.75v6c0 5.43-2.32 7.75-7.75 7.75zm-6-20c-4.61 0-6.25 1.64-6.25 6.25v6c0 4.61 1.64 6.25 6.25 6.25h6c4.61 0 6.25-1.64 6.25-6.25v-6c0-4.61-1.64-6.25-6.25-6.25h-6z"/>
</svg>
