<svg width="24" height="24" viewBox="0 0 24 24"  xmlns="http://www.w3.org/2000/svg">
<path opacity="0.4" d="M16.19 2H7.82001C4.18001 2 2.01001 4.17 2.01001 7.81V16.18C2.01001 19.82 4.18001 21.99 7.82001 21.99H16.19C19.83 21.99 22 19.82 22 16.18V7.81C22 4.17 19.83 2 16.19 2Z" />
<path d="M8.55011 14.55V10.26C9.39011 9.95001 10.0001 9.15001 10.0001 8.20001C10.0001 6.99001 9.01011 6 7.80011 6C6.59011 6 5.6001 6.99001 5.6001 8.20001C5.6001 9.15001 6.21011 9.95001 7.05011 10.26V14.55C6.29011 14.85 5.75012 15.59 5.75012 16.45C5.75012 17.58 6.67011 18.5 7.80011 18.5C8.93011 18.5 9.8501 17.58 9.8501 16.45C9.8501 15.59 9.31011 14.85 8.55011 14.55Z" />
<path d="M17.5001 14.5497V8.74968C17.5001 7.78968 16.7101 6.99968 15.7501 6.99968H14.6201L14.8301 6.82967C15.1501 6.55967 15.1901 6.08967 14.9301 5.76967C14.6601 5.44967 14.1901 5.4097 13.8701 5.6697L12.0701 7.1697C11.9001 7.3097 11.8 7.51968 11.8 7.74968C11.8 7.97968 11.9001 8.17967 12.0701 8.32967L13.8701 9.82967C14.0101 9.94967 14.18 9.99968 14.35 9.99968C14.56 9.99968 14.7801 9.90969 14.9301 9.72969C15.2001 9.40969 15.1501 8.9397 14.8301 8.6697L14.6201 8.49968H15.7501C15.8901 8.49968 16.0001 8.60968 16.0001 8.74968V14.5497C15.2401 14.8497 14.7001 15.5897 14.7001 16.4497C14.7001 17.5797 15.6201 18.4997 16.7501 18.4997C17.8801 18.4997 18.8 17.5797 18.8 16.4497C18.8 15.5897 18.2601 14.8497 17.5001 14.5497Z" />
</svg>
