<?xml version="1.0" encoding="UTF-8"?>
<svg width="24" height="24" viewBox="0 0 24 24" xmlns="http://www.w3.org/2000/svg">
 <path d="m7.7998 14.55c-0.41 0-0.75-0.34-0.75-0.75v-4.2c0-0.41 0.34-0.75 0.75-0.75s0.75 0.34 0.75 0.75v4.2c0 0.41-0.34 0.75-0.75 0.75z"/>
 <path d="m7.95 18.75c-1.49 0-2.7-1.21-2.7-2.7s1.21-2.7 2.7-2.7 2.7 1.21 2.7 2.7-1.21 2.7-2.7 2.7zm0-3.9c-0.66 0-1.2 0.54-1.2 1.2s0.54001 1.2 1.2 1.2 1.2-0.54 1.2-1.2-0.54001-1.2-1.2-1.2z"/>
 <path d="m7.8 10.35c-1.41 0-2.55-1.14-2.55-2.55s1.14-2.55 2.55-2.55 2.55 1.14 2.55 2.55-1.14 2.55-2.55 2.55zm0-3.6c-0.58 0-1.05 0.46999-1.05 1.05s0.46999 1.05 1.05 1.05 1.05-0.47002 1.05-1.05-0.46999-1.05-1.05-1.05z"/>
 <path d="m16.2 10.35c-1.41 0-2.55-1.14-2.55-2.55s1.14-2.55 2.55-2.55 2.55 1.14 2.55 2.55-1.14 2.55-2.55 2.55zm0-3.6c-0.58 0-1.05 0.46999-1.05 1.05s0.47 1.05 1.05 1.05 1.05-0.47002 1.05-1.05-0.47-1.05-1.05-1.05z"/>
 <path d="m7.8801 14.55c-0.06 0-0.13-0.01-0.19-0.02-0.4-0.1-0.63998-0.51-0.53998-0.91 0.36-1.41 1.63-2.38 3.08-2.38h0.01l2.06 0.01h0.01c1.21 0 2.28-0.76 2.68-1.9 0.14-0.39 0.57-0.59999 0.95-0.45999 0.39 0.14 0.6 0.55999 0.46 0.95999-0.61 1.75-2.25 2.92-4.11 2.91l-2.06-0.01h-0.01c-0.77004 0-1.44 0.52-1.63 1.26-0.07 0.32-0.38002 0.54-0.71002 0.54z"/>
 <path d="m15 22.75h-6c-5.43 0-7.75-2.32-7.75-7.75v-6c0-5.43 2.32-7.75 7.75-7.75h6c5.43 0 7.75 2.32 7.75 7.75v6c0 5.43-2.32 7.75-7.75 7.75zm-6-20c-4.61 0-6.25 1.64-6.25 6.25v6c0 4.61 1.64 6.25 6.25 6.25h6c4.61 0 6.25-1.64 6.25-6.25v-6c0-4.61-1.64-6.25-6.25-6.25h-6z"/>
</svg>
