<?xml version="1.0" encoding="UTF-8"?>
<svg width="24" height="24" viewBox="0 0 24 24" xmlns="http://www.w3.org/2000/svg">
 <path d="m5 16.75c-0.41 0-0.75-0.34-0.75-0.75v-7c0-0.41 0.34-0.75 0.75-0.75s0.75 0.34 0.75 0.75v7c0 0.41-0.34 0.75-0.75 0.75z"/>
 <path d="m5.25 9.25c-2.21 0-4-1.79-4-4s1.79-4 4-4 4 1.79 4 4-1.79 4-4 4zm0-6.5c-1.38 0-2.5 1.12-2.5 2.5s1.12 2.5 2.5 2.5 2.5-1.12 2.5-2.5-1.12-2.5-2.5-2.5z"/>
 <path d="m5 22.75c-2.07 0-3.75-1.68-3.75-3.75s1.68-3.75 3.75-3.75 3.75 1.68 3.75 3.75-1.68 3.75-3.75 3.75zm0-6c-1.24 0-2.25 1.01-2.25 2.25s1.01 2.25 2.25 2.25 2.25-1.01 2.25-2.25-1.01-2.25-2.25-2.25z"/>
 <path d="m19 22.75c-2.07 0-3.75-1.68-3.75-3.75s1.68-3.75 3.75-3.75 3.75 1.68 3.75 3.75-1.68 3.75-3.75 3.75zm0-6c-1.24 0-2.25 1.01-2.25 2.25s1.01 2.25 2.25 2.25 2.25-1.01 2.25-2.25-1.01-2.25-2.25-2.25z"/>
 <path d="m18.17 16.79c-0.31 0-0.6-0.19-0.71-0.5-0.73-2.1-2.71-3.51-4.94-3.51h-0.02l-3.43 0.01h-0.02c-2.19 0-4.1-1.48-4.65-3.6-0.1-0.4 0.14-0.81 0.54-0.91s0.81 0.14001 0.91 0.54001c0.38 1.46 1.69 2.48 3.2 2.48h0.01l3.43-0.01h0.03c2.86 0 5.41 1.81 6.35 4.52 0.14 0.39-0.07 0.82-0.46 0.95-0.08 0.01-0.16 0.03-0.24 0.03z"/>
</svg>
