<?xml version="1.0" encoding="UTF-8"?>
<svg width="24" height="24" viewBox="0 0 24 24" xmlns="http://www.w3.org/2000/svg">
 <path d="m17.6 22.56h-11.2c-1.82 0-3.48-1.4001-3.78-3.2001l-1.33-7.9599c-0.21-1.24 0.39001-2.83 1.38-3.62l6.93-5.55c1.34-1.08 3.45-1.07 4.8 0.01001l6.93 5.54c0.98 0.79 1.58 2.38 1.38 3.62l-1.33 7.9599c-0.3 1.77-1.99 3.2001-3.78 3.2001zm-5.61-19.62c-0.53 0-1.06 0.16009-1.45 0.47009l-6.93 5.5499c-0.57 0.46-0.96 1.4801-0.84 2.2001l1.33 7.9599c0.18 1.05 1.23 1.9401 2.3 1.9401h11.2c1.07 0 2.12-0.8901 2.3-1.9501l1.33-7.9599c0.12-0.72-0.2799-1.7501-0.8399-2.2001l-6.9301-5.5399c-0.4-0.31-0.93-0.47009-1.47-0.47009z"/>
 <path d="m14.12 15.13c-0.19 0-0.3699-0.07-0.5199-0.21-0.97-0.93-2.23-0.93-3.21 0-0.3 0.29-0.77006 0.28-1.0601-0.02s-0.27998-0.77 0.02002-1.06c1.55-1.49 3.72-1.49 5.28 0 0.3 0.29 0.3099 0.76 0.0199 1.06-0.13 0.15-0.33 0.23-0.53 0.23z"/>
 <path d="m16.24 13.01c-0.19 0-0.38-0.07-0.52-0.21-0.47-0.46-1-0.8301-1.56-1.1001-1.4-0.67-2.93-0.67-4.32 0-0.56 0.27-1.08 0.6401-1.56 1.1001-0.29 0.29-0.77 0.29-1.06-0.01s-0.27999-0.77 0.01001-1.06c0.59-0.58 1.25-1.04 1.96-1.38 1.81-0.87003 3.81-0.87003 5.61 0 0.71 0.34 1.37 0.8 1.96 1.38 0.3 0.29 0.3 0.76 0.01 1.06-0.14 0.14-0.33 0.22-0.53 0.22z"/>
 <path d="m12 17.5c-0.26 0-0.51-0.1001-0.71-0.2901-0.39-0.39-0.39-1.0199 0-1.4099s1.0299-0.39 1.4199 0 0.39 1.0199 0 1.4099c-0.2 0.19-0.4499 0.2901-0.7099 0.2901z"/>
</svg>
