<?xml version="1.0" encoding="UTF-8"?>
<svg width="24" height="24" viewBox="0 0 24 24" xmlns="http://www.w3.org/2000/svg">
 <path d="m17.79 22.74h-11.58c-2.74 0-4.96-2.23-4.96-4.97v-7.41c0-1.36 0.84-3.07 1.92-3.91l5.39-4.2c1.62-1.26 4.21-1.32 5.89-0.14l6.18 4.33c1.19 0.83 2.12 2.61 2.12 4.06v7.28c0 2.73-2.22 4.96-4.96 4.96zm-8.31-19.31-5.39 4.2c-0.71 0.56-1.34 1.83-1.34 2.73v7.41c0 1.91 1.55 3.47 3.46 3.47h11.58c1.91 0 3.46-1.55 3.46-3.46v-7.28c0-0.95999-0.69-2.29-1.48-2.83l-6.18-4.33c-1.14-0.8-3.02-0.76-4.11 0.09z"/>
 <path d="m13.5 18.75h-3c-2.07 0-3.75-1.68-3.75-3.75v-3c0-2.07 1.68-3.75 3.75-3.75h3c2.07 0 3.75 1.68 3.75 3.75v3c0 2.07-1.68 3.75-3.75 3.75zm-3-9c-1.24 0-2.25 1.01-2.25 2.25v3c0 1.24 1.01 2.25 2.25 2.25h3c1.24 0 2.25-1.01 2.25-2.25v-3c0-1.24-1.01-2.25-2.25-2.25h-3z"/>
 <path d="m12 18.75c-0.41 0-0.75-0.34-0.75-0.75v-9c0-0.41 0.34-0.75 0.75-0.75s0.75 0.34 0.75 0.75v9c0 0.41-0.34 0.75-0.75 0.75z"/>
 <path d="m16.5 14.25h-9c-0.41 0-0.75-0.34-0.75-0.75s0.34-0.75 0.75-0.75h9c0.41 0 0.75 0.34 0.75 0.75s-0.34 0.75-0.75 0.75z"/>
</svg>
