<svg width="24" height="24" viewBox="0 0 24 24"  xmlns="http://www.w3.org/2000/svg">
<path opacity="0.4" d="M10.07 2.82003L3.14004 8.37002C2.36004 8.99002 1.86002 10.3 2.03002 11.28L3.36001 19.24C3.60001 20.66 4.96002 21.81 6.40002 21.81H17.6C19.03 21.81 20.4 20.65 20.64 19.24L21.97 11.28C22.13 10.3 21.63 8.99002 20.86 8.37002L13.93 2.83004C12.86 1.97004 11.13 1.97003 10.07 2.82003Z" />
<path d="M14.1198 15.13C13.9298 15.13 13.7498 15.06 13.5998 14.92C12.6298 13.99 11.3698 13.99 10.3898 14.92C10.0898 15.21 9.61979 15.2 9.32979 14.9C9.03979 14.6 9.04981 14.13 9.34981 13.84C10.8998 12.35 13.0698 12.35 14.6298 13.84C14.9298 14.13 14.9398 14.6 14.6498 14.9C14.5198 15.05 14.3198 15.13 14.1198 15.13Z" />
<path d="M16.2399 13.01C16.0499 13.01 15.8599 12.94 15.7199 12.8C15.2499 12.34 14.7199 11.97 14.1599 11.7C12.7599 11.03 11.2299 11.03 9.83988 11.7C9.27988 11.97 8.75988 12.34 8.27988 12.8C7.98988 13.09 7.50988 13.09 7.21988 12.79C6.92988 12.49 6.93989 12.02 7.22989 11.73C7.81989 11.15 8.47989 10.6899 9.18989 10.3499C10.9999 9.47995 12.9999 9.47995 14.7999 10.3499C15.5099 10.6899 16.1699 11.15 16.7599 11.73C17.0599 12.02 17.0599 12.49 16.7699 12.79C16.6299 12.93 16.4399 13.01 16.2399 13.01Z" />
<path d="M11.9998 17.5C11.7398 17.5 11.4898 17.4 11.2898 17.21C10.8998 16.82 10.8998 16.19 11.2898 15.8C11.6798 15.41 12.3198 15.41 12.7098 15.8C13.0998 16.19 13.0998 16.82 12.7098 17.21C12.5098 17.4 12.2598 17.5 11.9998 17.5Z" />
</svg>
