<?xml version="1.0" encoding="UTF-8"?>
<svg width="24" height="24" viewBox="0 0 24 24" xmlns="http://www.w3.org/2000/svg">
 <path d="m17.6 22.56h-11.2c-1.82 0-3.48-1.4-3.78-3.2l-1.33-7.9599c-0.21-1.24 0.39001-2.83 1.38-3.62l6.93-5.55c1.34-1.08 3.4499-1.07 4.7999 0.01001l6.9301 5.54c0.98 0.79 1.58 2.38 1.38 3.62l-1.33 7.9599c-0.3 1.77-1.99 3.2-3.78 3.2zm-5.61-19.62c-0.53 0-1.0601 0.15997-1.4501 0.46997l-6.93 5.55c-0.57 0.46-0.95999 1.4799-0.83999 2.1999l1.33 7.96c0.18 1.05 1.23 1.94 2.3 1.94h11.2c1.07 0 2.1199-0.89 2.2999-1.95l1.33-7.9599c0.12-0.72-0.2799-1.75-0.8399-2.2l-6.93-5.54c-0.4-0.31-0.93-0.46997-1.47-0.46997z"/>
 <path d="m12 16.25c-1.79 0-3.25-1.46-3.25-3.25s1.46-3.25 3.25-3.25 3.25 1.46 3.25 3.25-1.46 3.25-3.25 3.25zm0-5c-0.96 0-1.75 0.79-1.75 1.75s0.79 1.75 1.75 1.75 1.75-0.79 1.75-1.75-0.79-1.75-1.75-1.75z"/>
</svg>
