<svg width="24" height="24" viewBox="0 0 24 24"  xmlns="http://www.w3.org/2000/svg">
<path opacity="0.4" d="M20.03 6.81969L14.28 2.78969C12.71 1.68969 10.31 1.74969 8.8 2.91969L3.79 6.82969C2.78 7.60969 2 9.20969 2 10.4697V17.3697C2 19.9197 4.07 21.9997 6.61 21.9997H17.38C19.92 21.9997 21.99 19.9297 21.99 17.3797V10.5997C22 9.24969 21.13 7.58969 20.03 6.81969Z" />
<path d="M13.4001 8.50977H10.6001C8.68011 8.50977 7.11011 10.0698 7.11011 11.9998V14.7898C7.11011 16.7098 8.68011 18.2798 10.6001 18.2798H13.3901C15.3101 18.2798 16.8801 16.7198 16.8801 14.7898V11.9998C16.8801 10.0798 15.3201 8.50977 13.4001 8.50977ZM15.4901 11.9998V12.6998H12.7001V9.90977H13.4001C14.5501 9.90977 15.4901 10.8498 15.4901 11.9998ZM10.6001 9.90977H11.3001V12.6998H8.51011V11.9998C8.51011 10.8498 9.45011 9.90977 10.6001 9.90977ZM8.51011 14.7898V14.0898H11.3001V16.8798H10.6001C9.45011 16.8798 8.51011 15.9398 8.51011 14.7898ZM13.4001 16.8798H12.7001V14.0898H15.4901V14.7898C15.4901 15.9398 14.5501 16.8798 13.4001 16.8798Z" />
</svg>
