<?xml version="1.0" encoding="UTF-8"?>
<svg width="24" height="24" viewBox="0 0 24 24" xmlns="http://www.w3.org/2000/svg">
 <path d="m12 18.75c-0.41 0-0.75-0.34-0.75-0.75v-3c0-0.41 0.34-0.75 0.75-0.75s0.75 0.34 0.75 0.75v3c0 0.41-0.34 0.75-0.75 0.75z"/>
 <path d="m17.6 22.56h-11.2c-1.82 0-3.48-1.4-3.78-3.19l-1.33-7.97c-0.22-1.24 0.39-2.83 1.38-3.62l6.93-5.55c1.34-1.08 3.45-1.07 4.8 0.01l6.93 5.54c0.98 0.79 1.58 2.38 1.38 3.62l-1.33 7.96c-0.3 1.77-2 3.2-3.78 3.2zm-5.61-19.63c-0.53 0-1.06 0.16-1.45 0.47l-6.93 5.56c-0.56 0.45-0.96 1.49-0.84 2.2l1.33 7.96c0.18 1.05 1.23 1.94 2.3 1.94h11.2c1.07 0 2.12-0.89 2.3-1.95l1.33-7.96c0.11-0.7-0.29-1.76-0.84-2.2l-6.93-5.54c-0.4-0.32-0.94-0.48-1.47-0.48z"/>
</svg>
