<?xml version="1.0" encoding="UTF-8"?>
<svg width="24" height="24" viewBox="0 0 24 24" xmlns="http://www.w3.org/2000/svg">
 <path d="m22 22.75h-20c-0.41 0-0.75-0.34-0.75-0.75s0.34-0.75 0.75-0.75h20c0.41 0 0.75 0.34 0.75 0.75s-0.34 0.75-0.75 0.75z"/>
 <path d="m21 22.75h-18c-0.41 0-0.75-0.34-0.75-0.75v-16c0-3.02 1.73-4.75 4.75-4.75h10c3.02 0 4.75 1.73 4.75 4.75v16c0 0.41-0.34 0.75-0.75 0.75zm-17.25-1.5h16.5v-15.25c0-2.22-1.03-3.25-3.25-3.25h-10c-2.22 0-3.25 1.03-3.25 3.25v15.25z"/>
 <path d="m15 22.75h-6c-0.41 0-0.75-0.34-0.75-0.75v-6.06c0-0.93 0.76-1.69 1.69-1.69h4.13c0.93 0 1.69 0.76 1.69 1.69v6.06c-0.01 0.41-0.35 0.75-0.76 0.75zm-5.25-1.5h4.5v-5.31c0-0.1-0.08-0.19-0.19-0.19h-4.13c-0.1 0-0.18998 0.08-0.18998 0.19v5.31h0.00999z"/>
 <path d="m12 11.75c-0.41 0-0.75-0.34-0.75-0.75v-5c0-0.41 0.34-0.75 0.75-0.75s0.75 0.34 0.75 0.75v5c0 0.41-0.34 0.75-0.75 0.75z"/>
 <path d="m14.5 9.25h-5c-0.41 0-0.75-0.34-0.75-0.75s0.34-0.75 0.75-0.75h5c0.41 0 0.75 0.34 0.75 0.75s-0.34 0.75-0.75 0.75z"/>
</svg>
