<svg width="24" height="24" viewBox="0 0 24 24"  xmlns="http://www.w3.org/2000/svg">
<path d="M22.75 22C22.75 22.41 22.41 22.75 22 22.75H2C1.59 22.75 1.25 22.41 1.25 22C1.25 21.58 1.59 21.25 2 21.25H22C22.41 21.25 22.75 21.58 22.75 22Z" />
<path opacity="0.4" d="M21 9.97968V21.2497H2.94995L2.99995 9.96968C2.99995 9.35968 3.27995 8.77973 3.76995 8.39973L10.77 2.95973C11.49 2.38973 12.51 2.38973 13.23 2.95973L20.23 8.39973C20.72 8.77973 21 9.35968 21 9.97968Z" />
<path d="M13.5 8.25H10.5C10.09 8.25 9.75 7.91 9.75 7.5C9.75 7.09 10.09 6.75 10.5 6.75H13.5C13.91 6.75 14.25 7.09 14.25 7.5C14.25 7.91 13.91 8.25 13.5 8.25Z" />
<path d="M15.5 11H8.5C7.67 11 7 11.67 7 12.5V22H17V12.5C17 11.67 16.33 11 15.5 11ZM10.75 17.75C10.75 18.16 10.41 18.5 10 18.5C9.59 18.5 9.25 18.16 9.25 17.75V16.25C9.25 15.84 9.59 15.5 10 15.5C10.41 15.5 10.75 15.84 10.75 16.25V17.75Z" />
</svg>
