<?xml version="1.0" encoding="UTF-8"?>
<svg width="24" height="24" viewBox="0 0 24 24" xmlns="http://www.w3.org/2000/svg">
 <path d="m22 22.75h-20c-0.41 0-0.75-0.34-0.75-0.75s0.34-0.75 0.75-0.75h20c0.41 0 0.75 0.34 0.75 0.75s-0.34 0.75-0.75 0.75z"/>
 <path d="m3.7002 22h-1.5l0.04999-12.03c0-0.85 0.39001-1.64 1.06-2.16l7-5.45c0.99-0.77 2.38-0.77 3.38 0l7 5.44c0.66 0.52 1.06 1.33 1.06 2.17v12.03h-1.5v-12.02c0-0.38-0.18-0.74999-0.48-0.98999l-7-5.44c-0.45-0.35-1.08-0.35-1.54 0l-7 5.45c-0.3 0.23-0.48 0.59998-0.48 0.97998l-0.04999 12.02z"/>
 <path d="m14.5 22.75h-5c-0.41 0-0.75-0.34-0.75-0.75v-3.5c0-1.24 1.01-2.25 2.25-2.25h2c1.24 0 2.25 1.01 2.25 2.25v3.5c0 0.41-0.34 0.75-0.75 0.75zm-4.25-1.5h3.5v-2.75c0-0.41-0.34-0.75-0.75-0.75h-2c-0.41 0-0.75 0.34-0.75 0.75v2.75z"/>
 <path d="m9.5 14.5h-2c-0.96 0-1.75-0.79-1.75-1.75v-1.5c0-0.96 0.79-1.75 1.75-1.75h2c0.96 0 1.75 0.79 1.75 1.75v1.5c0 0.96-0.79 1.75-1.75 1.75zm-2-3.5c-0.14 0-0.25 0.11-0.25 0.25v1.5c0 0.14 0.11 0.25 0.25 0.25h2c0.14 0 0.25-0.11 0.25-0.25v-1.5c0-0.14-0.11-0.25-0.25-0.25h-2z"/>
 <path d="m16.5 14.5h-2c-0.96 0-1.75-0.79-1.75-1.75v-1.5c0-0.96 0.79-1.75 1.75-1.75h2c0.96 0 1.75 0.79 1.75 1.75v1.5c0 0.96-0.79 1.75-1.75 1.75zm-2-3.5c-0.14 0-0.25 0.11-0.25 0.25v1.5c0 0.14 0.11 0.25 0.25 0.25h2c0.14 0 0.25-0.11 0.25-0.25v-1.5c0-0.14-0.11-0.25-0.25-0.25h-2z"/>
 <path d="m19 7.75c-0.41 0-0.75-0.32999-0.75-0.73999l-0.02-2.26h-3.65c-0.41 0-0.75-0.34-0.75-0.75s0.34-0.75 0.75-0.75h4.4c0.41 0 0.75 0.32999 0.75 0.73999l0.03 3c-0.01 0.42-0.34 0.76001-0.76 0.76001 0 0 0.01 0 0 0z"/>
</svg>
