<svg width="24" height="24" viewBox="0 0 24 24"  xmlns="http://www.w3.org/2000/svg">
<path opacity="0.58" d="M24 0H0V24H24V0Z" />
<path opacity="0.4" d="M4.12009 2H19.8901C20.4901 2 20.9501 2.52 20.8801 3.11L19.0801 19.33C19.0401 19.73 18.7501 20.07 18.3601 20.18L12.2801 21.92C12.1001 21.97 11.9101 21.97 11.7301 21.92L5.65012 20.18C5.26012 20.07 4.98009 19.73 4.93009 19.33L3.1301 3.11C3.0601 2.52 3.52009 2 4.12009 2Z" />
<path d="M11.7501 18C11.6801 18 11.61 17.99 11.54 17.97L8.04005 16.97C7.72005 16.88 7.50007 16.58 7.50007 16.25V14.25C7.50007 13.84 7.84007 13.5 8.25007 13.5C8.66007 13.5 9.00007 13.84 9.00007 14.25V15.68L11.7501 16.47L14.5501 15.67L14.9201 12H8.25007C7.87007 12 7.55007 11.71 7.50007 11.33L7.00007 6.83C6.98007 6.62 7.04007 6.41 7.19007 6.25C7.33007 6.09 7.54007 6 7.75007 6H16.2501C16.6601 6 17.0001 6.34 17.0001 6.75C17.0001 7.16 16.6601 7.5 16.2501 7.5H8.5901L8.92005 10.5H15.7501C15.9601 10.5 16.1601 10.59 16.3101 10.75C16.4501 10.91 16.5201 11.12 16.5001 11.33L16.0001 16.33C15.9701 16.64 15.7601 16.89 15.4601 16.98L11.9601 17.98C11.8901 17.99 11.8201 18 11.7501 18Z" />
</svg>
