<?xml version="1.0" encoding="UTF-8"?>
<svg width="24" height="24" viewBox="0 0 24 24" xmlns="http://www.w3.org/2000/svg">
 <path d="m12 22.71c-0.16 0-0.32-0.02-0.48-0.07l-6.08-1.74c-0.69-0.2-1.18-0.78-1.26-1.49l-1.8-16.22c-0.05-0.49 0.1-0.99001 0.44-1.36 0.33-0.37 0.81-0.57999 1.3-0.57999h15.77c0.5 0 0.97 0.20999 1.3 0.57999s0.49 0.87001 0.44 1.36l-1.8 16.22c-0.08 0.71-0.57 1.29-1.26 1.49l-6.08 1.74c-0.17 0.05-0.33 0.07-0.49 0.07zm-7.88-19.96c-0.1 0-0.16 0.04999-0.19 0.07999s-0.07 0.1-0.06 0.19l1.8 16.22c0.01 0.1 0.08 0.19 0.18 0.21l6.08 1.74c0.04 0.01 0.09 0.01 0.14 0l6.08-1.74c0.1-0.03 0.17-0.11 0.18-0.21l1.8-16.22c0.01-0.1-0.03-0.16-0.06-0.19s-0.09-0.07999-0.19-0.07999h-15.76z"/>
 <path d="m12 17.75c-0.07 0-0.14-0.01-0.21-0.03l-3.5-1c-0.26-0.07-0.46-0.28-0.52-0.54l-0.5-2c-0.1-0.4 0.14-0.8101 0.55-0.9101 0.4-0.1 0.80999 0.1401 0.90999 0.5501l0.40001 1.58 2.88 0.82 2.81-0.8 0.85-7.67-8.16-0.01999c-0.41 0-0.75-0.34-0.75-0.75s0.34-0.75 0.75-0.75l9 0.01999c0.21 0 0.42 0.09 0.56 0.25s0.21 0.36998 0.19 0.57998l-1 9c-0.03 0.3-0.25 0.5501-0.54 0.6401l-3.5 1c-0.08 0.02-0.15 0.03-0.22 0.03z"/>
 <path d="m16.06 11.75h-8.06c-0.41 0-0.75-0.34-0.75-0.75s0.34-0.75 0.75-0.75h8.06c0.41 0 0.75 0.34 0.75 0.75s-0.34 0.75-0.75 0.75z"/>
</svg>
