<?xml version="1.0" encoding="UTF-8"?>
<svg width="24" height="24" viewBox="0 0 24 24" xmlns="http://www.w3.org/2000/svg">
 <path d="m12 22.71c-0.16 0-0.32-0.02-0.48-0.07l-6.08-1.74c-0.69-0.2-1.18-0.78-1.26-1.49l-1.8-16.22c-0.05-0.49 0.1-0.99 0.44-1.36 0.33-0.37 0.80999-0.58 1.3-0.58h15.77c0.5 0 0.97 0.21 1.3 0.58s0.49 0.87 0.44 1.36l-1.8 16.22c-0.08 0.71-0.57 1.29-1.26 1.49l-6.08 1.74c-0.17 0.05-0.33 0.07-0.49 0.07zm-7.88-19.96c-0.1 0-0.16 0.05-0.19 0.08s-0.07 0.1-0.06 0.19l1.8 16.22c0.01 0.1 0.07999 0.19 0.17999 0.21l6.08 1.74c0.04 0.01 0.09 0.01 0.14 0l6.08-1.74c0.1-0.03 0.17-0.11 0.18-0.21l1.8-16.22c0.01-0.1-0.04-0.16-0.06-0.19-0.03-0.03-0.09-0.08-0.19-0.08h-15.76z"/>
 <path d="m11.75 18c-0.07 0-0.14-0.01-0.21-0.03l-3.5-1c-0.32-0.09-0.53998-0.39-0.53998-0.72v-2c0-0.41 0.34-0.75 0.75-0.75s0.75 0.34 0.75 0.75v1.43l2.75 0.79 2.8-0.8 0.37-3.67h-6.67c-0.38 0-0.7-0.29-0.75-0.67l-0.5-4.5c-0.02-0.21 0.04001-0.42 0.19001-0.58 0.14-0.16 0.34999-0.25 0.55999-0.25h8.5c0.41 0 0.75 0.34 0.75 0.75s-0.34 0.75-0.75 0.75h-7.66l0.32996 3h6.83c0.21 0 0.41 0.09 0.56 0.25 0.14 0.16 0.21 0.37 0.19 0.58l-0.5 5c-0.03 0.31-0.24 0.56-0.54 0.65l-3.5 1c-0.07 0.01-0.14 0.02-0.21 0.02z"/>
</svg>
