<?xml version="1.0" encoding="UTF-8"?>
<svg width="24" height="24" viewBox="0 0 24 24" xmlns="http://www.w3.org/2000/svg">
 <path d="m14.76 22.719c-0.17 0-0.33-0.04-0.46-0.12-0.45-0.29-2.69-1.84-3.1-4.2-0.22-1.31 0.15-2.61 1.11-3.85 2.79-3.61 3.1-4.66 3.11-4.7 0.04-0.28 0.23-0.48 0.5-0.57s0.55 0 0.76 0.2c2.28 2.21 3.32 4.49 3.08 6.78-0.38 3.59-3.86 5.94-4.55 6.37-0.12 0.05-0.29 0.09-0.45 0.09zm1.62-11.41c-0.46 0.81-1.3 2.11-2.88 4.14-0.71 0.91-0.97 1.79-0.82 2.68 0.24 1.39 1.46 2.48 2.09 2.95 0.99-0.69 3.23-2.51 3.49-5.02 0.17-1.54-0.46-3.13-1.88-4.75z"/>
 <path d="m10.28 22.729c-0.26 0-0.52002-0.07-0.71002-0.12-2.21-0.63-4.21-2.65-4.99-5.02-0.8-2.43-0.31005-4.97 1.39-7.16 3.1-4.06 4.1301-7.33 4.3701-8.23 0.11-0.43 0.43-0.76 0.87-0.89 0.45-0.12 0.94 0.01 1.28 0.35 0.03 0.02 0.05 0.05 0.07 0.08 0.94 1.26 1.95 3.51 1.95 6.05 0 1.74-1.22 3.32-2.4 4.84-1.25 1.62-2.54 3.29-2.4 5.1 0.13 1.34 0.71 2.36 1.1 3.04 0.33 0.57 0.64 1.11 0.25 1.62-0.21 0.26-0.49 0.34-0.78 0.34zm-0.53003-0.76h0.01001-0.01001zm1.9-18.91c-0.46 1.51-1.66 4.57-4.49 8.29-1.77 2.29-1.6 4.41-1.15 5.78 0.53 1.61 1.73 3.01 3.13 3.71-0.38-0.74-0.80005-1.74-0.92005-2.98-0.18-2.4 1.35-4.39 2.7101-6.15 1.07-1.39 2.08-2.7 2.08-3.93 0-1.9-0.68-3.64-1.36-4.72zm0.14-0.49v0 0z"/>
</svg>
