<?xml version="1.0" encoding="UTF-8"?>
<svg width="24" height="24" viewBox="0 0 24 24" xmlns="http://www.w3.org/2000/svg">
 <path d="m8 11.75h-3c-0.41 0-0.75-0.34-0.75-0.75v-2c0-2.62 2.13-4.75 4.75-4.75h2c0.41 0 0.75 0.34 0.75 0.75v3c0 0.41-0.34 0.75-0.75 0.75h-2c-0.14 0-0.25 0.11-0.25 0.25v2c0 0.41-0.34 0.75-0.75 0.75zm-2.25-1.5h1.5v-1.25c0-0.96 0.79-1.75 1.75-1.75h1.25v-1.5h-1.25c-1.79 0-3.25 1.46-3.25 3.25v1.25z"/>
 <path d="m15 19.75h-2c-0.41 0-0.75-0.34-0.75-0.75v-3c0-0.41 0.34-0.75 0.75-0.75h2c0.14 0 0.25-0.11 0.25-0.25v-2c0-0.41 0.34-0.75 0.75-0.75h3c0.41 0 0.75 0.34 0.75 0.75v2c0 2.62-2.13 4.75-4.75 4.75zm-1.25-1.5h1.25c1.79 0 3.25-1.46 3.25-3.25v-1.25h-1.5v1.25c0 0.96-0.79 1.75-1.75 1.75h-1.25v1.5z"/>
 <path d="m15 22.75h-6c-5.43 0-7.75-2.32-7.75-7.75v-6c0-5.43 2.32-7.75 7.75-7.75h6c5.43 0 7.75 2.32 7.75 7.75v6c0 5.43-2.32 7.75-7.75 7.75zm-6-20c-4.61 0-6.25 1.64-6.25 6.25v6c0 4.61 1.64 6.25 6.25 6.25h6c4.61 0 6.25-1.64 6.25-6.25v-6c0-4.61-1.64-6.25-6.25-6.25h-6z"/>
</svg>
