<?xml version="1.0" encoding="UTF-8"?>
<svg width="24" height="24" viewBox="0 0 24 24" xmlns="http://www.w3.org/2000/svg">
 <path d="m12 12.25c-1.52 0-2.75-1.23-2.75-2.75s1.23-2.75 2.75-2.75 2.75 1.23 2.75 2.75-1.23 2.75-2.75 2.75zm0-4c-0.69 0-1.25 0.56-1.25 1.25s0.56 1.25 1.25 1.25 1.25-0.56 1.25-1.25-0.56-1.25-1.25-1.25z"/>
 <path d="m11.99 14.72c-0.8 0-1.6-0.18-2.33-0.55-0.37-0.19-0.51996-0.64-0.32996-1.01 0.18-0.37 0.63001-0.52 1.01-0.33 1.04 0.52 2.28 0.52 3.32 0 0.36-0.18 0.82-0.04 1 0.32 0.19 0.36 0.06 0.81-0.3 1-0.75 0.38-1.56 0.57-2.37 0.57z"/>
 <path d="m14 17.25c-0.22 0-0.4401-0.1-0.5901-0.28l-1.4099-1.78-1.41 1.78c-0.25 0.32-0.73007 0.38-1.0501 0.12s-0.37999-0.73-0.11999-1.05l2-2.53c0.28-0.36 0.89-0.36 1.18 0l2 2.53c0.26 0.33 0.2 0.8-0.12 1.05-0.15 0.11-0.3199 0.16-0.4799 0.16z"/>
 <path d="m12 22.75c-5.93 0-10.75-4.82-10.75-10.75s4.82-10.75 10.75-10.75 10.75 4.82 10.75 10.75-4.82 10.75-10.75 10.75zm0-20c-5.1 0-9.25 4.15-9.25 9.25s4.15 9.25 9.25 9.25 9.25-4.15 9.25-9.25-4.15-9.25-9.25-9.25z"/>
</svg>
