<?xml version="1.0" encoding="UTF-8"?>
<svg width="24" height="24" viewBox="0 0 24 24" xmlns="http://www.w3.org/2000/svg">
 <path d="m20.26 5.25c-0.83 0-1.5-0.67-1.5-1.5s0.67-1.5 1.5-1.5h0.0099c0.83 0 1.5 0.67 1.5 1.5s-0.6799 1.5-1.5099 1.5z"/>
 <path d="m3.7598 21.75c-0.83 0-1.5-0.67-1.5-1.5s0.67-1.5 1.5-1.5h0.00997c0.83 0 1.5 0.67 1.5 1.5s-0.67997 1.5-1.51 1.5z"/>
 <path d="m6.03 16.4c-0.25 0-0.49999-0.13-0.63999-0.36-0.74-1.21-1.14-2.61-1.14-4.04 0-4.27 3.48-7.75 7.75-7.75 1.41 0 2.79 0.38001 3.99 1.1 0.35 0.21 0.47 0.66999 0.26 1.03-0.21 0.35-0.67 0.47-1.03 0.26-0.97-0.58-2.08-0.89-3.21-0.89-3.45 0-6.25 2.8-6.25 6.25 0 1.15 0.31998 2.28 0.91998 3.26 0.22 0.35 0.11 0.81-0.25 1.03-0.13 0.08-0.26999 0.11-0.39999 0.11z"/>
 <path d="m12 19.75c-1.44 0-2.84-0.4-4.05-1.14-0.35-0.22-0.46-0.68-0.25-1.03 0.22-0.35 0.67999-0.46 1.03-0.25 0.98 0.6 2.11 0.92 3.27 0.92 3.45 0 6.25-2.8 6.25-6.25 0-1.15-0.32-2.28-0.92-3.26-0.22-0.35-0.11-0.81 0.25-1.03 0.35-0.21 0.81-0.11 1.03 0.25 0.74 1.22 1.14 2.61 1.14 4.05 0 4.26-3.48 7.74-7.75 7.74z"/>
</svg>
