<svg width="24" height="24" viewBox="0 0 24 24"  xmlns="http://www.w3.org/2000/svg">
<path d="M12.82 16.72C12.51 16.72 12.21 16.52 12.11 16.21L10.08 10.11L7.34 16.28C7.17 16.66 6.73 16.83 6.35 16.66C5.97 16.49 5.8 16.05 5.97 15.67L9.5 7.73999C9.63 7.45999 9.9 7.26999 10.22 7.29999C10.53 7.30999 10.8 7.52 10.9 7.81L13.54 15.74C13.67 16.13 13.46 16.56 13.07 16.69C12.98 16.7 12.9 16.72 12.82 16.72Z" />
<path d="M11.94 12.57H7.53V14.07H11.94V12.57Z" />
<path d="M16.35 16.72C15.94 16.72 15.6 16.38 15.6 15.97V10.68C15.6 10.27 15.94 9.92999 16.35 9.92999C16.76 9.92999 17.1 10.27 17.1 10.68V15.97C17.1 16.38 16.76 16.72 16.35 16.72Z" />
<path d="M16.35 9.02999C16.08 9.02999 15.83 8.92998 15.64 8.73998C15.55 8.64998 15.47 8.54 15.42 8.42C15.37 8.29 15.35 8.16999 15.35 8.02999C15.35 7.89999 15.37 7.76998 15.42 7.64998C15.48 7.52998 15.55 7.41997 15.64 7.32997C15.73 7.22997 15.84 7.15997 15.96 7.10997C16.33 6.95997 16.78 7.04997 17.05 7.32997C17.15 7.41997 17.22 7.52998 17.27 7.64998C17.32 7.76998 17.35 7.89999 17.35 8.02999C17.35 8.16999 17.32 8.3 17.27 8.42C17.22 8.54 17.15 8.64998 17.05 8.73998C16.96 8.82998 16.85 8.90998 16.73 8.95998C16.61 9.00998 16.48 9.02999 16.35 9.02999Z" />
<path d="M15 22.75H9C3.57 22.75 1.25 20.43 1.25 15V9C1.25 3.57 3.57 1.25 9 1.25H15C20.43 1.25 22.75 3.57 22.75 9V15C22.75 20.43 20.43 22.75 15 22.75ZM9 2.75C4.39 2.75 2.75 4.39 2.75 9V15C2.75 19.61 4.39 21.25 9 21.25H15C19.61 21.25 21.25 19.61 21.25 15V9C21.25 4.39 19.61 2.75 15 2.75H9Z" />
</svg>
