<?xml version="1.0" encoding="UTF-8"?>
<svg width="24" height="24" viewBox="0 0 24 24" xmlns="http://www.w3.org/2000/svg">
 <path d="m12.82 16.72c-0.31 0-0.61-0.2-0.71-0.51l-2.03-6.1-2.74 6.17c-0.17 0.38-0.61 0.55-0.99 0.38s-0.55-0.61-0.38-0.99l3.53-7.93c0.13-0.28 0.4-0.47 0.71996-0.44 0.31 0.01 0.58 0.22001 0.68 0.51001l2.64 7.93c0.13 0.39-0.08 0.82-0.47 0.95-0.09 0.01-0.17 0.03-0.25 0.03z"/>
 <path d="m11.94 12.57h-4.41v1.5h4.41v-1.5z"/>
 <path d="m16.35 16.72c-0.41 0-0.75-0.34-0.75-0.75v-5.29c0-0.41 0.34-0.75001 0.75-0.75001s0.75 0.34001 0.75 0.75001v5.29c0 0.41-0.34 0.75-0.75 0.75z"/>
 <path d="m16.35 9.029c-0.27 0-0.52-0.10001-0.71-0.29001-0.09-0.09-0.17-0.19997-0.22-0.31997-0.05-0.13-0.07-0.25002-0.07-0.39002 0-0.13 0.02-0.26 0.07-0.38 0.06-0.12 0.13-0.23001 0.22-0.32001 0.09-0.1 0.2-0.17 0.32-0.22 0.37-0.15 0.82-0.06 1.09 0.22 0.1 0.09 0.17 0.20001 0.22 0.32001s0.08 0.25 0.08 0.38c0 0.14-0.03 0.27002-0.08 0.39002s-0.12 0.22997-0.22 0.31997c-0.09 0.09-0.2 0.17-0.32 0.22s-0.25 0.07001-0.38 0.07001z"/>
 <path d="m15 22.75h-6c-5.43 0-7.75-2.32-7.75-7.75v-6c0-5.43 2.32-7.75 7.75-7.75h6c5.43 0 7.75 2.32 7.75 7.75v6c0 5.43-2.32 7.75-7.75 7.75zm-6-20c-4.61 0-6.25 1.64-6.25 6.25v6c0 4.61 1.64 6.25 6.25 6.25h6c4.61 0 6.25-1.64 6.25-6.25v-6c0-4.61-1.64-6.25-6.25-6.25h-6z"/>
</svg>
