<?xml version="1.0" encoding="UTF-8"?>
<svg width="24" height="24" viewBox="0 0 24 24" xmlns="http://www.w3.org/2000/svg">
 <path d="m18.36 22.75h-12.77c-1.52 0-2.91-0.77-3.71-2.07s-0.87-2.88-0.19-4.25l1.72-3.45c0.56-1.12 1.46-1.82 2.47-1.93s2.04 0.39 2.82 1.36l0.22 0.28c0.44 0.54 0.95 0.83 1.45 0.78 0.5-0.04 0.96-0.4 1.3-1.01l1.89-3.41c0.78-1.41 1.82-2.14 2.95-2.09 1.12 0.06 2.08 0.9 2.72 2.38l3.13 7.31c0.58 1.35 0.44 2.89-0.37 4.12-0.8 1.25-2.16 1.98-3.63 1.98zm-12.2-10.2c-0.04 0-0.08 0-0.12 0.01-0.5 0.05-0.96 0.45-1.29 1.1l-1.72 3.45c-0.45 0.89-0.4 1.94 0.12 2.79s1.44 1.36 2.44 1.36h12.76c0.98 0 1.85-0.47 2.39-1.29s0.63-1.8 0.24-2.7l-3.13-7.31c-0.38-0.9-0.91-1.45-1.42-1.47-0.47-0.03-1.08 0.47-1.56 1.32l-1.89 3.41c-0.58 1.04-1.49 1.69-2.48 1.78-0.99003 0.08-2-0.4-2.75-1.34l-0.22-0.28c-0.42-0.55-0.9-0.83-1.37-0.83z"/>
 <path d="m6.9702 8.75c-2.06 0-3.75-1.68-3.75-3.75s1.68-3.75 3.75-3.75 3.75 1.68 3.75 3.75-1.68 3.75-3.75 3.75zm0-6c-1.24 0-2.25 1.01-2.25 2.25s1.01 2.25 2.25 2.25 2.25-1.01 2.25-2.25-1.01-2.25-2.25-2.25z"/>
</svg>
