<svg width="24" height="24" viewBox="0 0 24 24"  xmlns="http://www.w3.org/2000/svg">
<path opacity="0.4" d="M16.8 9H7.2C4 9 2 11 2 14.2V16.79C2 20 4 22 7.2 22H16.79C19.99 22 21.99 20 21.99 16.8V14.2C22 11 20 9 16.8 9Z" />
<path d="M15.8801 12.43L12.5301 15.78C12.2401 16.07 11.7601 16.07 11.4701 15.78L8.12009 12.43C7.83009 12.14 7.83009 11.66 8.12009 11.37C8.41009 11.08 8.89009 11.08 9.18009 11.37L11.2501 13.44V2.75C11.2501 2.34 11.5901 2 12.0001 2C12.4101 2 12.7501 2.34 12.7501 2.75V13.44L14.8201 11.37C14.9701 11.22 15.1601 11.15 15.3501 11.15C15.5401 11.15 15.7301 11.22 15.8801 11.37C16.1801 11.66 16.1801 12.13 15.8801 12.43Z" />
</svg>
