<?xml version="1.0" encoding="UTF-8"?>
<svg width="24" height="24" viewBox="0 0 24 24" xmlns="http://www.w3.org/2000/svg">
 <path d="m15.26 22.25h-6.52c-4.91 0-7.01-2.1-7.01-7.01v-0.13c0-4.44 1.75-6.58 5.67-6.95 0.4-0.03 0.78 0.27 0.82 0.68s-0.26 0.78-0.68 0.82c-3.14 0.29-4.31 1.77-4.31 5.46v0.13c0 4.07 1.44 5.51 5.51 5.51h6.52c4.07 0 5.51-1.44 5.51-5.51v-0.13c0-3.71-1.19-5.19-4.39-5.46-0.41-0.04-0.72-0.4-0.68-0.81s0.39-0.72 0.81-0.68c3.98 0.34 5.76 2.49 5.76 6.96v0.13c0 4.89-2.1 6.99-7.01 6.99z"/>
 <path d="m12 15.63c-0.41 0-0.75-0.34-0.75-0.75v-12.88c0-0.41 0.34-0.75 0.75-0.75s0.75 0.34 0.75 0.75v12.88c0 0.42-0.34 0.75-0.75 0.75z"/>
 <path d="m12 16.75c-0.19 0-0.38-0.07-0.53-0.22l-3.35-3.35c-0.29-0.29-0.29-0.77 0-1.06s0.77-0.29 1.06 0l2.82 2.82 2.82-2.82c0.29-0.29 0.77-0.29 1.06 0s0.29 0.77 0 1.06l-3.35 3.35c-0.15 0.15-0.34 0.22-0.53 0.22z"/>
</svg>
