<?xml version="1.0" encoding="UTF-8"?>
<svg width="24" height="24" viewBox="0 0 24 24" xmlns="http://www.w3.org/2000/svg">
 <path d="m13.8 10.95c-0.19 0-0.38-0.07-0.53-0.22-0.29-0.29-0.29-0.76996 0-1.06l8.2-8.2c0.29-0.29 0.77-0.29 1.06 0s0.29 0.77 0 1.06l-8.2 8.2c-0.14 0.14-0.33 0.22-0.53 0.22z"/>
 <path d="m17.83 11.75h-4.83c-0.41 0-0.75-0.34-0.75-0.75v-4.83c0-0.41 0.34-0.75 0.75-0.75s0.75 0.34 0.75 0.75v4.08h4.08c0.41 0 0.75 0.34 0.75 0.75s-0.34 0.75-0.75 0.75z"/>
 <path d="m15 22.75h-6c-5.43 0-7.75-2.32-7.75-7.75v-6c0-5.43 2.32-7.75 7.75-7.75h2c0.41 0 0.75 0.34 0.75 0.75s-0.34 0.75-0.75 0.75h-2c-4.61 0-6.25 1.64-6.25 6.25v6c0 4.61 1.64 6.25 6.25 6.25h6c4.61 0 6.25-1.64 6.25-6.25v-2c0-0.41 0.34-0.75 0.75-0.75s0.75 0.34 0.75 0.75v2c0 5.43-2.32 7.75-7.75 7.75z"/>
</svg>
