<svg width="24" height="24" viewBox="0 0 24 24"  xmlns="http://www.w3.org/2000/svg">
<path opacity="0.4" d="M22 10.7599C22 10.2899 21.62 9.8999 21.14 9.8999H2.86C2.38 9.8999 2 10.2799 2 10.7599C2 16.6499 6.11 20.7599 12 20.7599C17.89 20.7599 22 16.6399 22 10.7599Z" />
<path d="M12.4601 15.9L15.3101 13.06C15.6001 12.77 15.6001 12.29 15.3101 12C15.0201 11.71 14.5401 11.71 14.2501 12L12.6901 13.56V3.98999C12.6901 3.57999 12.3501 3.23999 11.9401 3.23999C11.5301 3.23999 11.1901 3.57999 11.1901 3.98999V13.56L9.62009 12C9.33009 11.71 8.85009 11.71 8.56009 12C8.41009 12.15 8.34009 12.34 8.34009 12.53C8.34009 12.72 8.41009 12.91 8.56009 13.06L11.4101 15.9C11.7001 16.2 12.1701 16.2 12.4601 15.9Z" />
</svg>
