<?xml version="1.0" encoding="UTF-8"?>
<svg width="24" height="24" viewBox="0 0 24 24" xmlns="http://www.w3.org/2000/svg">
 <path d="m12 22.75c-5.93 0-10.75-4.82-10.75-10.75s4.82-10.75 10.75-10.75 10.75 4.82 10.75 10.75-4.82 10.75-10.75 10.75zm0-20c-5.1 0-9.25 4.15-9.25 9.25s4.15 9.25 9.25 9.25 9.25-4.15 9.25-9.25-4.15-9.25-9.25-9.25z"/>
 <path d="m12 13.75c-0.41 0-0.75-0.34-0.75-0.75v-5c0-0.41 0.34-0.75 0.75-0.75s0.75 0.34 0.75 0.75v5c0 0.41-0.34 0.75-0.75 0.75z"/>
 <path d="m12 17c-0.13 0-0.26-0.03-0.38-0.08s-0.23-0.12-0.33-0.21c-0.09-0.1-0.16-0.2-0.21-0.33-0.05-0.12-0.08-0.25-0.08-0.38s0.03-0.26 0.08-0.38 0.12-0.23 0.21-0.33c0.1-0.09 0.21-0.16 0.33-0.21 0.24-0.1 0.52-0.1 0.76 0 0.12 0.05 0.23 0.12 0.33 0.21 0.09 0.1 0.16 0.21 0.21 0.33s0.08 0.25 0.08 0.38-0.03 0.26-0.08 0.38c-0.05 0.13-0.12 0.23-0.21 0.33-0.1 0.09-0.21 0.16-0.33 0.21s-0.25 0.08-0.38 0.08z"/>
</svg>
