<svg width="24" height="24" viewBox="0 0 24 24"  xmlns="http://www.w3.org/2000/svg">
<path opacity="0.4" d="M12 2C6.47715 2 2 6.47715 2 12C2 17.5228 6.47715 22 12 22C17.5228 22 22 17.5228 22 12C22 6.47715 17.5228 2 12 2Z" />
<path d="M12 10.25C11.59 10.25 11.25 10.59 11.25 11L11.25 16C11.25 16.41 11.59 16.75 12 16.75C12.41 16.75 12.75 16.41 12.75 16L12.75 11C12.75 10.59 12.41 10.25 12 10.25Z" />
<path d="M11.08 8.37999C11.13 8.5 11.2 8.60999 11.29 8.70999C11.39 8.79999 11.5 8.86999 11.62 8.91999C11.86 9.02 12.14 9.02 12.38 8.92C12.5 8.87 12.61 8.8 12.71 8.71C12.8 8.61 12.87 8.5 12.92 8.38C12.97 8.26 13 8.13 13 8C13 7.87 12.97 7.74 12.92 7.62C12.87 7.49 12.8 7.39 12.71 7.29C12.61 7.2 12.5 7.12999 12.38 7.07999C12.26 7.02999 12.13 6.99999 12 6.99999C11.87 6.99999 11.74 7.02999 11.62 7.07999C11.5 7.12999 11.39 7.2 11.29 7.29C11.2 7.39 11.13 7.49 11.08 7.62C11.03 7.74 11 7.86999 11 7.99999C11 8.12999 11.03 8.25999 11.08 8.37999Z" />
</svg>
