<?xml version="1.0" encoding="UTF-8"?>
<svg width="24" height="24" viewBox="0 0 24 24" xmlns="http://www.w3.org/2000/svg">
 <path d="m12 22.431c-0.48 0-0.96-0.13-1.39-0.38l-6.5-3.82c-0.84-0.49-1.36-1.4-1.36-2.37v-7.71c0-0.97 0.51999-1.88 1.36-2.37l6.5-3.82c0.86-0.50999 1.93-0.50999 2.79 0l6.5 3.82c0.84 0.49 1.36 1.4 1.36 2.37v7.71c0 0.97-0.52 1.88-1.36 2.37l-6.5 3.82c-0.44 0.25-0.92 0.38-1.4 0.38zm-0.63-19.19-6.5 3.82c-0.38 0.22-0.62 0.64-0.62 1.08v7.71c0 0.44 0.24 0.85 0.62 1.08l6.5 3.82c0.39 0.23 0.88 0.23 1.27 0l6.5-3.82c0.38-0.22 0.62-0.64 0.62-1.08v-7.71c0-0.44-0.24-0.85-0.62-1.08l-6.5-3.82c-0.4-0.23-0.88-0.23-1.27 0z"/>
 <path d="m12 18.749c-0.13 0-0.27-0.04-0.39-0.11l-5-3c-0.36-0.21-0.47001-0.67-0.26001-1.03s0.67003-0.47 1.03-0.26l4.61 2.77 3.5401-2.13-8.9301-5.36c-0.23-0.14-0.35999-0.38-0.35999-0.64s0.13999-0.51 0.35999-0.64l5-3c0.24-0.14 0.54-0.14 0.77 0l5 3c0.36 0.21 0.47 0.67 0.26 1.03-0.21 0.35-0.67 0.46999-1.03 0.25999l-4.61-2.77-3.5399 2.13 8.9299 5.36c0.23 0.14 0.36 0.38 0.36 0.64s-0.14 0.51-0.36 0.64l-5 3c-0.11 0.07-0.25 0.11-0.38 0.11z"/>
 <path d="m9.5 12.75c-0.19 0-0.38003-0.07-0.53003-0.22-0.29-0.29-0.29-0.77 0-1.06l2-2c0.29-0.29 0.7701-0.29 1.0601 0s0.29 0.77005 0 1.06l-2 2c-0.15 0.15-0.34003 0.22-0.53003 0.22z"/>
 <path d="m12.5 14.75c-0.19 0-0.3801-0.07-0.5301-0.22-0.29-0.29-0.29-0.77 0-1.06l2-2c0.29-0.29 0.7701-0.29 1.0601 0s0.29 0.77 0 1.06l-2 2c-0.15 0.15-0.34 0.22-0.53 0.22z"/>
</svg>
