<?xml version="1.0" encoding="UTF-8"?>
<svg width="24" height="24" viewBox="0 0 24 24" xmlns="http://www.w3.org/2000/svg">
 <path d="m12 22.71c-0.16 0-0.32-0.02-0.48-0.07l-6.08-1.74c-0.69-0.2-1.18-0.78-1.26-1.49l-1.8-16.22c-0.05-0.49 0.1-0.99 0.44-1.36 0.33-0.37 0.80999-0.58 1.3-0.58h15.77c0.5 0 0.97 0.21 1.3 0.58s0.49 0.87 0.44 1.36l-1.8 16.22c-0.08 0.71-0.57 1.29-1.26 1.49l-6.08 1.74c-0.17 0.05-0.33 0.07-0.49 0.07zm-7.88-19.96c-0.1 0-0.16 0.05-0.19 0.08s-0.07 0.1-0.06 0.19l1.8 16.22c0.01 0.1 0.07999 0.19 0.17999 0.21l6.08 1.74c0.05 0.01 0.09 0.01 0.14 0l6.08-1.74c0.1-0.03 0.17-0.11 0.18-0.21l1.8-16.22c0.01-0.1-0.04-0.16-0.06-0.19-0.03-0.03-0.09-0.08-0.19-0.08h-15.76z"/>
 <path d="m10.62 16.74c-0.07 0-0.14-0.01-0.21-0.03l-3.12-0.9c-0.4-0.12-0.62995-0.53-0.50995-0.93 0.11-0.4 0.52999-0.62 0.92999-0.51l2.16 0.62v-7.98c0-0.41 0.33995-0.75 0.74995-0.75s0.75 0.34 0.75 0.75v8.97c0 0.24-0.1099 0.46-0.2999 0.6-0.13 0.1-0.2901 0.16-0.4501 0.16z"/>
 <path d="m12.9 16.75c-0.34 0-0.64-0.2301-0.73-0.5701-0.1-0.4 0.14-0.8099 0.55-0.9099l3.03-0.7601v-1.6999l-2.29 0.33c-0.22 0.03-0.43-0.03-0.6-0.18-0.16-0.14-0.26-0.35-0.26-0.57v-4.95c0-0.37 0.27-0.69001 0.64-0.74001l3.15-0.45c0.41-0.06 0.79 0.23 0.85 0.64s-0.23 0.79001-0.64 0.85001l-2.51 0.36v3.43l2.29-0.3301c0.22-0.03 0.43 0.0301 0.6 0.1801 0.16 0.14 0.26 0.35 0.26 0.5699v3.1501c0 0.34-0.23 0.64-0.57 0.73l-3.6 0.8999c-0.05 0.01-0.11 0.0201-0.17 0.0201z"/>
</svg>
