<svg width="24" height="24" viewBox="0 0 24 24"  xmlns="http://www.w3.org/2000/svg">
<path d="M12.0002 22.6095C11.7102 22.6095 11.4203 22.5396 11.1503 22.3896L9.67023 21.6795C9.30023 21.4995 9.14025 21.0495 9.32025 20.6795C9.50025 20.3095 9.94025 20.1495 10.3203 20.3295L11.8303 21.0595C11.9403 21.1195 12.0402 21.1195 12.1102 21.0795L20.1102 16.6396C20.1902 16.5996 20.2402 16.5095 20.2402 16.4195V7.59954C20.2402 7.50954 20.1902 7.42954 20.1102 7.37954L12.1102 2.93954C12.0302 2.89954 11.9402 2.89954 11.8702 2.93954L3.87024 7.37954C3.79024 7.41954 3.74023 7.50954 3.74023 7.59954V16.4195C3.74023 16.5095 3.79024 16.5896 3.87024 16.6396L6.38025 18.0295C6.77025 18.2495 7.23024 18.2395 7.62024 18.0095C8.01024 17.7795 8.24023 17.3795 8.24023 16.9295L8.25024 8.99954C8.25024 8.58954 8.59024 8.24954 9.00024 8.24954C9.41024 8.24954 9.75024 8.58954 9.75024 8.99954L9.74023 16.9295C9.74023 17.9095 9.23025 18.7995 8.38025 19.2995C7.53025 19.7995 6.51027 19.8095 5.65027 19.3295L3.14026 17.9395C2.58026 17.6295 2.24023 17.0395 2.24023 16.4095V7.58953C2.24023 6.95953 2.58026 6.36953 3.14026 6.05953L11.1403 1.61953C11.6703 1.31953 12.3103 1.31953 12.8403 1.61953L20.8403 6.05953C21.4003 6.36953 21.7402 6.95953 21.7402 7.58953V16.4095C21.7402 17.0395 21.4003 17.6295 20.8403 17.9395L12.8403 22.3795C12.5803 22.5295 12.2902 22.6095 12.0002 22.6095Z" />
<path d="M15.2502 16.7495H13.5002C12.1202 16.7495 11.0002 15.6295 11.0002 14.2495C11.0002 13.8395 11.3402 13.4995 11.7502 13.4995C12.1602 13.4995 12.5002 13.8395 12.5002 14.2495C12.5002 14.7995 12.9502 15.2495 13.5002 15.2495H15.2502C15.8002 15.2495 16.2502 14.7995 16.2502 14.2495C16.2502 13.6995 15.8002 13.2495 15.2502 13.2495H13.5002C12.1202 13.2495 11.0002 12.1295 11.0002 10.7495C11.0002 9.36954 12.1202 8.24954 13.5002 8.24954H15.2502C16.6302 8.24954 17.7502 9.36954 17.7502 10.7495C17.7502 11.1595 17.4102 11.4995 17.0002 11.4995C16.5902 11.4995 16.2502 11.1595 16.2502 10.7495C16.2502 10.1995 15.8002 9.74954 15.2502 9.74954H13.5002C12.9502 9.74954 12.5002 10.1995 12.5002 10.7495C12.5002 11.2995 12.9502 11.7495 13.5002 11.7495H15.2502C16.6302 11.7495 17.7502 12.8695 17.7502 14.2495C17.7502 15.6295 16.6302 16.7495 15.2502 16.7495Z" />
</svg>
