<?xml version="1.0" encoding="UTF-8"?>
<svg width="24" height="24" viewBox="0 0 24 24" xmlns="http://www.w3.org/2000/svg">
 <path d="m20.01 19.26c-0.19 0-0.38-0.07-0.53-0.22l-4.95-4.95c-0.29-0.29-0.29-0.77 0-1.06s0.77-0.29 1.06 0l4.95 4.95c0.29 0.29 0.29 0.77 0 1.06-0.15 0.15-0.34 0.22-0.53 0.22z"/>
 <path d="m10.11 18.43c-0.72995 0-1.43-0.29-1.94-0.81l-4.24-4.24c-1.07-1.07-1.07-2.82 0-3.89l7.07-7.07c1.07-1.07 2.82-1.07 3.89 0l4.2401 4.24c0.52 0.52 0.81 1.21 0.81 1.94s-0.29 1.43-0.81 1.94l-7.0701 7.07c-0.52 0.54-1.21 0.82-1.95 0.82zm2.8301-15.31c-0.32 0-0.6401 0.11999-0.8801 0.36999l-7.07 7.07c-0.49 0.49-0.49 1.28 0 1.77l4.24 4.24c0.47 0.47 1.29 0.47 1.77 0l7.0701-7.07c0.24-0.24 0.37-0.55 0.37-0.88s-0.13-0.65001-0.37-0.88001l-4.24-4.24c-0.25-0.26-0.57-0.38-0.89-0.38z"/>
 <path d="m8 21.75h-6c-0.41 0-0.75-0.34-0.75-0.75s0.34-0.75 0.75-0.75h6c0.41 0 0.75 0.34 0.75 0.75s-0.34 0.75-0.75 0.75z"/>
 <path d="m13.63 15.74c-0.19 0-0.38-0.07-0.53-0.22l-7.07-7.07c-0.29-0.29-0.29-0.77 0-1.06s0.77-0.29 1.06 0l7.07 7.07c0.29 0.29 0.29 0.77 0 1.06-0.14 0.15-0.34 0.22-0.53 0.22z"/>
</svg>
