<?xml version="1.0" encoding="UTF-8"?>
<svg width="24" height="24" viewBox="0 0 24 24" xmlns="http://www.w3.org/2000/svg">
 <path d="m6.1801 22.75c-0.1 0-0.21-0.01-0.3-0.02l-2.17-0.3c-1.04-0.14-1.98-1.07-2.14-2.13l-0.3-2.19c-0.1-0.7 0.2-1.61 0.7-2.12l4.39-4.39c-0.71-2.84 0.11-5.84 2.2-7.91 3.24-3.23 8.51-3.24 11.76 0 1.57 1.57 2.43 3.66 2.43 5.88 0 2.22-0.86 4.31-2.43 5.88-2.1 2.08-5.09 2.9-7.91 2.18l-4.4 4.39c-0.42 0.44-1.17 0.73-1.83 0.73zm8.25-19.99c-1.75 0-3.49 0.66-4.82 1.99-1.8 1.79-2.45 4.41-1.7 6.85 0.08 0.27 0.01 0.55-0.19 0.75l-4.7 4.7c-0.17 0.17-0.31 0.61-0.28 0.84l0.3 2.19c0.06 0.38 0.47 0.81 0.85 0.86l2.18 0.3c0.24 0.04 0.68-0.1 0.85-0.27l4.72-4.71c0.2-0.2 0.49-0.26 0.75-0.18 2.41 0.76 5.04 0.11 6.84-1.69 1.28-1.28 1.99-3 1.99-4.82 0-1.83-0.71-3.54-1.99-4.82-1.3-1.32-3.05-1.99-4.8-1.99z"/>
 <path d="m9.1901 20.54c-0.19 0-0.38-0.07-0.53-0.22l-2.3-2.3c-0.29-0.29-0.29-0.77 0-1.06s0.77-0.29 1.06 0l2.3 2.3c0.29002 0.29 0.29002 0.77 0 1.06-0.15 0.15-0.34 0.22-0.53 0.22z"/>
 <path d="m14.5 11.75c-1.24 0-2.25-1.01-2.25-2.25s1.01-2.25 2.25-2.25 2.25 1.01 2.25 2.25-1.01 2.25-2.25 2.25zm0-3c-0.41 0-0.75 0.34-0.75 0.75s0.34 0.75 0.75 0.75 0.75-0.34 0.75-0.75-0.34-0.75-0.75-0.75z"/>
</svg>
