<?xml version="1.0" encoding="UTF-8"?>
<svg width="24" height="24" viewBox="0 0 24 24" xmlns="http://www.w3.org/2000/svg">
 <path d="m16.74 19.59h-9.47c-0.79 0-1.36-0.03-1.85-0.1-3.47-0.38-4.16-2.46-4.16-5.91v-6.32c0-3.45 0.68-5.53 4.18-5.91 0.48-0.07 1.05-0.09998 1.83-0.09998h9.47c0.78 0 1.35 0.02998 1.85 0.09998 3.48 0.38 4.16 2.46 4.16 5.91v6.32c0 3.45-0.68 5.53-4.18 5.91-0.47 0.07-1.04 0.1-1.83 0.1zm-9.48-16.84c-0.71 0-1.22 0.03003-1.64 0.09003-2.16 0.24-2.87 0.90999-2.87 4.43v6.32c0 3.51 0.71001 4.19 2.85 4.42 0.44 0.06 0.95 0.09 1.67 0.09h9.47c0.72 0 1.22-0.03 1.64-0.09 2.16-0.24 2.87-0.91 2.87-4.43v-6.32c0-3.51-0.71-4.19-2.85-4.42-0.45-0.06-0.95-0.09003-1.67-0.09003h-9.47z"/>
 <path d="m17.26 9.0703h-3.68c-0.41 0-0.75-0.34-0.75-0.75s0.34-0.75 0.75-0.75h3.68c0.41 0 0.75 0.34 0.75 0.75s-0.33 0.75-0.75 0.75z"/>
 <path d="m10 9.3203c-0.55 0-1-0.45-1-1s0.44-1 1-1c0.55 0 1 0.45 1 1s-0.44 1-1 1z"/>
 <path d="m6.8501 9.3203c-0.55 0-1-0.45-1-1s0.44-1 1-1h0.00999c0.55 0 1 0.45 1 1s-0.45999 1-1.01 1z"/>
 <path d="m17.26 14.86h-10.51c-0.41 0-0.76-0.34-0.76-0.75s0.32999-0.75 0.73999-0.75h10.53c0.41 0 0.75 0.34 0.75 0.75s-0.33 0.75-0.75 0.75z"/>
 <path d="m17 22.75h-10c-0.41 0-0.75-0.34-0.75-0.75s0.34-0.75 0.75-0.75h10c0.41 0 0.75 0.34 0.75 0.75s-0.34 0.75-0.75 0.75z"/>
</svg>
