<svg width="24" height="24" viewBox="0 0 24 24"  xmlns="http://www.w3.org/2000/svg">
<path d="M17 22.75H7C6.59 22.75 6.25 22.41 6.25 22C6.25 21.59 6.59 21.25 7 21.25H17C17.41 21.25 17.75 21.59 17.75 22C17.75 22.41 17.41 22.75 17 22.75Z" />
<path opacity="0.4" d="M18 19H6C3.79 19 2 17.21 2 15V6C2 3.79 3.79 2 6 2H18C20.21 2 22 3.79 22 6V15C22 17.21 20.21 19 18 19Z" />
<path d="M17.2601 9.07031H13.5801C13.1701 9.07031 12.8301 8.73031 12.8301 8.32031C12.8301 7.91031 13.1701 7.57031 13.5801 7.57031H17.2601C17.6701 7.57031 18.0101 7.91031 18.0101 8.32031C18.0101 8.73031 17.6801 9.07031 17.2601 9.07031Z" />
<path d="M10 9.32031C9.45 9.32031 9 8.87031 9 8.32031C9 7.77031 9.44 7.32031 10 7.32031C10.55 7.32031 11 7.77031 11 8.32031C11 8.87031 10.56 9.32031 10 9.32031Z" />
<path d="M6.8501 9.32031C6.3001 9.32031 5.8501 8.87031 5.8501 8.32031C5.8501 7.77031 6.2901 7.32031 6.8501 7.32031H6.86009C7.41009 7.32031 7.86009 7.77031 7.86009 8.32031C7.86009 8.87031 7.4001 9.32031 6.8501 9.32031Z" />
<path d="M17.26 14.8604H6.74998C6.33998 14.8604 5.98999 14.5204 5.98999 14.1104C5.98999 13.7004 6.31998 13.3604 6.72998 13.3604H17.26C17.67 13.3604 18.01 13.7004 18.01 14.1104C18.01 14.5204 17.68 14.8604 17.26 14.8604Z" />
</svg>
