<svg width="24" height="24" viewBox="0 0 24 24"  xmlns="http://www.w3.org/2000/svg">
<path d="M11.1329 10.8959V9.76588C11.1329 9.45352 10.8884 9.20098 10.586 9.20098C10.2837 9.20098 10.0392 9.45352 10.0392 9.76588V10.8959C10.0392 13.08 8.32489 14.8505 6.2109 14.8505H5.66406V15.9805H6.2109C8.92931 15.9805 11.1329 13.7039 11.1329 10.8959Z" />
<path d="M14.4142 9.98112H15.508C15.508 7.17287 13.3038 4.89648 10.586 4.89648C7.86764 4.89648 5.66406 7.17287 5.66406 9.98112V11.1111C5.66406 11.4233 5.90869 11.676 6.2109 11.676C6.51327 11.676 6.75789 11.4233 6.75789 11.1111V9.98112C6.75789 7.79744 8.47222 6.02646 10.586 6.02646C12.6999 6.02646 14.4142 7.79744 14.4142 9.98112Z" />
<path d="M12.0889 16.4657C11.4915 17.0922 10.8148 17.6383 10.0714 18.0799H12.249C12.5886 17.7841 12.9037 17.4609 13.2056 17.1238C12.8007 16.9612 12.425 16.739 12.0889 16.4657Z" />
<path d="M8.94539 11.0035V9.87352C8.94539 8.93777 9.68024 8.17864 10.586 8.17864C11.4919 8.17864 12.2267 8.93777 12.2267 9.87352V10.5874C12.5573 10.3486 12.9253 10.162 13.3205 10.0401V9.87352C13.3205 8.31321 12.0958 7.04866 10.586 7.04866C9.07566 7.04866 7.85156 8.31321 7.85156 9.87352V11.0035C7.85156 11.9392 7.11671 12.6984 6.2109 12.6984H5.66406V13.8282H6.2109C7.72129 13.8282 8.94539 12.5636 8.94539 11.0035Z" />
<path d="M10.9107 14.6656C9.77789 16.0285 8.10093 16.8953 6.22552 16.8953H5.66406V18.0554H6.22552C8.27646 18.0554 10.1276 17.1785 11.4535 15.7713C11.221 15.4365 11.0364 15.0648 10.9107 14.6656Z" />
<path d="M18.4618 16.53L16.0658 14.1751C16.4318 13.3251 16.2656 12.2941 15.5751 11.6171C14.6985 10.7578 13.3138 10.7957 12.4825 11.7008C11.6511 12.6058 11.6869 14.0363 12.5635 14.8955C13.254 15.5725 14.2594 15.69 15.0619 15.2679L15.3518 15.5605L14.9142 16.0878L15.4976 16.615L15.9754 16.0878L16.4455 16.53L15.9754 17.0573L16.5185 17.5846L16.956 17.0573L17.4664 17.5846L16.956 18.1872L17.5868 18.7145L18.4618 17.7352C18.7388 17.4332 18.7539 16.8164 18.4618 16.53ZM13.2961 13.2772C13.0771 13.0625 13.0681 12.7047 13.2759 12.4785C13.4837 12.2523 13.83 12.2429 14.049 12.4576C14.2681 12.6724 14.2771 13.0301 14.0693 13.2563C13.8615 13.4825 13.5152 13.492 13.2961 13.2772Z" />
<path d="M21.6001 3.04577C21.6001 2.68934 21.2846 2.40039 20.8955 2.40039C20.5063 2.40039 20.1909 2.68934 20.1909 3.04577V20.955C20.1909 21.3115 20.5063 21.6004 20.8955 21.6004C21.2846 21.6004 21.6001 21.3115 21.6001 20.955V3.04577Z" />
<path d="M21.6001 3.04577C21.6001 2.68934 21.2846 2.40039 20.8955 2.40039L13.4727 2.40039C13.0835 2.40039 12.7681 2.68934 12.7681 3.04577C12.7681 3.4022 13.0835 3.69115 13.4727 3.69115H20.8955C21.2846 3.69115 21.6001 3.4022 21.6001 3.04577Z" />
<path d="M21.6001 20.955C21.6001 20.5986 21.2846 20.3096 20.8955 20.3096H18.5281C18.139 20.3096 17.8235 20.5986 17.8235 20.955C17.8235 21.3115 18.139 21.6004 18.5281 21.6004H20.8955C21.2846 21.6004 21.6001 21.3115 21.6001 20.955Z" />
<path d="M2.40002 20.9284C2.40002 20.5573 2.70089 20.2564 3.07202 20.2564H13.056C13.4272 20.2564 13.728 20.5573 13.728 20.9284C13.728 21.2995 13.4272 21.6004 13.056 21.6004H3.07202C2.70089 21.6004 2.40002 21.2995 2.40002 20.9284Z" />
<path d="M2.40002 3.04577C2.40002 2.68934 2.71548 2.40039 3.10461 2.40039C3.49374 2.40039 3.8092 2.68934 3.8092 3.04577V20.955C3.8092 21.3114 3.49374 21.6004 3.10461 21.6004C2.71548 21.6004 2.40002 21.3114 2.40002 20.955V3.04577Z" />
<path d="M2.40002 3.04577C2.40002 2.68934 2.71548 2.40039 3.10461 2.40039H5.82344C6.21257 2.40039 6.52802 2.68934 6.52802 3.04577C6.52802 3.4022 6.21257 3.69115 5.82344 3.69115L3.10461 3.69115C2.71548 3.69115 2.40002 3.4022 2.40002 3.04577Z" />
<path d="M2.40002 20.955C2.40002 20.5986 2.71548 20.3096 3.10461 20.3096H8.03672C8.42585 20.3096 8.74131 20.5986 8.74131 20.955C8.74131 21.3114 8.42585 21.6004 8.03672 21.6004H3.10461C2.71548 21.6004 2.40002 21.3114 2.40002 20.955Z" />
</svg>
