<?xml version="1.0" encoding="UTF-8"?>
<svg width="24" height="24" viewBox="0 0 24 24" xmlns="http://www.w3.org/2000/svg">
 <path d="m15 22.75h-6c-5.43 0-7.75-2.32-7.75-7.75v-6c0-5.43 2.32-7.75 7.75-7.75h6c5.43 0 7.75 2.32 7.75 7.75v6c0 5.43-2.32 7.75-7.75 7.75zm-6-20c-4.61 0-6.25 1.64-6.25 6.25v6c0 4.61 1.64 6.25 6.25 6.25h6c4.61 0 6.25-1.64 6.25-6.25v-6c0-4.61-1.64-6.25-6.25-6.25h-6z"/>
 <path d="m8.8102 18.25c-0.07 0-0.15 0-0.22-0.02l-1.19-0.16c-0.72-0.1-1.35-0.72-1.46-1.46l-0.17-1.21c-0.07-0.48 0.13-1.09 0.48-1.45l2.28-2.28c-0.34-1.62 0.15-3.3 1.34-4.48 1.91-1.91 5.03-1.91 6.94 0 0.93 0.93 1.44 2.16 1.44 3.47 0 1.31-0.51 2.55-1.44 3.47-1.19 1.18-2.87 1.67-4.48 1.33l-2.29 2.28c-0.28997 0.31-0.77997 0.51-1.23 0.51zm4.53-11c-0.87 0-1.75 0.33-2.41 1-0.9 0.9-1.22 2.21-0.85 3.43 0.08 0.27 0.01 0.55-0.18997 0.75l-2.58 2.58c-0.02 0.03-0.06 0.14-0.06 0.18l0.17 1.2c0.01 0.06 0.12 0.17 0.18 0.18l1.2 0.17c0.05-0.01 0.15-0.03 0.18-0.06l2.59-2.59c0.2-0.2 0.49-0.26 0.75-0.18 1.21 0.38 2.52 0.06 3.42-0.84 0.64-0.64 1-1.5 1-2.41 0-0.90998-0.35-1.77-1-2.41-0.65-0.66-1.53-1-2.4-1z"/>
 <path d="m10.45 17.03c-0.19 0-0.38-0.07-0.53002-0.22l-0.85999-0.86c-0.29-0.29-0.29-0.77 0-1.06s0.76999-0.29 1.06 0l0.86 0.86c0.29 0.29 0.29 0.77 0 1.06-0.14 0.15-0.33 0.22-0.53 0.22z"/>
 <path d="m13.38 11.8c-0.14 0-0.27-0.02-0.39-0.07s-0.23-0.13-0.32-0.22c-0.19-0.19-0.3-0.44-0.3-0.71 0-0.26 0.11-0.52 0.3-0.7 0.23-0.23998 0.58-0.34998 0.9-0.27998 0.06 0.02 0.13 0.03 0.19 0.06s0.12 0.06 0.17 0.09c0.05 0.03998 0.11 0.07998 0.15 0.12998 0.19 0.18 0.3 0.44 0.3 0.7 0 0.14-0.03 0.26-0.08 0.39-0.05 0.12-0.12 0.23-0.22 0.32-0.19 0.19-0.44 0.29-0.7 0.29z"/>
</svg>
