<svg width="24" height="24" viewBox="0 0 24 24"  xmlns="http://www.w3.org/2000/svg">
<path opacity="0.4" d="M16.19 2H7.81C4.17 2 2 4.17 2 7.81V16.18C2 19.83 4.17 22 7.81 22H16.18C19.82 22 21.99 19.83 21.99 16.19V7.81C22 4.17 19.83 2 16.19 2Z" />
<path d="M15.8899 8.10982C14.4099 6.63982 12.0099 6.63982 10.5399 8.10982C9.50995 9.12982 9.19995 10.6098 9.59995 11.9098L7.24995 14.2598C7.08995 14.4298 6.96995 14.7598 7.00995 14.9998L7.15995 16.0898C7.20995 16.4498 7.54995 16.7898 7.90995 16.8398L8.99995 16.9998C9.23995 17.0298 9.56995 16.9298 9.73995 16.7498L10.1499 16.3398C10.2499 16.2498 10.2499 16.0898 10.1499 15.9898L9.17995 15.0198C9.03995 14.8798 9.03995 14.6398 9.17995 14.4898C9.31995 14.3498 9.55995 14.3498 9.70995 14.4898L10.6799 15.4598C10.77 15.5498 10.9299 15.5498 11.0299 15.4598L12.0899 14.4098C13.3799 14.8098 14.8599 14.4998 15.8899 13.4798C17.3699 11.9898 17.3699 9.58982 15.8899 8.10982ZM13.2499 11.9998C12.5599 11.9998 11.9999 11.4398 11.9999 10.7498C11.9999 10.0598 12.5599 9.49982 13.2499 9.49982C13.9399 9.49982 14.4999 10.0598 14.4999 10.7498C14.4999 11.4398 13.9399 11.9998 13.2499 11.9998Z" />
</svg>
