<?xml version="1.0" encoding="UTF-8"?>
<svg width="24" height="24" viewBox="0 0 24 24" xmlns="http://www.w3.org/2000/svg">
 <path d="m12 22.291c-0.56 0-1.12-0.17-1.6-0.51l-5-3.57c-0.72-0.51-1.15-1.35-1.15-2.24v-8.81c0-0.98 0.53001-1.9 1.39-2.39l5-2.86c0.84-0.48 1.89-0.48 2.73 0l5 2.86c0.85 0.49 1.39 1.4 1.39 2.39v8.81c0 0.89-0.43 1.72-1.15 2.24l-5 3.57c-0.49 0.34-1.05 0.51-1.61 0.51zm-0.62-19.07-5 2.86c-0.39 0.22-0.63 0.64-0.63 1.08v8.81c0 0.4 0.20002 0.78 0.52002 1.02l5 3.57c0.44 0.31 1.02 0.31 1.45 0l5-3.57c0.33-0.23 0.52-0.61 0.52-1.02v-8.81c0-0.45-0.24-0.86-0.63-1.08l-5-2.86c-0.37-0.22-0.85-0.22-1.23 0z"/>
 <path d="m11.85 21.98c-0.35 0-0.6599-0.25-0.7299-0.6l-1.85-9.23c-0.02-0.1-0.02-0.21 0-0.31l2-9c0.09-0.4 0.4799-0.66 0.8999-0.56999 0.4 0.09 0.6601 0.48999 0.5701 0.88999l-1.97 8.85 1.82 9.08c0.08 0.41-0.18 0.8-0.59 0.88-0.06 0.01-0.1101 0.01-0.1501 0.01z"/>
 <path d="m18.16 17.66c-0.13 0-0.26-0.03-0.39-0.11l-8.16-4.91c-0.23-0.14-0.36999-0.39-0.35999-0.66 0-0.27 0.15002-0.51 0.39002-0.64l8.54-4.74c0.36-0.2 0.82-0.07 1.02 0.29s0.07 0.82-0.29 1.02l-7.41 4.11 7.05 4.24c0.35 0.21 0.47 0.67 0.26 1.03-0.15 0.24-0.39 0.37-0.65 0.37z"/>
</svg>
