<?xml version="1.0" encoding="UTF-8"?>
<svg width="24" height="24" viewBox="0 0 24 24" xmlns="http://www.w3.org/2000/svg">
 <path d="m4.1801 19.08c-0.19 0-0.38-0.07-0.53-0.22-0.29-0.29-0.29-0.77 0-1.06l15.85-15.85c0.29-0.29 0.77-0.29 1.06 0s0.29 0.77 0 1.06l-15.85 15.85c-0.15 0.15-0.34 0.22-0.53 0.22z"/>
 <path d="m5.2498 13.75c-0.29 0-0.56-0.17-0.69-0.45-0.49-1.12-0.74-2.26-0.74-3.4 0-2.72 1.18-5.23 3.23-6.89 1.92-1.54 4.3-2.1 6.7-1.57 1.58 0.35 3.02 1.18 4.15 2.4 0.28 0.3 0.26 0.78-0.04 1.06s-0.78 0.26-1.06-0.04c-0.93-1-2.09-1.68-3.37-1.96-1.95-0.42-3.88 0.03-5.43 1.28-1.7 1.37-2.67 3.45-2.67 5.72 0 0.92999 0.21 1.87 0.61 2.8 0.17 0.38-0.01 0.82-0.39 0.99-0.1 0.04-0.2 0.06-0.3 0.06z"/>
 <path d="m14.61 19.75h-5.19c-0.39 0-0.94-0.04-1.31-0.42-0.36-0.37-0.35-0.84-0.34-1.15v-0.91c-0.4-0.28-0.78-0.6-1.14-0.96-0.29-0.29-0.29-0.77 0-1.06s0.77-0.29 1.06 0c0.39 0.38 0.8 0.72 1.23 1 0.21 0.14 0.35 0.38 0.35 0.63v1.34 0.03h0.16 5.19c0.07 0 0.12 0 0.16-0.01v-0.11-1.26c0-0.26 0.13-0.49 0.35-0.63 2.47-1.58 4.37-5.08 3.23-8.71-0.12-0.4 0.1-0.82 0.49-0.94 0.39-0.13 0.82 0.09999 0.94 0.48999 1.31 4.18-0.73 8.21-3.51 10.19v0.77c0.01 0.31 0.02 0.84-0.39 1.26-0.31 0.3-0.73 0.45-1.28 0.45z"/>
 <path d="m15.5 22.75c-0.07 0-0.14-0.01-0.21-0.03-2.16-0.62-4.43-0.62-6.59 0-0.4 0.11-0.81-0.12-0.93-0.52s0.12-0.81 0.52-0.93c2.42-0.69 4.99-0.69 7.41 0 0.4 0.11 0.63 0.53 0.52 0.93-0.09 0.34-0.39 0.55-0.72 0.55z"/>
</svg>
