<?xml version="1.0" encoding="UTF-8"?>
<svg width="24" height="24" viewBox="0 0 24 24" xmlns="http://www.w3.org/2000/svg">
 <path d="m14.77 19.75h-5.51c-0.44 0-1-0.05-1.37-0.43-0.36-0.37-0.35-0.83-0.34-1.14v-0.89c-2.52-1.68-4.18-4.6-4.18-7.38 0-2.63 1.18-5.09 3.23-6.74s4.74-2.27 7.37-1.69c2.5 0.55 4.66 2.22 5.78 4.47 2.17 4.37 0.08 9.1-3.26 11.35v0.75c0.01 0.29 0.02 0.82-0.39 1.24-0.31 0.3-0.75 0.46-1.33 0.46zm-5.73-1.51c0.05 0 0.12 0.01 0.21 0.01h5.52c0.1 0 0.17-0.01 0.21-0.02v-0.1-1.26c0-0.26 0.14-0.51 0.36-0.64 2.96-1.79 4.92-5.88 3.05-9.63-0.92-1.85-2.7-3.22-4.76-3.67-2.18-0.48-4.41 0.03-6.11 1.4s-2.67 3.4-2.67 5.58c0 2.78 1.92 5.18 3.82 6.33 0.23 0.14 0.36 0.38 0.36 0.64v1.35c0.01 0 0.01 0 0.01 0.01z"/>
 <path d="m15.5 22.75c-0.07 0-0.14-0.01-0.21-0.03-2.16-0.62-4.43-0.62-6.59 0-0.4 0.11-0.81-0.12-0.93-0.52s0.12-0.81 0.52-0.93c2.42-0.69 4.99-0.69 7.41 0 0.4 0.11 0.63 0.53 0.52 0.93-0.09 0.34-0.39 0.55-0.72 0.55z"/>
</svg>
