<svg width="24" height="24" viewBox="0 0 24 24"  xmlns="http://www.w3.org/2000/svg">
<path d="M12.0001 13.85C11.8701 13.85 11.7401 13.82 11.6301 13.75C11.2701 13.54 11.1501 13.08 11.3501 12.73L12.2001 11.25H11.3601C10.8601 11.25 10.4501 11.03 10.2301 10.66C10.0101 10.28 10.0301 9.82005 10.2801 9.38005L11.3501 7.52005C11.5601 7.16005 12.0201 7.04005 12.3701 7.24005C12.7301 7.45005 12.8501 7.91005 12.6501 8.26005L11.8001 9.75005H12.6401C13.1401 9.75005 13.5501 9.97005 13.7701 10.34C13.9901 10.72 13.9701 11.18 13.7201 11.62L12.6501 13.48C12.5101 13.72 12.2601 13.85 12.0001 13.85Z" />
<path d="M14.7701 19.75H9.26012C8.82012 19.75 8.26012 19.7 7.89012 19.32C7.53012 18.95 7.54012 18.49 7.55012 18.18V17.29C5.03012 15.61 3.37012 12.69 3.37012 9.91005C3.37012 7.28005 4.55012 4.82005 6.60012 3.17005C8.65012 1.52005 11.3401 0.900047 13.9701 1.48005C16.4701 2.03005 18.6301 3.70005 19.7501 5.95005C21.9201 10.32 19.8301 15.05 16.4901 17.3V18.05C16.5001 18.34 16.5101 18.87 16.1001 19.29C15.7901 19.59 15.3501 19.75 14.7701 19.75ZM9.04012 18.24C9.09012 18.24 9.16012 18.25 9.25012 18.25H14.7701C14.8701 18.25 14.9401 18.24 14.9801 18.23C14.9801 18.2 14.9801 18.16 14.9801 18.13V16.87C14.9801 16.61 15.1201 16.36 15.3401 16.23C18.3001 14.44 20.2601 10.35 18.3901 6.60005C17.4701 4.75005 15.6901 3.38005 13.6301 2.93005C11.4501 2.45005 9.22012 2.96005 7.52012 4.33005C5.82012 5.70005 4.85012 7.73005 4.85012 9.91005C4.85012 12.69 6.77012 15.09 8.67012 16.24C8.90012 16.38 9.03012 16.62 9.03012 16.88V18.23C9.04012 18.23 9.04012 18.23 9.04012 18.24Z" />
<path d="M15.5001 22.75C15.4301 22.75 15.3601 22.74 15.2901 22.72C13.1301 22.1 10.8601 22.1 8.70012 22.72C8.30012 22.83 7.89012 22.6 7.77012 22.2C7.65012 21.8 7.89012 21.39 8.29012 21.27C10.7101 20.58 13.2801 20.58 15.7001 21.27C16.1001 21.38 16.3301 21.8 16.2201 22.2C16.1301 22.54 15.8301 22.75 15.5001 22.75Z" />
</svg>
