<?xml version="1.0" encoding="UTF-8"?>
<svg width="24" height="24" viewBox="0 0 24 24" xmlns="http://www.w3.org/2000/svg">
 <path d="m20.78 19.34h-17.56c-0.41 0-0.75-0.34-0.75-0.75v-4.94c0-5.22 4.25-9.47 9.47-9.47h0.12c5.22 0 9.47 4.25 9.47 9.47v4.94c0 0.41-0.34 0.75-0.75 0.75zm-16.81-1.5h16.06v-4.19c0-4.4-3.58-7.97-7.97-7.97h-0.12c-4.4 0-7.97 3.58-7.97 7.97v4.19z"/>
 <path d="m12 5.68c-0.41 0-0.75-0.34-0.75-0.75v-2.93c0-0.41 0.34-0.75 0.75-0.75s0.75 0.34 0.75 0.75v2.93c0 0.41-0.34 0.75-0.75 0.75z"/>
 <path d="m12 22.75c-2.31 0-4.24-1.81-4.4-4.11-0.01-0.21 0.05998-0.41 0.19998-0.56s0.34002-0.24 0.55002-0.24h7.2999c0.21 0 0.4101 0.09 0.5501 0.24s0.2099 0.36 0.1999 0.56c-0.16 2.3-2.0899 4.11-4.3999 4.11zm-2.7301-3.41c0.41 1.12 1.4901 1.91 2.7301 1.91s2.32-0.79 2.73-1.91h-5.4601z"/>
</svg>
