<svg width="24" height="24" viewBox="0 0 24 24"  xmlns="http://www.w3.org/2000/svg">
<path d="M4.18012 19.08C3.99012 19.08 3.80012 19.01 3.65012 18.86C3.36012 18.57 3.36012 18.09 3.65012 17.8L19.5001 1.95001C19.7901 1.66001 20.2701 1.66001 20.5601 1.95001C20.8501 2.24001 20.8501 2.72001 20.5601 3.01001L4.71012 18.86C4.56012 19.01 4.37012 19.08 4.18012 19.08Z" />
<path d="M5.25012 13.75C4.96012 13.75 4.69012 13.58 4.56012 13.3C4.07012 12.18 3.82012 11.04 3.82012 9.90001C3.82012 7.18001 5.00012 4.67001 7.05012 3.01001C8.97012 1.47001 11.3501 0.910008 13.7501 1.44001C15.3301 1.79001 16.7701 2.62001 17.9001 3.84001C18.1801 4.14001 18.1601 4.62001 17.8601 4.90001C17.5601 5.18001 17.0801 5.16001 16.8001 4.86001C15.8701 3.86001 14.7101 3.18001 13.4301 2.90001C11.4801 2.48001 9.55012 2.93001 8.00012 4.18001C6.30012 5.55001 5.33012 7.63001 5.33012 9.90001C5.33012 10.83 5.54012 11.77 5.94012 12.7C6.11012 13.08 5.93012 13.52 5.55012 13.69C5.45012 13.73 5.35012 13.75 5.25012 13.75Z" />
<path d="M14.6101 19.75H9.42012C9.03012 19.75 8.48012 19.71 8.11012 19.33C7.75012 18.96 7.76012 18.49 7.77012 18.18V17.27C7.37012 16.99 6.99012 16.67 6.63012 16.31C6.34012 16.02 6.34012 15.54 6.63012 15.25C6.92012 14.96 7.40012 14.96 7.69012 15.25C8.08012 15.63 8.49012 15.97 8.92012 16.25C9.13012 16.39 9.27012 16.63 9.27012 16.88V18.22C9.27012 18.23 9.27012 18.24 9.27012 18.25C9.31012 18.25 9.36012 18.25 9.43012 18.25H14.6201C14.6901 18.25 14.7401 18.25 14.7801 18.24C14.7801 18.2 14.7801 18.16 14.7801 18.13V16.87C14.7801 16.61 14.9101 16.38 15.1301 16.24C17.6001 14.66 19.5001 11.16 18.3601 7.53001C18.2401 7.13001 18.4601 6.71001 18.8501 6.59001C19.2401 6.46001 19.6701 6.69001 19.7901 7.08001C21.1001 11.26 19.0601 15.29 16.2801 17.27V18.04C16.2901 18.35 16.3001 18.88 15.8901 19.3C15.5801 19.6 15.1601 19.75 14.6101 19.75Z" />
<path d="M15.5001 22.75C15.4301 22.75 15.3601 22.74 15.2901 22.72C13.1301 22.1 10.8601 22.1 8.70012 22.72C8.30012 22.83 7.89012 22.6 7.77012 22.2C7.65012 21.8 7.89012 21.39 8.29012 21.27C10.7101 20.58 13.2801 20.58 15.7001 21.27C16.1001 21.38 16.3301 21.8 16.2201 22.2C16.1301 22.54 15.8301 22.75 15.5001 22.75Z" />
</svg>
