<?xml version="1.0" encoding="UTF-8"?>
<svg width="24" height="24" viewBox="0 0 24 24" xmlns="http://www.w3.org/2000/svg">
 <path d="m18.21 15.44h-12.42c-1.03 0-1.94-0.42-2.5-1.15s-0.72-1.72-0.45-2.71l2.2-8.08c0.34-1.26 1.64-2.25 2.95-2.25h8.01c1.31 0 2.6 0.99 2.95 2.25l2.2 8.08c0.27 0.99 0.11 1.98-0.45 2.71s-1.46 1.15-2.49 1.15zm-10.22-12.69c-0.63 0-1.34 0.54-1.5 1.15l-2.2 8.08c-0.15 0.54-0.08 1.04 0.2 1.41s0.74 0.56 1.3 0.56h12.42c0.56 0 1.03-0.2 1.3-0.56s0.35-0.86 0.2-1.41l-2.2-8.08c-0.17-0.61-0.87-1.15-1.5-1.15h-8.02z"/>
 <path d="m12 22.75c-0.41 0-0.75-0.34-0.75-0.75v-7c0-0.41 0.34-0.75 0.75-0.75s0.75 0.34 0.75 0.75v7c0 0.41-0.34 0.75-0.75 0.75z"/>
 <path d="m16 22.75h-8c-0.41 0-0.75-0.34-0.75-0.75s0.34-0.75 0.75-0.75h8c0.41 0 0.75 0.34 0.75 0.75s-0.34 0.75-0.75 0.75z"/>
</svg>
