<?xml version="1.0" encoding="UTF-8"?>
<svg width="24" height="24" viewBox="0 0 24 24" xmlns="http://www.w3.org/2000/svg">
 <path d="m16.99 9.71h-9.9799c-0.41 0-0.75-0.34-0.75-0.75s0.34-0.75 0.75-0.75h9.9799c0.41 0 0.75 0.34 0.75 0.75s-0.34 0.75-0.75 0.75z"/>
 <path d="m12 9.71c-0.41 0-0.75-0.34-0.75-0.75v-1.68c0-0.41 0.34-0.75 0.75-0.75s0.75 0.34 0.75 0.75v1.68c0 0.41-0.34 0.75-0.75 0.75z"/>
 <path d="m7 17.47c-0.41 0-0.75-0.34-0.75-0.75s0.34-0.75 0.75-0.75c3.72 0 6.75-3.15 6.75-7.03 0-0.41 0.34-0.75 0.75-0.75s0.75 0.34 0.75 0.75c0 4.71-3.7 8.53-8.25 8.53z"/>
 <path d="m17 17.47c-1.97 0-3.8-0.98-5.14-2.77-0.25-0.33-0.18-0.8 0.15-1.05s0.8-0.18 1.05 0.15c1.06 1.4 2.46 2.17 3.95 2.17 0.41 0 0.75 0.34 0.75 0.75s-0.35 0.75-0.76 0.75z"/>
 <path d="m15 22.75h-6c-5.43 0-7.75-2.32-7.75-7.75v-6c0-5.43 2.32-7.75 7.75-7.75h6c5.43 0 7.75 2.32 7.75 7.75v6c0 5.43-2.32 7.75-7.75 7.75zm-6-20c-4.61 0-6.25 1.64-6.25 6.25v6c0 4.61 1.64 6.25 6.25 6.25h6c4.61 0 6.25-1.64 6.25-6.25v-6c0-4.61-1.64-6.25-6.25-6.25h-6z"/>
</svg>
