<?xml version="1.0" encoding="UTF-8"?>
<svg width="24" height="24" viewBox="0 0 24 24" xmlns="http://www.w3.org/2000/svg">
 <path d="m11.79 11.88c-0.54 0-1.09-0.1-1.52-0.29l-5.9-2.62c-1.5-0.67-1.72-1.57-1.72-2.06s0.22-1.39 1.72-2.06l5.9-2.62c0.87-0.39 2.18-0.39 3.05 0l5.91 2.62c1.49 0.66 1.72 1.57 1.72 2.06s-0.22 1.39-1.72 2.06l-5.91 2.62c-0.44 0.2-0.98 0.29-1.53 0.29zm0-8.44c-0.34 0-0.67 0.05-0.91 0.16l-5.9 2.62c-0.61 0.28-0.83 0.56-0.83 0.69s0.22 0.42 0.82 0.69l5.9 2.62c0.48 0.21 1.35 0.21 1.83 0l5.91-2.62c0.61-0.27 0.83-0.56 0.83-0.69s-0.22-0.42-0.83-0.69l-5.9-2.62c-0.24-0.1-0.58-0.16-0.92-0.16z"/>
 <path d="m12 17.09c-0.38 0-0.76-0.08-1.12-0.24l-6.79-3.02c-1.03-0.45-1.84-1.7-1.84-2.83 0-0.41 0.34-0.75 0.75-0.75s0.75 0.34 0.75 0.75c0 0.55 0.45 1.24 0.95 1.47l6.79 3.02c0.32 0.14 0.69 0.14 1.02 0l6.79-3.02c0.5-0.22 0.95-0.92 0.95-1.47 0-0.41 0.34-0.75 0.75-0.75s0.75 0.34 0.75 0.75c0 1.13-0.81 2.38-1.84 2.84l-6.79 3.02c-0.36 0.15-0.74 0.23-1.12 0.23z"/>
 <path d="m12 22.09c-0.38 0-0.76-0.08-1.12-0.24l-6.79-3.02c-1.12-0.5-1.84-1.61-1.84-2.84 0-0.41 0.34-0.75 0.75-0.75s0.75 0.35 0.75 0.76c0 0.63 0.37 1.21 0.95 1.47l6.79 3.02c0.32 0.14 0.69 0.14 1.02 0l6.79-3.02c0.58-0.26 0.95-0.83 0.95-1.47 0-0.41 0.34-0.75 0.75-0.75s0.75 0.34 0.75 0.75c0 1.23-0.72 2.34-1.84 2.84l-6.79 3.02c-0.36 0.15-0.74 0.23-1.12 0.23z"/>
</svg>
