<?xml version="1.0" encoding="UTF-8"?>
<svg width="24" height="24" viewBox="0 0 24 24" xmlns="http://www.w3.org/2000/svg">
 <path d="m12 22.75c-5.08 0-9.51-3.61-10.53-8.58-0.08-0.41 0.18-0.8 0.58-0.89 0.41-0.08 0.8 0.18 0.89 0.58 0.88 4.28 4.69 7.39 9.06 7.39 4.36 0 8.17-3.09 9.06-7.35 0.08-0.41 0.48-0.67 0.89-0.58 0.41 0.08 0.67 0.48 0.58 0.89-1.04 4.94-5.46 8.54-10.53 8.54z"/>
 <path d="m21.81 10.81c-0.35 0-0.66-0.2499-0.73-0.6099-0.85-4.32-4.67-7.4601-9.08-7.4601-4.38 0-8.19 3.11-9.06 7.39-0.08 0.41-0.48 0.66-0.89 0.58s-0.67-0.4799-0.58-0.88995c1.02-4.97 5.45-8.58 10.53-8.58 5.13 0 9.56 3.65 10.55 8.67 0.08 0.40995-0.19 0.80005-0.59 0.88005-0.05 0.02-0.1 0.0199-0.15 0.0199z"/>
 <path d="m12 14.25c-1.24 0-2.25-1.01-2.25-2.25s1.01-2.25 2.25-2.25 2.25 1.01 2.25 2.25-1.01 2.25-2.25 2.25zm0-3c-0.41 0-0.75 0.34-0.75 0.75s0.34 0.75 0.75 0.75 0.75-0.34 0.75-0.75-0.34-0.75-0.75-0.75z"/>
</svg>
