<?xml version="1.0" encoding="UTF-8"?>
<svg width="24" height="24" viewBox="0 0 24 24" xmlns="http://www.w3.org/2000/svg">
 <path d="m11.97 22.75c-5.92 0-10.75-4.82-10.75-10.75s4.83-10.75 10.75-10.75c5.92 0 10.75 4.82 10.75 10.75s-4.82 10.75-10.75 10.75zm0-20c-5.1 0-9.25 4.15-9.25 9.25s4.15 9.25 9.25 9.25c5.1 0 9.25-4.15 9.25-9.25s-4.15-9.25-9.25-9.25z"/>
 <path d="m12 17.25c-2.9 0-5.25-2.36-5.25-5.25s2.35-5.25 5.25-5.25 5.25 2.36 5.25 5.25-2.35 5.25-5.25 5.25zm0-9c-2.07 0-3.75 1.68-3.75 3.75s1.68 3.75 3.75 3.75 3.75-1.68 3.75-3.75-1.68-3.75-3.75-3.75z"/>
 <path d="m8.4398 9.2101c-0.19 0-0.39-0.07-0.53-0.21l-3.54-3.54c-0.29-0.29-0.29-0.77 0-1.06s0.77-0.29 1.06 0l3.54 3.54c0.29 0.29 0.29 0.76 0 1.06-0.15 0.14-0.34 0.21-0.53 0.21z"/>
 <path d="m4.8998 19.82c-0.19 0-0.38-0.07-0.53-0.22-0.29-0.29-0.29-0.77 0-1.06l3.54-3.54c0.29-0.29 0.77-0.29 1.06 0s0.29 0.77 0 1.06l-3.54 3.54c-0.14 0.15-0.34 0.22-0.53 0.22z"/>
 <path d="m19.04 19.82c-0.19 0-0.38-0.07-0.53-0.22l-3.54-3.54c-0.29-0.29-0.29-0.77 0-1.06s0.77-0.29 1.06 0l3.54 3.54c0.29 0.29 0.29 0.77 0 1.06-0.14 0.15-0.33 0.22-0.53 0.22z"/>
 <path d="m15.51 9.2099c-0.19 0-0.38-0.07-0.53-0.22-0.29-0.29-0.29-0.77 0-1.06l3.54-3.54c0.29-0.29 0.77-0.29 1.06 0s0.29 0.77 0 1.06l-3.54 3.55c-0.15 0.14-0.34 0.21-0.53 0.21z"/>
</svg>
