<?xml version="1.0" encoding="UTF-8"?>
<svg width="24" height="24" viewBox="0 0 24 24" xmlns="http://www.w3.org/2000/svg">
 <path d="m12 22.75c-0.7 0-1.41-0.27-1.94-0.8l-1.71-1.69c-0.42-0.42-1-0.6501-1.59-0.6501h-0.76001c-2.07 0-3.75-1.6699-3.75-3.7199v-10.91c0-2.05 1.68-3.72 3.75-3.72h12c2.07 0 3.75 1.67 3.75 3.72v10.91c0 2.05-1.68 3.7199-3.75 3.7199h-0.76c-0.59 0-1.17 0.2401-1.59 0.6501l-1.71 1.69c-0.53 0.53-1.24 0.8-1.94 0.8zm-6-20c-1.24 0-2.25 0.99997-2.25 2.22v10.91c0 1.23 1.01 2.2199 2.25 2.2199h0.76001c0.99 0 1.95 0.4001 2.65 1.0901l1.71 1.69c0.49 0.48 1.28 0.48 1.77 0l1.71-1.69c0.7-0.69 1.66-1.0901 2.65-1.0901h0.75c1.24 0 2.25-0.9999 2.25-2.2199v-10.91c0-1.23-1.01-2.22-2.25-2.22h-12z"/>
 <path d="m12 15.75c-0.18 0-0.36-0.03-0.52-0.08-1.32-0.45-4.72-2.44-4.72-6.16 0-1.8 1.46-3.26 3.25-3.26 0.73 0 1.43 0.25 2 0.69 0.57-0.44 1.27-0.69 2-0.69 1.79 0 3.25 1.46 3.25 3.26 0 3.72-3.41 5.71-4.72 6.16-0.18 0.05-0.36 0.08-0.54 0.08zm-2-8c-0.96 0-1.75 0.79001-1.75 1.76 0 2.83 2.7499 4.41 3.7099 4.74h0.0801c0.97-0.34 3.6999-1.92 3.6999-4.73 0-0.97-0.78-1.76-1.75-1.76-0.55 0-1.0599 0.26001-1.3999 0.70001-0.28 0.38-0.92 0.38-1.2 0-0.32-0.45-0.83-0.71002-1.39-0.71002z"/>
</svg>
