<?xml version="1.0" encoding="UTF-8"?>
<svg width="24" height="24" viewBox="0 0 24 24" xmlns="http://www.w3.org/2000/svg">
 <path d="m12.01 22.75c-0.63 0-1.26-0.2101-1.75-0.6301l-1.58-1.3599c-0.16-0.14-0.55999-0.2801-0.76999-0.2801h-1.73c-1.48 0-2.68-1.1999-2.68-2.6799v-1.7101c0-0.21-0.14-0.6-0.28-0.76l-1.35-1.59c-0.82-0.97-0.82-2.4999 0-3.4699l1.35-1.59c0.14-0.16 0.28-0.55 0.28-0.76v-1.7101c0-1.48 1.2-2.6799 2.68-2.6799h1.73c0.21 0 0.60999-0.15003 0.76999-0.28003l1.58-1.36c0.98-0.84 2.51-0.84 3.49 0l1.58 1.36c0.16 0.14 0.56 0.28003 0.77 0.28003h1.7c1.48 0 2.68 1.1999 2.68 2.6799v1.7001c0 0.21 0.15 0.61001 0.29 0.77001l1.35 1.58c0.84 0.98 0.84 2.51 0 3.49l-1.35 1.5799c-0.14 0.16-0.28 0.56-0.28 0.77v1.7001c0 1.48-1.2 2.6799-2.68 2.6799h-1.7c-0.21 0-0.61 0.1501-0.77 0.2801l-1.58 1.3599c-0.5 0.42-1.13 0.6301-1.75 0.6301zm-5.83-17.73c-0.65 0-1.18 0.52993-1.18 1.1799v1.7101c0 0.57-0.27001 1.3-0.63001 1.73l-1.35 1.5899c-0.35 0.41-0.35 1.1201 0 1.5301l1.35 1.5899c0.37 0.44 0.64002 1.17 0.64002 1.73v1.7101c0 0.65 0.52999 1.1799 1.18 1.1799h1.73c0.58 0 1.31 0.27 1.75 0.65l1.58 1.36c0.41 0.35 1.13 0.35 1.54 0l1.58-1.36c0.44-0.37 1.17-0.65 1.75-0.65h1.7c0.65 0 1.18-0.5299 1.18-1.1799v-1.7001c0-0.58 0.27-1.31 0.65-1.75l1.35-1.5799c0.35-0.41 0.35-1.1301 0-1.5401l-1.35-1.5799c-0.37-0.44-0.65-1.17-0.65-1.75v-1.7001c0-0.65-0.53-1.1799-1.18-1.1799h-1.7c-0.57 0-1.31-0.27002-1.75-0.65002l-1.58-1.36c-0.41-0.35-1.13-0.35-1.54 0l-1.58 1.36c-0.44 0.37-1.17 0.65002-1.75 0.65002h-1.74v0.01001z"/>
 <path d="m14 16.97h-1.78c-0.42 0-1.0501-0.13-1.4201-0.5l-1.3799-1.0599 0.92003-1.1901 1.45 1.12c0.1 0.07 0.28 0.12 0.43 0.12h1.78c0.24 0 0.5299-0.2099 0.5799-0.4199l1.1401-3.4701c0.03-0.09 0.0299-0.1499 0.0199-0.1699-0.02-0.03-0.09-0.0601-0.19-0.0601h-1.87c-0.36 0-0.6899-0.1499-0.9299-0.4199-0.23-0.27-0.3401-0.63-0.2901-1l0.2401-1.51c0.02-0.08-0.04-0.18007-0.1-0.20007-0.06-0.01-0.15 0.01004-0.18 0.04004l-1.91 2.8399-1.25-0.8399 1.9199-2.85c0.4-0.6 1.2401-0.85998 1.9201-0.60998 0.76 0.25 1.2499 1.11 1.0799 1.89l-0.1799 1.1399h1.5499c0.59 0 1.1101 0.2501 1.4201 0.6901 0.3 0.43 0.3699 0.99 0.1799 1.52l-1.1199 3.4c-0.21 0.86-1.1 1.5399-2.03 1.5399z"/>
 <path d="m8.9002 16.46h-0.47c-1.47 0-1.69-1.03-1.69-1.64v-4.58c0-0.60998 0.22001-1.64 1.69-1.64h0.47c1.47 0 1.69 1.03 1.69 1.64v4.58c0 0.61-0.22 1.64-1.69 1.64zm-0.63999-1.51c0.04 0.01 0.1 0.01 0.18 0.01h0.47c0.08 0 0.13999 0 0.17999-0.01 0-0.03 0.01001-0.07 0.01001-0.13v-4.58c0-0.06-1e-5 -0.1-0.01001-0.13-0.04-0.01-0.09999-0.01-0.17999-0.01h-0.47c-0.08 0-0.14 0-0.18 0.01 0 0.03-0.01001 0.07-0.01001 0.13v4.58c0 0.06 1e-5 0.1 0.01001 0.13z"/>
</svg>
