<?xml version="1.0" encoding="UTF-8"?>
<svg width="24" height="24" viewBox="0 0 24 24" xmlns="http://www.w3.org/2000/svg">
 <path d="m14.23 16.11h-1.98c-0.46 0-1.13-0.14-1.52-0.53l-1.54-1.19 0.92001-1.19 1.61 1.25c0.12 0.09 0.34 0.15 0.53 0.15h1.98c0.3 0 0.66-0.26 0.73-0.52l1.26-3.85c0.03-0.08 0.06-0.19 0.01-0.27001-0.04-0.06-0.15-0.09998-0.28-0.09998h-2.08c-0.37 0-0.72-0.15994-0.97-0.43994-0.24-0.28-0.35-0.66004-0.3-1.04l0.26-1.67c0.03-0.13-0.06-0.27995-0.17-0.31995-0.09-0.03-0.24 0.01995-0.28 0.06995l-2.13 3.17-1.25-0.83997 2.13-3.17c0.42-0.63 1.31-0.92002 2.03-0.65002 0.81 0.27 1.33 1.17 1.15 2.01l-0.21 1.37h1.82c0.63 0 1.18 0.26999 1.51 0.73999 0.32 0.46 0.39 1.05 0.19 1.62l-1.24 3.78c-0.23 0.89-1.19 1.62-2.18 1.62z"/>
 <path d="m8.56 15.54h-0.52001c-1.56 0-1.79-1.09-1.79-1.74v-5.0901c0-0.65 0.22999-1.74 1.79-1.74h0.52001c1.56 0 1.79 1.09 1.79 1.74v5.0901c0 0.65-0.23 1.74-1.79 1.74zm-0.78-1.51c0.03 0 0.10999 0.01 0.25999 0.01h0.52001c0.16 0 0.25-0.02 0.28-0.03 0-0.02 0.01001-0.08 0.01001-0.21v-5.0901c0-0.13-0.01001-0.19997-0.02001-0.21997-0.02 0-0.1-0.01001-0.27-0.01001h-0.52001c-0.16 0-0.25 0.02003-0.28 0.03003 0 0.02-0.00999 0.07996-0.00999 0.20996v5.0901c0 0.13 0.01 0.2 0.02 0.23 0-0.01 0.01-0.01 0.01-0.01z"/>
 <path d="m12 22.75c-0.7 0-1.41-0.2701-1.94-0.8001l-1.71-1.6899c-0.43-0.42-0.99002-0.6501-1.59-0.6501h-0.75999c-2.07 0-3.75-1.6699-3.75-3.7199v-10.91c0-2.05 1.68-3.72 3.75-3.72h12c2.07 0 3.75 1.67 3.75 3.72v10.91c0 2.05-1.68 3.7199-3.75 3.7199h-0.76c-0.6 0-1.17 0.2301-1.59 0.6501l-1.71 1.6899c-0.53 0.53-1.24 0.8001-1.94 0.8001zm-6-20c-1.24 0-2.25 0.99997-2.25 2.22v10.91c0 1.23 1.01 2.2199 2.25 2.2199h0.75999c1 0 1.94 0.39 2.65 1.09l1.71 1.6901c0.49 0.48 1.28 0.48 1.77 0l1.71-1.6901c0.71-0.7 1.65-1.09 2.65-1.09h0.75c1.24 0 2.25-0.9999 2.25-2.2199v-10.91c0-1.23-1.01-2.22-2.25-2.22h-12z"/>
</svg>
