<svg width="24" height="24" viewBox="0 0 24 24"  xmlns="http://www.w3.org/2000/svg">
<path opacity="0.4" d="M13.1499 15.3699C12.9299 15.0499 12.5399 14.8699 12.0899 14.8699H9.75991C9.60991 14.8699 9.45991 14.8099 9.36991 14.6899C9.26991 14.5699 9.22991 14.4199 9.24991 14.2499L9.53991 12.3899C9.65991 11.8399 9.28991 11.2099 8.73991 11.0199C8.21991 10.8299 7.61991 11.0899 7.36991 11.4599L4.97991 15.0099L4.90991 15.1299V20.1499L4.99991 20.2398L6.79991 21.6299C7.03991 21.8699 7.57991 21.9999 7.95991 21.9999H10.1699C10.9299 21.9999 11.6899 21.4298 11.8699 20.7298L13.2699 16.4798C13.4099 16.0698 13.3699 15.6799 13.1499 15.3699Z" />
<path d="M3.82 13.2998H3.24C2.36 13.2998 2 13.6398 2 14.4798V20.1898C2 21.0298 2.36 21.3698 3.24 21.3698H3.82C4.7 21.3698 5.06 21.0298 5.06 20.1898V14.4798C5.06 13.6398 4.7 13.2998 3.82 13.2998Z" />
<path opacity="0.4" d="M11.2 8.59998C11.42 8.91998 11.81 9.09998 12.26 9.09998H14.59C14.74 9.09998 14.89 9.16003 14.98 9.28003C15.08 9.40003 15.12 9.54997 15.1 9.71997L14.81 11.58C14.69 12.13 15.06 12.76 15.61 12.95C16.13 13.14 16.73 12.88 16.98 12.51L19.37 8.96002L19.44 8.84003V3.82001L19.35 3.72998L17.55 2.34003C17.31 2.10003 16.77 1.96997 16.39 1.96997H14.18C13.42 1.96997 12.66 2.53999 12.48 3.23999L11.08 7.48999C10.94 7.88999 10.98 8.28998 11.2 8.59998Z" />
<path d="M20.53 10.6701H21.11C21.99 10.6701 22.35 10.3301 22.35 9.49011V3.78015C22.35 2.94015 21.99 2.6001 21.11 2.6001H20.53C19.65 2.6001 19.29 2.94015 19.29 3.78015V9.49011C19.29 10.3301 19.65 10.6701 20.53 10.6701Z" />
</svg>
