<?xml version="1.0" encoding="UTF-8"?>
<svg width="24" height="24" viewBox="0 0 24 24" xmlns="http://www.w3.org/2000/svg">
 <path d="m9.9498 22.75h-2.17c-0.39 0-1.17-0.12-1.62-0.56l-1.7-1.3099 0.91999-1.1901 1.77 1.3701c0.13 0.11 0.4 0.1899 0.63 0.1899h2.17c0.37002 0 0.79002-0.31 0.87002-0.63l1.39-4.2299c0.04-0.1 0.07-0.25 0-0.36-0.06-0.09-0.2-0.14-0.37-0.14h-2.29c-0.39 0-0.75-0.17-1.01-0.46-0.26-0.3-0.37-0.6801-0.31-1.0901l0.28999-1.84c0.04-0.17-0.07999-0.38-0.23999-0.43-0.13-0.05-0.35001 0.0401-0.40001 0.1101l-2.35 3.49-1.25-0.8401 2.34-3.49c0.44-0.66 1.4-0.9599 2.14-0.6799 0.85 0.28 1.41 1.24 1.21 2.12l-0.25 1.6h2.09c0.67 0 1.25 0.28 1.6 0.78 0.34 0.48 0.41 1.1099 0.19 1.7099l-1.37 4.1601c-0.2 0.94-1.22 1.7199-2.28 1.7199z"/>
 <path d="m3.7198 22.12h-0.56999c-1.56 0-1.89-1-1.89-1.84v-5.6c0-0.84 0.33-1.8401 1.89-1.8401h0.56999c1.56 0 1.89 1.0001 1.89 1.8401v5.6c0 0.84-0.33 1.84-1.89 1.84zm-0.93-1.5401c0.01 0 0.11 0.0401 0.35 0.0401h0.57c0.26 0 0.35001-0.0401 0.37001-0.0501 0-0.01 0.02999-0.0799 0.02999-0.2899v-5.6c0-0.21-0.03-0.29-0.04-0.3 0 0.02-0.1-0.0401-0.35-0.0401h-0.56999c-0.26 0-0.35001 0.0401-0.37001 0.0501 0 0.01-0.03 0.08-0.03 0.29v5.6c0 0.21 0.03 0.2899 0.04 0.2999z"/>
 <path d="m15.81 13.44c-0.2 0-0.4-0.0299-0.59-0.0999-0.85-0.28-1.41-1.24-1.21-2.12l0.25-1.6h-2.09c-0.67 0-1.25-0.28003-1.6-0.78003-0.34-0.48-0.41-1.11-0.19-1.71l1.37-4.16c0.23-0.94 1.26-1.72 2.31-1.72h2.17c0.39 0 1.17 0.12006 1.62 0.56006l1.7 1.3099-0.92 1.1901-1.77-1.3701c-0.13-0.11-0.4-0.18994-0.63-0.18994h-2.17c-0.37 0-0.79 0.31-0.87 0.63l-1.39 4.23c-0.04 0.1-0.07 0.24998 0 0.35998 0.06 0.09 0.2 0.14002 0.37 0.14002h2.29c0.39 0 0.75 0.16996 1.01 0.45996 0.26 0.3 0.37 0.68008 0.31 1.0901l-0.29 1.84c-0.04 0.17 0.08 0.3801 0.24 0.4301 0.14 0.05 0.35-0.0302 0.4-0.1102l2.35-3.4899 1.25 0.84008-2.34 3.49c-0.36 0.48-0.98 0.7799-1.58 0.7799z"/>
 <path d="m20.86 11.16h-0.57c-1.56 0-1.89-1.0001-1.89-1.8401v-5.6c0-0.84 0.33-1.84 1.89-1.84h0.57c1.56 0 1.89 0.99997 1.89 1.84v5.6c0 0.83998-0.33 1.8401-1.89 1.8401zm-0.93-1.54c0.01 0 0.11 0.04004 0.35 0.04004h0.57c0.26 0 0.35-0.04005 0.37-0.05005 0-0.01 0.03-0.08004 0.03-0.29004v-5.6c0-0.21-0.03-0.27993-0.04-0.29993 0.01 0.04-0.1-0.04004-0.35-0.04004h-0.57c-0.26 0-0.35 0.04005-0.37 0.05005 0 0.01-0.03 0.07992-0.03 0.28992v5.6c0 0.21 0.03 0.28005 0.04 0.30005z"/>
</svg>
