<?xml version="1.0" encoding="UTF-8"?>
<svg width="24" height="24" viewBox="0 0 24 24" xmlns="http://www.w3.org/2000/svg">
 <path d="m7.75 18.5c-3.58 0-6.5-2.92-6.5-6.5s2.92-6.5 6.5-6.5c0.41 0 0.75 0.34 0.75 0.75s-0.34 0.75-0.75 0.75c-2.76 0-5 2.24-5 5s2.24 5 5 5 5-2.24 5-5c0-0.41 0.34-0.75 0.75-0.75s0.75 0.34 0.75 0.75c0 3.58-2.92 6.5-6.5 6.5z"/>
 <path d="m16 18.75c-0.41 0-0.75-0.34-0.75-0.75s0.34-0.75 0.75-0.75c2.89 0 5.25-2.36 5.25-5.25s-2.36-5.25-5.25-5.25-5.25 2.36-5.25 5.25c0 0.41-0.34 0.75-0.75 0.75s-0.75-0.34-0.75-0.75c0-3.72 3.03-6.75 6.75-6.75s6.75 3.03 6.75 6.75-3.03 6.75-6.75 6.75z"/>
</svg>
