<svg width="24" height="24" viewBox="0 0 24 24"  xmlns="http://www.w3.org/2000/svg">
<path d="M19.07 14.2401C18.78 14.5301 18.32 14.5301 18.04 14.2401C17.75 13.9501 17.75 13.4901 18.04 13.2101C20.04 11.2101 20.04 7.9601 18.04 5.9701C16.04 3.9801 12.79 3.9701 10.8 5.9701C8.81003 7.9701 8.80003 11.2201 10.8 13.2101C11.09 13.5001 11.09 13.9601 10.8 14.2401C10.51 14.5301 10.05 14.5301 9.77003 14.2401C7.20003 11.6701 7.20003 7.4901 9.77003 4.9301C12.34 2.3701 16.52 2.3601 19.08 4.9301C21.64 7.5001 21.64 11.6701 19.07 14.2401Z" />
<path opacity="0.4" d="M19.07 4.92994C21.64 7.49994 21.64 11.6699 19.07 14.2399C18.19 15.1199 17.11 15.6999 15.98 15.9799C16.51 13.8199 15.93 11.4499 14.24 9.75994C12.55 8.06994 10.18 7.48994 8.02002 8.01994C8.30002 6.88994 8.87002 5.80994 9.76002 4.92994C12.33 2.35994 16.5 2.35994 19.07 4.92994Z" />
<path d="M4.92997 9.75998C5.21997 9.46998 5.67997 9.46998 5.95997 9.75998C6.24997 10.05 6.24997 10.51 5.95997 10.79C3.95997 12.79 3.95997 16.04 5.95997 18.03C7.95997 20.02 11.21 20.03 13.2 18.03C15.19 16.03 15.2 12.78 13.2 10.79C12.91 10.5 12.91 10.04 13.2 9.75998C13.49 9.46998 13.95 9.46998 14.23 9.75998C16.8 12.33 16.8 16.51 14.23 19.07C11.66 21.63 7.47997 21.64 4.91997 19.07C2.35997 16.5 2.35997 12.33 4.92997 9.75998Z" />
<path opacity="0.5" d="M14.2399 9.75988C15.9299 11.4499 16.5099 13.8199 15.9799 15.9799C15.6999 17.1099 15.1199 18.1899 14.2399 19.0699C11.6699 21.6399 7.49994 21.6399 4.92994 19.0699C2.35994 16.4999 2.35994 12.3299 4.92994 9.75988C5.80994 8.86988 6.88994 8.29988 8.01994 8.01988C10.1799 7.48988 12.5499 8.06988 14.2399 9.75988Z" />
</svg>
