<svg width="24" height="24" viewBox="0 0 24 24"  xmlns="http://www.w3.org/2000/svg">
<path d="M8.99018 21.5002C7.33018 21.5002 5.66018 20.8702 4.39018 19.6002C1.86018 17.0602 1.86018 12.9402 4.39018 10.4102C4.68018 10.1202 5.16018 10.1202 5.45018 10.4102C5.74018 10.7002 5.74018 11.1802 5.45018 11.4702C3.50018 13.4202 3.50018 16.5902 5.45018 18.5402C7.40018 20.4902 10.5702 20.4902 12.5202 18.5402C13.4602 17.6002 13.9802 16.3402 13.9802 15.0002C13.9802 13.6702 13.4602 12.4102 12.5202 11.4602C12.2302 11.1702 12.2302 10.6902 12.5202 10.4002C12.8102 10.1102 13.2902 10.1102 13.5802 10.4002C14.8102 11.6302 15.4802 13.2602 15.4802 15.0002C15.4802 16.7402 14.8002 18.3702 13.5802 19.6002C12.3202 20.8702 10.6602 21.5002 8.99018 21.5002Z" />
<path d="M19.0702 14.1602C18.8802 14.1602 18.6902 14.0902 18.5402 13.9402C18.2502 13.6502 18.2502 13.1702 18.5402 12.8802C20.5902 10.8302 20.5902 7.50023 18.5402 5.46023C16.4902 3.41023 13.1602 3.41023 11.1202 5.46023C10.1302 6.45023 9.58018 7.77023 9.58018 9.17023C9.58018 10.5702 10.1302 11.8902 11.1202 12.8802C11.4102 13.1702 11.4102 13.6502 11.1202 13.9402C10.8302 14.2302 10.3502 14.2302 10.0602 13.9402C8.79018 12.6702 8.08018 10.9702 8.08018 9.17023C8.08018 7.37023 8.78018 5.67023 10.0602 4.40023C12.6902 1.77023 16.9702 1.77023 19.6102 4.40023C22.2402 7.03023 22.2402 11.3202 19.6102 13.9502C19.4602 14.0902 19.2602 14.1602 19.0702 14.1602Z" />
</svg>
