<?xml version="1.0" encoding="UTF-8"?>
<svg width="24" height="24" viewBox="0 0 24 24" xmlns="http://www.w3.org/2000/svg">
 <path d="m16.5 18.25h-1.51c-0.41 0-0.75-0.34-0.75-0.75s0.34-0.75 0.75-0.75h1.51c2.62 0 4.75-2.13 4.75-4.75s-2.13-4.75-4.75-4.75h-1.5c-0.41 0-0.75-0.34-0.75-0.75s0.33-0.75 0.75-0.75h1.5c3.45 0 6.25 2.8 6.25 6.25s-2.8 6.25-6.25 6.25z"/>
 <path d="m9 18.25h-1.5c-3.45 0-6.25-2.8-6.25-6.25s2.8-6.25 6.25-6.25h1.5c0.41 0 0.75 0.34 0.75 0.75s-0.34 0.75-0.75 0.75h-1.5c-2.62 0-4.75 2.13-4.75 4.75s2.13 4.75 4.75 4.75h1.5c0.41 0 0.75 0.34 0.75 0.75s-0.34 0.75-0.75 0.75z"/>
 <path d="m16 12.75h-8c-0.41 0-0.75-0.34-0.75-0.75s0.34-0.75 0.75-0.75h8c0.41 0 0.75 0.34 0.75 0.75s-0.34 0.75-0.75 0.75z"/>
</svg>
