<?xml version="1.0" encoding="UTF-8"?>
<svg width="24" height="24" viewBox="0 0 24 24" xmlns="http://www.w3.org/2000/svg">
 <path d="m7.9397 15.26c-0.09 0-0.17001-0.01-0.26001-0.05-0.81-0.3-1.49-0.89-1.92-1.66-1-1.8-0.37999-4.15 1.37-5.24l2.34-1.45c0.85996-0.53 1.87-0.68997 2.83-0.43997s1.77 0.87998 2.26 1.76c1 1.8 0.38 4.15-1.37 5.24l-0.26 0.19c-0.34 0.24-0.81 0.16-1.05-0.17-0.24-0.34-0.16-0.81 0.17-1.05l0.31-0.22c1.12-0.7 1.5-2.15 0.89-3.26-0.29-0.52-0.76-0.89001-1.32-1.04s-1.15-0.04999-1.66 0.26001l-2.34 1.45c-1.08 0.66999-1.46 2.12-0.84999 3.24 0.25 0.45 0.65 0.8 1.13 0.98 0.39 0.14 0.58999 0.57 0.43999 0.96-0.11 0.31-0.39999 0.5-0.70999 0.5z"/>
 <path d="m12.66 17.65c-0.3 0-0.61-0.04-0.91-0.12-0.96-0.25-1.77-0.88-2.25-1.76-1-1.8-0.38001-4.15 1.37-5.24l0.26-0.19c0.34-0.24 0.81-0.16 1.05 0.17 0.24 0.34 0.16 0.81-0.17 1.05l-0.31 0.22c-1.12 0.7-1.5 2.15-0.89 3.26 0.29 0.52 0.76 0.89 1.32 1.04s1.15 0.05 1.66-0.26l2.34-1.45c1.08-0.67 1.46-2.12 0.85-3.24-0.25-0.45-0.65-0.8-1.13-0.98-0.39-0.14-0.59-0.57001-0.44-0.96001 0.14-0.39 0.57-0.59 0.96-0.44 0.81 0.3 1.49 0.89 1.92 1.66 1 1.8 0.38 4.15-1.37 5.24l-2.34 1.45c-0.59 0.36-1.25 0.55-1.92 0.55z"/>
 <path d="m12 22.75c-5.93 0-10.75-4.82-10.75-10.75s4.82-10.75 10.75-10.75 10.75 4.82 10.75 10.75-4.82 10.75-10.75 10.75zm0-20c-5.1 0-9.25 4.15-9.25 9.25s4.15 9.25 9.25 9.25 9.25-4.15 9.25-9.25-4.15-9.25-9.25-9.25z"/>
</svg>
