<?xml version="1.0" encoding="UTF-8"?>
<svg width="24" height="24" viewBox="0 0 24 24" xmlns="http://www.w3.org/2000/svg">
 <path d="m8.9902 21.5c-1.66 0-3.33-0.63-4.6-1.9-2.53-2.54-2.53-6.66 0-9.19 0.29-0.29 0.77-0.29 1.06 0s0.29 0.77 0 1.06c-1.95 1.95-1.95 5.12 0 7.07s5.12 1.95 7.07 0c0.94-0.94 1.46-2.2 1.46-3.54 0-1.33-0.52-2.59-1.46-3.54-0.29-0.29-0.29-0.77 0-1.06s0.77-0.29 1.06 0c1.23 1.23 1.9 2.86 1.9 4.6s-0.68 3.37-1.9 4.6c-1.26 1.27-2.92 1.9-4.59 1.9z"/>
 <path d="m19.07 14.16c-0.19 0-0.38-0.07-0.53-0.22-0.29-0.29-0.29-0.77 0-1.06 2.05-2.05 2.05-5.38 0-7.42-2.05-2.05-5.38-2.05-7.42 0-0.99 0.99-1.54 2.31-1.54 3.71 0 1.4 0.55002 2.72 1.54 3.71 0.29 0.29 0.29 0.77 0 1.06s-0.77 0.29-1.06 0c-1.27-1.27-1.98-2.97-1.98-4.77 0-1.8 0.7-3.5 1.98-4.77 2.63-2.63 6.91-2.63 9.55 0 2.63 2.63 2.63 6.92 0 9.55-0.15 0.14-0.35 0.21-0.54 0.21z"/>
</svg>
