<svg width="24" height="24" viewBox="0 0 24 24"  xmlns="http://www.w3.org/2000/svg">
<path opacity="0.4" d="M10.9999 7.5V16.5C10.9999 17.05 10.5499 17.5 9.99989 17.5H7.49989C5.97989 17.5 4.60989 16.88 3.60989 15.89C2.66989 14.94 2.05989 13.65 1.99989 12.22C1.87989 9.08 4.61989 6.5 7.76989 6.5H9.99989C10.5499 6.5 10.9999 6.95 10.9999 7.5Z" />
<path opacity="0.4" d="M22 11.78C22.13 14.93 19.39 17.5 16.24 17.5H14.01C13.46 17.5 13.01 17.05 13.01 16.5V7.5C13.01 6.95 13.46 6.5 14.01 6.5H16.51C18.03 6.5 19.4 7.12 20.4 8.11C21.33 9.06 21.94 10.35 22 11.78Z" />
<path d="M16 12.75H8C7.59 12.75 7.25 12.41 7.25 12C7.25 11.59 7.59 11.25 8 11.25H16C16.41 11.25 16.75 11.59 16.75 12C16.75 12.41 16.41 12.75 16 12.75Z" />
</svg>
