<svg width="24" height="24" viewBox="0 0 24 24"  xmlns="http://www.w3.org/2000/svg">
<path opacity="0.4" d="M12 22C17.5228 22 22 17.5228 22 12C22 6.47715 17.5228 2 12 2C6.47715 2 2 6.47715 2 12C2 17.5228 6.47715 22 12 22Z" />
<path d="M7.93998 15.2602C7.84998 15.2602 7.76997 15.2502 7.67997 15.2102C6.86997 14.9102 6.18998 14.3202 5.75998 13.5502C4.75998 11.7502 5.37999 9.40017 7.12999 8.31017L9.46998 6.86015C10.33 6.33015 11.34 6.17018 12.3 6.42018C13.26 6.67018 14.07 7.30016 14.56 8.18016C15.56 9.98016 14.94 12.3302 13.19 13.4202L12.93 13.6102C12.59 13.8502 12.12 13.7702 11.88 13.4402C11.64 13.1002 11.72 12.6302 12.05 12.3902L12.36 12.1702C13.48 11.4702 13.86 10.0202 13.25 8.91017C12.96 8.39017 12.49 8.02016 11.93 7.87016C11.37 7.72016 10.78 7.81017 10.27 8.13017L7.92997 9.58016C6.84997 10.2502 6.46998 11.7002 7.07998 12.8202C7.32998 13.2702 7.72999 13.6202 8.20999 13.8002C8.59999 13.9402 8.79998 14.3702 8.64998 14.7602C8.53998 15.0702 8.24998 15.2602 7.93998 15.2602Z" />
<path d="M12.66 17.6501C12.36 17.6501 12.05 17.6101 11.75 17.5301C10.79 17.2801 9.97997 16.6501 9.49997 15.7701C8.49997 13.9701 9.11996 11.6201 10.87 10.5301L11.13 10.3401C11.47 10.1001 11.94 10.1801 12.18 10.5101C12.42 10.8501 12.34 11.3201 12.01 11.5601L11.7 11.7801C10.58 12.4801 10.2 13.9301 10.81 15.0401C11.1 15.5601 11.57 15.9301 12.13 16.0801C12.69 16.2301 13.28 16.1401 13.79 15.8201L16.13 14.3701C17.21 13.7001 17.59 12.2501 16.98 11.1301C16.73 10.6801 16.33 10.3301 15.85 10.1501C15.46 10.0101 15.26 9.58011 15.41 9.19011C15.55 8.80011 15.99 8.60011 16.37 8.75011C17.18 9.05011 17.86 9.64012 18.29 10.4101C19.29 12.2101 18.67 14.5601 16.92 15.6501L14.58 17.1001C13.99 17.4601 13.33 17.6501 12.66 17.6501Z" />
</svg>
