<svg width="24" height="24" viewBox="0 0 24 24"  xmlns="http://www.w3.org/2000/svg">
<path opacity="0.4" d="M12 22C17.5228 22 22 17.5228 22 12C22 6.47715 17.5228 2 12 2C6.47715 2 2 6.47715 2 12C2 17.5228 6.47715 22 12 22Z" />
<path d="M12.7799 6.36035C13.4399 6.36035 13.9199 6.98035 13.7499 7.62035L11.9599 14.3004H14.9899C15.6099 14.3004 16.0899 14.8604 15.9699 15.4804L15.8199 16.3204C15.7299 16.8004 15.3199 17.1404 14.8399 17.1404H9.29989C8.63989 17.1404 8.15989 16.5004 8.33989 15.8704L10.9499 6.73035C11.0099 6.52035 11.2099 6.37035 11.4299 6.37035H12.7799V6.36035Z" />
<path d="M7.32014 13.2698C6.97014 13.2698 6.66013 13.0198 6.59013 12.6698C6.51013 12.2598 6.77012 11.8698 7.18012 11.7898L14.8801 10.2498C15.2801 10.1698 15.6801 10.4298 15.7601 10.8398C15.8401 11.2498 15.5801 11.6398 15.1701 11.7198L7.47013 13.2598C7.42013 13.2698 7.37014 13.2698 7.32014 13.2698Z" />
</svg>
