<?xml version="1.0" encoding="UTF-8"?>
<svg width="24" height="24" viewBox="0 0 24 24" xmlns="http://www.w3.org/2000/svg">
 <path d="m15.67 17.889h-7.7c-0.24 0-0.46001-0.11-0.60001-0.3s-0.19-0.43-0.12-0.66l3.08-10.78c0.09-0.32 0.39-0.54 0.72-0.54h3.04c0.23 0 0.45 0.11 0.6 0.29 0.14 0.19 0.19 0.43 0.13 0.65l-1.87 7h3.25c0.22 0 0.43 0.1 0.58 0.27 0.14 0.17 0.2 0.4 0.16 0.61l-0.51 2.84c-0.09 0.36-0.4 0.62-0.76 0.62zm-6.71-1.5h6.08l0.24-1.34h-3.32c-0.23 0-0.4501-0.11-0.6001-0.29-0.14-0.19-0.1899-0.43-0.1299-0.65l1.87-7h-1.5l-2.64 9.28z"/>
 <path d="m7.3201 13.271c-0.35 0-0.66001-0.25-0.73001-0.6-0.08-0.41 0.17999-0.8 0.58999-0.88l7.7-1.54c0.4-0.08 0.8 0.18 0.88 0.59s-0.18 0.8-0.59 0.88l-7.7 1.54c-0.05 0.01-0.09999 0.01-0.14999 0.01z"/>
 <path d="m12 22.75c-5.93 0-10.75-4.82-10.75-10.75s4.82-10.75 10.75-10.75 10.75 4.82 10.75 10.75-4.82 10.75-10.75 10.75zm0-20c-5.1 0-9.25 4.15-9.25 9.25s4.15 9.25 9.25 9.25 9.25-4.15 9.25-9.25-4.15-9.25-9.25-9.25z"/>
</svg>
