<svg width="24" height="24" viewBox="0 0 24 24"  xmlns="http://www.w3.org/2000/svg">
<path d="M14.7502 11.75H9.25018C8.84018 11.75 8.50018 11.41 8.50018 11C8.50018 10.59 8.84018 10.25 9.25018 10.25H14.7502C15.1602 10.25 15.5002 10.59 15.5002 11C15.5002 11.41 15.1602 11.75 14.7502 11.75Z" />
<path d="M12.0002 14.5C11.5902 14.5 11.2502 14.16 11.2502 13.75V8.25C11.2502 7.84 11.5902 7.5 12.0002 7.5C12.4102 7.5 12.7502 7.84 12.7502 8.25V13.75C12.7502 14.16 12.4102 14.5 12.0002 14.5Z" />
<path d="M12.0002 22.76C10.5202 22.76 9.03018 22.2 7.87018 21.09C4.92018 18.25 1.66018 13.72 2.89018 8.33C4.00018 3.44 8.27018 1.25 12.0002 1.25C12.0002 1.25 12.0002 1.25 12.0102 1.25C15.7402 1.25 20.0102 3.44 21.1202 8.34C22.3402 13.73 19.0802 18.25 16.1302 21.09C14.9702 22.2 13.4802 22.76 12.0002 22.76ZM12.0002 2.75C9.09018 2.75 5.35018 4.3 4.36018 8.66C3.28018 13.37 6.24018 17.43 8.92018 20C10.6502 21.67 13.3602 21.67 15.0902 20C17.7602 17.43 20.7202 13.37 19.6602 8.66C18.6602 4.3 14.9102 2.75 12.0002 2.75Z" />
</svg>
