<?xml version="1.0" encoding="UTF-8"?>
<svg width="24" height="24" viewBox="0 0 24 24" xmlns="http://www.w3.org/2000/svg">
 <path d="m12 22.76c-1.48 0-2.97-0.56-4.13-1.67-2.95-2.84-6.21-7.37-4.98-12.76 1.11-4.89 5.38-7.08 9.11-7.08h0.01c3.73 0 8 2.19 9.11 7.09 1.22 5.39-2.04 9.91-4.99 12.75-1.16 1.11-2.65 1.67-4.13 1.67zm0-20.01c-2.91 0-6.65 1.55-7.64 5.91-1.08 4.71 1.88 8.77 4.56 11.34 1.73 1.67 4.44 1.67 6.17 0 2.67-2.57 5.63-6.63 4.57-11.34-1-4.36-4.75-5.91-7.66-5.91z"/>
 <path d="m14 13.71c-0.19 0-0.38-0.07-0.53-0.22l-3.96-3.96c-0.29-0.29-0.29-0.77 0-1.06s0.77002-0.29 1.06 0l3.96 3.96c0.29 0.29 0.29 0.77 0 1.06-0.15 0.14-0.34 0.22-0.53 0.22z"/>
 <path d="m9.9999 13.75c-0.19 0-0.38-0.07-0.53-0.22-0.29-0.29-0.29-0.77 0-1.06l3.96-3.96c0.29-0.29 0.77-0.29 1.06 0s0.29 0.77 0 1.06l-3.96 3.96c-0.15 0.15-0.34 0.22-0.52996 0.22z"/>
</svg>
