<svg width="24" height="24" viewBox="0 0 24 24"  xmlns="http://www.w3.org/2000/svg">
<path d="M12.0002 22.76C10.5202 22.76 9.03018 22.2 7.87018 21.09C4.92018 18.25 1.66018 13.72 2.89018 8.33C4.00018 3.44 8.27018 1.25 12.0002 1.25C12.0002 1.25 12.0002 1.25 12.0102 1.25C15.7402 1.25 20.0102 3.44 21.1202 8.34C22.3402 13.73 19.0802 18.25 16.1302 21.09C14.9702 22.2 13.4802 22.76 12.0002 22.76ZM12.0002 2.75C9.09018 2.75 5.35018 4.3 4.36018 8.66C3.28018 13.37 6.24018 17.43 8.92018 20C10.6502 21.67 13.3602 21.67 15.0902 20C17.7602 17.43 20.7202 13.37 19.6602 8.66C18.6602 4.3 14.9102 2.75 12.0002 2.75Z" />
<path d="M10.7499 13.7499C10.5599 13.7499 10.3699 13.6799 10.2199 13.5299L8.71994 12.0299C8.42994 11.7399 8.42994 11.2599 8.71994 10.9699C9.00994 10.6799 9.48994 10.6799 9.77994 10.9699L10.7499 11.9399L14.2199 8.46994C14.5099 8.17994 14.9899 8.17994 15.2799 8.46994C15.5699 8.75994 15.5699 9.23994 15.2799 9.52994L11.2799 13.5299C11.1299 13.6799 10.9399 13.7499 10.7499 13.7499Z" />
</svg>
