<svg width="24" height="24" viewBox="0 0 24 24"  xmlns="http://www.w3.org/2000/svg">
<path d="M12.0002 14.17C9.87018 14.17 8.13018 12.44 8.13018 10.3C8.13018 8.16 9.87018 6.44 12.0002 6.44C14.1302 6.44 15.8702 8.17 15.8702 10.31C15.8702 12.45 14.1302 14.17 12.0002 14.17ZM12.0002 7.94C10.7002 7.94 9.63018 9 9.63018 10.31C9.63018 11.62 10.6902 12.68 12.0002 12.68C13.3102 12.68 14.3702 11.62 14.3702 10.31C14.3702 9 13.3002 7.94 12.0002 7.94Z" />
<path d="M12.0002 22.76C10.5202 22.76 9.03018 22.2 7.87018 21.09C4.92018 18.25 1.66018 13.72 2.89018 8.33C4.00018 3.44 8.27018 1.25 12.0002 1.25C12.0002 1.25 12.0002 1.25 12.0102 1.25C15.7402 1.25 20.0102 3.44 21.1202 8.34C22.3402 13.73 19.0802 18.25 16.1302 21.09C14.9702 22.2 13.4802 22.76 12.0002 22.76ZM12.0002 2.75C9.09018 2.75 5.35018 4.3 4.36018 8.66C3.28018 13.37 6.24018 17.43 8.92018 20C10.6502 21.67 13.3602 21.67 15.0902 20C17.7602 17.43 20.7202 13.37 19.6602 8.66C18.6602 4.3 14.9102 2.75 12.0002 2.75Z" />
</svg>
