<svg width="24" height="24" viewBox="0 0 24 24"  xmlns="http://www.w3.org/2000/svg">
<path d="M14.5299 12.4202L13.0799 10.9702L14.4799 9.57018C14.7699 9.28018 14.7699 8.80018 14.4799 8.51018C14.1899 8.22018 13.7099 8.22018 13.4199 8.51018L12.0199 9.91018L10.5699 8.46018C10.2799 8.17018 9.79994 8.17018 9.50994 8.46018C9.21994 8.75018 9.21994 9.23018 9.50994 9.52018L10.9599 10.9702L9.46994 12.4602C9.17994 12.7502 9.17994 13.2302 9.46994 13.5202C9.61994 13.6702 9.80994 13.7402 9.99994 13.7402C10.1899 13.7402 10.3799 13.6702 10.5299 13.5202L12.0199 12.0302L13.4699 13.4802C13.6199 13.6302 13.8099 13.7002 13.9999 13.7002C14.1899 13.7002 14.3799 13.6302 14.5299 13.4802C14.8199 13.1902 14.8199 12.7202 14.5299 12.4202Z" />
<path opacity="0.4" d="M20.62 8.7C19.58 4.07 15.54 2 12 2C12 2 12 2 11.99 2C8.45999 2 4.42999 4.07 3.37999 8.69C2.19999 13.85 5.35999 18.22 8.21999 20.98C9.27999 22 10.64 22.51 12 22.51C13.36 22.51 14.72 22 15.77 20.98C18.63 18.22 21.79 13.86 20.62 8.7Z" />
</svg>
