<svg width="24" height="24" viewBox="0 0 24 24"  xmlns="http://www.w3.org/2000/svg">
<path d="M12.0002 22.76C10.5202 22.76 9.03018 22.2 7.87018 21.09C4.92018 18.25 1.66018 13.72 2.89018 8.33C4.00018 3.44 8.27018 1.25 12.0002 1.25C12.0002 1.25 12.0002 1.25 12.0102 1.25C15.7402 1.25 20.0102 3.44 21.1202 8.34C22.3402 13.73 19.0802 18.25 16.1302 21.09C14.9702 22.2 13.4802 22.76 12.0002 22.76ZM12.0002 2.75C9.09018 2.75 5.35018 4.3 4.36018 8.66C3.28018 13.37 6.24018 17.43 8.92018 20C10.6502 21.67 13.3602 21.67 15.0902 20C17.7602 17.43 20.7202 13.37 19.6602 8.66C18.6602 4.3 14.9102 2.75 12.0002 2.75Z" />
<path d="M14 13.7099C13.81 13.7099 13.62 13.6399 13.47 13.4899L9.50998 9.52994C9.21998 9.23994 9.21998 8.75994 9.50998 8.46994C9.79998 8.17994 10.28 8.17994 10.57 8.46994L14.53 12.4299C14.82 12.7199 14.82 13.1999 14.53 13.4899C14.38 13.6299 14.19 13.7099 14 13.7099Z" />
<path d="M9.99994 13.75C9.80994 13.75 9.61994 13.68 9.46994 13.53C9.17994 13.24 9.17994 12.76 9.46994 12.47L13.4299 8.50998C13.7199 8.21998 14.1999 8.21998 14.4899 8.50998C14.7799 8.79998 14.7799 9.27998 14.4899 9.56998L10.5299 13.53C10.3799 13.68 10.1899 13.75 9.99994 13.75Z" />
</svg>
