<?xml version="1.0" encoding="UTF-8"?>
<svg width="24" height="24" viewBox="0 0 24 24" xmlns="http://www.w3.org/2000/svg">
 <path d="m10.42 13.75c-0.13 0-0.26-0.03-0.38-0.1-1.18-0.69-1.91-1.97-1.91-3.33 0-2.13 1.73-3.87 3.87-3.87 1.37 0 2.65 0.73 3.34 1.92 0.21 0.36 0.09 0.82-0.27 1.03s-0.82 0.09-1.03-0.27c-0.42-0.74-1.2-1.19-2.04-1.19-1.3 0-2.37 1.06-2.37 2.37 0 0.84 0.45002 1.62 1.17 2.04 0.36 0.21 0.48 0.67 0.27 1.03-0.14 0.23-0.39 0.37-0.65 0.37z"/>
 <path d="m5.9902 18.56c-0.23 0-0.46-0.11-0.61-0.31-2.4-3.29-3.24-6.63-2.49-9.93 0.78-3.43 3.3-5.97 6.74-6.8 3.6-0.87 7.38 0.3 9.61 2.97 0.27 0.32 0.22 0.79-0.09 1.06-0.32 0.27-0.79 0.22-1.06-0.1-1.87-2.24-5.05-3.21-8.11-2.48-2.92 0.7-4.97 2.77-5.63 5.67-0.65 2.86 0.1 5.79 2.24 8.71 0.24 0.33 0.17 0.8-0.16 1.05-0.13 0.11-0.29 0.16-0.44 0.16z"/>
 <path d="m12 22.76c-1.48 0-2.97-0.56-4.13-1.67-0.3-0.29-0.31-0.76-0.02-1.06s0.76-0.31 1.06-0.02c1.73 1.67 4.44 1.67 6.17 0 2.67-2.57 5.63-6.63 4.57-11.34-0.09-0.4 0.16-0.81 0.57-0.9 0.4-0.09 0.81 0.16 0.9 0.57 1.22 5.39-2.04 9.91-4.99 12.75-1.16 1.11-2.65 1.67-4.13 1.67z"/>
 <path d="m1.9999 22.75c-0.19 0-0.38-0.07-0.53-0.22-0.29-0.29-0.29-0.77 0-1.06l20-20c0.29-0.29 0.77-0.29 1.06 0s0.29 0.77 0 1.06l-20 20c-0.15 0.15-0.34 0.22-0.53 0.22z"/>
</svg>
