<?xml version="1.0" encoding="UTF-8"?>
<svg width="24" height="24" viewBox="0 0 24 24" xmlns="http://www.w3.org/2000/svg">
 <path d="m18 10.75c-0.41 0-0.75-0.34-0.75-0.75v-2c0-3.15-0.89-5.25-5.25-5.25s-5.25 2.1-5.25 5.25v2c0 0.41-0.34 0.75-0.75 0.75s-0.75-0.34-0.75-0.75v-2c0-2.9 0.7-6.75 6.75-6.75s6.75 3.85 6.75 6.75v2c0 0.41-0.34 0.75-0.75 0.75z"/>
 <path d="m17 22.75h-10c-4.41 0-5.75-1.34-5.75-5.75v-2c0-4.41 1.34-5.75 5.75-5.75h10c4.41 0 5.75 1.34 5.75 5.75v2c0 4.41-1.34 5.75-5.75 5.75zm-10-12c-3.58 0-4.25 0.68-4.25 4.25v2c0 3.57 0.67 4.25 4.25 4.25h10c3.58 0 4.25-0.68 4.25-4.25v-2c0-3.57-0.67-4.25-4.25-4.25h-10z"/>
 <path d="m8 17c-0.13 0-0.26-0.03-0.38-0.08-0.13-0.05-0.22999-0.12-0.32999-0.21-0.18-0.19-0.29001-0.44-0.29001-0.71 0-0.13 0.02999-0.26 0.07999-0.38 0.05-0.13 0.12002-0.23 0.21002-0.33 0.1-0.09 0.19999-0.16 0.32999-0.21 0.36-0.16 0.80999-0.07 1.09 0.21 0.09 0.1 0.16002 0.21 0.21002 0.33s0.07999 0.25 0.07999 0.38c0 0.26-0.11001 0.52-0.29001 0.71-0.19 0.18-0.44999 0.29-0.70999 0.29z"/>
 <path d="m12 17c-0.26 0-0.52-0.11-0.71-0.29-0.18-0.19-0.29-0.44-0.29-0.71 0-0.13 0.02-0.26 0.08-0.38 0.05-0.12 0.12-0.23 0.21-0.33 0.23-0.23 0.58-0.34 0.9-0.27 0.07 0.01 0.13 0.03 0.19 0.06 0.06 0.02 0.12 0.05 0.18 0.09 0.05 0.03 0.1 0.08 0.15 0.12 0.09 0.1 0.16 0.21 0.21 0.33s0.08 0.25 0.08 0.38c0 0.27-0.11 0.52-0.29 0.71l-0.15 0.12c-0.06 0.04-0.12 0.07-0.18 0.09-0.06 0.03-0.12 0.05-0.19 0.06-0.06 0.01-0.13 0.02-0.19 0.02z"/>
 <path d="m16 17c-0.27 0-0.52-0.11-0.71-0.29-0.09-0.1-0.16-0.21-0.21-0.33s-0.08-0.25-0.08-0.38c0-0.26 0.11-0.52 0.29-0.71l0.15-0.12c0.06-0.04 0.12-0.07 0.18-0.09 0.06-0.03 0.12-0.05 0.18-0.06 0.33-0.07 0.67 0.04 0.91 0.27 0.18 0.19 0.29 0.44 0.29 0.71 0 0.13-0.03 0.26-0.08 0.38-0.05 0.13-0.12 0.23-0.21 0.33-0.19 0.18-0.45 0.29-0.71 0.29z"/>
</svg>
