<?xml version="1.0" encoding="UTF-8"?>
<svg width="24" height="24" viewBox="0 0 24 24" xmlns="http://www.w3.org/2000/svg">
 <path d="m12 19.25c-1.02 0-1.96-0.46-2.58-1.27-0.25-0.33-0.19-0.8 0.14-1.05s0.80005-0.19 1.05 0.14c0.33 0.44 0.84 0.68 1.39 0.68 0.96 0 1.75-0.79 1.75-1.75 0-0.39-0.12-0.76-0.36-1.06-0.25-0.33-0.19-0.8 0.14-1.05s0.8-0.19 1.05 0.14c0.44 0.57 0.67 1.25 0.67 1.97 0 1.79-1.46 3.25-3.25 3.25z"/>
 <path d="m17 22.75h-10c-0.37 0-0.72-0.01-1.05-0.03-0.41-0.02-0.73-0.38-0.71-0.79s0.37-0.71 0.79-0.71c0.3 0.02 0.62 0.02 0.96 0.02h10c3.57 0 4.25-0.68 4.25-4.25v-2c0-3.51-0.74-4.08-3.29-4.23-0.3-0.02-0.62-0.02-0.96-0.02h-9.99c-3.57 0-4.25 0.68-4.25 4.25v2c0 1.74 0.2 2.77 0.66 3.33 0.26 0.32 0.21 0.8-0.12 1.05-0.32 0.26-0.79 0.21-1.05-0.12-0.7-0.85-0.99-2.09-0.99-4.25v-2c0-4.41 1.34-5.75 5.75-5.75h10c0.37 0 0.72 0.01 1.04 0.03 3.96 0.22 4.71 2.18 4.71 5.72v2c0 4.41-1.34 5.75-5.75 5.75z"/>
 <path d="m6 10.75c-0.41 0-0.75-0.34-0.75-0.75v-2c0-2.9 0.7-6.75 6.75-6.75 4.07 0 6.18 1.33 6.64 4.19 0.07 0.41-0.21 0.79-0.62 0.86s-0.79-0.21-0.86-0.62c-0.25-1.52-1.04-2.93-5.16-2.93-4.36 0-5.25 2.1-5.25 5.25v2c0 0.41-0.34 0.75-0.75 0.75z"/>
 <path d="m1.9999 22.75c-0.19 0-0.38-0.07-0.53-0.22-0.29-0.29-0.29-0.77 0-1.06l20-20c0.29-0.29 0.77-0.29 1.06 0s0.29 0.77 0 1.06l-20 20c-0.15 0.15-0.34 0.22-0.53 0.22z"/>
</svg>
