<svg width="24" height="24" viewBox="0 0 24 24"  xmlns="http://www.w3.org/2000/svg">
<path d="M13.63 15.72C13.63 16.62 12.9 17.35 12 17.35C11.36 17.35 10.81 16.98 10.55 16.45L12.73 14.27C13.26 14.53 13.63 15.08 13.63 15.72Z" />
<path opacity="0.4" d="M7.35 9.43994C3.25 9.43994 2 10.6899 2 14.7899V16.6499C2 18.6999 2.31 20.0399 3.14 20.8599L9.1 14.8999C9.38 13.8899 10.17 13.0999 11.18 12.8199L14.56 9.43994H7.35V9.43994Z" />
<path d="M18.13 5.87L16.87 7.13C16.83 5.35 16.16 3.4 12 3.4C7.94997 3.4 7.11997 5.35 7.11997 8.28V9.45C6.60997 9.45 6.13997 9.48 5.71997 9.53V8.28C5.71997 5.58 6.36997 2 12 2C15.54 2 17.6 3.3 18.13 5.87Z" />
<path opacity="0.4" d="M21.9999 14.79V16.65C21.9999 20.75 20.7499 22 16.6499 22H7.34992C6.50992 22 5.77992 21.95 5.16992 21.83L9.52992 17.47C10.0899 18.24 10.9799 18.74 11.9999 18.74C13.6699 18.74 15.0199 17.39 15.0199 15.72C15.0199 14.7 14.5199 13.81 13.7499 13.25L17.5399 9.45996C20.9299 9.64996 21.9999 11 21.9999 14.79Z" />
<path d="M21.7699 2.22988C21.4699 1.92988 20.9799 1.92988 20.6799 2.22988L2.22988 20.6899C1.92988 20.9899 1.92988 21.4799 2.22988 21.7799C2.37988 21.9199 2.56988 21.9999 2.76988 21.9999C2.96988 21.9999 3.15988 21.9199 3.30988 21.7699L21.7699 3.30988C22.0799 3.00988 22.0799 2.52988 21.7699 2.22988Z" />
</svg>
