<?xml version="1.0" encoding="UTF-8"?>
<svg width="24" height="24" viewBox="0 0 24 24" xmlns="http://www.w3.org/2000/svg">
 <path d="m15 11.75c-0.41 0-0.75-0.34-0.75-0.75v-1c0-1.46-0.36-2.25-2.25-2.25s-2.25 0.79-2.25 2.25v1c0 0.41-0.34 0.75-0.75 0.75s-0.75-0.34-0.75-0.75v-1c0-0.93 0-3.75 3.75-3.75s3.75 2.82 3.75 3.75v1c0 0.41-0.34 0.75-0.75 0.75z"/>
 <path d="m12 15.35c-0.74 0-1.35-0.61-1.35-1.35s0.61-1.35 1.35-1.35 1.35 0.61 1.35 1.35-0.61 1.35-1.35 1.35zm0-1.5c-0.08 0-0.15 0.07-0.15 0.15 0 0.17 0.3 0.17 0.3 0 0-0.08-0.07-0.15-0.15-0.15z"/>
 <path d="m14.5 17.75h-5c-2.4 0-3.25-0.85-3.25-3.25v-1c0-2.4 0.85-3.25 3.25-3.25h5c2.4 0 3.25 0.85 3.25 3.25v1c0 2.4-0.85 3.25-3.25 3.25zm-5-6c-1.59 0-1.75 0.16-1.75 1.75v1c0 1.59 0.16 1.75 1.75 1.75h5c1.59 0 1.75-0.16 1.75-1.75v-1c0-1.59-0.16-1.75-1.75-1.75h-5z"/>
 <path d="m12 22.75c-5.93 0-10.75-4.82-10.75-10.75s4.82-10.75 10.75-10.75 10.75 4.82 10.75 10.75-4.82 10.75-10.75 10.75zm0-20c-5.1 0-9.25 4.15-9.25 9.25s4.15 9.25 9.25 9.25 9.25-4.15 9.25-9.25-4.15-9.25-9.25-9.25z"/>
</svg>
