<svg width="24" height="24" viewBox="0 0 24 24"  xmlns="http://www.w3.org/2000/svg">
<path opacity="0.4" d="M10.7599 2C10.2799 2 9.8999 2.38 9.8999 2.86V21.15C9.8999 21.62 10.2799 22.01 10.7599 22.01C16.6499 22.01 20.7599 17.9 20.7599 12.01C20.7599 6.12 16.6399 2 10.7599 2Z" />
<path d="M15.9 11.5399L13.06 8.68991C12.77 8.39991 12.29 8.39991 12 8.68991C11.71 8.97991 11.71 9.45991 12 9.74991L13.56 11.3099H3.98999C3.57999 11.3099 3.23999 11.6499 3.23999 12.0599C3.23999 12.4699 3.57999 12.8099 3.98999 12.8099H13.56L12 14.3799C11.71 14.6699 11.71 15.1499 12 15.4399C12.15 15.5899 12.34 15.6599 12.53 15.6599C12.72 15.6599 12.91 15.5899 13.06 15.4399L15.9 12.5899C16.2 12.2999 16.2 11.8299 15.9 11.5399Z" />
</svg>
