<?xml version="1.0" encoding="UTF-8"?>
<svg width="24" height="24" viewBox="0 0 24 24" xmlns="http://www.w3.org/2000/svg">
 <path d="m11.68 15.37c-0.19 0-0.38-0.07-0.53-0.22-0.29-0.29-0.29-0.77 0-1.06l2.03-2.03-2.03-2.03c-0.29-0.28996-0.29-0.76996 0-1.06s0.77-0.29 1.06 0l2.56 2.56c0.29 0.29 0.29 0.77 0 1.06l-2.56 2.56c-0.14 0.15-0.34 0.22-0.53 0.22z"/>
 <path d="m14.17 12.81h-10.17c-0.41 0-0.75-0.34-0.75-0.75s0.34-0.75 0.75-0.75h10.17c0.41 0 0.75 0.34 0.75 0.75s-0.34 0.75-0.75 0.75z"/>
 <path d="m12 20.75c-0.41 0-0.75-0.34-0.75-0.75s0.34-0.75 0.75-0.75c4.27 0 7.25-2.98 7.25-7.25s-2.98-7.25-7.25-7.25c-0.41 0-0.75-0.34-0.75-0.75s0.34-0.75 0.75-0.75c5.15 0 8.75 3.6 8.75 8.75s-3.6 8.75-8.75 8.75z"/>
</svg>
