<?xml version="1.0" encoding="UTF-8"?>
<svg width="24" height="24" viewBox="0 0 24 24" xmlns="http://www.w3.org/2000/svg">
 <path d="m15.24 22.27h-0.13c-4.44 0-6.58-1.75-6.95-5.67-0.04-0.41 0.26-0.78 0.68-0.82 0.41-0.04 0.78 0.27 0.82 0.68 0.29 3.14 1.77 4.31 5.46 4.31h0.13c4.07 0 5.51-1.44 5.51-5.51v-6.52c0-4.07-1.44-5.51-5.51-5.51h-0.13c-3.71 0-5.19 1.19-5.46 4.39-0.05 0.41-0.39 0.72-0.82 0.68-0.42-0.03-0.72001-0.4-0.69001-0.81 0.34-3.98 2.49-5.76 6.96-5.76h0.13c4.91 0 7.01 2.1 7.01 7.01v6.52c0 4.91-2.1 7.01-7.01 7.01z"/>
 <path d="m14.88 12.75h-12.88c-0.41 0-0.75-0.34-0.75-0.75s0.34-0.75 0.75-0.75h12.88c0.41 0 0.75 0.34 0.75 0.75s-0.33 0.75-0.75 0.75z"/>
 <path d="m12.65 16.1c-0.19 0-0.38-0.07-0.53-0.22-0.29-0.29-0.29-0.77 0-1.06l2.82-2.82-2.82-2.82c-0.29-0.29-0.29-0.77 0-1.06s0.77-0.29 1.06 0l3.35 3.35c0.29 0.29 0.29 0.77 0 1.06l-3.35 3.35c-0.15 0.15-0.34 0.22-0.53 0.22z"/>
</svg>
