<?xml version="1.0" encoding="UTF-8"?>
<svg width="24" height="24" viewBox="0 0 24 24" xmlns="http://www.w3.org/2000/svg">
 <path d="m10.92 19.75c-0.29 0-0.57-0.04-0.8-0.13-3.42-1.17-8.87-5.35-8.87-11.53 0-3.17 2.56-5.74 5.71-5.74 1.51 0 2.92 0.57998 3.97 1.61 1.06-1.03 2.46-1.61 3.97-1.61 3.15 0 5.71 2.57 5.71 5.74 0 0.43-0.03 0.87001-0.09 1.32-0.03 0.23-0.17 0.43999-0.37 0.55999s-0.45 0.13-0.67 0.04c-1.23-0.52999-2.76-0.12998-3.56 0.94-0.14 0.19-0.41 0.29-0.6 0.3-0.24 0-0.46-0.11-0.6-0.3-0.57-0.76-1.44-1.19-2.38-1.19-1.63 0-2.96 1.34-2.96 2.99 0 2.6 1.49 4.45 2.75 5.56 0.18 0.16 0.27 0.39 0.25 0.63s-0.15 0.45-0.36 0.58c-0.11 0.06-0.2 0.1-0.25 0.11-0.26 0.08-0.55 0.12-0.85 0.12zm-3.96-15.9c-2.32 0-4.21 1.9-4.21 4.24 0 5.23 4.35 8.45 6.85 9.69-0.95-1.27-1.73-2.95-1.73-5.04 0-2.48 2-4.49 4.46-4.49 1.12 0 2.17 0.41002 2.98 1.14 1.01-0.9 2.45-1.31 3.79-1.06v-0.22998c0-2.34-1.89-4.24-4.21-4.24-1.33 0-2.56 0.62-3.37 1.69-0.14 0.19-0.36 0.30002-0.6 0.30002s-0.46-0.11002-0.6-0.30002c-0.78999-1.08-2.02-1.7-3.36-1.7z"/>
 <path d="m15.32 21.65c-0.23 0-0.47-0.03-0.66-0.1-0.86-0.29-2.25-1-3.52-2.13-1.48-1.31-3.25-3.53-3.25-6.68 0-2.48 2-4.49 4.46-4.49 1.12 0 2.17 0.41001 2.98 1.14 1.26-1.13 3.18-1.45 4.76-0.76001 1.62 0.72 2.67 2.34 2.67 4.12 0 4.74-4.16 7.92-6.78 8.81-0.2 0.06-0.43 0.09-0.66 0.09zm-2.98-11.9c-1.63 0-2.96 1.34-2.96 2.99 0 2.6 1.49 4.45 2.75 5.56 1.11 0.98 2.28 1.59 3.01 1.83 0.08 0.03 0.27 0.03 0.34 0 1.5-0.51 5.77-2.96 5.77-7.39 0-1.19-0.7-2.27-1.77-2.74-1.21-0.53-2.76-0.13-3.56 0.94-0.14 0.19-0.41 0.29-0.6 0.3-0.24 0-0.46-0.11-0.6-0.3-0.57-0.76-1.44-1.19-2.38-1.19z"/>
</svg>
