<svg width="24" height="24" viewBox="0 0 24 24"  xmlns="http://www.w3.org/2000/svg">
<path d="M10.92 19.7496C10.63 19.7496 10.35 19.7096 10.12 19.6196C6.7 18.4496 1.25 14.2696 1.25 8.0896C1.25 4.9196 3.80999 2.34961 6.95999 2.34961C8.46999 2.34961 9.87999 2.92959 10.93 3.95959C11.99 2.92959 13.39 2.34961 14.9 2.34961C18.05 2.34961 20.61 4.9196 20.61 8.0896C20.61 8.5196 20.58 8.95961 20.52 9.40961C20.49 9.63961 20.35 9.8496 20.15 9.9696C19.95 10.0896 19.7 10.0996 19.48 10.0096C18.25 9.47961 16.72 9.87962 15.92 10.9496C15.78 11.1396 15.51 11.2396 15.32 11.2496C15.08 11.2496 14.86 11.1396 14.72 10.9496C14.15 10.1896 13.28 9.75961 12.34 9.75961C10.71 9.75961 9.38 11.0996 9.38 12.7496C9.38 15.3496 10.87 17.1996 12.13 18.3096C12.31 18.4696 12.4 18.6996 12.38 18.9396C12.36 19.1796 12.23 19.3896 12.02 19.5196C11.91 19.5796 11.82 19.6196 11.77 19.6296C11.51 19.7096 11.22 19.7496 10.92 19.7496ZM6.95999 3.84961C4.63999 3.84961 2.75 5.7496 2.75 8.0896C2.75 13.3196 7.10001 16.5396 9.60001 17.7796C8.65001 16.5096 7.87 14.8296 7.87 12.7396C7.87 10.2596 9.86999 8.2496 12.33 8.2496C13.45 8.2496 14.5 8.65962 15.31 9.38962C16.32 8.48962 17.76 8.07959 19.1 8.32959C19.1 8.24959 19.1 8.16961 19.1 8.09961C19.1 5.75961 17.21 3.85959 14.89 3.85959C13.56 3.85959 12.33 4.47959 11.52 5.54959C11.38 5.73959 11.16 5.84961 10.92 5.84961C10.68 5.84961 10.46 5.73959 10.32 5.54959C9.53001 4.46959 8.29999 3.84961 6.95999 3.84961Z" />
<path d="M15.3201 21.65C15.0901 21.65 14.8501 21.62 14.6601 21.55C13.8001 21.26 12.4101 20.55 11.1401 19.42C9.66014 18.11 7.89014 15.89 7.89014 12.74C7.89014 10.26 9.89013 8.25 12.3501 8.25C13.4701 8.25 14.5201 8.66001 15.3301 9.39001C16.5901 8.26001 18.5101 7.94 20.0901 8.63C21.7101 9.35 22.7601 10.97 22.7601 12.75C22.7601 17.49 18.6001 20.67 15.9801 21.56C15.7801 21.62 15.5501 21.65 15.3201 21.65ZM12.3401 9.75C10.7101 9.75 9.38013 11.09 9.38013 12.74C9.38013 15.34 10.8701 17.19 12.1301 18.3C13.2401 19.28 14.4101 19.89 15.1401 20.13C15.2201 20.16 15.4101 20.16 15.4801 20.13C16.9801 19.62 21.2501 17.17 21.2501 12.74C21.2501 11.55 20.5501 10.47 19.4801 10C18.2701 9.47 16.7201 9.87 15.9201 10.94C15.7801 11.13 15.5101 11.23 15.3201 11.24C15.0801 11.24 14.8601 11.13 14.7201 10.94C14.1501 10.18 13.2801 9.75 12.3401 9.75Z" />
</svg>
