<?xml version="1.0" encoding="UTF-8"?>
<svg width="24" height="24" viewBox="0 0 24 24" xmlns="http://www.w3.org/2000/svg">
 <path d="m13.01 22.5c-0.6 0-1.53-0.29-2.42-1.75l-1.76-2.85c-0.17-0.28-0.69001-0.55-1.01-0.53l-3.34 0.17c-2 0.1-2.7-0.73-2.95-1.23s-0.47004-1.57 0.82996-3.09l1.98-2.3c0.2-0.24 0.30997-0.76 0.21997-1.06l-1.01-3.23c-0.51-1.62 0.06001-2.49 0.44001-2.87 0.37999-0.38 1.26-0.93002 2.88-0.39002l2.95 0.97001c0.27004 0.09 0.77004 0.01 1-0.15l3.08-2.22c1.41-1.02 2.4299-0.75 2.8999-0.5s1.27 0.93001 1.24 2.67l-0.07 3.79c-0.01 0.28 0.22 0.74001 0.44 0.91001l2.4801 1.88c1.35 1.03 1.4 2.06 1.31 2.59s-0.49 1.49-2.11 1.99l-3.2301 1.01c-0.3 0.09-0.67 0.48-0.75 0.78l-0.7699 2.94c-0.51 1.93-1.51 2.36-2.07 2.44-0.07 0.02-0.16 0.03-0.26 0.03zm-5.1601-6.63c0.86 0 1.81 0.52 2.25 1.24l1.76 2.85c0.5 0.82 0.95 1.07 1.19 1.03 0.23-0.03 0.5901-0.41 0.8401-1.33l0.7699-2.94c0.21-0.8 0.96-1.59 1.75-1.83l3.2301-1.01c0.62-0.19 1.0199-0.5 1.0799-0.82s-0.22-0.74-0.74-1.14l-2.4799-1.88c-0.61-0.45997-1.05-1.38-1.04-2.14l0.07-3.79c0.01-0.67-0.15-1.17-0.44-1.32s-0.78-2e-5 -1.33 0.38998l-3.0801 2.22c-0.61 0.44-1.6199 0.60002-2.3499 0.36002l-2.95-0.97c-0.62-0.2-1.12-0.19002-1.35 0.03998s-0.25005 0.73-0.06005 1.35l1.01 3.23c0.25 0.78998 0.02999 1.86-0.51001 2.48l-1.98 2.3c-0.63 0.73-0.73 1.24-0.62 1.45 0.1 0.21 0.58003 0.44 1.53 0.39l3.34-0.17c0.04 0.01 0.07998 0.01 0.10998 0.01z"/>
 <path d="m21.91 22.75c-0.19 0-0.3799-0.07-0.5299-0.22l-3.0301-3.03c-0.29-0.29-0.29-0.77 0-1.06s0.77-0.29 1.06 0l3.0301 3.03c0.29 0.29 0.29 0.77 0 1.06-0.15 0.15-0.3401 0.22-0.5301 0.22z"/>
</svg>
