<?xml version="1.0" encoding="UTF-8"?>
<svg width="24" height="24" viewBox="0 0 24 24" xmlns="http://www.w3.org/2000/svg">
 <path d="m4.9999 21.87c-0.74 0-1.47-0.28-2.03-0.84-0.54-0.54-0.84-1.26-0.84-2.03s0.3-1.49 0.84-2.03l13-13c1.12-1.12 2.94-1.12 4.06 0 0.54 0.54 0.84 1.26 0.84 2.03s-0.3 1.49-0.84 2.03l-13 13c-0.56 0.56-1.29 0.84-2.03 0.84zm13-17.24c-0.35 0-0.7 0.13-0.97 0.4l-13 13c-0.26 0.26-0.4 0.6-0.4 0.97s0.14 0.71 0.4 0.97c0.53 0.53 1.41 0.53 1.94 0l13-13c0.26-0.26 0.4-0.6 0.4-0.97s-0.14-0.71-0.4-0.97c-0.27-0.27-0.62-0.4-0.97-0.4z"/>
 <path d="m18.01 9.7402c-0.19 0-0.38-0.07-0.53-0.22l-3-3c-0.29-0.29-0.29-0.77 0-1.06s0.77-0.29 1.06 0l3 3c0.29 0.29 0.29 0.77 0 1.06-0.15 0.15-0.34 0.22-0.53 0.22z"/>
 <path d="m10 5.5c-0.05005 0-0.09005-0.01-0.14005-0.02l-1.36-0.4-1.36 0.4c-0.18 0.05-0.37 0-0.49-0.13-0.13-0.13-0.18-0.31-0.13-0.49l0.4-1.36-0.4-1.36c-0.05-0.18 0-0.37 0.13-0.49 0.13-0.13 0.32-0.18 0.49-0.13l1.36 0.4 1.36-0.4c0.18005-0.05 0.36005 0 0.49005 0.13s0.18 0.32 0.13 0.49l-0.4 1.36 0.4 1.36c0.05 0.18 0 0.37-0.13 0.49-0.09 0.1-0.22 0.15-0.35 0.15zm-1.5-1.44c0.05 0 0.09 0.01 0.14 0.02l0.62 0.18-0.18-0.62c-0.03-0.09-0.03-0.19 0-0.28l0.18-0.62-0.62 0.18c-0.09 0.03-0.19 0.03-0.28 0l-0.62-0.18 0.18 0.62c0.03 0.09 0.03 0.19 0 0.28l-0.18 0.62 0.62-0.18c0.05-0.01 0.09-0.02 0.14-0.02z"/>
 <path d="m6 11.5c-0.05 0-0.09-0.01-0.14-0.02l-1.36-0.4-1.36 0.4c-0.18 0.05-0.36 0-0.49-0.13s-0.18-0.32-0.13-0.49l0.4-1.36-0.4-1.36c-0.05-0.18 0-0.37 0.13-0.49s0.32-0.18 0.49-0.13l1.36 0.4 1.36-0.4c0.17-0.05 0.36 0 0.49 0.13s0.18 0.32 0.13 0.49l-0.4 1.36 0.4 1.36c0.05 0.18 0 0.37-0.13 0.49-0.09 0.1-0.22 0.15-0.35 0.15zm-1.5-1.44c0.05 0 0.09 0.01 0.14 0.02l0.62 0.18-0.18-0.62005c-0.03-0.09-0.03-0.19 0-0.28l0.18-0.62-0.62 0.18c-0.09 0.03-0.19 0.03-0.28 0l-0.62-0.18 0.18 0.62c0.03 0.09 0.03 0.19 0 0.28l-0.18 0.62005 0.62-0.18c0.05-0.01 0.09-0.02 0.14-0.02z"/>
 <path d="m21 16.5c-0.05 0-0.09-0.01-0.14-0.02l-1.36-0.4-1.36 0.4c-0.18 0.05-0.36 0-0.49-0.13s-0.18-0.32-0.13-0.49l0.4-1.36-0.4-1.36c-0.05-0.18 0-0.37 0.13-0.49s0.32-0.18 0.49-0.13l1.36 0.4 1.36-0.4c0.17-0.05 0.36 0 0.49 0.13s0.18 0.32 0.13 0.49l-0.4 1.36 0.4 1.36c0.05 0.18 0 0.37-0.13 0.49-0.09 0.1-0.22 0.15-0.35 0.15zm-1.5-1.44c0.05 0 0.09 0.01 0.14 0.02l0.62 0.18-0.18-0.62c-0.03-0.09-0.03-0.19 0-0.28l0.18-0.62-0.62 0.18c-0.09 0.03-0.19 0.03-0.28 0l-0.62-0.18 0.18 0.62c0.03 0.09 0.03 0.19 0 0.28l-0.18 0.62 0.62-0.18c0.05-0.01 0.09-0.02 0.14-0.02z"/>
</svg>
