<svg width="24" height="24" viewBox="0 0 24 24"  xmlns="http://www.w3.org/2000/svg">
<path d="M4.99988 21.8701C4.25988 21.8701 3.52988 21.5901 2.96988 21.0301C2.42988 20.4901 2.12988 19.7701 2.12988 19.0001C2.12988 18.2301 2.42988 17.5101 2.96988 16.9701L15.9699 3.97005C17.0899 2.85005 18.9099 2.85005 20.0299 3.97005C20.5699 4.51005 20.8699 5.23005 20.8699 6.00005C20.8699 6.77005 20.5699 7.49005 20.0299 8.03005L7.02988 21.0301C6.46988 21.5901 5.73988 21.8701 4.99988 21.8701ZM17.9999 4.63005C17.6499 4.63005 17.2999 4.76005 17.0299 5.03005L4.02988 18.0301C3.76988 18.2901 3.62988 18.6301 3.62988 19.0001C3.62988 19.3701 3.76988 19.7101 4.02988 19.9701C4.55988 20.5001 5.43988 20.5001 5.96988 19.9701L18.9699 6.97005C19.2299 6.71005 19.3699 6.37005 19.3699 6.00005C19.3699 5.63005 19.2299 5.29005 18.9699 5.03005C18.6999 4.76005 18.3499 4.63005 17.9999 4.63005Z" />
<path d="M18.0099 9.74005C17.8199 9.74005 17.6299 9.67005 17.4799 9.52005L14.4799 6.52005C14.1899 6.23005 14.1899 5.75005 14.4799 5.46005C14.7699 5.17005 15.2499 5.17005 15.5399 5.46005L18.5399 8.46005C18.8299 8.75005 18.8299 9.23005 18.5399 9.52005C18.3899 9.67005 18.1999 9.74005 18.0099 9.74005Z" />
<path d="M9.99988 5.50005C9.94988 5.50005 9.90988 5.49005 9.85988 5.48005L8.49988 5.08005L7.13988 5.48005C6.95988 5.53005 6.76988 5.48005 6.64988 5.35005C6.51988 5.22005 6.46988 5.04005 6.51988 4.86005L6.91988 3.50005L6.51988 2.14005C6.46988 1.96005 6.51988 1.77005 6.64988 1.65005C6.77988 1.52005 6.96988 1.47005 7.13988 1.52005L8.49988 1.92005L9.85988 1.52005C10.0399 1.47005 10.2199 1.52005 10.3499 1.65005C10.4799 1.78005 10.5299 1.97005 10.4799 2.14005L10.0799 3.50005L10.4799 4.86005C10.5299 5.04005 10.4799 5.23005 10.3499 5.35005C10.2599 5.45005 10.1299 5.50005 9.99988 5.50005ZM8.49988 4.06005C8.54988 4.06005 8.58988 4.07005 8.63988 4.08005L9.25988 4.26005L9.07988 3.64005C9.04988 3.55005 9.04988 3.45005 9.07988 3.36005L9.25988 2.74005L8.63988 2.92005C8.54988 2.95005 8.44988 2.95005 8.35988 2.92005L7.73988 2.74005L7.91988 3.36005C7.94988 3.45005 7.94988 3.55005 7.91988 3.64005L7.73988 4.26005L8.35988 4.08005C8.40988 4.07005 8.44988 4.06005 8.49988 4.06005Z" />
<path d="M5.99988 11.5001C5.94988 11.5001 5.90988 11.4901 5.85988 11.4801L4.49988 11.0801L3.13988 11.4801C2.95988 11.5301 2.77988 11.4801 2.64988 11.3501C2.51988 11.2201 2.46988 11.0301 2.51988 10.8601L2.91988 9.50005L2.51988 8.14005C2.46988 7.96005 2.51988 7.77005 2.64988 7.65005C2.77988 7.53005 2.96988 7.47005 3.13988 7.52005L4.49988 7.92005L5.85988 7.52005C6.02988 7.47005 6.21988 7.52005 6.34988 7.65005C6.47988 7.78005 6.52988 7.97005 6.47988 8.14005L6.07988 9.50005L6.47988 10.8601C6.52988 11.0401 6.47988 11.2301 6.34988 11.3501C6.25988 11.4501 6.12988 11.5001 5.99988 11.5001ZM4.49988 10.0601C4.54988 10.0601 4.58988 10.0701 4.63988 10.0801L5.25988 10.2601L5.07988 9.64005C5.04988 9.55005 5.04988 9.45005 5.07988 9.36005L5.25988 8.74005L4.63988 8.92005C4.54988 8.95005 4.44988 8.95005 4.35988 8.92005L3.73988 8.74005L3.91988 9.36005C3.94988 9.45005 3.94988 9.55005 3.91988 9.64005L3.73988 10.2601L4.35988 10.0801C4.40988 10.0701 4.44988 10.0601 4.49988 10.0601Z" />
<path d="M20.9999 16.5001C20.9499 16.5001 20.9099 16.4901 20.8599 16.4801L19.4999 16.0801L18.1399 16.4801C17.9599 16.5301 17.7799 16.4801 17.6499 16.3501C17.5199 16.2201 17.4699 16.0301 17.5199 15.8601L17.9199 14.5001L17.5199 13.1401C17.4699 12.9601 17.5199 12.7701 17.6499 12.6501C17.7799 12.5301 17.9699 12.4701 18.1399 12.5201L19.4999 12.9201L20.8599 12.5201C21.0299 12.4701 21.2199 12.5201 21.3499 12.6501C21.4799 12.7801 21.5299 12.9701 21.4799 13.1401L21.0799 14.5001L21.4799 15.8601C21.5299 16.0401 21.4799 16.2301 21.3499 16.3501C21.2599 16.4501 21.1299 16.5001 20.9999 16.5001ZM19.4999 15.0601C19.5499 15.0601 19.5899 15.0701 19.6399 15.0801L20.2599 15.2601L20.0799 14.6401C20.0499 14.5501 20.0499 14.4501 20.0799 14.3601L20.2599 13.7401L19.6399 13.9201C19.5499 13.9501 19.4499 13.9501 19.3599 13.9201L18.7399 13.7401L18.9199 14.3601C18.9499 14.4501 18.9499 14.5501 18.9199 14.6401L18.7399 15.2601L19.3599 15.0801C19.4099 15.0701 19.4499 15.0601 19.4999 15.0601Z" />
</svg>
