<?xml version="1.0" encoding="UTF-8"?>
<svg width="24" height="24" viewBox="0 0 24 24" xmlns="http://www.w3.org/2000/svg">
 <path d="m12 22.75c-1.17 0-2.26-0.45-3.08-1.27l-6.39-6.39c-0.82-0.82-1.27-1.92-1.27-3.08s0.44998-2.26 1.27-3.08l6.39-6.39c0.82-0.82 1.92-1.27 3.08-1.27s2.2599 0.44996 3.0799 1.27l6.3901 6.39c0.82 0.82 1.2699 1.92 1.2699 3.08s-0.4499 2.26-1.2699 3.08l-6.3901 6.39c-0.82 0.82-1.9099 1.27-3.0799 1.27zm0-20c-0.77 0-1.49 0.30002-2.02 0.83002l-6.39 6.39c-0.54 0.54002-0.82998 1.26-0.82998 2.02s0.29998 1.49 0.82998 2.02l6.39 6.39c1.07 1.07 2.9699 1.07 4.0399 0l6.3901-6.39c0.54-0.54 0.8299-1.25 0.8299-2.02s-0.2999-1.49-0.8299-2.02l-6.3901-6.39c-0.53-0.53-1.2499-0.83002-2.0199-0.83002z"/>
 <path d="m17.75 18.5c-0.19 0-0.38-0.07-0.53-0.22l-11.5-11.5c-0.29-0.29-0.29-0.77006 0-1.0601s0.77-0.29 1.06 0l11.5 11.5c0.29 0.29 0.29 0.77 0 1.06-0.15 0.15-0.34 0.22-0.53 0.22z"/>
 <path d="m6.2499 18.5c-0.19 0-0.38-0.07-0.53-0.22-0.29-0.29-0.29-0.77 0-1.06l11.5-11.5c0.29-0.29 0.77-0.29 1.06 0s0.29 0.77006 0 1.0601l-11.5 11.5c-0.15 0.15-0.34 0.22-0.53 0.22z"/>
</svg>
