<?xml version="1.0" encoding="UTF-8"?>
<svg width="24" height="24" viewBox="0 0 24 24" xmlns="http://www.w3.org/2000/svg">
 <path d="m12 22.75c-5.93 0-10.75-4.82-10.75-10.75s4.82-10.75 10.75-10.75 10.75 4.82 10.75 10.75-4.82 10.75-10.75 10.75zm0-20c-5.1 0-9.25 4.15-9.25 9.25s4.15 9.25 9.25 9.25 9.25-4.15 9.25-9.25-4.15-9.25-9.25-9.25z"/>
 <path d="m10.75 15.25c-0.41 0-0.75-0.34-0.75-0.75v-2.08l-2.67-1.6v3.68c0 0.41-0.34 0.75-0.75 0.75s-0.75-0.34-0.75-0.75v-5c0-0.27 0.15-0.52 0.38-0.65s0.52-0.13 0.75 0.01l4.17 2.5c0.23 0.14 0.36 0.38 0.36 0.64v2.5c0.01 0.41-0.33 0.75-0.74 0.75z"/>
 <path d="m17.42 15.25c-0.41 0-0.75-0.34-0.75-0.75v-3.68l-2.67 1.6v2.08c0 0.41-0.34 0.75-0.75 0.75s-0.75-0.34-0.75-0.75v-2.5c0-0.26 0.14-0.51 0.36-0.64l4.17-2.5c0.23-0.14 0.52-0.14 0.75-0.01 0.24 0.13 0.38 0.38 0.38 0.65v5c0.01 0.41-0.33 0.75-0.74 0.75z"/>
</svg>
