<svg width="24" height="24" viewBox="0 0 24 24"  xmlns="http://www.w3.org/2000/svg">
<path d="M12 22.75C6.07 22.75 1.25 17.93 1.25 12C1.25 6.07 6.07 1.25 12 1.25C17.93 1.25 22.75 6.07 22.75 12C22.75 17.93 17.93 22.75 12 22.75ZM12 2.75C6.9 2.75 2.75 6.9 2.75 12C2.75 17.1 6.9 21.25 12 21.25C17.1 21.25 21.25 17.1 21.25 12C21.25 6.9 17.1 2.75 12 2.75Z" />
<path d="M10.75 15.25C10.34 15.25 10 14.91 10 14.5V12.42L7.33002 10.82V14.5C7.33002 14.91 6.99002 15.25 6.58002 15.25C6.17002 15.25 5.83002 14.91 5.83002 14.5V9.5C5.83002 9.23 5.98002 8.98 6.21002 8.85C6.44002 8.72 6.73002 8.72 6.96002 8.86L11.13 11.36C11.36 11.5 11.49 11.74 11.49 12V14.5C11.5 14.91 11.16 15.25 10.75 15.25Z" />
<path d="M17.42 15.25C17.01 15.25 16.67 14.91 16.67 14.5V10.82L14 12.42V14.5C14 14.91 13.66 15.25 13.25 15.25C12.84 15.25 12.5 14.91 12.5 14.5V12C12.5 11.74 12.64 11.49 12.86 11.36L17.03 8.86C17.26 8.72 17.55 8.72 17.78 8.85C18.02 8.98 18.16 9.23 18.16 9.5V14.5C18.17 14.91 17.83 15.25 17.42 15.25Z" />
</svg>
