<svg width="24" height="24" viewBox="0 0 24 24"  xmlns="http://www.w3.org/2000/svg">
<path d="M10.25 22.25C5.56 22.25 1.75 18.44 1.75 13.75C1.75 9.06 5.56 5.25 10.25 5.25C14.94 5.25 18.75 9.06 18.75 13.75C18.75 18.44 14.94 22.25 10.25 22.25ZM10.25 6.75C6.39 6.75 3.25 9.89 3.25 13.75C3.25 17.61 6.39 20.75 10.25 20.75C14.11 20.75 17.25 17.61 17.25 13.75C17.25 9.89 14.11 6.75 10.25 6.75Z" />
<path d="M15.9999 8.74945C15.8099 8.74945 15.6199 8.67945 15.4699 8.52945C15.1799 8.23945 15.1799 7.75945 15.4699 7.46945L20.9699 1.96945C21.2599 1.67945 21.7399 1.67945 22.0299 1.96945C22.3199 2.25945 22.3199 2.73945 22.0299 3.02945L16.5299 8.52945C16.3799 8.67945 16.1899 8.74945 15.9999 8.74945Z" />
<path d="M21.5 9.75C21.09 9.75 20.75 9.41 20.75 9V3.25H15C14.59 3.25 14.25 2.91 14.25 2.5C14.25 2.09 14.59 1.75 15 1.75H21.5C21.91 1.75 22.25 2.09 22.25 2.5V9C22.25 9.41 21.91 9.75 21.5 9.75Z" />
</svg>
