<?xml version="1.0" encoding="UTF-8"?>
<svg width="24" height="24" viewBox="0 0 24 24" xmlns="http://www.w3.org/2000/svg">
 <path d="m10.25 22.25c-4.69 0-8.5-3.81-8.5-8.5s3.81-8.5 8.5-8.5 8.5 3.81 8.5 8.5-3.81 8.5-8.5 8.5zm0-15.5c-3.86 0-7 3.14-7 7s3.14 7 7 7 7-3.14 7-7-3.14-7-7-7z"/>
 <path d="m16 8.7494c-0.19 0-0.38-0.07-0.53-0.22-0.29-0.29-0.29-0.77 0-1.06l5.5-5.5c0.29-0.29 0.77-0.29 1.06 0s0.29 0.77 0 1.06l-5.5 5.5c-0.15 0.15-0.34 0.22-0.53 0.22z"/>
 <path d="m21.5 9.75c-0.41 0-0.75-0.34-0.75-0.75v-5.75h-5.75c-0.41 0-0.75-0.34-0.75-0.75s0.34-0.75 0.75-0.75h6.5c0.41 0 0.75 0.34 0.75 0.75v6.5c0 0.41-0.34 0.75-0.75 0.75z"/>
</svg>
