<?xml version="1.0" encoding="UTF-8"?>
<svg width="24" height="24" viewBox="0 0 24 24" xmlns="http://www.w3.org/2000/svg">
 <path d="m15.65 21.41c-0.43 0-0.86-0.09-1.21-0.26l-5.25-2.63c-0.3-0.15-0.89-0.14-1.18 0.03l-2.36 1.35c-1.02 0.58-2.07 0.66-2.86 0.19-0.8-0.46-1.25-1.4-1.25-2.58v-9.72c0-0.91 0.6-1.94 1.39-2.39l4.33-2.48c0.73-0.42 1.84-0.45 2.59-0.07l5.25 2.63c0.3 0.15 0.88 0.13 1.18-0.03l2.35-1.34c1.02-0.58 2.07-0.66 2.86-0.19 0.8 0.46 1.25 1.4 1.25 2.58v9.73c0 0.91-0.6 1.94-1.39 2.39l-4.33 2.48c-0.38 0.2-0.88 0.31-1.37 0.31zm-7.01-4.49c0.43 0 0.86 0.09 1.21 0.26l5.25 2.63c0.3 0.15 0.88 0.13 1.18-0.03l4.33-2.48c0.32-0.18 0.63-0.72 0.63-1.08v-9.73c0-0.63-0.18-1.1-0.51-1.28-0.32-0.18-0.82-0.11-1.36 0.2l-2.35 1.34c-0.73 0.42-1.84 0.45-2.59 0.07l-5.25-2.63c-0.3-0.15-0.88-0.13-1.18 0.03l-4.33 2.48c-0.32 0.18-0.63 0.72-0.63 1.09v9.73c0 0.63 0.18 1.1 0.5 1.28 0.32 0.19 0.82 0.11 1.37-0.2l2.35-1.34c0.39-0.23 0.89-0.34 1.38-0.34z"/>
 <path d="m8.5601 17.75c-0.41 0-0.75-0.34-0.75-0.75v-13c0-0.41 0.34-0.75 0.75-0.75s0.75 0.34 0.75 0.75v13c0 0.41-0.34 0.75-0.75 0.75z"/>
 <path d="m15.73 20.75c-0.41 0-0.75-0.34-0.75-0.75v-13.38c0-0.41 0.34-0.75 0.75-0.75s0.75 0.34 0.75 0.75v13.38c0 0.41-0.34 0.75-0.75 0.75z"/>
</svg>
