<?xml version="1.0" encoding="UTF-8"?>
<svg width="24" height="24" viewBox="0 0 24 24" xmlns="http://www.w3.org/2000/svg">
 <path d="m20.38 21.13c-0.2 0-0.39-0.08-0.53-0.22l-6.38-6.38c-0.29-0.29-0.29-0.77 0-1.06l7.7301-7.73c0.19-0.19 0.4799-0.26 0.7399-0.19 0.26 0.08 0.46 0.29 0.52 0.55 0.19 0.85 0.29 1.8 0.29 2.9v6c0 2.77-0.58 4.64-1.84 5.91-0.14 0.14-0.35 0.17-0.53 0.22zm-5.32-7.13 5.26 5.26c0.63-0.97 0.93-2.35 0.93-4.26v-6c0-0.41-0.01-0.79-0.04-1.15l-6.15 6.15z"/>
 <path d="m6.27 22.48c-0.06 0-0.10998-0.01-0.16998-0.02-3.31-0.76-4.85-3.13-4.85-7.46v-6c0-5.43 2.32-7.75 7.75-7.75h6c4.33 0 6.7 1.54 7.46 4.85 0.06 0.25-0.02 0.51999-0.2 0.69999l-15.46 15.46c-0.14 0.14-0.33 0.22-0.53 0.22zm2.73-19.73c-4.61 0-6.25 1.64-6.25 6.25v6c0 3.47 0.96001 5.21 3.29 5.9l14.85-14.85c-0.68-2.33-2.43-3.29-5.9-3.29h-5.99v-0.00999z"/>
 <path d="m15 22.75h-6c-1.1 0-2.04-0.09-2.9-0.29-0.27-0.06-0.48002-0.26-0.55002-0.52-0.08-0.26 1e-5 -0.54 0.19001-0.74l7.73-7.73c0.29-0.29 0.77-0.29 1.06 0l6.38 6.38c0.14 0.14 0.22 0.33 0.22 0.53s-0.08 0.39-0.22 0.53c-1.27 1.26-3.14 1.84-5.91 1.84zm-7.15-1.54c0.36 0.03 0.74 0.04 1.15 0.04h6c1.92 0 3.29-0.3 4.26-0.93l-5.26-5.26-6.15 6.15z"/>
 <path d="m9.1199 13.31c-0.63 0-1.26-0.23-1.76-0.7-1.59-1.51-2.23-3.17-1.85-4.79 0.38-1.66 1.83-2.78 3.61-2.78 1.78 0 3.2301 1.12 3.6101 2.78 0.37 1.63-0.2701 3.28-1.8601 4.79-0.49 0.46-1.12 0.7-1.75 0.7zm-2.15-5.16c-0.32 1.36 0.59999 2.5801 1.43 3.3701 0.41 0.3899 1.04 0.3899 1.44 0 0.81996-0.78 1.74-2.0001 1.43-3.3701-0.27-1.19-1.33-1.62-2.15-1.62s-1.87 0.43-2.15 1.62z"/>
 <path d="m9.1499 9.4902c-0.55 0-1-0.45-1-1s0.44-1 1-1h0.01001c0.55 0 0.99999 0.45 0.99999 1s-0.46 1-1.01 1z"/>
</svg>
