<?xml version="1.0" encoding="UTF-8"?>
<svg width="24" height="24" viewBox="0 0 24 24" xmlns="http://www.w3.org/2000/svg">
 <path d="m12 22.75c-5.93 0-10.75-4.82-10.75-10.75s4.82-10.75 10.75-10.75 10.75 4.82 10.75 10.75-4.82 10.75-10.75 10.75zm0-20c-5.1 0-9.25 4.15-9.25 9.25s4.15 9.25 9.25 9.25 9.25-4.15 9.25-9.25-4.15-9.25-9.25-9.25z"/>
 <path d="m12 17.75c-0.41 0-0.75-0.34-0.75-0.75v-10c0-0.41 0.34-0.75 0.75-0.75 3.17 0 5.75 2.58 5.75 5.75s-2.58 5.75-5.75 5.75zm0.75-9.93v8.37c1.99-0.35 3.5-2.1 3.5-4.18 0-2.08-1.51-3.84-3.5-4.19z"/>
 <path d="m12 17.75c-3.17 0-5.75-2.58-5.75-5.75s2.58-5.75 5.75-5.75c0.41 0 0.75 0.34 0.75 0.75v10c0 0.41-0.34 0.75-0.75 0.75zm-0.75-9.93c-1.99 0.35-3.5 2.1-3.5 4.18s1.51 3.83 3.5 4.18v-8.36z"/>
 <path d="m12 22.75c-0.41 0-0.75-0.34-0.75-0.75v-5c0-0.41 0.34-0.75 0.75-0.75s0.75 0.34 0.75 0.75v5c0 0.41-0.34 0.75-0.75 0.75z"/>
 <path d="m12 7.75c-0.41 0-0.75-0.34-0.75-0.75v-5c0-0.41 0.34-0.75 0.75-0.75s0.75 0.34 0.75 0.75v5c0 0.41-0.34 0.75-0.75 0.75z"/>
</svg>
