<?xml version="1.0" encoding="UTF-8"?>
<svg width="24" height="24" viewBox="0 0 24 24" xmlns="http://www.w3.org/2000/svg">
 <path d="m4.93 19.82c-0.2 0-0.38997-0.08-0.52997-0.22-2.03-2.03-3.15-4.73-3.15-7.6 0-5.93 4.82-10.75 10.75-10.75 2.87 0 5.57 1.12 7.6 3.15 0.14 0.14 0.22 0.33 0.22 0.53s-0.08 0.39-0.22 0.53l-14.14 14.14c-0.14 0.14-0.33003 0.22-0.53003 0.22zm7.07-17.07c-5.1 0-9.25 4.15-9.25 9.25 0 2.22 0.78001 4.32 2.2 5.99l13.04-13.04c-1.67-1.42-3.77-2.2-5.99-2.2z"/>
 <path d="m12 22.75c-2.87 0-5.57-1.12-7.6-3.15-0.14-0.14-0.22003-0.33-0.22003-0.53s0.08003-0.39 0.22003-0.53l14.14-14.14c0.29-0.29 0.77-0.29 1.06 0 2.03 2.03 3.15 4.73 3.15 7.6 0 5.93-4.82 10.75-10.75 10.75zm-5.99-3.7c1.67 1.42 3.77 2.2 5.99 2.2 5.1 0 9.25-4.15 9.25-9.25 0-2.22-0.78-4.32-2.2-5.99l-13.04 13.04z"/>
 <path d="m13.41 22.65c-0.19 0-0.3799-0.07-0.5299-0.22l-5.6601-5.66c-0.29-0.29-0.29-0.77 0-1.06s0.77006-0.29 1.0601 0l5.66 5.66c0.29 0.29 0.29 0.77 0 1.06-0.14 0.15-0.3301 0.22-0.5301 0.22z"/>
 <path d="m17.87 20.03c-0.19 0-0.38-0.07-0.53-0.22l-6.58-6.58c-0.29-0.29-0.29-0.77 0-1.06s0.77-0.29 1.06 0l6.58 6.58c0.29 0.29 0.29 0.77 0 1.06-0.15 0.15-0.34 0.22-0.53 0.22z"/>
 <path d="m21.12 16.22c-0.19 0-0.3799-0.07-0.5299-0.22l-6.2901-6.29c-0.29-0.29-0.29-0.76999 0-1.06s0.77-0.29 1.06 0l6.2901 6.29c0.29 0.29 0.29 0.77 0 1.06-0.14 0.14-0.3301 0.22-0.5301 0.22z"/>
</svg>
