<svg width="24" height="24" viewBox="0 0 24 24"  xmlns="http://www.w3.org/2000/svg">
<path d="M4.92999 19.82C4.72999 19.82 4.54002 19.74 4.40002 19.6C2.37002 17.57 1.25 14.87 1.25 12C1.25 6.07 6.07 1.25 12 1.25C14.87 1.25 17.57 2.37 19.6 4.4C19.74 4.54 19.82 4.73 19.82 4.93C19.82 5.13 19.74 5.32 19.6 5.46L5.46002 19.6C5.32002 19.74 5.12999 19.82 4.92999 19.82ZM12 2.75C6.9 2.75 2.75 6.9 2.75 12C2.75 14.22 3.53001 16.32 4.95001 17.99L17.99 4.95C16.32 3.53 14.22 2.75 12 2.75Z" />
<path d="M12.0002 22.75C9.13018 22.75 6.43002 21.63 4.40002 19.6C4.26002 19.46 4.18018 19.27 4.18018 19.07C4.18018 18.87 4.26021 18.68 4.40021 18.54L18.5402 4.4C18.8302 4.11 19.31 4.11 19.6 4.4C21.63 6.43 22.7502 9.12999 22.7502 12C22.7502 17.93 17.9302 22.75 12.0002 22.75ZM6.01019 19.05C7.68019 20.47 9.78018 21.25 12.0002 21.25C17.1002 21.25 21.2502 17.1 21.2502 12C21.2502 9.77999 20.4702 7.68 19.0502 6.01L6.01019 19.05Z" />
<path d="M13.4099 22.65C13.2199 22.65 13.03 22.58 12.88 22.43L7.21994 16.77C6.92994 16.48 6.92994 16 7.21994 15.71C7.50994 15.42 7.99 15.42 8.28 15.71L13.94 21.37C14.23 21.66 14.23 22.14 13.94 22.43C13.8 22.58 13.6099 22.65 13.4099 22.65Z" />
<path d="M17.87 20.03C17.68 20.03 17.49 19.96 17.34 19.81L10.76 13.23C10.47 12.94 10.47 12.46 10.76 12.17C11.05 11.88 11.53 11.88 11.82 12.17L18.4 18.75C18.69 19.04 18.69 19.52 18.4 19.81C18.25 19.96 18.06 20.03 17.87 20.03Z" />
<path d="M21.12 16.22C20.93 16.22 20.7401 16.15 20.5901 16L14.3 9.70999C14.01 9.41999 14.01 8.94 14.3 8.65C14.59 8.36 15.07 8.36 15.36 8.65L21.6501 14.94C21.9401 15.23 21.9401 15.71 21.6501 16C21.5101 16.14 21.32 16.22 21.12 16.22Z" />
</svg>
