<?xml version="1.0" encoding="UTF-8"?>
<svg width="24" height="24" viewBox="0 0 24 24" xmlns="http://www.w3.org/2000/svg">
 <path d="m12 22.72c-5.91 0-10.72-4.81-10.72-10.72 0-5.91 4.81-10.72 10.72-10.72 2.65 0 5.19 0.98 7.15 2.75 2.27 2.01 3.57 4.92 3.57 7.97 0 3.05-1.3 5.96-3.58 7.98-1.95 1.77-4.49 2.74-7.14 2.74zm0-19.94c-5.09 0-9.22 4.14-9.22 9.22 0 5.08 4.14 9.22 9.22 9.22 2.28 0 4.46-0.84 6.15-2.37 1.96-1.74 3.08-4.23 3.08-6.86 0-2.63-1.12-5.12-3.07-6.85-1.7-1.52-3.88-2.36-6.16-2.36z"/>
 <path d="m10.44 18.91c-0.37 0-0.76001-0.08-1.14-0.23-2.74-1.1-4.52-3.73-4.52-6.68 0-2.95 1.77-5.58 4.52-6.68 0.87001-0.35 1.75-0.3 2.41 0.14 0.64 0.43 1 1.19 1.02 2.14v8.8c-0.01 0.95-0.37 1.72-1.02 2.14-0.37 0.25-0.81 0.37-1.27 0.37zm0-12.32c-0.18 0-0.38 0.04-0.58002 0.12-2.18 0.87-3.58 2.95-3.58 5.29 0 2.34 1.4 4.42 3.58 5.29 0.40002 0.16 0.78002 0.16 1.02 0.01 0.28-0.19 0.34-0.6 0.35-0.91v-8.78c0-0.3-0.07-0.72-0.35-0.91-0.12-0.07-0.27-0.11-0.44-0.11z"/>
</svg>
