<?xml version="1.0" encoding="UTF-8"?>
<svg width="24" height="24" viewBox="0 0 24 24" xmlns="http://www.w3.org/2000/svg">
 <path d="m21.7 6.39h-7.27c-0.41 0-0.75-0.34-0.75-0.75s0.34-0.75 0.75-0.75h7.27c0.41 0 0.75 0.34 0.75 0.75s-0.34 0.75-0.75 0.75z"/>
 <path d="m9.5798 6.39h-7.28c-0.41 0-0.75-0.34-0.75-0.75s0.34-0.75 0.75-0.75h7.27c0.41 0 0.75 0.34 0.75 0.75s-0.33 0.75-0.74 0.75z"/>
 <path d="m21.7 16.08h-7.27c-0.41 0-0.75-0.34-0.75-0.75s0.34-0.75 0.75-0.75h7.27c0.41 0 0.75 0.34 0.75 0.75s-0.34 0.75-0.75 0.75z"/>
 <path d="m21.7 22.14h-7.27c-0.41 0-0.75-0.34-0.75-0.75s0.34-0.75 0.75-0.75h7.27c0.41 0 0.75 0.34 0.75 0.75s-0.34 0.75-0.75 0.75z"/>
 <path d="m18.09 10.02c-0.41 0-0.75-0.34-0.75-0.75v-7.27c0-0.41 0.34-0.75 0.75-0.75s0.75 0.34 0.75 0.75v7.27c0 0.42-0.33 0.75-0.75 0.75z"/>
 <path d="m2.3002 22.75c-0.19 0-0.38-0.07-0.53-0.22-0.29-0.29-0.29-0.77 0-1.06l7.27-7.27c0.29-0.29 0.77001-0.29 1.06 0 0.29 0.29 0.29 0.77 0 1.06l-7.27 7.27c-0.14 0.15-0.33 0.22-0.53 0.22z"/>
 <path d="m9.58 22.75c-0.19 0-0.38-0.07-0.53-0.22l-7.27-7.27c-0.29-0.29-0.29-0.77 0-1.06s0.77-0.29 1.06 0l7.27 7.27c0.29 0.29 0.29 0.77 0 1.06-0.15 0.15-0.34 0.22-0.53 0.22z"/>
</svg>
