<svg width="24" height="24" viewBox="0 0 24 24"  xmlns="http://www.w3.org/2000/svg">
<path d="M21.7002 6.39001H14.4302C14.0202 6.39001 13.6802 6.05001 13.6802 5.64001C13.6802 5.23001 14.0202 4.89001 14.4302 4.89001H21.7002C22.1102 4.89001 22.4502 5.23001 22.4502 5.64001C22.4502 6.05001 22.1102 6.39001 21.7002 6.39001Z" />
<path d="M9.5798 6.39001H2.2998C1.8898 6.39001 1.5498 6.05001 1.5498 5.64001C1.5498 5.23001 1.8898 4.89001 2.2998 4.89001H9.5698C9.9798 4.89001 10.3198 5.23001 10.3198 5.64001C10.3198 6.05001 9.9898 6.39001 9.5798 6.39001Z" />
<path d="M21.7002 16.08H14.4302C14.0202 16.08 13.6802 15.74 13.6802 15.33C13.6802 14.92 14.0202 14.58 14.4302 14.58H21.7002C22.1102 14.58 22.4502 14.92 22.4502 15.33C22.4502 15.74 22.1102 16.08 21.7002 16.08Z" />
<path d="M21.7002 22.14H14.4302C14.0202 22.14 13.6802 21.8 13.6802 21.39C13.6802 20.98 14.0202 20.64 14.4302 20.64H21.7002C22.1102 20.64 22.4502 20.98 22.4502 21.39C22.4502 21.8 22.1102 22.14 21.7002 22.14Z" />
<path d="M18.0898 10.02C17.6798 10.02 17.3398 9.68 17.3398 9.27V2C17.3398 1.59 17.6798 1.25 18.0898 1.25C18.4998 1.25 18.8398 1.59 18.8398 2V9.27C18.8398 9.69 18.5098 10.02 18.0898 10.02Z" />
<path d="M2.30023 22.75C2.11023 22.75 1.92023 22.68 1.77023 22.53C1.48023 22.24 1.48023 21.76 1.77023 21.47L9.04023 14.2C9.33023 13.91 9.81024 13.91 10.1002 14.2C10.3902 14.49 10.3902 14.97 10.1002 15.26L2.83023 22.53C2.69023 22.68 2.50023 22.75 2.30023 22.75Z" />
<path d="M9.58 22.75C9.39 22.75 9.2 22.68 9.05 22.53L1.78 15.26C1.49 14.97 1.49 14.49 1.78 14.2C2.07 13.91 2.55 13.91 2.84 14.2L10.11 21.47C10.4 21.76 10.4 22.24 10.11 22.53C9.96 22.68 9.77 22.75 9.58 22.75Z" />
</svg>
