<?xml version="1.0" encoding="UTF-8"?>
<svg width="24" height="24" viewBox="0 0 24 24" xmlns="http://www.w3.org/2000/svg">
 <path d="m21 7.75c-0.41 0-0.75-0.34-0.75-0.75v-3.25h-3.25c-0.41 0-0.75-0.34-0.75-0.75s0.34-0.75 0.75-0.75h4c0.41 0 0.75 0.34 0.75 0.75v4c0 0.41-0.34 0.75-0.75 0.75z"/>
 <path d="m15 9.75c-0.19 0-0.3801-0.06997-0.5301-0.21997-0.29-0.29-0.29-0.77006 0-1.0601l6-6c0.29-0.29 0.7701-0.29 1.0601 0s0.29 0.77006 0 1.0601l-6 6c-0.15 0.15-0.34 0.21997-0.53 0.21997z"/>
 <path d="m7 21.75h-4c-0.41 0-0.75-0.34-0.75-0.75v-4c0-0.41 0.34-0.75 0.75-0.75s0.75 0.34 0.75 0.75v3.25h3.25c0.41 0 0.75 0.34 0.75 0.75s-0.34 0.75-0.75 0.75z"/>
 <path d="m3 21.75c-0.19 0-0.38003-0.07-0.53003-0.22-0.29-0.29-0.29-0.7701 0-1.0601l6-6c0.29-0.29 0.77006-0.29 1.0601 0s0.29 0.7701 0 1.0601l-6 6c-0.15 0.15-0.34003 0.22-0.53003 0.22z"/>
 <path d="m2.2 14.75c-0.35 0-0.66004-0.25-0.73004-0.6-0.14-0.7-0.21997-1.43-0.21997-2.15 0-5.93 4.82-10.75 10.75-10.75 0.73 0 1.46 0.06997 2.17 0.21997 0.41 0.08 0.67 0.48001 0.59 0.88001-0.08 0.41-0.49 0.66002-0.88 0.59002-0.61-0.12-1.24-0.19-1.87-0.19-5.1 0-9.25 4.15-9.25 9.25 0 0.62 0.06 1.25 0.19 1.85 0.08 0.41-0.18002 0.8-0.59002 0.88-0.06 0.02-0.10998 0.02-0.15998 0.02z"/>
 <path d="m12 22.75c-0.73 0-1.4599-0.0699-2.1699-0.2199-0.41-0.08-0.67003-0.48-0.59003-0.88 0.08-0.41 0.49-0.6601 0.87997-0.5901 0.61 0.12 1.24 0.19 1.87 0.19 5.1 0 9.25-4.15 9.25-9.25 0-0.62-0.06-1.2399-0.18-1.8499-0.08-0.41004 0.1801-0.80004 0.5901-0.88004 0.4-0.08 0.8 0.17997 0.88 0.58997 0.14 0.69997 0.2099 1.42 0.2099 2.14 0.01 5.93-4.81 10.75-10.74 10.75z"/>
</svg>
