<?xml version="1.0" encoding="UTF-8"?>
<svg width="24" height="24" viewBox="0 0 24 24" xmlns="http://www.w3.org/2000/svg">
 <path d="m21 9.75c-0.41 0-0.75-0.34-0.75-0.75v-5.25h-5.25c-0.41 0-0.75-0.34-0.75-0.75s0.34-0.75 0.75-0.75h6c0.41 0 0.75 0.34 0.75 0.75v6c0 0.41-0.34 0.75-0.75 0.75z"/>
 <path d="m9 21.75h-6c-0.41 0-0.75-0.34-0.75-0.75v-6c0-0.41 0.34-0.75 0.75-0.75s0.75 0.34 0.75 0.75v5.25h5.25c0.41 0 0.75 0.34 0.75 0.75s-0.34 0.75-0.75 0.75z"/>
 <path d="m13.5 11.25c-0.19 0-0.38-0.07-0.53-0.22-0.29-0.29-0.29-0.77 0-1.06l7.5-7.5c0.29-0.29 0.77-0.29 1.06 0s0.29 0.77 0 1.06l-7.5 7.5c-0.15 0.15-0.34 0.22-0.53 0.22z"/>
 <path d="m2.9999 21.75c-0.19 0-0.38-0.07-0.53-0.22-0.29-0.29-0.29-0.77 0-1.06l7.5-7.5c0.28996-0.29 0.76996-0.29 1.06 0s0.29 0.77 0 1.06l-7.5 7.5c-0.15 0.15-0.34 0.22-0.53 0.22z"/>
</svg>
