<svg width="24" height="24" viewBox="0 0 24 24"  xmlns="http://www.w3.org/2000/svg">
<path opacity="0.4" d="M16.19 2H7.81C4.17 2 2 4.17 2 7.81V16.18C2 19.83 4.17 22 7.81 22H16.18C19.82 22 21.99 19.83 21.99 16.19V7.81C22 4.17 19.83 2 16.19 2Z" />
<path d="M2.75 9.97C2.34 9.97 2 9.64 2 9.22V6.91C2 4.2 4.2 2 6.91 2H9.22C9.63 2 9.97 2.34 9.97 2.75C9.97 3.16 9.64 3.5 9.22 3.5H6.91C5.03 3.5 3.5 5.03 3.5 6.91V9.22C3.5 9.64 3.16 9.97 2.75 9.97Z" />
<path d="M21.25 9.97C20.84 9.97 20.5 9.63 20.5 9.22V6.91C20.5 5.03 18.97 3.5 17.09 3.5H14.78C14.37 3.5 14.03 3.16 14.03 2.75C14.03 2.34 14.36 2 14.78 2H17.09C19.8 2 22 4.2 22 6.91V9.22C22 9.64 21.66 9.97 21.25 9.97Z" />
<path d="M17.09 22.0002H15.7C15.29 22.0002 14.95 21.6602 14.95 21.2502C14.95 20.8402 15.29 20.5002 15.7 20.5002H17.09C18.97 20.5002 20.5 18.9702 20.5 17.0902V15.7002C20.5 15.2902 20.84 14.9502 21.25 14.9502C21.66 14.9502 22 15.2902 22 15.7002V17.0902C22 19.8002 19.8 22.0002 17.09 22.0002Z" />
<path d="M9.22 21.9998H6.91C4.2 21.9998 2 19.7998 2 17.0898V14.7798C2 14.3698 2.34 14.0298 2.75 14.0298C3.16 14.0298 3.5 14.3698 3.5 14.7798V17.0898C3.5 18.9698 5.03 20.4998 6.91 20.4998H9.22C9.63 20.4998 9.97 20.8398 9.97 21.2498C9.97 21.6598 9.64 21.9998 9.22 21.9998Z" />
</svg>
