<?xml version="1.0" encoding="UTF-8"?>
<svg width="24" height="24" viewBox="0 0 24 24" xmlns="http://www.w3.org/2000/svg">
 <path d="m15 22.75h-1c-0.41 0-0.75-0.34-0.75-0.75s0.34-0.75 0.75-0.75h1c4.61 0 6.25-1.64 6.25-6.25v-6c0-4.61-1.64-6.25-6.25-6.25h-6c-4.61 0-6.25 1.64-6.25 6.25v0.98c0 0.41-0.34 0.75-0.75 0.75s-0.75-0.34-0.75-0.75v-0.98c0-5.43 2.32-7.75 7.75-7.75h6c5.43 0 7.75 2.32 7.75 7.75v6c0 5.43-2.32 7.75-7.75 7.75z"/>
 <path d="m13 11.75c-0.19 0-0.38-0.07-0.53-0.22-0.29-0.29-0.29-0.77 0-1.06l3.74-3.75h-2.21c-0.41 0-0.75-0.34-0.75-0.75s0.33-0.75 0.75-0.75h4.01c0.3 0 0.58 0.18 0.69 0.46 0.12 0.28 0.05 0.6-0.16 0.82l-5.01 5.03c-0.15 0.15-0.34 0.22-0.53 0.22z"/>
 <path d="m18.01 10.74c-0.41 0-0.75-0.34-0.75-0.74997v-4.02c0-0.41 0.34-0.75 0.75-0.75s0.75 0.34 0.75 0.75v4.01c0 0.41997-0.34 0.75997-0.75 0.75997z"/>
 <path d="m7.85 22.75h-2.7c-2.66 0-3.9-1.24-3.9-3.9v-2.7c0-2.66 1.24-3.9 3.9-3.9h2.7c2.66 0 3.9 1.24 3.9 3.9v2.7c0 2.66-1.24 3.9-3.9 3.9zm-2.7-9c-1.84 0-2.4 0.56-2.4 2.4v2.7c0 1.84 0.56 2.4 2.4 2.4h2.7c1.84 0 2.4-0.56 2.4-2.4v-2.7c0-1.84-0.56-2.4-2.4-2.4h-2.7z"/>
</svg>
