<?xml version="1.0" encoding="UTF-8"?>
<svg width="24" height="24" viewBox="0 0 24 24" xmlns="http://www.w3.org/2000/svg">
 <path d="m12 16.75c-0.4 0-0.8-0.03-1.18-0.1-2.12-0.31-4.05-1.53-5.27-3.34-0.85-1.28-1.3-2.77-1.3-4.31 0-4.27 3.48-7.75 7.75-7.75s7.75 3.48 7.75 7.75c0 1.54-0.45 3.03-1.3 4.31-1.23 1.82-3.16 3.03-5.3 3.35-0.35 0.06-0.75 0.09-1.15 0.09zm0-14c-3.45 0-6.25 2.8-6.25 6.25 0 1.25 0.36 2.45 1.04 3.47 0.99 1.46 2.54 2.44 4.26 2.69 0.64 0.11 1.27 0.11 1.86 0 1.75-0.25 3.3-1.24 4.29-2.7 0.68-1.02 1.04-2.22 1.04-3.47 0.01-3.44-2.79-6.24-6.24-6.24z"/>
 <path d="m6.4698 22.59c-0.14 0-0.27-0.02-0.41-0.05-0.65-0.15-1.15-0.65-1.3-1.3l-0.35-1.47c-0.02-0.09-0.09-0.16-0.19-0.19l-1.65-0.39c-0.62-0.15-1.11-0.61-1.28-1.22s0-1.27 0.45-1.72l3.9-3.9c0.16-0.16 0.38-0.24 0.6-0.22s0.42 0.14 0.55 0.33c0.99 1.46 2.54 2.45 4.27 2.7 0.64 0.11 1.27 0.11 1.86 0 1.75-0.25 3.3-1.24 4.29-2.7 0.12-0.19 0.33-0.31 0.55-0.33s0.44 0.06 0.6 0.22l3.9 3.9c0.45 0.45 0.62 1.11 0.45 1.72s-0.67 1.08-1.28 1.22l-1.65 0.39c-0.09 0.02-0.16 0.09-0.19 0.19l-0.35 1.47c-0.15 0.65-0.65 1.15-1.3 1.3-0.65 0.16-1.32-0.07-1.74-0.58l-4.2-4.83-4.2 4.84c-0.34 0.4-0.82 0.62-1.33 0.62zm-0.38-8.56-3.29 3.29c-0.09 0.09-0.08 0.19-0.06 0.25 0.01 0.05 0.06 0.15 0.18 0.17l1.65 0.39c0.65 0.15 1.15 0.65 1.3 1.3l0.35 1.47c0.03 0.13 0.13 0.17 0.19 0.19 0.06 0.01 0.16 0.02 0.25-0.08l3.83-4.41c-1.7-0.33-3.26-1.24-4.4-2.57zm7.42 2.56 3.83 4.4c0.09 0.11 0.2 0.11 0.26 0.09 0.06-0.01 0.15-0.06 0.19-0.19l0.35-1.47c0.15-0.65 0.65-1.15 1.3-1.3l1.65-0.39c0.12-0.03 0.17-0.12 0.18-0.17 0.02-0.05 0.03-0.16-0.06-0.25l-3.29-3.29c-1.15 1.33-2.7 2.24-4.41 2.57z"/>
 <path d="m13.89 12.89c-0.26 0-0.57-0.07-0.94-0.29l-0.95-0.5701-0.95 0.56c-0.87 0.52-1.44 0.22-1.65 0.07s-0.66-0.5999-0.43-1.5899l0.24-1.03-0.8-0.74007c-0.44-0.44-0.6-0.96998-0.45-1.45s0.59-0.82001 1.21-0.92001l1.07-0.18 0.51-1.12c0.29-0.57 0.74-0.89002 1.25-0.89002s0.97 0.33003 1.25 0.90003l0.59 1.18 0.99 0.12c0.61 0.1 1.05 0.43998 1.21 0.91998 0.15 0.48-0.01 1.01-0.45 1.45l-0.83 0.83006 0.26 0.93c0.23 0.99-0.22 1.4399-0.43 1.5899-0.11 0.09-0.35 0.2301-0.7 0.2301zm-4.28-4.5 0.68996 0.68997c0.32 0.32 0.48 0.86002 0.38 1.3l-0.19 0.8 0.8-0.47c0.43-0.25 1.01-0.25 1.43 0l0.8 0.47-0.18-0.8c-0.1-0.44995 0.05-0.97997 0.37-1.3l0.69-0.68997-0.87-0.15003c-0.42-0.07-0.84-0.37997-1.03-0.75997l-0.5-0.98002-0.5 1c-0.18 0.37-0.6 0.69001-1.02 0.76001l-0.86996 0.13001z"/>
</svg>
