<?xml version="1.0" encoding="UTF-8"?>
<svg width="24" height="24" viewBox="0 0 24 24" xmlns="http://www.w3.org/2000/svg">
 <path d="m12 15.75c-4.14 0-7.5-3.25-7.5-7.25s3.36-7.25 7.5-7.25 7.5 3.25 7.5 7.25-3.36 7.25-7.5 7.25zm0-13c-3.31 0-6 2.58-6 5.75s2.69 5.75 6 5.75 6-2.58 6-5.75-2.69-5.75-6-5.75z"/>
 <path d="m15.62 22.75c-0.28 0-0.56-0.07-0.85-0.2l-2.69-1.27c-0.03-0.01-0.14-0.01-0.18 0l-2.67 1.26c-0.59 0.28-1.21 0.27-1.69-0.04-0.5-0.32-0.78999-0.91-0.77999-1.61l0.00998-7.38c0-0.41 0.32-0.77 0.75-0.75 0.41 0 0.75 0.34 0.75 0.75l-0.00998 7.38c0 0.22 0.05999 0.33 0.08999 0.34 0.02 0.01 0.11 0.02 0.25-0.05l2.68-1.27c0.43-0.2 1.02-0.2 1.45 0l2.69 1.27c0.14 0.07 0.23 0.06 0.25 0.05 0.03-0.02 0.09-0.13 0.09-0.34v-7.56c0-0.41 0.34-0.75 0.75-0.75s0.75 0.34 0.75 0.75v7.56c0 0.71-0.29 1.29-0.79 1.61-0.26 0.17-0.55 0.25-0.85 0.25z"/>
</svg>
