<?xml version="1.0" encoding="UTF-8"?>
<svg width="24" height="24" viewBox="0 0 24 24" xmlns="http://www.w3.org/2000/svg">
 <path d="m16.38 22.75h-13.14c-0.95 0-1.83-0.4399-2.4-1.2099-0.58-0.78-0.74999-1.7601-0.45999-2.6901l4.21-13.53c0.38-1.26 1.54-2.12 2.86-2.12h12.3c1.21 0 2.3 0.72008 2.76 1.8401 0.25 0.58 0.3 1.24 0.15 1.89l-3.37 13.53c-0.32 1.35-1.52 2.29-2.91 2.29zm-8.92-18.04c-0.65 0-1.24 0.43005-1.43 1.06l-4.21 13.53c-0.14 0.47-0.06001 0.96 0.23999 1.36 0.28 0.38 0.72001 0.6 1.19 0.6h13.14c0.6901 0 1.29-0.4701 1.45-1.1401l3.37-13.54c0.08-0.33 0.06-0.65995-0.07-0.94995-0.2399-0.57-0.77-0.93005-1.38-0.93005h-12.3v0.01001z"/>
 <path d="m20.78 22.75h-4.78c-0.41 0-0.75-0.34-0.75-0.75s0.34-0.75 0.75-0.75h4.78c0.41 0 0.79-0.17 1.07-0.47s0.42-0.7 0.39-1.11l-0.99-13.62c-0.03-0.41 0.28-0.77005 0.69-0.80005 0.41-0.02 0.77 0.27994 0.8 0.68994l0.99 13.62c0.06 0.82-0.23 1.64-0.79 2.24-0.55 0.61-1.34 0.95-2.16 0.95z"/>
 <path d="m9.6798 7.1297c-0.06 0-0.12-0.01002-0.18-0.02002-0.4-0.1-0.64998-0.50003-0.54998-0.91003l1.04-4.32c0.10004-0.4 0.50004-0.65005 0.91004-0.55005 0.4 0.1 0.65 0.50004 0.55 0.91004l-1.04 4.3201c-0.08 0.34-0.39 0.56994-0.73003 0.56994z"/>
 <path d="m16.38 7.1397c-0.05 0-0.11-2e-5 -0.16-0.02002-0.4-0.09-0.6599-0.49001-0.5799-0.89001l0.9399-4.34c0.09-0.41 0.49-0.65995 0.89-0.57995s0.66 0.48989 0.58 0.88989l-0.94 4.3401c-0.07 0.36-0.38 0.59997-0.73 0.59997z"/>
 <path d="m15.7 12.75h-8c-0.41 0-0.75-0.34-0.75-0.75s0.34-0.75 0.75-0.75h8c0.41 0 0.75 0.34 0.75 0.75s-0.34 0.75-0.75 0.75z"/>
 <path d="m14.7 16.75h-8c-0.41 0-0.75-0.34-0.75-0.75s0.34-0.75 0.75-0.75h8c0.41 0 0.75 0.34 0.75 0.75s-0.34 0.75-0.75 0.75z"/>
</svg>
