<svg width="24" height="24" viewBox="0 0 24 24"  xmlns="http://www.w3.org/2000/svg">
<path opacity="0.4" d="M21.99 6.01996C22.01 6.25996 21.99 6.50995 21.93 6.75995L18.56 20.2899C18.32 21.2999 17.42 21.9999 16.38 21.9999H3.23998C1.72998 21.9999 0.66 20.5199 1.1 19.0699L5.30999 5.53992C5.59999 4.59992 6.47001 3.95996 7.45001 3.95996H19.75C20.71 3.95996 21.49 4.52996 21.82 5.32996C21.92 5.53996 21.97 5.77996 21.99 6.01996Z" />
<path d="M22.9899 19.62C23.0899 20.91 22.0699 22 20.7799 22H16.3799C17.4199 22 18.3199 21.3 18.5599 20.29L21.9299 6.76001C21.9899 6.51001 22.0099 6.26002 21.9899 6.02002L21.9999 6L22.9899 19.62Z" />
<path d="M9.68001 7.12989C9.62001 7.12989 9.56002 7.11987 9.50002 7.10987C9.10002 7.00987 8.85003 6.6099 8.95003 6.1999L9.99001 1.87989C10.09 1.47989 10.49 1.2399 10.9 1.3299C11.3 1.4299 11.55 1.82987 11.45 2.23987L10.41 6.55988C10.33 6.89988 10.02 7.12989 9.68001 7.12989Z" />
<path d="M16.3799 7.1398C16.3299 7.1398 16.2699 7.13978 16.2199 7.11978C15.8199 7.02978 15.56 6.62977 15.64 6.22977L16.5799 1.8898C16.6699 1.4798 17.0699 1.22978 17.4699 1.30978C17.8699 1.39978 18.1299 1.7998 18.0499 2.1998L17.1099 6.53976C17.0399 6.89976 16.7299 7.1398 16.3799 7.1398Z" />
<path d="M15.7 12.75H7.69995C7.28995 12.75 6.94995 12.41 6.94995 12C6.94995 11.59 7.28995 11.25 7.69995 11.25H15.7C16.11 11.25 16.45 11.59 16.45 12C16.45 12.41 16.11 12.75 15.7 12.75Z" />
<path d="M14.7 16.75H6.69995C6.28995 16.75 5.94995 16.41 5.94995 16C5.94995 15.59 6.28995 15.25 6.69995 15.25H14.7C15.11 15.25 15.45 15.59 15.45 16C15.45 16.41 15.11 16.75 14.7 16.75Z" />
</svg>
