<?xml version="1.0" encoding="UTF-8"?>
<svg width="24" height="24" viewBox="0 0 24 24" xmlns="http://www.w3.org/2000/svg">
 <path d="m17.54 9.0596c-1.77 0-3.21-1.44-3.21-3.21s1.44-3.21 3.21-3.21 3.21 1.44 3.21 3.21-1.44 3.21-3.21 3.21zm0-4.93c-0.94 0-1.71 0.77-1.71 1.71s0.77 1.71 1.71 1.71 1.71-0.77 1.71-1.71-0.77-1.71-1.71-1.71z"/>
 <path d="m6.46 9.0596c-1.77 0-3.21-1.44-3.21-3.21s1.44-3.21 3.21-3.21 3.21 1.44 3.21 3.21-1.44 3.21-3.21 3.21zm0-4.93c-0.94 0-1.71 0.77-1.71 1.71s0.77001 1.71 1.71 1.71 1.71-0.77 1.71-1.71-0.75999-1.71-1.71-1.71z"/>
 <path d="m17.54 21.37c-1.77 0-3.21-1.44-3.21-3.21s1.44-3.21 3.21-3.21 3.21 1.44 3.21 3.21-1.44 3.21-3.21 3.21zm0-4.93c-0.94 0-1.71 0.77-1.71 1.71s0.77 1.71 1.71 1.71 1.71-0.77 1.71-1.71-0.77-1.71-1.71-1.71z"/>
 <path d="m6.46 21.37c-1.77 0-3.21-1.44-3.21-3.21s1.44-3.21 3.21-3.21 3.21 1.44 3.21 3.21-1.44 3.21-3.21 3.21zm0-4.93c-0.94 0-1.71 0.77-1.71 1.71s0.77001 1.71 1.71 1.71 1.71-0.77 1.71-1.71-0.75999-1.71-1.71-1.71z"/>
</svg>
