<?xml version="1.0" encoding="UTF-8"?>
<svg width="24" height="24" viewBox="0 0 24 24" xmlns="http://www.w3.org/2000/svg">
 <path d="m9.99 22.78c-0.6 0-1.17-0.3-1.56-0.83l-1.2-1.6c0 0.01-0.05001-0.02-0.07001-0.02h-0.36999c-3.42 0-5.54-0.93-5.54-5.54v-4c0-4.21 2.57-5.31 4.73-5.5 0.24-0.03 0.52-0.04001 0.81-0.04001h6.4c3.62 0 5.54 1.92 5.54 5.54v4c0 0.29-0.01 0.57-0.05 0.84-0.18 2.13-1.28 4.7-5.49 4.7h-0.4l-1.24 1.62c-0.39 0.53-0.96 0.83-1.56 0.83zm-3.2-16.03c-0.23 0-0.45001 0.01-0.66001 0.03-2.32 0.2-3.38 1.47-3.38 4.01v4c0 3.43 1.06 4.04 4.04 4.04h0.39999c0.45 0 0.95999 0.25 1.24 0.61l1.2 1.61c0.22001 0.3 0.5 0.3 0.72 0l1.2-1.6c0.29-0.39 0.75-0.62 1.24-0.62h0.4c2.54 0 3.81-1.07 4-3.35 0.03-0.24 0.04-0.46 0.04-0.69v-4c0-2.79-1.25-4.04-4.04-4.04h-6.4z"/>
 <path d="m9.9902 14.19c-0.56 0-1-0.45-1-1s0.45-1 1-1c0.54997 0 0.99997 0.45 0.99997 1s-0.44 1-0.99997 1z"/>
 <path d="m13.19 14.19c-0.56 0-1-0.45-1-1s0.45-1 1-1 1 0.45 1 1-0.45 1-1 1z"/>
 <path d="m6.7998 14.19c-0.56 0-1-0.45-1-1s0.45-1 1-1 1 0.45 1 1-0.45 1-1 1z"/>
 <path d="m17.94 16.29c-0.2 0-0.4-0.08-0.54-0.23-0.16-0.16-0.23-0.39-0.2-0.61 0.03-0.21 0.04-0.43 0.04-0.66v-4c0-2.79-1.25-4.04-4.04-4.04h-6.4c-0.23 0-0.44997 0.01-0.65997 0.03-0.22 0.03-0.45002-0.05001-0.61002-0.20001-0.16-0.16-0.25001-0.37998-0.23001-0.59998 0.18-2.16 1.29-4.73 5.5-4.73h6.4c3.62 0 5.54 1.92 5.54 5.54v4c0 4.21-2.57 5.31-4.73 5.5h-0.07zm-11.02-11.04h6.27c3.62 0 5.54 1.92 5.54 5.54v3.87c1.7-0.42 2.5-1.67 2.5-3.87v-4c0-2.79-1.25-4.04-4.04-4.04h-6.4c-2.2 0-3.44 0.8-3.87 2.5z"/>
</svg>
