<?xml version="1.0" encoding="UTF-8"?>
<svg width="24" height="24" viewBox="0 0 24 24" xmlns="http://www.w3.org/2000/svg">
 <path d="m8 22.319c-0.28 0-0.57002-0.07-0.83002-0.21-0.57-0.3-0.91998-0.9-0.91998-1.54v-1.4199c-3.02-0.31-5-2.5301-5-5.7101v-6c0-3.44 2.31-5.75 5.75-5.75h10c3.44 0 5.75 2.31 5.75 5.75v6c0 3.44-2.31 5.75-5.75 5.75h-3.77l-4.26 2.8401c-0.29 0.19-0.62997 0.2899-0.96997 0.2899zm-1-19.14c-2.58 0-4.25 1.67-4.25 4.25v6.0001c0 2.58 1.67 4.25 4.25 4.25 0.41 0 0.75 0.34 0.75 0.75v2.13c0 0.13 0.08 0.19 0.13 0.22 0.05001 0.03 0.15001 0.06 0.26001-0.01l4.45-2.96c0.12-0.08 0.27-0.13 0.42-0.13h4c2.58 0 4.25-1.67 4.25-4.25v-6.0001c0-2.58-1.67-4.25-4.25-4.25h-10.01z"/>
 <path d="m12 12.11c-0.41 0-0.75-0.34-0.75-0.75v-0.21c0-1.16 0.85-1.73 1.17-1.95 0.37-0.25 0.49-0.41999 0.49-0.67999 0-0.5-0.41-0.91004-0.91-0.91004s-0.91 0.41004-0.91 0.91004c0 0.41-0.34 0.75-0.75 0.75-0.40996 0-0.74996-0.34-0.74996-0.75 0-1.33 1.08-2.41 2.41-2.41s2.41 1.08 2.41 2.41c0 1.14-0.84 1.71-1.15 1.92-0.39 0.26-0.51 0.43-0.51 0.71v0.21c0 0.42-0.34 0.75-0.75 0.75z"/>
 <path d="m12 14.6c-0.42 0-0.75-0.34-0.75-0.75s0.34-0.75 0.75-0.75 0.75 0.34 0.75 0.75-0.33 0.75-0.75 0.75z"/>
</svg>
