<?xml version="1.0" encoding="UTF-8"?>
<svg width="24" height="24" viewBox="0 0 24 24" xmlns="http://www.w3.org/2000/svg">
 <path d="m12 22.78c-0.69 0-1.34-0.35-1.8-0.96l-1.5-2c-0.03-0.04-0.15002-0.1-0.21002-0.1h-0.48999c-4.17 0-6.75-1.13-6.75-6.75v-5c0-4.42 2.33-6.75 6.75-6.75h8c4.42 0 6.75 2.33 6.75 6.75v5c0 0.41-0.34 0.75-0.75 0.75s-0.75-0.34-0.75-0.75v-5c0-3.58-1.67-5.25-5.25-5.25h-8c-3.58 0-5.25 1.67-5.25 5.25v5c0 4.52 1.55 5.25 5.25 5.25h0.5c0.51 0 1.1 0.29 1.4 0.7l1.5 2c0.35 0.46 0.85 0.46 1.2 0 0.25-0.33 0.72-0.4 1.05-0.15s0.4 0.72 0.15 1.05c-0.46 0.61-1.11 0.96-1.8 0.96z"/>
 <path d="m12 11.97c-0.56 0-1-0.45-1-1s0.45-0.99997 1-0.99997 1 0.44997 1 0.99997-0.44 1-1 1z"/>
 <path d="m16 11.97c-0.56 0-1-0.45-1-1s0.45-0.99997 1-0.99997 1 0.44997 1 0.99997-0.44 1-1 1z"/>
 <path d="m8 11.97c-0.56 0-1-0.45-1-1s0.45-0.99997 1-0.99997 1 0.44997 1 0.99997-0.44 1-1 1z"/>
 <path d="m18.2 22.15c-2.18 0-3.95-1.77-3.95-3.95s1.77-3.95 3.95-3.95 3.95 1.77 3.95 3.95-1.77 3.95-3.95 3.95zm0-6.4c-1.35 0-2.45 1.1-2.45 2.45s1.1 2.45 2.45 2.45 2.45-1.1 2.45-2.45-1.1-2.45-2.45-2.45z"/>
 <path d="m22 22.75c-0.19 0-0.38-0.07-0.53-0.22l-1-1c-0.29-0.29-0.29-0.77 0-1.06s0.77-0.29 1.06 0l1 1c0.29 0.29 0.29 0.77 0 1.06-0.15 0.15-0.34 0.22-0.53 0.22z"/>
</svg>
