<?xml version="1.0" encoding="UTF-8"?>
<svg width="24" height="24" viewBox="0 0 24 24" xmlns="http://www.w3.org/2000/svg">
 <path d="m15.5 11.25h-7c-0.41 0-0.75-0.34-0.75-0.75s0.34-0.75 0.75-0.75h7c0.41 0 0.75 0.34 0.75 0.75s-0.34 0.75-0.75 0.75z"/>
 <path d="m16 22.32c-0.34 0-0.68-0.0999-0.97-0.2899l-4.26-2.8401h-3.77c-3.44 0-5.75-2.31-5.75-5.75v-6c0-3.44 2.31-5.75 5.75-5.75h10c3.44 0 5.75 2.31 5.75 5.75v6c0 3.18-1.98 5.4001-5 5.7101v1.4199c0 0.65-0.35 1.24-0.92 1.54-0.26 0.14-0.55 0.21-0.83 0.21zm-9-19.14c-2.58 0-4.25 1.67-4.25 4.25v6c0 2.58 1.67 4.25 4.25 4.25h4c0.15 0 0.29 0.04 0.42 0.13l4.45 2.9601c0.11 0.07 0.21 0.04 0.26 0.01s0.13-0.0901 0.13-0.2201v-2.13c0-0.41 0.34-0.75 0.75-0.75 2.58 0 4.25-1.67 4.25-4.25v-6c0-2.58-1.67-4.25-4.25-4.25h-10.01z"/>
</svg>
