<?xml version="1.0" encoding="UTF-8"?>
<svg width="24" height="24" viewBox="0 0 24 24" xmlns="http://www.w3.org/2000/svg">
 <path d="m16 22.32c-0.34 0-0.67-0.0999-0.96-0.2899l-4.26-2.8401h-1.89c-0.23 0-0.45003-0.1099-0.59003-0.2899-0.14-0.19-0.18997-0.4301-0.12997-0.6501 0.06-0.24 0.09-0.48 0.09-0.74 0-0.8-0.3-1.5699-0.84-2.1699-0.61-0.69-1.48-1.0801-2.41-1.0801-0.89 0-1.71 0.35-2.33 0.98-0.19 0.2-0.47999 0.27-0.73999 0.2-0.26-0.08-0.47-0.29-0.53-0.56-0.1-0.44-0.14999-0.92-0.14999-1.44v-6c0-3.44 2.31-5.75 5.75-5.75h10c3.44 0 5.75 2.31 5.75 5.75v6c0 1.67-0.55 3.11-1.6 4.16-0.88 0.88-2.05 1.4101-3.4 1.5501v1.4199c0 0.65-0.3601 1.24-0.9301 1.55-0.27 0.13-0.5499 0.2-0.8299 0.2zm-6.25-4.64h1.25c0.15 0 0.29 0.04 0.42 0.13l4.45 2.9701c0.11 0.07 0.2 0.0399 0.25 0.0099s0.14-0.09 0.14-0.23v-2.13c0-0.41 0.34-0.75 0.75-0.75 1.27 0 2.34-0.3999 3.09-1.1499 0.76-0.76 1.16-1.8301 1.16-3.1001v-6c0-2.58-1.67-4.25-4.25-4.25h-10c-2.58 0-4.25 1.67-4.25 4.25v5.88c0.68-0.37 1.45-0.56 2.25-0.56 1.36 0 2.65 0.5801 3.53 1.5801 0.78 0.87 1.22 1.9899 1.22 3.1699-0.01 0.06-0.01001 0.12-0.01001 0.18z"/>
 <path d="m5 22.25c-2.62 0-4.75-2.13-4.75-4.75 0-1.46 0.65-2.81 1.78-3.71 0.84-0.67 1.9-1.04 2.97-1.04 2.62 0 4.75 2.13 4.75 4.75 0 1.36-0.59 2.66-1.62 3.56-0.87 0.77-1.98 1.19-3.13 1.19zm0-8c-0.74 0-1.44 0.25-2.03 0.72-0.77 0.61-1.22 1.54-1.22 2.53 0 1.79 1.46 3.25 3.25 3.25 0.78 0 1.54-0.29 2.15-0.81 0.7-0.62 1.1-1.5 1.1-2.44 0-1.79-1.46-3.25-3.25-3.25z"/>
 <path d="m3.9999 19.25c-0.25 0-0.50001-0.13-0.64001-0.36-0.21-0.36-0.09999-0.82 0.26001-1.03l0.89001-0.53v-1.08c0-0.41 0.34-0.75 0.75-0.75s0.75 0.34 0.75 0.75v1.5c0 0.26-0.14001 0.51-0.36001 0.64l-1.25 0.75c-0.14 0.08-0.27 0.11-0.4 0.11z"/>
 <path d="m15.5 11.25h-7c-0.41 0-0.75-0.34-0.75-0.75s0.34-0.75 0.75-0.75h7c0.41 0 0.75 0.34 0.75 0.75s-0.34 0.75-0.75 0.75z"/>
</svg>
