<?xml version="1.0" encoding="UTF-8"?>
<svg width="24" height="24" viewBox="0 0 24 24" xmlns="http://www.w3.org/2000/svg">
 <path d="m12 22.78c-0.69 0-1.34-0.35-1.8-0.96l-1.5-2c-0.03-0.04-0.15001-0.0901-0.20001-0.1001h-0.5c-4.17 0-6.75-1.13-6.75-6.75v-5c0-4.42 2.33-6.75 6.75-6.75h8c4.42 0 6.75 2.33 6.75 6.75v5c0 4.42-2.33 6.75-6.75 6.75h-0.5c-0.08 0-0.15 0.0401-0.2 0.1001l-1.5 2c-0.46 0.61-1.11 0.96-1.8 0.96zm-4-20.06c-3.58 0-5.25 1.67-5.25 5.25v5c0 4.52 1.55 5.25 5.25 5.25h0.5c0.51 0 1.09 0.29 1.4 0.7l1.5 2c0.35 0.46 0.85 0.46 1.2 0l1.5-2c0.33-0.44 0.85-0.7 1.4-0.7h0.5c3.58 0 5.25-1.67 5.25-5.25v-5c0-3.58-1.67-5.25-5.25-5.25h-8z"/>
 <path d="m7.9999 13.45c-0.19 0-0.38-0.0701-0.53-0.2201l-2-2c-0.29-0.29-0.29-0.77 0-1.06l2-2c0.29-0.29 0.77-0.29 1.06 0s0.29 0.77 0 1.06l-1.47 1.47 1.47 1.4699c0.29 0.29 0.29 0.77 0 1.06-0.15 0.15-0.34 0.2201-0.53 0.2201z"/>
 <path d="m16 13.45c-0.19 0-0.38-0.0701-0.53-0.2201-0.29-0.29-0.29-0.77 0-1.06l1.47-1.4699-1.47-1.47c-0.29-0.29-0.29-0.77 0-1.06s0.77-0.29 1.06 0l2 2c0.29 0.29 0.29 0.77 0 1.06l-2 2c-0.15 0.15-0.34 0.2201-0.53 0.2201z"/>
 <path d="m11 13.78c-0.1 0-0.2-0.0201-0.3-0.0601-0.38-0.16-0.56-0.6-0.39-0.99l2-4.67c0.16-0.38 0.6-0.56002 0.99-0.39002 0.38 0.16 0.56 0.59999 0.39 0.98999l-2 4.6701c-0.12 0.28-0.4 0.45-0.69 0.45z"/>
</svg>
