<?xml version="1.0" encoding="UTF-8"?>
<svg width="24" height="24" viewBox="0 0 24 24" xmlns="http://www.w3.org/2000/svg">
 <path d="m16 22.75h-13c-0.96 0-1.75-0.79-1.75-1.75v-13c0-4.42 2.33-6.75 6.75-6.75h8c4.42 0 6.75 2.33 6.75 6.75v8c0 4.42-2.33 6.75-6.75 6.75zm-8-20c-3.58 0-5.25 1.67-5.25 5.25v13c0 0.14 0.11 0.25 0.25 0.25h13c3.58 0 5.25-1.67 5.25-5.25v-8c0-3.58-1.67-5.25-5.25-5.25h-8z"/>
 <path d="m17 10.25h-10c-0.41 0-0.75-0.34-0.75-0.75s0.34-0.75 0.75-0.75h10c0.41 0 0.75 0.34 0.75 0.75s-0.34 0.75-0.75 0.75z"/>
 <path d="m14 15.25h-7c-0.41 0-0.75-0.34-0.75-0.75s0.34-0.75 0.75-0.75h7c0.41 0 0.75 0.34 0.75 0.75s-0.34 0.75-0.75 0.75z"/>
</svg>
