<?xml version="1.0" encoding="UTF-8"?>
<svg width="24" height="24" viewBox="0 0 24 24" xmlns="http://www.w3.org/2000/svg">
 <path d="m16.9 19.01c-0.31 0-0.62-0.0901-0.89-0.2701l-0.96-0.63c-0.27-0.18-0.4-0.5199-0.31-0.8299 0.07-0.23 0.1-0.5001 0.1-0.8001v-4.07c0-1.63-1.02-2.6499-2.65-2.6499h-6.79c-0.12 0-0.22999 0.01001-0.33999 0.02002-0.21 0.01-0.40999-0.06002-0.56999-0.20002s-0.24001-0.33998-0.24001-0.54998v-2.77c0-2.94 2.06-5 5-5h8.5c2.94 0 5 2.06 5 5v5.0999c0 1.45-0.49 2.73-1.39 3.61-0.72 0.73-1.72 1.2001-2.86 1.3401v1.1099c0 0.6-0.33 1.1401-0.85 1.4201-0.24 0.11-0.5 0.17-0.75 0.17zm-0.6-1.88 0.65 0.37c0.06-0.03 0.06-0.0801 0.06-0.0901v-1.81c0-0.41 0.34-0.75 0.75-0.75 1.05 0 1.94-0.3299 2.55-0.9499 0.63-0.62 0.95-1.5001 0.95-2.5501v-5.0999c0-2.13-1.37-3.5-3.5-3.5h-8.5c-2.13 0-3.5 1.37-3.5 3.5v2h6.44c2.44 0 4.15 1.71 4.15 4.15v4.0699c-0.01 0.23-0.02 0.4501-0.05 0.6601z"/>
 <path d="m6.07 22.75c-0.22 0-0.45001-0.05-0.66001-0.16-0.47-0.25-0.76001-0.73-0.76001-1.27v-0.76c-0.88-0.14-1.66-0.51-2.24-1.09-0.76-0.76-1.16-1.8-1.16-3v-4.07c0-2.26 1.48-3.92 3.68-4.13 0.16-0.01 0.31-0.02002 0.47-0.02002h6.79c2.44 0 4.15 1.71 4.15 4.15v4.07c0 0.44-0.05 0.85-0.16 1.22-0.45 1.8-1.98 2.93-3.99 2.93h-2.49l-2.83 1.88c-0.24 0.17-0.51999 0.25-0.79999 0.25zm-0.67002-13c-0.12 0-0.22999 0.01002-0.33999 0.02002-1.44 0.13-2.31 1.12-2.31 2.63v4.07c0 0.8 0.25 1.47 0.72 1.94 0.46 0.46 1.13 0.71 1.93 0.71 0.41 0 0.75 0.34 0.75 0.75v1.31l2.9-1.93c0.12-0.08 0.27-0.13 0.42-0.13h2.72c1.32 0 2.25-0.66 2.54-1.82 0.07-0.25 0.11-0.53 0.11-0.83v-4.07c0-1.63-1.02-2.65-2.65-2.65h-6.79z"/>
</svg>
