<?xml version="1.0" encoding="UTF-8"?>
<svg width="24" height="24" viewBox="0 0 24 24" xmlns="http://www.w3.org/2000/svg">
 <path d="m12 18.31c-0.47 0-0.92-0.24-1.23-0.65l-0.72-0.96h-0.15001c-2.02 0-3.9-0.47-3.9-3.9v-2.63c0-2.31 1.19-3.68 3.34-3.87 0.16-0.02 0.34999-0.03 0.55999-0.03h4.2c2.51 0 3.9 1.38 3.9 3.9v2.63c0 0.2-0.01 0.4-0.03 0.58-0.18 2.12-1.55 3.31-3.86 3.31h-0.15l-0.72 0.96c-0.32 0.43-0.77 0.66-1.24 0.66zm-2.1-10.52c-0.14 0-0.26999-1e-5 -0.39999 0.01999-1.41 0.12-2 0.83-2 2.38v2.63c0 2.07 0.56999 2.4 2.4 2.4h0.26001c0.38 0 0.79 0.2 1.02 0.5l0.79 1.06 0.85-1.05c0.24-0.32 0.62-0.51 1.02-0.51h0.26c1.55 0 2.25-0.59 2.37-1.97 0.02-0.16 0.02-0.29 0.02-0.43v-2.63c0-1.68-0.72-2.4-2.4-2.4h-4.19z"/>
 <path d="m12 22.75c-5.93 0-10.75-4.82-10.75-10.75s4.82-10.75 10.75-10.75 10.75 4.82 10.75 10.75-4.82 10.75-10.75 10.75zm0-20c-5.1 0-9.25 4.15-9.25 9.25s4.15 9.25 9.25 9.25 9.25-4.15 9.25-9.25-4.15-9.25-9.25-9.25z"/>
</svg>
