<?xml version="1.0" encoding="UTF-8"?>
<svg width="24" height="24" viewBox="0 0 24 24" xmlns="http://www.w3.org/2000/svg">
 <path d="m12 22.81c-0.69 0-1.34-0.35-1.8-0.96l-1.5-2c-0.03-0.04-0.15-0.09-0.2-0.1h-0.5c-4.17 0-6.75-1.13-6.75-6.75v-5c0-4.42 2.33-6.75 6.75-6.75h8c4.42 0 6.75 2.33 6.75 6.75v5c0 4.42-2.33 6.75-6.75 6.75h-0.5c-0.08 0-0.15 0.04-0.2 0.1l-1.5 2c-0.46 0.61-1.11 0.96-1.8 0.96zm-4-20.06c-3.58 0-5.25 1.67-5.25 5.25v5c0 4.52 1.55 5.25 5.25 5.25h0.5c0.51 0 1.09 0.29 1.4 0.7l1.5 2c0.35 0.46 0.85 0.46 1.2 0l1.5-2c0.33-0.44 0.85-0.7 1.4-0.7h0.5c3.58 0 5.25-1.67 5.25-5.25v-5c0-3.58-1.67-5.25-5.25-5.25h-8z"/>
 <path d="m12 12c-0.56 0-1-0.45-1-1s0.45-1 1-1 1 0.45 1 1-0.44 1-1 1z"/>
 <path d="m16 12c-0.56 0-1-0.45-1-1s0.45-1 1-1 1 0.45 1 1-0.44 1-1 1z"/>
 <path d="m8 12c-0.56 0-1-0.45-1-1s0.45-1 1-1 1 0.45 1 1-0.44 1-1 1z"/>
</svg>
