<?xml version="1.0" encoding="UTF-8"?>
<svg width="24" height="24" viewBox="0 0 24 24" xmlns="http://www.w3.org/2000/svg">
 <path d="m16 22.75h-13c-0.96 0-1.75-0.79-1.75-1.75v-13c0-4.42 2.33-6.75 6.75-6.75h8c4.42 0 6.75 2.33 6.75 6.75v8c0 4.42-2.33 6.75-6.75 6.75zm-8-20c-3.58 0-5.25 1.67-5.25 5.25v13c0 0.14 0.11 0.25 0.25 0.25h13c3.58 0 5.25-1.67 5.25-5.25v-8c0-3.58-1.67-5.25-5.25-5.25h-8z"/>
 <path d="m7.9498 17.75c-0.47 0-0.9-0.17-1.22-0.48-0.38-0.38-0.55003-0.92-0.46003-1.5l0.28-1.98c0.06-0.43 0.33002-0.98 0.64002-1.29l5.19-5.19c1.78-1.78 3.33-0.98 4.31 0 0.77 0.77 1.12 1.58 1.04 2.39-0.06 0.65999-0.41 1.28-1.04 1.92l-5.19 5.19c-0.31 0.31-0.85 0.58-1.29 0.65l-1.98 0.28c-0.09 0-0.19 0.01-0.28 0.01zm6.58-10c-0.37 0-0.7 0.24-1.08 0.61l-5.19 5.19c-0.08 0.08-0.2 0.33-0.22 0.44l-0.28 1.98c-0.01 0.1-2e-5 0.19 0.03998 0.23s0.13001 0.05 0.23001 0.04l1.98-0.28c0.12-0.02 0.36-0.14 0.44-0.22l5.19-5.19c0.38-0.38 0.58-0.70999 0.61-1.01 0.03-0.34-0.17-0.74-0.61-1.18-0.44-0.42-0.79-0.61-1.11-0.61z"/>
 <path d="m15.42 12.58c-0.07 0-0.14-0.01-0.2-0.03-1.81-0.51-3.26-1.95-3.77-3.77-0.11-0.4 0.12-0.81 0.52-0.93 0.4-0.11 0.81 0.12 0.92 0.52 0.37 1.31 1.42 2.36 2.73 2.73 0.4 0.11 0.63 0.53 0.52 0.93-0.09 0.33-0.39 0.55-0.72 0.55z"/>
</svg>
