<?xml version="1.0" encoding="UTF-8"?>
<svg width="24" height="24" viewBox="0 0 24 24" xmlns="http://www.w3.org/2000/svg">
 <path d="m7.26 18.89c-0.08 0-0.15999-0.01-0.23999-0.02-0.6-0.08-1.11-0.46-1.36-1l-1.26-2.7701c-2-1.48-3.15-3.6899-3.15-6.0899 0-4.27 3.7-7.75 8.25-7.75 3.21 0 6.14 1.76 7.47 4.49 0.51 1.01 0.78 2.11 0.78 3.26 0 4.16-3.51 7.57-7.89 7.74l-1.26 1.52c-0.34 0.39-0.83002 0.62-1.34 0.62zm2.24-16.14c-3.72 0-6.75 2.8-6.75 6.25 0 1.97 0.97999 3.7899 2.68 4.9899 0.11 0.08 0.2 0.18 0.25 0.3l1.34 2.95c0.05 0.11 0.15 0.1401 0.2 0.1401 0.05 0.01 0.15-1e-4 0.22-0.0801l1.48-1.7799c0.14-0.17 0.35-0.27 0.58-0.27 3.72 0 6.75-2.8 6.75-6.25 0-0.91-0.21-1.78-0.62-2.59-1.08-2.23-3.49-3.66-6.13-3.66z"/>
 <path d="m16.74 22.75c-0.52 0-1-0.23-1.34-0.63l-1.26-1.51c-2.42-0.1-4.7-1.21-6.16-3.01-0.23-0.28-0.21999-0.68 0.01001-0.95l0.92999-1.12c0.14-0.17 0.35-0.27 0.58-0.27 3.72 0 6.75-2.8 6.75-6.25 0-0.91-0.21-1.78-0.62-2.59-0.13-0.26-0.1-0.56999 0.08-0.79999s0.48-0.33002 0.76-0.27002c3.7 0.85 6.28 3.94 6.28 7.52 0 2.4-1.15 4.61-3.15 6.09l-1.26 2.77c-0.26 0.56-0.77 0.94-1.38 1.01-0.07 0.01-0.15 0.01-0.22 0.01zm-7.18-5.65c1.25 1.27 3.05 2.01 4.94 2.01 0.22 0 0.43 0.1 0.58 0.27l1.48 1.78c0.07 0.09 0.16 0.1 0.22 0.09 0.04 0 0.15-0.03 0.21-0.15l1.34-2.95c0.06-0.12 0.14-0.23 0.25-0.3 1.7-1.2 2.68-3.02 2.68-4.99 0-2.4-1.47-4.53-3.71-5.58 0.14 0.56 0.21 1.13 0.21 1.72 0 4.16-3.51 7.57-7.89 7.74l-0.31 0.36z"/>
 <path d="m12 9.75h-5c-0.41 0-0.75-0.34-0.75-0.75s0.34-0.75 0.75-0.75h5c0.41 0 0.75 0.34 0.75 0.75s-0.34 0.75-0.75 0.75z"/>
</svg>
