<?xml version="1.0" encoding="UTF-8"?>
<svg width="24" height="24" viewBox="0 0 24 24" xmlns="http://www.w3.org/2000/svg">
 <path d="m17.87 21.87c-0.31 0-0.62-0.08-0.9-0.25l-4.01-2.3801c-0.42-0.01-0.84-0.0399-1.24-0.0999-0.27-0.04-0.5-0.2201-0.6-0.4801s-0.05-0.54 0.13-0.75c0.66-0.77 1-1.69 1-2.67 0-2.42-2.13-4.39-4.75-4.39-0.98 0-1.92 0.2701-2.71 0.7901-0.22 0.14-0.49 0.16-0.73 0.05-0.23-0.11-0.39999-0.3301-0.42999-0.5901-0.03-0.28-0.05-0.5599-0.05-0.8499 0-4.96 4.3-8.99 9.58-8.99 5.28 0 9.58 4.03 9.58 8.99 0 2.72-1.26 5.2199-3.48 6.9299l0.34 2.7201c0.08 0.68-0.22 1.32-0.79 1.69-0.28 0.18-0.61 0.28-0.94 0.28zm-4.72-4.1401c0.14-0.01 0.28 0.0301 0.4 0.1101l4.19 2.49c0.11 0.07 0.2 0.04 0.26 0 0.05-0.03 0.13-0.11 0.11-0.25l-0.39-3.1601c-0.03-0.28 0.09-0.5499 0.31-0.7099 2.04-1.43 3.21-3.6101 3.21-5.9801 0-4.13-3.62-7.49-8.08-7.49-4.29 0-7.81 3.12-8.07 7.04 0.75-0.29 1.56-0.45002 2.4-0.45002 3.45 0 6.25 2.6399 6.25 5.8899 0.01 0.88-0.2 1.73-0.59 2.51z"/>
 <path d="m4.5798 22.75c-0.26 0-0.51-0.07-0.74-0.22-0.45-0.29-0.68999-0.79-0.62999-1.32l0.19999-1.54c-1.35-1.1-2.15-2.73-2.15-4.44 0-1.95 1.02-3.77 2.73-4.86 1.03-0.66999 2.25-1.03 3.52-1.03 3.45 0 6.25 2.64 6.25 5.89 0 1.32-0.48 2.62-1.36 3.65-1.13 1.37-2.82 2.17-4.68 2.23l-2.44 1.45c-0.22 0.13-0.46 0.19-0.7 0.19zm2.92-11.91c-0.98 0-1.92 0.27-2.71 0.79-1.28 0.82-2.04 2.16-2.04 3.6 0 1.39 0.68001 2.66 1.88 3.48 0.23 0.16 0.34999 0.43 0.31999 0.71l-0.22 1.71 2.39-1.42c0.12-0.07 0.25-0.11 0.38-0.11 1.47 0 2.86-0.63 3.74-1.7 0.66-0.78 1.01-1.7 1.01-2.68 0-2.41-2.13-4.38-4.75-4.38z"/>
</svg>
