<?xml version="1.0" encoding="UTF-8"?>
<svg width="24" height="24" viewBox="0 0 24 24" xmlns="http://www.w3.org/2000/svg">
 <path d="m12 19.35c-0.52 0-1.01-0.26-1.36-0.72l-0.90996-1.21h-0.25c-2.71 0-4.51-0.77-4.51-4.51v-3.1401c0-2.68 1.37-4.27 3.86-4.48 0.19-0.02 0.42003-0.02999 0.65003-0.02999h5.03c2.91 0 4.51 1.6 4.51 4.51v3.1401c0 0.24-0.01 0.46-0.04 0.68-0.21 2.46-1.8 3.83-4.48 3.83h-0.25l-0.91 1.21c-0.33 0.46-0.82 0.72-1.34 0.72zm-2.51-12.6c-0.17 0-0.34 0.00999-0.5 0.02999-1.75 0.15-2.52 1.07-2.52 2.99v3.1401c0 2.58 0.75001 3.01 3.01 3.01h0.30999c0.39997 0 0.84997 0.2199 1.1 0.5399l0.95 1.2701c0.06 0.08 0.12 0.12 0.15 0.12s0.09-0.04 0.15-0.12l0.94-1.26c0.26-0.35 0.67-0.55 1.1-0.55h0.31c1.92 0 2.84-0.7701 2.99-2.4901 0.02-0.19 0.03-0.35 0.03-0.53v-3.1399c0-2.08-0.93-3.01-3.01-3.01h-5.01z"/>
 <path d="m15 22.75h-6c-5.43 0-7.75-2.32-7.75-7.75v-6c0-5.43 2.32-7.75 7.75-7.75h6c5.43 0 7.75 2.32 7.75 7.75v6c0 5.43-2.32 7.75-7.75 7.75zm-6-20c-4.61 0-6.25 1.64-6.25 6.25v6c0 4.61 1.64 6.25 6.25 6.25h6c4.61 0 6.25-1.64 6.25-6.25v-6c0-4.61-1.64-6.25-6.25-6.25h-6z"/>
</svg>
