<?xml version="1.0" encoding="UTF-8"?>
<svg width="24" height="24" viewBox="0 0 24 24" xmlns="http://www.w3.org/2000/svg">
 <path d="m12 22.81c-0.69 0-1.34-0.35-1.8-0.96l-1.5-2c-0.03-0.04-0.15-0.1-0.21-0.1h-0.49c-4.17 0-6.75-1.13-6.75-6.75v-5c0-4.42 2.33-6.75 6.75-6.75h4c0.41 0 0.75 0.34 0.75 0.75s-0.34 0.75-0.75 0.75h-4c-3.58 0-5.25 1.67-5.25 5.25v5c0 4.52 1.55 5.25 5.25 5.25h0.5c0.51 0 1.09 0.29 1.4 0.7l1.5 2c0.35 0.46 0.85 0.46 1.2 0l1.5-2c0.33-0.44 0.85-0.7 1.4-0.7h0.5c3.58 0 5.25-1.67 5.25-5.25v-5c0-0.41 0.34-0.75 0.75-0.75s0.75 0.34 0.75 0.75v5c0 4.42-2.33 6.75-6.75 6.75h-0.5c-0.08 0-0.15 0.04-0.2 0.1l-1.5 2c-0.46 0.61-1.11 0.96-1.8 0.96z"/>
 <path d="m12 12c-0.56 0-1-0.45-1-1s0.45-1 1-1 1 0.45 1 1-0.44 1-1 1z"/>
 <path d="m16 12c-0.56 0-1-0.45-1-1s0.45-1 1-1 1 0.45 1 1-0.44 1-1 1z"/>
 <path d="m8 12c-0.56 0-1-0.45-1-1s0.45-1 1-1 1 0.45 1 1-0.44 1-1 1z"/>
 <path d="m18 7.75c-0.86 0-2.89-1.02-3.51-2.89-0.25-0.74-0.19-1.59 0.16-2.26 0.31-0.6 0.8301-1.04 1.4701-1.24 0.65-0.2 1.3399-0.11 1.8799 0.22 0.54-0.33 1.23-0.42 1.89-0.22 0.64 0.2 1.1601 0.64 1.4701 1.24 0.35 0.67 0.41 1.52 0.16 2.26-0.63 1.9-2.7501 2.89-3.5201 2.89zm-2.09-3.37c0.42 1.26 1.8501 1.84 2.1101 1.87 0.29-0.03 1.69-0.68 2.08-1.86 0.12-0.36 0.09-0.79-0.07-1.1-0.13-0.25-0.32-0.41-0.58-0.49-0.28-0.1-0.66-0.05-0.83 0.2-0.14 0.2-0.36 0.32-0.6 0.33-0.24 0-0.4701-0.11-0.6201-0.3-0.21-0.27-0.58-0.31-0.85-0.23-0.26 0.08-0.4499 0.24-0.5799 0.49-0.15 0.31-0.1801 0.73-0.0601 1.09z"/>
</svg>
