<?xml version="1.0" encoding="UTF-8"?>
<svg width="24" height="24" viewBox="0 0 24 24" xmlns="http://www.w3.org/2000/svg">
 <path d="m8 11.75c-0.41 0-0.75-0.34-0.75-0.75v-5c0-2.62 2.13-4.75 4.75-4.75s4.75 2.13 4.75 4.75v0.3c0 0.41-0.34 0.75-0.75 0.75s-0.75-0.34-0.75-0.75v-0.3c0-1.79-1.46-3.25-3.25-3.25s-3.25 1.46-3.25 3.25v5c0 0.41-0.34 0.75-0.75 0.75z"/>
 <path d="m12 16.25c-1.34 0-2.62-0.57-3.52-1.56-0.28-0.31-0.25-0.78 0.05-1.06 0.31-0.28 0.78-0.25 1.06 0.05 0.61005 0.68 1.49 1.07 2.41 1.07 1.79 0 3.25-1.46 3.25-3.25v-0.5c0-0.41 0.34-0.75 0.75-0.75s0.75 0.34 0.75 0.75v0.5c0 2.62-2.13 4.75-4.75 4.75z"/>
 <path d="m12 19.75c-2.13 0-4.17-0.8-5.73-2.25-0.3-0.28-0.32-0.76-0.04-1.06 0.29-0.31 0.77-0.32 1.07-0.04 1.28 1.19 2.95 1.85 4.7 1.85 3.8 0 6.9-3.1 6.9-6.9v-1.7c0-0.41 0.34-0.75 0.75-0.75s0.75 0.34 0.75 0.75v1.7c0 4.63-3.77 8.4-8.4 8.4z"/>
 <path d="m4.9501 15.08c-0.29 0-0.57-0.17-0.69-0.46-0.44-1.04-0.66-2.13-0.66-3.27v-1.7c0-0.41 0.34-0.75 0.75-0.75s0.75 0.34 0.75 0.75v1.7c0 0.93 0.18 1.83 0.54 2.68 0.16 0.38-0.02 0.82-0.4 0.98-0.09 0.05-0.19 0.07-0.29 0.07z"/>
 <path d="m3.9199 19.74c-0.19 0-0.38-0.07-0.53-0.22-0.29-0.29-0.29-0.77 0-1.06l16.15-16.15c0.29-0.29 0.77-0.29 1.06 0s0.29 0.77 0 1.06l-16.14 16.15c-0.15 0.15-0.34 0.22-0.54 0.22z"/>
 <path d="m11 6.75c-0.41 0-0.75-0.34-0.75-0.75v-3c0-0.41 0.34-0.75 0.75-0.75s0.75 0.34 0.75 0.75v3c0 0.41-0.34 0.75-0.75 0.75z"/>
 <path d="m12 22.75c-0.41 0-0.75-0.34-0.75-0.75v-3c0-0.41 0.34-0.75 0.75-0.75s0.75 0.34 0.75 0.75v3c0 0.41-0.34 0.75-0.75 0.75z"/>
</svg>
