<?xml version="1.0" encoding="UTF-8"?>
<svg width="24" height="24" viewBox="0 0 24 24" xmlns="http://www.w3.org/2000/svg">
 <path d="m15.03 11.52c-0.24 0-0.48-0.12-0.62-0.33l-3.2-4.78c-0.11-0.17-0.15-0.36999-0.11-0.55999s0.15-0.37001 0.32-0.48001l5.66-3.79c0.44-0.3 0.97-0.39999 1.49-0.29999s0.97 0.4 1.27 0.84l1.82 2.71c0.61 0.91 0.37 2.15-0.55 2.76l-5.65 3.79c-0.14 0.1-0.28 0.14-0.43 0.14zm-2.15-5.32 2.36 3.53 5.03-3.37c0.23-0.15 0.29-0.46 0.13-0.68l-1.82-2.71c-0.07-0.11-0.18-0.17999-0.31-0.20999s-0.26-2e-5 -0.37 0.06998l-5.02 3.37z"/>
 <path d="m9.9402 14.24c-0.24 0-0.48-0.12-0.62-0.33l-2.56-3.82c-0.23-0.34003-0.14-0.81004 0.21-1.04l4.78-3.2c0.17-0.11 0.37-0.15001 0.56-0.11001 0.2 0.04 0.37 0.15 0.48 0.32l2.56 3.82c0.23 0.34002 0.14 0.81002-0.21 1.04l-4.78 3.2c-0.13 0.08-0.28 0.12-0.41998 0.12zm-1.52-4.36 1.72 2.57 3.53-2.36-1.72-2.58-3.53 2.37z"/>
 <path d="m5.2799 16.82c-0.56 0-1.12-0.27-1.46-0.78l-1.13-1.68c-0.26-0.39-0.35001-0.85-0.26001-1.31s0.35-0.85 0.74-1.11l3.95-2.64c0.34-0.23 0.81-0.13997 1.04 0.21003l2.24 3.34c0.23 0.34 0.14 0.81-0.21 1.04l-3.95 2.64c-0.29 0.19-0.63 0.29-0.96 0.29zm2.05-5.87-3.32 2.22c-0.11 0.08-0.15 0.23-0.07 0.35l1.13 1.68c0.08 0.11 0.23 0.15 0.35 0.07l3.32-2.22-1.41-2.1z"/>
 <path d="m7.5602 22.75c-0.1 0-0.20999-0.02-0.30999-0.07-0.38-0.17-0.54001-0.6199-0.37001-0.9899l4.49-9.8c0.17-0.38 0.62-0.5401 0.99-0.3701 0.38 0.17 0.54 0.6201 0.37 0.9901l-4.49 9.7999c-0.13 0.28-0.4 0.44-0.68 0.44z"/>
 <path d="m16.44 22.75c-0.29 0-0.56-0.16-0.68-0.44l-4.44-9.8c-0.17-0.38 0-0.82 0.37-0.99s0.82 0 0.99 0.37l4.44 9.8c0.17 0.38 0 0.82-0.37 0.99-0.1 0.05-0.2 0.07-0.31 0.07z"/>
</svg>
