<?xml version="1.0" encoding="UTF-8"?>
<svg width="24" height="24" viewBox="0 0 24 24" xmlns="http://www.w3.org/2000/svg">
 <path d="m12 16.25c-2.62 0-4.75-2.13-4.75-4.75v-5.5c0-2.62 2.13-4.75 4.75-4.75s4.75 2.13 4.75 4.75v5.5c0 2.62-2.13 4.75-4.75 4.75zm0-13.5c-1.79 0-3.25 1.46-3.25 3.25v5.5c0 1.79 1.46 3.25 3.25 3.25s3.25-1.46 3.25-3.25v-5.5c0-1.79-1.46-3.25-3.25-3.25z"/>
 <path d="m12 19.75c-4.63 0-8.4-3.77-8.4-8.4v-1.7c0-0.41 0.34-0.75 0.75-0.75s0.75 0.34 0.75 0.75v1.7c0 3.8 3.1 6.9 6.9 6.9s6.9-3.1 6.9-6.9v-1.7c0-0.41 0.34-0.75 0.75-0.75s0.75 0.34 0.75 0.75v1.7c0 4.63-3.77 8.4-8.4 8.4z"/>
 <path d="m13.39 7.1801c-0.08 0-0.17-0.01-0.26-0.04-0.73-0.27-1.53-0.27-2.26 0-0.39 0.14-0.82-0.06-0.96002-0.45-0.14-0.39 0.06-0.82 0.45002-0.96 1.06-0.38 2.23-0.38 3.29 0 0.39 0.14 0.59 0.57 0.45 0.96-0.12 0.3-0.41 0.49-0.71 0.49z"/>
 <path d="m12.8 9.3001c-0.07 0-0.13-0.01-0.2-0.03-0.4-0.11-0.81-0.11-1.21 0s-0.81-0.13-0.92-0.53c-0.11-0.39 0.13-0.8 0.53-0.91 0.65-0.18 1.35-0.18 2 0 0.4 0.11 0.64 0.52 0.53 0.92-0.09 0.33-0.4 0.55-0.73 0.55z"/>
 <path d="m12 22.75c-0.41 0-0.75-0.34-0.75-0.75v-3c0-0.41 0.34-0.75 0.75-0.75s0.75 0.34 0.75 0.75v3c0 0.41-0.34 0.75-0.75 0.75z"/>
</svg>
