<svg width="24" height="24" viewBox="0 0 24 24"  xmlns="http://www.w3.org/2000/svg">
<path d="M7.38994 17.59C7.17994 17.59 6.95994 17.5 6.80994 17.32C5.79994 16.11 5.24994 14.58 5.24994 13V8C5.24994 4.28 8.27994 1.25 11.9999 1.25C15.0999 1.25 17.7899 3.35 18.5499 6.35C18.6499 6.75 18.4099 7.16 18.0099 7.26C17.6199 7.36 17.1999 7.12 17.0999 6.72C16.4999 4.38 14.4099 2.75 11.9999 2.75C9.10994 2.75 6.74994 5.1 6.74994 8V13C6.74994 14.23 7.17994 15.42 7.95994 16.36C8.22994 16.68 8.17994 17.15 7.85994 17.42C7.72994 17.53 7.55994 17.59 7.38994 17.59Z" />
<path d="M11.9999 19.75C11.1899 19.75 10.3999 19.61 9.65994 19.33C9.26994 19.19 9.06994 18.75 9.21994 18.37C9.35994 17.98 9.79994 17.78 10.1799 17.93C10.7599 18.15 11.3799 18.26 11.9999 18.26C14.8899 18.26 17.2499 15.91 17.2499 13.01V9.98C17.2499 9.57 17.5899 9.23 17.9999 9.23C18.4099 9.23 18.7499 9.57 18.7499 9.98V13C18.7499 16.72 15.7199 19.75 11.9999 19.75Z" />
<path d="M11.9999 22.75C9.51994 22.75 7.15994 21.82 5.34994 20.13C5.04994 19.85 5.02994 19.37 5.30994 19.07C5.58994 18.77 6.06994 18.75 6.36994 19.03C7.89994 20.46 9.89994 21.24 11.9899 21.24C16.5399 21.24 20.2399 17.54 20.2399 12.99V10.99C20.2399 10.58 20.5799 10.24 20.9899 10.24C21.3999 10.24 21.7399 10.58 21.7399 10.99V12.99C21.7499 18.38 17.3799 22.75 11.9999 22.75Z" />
<path d="M2.49994 22.74C2.30994 22.74 2.11994 22.67 1.96994 22.52C1.67994 22.23 1.67994 21.75 1.96994 21.46L20.9699 2.46C21.2599 2.17 21.7399 2.17 22.0299 2.46C22.3199 2.75 22.3199 3.23 22.0299 3.52L3.02994 22.52C2.87994 22.67 2.68994 22.74 2.49994 22.74Z" />
<path d="M11.5499 6.25C11.1399 6.25 10.7999 5.91 10.7999 5.5V2.26C10.7999 1.85 11.1399 1.51 11.5499 1.51C11.9599 1.51 12.2999 1.85 12.2999 2.26V5.5C12.2999 5.92 11.9599 6.25 11.5499 6.25Z" />
<path d="M8.49994 8.25C8.08994 8.25 7.74994 7.91 7.74994 7.5V3.5C7.74994 3.09 8.08994 2.75 8.49994 2.75C8.90994 2.75 9.24994 3.09 9.24994 3.5V7.5C9.24994 7.91 8.90994 8.25 8.49994 8.25Z" />
</svg>
