<svg width="24" height="24" viewBox="0 0 24 24"  xmlns="http://www.w3.org/2000/svg">
<path d="M12.0001 16.25C9.3801 16.25 7.2501 14.12 7.2501 11.5V6C7.2501 3.38 9.3801 1.25 12.0001 1.25C14.6201 1.25 16.7501 3.38 16.7501 6V11.5C16.7501 14.12 14.6201 16.25 12.0001 16.25ZM12.0001 2.75C10.2101 2.75 8.7501 4.21 8.7501 6V11.5C8.7501 13.29 10.2101 14.75 12.0001 14.75C13.7901 14.75 15.2501 13.29 15.2501 11.5V6C15.2501 4.21 13.7901 2.75 12.0001 2.75Z" />
<path d="M12.0001 19.75C7.3701 19.75 3.6001 15.98 3.6001 11.35V9.65C3.6001 9.24 3.9401 8.9 4.3501 8.9C4.7601 8.9 5.1001 9.24 5.1001 9.65V11.35C5.1001 15.15 8.2001 18.25 12.0001 18.25C15.8001 18.25 18.9001 15.15 18.9001 11.35V9.65C18.9001 9.24 19.2401 8.9 19.6501 8.9C20.0601 8.9 20.4001 9.24 20.4001 9.65V11.35C20.4001 15.98 16.6301 19.75 12.0001 19.75Z" />
<path d="M13.3901 7.18C13.3101 7.18 13.2201 7.17 13.1301 7.14C12.4001 6.87 11.6001 6.87 10.8701 7.14C10.4801 7.28 10.0501 7.08 9.9101 6.69C9.7701 6.3 9.9701 5.87 10.3601 5.73C11.4201 5.35 12.5901 5.35 13.6501 5.73C14.0401 5.87 14.2401 6.3 14.1001 6.69C13.9801 6.99 13.6901 7.18 13.3901 7.18Z" />
<path d="M12.8001 9.3C12.7301 9.3 12.6701 9.29 12.6001 9.27C12.2001 9.16 11.7901 9.16 11.3901 9.27C10.9901 9.38 10.5801 9.14 10.4701 8.74C10.3601 8.35 10.6001 7.94 11.0001 7.83C11.6501 7.65 12.3501 7.65 13.0001 7.83C13.4001 7.94 13.6401 8.35 13.5301 8.75C13.4401 9.08 13.1301 9.3 12.8001 9.3Z" />
<path d="M12.0001 22.75C11.5901 22.75 11.2501 22.41 11.2501 22V19C11.2501 18.59 11.5901 18.25 12.0001 18.25C12.4101 18.25 12.7501 18.59 12.7501 19V22C12.7501 22.41 12.4101 22.75 12.0001 22.75Z" />
</svg>
