<?xml version="1.0" encoding="UTF-8"?>
<svg width="24" height="24" viewBox="0 0 24 24" xmlns="http://www.w3.org/2000/svg">
 <path d="m7.39 17.59c-0.21 0-0.43-0.09-0.58-0.27-1.01-1.21-1.56-2.74-1.56-4.32v-5c0-3.72 3.03-6.75 6.75-6.75 3.1 0 5.79 2.1 6.55 5.1 0.1 0.4-0.14 0.81-0.54 0.91-0.39 0.1-0.81-0.14-0.91-0.54-0.6-2.34-2.69-3.97-5.1-3.97-2.89 0-5.25 2.35-5.25 5.25v5c0 1.23 0.43 2.42 1.21 3.36 0.27 0.32 0.22 0.79-0.1 1.06-0.13 0.11-0.3 0.17-0.47 0.17z"/>
 <path d="m12 19.75c-0.81 0-1.6-0.14-2.34-0.42-0.39-0.14-0.59-0.58-0.44-0.96 0.14-0.39 0.58-0.59 0.95996-0.44 0.58 0.22 1.2 0.33 1.82 0.33 2.89 0 5.25-2.35 5.25-5.25v-3.03c0-0.41 0.34-0.75 0.75-0.75s0.75 0.34 0.75 0.75v3.02c0 3.72-3.03 6.75-6.75 6.75z"/>
 <path d="m12 22.75c-2.48 0-4.84-0.93-6.65-2.62-0.3-0.28-0.32-0.76-0.04-1.06s0.76-0.32 1.06-0.04c1.53 1.43 3.53 2.21 5.62 2.21 4.55 0 8.25-3.7 8.25-8.25v-2c0-0.41 0.34-0.75 0.75-0.75s0.75 0.34 0.75 0.75v2c0.01 5.39-4.36 9.76-9.74 9.76z"/>
 <path d="m2.4999 22.74c-0.19 0-0.38-0.07-0.53-0.22-0.29-0.29-0.29-0.77 0-1.06l19-19c0.29-0.29 0.77-0.29 1.06 0s0.29 0.77 0 1.06l-19 19c-0.15 0.15-0.34 0.22-0.53 0.22z"/>
 <path d="m11.55 6.25c-0.41 0-0.75-0.34-0.75-0.75v-3.24c0-0.41 0.34-0.75 0.75-0.75s0.75 0.34 0.75 0.75v3.24c0 0.42-0.34 0.75-0.75 0.75z"/>
 <path d="m8.5 8.25c-0.41 0-0.75-0.34-0.75-0.75v-4c0-0.41 0.34-0.75 0.75-0.75s0.75 0.34 0.75 0.75v4c0 0.41-0.34 0.75-0.75 0.75z"/>
</svg>
