<svg width="24" height="24" viewBox="0 0 24 24"  xmlns="http://www.w3.org/2000/svg">
<path d="M16.4201 6.42014V7.58014L9.14008 14.8601C8.18008 13.9901 7.58008 12.7101 7.58008 11.3401V6.42014C7.58008 4.36014 8.98008 2.65014 10.8801 2.16014C11.0701 2.11014 11.2501 2.27014 11.2501 2.46014V4.00014C11.2501 4.41014 11.5901 4.75014 12.0001 4.75014C12.4101 4.75014 12.7501 4.41014 12.7501 4.00014V2.46014C12.7501 2.27014 12.9301 2.11014 13.1201 2.16014C15.0201 2.65014 16.4201 4.36014 16.4201 6.42014Z" />
<path opacity="0.4" d="M7.77994 16.2201L6.78994 17.2101C5.19994 15.7801 4.18994 13.7101 4.18994 11.4001V9.81012C4.18994 9.43012 4.49994 9.12012 4.87994 9.12012C5.26994 9.12012 5.57994 9.43012 5.57994 9.81012V11.4001C5.57994 13.3201 6.42994 15.0501 7.77994 16.2201Z" />
<path opacity="0.4" d="M19.81 9.81012V11.4001C19.81 15.4701 16.68 18.8201 12.7 19.1701V21.3001C12.7 21.6901 12.39 22.0001 12 22.0001C11.61 22.0001 11.3 21.6901 11.3 21.3001V19.1701C10.21 19.0701 9.18001 18.7501 8.26001 18.2401L9.29001 17.2101C10.11 17.5901 11.03 17.8101 12 17.8101C15.54 17.8101 18.42 14.9301 18.42 11.4001V9.81012C18.42 9.43012 18.73 9.12012 19.12 9.12012C19.5 9.12012 19.81 9.43012 19.81 9.81012Z" />
<path opacity="0.4" d="M16.42 10.0801V11.5301C16.42 14.1101 14.2 16.1801 11.56 15.9301C11.28 15.9001 11 15.8501 10.74 15.7601L16.42 10.0801Z" />
<path d="M21.7699 2.22988C21.4699 1.92988 20.9799 1.92988 20.6799 2.22988L2.22988 20.6899C1.92988 20.9899 1.92988 21.4799 2.22988 21.7799C2.37988 21.9199 2.56988 21.9999 2.76988 21.9999C2.96988 21.9999 3.15988 21.9199 3.30988 21.7699L21.7699 3.30988C22.0799 3.00988 22.0799 2.52988 21.7699 2.22988Z" />
</svg>
