<?xml version="1.0" encoding="UTF-8"?>
<svg width="24" height="24" viewBox="0 0 24 24" xmlns="http://www.w3.org/2000/svg">
 <path d="m12 19.75c-3.72 0-6.75-3.03-6.75-6.75v-5c0-3.72 3.03-6.75 6.75-6.75s6.75 3.03 6.75 6.75v5c0 3.72-3.03 6.75-6.75 6.75zm0-17c-2.89 0-5.25 2.35-5.25 5.25v5c0 2.9 2.36 5.25 5.25 5.25s5.25-2.35 5.25-5.25v-5c0-2.9-2.36-5.25-5.25-5.25z"/>
 <path d="m12 22.75c-5.38 0-9.75-4.37-9.75-9.75v-2c0-0.41 0.34-0.75 0.75-0.75s0.75 0.34 0.75 0.75v2c0 4.55 3.7 8.25 8.25 8.25s8.25-3.7 8.25-8.25v-2c0-0.41 0.34-0.75 0.75-0.75s0.75 0.34 0.75 0.75v2c0 5.38-4.37 9.75-9.75 9.75z"/>
 <path d="m14.61 8.2299c-0.08 0-0.17-0.01-0.26-0.04-1.61-0.58-3.38-0.58-4.99 0-0.38 0.14-0.81-0.06-0.95-0.45s0.06-0.82 0.45-0.96c1.94-0.7 4.07-0.7 6.01 0 0.39 0.14 0.59 0.57 0.45 0.96-0.11 0.31-0.4 0.49-0.71 0.49z"/>
 <path d="m13.7 11.23c-0.06 0-0.13-0.01-0.2-0.03-1.07-0.29-2.2-0.29-3.27 0-0.40998 0.11-0.80998-0.13-0.91998-0.53s0.13-0.81002 0.53-0.92002c1.33-0.36 2.73-0.36 4.06 0 0.4 0.11 0.64 0.52002 0.53 0.92002-0.1 0.35-0.4 0.56-0.73 0.56z"/>
</svg>
