<?xml version="1.0" encoding="UTF-8"?>
<svg width="24" height="24" viewBox="0 0 24 24" xmlns="http://www.w3.org/2000/svg">
 <path d="m15 22.75h-6c-2.07 0-3.75-1.68-3.75-3.75v-5.02c0-0.2 0.07997-0.39 0.21997-0.53s0.33003-0.22 0.53003-0.22l3.89 0.02c0.83999 0 1.68 0.2 2.44 0.58 0.56 0.28 1.16 0.42 1.79 0.42h3.88c0.41 0 0.75 0.34 0.75 0.75v4c0 2.07-1.68 3.75-3.75 3.75zm-8.25-8.02v4.27c0 1.24 1.01 2.25 2.25 2.25h6c1.24 0 2.25-1.01 2.25-2.25v-3.25h-3.13c-0.86 0-1.69-0.19-2.46-0.58-0.56-0.28-1.16-0.42-1.77-0.42l-3.14-0.02z"/>
 <path d="m18 15.75h-3.88c-0.86 0-1.69-0.19-2.46-0.58-0.56-0.28-1.16-0.42-1.77-0.42l-3.89-0.02c-0.41 0-0.75-0.34-0.75-0.75v-3.15c0-0.66 0.34-1.48 0.81-1.95l2.12-2.12c0.04-0.04 0.07001-0.10999 0.07001-0.16999v-1.59c0-0.41 0.34-0.75 0.75-0.75h6c0.41 0 0.75 0.34 0.75 0.75v1.59c0 0.06 0.03 0.12999 0.07 0.16999l2.12 2.12c0.47 0.47 0.81 1.29 0.81 1.95v4.17c0 0.41-0.34 0.75-0.75 0.75zm-11.25-2.52 3.14 0.02c0.83999 0 1.68 0.2 2.44 0.58 0.56 0.28 1.16 0.42 1.79 0.42h3.13v-3.42c0-0.26-0.18-0.7-0.37-0.89l-2.12-2.12c-0.32-0.32-0.51-0.77001-0.51-1.23v-0.84h-4.5v0.84c0 0.46-0.19001 0.91001-0.51001 1.23l-2.12 2.12c-0.19 0.19-0.37 0.63-0.37 0.89v2.4z"/>
 <path d="m18 16.75c-0.41 0-0.75-0.34-0.75-0.75v-1c0-0.41 0.34-0.75 0.75-0.75s0.75 0.34 0.75 0.75v1c0 0.41-0.34 0.75-0.75 0.75z"/>
 <path d="m6 15.73c-0.41 0-0.75-0.34-0.75-0.75v-1c0-0.41 0.34-0.75 0.75-0.75s0.75 0.34 0.75 0.75v1c0 0.41-0.34 0.75-0.75 0.75z"/>
 <path d="m14.5 5.75h-5c-1.24 0-2.25-1.01-2.25-2.25s1.01-2.25 2.25-2.25h5c1.24 0 2.25 1.01 2.25 2.25s-1.01 2.25-2.25 2.25zm-5-3c-0.41 0-0.75 0.34-0.75 0.75s0.34 0.75 0.75 0.75h5c0.41 0 0.75-0.34 0.75-0.75s-0.34-0.75-0.75-0.75h-5z"/>
</svg>
