<svg width="24" height="24" viewBox="0 0 24 24"  xmlns="http://www.w3.org/2000/svg">
<path opacity="0.4" d="M16.48 2H8.52C5.07 2 3 4.06 3 7.52V15.47C3 18.94 5.07 21 8.52 21H16.47C19.93 21 21.99 18.94 21.99 15.48V7.52C22 4.06 19.93 2 16.48 2Z" />
<path d="M11 16.15V18.85C11 21.1 10.1 22 7.85 22H5.15C2.9 22 2 21.1 2 18.85V16.15C2 13.9 2.9 13 5.15 13H7.85C10.1 13 11 13.9 11 16.15Z" />
<path d="M12.2625 11.05C12.2625 11.14 12.2825 11.22 12.3125 11.31C12.3125 11.32 12.3225 11.33 12.3225 11.33C12.3525 11.4 12.4025 11.47 12.4525 11.52C12.4725 11.54 12.4925 11.56 12.5125 11.57C12.5625 11.61 12.6125 11.65 12.6625 11.67C12.6825 11.68 12.7125 11.69 12.7325 11.7C12.8125 11.73 12.9025 11.75 12.9925 11.75L17.0125 11.75C17.4225 11.75 17.7625 11.41 17.7625 11C17.7625 10.59 17.4325 10.28 17.0125 10.28L14.8025 10.28L18.5425 6.53C18.8325 6.24 18.8325 5.76 18.5425 5.47C18.3925 5.32 18.2025 5.25 18.0125 5.25C17.8225 5.25 17.6325 5.32 17.4825 5.47L13.7525 9.21L13.7525 7.01C13.7525 6.6 13.4125 6.26 13.0025 6.26C12.5925 6.26 12.2525 6.6 12.2525 7.01L12.2525 11.03C12.2525 11.04 12.2525 11.04 12.2625 11.05Z" />
</svg>
