<?xml version="1.0" encoding="UTF-8"?>
<svg width="24" height="24" viewBox="0 0 24 24" xmlns="http://www.w3.org/2000/svg">
 <path d="m11 22.75h-2c-5.43 0-7.75-2.32-7.75-7.75v-6c0-5.43 2.32-7.75 7.75-7.75h6c5.43 0 7.75 2.32 7.75 7.75v1c0 0.41-0.34 0.75-0.75 0.75s-0.75-0.34-0.75-0.75v-1c0-4.61-1.64-6.25-6.25-6.25h-6c-4.61 0-6.25 1.64-6.25 6.25v6c0 4.61 1.64 6.25 6.25 6.25h2c0.41 0 0.75 0.34 0.75 0.75s-0.34 0.75-0.75 0.75z"/>
 <path d="m15.27 22.75c-1.21 0-2.19-0.98-2.19-2.19s0.98-2.19 2.19-2.19 2.19 0.98 2.19 2.19-0.98 2.19-2.19 2.19zm0-2.89c-0.38 0-0.69 0.31-0.69 0.69s0.31 0.69 0.69 0.69 0.69-0.31 0.69-0.69-0.31-0.69-0.69-0.69z"/>
 <path d="m16.71 21.31c-0.41 0-0.75-0.34-0.75-0.75v-5.82c0-0.91 0.56-1.65 1.44-1.88l2.89-0.79c0.9-0.25 1.46-0.01 1.78 0.23 0.31 0.24 0.68 0.7201 0.68 1.6501v5.64c0 0.41-0.34 0.75-0.75 0.75s-0.75-0.34-0.75-0.75v-5.64c0-0.32-0.07-0.4401-0.1-0.4601s-0.17-0.06-0.48 0.02l-2.89 0.79c-0.3 0.08-0.33 0.29-0.33 0.44v5.82c0.01 0.41-0.33 0.75-0.74 0.75z"/>
 <path d="m20.56 21.79c-1.21 0-2.19-0.98-2.19-2.19s0.98-2.19 2.19-2.19 2.19 0.98 2.19 2.19-0.98 2.19-2.19 2.19zm0-2.89c-0.38 0-0.69 0.31-0.69 0.69s0.31 0.69 0.69 0.69 0.69-0.31 0.69-0.69-0.31-0.69-0.69-0.69z"/>
 <path d="m16.71 17.18c-0.33 0-0.63-0.22-0.72-0.55-0.11-0.4 0.13-0.81 0.53-0.92l5.29-1.44c0.4-0.11 0.81 0.13 0.92 0.53s-0.13 0.81-0.53 0.92l-5.29 1.44c-0.07 0.01-0.14 0.02-0.2 0.02z"/>
</svg>
