<svg width="24" height="24" viewBox="0 0 24 24"  xmlns="http://www.w3.org/2000/svg">
<path d="M15 22.75H14C13.59 22.75 13.25 22.41 13.25 22C13.25 21.59 13.59 21.25 14 21.25H15C19.61 21.25 21.25 19.61 21.25 15V9C21.25 4.39 19.61 2.75 15 2.75H9C4.39 2.75 2.75 4.39 2.75 9V9.98C2.75 10.39 2.41 10.73 2 10.73C1.59 10.73 1.25 10.39 1.25 9.98V9C1.25 3.57 3.57 1.25 9 1.25H15C20.43 1.25 22.75 3.57 22.75 9V15C22.75 20.43 20.43 22.75 15 22.75Z" />
<path d="M18.0123 5.22C18.2023 5.22 18.3923 5.29 18.5423 5.44C18.8323 5.73 18.8323 6.21 18.5423 6.5L14.8023 10.25H17.0123C17.4223 10.25 17.7623 10.59 17.7623 11C17.7623 11.41 17.4323 11.75 17.0123 11.75H13.0023C12.7023 11.75 12.4223 11.57 12.3123 11.29C12.1923 11.01 12.2623 10.69 12.4723 10.47L17.4823 5.44C17.6323 5.29 17.8223 5.22 18.0123 5.22Z" />
<path d="M13.0024 6.23C13.4124 6.23 13.7524 6.57 13.7524 6.98V11C13.7524 11.41 13.4123 11.75 13.0023 11.75C12.5923 11.75 12.2524 11.41 12.2524 11V6.99C12.2524 6.57 12.5924 6.23 13.0024 6.23Z" />
<path d="M7.85 22.75H5.15C2.49 22.75 1.25 21.51 1.25 18.85V16.15C1.25 13.49 2.49 12.25 5.15 12.25H7.85C10.51 12.25 11.75 13.49 11.75 16.15V18.85C11.75 21.51 10.51 22.75 7.85 22.75ZM5.15 13.75C3.31 13.75 2.75 14.31 2.75 16.15V18.85C2.75 20.69 3.31 21.25 5.15 21.25H7.85C9.69 21.25 10.25 20.69 10.25 18.85V16.15C10.25 14.31 9.69 13.75 7.85 13.75H5.15Z" />
</svg>
