<?xml version="1.0" encoding="UTF-8"?>
<svg width="24" height="24" viewBox="0 0 24 24" xmlns="http://www.w3.org/2000/svg">
 <path d="m17 21.75h-1c-0.41 0-0.75-0.34-0.75-0.75s0.34-0.75 0.75-0.75h1c2.58 0 4.25-1.67 4.25-4.25v-8c0-2.58-1.67-4.25-4.25-4.25h-10c-2.58 0-4.25 1.67-4.25 4.25v1c0 0.41-0.34 0.75-0.75 0.75s-0.75-0.34-0.75-0.75v-1c0-3.44 2.31-5.75 5.75-5.75h10c3.44 0 5.75 2.31 5.75 5.75v8c0 3.44-2.31 5.75-5.75 5.75z"/>
 <path d="m12.29 21.06c-0.37 0-0.69-0.28-0.74-0.65-0.55-4.28-3.67-7.41-7.96-7.96-0.41-0.05-0.69999-0.43-0.64999-0.84s0.42999-0.7 0.83999-0.65c4.98 0.64 8.62 4.27 9.25 9.25 0.05 0.41-0.24 0.79-0.65 0.84-0.02 0.01-0.06 0.01-0.09 0.01z"/>
 <path d="m8.9299 22.13c-0.37 0-0.68999-0.28-0.73999-0.65-0.39-3.05-2.62-5.2801-5.67-5.6701-0.41-0.05-0.70001-0.4299-0.65001-0.8399s0.43001-0.7 0.84001-0.65c3.75 0.48 6.48 3.22 6.96 6.96 0.05 0.41-0.24 0.7899-0.65 0.8399-0.03 0.01-0.06001 0.0101-0.09001 0.0101z"/>
 <path d="m5.1302 22.77c-0.37 0-0.69-0.28-0.74-0.65-0.17-1.35-1.16-2.34-2.51-2.51-0.41-0.05-0.70001-0.43-0.65001-0.84s0.43002-0.7 0.84002-0.65c2.02 0.26 3.55 1.79 3.81 3.81 0.05 0.41-0.24001 0.79-0.65001 0.84h-0.09999z"/>
</svg>
