<?xml version="1.0" encoding="UTF-8"?>
<svg width="24" height="24" viewBox="0 0 24 24" xmlns="http://www.w3.org/2000/svg">
 <path d="m15 22.75h-6c-4.41 0-5.75-1.34-5.75-5.75v-10c0-4.41 1.34-5.75 5.75-5.75h6c4.41 0 5.75 1.34 5.75 5.75v10c0 4.41-1.34 5.75-5.75 5.75zm-6-20c-3.58 0-4.25 0.68-4.25 4.25v10c0 3.57 0.67 4.25 4.25 4.25h6c3.58 0 4.25-0.68 4.25-4.25v-10c0-3.57-0.67-4.25-4.25-4.25h-6z"/>
 <path d="m14 6.25h-4c-0.41 0-0.75-0.34-0.75-0.75s0.34-0.75 0.75-0.75h4c0.41 0 0.75 0.34 0.75 0.75s-0.34 0.75-0.75 0.75z"/>
 <path d="m12 19.86c-1.27 0-2.3-1.03-2.3-2.3s1.03-2.3 2.3-2.3 2.3 1.03 2.3 2.3-1.03 2.3-2.3 2.3zm0-3.11c-0.44 0-0.8 0.36-0.8 0.8s0.36 0.8 0.8 0.8 0.8-0.36 0.8-0.8-0.36-0.8-0.8-0.8z"/>
</svg>
