<svg width="24" height="24" viewBox="0 0 24 24"  xmlns="http://www.w3.org/2000/svg">
<path d="M13.4999 5.75024H10.4799C9.25993 5.75024 8.24993 4.76022 8.22993 3.54022L8.19993 2.01025C8.18993 1.60025 8.51991 1.25023 8.92991 1.24023C8.93991 1.24023 8.93993 1.24023 8.94993 1.24023C9.35993 1.24023 9.68993 1.57021 9.69993 1.97021L9.72993 3.50024C9.73993 3.90024 10.0799 4.24023 10.4799 4.24023H13.4999C13.9199 4.24023 14.2499 3.90023 14.2499 3.49023V2.00024C14.2499 1.59024 14.5899 1.25024 14.9999 1.25024C15.4099 1.25024 15.7499 1.59024 15.7499 2.00024V3.50024C15.7499 4.74024 14.7399 5.75024 13.4999 5.75024Z" />
<path d="M16.9999 21.7502C16.8099 21.7502 16.6199 21.6802 16.4699 21.5302L14.4699 19.5302C14.1799 19.2402 14.1799 18.7602 14.4699 18.4702L16.4699 16.4702C16.7599 16.1802 17.2399 16.1802 17.5299 16.4702C17.8199 16.7602 17.8199 17.2402 17.5299 17.5302L16.0599 19.0002L17.5299 20.4702C17.8199 20.7602 17.8199 21.2402 17.5299 21.5302C17.3799 21.6802 17.1899 21.7502 16.9999 21.7502Z" />
<path d="M19.9999 21.7502C19.8099 21.7502 19.6199 21.6802 19.4699 21.5302C19.1799 21.2402 19.1799 20.7602 19.4699 20.4702L20.9399 19.0002L19.4699 17.5302C19.1799 17.2402 19.1799 16.7602 19.4699 16.4702C19.7599 16.1802 20.2399 16.1802 20.5299 16.4702L22.5299 18.4702C22.8199 18.7602 22.8199 19.2402 22.5299 19.5302L20.5299 21.5302C20.3799 21.6802 20.1899 21.7502 19.9999 21.7502Z" />
<path d="M13 22.7502H8C4.35 22.7502 2.25 20.6502 2.25 17.0002V7.00024C2.25 3.35024 4.35 1.25024 8 1.25024H16C19.65 1.25024 21.75 3.35024 21.75 7.00024V14.0002C21.75 14.4102 21.41 14.7502 21 14.7502C20.59 14.7502 20.25 14.4102 20.25 14.0002V7.00024C20.25 4.14024 18.86 2.75024 16 2.75024H8C5.14 2.75024 3.75 4.14024 3.75 7.00024V17.0002C3.75 19.8602 5.14 21.2502 8 21.2502H13C13.41 21.2502 13.75 21.5902 13.75 22.0002C13.75 22.4102 13.41 22.7502 13 22.7502Z" />
</svg>
