<?xml version="1.0" encoding="UTF-8"?>
<svg width="24" height="24" viewBox="0 0 24 24" xmlns="http://www.w3.org/2000/svg">
 <path d="m13.5 5.7502h-3.02c-1.22 0-2.23-0.99002-2.25-2.21l-0.03-1.53c-0.01-0.41 0.31998-0.76002 0.72998-0.77002h0.02002c0.41 0 0.74 0.32998 0.75 0.72998l0.03 1.53c0.01 0.4 0.34997 0.73999 0.74997 0.73999h3.02c0.42 0 0.75-0.34 0.75-0.75v-1.49c0-0.41 0.34-0.75 0.75-0.75s0.75 0.34 0.75 0.75v1.5c0 1.24-1.01 2.25-2.25 2.25z"/>
 <path d="m17 21.75c-0.19 0-0.38-0.07-0.53-0.22l-2-2c-0.29-0.29-0.29-0.77 0-1.06l2-2c0.29-0.29 0.77-0.29 1.06 0s0.29 0.77 0 1.06l-1.47 1.47 1.47 1.47c0.29 0.29 0.29 0.77 0 1.06-0.15 0.15-0.34 0.22-0.53 0.22z"/>
 <path d="m20 21.75c-0.19 0-0.38-0.07-0.53-0.22-0.29-0.29-0.29-0.77 0-1.06l1.47-1.47-1.47-1.47c-0.29-0.29-0.29-0.77 0-1.06s0.77-0.29 1.06 0l2 2c0.29 0.29 0.29 0.77 0 1.06l-2 2c-0.15 0.15-0.34 0.22-0.53 0.22z"/>
 <path d="m13 22.75h-5c-3.65 0-5.75-2.1-5.75-5.75v-10c0-3.65 2.1-5.75 5.75-5.75h8c3.65 0 5.75 2.1 5.75 5.75v7c0 0.41-0.34 0.75-0.75 0.75s-0.75-0.34-0.75-0.75v-7c0-2.86-1.39-4.25-4.25-4.25h-8c-2.86 0-4.25 1.39-4.25 4.25v10c0 2.86 1.39 4.25 4.25 4.25h5c0.41 0 0.75 0.34 0.75 0.75s-0.34 0.75-0.75 0.75z"/>
</svg>
