<?xml version="1.0" encoding="UTF-8"?>
<svg width="24" height="24" viewBox="0 0 24 24" xmlns="http://www.w3.org/2000/svg">
 <path d="m12 22.75c-4.7 0-8.82-3.01-10.24-7.48-0.07-0.23-0.03-0.47 0.11-0.67 0.14-0.19 0.36-0.31 0.6-0.31l3.79-0.03v-5.26c0-0.32 0.2-0.6 0.49-0.71 0.3-0.11 0.63-0.02 0.83 0.23l4.42 5.31 4.42-5.31c0.2-0.24 0.54-0.33 0.83-0.23 0.3 0.11 0.49 0.39 0.49 0.71v5.25h3.79c0.24 0 0.46 0.11 0.6 0.31 0.14 0.19 0.18 0.44 0.11 0.67-1.4 4.5-5.53 7.52-10.24 7.52zm-8.45-6.97c1.48 3.31 4.75 5.47 8.45 5.47 3.71 0 6.99-2.17 8.46-5.5h-3.46c-0.41 0-0.75-0.34-0.75-0.75v-3.93l-3.67 4.41c-0.29 0.34-0.87 0.34-1.15 0l-3.67-4.41v3.93c0 0.41-0.33 0.75-0.74 0.75l-3.47 0.03z"/>
 <path d="m2.47 15.79c-0.33 0-0.62-0.21-0.72-0.53-0.33-1.07-0.5-2.17-0.5-3.26 0-5.93 4.82-10.75 10.75-10.75s10.75 4.82 10.75 10.75c0 1.1-0.17 2.19-0.49 3.23-0.1 0.31-0.39 0.52-0.72 0.52h-4.54c-0.41 0-0.75-0.34-0.75-0.75v-3.93l-3.67 4.41c-0.29 0.34-0.87 0.34-1.15 0l-3.67-4.41v3.93c0 0.41-0.33 0.75-0.74 0.75l-4.55 0.04zm9.53-13.04c-5.1 0-9.25 4.15-9.25 9.25 0 0.76 0.1 1.53 0.29 2.29l3.21-0.03v-5.26c0-0.32 0.2-0.6 0.49-0.71 0.3-0.11 0.63-0.02 0.83 0.23l4.43 5.31 4.42-5.31c0.2-0.24 0.54-0.33 0.83-0.23 0.3 0.11 0.49 0.39 0.49 0.71v5.25h3.22c0.18-0.73 0.28-1.49 0.28-2.25 0.01-5.1-4.14-9.25-9.24-9.25z"/>
</svg>
