<?xml version="1.0" encoding="UTF-8"?>
<svg width="24" height="24" viewBox="0 0 24 24" xmlns="http://www.w3.org/2000/svg">
 <path d="m13.05 16.25h-1.88c-1.33 0-2.42-1.12-2.42-2.5 0-0.41 0.34-0.75 0.75-0.75s0.75 0.34 0.75 0.75c0 0.55 0.41 1 0.92 1h1.88c0.39 0 0.7-0.35 0.7-0.78 0-0.54-0.15-0.62-0.49-0.74l-3.01-1.05c-0.64-0.23-1.5-0.69-1.5-2.16 0-1.25 0.99001-2.28 2.2-2.28h1.88c1.33 0 2.42 1.12 2.42 2.5 0 0.41-0.34 0.75-0.75 0.75s-0.75-0.34-0.75-0.75c0-0.55001-0.41-1-0.92-1h-1.88c-0.39 0-0.7 0.35-0.7 0.78001 0 0.54 0.15 0.62 0.49 0.74l3.01 1.05c0.64 0.23 1.5 0.69 1.5 2.16 0 1.26-0.99 2.28-2.2 2.28z"/>
 <path d="m12 17.25c-0.41 0-0.75-0.34-0.75-0.75v-9c0-0.41 0.34-0.75 0.75-0.75s0.75 0.34 0.75 0.75v9c0 0.41-0.34 0.75-0.75 0.75z"/>
 <path d="m12 22.75c-5.93 0-10.75-4.82-10.75-10.75s4.82-10.75 10.75-10.75c0.41 0 0.75 0.34 0.75 0.75s-0.34 0.75-0.75 0.75c-5.1 0-9.25 4.15-9.25 9.25s4.15 9.25 9.25 9.25 9.25-4.15 9.25-9.25c0-0.41 0.34-0.75 0.75-0.75s0.75 0.34 0.75 0.75c0 5.93-4.82 10.75-10.75 10.75z"/>
 <path d="m22 6.75c-0.41 0-0.75-0.34-0.75-0.75v-3.25h-3.25c-0.41 0-0.75-0.34-0.75-0.75s0.34-0.75 0.75-0.75h4c0.41 0 0.75 0.34 0.75 0.75v4c0 0.41-0.34 0.75-0.75 0.75z"/>
 <path d="m17 7.75c-0.19 0-0.38-0.07-0.53-0.22-0.29-0.29-0.29-0.77 0-1.06l5-5c0.29-0.29 0.77-0.29 1.06 0s0.29 0.77 0 1.06l-5 5c-0.15 0.15-0.34 0.22-0.53 0.22z"/>
</svg>
