<?xml version="1.0" encoding="UTF-8"?>
<svg width="24" height="24" viewBox="0 0 24 24" xmlns="http://www.w3.org/2000/svg">
 <path d="m14.89 18.22h-8.79c-0.52 0-1.01-0.05-1.45-0.15-0.23-0.03-0.50999-0.11-0.79999-0.22-1.33-0.5-2.9-1.73-2.9-4.79v-5.15c0-3.27 1.88-5.15 5.15-5.15h8.79c2.76 0 4.54 1.32 5.02 3.72 0.09 0.44 0.13 0.90999 0.13 1.43v5.15c0 3.29-1.87 5.16-5.15 5.16zm-8.78-13.94c-2.46 0-3.65 1.19-3.65 3.65v5.15c0 1.79 0.63002 2.89 1.92 3.38 0.2 0.07 0.39001 0.12 0.57001 0.15 0.38 0.08 0.74997 0.12 1.16 0.12h8.79c2.46 0 3.65-1.19 3.65-3.65v-5.15c0-0.42-0.03-0.79-0.1-1.13-0.34-1.7-1.5-2.52-3.55-2.52h-8.79z"/>
 <path d="m17.89 21.22h-8.79c-0.85 0-1.61-0.12-2.26-0.37-1.47-0.55-2.43-1.71-2.76-3.37-0.05-0.25 0.03002-0.51 0.21002-0.68 0.18-0.18 0.44001-0.25 0.69001-0.19 0.33 0.07 0.69999 0.11 1.12 0.11h8.79c2.46 0 3.65-1.19 3.65-3.65v-5.15c0-0.42-0.03-0.79001-0.1-1.13-0.05-0.25 0.03-0.49999 0.2-0.67999 0.18-0.18 0.43-0.26001 0.68-0.20001 2.4 0.49 3.72 2.27 3.72 5.01v5.15c0 3.28-1.87 5.15-5.15 5.15zm-11.97-3c0.32 0.58 0.79999 0.99 1.46 1.23 0.48 0.18 1.06 0.27 1.73 0.27h8.79c2.46 0 3.65-1.19 3.65-3.65v-5.15c0-1.58-0.49-2.63-1.5-3.18v0.18 5.15c0 3.27-1.88 5.15-5.15 5.15h-8.79-0.18997z"/>
 <path d="m10.5 13.89c-1.87 0-3.39-1.52-3.39-3.39s1.52-3.39 3.39-3.39c1.87 0 3.39 1.52 3.39 3.39s-1.52 3.39-3.39 3.39zm0-5.28c-1.04 0-1.89 0.85001-1.89 1.89s0.85002 1.89 1.89 1.89c1.04 0 1.89-0.85 1.89-1.89s-0.85-1.89-1.89-1.89z"/>
 <path d="m4.7803 13.45c-0.41 0-0.75-0.34-0.75-0.75v-4.4c0-0.41 0.34-0.75 0.75-0.75s0.75 0.34 0.75 0.75v4.4c0 0.41-0.33 0.75-0.75 0.75z"/>
 <path d="m16.21 13.45c-0.41 0-0.75-0.34-0.75-0.75v-4.4c0-0.41 0.34-0.75 0.75-0.75s0.75 0.34 0.75 0.75v4.4c0 0.41-0.33 0.75-0.75 0.75z"/>
</svg>
