<?xml version="1.0" encoding="UTF-8"?>
<svg width="24" height="24" viewBox="0 0 24 24" xmlns="http://www.w3.org/2000/svg">
 <path d="m17 20.75h-5c-0.41 0-0.75-0.34-0.75-0.75s0.34-0.75 0.75-0.75h5c2.86 0 4.25-1.39 4.25-4.25v-6c0-2.86-1.39-4.25-4.25-4.25h-10c-2.86 0-4.25 1.39-4.25 4.25v2c0 0.41-0.34 0.75-0.75 0.75s-0.75-0.34-0.75-0.75v-2c0-3.65 2.1-5.75 5.75-5.75h10c3.65 0 5.75 2.1 5.75 5.75v6c0 3.65-2.1 5.75-5.75 5.75z"/>
 <path d="m12 15.25c-1.79 0-3.25-1.46-3.25-3.25s1.46-3.25 3.25-3.25 3.25 1.46 3.25 3.25-1.46 3.25-3.25 3.25zm0-5c-0.96 0-1.75 0.79-1.75 1.75s0.79 1.75 1.75 1.75 1.75-0.79 1.75-1.75-0.79-1.75-1.75-1.75z"/>
 <path d="m18.5 15.25c-0.41 0-0.75-0.34-0.75-0.75v-5c0-0.41 0.34-0.75 0.75-0.75s0.75 0.34 0.75 0.75v5c0 0.41-0.34 0.75-0.75 0.75z"/>
 <path d="m8.5 18.69c-0.41 0-0.75-0.34-0.75-0.75v-1.28c0-0.22-0.17997-0.41-0.40997-0.41h-5.34c-0.41 0-0.75-0.34-0.75-0.75s0.34-0.75 0.75-0.75h5.34c1.05 0 1.91 0.86 1.91 1.91v1.28c0 0.41-0.34 0.75-0.75 0.75z"/>
 <path d="m3.2199 17.47c-0.19 0-0.37997-0.0699-0.52997-0.2199l-1.22-1.22c-0.29-0.29-0.29-0.7701 0-1.0601l1.22-1.2199c0.29-0.29 0.77-0.29 1.06 0s0.29 0.77 0 1.06l-0.69 0.69 0.69 0.69c0.29 0.29 0.29 0.77 0 1.06-0.15 0.15-0.34003 0.2199-0.53003 0.2199z"/>
 <path d="m8.5 21.53h-5.34c-1.05 0-1.91-0.86-1.91-1.91v-1.28c0-0.41 0.34-0.75 0.75-0.75s0.75 0.34 0.75 0.75v1.28c0 0.22 0.17997 0.41 0.40997 0.41h5.34c0.41 0 0.75 0.34 0.75 0.75s-0.34 0.75-0.75 0.75z"/>
 <path d="m7.2798 22.75c-0.19 0-0.38003-0.07-0.53003-0.22-0.29-0.29-0.29-0.7701 0-1.0601l0.69-0.6899-0.69-0.69c-0.29-0.29-0.29-0.77 0-1.06s0.76999-0.29 1.06 0l1.22 1.22c0.29 0.29 0.29 0.77 0 1.06l-1.22 1.22c-0.14 0.15-0.33996 0.22-0.52996 0.22z"/>
</svg>
