<?xml version="1.0" encoding="UTF-8"?>
<svg width="24" height="24" viewBox="0 0 24 24" xmlns="http://www.w3.org/2000/svg">
 <path d="m17 21.25h-10c-3.65 0-5.75-2.1-5.75-5.75v-7c0-3.65 2.1-5.75 5.75-5.75h10c3.65 0 5.75 2.1 5.75 5.75v7c0 3.65-2.1 5.75-5.75 5.75zm-10-17c-2.86 0-4.25 1.39-4.25 4.25v7c0 2.86 1.39 4.25 4.25 4.25h10c2.86 0 4.25-1.39 4.25-4.25v-7c0-2.86-1.39-4.25-4.25-4.25h-10z"/>
 <path d="m12 15.75c-2.07 0-3.75-1.68-3.75-3.75s1.68-3.75 3.75-3.75 3.75 1.68 3.75 3.75-1.68 3.75-3.75 3.75zm0-6c-1.24 0-2.25 1.01-2.25 2.25s1.01 2.25 2.25 2.25 2.25-1.01 2.25-2.25-1.01-2.25-2.25-2.25z"/>
 <path d="m4.5 10.75c-0.41 0-0.75-0.34-0.75-0.75v-1.5c0-1.79 1.46-3.25 3.25-3.25h1.5c0.41 0 0.75 0.34 0.75 0.75s-0.34 0.75-0.75 0.75h-1.5c-0.96 0-1.75 0.79-1.75 1.75v1.5c0 0.41-0.34 0.75-0.75 0.75z"/>
 <path d="m19.5 10.75c-0.41 0-0.75-0.34-0.75-0.75v-1.5c0-0.96-0.79-1.75-1.75-1.75h-1.5c-0.41 0-0.75-0.34-0.75-0.75s0.34-0.75 0.75-0.75h1.5c1.79 0 3.25 1.46 3.25 3.25v1.5c0 0.41-0.34 0.75-0.75 0.75z"/>
 <path d="m8.5 18.75h-1.5c-1.79 0-3.25-1.46-3.25-3.25v-1.5c0-0.41 0.34-0.75 0.75-0.75s0.75 0.34 0.75 0.75v1.5c0 0.96 0.79 1.75 1.75 1.75h1.5c0.41 0 0.75 0.34 0.75 0.75s-0.34 0.75-0.75 0.75z"/>
 <path d="m17 18.75h-1.5c-0.41 0-0.75-0.34-0.75-0.75s0.34-0.75 0.75-0.75h1.5c0.96 0 1.75-0.79 1.75-1.75v-1.5c0-0.41 0.34-0.75 0.75-0.75s0.75 0.34 0.75 0.75v1.5c0 1.79-1.46 3.25-3.25 3.25z"/>
</svg>
