<svg width="24" height="24" viewBox="0 0 24 24"  xmlns="http://www.w3.org/2000/svg">
<path d="M11.9998 22.7504C7.29981 22.7504 3.17981 19.7404 1.75981 15.2704C1.68981 15.0404 1.72981 14.8004 1.86981 14.6004C2.00981 14.4104 2.22981 14.2904 2.46981 14.2904L6.25981 14.2604V9.00038C6.25981 8.68038 6.45981 8.40038 6.74981 8.29038C7.04981 8.18038 7.37981 8.27038 7.57981 8.52038L11.9998 13.8304L16.4198 8.52038C16.6198 8.28038 16.9598 8.19038 17.2498 8.29038C17.5498 8.40038 17.7398 8.68038 17.7398 9.00038V14.2504H21.5298C21.7698 14.2504 21.9898 14.3604 22.1298 14.5604C22.2698 14.7504 22.3098 15.0004 22.2398 15.2304C20.8398 19.7304 16.7098 22.7504 11.9998 22.7504ZM3.54981 15.7804C5.02981 19.0904 8.29981 21.2504 11.9998 21.2504C15.7098 21.2504 18.9898 19.0804 20.4598 15.7504H16.9998C16.5898 15.7504 16.2498 15.4104 16.2498 15.0004V11.0704L12.5798 15.4804C12.2898 15.8204 11.7098 15.8204 11.4298 15.4804L7.75981 11.0704V15.0004C7.75981 15.4104 7.42981 15.7504 7.01981 15.7504L3.54981 15.7804Z" />
<path d="M2.47 15.79C2.14 15.79 1.85 15.58 1.75 15.26C1.42 14.19 1.25 13.09 1.25 12C1.25 6.07 6.07 1.25 12 1.25C17.93 1.25 22.75 6.07 22.75 12C22.75 13.1 22.58 14.19 22.26 15.23C22.16 15.54 21.87 15.75 21.54 15.75H17C16.59 15.75 16.25 15.41 16.25 15V11.07L12.58 15.48C12.29 15.82 11.71 15.82 11.43 15.48L7.76 11.07V15C7.76 15.41 7.43 15.75 7.02 15.75L2.47 15.79ZM12 2.75C6.9 2.75 2.75 6.9 2.75 12C2.75 12.76 2.85 13.53 3.04 14.29L6.25 14.26V9C6.25 8.68 6.45 8.4 6.74 8.29C7.04 8.18 7.37 8.27 7.57 8.52L12 13.83L16.42 8.52C16.62 8.28 16.96 8.19 17.25 8.29C17.55 8.4 17.74 8.68 17.74 9V14.25H20.96C21.14 13.52 21.24 12.76 21.24 12C21.25 6.9 17.1 2.75 12 2.75Z" />
</svg>
