<svg width="24" height="24" viewBox="0 0 24 24"  xmlns="http://www.w3.org/2000/svg">
<path d="M21.54 15C20.26 19.06 16.47 22 12 22C7.53997 22 3.75997 19.08 2.46997 15.04H3.04997L6.99997 15V11.76C6.99997 10.84 8.14997 10.41 8.74997 11.11L12 15L15.25 11.11C15.85 10.41 17 10.84 17 11.76V15H21.54Z" />
<path opacity="0.4" d="M22 12C22 13.05 21.84 14.05 21.54 15H17V11.76C17 10.84 15.85 10.41 15.25 11.11L12 15L8.75 11.11C8.15 10.41 7 10.84 7 11.76V15L3.05 15.04H2.47C2.17 14.08 2 13.06 2 12C2 6.48 6.48 2 12 2C17.52 2 22 6.48 22 12Z" />
</svg>
