<?xml version="1.0" encoding="UTF-8"?>
<svg width="24" height="24" viewBox="0 0 24 24" xmlns="http://www.w3.org/2000/svg">
 <path d="m17.56 17.97h-11.12c-3.98 0-5.19-1.21-5.19-5.19v-6.34c0-3.98 1.21-5.19 5.19-5.19h11.11c3.98 0 5.19 1.21 5.19 5.19v6.33c0.01 3.99-1.2 5.2-5.18 5.2zm-11.12-15.22c-3.14 0-3.69 0.55-3.69 3.69v6.33c0 3.14 0.55 3.69 3.69 3.69h11.11c3.14 0 3.69-0.55 3.69-3.69v-6.33c0-3.14-0.55-3.69-3.69-3.69h-11.11z"/>
 <path d="m12 22.75c-0.41 0-0.75-0.34-0.75-0.75v-4.78c0-0.41 0.34-0.75 0.75-0.75s0.75 0.34 0.75 0.75v4.78c0 0.41-0.34 0.75-0.75 0.75z"/>
 <path d="m22 13.75h-20c-0.41 0-0.75-0.34-0.75-0.75s0.34-0.75 0.75-0.75h20c0.41 0 0.75 0.34 0.75 0.75s-0.34 0.75-0.75 0.75z"/>
 <path d="m16.5 22.75h-9c-0.41 0-0.75-0.34-0.75-0.75s0.34-0.75 0.75-0.75h9c0.41 0 0.75 0.34 0.75 0.75s-0.34 0.75-0.75 0.75z"/>
</svg>
