<?xml version="1.0" encoding="UTF-8"?>
<svg width="24" height="24" viewBox="0 0 24 24" xmlns="http://www.w3.org/2000/svg">
 <path d="m10 17.7h-3.79c-3.8 0-4.96-1.16-4.96-4.96v-6c0-3.8 1.16-4.96 4.96-4.96h10.53c3.8 0 4.96 1.16 4.96 4.96 0 0.41-0.34 0.75-0.75 0.75s-0.75-0.34-0.75-0.75c0-2.94-0.52-3.46-3.46-3.46h-10.53c-2.94 0-3.46 0.52-3.46 3.46v6c0 2.94 0.52 3.46 3.46 3.46h3.79c0.41 0 0.75 0.34 0.75 0.75s-0.34 0.75-0.75 0.75z"/>
 <path d="m10 22.22c-0.41 0-0.75-0.34-0.75-0.75v-4.53c0-0.41 0.34-0.75 0.75-0.75s0.75 0.34 0.75 0.75v4.53c0 0.42-0.34 0.75-0.75 0.75z"/>
 <path d="m10 13.7h-8c-0.41 0-0.75-0.34-0.75-0.75s0.34-0.75 0.75-0.75h8c0.41 0 0.75 0.34 0.75 0.75s-0.34 0.75-0.75 0.75z"/>
 <path d="m10 22.22h-3.26c-0.41 0-0.75-0.34-0.75-0.75s0.34-0.75 0.75-0.75h3.26c0.41 0 0.75 0.34 0.75 0.75s-0.34 0.75-0.75 0.75z"/>
 <path d="m19.04 22.22h-3.55c-2.77 0-3.71-0.94-3.71-3.71v-5.71c0-2.77 0.94-3.71 3.71-3.71h3.55c2.77 0 3.71 0.93996 3.71 3.71v5.71c0 2.78-0.94 3.71-3.71 3.71zm-3.55-11.63c-1.96 0-2.21 0.25-2.21 2.21v5.71c0 1.96 0.25 2.21 2.21 2.21h3.55c1.96 0 2.21-0.25 2.21-2.21v-5.71c0-1.96-0.25-2.21-2.21-2.21h-3.55z"/>
 <path d="m17.3 18.97c-0.26 0-0.52-0.1-0.71-0.29-0.09-0.09-0.16-0.2-0.21-0.32-0.05-0.13-0.08-0.26-0.08-0.39 0-0.26 0.11-0.52 0.29-0.7 0.23-0.23 0.58-0.34 0.91-0.28l0.18 0.06c0.06 0.03 0.12 0.06 0.17 0.09 0.06 0.04 0.11 0.08 0.16 0.13 0.18 0.18 0.29 0.44 0.29 0.7 0 0.13-0.03 0.26-0.08 0.39-0.05 0.12-0.12 0.23-0.21 0.32-0.05 0.05-0.1 0.09-0.16 0.12-0.05 0.04-0.11 0.07-0.17 0.1-0.06 0.02-0.12 0.04-0.18 0.05-0.07 0.02-0.13 0.02-0.2 0.02z"/>
</svg>
