<?xml version="1.0" encoding="UTF-8"?>
<svg width="24" height="24" viewBox="0 0 24 24" xmlns="http://www.w3.org/2000/svg">
 <path d="m17.56 17.97h-11.12c-3.98 0-5.19-1.21-5.19-5.19v-6.34c0-3.98 1.21-5.19 5.19-5.19h1.56c0.41 0 0.75 0.34 0.75 0.75s-0.34 0.75-0.75 0.75h-1.56c-3.14 0-3.69 0.55-3.69 3.69v6.33c0 3.14 0.55 3.69 3.69 3.69h11.11c3.14 0 3.69-0.55 3.69-3.69v-0.89c0-0.41 0.34-0.75 0.75-0.75s0.75 0.34 0.75 0.75v0.89c0.01 3.99-1.2 5.2-5.18 5.2z"/>
 <path d="m12 22.75c-0.41 0-0.75-0.34-0.75-0.75v-4.78c0-0.41 0.34-0.75 0.75-0.75s0.75 0.34 0.75 0.75v4.78c0 0.41-0.34 0.75-0.75 0.75z"/>
 <path d="m22 13.75h-20c-0.41 0-0.75-0.34-0.75-0.75s0.34-0.75 0.75-0.75h20c0.41 0 0.75 0.34 0.75 0.75s-0.34 0.75-0.75 0.75z"/>
 <path d="m16.5 22.75h-9c-0.41 0-0.75-0.34-0.75-0.75s0.34-0.75 0.75-0.75h9c0.41 0 0.75 0.34 0.75 0.75s-0.34 0.75-0.75 0.75z"/>
 <path d="m17.86 10.12h-4.76c-1.57 0-2.59-1.02-2.59-2.59v-3.52c0-1.52 1.23-2.75 2.75-2.75h4.6c1.43 0 2.59 1.16 2.59 2.59v3.68c0 1.43-1.16 2.59-2.59 2.59zm-4.6-7.36c-0.69 0-1.25 0.56-1.25 1.25v3.52c0 0.98 0.62 1.09 1.09 1.09h4.76c0.6 0 1.09-0.49 1.09-1.09v-3.68c0-0.6-0.49-1.09-1.09-1.09h-4.6z"/>
 <path d="m21.45 8.8697c-0.32 0-0.65-0.11-0.97-0.34l-1.21-0.85c-0.2-0.14-0.32-0.37-0.32-0.61v-2.76c0-0.24 0.12-0.47 0.32-0.61l1.21-0.85c0.52-0.37 1.08-0.44 1.54-0.2s0.72 0.74 0.72 1.38v3.33c0 0.64-0.26 1.14-0.72 1.38-0.17 0.09-0.36 0.13-0.57 0.13zm-1-2.19 0.8 0.56v-3.1l-0.8 0.56v1.98z"/>
</svg>
