<?xml version="1.0" encoding="UTF-8"?>
<svg width="24" height="24" viewBox="0 0 24 24" xmlns="http://www.w3.org/2000/svg">
 <path d="m12.46 22.75c-0.17 0-0.34 0-0.51-0.01-5.6-0.25-10.28-4.76-10.67-10.26-0.34-4.72 2.39-9.13 6.79-10.98 1.25-0.52 1.91-0.12 2.19 0.17 0.28 0.28 0.67 0.93 0.15 2.12-0.45995 1.06-0.68995 2.19-0.67995 3.35 0.02 4.43 3.7 8.19 8.19 8.37 0.65 0.03 1.29-0.02 1.91-0.13 1.32-0.24 1.87 0.29 2.08 0.63s0.45 1.07-0.35 2.15c-2.12 2.9-5.49 4.59-9.1 4.59zm-9.69-10.38c0.34 4.76 4.4 8.66 9.24 8.87 3.29 0.16 6.41-1.34 8.33-3.96 0.15-0.21 0.22-0.36 0.25-0.44-0.09-0.01-0.25-0.02-0.5 0.03-0.73 0.13-1.49 0.18-2.24 0.15-5.28-0.21-9.6-4.64-9.63-9.86 0-1.38 0.27-2.71 0.82-3.96 0.1-0.22 0.12-0.37 0.13-0.45-0.09 0-0.25 0.02-0.51 0.13-3.81 1.6-6.17 5.42-5.89 9.49z"/>
</svg>
