<svg width="24" height="24" viewBox="0 0 24 24"  xmlns="http://www.w3.org/2000/svg">
<path d="M11.9999 10.07C10.3999 10.07 9.08988 8.76 9.08988 7.16C9.08988 5.56 10.3999 4.25 11.9999 4.25C13.5999 4.25 14.9099 5.56 14.9099 7.16C14.9099 8.76 13.5999 10.07 11.9999 10.07ZM11.9999 5.75C11.2199 5.75 10.5899 6.38 10.5899 7.16C10.5899 7.94 11.2199 8.57 11.9999 8.57C12.7799 8.57 13.4099 7.94 13.4099 7.16C13.4099 6.38 12.7799 5.75 11.9999 5.75Z" />
<path d="M6.78988 19.75C5.18988 19.75 3.87988 18.44 3.87988 16.84C3.87988 15.24 5.18988 13.93 6.78988 13.93C8.38988 13.93 9.69988 15.24 9.69988 16.84C9.69988 18.44 8.38988 19.75 6.78988 19.75ZM6.78988 15.43C6.00988 15.43 5.37988 16.06 5.37988 16.84C5.37988 17.62 6.00988 18.25 6.78988 18.25C7.56988 18.25 8.19988 17.62 8.19988 16.84C8.19988 16.06 7.55988 15.43 6.78988 15.43Z" />
<path d="M17.2099 19.75C15.6099 19.75 14.2999 18.44 14.2999 16.84C14.2999 15.24 15.6099 13.93 17.2099 13.93C18.8099 13.93 20.1199 15.24 20.1199 16.84C20.1199 18.44 18.8199 19.75 17.2099 19.75ZM17.2099 15.43C16.4299 15.43 15.7999 16.06 15.7999 16.84C15.7999 17.62 16.4299 18.25 17.2099 18.25C17.9899 18.25 18.6199 17.62 18.6199 16.84C18.6199 16.06 17.9899 15.43 17.2099 15.43Z" />
</svg>
