<?xml version="1.0" encoding="UTF-8"?>
<svg width="24" height="24" viewBox="0 0 24 24" xmlns="http://www.w3.org/2000/svg">
 <path d="m12 10.07c-1.6 0-2.91-1.31-2.91-2.91s1.31-2.91 2.91-2.91 2.91 1.31 2.91 2.91-1.31 2.91-2.91 2.91zm0-4.32c-0.78 0-1.41 0.63-1.41 1.41s0.63 1.41 1.41 1.41 1.41-0.63 1.41-1.41-0.63-1.41-1.41-1.41z"/>
 <path d="m6.7899 19.75c-1.6 0-2.91-1.31-2.91-2.91s1.31-2.91 2.91-2.91 2.91 1.31 2.91 2.91-1.31 2.91-2.91 2.91zm0-4.32c-0.78 0-1.41 0.63-1.41 1.41s0.63 1.41 1.41 1.41 1.41-0.63 1.41-1.41-0.64-1.41-1.41-1.41z"/>
 <path d="m17.21 19.75c-1.6 0-2.91-1.31-2.91-2.91s1.31-2.91 2.91-2.91 2.91 1.31 2.91 2.91-1.3 2.91-2.91 2.91zm0-4.32c-0.78 0-1.41 0.63-1.41 1.41s0.63 1.41 1.41 1.41 1.41-0.63 1.41-1.41-0.63-1.41-1.41-1.41z"/>
</svg>
