<?xml version="1.0" encoding="UTF-8"?>
<svg width="24" height="24" viewBox="0 0 24 24" xmlns="http://www.w3.org/2000/svg">
 <path d="m11.31 18h-0.02c-1.04-0.01-1.92-0.66-2.23-1.65l-1.95-6.28c-0.26-0.84998-0.04-1.76 0.59-2.38 0.62-0.62 1.52-0.84001 2.36-0.58001l6.29 1.95c1 0.31 1.65 1.19 1.66 2.23s-0.62 1.92-1.61 2.25l-1.72 0.58c-0.26 0.09-0.45 0.28-0.54 0.53l-0.59 1.73c-0.33 0.99-1.21 1.62-2.24 1.62zm-1.97-9.5c-0.3 0-0.49999 0.16-0.58999 0.25-0.23 0.23-0.31001 0.56-0.21001 0.87l1.95 6.28c0.17 0.55 0.66 0.6 0.81 0.6 0.12-0.01 0.63-0.04 0.81-0.59l0.59-1.73c0.23-0.69 0.79-1.25 1.48-1.48l1.72-0.58h0.01c0.55-0.18 0.59-0.67 0.59-0.81 0-0.15-0.05-0.64-0.6-0.81l-6.29-1.95c-0.1-0.04-0.19001-0.04999-0.27001-0.04999z"/>
 <path d="m12 22.75c-5.93 0-10.75-4.82-10.75-10.75s4.82-10.75 10.75-10.75 10.75 4.82 10.75 10.75-4.82 10.75-10.75 10.75zm0-20c-5.1 0-9.25 4.15-9.25 9.25s4.15 9.25 9.25 9.25 9.25-4.15 9.25-9.25-4.15-9.25-9.25-9.25z"/>
</svg>
