<?xml version="1.0" encoding="UTF-8"?>
<svg width="24" height="24" viewBox="0 0 24 24" xmlns="http://www.w3.org/2000/svg">
 <path d="m12 22.75c-4.55 0-8.25-3.7-8.25-8.25v-5c0-4.55 3.7-8.25 8.25-8.25s8.25 3.7 8.25 8.25v5c0 4.55-3.7 8.25-8.25 8.25zm0-20c-3.72 0-6.75 3.03-6.75 6.75v5c0 3.72 3.03 6.75 6.75 6.75s6.75-3.03 6.75-6.75v-5c0-3.72-3.03-6.75-6.75-6.75z"/>
 <path d="m12 11.75c-1.24 0-2.25-1.01-2.25-2.25v-2c0-1.24 1.01-2.25 2.25-2.25s2.25 1.01 2.25 2.25v2c0 1.24-1.01 2.25-2.25 2.25zm0-5c-0.41 0-0.75 0.34-0.75 0.75v2c0 0.41 0.34 0.75 0.75 0.75s0.75-0.34 0.75-0.75v-2c0-0.41-0.34-0.75-0.75-0.75z"/>
 <path d="m12 6.75c-0.41 0-0.75-0.34-0.75-0.75v-4c0-0.41 0.34-0.75 0.75-0.75s0.75 0.34 0.75 0.75v4c0 0.41-0.34 0.75-0.75 0.75z"/>
</svg>
