<?xml version="1.0" encoding="UTF-8"?>
<svg width="24" height="24" viewBox="0 0 24 24" xmlns="http://www.w3.org/2000/svg">
 <path d="m12 22.75h-3c-5.43 0-7.75-2.32-7.75-7.75v-6c0-5.43 2.32-7.75 7.75-7.75h6c5.43 0 7.75 2.32 7.75 7.75v3c0 0.41-0.34 0.75-0.75 0.75s-0.75-0.34-0.75-0.75v-3c0-4.61-1.64-6.25-6.25-6.25h-6c-4.61 0-6.25 1.64-6.25 6.25v6c0 4.61 1.64 6.25 6.25 6.25h3c0.41 0 0.75 0.34 0.75 0.75s-0.34 0.75-0.75 0.75z"/>
 <path d="m16.37 22.77h-0.02c-1.01-0.01-1.85-0.6299-2.15-1.5999l-1.85-5.95c-0.25-0.82-0.04-1.7 0.57-2.29 0.6-0.59 1.47-0.81 2.27-0.56l5.96 1.85c0.96 0.3 1.59 1.14 1.6 2.15 0.01 1-0.6 1.85-1.56 2.17l-1.63 0.55c-0.23 0.08-0.41 0.25-0.48 0.48l-0.56 1.64c-0.31 0.95-1.15 1.5599-2.15 1.5599zm-1.86-9c-0.27 0-0.45 0.1501-0.53 0.2201-0.21 0.21-0.28 0.5-0.19 0.79l1.85 5.95c0.16 0.51 0.58 0.5299 0.74 0.5399 0.14 0 0.57-0.0399 0.73-0.5299l0.56-1.64c0.22-0.67 0.76-1.2 1.43-1.43l1.63-0.55c0.5-0.16 0.53-0.6 0.53-0.73s-0.04-0.57-0.54-0.73l-5.96-1.85c-0.1-0.03-0.18-0.0401-0.25-0.0401z"/>
</svg>
