<svg width="24" height="24" viewBox="0 0 24 24"  xmlns="http://www.w3.org/2000/svg">
<path opacity="0.4" d="M15.48 2H7.53001C4.07001 2 2.01001 4.05999 2.01001 7.51999V15.47C2.01001 18.93 4.08001 20.99 7.53001 20.99H15.48C18.94 20.99 21 18.93 21 15.47V7.51999C21 4.05999 18.93 2 15.48 2Z" />
<path d="M21.9599 18.84L20.3299 19.39C19.8799 19.54 19.5199 19.89 19.3699 20.35L18.8199 21.98C18.3499 23.39 16.3699 23.36 15.9299 21.95L14.0799 16C13.7199 14.82 14.8099 13.72 15.9799 14.09L21.9399 15.94C23.3399 16.38 23.3599 18.37 21.9599 18.84Z" />
</svg>
