<?xml version="1.0" encoding="UTF-8"?>
<svg width="24" height="24" viewBox="0 0 24 24" xmlns="http://www.w3.org/2000/svg">
 <path d="m17 22.75h-10c-3.65 0-5.75-2.1-5.75-5.75v-4c0-3.6 1.92-4.94 3.53-5.44 0.65-0.21 1.4-0.31 2.22-0.31h10c0.82 0 1.57 0.11001 2.23 0.32001 1.6 0.49 3.52 1.84 3.52 5.43v4c0 3.65-2.1 5.75-5.75 5.75zm-10-14c-0.66 0-1.26 0.08-1.77 0.25-1.67 0.51-2.48 1.82-2.48 4v4c0 2.86 1.39 4.25 4.25 4.25h10c2.86 0 4.25-1.39 4.25-4.25v-4c0-2.18-0.81-3.49-2.47-4-0.52-0.17-1.12-0.25-1.78-0.25h-10z"/>
 <path d="m19 9.03c-0.08 0-0.15-0.01004-0.23-0.04004-0.51-0.16-1.11-0.25-1.77-0.25h-10c-0.66 0-1.26 0.08-1.77 0.25-0.23 0.07-0.47998 0.03001-0.66998-0.10999-0.19-0.13999-0.31-0.36998-0.31-0.60998v-1.27c0-1.52 1.23-2.75 2.75-2.75h10c1.52 0 2.75 1.23 2.75 2.75v1.28c0 0.24-0.11 0.45998-0.31 0.60998-0.13 0.09-0.28 0.14002-0.44 0.14002zm-12-3.28c-0.69 0-1.25 0.56-1.25 1.25v0.34003c0.39-0.06 0.81-0.09003 1.25-0.09003h10c0.44 0 0.86 0.03003 1.25 0.09003v-0.34003c0-0.69-0.56-1.25-1.25-1.25h-10z"/>
 <path d="m16 5.75h-8c-0.41 0-0.75-0.34-0.75-0.75v-1.49c0-1.25 1.01-2.26 2.26-2.26h4.98c1.25 0 2.26 1.01 2.26 2.26v1.49c0 0.41-0.34 0.75-0.75 0.75zm-7.25-1.5h6.5v-0.73999c0-0.42-0.34-0.76001-0.76-0.76001h-4.98c-0.42 0-0.76001 0.34001-0.76001 0.76001v0.73999z"/>
 <path d="m9.07 20.21c-1.14 0-2.07-0.93-2.07-2.07s0.93001-2.07 2.07-2.07c1.14 0 2.07 0.93 2.07 2.07s-0.92 2.07-2.07 2.07zm0-2.65c-0.32 0-0.57001 0.26-0.57001 0.57s0.26001 0.57 0.57001 0.57 0.57-0.26 0.57-0.57-0.25-0.57-0.57-0.57z"/>
 <path d="m10.4 18.88c-0.41 0-0.75-0.34-0.75-0.75v-5.33c0-0.86 0.54-1.56 1.37-1.79l2.65-0.72c0.85-0.23 1.39-0.01 1.69 0.22s0.65 0.68 0.65 1.56v5.17c0 0.41-0.34 0.75-0.75 0.75s-0.75-0.34-0.75-0.75v-5.17c0-0.25-0.05-0.35-0.07-0.37-0.02-0.01-0.14-0.03-0.38 0.03l-2.65 0.72c-0.23 0.06-0.26 0.21-0.26 0.34v5.33c0 0.43-0.34 0.76-0.75 0.76z"/>
 <path d="m13.93 19.32c-1.14 0-2.07-0.93-2.07-2.07s0.93-2.07 2.07-2.07 2.07 0.93 2.07 2.07-0.93 2.07-2.07 2.07zm0-2.64c-0.32 0-0.57 0.26-0.57 0.57s0.26 0.57 0.57 0.57 0.57-0.26 0.57-0.57-0.26-0.57-0.57-0.57z"/>
 <path d="m10.4 15.1c-0.33 0-0.63006-0.22-0.72006-0.55-0.11-0.4 0.13003-0.81 0.53006-0.92l4.8499-1.32c0.4-0.11 0.81 0.13 0.92 0.53s-0.1299 0.81-0.5299 0.92l-4.8501 1.32c-0.07 0.01-0.1399 0.02-0.1999 0.02z"/>
</svg>
