<?xml version="1.0" encoding="UTF-8"?>
<svg width="24" height="24" viewBox="0 0 24 24" xmlns="http://www.w3.org/2000/svg">
 <path d="m15 22.75h-6c-5.43 0-7.75-2.32-7.75-7.75v-6c0-5.43 2.32-7.75 7.75-7.75h6c5.43 0 7.75 2.32 7.75 7.75v6c0 5.43-2.32 7.75-7.75 7.75zm-6-20c-4.61 0-6.25 1.64-6.25 6.25v6c0 4.61 1.64 6.25 6.25 6.25h6c4.61 0 6.25-1.64 6.25-6.25v-6c0-4.61-1.64-6.25-6.25-6.25h-6z"/>
 <path d="m7 22.25c-0.41 0-0.75-0.34-0.75-0.75v-19c0-0.41 0.34-0.75 0.75-0.75s0.75 0.34 0.75 0.75v19c0 0.41-0.34 0.75-0.75 0.75z"/>
 <path d="m11.47 17.55c-1.24 0-2.24-1.0099-2.24-2.2399s1.01-2.24 2.24-2.24 2.24 1.01 2.24 2.24-1.01 2.2399-2.24 2.2399zm0-2.9899c-0.41 0-0.74 0.3299-0.74 0.7399s0.33 0.74 0.74 0.74 0.74-0.33 0.74-0.74-0.34-0.7399-0.74-0.7399z"/>
 <path d="m12.96 16.06c-0.41 0-0.75-0.34-0.75-0.75v-6.01c0-0.92 0.58-1.68 1.47-1.92l2.98-0.81c0.92-0.25 1.5-0.01001 1.82 0.23999 0.46 0.35 0.7 0.92 0.7 1.69v5.83c0 0.41-0.34 0.75-0.75 0.75s-0.75-0.34-0.75-0.75v-5.83c0-0.33-0.07-0.46999-0.11-0.48999-0.05-0.04-0.22-0.05998-0.51 0.02002l-2.98 0.81c-0.24 0.07-0.36 0.21998-0.36 0.47998v6.01c-0.01 0.39-0.35 0.73-0.76 0.73z"/>
 <path d="m16.93 16.55c-1.24 0-2.24-1.0099-2.24-2.2399 0-1.24 1.01-2.24 2.24-2.24s2.24 1.01 2.24 2.24c0.01 1.24-1 2.2399-2.24 2.2399zm0-2.9799c-0.41 0-0.74 0.33-0.74 0.74s0.33 0.7399 0.74 0.7399 0.74-0.3299 0.74-0.7399-0.33-0.74-0.74-0.74z"/>
 <path d="m12.96 11.79c-0.33 0-0.63-0.22-0.72-0.55-0.11-0.4 0.13-0.81 0.53-0.92l5.47-1.49c0.4-0.11 0.81 0.12997 0.92 0.52997s-0.13 0.81009-0.53 0.92009l-5.47 1.4899c-0.07 0.01-0.14 0.02-0.2 0.02z"/>
</svg>
