<?xml version="1.0" encoding="UTF-8"?>
<svg width="24" height="24" viewBox="0 0 24 24" xmlns="http://www.w3.org/2000/svg">
 <path d="m22 3.75h-20c-0.41 0-0.75-0.34-0.75-0.75s0.34-0.75 0.75-0.75h20c0.41 0 0.75 0.34 0.75 0.75s-0.34 0.75-0.75 0.75z"/>
 <path d="m11 9.75h-9c-0.41 0-0.75-0.34-0.75-0.75s0.34-0.75 0.75-0.75h9c0.41 0 0.75 0.34 0.75 0.75s-0.34 0.75-0.75 0.75z"/>
 <path d="m8 15.75h-6c-0.41 0-0.75-0.34-0.75-0.75s0.34-0.75 0.75-0.75h6c0.41 0 0.75 0.34 0.75 0.75s-0.34 0.75-0.75 0.75z"/>
 <path d="m6 21.75h-4c-0.41 0-0.75-0.34-0.75-0.75s0.34-0.75 0.75-0.75h4c0.41 0 0.75 0.34 0.75 0.75s-0.34 0.75-0.75 0.75z"/>
 <path d="m11.84 22.75c-1.61 0-2.93-1.31-2.93-2.93 0-1.61 1.31-2.93 2.93-2.93s2.93 1.31 2.93 2.93-1.31 2.93-2.93 2.93zm0-4.35c-0.79 0-1.43 0.64-1.43 1.43s0.64 1.43 1.43 1.43 1.43-0.64 1.43-1.43-0.64-1.43-1.43-1.43z"/>
 <path d="m14.02 20.57c-0.41 0-0.75-0.34-0.75-0.75v-8.77c0-1.21 0.72-2.16 1.89-2.47l4.35-1.19c0.95-0.26 1.77-0.16002 2.35 0.28998s0.88 1.18 0.88 2.19v8.51c0 0.41-0.34 0.75-0.75 0.75s-0.75-0.34-0.75-0.75v-8.51c0-0.5-0.1-0.84999-0.29-0.98999-0.19-0.15-0.58-0.16003-1.05-0.03003l-4.35 1.19c-0.29 0.08-0.78 0.32-0.78 1.03v8.77c0 0.4-0.34 0.73-0.75 0.73z"/>
 <path d="m19.82 21.3c-1.61 0-2.93-1.31-2.93-2.93 0-1.61 1.31-2.93 2.93-2.93s2.93 1.31 2.93 2.93-1.31 2.93-2.93 2.93zm0-4.3499c-0.79 0-1.43 0.6399-1.43 1.4299s0.64 1.43 1.43 1.43 1.43-0.64 1.43-1.43-0.64-1.4299-1.43-1.4299z"/>
 <path d="m14.02 14.35c-0.33 0-0.63-0.22-0.72-0.55-0.11-0.4 0.13-0.8099 0.53-0.9199l7.98-2.18c0.4-0.11 0.81 0.1299 0.92 0.5299s-0.13 0.8101-0.53 0.9201l-7.98 2.18c-0.07 0.01-0.14 0.0199-0.2 0.0199z"/>
</svg>
