<?xml version="1.0" encoding="UTF-8"?>
<svg width="24" height="24" viewBox="0 0 24 24" xmlns="http://www.w3.org/2000/svg">
 <path d="m5.5899 22.7c-2.34 0-4.32-1.98-4.32-4.32v-6.16c-0.06-2.91 1.03-5.66 3.05-7.73 2.02-2.06 4.74-3.19 7.65-3.19 5.96 0 10.8 4.85 10.8 10.81v6.16c0 2.38-1.9399 4.32-4.3199 4.32s-4.3201-1.94-4.3201-4.32v-2.81c0-1.43 1.16-2.59 2.59-2.59s2.59 1.16 2.59 2.59v3.03c0 0.41-0.34 0.75-0.75 0.75s-0.75-0.34-0.75-0.75v-3.03c0-0.68-0.55-1.09-1.09-1.09-0.68 0-1.09 0.55-1.09 1.09v2.81c0 1.53 1.2901 2.82 2.8201 2.82s2.8199-1.29 2.8199-2.82v-6.16c0-5.13-4.17-9.31-9.3-9.31-2.51 0-4.8399 0.96999-6.5799 2.74s-2.67 4.14-2.62 6.66v6.17c0 1.53 1.29 2.82 2.82 2.82s2.82-1.29 2.82-2.82v-2.81c0-0.68-0.54999-1.09-1.09-1.09-0.68 0-1.09 0.55-1.09 1.09v2.92c0 0.41-0.34 0.75-0.75 0.75s-0.75-0.34-0.75-0.75v-2.92c0-1.45 1.14-2.59 2.59-2.59 1.43 0 2.59 1.16 2.59 2.59v2.81c0 2.39-1.94 4.33-4.32 4.33z"/>
 <path d="m13.18 11.86c-0.4 0-0.76-0.22-0.93-0.58l-1.45-2.89-0.42 0.77997c-0.23 0.43-0.68996 0.70001-1.18 0.70001h-0.73001c-0.41 0-0.75-0.34-0.75-0.75s0.34-0.75 0.75-0.75h0.63998l0.79001-1.46c0.18998-0.34 0.53998-0.51999 0.92998-0.54999 0.39 0 0.74 0.23001 0.92 0.57001l1.43 2.86 0.34-0.69c0.23-0.46 0.68-0.73999 1.2-0.73999h0.81c0.41 0 0.75 0.34 0.75 0.75s-0.34 0.75-0.75 0.75h-0.71l-0.71 1.41c-0.18 0.37-0.53 0.59-0.93 0.59z"/>
</svg>
