<svg width="24" height="24" viewBox="0 0 24 24"  xmlns="http://www.w3.org/2000/svg">
<path d="M21.97 16.33C21.25 15.51 20.18 15 19 15C16.79 15 15 16.79 15 19C15 19.75 15.21 20.46 15.58 21.06C15.78 21.4 16.04 21.71 16.34 21.97C17.04 22.61 17.97 23 19 23C20.46 23 21.73 22.22 22.42 21.06C22.79 20.46 23 19.75 23 19C23 17.98 22.61 17.04 21.97 16.33ZM20.6 20.58C20.45 20.73 20.26 20.8 20.07 20.8C19.88 20.8 19.69 20.73 19.54 20.58L19.01 20.05L18.46 20.6C18.31 20.75 18.12 20.82 17.93 20.82C17.74 20.82 17.55 20.75 17.4 20.6C17.11 20.31 17.11 19.83 17.4 19.54L17.95 18.99L17.42 18.46C17.13 18.17 17.13 17.69 17.42 17.4C17.71 17.11 18.19 17.11 18.48 17.4L19.01 17.93L19.51 17.43C19.8 17.14 20.28 17.14 20.57 17.43C20.86 17.72 20.86 18.2 20.57 18.49L20.07 18.99L20.6 19.52C20.89 19.81 20.89 20.28 20.6 20.58Z" />
<path opacity="0.4" d="M16.34 21.97C16.04 21.71 15.78 21.4 15.58 21.06C15.21 20.46 15 19.75 15 19C15 16.79 16.79 15 19 15C20.18 15 21.25 15.51 21.97 16.33C21.98 16.34 21.98 16.35 21.99 16.35C21.99 16.29 22 16.24 22 16.19V7.81C22 4.17 19.83 2 16.19 2H7.81C7.53 2 7.26 2.00999 7 2.04999C3.85 2.33999 2 4.45 2 7.81V16.19C2 19.55 3.85 21.66 7 21.95C7.26 21.99 7.53 22 7.81 22H16.19C16.25 22 16.3 21.99 16.36 21.99C16.36 21.98 16.35 21.98 16.34 21.97Z" />
<path d="M13.78 5.29976C13.46 5.04976 12.88 4.80977 11.96 5.05977L8.98003 5.87977C8.09003 6.10977 7.51003 6.85976 7.51003 7.79976V9.54976V11.7098C7.28003 11.6298 7.03003 11.5698 6.77003 11.5698C5.53003 11.5698 4.53003 12.5798 4.53003 13.8098C4.53003 15.0398 5.54003 16.0498 6.77003 16.0498C7.99003 16.0498 8.99003 15.0597 9.01003 13.8497C9.01003 13.8397 9.02003 13.8298 9.02003 13.8198V10.1198L12.99 9.03975V10.7197C12.76 10.6397 12.51 10.5798 12.24 10.5798C11 10.5798 10 11.5898 10 12.8198C10 14.0598 11.01 15.0598 12.24 15.0598C13.46 15.0598 14.46 14.0697 14.48 12.8497C14.48 12.8397 14.49 12.8298 14.49 12.8098V8.04976V6.97975C14.48 6.21975 14.24 5.64976 13.78 5.29976ZM6.76003 14.5498C6.35003 14.5498 6.02003 14.2198 6.02003 13.8098C6.02003 13.3998 6.35003 13.0698 6.76003 13.0698C7.17003 13.0698 7.50003 13.3998 7.50003 13.8098C7.50003 14.2198 7.17003 14.5498 6.76003 14.5498ZM12.23 13.5498C11.82 13.5498 11.49 13.2198 11.49 12.8098C11.49 12.3998 11.82 12.0698 12.23 12.0698C12.64 12.0698 12.97 12.3998 12.97 12.8098C12.97 13.2198 12.64 13.5498 12.23 13.5498Z" />
</svg>
