<svg width="24" height="24" viewBox="0 0 24 24"  xmlns="http://www.w3.org/2000/svg">
<path d="M19.21 15.0098C18.12 14.9398 17 15.3398 16.17 16.1698C14.61 17.7298 14.61 20.2598 16.17 21.8298C16.7 22.3598 17.35 22.7098 18.04 22.8798C18.42 22.9798 18.82 23.0098 19.22 22.9898C20.17 22.9498 21.1 22.5698 21.83 21.8398C22.86 20.8098 23.21 19.3598 22.88 18.0498C22.72 17.3598 22.36 16.7098 21.83 16.1798C21.11 15.4498 20.17 15.0598 19.21 15.0098ZM21.24 18.9798C21.24 19.1898 21.16 19.3698 21.02 19.5098C20.88 19.6498 20.7 19.7298 20.49 19.7298H19.75V20.5098C19.75 20.7198 19.67 20.8998 19.53 21.0398C19.39 21.1798 19.21 21.2598 19 21.2598C18.59 21.2598 18.25 20.9198 18.25 20.5098V19.7298H17.5C17.09 19.7298 16.75 19.3898 16.75 18.9798C16.75 18.5698 17.09 18.2298 17.5 18.2298H18.25V17.5198C18.25 17.1098 18.59 16.7698 19 16.7698C19.41 16.7698 19.75 17.1098 19.75 17.5198V18.2298H20.49C20.91 18.2298 21.24 18.5698 21.24 18.9798Z" />
<path opacity="0.4" d="M16.34 21.97C16.04 21.71 15.78 21.4 15.58 21.06C15.21 20.46 15 19.75 15 19C15 16.79 16.79 15 19 15C20.18 15 21.25 15.51 21.97 16.33C21.98 16.34 21.98 16.35 21.99 16.35C21.99 16.29 22 16.24 22 16.19V7.81C22 4.17 19.83 2 16.19 2H7.81C7.53 2 7.26 2.00999 7 2.04999C3.85 2.33999 2 4.45 2 7.81V16.19C2 19.55 3.85 21.66 7 21.95C7.26 21.99 7.53 22 7.81 22H16.19C16.25 22 16.3 21.99 16.36 21.99C16.36 21.98 16.35 21.98 16.34 21.97Z" />
<path d="M13.78 5.29976C13.46 5.04976 12.88 4.80977 11.96 5.05977L8.98003 5.87977C8.09003 6.10977 7.51003 6.85976 7.51003 7.79976V9.54976V11.7098C7.28003 11.6298 7.03003 11.5698 6.77003 11.5698C5.53003 11.5698 4.53003 12.5798 4.53003 13.8098C4.53003 15.0398 5.54003 16.0498 6.77003 16.0498C7.99003 16.0498 8.99003 15.0597 9.01003 13.8497C9.01003 13.8397 9.02003 13.8298 9.02003 13.8198V10.1198L12.99 9.03975V10.7197C12.76 10.6397 12.51 10.5798 12.24 10.5798C11 10.5798 10 11.5898 10 12.8198C10 14.0598 11.01 15.0598 12.24 15.0598C13.46 15.0598 14.46 14.0697 14.48 12.8497C14.48 12.8397 14.49 12.8298 14.49 12.8098V8.04976V6.97975C14.48 6.21975 14.24 5.64976 13.78 5.29976ZM6.76003 14.5498C6.35003 14.5498 6.02003 14.2198 6.02003 13.8098C6.02003 13.3998 6.35003 13.0698 6.76003 13.0698C7.17003 13.0698 7.50003 13.3998 7.50003 13.8098C7.50003 14.2198 7.17003 14.5498 6.76003 14.5498ZM12.23 13.5498C11.82 13.5498 11.49 13.2198 11.49 12.8098C11.49 12.3998 11.82 12.0698 12.23 12.0698C12.64 12.0698 12.97 12.3998 12.97 12.8098C12.97 13.2198 12.64 13.5498 12.23 13.5498Z" />
</svg>
