<?xml version="1.0" encoding="UTF-8"?>
<svg width="24" height="24" viewBox="0 0 24 24" xmlns="http://www.w3.org/2000/svg">
 <path d="m12.35 21.75h-3.7c-5.19 0-7.4-2.21-7.4-7.4v-5.7c0-5.19 2.21-7.4 7.4-7.4h5.7c5.19 0 7.4 2.21 7.4 7.4v3.7c0 0.41-0.34 0.75-0.75 0.75s-0.75-0.34-0.75-0.75v-3.7c0-4.36-1.54-5.9-5.9-5.9h-5.7c-4.36 0-5.9 1.54-5.9 5.9v5.7c0 4.36 1.54 5.9 5.9 5.9h3.7c0.41 0 0.75 0.34 0.75 0.75s-0.34 0.75-0.75 0.75z"/>
 <path d="m6.72 15.17c-1.21 0-2.2-0.99-2.2-2.2s0.99-2.2 2.2-2.2 2.2 0.99 2.2 2.2-0.98999 2.2-2.2 2.2zm0-2.9c-0.38 0-0.7 0.31-0.7 0.7 0 0.38 0.31 0.7 0.7 0.7s0.69999-0.31 0.69999-0.7-0.30999-0.7-0.69999-0.7z"/>
 <path d="m8.1699 13.72c-0.41 0-0.75-0.34-0.75-0.75v-5.83c0-0.91 0.57-1.65 1.44-1.89l2.9-0.78998c0.9-0.25 1.47-0.01002 1.78 0.22998s0.69 0.72002 0.69 1.65v5.66c0 0.41-0.34 0.75-0.75 0.75s-0.75-0.34-0.75-0.75v-5.66c0-0.32-0.07-0.44002-0.1-0.46002s-0.17-0.05998-0.48 0.02002l-2.89 0.78998c-0.3 0.08-0.34 0.29-0.34 0.44v5.83c0 0.42-0.34 0.76-0.75 0.76z"/>
 <path d="m12.03 14.2c-1.21 0-2.2-0.99-2.2-2.2s0.99002-2.2 2.2-2.2 2.2 0.99 2.2 2.2c0 1.22-0.99 2.2-2.2 2.2zm0-2.89c-0.38 0-0.7 0.31-0.7 0.7 0 0.38 0.31 0.7 0.7 0.7s0.7-0.31 0.7-0.7-0.32-0.7-0.7-0.7z"/>
 <path d="m8.1701 9.5801c-0.33 0-0.63-0.21999-0.72-0.54999-0.11-0.4 0.13-0.81004 0.53-0.92004l5.31-1.45c0.4-0.1 0.81 0.13003 0.92 0.53003s-0.13 0.80999-0.53 0.91999l-5.31 1.45c-0.07 0.01-0.14 0.02002-0.2 0.02002z"/>
 <path d="m17.94 22.03c-2.18 0-3.95-1.77-3.95-3.95s1.77-3.95 3.95-3.95 3.95 1.77 3.95 3.95-1.77 3.95-3.95 3.95zm0-6.4c-1.35 0-2.45 1.1-2.45 2.45s1.1 2.45 2.45 2.45 2.45-1.1 2.45-2.45-1.1-2.45-2.45-2.45z"/>
 <path d="m21.74 22.63c-0.19 0-0.38-0.0701-0.53-0.2201l-1-1c-0.29-0.29-0.29-0.77 0-1.06s0.77-0.29 1.06 0l1 1c0.29 0.29 0.29 0.77 0 1.06-0.15 0.14-0.34 0.2201-0.53 0.2201z"/>
</svg>
