<?xml version="1.0" encoding="UTF-8"?>
<svg width="24" height="24" viewBox="0 0 24 24" xmlns="http://www.w3.org/2000/svg">
 <path d="m17 22.75h-10c-3.65 0-5.75-2.1-5.75-5.75v-5c0-3.65 2.1-5.75 5.75-5.75h10c3.65 0 5.75 2.1 5.75 5.75v5c0 3.65-2.1 5.75-5.75 5.75zm-10-15c-2.86 0-4.25 1.39-4.25 4.25v5c0 2.86 1.39 4.25 4.25 4.25h10c2.86 0 4.25-1.39 4.25-4.25v-5c0-2.86-1.39-4.25-4.25-4.25h-10z"/>
 <path d="m18 5.25h-12c-0.41 0-0.75-0.34-0.75-0.75s0.34-0.75 0.75-0.75h12c0.41 0 0.75 0.34 0.75 0.75s-0.34 0.75-0.75 0.75z"/>
 <path d="m15 2.75h-6c-0.41 0-0.75-0.34-0.75-0.75s0.34-0.75 0.75-0.75h6c0.41 0 0.75 0.34 0.75 0.75s-0.34 0.75-0.75 0.75z"/>
 <path d="m8.89 19.86c-1.17 0-2.12-0.95-2.12-2.12s0.94999-2.12 2.12-2.12c1.17 0 2.12 0.95 2.12 2.12s-0.95 2.12-2.12 2.12zm0-2.74c-0.34 0-0.61999 0.28-0.61999 0.62s0.27999 0.62 0.61999 0.62 0.62-0.28 0.62-0.62-0.28-0.62-0.62-0.62z"/>
 <path d="m10.26 18.49c-0.41003 0-0.75003-0.34-0.75003-0.75v-5.51c0-0.88 0.55003-1.59 1.39-1.82l2.74-0.74999c0.87-0.24 1.4199-0.00996 1.7199 0.23004 0.3 0.22995 0.6601 0.69995 0.6601 1.59v5.35c0 0.41-0.34 0.75-0.75 0.75s-0.75-0.34-0.75-0.75v-5.35c0-0.28-0.06-0.39-0.08-0.4s-0.14-0.05-0.42 0.03l-2.7301 0.75c-0.25 0.07-0.2899 0.24-0.2899 0.38v5.51c0.01 0.4-0.33 0.74-0.74 0.74z"/>
 <path d="m13.91 18.95c-1.17 0-2.12-0.95-2.12-2.12s0.95-2.12 2.12-2.12 2.1201 0.95 2.1201 2.12-0.9501 2.12-2.1201 2.12zm0-2.74c-0.34 0-0.62 0.28-0.62 0.62s0.28 0.62 0.62 0.62 0.6201-0.28 0.6201-0.62-0.2801-0.62-0.6201-0.62z"/>
 <path d="m10.26 14.58c-0.32997 0-0.63-0.22-0.72-0.55-0.11-0.4 0.13003-0.81 0.53-0.92l5.01-1.37c0.41-0.11 0.81 0.13 0.92 0.53s-0.13 0.81-0.53 0.92l-5.01 1.37c-0.07 0.01-0.13 0.02-0.2 0.02z"/>
</svg>
