<?xml version="1.0" encoding="UTF-8"?>
<svg width="24" height="24" viewBox="0 0 24 24" xmlns="http://www.w3.org/2000/svg">
 <path d="m14.35 21.75h-5.7c-5.19 0-7.4-2.21-7.4-7.4v-5.7c0-5.19 2.21-7.4 7.4-7.4h5.7c5.19 0 7.4 2.21 7.4 7.4v5.7c0 0.36-0.01 0.7-0.03 1.03-0.02 0.3-0.22 0.56-0.51 0.66s-0.6 0.01-0.81-0.21c-0.6-0.68-1.48-1.08-2.41-1.08-1.79 0-3.25 1.46-3.25 3.25 0 0.59 0.16 1.17 0.47 1.67 0.16 0.28 0.37 0.53 0.61 0.74 0.23 0.2 0.32 0.52 0.22 0.8-0.1 0.29-0.36 0.49-0.66 0.51-0.32 0.02-0.66 0.03-1.03 0.03zm-5.7-19c-4.36 0-5.9 1.54-5.9 5.9v5.7c0 4.36 1.54 5.9 5.9 5.9h5.17c-0.37-0.68-0.57-1.45-0.57-2.25 0-2.62 2.13-4.75 4.75-4.75 0.8 0 1.57 0.2 2.25 0.56v-5.16c0-4.36-1.54-5.9-5.9-5.9h-5.7z"/>
 <path d="m6.72 15.17c-1.21 0-2.2-0.99-2.2-2.2s0.99-2.2 2.2-2.2 2.2 0.99 2.2 2.2-0.98999 2.2-2.2 2.2zm0-2.9c-0.38 0-0.7 0.31-0.7 0.7 0 0.38 0.31 0.7 0.7 0.7s0.69999-0.31 0.69999-0.7-0.30999-0.7-0.69999-0.7z"/>
 <path d="m8.1699 13.72c-0.41 0-0.75-0.34-0.75-0.75v-5.83c0-0.91 0.57-1.65 1.44-1.89l2.9-0.78998c0.9-0.25 1.47-0.01002 1.78 0.22998s0.69 0.72002 0.69 1.65v5.66c0 0.41-0.34 0.75-0.75 0.75s-0.75-0.34-0.75-0.75v-5.66c0-0.32-0.07-0.44002-0.1-0.46002s-0.17-0.05998-0.48 0.02002l-2.89 0.78998c-0.3 0.08-0.34 0.29-0.34 0.44v5.83c0 0.42-0.34 0.76-0.75 0.76z"/>
 <path d="m12.03 14.2c-1.21 0-2.2-0.99-2.2-2.2s0.99002-2.2 2.2-2.2 2.2 0.99 2.2 2.2c0 1.22-0.99 2.2-2.2 2.2zm0-2.89c-0.38 0-0.7 0.31-0.7 0.7 0 0.38 0.31 0.7 0.7 0.7s0.7-0.31 0.7-0.7-0.32-0.7-0.7-0.7z"/>
 <path d="m8.1701 9.5801c-0.33 0-0.63-0.21999-0.72-0.54999-0.11-0.4 0.13-0.81004 0.53-0.92004l5.31-1.45c0.4-0.1 0.81 0.13003 0.92 0.53003s-0.13 0.80999-0.53 0.91999l-5.31 1.45c-0.07 0.01-0.14 0.02002-0.2 0.02002z"/>
 <path d="m18 22.75c-1.66 0-3.22-0.88-4.06-2.31-0.45-0.72-0.69-1.57-0.69-2.44 0-2.62 2.13-4.75 4.75-4.75s4.75 2.13 4.75 4.75c0 0.87-0.24 1.72-0.69 2.45-0.84 1.42-2.4 2.3-4.06 2.3zm0-8c-1.79 0-3.25 1.46-3.25 3.25 0 0.59 0.16 1.17 0.47 1.67 0.59 1 1.63 1.58 2.78 1.58s2.19-0.59 2.78-1.57c0.31-0.51 0.47-1.08 0.47-1.68 0-1.79-1.46-3.25-3.25-3.25z"/>
 <path d="m19.49 18.73h-2.99c-0.41 0-0.75-0.34-0.75-0.75s0.34-0.75 0.75-0.75h2.99c0.41 0 0.75 0.34 0.75 0.75s-0.33 0.75-0.75 0.75z"/>
 <path d="m18 20.26c-0.41 0-0.75-0.34-0.75-0.75v-2.99c0-0.41 0.34-0.75 0.75-0.75s0.75 0.34 0.75 0.75v2.99c0 0.42-0.34 0.75-0.75 0.75z"/>
</svg>
