<?xml version="1.0" encoding="UTF-8"?>
<svg width="24" height="24" viewBox="0 0 24 24" xmlns="http://www.w3.org/2000/svg">
 <path d="m15 22.75h-6c-5.43 0-7.75-2.32-7.75-7.75v-6c0-5.43 2.32-7.75 7.75-7.75h6c5.43 0 7.75 2.32 7.75 7.75v6c0 5.43-2.32 7.75-7.75 7.75zm-6-20c-4.61 0-6.25 1.64-6.25 6.25v6c0 4.61 1.64 6.25 6.25 6.25h6c4.61 0 6.25-1.64 6.25-6.25v-6c0-4.61-1.64-6.25-6.25-6.25h-6z"/>
 <path d="m8.4201 17.86c-1.28 0-2.32-1.04-2.32-2.32s1.04-2.32 2.32-2.32c1.28 0 2.32 1.04 2.32 2.32s-1.04 2.32-2.32 2.32zm0-3.14c-0.45 0-0.82 0.37-0.82 0.82s0.37 0.82 0.82 0.82c0.45001 0 0.82001-0.37 0.82001-0.82s-0.37-0.82-0.82001-0.82z"/>
 <path d="m9.9902 16.29c-0.41 0-0.75-0.34-0.75-0.75v-6.33c0-0.96 0.60002-1.74 1.5201-1.99l3.14-0.85999c0.95-0.26 1.55-0.01001 1.88 0.23999 0.48 0.37 0.7199 0.95005 0.7199 1.74v6.14c0 0.41-0.34 0.75-0.75 0.75s-0.75-0.34-0.75-0.75v-6.14c0-0.33-0.07-0.51005-0.13-0.55005-0.05-0.04-0.23-0.07999-0.58 0.01001l-3.1399 0.85999c-0.28 0.08-0.4101 0.25004-0.4101 0.54004v6.33c0 0.42-0.34 0.76-0.74997 0.76z"/>
 <path d="m14.18 16.81c-1.28 0-2.32-1.04-2.32-2.32s1.04-2.32 2.32-2.32 2.32 1.04 2.32 2.32-1.04 2.32-2.32 2.32zm0-3.14c-0.45 0-0.82 0.37-0.82 0.82s0.37 0.82 0.82 0.82 0.82-0.37 0.82-0.82-0.37-0.82-0.82-0.82z"/>
 <path d="m9.9898 11.79c-0.33 0-0.62997-0.22-0.71997-0.55-0.11-0.4 0.12997-0.81 0.52997-0.92l5.76-1.57c0.41-0.11 0.8099 0.13003 0.9199 0.53003s-0.1299 0.80997-0.5299 0.91997l-5.76 1.57c-0.07 0.01-0.14 0.02-0.20005 0.02z"/>
</svg>
