<?xml version="1.0" encoding="UTF-8"?>
<svg width="24" height="24" viewBox="0 0 24 24" xmlns="http://www.w3.org/2000/svg">
 <path d="m6.2802 22.75c-2.13 0-3.87-1.74-3.87-3.87s1.74-3.87 3.87-3.87 3.87 1.74 3.87 3.87-1.74 3.87-3.87 3.87zm0-6.24c-1.31 0-2.37 1.06-2.37 2.37s1.06 2.37 2.37 2.37 2.37-1.06 2.37-2.37-1.06-2.37-2.37-2.37z"/>
 <path d="m9.3999 19.63c-0.41 0-0.75-0.34-0.75-0.75v-12.58c0-1.58 0.95-2.82 2.47-3.23l6.24-1.7c1.27-0.35 2.34-0.22 3.09 0.36 0.76 0.58 1.14 1.55 1.14 2.88v12.2c0 0.41-0.34 0.75-0.75 0.75s-0.75-0.34-0.75-0.75v-12.21c0-0.58-0.1-1.34-0.55-1.68-0.49-0.38-1.33-0.23-1.79-0.1l-6.24 1.7c-0.87 0.24-1.36 0.89-1.36 1.79v12.58c0 0.4-0.34 0.74-0.75 0.74z"/>
 <path d="m17.72 20.67c-2.13 0-3.87-1.74-3.87-3.87s1.74-3.87 3.87-3.87 3.87 1.74 3.87 3.87-1.74 3.87-3.87 3.87zm0-6.24c-1.31 0-2.37 1.06-2.37 2.37s1.06 2.37 2.37 2.37 2.37-1.06 2.37-2.37-1.06-2.37-2.37-2.37z"/>
 <path d="m9.3998 10.27c-0.33 0-0.63-0.22-0.72-0.54997-0.11-0.4 0.12-0.82 0.52-0.93l11.44-3.12c0.4-0.11 0.81 0.13 0.92 0.53s-0.13 0.81-0.53 0.92l-11.43 3.12c-0.07 0.02-0.14 0.03-0.2 0.03z"/>
</svg>
