<?xml version="1.0" encoding="UTF-8"?>
<svg width="24" height="24" viewBox="0 0 24 24" xmlns="http://www.w3.org/2000/svg">
 <path d="m7.9702 22.75c-2.62 0-4.75-2.13-4.75-4.75s2.13-4.75 4.75-4.75c2.62 0 4.75 2.13 4.75 4.75s-2.13 4.75-4.75 4.75zm0-8c-1.79 0-3.25 1.46-3.25 3.25s1.46 3.25 3.25 3.25 3.25-1.46 3.25-3.25-1.45-3.25-3.25-3.25z"/>
 <path d="m11.97 18.75c-0.41 0-0.75-0.34-0.75-0.75v-14c0-0.41 0.34-0.75 0.75-0.75s0.75 0.34 0.75 0.75v14c0 0.41-0.33 0.75-0.75 0.75z"/>
 <path d="m19.13 10.23c-0.33 0-0.68-0.06-1.02-0.17l-4.42-1.47c-1.38-0.46-2.46-1.96-2.46-3.41v-1.18c0-0.97 0.4-1.81 1.08-2.31 0.69-0.5 1.61-0.6 2.53-0.3l4.42 1.47c1.38 0.46 2.46 1.96 2.46 3.41v1.17c0 0.97-0.4 1.81-1.08 2.31-0.43 0.32996-0.96 0.47996-1.51 0.47996zm-5.31-7.51c-0.24 0-0.46 0.06-0.63 0.19-0.3 0.21-0.46 0.6-0.46 1.09v1.17c0 0.8 0.67 1.73 1.43 1.99l4.42 1.47c0.46 0.16 0.89 0.12 1.18-0.09 0.3-0.21 0.46-0.6 0.46-1.09v-1.17c0-0.8-0.67-1.73-1.43-1.99l-4.42-1.47c-0.19-0.07-0.38-0.1-0.55-0.1z"/>
</svg>
