<svg width="24" height="24" viewBox="0 0 24 24"  xmlns="http://www.w3.org/2000/svg">
<path opacity="0.4" d="M19.26 2.8702L14.84 1.4002C13.92 1.0902 12.99 1.2002 12.31 1.7002C11.62 2.2002 11.23 3.0402 11.23 4.0102V7.7802L18.11 10.0702C18.45 10.1902 18.8 10.2402 19.13 10.2402C19.69 10.2402 20.21 10.0802 20.64 9.7702C21.33 9.2702 21.72 8.4302 21.72 7.4602V6.2802C21.72 4.8502 20.62 3.3202 19.26 2.8702Z" />
<path d="M12.72 8.27002V18C12.72 20.62 10.59 22.75 7.96997 22.75C5.34997 22.75 3.21997 20.62 3.21997 18C3.21997 15.38 5.34997 13.25 7.96997 13.25C9.22997 13.25 10.37 13.75 11.22 14.55V7.77002L12.72 8.27002Z" />
</svg>
