<svg width="24" height="24" viewBox="0 0 24 24"  xmlns="http://www.w3.org/2000/svg">
<path d="M7 2.0498V21.9498C3.85 21.6598 2 19.5498 2 16.1898V7.80981C2 4.44981 3.85 2.3398 7 2.0498Z" />
<path opacity="0.4" d="M22 7.81V16.19C22 19.83 19.83 22 16.19 22H7.81C7.53 22 7.26 21.99 7 21.95V2.04999C7.26 2.00999 7.53 2 7.81 2H16.19C19.83 2 22 4.17 22 7.81Z" />
<path d="M18.49 6.79976C18.17 6.54976 17.59 6.30977 16.67 6.55977L13.69 7.37977C12.8 7.60977 12.22 8.35976 12.22 9.29976V11.0498V13.2098C11.99 13.1298 11.74 13.0698 11.48 13.0698C10.24 13.0698 9.23999 14.0798 9.23999 15.3098C9.23999 16.5398 10.25 17.5498 11.48 17.5498C12.7 17.5498 13.7 16.5597 13.72 15.3497C13.72 15.3397 13.73 15.3298 13.73 15.3198V11.6198L17.7 10.5397V12.2197C17.47 12.1397 17.22 12.0798 16.95 12.0798C15.71 12.0798 14.71 13.0898 14.71 14.3198C14.71 15.5598 15.72 16.5598 16.95 16.5598C18.17 16.5598 19.17 15.5697 19.19 14.3497C19.19 14.3397 19.2 14.3298 19.2 14.3098V9.54976V8.47975C19.18 7.71975 18.95 7.15976 18.49 6.79976ZM11.47 16.0498C11.06 16.0498 10.73 15.7198 10.73 15.3098C10.73 14.8998 11.06 14.5698 11.47 14.5698C11.88 14.5698 12.21 14.8998 12.21 15.3098C12.21 15.7198 11.87 16.0498 11.47 16.0498ZM16.93 15.0498C16.52 15.0498 16.19 14.7198 16.19 14.3098C16.19 13.8998 16.52 13.5698 16.93 13.5698C17.34 13.5698 17.67 13.8998 17.67 14.3098C17.67 14.7198 17.34 15.0498 16.93 15.0498Z" />
</svg>
