<svg width="24" height="24" viewBox="0 0 24 24"  xmlns="http://www.w3.org/2000/svg">
<path d="M9.50001 14C9.33001 14 9.15002 13.94 9.01002 13.82C8.78002 13.62 8.69001 13.31 8.78001 13.03L11.28 5.03C11.37 4.73 11.64 4.52 11.95 4.51C12.27 4.49 12.55 4.67 12.68 4.95L15.18 10.45C15.35 10.82 15.19 11.25 14.83 11.43L9.82999 13.93C9.72999 13.97 9.61001 14 9.50001 14ZM12.13 7.35001L10.74 11.79L13.52 10.4L12.13 7.35001Z" />
<path d="M13.5 15.5C13.42 15.5 13.34 15.49 13.26 15.46L5.76001 12.96C5.47001 12.86 5.27 12.6 5.25 12.3C5.23 12 5.39 11.71 5.66 11.58L9.66 9.58C10.03 9.4 10.48 9.55 10.67 9.92C10.86 10.29 10.71 10.74 10.33 10.93L7.95001 12.12L13.42 13.94L16.14 12.43L13.85 11.67C13.46 11.54 13.24 11.12 13.37 10.72C13.5 10.33 13.92 10.11 14.32 10.24L18.24 11.53C18.52 11.62 18.72 11.88 18.75 12.17C18.78 12.47 18.63 12.75 18.37 12.9L13.87 15.4C13.75 15.47 13.63 15.5 13.5 15.5Z" />
<path d="M12 19C11.72 19 11.47 18.85 11.34 18.6L8.84 13.92C8.64 13.55 8.78 13.1 9.15 12.9C9.52 12.7 9.97002 12.84 10.17 13.21L11.85 16.35L12.3 15C12.43 14.61 12.86 14.4 13.25 14.53C13.64 14.66 13.85 15.09 13.72 15.48L12.72 18.48C12.63 18.76 12.37 18.96 12.07 18.99C12.04 19 12.02 19 12 19Z" />
<path d="M12 22.75C6.07 22.75 1.25 17.93 1.25 12C1.25 6.07 6.07 1.25 12 1.25C17.93 1.25 22.75 6.07 22.75 12C22.75 17.93 17.93 22.75 12 22.75ZM12 2.75C6.9 2.75 2.75 6.9 2.75 12C2.75 17.1 6.9 21.25 12 21.25C17.1 21.25 21.25 17.1 21.25 12C21.25 6.9 17.1 2.75 12 2.75Z" />
</svg>
