<?xml version="1.0" encoding="UTF-8"?>
<svg width="24" height="24" viewBox="0 0 24 24" xmlns="http://www.w3.org/2000/svg">
 <path d="m9.5 13.999c-0.17 0-0.34999-0.06-0.48999-0.18-0.23-0.2-0.32001-0.51-0.23001-0.79l2.5-8c0.09-0.3 0.36-0.51 0.67-0.52 0.32-0.02 0.6 0.16 0.73 0.44l2.5 5.5c0.17 0.37 0.01 0.8-0.35 0.98l-5 2.5c-0.1 0.04-0.21998 0.07-0.32998 0.07zm2.63-6.65-1.39 4.44 2.78-1.39-1.39-3.05z"/>
 <path d="m13.5 15.5c-0.08 0-0.16-0.01-0.24-0.04l-7.5-2.5c-0.29-0.1-0.49001-0.36-0.51001-0.66s0.14001-0.59 0.41001-0.72l4-2c0.36998-0.18 0.81998-0.03 1.01 0.34 0.19 0.36996 0.04 0.81996-0.34 1.01l-2.38 1.19 5.47 1.82 2.72-1.51-2.29-0.76c-0.39-0.13-0.61-0.55-0.48-0.95 0.13-0.39 0.55-0.61 0.95-0.48l3.92 1.29c0.28 0.09 0.48 0.35 0.51 0.64 0.03 0.3-0.12 0.58-0.38 0.73l-4.5 2.5c-0.12 0.07-0.24 0.1-0.37 0.1z"/>
 <path d="m12 19c-0.28 0-0.53-0.15-0.66-0.4l-2.5-4.68c-0.2-0.37-0.06-0.8201 0.31-1.0201s0.82002-0.0599 1.02 0.3101l1.68 3.14 0.45-1.35c0.13-0.39 0.56-0.6 0.95-0.47s0.6 0.5599 0.47 0.9499l-1 3c-0.09 0.28-0.35 0.4801-0.65 0.5101-0.03 0.01-0.05 0.01-0.07 0.01z"/>
 <path d="m12 22.75c-5.93 0-10.75-4.82-10.75-10.75s4.82-10.75 10.75-10.75 10.75 4.82 10.75 10.75-4.82 10.75-10.75 10.75zm0-20c-5.1 0-9.25 4.15-9.25 9.25s4.15 9.25 9.25 9.25 9.25-4.15 9.25-9.25-4.15-9.25-9.25-9.25z"/>
</svg>
