<?xml version="1.0" encoding="UTF-8"?>
<svg width="24" height="24" viewBox="0 0 24 24" xmlns="http://www.w3.org/2000/svg">
 <path d="m12.03 22.85-0.3701-0.18c-0.1-0.05-10.42-5.35-10.42-17.67v-0.41999l0.35999-0.22001c0.1-0.06 10.51-6.16 20.77 0l0.36 0.22001v0.41999c0 0.47-0.12 11.5-10.36 17.64l-0.3399 0.21zm-9.2801-17.41c0.21 9.84 7.52 14.69 9.23 15.69 8.08-5.08 9.12-13.71 9.25-15.71-8.31-4.72-16.64-0.92999-18.48 0.02001z"/>
 <path d="m7.0998 13.21c-0.34 0-0.67997-0.04-1.03-0.12-2.08-0.49-3.65-2.44-4.69-5.8-0.12-0.4 0.1-0.82001 0.5-0.94001s0.82 0.1 0.94 0.5c0.87 2.81 2.08 4.42 3.6 4.78 1.81 0.42 3.87-1.05 4.78-1.9-0.82-6.29 4.6599-7.52 4.7199-7.53l0.6001-0.11999c0.4-0.08 0.8 0.18999 0.88 0.58999s-0.19 0.80001-0.59 0.88001l-0.5901 0.11c-0.16 0.04-4.3399 1.01-3.4799 6.2 0.04 0.23003-0.0301 0.47003-0.2001 0.64003-0.11 0.14-2.59 2.71-5.44 2.71z"/>
 <path d="m16.35 19.26c-0.11 0-0.22-0.02-0.32-0.07-0.37-0.18-0.53-0.62-0.35-1 0.01-0.02 0.86-1.86 0.11-3.83-0.58-1.52-1.95-2.75-4.08-3.67-0.38-0.16-0.56-0.6-0.39-0.97998 0.17-0.38 0.6-0.56 0.99-0.39 2.53 1.08 4.17 2.61 4.9 4.54 0.97 2.58-0.12 4.89-0.17 4.99-0.14 0.25-0.41 0.41-0.69 0.41z"/>
</svg>
