<?xml version="1.0" encoding="UTF-8"?>
<svg width="24" height="24" viewBox="0 0 24 24" xmlns="http://www.w3.org/2000/svg">
 <path d="m17 21.751c-0.13 0-0.27-0.04-0.39-0.11l-10-6c-0.23-0.14-0.36-0.38-0.36-0.64v-6c0-0.27 0.15-0.51999 0.38-0.64999 0.24-0.13 0.52-0.13001 0.76 0.00999l8.86 5.32v-4.25l-4.64-2.78c-0.23-0.14-0.36-0.38-0.36-0.64s0.14-0.50999 0.36-0.63999l5-3c0.24-0.14 0.53-0.14 0.77 0l5 3c0.23 0.14 0.36 0.37999 0.36 0.63999v12c0 0.26-0.14 0.51-0.36 0.64l-5 3c-0.11 0.06-0.25 0.1-0.38 0.1zm-9.25-7.17 9.25 5.55 4.25-2.55v-11.15l-4.25-2.55-3.54 2.13 3.93 2.36c0.23 0.13999 0.36 0.37999 0.36 0.63999v6c0 0.27-0.15 0.52-0.38 0.65s-0.52 0.13-0.76-0.01l-8.86-5.32v4.25z"/>
 <path d="m7 21.751c-0.13 0-0.27-0.04-0.39-0.11l-5-3c-0.23-0.14-0.36-0.38-0.36-0.64v-12c0-0.26 0.14-0.51 0.36-0.64l5-3c0.24-0.14 0.53001-0.14 0.77 0l5 3c0.36 0.21 0.47 0.67 0.26 1.03s-0.67 0.46999-1.03 0.25999l-4.61-2.77-4.25 2.55v11.15l4.23 2.54 4.31-2.87c0.34-0.23 0.81-0.14 1.04 0.21s0.14 0.81-0.21 1.04l-4.7 3.13c-0.13 0.08-0.27 0.12-0.42 0.12z"/>
</svg>
