<svg width="24" height="24" viewBox="0 0 24 24"  xmlns="http://www.w3.org/2000/svg">
<path d="M17 21.7499C16.87 21.7499 16.73 21.7099 16.61 21.6399L6.61 15.6399C6.38 15.4999 6.25 15.2599 6.25 14.9999V8.99988C6.25 8.72988 6.4 8.47989 6.63 8.34989C6.87 8.21989 7.15 8.21988 7.39 8.35988L16.25 13.6799V9.42987L11.61 6.64988C11.38 6.50988 11.25 6.26988 11.25 6.00988C11.25 5.74988 11.39 5.49988 11.61 5.36988L16.61 2.36988C16.85 2.22988 17.14 2.22988 17.38 2.36988L22.38 5.36988C22.61 5.50988 22.74 5.74988 22.74 6.00988V18.0099C22.74 18.2699 22.6 18.5199 22.38 18.6499L17.38 21.6499C17.27 21.7099 17.13 21.7499 17 21.7499ZM7.75 14.5799L17 20.1299L21.25 17.5799V6.42987L17 3.87989L13.46 6.00988L17.39 8.36988C17.62 8.50988 17.75 8.74988 17.75 9.00988V15.0099C17.75 15.2799 17.6 15.5299 17.37 15.6599C17.14 15.7899 16.85 15.7899 16.61 15.6499L7.75 10.3299V14.5799Z" />
<path d="M7 21.7499C6.87 21.7499 6.73 21.7099 6.61 21.6399L1.61 18.6399C1.38 18.4999 1.25 18.2599 1.25 17.9999V5.99988C1.25 5.73988 1.39 5.48988 1.61 5.35988L6.61 2.35988C6.85 2.21988 7.14 2.21988 7.38 2.35988L12.38 5.35988C12.74 5.56988 12.85 6.02988 12.64 6.38988C12.43 6.74988 11.97 6.85988 11.61 6.64988L7 3.87989L2.75 6.42987V17.5799L6.98 20.1199L11.29 17.2499C11.63 17.0199 12.1 17.1099 12.33 17.4599C12.56 17.8099 12.47 18.2699 12.12 18.4999L7.42 21.6299C7.29 21.7099 7.15 21.7499 7 21.7499Z" />
</svg>
