<?xml version="1.0" encoding="UTF-8"?>
<svg width="24" height="24" viewBox="0 0 24 24" xmlns="http://www.w3.org/2000/svg">
 <path d="m6.3098 20.09c-0.57 0-1.13-0.15-1.65-0.45-1.04-0.6-1.65-1.66-1.65-2.86v-9.57c0-1.19 0.61999-2.26 1.65-2.86 1.04-0.6 2.27-0.6 3.3 0l8.29 4.78c1.03 0.6 1.6499 1.67 1.6499 2.86s-0.6199 2.26-1.6499 2.86l-8.29 4.78c-0.52 0.31-1.08 0.46-1.65 0.46zm0-14.68c-0.31 0-0.61999 0.07999-0.89999 0.23999-0.56 0.33-0.89999 0.91-0.89999 1.56v9.57c0 0.65 0.33999 1.23 0.89999 1.56 0.56 0.32 1.24 0.33 1.8 0l8.29-4.78c0.56-0.33 0.8999-0.91 0.8999-1.56s-0.3399-1.23-0.8999-1.56l-8.29-4.78c-0.28-0.16-0.59-0.25-0.9-0.25z"/>
 <path d="m20.24 18.93c-0.41 0-0.75-0.34-0.75-0.75v-12.36c0-0.41 0.34-0.75 0.75-0.75s0.75 0.34 0.75 0.75v12.36c0 0.41-0.33 0.75-0.75 0.75z"/>
</svg>
