<?xml version="1.0" encoding="UTF-8"?>
<svg width="24" height="24" viewBox="0 0 24 24" xmlns="http://www.w3.org/2000/svg">
 <path d="m16 22.75h-8c-3.02 0-4.75-1.73-4.75-4.75v-9.75c0-3.15 1.6-4.75 4.75-4.75 0.41 0 0.75 0.34 0.75 0.75 0 0.4 0.16 0.78 0.44 1.06s0.66 0.44 1.06 0.44h3.5c0.83 0 1.5-0.67 1.5-1.5 0-0.41 0.34-0.75 0.75-0.75 3.15 0 4.75 1.6 4.75 4.75v9.75c0 3.02-1.73 4.75-4.75 4.75zm-8.65-17.73c-1.58 0.13-2.6 0.84-2.6 3.23v9.75c0 2.22 1.03 3.25 3.25 3.25h8c2.22 0 3.25-1.03 3.25-3.25v-9.75c0-2.39-1.02-3.09-2.6-3.23-0.34 1.28-1.51 2.23-2.9 2.23h-3.5c-0.8 0-1.55-0.31-2.12-0.88-0.38-0.38-0.64002-0.84-0.78002-1.35z"/>
 <path d="m13.75 7.25h-3.5c-0.8 0-1.55-0.31-2.12-0.88-0.57-0.57001-0.88-1.32-0.88-2.12 0-1.65 1.35-3 3-3h3.5c0.8 0 1.55 0.31 2.12 0.88s0.88 1.32 0.88 2.12c0 1.65-1.35 3-3 3zm-3.5-4.5c-0.83 0-1.5 0.67-1.5 1.5 0 0.4 0.16 0.78 0.44 1.06s0.66 0.44 1.06 0.44h3.5c0.83 0 1.5-0.67 1.5-1.5 0-0.4-0.16-0.78-0.44-1.06s-0.66-0.44-1.06-0.44h-3.5z"/>
 <path d="m12 13.75h-4c-0.41 0-0.75-0.34-0.75-0.75s0.34-0.75 0.75-0.75h4c0.41 0 0.75 0.34 0.75 0.75s-0.34 0.75-0.75 0.75z"/>
 <path d="m16 17.75h-8c-0.41 0-0.75-0.34-0.75-0.75s0.34-0.75 0.75-0.75h8c0.41 0 0.75 0.34 0.75 0.75s-0.34 0.75-0.75 0.75z"/>
</svg>
