<?xml version="1.0" encoding="UTF-8"?>
<svg width="24" height="24" viewBox="0 0 24 24" xmlns="http://www.w3.org/2000/svg">
 <path d="m11 22.75h-2c-5.43 0-7.75-2.32-7.75-7.75v-6c0-5.43 2.32-7.75 7.75-7.75h6c5.43 0 7.75 2.32 7.75 7.75v1c0 0.41-0.34 0.75-0.75 0.75s-0.75-0.34-0.75-0.75v-1c0-4.61-1.64-6.25-6.25-6.25h-6c-4.61 0-6.25 1.64-6.25 6.25v6c0 4.61 1.64 6.25 6.25 6.25h2c0.41 0 0.75 0.34 0.75 0.75s-0.34 0.75-0.75 0.75z"/>
 <path d="m15.51 22.75c-1.51 0-2.75-1.23-2.75-2.75s1.23-2.75 2.75-2.75 2.75 1.23 2.75 2.75-1.24 2.75-2.75 2.75zm0-3.99c-0.69 0-1.25 0.56-1.25 1.25s0.56 1.25 1.25 1.25 1.25-0.56 1.25-1.25-0.56-1.25-1.25-1.25z"/>
 <path d="m17.51 20.75c-0.41 0-0.75-0.34-0.75-0.75v-6.99c0-0.41 0.34-0.75 0.75-0.75s0.75 0.34 0.75 0.75v6.99c0 0.42-0.34 0.75-0.75 0.75z"/>
 <path d="m21.08 16.5c-0.21 0-0.42-0.03-0.63-0.11l-2.2101-0.73c-0.85-0.28-1.4799-1.17-1.4799-2.06v-0.59c0-0.61 0.25-1.14 0.7-1.46s1.03-0.39 1.6-0.2l2.21 0.74c0.85 0.28 1.48 1.17 1.48 2.06v0.59c0 0.61-0.2501 1.14-0.7001 1.46-0.28 0.2-0.6199 0.3-0.9699 0.3zm-2.6501-3.75c-0.04 0-0.0799 0.01-0.0999 0.02-0.04 0.03-0.07 0.1-0.07 0.24v0.59c0 0.24 0.2299 0.56 0.4599 0.64l2.21 0.73c0.13 0.04 0.22 0.03 0.25 0.01 0.04-0.03 0.0801-0.1 0.0801-0.24v-0.59c0-0.24-0.2301-0.56-0.4601-0.64l-2.2099-0.73c-0.07-0.02-0.1201-0.03-0.1601-0.03z"/>
</svg>
