<svg width="24" height="24" viewBox="0 0 24 24"  xmlns="http://www.w3.org/2000/svg">
<path opacity="0.4" d="M21.6599 10.4395L20.6799 14.6195C19.8399 18.2295 18.1799 19.6895 15.0599 19.3895C14.5599 19.3495 14.0199 19.2595 13.4399 19.1195L11.7599 18.7195C7.58994 17.7295 6.29994 15.6695 7.27994 11.4895L8.25994 7.29952C8.45994 6.44952 8.69994 5.70952 8.99994 5.09952C10.1699 2.67952 12.1599 2.02952 15.4999 2.81952L17.1699 3.20952C21.3599 4.18952 22.6399 6.25952 21.6599 10.4395Z" />
<path d="M15.0601 19.3896C14.4401 19.8096 13.6601 20.1596 12.7101 20.4696L11.1301 20.9896C7.1601 22.2696 5.0701 21.1996 3.7801 17.2296L2.5001 13.2796C1.2201 9.30961 2.2801 7.20961 6.2501 5.92961L7.8301 5.40961C8.2401 5.27961 8.6301 5.16961 9.0001 5.09961C8.7001 5.70961 8.4601 6.44961 8.2601 7.29961L7.2801 11.4896C6.3001 15.6696 7.5901 17.7296 11.7601 18.7196L13.4401 19.1196C14.0201 19.2596 14.5601 19.3496 15.0601 19.3896Z" />
<path d="M17.4901 10.5098C17.4301 10.5098 17.3701 10.4998 17.3001 10.4898L12.4501 9.25978C12.0501 9.15978 11.8101 8.74978 11.9101 8.34978C12.0101 7.94978 12.4201 7.70978 12.8201 7.80978L17.6701 9.03978C18.0701 9.13978 18.3101 9.54978 18.2101 9.94978C18.1301 10.2798 17.8201 10.5098 17.4901 10.5098Z" />
<path d="M14.5599 13.8899C14.4999 13.8899 14.4399 13.8799 14.3699 13.8699L11.4599 13.1299C11.0599 13.0299 10.8199 12.6199 10.9199 12.2199C11.0199 11.8199 11.4299 11.5799 11.8299 11.6799L14.7399 12.4199C15.1399 12.5199 15.3799 12.9299 15.2799 13.3299C15.1999 13.6699 14.8999 13.8899 14.5599 13.8899Z" />
</svg>
