<?xml version="1.0" encoding="UTF-8"?>
<svg width="24" height="24" viewBox="0 0 24 24" xmlns="http://www.w3.org/2000/svg">
 <path d="m9.5601 18.75c-0.41 0-0.75-0.34-0.75-0.75v-5c0-0.41 0.34-0.75 0.75-0.75s0.75004 0.34 0.75004 0.75v5c0 0.41-0.34004 0.75-0.75004 0.75z"/>
 <path d="m12 16.25h-5c-0.41 0-0.75-0.34-0.75-0.75s0.34-0.75 0.75-0.75h5c0.41 0 0.75 0.34 0.75 0.75s-0.34 0.75-0.75 0.75z"/>
 <path d="m8 5.75c-0.41 0-0.75-0.34-0.75-0.75v-3c0-0.41 0.34-0.75 0.75-0.75s0.75 0.34 0.75 0.75v3c0 0.41-0.34 0.75-0.75 0.75z"/>
 <path d="m16 5.75c-0.41 0-0.75-0.34-0.75-0.75v-3c0-0.41 0.34-0.75 0.75-0.75s0.75 0.34 0.75 0.75v3c0 0.41-0.34 0.75-0.75 0.75z"/>
 <path d="m8.85 22.81c-2.47 0-4.1-0.54-5.12-1.7-1.18-1.33-1.37-3.32-1.41-5.09l-0.12999-6.17c-0.1-4.73 1.47-6.7 5.57-7.01l8.04-0.16h0.04c4.11 0.14 5.75 2.04 5.85 6.78l0.12 6.17c0.04 1.77-0.08 3.77-1.2 5.14-1.02 1.25-2.74 1.86-5.41 1.92l-6 0.12h-0.34999zm6.95-18.64-7.97 0.16c-2.8 0.22-4.23 1.12-4.14 5.49l0.12999 6.17c0.04 2.12 0.35 3.36 1.03 4.13 0.76 0.86 2.13 1.24 4.33 1.19l6-0.12c2.19-0.04 3.55-0.48 4.28-1.37 0.65-0.79 0.91-2.04 0.86-4.16l-0.12-6.17c-0.1-4.36-1.56-5.22-4.4-5.32z"/>
</svg>
