<?xml version="1.0" encoding="UTF-8"?>
<svg width="24" height="24" viewBox="0 0 24 24" xmlns="http://www.w3.org/2000/svg">
 <path d="m8 5.75c-0.41 0-0.75-0.34-0.75-0.75v-3c0-0.41 0.34-0.75 0.75-0.75s0.75 0.34 0.75 0.75v3c0 0.41-0.34 0.75-0.75 0.75z"/>
 <path d="m16 5.75c-0.41 0-0.75-0.34-0.75-0.75v-3c0-0.41 0.34-0.75 0.75-0.75s0.75 0.34 0.75 0.75v3c0 0.41-0.34 0.75-0.75 0.75z"/>
 <path d="m15 13.75h-8c-0.41 0-0.75-0.34-0.75-0.75s0.34-0.75 0.75-0.75h8c0.41 0 0.75 0.34 0.75 0.75s-0.34 0.75-0.75 0.75z"/>
 <path d="m12 17.75h-5c-0.41 0-0.75-0.34-0.75-0.75s0.34-0.75 0.75-0.75h5c0.41 0 0.75 0.34 0.75 0.75s-0.34 0.75-0.75 0.75z"/>
 <path d="m15 22.75h-6c-5.62 0-6.75-2.65-6.75-6.93v-6.17c0-4.74 1.6-6.67 5.71-6.9h8.04 0.04c4.11 0.23 5.71 2.16 5.71 6.9v6.17c0 4.28-1.13 6.93-6.75 6.93zm-7-18.5c-2.8 0.16-4.25 1.04-4.25 5.4v6.17c0 3.83 0.73 5.43 5.25 5.43h6c4.52 0 5.25-1.6 5.25-5.43v-6.17c0-4.35-1.44-5.24-4.27-5.4h-7.98z"/>
</svg>
