<?xml version="1.0" encoding="UTF-8"?>
<svg width="24" height="24" viewBox="0 0 24 24" xmlns="http://www.w3.org/2000/svg">
 <path d="m15.81 20.18c-0.26 0-0.53-0.01-0.82-0.04-0.52-0.04-1.11-0.14-1.72-0.29l-1.68-0.4c-4.61-1.09-6.12-3.53-5.04-8.13l0.98-4.19c0.22-0.94999 0.48-1.72 0.8-2.36 1.72-3.55 5.01-3.23 7.35-2.68l1.67 0.39c2.34 0.55 3.82 1.42 4.65 2.75 0.82 1.33 0.95 3.04 0.4 5.38l-0.98 4.18c-0.86 3.66-2.65 5.39-5.61 5.39zm-2.69-16.93c-1.67 0-2.73 0.69001-3.44 2.17-0.26 0.54-0.49 1.21-0.69 2.05l-0.98 4.19c-0.89 3.78 0.14 5.43 3.92 6.33l1.68 0.4c0.54 0.13 1.05 0.21 1.51 0.25 2.71 0.27 4.07-0.92 4.83-4.19l0.98-4.18c0.45-1.93 0.39-3.28-0.21-4.25-0.6-0.97-1.78-1.63-3.72-2.08l-1.67-0.39001c-0.83-0.2-1.57-0.3-2.21-0.3z"/>
 <path d="m8.33 22.25c-2.57 0-4.21-1.54-5.26-4.79l-1.28-3.95c-1.42-4.4-0.15-6.88 4.23-8.3l1.58-0.51c0.52-0.16 0.91-0.27 1.26-0.33 0.28-0.06 0.57 0.05 0.74 0.28s0.2 0.53 0.08 0.79c-0.26 0.53-0.49 1.2-0.68 2.04l-0.98 4.19c-0.89 3.78 0.14 5.43 3.92 6.33l1.68 0.4c0.54 0.13 1.05 0.21 1.51 0.25 0.32 0.03 0.58 0.25 0.67 0.56 0.08 0.31-0.04 0.63-0.3 0.81-0.66 0.45-1.49 0.83-2.54 1.17l-1.58 0.52c-1.15 0.36-2.15 0.54-3.05 0.54zm-0.55-16.03-1.29 0.42c-3.57 1.15-4.42 2.83-3.27 6.41l1.28 3.95c1.16 3.57 2.84 4.43 6.41 3.28l1.58-0.52c0.06-0.02 0.11-0.04 0.17-0.06l-1.06-0.25c-4.61-1.09-6.12-3.53-5.04-8.13l0.98-4.19c0.07-0.32 0.15-0.63 0.24-0.91z"/>
</svg>
