<?xml version="1.0" encoding="UTF-8"?>
<svg width="24" height="24" viewBox="0 0 24 24" xmlns="http://www.w3.org/2000/svg">
 <path d="m12 14.75h-5c-0.41 0-0.75-0.34-0.75-0.75s0.34-0.75 0.75-0.75h5c0.41 0 0.75 0.34 0.75 0.75s-0.34 0.75-0.75 0.75z"/>
 <path d="m6.9999 6.7104c-0.19 0-0.38-0.07-0.53-0.22l-3.75-3.75c-0.29-0.29-0.29-0.77 0-1.06s0.77-0.29 1.06 0l3.75 3.75c0.29 0.29 0.29 0.77 0 1.06-0.15 0.14-0.34 0.22-0.53 0.22z"/>
 <path d="m3.2099 6.7504c-0.19 0-0.38-0.07-0.53-0.22-0.29-0.29-0.29-0.77 0-1.06l3.75-3.75c0.29-0.29 0.77-0.29 1.06 0s0.29 0.77 0 1.06l-3.75 3.75c-0.14 0.15-0.34 0.22-0.53 0.22z"/>
 <path d="m15 10.75h-8c-0.41 0-0.75-0.34-0.75-0.75s0.34-0.75 0.75-0.75h8c0.41 0 0.75 0.34 0.75 0.75s-0.34 0.75-0.75 0.75z"/>
 <path d="m21 16.75c-0.41 0-0.75-0.34-0.75-0.75v-8.01c0-4.23-1.44-5.09-4.29-5.24h-5.96c-0.41 0-0.75-0.34-0.75-0.75s0.34-0.75 0.75-0.75h6c4.1 0.22 5.75 2.17 5.75 6.74v8.01c0 0.41-0.34 0.75-0.75 0.75z"/>
 <path d="m15 22.75h-6c-5.62 0-6.75-2.59-6.75-6.77v-6.97c0-0.41 0.34-0.75 0.75-0.75s0.75 0.34 0.75 0.75v6.97c0 3.72 0.73 5.27 5.25 5.27h6c0.41 0 0.75 0.34 0.75 0.75s-0.34 0.75-0.75 0.75z"/>
 <path d="m15 22.75c-0.1 0-0.19-0.02-0.29-0.06-0.28-0.12-0.46-0.39-0.46-0.69v-3c0-2.42 1.33-3.75 3.75-3.75h3c0.3 0 0.58 0.18 0.69 0.46s0.05 0.6-0.16 0.82l-6 6c-0.14 0.14-0.34 0.22-0.53 0.22zm3-6c-1.58 0-2.25 0.67-2.25 2.25v1.19l3.44-3.44h-1.19z"/>
</svg>
