<?xml version="1.0" encoding="UTF-8"?>
<svg width="24" height="24" viewBox="0 0 24 24" xmlns="http://www.w3.org/2000/svg">
 <path d="m8 5.75c-0.41 0-0.75-0.34-0.75-0.75v-3c0-0.41 0.34-0.75 0.75-0.75s0.75 0.34 0.75 0.75v3c0 0.41-0.34 0.75-0.75 0.75z"/>
 <path d="m16 5.75c-0.41 0-0.75-0.34-0.75-0.75v-3c0-0.41 0.34-0.75 0.75-0.75s0.75 0.34 0.75 0.75v3c0 0.41-0.34 0.75-0.75 0.75z"/>
 <path d="m14.68 22.75h-6.68c-3.65 0-5.75-2.1-5.75-5.75v-8.5c0-3.65 2.1-5.75 5.75-5.75h8c3.65 0 5.75 2.1 5.75 5.75v5.13c0 0.29-0.17 0.55-0.42 0.68-0.26 0.12-0.57 0.09-0.79-0.09-1.58-1.26-4.01-1.26-5.59 0.03-1.08 0.85-1.69 2.12-1.69 3.51 0 0.82 0.22 1.62 0.65 2.31 0.33 0.54 0.74 0.99 1.22 1.33 0.26 0.19 0.38 0.53 0.28 0.84-0.12 0.3-0.4 0.51-0.73 0.51zm-6.68-18.5c-2.86 0-4.25 1.39-4.25 4.25v8.5c0 2.86 1.39 4.25 4.25 4.25h4.89c-0.1-0.13-0.19-0.27-0.27-0.41-0.57-0.92-0.87-1.99-0.87-3.09 0-1.85 0.82-3.55 2.26-4.68 1.71-1.39 4.24-1.69 6.24-0.77v-3.8c0-2.86-1.39-4.25-4.25-4.25h-8z"/>
 <path d="m13 11.75h-6c-0.41 0-0.75-0.34-0.75-0.75s0.34-0.75 0.75-0.75h6c0.41 0 0.75 0.34 0.75 0.75s-0.34 0.75-0.75 0.75z"/>
 <path d="m9.62 16.75h-2.62c-0.41 0-0.75-0.34-0.75-0.75s0.34-0.75 0.75-0.75h2.62c0.41 0 0.75 0.34 0.75 0.75s-0.33 0.75-0.75 0.75z"/>
 <path d="m17.75 23.75c-1.28 0-2.49-0.4-3.51-1.14-0.64-0.46-1.19-1.06-1.62-1.77-0.57-0.92-0.87-1.99-0.87-3.09 0-1.85 0.82-3.55 2.26-4.68 2.08-1.69 5.36-1.7 7.46-0.03 1.45 1.14 2.28 2.86 2.28 4.71 0 1.1-0.3 2.17-0.87 3.09-0.32 0.55-0.73 1.03-1.2 1.42-1.07 0.96-2.47 1.49-3.93 1.49zm0-10.5c-1.02 0-2.02 0.35-2.81 0.99-1.08 0.85-1.69 2.12-1.69 3.51 0 0.82 0.22 1.62 0.65 2.31 0.33 0.54 0.74 0.99 1.22 1.33 0.77 0.56 1.68 0.86 2.63 0.86 1.11 0 2.13-0.39 2.95-1.12 0.36-0.3 0.65-0.65 0.89-1.06 0.43-0.7 0.66-1.5 0.66-2.32 0-1.39-0.62-2.6701-1.71-3.5301-0.8-0.64-1.76-0.9699-2.79-0.9699z"/>
 <path d="m17.75 21c-0.41 0-0.75-0.34-0.75-0.75 0-0.96-0.79-1.75-1.75-1.75-0.41 0-0.75-0.34-0.75-0.75s0.34-0.75 0.75-0.75c0.96 0 1.75-0.79 1.75-1.75 0-0.41 0.34-0.75 0.75-0.75s0.75 0.34 0.75 0.75c0 0.96 0.79 1.75 1.75 1.75 0.41 0 0.75 0.34 0.75 0.75s-0.34 0.75-0.75 0.75c-0.96 0-1.75 0.79-1.75 1.75 0 0.41-0.34 0.75-0.75 0.75zm-0.43-3.25c0.15 0.13 0.3 0.27 0.43 0.43 0.13-0.15 0.27-0.3 0.43-0.43-0.15-0.13-0.3-0.27-0.43-0.43-0.13 0.16-0.27 0.3-0.43 0.43z"/>
</svg>
