<?xml version="1.0" encoding="UTF-8"?>
<svg width="24" height="24" viewBox="0 0 24 24" xmlns="http://www.w3.org/2000/svg">
 <path d="m12 10.52c-0.41 0-0.75-0.34-0.75-0.74997v-3.33c0-0.41 0.34-0.75 0.75-0.75s0.75 0.34 0.75 0.75v3.33c0 0.41997-0.34 0.74997-0.75 0.74997z"/>
 <path d="m12.02 20.35c-2.58 0-5.15-0.41-7.6-1.23-0.91-0.3-1.6-0.95-1.9-1.77s-0.2-1.76 0.29-2.58l1.27-2.12c0.28-0.47 0.53-1.35 0.53-1.9v-2.1c0-4.09 3.32-7.41 7.41-7.41 4.09 0 7.41 3.32 7.41 7.41v2.1c0 0.54 0.25 1.43 0.53 1.9l1.27 2.12c0.47 0.78 0.55 1.71 0.24 2.56s-0.99 1.5-1.85 1.79c-2.45 0.83-5.02 1.23-7.6 1.23zm0-17.6c-3.26 0-5.91 2.65-5.91 5.91v2.1c0 0.81-0.32 1.98-0.74 2.67l-1.27 2.13c-0.26 0.43-0.32 0.89-0.17 1.29s0.49 0.7 0.97 0.86c4.6 1.53 9.66 1.53 14.26 0 0.43-0.14 0.76-0.46 0.91-0.88 0.16-0.42 0.11-0.88-0.12-1.27l-1.27-2.12c-0.42-0.69-0.74-1.86-0.74-2.67v-2.1c-0.01-3.27-2.66-5.92-5.92-5.92z"/>
 <path d="m12 22.9c-1.07 0-2.12-0.44-2.88-1.2s-1.2-1.81-1.2-2.88h1.5c0 0.68 0.28 1.34 0.75998 1.82 0.48 0.48 1.14 0.76 1.82 0.76 1.42 0 2.58-1.16 2.58-2.58h1.5c0 2.25-1.83 4.08-4.08 4.08z"/>
</svg>
