<?xml version="1.0" encoding="UTF-8"?>
<svg width="24" height="24" viewBox="0 0 24 24" xmlns="http://www.w3.org/2000/svg">
 <path d="m19 8.75c-2.07 0-3.75-1.68-3.75-3.75s1.68-3.75 3.75-3.75 3.75 1.68 3.75 3.75-1.68 3.75-3.75 3.75zm0-6c-1.24 0-2.25 1.01-2.25 2.25s1.01 2.25 2.25 2.25 2.25-1.01 2.25-2.25-1.01-2.25-2.25-2.25z"/>
 <path d="m12 22.75c-5.93 0-10.75-4.82-10.75-10.75s4.82-10.75 10.75-10.75c0.73 0 1.46 0.07 2.17 0.22 0.41 0.08 0.67 0.48 0.58 0.89-0.08 0.41-0.48 0.67-0.88 0.58-0.61-0.13-1.24-0.19-1.87-0.19-5.1 0-9.25 4.15-9.25 9.25s4.15 9.25 9.25 9.25 9.25-4.15 9.25-9.25c0-0.62-0.06-1.24-0.18-1.84-0.08-0.41 0.18-0.8 0.59-0.88 0.41-0.09 0.8 0.18 0.88 0.59 0.14 0.7 0.21 1.42 0.21 2.14 0 5.92-4.82 10.74-10.75 10.74z"/>
</svg>
