<?xml version="1.0" encoding="UTF-8"?>
<svg width="24" height="24" viewBox="0 0 24 24" xmlns="http://www.w3.org/2000/svg">
 <path d="m19 8.75c-2.07 0-3.75-1.68-3.75-3.75s1.68-3.75 3.75-3.75 3.75 1.68 3.75 3.75-1.68 3.75-3.75 3.75zm0-6c-1.24 0-2.25 1.01-2.25 2.25s1.01 2.25 2.25 2.25 2.25-1.01 2.25-2.25-1.01-2.25-2.25-2.25z"/>
 <path d="m15 22.75h-6c-5.43 0-7.75-2.32-7.75-7.75v-6c0-5.43 2.32-7.75 7.75-7.75h5c0.41 0 0.75 0.34 0.75 0.75s-0.34 0.75-0.75 0.75h-5c-4.61 0-6.25 1.64-6.25 6.25v6c0 4.61 1.64 6.25 6.25 6.25h6c4.61 0 6.25-1.64 6.25-6.25v-5c0-0.41 0.34-0.75 0.75-0.75s0.75 0.34 0.75 0.75v5c0 5.43-2.32 7.75-7.75 7.75z"/>
 <path d="m9.8099 18.33c-0.92 0-3.06-1.12-3.72-3.18-0.45-1.41 0.07-3.26 1.7-3.79 0.7-0.23 1.43-0.12 2.01 0.25 0.56997-0.37 1.32-0.48 2.02-0.25 1.63 0.53 2.16 2.38 1.7 3.79-0.65 2.1-2.89 3.18-3.71 3.18zm-2.29-3.63c0.46 1.45 2.02 2.11 2.3 2.14 0.31997-0.03 1.85-0.77 2.27-2.13 0.23-0.73 0-1.67-0.73-1.91-0.31-0.1-0.73-0.04-0.93 0.25-0.14 0.21-0.36 0.33-0.60997 0.34-0.24 0-0.48-0.11-0.62-0.31-0.24-0.33-0.66-0.38-0.95-0.28-0.72 0.23-0.96 1.17-0.73 1.9z"/>
</svg>
