<svg width="24" height="24" viewBox="0 0 24 24"  xmlns="http://www.w3.org/2000/svg">
<path d="M12 4.75034C11.9 4.75034 11.8 4.74034 11.71 4.72034C11.61 4.70034 11.52 4.67034 11.43 4.64034C11.34 4.60034 11.25 4.55034 11.17 4.50034C11.09 4.44034 11.01 4.38034 10.94 4.31034C10.66 4.03034 10.5 3.65034 10.5 3.25034C10.5 2.85034 10.66 2.47034 10.94 2.19034C11.01 2.12034 11.09 2.06034 11.17 2.00034C11.25 1.95034 11.34 1.90034 11.43 1.87034C11.52 1.83034 11.61 1.80034 11.71 1.78034C12.19 1.68034 12.71 1.84034 13.06 2.19034C13.34 2.47034 13.5 2.85034 13.5 3.25034C13.5 3.65034 13.34 4.03034 13.06 4.31034C12.78 4.59034 12.39 4.75034 12 4.75034Z" />
<path d="M12 9.25C11.9 9.25 11.8 9.24 11.71 9.22C11.61 9.2 11.52 9.17 11.43 9.14C11.34 9.1 11.25 9.05 11.17 9C11.09 8.94 11.01 8.88 10.94 8.81C10.66 8.53 10.5 8.15 10.5 7.75C10.5 7.35 10.66 6.97 10.94 6.69C11.01 6.62 11.09 6.56 11.17 6.5C11.25 6.45 11.34 6.4 11.43 6.37C11.52 6.33 11.61 6.3 11.71 6.28C11.9 6.24 12.1 6.24 12.29 6.28C12.39 6.3 12.48 6.33 12.57 6.37C12.66 6.4 12.75 6.45 12.83 6.5C12.91 6.56 12.99 6.62 13.06 6.69C13.34 6.97 13.5 7.35 13.5 7.75C13.5 8.15 13.34 8.53 13.06 8.81C12.99 8.88 12.91 8.94 12.83 9C12.75 9.05 12.66 9.1 12.57 9.14C12.48 9.17 12.39 9.2 12.29 9.22C12.2 9.24 12.1 9.25 12 9.25Z" />
<path d="M12 13.2503C11.9 13.2503 11.8 13.2403 11.71 13.2203C11.61 13.2003 11.52 13.1703 11.43 13.1403C11.34 13.1003 11.25 13.0503 11.17 13.0003C11.09 12.9403 11.01 12.8803 10.94 12.8103C10.87 12.7403 10.81 12.6703 10.75 12.5803C10.7 12.5003 10.65 12.4103 10.61 12.3203C10.58 12.2303 10.55 12.1403 10.53 12.0403C10.51 11.9503 10.5 11.8503 10.5 11.7503C10.5 11.3503 10.66 10.9703 10.94 10.6903C11.01 10.6203 11.09 10.5603 11.17 10.5003C11.25 10.4503 11.34 10.4003 11.43 10.3603C11.52 10.3303 11.61 10.3003 11.71 10.2803C12.19 10.1803 12.71 10.3403 13.06 10.6903C13.34 10.9703 13.5 11.3503 13.5 11.7503C13.5 11.8503 13.49 11.9503 13.47 12.0403C13.45 12.1403 13.42 12.2303 13.38 12.3203C13.35 12.4103 13.3 12.5003 13.25 12.5803C13.19 12.6703 13.13 12.7403 13.06 12.8103C12.99 12.8803 12.91 12.9403 12.83 13.0003C12.75 13.0503 12.66 13.1003 12.57 13.1403C12.48 13.1703 12.39 13.2003 12.29 13.2203C12.2 13.2403 12.1 13.2503 12 13.2503Z" />
<g opacity="0.6">
<path opacity="0.6" d="M12 16.75C11.74 16.75 11.48 16.64 11.29 16.46C11.11 16.27 11 16.01 11 15.75C11 15.49 11.11 15.23 11.29 15.04C11.52 14.81 11.87 14.71 12.19 14.77C12.26 14.78 12.32 14.8 12.38 14.83C12.44 14.85 12.5 14.88 12.55 14.92C12.61 14.96 12.66 15 12.71 15.04C12.89 15.23 13 15.49 13 15.75C13 16.01 12.89 16.27 12.71 16.46C12.66 16.5 12.61 16.54 12.55 16.58C12.5 16.62 12.44 16.65 12.38 16.67C12.32 16.7 12.26 16.72 12.19 16.73C12.13 16.74 12.06 16.75 12 16.75Z" />
</g>
<g opacity="0.4">
<path opacity="0.4" d="M12 20C11.9 20 11.8 19.98 11.71 19.94C11.62 19.9 11.54 19.85 11.47 19.78C11.4 19.71 11.34 19.63 11.31 19.54C11.27 19.45 11.25 19.35 11.25 19.25C11.25 19.05 11.33 18.86 11.47 18.72C11.54 18.65 11.62 18.6 11.71 18.56C11.9 18.48 12.1 18.48 12.29 18.56C12.38 18.6 12.46 18.65 12.53 18.72C12.6 18.79 12.65 18.87 12.69 18.96C12.73 19.05 12.75 19.15 12.75 19.25C12.75 19.35 12.73 19.45 12.69 19.54C12.65 19.63 12.6 19.71 12.53 19.78C12.46 19.85 12.38 19.9 12.29 19.94C12.19 19.98 12.1 20 12 20Z" />
</g>
<g opacity="0.2">
<path opacity="0.2" d="M12 22.0706C11.87 22.0706 11.74 22.0206 11.65 21.9206C11.55 21.8306 11.5 21.7006 11.5 21.5706C11.5 21.4406 11.55 21.3106 11.65 21.2206C11.83 21.0306 12.17 21.0306 12.35 21.2206C12.45 21.3106 12.5 21.4406 12.5 21.5706C12.5 21.7006 12.45 21.8306 12.35 21.9206C12.26 22.0206 12.13 22.0706 12 22.0706Z" />
</g>
<path d="M3.5 9.25051C3.1 9.25051 2.72 9.09051 2.44 8.81051C2.16 8.53051 2 8.15051 2 7.75051C2 7.36051 2.16 6.97051 2.44 6.69051C2.99 6.13051 4 6.13051 4.56 6.69051C4.84 6.97051 5 7.36051 5 7.75051C5 8.15051 4.84 8.53051 4.56 8.81051C4.49 8.88051 4.41002 8.94051 4.33002 9.00051C4.25002 9.05051 4.16001 9.10051 4.07001 9.13051C3.98001 9.17051 3.88998 9.20051 3.78998 9.22051C3.69998 9.24051 3.6 9.25051 3.5 9.25051Z" />
<path d="M20.5 9.25C20.11 9.25 19.72 9.09 19.44 8.81C19.16 8.53 19 8.14 19 7.75C19 7.65 19.01 7.55 19.03 7.46C19.05 7.36 19.08 7.27 19.11 7.18C19.15 7.09 19.2 7 19.25 6.92C19.31 6.84 19.37 6.76 19.44 6.69C19.51 6.62 19.59 6.56 19.67 6.5C19.75 6.45 19.84 6.4 19.93 6.37C20.02 6.33 20.11 6.3 20.21 6.28C20.4 6.24 20.6 6.24 20.79 6.28C20.89 6.3 20.98 6.33 21.07 6.37C21.16 6.4 21.25 6.45 21.33 6.5C21.41 6.56 21.49 6.62 21.56 6.69C21.63 6.76 21.69 6.84 21.75 6.92C21.8 7 21.85 7.09 21.88 7.18C21.92 7.27 21.95 7.36 21.97 7.46C21.99 7.55 22 7.65 22 7.75C22 8.15 21.84 8.53 21.56 8.81C21.49 8.88 21.41 8.94 21.33 9C21.25 9.05 21.16 9.1 21.07 9.14C20.98 9.17 20.89 9.2 20.79 9.22C20.69 9.24 20.6 9.25 20.5 9.25Z" />
<g opacity="0.6">
<path opacity="0.6" d="M20.5 12.7505C20.44 12.7505 20.37 12.7405 20.31 12.7305C20.24 12.7205 20.18 12.7005 20.12 12.6705C20.06 12.6505 20 12.6205 19.94 12.5805C19.89 12.5505 19.84 12.5005 19.79 12.4605C19.75 12.4105 19.7 12.3605 19.67 12.3105C19.63 12.2505 19.6 12.1905 19.58 12.1305C19.55 12.0705 19.53 12.0105 19.52 11.9505C19.51 11.8805 19.5 11.8205 19.5 11.7505C19.5 11.4905 19.61 11.2305 19.79 11.0405C19.84 11.0005 19.89 10.9605 19.94 10.9205C20 10.8805 20.06 10.8505 20.12 10.8305C20.18 10.8005 20.24 10.7805 20.31 10.7705C20.43 10.7405 20.56 10.7405 20.69 10.7705C20.76 10.7805 20.82 10.8005 20.88 10.8305C20.94 10.8505 21 10.8805 21.05 10.9205C21.11 10.9605 21.16 11.0005 21.21 11.0405C21.39 11.2305 21.5 11.4905 21.5 11.7505C21.5 11.8205 21.49 11.8805 21.48 11.9505C21.47 12.0105 21.45 12.0705 21.42 12.1305C21.4 12.1905 21.37 12.2505 21.33 12.3105C21.29 12.3605 21.25 12.4105 21.21 12.4605C21.16 12.5005 21.11 12.5505 21.05 12.5805C21 12.6205 20.94 12.6505 20.88 12.6705C20.82 12.7005 20.76 12.7205 20.69 12.7305C20.63 12.7405 20.56 12.7505 20.5 12.7505Z" />
</g>
<g opacity="0.6">
<path opacity="0.6" d="M3.5 12.7508C3.24 12.7508 2.97998 12.6408 2.78998 12.4608C2.60998 12.2708 2.5 12.0108 2.5 11.7508C2.5 11.4908 2.60998 11.2308 2.78998 11.0408C3.06998 10.7608 3.51 10.6708 3.88 10.8308C4.01 10.8808 4.11002 10.9508 4.21002 11.0408C4.39002 11.2308 4.5 11.4908 4.5 11.7508C4.5 12.0108 4.39002 12.2708 4.21002 12.4608C4.02002 12.6408 3.76 12.7508 3.5 12.7508Z" />
</g>
<g opacity="0.4">
<path opacity="0.4" d="M20.5 15.5005C20.3 15.5005 20.11 15.4205 19.97 15.2805C19.83 15.1405 19.75 14.9505 19.75 14.7505C19.75 14.6505 19.77 14.5605 19.81 14.4605C19.85 14.3705 19.9 14.2905 19.97 14.2205C20.18 14.0105 20.51 13.9405 20.79 14.0605C20.88 14.1005 20.96 14.1505 21.03 14.2205C21.1 14.2905 21.15 14.3705 21.19 14.4605C21.23 14.5605 21.25 14.6505 21.25 14.7505C21.25 14.9505 21.17 15.1405 21.03 15.2805C20.96 15.3505 20.88 15.4005 20.79 15.4405C20.69 15.4805 20.6 15.5005 20.5 15.5005Z" />
</g>
<g opacity="0.4">
<path opacity="0.4" d="M3.5 15.5007C3.3 15.5007 3.10997 15.4207 2.96997 15.2807C2.89997 15.2107 2.84 15.1307 2.81 15.0407C2.77 14.9507 2.75 14.8507 2.75 14.7507C2.75 14.6507 2.77 14.5607 2.81 14.4607C2.84 14.3707 2.89997 14.2907 2.96997 14.2207C3.23997 13.9407 3.75003 13.9407 4.03003 14.2207C4.10003 14.2907 4.15 14.3707 4.19 14.4607C4.23 14.5607 4.25 14.6507 4.25 14.7507C4.25 14.8507 4.23 14.9507 4.19 15.0407C4.15 15.1307 4.10003 15.2107 4.03003 15.2807C3.89003 15.4207 3.7 15.5007 3.5 15.5007Z" />
</g>
<g opacity="0.2">
<path opacity="0.2" d="M20.5 18.0003C20.43 18.0003 20.37 17.9903 20.31 17.9603C20.25 17.9403 20.19 17.9003 20.15 17.8503C20.05 17.7603 20 17.6303 20 17.5003C20 17.3703 20.05 17.2403 20.15 17.1503C20.33 16.9603 20.67 16.9603 20.85 17.1503C20.95 17.2403 21 17.3703 21 17.5003C21 17.6303 20.95 17.7603 20.85 17.8503C20.76 17.9503 20.63 18.0003 20.5 18.0003Z" />
</g>
<g opacity="0.2">
<path opacity="0.2" d="M3.5 18.0003C3.37 18.0003 3.24002 17.9503 3.15002 17.8503C3.05002 17.7603 3 17.6303 3 17.5003C3 17.3703 3.05002 17.2403 3.15002 17.1503C3.33002 16.9603 3.66998 16.9603 3.84998 17.1503C3.94998 17.2403 4 17.3703 4 17.5003C4 17.6303 3.94998 17.7603 3.84998 17.8503C3.75998 17.9503 3.63 18.0003 3.5 18.0003Z" />
</g>
<path d="M7.75 7.00051C7.65 7.00051 7.55002 6.99051 7.46002 6.97051C7.36002 6.95051 7.26999 6.92051 7.17999 6.88051C7.07999 6.85051 6.99998 6.80051 6.91998 6.75051C6.82998 6.69051 6.76 6.63051 6.69 6.56051C6.41 6.28051 6.25 5.89051 6.25 5.50051C6.25 5.11051 6.41 4.72051 6.69 4.44051C7.25 3.88051 8.25 3.88051 8.81 4.44051C9.09 4.72051 9.25 5.10051 9.25 5.50051C9.25 5.90051 9.09 6.28051 8.81 6.56051C8.74 6.63051 8.66002 6.69051 8.58002 6.75051C8.50002 6.80051 8.41001 6.85051 8.32001 6.88051C8.23001 6.92051 8.13998 6.95051 8.03998 6.97051C7.94998 6.99051 7.85 7.00051 7.75 7.00051Z" />
<path d="M16.25 7C16.15 7 16.05 6.99 15.96 6.97C15.86 6.95 15.77 6.92 15.68 6.88C15.59 6.85 15.5 6.8 15.42 6.75C15.34 6.69 15.26 6.63 15.19 6.56C15.12 6.49 15.06 6.41 15 6.33C14.95 6.25 14.9 6.16 14.86 6.07C14.83 5.98 14.8 5.89 14.78 5.79C14.76 5.7 14.75 5.6 14.75 5.5C14.75 5.11 14.91 4.72 15.19 4.44C15.26 4.37 15.34 4.31 15.42 4.25C15.5 4.2 15.59 4.15 15.68 4.12C15.77 4.08 15.86 4.05 15.96 4.03C16.15 3.99 16.35 3.99 16.54 4.03C16.64 4.05 16.73 4.08 16.82 4.12C16.91 4.15 17 4.2 17.08 4.25C17.16 4.31 17.24 4.37 17.31 4.44C17.59 4.72 17.75 5.11 17.75 5.5C17.75 5.6 17.74 5.7 17.72 5.79C17.7 5.89 17.67 5.98 17.64 6.07C17.6 6.16 17.55 6.25 17.5 6.33C17.44 6.41 17.38 6.49 17.31 6.56C17.24 6.63 17.16 6.69 17.08 6.75C17 6.8 16.91 6.85 16.82 6.88C16.73 6.92 16.64 6.95 16.54 6.97C16.45 6.99 16.35 7 16.25 7Z" />
<path d="M7.75 11.2505C7.65 11.2505 7.55002 11.2405 7.46002 11.2205C7.36002 11.2005 7.26999 11.1705 7.17999 11.1405C7.08999 11.1005 6.99998 11.0505 6.91998 11.0005C6.82998 10.9405 6.76 10.8805 6.69 10.8105C6.41 10.5305 6.25 10.1405 6.25 9.75051C6.25 9.35051 6.41 8.97051 6.69 8.69051C7.25 8.13051 8.25 8.13051 8.81 8.69051C9.09 8.97051 9.25 9.35051 9.25 9.75051C9.25 10.1505 9.09 10.5305 8.81 10.8105C8.53 11.0905 8.14 11.2505 7.75 11.2505Z" />
<path d="M16.25 11.25C16.15 11.25 16.05 11.24 15.96 11.22C15.86 11.2 15.77 11.17 15.68 11.13C15.59 11.1 15.5 11.05 15.42 11C15.34 10.94 15.26 10.88 15.19 10.81C15.12 10.74 15.06 10.66 15 10.58C14.95 10.5 14.9 10.41 14.86 10.32C14.83 10.23 14.8 10.14 14.78 10.04C14.76 9.95 14.75 9.85 14.75 9.75C14.75 9.36 14.91 8.97 15.19 8.69C15.26 8.62 15.34 8.56 15.42 8.5C15.5 8.45 15.59 8.4 15.68 8.37C15.77 8.33 15.86 8.3 15.96 8.28C16.15 8.24 16.35 8.24 16.54 8.28C16.64 8.3 16.73 8.33 16.82 8.37C16.91 8.4 17 8.45 17.08 8.5C17.16 8.56 17.24 8.62 17.31 8.69C17.59 8.97 17.75 9.36 17.75 9.75C17.75 9.85 17.74 9.95 17.72 10.04C17.7 10.14 17.67 10.23 17.64 10.32C17.6 10.41 17.55 10.5 17.5 10.58C17.44 10.66 17.38 10.74 17.31 10.81C17.24 10.88 17.16 10.94 17.08 11C17 11.05 16.91 11.1 16.82 11.13C16.73 11.17 16.64 11.2 16.54 11.22C16.45 11.24 16.35 11.25 16.25 11.25Z" />
<g opacity="0.6">
<path opacity="0.6" d="M7.75 14.7502C7.62 14.7502 7.49 14.7202 7.37 14.6702C7.24 14.6202 7.12998 14.5502 7.03998 14.4602C6.94998 14.3602 6.88002 14.2502 6.83002 14.1302C6.78002 14.0102 6.75 13.8802 6.75 13.7502C6.75 13.4902 6.85998 13.2302 7.03998 13.0402C7.40998 12.6702 8.09002 12.6702 8.46002 13.0402C8.64002 13.2302 8.75 13.4902 8.75 13.7502C8.75 13.8802 8.71998 14.0102 8.66998 14.1302C8.61998 14.2502 8.55002 14.3602 8.46002 14.4602C8.27002 14.6402 8.01 14.7502 7.75 14.7502Z" />
</g>
<g opacity="0.6">
<path opacity="0.6" d="M16.25 14.7502C15.99 14.7502 15.73 14.6402 15.54 14.4602C15.36 14.2702 15.25 14.0102 15.25 13.7502C15.25 13.4902 15.36 13.2302 15.54 13.0402C15.91 12.6702 16.58 12.6702 16.96 13.0402C17.14 13.2302 17.25 13.4902 17.25 13.7502C17.25 13.8202 17.24 13.8802 17.23 13.9502C17.22 14.0102 17.2 14.0702 17.17 14.1302C17.15 14.1902 17.12 14.2502 17.08 14.3002C17.04 14.3602 17 14.4102 16.96 14.4602C16.77 14.6402 16.51 14.7502 16.25 14.7502Z" />
</g>
<g opacity="0.4">
<path opacity="0.4" d="M7.75 17.75C7.55 17.75 7.35997 17.67 7.21997 17.53C7.14997 17.46 7.1 17.38 7.06 17.29C7.02 17.2 7 17.1 7 17C7 16.9 7.02 16.81 7.06 16.71C7.1 16.62 7.14997 16.54 7.21997 16.47C7.28997 16.4 7.37002 16.35 7.46002 16.31C7.64002 16.23 7.84998 16.23 8.03998 16.31C8.12998 16.35 8.21003 16.4 8.28003 16.47C8.42003 16.61 8.5 16.8 8.5 17C8.5 17.1 8.48 17.2 8.44 17.29C8.4 17.38 8.35003 17.46 8.28003 17.53C8.14003 17.67 7.95 17.75 7.75 17.75Z" />
</g>
<g opacity="0.4">
<path opacity="0.4" d="M16.25 17.75C16.15 17.75 16.05 17.73 15.96 17.69C15.87 17.65 15.79 17.6 15.72 17.53C15.65 17.46 15.59 17.38 15.56 17.29C15.52 17.2 15.5 17.1 15.5 17C15.5 16.9 15.52 16.8 15.56 16.71C15.6 16.62 15.65 16.54 15.72 16.47C15.79 16.4 15.87 16.35 15.96 16.31C16.14 16.23 16.35 16.23 16.54 16.31C16.63 16.35 16.71 16.4 16.78 16.47C16.85 16.54 16.9 16.62 16.94 16.71C16.98 16.8 17 16.9 17 17C17 17.1 16.98 17.2 16.94 17.29C16.9 17.38 16.85 17.46 16.78 17.53C16.64 17.67 16.45 17.75 16.25 17.75Z" />
</g>
<g opacity="0.2">
<path opacity="0.2" d="M7.75 20.0003C7.62 20.0003 7.49002 19.9503 7.40002 19.8503C7.30002 19.7603 7.25 19.6303 7.25 19.5003C7.25 19.3703 7.30002 19.2403 7.40002 19.1503C7.58002 18.9603 7.91998 18.9603 8.09998 19.1503C8.19998 19.2403 8.25 19.3703 8.25 19.5003C8.25 19.6303 8.19998 19.7603 8.09998 19.8503C8.00998 19.9503 7.88 20.0003 7.75 20.0003Z" />
</g>
<g opacity="0.2">
<path opacity="0.2" d="M16.25 20.0003C16.18 20.0003 16.12 19.9903 16.06 19.9603C16 19.9403 15.94 19.9003 15.9 19.8503C15.85 19.8103 15.81 19.7503 15.79 19.6903C15.76 19.6303 15.75 19.5703 15.75 19.5003C15.75 19.3703 15.8 19.2403 15.9 19.1503C16.08 18.9603 16.42 18.9603 16.6 19.1503C16.7 19.2403 16.75 19.3703 16.75 19.5003C16.75 19.5703 16.74 19.6303 16.71 19.6903C16.69 19.7503 16.65 19.8103 16.6 19.8503C16.51 19.9503 16.38 20.0003 16.25 20.0003Z" />
</g>
</svg>
