<svg width="24" height="24" viewBox="0 0 24 24"  xmlns="http://www.w3.org/2000/svg">
<path d="M12 4.74937C11.9 4.74937 11.8 4.73937 11.71 4.71937C11.61 4.69937 11.52 4.66936 11.43 4.63936C11.34 4.59936 11.25 4.54937 11.17 4.49937C11.09 4.43937 11.01 4.37936 10.94 4.30936C10.66 4.02936 10.5 3.64937 10.5 3.24937C10.5 2.84937 10.66 2.46937 10.94 2.18937C11.01 2.11937 11.09 2.05937 11.17 1.99937C11.25 1.94937 11.34 1.89936 11.43 1.86936C11.52 1.82936 11.61 1.79936 11.71 1.77936C12.19 1.67936 12.71 1.83937 13.06 2.18937C13.34 2.46937 13.5 2.84937 13.5 3.24937C13.5 3.64937 13.34 4.02936 13.06 4.30936C12.78 4.58936 12.39 4.74937 12 4.74937Z" />
<path d="M12 9.25C11.9 9.25 11.8 9.24 11.71 9.22C11.61 9.2 11.52 9.17 11.43 9.14C11.34 9.1 11.25 9.05 11.17 9C11.09 8.94 11.01 8.88 10.94 8.81C10.66 8.53 10.5 8.15 10.5 7.75C10.5 7.35 10.66 6.97 10.94 6.69C11.01 6.62 11.09 6.56 11.17 6.5C11.25 6.45 11.34 6.4 11.43 6.37C11.52 6.33 11.61 6.3 11.71 6.28C11.9 6.24 12.1 6.24 12.29 6.28C12.39 6.3 12.48 6.33 12.57 6.37C12.66 6.4 12.75 6.45 12.83 6.5C12.91 6.56 12.99 6.62 13.06 6.69C13.34 6.97 13.5 7.35 13.5 7.75C13.5 8.15 13.34 8.53 13.06 8.81C12.99 8.88 12.91 8.94 12.83 9C12.75 9.05 12.66 9.1 12.57 9.14C12.48 9.17 12.39 9.2 12.29 9.22C12.2 9.24 12.1 9.25 12 9.25Z" />
<path d="M12 13.2494C11.9 13.2494 11.8 13.2394 11.71 13.2194C11.61 13.1994 11.52 13.1694 11.43 13.1394C11.34 13.0994 11.25 13.0494 11.17 12.9994C11.09 12.9394 11.01 12.8794 10.94 12.8094C10.87 12.7394 10.81 12.6694 10.75 12.5794C10.7 12.4994 10.65 12.4094 10.61 12.3194C10.58 12.2294 10.55 12.1394 10.53 12.0394C10.51 11.9494 10.5 11.8494 10.5 11.7494C10.5 11.3494 10.66 10.9694 10.94 10.6894C11.01 10.6194 11.09 10.5594 11.17 10.4994C11.25 10.4494 11.34 10.3994 11.43 10.3594C11.52 10.3294 11.61 10.2994 11.71 10.2794C12.19 10.1794 12.71 10.3394 13.06 10.6894C13.34 10.9694 13.5 11.3494 13.5 11.7494C13.5 11.8494 13.49 11.9494 13.47 12.0394C13.45 12.1394 13.42 12.2294 13.38 12.3194C13.35 12.4094 13.3 12.4994 13.25 12.5794C13.19 12.6694 13.13 12.7394 13.06 12.8094C12.99 12.8794 12.91 12.9394 12.83 12.9994C12.75 13.0494 12.66 13.0994 12.57 13.1394C12.48 13.1694 12.39 13.1994 12.29 13.2194C12.2 13.2394 12.1 13.2494 12 13.2494Z" />
<path d="M12 16.751C11.74 16.751 11.48 16.641 11.29 16.461C11.11 16.271 11 16.011 11 15.751C11 15.491 11.11 15.231 11.29 15.041C11.52 14.811 11.87 14.711 12.19 14.771C12.26 14.781 12.32 14.801 12.38 14.831C12.44 14.851 12.5 14.881 12.55 14.921C12.61 14.961 12.66 15.001 12.71 15.041C12.89 15.231 13 15.491 13 15.751C13 16.011 12.89 16.271 12.71 16.461C12.66 16.501 12.61 16.541 12.55 16.581C12.5 16.621 12.44 16.651 12.38 16.671C12.32 16.701 12.26 16.721 12.19 16.731C12.13 16.741 12.06 16.751 12 16.751Z" />
<path d="M12 20C11.9 20 11.8 19.98 11.71 19.94C11.62 19.9 11.54 19.85 11.47 19.78C11.4 19.71 11.34 19.63 11.31 19.54C11.27 19.45 11.25 19.35 11.25 19.25C11.25 19.05 11.33 18.86 11.47 18.72C11.54 18.65 11.62 18.6 11.71 18.56C11.9 18.48 12.1 18.48 12.29 18.56C12.38 18.6 12.46 18.65 12.53 18.72C12.6 18.79 12.65 18.87 12.69 18.96C12.73 19.05 12.75 19.15 12.75 19.25C12.75 19.35 12.73 19.45 12.69 19.54C12.65 19.63 12.6 19.71 12.53 19.78C12.46 19.85 12.38 19.9 12.29 19.94C12.19 19.98 12.1 20 12 20Z" />
<path d="M12 22.0706C11.87 22.0706 11.74 22.0206 11.65 21.9206C11.55 21.8306 11.5 21.7006 11.5 21.5706C11.5 21.4406 11.55 21.3106 11.65 21.2206C11.83 21.0306 12.17 21.0306 12.35 21.2206C12.45 21.3106 12.5 21.4406 12.5 21.5706C12.5 21.7006 12.45 21.8306 12.35 21.9206C12.26 22.0206 12.13 22.0706 12 22.0706Z" />
<path d="M3.5 9.24953C3.1 9.24953 2.72 9.08953 2.44 8.80953C2.16 8.52953 2 8.14953 2 7.74953C2 7.35953 2.16 6.96953 2.44 6.68953C2.99 6.12953 4 6.12953 4.56 6.68953C4.84 6.96953 5 7.35953 5 7.74953C5 8.14953 4.84 8.52953 4.56 8.80953C4.49 8.87953 4.41002 8.93953 4.33002 8.99953C4.25002 9.04953 4.16001 9.09953 4.07001 9.12953C3.98001 9.16953 3.88998 9.19953 3.78998 9.21953C3.69998 9.23953 3.6 9.24953 3.5 9.24953Z" />
<path d="M20.5 9.25C20.11 9.25 19.72 9.09 19.44 8.81C19.16 8.53 19 8.14 19 7.75C19 7.65 19.01 7.55001 19.03 7.46001C19.05 7.36001 19.08 7.26999 19.11 7.17999C19.15 7.08999 19.2 7 19.25 6.92C19.31 6.84 19.37 6.76 19.44 6.69C19.51 6.62 19.59 6.56 19.67 6.5C19.75 6.45 19.84 6.4 19.93 6.37C20.02 6.33 20.11 6.3 20.21 6.28C20.4 6.24 20.6 6.24 20.79 6.28C20.89 6.3 20.98 6.33 21.07 6.37C21.16 6.4 21.25 6.45 21.33 6.5C21.41 6.56 21.49 6.62 21.56 6.69C21.63 6.76 21.69 6.84 21.75 6.92C21.8 7 21.85 7.08999 21.88 7.17999C21.92 7.26999 21.95 7.36001 21.97 7.46001C21.99 7.55001 22 7.65 22 7.75C22 8.15 21.84 8.53 21.56 8.81C21.49 8.88 21.41 8.94 21.33 9C21.25 9.05 21.16 9.1 21.07 9.14C20.98 9.17 20.89 9.2 20.79 9.22C20.69 9.24 20.6 9.25 20.5 9.25Z" />
<path d="M20.5 12.7505C20.44 12.7505 20.37 12.7405 20.31 12.7305C20.24 12.7205 20.18 12.7005 20.12 12.6705C20.06 12.6505 20 12.6205 19.94 12.5805C19.89 12.5505 19.84 12.5005 19.79 12.4605C19.75 12.4105 19.7 12.3605 19.67 12.3105C19.63 12.2505 19.6 12.1905 19.58 12.1305C19.55 12.0705 19.53 12.0105 19.52 11.9505C19.51 11.8805 19.5 11.8205 19.5 11.7505C19.5 11.4905 19.61 11.2305 19.79 11.0405C19.84 11.0005 19.89 10.9605 19.94 10.9205C20 10.8805 20.06 10.8505 20.12 10.8305C20.18 10.8005 20.24 10.7805 20.31 10.7705C20.43 10.7405 20.56 10.7405 20.69 10.7705C20.76 10.7805 20.82 10.8005 20.88 10.8305C20.94 10.8505 21 10.8805 21.05 10.9205C21.11 10.9605 21.16 11.0005 21.21 11.0405C21.39 11.2305 21.5 11.4905 21.5 11.7505C21.5 11.8205 21.49 11.8805 21.48 11.9505C21.47 12.0105 21.45 12.0705 21.42 12.1305C21.4 12.1905 21.37 12.2505 21.33 12.3105C21.29 12.3605 21.25 12.4105 21.21 12.4605C21.16 12.5005 21.11 12.5505 21.05 12.5805C21 12.6205 20.94 12.6505 20.88 12.6705C20.82 12.7005 20.76 12.7205 20.69 12.7305C20.63 12.7405 20.56 12.7505 20.5 12.7505Z" />
<path d="M3.5 12.7508C3.24 12.7508 2.97998 12.6408 2.78998 12.4608C2.60998 12.2708 2.5 12.0108 2.5 11.7508C2.5 11.4908 2.60998 11.2308 2.78998 11.0408C3.06998 10.7608 3.51 10.6708 3.88 10.8308C4.01 10.8808 4.11002 10.9508 4.21002 11.0408C4.39002 11.2308 4.5 11.4908 4.5 11.7508C4.5 12.0108 4.39002 12.2708 4.21002 12.4608C4.02002 12.6408 3.76 12.7508 3.5 12.7508Z" />
<path d="M20.5 15.5005C20.3 15.5005 20.11 15.4205 19.97 15.2805C19.83 15.1405 19.75 14.9505 19.75 14.7505C19.75 14.6505 19.77 14.5605 19.81 14.4605C19.85 14.3705 19.9 14.2905 19.97 14.2205C20.18 14.0105 20.51 13.9405 20.79 14.0605C20.88 14.1005 20.96 14.1505 21.03 14.2205C21.1 14.2905 21.15 14.3705 21.19 14.4605C21.23 14.5605 21.25 14.6505 21.25 14.7505C21.25 14.9505 21.17 15.1405 21.03 15.2805C20.96 15.3505 20.88 15.4005 20.79 15.4405C20.69 15.4805 20.6 15.5005 20.5 15.5005Z" />
<path d="M3.5 15.4998C3.3 15.4998 3.10997 15.4198 2.96997 15.2798C2.89997 15.2098 2.84 15.1298 2.81 15.0398C2.77 14.9498 2.75 14.8498 2.75 14.7498C2.75 14.6498 2.77 14.5598 2.81 14.4598C2.84 14.3698 2.89997 14.2898 2.96997 14.2198C3.23997 13.9398 3.75003 13.9398 4.03003 14.2198C4.10003 14.2898 4.15 14.3698 4.19 14.4598C4.23 14.5598 4.25 14.6498 4.25 14.7498C4.25 14.8498 4.23 14.9498 4.19 15.0398C4.15 15.1298 4.10003 15.2098 4.03003 15.2798C3.89003 15.4198 3.7 15.4998 3.5 15.4998Z" />
<path d="M20.5 18.0003C20.43 18.0003 20.37 17.9903 20.31 17.9603C20.25 17.9403 20.19 17.9003 20.15 17.8503C20.05 17.7603 20 17.6303 20 17.5003C20 17.3703 20.05 17.2403 20.15 17.1503C20.33 16.9603 20.67 16.9603 20.85 17.1503C20.95 17.2403 21 17.3703 21 17.5003C21 17.6303 20.95 17.7603 20.85 17.8503C20.76 17.9503 20.63 18.0003 20.5 18.0003Z" />
<path d="M3.5 18.0003C3.37 18.0003 3.24002 17.9503 3.15002 17.8503C3.05002 17.7603 3 17.6303 3 17.5003C3 17.3703 3.05002 17.2403 3.15002 17.1503C3.33002 16.9603 3.66998 16.9603 3.84998 17.1503C3.94998 17.2403 4 17.3703 4 17.5003C4 17.6303 3.94998 17.7603 3.84998 17.8503C3.75998 17.9503 3.63 18.0003 3.5 18.0003Z" />
<path d="M7.75 6.99953C7.65 6.99953 7.55002 6.98953 7.46002 6.96953C7.36002 6.94953 7.26999 6.91953 7.17999 6.87953C7.07999 6.84953 6.99998 6.79953 6.91998 6.74953C6.82998 6.68953 6.76 6.62953 6.69 6.55953C6.41 6.27953 6.25 5.88953 6.25 5.49953C6.25 5.10953 6.41 4.71953 6.69 4.43953C7.25 3.87953 8.25 3.87953 8.81 4.43953C9.09 4.71953 9.25 5.09953 9.25 5.49953C9.25 5.89953 9.09 6.27953 8.81 6.55953C8.74 6.62953 8.66002 6.68953 8.58002 6.74953C8.50002 6.79953 8.41001 6.84953 8.32001 6.87953C8.23001 6.91953 8.13998 6.94953 8.03998 6.96953C7.94998 6.98953 7.85 6.99953 7.75 6.99953Z" />
<path d="M16.25 7C16.15 7 16.05 6.99 15.96 6.97C15.86 6.95 15.77 6.92001 15.68 6.88001C15.59 6.85001 15.5 6.8 15.42 6.75C15.34 6.69 15.26 6.63 15.19 6.56C15.12 6.49 15.06 6.41 15 6.33C14.95 6.25 14.9 6.16001 14.86 6.07001C14.83 5.98001 14.8 5.88999 14.78 5.78999C14.76 5.69999 14.75 5.6 14.75 5.5C14.75 5.11 14.91 4.72 15.19 4.44C15.26 4.37 15.34 4.31 15.42 4.25C15.5 4.2 15.59 4.15 15.68 4.12C15.77 4.08 15.86 4.05 15.96 4.03C16.15 3.99 16.35 3.99 16.54 4.03C16.64 4.05 16.73 4.08 16.82 4.12C16.91 4.15 17 4.2 17.08 4.25C17.16 4.31 17.24 4.37 17.31 4.44C17.59 4.72 17.75 5.11 17.75 5.5C17.75 5.6 17.74 5.69999 17.72 5.78999C17.7 5.88999 17.67 5.98001 17.64 6.07001C17.6 6.16001 17.55 6.25 17.5 6.33C17.44 6.41 17.38 6.49 17.31 6.56C17.24 6.63 17.16 6.69 17.08 6.75C17 6.8 16.91 6.85001 16.82 6.88001C16.73 6.92001 16.64 6.95 16.54 6.97C16.45 6.99 16.35 7 16.25 7Z" />
<path d="M7.75 11.2495C7.65 11.2495 7.55002 11.2395 7.46002 11.2195C7.36002 11.1995 7.26999 11.1695 7.17999 11.1395C7.08999 11.0995 6.99998 11.0495 6.91998 10.9995C6.82998 10.9395 6.76 10.8795 6.69 10.8095C6.41 10.5295 6.25 10.1395 6.25 9.74953C6.25 9.34953 6.41 8.96953 6.69 8.68953C7.25 8.12953 8.25 8.12953 8.81 8.68953C9.09 8.96953 9.25 9.34953 9.25 9.74953C9.25 10.1495 9.09 10.5295 8.81 10.8095C8.53 11.0895 8.14 11.2495 7.75 11.2495Z" />
<path d="M16.25 11.25C16.15 11.25 16.05 11.24 15.96 11.22C15.86 11.2 15.77 11.17 15.68 11.13C15.59 11.1 15.5 11.05 15.42 11C15.34 10.94 15.26 10.88 15.19 10.81C15.12 10.74 15.06 10.66 15 10.58C14.95 10.5 14.9 10.41 14.86 10.32C14.83 10.23 14.8 10.14 14.78 10.04C14.76 9.94999 14.75 9.85 14.75 9.75C14.75 9.36 14.91 8.97 15.19 8.69C15.26 8.62 15.34 8.56 15.42 8.5C15.5 8.45 15.59 8.4 15.68 8.37C15.77 8.33 15.86 8.3 15.96 8.28C16.15 8.24 16.35 8.24 16.54 8.28C16.64 8.3 16.73 8.33 16.82 8.37C16.91 8.4 17 8.45 17.08 8.5C17.16 8.56 17.24 8.62 17.31 8.69C17.59 8.97 17.75 9.36 17.75 9.75C17.75 9.85 17.74 9.94999 17.72 10.04C17.7 10.14 17.67 10.23 17.64 10.32C17.6 10.41 17.55 10.5 17.5 10.58C17.44 10.66 17.38 10.74 17.31 10.81C17.24 10.88 17.16 10.94 17.08 11C17 11.05 16.91 11.1 16.82 11.13C16.73 11.17 16.64 11.2 16.54 11.22C16.45 11.24 16.35 11.25 16.25 11.25Z" />
<path d="M7.75 14.7492C7.62 14.7492 7.49 14.7192 7.37 14.6692C7.24 14.6192 7.12998 14.5492 7.03998 14.4592C6.94998 14.3592 6.88002 14.2492 6.83002 14.1292C6.78002 14.0092 6.75 13.8792 6.75 13.7492C6.75 13.4892 6.85998 13.2292 7.03998 13.0392C7.40998 12.6692 8.09002 12.6692 8.46002 13.0392C8.64002 13.2292 8.75 13.4892 8.75 13.7492C8.75 13.8792 8.71998 14.0092 8.66998 14.1292C8.61998 14.2492 8.55002 14.3592 8.46002 14.4592C8.27002 14.6392 8.01 14.7492 7.75 14.7492Z" />
<path d="M16.25 14.7492C15.99 14.7492 15.73 14.6392 15.54 14.4592C15.36 14.2692 15.25 14.0092 15.25 13.7492C15.25 13.4892 15.36 13.2292 15.54 13.0392C15.91 12.6692 16.58 12.6692 16.96 13.0392C17.14 13.2292 17.25 13.4892 17.25 13.7492C17.25 13.8192 17.24 13.8792 17.23 13.9492C17.22 14.0092 17.2 14.0692 17.17 14.1292C17.15 14.1892 17.12 14.2492 17.08 14.2992C17.04 14.3592 17 14.4092 16.96 14.4592C16.77 14.6392 16.51 14.7492 16.25 14.7492Z" />
<path d="M7.75 17.75C7.55 17.75 7.35997 17.67 7.21997 17.53C7.14997 17.46 7.1 17.38 7.06 17.29C7.02 17.2 7 17.1 7 17C7 16.9 7.02 16.81 7.06 16.71C7.1 16.62 7.14997 16.54 7.21997 16.47C7.28997 16.4 7.37002 16.35 7.46002 16.31C7.64002 16.23 7.84998 16.23 8.03998 16.31C8.12998 16.35 8.21003 16.4 8.28003 16.47C8.42003 16.61 8.5 16.8 8.5 17C8.5 17.1 8.48 17.2 8.44 17.29C8.4 17.38 8.35003 17.46 8.28003 17.53C8.14003 17.67 7.95 17.75 7.75 17.75Z" />
<path d="M16.25 17.75C16.15 17.75 16.05 17.73 15.96 17.69C15.87 17.65 15.79 17.6 15.72 17.53C15.65 17.46 15.59 17.38 15.56 17.29C15.52 17.2 15.5 17.1 15.5 17C15.5 16.9 15.52 16.8 15.56 16.71C15.6 16.62 15.65 16.54 15.72 16.47C15.79 16.4 15.87 16.35 15.96 16.31C16.14 16.23 16.35 16.23 16.54 16.31C16.63 16.35 16.71 16.4 16.78 16.47C16.85 16.54 16.9 16.62 16.94 16.71C16.98 16.8 17 16.9 17 17C17 17.1 16.98 17.2 16.94 17.29C16.9 17.38 16.85 17.46 16.78 17.53C16.64 17.67 16.45 17.75 16.25 17.75Z" />
<path d="M7.75 20.0003C7.62 20.0003 7.49002 19.9503 7.40002 19.8503C7.30002 19.7603 7.25 19.6303 7.25 19.5003C7.25 19.3703 7.30002 19.2403 7.40002 19.1503C7.58002 18.9603 7.91998 18.9603 8.09998 19.1503C8.19998 19.2403 8.25 19.3703 8.25 19.5003C8.25 19.6303 8.19998 19.7603 8.09998 19.8503C8.00998 19.9503 7.88 20.0003 7.75 20.0003Z" />
<path d="M16.25 20.0003C16.18 20.0003 16.12 19.9903 16.06 19.9603C16 19.9403 15.94 19.9003 15.9 19.8503C15.85 19.8103 15.81 19.7503 15.79 19.6903C15.76 19.6303 15.75 19.5703 15.75 19.5003C15.75 19.3703 15.8 19.2403 15.9 19.1503C16.08 18.9603 16.42 18.9603 16.6 19.1503C16.7 19.2403 16.75 19.3703 16.75 19.5003C16.75 19.5703 16.74 19.6303 16.71 19.6903C16.69 19.7503 16.65 19.8103 16.6 19.8503C16.51 19.9503 16.38 20.0003 16.25 20.0003Z" />
</svg>
