<svg width="24" height="24" viewBox="0 0 24 24"  xmlns="http://www.w3.org/2000/svg">
<path d="M11.7 22.7501C11.6 22.7501 11.51 22.7501 11.41 22.7501C5.92997 22.6001 1.47998 17.8801 1.47998 12.2401V5.21009C1.47998 4.70009 1.77997 4.25008 2.24997 4.06008C2.71997 3.87008 3.24995 3.97008 3.60995 4.33008L18.44 19.1601C18.59 19.3101 18.67 19.5101 18.66 19.7201C18.65 19.9301 18.56 20.1201 18.4 20.2601C16.54 21.8701 14.17 22.7501 11.7 22.7501ZM2.97998 5.81008V12.2401C2.97998 17.0801 6.77998 21.1201 11.45 21.2501C13.38 21.2901 15.25 20.7301 16.78 19.6201L2.97998 5.81008Z" />
<path d="M21.27 19.9001C20.95 19.9001 20.63 19.7701 20.39 19.5301L5.68998 4.83008C5.53998 4.68008 5.45998 4.48008 5.46998 4.27008C5.47998 4.06008 5.56999 3.87007 5.72999 3.73007C7.63999 2.06007 10.11 1.17008 12.67 1.25008C18.1 1.40008 22.52 6.08007 22.52 11.6801V18.6401C22.52 19.1501 22.22 19.6001 21.75 19.7901C21.6 19.8601 21.44 19.9001 21.27 19.9001ZM7.34999 4.37007L21.03 18.0501V11.6901C21.03 6.90008 17.26 2.89007 12.63 2.76007C10.72 2.72007 8.86999 3.27007 7.34999 4.37007Z" />
</svg>
