<?xml version="1.0" encoding="UTF-8"?>
<svg width="24" height="24" viewBox="0 0 24 24" xmlns="http://www.w3.org/2000/svg">
 <path d="m11.7 22.749h-0.29c-5.48-0.15-9.93-4.87-9.93-10.51v-7.03c0-0.51 0.29999-0.96001 0.76999-1.15s0.99998-0.09 1.36 0.27l14.83 14.83c0.15 0.15 0.23 0.35 0.22 0.56s-0.1 0.4-0.26 0.54c-1.86 1.61-4.23 2.49-6.7 2.49zm-8.72-16.94v6.43c0 4.84 3.8 8.88 8.47 9.01 1.93 0.04 3.8-0.52 5.33-1.63l-13.8-13.81z"/>
 <path d="m21.27 19.899c-0.32 0-0.64-0.13-0.88-0.37l-14.7-14.7c-0.15-0.15-0.23-0.34999-0.22-0.55999s0.1-0.40001 0.26-0.54001c1.91-1.67 4.38-2.56 6.94-2.48 5.43 0.15 9.85 4.83 9.85 10.43v6.96c0 0.51-0.3 0.96-0.77 1.15-0.15 0.07-0.31 0.11-0.48 0.11zm-13.92-15.53 13.68 13.68v-6.36c0-4.79-3.77-8.8-8.4-8.93-1.91-0.04-3.76 0.51-5.28 1.61z"/>
</svg>
