<svg width="24" height="24" viewBox="0 0 24 24"  xmlns="http://www.w3.org/2000/svg">
<path d="M11.7 22.7493C11.6 22.7493 11.51 22.7493 11.41 22.7493C5.92997 22.5993 1.47998 17.8793 1.47998 12.2393V5.2093C1.47998 4.6993 1.77997 4.24929 2.24997 4.05929C2.71997 3.86929 3.24995 3.96929 3.60995 4.32929L18.44 19.1593C18.59 19.3093 18.67 19.5093 18.66 19.7193C18.65 19.9293 18.56 20.1193 18.4 20.2593C16.54 21.8693 14.17 22.7493 11.7 22.7493ZM2.97998 5.80929V12.2393C2.97998 17.0793 6.77998 21.1193 11.45 21.2493C13.38 21.2893 15.25 20.7293 16.78 19.6193L2.97998 5.80929Z" />
<path d="M21.2701 19.8991C20.9501 19.8991 20.6301 19.7691 20.3901 19.5291L5.69008 4.8291C5.54008 4.6791 5.46008 4.47911 5.47008 4.26911C5.48008 4.05911 5.57008 3.8691 5.73008 3.7291C7.64008 2.0591 10.1101 1.1691 12.6701 1.2491C18.1001 1.3991 22.5201 6.0791 22.5201 11.6791V18.6391C22.5201 19.1491 22.2201 19.5991 21.7501 19.7891C21.6001 19.8591 21.4401 19.8991 21.2701 19.8991ZM7.35008 4.3691L21.0301 18.0491V11.6891C21.0301 6.89911 17.2601 2.8891 12.6301 2.7591C10.7201 2.7191 8.87008 3.2691 7.35008 4.3691Z" />
</svg>
