<?xml version="1.0" encoding="UTF-8"?>
<svg width="24" height="24" viewBox="0 0 24 24" xmlns="http://www.w3.org/2000/svg">
 <path d="m10.06 21.58c-0.99999 0-2.01-0.68-3.36-2.02l-3.46-3.46c-2.94-2.94-2.64-4.07 0-6.72l5.57-5.58c1.97-1.97 3.6-3.12 6.72 0l3.46 3.46c2.81 2.81 2.13 4.59 0 6.72l-5.57 5.57c-1.35 1.35-2.35 2.03-3.36 2.03zm-5.76-6.55 3.46 3.46c2.12 2.12 2.47 2.13 4.6 0l5.57-5.57c1.67-1.67 2.1-2.5 0-4.6l-3.46-3.46c-2.19-2.19-2.85-1.74-4.6 0l-5.57 5.57c-2.12 2.13-2.3 2.3 0 4.6z"/>
 <path d="m20.14 21.46c-1.14 0-2.04-0.44-2.48-1.21s-0.35-1.77 0.24-2.75l0.66-1.09c0.39-0.64 0.96-1.01 1.58-1.01s1.2 0.37 1.58 1.01l0.66 1.09c0.59 0.98 0.67 1.98 0.24 2.75s-1.35 1.21-2.48 1.21zm0-4.56c-0.05 0-0.17 0.08-0.3 0.28l-0.66 1.09c-0.3 0.5-0.38 0.95-0.22 1.24s0.59 0.45 1.17 0.45 1.01-0.16 1.17-0.45 0.08-0.73-0.22-1.24l-0.66-1.09c-0.11-0.21-0.23-0.28-0.28-0.28z"/>
 <path d="m2.0001 12.99c-0.33 0-0.63-0.22-0.72-0.55-0.11-0.4 0.13-0.81 0.53-0.92 5.67-1.54 11.68-1.59 17.38-0.13l0.5 0.13c0.4 0.1 0.64 0.51 0.54 0.91s-0.51 0.64-0.91 0.54l-0.5-0.13c-5.45-1.4-11.19-1.35-16.61 0.13-0.08 0.02-0.15 0.02-0.21 0.02z"/>
</svg>
