<svg width="24" height="24" viewBox="0 0 24 24"  xmlns="http://www.w3.org/2000/svg">
<path d="M10.06 21.5802C9.06001 21.5802 8.05001 20.9002 6.70001 19.5602L3.24001 16.1002C0.300006 13.1602 0.600006 12.0302 3.24001 9.3802L8.81001 3.8002C10.78 1.8302 12.41 0.680196 15.53 3.8002L18.99 7.2602C21.8 10.0702 21.12 11.8502 18.99 13.9802L13.42 19.5502C12.07 20.9002 11.07 21.5802 10.06 21.5802ZM4.30001 15.0302L7.76001 18.4902C9.88001 20.6102 10.23 20.6202 12.36 18.4902L17.93 12.9202C19.6 11.2502 20.03 10.4202 17.93 8.3202L14.47 4.8602C12.28 2.6702 11.62 3.1202 9.87001 4.8602L4.30001 10.4302C2.18001 12.5602 2.00001 12.7302 4.30001 15.0302Z" />
<path d="M20.14 21.4602C19 21.4602 18.1 21.0202 17.66 20.2502C17.22 19.4802 17.31 18.4802 17.9 17.5002L18.56 16.4102C18.95 15.7702 19.52 15.4002 20.14 15.4002C20.76 15.4002 21.34 15.7702 21.72 16.4102L22.38 17.5002C22.97 18.4802 23.05 19.4802 22.62 20.2502C22.19 21.0202 21.27 21.4602 20.14 21.4602ZM20.14 16.9002C20.09 16.9002 19.97 16.9802 19.84 17.1802L19.18 18.2702C18.88 18.7702 18.8 19.2202 18.96 19.5102C19.12 19.8002 19.55 19.9602 20.13 19.9602C20.71 19.9602 21.14 19.8002 21.3 19.5102C21.46 19.2202 21.38 18.7802 21.08 18.2702L20.42 17.1802C20.31 16.9702 20.19 16.9002 20.14 16.9002Z" />
<path d="M2.00001 12.9902C1.67001 12.9902 1.37001 12.7702 1.28001 12.4402C1.17001 12.0402 1.41001 11.6302 1.81001 11.5202C7.48001 9.9802 13.49 9.9302 19.19 11.3902L19.69 11.5202C20.09 11.6202 20.33 12.0302 20.23 12.4302C20.13 12.8302 19.72 13.0702 19.32 12.9702L18.82 12.8402C13.37 11.4402 7.63001 11.4902 2.21001 12.9702C2.13001 12.9902 2.06001 12.9902 2.00001 12.9902Z" />
</svg>
