<?xml version="1.0" encoding="UTF-8"?>
<svg width="24" height="24" viewBox="0 0 24 24" xmlns="http://www.w3.org/2000/svg">
 <path d="m10.97 22.75c-3.72 0-6.75-3.03-6.75-6.75v-6c0-4.27 3.48-7.75 7.75-7.75 4.27 0 7.75 3.48 7.75 7.75v5.5c0 2.34-1.91 4.25-4.25 4.25s-4.25-1.91-4.25-4.25v-3.5c0-0.41 0.34-0.75 0.75-0.75s0.75 0.34 0.75 0.75v3.5c0 1.52 1.23 2.75 2.75 2.75s2.75-1.23 2.75-2.75v-5.5c0-3.45-2.8-6.25-6.25-6.25-3.45 0-6.25 2.8-6.25 6.25v6c0 2.89 2.35 5.25 5.25 5.25 0.41 0 0.75 0.34 0.75 0.75s-0.33 0.75-0.75 0.75z"/>
</svg>
