<?xml version="1.0" encoding="UTF-8"?>
<svg width="24" height="24" viewBox="0 0 24 24" xmlns="http://www.w3.org/2000/svg">
 <path d="m12.33 21.34c-1.09 0-2.18-0.41-3.01-1.24-1.66-1.66-1.66-4.35 0-6.01l2.48-2.47c0.29-0.29 0.77-0.29 1.06 0s0.29 0.77 0 1.06l-2.48 2.47c-1.07 1.07-1.07 2.82 0 3.89 1.07 1.07 2.82 1.07 3.89 0l3.89-3.89c1.18-1.18 1.83-2.75 1.83-4.42 0-1.67-0.65-3.24-1.83-4.42-2.44-2.44-6.4-2.44-8.84 0l-4.24 4.24c-0.99 0.99-1.54 2.31-1.54 3.71s0.55 2.72 1.54 3.71c0.29 0.29 0.29 0.77 0 1.06s-0.77 0.29-1.06 0c-1.27-1.28-1.98-2.97-1.98-4.77s0.7-3.5 1.98-4.77l4.24-4.24c3.02-3.02 7.94-3.02 10.96 0 1.46 1.46 2.27 3.41 2.27 5.48 0 2.07-0.81 4.02-2.27 5.48l-3.89 3.89c-0.83 0.83-1.91 1.24-3 1.24z"/>
</svg>
