<?xml version="1.0" encoding="UTF-8"?>
<svg width="24" height="24" viewBox="0 0 24 24" xmlns="http://www.w3.org/2000/svg">
 <path d="m15.04 13.02c-0.19 0-0.39-0.08-0.53-0.22l-3.29-3.29c-0.25-0.25-0.29-0.63-0.1-0.93l1.03-1.63c0.33-0.53 0.85-0.86 1.44-0.92 0.65-0.07 1.33 0.19 1.85 0.71l1.85 1.85c0.5 0.5 0.75 1.18 0.68 1.85-0.07 0.6-0.39 1.12-0.89 1.44l-1.63 1.03c-0.14 0.08-0.28 0.11-0.41 0.11zm-2.34-4.15 2.45 2.45 1.12-0.71c0.14-0.09 0.19-0.23 0.2-0.34 0.02-0.21-0.07-0.45002-0.25-0.63002l-1.85-1.84c-0.2-0.2-0.43-0.3-0.62-0.28-0.14 0.02-0.25 0.09-0.34 0.23l-0.71 1.12z"/>
 <path d="m8.2902 17.98c-0.62 0-1.2-0.23-1.61-0.64-0.48-0.48-0.71-1.18-0.62-1.92l0.6-5.07c0.2-1.69 1.02-2.37 2.74-2.26l2.39 0.14c0.41 0.03 0.73 0.38 0.7 0.79s-0.38 0.73-0.79 0.7l-2.4-0.13c-0.97-0.06-1.06 0.09-1.16 0.93997l-0.6 5.07c-0.03 0.28 0.04 0.53 0.19 0.68 0.16 0.16 0.4 0.23 0.68 0.19l5.07-0.6c0.92-0.11 1.03-0.25 0.95-1.13l-0.15-2.42c-0.02-0.41 0.29-0.77 0.7-0.79 0.41-0.03 0.77 0.29 0.79 0.7l0.14 2.39c0.17 1.68-0.53 2.54-2.26 2.74l-5.07 0.6c-0.09 0.02-0.19 0.02-0.29 0.02z"/>
 <path d="m7.4902 17.27c-0.19 0-0.38-0.07-0.53-0.22-0.29-0.29-0.29-0.77 0-1.06l1.85-1.85c0.29-0.29 0.77-0.29 1.06 0 0.29002 0.29 0.29002 0.77 0 1.06l-1.85 1.85c-0.14 0.15-0.33 0.22-0.53 0.22z"/>
 <path d="m15 22.75h-6c-5.43 0-7.75-2.32-7.75-7.75v-6c0-5.43 2.32-7.75 7.75-7.75h6c5.43 0 7.75 2.32 7.75 7.75v6c0 5.43-2.32 7.75-7.75 7.75zm-6-20c-4.61 0-6.25 1.64-6.25 6.25v6c0 4.61 1.64 6.25 6.25 6.25h6c4.61 0 6.25-1.64 6.25-6.25v-6c0-4.61-1.64-6.25-6.25-6.25h-6z"/>
</svg>
