<?xml version="1.0" encoding="UTF-8"?>
<svg width="24" height="24" viewBox="0 0 24 24" xmlns="http://www.w3.org/2000/svg">
 <path d="m16.98 13.2c-0.19 0-0.39-0.08-0.53-0.22l-5.4-5.41c-0.25-0.25-0.29-0.63-0.1-0.93l1.69-2.67c0.47-0.74 1.18-1.2 2.01-1.29 0.93-0.09 1.89 0.27 2.64 1.02l3.03 3.03c0.72 0.72 1.08 1.69 0.97 2.65-0.09 0.84004-0.54 1.57-1.24 2.01l-2.67 1.69c-0.12 0.08-0.26 0.12-0.4 0.12zm-4.45-6.26 4.56 4.56 2.17-1.37c0.31-0.20004 0.51-0.52004 0.55-0.91004 0.06-0.5-0.15-1.03-0.54-1.42l-3.03-3.03c-0.43-0.43-0.95-0.66-1.42-0.59-0.38 0.04-0.69 0.25-0.91 0.6l-1.38 2.16z"/>
 <path d="m5.8899 21.34c-0.89 0-1.69-0.32-2.29-0.91-0.7-0.7-1.01-1.67-0.88-2.75l0.98-8.33c0.3-2.52 1.41-3.44 4-3.29l3.92 0.23c0.41 0.03 0.73 0.38 0.7 0.79s-0.38 0.73-0.79 0.7l-3.92-0.22c-1.78-0.11-2.22 0.24-2.42 1.97l-0.98 8.32c-0.07 0.61 0.09 1.15 0.45 1.51 0.37 0.36 0.91 0.53 1.52 0.45l8.32-0.98c1.75-0.21 2.14-0.67 1.97-2.39l-0.24-3.95c-0.02-0.41 0.29-0.77 0.7-0.79 0.41-0.03 0.77 0.29 0.79 0.7l0.23 3.92c0.24 2.49-0.74 3.69-3.29 4l-8.32 0.98c-0.14 0.03-0.3 0.04-0.45 0.04z"/>
 <path d="m4.6098 20.17c-0.19 0-0.38-0.07-0.53-0.22-0.29-0.29-0.29-0.77 0-1.06l3.04-3.04c0.29-0.29 0.77001-0.29 1.06 0s0.29 0.77 0 1.06l-3.04 3.04c-0.15 0.15-0.34 0.22-0.53 0.22z"/>
</svg>
