<svg width="24" height="24" viewBox="0 0 24 24"  xmlns="http://www.w3.org/2000/svg">
<path d="M14.1501 22.75H9.87006C8.85006 22.75 7.91006 22.32 7.31006 21.56C6.78006 20.9 6.59006 20.06 6.77006 19.26L7.46006 16.18C7.54006 15.84 7.84006 15.6 8.19006 15.6H15.8301C16.1801 15.6 16.4801 15.84 16.5601 16.18L17.2601 19.26C17.4501 20.12 17.2701 20.95 16.7501 21.6C16.1701 22.33 15.2201 22.75 14.1501 22.75ZM8.79006 17.1L8.23006 19.6C8.15006 19.96 8.24006 20.32 8.48006 20.63C8.79006 21.02 9.31006 21.25 9.87006 21.25H14.1601C14.7701 21.25 15.2901 21.04 15.5801 20.67C15.8201 20.38 15.8901 20 15.8001 19.6L15.2401 17.1H8.79006Z" />
<path d="M8.19006 17.1C8.01006 17.1 7.83006 17.04 7.69006 16.91L4.75006 14.3C2.82006 12.71 2.66006 11.17 4.25006 9.15L9.44006 2.57C10.1101 1.72 11.0301 1.25 12.0101 1.25C13.0001 1.25 13.9101 1.72 14.5801 2.57L19.7701 9.15C21.3401 11.14 21.2001 12.59 19.2701 14.3L16.3301 16.91C16.0201 17.18 15.5401 17.16 15.2701 16.85C15.0001 16.54 15.0201 16.07 15.3301 15.79L18.2701 13.18C19.5901 12.01 19.6501 11.43 18.5901 10.08L13.4101 3.5C12.6501 2.53 11.3801 2.53 10.6201 3.5L5.43006 10.08C4.34006 11.46 4.39006 12.07 5.72006 13.16L8.68006 15.79C8.99006 16.06 9.02006 16.54 8.74006 16.85C8.60006 17.01 8.40006 17.1 8.19006 17.1Z" />
<path d="M12.0101 7.72C11.6001 7.72 11.2601 7.38 11.2601 6.97V2.67C11.2601 2.26 11.6001 1.92 12.0101 1.92C12.4201 1.92 12.7601 2.26 12.7601 2.67V6.97C12.7601 7.38 12.4201 7.72 12.0101 7.72Z" />
<path d="M14.1501 22.75H9.87006C8.85006 22.75 7.91006 22.32 7.31006 21.56C6.78006 20.9 6.59006 20.06 6.77006 19.26L7.46006 16.18C7.54006 15.84 7.84006 15.6 8.19006 15.6H15.8301C16.1801 15.6 16.4801 15.84 16.5601 16.18L17.2601 19.26C17.4501 20.12 17.2701 20.95 16.7501 21.6C16.1701 22.33 15.2201 22.75 14.1501 22.75ZM8.79006 17.1L8.23006 19.6C8.15006 19.96 8.24006 20.32 8.48006 20.63C8.79006 21.02 9.31006 21.25 9.87006 21.25H14.1601C14.7701 21.25 15.2901 21.04 15.5801 20.67C15.8201 20.38 15.8901 20 15.8001 19.6L15.2401 17.1H8.79006Z" />
<path d="M8.19006 17.1C8.01006 17.1 7.83006 17.04 7.69006 16.91L4.75006 14.3C2.82006 12.71 2.66006 11.17 4.25006 9.15L9.44006 2.57C10.1101 1.72 11.0301 1.25 12.0101 1.25C13.0001 1.25 13.9101 1.72 14.5801 2.57L19.7701 9.15C21.3401 11.14 21.2001 12.59 19.2701 14.3L16.3301 16.91C16.0201 17.18 15.5401 17.16 15.2701 16.85C15.0001 16.54 15.0201 16.07 15.3301 15.79L18.2701 13.18C19.5901 12.01 19.6501 11.43 18.5901 10.08L13.4101 3.5C12.6501 2.53 11.3801 2.53 10.6201 3.5L5.43006 10.08C4.34006 11.46 4.39006 12.07 5.72006 13.16L8.68006 15.79C8.99006 16.06 9.02006 16.54 8.74006 16.85C8.60006 17.01 8.40006 17.1 8.19006 17.1Z" />
<path d="M12.0101 7.72C11.6001 7.72 11.2601 7.38 11.2601 6.97V2.67C11.2601 2.26 11.6001 1.92 12.0101 1.92C12.4201 1.92 12.7601 2.26 12.7601 2.67V6.97C12.7601 7.38 12.4201 7.72 12.0101 7.72Z" />
</svg>
