<?xml version="1.0" encoding="UTF-8"?>
<svg width="24" height="24" viewBox="0 0 24 24" xmlns="http://www.w3.org/2000/svg">
 <path d="m14.15 22.75h-4.28c-1.02 0-1.96-0.43-2.56-1.19-0.53-0.66-0.72-1.5-0.54-2.3l0.69-3.08c0.08-0.34 0.38-0.58 0.73-0.58h7.64c0.35 0 0.65 0.24 0.73 0.58l0.7 3.08c0.19 0.86 0.01 1.69-0.51 2.34-0.58 0.73-1.53 1.15-2.6 1.15zm-5.36-5.65-0.56 2.5c-0.08 0.36 0.01 0.72 0.25 1.03 0.31 0.39 0.83 0.62 1.39 0.62h4.29c0.61 0 1.13-0.21 1.42-0.58 0.24-0.29 0.31-0.67 0.22-1.07l-0.56-2.5h-6.45z"/>
 <path d="m8.1901 17.1c-0.18 0-0.36-0.06-0.5-0.19l-2.94-2.61c-1.93-1.59-2.09-3.13-0.5-5.15l5.19-6.58c0.67004-0.85 1.59-1.32 2.57-1.32 0.99 0 1.9 0.47 2.57 1.32l5.19 6.58c1.57 1.99 1.43 3.44-0.5 5.15l-2.94 2.61c-0.31 0.27-0.79 0.25-1.06-0.06s-0.25-0.78 0.06-1.06l2.94-2.61c1.32-1.17 1.38-1.75 0.32-3.1l-5.18-6.58c-0.76-0.97-2.03-0.97-2.79 0l-5.19 6.58c-1.09 1.38-1.04 1.99 0.29 3.08l2.96 2.63c0.31 0.27 0.34 0.75 0.06 1.06-0.14 0.16-0.34 0.25-0.55 0.25z"/>
 <path d="m12.01 7.7199c-0.41 0-0.75-0.34-0.75-0.75v-4.3c0-0.41 0.34-0.75 0.75-0.75s0.75 0.34 0.75 0.75v4.3c0 0.41-0.34 0.75-0.75 0.75z"/>
 <path d="m14.15 22.75h-4.28c-1.02 0-1.96-0.43-2.56-1.19-0.53-0.66-0.72-1.5-0.54-2.3l0.69-3.08c0.08-0.34 0.38-0.58 0.73-0.58h7.64c0.35 0 0.65 0.24 0.73 0.58l0.7 3.08c0.19 0.86 0.01 1.69-0.51 2.34-0.58 0.73-1.53 1.15-2.6 1.15zm-5.36-5.65-0.56 2.5c-0.08 0.36 0.01 0.72 0.25 1.03 0.31 0.39 0.83 0.62 1.39 0.62h4.29c0.61 0 1.13-0.21 1.42-0.58 0.24-0.29 0.31-0.67 0.22-1.07l-0.56-2.5h-6.45z"/>
 <path d="m8.1901 17.1c-0.18 0-0.36-0.06-0.5-0.19l-2.94-2.61c-1.93-1.59-2.09-3.13-0.5-5.15l5.19-6.58c0.67004-0.85 1.59-1.32 2.57-1.32 0.99 0 1.9 0.47 2.57 1.32l5.19 6.58c1.57 1.99 1.43 3.44-0.5 5.15l-2.94 2.61c-0.31 0.27-0.79 0.25-1.06-0.06s-0.25-0.78 0.06-1.06l2.94-2.61c1.32-1.17 1.38-1.75 0.32-3.1l-5.18-6.58c-0.76-0.97-2.03-0.97-2.79 0l-5.19 6.58c-1.09 1.38-1.04 1.99 0.29 3.08l2.96 2.63c0.31 0.27 0.34 0.75 0.06 1.06-0.14 0.16-0.34 0.25-0.55 0.25z"/>
 <path d="m12.01 7.7199c-0.41 0-0.75-0.34-0.75-0.75v-4.3c0-0.41 0.34-0.75 0.75-0.75s0.75 0.34 0.75 0.75v4.3c0 0.41-0.34 0.75-0.75 0.75z"/>
</svg>
