<?xml version="1.0" encoding="UTF-8"?>
<svg width="24" height="24" viewBox="0 0 24 24" xmlns="http://www.w3.org/2000/svg">
 <path d="m8.64 21.75h-3.63c-1.86 0-2.76-0.86-2.76-2.64v-14.22c0-1.78 0.9-2.64 2.76-2.64h3.63c1.86 0 2.76 0.86 2.76 2.64v14.22c0 1.78-0.9 2.64-2.76 2.64zm-3.63-18c-1.08 0-1.26 0.27-1.26 1.14v14.22c0 0.87 0.17 1.14 1.26 1.14h3.63c1.08 0 1.26-0.27 1.26-1.14v-14.22c0-0.87-0.17-1.14-1.26-1.14h-3.63z"/>
 <path d="m18.99 21.75h-3.63c-1.86 0-2.76-0.86-2.76-2.64v-14.22c0-1.78 0.9-2.64 2.76-2.64h3.63c1.86 0 2.76 0.86 2.76 2.64v14.22c0 1.78-0.9 2.64-2.76 2.64zm-3.63-18c-1.08 0-1.26 0.27-1.26 1.14v14.22c0 0.87 0.17 1.14 1.26 1.14h3.63c1.08 0 1.26-0.27 1.26-1.14v-14.22c0-0.87-0.17-1.14-1.26-1.14h-3.63z"/>
</svg>
