<svg width="24" height="24" viewBox="0 0 24 24"  xmlns="http://www.w3.org/2000/svg">
<path opacity="0.4" d="M11.97 22C17.4928 22 21.97 17.5228 21.97 12C21.97 6.47715 17.4928 2 11.97 2C6.44712 2 1.96997 6.47715 1.96997 12C1.96997 17.5228 6.44712 22 11.97 22Z" />
<path d="M10.72 15.0298V8.9698C10.72 8.4898 10.52 8.2998 10.01 8.2998H8.71C8.2 8.2998 8 8.4898 8 8.9698V15.0298C8 15.5098 8.2 15.6998 8.71 15.6998H10C10.52 15.6998 10.72 15.5098 10.72 15.0298Z" />
<path d="M16 15.0298V8.9698C16 8.4898 15.8 8.2998 15.29 8.2998H14C13.49 8.2998 13.29 8.4898 13.29 8.9698V15.0298C13.29 15.5098 13.49 15.6998 14 15.6998H15.29C15.8 15.6998 16 15.5098 16 15.0298Z" />
</svg>
