<?xml version="1.0" encoding="UTF-8"?>
<svg width="24" height="24" viewBox="0 0 24 24" xmlns="http://www.w3.org/2000/svg">
 <path d="m11.97 22.75c-5.92 0-10.75-4.82-10.75-10.75s4.83-10.75 10.75-10.75c5.92 0 10.75 4.82 10.75 10.75s-4.82 10.75-10.75 10.75zm0-20c-5.1 0-9.25 4.15-9.25 9.25s4.15 9.25 9.25 9.25c5.1 0 9.25-4.15 9.25-9.25s-4.15-9.25-9.25-9.25z"/>
 <path d="m10.01 15.95h-1.3c-0.92 0-1.46-0.53-1.46-1.42v-5.06c0-0.89 0.55-1.42 1.46-1.42h1.29c0.92 0 1.46 0.53 1.46 1.42v5.06c0.01 0.89-0.54 1.42-1.45 1.42zm-1.26-1.5h1.22v-4.9h-1.21l-0.01 4.9z"/>
 <path d="m15.29 15.95h-1.29c-0.92 0-1.46-0.53-1.46-1.42v-5.06c0-0.89 0.55-1.42 1.46-1.42h1.29c0.92 0 1.46 0.53 1.46 1.42v5.06c0 0.89-0.55 1.42-1.46 1.42zm-1.26-1.5h1.22v-4.9h-1.21l-0.01 4.9z"/>
</svg>
