<?xml version="1.0" encoding="UTF-8"?>
<svg width="24" height="24" viewBox="0 0 24 24" xmlns="http://www.w3.org/2000/svg">
 <path d="m7.13 20.75h-1.95c-0.52 0-1-0.22-1.34-0.62-0.33-0.39-0.47998-0.91-0.38998-1.41l2.39-14.33c0.3-1.82 1.86-3.14 3.7-3.14h4.46c3.17 0 5.75 2.58 5.75 5.75 0 0.21-0.01 0.40999-0.04 0.60999-0.13 1.56-0.82 3.05-1.95 4.17-1.26 1.27-2.96 1.98-4.77 1.98h-3.13c-0.12 0-0.23 0.09-0.25 0.22l-0.75998 5.28c-0.1 0.67-0.57001 1.22-1.2 1.41-0.2 0.07-0.38999 0.08-0.51999 0.08zm2.41-18c-1.11 0-2.04 0.79-2.22 1.88l-2.39 14.33c-0.02 0.1 0.03 0.17 0.06 0.2s0.09 0.09 0.19 0.09h1.95c0.17-0.05 0.23-0.13 0.25-0.22l0.76001-5.27c0.12-0.86 0.86998-1.5 1.73-1.5h3.13c1.41 0 2.72-0.55 3.71-1.54 0.88-0.87 1.41-2.02 1.52-3.25 0.02-0.17 0.03-0.30999 0.03-0.45999 0-2.34-1.91-4.25-4.25-4.25h-4.47v-0.01001z"/>
 <path d="m11.15 22.749h-2.93c-0.52 0-1.01-0.2301-1.35-0.6401s-0.47-0.94-0.37-1.46l0.26001-1.3099 0.44998-0.12c0.08-0.02 0.15002-0.1001 0.17002-0.2001l0.76001-5.2699c0.12-0.86 0.86998-1.5 1.73-1.5h3.13c1.41 0 2.72-0.5501 3.71-1.5401 0.88-0.86995 1.41-2.02 1.52-3.25l0.1-1.17 1.02 0.57999c1.49 0.85 2.41 2.43 2.41 4.13 0 1.53-0.6 2.97-1.68 4.07-1.1 1.09-2.54 1.68-4.07 1.68h-2.15c-0.13 0-0.23 0.0899-0.25 0.2099l-0.72 4.3201c-0.15 0.85-0.88 1.47-1.74 1.47zm-3.08-2.28-0.10001 0.48c-0.02 0.1 0.03 0.18 0.06 0.21 0.03 0.04 0.09 0.09 0.19 0.09h2.93c0.13 0 0.23-0.09 0.25-0.21l0.72-4.32c0.14-0.85 0.87-1.47 1.73-1.47h2.15c1.13 0 2.2-0.44 3.01-1.24 0.8-0.8 1.24-1.88 1.24-3.01 0-0.78-0.28-1.52-0.78-2.1-0.31 1.08-0.9 2.08-1.71 2.88-1.26 1.27-2.96 1.98-4.77 1.98h-3.13c-0.12 0-0.23 0.09-0.25 0.22l-0.75998 5.28c-0.07 0.5-0.36 0.94-0.78 1.21z"/>
</svg>
