<svg width="24" height="24" viewBox="0 0 24 24"  xmlns="http://www.w3.org/2000/svg">
<path d="M19 7C19 7.18 18.99 7.35 18.97 7.52C18.85 8.97 18.21 10.28 17.24 11.24C16.16 12.33 14.66 13 13 13H9.86996C9.36996 13 8.94997 13.37 8.87997 13.86L8.11996 19.14C8.05996 19.53 7.77997 19.85 7.40997 19.95C7.31997 19.99 7.22997 20 7.12997 20H5.17996C4.55996 20 4.08997 19.45 4.18997 18.84L6.57995 4.50999C6.81995 3.05999 8.06998 2 9.53998 2H14C16.76 2 19 4.24 19 7Z" />
<path opacity="0.4" d="M21 10.9995C21 12.3795 20.44 13.6295 19.54 14.5395C18.63 15.4395 17.38 15.9995 16 15.9995H13.85C13.36 15.9995 12.94 16.3495 12.86 16.8395L12.14 21.1595C12.06 21.6495 11.64 21.9995 11.15 21.9995H8.21999C7.58999 21.9995 7.11998 21.4195 7.23998 20.7995L7.40999 19.9495C7.77999 19.8495 8.05998 19.5295 8.11998 19.1395L8.87999 13.8595C8.94999 13.3695 9.36998 12.9995 9.86998 12.9995H13C14.66 12.9995 16.16 12.3295 17.24 11.2395C18.21 10.2795 18.85 8.96953 18.97 7.51953C20.18 8.20953 21 9.50953 21 10.9995Z" />
</svg>
