<?xml version="1.0" encoding="UTF-8"?>
<svg width="24" height="24" viewBox="0 0 24 24" xmlns="http://www.w3.org/2000/svg">
 <path d="m18.25 14.22c-0.19 0-0.39-0.08-0.53-0.22l-5.67-5.67c-0.25-0.25-0.29-0.63-0.1-0.93l1.77-2.8c0.48-0.77 1.23-1.24 2.09-1.34 0.95-0.11 1.96 0.28 2.74 1.06l3.18 3.18c0.75 0.75 1.12 1.75 1.01 2.75-0.1 0.87-0.56 1.6199-1.28 2.0799l-2.8 1.7701c-0.13 0.08-0.27 0.12-0.41 0.12zm-4.71-6.52 4.82 4.82 2.29-1.45c0.34-0.21 0.55-0.56 0.59-0.98 0.06-0.52998-0.16-1.1-0.58-1.52l-3.18-3.18c-0.46-0.46-1.01-0.69-1.51-0.63-0.4 0.04-0.74 0.26996-0.98 0.64996l-1.45 2.29z"/>
 <path d="m6.6301 22.75c-0.94001 0-1.77-0.3299-2.39-0.9499-0.72-0.72-1.04-1.7301-0.91-2.8501l0.98001-8.28c0.05-0.41 0.42001-0.69997 0.83001-0.66 0.41 0.05 0.70998 0.42 0.65998 0.83l-0.97998 8.28c-0.08 0.65 0.08998 1.22 0.47998 1.61s0.97 0.57 1.63 0.49l8.72-1.03c1.86-0.22 2.27-0.72 2.09-2.54l-0.24-4.15c-0.02-0.41 0.29-0.77 0.71-0.79 0.41-0.02 0.77 0.2901 0.79 0.7101l0.24 4.12c0.26 2.58-0.76 3.8299-3.41 4.1499l-8.72 1.03c-0.16 0.02-0.31998 0.03-0.47998 0.03z"/>
 <path d="m12.58 8.5602h-0.05l-1.75-0.10998c-0.41-0.03-0.73-0.37999-0.7-0.79999s0.38-0.73001 0.8-0.70001l1.75 0.10998c0.41 0.03 0.73 0.37999 0.7 0.79999-0.03 0.39-0.36 0.70001-0.75 0.70001z"/>
 <path d="m5.2802 21.53c-0.19 0-0.38-0.0699-0.53-0.2199-0.29-0.29-0.29-0.7701 0-1.0601l3.18-3.1801c0.29-0.29 0.77-0.29 1.06 0s0.29 0.7701 0 1.0601l-3.18 3.1801c-0.15 0.15-0.34 0.2199-0.53 0.2199z"/>
 <path d="m6.5 11.75c-0.59 0-1.16-0.1-1.69-0.28-1.16-0.39-2.16-1.19-2.8-2.26-0.5-0.82-0.76001-1.76-0.76001-2.71 0-1.62 0.72001-3.11 1.98-4.1 0.92-0.74 2.08-1.15 3.27-1.15 2.9 0 5.25 2.36 5.25 5.25 0 0.47-0.07 0.95997-0.2 1.41-0.13 0.46-0.31 0.88005-0.56 1.3-0.29 0.48-0.64 0.88998-1.05 1.24-0.94 0.84-2.16 1.3-3.44 1.3zm0-9c-0.85 0-1.68 0.29001-2.34 0.82001-0.9 0.71-1.41 1.77-1.41 2.93 0 0.67 0.19001 1.34 0.54001 1.93 0.46 0.76 1.17 1.34 2 1.61 1.22 0.43 2.66 0.16 3.67-0.73 0.29-0.25 0.54-0.55001 0.75-0.88001 0.18-0.3 0.31001-0.59999 0.40001-0.92999s0.14-0.67 0.14-1c0-2.07-1.68-3.75-3.75-3.75z"/>
 <path d="m8.1598 7.25h-3.36c-0.41 0-0.75-0.34-0.75-0.75s0.34-0.75 0.75-0.75h3.36c0.41 0 0.75 0.34 0.75 0.75s-0.33 0.75-0.75 0.75z"/>
</svg>
