<?xml version="1.0" encoding="UTF-8"?>
<svg width="24" height="24" viewBox="0 0 24 24" xmlns="http://www.w3.org/2000/svg">
 <path d="m13.27 23.25h-2.52c-0.7 0-1.33-0.3001-1.75-0.8101-0.37-0.46-0.51-1.0499-0.38-1.6099l0.41-1.81c0.08-0.34 0.38-0.5801 0.73-0.5801h4.5c0.35 0 0.65 0.2401 0.73 0.5801l0.41 1.81c0.13 0.6 0.01 1.18-0.36 1.64-0.41 0.49-1.05 0.78-1.77 0.78zm-2.91-3.33-0.28 1.23c-0.03 0.15 0.03 0.27 0.09 0.34 0.13 0.16 0.34 0.25 0.58 0.25h2.52c0.26 0 0.48-0.08 0.6-0.23 0.08-0.1 0.1-0.22 0.07-0.37l-0.28-1.23h-3.3v0.01z"/>
 <path d="m14.26 19.92c-0.21 0-0.41-0.08-0.56-0.25-0.27-0.31-0.25-0.7801 0.06-1.0601l1.73-1.54c0.69-0.61 0.66-0.7599 0.15-1.3999l-3.05-3.8701c-0.17-0.21-0.37-0.33-0.58-0.33s-0.41 0.12-0.58 0.33l-3.05 3.8701c-0.54 0.69-0.53 0.84 0.13 1.38l1.75 1.5599c0.31 0.27 0.34 0.7501 0.06 1.0601s-0.74998 0.3399-1.06 0.0599l-1.73-1.54c-1.26-1.03-1.37-2.13-0.33-3.45l3.05-3.8699c0.45-0.57 1.09-0.90007 1.76-0.90007s1.31 0.33007 1.76 0.90007l3.05 3.8699c1.03 1.3 0.93 2.34-0.33 3.45l-1.73 1.54c-0.15 0.13-0.33 0.1901-0.5 0.1901z"/>
 <path d="m12.01 14.4c-0.41 0-0.75-0.34-0.75-0.75v-2.53c0-0.41 0.34-0.75 0.75-0.75s0.75 0.34 0.75 0.75v2.53c0 0.42-0.34 0.75-0.75 0.75z"/>
 <path d="m12 6.29c-0.5 0-1-0.19001-1.38-0.57001l-0.77998-0.77996c-0.76-0.76-0.76-2 0-2.76l0.77998-0.77997c0.76-0.76 2-0.76 2.76 0l0.78 0.77997c0.76 0.76 0.76 2 0 2.76l-0.78 0.77996c-0.38 0.38-0.88 0.57001-1.38 0.57001zm0-3.96c-0.12 0-0.23 0.04001-0.32 0.13001l-0.78 0.77996c-0.08 0.08-0.13 0.20001-0.13 0.32001s0.05 0.23001 0.13 0.32001l0.78 0.77997c0.17 0.17 0.47 0.17 0.64 0l0.78-0.77997c0.08-0.08 0.13-0.20001 0.13-0.32001s-0.05-0.23001-0.13-0.32001l-0.78-0.77996c-0.09-0.08-0.2-0.13001-0.32-0.13001z"/>
 <path d="m20.55 14.06h-1.1c-1.08 0-1.95-0.8801-1.95-1.9501v-1.0999c0-1.08 0.88-1.95 1.95-1.95h1.1c1.08 0 1.95 0.88001 1.95 1.95v1.0999c0 1.08-0.88 1.9501-1.95 1.9501zm-1.1-3.5c-0.25 0-0.45 0.2-0.45 0.45v1.0999c0 0.25 0.2 0.4501 0.45 0.4501h1.1c0.25 0 0.45-0.2001 0.45-0.4501v-1.0999c0-0.25-0.2-0.45-0.45-0.45h-1.1z"/>
 <path d="m4.55 14.06h-1.1c-1.08 0-1.95-0.8801-1.95-1.9501v-1.0999c0-1.08 0.88-1.95 1.95-1.95h1.1c1.08 0 1.95 0.88001 1.95 1.95v1.0999c0 1.08-0.88 1.9501-1.95 1.9501zm-1.1-3.5c-0.25 0-0.45 0.2-0.45 0.45v1.0999c0 0.25 0.2 0.4501 0.45 0.4501h1.1c0.25 0 0.45-0.2001 0.45-0.4501v-1.0999c0-0.25-0.2-0.45-0.45-0.45h-1.1z"/>
 <path d="m18.54 10.85c-0.19 0-0.38-0.07-0.53-0.22l-5.3-5.3c-0.29-0.29-0.29-0.77 0-1.06s0.77-0.29 1.06 0l5.3 5.3c0.29 0.29 0.29 0.76998 0 1.06-0.15 0.15-0.34 0.22-0.53 0.22z"/>
 <path d="m5.4599 10.85c-0.19 0-0.38-0.07-0.53-0.22-0.29-0.29-0.29-0.76998 0-1.06l5.3-5.3c0.29-0.29 0.77-0.29 1.06 0s0.29 0.77 0 1.06l-5.3 5.3c-0.15 0.15-0.34 0.22-0.53 0.22z"/>
</svg>
