<?xml version="1.0" encoding="UTF-8"?>
<svg width="24" height="24" viewBox="0 0 24 24" xmlns="http://www.w3.org/2000/svg">
 <path d="m13.27 23.25h-2.52c-0.7 0-1.33-0.3001-1.75-0.8101-0.37-0.46-0.51001-1.0499-0.38001-1.6099l0.41001-1.81c0.08-0.34 0.37999-0.5801 0.72999-0.5801h4.5c0.35 0 0.65 0.2401 0.73 0.5801l0.41 1.81c0.13 0.6 0.01 1.18-0.36 1.64-0.41 0.49-1.05 0.78-1.77 0.78zm-2.91-3.33-0.28 1.23c-0.03 0.15 0.03 0.27 0.09 0.34 0.13 0.16 0.34 0.25 0.58 0.25h2.52c0.26 0 0.48-0.08 0.6-0.23 0.08-0.1 0.1-0.22 0.07-0.37l-0.28-1.23h-3.3v0.01z"/>
 <path d="m14.26 19.92c-0.21 0-0.41-0.08-0.56-0.25-0.27-0.31-0.25-0.7801 0.06-1.0601l1.73-1.54c0.69-0.61 0.66-0.7599 0.15-1.3999l-3.05-3.8701c-0.17-0.21-0.37-0.33-0.58-0.33s-0.41 0.12-0.58 0.33l-3.05 3.8701c-0.54 0.69-0.53001 0.84 0.12999 1.38l1.75 1.5599c0.31 0.27 0.34 0.7501 0.06 1.0601s-0.74998 0.3399-1.06 0.0599l-1.73-1.54c-1.26-1.03-1.37-2.13-0.33-3.45l3.05-3.8699c0.45-0.57 1.09-0.90007 1.76-0.90007s1.31 0.33007 1.76 0.90007l3.05 3.8699c1.03 1.3 0.93 2.34-0.33 3.45l-1.73 1.54c-0.15 0.13-0.33 0.1901-0.5 0.1901z"/>
 <path d="m12.01 14.4c-0.41 0-0.75-0.34-0.75-0.75v-2.53c0-0.41 0.34-0.75 0.75-0.75s0.75 0.34 0.75 0.75v2.53c0 0.42-0.34 0.75-0.75 0.75z"/>
 <path d="m12.52 5.75h-1c-0.96 0-1.75-0.79-1.75-1.75v-1c0-0.96 0.78998-1.75 1.75-1.75h1c0.96 0 1.75 0.79 1.75 1.75v1c0 0.96-0.78 1.75-1.75 1.75zm-1-3c-0.14 0-0.25 0.11-0.25 0.25v1c0 0.14 0.11 0.25 0.25 0.25h1c0.14 0 0.25-0.11 0.25-0.25v-1c0-0.14-0.11-0.25-0.25-0.25h-1z"/>
 <path d="m4.27 14.92h-1c-0.96 0-1.75-0.79-1.75-1.75v-1c0-0.96 0.79-1.7501 1.75-1.7501h1c0.96 0 1.75 0.7901 1.75 1.7501v1c0 0.96-0.79 1.75-1.75 1.75zm-1-3.0001c-0.14 0-0.25 0.1101-0.25 0.2501v1c0 0.14 0.11 0.25 0.25 0.25h1c0.14 0 0.25-0.11 0.25-0.25v-1c0-0.14-0.11-0.2501-0.25-0.2501h-1z"/>
 <path d="m20.73 14.92h-1c-0.96 0-1.75-0.79-1.75-1.75v-1c0-0.96 0.79-1.7501 1.75-1.7501h1c0.96 0 1.75 0.7901 1.75 1.7501v1c0 0.96-0.78 1.75-1.75 1.75zm-1-3.0001c-0.14 0-0.25 0.1101-0.25 0.2501v1c0 0.14 0.11 0.25 0.25 0.25h1c0.14 0 0.25-0.11 0.25-0.25v-1c0-0.14-0.11-0.2501-0.25-0.2501h-1z"/>
 <path d="m3.75 11.92c-0.41 0-0.75-0.34-0.75-0.75 0-4.27 3.2-7.86 7.44-8.36 0.41-0.04 0.78 0.24997 0.83 0.65997s-0.25 0.78002-0.66 0.83002c-3.48 0.41-6.11 3.36-6.11 6.87 0 0.41-0.34 0.75-0.75 0.75z"/>
 <path d="m20.25 11.92c-0.41 0-0.75-0.34-0.75-0.75 0-3.49-2.61-6.44-6.07-6.86-0.41-0.05-0.7-0.42002-0.65-0.83002s0.42-0.70996 0.84-0.64996c4.21 0.51 7.39 4.1 7.39 8.35-0.01 0.4-0.34 0.74-0.76 0.74z"/>
</svg>
