<?xml version="1.0" encoding="UTF-8"?>
<svg width="24" height="24" viewBox="0 0 24 24" xmlns="http://www.w3.org/2000/svg">
 <path d="m18 7.9098h-0.08-0.05c-1.89-0.06-3.3-1.52-3.3-3.32 0-1.84 1.5-3.33 3.33-3.33s3.33 1.5 3.33 3.33c-0.01 1.81-1.42 3.27-3.22 3.33 0-0.01 0-0.01-0.01-0.01zm-0.1-5.16c-1.01 0-1.83 0.82-1.83 1.83 0 0.99 0.77 1.79 1.76 1.83 0.01-0.01 0.09-0.01 0.18 0 0.97-0.05 1.72-0.85 1.73-1.83 0-1.01-0.82-1.83-1.84-1.83z"/>
 <path d="m18.01 15.28c-0.39 0-0.78-0.03-1.17-0.1-0.41-0.07-0.68-0.46-0.61-0.87s0.46-0.68 0.87-0.61c1.23 0.21 2.53-0.0199 3.4-0.5999 0.47-0.31 0.72-0.7001 0.72-1.0901s-0.26-0.77-0.72-1.08c-0.87-0.58-2.19-0.81-3.43-0.59-0.41 0.08-0.8-0.2-0.87-0.60995-0.07-0.41 0.2-0.8 0.61-0.87 1.63-0.29 3.32 0.01999 4.52 0.81999 0.88 0.58996 1.39 1.43 1.39 2.33 0 0.89-0.5 1.7401-1.39 2.3401-0.91 0.6-2.09 0.9299-3.32 0.9299z"/>
 <path d="m5.97 7.91h-0.02c-1.8-0.06-3.21-1.52-3.22-3.32 0-1.84 1.5-3.34 3.33-3.34s3.33 1.5 3.33 3.33c0 1.81-1.41 3.27-3.21 3.33l-0.21-0.75 0.07 0.75h-0.07zm0.1-1.5c0.06 0 0.11 0 0.17 0.01 0.89-0.04 1.67-0.84 1.67-1.83 0-1.01-0.82-1.83-1.83-1.83s-1.83 0.82001-1.83 1.83c0 0.98 0.76 1.77 1.73 1.83 0.01-0.01 0.05-0.01 0.09-0.01z"/>
 <path d="m5.96 15.28c-1.23 0-2.41-0.3299-3.32-0.9299-0.88-0.59-1.39-1.4401-1.39-2.3401 0-0.89 0.51-1.74 1.39-2.33 1.2-0.8 2.89-1.11 4.52-0.81999 0.41 0.07 0.68 0.46 0.61 0.87-0.07 0.40995-0.46 0.68995-0.87 0.60995-1.24-0.22-2.55 0.01-3.43 0.59-0.47 0.31-0.72 0.69-0.72 1.08s0.26 0.7801 0.72 1.0901c0.87 0.58 2.17 0.8099 3.4 0.5999 0.41-0.07 0.8 0.21 0.87 0.61 0.07 0.41-0.2 0.8-0.61 0.87-0.39 0.07-0.78 0.1-1.17 0.1z"/>
 <path d="m12 15.38h-0.08-0.05c-1.89-0.06-3.3-1.52-3.3-3.32 0-1.84 1.5-3.33 3.33-3.33s3.33 1.5 3.33 3.33c-0.01 1.81-1.42 3.27-3.22 3.33 0-0.01 0-0.01-0.01-0.01zm-0.1-5.16c-1.01 0-1.83 0.82-1.83 1.83 0 0.99 0.77 1.79 1.76 1.83 0.01-0.01 0.09-0.01 0.18 0 0.97-0.05 1.72-0.85 1.73-1.83 0-1-0.82-1.83-1.84-1.83z"/>
 <path d="m12 22.76c-1.2 0-2.4-0.31-3.33-0.94-0.88-0.59-1.39-1.43-1.39-2.33 0-0.89 0.49999-1.75 1.39-2.34 1.87-1.24 4.8-1.24 6.66 0 0.88 0.59 1.39 1.43 1.39 2.33 0 0.89-0.5 1.75-1.39 2.34-0.93 0.62-2.13 0.94-3.33 0.94zm-2.5-4.35c-0.47 0.31-0.72 0.7-0.72 1.09s0.26 0.77 0.72 1.08c1.35 0.91 3.64 0.91 4.99 0 0.47-0.31 0.72-0.7 0.72-1.09s-0.26-0.77-0.72-1.08c-1.34-0.91-3.63-0.9-4.99 0z"/>
</svg>
