<svg width="24" height="24" viewBox="0 0 24 24"  xmlns="http://www.w3.org/2000/svg">
<path opacity="0.4" d="M16.19 2H7.82001C4.18001 2 2.01001 4.17 2.01001 7.81V16.18C2.01001 19.82 4.18001 21.99 7.82001 21.99H16.19C19.83 21.99 22 19.82 22 16.18V7.81C22 4.17 19.83 2 16.19 2Z" />
<path d="M8.82001 16.0201C8.63001 16.0201 8.44001 15.9501 8.29001 15.8001C8.00001 15.5101 8.00001 15.0301 8.29001 14.7401L14.84 8.19016C15.13 7.90016 15.61 7.90016 15.9 8.19016C16.19 8.48016 16.19 8.96015 15.9 9.25015L9.35001 15.8001C9.20001 15.9501 9.01001 16.0201 8.82001 16.0201Z" />
<path d="M9.23001 7.66016C8.42001 7.66016 7.75 8.32017 7.75 9.14017C7.75 9.95017 8.41001 10.6201 9.23001 10.6201C10.04 10.6201 10.71 9.96017 10.71 9.14017C10.7 8.32017 10.04 7.66016 9.23001 7.66016Z" />
<path d="M15.77 13.3901C14.96 13.3901 14.29 14.0501 14.29 14.8701C14.29 15.6801 14.95 16.3501 15.77 16.3501C16.58 16.3501 17.25 15.6901 17.25 14.8701C17.25 14.0501 16.59 13.3901 15.77 13.3901Z" />
</svg>
