<?xml version="1.0" encoding="UTF-8"?>
<svg width="24" height="24" viewBox="0 0 24 24" xmlns="http://www.w3.org/2000/svg">
 <path d="m8.5698 16.02c-0.19 0-0.37999-0.07-0.52999-0.22-0.29-0.29-0.29-0.77 0-1.06l6.55-6.55c0.29-0.29 0.77-0.29 1.06 0s0.29 0.77 0 1.06l-6.55 6.55c-0.15 0.15-0.34 0.22-0.53 0.22z"/>
 <path d="m8.98 11.11c-1.09 0-1.98-0.89-1.98-1.98 0-1.09 0.89001-1.98 1.98-1.98 1.09 0 1.98 0.89002 1.98 1.98 0 1.09-0.89 1.98-1.98 1.98zm0-2.45c-0.26 0-0.48001 0.21002-0.48001 0.48002s0.21001 0.47998 0.48001 0.47998 0.47998-0.20998 0.47998-0.47998-0.21998-0.48002-0.47998-0.48002z"/>
 <path d="m15.52 16.84c-1.09 0-1.98-0.89-1.98-1.98s0.89-1.98 1.98-1.98 1.98 0.89 1.98 1.98-0.89 1.98-1.98 1.98zm0-2.45c-0.26 0-0.48 0.21-0.48 0.48s0.21 0.48 0.48 0.48 0.48-0.21 0.48-0.48-0.21-0.48-0.48-0.48z"/>
 <path d="m12 22.75c-5.93 0-10.75-4.82-10.75-10.75s4.82-10.75 10.75-10.75 10.75 4.82 10.75 10.75-4.82 10.75-10.75 10.75zm0-20c-5.1 0-9.25 4.15-9.25 9.25s4.15 9.25 9.25 9.25 9.25-4.15 9.25-9.25-4.15-9.25-9.25-9.25z"/>
</svg>
