<svg width="24" height="24" viewBox="0 0 24 24"  xmlns="http://www.w3.org/2000/svg">
<path opacity="0.4" d="M12 22C17.5228 22 22 17.5228 22 12C22 6.47715 17.5228 2 12 2C6.47715 2 2 6.47715 2 12C2 17.5228 6.47715 22 12 22Z" />
<path d="M8.32001 16.0201C8.13001 16.0201 7.94001 15.9501 7.79001 15.8001C7.50001 15.5101 7.50001 15.0301 7.79001 14.7401L14.34 8.19016C14.63 7.90016 15.11 7.90016 15.4 8.19016C15.69 8.48016 15.69 8.96015 15.4 9.25015L8.85001 15.8001C8.70001 15.9501 8.51001 16.0201 8.32001 16.0201Z" />
<path d="M8.73001 7.66016C7.92001 7.66016 7.25 8.32017 7.25 9.14017C7.25 9.95017 7.91001 10.6201 8.73001 10.6201C9.54001 10.6201 10.21 9.96017 10.21 9.14017C10.2 8.32017 9.54001 7.66016 8.73001 7.66016Z" />
<path d="M15.27 13.3901C14.46 13.3901 13.79 14.0501 13.79 14.8701C13.79 15.6801 14.45 16.3501 15.27 16.3501C16.08 16.3501 16.75 15.6901 16.75 14.8701C16.75 14.0501 16.09 13.3901 15.27 13.3901Z" />
</svg>
