<?xml version="1.0" encoding="UTF-8"?>
<svg width="24" height="24" viewBox="0 0 24 24" xmlns="http://www.w3.org/2000/svg">
 <path d="m17 21.75h-10c-4.41 0-5.75-1.34-5.75-5.75v-8c0-4.41 1.34-5.75 5.75-5.75h10c4.41 0 5.75 1.34 5.75 5.75v8c0 4.41-1.34 5.75-5.75 5.75zm-10-18c-3.58 0-4.25 0.68-4.25 4.25v8c0 3.57 0.67 4.25 4.25 4.25h10c3.58 0 4.25-0.68 4.25-4.25v-8c0-3.57-0.67-4.25-4.25-4.25h-10z"/>
 <path d="m19 8.75h-5c-0.41 0-0.75-0.34-0.75-0.75s0.34-0.75 0.75-0.75h5c0.41 0 0.75 0.34 0.75 0.75s-0.34 0.75-0.75 0.75z"/>
 <path d="m19 12.75h-4c-0.41 0-0.75-0.34-0.75-0.75s0.34-0.75 0.75-0.75h4c0.41 0 0.75 0.34 0.75 0.75s-0.34 0.75-0.75 0.75z"/>
 <path d="m19 16.75h-2c-0.41 0-0.75-0.34-0.75-0.75s0.34-0.75 0.75-0.75h2c0.41 0 0.75 0.34 0.75 0.75s-0.34 0.75-0.75 0.75z"/>
 <path d="m8.4999 12.04c-1.41 0-2.56-1.15-2.56-2.56 0-1.41 1.15-2.56 2.56-2.56s2.56 1.15 2.56 2.56c0 1.41-1.15 2.56-2.56 2.56zm0-3.62c-0.58 0-1.06 0.48-1.06 1.06 0 0.57998 0.48 1.06 1.06 1.06s1.06-0.48 1.06-1.06c0-0.58-0.48-1.06-1.06-1.06z"/>
 <path d="m12 17.08c-0.38 0-0.71-0.29-0.75-0.68-0.11-1.08-0.98-1.95-2.07-2.05-0.46-0.04-0.92-0.04-1.38 0-1.09 0.1-1.96 0.96-2.07 2.05-0.04 0.41-0.41 0.72-0.82 0.67-0.41-0.04-0.71-0.41-0.67-0.82 0.18-1.8 1.61-3.23 3.42-3.39 0.55-0.05 1.11-0.05 1.66 0 1.8 0.17 3.24 1.6 3.42 3.39 0.04 0.41-0.26 0.78-0.67 0.82-0.02 0.01-0.05 0.01-0.07 0.01z"/>
</svg>
