<?xml version="1.0" encoding="UTF-8"?>
<svg width="24" height="24" viewBox="0 0 24 24" xmlns="http://www.w3.org/2000/svg">
 <path d="m14.04 22.75h-4.79c-1.62 0-3.09-0.63-4.15-1.79-1.06-1.15-1.57-2.67-1.43-4.28 0.34-4.1 3.96-7.43 8.08-7.43 3.79 0 7.37 3.04 8 6.77 0.3 1.78-0.14 3.46-1.22 4.74-1.1 1.28-2.69 1.99-4.49 1.99zm-2.3-12c-3.35 0-6.3 2.72-6.58 6.06-0.1 1.19 0.27 2.3 1.04 3.14s1.85 1.3 3.04 1.3h4.79c1.35 0 2.54-0.52 3.33-1.45s1.11-2.19 0.89-3.53c-0.5-3.04-3.42-5.52-6.51-5.52z"/>
 <path d="m10.47 8.25c-1.79 0-3.25-1.46-3.25-3.25s1.46-3.25 3.25-3.25c1.79 0 3.25 1.46 3.25 3.25s-1.45 3.25-3.25 3.25zm0-5c-0.95998 0-1.75 0.79-1.75 1.75s0.79 1.75 1.75 1.75c0.96 0 1.75-0.79 1.75-1.75s-0.78-1.75-1.75-1.75z"/>
 <path d="m17.3 9.4502c-1.52 0-2.75-1.23-2.75-2.75 0-1.52 1.23-2.75 2.75-2.75s2.75 1.23 2.75 2.75c0 1.52-1.23 2.75-2.75 2.75zm0-4c-0.69 0-1.25 0.56-1.25 1.25s0.56 1.25 1.25 1.25 1.25-0.56 1.25-1.25-0.56-1.25-1.25-1.25z"/>
 <path d="m21 13.45c-1.24 0-2.25-1.01-2.25-2.25s1.01-2.25 2.25-2.25 2.25 1.01 2.25 2.25-1.01 2.25-2.25 2.25zm0-3c-0.41 0-0.75 0.34-0.75 0.75s0.34 0.75 0.75 0.75 0.75-0.34 0.75-0.75-0.34-0.75-0.75-0.75z"/>
 <path d="m3.9702 11.45c-1.52 0-2.75-1.23-2.75-2.75s1.23-2.75 2.75-2.75 2.75 1.23 2.75 2.75-1.23 2.75-2.75 2.75zm0-4c-0.69 0-1.25 0.56-1.25 1.25s0.56 1.25 1.25 1.25 1.25-0.56 1.25-1.25-0.56-1.25-1.25-1.25z"/>
</svg>
