<svg width="24" height="24" viewBox="0 0 24 24"  xmlns="http://www.w3.org/2000/svg">
<path d="M21 22.75H3C2.59 22.75 2.25 22.41 2.25 22C2.25 21.59 2.59 21.25 3 21.25H21C21.41 21.25 21.75 21.59 21.75 22C21.75 22.41 21.41 22.75 21 22.75Z" />
<path d="M21 2.75H3C2.59 2.75 2.25 2.41 2.25 2C2.25 1.59 2.59 1.25 3 1.25H21C21.41 1.25 21.75 1.59 21.75 2C21.75 2.41 21.41 2.75 21 2.75Z" />
<path d="M12 18.75C11.59 18.75 11.25 18.41 11.25 18V6C11.25 5.59 11.59 5.25 12 5.25C12.41 5.25 12.75 5.59 12.75 6V18C12.75 18.41 12.41 18.75 12 18.75Z" />
<path d="M14.8299 8.47002C14.6399 8.47002 14.4499 8.40002 14.2999 8.25002L11.9999 5.95002L9.69986 8.25002C9.40986 8.54002 8.92986 8.54002 8.63986 8.25002C8.34986 7.96002 8.34986 7.48002 8.63986 7.19002L11.4699 4.36002C11.7499 4.08002 12.2499 4.08002 12.5299 4.36002L15.3599 7.19002C15.6499 7.48002 15.6499 7.96002 15.3599 8.25002C15.2099 8.40002 15.0199 8.47002 14.8299 8.47002Z" />
<path d="M11.9999 19.47C11.7999 19.47 11.6099 19.39 11.4699 19.25L8.63986 16.42C8.34986 16.13 8.34986 15.65 8.63986 15.36C8.92986 15.07 9.40986 15.07 9.69986 15.36L11.9999 17.66L14.2999 15.36C14.5899 15.07 15.0699 15.07 15.3599 15.36C15.6499 15.65 15.6499 16.13 15.3599 16.42L12.5299 19.25C12.3899 19.39 12.1999 19.47 11.9999 19.47Z" />
</svg>
