<?xml version="1.0" encoding="UTF-8"?>
<svg width="24" height="24" viewBox="0 0 24 24" xmlns="http://www.w3.org/2000/svg">
 <path d="m21 22.75h-18c-0.41 0-0.75-0.34-0.75-0.75s0.34-0.75 0.75-0.75h18c0.41 0 0.75 0.34 0.75 0.75s-0.34 0.75-0.75 0.75z"/>
 <path d="m21 2.75h-18c-0.41 0-0.75-0.34-0.75-0.75s0.34-0.75 0.75-0.75h18c0.41 0 0.75 0.34 0.75 0.75s-0.34 0.75-0.75 0.75z"/>
 <path d="m12 18.75c-0.41 0-0.75-0.34-0.75-0.75v-12c0-0.41 0.34-0.75 0.75-0.75s0.75 0.34 0.75 0.75v12c0 0.41-0.34 0.75-0.75 0.75z"/>
 <path d="m14.83 8.47c-0.19 0-0.38-0.07-0.53-0.22l-2.3-2.3-2.3 2.3c-0.29 0.29-0.77 0.29-1.06 0s-0.29-0.77 0-1.06l2.83-2.83c0.28-0.28 0.78-0.28 1.06 0l2.83 2.83c0.29 0.29 0.29 0.77 0 1.06-0.15 0.15-0.34 0.22-0.53 0.22z"/>
 <path d="m12 19.47c-0.2 0-0.39-0.08-0.53-0.22l-2.83-2.83c-0.29-0.29-0.29-0.77 0-1.06s0.77-0.29 1.06 0l2.3 2.3 2.3-2.3c0.29-0.29 0.77-0.29 1.06 0s0.29 0.77 0 1.06l-2.83 2.83c-0.14 0.14-0.33 0.22-0.53 0.22z"/>
</svg>
