<?xml version="1.0" encoding="UTF-8"?>
<svg width="24" height="24" viewBox="0 0 24 24" xmlns="http://www.w3.org/2000/svg">
 <path d="m15 22.75h-6c-5.43 0-7.75-2.32-7.75-7.75v-6c0-5.43 2.32-7.75 7.75-7.75h6c5.43 0 7.75 2.32 7.75 7.75v6c0 5.43-2.32 7.75-7.75 7.75zm-6-20c-4.61 0-6.25 1.64-6.25 6.25v6c0 4.61 1.64 6.25 6.25 6.25h6c4.61 0 6.25-1.64 6.25-6.25v-6c0-4.61-1.64-6.25-6.25-6.25h-6z"/>
 <path d="m7.5 16.75c-0.41 0-0.75-0.34-0.75-0.75v-8c0-0.41 0.34-0.75 0.75-0.75h2c1.52 0 2.75 1.23 2.75 2.75s-1.23 2.75-2.75 2.75h-1.25v3.25c0 0.41-0.34 0.75-0.75 0.75zm0.75-5.5h1.25c0.69 0 1.25-0.56 1.25-1.25s-0.56-1.25-1.25-1.25h-1.25v2.5z"/>
 <path d="m15.25 16.75h-1.25c-0.41 0-0.75-0.34-0.75-0.75s0.34-0.75 0.75-0.75h1.25c0.28 0 0.5-0.22 0.5-0.5s-0.22-0.5-0.5-0.5c-1.1 0-2-0.9-2-2s0.9-2 2-2h1.25c0.41 0 0.75 0.34 0.75 0.75s-0.34 0.75-0.75 0.75h-1.25c-0.28 0-0.5 0.22-0.5 0.5s0.22 0.5 0.5 0.5c1.1 0 2 0.9 2 2s-0.9 2-2 2z"/>
</svg>
