<?xml version="1.0" encoding="UTF-8"?>
<svg width="24" height="24" viewBox="0 0 24 24" xmlns="http://www.w3.org/2000/svg">
 <path d="m15 22.75h-6c-5.43 0-7.75-2.32-7.75-7.75v-6c0-5.43 2.32-7.75 7.75-7.75h6c5.43 0 7.75 2.32 7.75 7.75v6c0 5.43-2.32 7.75-7.75 7.75zm-6-20c-4.61 0-6.25 1.64-6.25 6.25v6c0 4.61 1.64 6.25 6.25 6.25h6c4.61 0 6.25-1.64 6.25-6.25v-6c0-4.61-1.64-6.25-6.25-6.25h-6z"/>
 <path d="m13.95 22.75c-0.34 0-0.6401-0.23-0.7301-0.57l-4.9499-20c-0.1-0.4 0.14999-0.80999 0.54999-0.90999s0.80997 0.14 0.90997 0.55l4.95 20c0.1 0.4-0.15 0.81-0.55 0.91-0.06 0.01-0.12 0.02-0.18 0.02z"/>
 <path d="m1.9998 15.75c-0.33 0-0.61997-0.21-0.71997-0.54-0.12-0.4 0.10995-0.81 0.50995-0.93l9.5301-2.78c0.4-0.12 0.81 0.11 0.93 0.51s-0.1101 0.81-0.5101 0.93l-9.5299 2.78c-0.07 0.02-0.14002 0.03-0.21002 0.03z"/>
</svg>
