<?xml version="1.0" encoding="UTF-8"?>
<svg width="24" height="24" viewBox="0 0 24 24" xmlns="http://www.w3.org/2000/svg">
 <path d="m11.97 22.75c-5.92 0-10.75-4.82-10.75-10.75s4.83-10.75 10.75-10.75c5.92 0 10.75 4.82 10.75 10.75s-4.82 10.75-10.75 10.75zm0-20c-5.1 0-9.25 4.15-9.25 9.25s4.15 9.25 9.25 9.25c5.1 0 9.25-4.15 9.25-9.25s-4.15-9.25-9.25-9.25z"/>
 <path d="m10.56 16.99c-0.44 0-0.85997-0.11-1.23-0.32-0.86-0.5-1.34-1.48-1.34-2.76v-3.35c0-1.28 0.47-2.26 1.33-2.76 0.85997-0.5 1.95-0.42 3.06 0.22l2.9 1.67c1.11 0.64001 1.72 1.54 1.72 2.54 0 0.99-0.61 1.9-1.72 2.54l-2.9 1.67c-0.62 0.37-1.25 0.55-1.82 0.55zm0-8.02c-0.18 0-0.35 0.04-0.48 0.12-0.37997 0.22-0.58997 0.75-0.58997 1.47v3.35c0 0.71 0.21 1.25 0.58997 1.46 0.37 0.22 0.94 0.13 1.56-0.22l2.9-1.67c0.62-0.36 0.97-0.81 0.97-1.24s-0.36-0.88-0.97-1.24l-2.9-1.67c-0.4-0.24-0.77-0.36-1.08-0.36z"/>
</svg>
