<?xml version="1.0" encoding="UTF-8"?>
<svg width="24" height="24" viewBox="0 0 24 24" xmlns="http://www.w3.org/2000/svg">
 <path d="m7.87 21.28c-0.79 0-1.54-0.19-2.2-0.57-1.56-0.9-2.42-2.73-2.42-5.14v-7.13c0-2.42 0.86-4.24 2.42-5.14s3.57-0.73 5.67 0.48l6.17 3.56c2.09 1.21 3.25 2.87 3.25 4.67s-1.15 3.46-3.25 4.67l-6.17 3.56c-1.21 0.69-2.39 1.04-3.47 1.04zm0-17.06c-0.54 0-1.02 0.12-1.45 0.37-1.08 0.62-1.67 1.99-1.67 3.85v7.12c0 1.86 0.59 3.22 1.67 3.85s2.56 0.45 4.17-0.48l6.17-3.56c1.61-0.93 2.5-2.12 2.5-3.37s-0.89-2.44-2.5-3.37l-6.17-3.56c-0.98-0.56-1.9-0.85-2.72-0.85z"/>
</svg>
