<svg width="24" height="24" viewBox="0 0 24 24"  xmlns="http://www.w3.org/2000/svg">
<path opacity="0.4" d="M19.07 19.8201C18.88 19.8201 18.69 19.7501 18.54 19.6001C18.25 19.3101 18.25 18.8301 18.54 18.5401C22.15 14.9301 22.15 9.06011 18.54 5.46011C18.25 5.17011 18.25 4.69012 18.54 4.40012C18.83 4.11012 19.31 4.11012 19.6 4.40012C23.79 8.59012 23.79 15.4101 19.6 19.6001C19.45 19.7501 19.26 19.8201 19.07 19.8201Z" />
<path opacity="0.4" d="M4.93007 19.8201C4.74007 19.8201 4.55007 19.7501 4.40007 19.6001C0.210068 15.4101 0.210068 8.59012 4.40007 4.40012C4.69007 4.11012 5.17007 4.11012 5.46007 4.40012C5.75007 4.69012 5.75007 5.17011 5.46007 5.46011C1.85007 9.07011 1.85007 14.9401 5.46007 18.5401C5.75007 18.8301 5.75007 19.3101 5.46007 19.6001C5.31007 19.7501 5.12007 19.8201 4.93007 19.8201Z" />
<path opacity="0.4" d="M12 22.71C10.75 22.7 9.56002 22.4999 8.45002 22.1099C8.06002 21.9699 7.85 21.54 7.99 21.15C8.13 20.76 8.55002 20.55 8.95002 20.69C9.91002 21.02 10.93 21.2 12.01 21.2C13.08 21.2 14.11 21.02 15.06 20.69C15.45 20.56 15.88 20.76 16.02 21.15C16.16 21.54 15.95 21.9699 15.56 22.1099C14.44 22.4999 13.25 22.71 12 22.71Z" />
<path opacity="0.4" d="M15.3 3.34009C15.22 3.34009 15.13 3.33005 15.05 3.30005C14.09 2.97005 13.06 2.79004 11.99 2.79004C10.92 2.79004 9.89999 2.97005 8.93999 3.30005C8.54999 3.43005 8.11999 3.23009 7.97999 2.84009C7.83999 2.45009 8.04999 2.02007 8.43999 1.88007C9.54999 1.49007 10.75 1.29004 11.99 1.29004C13.23 1.29004 14.43 1.49007 15.54 1.88007C15.93 2.02007 16.14 2.45009 16 2.84009C15.9 3.15009 15.61 3.34009 15.3 3.34009Z" />
<path d="M8.73999 12.0001V10.3302C8.73999 8.25016 10.21 7.40014 12.01 8.44014L13.46 9.28017L14.91 10.1201C16.71 11.1601 16.71 12.8602 14.91 13.9002L13.46 14.7401L12.01 15.5802C10.21 16.6202 8.73999 15.7701 8.73999 13.6901V12.0001Z" />
</svg>
