<?xml version="1.0" encoding="UTF-8"?>
<svg width="24" height="24" viewBox="0 0 24 24" xmlns="http://www.w3.org/2000/svg">
 <path d="m12 22.75c-5.93 0-10.75-4.82-10.75-10.75s4.82-10.75 10.75-10.75 10.75 4.82 10.75 10.75c0 1.4-0.26 2.74-0.78 4-0.09 0.21-0.26 0.37-0.48 0.43-0.22 0.07-0.45 0.03-0.64-0.1-1.18-0.81-2.78-0.75-3.89 0.13-0.77 0.61-1.22 1.54-1.22 2.53 0 0.59 0.16 1.17 0.47 1.67 0.03 0.05 0.05 0.08 0.08 0.11 0.16 0.18 0.22 0.43 0.17 0.67s-0.22 0.43-0.45 0.52c-1.27 0.53-2.62 0.79-4.01 0.79zm0-20c-5.1 0-9.25 4.15-9.25 9.25s4.15 9.25 9.25 9.25c0.9 0 1.78-0.13 2.63-0.39-0.25-0.58-0.38-1.21-0.38-1.86 0-1.46 0.65-2.81 1.78-3.71 1.35-1.08 3.27-1.33 4.83-0.66 0.25-0.84 0.38-1.73 0.38-2.64 0.01-5.09-4.14-9.24-9.24-9.24z"/>
 <path d="m10.88 16.07c-0.39 0-0.76-0.09-1.08-0.28-0.74-0.43-1.17-1.3-1.17-2.4v-2.78c0-1.1 0.42999-1.97 1.17-2.4 0.75003-0.43 1.72-0.36 2.67 0.19l2.4 1.39c0.95 0.55003 1.49 1.36 1.49 2.21s-0.54 1.67-1.49 2.21l-2.4 1.39c-0.54 0.31-1.08 0.47-1.59 0.47zm0.01-6.64c-0.13 0-0.24 0.03002-0.34 0.08002-0.27 0.16-0.42 0.56-0.42 1.1v2.78c0 0.54 0.15 0.95 0.42 1.1s0.69 0.09 1.17-0.19l2.4-1.39c0.47-0.27 0.74-0.61 0.74-0.92s-0.27-0.64-0.74-0.92l-2.4-1.39c-0.31-0.16-0.59-0.25-0.83-0.25z"/>
 <path d="m19 23.75c-1.57 0-3.02-0.77-3.89-2.06-0.04-0.03-0.12-0.15-0.18-0.26-0.44-0.71-0.68-1.56-0.68-2.43 0-1.46 0.65-2.81 1.78-3.71 1.61-1.28 3.98-1.37 5.67-0.19 1.28 0.89 2.04 2.34 2.04 3.9 0 0.87-0.24 1.7201-0.69 2.4501-0.25 0.42-0.57 0.7999-0.95 1.1199-0.82 0.76-1.93 1.18-3.1 1.18zm0-8c-0.74 0-1.44 0.25-2.03 0.72-0.77 0.61-1.22 1.54-1.22 2.53 0 0.59 0.16 1.17 0.47 1.67 0.03 0.05 0.05 0.0801 0.08 0.1101 0.65 0.95 1.64 1.4699 2.71 1.4699 0.79 0 1.55-0.29 2.13-0.81 0.26-0.22 0.48-0.48 0.64-0.76 0.32-0.51 0.48-1.09 0.48-1.68 0-1.06-0.52-2.0599-1.4-2.6599-0.56-0.39-1.2-0.5901-1.86-0.5901z"/>
 <path d="m20.07 20.79c-0.19 0-0.38-0.07-0.53-0.22l-2.11-2.11c-0.29-0.29-0.29-0.77 0-1.06s0.77-0.29 1.06 0l2.11 2.11c0.29 0.29 0.29 0.77 0 1.06-0.15 0.15-0.34 0.22-0.53 0.22z"/>
 <path d="m17.93 20.82c-0.19 0-0.38-0.07-0.53-0.22-0.29-0.29-0.29-0.77 0-1.06l2.11-2.11c0.29-0.29 0.77-0.29 1.06 0s0.29 0.77 0 1.06l-2.11 2.11c-0.15 0.15-0.34 0.22-0.53 0.22z"/>
</svg>
