<?xml version="1.0" encoding="UTF-8"?>
<svg width="24" height="24" viewBox="0 0 24 24" xmlns="http://www.w3.org/2000/svg">
 <path d="m19.07 19.82c-0.19 0-0.38-0.07-0.53-0.22-0.29-0.29-0.29-0.77 0-1.06 3.61-3.61 3.61-9.48 0-13.08-0.29-0.29-0.29-0.76999 0-1.06s0.77-0.29 1.06 0c4.19 4.19 4.19 11.01 0 15.2-0.15 0.15-0.34 0.22-0.53 0.22z"/>
 <path d="m4.9298 19.82c-0.19 0-0.38-0.07-0.53-0.22-4.19-4.19-4.19-11.01 0-15.2 0.29-0.29 0.77-0.29 1.06 0s0.29 0.76999 0 1.06c-3.61 3.61-3.61 9.48 0 13.08 0.29 0.29 0.29 0.77 0 1.06-0.15 0.15-0.34 0.22-0.53 0.22z"/>
 <path d="m12 22.71c-1.25-0.01-2.44-0.2101-3.55-0.6001-0.39-0.14-0.60002-0.5699-0.46002-0.9599s0.56002-0.6 0.96002-0.46c0.96 0.33 1.98 0.51 3.06 0.51 1.07 0 2.1-0.18 3.05-0.51 0.39-0.13 0.82 0.07 0.96 0.46s-0.07 0.8199-0.46 0.9599c-1.12 0.39-2.31 0.6001-3.56 0.6001z"/>
 <path d="m15.3 3.3401c-0.08 0-0.17-0.01004-0.25-0.04004-0.96-0.33-1.99-0.51001-3.06-0.51001s-2.09 0.18001-3.05 0.51001c-0.39 0.13-0.82-0.06996-0.96-0.45996s0.07-0.82002 0.46-0.96002c1.11-0.39 2.31-0.59003 3.55-0.59003s2.44 0.20003 3.55 0.59003c0.39 0.14 0.6 0.57002 0.46 0.96002-0.1 0.31-0.39 0.5-0.7 0.5z"/>
 <path d="m10.56 16.76c-0.44 0-0.85997-0.11-1.23-0.32-0.86-0.5-1.34-1.48-1.34-2.76v-3.35c0-1.28 0.47-2.26 1.34-2.76 0.85997-0.5 1.9501-0.42002 3.0601 0.21998l2.9 1.67c1.11 0.63996 1.72 1.54 1.72 2.54s-0.61 1.9-1.72 2.54l-2.9 1.67c-0.63 0.37-1.2601 0.55-1.8301 0.55zm0-8.02c-0.18 0-0.35 0.03999-0.48 0.11999-0.36997 0.22-0.58997 0.75002-0.58997 1.46v3.35c0 0.71 0.21 1.25 0.58997 1.46 0.37 0.21 0.9401 0.13 1.5601-0.22l2.9-1.67c0.62-0.36 0.97-0.81 0.97-1.24s-0.35-0.88-0.97-1.24l-2.9-1.67c-0.4-0.23-0.7701-0.35003-1.0801-0.35003z"/>
</svg>
