<?xml version="1.0" encoding="UTF-8"?>
<svg width="24" height="24" viewBox="0 0 24 24" xmlns="http://www.w3.org/2000/svg">
 <path d="m7.9998 21.75h-0.05c-0.39-0.03-0.7-0.35-0.7-0.75 0-0.57 0.07-1.1 0.22-1.59l1.79-12.52c0.06-0.41 0.43999-0.69 0.85003-0.64 0.41 0.06 0.7 0.44 0.64 0.85l-1.42 9.91c1.24-0.75 2.59-0.76 2.67-0.76 3.72 0 6.75-3.03 6.75-6.75s-3.03-6.75-6.75-6.75c-3.72 0-6.75 3.03-6.75 6.75 0 1.1 0.27 2.19 0.78 3.15 0.19 0.37 0.05 0.82-0.31 1.01-0.37 0.19-0.82 0.05-1.01-0.31-0.62-1.18-0.94999-2.51-0.94999-3.85 0-4.55 3.7-8.25 8.25-8.25 4.55 0 8.25 3.7 8.25 8.25s-3.7 8.25-8.25 8.25c-0.09 0-2.21 0.04-2.97 1.75-0.03 0.08-0.07 0.16-0.09 0.24l-0.18999 1.36c-0.07 0.38-0.39001 0.65-0.76001 0.65z"/>
 <path d="m14 22.001c-0.26 0-0.52-0.11-0.71-0.29-0.18-0.19-0.29-0.45-0.29-0.71 0-0.13 0.03-0.26 0.08-0.38 0.05-0.13 0.12-0.23 0.21-0.33 0.28-0.28 0.72-0.37 1.09-0.21 0.13 0.05 0.23 0.12 0.33 0.21 0.09 0.1 0.16 0.2 0.21 0.33 0.05 0.12 0.08 0.25 0.08 0.38 0 0.26-0.11 0.52-0.29 0.71-0.1 0.09-0.2 0.16-0.33 0.21-0.12 0.05-0.25 0.08-0.38 0.08z"/>
</svg>
