<?xml version="1.0" encoding="UTF-8"?>
<svg width="24" height="24" viewBox="0 0 24 24" xmlns="http://www.w3.org/2000/svg">
 <path d="m7.5002 15.45c-0.13 0-0.26001-0.03-0.38001-0.1l-4.5-2.6c-0.23-0.13-0.37999-0.38-0.37999-0.65v-5.2c0-0.27 0.13999-0.52 0.37999-0.65l4.5-2.6c0.23-0.13 0.52-0.13 0.75 0l4.5 2.6c0.23 0.13 0.38 0.38 0.38 0.65v1.57c0 0.41-0.34 0.75-0.75 0.75s-0.75-0.34-0.75-0.75v-1.14l-3.75-2.17-3.75 2.17v4.33l3.75 2.17 4.12-2.38c0.36-0.21 0.82-0.08 1.02 0.27 0.21 0.36 0.08 0.82-0.27 1.02l-4.5 2.6c-0.11 0.07-0.23999 0.11-0.36999 0.11z"/>
 <path d="m16.5 20.64c-0.13 0-0.26-0.03-0.38-0.1l-4.5-2.6c-0.23-0.13-0.38-0.38-0.38-0.65v-1.65c0-0.41 0.34-0.75 0.75-0.75s0.75 0.34 0.75 0.75v1.22l3.75 2.17 3.75-2.17v-4.33l-3.75-2.17-4.12 2.38c-0.36 0.21-0.82 0.08-1.02-0.27-0.21-0.36-0.08-0.82 0.27-1.02l4.5-2.6c0.23-0.13 0.52-0.13 0.75 0l4.5 2.6c0.23 0.13 0.38 0.38 0.38 0.65v5.2c0 0.27-0.14 0.52-0.38 0.65l-4.5 2.6c-0.11 0.06-0.24 0.09-0.37 0.09z"/>
</svg>
