<?xml version="1.0" encoding="UTF-8"?>
<svg width="24" height="24" viewBox="0 0 24 24" xmlns="http://www.w3.org/2000/svg">
 <path d="m18.1 17.75h-12.2c-2.32 0-3.65-1.33-3.65-3.65v-12.1c0-0.41 0.34-0.75 0.75-0.75h18c0.41 0 0.75 0.34 0.75 0.75v12.1c0 2.32-1.33 3.65-3.65 3.65zm-14.35-15v11.35c0 1.49 0.65999 2.15 2.15 2.15h12.19c1.49 0 2.15-0.66 2.15-2.15v-11.35h-16.49z"/>
 <path d="m22 2.75h-20c-0.41 0-0.75-0.34-0.75-0.75s0.34-0.75 0.75-0.75h20c0.41 0 0.75 0.34 0.75 0.75s-0.34 0.75-0.75 0.75z"/>
 <path d="m8.0003 22.75c-0.28 0-0.54002-0.15-0.67002-0.41-0.19-0.37-0.03997-0.82 0.34003-1.01l3.58-1.79v-2.54c0-0.41 0.34-0.75 0.75-0.75s0.75 0.34 0.75 0.75v3c0 0.28-0.16 0.54-0.42 0.67l-4 2c-0.1 0.05-0.21998 0.08-0.32998 0.08z"/>
 <path d="m16 22.75c-0.11 0-0.2299-0.03-0.3299-0.08l-4-2c-0.37-0.19-0.5201-0.64-0.3401-1.01 0.19-0.37 0.64-0.52 1.01-0.34l4 2c0.37 0.19 0.52 0.64 0.34 1.01-0.14 0.27-0.41 0.42-0.68 0.42z"/>
 <path d="m7.4999 11.75c-0.21 0-0.42999-0.09-0.57999-0.27-0.27-0.32-0.22002-0.79 0.09998-1.06l3.15-2.63c0.29-0.24 0.66-0.34 1.01-0.28 0.36 0.06 0.67 0.27998 0.86 0.59998l1.05 1.75 2.93-2.44c0.32-0.26 0.79-0.22003 1.06 0.09997s0.22 0.79-0.1 1.06l-3.15 2.63c-0.29 0.24-0.66 0.34-1.01 0.28-0.36-0.06-0.67-0.28-0.86-0.6l-1.05-1.75-2.93 2.44c-0.14 0.11-0.31001 0.17-0.48001 0.17z"/>
</svg>
