<?xml version="1.0" encoding="UTF-8"?>
<svg width="24" height="24" viewBox="0 0 24 24" xmlns="http://www.w3.org/2000/svg">
 <path d="m17.69 20.09c-0.57 0-1.13-0.15-1.65-0.45l-8.29-4.78c-1.03-0.6-1.65-1.67-1.65-2.86s0.61999-2.26 1.65-2.86l8.29-4.78c1.03-0.6 2.26-0.6 3.3 0s1.65 1.66 1.65 2.86v9.57c0 1.19-0.62 2.26-1.65 2.86-0.52 0.29-1.08 0.44-1.65 0.44zm0-14.68c-0.31 0-0.62 0.07999-0.9 0.23999l-8.29 4.78c-0.56 0.33-0.89999 0.91-0.89999 1.56s0.33999 1.23 0.89999 1.56l8.29 4.78c0.56 0.33 1.24 0.33 1.8 0s0.9-0.91 0.9-1.56v-9.57c0-0.65-0.34-1.23-0.9-1.56-0.28-0.14-0.59-0.23001-0.9-0.23001z"/>
 <path d="m3.7598 18.93c-0.41 0-0.75-0.34-0.75-0.75v-12.36c0-0.41 0.34-0.75 0.75-0.75s0.75 0.34 0.75 0.75v12.36c0 0.41-0.34 0.75-0.75 0.75z"/>
</svg>
