<?xml version="1.0" encoding="UTF-8"?>
<svg width="24" height="24" viewBox="0 0 24 24" xmlns="http://www.w3.org/2000/svg">
 <path d="M16.75 7.75H7.25C6.84 7.75 6.5 7.41 6.5 7V5C6.5 2.44 7.69 1.25 10.25 1.25H13.75C16.31 1.25 17.5 2.44 17.5 5V7C17.5 7.41 17.16 7.75 16.75 7.75ZM8 6.25H16V5C16 3.3 15.45 2.75 13.75 2.75H10.25C8.55 2.75 8 3.3 8 5V6.25Z"/>
 <path d="m13 22.75h-2c-2.42 0-3.75-1.33-3.75-3.75v-4c0-0.41 0.34-0.75 0.75-0.75h8c0.41 0 0.75 0.34 0.75 0.75v4c0 2.42-1.33 3.75-3.75 3.75zm-4.25-7v3.25c0 1.58 0.67 2.25 2.25 2.25h2c1.58 0 2.25-0.67 2.25-2.25v-3.25h-6.5z"/>
 <path d="m18 18.75h-2c-0.41 0-0.75-0.34-0.75-0.75v-2.25h-6.5v2.25c0 0.41-0.34 0.75-0.75 0.75h-2c-2.42 0-3.75-1.33-3.75-3.75v-5c0-2.42 1.33-3.75 3.75-3.75h12c2.42 0 3.75 1.33 3.75 3.75v5c0 2.42-1.33 3.75-3.75 3.75zm-1.25-1.5h1.25c1.58 0 2.25-0.67 2.25-2.25v-5c0-1.58-0.67-2.25-2.25-2.25h-12c-1.58 0-2.25 0.67-2.25 2.25v5c0 1.58 0.67 2.25 2.25 2.25h1.25v-2.25c0-0.41 0.34-0.75 0.75-0.75h8c0.41 0 0.75 0.34 0.75 0.75v2.25z"/>
 <path d="m17 15.75h-10c-0.41 0-0.75-0.34-0.75-0.75s0.34-0.75 0.75-0.75h10c0.41 0 0.75 0.34 0.75 0.75s-0.34 0.75-0.75 0.75z"/>
 <path d="m10 11.75h-3c-0.41 0-0.75-0.34-0.75-0.75s0.34-0.75 0.75-0.75h3c0.41 0 0.75 0.34 0.75 0.75s-0.34 0.75-0.75 0.75z"/>
</svg>
