<?xml version="1.0" encoding="UTF-8"?>
<svg width="24" height="24" viewBox="0 0 24 24" xmlns="http://www.w3.org/2000/svg">
 <path d="M16.75 7.75H7.25C6.84 7.75 6.5 7.41 6.5 7V5C6.5 2.44 7.69 1.25 10.25 1.25H13.75C16.31 1.25 17.5 2.44 17.5 5V7C17.5 7.41 17.16 7.75 16.75 7.75ZM8 6.25H16V5C16 3.3 15.45 2.75 13.75 2.75H10.25C8.55 2.75 8 3.3 8 5V6.25Z"/>
 <path d="m13 22.75h-2c-2.04 0-3.34-0.98-3.67-2.76-0.07-0.41 0.19-0.8 0.6-0.87 0.4-0.08 0.8 0.19 0.87 0.6 0.13 0.71 0.5 1.53 2.19 1.53h2c1.58 0 2.25-0.67 2.25-2.25v-3.25h-2.28c-0.41 0-0.75-0.34-0.75-0.75s0.34-0.75 0.75-0.75h3.04c0.41 0 0.75 0.34 0.75 0.75v4c0 2.42-1.33 3.75-3.75 3.75z"/>
 <path d="m6 18.75c-2.42 0-3.75-1.33-3.75-3.75v-5c0-2.42 1.33-3.75 3.75-3.75h10.59c0.41 0 0.75 0.34 0.75 0.75s-0.34 0.75-0.75 0.75h-10.59c-1.58 0-2.25 0.67-2.25 2.25v5c0 1.58 0.67 2.25 2.25 2.25 0.41 0 0.75 0.34 0.75 0.75s-0.34 0.75-0.75 0.75z"/>
 <path d="m18 18.75h-2c-0.41 0-0.75-0.34-0.75-0.75v-2.25h-2.25c-0.41 0-0.75-0.34-0.75-0.75s0.34-0.75 0.75-0.75h3c0.41 0 0.75 0.34 0.75 0.75v2.25h1.25c1.58 0 2.25-0.67 2.25-2.25v-5c0-0.92-0.23-1.53-0.71-1.87-0.34-0.24-0.42-0.71-0.18-1.04 0.24-0.34 0.71-0.42 1.05-0.18 0.89 0.63 1.34 1.67 1.34 3.09v5c0 2.42-1.33 3.75-3.75 3.75z"/>
 <path d="m17 15.75h-1.21c-0.41 0-0.75-0.34-0.75-0.75s0.34-0.75 0.75-0.75h1.21c0.41 0 0.75 0.34 0.75 0.75s-0.34 0.75-0.75 0.75z"/>
 <path d="m9 11.75h-2c-0.41 0-0.75-0.34-0.75-0.75s0.34-0.75 0.75-0.75h2c0.41 0 0.75 0.34 0.75 0.75s-0.34 0.75-0.75 0.75z"/>
 <path d="m1.9999 22.75c-0.19 0-0.38-0.07-0.53-0.22-0.29-0.29-0.29-0.77 0-1.06l20-20c0.29-0.29 0.77-0.29 1.06 0s0.29 0.77 0 1.06l-20 20c-0.15 0.15-0.34 0.22-0.53 0.22z"/>
</svg>
