<svg width="24" height="24" viewBox="0 0 24 24"  xmlns="http://www.w3.org/2000/svg">
<path d="M16.7499 7.75H7.24994C6.83994 7.75 6.49994 7.41 6.49994 7V5C6.49994 2.44 7.68994 1.25 10.2499 1.25H13.7499C16.3099 1.25 17.4999 2.44 17.4999 5V7C17.4999 7.41 17.1599 7.75 16.7499 7.75ZM7.99994 6.25H15.9999V5C15.9999 3.3 15.4499 2.75 13.7499 2.75H10.2499C8.54994 2.75 7.99994 3.3 7.99994 5V6.25Z" />
<path d="M12.9999 22.75H10.9999C8.95994 22.75 7.65994 21.77 7.32994 19.99C7.25994 19.58 7.51994 19.19 7.92994 19.12C8.32994 19.04 8.72994 19.31 8.79994 19.72C8.92994 20.43 9.29994 21.25 10.9899 21.25H12.9899C14.5699 21.25 15.2399 20.58 15.2399 19V15.75H12.9599C12.5499 15.75 12.2099 15.41 12.2099 15C12.2099 14.59 12.5499 14.25 12.9599 14.25H15.9999C16.4099 14.25 16.7499 14.59 16.7499 15V19C16.7499 21.42 15.4199 22.75 12.9999 22.75Z" />
<path d="M5.99994 18.75C3.57994 18.75 2.24994 17.42 2.24994 15V10C2.24994 7.58 3.57994 6.25 5.99994 6.25H16.5899C16.9999 6.25 17.3399 6.59 17.3399 7C17.3399 7.41 16.9999 7.75 16.5899 7.75H5.99994C4.41994 7.75 3.74994 8.42 3.74994 10V15C3.74994 16.58 4.41994 17.25 5.99994 17.25C6.40994 17.25 6.74994 17.59 6.74994 18C6.74994 18.41 6.40994 18.75 5.99994 18.75Z" />
<path d="M17.9999 18.75H15.9999C15.5899 18.75 15.2499 18.41 15.2499 18V15.75H12.9999C12.5899 15.75 12.2499 15.41 12.2499 15C12.2499 14.59 12.5899 14.25 12.9999 14.25H15.9999C16.4099 14.25 16.7499 14.59 16.7499 15V17.25H17.9999C19.5799 17.25 20.2499 16.58 20.2499 15V10C20.2499 9.08 20.0199 8.47 19.5399 8.13C19.1999 7.89 19.1199 7.42 19.3599 7.09C19.5999 6.75 20.0699 6.67 20.4099 6.91C21.2999 7.54 21.7499 8.58 21.7499 10V15C21.7499 17.42 20.4199 18.75 17.9999 18.75Z" />
<path d="M16.9999 15.75H15.7899C15.3799 15.75 15.0399 15.41 15.0399 15C15.0399 14.59 15.3799 14.25 15.7899 14.25H16.9999C17.4099 14.25 17.7499 14.59 17.7499 15C17.7499 15.41 17.4099 15.75 16.9999 15.75Z" />
<path d="M8.99994 11.75H6.99994C6.58994 11.75 6.24994 11.41 6.24994 11C6.24994 10.59 6.58994 10.25 6.99994 10.25H8.99994C9.40994 10.25 9.74994 10.59 9.74994 11C9.74994 11.41 9.40994 11.75 8.99994 11.75Z" />
<path d="M1.99994 22.75C1.80994 22.75 1.61994 22.68 1.46994 22.53C1.17994 22.24 1.17994 21.76 1.46994 21.47L21.4699 1.47C21.7599 1.18 22.2399 1.18 22.5299 1.47C22.8199 1.76 22.8199 2.24 22.5299 2.53L2.52994 22.53C2.37994 22.68 2.18994 22.75 1.99994 22.75Z" />
</svg>
