<?xml version="1.0" encoding="UTF-8"?>
<svg width="24" height="24" viewBox="0 0 24 24" xmlns="http://www.w3.org/2000/svg">
 <path d="m9.1596 11.62h-0.08c-0.05-0.01-0.12-0.01-0.18 0-2.9-0.09-5.09-2.37-5.09-5.18 0-2.86 2.33-5.19 5.19-5.19 2.86 0 5.19 2.33 5.19 5.19-0.01 2.81-2.21 5.09-5 5.18h-0.03zm-0.16-8.87c-2.03 0-3.69 1.66-3.69 3.69 0 2 1.56 3.61 3.55 3.68 0.06-0.01 0.19-0.01 0.32 0 1.96-0.09 3.5-1.7 3.51-3.68 0-2.03-1.66-3.69-3.69-3.69z"/>
 <path d="m16.539 11.75c-0.03 0-0.06 0-0.09-0.01-0.41 0.04-0.83-0.25-0.87-0.66s0.21-0.78 0.62-0.83c0.12-0.01 0.25-0.01 0.36-0.01 1.46-0.08 2.6-1.28 2.6-2.75 0-1.52-1.23-2.75-2.75-2.75-0.41 0.01-0.75-0.33-0.75-0.74s0.34-0.75 0.75-0.75c2.34 0 4.25 1.91 4.25 4.25 0 2.3-1.8 4.16-4.09 4.25h-0.03z"/>
 <path d="m9.1696 22.55c-1.96 0-3.93-0.5-5.42-1.5-1.39-0.92-2.15-2.18-2.15-3.55s0.76-2.64 2.15-3.57c3-1.99 7.86-1.99 10.84 0 1.38 0.92 2.15 2.18 2.15 3.55s-0.76 2.64-2.15 3.57c-1.5 1-3.46 1.5-5.42 1.5zm-4.59-7.36c-0.96 0.64-1.48 1.46-1.48 2.32 0 0.85 0.53 1.67 1.48 2.3 2.49 1.67 6.69 1.67 9.18 0 0.96-0.64 1.48-1.46 1.48-2.32 0-0.85-0.53-1.67-1.48-2.3-2.49-1.66-6.69-1.66-9.18 0z"/>
 <path d="m18.34 20.75c-0.35 0-0.66-0.24-0.73-0.6-0.08-0.41 0.18-0.8 0.58-0.89 0.63-0.13 1.21-0.38 1.66-0.73 0.57-0.43 0.88-0.97 0.88-1.54s-0.31-1.11-0.87-1.53c-0.44-0.34-0.99-0.58-1.64-0.73-0.4-0.09-0.66-0.49-0.57-0.9 0.09-0.4 0.49-0.66 0.9-0.57 0.86 0.19 1.61 0.53 2.22 1 0.93 0.7 1.46 1.69 1.46 2.73s-0.54 2.03-1.47 2.74c-0.62 0.48-1.4 0.83-2.26 1-0.06 0.02-0.11 0.02-0.16 0.02z"/>
</svg>
