<?xml version="1.0" encoding="UTF-8"?>
<svg width="24" height="24" viewBox="0 0 24 24" xmlns="http://www.w3.org/2000/svg">
 <path d="m19.5 19.75h-4c-0.41 0-0.75-0.34-0.75-0.75s0.34-0.75 0.75-0.75h4c0.41 0 0.75 0.34 0.75 0.75s-0.34 0.75-0.75 0.75z"/>
 <path d="m12.15 11.62h-0.08c-0.06-0.01-0.12 0-0.18 0-2.9-0.09-5.09-2.37-5.09-5.18 0-2.86 2.33-5.19 5.19-5.19 2.86 0 5.19 2.33 5.19 5.19-0.01 2.81-2.21 5.09-5 5.18h-0.03zm-0.16-8.87c-2.03 0-3.69 1.66-3.69 3.69 0 2 1.56 3.61 3.55 3.68 0.06-0.01 0.19-0.01 0.32 0 1.96-0.09 3.5-1.7 3.51-3.68 0-2.03-1.66-3.69-3.69-3.69z"/>
 <path d="m11.99 22.56c-2.04 0-3.97-0.53-5.43-1.51-1.39-0.93-2.15-2.2-2.15-3.57s0.77-2.63 2.15-3.55c2.99-2 7.85-2 10.84 0 0.34 0.23 0.44 0.7 0.21 1.04-0.23 0.35-0.7 0.44-1.04 0.21-2.49-1.66-6.69-1.66-9.18 0-0.96 0.64-1.48 1.45-1.48 2.3s0.52 1.68 1.48 2.32c1.21 0.81 2.84 1.25 4.59 1.25 0.41 0 0.75 0.34 0.75 0.75s-0.33 0.76-0.74 0.76z"/>
</svg>
