<svg width="24" height="24" viewBox="0 0 24 24"  xmlns="http://www.w3.org/2000/svg">
<path d="M12 2C9.38 2 7.25 4.13 7.25 6.75C7.25 9.32 9.26 11.4 11.88 11.49C11.96 11.48 12.04 11.48 12.1 11.49C12.12 11.49 12.13 11.49 12.15 11.49C12.16 11.49 12.16 11.49 12.17 11.49C14.73 11.4 16.74 9.32 16.75 6.75C16.75 4.13 14.62 2 12 2Z" />
<path opacity="0.4" d="M17.08 14.1499C14.29 12.2899 9.73996 12.2899 6.92996 14.1499C5.65996 14.9999 4.95996 16.1499 4.95996 17.3799C4.95996 18.6099 5.65996 19.7499 6.91996 20.5899C8.31996 21.5299 10.16 21.9999 12 21.9999C13.84 21.9999 15.68 21.5299 17.08 20.5899C18.34 19.7399 19.04 18.5999 19.04 17.3599C19.03 16.1299 18.34 14.9899 17.08 14.1499Z" />
<path d="M13.06 17.3799L13.94 16.4999C14.23 16.2099 14.23 15.7299 13.94 15.4399C13.65 15.1499 13.17 15.1499 12.88 15.4399L12 16.3199L11.12 15.4399C10.83 15.1499 10.35 15.1499 10.06 15.4399C9.77003 15.7299 9.77003 16.2099 10.06 16.4999L10.94 17.3799L10.06 18.2599C9.77003 18.5499 9.77003 19.0299 10.06 19.3199C10.21 19.4699 10.4 19.5399 10.59 19.5399C10.78 19.5399 10.97 19.4699 11.12 19.3199L12 18.4399L12.88 19.3199C13.03 19.4699 13.22 19.5399 13.41 19.5399C13.6 19.5399 13.79 19.4699 13.94 19.3199C14.23 19.0299 14.23 18.5499 13.94 18.2599L13.06 17.3799Z" />
</svg>
