<?xml version="1.0" encoding="UTF-8"?>
<svg width="24" height="24" viewBox="0 0 24 24" xmlns="http://www.w3.org/2000/svg">
 <path d="m15.96 21.32c-0.19 0-0.38-0.07-0.53-0.22l-1.52-1.52c-0.29-0.29-0.29-0.77 0-1.06s0.77-0.29 1.06 0l0.99 0.99 2.51-2.51c0.29-0.29 0.77-0.29 1.06 0s0.29 0.77 0 1.06l-3.04 3.04c-0.15 0.15-0.34 0.22-0.53 0.22z"/>
 <path d="m12.16 11.62h-0.08c-0.05-0.01-0.12-0.01-0.18 0-2.9-0.09-5.09-2.37-5.09-5.18-0.01-1.38 0.52999-2.68 1.51-3.66s2.28-1.53 3.67-1.53c2.86 0 5.19 2.33 5.19 5.19 0 2.81-2.19 5.08-4.99 5.18h-0.03zm-0.17-8.87c-0.99 0-1.91 0.39-2.61 1.08-0.69 0.7-1.07 1.62-1.07 2.6 0 2 1.56 3.62 3.55 3.68 0.06-0.01 0.19-0.01 0.32 0 1.97-0.09 3.5-1.7 3.5-3.68 0-2.02-1.66-3.68-3.69-3.68z"/>
 <path d="m11.99 22.56c-2.04 0-3.97-0.53-5.43-1.51-1.39-0.93-2.15-2.2-2.15-3.57s0.77-2.63 2.15-3.55c2.99-2 7.85-2 10.84 0 0.34 0.23 0.44 0.7 0.21 1.04-0.23 0.35-0.7 0.44-1.04 0.21-2.49-1.66-6.69-1.66-9.18 0-0.96 0.64-1.48 1.45-1.48 2.3s0.52 1.68 1.48 2.32c1.21 0.81 2.84 1.25 4.59 1.25 0.41 0 0.75 0.34 0.75 0.75s-0.33 0.76-0.74 0.76z"/>
</svg>
