<?xml version="1.0" encoding="UTF-8"?>
<svg width="24" height="24" viewBox="0 0 24 24" xmlns="http://www.w3.org/2000/svg">
 <path d="m19 16.75c-0.41 0-0.75-0.34-0.75-0.75v-9.5c0-0.69-0.56-1.25-1.25-1.25h-5.5c-0.41 0-0.75-0.34-0.75-0.75s0.34-0.75 0.75-0.75h5.5c1.52 0 2.75 1.23 2.75 2.75v9.5c0 0.41-0.34 0.75-0.75 0.75z"/>
 <path d="m14 7.7499c-0.17 0-0.34-0.05998-0.48-0.16998l-3-2.5c-0.17-0.14-0.27-0.35002-0.27-0.58002s0.1-0.43002 0.27-0.58002l3-2.5c0.32-0.27 0.79-0.21996 1.06 0.10004s0.22 0.79-0.1 1.06l-2.31 1.92 2.31 1.92c0.32 0.27 0.36 0.74 0.1 1.06-0.15 0.18-0.37 0.27002-0.58 0.27002z"/>
 <path d="m19 22.75c-2.07 0-3.75-1.68-3.75-3.75s1.68-3.75 3.75-3.75 3.75 1.68 3.75 3.75-1.68 3.75-3.75 3.75zm0-6c-1.24 0-2.25 1.01-2.25 2.25s1.01 2.25 2.25 2.25 2.25-1.01 2.25-2.25-1.01-2.25-2.25-2.25z"/>
 <path d="m12.5 20.25h-5.5c-1.52 0-2.75-1.23-2.75-2.75v-9.5c0-0.41 0.34-0.75 0.75-0.75s0.75 0.34 0.75 0.75v9.5c0 0.69 0.56 1.25 1.25 1.25h5.5c0.41 0 0.75 0.34 0.75 0.75s-0.34 0.75-0.75 0.75z"/>
 <path d="m9.9999 22.75c-0.21 0-0.42999-0.09-0.57999-0.27-0.27-0.32-0.22002-0.79 0.09998-1.06l2.31-1.92-2.31-1.92c-0.32-0.27-0.35998-0.74-0.09998-1.06 0.27-0.32 0.73996-0.36 1.06-0.1l3 2.5c0.17 0.14 0.27 0.35 0.27 0.58s-0.1 0.43-0.27 0.58l-3 2.5c-0.14 0.11-0.31 0.17-0.47997 0.17z"/>
 <path d="m5 8.75c-2.07 0-3.75-1.68-3.75-3.75s1.68-3.75 3.75-3.75 3.75 1.68 3.75 3.75-1.68 3.75-3.75 3.75zm0-6c-1.24 0-2.25 1.01-2.25 2.25s1.01 2.25 2.25 2.25 2.25-1.01 2.25-2.25-1.01-2.25-2.25-2.25z"/>
</svg>
