<?xml version="1.0" encoding="UTF-8"?>
<svg width="24" height="24" viewBox="0 0 24 24" xmlns="http://www.w3.org/2000/svg">
 <path d="m19 16.75c-0.41 0-0.75-0.34-0.75-0.75v-9.5c0-0.69-0.56-1.25-1.25-1.25h-4.5c-0.41 0-0.75-0.34-0.75-0.75s0.34-0.75 0.75-0.75h4.5c1.52 0 2.75 1.23 2.75 2.75v9.5c0 0.41-0.34 0.75-0.75 0.75z"/>
 <path d="m15 7.7499c-0.17 0-0.34-0.06-0.48-0.17l-3-2.5c-0.17-0.14-0.27-0.35-0.27-0.58s0.1-0.43 0.27-0.58l3-2.5c0.32-0.27 0.79-0.22 1.06 0.1s0.22 0.79-0.1 1.06l-2.31 1.92 2.31 1.92c0.32 0.27 0.36 0.73999 0.1 1.06-0.15 0.18-0.37 0.27001-0.58 0.27001z"/>
 <path d="m5 16.75c-0.41 0-0.75-0.34-0.75-0.75v-7c0-0.41 0.34-0.75 0.75-0.75s0.75 0.34 0.75 0.75v7c0 0.41-0.34 0.75-0.75 0.75z"/>
 <path d="m5.25 9.25c-2.21 0-4-1.79-4-4s1.79-4 4-4 4 1.79 4 4-1.79 4-4 4zm0-6.5c-1.38 0-2.5 1.12-2.5 2.5s1.12 2.5 2.5 2.5 2.5-1.12 2.5-2.5-1.12-2.5-2.5-2.5z"/>
 <path d="m5 22.75c-2.07 0-3.75-1.68-3.75-3.75s1.68-3.75 3.75-3.75 3.75 1.68 3.75 3.75-1.68 3.75-3.75 3.75zm0-6c-1.24 0-2.25 1.01-2.25 2.25s1.01 2.25 2.25 2.25 2.25-1.01 2.25-2.25-1.01-2.25-2.25-2.25z"/>
 <path d="m19 22.75c-2.07 0-3.75-1.68-3.75-3.75s1.68-3.75 3.75-3.75 3.75 1.68 3.75 3.75-1.68 3.75-3.75 3.75zm0-6c-1.24 0-2.25 1.01-2.25 2.25s1.01 2.25 2.25 2.25 2.25-1.01 2.25-2.25-1.01-2.25-2.25-2.25z"/>
</svg>
