<?xml version="1.0" encoding="UTF-8"?>
<svg width="24" height="24" viewBox="0 0 24 24" xmlns="http://www.w3.org/2000/svg">
 <path d="m12 22.75c-1.05 0-2.1-0.08-3.14-0.24-1.19-0.18-2.05-1.19-2.06-2.39v-5.9c0-1.64 1.33-2.97 2.97-2.97h4.44c0.81 0 1.47-0.66 1.47-1.47v-5.89c0-0.46-0.33-0.84001-0.79-0.91001-1.93-0.3-3.88-0.3-5.81 0-0.45 0.07-0.78998 0.45999-0.78998 0.91999v3.67c0 0.41-0.34 0.75-0.75 0.75s-0.75-0.34-0.75-0.75v-3.67c0.01-1.2 0.87-2.21 2.06-2.39 2.08-0.32 4.19-0.32 6.27 0 1.19 0.18 2.05 1.19 2.06 2.39v5.9c0 1.64-1.33 2.97-2.97 2.97h-4.44c-0.81 0-1.47 0.66-1.47 1.47v5.89c0 0.46 0.33001 0.84 0.79001 0.91 1.93 0.3 3.88 0.3 5.81 0 0.45-0.07 0.79-0.46 0.79-0.92v-3.67c0-0.41 0.34-0.75 0.75-0.75s0.75 0.34 0.75 0.75v3.67c-0.01 1.2-0.87 2.21-2.06 2.39-1.03 0.16-2.08 0.24-3.13 0.24z"/>
 <path d="m12 17.191c-0.41 0-0.75-0.34-0.75-0.75s0.34-0.75 0.75-0.75h8.12c0.46 0 0.84-0.33 0.91-0.79 0.3-1.93 0.3-3.88 0-5.81-0.07-0.46-0.45-0.79001-0.91-0.79001h-3.67c-0.41 0-0.75-0.34-0.75-0.75s0.34-0.75 0.75-0.75h3.67c1.2 0.01 2.21 0.87 2.39 2.06 0.32 2.08 0.32 4.19 0 6.27-0.18 1.19-1.19 2.05-2.39 2.06h-8.12z"/>
 <path d="m7.5598 17.191h-3.67c-1.2-0.01-2.21-0.87-2.39-2.06-0.32-2.08-0.32-4.19 0-6.27 0.18-1.19 1.19-2.05 2.39-2.06h8.11c0.41 0 0.75 0.34 0.75 0.75s-0.34 0.75-0.75 0.75h-8.12c-0.46 0-0.84 0.33001-0.91 0.79001-0.3 1.93-0.3 3.88 0 5.81 0.07 0.46 0.45 0.79 0.91 0.79h3.67c0.41 0 0.75 0.34 0.75 0.75s-0.32999 0.75-0.73999 0.75z"/>
 <path d="m10.33 5.5807c-0.40998 0-0.80998-0.39-0.80998-0.81s0.39-0.79999 0.80998-0.79999c0.19 0 0.42 0.09 0.56 0.22 0.15 0.14 0.25 0.37999 0.25 0.57999 0 0.42-0.39 0.81-0.81 0.81z"/>
 <path d="m13.67 20.03c-0.41 0-0.81-0.39-0.81-0.81s0.39-0.81 0.81-0.81c0.19 0 0.42 0.09 0.56 0.22 0.15 0.14 0.25 0.3799 0.25 0.5799-0.01 0.43-0.4 0.8201-0.81 0.8201z"/>
</svg>
