<svg width="24" height="24" viewBox="0 0 24 24"  xmlns="http://www.w3.org/2000/svg">
<path d="M12 22.7497C11.87 22.7497 11.75 22.7197 11.64 22.6597L2.64001 17.6597C2.40001 17.5297 2.25 17.2797 2.25 16.9997V6.99969C2.25 6.72969 2.40001 6.47969 2.64001 6.33969L11.64 1.33969C11.87 1.20969 12.14 1.20969 12.37 1.33969L21.37 6.33969C21.61 6.46969 21.76 6.71969 21.76 6.99969V11.9997C21.76 12.2497 21.64 12.4797 21.44 12.6197L18.43 14.7097L21.38 16.3497C21.62 16.4797 21.77 16.7297 21.77 17.0097V22.0097C21.77 22.2797 21.62 22.5297 21.38 22.6697C21.14 22.7997 20.85 22.7997 20.62 22.6497L16.98 20.3697L12.36 22.6797C12.23 22.7197 12.12 22.7497 12 22.7497ZM3.75 16.5597L12.02 21.1497L16.67 18.8297C16.9 18.7097 17.18 18.7297 17.4 18.8597L20.25 20.6397V17.4297L16.64 15.4197C16.41 15.2897 16.27 15.0597 16.26 14.7997C16.25 14.5397 16.37 14.2897 16.58 14.1497L20.26 11.5997V7.42968L12.01 2.8497L3.76001 7.42968V16.5597H3.75Z" />
<path d="M12 18.3097C11.87 18.3097 11.75 18.2797 11.64 18.2197L6.64001 15.4397C6.40001 15.3097 6.25 15.0597 6.25 14.7797V9.21969C6.25 8.94969 6.40001 8.69969 6.64001 8.55969L11.64 5.77969C11.87 5.64969 12.14 5.64969 12.37 5.77969L17.37 8.55969C17.61 8.68969 17.76 8.93969 17.76 9.21969V14.7797C17.76 15.0497 17.61 15.2997 17.37 15.4397L12.37 18.2197C12.25 18.2697 12.13 18.3097 12 18.3097ZM7.75 14.3397L12 16.6997L16.25 14.3397V9.66969L12 7.29969L7.75 9.65969V14.3397Z" />
<path d="M7.00002 9.97969C6.88002 9.97969 6.75004 9.9497 6.64004 9.8897L2.64004 7.6597C2.28004 7.4597 2.15 6.9997 2.35 6.6397C2.55 6.2797 3.00002 6.1497 3.37002 6.3497L7.37002 8.5797C7.73002 8.7797 7.85999 9.2397 7.65999 9.5997C7.50999 9.8397 7.26002 9.97969 7.00002 9.97969Z" />
<path d="M2.99998 17.7497C2.73998 17.7497 2.48 17.6097 2.34 17.3597C2.14 16.9997 2.26998 16.5397 2.62998 16.3397L6.62998 14.1097C6.99998 13.9097 7.45 14.0397 7.65 14.3997C7.85 14.7597 7.71996 15.2197 7.35996 15.4197L3.35996 17.6497C3.24996 17.7197 3.11998 17.7497 2.99998 17.7497Z" />
<path d="M17 9.97969C16.74 9.97969 16.48 9.83969 16.34 9.58969C16.14 9.22969 16.27 8.7697 16.63 8.5697L20.63 6.33969C21 6.13969 21.45 6.2697 21.65 6.6297C21.85 6.9897 21.72 7.44969 21.36 7.64969L17.36 9.8797C17.25 9.9497 17.13 9.97969 17 9.97969Z" />
<path d="M12 6.74969C11.59 6.74969 11.25 6.40969 11.25 5.99969V1.99969C11.25 1.58969 11.59 1.24969 12 1.24969C12.41 1.24969 12.75 1.58969 12.75 1.99969V5.99969C12.75 6.40969 12.41 6.74969 12 6.74969Z" />
<path d="M12 22.7497C11.59 22.7497 11.25 22.4097 11.25 21.9997V17.9997C11.25 17.5897 11.59 17.2497 12 17.2497C12.41 17.2497 12.75 17.5897 12.75 17.9997V21.9997C12.75 22.4097 12.41 22.7497 12 22.7497Z" />
<path d="M17.75 14.9997H16.25V19.9997H17.75V14.9997Z" />
</svg>
