<?xml version="1.0" encoding="UTF-8"?>
<svg width="24" height="24" viewBox="0 0 24 24" xmlns="http://www.w3.org/2000/svg">
 <path d="m12 22.75c-0.13 0-0.25-0.03-0.36-0.09l-9-5c-0.24-0.13-0.39001-0.38-0.39001-0.66v-10c0-0.27 0.15001-0.52 0.39001-0.66l9-5c0.23-0.13 0.5-0.13 0.73 0l9 5c0.24 0.13 0.39 0.38 0.39 0.66v5c0 0.25-0.12 0.48-0.32 0.62l-3.01 2.09 2.95 1.64c0.24 0.13 0.39 0.38 0.39 0.66v5c0 0.27-0.15 0.52-0.39 0.66-0.24 0.13-0.53 0.13-0.76-0.02l-3.64-2.28-4.62 2.31c-0.13 0.04-0.24 0.07-0.36 0.07zm-8.25-6.19 8.27 4.59 4.65-2.32c0.23-0.12 0.51-0.1 0.73 0.03l2.85 1.78v-3.21l-3.61-2.01c-0.23-0.13-0.37-0.36-0.38-0.62s0.11-0.51 0.32-0.65l3.68-2.55v-4.17l-8.25-4.58-8.25 4.58v9.13h-0.01001z"/>
 <path d="m12 18.309c-0.13 0-0.25-0.03-0.36-0.09l-5-2.78c-0.24-0.13-0.39001-0.38-0.39001-0.66v-5.56c0-0.27 0.15001-0.52 0.39001-0.66l5-2.78c0.23-0.13 0.5-0.13 0.73 0l5 2.78c0.24 0.13 0.39 0.38 0.39 0.66v5.56c0 0.27-0.15 0.52-0.39 0.66l-5 2.78c-0.12 0.05-0.24 0.09-0.37 0.09zm-4.25-3.97 4.25 2.36 4.25-2.36v-4.67l-4.25-2.37-4.25 2.36v4.68z"/>
 <path d="m6.9998 9.9798c-0.12 0-0.24999-0.02999-0.35999-0.08999l-4-2.23c-0.36-0.2-0.49004-0.66-0.29004-1.02s0.65002-0.49 1.02-0.29l4 2.23c0.36 0.2 0.48998 0.66 0.28998 1.02-0.15 0.24-0.39997 0.37999-0.65997 0.37999z"/>
 <path d="m3 17.75c-0.26 0-0.51998-0.14-0.65998-0.39-0.2-0.36-0.07002-0.82 0.28998-1.02l4-2.23c0.37-0.2 0.82002-0.07 1.02 0.29s0.06996 0.82-0.29004 1.02l-4 2.23c-0.11 0.07-0.23998 0.1-0.35998 0.1z"/>
 <path d="m17 9.98c-0.26 0-0.52-0.14-0.66-0.39-0.2-0.36-0.07-0.81998 0.29-1.02l4-2.23c0.37-0.2 0.82-0.06999 1.02 0.29001s0.07 0.81999-0.29 1.02l-4 2.23c-0.11 0.07-0.23 0.09999-0.36 0.09999z"/>
 <path d="m12 6.75c-0.41 0-0.75-0.34-0.75-0.75v-4c0-0.41 0.34-0.75 0.75-0.75s0.75 0.34 0.75 0.75v4c0 0.41-0.34 0.75-0.75 0.75z"/>
 <path d="m12 22.75c-0.41 0-0.75-0.34-0.75-0.75v-4c0-0.41 0.34-0.75 0.75-0.75s0.75 0.34 0.75 0.75v4c0 0.41-0.34 0.75-0.75 0.75z"/>
 <path d="m17.75 15h-1.5v5h1.5v-5z"/>
</svg>
