<?xml version="1.0" encoding="UTF-8"?>
<svg width="24" height="24" viewBox="0 0 24 24" xmlns="http://www.w3.org/2000/svg">
 <path d="m7.8 21.47h-3.22c-1.83 0-3.33-1.4899-3.33-3.3299v-5.8c0-0.41 0.34-0.75 0.75-0.75h5.8c1.9 0 3.33 1.4299 3.33 3.3299v3.2201c-0.01 1.9-1.44 3.3299-3.33 3.3299zm-5.05-8.37v5.0501c0 1.01 0.82002 1.8299 1.83 1.8299h3.22c1.06 0 1.83-0.7699 1.83-1.8299v-3.22c0-1.06-0.77001-1.8301-1.83-1.8301h-5.05z"/>
 <path d="m2 13.1c-0.41 0-0.75-0.34-0.75-0.75 0-6.25 1.27-7.5599 4.9-9.7099 0.36-0.21 0.81997-0.08999 1.03 0.26001 0.21 0.36 0.08999 0.81997-0.26001 1.03-3.24 1.92-4.17 2.72-4.17 8.4199 0 0.41-0.34 0.75-0.75 0.75z"/>
 <path d="m19.42 21.47h-3.22c-1.83 0-3.33-1.4899-3.33-3.3299v-5.8c0-0.41 0.34-0.75 0.75-0.75h5.8c1.9 0 3.33 1.4299 3.33 3.3299v3.2201c0 1.9-1.43 3.3299-3.33 3.3299zm-5.04-8.37v5.0501c0 1.01 0.82 1.8299 1.83 1.8299h3.22c1.06 0 1.83-0.7699 1.83-1.8299v-3.22c0-1.06-0.77-1.8301-1.83-1.8301h-5.05z"/>
 <path d="m13.63 13.1c-0.41 0-0.75-0.34-0.75-0.75 0-6.25 1.27-7.5599 4.9-9.7099 0.36-0.21 0.82-0.08999 1.03 0.26001 0.21 0.36 0.09 0.81997-0.26 1.03-3.24 1.92-4.17 2.72-4.17 8.4199 0 0.41-0.34 0.75-0.75 0.75z"/>
</svg>
