<?xml version="1.0" encoding="UTF-8"?>
<svg width="24" height="24" viewBox="0 0 24 24" xmlns="http://www.w3.org/2000/svg">
 <path d="m22 12.4h-5.8c-1.9 0-3.33-1.43-3.33-3.33v-3.22c0-1.9 1.43-3.33 3.33-3.33h3.22c1.83 0 3.33 1.49 3.33 3.33v5.8c0 0.42-0.34 0.75-0.75 0.75zm-5.8-8.37c-1.06 0-1.83 0.76996-1.83 1.83v3.22c0 1.06 0.77 1.83 1.83 1.83h5.05v-5.05c0-1.01-0.82-1.83-1.83-1.83h-3.22z"/>
 <path d="m17.47 21.47c-0.26 0-0.51-0.13-0.65-0.37-0.21-0.36-0.09-0.82 0.26-1.03 3.23-1.92 4.17-2.72 4.17-8.42 0-0.41 0.34-0.75 0.75-0.75s0.75 0.34 0.75 0.75c0 6.25-1.27 7.56-4.9 9.71-0.12 0.08-0.25 0.11-0.38 0.11z"/>
 <path d="m10.37 12.4h-5.8c-1.9 0-3.33-1.43-3.33-3.33v-3.22c0-1.9 1.43-3.33 3.33-3.33h3.23c1.83 0 3.33 1.49 3.33 3.33v5.8c-0.01 0.42-0.34 0.75-0.76 0.75zm-5.79-8.37c-1.06 0-1.83 0.76996-1.83 1.83v3.22c0 1.06 0.77 1.83 1.83 1.83h5.05v-5.05c0-1.01-0.81999-1.83-1.83-1.83h-3.22z"/>
 <path d="m5.8401 21.47c-0.26 0-0.51-0.13-0.65-0.37-0.21-0.36-0.09-0.82 0.26-1.03 3.23-1.92 4.17-2.72 4.17-8.42 0-0.41 0.34-0.75 0.74997-0.75 0.41 0 0.75 0.34 0.75 0.75 0 6.25-1.27 7.56-4.9 9.71-0.12 0.08-0.25 0.11-0.38 0.11z"/>
</svg>
