<?xml version="1.0" encoding="UTF-8"?>
<svg width="24" height="24" viewBox="0 0 24 24" xmlns="http://www.w3.org/2000/svg">
 <path d="m17 12.59h-2.68c-1.09 0-1.94-0.85-1.94-1.94v-1.49c0-1.09 0.85-1.94 1.94-1.94h1.49c1.07 0 1.94 0.87 1.94 1.94v2.67c0 0.42-0.34 0.76-0.75 0.76zm-2.68-3.87c-0.32 0-0.44 0.24-0.44 0.44v1.49c0 0.2 0.11 0.44 0.44 0.44h1.93v-1.92c0-0.24-0.2-0.44-0.44-0.44h-1.49v-0.01001z"/>
 <path d="m14.91 16.78c-0.26 0-0.51-0.1301-0.65-0.3701-0.21-0.36-0.09-0.8199 0.26-1.0299 1.36-0.81 1.73-1.02 1.73-3.54 0-0.41 0.34-0.75 0.75-0.75s0.75 0.34 0.75 0.75c0 3.08-0.67 3.7699-2.46 4.8299-0.12 0.07-0.25 0.1101-0.38 0.1101z"/>
 <path d="m10.86 12.59h-2.68c-1.09 0-1.94-0.85-1.94-1.94v-1.49c0-1.09 0.84999-1.94 1.94-1.94h1.49c1.07 0 1.94 0.87 1.94 1.94v2.67c0 0.42-0.33 0.76-0.75 0.76zm-2.67-3.87c-0.32 0-0.44 0.24-0.44 0.44v1.49c0 0.2 0.11 0.44 0.44 0.44h1.93v-1.92c0-0.24-0.19998-0.44-0.43998-0.44h-1.49v-0.01001z"/>
 <path d="m8.7698 16.78c-0.26 0-0.51001-0.1301-0.65001-0.3701-0.21-0.36-0.08999-0.8199 0.26001-1.0299 1.36-0.81 1.73-1.02 1.73-3.54 0-0.41 0.34-0.75 0.75-0.75s0.75 0.34 0.75 0.75c0 3.08-0.67 3.7699-2.46 4.8299-0.12 0.07-0.24999 0.1101-0.37999 0.1101z"/>
 <path d="m12 22.75c-5.93 0-10.75-4.82-10.75-10.75s4.82-10.75 10.75-10.75 10.75 4.82 10.75 10.75-4.82 10.75-10.75 10.75zm0-20c-5.1 0-9.25 4.15-9.25 9.25s4.15 9.25 9.25 9.25 9.25-4.15 9.25-9.25-4.15-9.25-9.25-9.25z"/>
</svg>
