<?xml version="1.0" encoding="UTF-8"?>
<svg width="24" height="24" viewBox="0 0 24 24" xmlns="http://www.w3.org/2000/svg">
 <path d="m9.68 16.78h-1.49c-1.07 0-1.94-0.87-1.94-1.94v-2.6701c0-0.41 0.34-0.75 0.75-0.75h2.68c1.09 0 1.94 0.85 1.94 1.94v1.49c-0.01 1.07-0.86 1.9301-1.94 1.9301zm-1.93-3.8701v1.9201c0 0.24 0.2 0.44 0.44 0.44h1.49c0.32 0 0.44001-0.24 0.44001-0.44v-1.49c0-0.2-0.11-0.44-0.44001-0.44h-1.93v0.0099z"/>
 <path d="m7 12.91c-0.41 0-0.75-0.34-0.75-0.75 0-3.08 0.67001-3.77 2.46-4.83 0.35-0.21 0.82-0.08999 1.03 0.26001s0.08999 0.81997-0.26001 1.03c-1.36 0.81-1.73 1.02-1.73 3.54 0 0.42-0.34 0.75-0.75 0.75z"/>
 <path d="m15.81 16.78h-1.49c-1.07 0-1.94-0.87-1.94-1.94v-2.6701c0-0.41 0.34-0.75 0.75-0.75h2.68c1.09 0 1.94 0.85 1.94 1.94v1.49c0 1.07-0.85 1.9301-1.94 1.9301zm-1.92-3.8701v1.9201c0 0.24 0.2 0.44 0.44 0.44h1.49c0.32 0 0.44-0.24 0.44-0.44v-1.49c0-0.2-0.11-0.44-0.44-0.44h-1.93v0.0099z"/>
 <path d="m13.14 12.91c-0.41 0-0.75-0.34-0.75-0.75 0-3.08 0.67-3.77 2.46-4.83 0.36-0.21 0.82-0.08999 1.03 0.26001 0.21 0.36 0.09 0.81997-0.26 1.03-1.36 0.81-1.73 1.02-1.73 3.54 0 0.42-0.34 0.75-0.75 0.75z"/>
 <path d="m12 22.75c-5.93 0-10.75-4.82-10.75-10.75s4.82-10.75 10.75-10.75 10.75 4.82 10.75 10.75-4.82 10.75-10.75 10.75zm0-20c-5.1 0-9.25 4.15-9.25 9.25s4.15 9.25 9.25 9.25 9.25-4.15 9.25-9.25-4.15-9.25-9.25-9.25z"/>
</svg>
