<?xml version="1.0" encoding="UTF-8"?>
<svg width="24" height="24" viewBox="0 0 24 24" xmlns="http://www.w3.org/2000/svg">
 <path d="m12 14.75c-1.52 0-2.75-1.23-2.75-2.75s1.23-2.75 2.75-2.75 2.75 1.23 2.75 2.75-1.23 2.75-2.75 2.75zm0-4c-0.69 0-1.25 0.56-1.25 1.25s0.56 1.25 1.25 1.25 1.25-0.56 1.25-1.25-0.56-1.25-1.25-1.25z"/>
 <path d="m20 18.75c-0.16 0-0.31-0.05-0.45-0.15-0.33-0.25-0.4-0.72-0.15-1.05 1.21-1.61 1.85-3.53 1.85-5.55 0-2.02-0.64-3.94-1.85-5.55-0.25-0.33-0.18-0.80001 0.15-1.05s0.8-0.18001 1.05 0.14999c1.41 1.87 2.15 4.1 2.15 6.45 0 2.35-0.74 4.58-2.15 6.45-0.15 0.2-0.37 0.3-0.6 0.3z"/>
 <path d="m4 18.75c-0.23 0-0.45001-0.1-0.60001-0.3-1.41-1.87-2.15-4.1-2.15-6.45 0-2.35 0.73999-4.58 2.15-6.45 0.25-0.33 0.72002-0.39999 1.05-0.14999s0.4 0.72001 0.15 1.05c-1.21 1.61-1.85 3.53-1.85 5.55 0 2.02 0.64001 3.94 1.85 5.55 0.25 0.33 0.18 0.8-0.15 1.05-0.13 0.1-0.29001 0.15-0.45001 0.15z"/>
 <path d="m16.8 16.35c-0.16 0-0.31-0.05-0.45-0.15-0.33-0.25-0.4-0.72-0.15-1.05 0.69-0.91 1.05-2 1.05-3.15s-0.36-2.24-1.05-3.15c-0.25-0.33-0.18-0.80001 0.15-1.05s0.8-0.17998 1.05 0.15002c0.88 1.18 1.35 2.58 1.35 4.05s-0.47 2.88-1.35 4.05c-0.15 0.2-0.37 0.3-0.6 0.3z"/>
 <path d="m7.2 16.35c-0.23 0-0.45-0.1-0.6-0.3-0.88-1.18-1.35-2.58-1.35-4.05s0.47001-2.88 1.35-4.05c0.25-0.33 0.71998-0.40002 1.05-0.15002s0.4 0.72001 0.15 1.05c-0.69 0.91-1.05 2-1.05 3.15s0.35999 2.24 1.05 3.15c0.25 0.33 0.18 0.8-0.15 1.05-0.13 0.1-0.28998 0.15-0.44998 0.15z"/>
</svg>
