<?xml version="1.0" encoding="UTF-8"?>
<svg width="24" height="24" viewBox="0 0 24 24" xmlns="http://www.w3.org/2000/svg">
 <path d="m12 22.75c-5.93 0-10.75-4.82-10.75-10.75 0-1.88 0.48999-3.7299 1.43-5.3599 0.21-0.36 0.66002-0.48003 1.02-0.28003l8.67 4.98c0.36 0.21 0.48 0.66 0.28 1.02-0.21 0.36-0.66 0.4801-1.02 0.2801l-8-4.5901c-0.58 1.23-0.88 2.57-0.88 3.94 0 5.1 4.15 9.25 9.25 9.25s9.25-4.15 9.25-9.25c0-5.1-4.15-9.25-9.25-9.25-2.02 0-3.94 0.64001-5.55 1.85-0.33 0.25-0.80002 0.18001-1.05-0.14999s-0.18-0.79999 0.15-1.05c1.87-1.4 4.1-2.15 6.45-2.15 5.93 0 10.75 4.82 10.75 10.75 0 5.93-4.82 10.76-10.75 10.76z"/>
</svg>
