<?xml version="1.0" encoding="UTF-8"?>
<svg width="24" height="24" viewBox="0 0 24 24" xmlns="http://www.w3.org/2000/svg">
 <path d="m12 22.75c-5.93 0-10.75-4.82-10.75-10.75 0-1.88 0.48999-3.7299 1.43-5.3599 0.21-0.36 0.66002-0.48003 1.02-0.28003l8.67 4.98c0.36 0.21 0.48 0.66 0.28 1.02-0.21 0.36-0.66 0.4801-1.02 0.2801l-8-4.5901c-0.58 1.23-0.88 2.57-0.88 3.94 0 5.1 4.15 9.25 9.25 9.25s9.25-4.15 9.25-9.25c0-5.1-4.15-9.25-9.25-9.25-2.02 0-3.94 0.64001-5.55 1.85-0.33 0.25-0.80002 0.18001-1.05-0.14999s-0.18-0.79999 0.15-1.05c1.87-1.4 4.1-2.15 6.45-2.15 5.93 0 10.75 4.82 10.75 10.75 0 5.93-4.82 10.76-10.75 10.76z"/>
 <path d="m12 18.75c-3.72 0-6.75-3.03-6.75-6.75 0-1.2 0.31999-2.39 0.92999-3.42 0.21-0.36 0.67-0.47999 1.03-0.26999s0.48002 0.67 0.27002 1.03c-0.47 0.8-0.72 1.72-0.72 2.66 0 2.9 2.36 5.25 5.25 5.25 2.89 0 5.25-2.35 5.25-5.25s-2.36-5.25-5.25-5.25c-0.78 0-1.53 0.17-2.24 0.5-0.38 0.17-0.82 0.01001-1-0.35999-0.18-0.38-0.01999-0.82 0.36001-1 0.9-0.42 1.87-0.64001 2.87-0.64001 3.72 0 6.75 3.03 6.75 6.75s-3.03 6.75-6.75 6.75z"/>
</svg>
