<svg width="24" height="24" viewBox="0 0 24 24"  xmlns="http://www.w3.org/2000/svg">
<path d="M15.5 22.75H8.5C4.79 22.75 2.75 20.71 2.75 17V7C2.75 3.29 4.79 1.25 8.5 1.25H15.5C19.15 1.25 21.25 3.35 21.25 7V8C21.25 8.96 20.46 9.75 19.5 9.75C19.36 9.75 19.25 9.86 19.25 10V12.17C19.25 12.5 19.38 12.82 19.62 13.05L20.45 13.88C20.97 14.4 21.26 15.09 21.26 15.82V17C21.25 20.65 19.15 22.75 15.5 22.75ZM8.5 2.75C5.64 2.75 4.25 4.14 4.25 7V17C4.25 19.86 5.64 21.25 8.5 21.25H15.5C18.32 21.25 19.75 19.82 19.75 17V15.83C19.75 15.5 19.62 15.18 19.38 14.95L18.55 14.12C18.03 13.6 17.74 12.91 17.74 12.18V10C17.74 9.04 18.53 8.25 19.49 8.25C19.63 8.25 19.74 8.14 19.74 8V7C19.74 4.18 18.31 2.75 15.49 2.75H8.5Z" />
<path d="M16.01 22.7202C15.6 22.7202 15.26 22.3902 15.26 21.9802L15.23 18.9902C15.23 18.3002 14.66 17.7502 13.98 17.7502H9.97998C9.64998 17.7502 9.32998 17.8802 9.08998 18.1202C8.85998 18.3502 8.72998 18.6702 8.72998 19.0002L8.73998 21.9702C8.73998 22.3802 8.40998 22.7202 7.98998 22.7202C7.57998 22.7202 7.23998 22.3902 7.23998 21.9702L7.22998 19.0002C7.22998 18.2602 7.50998 17.5702 8.02998 17.0502C8.54998 16.5302 9.23998 16.2402 9.97998 16.2402H13.99C15.5 16.2402 16.73 17.4702 16.74 18.9702L16.77 21.9502C16.77 22.3802 16.43 22.7202 16.01 22.7202C16.01 22.7202 16.02 22.7202 16.01 22.7202Z" />
<path d="M8.94016 5.6998H8.93016C8.51016 5.6898 8.18016 5.3498 8.19016 4.9298L8.24016 2.0398C8.25016 1.6298 8.58016 1.2998 8.99016 1.2998H9.00016C9.41016 1.3098 9.74016 1.6498 9.74016 2.0598L9.69016 4.9598C9.68016 5.3698 9.35016 5.6998 8.94016 5.6998Z" />
<path d="M11.9399 5.69957H11.9299C11.5199 5.68957 11.1899 5.34957 11.1899 4.93957L11.2399 2.04957C11.2499 1.63957 11.5799 1.30957 11.9899 1.30957H11.9999C12.4099 1.31957 12.7399 1.65957 12.7399 2.06957L12.6899 4.95957C12.6799 5.36957 12.3499 5.69957 11.9399 5.69957Z" />
<path d="M14.9399 5.67027H14.9299C14.5199 5.66027 14.1899 5.32027 14.1899 4.91027L14.2399 2.02027C14.2499 1.61027 14.5799 1.28027 14.9899 1.28027H14.9999C15.4099 1.29027 15.7399 1.63027 15.7399 2.04027L15.6899 4.93027C15.6799 5.34027 15.3499 5.67027 14.9399 5.67027Z" />
</svg>
