<?xml version="1.0" encoding="UTF-8"?>
<svg width="24" height="24" viewBox="0 0 24 24" xmlns="http://www.w3.org/2000/svg">
 <path d="m15.5 22.75h-7c-3.71 0-5.75-2.04-5.75-5.75v-10c0-3.71 2.04-5.75 5.75-5.75h7c3.65 0 5.75 2.1 5.75 5.75v1c0 0.96-0.79 1.75-1.75 1.75-0.14 0-0.25 0.11-0.25 0.25v2.17c0 0.33 0.13 0.65 0.37 0.88l0.83 0.83c0.52 0.52 0.81 1.21 0.81 1.94v1.18c-0.01 3.65-2.11 5.75-5.76 5.75zm-7-20c-2.86 0-4.25 1.39-4.25 4.25v10c0 2.86 1.39 4.25 4.25 4.25h7c2.82 0 4.25-1.43 4.25-4.25v-1.17c0-0.33-0.13-0.65-0.37-0.88l-0.83-0.83c-0.52-0.52-0.81-1.21-0.81-1.94v-2.18c0-0.96 0.79-1.75 1.75-1.75 0.14 0 0.25-0.11 0.25-0.25v-1c0-2.82-1.43-4.25-4.25-4.25h-6.99z"/>
 <path d="m16.01 22.72c-0.41 0-0.75-0.33-0.75-0.74l-0.03-2.99c0-0.69-0.57-1.24-1.25-1.24h-4c-0.33 0-0.65 0.13-0.89 0.37-0.23 0.23-0.36 0.55-0.36 0.88l0.01 2.97c0 0.41-0.33 0.75-0.75 0.75-0.41 0-0.75-0.33-0.75-0.75l-0.01-2.97c0-0.74 0.28-1.43 0.8-1.95s1.21-0.81 1.95-0.81h4.01c1.51 0 2.74 1.23 2.75 2.73l0.03 2.98c0 0.43-0.34 0.77-0.76 0.77 0 0 0.01 0 0 0z"/>
 <path d="m8.9402 5.6998h-0.01c-0.42-0.01-0.75-0.35-0.74-0.77l0.05-2.89c0.01-0.41 0.34-0.74 0.75-0.74h0.01c0.41 0.01 0.74 0.35 0.74 0.76l-0.05 2.9c-0.01 0.41-0.34 0.74-0.75 0.74z"/>
 <path d="m11.94 5.6996h-0.01c-0.41-0.01-0.74-0.35-0.74-0.76l0.05-2.89c0.01-0.41 0.34-0.74 0.75-0.74h0.01c0.41 0.01 0.74 0.35 0.74 0.76l-0.05 2.89c-0.01 0.41-0.34 0.74-0.75 0.74z"/>
 <path d="m14.94 5.6703h-0.01c-0.41-0.01-0.74-0.35-0.74-0.76l0.05-2.89c0.01-0.41 0.34-0.74 0.75-0.74h0.01c0.41 0.01 0.74 0.35 0.74 0.76l-0.05 2.89c-0.01 0.41-0.34 0.74-0.75 0.74z"/>
</svg>
