<?xml version="1.0" encoding="UTF-8"?>
<svg width="24" height="24" viewBox="0 0 24 24" xmlns="http://www.w3.org/2000/svg">
 <path d="m8.67 22.75h-6.67c-0.41 0-0.75-0.34-0.75-0.75v-6c0-1.52 1.23-2.75 2.75-2.75h4.67c0.41 0 0.75 0.34 0.75 0.75v8c0 0.41-0.34 0.75-0.75 0.75zm-5.92-1.5h5.17v-6.5h-3.92c-0.69 0-1.25 0.56-1.25 1.25v5.25z"/>
 <path d="m15.33 22.75h-6.67c-0.41 0-0.75-0.34-0.75-0.75v-10c0-1.52 1.23-2.75 2.75-2.75h2.67c1.52 0 2.75 1.23 2.75 2.75v10c0 0.41-0.33 0.75-0.75 0.75zm-5.91-1.5h5.17v-9.25c0-0.69-0.56-1.25-1.25-1.25h-2.67c-0.69005 0-1.25 0.56-1.25 1.25v9.25z"/>
 <path d="m22 22.75h-6.67c-0.41 0-0.75-0.34-0.75-0.75v-5c0-0.41 0.34-0.75 0.75-0.75h4.67c1.52 0 2.75 1.23 2.75 2.75v3c0 0.41-0.34 0.75-0.75 0.75zm-5.92-1.5h5.17v-2.25c0-0.69-0.56-1.25-1.25-1.25h-3.92v3.5z"/>
 <path d="m13.7 8.3502c-0.24 0-0.54-0.07002-0.88-0.27002l-0.82-0.48999-0.81 0.48001c-0.82 0.49-1.36 0.2-1.56 0.06s-0.63-0.58-0.42-1.5l0.19-0.83002-0.68-0.67999c-0.42-0.42-0.57-0.92001-0.42-1.38s0.56-0.78 1.14-0.88l0.87001-0.15 0.49-0.97998c0.54-1.07 1.85-1.07 2.38 0l0.49 0.97998 0.87 0.15c0.58 0.1 1 0.42 1.14 0.88 0.15 0.46-0.01 0.96001-0.42 1.38l-0.68 0.67999 0.19 0.83002c0.21 0.93-0.22 1.36-0.42 1.51-0.09 0.08-0.32 0.20999-0.65 0.20999zm-1.7-2.27c0.24 0 0.48 0.06002 0.68 0.18002l0.56 0.32999-0.12-0.54001c-0.1-0.42 0.05-0.92999 0.36-1.24l0.51-0.51001-0.63-0.10998c-0.4-0.07-0.79-0.36001-0.97-0.72001l-0.39-0.75-0.38 0.75c-0.18 0.36-0.57 0.65001-0.97 0.72001l-0.63 0.1 0.51 0.50998c0.31 0.31 0.45 0.82002 0.36 1.24l-0.12 0.53998 0.56-0.32999c0.19-0.12 0.43-0.17001 0.67-0.17001z"/>
</svg>
