<?xml version="1.0" encoding="UTF-8"?>
<svg width="24" height="24" viewBox="0 0 24 24" xmlns="http://www.w3.org/2000/svg">
 <path d="m16.24 22.67c-0.43 0-0.97-0.13-1.64-0.53l-2.24-1.33c-0.17-0.1-0.55-0.1-0.72 0l-2.24 1.33c-1.42 0.84-2.28 0.49-2.66 0.21s-0.97998-1-0.60998-2.6l0.53-2.31c0.04-0.18-0.06001-0.52-0.19001-0.66l-1.86-1.86c-1-1-0.92-1.87-0.78-2.31s0.58-1.19 1.97-1.43l2.39-0.4c0.17-0.03 0.44-0.23 0.51-0.38l1.32-2.64c0.65-1.29 1.51-1.49 1.97-1.49s1.32 0.18999 1.97 1.49l1.32 2.64c0.08 0.15 0.35 0.35 0.51 0.38l2.39 0.4c1.39 0.23 1.83 0.99 1.97 1.43s0.22 1.31-0.78 2.31l-1.86 1.86c-0.13 0.13-0.23 0.48-0.19 0.66l0.53 2.3c0.37 1.61-0.22 2.32-0.61 2.6-0.18 0.16-0.52 0.33-1 0.33zm-4.24-3.43c0.4 0 0.8 0.09 1.12 0.28l2.24 1.33c0.59 0.35 0.94 0.35 1.01 0.29 0.08-0.06 0.18-0.39 0.03-1.05l-0.53-2.3c-0.16-0.68 0.1-1.56 0.59-2.05l1.86-1.86c0.37-0.37 0.45-0.66 0.41-0.79s-0.27-0.32-0.79-0.4l-2.39-0.4c-0.64-0.11-1.32-0.61-1.61-1.19l-1.32-2.64c-0.23-0.45-0.48-0.66-0.63-0.66s-0.4 0.2-0.63 0.66l-1.32 2.64c-0.28996 0.58-0.96997 1.08-1.61 1.19l-2.39 0.4c-0.52 0.09-0.75001 0.27-0.79001 0.4s0.04001 0.42 0.41001 0.79l1.86 1.86c0.49 0.49 0.75 1.38 0.59 2.05l-0.53 2.31c-0.15 0.67-0.05 1 0.03 1.05 0.08 0.06 0.43001 0.06 1.01-0.29l2.24-1.33c0.34-0.19 0.74-0.29 1.14-0.29z"/>
 <path d="m6 9.75c-0.41 0-0.75-0.34-0.75-0.75v-7c0-0.41 0.34-0.75 0.75-0.75s0.75 0.34 0.75 0.75v7c0 0.41-0.34 0.75-0.75 0.75z"/>
 <path d="m18 9.75c-0.41 0-0.75-0.34-0.75-0.75v-7c0-0.41 0.34-0.75 0.75-0.75s0.75 0.34 0.75 0.75v7c0 0.41-0.34 0.75-0.75 0.75z"/>
 <path d="m12 4.75c-0.41 0-0.75-0.34-0.75-0.75v-2c0-0.41 0.34-0.75 0.75-0.75s0.75 0.34 0.75 0.75v2c0 0.41-0.34 0.75-0.75 0.75z"/>
</svg>
