<?xml version="1.0" encoding="UTF-8"?>
<svg width="24" height="24" viewBox="0 0 24 24" xmlns="http://www.w3.org/2000/svg">
 <path d="m12 22.75c-0.79 0-1.54-0.4-2.06-1.11l-1.01-1.35c-0.21-0.28-0.49-0.44-0.79-0.46s-0.6 0.12-0.84 0.37l-0.57-0.5 0.55 0.51c-1.45 1.54-2.55 1.42-3.08 1.21-0.54-0.21-1.45-0.9-1.45-3.12v-11.26c0-4.44 1.28-5.79 5.47-5.79h7.55c4.19 0 5.47 1.35 5.47 5.79v11.26c0 2.21-0.91 2.9-1.45 3.12-0.53 0.21-1.63 0.33-3.08-1.21-0.24-0.26-0.55-0.39-0.85-0.37s-0.59 0.18-0.8 0.46l-1.01 1.35c-0.51 0.7-1.26 1.1-2.05 1.1zm-3.92-4.42h0.13c0.74 0.04 1.44 0.43 1.91 1.06l1.02 1.35c0.49 0.65 1.24 0.65 1.73 0l1.01-1.35c0.47-0.63 1.17-1.02 1.92-1.06s1.48 0.27 2.02 0.85c0.76 0.81 1.25 0.91 1.43 0.84 0.24-0.1 0.5-0.68 0.5-1.72v-11.26c0-3.61-0.63-4.29-3.97-4.29h-7.56c-3.34 0-3.97 0.68-3.97 4.29v11.26c0 1.05 0.26 1.63 0.5 1.72 0.18 0.07 0.67-0.03 1.43-0.84 0.52-0.55 1.2-0.85 1.9-0.85z"/>
 <path d="m15 14c-0.56 0-1-0.45-1-1s0.45-1 1-1 1 0.45 1 1-0.44 1-1 1z"/>
 <path d="m9 9c-0.56 0-1-0.45-1-1s0.45-1 1-1 1 0.45 1 1-0.44 1-1 1z"/>
 <path d="m8.6298 14.55c-0.19 0-0.38-0.07-0.53-0.22-0.29-0.29-0.29-0.77 0-1.06l6.73-6.73c0.29-0.29 0.77-0.29 1.06 0s0.29 0.77 0 1.06l-6.73 6.73c-0.14 0.15-0.33 0.22-0.53 0.22z"/>
</svg>
