<?xml version="1.0" encoding="UTF-8"?>
<svg width="24" height="24" viewBox="0 0 24 24" xmlns="http://www.w3.org/2000/svg">
 <path d="m10.54 21.94c-0.23 0-0.45-0.1-0.59997-0.3l-1.01-1.35c-0.21-0.28-0.48997-0.44-0.78997-0.46-0.30001-0.02-0.60003 0.12-0.84003 0.37-1.45 1.55-2.55 1.42-3.08 1.22-0.54-0.21-1.45-0.9-1.45-3.12v-11.26c0-4.44 1.28-5.79 5.47-5.79h7.55c4.19 0 5.47 1.35 5.47 5.79v4.26c0 0.41-0.34 0.75-0.75 0.75s-0.75-0.34-0.75-0.75v-4.26c0-3.61-0.63-4.29-3.97-4.29h-7.55c-3.34 0-3.97 0.68001-3.97 4.29v11.26c0 1.05 0.26 1.63 0.5 1.72 0.18 0.07 0.67002-0.03 1.43-0.84 0.55-0.58 1.27-0.89 2.02-0.85 0.74 0.04 1.44 0.43 1.91 1.06l1.02 1.35c0.25 0.33 0.18 0.8-0.15 1.05-0.15 0.11-0.31 0.15-0.46 0.15z"/>
 <path d="m18.2 22.15c-2.18 0-3.95-1.77-3.95-3.95s1.77-3.95 3.95-3.95 3.95 1.77 3.95 3.95-1.77 3.95-3.95 3.95zm0-6.4c-1.35 0-2.45 1.1-2.45 2.45s1.1 2.45 2.45 2.45 2.45-1.1 2.45-2.45-1.1-2.45-2.45-2.45z"/>
 <path d="m22 22.75c-0.19 0-0.38-0.07-0.53-0.22l-1-1c-0.29-0.29-0.29-0.77 0-1.06s0.77-0.29 1.06 0l1 1c0.29 0.29 0.29 0.77 0 1.06-0.15 0.15-0.34 0.22-0.53 0.22z"/>
 <path d="m16 7.75h-8c-0.41 0-0.75-0.34-0.75-0.75s0.34-0.75 0.75-0.75h8c0.41 0 0.75 0.34 0.75 0.75s-0.34 0.75-0.75 0.75z"/>
 <path d="m15 11.75h-6c-0.41 0-0.75-0.34-0.75-0.75s0.34-0.75 0.75-0.75h6c0.41 0 0.75 0.34 0.75 0.75s-0.34 0.75-0.75 0.75z"/>
</svg>
