<svg width="24" height="24" viewBox="0 0 24 24"  xmlns="http://www.w3.org/2000/svg">
<path d="M4.99994 18.2499C4.80994 18.2499 4.61994 18.1799 4.46994 18.0299C4.17994 17.7399 4.17994 17.2599 4.46994 16.9699L18.4699 2.96994C18.7599 2.67994 19.2399 2.67994 19.5299 2.96994C19.8199 3.25994 19.8199 3.73994 19.5299 4.02994L5.52994 18.0299C5.37994 18.1799 5.18994 18.2499 4.99994 18.2499Z" />
<path d="M15.27 18.2499L4.99994 18.2499C4.58994 18.2499 4.25 17.9099 4.25 17.4999V7.22992C4.25 6.81992 4.59 6.47992 5 6.47992C5.41 6.47992 5.75 6.81992 5.75 7.22992V16.7499H15.27C15.68 16.7499 16.02 17.0899 16.02 17.4999C16.02 17.9099 15.68 18.2499 15.27 18.2499Z" />
<path d="M20.5 22.7499H3.5C3.09 22.7499 2.75 22.4099 2.75 21.9999C2.75 21.5899 3.09 21.2499 3.5 21.2499H20.5C20.91 21.2499 21.25 21.5899 21.25 21.9999C21.25 22.4099 20.91 22.7499 20.5 22.7499Z" />
</svg>
