<svg width="24" height="24" viewBox="0 0 24 24"  xmlns="http://www.w3.org/2000/svg">
<path opacity="0.4" d="M16.19 2H7.82C4.17 2 2 4.17 2 7.81V16.18C2 19.82 4.17 21.99 7.81 21.99H16.18C19.82 21.99 21.99 19.82 21.99 16.18V7.81C22 4.17 19.83 2 16.19 2Z" />
<path d="M11.4699 15.04C11.5399 15.11 11.6199 15.16 11.7099 15.2C11.7999 15.24 11.8999 15.26 11.9999 15.26C12.0999 15.26 12.1899 15.24 12.2899 15.2C12.3799 15.16 12.4599 15.11 12.5299 15.04L15.5299 12.04C15.8199 11.75 15.8199 11.27 15.5299 10.98C15.2399 10.69 14.7599 10.69 14.4699 10.98L12.7499 12.7V6.51001C12.7499 6.10001 12.4099 5.76001 11.9999 5.76001C11.5899 5.76001 11.2499 6.10001 11.2499 6.51001V12.7L9.52994 10.98C9.23994 10.69 8.75994 10.69 8.46994 10.98C8.17994 11.27 8.17994 11.75 8.46994 12.04L11.4699 15.04Z" />
<path d="M18.7099 16.28C18.5799 15.89 18.1599 15.68 17.7599 15.81C14.0399 17.05 9.94994 17.05 6.22994 15.81C5.83994 15.68 5.40994 15.89 5.27994 16.28C5.14994 16.67 5.35994 17.1 5.74994 17.23C7.75994 17.9 9.86993 18.24 11.9899 18.24C14.1099 18.24 16.2199 17.9 18.2299 17.23C18.6299 17.09 18.8399 16.67 18.7099 16.28Z" />
</svg>
