<?xml version="1.0" encoding="UTF-8"?>
<svg width="24" height="24" viewBox="0 0 24 24" xmlns="http://www.w3.org/2000/svg">
 <path d="m11.5 22.75c-0.79 0-1.54-0.41-2.06-1.11l-1.02-1.34c-0.21-0.28-0.48998-0.44-0.78998-0.46-0.29-0.02-0.59998 0.12-0.84998 0.37-0.86 0.92-1.7 1.36-2.49 1.34-0.54-0.02-1.01-0.26-1.37-0.7-0.04-0.05-0.07999-0.12-0.10999-0.19-0.39-0.84-0.57001-1.98-0.57001-3.69v-9.92c0-1.71 0.18001-2.84 0.57001-3.69 0.03-0.06 0.05999-0.12 0.10999-0.17 0.35-0.45 0.82004-0.69 1.36-0.72 0.8-0.03 1.65 0.43 2.49 1.33 0.25 0.27 0.54998 0.4 0.84998 0.38s0.57998-0.18 0.78998-0.46l1.02-1.35c0.52-0.7 1.27-1.11 2.06-1.11s1.54 0.41 2.06 1.11l1.01 1.34c0.21 0.29 0.5 0.45 0.81 0.47 0.29 0.02 0.6-0.12 0.85-0.38 0.82-0.88 1.63-1.33 2.41-1.33 0.56 0 1.0801 0.25 1.4401 0.72 0.04 0.05 0.0799 0.11 0.1099 0.18 0.39 0.84 0.57 1.98 0.57 3.69v9.92c0 1.71-0.18 2.84-0.57 3.69-0.04 0.09-0.0899 0.17-0.1599 0.24-0.31 0.4-0.8201 0.65-1.3901 0.65-0.78 0-1.59-0.45-2.41-1.33-0.24-0.26-0.57-0.4-0.85-0.38-0.31 0.02-0.59 0.18-0.81 0.47l-1.01 1.34c-0.51 0.68-1.26 1.09-2.05 1.09zm-3.9199-4.42h0.13001c0.74 0.04 1.43 0.43 1.9 1.06l1.02 1.35c0.49 0.66 1.23 0.66 1.72 0.01l1.01-1.34c0.48-0.64 1.1801-1.02 1.9201-1.06s1.4799 0.27 2.0199 0.85c0.74 0.79 1.19 0.85 1.31 0.85 0.08 0 0.1501-0.02 0.2201-0.08 0.28-0.63 0.3999-1.58 0.3999-3v-9.92c0-1.4-0.1299-2.35-0.3999-2.98-0.08-0.09-0.1601-0.1-0.2201-0.1-0.12 0-0.57 0.06-1.31 0.85-0.54 0.58-1.2799 0.89-2.0199 0.85-0.75-0.04-1.4501-0.43-1.9301-1.06l-1.0099-1.34c-0.49-0.66-1.2301-0.66-1.7201 0l-1.02 1.36c-0.47 0.63-1.16 1.01-1.9 1.05s-1.48-0.27-2.02-0.84c-0.61-0.66-1.08-0.88-1.34-0.87-0.06 0-0.13002 0.02-0.21002 0.1-0.27 0.63-0.40003 1.58-0.40003 2.98v9.92c0 1.41 0.13003 2.36 0.40003 2.99 0.09 0.08 0.15002 0.09 0.21002 0.1 0.25 0.01 0.71996-0.21 1.33-0.86 0.53-0.57 1.22-0.87 1.91-0.87z"/>
 <path d="m16 11h-8c-0.41 0-0.75-0.34-0.75-0.75s0.34-0.75 0.75-0.75h8c0.41 0 0.75 0.34 0.75 0.75s-0.34 0.75-0.75 0.75z"/>
 <path d="m14 14.5h-6c-0.41 0-0.75-0.34-0.75-0.75s0.34-0.75 0.75-0.75h6c0.41 0 0.75 0.34 0.75 0.75s-0.34 0.75-0.75 0.75z"/>
</svg>
