<?xml version="1.0" encoding="UTF-8"?>
<svg width="24" height="24" viewBox="0 0 24 24" xmlns="http://www.w3.org/2000/svg">
 <path d="m15 22.75h-6c-5.43 0-7.75-2.32-7.75-7.75v-6c0-5.43 2.32-7.75 7.75-7.75h6c5.43 0 7.75 2.32 7.75 7.75v6c0 5.43-2.32 7.75-7.75 7.75zm-6-20c-4.61 0-6.25 1.64-6.25 6.25v6c0 4.61 1.64 6.25 6.25 6.25h6c4.61 0 6.25-1.64 6.25-6.25v-6c0-4.61-1.64-6.25-6.25-6.25h-6z"/>
 <path d="m12 18.63c-0.56 0-1.09-0.28-1.46-0.77l-0.6-0.8001c-0.07-0.09-0.14999-0.1399-0.23999-0.1499-0.09 0-0.17 0.0399-0.25 0.1199l-0.55002-0.5099 0.55002 0.5099c-0.97 1.04-1.76 0.9401-2.15 0.7901-0.39-0.16-1.05-0.6401-1.05-2.1201v-6.6299c0-2.78 0.89-3.71 3.53-3.71h4.45c2.64 0 3.53 0.94001 3.53 3.71v6.6299c0 1.48-0.66 1.9701-1.05 2.1201-0.38 0.15-1.17 0.2499-2.15-0.7901-0.08-0.08-0.17-0.1199-0.26-0.1199s-0.17 0.0599-0.24 0.1499l-0.59 0.7901c-0.38 0.5-0.91 0.78-1.47 0.78zm-2.31-3.22h0.09c0.53 0.03 1.02 0.3 1.35 0.75l0.6 0.8c0.17 0.22 0.36 0.22 0.52 0l0.59-0.7901c0.33-0.45 0.83-0.72 1.36-0.75 0.52-0.04 1.05 0.1901 1.43 0.6001 0.28 0.3 0.46 0.3799 0.53 0.3999-0.01-0.05 0.08-0.2499 0.08-0.7099v-6.63c0-2.05-0.31-2.21-2.03-2.21h-4.45c-1.72 0-2.03 0.16-2.03 2.21v6.63c0 0.46 0.09 0.6599 0.12 0.7199 0.03-0.04 0.20998-0.12 0.47998-0.42 0-0.01 0.01002-0.0099 0.02002-0.0199 0.37-0.36 0.84999-0.58 1.34-0.58z"/>
</svg>
