<svg width="24" height="24" viewBox="0 0 24 24"  xmlns="http://www.w3.org/2000/svg">
<path d="M4.9999 18.2C4.7999 18.2 4.5999 18.1 4.4999 18C4.1999 17.7 4.1999 17.2 4.4999 16.9L18.4999 2.90005C18.7999 2.60005 19.2999 2.60005 19.5999 2.90005C19.8999 3.20005 19.8999 3.70005 19.5999 4.00005L5.5999 18C5.3999 18.2 5.1999 18.2 4.9999 18.2Z" />
<path d="M15.3 18.2001H4.99995C4.59995 18.2001 4.19995 17.9001 4.19995 17.4001V7.20015C4.19995 6.80015 4.49995 6.40015 4.99995 6.40015C5.49995 6.40015 5.79995 6.70015 5.79995 7.20015V16.7001H15.3C15.7 16.7001 16.1 17.0001 16.1 17.5001C16.1 18.0001 15.7 18.2001 15.3 18.2001Z" />
<path opacity="0.4" d="M20.5 22.7999H3.49995C3.09995 22.7999 2.69995 22.5 2.69995 22C2.69995 21.5 2.99995 21.2 3.49995 21.2H20.5C20.9 21.2 21.2999 21.5 21.2999 22C21.2999 22.5 20.9 22.7999 20.5 22.7999Z" />
</svg>
