<?xml version="1.0" encoding="UTF-8"?>
<svg width="24" height="24" viewBox="0 0 24 24" xmlns="http://www.w3.org/2000/svg">
 <path d="m19.42 11.75h-3.42c-0.41 0-0.75-0.34-0.75-0.75v-6.99c0-0.74 0.29-1.43 0.81-1.95s1.21-0.81 1.95-0.81h0.01c1.25 0.01 2.43 0.5 3.33 1.39 0.9 0.91 1.39 2.11 1.39 3.36v2.42c0.01 1.99-1.33 3.33-3.32 3.33zm-2.67-1.5h2.67c1.16 0 1.83-0.67 1.83-1.83v-2.42c0-0.86-0.34-1.68-0.95-2.3-0.61-0.6-1.43-0.94-2.28-0.95h-0.01c-0.33 0-0.65 0.13-0.89 0.37s-0.37 0.55-0.37 0.89v6.24z"/>
 <path d="m8.9998 23.33c-0.47 0-0.90999-0.18-1.24-0.52l-1.66-1.67c-0.09-0.09-0.23-0.1-0.33-0.02l-1.71 1.28c-0.53 0.4-1.23 0.47-1.83 0.17s-0.97-0.9-0.97-1.57v-15c0-3.02 1.73-4.75 4.75-4.75h12c0.41 0 0.75 0.34 0.75 0.75s-0.34 0.75-0.75 0.75c-0.69 0-1.25 0.56-1.25 1.25v17c0 0.67-0.37 1.27-0.97 1.57s-1.3 0.24-1.83-0.16l-1.71-1.28c-0.1-0.08-0.24-0.06-0.32 0.02l-1.68 1.68c-0.34004 0.32-0.78004 0.5-1.25 0.5zm-3.09-3.76c0.46 0 0.91 0.17 1.25 0.52l1.66 1.67c0.06 0.06 0.14 0.07 0.18 0.07-0.01-0.02 0.12-0.01 0.18-0.07l1.68-1.68c0.62-0.62 1.6-0.68 2.29-0.15l1.7 1.27c0.11 0.08 0.21 0.05 0.26 0.02s0.14-0.09 0.14-0.22v-17c0-0.45 0.11-0.88 0.3-1.25h-9.55c-2.22 0-3.25 1.03-3.25 3.25v15c0 0.14 0.09 0.2 0.14 0.23 0.06 0.03 0.16 0.05 0.26001-0.03l1.71-1.28c0.31-0.23 0.68001-0.35 1.05-0.35z"/>
 <path d="m11.75 10.75h-5.5c-0.41 0-0.75-0.34-0.75-0.75s0.34-0.75 0.75-0.75h5.5c0.41 0 0.75 0.34 0.75 0.75s-0.34 0.75-0.75 0.75z"/>
</svg>
