<?xml version="1.0" encoding="UTF-8"?>
<svg width="24" height="24" viewBox="0 0 24 24" xmlns="http://www.w3.org/2000/svg">
 <path d="m4.9999 18.25c-0.19 0-0.38-0.07-0.53-0.22-0.29-0.29-0.29-0.77 0-1.06l14-14c0.29-0.29 0.77-0.29 1.06 0s0.29 0.77 0 1.06l-14 14c-0.15 0.15-0.34 0.22-0.53 0.22z"/>
 <path d="m15.27 18.25h-10.27c-0.41 0-0.75-0.34-0.75-0.75v-10.27c0-0.41 0.34-0.75 0.75-0.75s0.75 0.34 0.75 0.75v9.52h9.52c0.41 0 0.75 0.34 0.75 0.75s-0.34 0.75-0.75 0.75z"/>
 <path d="m20.5 22.75h-17c-0.41 0-0.75-0.34-0.75-0.75s0.34-0.75 0.75-0.75h17c0.41 0 0.75 0.34 0.75 0.75s-0.34 0.75-0.75 0.75z"/>
</svg>
