<?xml version="1.0" encoding="UTF-8"?>
<svg width="24" height="24" viewBox="0 0 24 24" xmlns="http://www.w3.org/2000/svg">
 <path d="m10.54 21.94c-0.23 0-0.45-0.1-0.59997-0.3l-1.01-1.35c-0.21-0.28-0.48997-0.44-0.78997-0.46-0.31-0.02-0.60003 0.12-0.84003 0.37-1.45 1.55-2.55 1.42-3.08 1.22-0.54-0.21-1.45-0.9-1.45-3.12v-11.26c0-4.44 1.28-5.79 5.47-5.79h7.55c4.19 0 5.47 1.35 5.47 5.79v4.26c0 0.41-0.34 0.75-0.75 0.75s-0.75-0.34-0.75-0.75v-4.26c0-3.61-0.63-4.29-3.97-4.29h-7.55c-3.34 0-3.97 0.68001-3.97 4.29v11.26c0 1.05 0.26 1.63 0.5 1.72 0.18 0.07 0.67002-0.03 1.43-0.84 0.55-0.58 1.27-0.89 2.02-0.85 0.74 0.04 1.44 0.43 1.91 1.06l1.02 1.35c0.25 0.33 0.18 0.8-0.15 1.05-0.15 0.11-0.31 0.15-0.46 0.15z"/>
 <path d="m16 7.75h-8c-0.41 0-0.75-0.34-0.75-0.75s0.34-0.75 0.75-0.75h8c0.41 0 0.75 0.34 0.75 0.75s-0.34 0.75-0.75 0.75z"/>
 <path d="m15 11.75h-6c-0.41 0-0.75-0.34-0.75-0.75s0.34-0.75 0.75-0.75h6c0.41 0 0.75 0.34 0.75 0.75s-0.34 0.75-0.75 0.75z"/>
 <path d="m14.82 21.78c-0.38 0-0.74-0.14-1-0.4-0.31-0.31-0.45-0.76-0.38-1.23l0.19-1.35c0.05-0.35 0.26-0.77 0.51-1.02l3.5399-3.54c0.48-0.48 0.9501-0.73 1.4601-0.78 0.62-0.06 1.2399 0.2 1.8199 0.78s0.84 1.19 0.78 1.82c-0.05 0.5-0.31 0.98-0.78 1.46l-3.5399 3.54c-0.25 0.25-0.6701 0.46-1.0201 0.51l-1.35 0.19c-0.08 0.01-0.1499 0.02-0.2299 0.02zm4.4899-6.83h-0.03c-0.14 0.01-0.33 0.14-0.54 0.35l-3.5399 3.54c-0.03 0.03-0.0801 0.13-0.0801 0.17l-0.1799 1.25 1.25-0.18c0.04-0.01 0.1399-0.06 0.1699-0.09l3.54-3.54c0.21-0.22 0.34-0.4 0.3501-0.54 0.02-0.2-0.1801-0.44-0.3501-0.61-0.16-0.16-0.39-0.35-0.59-0.35z"/>
 <path d="m19.92 18.25c-0.07 0-0.14-0.01-0.2-0.03-1.32-0.37-2.37-1.42-2.74-2.74-0.11-0.4 0.12-0.81 0.52-0.93 0.4-0.11 0.81 0.12 0.92 0.52 0.23 0.82 0.88 1.47 1.7 1.7 0.4 0.11 0.63 0.53 0.52 0.93-0.09 0.33-0.39 0.55-0.72 0.55z"/>
</svg>
