<?xml version="1.0" encoding="UTF-8"?>
<svg width="24" height="24" viewBox="0 0 24 24" xmlns="http://www.w3.org/2000/svg">
 <path d="m11.97 22.75c-5.92 0-10.75-4.82-10.75-10.75s4.83-10.75 10.75-10.75c5.92 0 10.75 4.82 10.75 10.75s-4.82 10.75-10.75 10.75zm0-20c-5.1 0-9.25 4.15-9.25 9.25s4.15 9.25 9.25 9.25c5.1 0 9.25-4.15 9.25-9.25s-4.15-9.25-9.25-9.25z"/>
 <path d="m12 16.98c-2.75 0-4.98-2.23-4.98-4.98 0-2.75 2.23-4.98 4.98-4.98 2.75 0 4.98 2.23 4.98 4.98 0 2.75-2.23 4.98-4.98 4.98zm0-8.46c-1.92 0-3.48 1.56-3.48 3.48s1.56 3.48 3.48 3.48 3.48-1.56 3.48-3.48-1.56-3.48-3.48-3.48z"/>
</svg>
