<?xml version="1.0" encoding="UTF-8"?>
<svg width="24" height="24" viewBox="0 0 24 24" xmlns="http://www.w3.org/2000/svg">
 <path d="m11.42 19.25h-2.73c-2.69 0-3.94-1.25-3.94-3.94v-2.73c0-2.68 1.25-3.93 3.94-3.93h2.73c2.68 0 3.94 1.25 3.94 3.94v2.73c-0.01 2.68-1.26 3.93-3.94 3.93zm-2.73-9.1c-1.87 0-2.44 0.57-2.44 2.44v2.73c0 1.87 0.57 2.44 2.44 2.44h2.73c1.87 0 2.44-0.57 2.44-2.44v-2.73c0-1.87-0.57-2.44-2.44-2.44h-2.73z"/>
 <path d="m15.31 15.35h-0.71c-0.41 0-0.75-0.34-0.75-0.75v-2.02c0-1.87-0.57-2.44-2.44-2.44h-2.01c-0.41 0-0.75-0.34-0.75-0.75v-0.7c0-2.68 1.25-3.94 3.94-3.94h2.73c2.68 0 3.94 1.25 3.94 3.94v2.73c-0.01 2.68-1.26 3.93-3.95 3.93zm-5.16-6.7h1.27c2.68 0 3.94 1.25 3.94 3.94v1.27c1.84-0.01 2.4-0.58 2.4-2.44v-2.73c0-1.87-0.57-2.44-2.44-2.44h-2.73c-1.86 0-2.43 0.56-2.44 2.4z"/>
 <path d="m15 22.75c-0.27 0-0.52-0.15-0.65-0.38-0.13-0.24-0.13-0.52 0.01-0.76l1.05-1.75c0.21-0.36 0.67-0.47 1.03-0.26s0.47 0.67 0.26 1.03l-0.27 0.45c2.76-0.65 4.83-3.13 4.83-6.09 0-0.41 0.34-0.75 0.75-0.75s0.75 0.34 0.75 0.75c-0.01 4.28-3.49 7.76-7.76 7.76z"/>
 <path d="M2 9.75C1.59 9.75 1.25 9.41 1.25 9C1.25 4.73 4.73 1.25 9 1.25C9.27 1.25 9.52 1.4 9.65 1.63C9.78 1.87 9.78 2.15 9.64 2.39L8.59 4.14C8.38 4.49 7.92 4.61 7.56 4.39C7.21 4.18 7.09 3.72 7.31 3.36L7.58 2.91C4.81 3.56 2.75 6.04 2.75 9C2.75 9.41 2.41 9.75 2 9.75Z"/>
</svg>
