<svg width="24" height="24" viewBox="0 0 24 24"  xmlns="http://www.w3.org/2000/svg">
<path d="M22 12.0861C22 10.8735 21.0158 9.88928 19.8032 9.88928C19.2056 9.88928 18.6784 10.1178 18.2917 10.5044C16.7979 9.43234 14.7241 8.72935 12.4394 8.64148L13.4411 3.94903L16.6924 4.63445C16.7276 5.46046 17.413 6.1283 18.2566 6.1283C19.1177 6.1283 19.8207 5.42531 19.8207 4.56415C19.8207 3.70299 19.1177 3 18.2566 3C17.6415 3 17.1142 3.35149 16.8682 3.87873L13.2302 3.10545C13.1248 3.08787 13.0193 3.10545 12.9315 3.15817C12.8436 3.2109 12.7909 3.29877 12.7557 3.40422L11.6485 8.64148C9.31107 8.71178 7.21968 9.39719 5.70826 10.5044C5.32162 10.1353 4.7768 9.88928 4.19684 9.88928C2.98418 9.88928 2 10.8735 2 12.0861C2 12.9824 2.52724 13.7381 3.30053 14.0896C3.26538 14.3005 3.2478 14.529 3.2478 14.7575C3.2478 18.1318 7.16696 20.8559 12.0176 20.8559C16.8682 20.8559 20.7873 18.1318 20.7873 14.7575C20.7873 14.529 20.7698 14.3181 20.7346 14.1072C21.4552 13.7557 22 12.9824 22 12.0861ZM6.97364 13.6503C6.97364 12.7891 7.67663 12.0861 8.53779 12.0861C9.39895 12.0861 10.1019 12.7891 10.1019 13.6503C10.1019 14.5114 9.39895 15.2144 8.53779 15.2144C7.67663 15.2144 6.97364 14.5114 6.97364 13.6503ZM15.7083 17.7803C14.6362 18.8524 12.5975 18.9227 12 18.9227C11.4025 18.9227 9.34622 18.8348 8.29174 17.7803C8.13357 17.6221 8.13357 17.3585 8.29174 17.2004C8.44991 17.0422 8.71353 17.0422 8.8717 17.2004C9.53954 17.8682 10.9807 18.1142 12.0176 18.1142C13.0545 18.1142 14.478 17.8682 15.1634 17.2004C15.3216 17.0422 15.5852 17.0422 15.7434 17.2004C15.8664 17.3761 15.8664 17.6221 15.7083 17.7803ZM15.4271 15.2144C14.5659 15.2144 13.8629 14.5114 13.8629 13.6503C13.8629 12.7891 14.5659 12.0861 15.4271 12.0861C16.2882 12.0861 16.9912 12.7891 16.9912 13.6503C16.9912 14.5114 16.2882 15.2144 15.4271 15.2144Z" />
</svg>
