<svg width="24" height="24" viewBox="0 0 24 24"  xmlns="http://www.w3.org/2000/svg">
<path d="M16.8701 19.0599H8.87012C5.70012 19.0599 3.12012 16.4799 3.12012 13.3099C3.12012 10.1399 5.70012 7.55988 8.87012 7.55988H19.8701C20.2801 7.55988 20.6201 7.89988 20.6201 8.30988C20.6201 8.71988 20.2801 9.05988 19.8701 9.05988H8.87012C6.53012 9.05988 4.62012 10.9699 4.62012 13.3099C4.62012 15.6499 6.53012 17.5599 8.87012 17.5599H16.8701C17.2801 17.5599 17.6201 17.8999 17.6201 18.3099C17.6201 18.7199 17.2901 19.0599 16.8701 19.0599Z" />
<path d="M17.5701 11.5599C17.3801 11.5599 17.1901 11.4899 17.0401 11.3399C16.7501 11.0499 16.7501 10.5699 17.0401 10.2799L19.0701 8.24988L17.0401 6.21988C16.7501 5.92988 16.7501 5.44988 17.0401 5.15988C17.3301 4.86988 17.8101 4.86988 18.1001 5.15988L20.6601 7.71988C20.9501 8.00988 20.9501 8.48988 20.6601 8.77988L18.1001 11.3399C17.9501 11.4899 17.7601 11.5599 17.5701 11.5599Z" />
</svg>
