<?xml version="1.0" encoding="UTF-8"?>
<svg width="24" height="24" viewBox="0 0 24 24" xmlns="http://www.w3.org/2000/svg">
 <path d="m16.87 19.06h-8c-3.17 0-5.75-2.58-5.75-5.75s2.58-5.75 5.75-5.75h11c0.41 0 0.75 0.34 0.75 0.75s-0.34 0.75-0.75 0.75h-11c-2.34 0-4.25 1.91-4.25 4.25s1.91 4.25 4.25 4.25h8c0.41 0 0.75 0.34 0.75 0.75s-0.33 0.75-0.75 0.75z"/>
 <path d="m17.57 11.56c-0.19 0-0.38-0.07-0.53-0.22-0.29-0.29-0.29-0.77 0-1.06l2.03-2.03-2.03-2.03c-0.29-0.29-0.29-0.77 0-1.06s0.77-0.29 1.06 0l2.56 2.56c0.29 0.29 0.29 0.77 0 1.06l-2.56 2.56c-0.15 0.15-0.34 0.22-0.53 0.22z"/>
</svg>
