<?xml version="1.0" encoding="UTF-8"?>
<svg width="24" height="24" viewBox="0 0 24 24" xmlns="http://www.w3.org/2000/svg">
 <path d="m15 22.75h-6c-5.43 0-7.75-2.32-7.75-7.75v-6c0-5.43 2.32-7.75 7.75-7.75h6c5.43 0 7.75 2.32 7.75 7.75v6c0 5.43-2.32 7.75-7.75 7.75zm-6-20c-4.61 0-6.25 1.64-6.25 6.25v6c0 4.61 1.64 6.25 6.25 6.25h6c4.61 0 6.25-1.64 6.25-6.25v-6c0-4.61-1.64-6.25-6.25-6.25h-6z"/>
 <path d="m12 18.01c-3.17 0-5.75-2.58-5.75-5.75 0-3.17 2.58-5.75 5.75-5.75 0.64 0 1.28 0.09 1.89 0.28 0.4 0.12 0.62 0.54 0.5 0.94s-0.54 0.62-0.94 0.5c-0.46-0.14-0.95-0.21001-1.45-0.21001-2.34 0-4.25 1.91-4.25 4.25s1.91 4.25 4.25 4.25 4.25-1.91 4.25-4.25c0-0.85-0.25-1.66-0.71-2.36-0.23-0.34-0.14-0.81 0.21-1.04 0.34-0.23 0.81-0.14 1.04 0.21 0.63 0.94999 0.97 2.05 0.97 3.19-0.01 3.17-2.59 5.74-5.76 5.74z"/>
 <path d="m14.38 8.4c-0.21 0-0.42-0.09-0.57-0.26l-1.67-1.91c-0.27-0.31-0.24-0.79001 0.07-1.06s0.79-0.24 1.06 0.07l1.67 1.91c0.27 0.31 0.24 0.79-0.07 1.06-0.14 0.13-0.31 0.19-0.49 0.19z"/>
 <path d="m12.44 9.8199c-0.23 0-0.46-0.11-0.61-0.31-0.24-0.33-0.17-0.8 0.16-1.05l1.94-1.42c0.33-0.24 0.8-0.17 1.05 0.16 0.24 0.33 0.17 0.8-0.16 1.05l-1.94 1.42c-0.13 0.1-0.29 0.15-0.44 0.15z"/>
</svg>
