<?xml version="1.0" encoding="UTF-8"?>
<svg width="24" height="24" viewBox="0 0 24 24" xmlns="http://www.w3.org/2000/svg">
 <path d="m12 18.01c-3.17 0-5.75-2.58-5.75-5.75 0-1.14 0.33-2.25 0.97-3.19 0.23-0.34 0.69999-0.44 1.04-0.21s0.44001 0.7 0.21001 1.04c-0.47 0.7-0.71001 1.52-0.71001 2.36 0 2.34 1.91 4.25 4.25 4.25 2.34 0 4.25-1.91 4.25-4.25s-1.91-4.25-4.25-4.25c-0.5 0-0.98 0.07-1.45 0.21-0.39 0.12-0.81-0.1-0.94-0.5-0.12-0.4 0.1-0.82 0.5-0.94 0.61-0.19 1.24-0.28 1.89-0.28 3.17 0 5.75 2.58 5.75 5.75s-2.59 5.76-5.76 5.76z"/>
 <path d="m9.6201 8.3999c-0.17 0-0.34999-0.06-0.48999-0.18-0.31-0.27-0.34001-0.75-0.07001-1.06l1.67-1.91c0.27-0.31 0.75-0.35 1.06-0.07 0.31 0.27 0.34 0.74999 0.07 1.06l-1.67 1.91c-0.16 0.16-0.36001 0.25-0.57001 0.25z"/>
 <path d="m11.56 9.82c-0.15 0-0.31-0.05-0.44-0.14l-1.94-1.42c-0.33-0.24-0.40999-0.71-0.15999-1.05 0.24-0.33 0.71001-0.40999 1.05-0.15999l1.94 1.42c0.33 0.24 0.41 0.71 0.16 1.05-0.15 0.19-0.38 0.3-0.61 0.3z"/>
 <path d="m15 22.75h-6c-5.43 0-7.75-2.32-7.75-7.75v-6c0-5.43 2.32-7.75 7.75-7.75h6c5.43 0 7.75 2.32 7.75 7.75v6c0 5.43-2.32 7.75-7.75 7.75zm-6-20c-4.61 0-6.25 1.64-6.25 6.25v6c0 4.61 1.64 6.25 6.25 6.25h6c4.61 0 6.25-1.64 6.25-6.25v-6c0-4.61-1.64-6.25-6.25-6.25h-6z"/>
</svg>
