<?xml version="1.0" encoding="UTF-8"?>
<svg width="24" height="24" viewBox="0 0 24 24" xmlns="http://www.w3.org/2000/svg">
 <path d="m12 22.75c-5.93 0-10.75-4.82-10.75-10.75s4.82-10.75 10.75-10.75 10.75 4.82 10.75 10.75-4.82 10.75-10.75 10.75zm0-20c-5.1 0-9.25 4.15-9.25 9.25s4.15 9.25 9.25 9.25 9.25-4.15 9.25-9.25-4.15-9.25-9.25-9.25z"/>
 <path d="m12 17.47c-1.4 0-2.8-0.53-3.87-1.6-0.28-0.28-0.53001-0.59-0.76001-0.96-0.22-0.35-0.11001-0.81 0.23999-1.03s0.81003-0.11 1.03 0.24c0.17 0.28 0.34999 0.5 0.54999 0.7 1.55 1.55 4.07 1.55 5.62 0 0.6-0.6 0.9801-1.38 1.1101-2.25 0.06-0.41 0.4399-0.71 0.8499-0.64 0.41 0.06 0.69 0.44 0.64 0.85-0.17 1.19-0.7 2.26-1.53 3.1-1.08 1.06-2.48 1.59-3.88 1.59z"/>
 <path d="m7.3399 12.08c-0.04 0-0.06999 0-0.10999-0.01-0.41-0.06-0.70001-0.4401-0.64001-0.8501 0.17-1.19 0.7-2.2599 1.53-3.0999 2.13-2.13 5.6-2.13 7.74 0 0.28 0.28 0.53 0.59003 0.76 0.97003 0.22 0.35 0.11 0.80997-0.24 1.03-0.35 0.22-0.81 0.11-1.03-0.24003-0.17-0.27-0.35-0.50001-0.55-0.70001-1.55-1.55-4.07-1.55-5.62 0-0.6 0.6-0.97998 1.38-1.11 2.25-0.04 0.38-0.36001 0.65-0.73001 0.65z"/>
 <path d="m7.8203 17.93c-0.41 0-0.75-0.34-0.75-0.75v-2.6699c0-0.41 0.34-0.75 0.75-0.75h2.67c0.41 0 0.75 0.34 0.75 0.75s-0.34 0.75-0.75 0.75h-1.92v1.9199c0 0.41-0.33 0.75-0.75 0.75z"/>
 <path d="m16.18 10.24h-2.6699c-0.41 0-0.75-0.34-0.75-0.75s0.34-0.75 0.75-0.75h1.9199v-1.92c0-0.41 0.34-0.75 0.75-0.75s0.75 0.34 0.75 0.75v2.67c0 0.42-0.34 0.75-0.75 0.75z"/>
</svg>
