<svg width="24" height="24" viewBox="0 0 24 24"  xmlns="http://www.w3.org/2000/svg">
<path opacity="0.4" d="M12 22C17.5228 22 22 17.5228 22 12C22 6.47715 17.5228 2 12 2C6.47715 2 2 6.47715 2 12C2 17.5228 6.47715 22 12 22Z" />
<path d="M16.7601 11.9301C16.3401 11.8601 15.9701 12.1601 15.9101 12.5701C15.7901 13.4401 15.4 14.2201 14.8 14.8201C13.42 16.2001 11.2801 16.3401 9.73007 15.2701H10.4801C10.8901 15.2701 11.2301 14.9301 11.2301 14.5201C11.2301 14.1101 10.8901 13.7701 10.4801 13.7701H7.81006C7.40006 13.7701 7.06006 14.1101 7.06006 14.5201V17.1901C7.06006 17.6001 7.40006 17.9401 7.81006 17.9401C8.22006 17.9401 8.56006 17.6001 8.56006 17.1901V16.2501C9.56006 17.0601 10.7701 17.4901 11.9901 17.4901C13.3901 17.4901 14.79 16.9601 15.86 15.8901C16.69 15.0601 17.2201 13.9901 17.3901 12.7901C17.4601 12.3601 17.1701 11.9801 16.7601 11.9301Z" />
<path d="M7.33993 12.0801C7.70993 12.0801 8.02992 11.8101 8.07992 11.4401C8.19992 10.5701 8.58993 9.79006 9.18993 9.19006C10.5699 7.81006 12.7099 7.67005 14.2599 8.74005H13.5099C13.0999 8.74005 12.7599 9.08005 12.7599 9.49005C12.7599 9.90005 13.0999 10.2401 13.5099 10.2401H16.1799C16.5899 10.2401 16.9299 9.90005 16.9299 9.49005V6.82007C16.9299 6.41007 16.5899 6.07007 16.1799 6.07007C15.7699 6.07007 15.4299 6.41007 15.4299 6.82007V7.76007C13.2799 6.02007 10.1299 6.13006 8.13995 8.12006C7.30995 8.95006 6.77992 10.02 6.60992 11.22C6.54992 11.63 6.83993 12.0101 7.24993 12.0701C7.26993 12.0801 7.30993 12.0801 7.33993 12.0801Z" />
</svg>
