<svg width="24" height="24" viewBox="0 0 24 24"  xmlns="http://www.w3.org/2000/svg">
<path opacity="0.4" d="M16.19 2H7.82001C4.17001 2 2 4.17 2 7.81V16.18C2 19.82 4.17 21.99 7.81 21.99H16.18C19.82 21.99 21.99 19.82 21.99 16.18V7.81C22 4.17 19.83 2 16.19 2Z" />
<path d="M12 6.50995C11.86 6.50995 11.71 6.52994 11.57 6.53994L11.85 6.21994C12.12 5.90994 12.09 5.42994 11.78 5.15994C11.47 4.88994 10.99 4.91994 10.72 5.22994L9.04999 7.13994C9.03999 7.14994 9.03998 7.15995 9.02998 7.16995C9.01998 7.17995 9.00998 7.17994 9.00998 7.18994C8.98998 7.21994 8.97999 7.25995 8.95999 7.29995C8.93999 7.34995 8.90998 7.38994 8.89998 7.43994C8.88998 7.48994 8.88999 7.52994 8.87999 7.57994C8.87999 7.62994 8.86998 7.66994 8.86998 7.71994C8.86998 7.76994 8.88999 7.80995 8.90999 7.85995C8.91999 7.90995 8.93999 7.94994 8.95999 7.98994C8.97999 8.02994 9.01999 8.06994 9.04999 8.10994C9.07999 8.13994 9.08998 8.17994 9.11998 8.19994C9.12998 8.20994 9.13998 8.20995 9.14998 8.21995C9.15998 8.22995 9.15998 8.23994 9.16998 8.23994L11.11 9.65995C11.24 9.75995 11.4 9.79995 11.55 9.79995C11.78 9.79995 12.01 9.68994 12.16 9.48994C12.4 9.15994 12.33 8.68994 12 8.43994L11.44 8.02994C11.62 8.00994 11.81 7.98994 12 7.98994C14.34 7.98994 16.25 9.89995 16.25 12.2399C16.25 14.5799 14.34 16.4899 12 16.4899C9.65998 16.4899 7.74998 14.5799 7.74998 12.2399C7.74998 11.3899 7.99999 10.5799 8.45999 9.87995C8.68999 9.53995 8.59998 9.06995 8.24998 8.83995C7.90998 8.60995 7.43999 8.69995 7.20999 9.04995C6.57999 9.99995 6.23999 11.0999 6.23999 12.2399C6.23999 15.4099 8.81999 17.9899 11.99 17.9899C15.16 17.9899 17.74 15.4099 17.74 12.2399C17.74 9.06994 15.17 6.50995 12 6.50995Z" />
</svg>
