<?xml version="1.0" encoding="UTF-8"?>
<svg width="24" height="24" viewBox="0 0 24 24" xmlns="http://www.w3.org/2000/svg">
 <path d="m22.75 12c0-0.4142-0.3358-0.75-0.75-0.75s-0.75 0.3358-0.75 0.75h1.5zm-19.64 4.44v-0.75c-0.41421 0-0.75 0.3358-0.75 0.75h0.75zm-1.86-4.44c0 0.4142 0.33579 0.75 0.75 0.75s0.75-0.3358 0.75-0.75h-1.5zm20.75-4.44v0.75c0.4142 0 0.75-0.33579 0.75-0.75h-0.75zm0.75-5c0-0.41421-0.3358-0.75-0.75-0.75s-0.75 0.33579-0.75 0.75h1.5zm-5.19 4.25c-0.4142 0-0.75 0.33579-0.75 0.75s0.3358 0.75 0.75 0.75v-1.5zm-9.93 10.38c0.41421 0 0.75-0.3358 0.75-0.75s-0.33579-0.75-0.75-0.75v1.5zm-5.27 4.25c0 0.4142 0.33579 0.75 0.75 0.75s0.75-0.3358 0.75-0.75h-1.5zm18.89-9.44c0 5.1058-4.1442 9.25-9.25 9.25v1.5c5.9342 0 10.75-4.8158 10.75-10.75h-1.5zm-9.25 9.25c-2.4995 0-4.5495-1.2598-6.0111-2.5855-0.72602-0.6585-1.2902-1.3187-1.6723-1.8139-0.19061-0.2471-0.33475-0.4515-0.42996-0.5922-0.04758-0.0702-0.08285-0.1244-0.10552-0.1599-0.01132-0.0177-0.01949-0.0307-0.02447-0.0387-0.00248-4e-3 -0.00417-0.0068-0.00505-0.0082-4.4e-4 -7e-4 -6.8e-4 -0.0011-7.1e-4 -0.0012-2e-5 0 1e-5 1e-4 9e-5 2e-4 4e-5 1e-4 1.4e-4 2e-4 1.7e-4 3e-4 1.1e-4 1e-4 2.3e-4 3e-4 -0.64115 0.3891s-0.64123 0.389-0.64107 0.3893c7e-5 1e-4 2.5e-4 4e-4 3.9e-4 6e-4 2.9e-4 5e-4 6.3e-4 0.0011 0.00103 0.0017 7.8e-4 0.0013 0.00177 0.0029 0.00297 0.0049 0.0024 0.0039 0.00564 0.0091 0.0097 0.0156 0.00811 0.0131 0.01954 0.0313 0.03424 0.0543 0.0294 0.046 0.07192 0.1112 0.12727 0.193 0.11065 0.1634 0.27292 0.3933 0.48449 0.6675 0.42231 0.5473 1.0456 1.2771 1.8521 2.0086 1.6034 1.4543 3.9984 2.9745 7.0189 2.9745v-1.5zm-9.25-9.25c0-5.1077 4.1062-9.25 9.25-9.25v-1.5c-5.9762 0-10.75 4.8177-10.75 10.75h1.5zm9.25-9.25c3.1123 0 5.4482 1.294 7.0208 2.6059 0.7868 0.65634 1.3769 1.313 1.7687 1.8034 0.1956 0.24483 0.3408 0.44704 0.4355 0.58541 0.0474 0.06915 0.082 0.12224 0.104 0.15659 0.0109 0.01717 0.0187 0.02965 0.0233 0.0371 0.0023 0.00372 0.0038 0.00619 0.0045 0.00735 4e-4 5.8e-4 5e-4 8.4e-4 5e-4 7.7e-4 0-4e-5 -1e-4 -1.6e-4 -2e-4 -3.6e-4 -1e-4 -1e-4 -2e-4 -3.2e-4 -2e-4 -3.7e-4 -2e-4 -2.3e-4 -3e-4 -4.9e-4 0.6431-0.38585s0.6432-0.38566 0.6431-0.38598c-1e-4 -1.4e-4 -3e-4 -4.8e-4 -5e-4 -7.5e-4 -3e-4 -5.4e-4 -7e-4 -0.00116-0.0011-0.00187-9e-4 -0.00142-0.0019-0.00318-0.0032-0.00527-0.0026-0.00418-0.0059-0.00969-0.0101-0.01649-0.0084-0.01359-0.0202-0.03233-0.0352-0.05588-0.0301-0.0471-0.0735-0.11346-0.1302-0.19635-0.1135-0.16569-0.2805-0.39785-0.5014-0.67427-0.441-0.55204-1.1002-1.2854-1.9797-2.0191-1.7599-1.4681-4.424-2.9541-7.9817-2.9541v1.5zm10.75 4.81v-5h-1.5v5h1.5zm-0.75-0.75h-4.44v1.5h4.44v-1.5zm-18.89 10.38h4.52v-1.5h-4.52v1.5zm-0.75-0.75v5h1.5v-5h-1.5z"/>
</svg>
