<?xml version="1.0" encoding="UTF-8"?>
<svg width="24" height="24" viewBox="0 0 24 24" xmlns="http://www.w3.org/2000/svg">
 <path d="m16.5 12.47c-0.41 0-0.75-0.34-0.75-0.75v-1.77c0-0.47-0.38-0.85003-0.85-0.85003h-7.4c-0.41 0-0.75-0.34-0.75-0.75s0.34-0.75 0.75-0.75h7.4c1.3 0 2.35 1.06 2.35 2.35v1.77c0 0.41-0.34 0.75-0.75 0.75z"/>
 <path d="m9.1899 10.78c-0.19 0-0.38-0.0701-0.53-0.2201l-1.69-1.69c-0.29-0.29-0.29-0.76999 0-1.06l1.69-1.69c0.29-0.29 0.77-0.29 1.06 0 0.28996 0.29 0.28996 0.77 0 1.06l-1.16 1.16 1.16 1.16c0.28996 0.29 0.28996 0.76995 0 1.06-0.15 0.15-0.34 0.2201-0.53 0.2201z"/>
 <path d="m16.5 16.41h-7.4c-1.3 0-2.35-1.0599-2.35-2.3499v-1.7701c0-0.41 0.34-0.75 0.75-0.75s0.75 0.34 0.75 0.75v1.7701c0 0.47 0.38001 0.8499 0.85001 0.8499h7.4c0.41 0 0.75 0.34 0.75 0.75s-0.34 0.75-0.75 0.75z"/>
 <path d="m14.81 18.09c-0.19 0-0.38-0.07-0.53-0.22-0.29-0.29-0.29-0.77 0-1.06l1.16-1.16-1.16-1.16c-0.29-0.29-0.29-0.77 0-1.06s0.77-0.29 1.06 0l1.69 1.69c0.29 0.29 0.29 0.77 0 1.06l-1.69 1.69c-0.14 0.15-0.34 0.22-0.53 0.22z"/>
 <path d="m12 22.75c-5.93 0-10.75-4.82-10.75-10.75s4.82-10.75 10.75-10.75 10.75 4.82 10.75 10.75-4.82 10.75-10.75 10.75zm0-20c-5.1 0-9.25 4.15-9.25 9.25s4.15 9.25 9.25 9.25 9.25-4.15 9.25-9.25-4.15-9.25-9.25-9.25z"/>
</svg>
