<?xml version="1.0" encoding="UTF-8"?>
<svg width="24" height="24" viewBox="0 0 24 24" xmlns="http://www.w3.org/2000/svg">
 <path d="m20.42 12.22c-0.41 0-0.75-0.34-0.75-0.75v-3.3199c0-1.24-1.01-2.25-2.25-2.25h-13.84c-0.41 0-0.75-0.34-0.75-0.75s0.34-0.75 0.75-0.75h13.84c2.07 0 3.75 1.68 3.75 3.75v3.3199c0 0.42-0.34 0.75-0.75 0.75z"/>
 <path d="m6.7401 9.07c-0.19 0-0.38-0.07003-0.53-0.22003l-3.16-3.16c-0.14-0.14-0.22-0.33003-0.22-0.53003s0.08-0.38996 0.22-0.52996l3.16-3.16c0.29-0.29 0.77-0.29 1.06 0s0.29 0.77006 0 1.0601l-2.63 2.6299 2.63 2.63c0.29 0.29 0.29 0.77 0 1.06-0.15 0.14-0.34 0.22003-0.53 0.22003z"/>
 <path d="m20.42 19.59h-13.84c-2.07 0-3.75-1.68-3.75-3.75v-3.32c0-0.41 0.34-0.75 0.75-0.75s0.75 0.34 0.75 0.75v3.32c0 1.24 1.01 2.25 2.25 2.25h13.84c0.41 0 0.75 0.34 0.75 0.75s-0.34 0.75-0.75 0.75z"/>
 <path d="m17.26 22.75c-0.19 0-0.38-0.07-0.53-0.22-0.29-0.29-0.29-0.77 0-1.06l2.63-2.63-2.63-2.63c-0.29-0.29-0.29-0.77 0-1.06s0.77-0.29 1.06 0l3.16 3.16c0.14 0.14 0.22 0.33 0.22 0.53s-0.08 0.39-0.22 0.53l-3.16 3.16c-0.14 0.15-0.33 0.22-0.53 0.22z"/>
</svg>
