<svg width="24" height="24" viewBox="0 0 24 24"  xmlns="http://www.w3.org/2000/svg">
<path d="M7.81 22L16.19 22C19.83 22 22 19.83 22 16.19L22 7.82C22 4.17 19.83 2 16.19 2L7.82 2C4.18 2 2.01 4.17 2.01 7.81L2.01 16.19C2 19.83 4.17 22 7.81 22ZM10.08 7.37L15 7.37C15.41 7.37 15.75 7.71 15.75 8.12C15.75 8.53 15.41 8.87 15 8.87L10.08 8.87C8.8 8.87 7.75 9.91 7.75 11.2C7.75 12.49 8.79 13.53 10.08 13.53L15.15 13.53L14.89 13.27C14.6 12.98 14.6 12.5 14.89 12.21C15.04 12.06 15.23 11.99 15.42 11.99C15.61 11.99 15.8 12.06 15.95 12.21L17.52 13.78C17.81 14.07 17.81 14.55 17.52 14.84L15.95 16.41C15.66 16.7 15.18 16.7 14.89 16.41C14.6 16.12 14.6 15.64 14.89 15.35L15.23 15.02L10.08 15.02C7.97 15.02 6.25 13.3 6.25 11.19C6.25 9.08 7.97 7.37 10.08 7.37Z" />
</svg>
