<?xml version="1.0" encoding="UTF-8"?>
<svg width="24" height="24" viewBox="0 0 24 24" xmlns="http://www.w3.org/2000/svg">
 <path d="m18.97 22.75h-14c-3.75 0-3.75-2.08-3.75-3.75v-1c0-0.96 0.79-1.75 1.75-1.75h18c0.96 0 1.75 0.79 1.75 1.75v1c0 1.67 0 3.75-3.75 3.75zm-16-5c-0.14 0-0.25 0.11-0.25 0.25v1c0 1.64 0 2.25 2.25 2.25h14c2.25 0 2.25-0.61 2.25-2.25v-1c0-0.14-0.11-0.25-0.25-0.25h-18z"/>
 <path d="m20.72 17.75h-17.45c-0.41 0-0.75-0.34-0.75-0.75v-4c0-4.1 2.91-7.7 6.91-8.55 0.58998-0.13 1.21-0.2 1.84-0.2h1.45c0.64 0 1.26 0.07 1.85 0.2 4 0.86 6.9 4.46 6.9 8.55v4c0 0.41-0.33 0.75-0.75 0.75zm-16.7-1.5h15.95v-3.25c0-3.39-2.4-6.37-5.72-7.09-0.49-0.11-1-0.16-1.53-0.16h-1.45c-0.52 0-1.03 0.05-1.52 0.16-3.32 0.71-5.73 3.69-5.73 7.09v3.25z"/>
 <path d="m9.59 5.93c-0.33 0-0.63-0.22-0.72-0.55-0.08-0.29-0.12-0.58-0.12-0.88 0-1.79 1.46-3.25 3.25-3.25s3.25 1.46 3.25 3.25c0 0.3-0.04 0.59-0.12 0.88-0.1 0.38-0.48 0.62-0.88 0.53-0.49-0.11-1-0.16-1.53-0.16h-1.45c-0.52 0-1.03 0.05-1.52 0.16-0.05 0.01-0.1 0.02-0.16 0.02zm1.68-1.68h1.45c0.34 0 0.69 0.02 1.02 0.06-0.09-0.88-0.84-1.56-1.74-1.56s-1.64 0.68-1.74 1.56c0.34-0.04 0.67-0.06 1.01-0.06z"/>
 <path d="m15 11.75h-6c-0.41 0-0.75-0.34-0.75-0.75s0.34-0.75 0.75-0.75h6c0.41 0 0.75 0.34 0.75 0.75s-0.34 0.75-0.75 0.75z"/>
</svg>
