<?xml version="1.0" encoding="UTF-8"?>
<svg width="24" height="24" viewBox="0 0 24 24" xmlns="http://www.w3.org/2000/svg">
 <path d="m12 13.08c-0.13 0-0.26-0.03-0.38-0.1l-5.3-3.06c-0.36-0.21-0.48002-0.67-0.27002-1.02 0.21-0.36 0.65999-0.48 1.03-0.27l4.92 2.85 4.89-2.83c0.36-0.21 0.82-0.08 1.03 0.27 0.21 0.36 0.08 0.82-0.27 1.02l-5.26 3.04c-0.13 0.06-0.26 0.1-0.39 0.1z"/>
 <path d="m12 18.52c-0.41 0-0.75-0.34-0.75-0.75v-5.44c0-0.41 0.34-0.75 0.75-0.75s0.75 0.34 0.75 0.75v5.44c0 0.41-0.34 0.75-0.75 0.75z"/>
 <path d="m12 18.75c-0.58 0-1.1499-0.13-1.6099-0.38l-3.2-1.78c-0.96-0.53-1.7-1.8-1.7-2.9v-3.39c0-1.09 0.75002-2.37 1.7-2.9l3.2-1.78c0.92-0.51 2.2999-0.51 3.2199 0l3.2 1.78c0.96 0.53 1.7001 1.8 1.7001 2.9v3.39c0 1.09-0.7501 2.37-1.7001 2.9l-3.2 1.78c-0.46 0.25-1.03 0.38-1.61 0.38zm0-12c-0.33 0-0.65 0.06-0.88 0.19l-3.1999 1.78c-0.49 0.27-0.93003 1.03-0.93003 1.58v3.39c0 0.56 0.44003 1.31 0.93003 1.58l3.1999 1.78c0.46 0.26 1.3 0.26 1.76 0l3.2-1.78c0.49-0.27 0.9301-1.03 0.9301-1.58v-3.39c0-0.55999-0.4401-1.31-0.9301-1.58l-3.2-1.78c-0.23-0.13-0.55-0.19-0.88-0.19z"/>
 <path d="m15 22.75c-0.27 0-0.52-0.15-0.65-0.38-0.13-0.24-0.13-0.52 0.01-0.76l1.05-1.75c0.21-0.35 0.67-0.47 1.03-0.26s0.47 0.67 0.26 1.03l-0.27 0.45c2.76-0.65 4.83-3.13 4.83-6.09 0-0.41 0.34-0.75 0.75-0.75s0.75 0.34 0.75 0.75c-0.01 4.28-3.49 7.76-7.76 7.76z"/>
 <path d="m2 9.75c-0.41 0-0.75-0.34-0.75-0.75 0-4.27 3.48-7.75 7.75-7.75 0.27 0 0.51999 0.15 0.64999 0.38 0.13 0.24 0.13002 0.52-0.00998 0.76l-1.05 1.75c-0.21 0.35-0.67 0.47-1.03 0.26s-0.47001-0.67-0.26001-1.03l0.27002-0.45c-2.76 0.65-4.83 3.13-4.83 6.09 0.01 0.4-0.32999 0.74-0.73999 0.74z"/>
</svg>
