<?xml version="1.0" encoding="UTF-8"?>
<svg width="24" height="24" viewBox="0 0 24 24" xmlns="http://www.w3.org/2000/svg">
 <path d="m12 22.75c-5.2 0-9.42-4.23-9.42-9.42s4.22-9.43 9.42-9.43c1.07 0 2.11 0.15 3.11 0.46 0.4 0.12 0.62 0.54 0.5 0.94s-0.54 0.62-0.94 0.5c-0.85-0.26-1.75-0.4-2.67-0.4-4.37 0-7.92 3.55-7.92 7.92s3.55 7.92 7.92 7.92c4.37 0 7.92-3.55 7.92-7.92 0-1.58-0.46-3.1-1.33-4.4-0.23-0.34-0.14-0.81 0.21-1.04 0.34-0.23 0.81-0.14 1.04 0.21 1.04 1.55 1.59 3.36 1.59 5.24-0.01 5.19-4.23 9.42-9.43 9.42z"/>
 <path d="m16.13 6.07c-0.21 0-0.42-0.09-0.57-0.26l-2.89-3.32c-0.27-0.31-0.24-0.79 0.07-1.06s0.79-0.24 1.06 0.07l2.89 3.32c0.27 0.31 0.24 0.79-0.07 1.06-0.13 0.13-0.31 0.19-0.49 0.19z"/>
 <path d="m12.76 8.53c-0.23 0-0.46-0.11-0.61-0.31-0.24-0.33-0.17-0.8 0.16-1.05l3.37-2.46c0.33-0.25 0.8-0.17 1.05 0.16s0.17 0.8-0.16 1.05l-3.37 2.47c-0.13 0.1-0.28 0.14-0.44 0.14z"/>
</svg>
