<?xml version="1.0" encoding="UTF-8"?>
<svg width="24" height="24" viewBox="0 0 24 24" xmlns="http://www.w3.org/2000/svg">
 <path d="m16.75 22.75h-4.5c-4.15 0-6-1.85-6-6v-4.5c0-4.15 1.85-6 6-6h4.5c4.15 0 6 1.85 6 6v4.5c0 4.15-1.85 6-6 6zm-4.5-15c-3.32 0-4.5 1.18-4.5 4.5v4.5c0 3.32 1.18 4.5 4.5 4.5h4.5c3.32 0 4.5-1.18 4.5-4.5v-4.5c0-3.32-1.18-4.5-4.5-4.5h-4.5z"/>
 <path d="m2 9.75c-0.41 0-0.75-0.34-0.75-0.75 0-4.27 3.48-7.75 7.75-7.75 0.27 0 0.52 0.15 0.65 0.38s0.13 0.52-0.01 0.75l-1.05 1.76c-0.21 0.35-0.67 0.47-1.03 0.25-0.35-0.21-0.47-0.67-0.25-1.03l0.27-0.45c-2.77 0.65-4.83 3.13-4.83 6.09 0 0.41-0.34 0.75-0.75 0.75z"/>
</svg>
