<?xml version="1.0" encoding="UTF-8"?>
<svg width="24" height="24" viewBox="0 0 24 24" xmlns="http://www.w3.org/2000/svg">
 <path d="m12 22.75c-5.2 0-9.42-4.23-9.42-9.42 0-1.87 0.55-3.68 1.59-5.24 0.23-0.34 0.7-0.44 1.04-0.21s0.44 0.7 0.21 1.04c-0.87 1.3-1.33 2.83-1.33 4.4 0 4.37 3.55 7.92 7.92 7.92 4.37 0 7.92-3.55 7.92-7.92 0-4.37-3.56-7.92-7.93-7.92-0.92 0-1.82 0.13-2.67 0.39-0.4 0.12-0.82-0.1-0.94-0.5s0.1-0.82 0.5-0.94c1-0.3 2.04-0.46 3.11-0.46 5.2 0 9.42 4.23 9.42 9.42 0 5.19-4.22 9.44-9.42 9.44z"/>
 <path d="m7.8699 6.0701c-0.17 0-0.35-0.06-0.49-0.18-0.32-0.28-0.35-0.75-0.08-1.06l2.89-3.32c0.27-0.31 0.75-0.35 1.06-0.07 0.31 0.27 0.34 0.75 0.07 1.06l-2.89 3.31c-0.15 0.17-0.36 0.26-0.56 0.26z"/>
 <path d="m11.24 8.5299c-0.15 0-0.31-0.05-0.44-0.14l-3.38-2.47c-0.33-0.24-0.4-0.71-0.16-1.04 0.24-0.34 0.71-0.41 1.05-0.17l3.37 2.46c0.33 0.24 0.41 0.71 0.16 1.05-0.14 0.21-0.37 0.31-0.6 0.31z"/>
</svg>
