<svg width="24" height="24" viewBox="0 0 24 24"  xmlns="http://www.w3.org/2000/svg">
<path d="M12.0001 22.75C6.80008 22.75 2.58008 18.52 2.58008 13.33C2.58008 8.13996 6.80008 3.89996 12.0001 3.89996C13.0701 3.89996 14.1101 4.04996 15.1101 4.35996C15.5101 4.47996 15.7301 4.89996 15.6101 5.29996C15.4901 5.69996 15.0701 5.91996 14.6701 5.79996C13.8201 5.53996 12.9201 5.39996 12.0001 5.39996C7.63008 5.39996 4.08008 8.94996 4.08008 13.32C4.08008 17.69 7.63008 21.24 12.0001 21.24C16.3701 21.24 19.9201 17.69 19.9201 13.32C19.9201 11.74 19.4601 10.22 18.5901 8.91996C18.3601 8.57996 18.4501 8.10996 18.8001 7.87996C19.1401 7.64996 19.6101 7.73996 19.8401 8.08996C20.8801 9.63996 21.4301 11.45 21.4301 13.33C21.4201 18.52 17.2001 22.75 12.0001 22.75Z" />
<path d="M16.1301 6.06996C15.9201 6.06996 15.7101 5.97996 15.5601 5.80996L12.6701 2.48996C12.4001 2.17996 12.4301 1.69996 12.7401 1.42996C13.0501 1.15996 13.5301 1.18996 13.8001 1.49996L16.6901 4.81996C16.9601 5.12996 16.9301 5.60996 16.6201 5.87996C16.4901 6.00996 16.3101 6.06996 16.1301 6.06996Z" />
<path d="M12.7601 8.52996C12.5301 8.52996 12.3001 8.41996 12.1501 8.21996C11.9101 7.88996 11.9801 7.41996 12.3101 7.16996L15.6801 4.70996C16.0101 4.45996 16.4801 4.53996 16.7301 4.86996C16.9801 5.19996 16.9001 5.66996 16.5701 5.91996L13.2001 8.38997C13.0701 8.48997 12.9201 8.52996 12.7601 8.52996Z" />
</svg>
