<?xml version="1.0" encoding="UTF-8"?>
<svg width="24" height="24" viewBox="0 0 24 24" xmlns="http://www.w3.org/2000/svg">
 <path d="m13.18 18.7c-1.17 0-2.16-0.72-2.53-1.83l-0.69997-2.07c-0.11-0.36-0.39-0.63-0.73-0.74l-2.08-0.7c-1.12-0.38-1.84-1.39-1.82-2.57 0.02-1.18 0.76-2.17 1.89-2.52l7.53-2.34c0.95-0.29 1.98-0.03998 2.68 0.67002s0.95 1.73 0.66 2.68l-2.34 7.54c-0.35 1.13-1.34 1.87-2.53 1.89-0.01-0.01-0.02-0.01-0.03-0.01zm2.34-11.4c-0.12 0-0.23 0.02001-0.35 0.05001l-7.54 2.35c-0.61 0.19-0.83 0.68997-0.83 1.11-0.01 0.41 0.2 0.93 0.8 1.13l2.08 0.69c0.79997 0.26 1.43 0.89 1.69 1.7l0.69 2.06c0.2 0.6 0.67 0.79 1.13 0.81 0.41 0 0.92-0.22 1.11-0.83l2.34-7.54c0.13-0.42 0.02-0.86-0.29-1.17-0.23-0.24-0.52-0.36-0.83-0.36z"/>
 <path d="m15 22.75h-6c-5.43 0-7.75-2.32-7.75-7.75v-6c0-5.43 2.32-7.75 7.75-7.75h6c5.43 0 7.75 2.32 7.75 7.75v6c0 5.43-2.32 7.75-7.75 7.75zm-6-20c-4.61 0-6.25 1.64-6.25 6.25v6c0 4.61 1.64 6.25 6.25 6.25h6c4.61 0 6.25-1.64 6.25-6.25v-6c0-4.61-1.64-6.25-6.25-6.25h-6z"/>
</svg>
