<svg width="24" height="24" viewBox="0 0 24 24"  xmlns="http://www.w3.org/2000/svg">
<path d="M5.51021 6.5C4.96021 6.5 4.51022 6.05 4.51022 5.5C4.51022 4.95 4.95021 4.5 5.51021 4.5H5.52022C6.07022 4.5 6.52022 4.95 6.52022 5.5C6.52022 6.05 6.07021 6.5 5.51021 6.5Z" />
<path d="M18.5102 19.5C17.9602 19.5 17.5102 19.05 17.5102 18.5C17.5102 17.95 17.9502 17.5 18.5102 17.5H18.5202C19.0702 17.5 19.5202 17.95 19.5202 18.5C19.5202 19.05 19.0702 19.5 18.5102 19.5Z" />
<path d="M5.47021 9.75C3.13021 9.75 1.22021 7.84 1.22021 5.5C1.22021 3.16 3.13021 1.25 5.47021 1.25C7.81021 1.25 9.72021 3.16 9.72021 5.5C9.72021 7.84 7.82021 9.75 5.47021 9.75ZM5.47021 2.75C3.95021 2.75 2.72021 3.98 2.72021 5.5C2.72021 7.02 3.95021 8.25 5.47021 8.25C6.99021 8.25 8.22021 7.02 8.22021 5.5C8.22021 3.98 6.99021 2.75 5.47021 2.75Z" />
<path d="M19.9702 22.75H16.9702C15.4502 22.75 14.2202 21.52 14.2202 20V17C14.2202 15.48 15.4502 14.25 16.9702 14.25H19.9702C21.4902 14.25 22.7202 15.48 22.7202 17V20C22.7202 21.52 21.4902 22.75 19.9702 22.75ZM16.9702 15.75C16.2802 15.75 15.7202 16.31 15.7202 17V20C15.7202 20.69 16.2802 21.25 16.9702 21.25H19.9702C20.6602 21.25 21.2202 20.69 21.2202 20V17C21.2202 16.31 20.6602 15.75 19.9702 15.75H16.9702Z" />
<path d="M12.0002 19.75H9.32022C8.16022 19.75 7.15022 19.05 6.75022 17.97C6.34022 16.89 6.64022 15.7 7.51022 14.93L15.5002 7.94C15.9802 7.52 15.9902 6.95 15.8502 6.56C15.7002 6.17 15.3202 5.75 14.6802 5.75H12.0002C11.5902 5.75 11.2502 5.41 11.2502 5C11.2502 4.59 11.5902 4.25 12.0002 4.25H14.6802C15.8402 4.25 16.8502 4.95 17.2502 6.03C17.6602 7.11 17.3602 8.3 16.4902 9.07L8.50022 16.06C8.02022 16.48 8.01022 17.05 8.15022 17.44C8.30022 17.83 8.68022 18.25 9.32022 18.25H12.0002C12.4102 18.25 12.7502 18.59 12.7502 19C12.7502 19.41 12.4102 19.75 12.0002 19.75Z" />
</svg>
