<?xml version="1.0" encoding="UTF-8"?>
<svg width="24" height="24" viewBox="0 0 24 24" xmlns="http://www.w3.org/2000/svg">
 <path d="m5.4702 10.75c-0.71 0-1.43-0.26-1.98-0.79-1.84-1.75-2.58-3.66-2.15-5.53 0.51-2.2 2.44-3.18 4.13-3.18s3.63 0.99 4.13 3.18c0.43004 1.87-0.32 3.78-2.15 5.53-0.55 0.53-1.26 0.79-1.98 0.79zm-2.67-5.98c-0.38 1.67 0.73001 3.15 1.73 4.1 0.53 0.51 1.36 0.5 1.89 0 1-0.95 2.11-2.43 1.72-4.11-0.34-1.48-1.65-2.01-2.66-2.01-1.02 0-2.33 0.53-2.68 2.02z"/>
 <path d="m5.5098 6.2002c-0.55 0-1-0.45-1-1s0.44-1 1-1h0.01c0.55 0 1 0.45 1 1s-0.45 1-1.01 1z"/>
 <path d="m18.49 22.75c-0.71 0-1.43-0.26-1.99-0.79-1.85-1.75-2.6-3.66-2.16-5.54 0.51-2.19 2.45-3.18 4.15-3.18s3.64 0.99 4.15 3.18c0.43 1.87-0.32 3.79-2.17 5.53-0.55 0.54-1.26 0.8-1.98 0.8zm0-8c-1.02 0-2.34 0.53-2.69 2.02-0.39 1.67 0.73 3.16 1.73 4.11 0.53 0.51 1.37 0.51 1.91 0 1-0.95 2.12-2.43 1.73-4.1-0.33-1.5-1.65-2.03-2.68-2.03z"/>
 <path d="m18.53 18.2c-0.55 0-1-0.45-1-1s0.44-1 1-1h0.01c0.55 0 1 0.45 1 1s-0.46 1-1.01 1z"/>
 <path d="m12 19.75h-2.68c-1.16 0-2.17-0.7-2.57-1.78-0.41-1.08-0.11-2.27 0.76-3.04l7.99-6.99c0.48-0.42 0.49-0.99 0.35-1.38-0.15-0.39-0.53-0.81-1.17-0.81h-2.68c-0.41 0-0.75-0.34-0.75-0.75s0.34-0.75 0.75-0.75h2.68c1.16 0 2.17 0.7 2.57 1.78 0.41 1.08 0.11 2.27-0.76 3.04l-7.99 6.99c-0.48 0.42-0.49 0.99-0.35 1.38 0.15 0.39 0.53 0.81 1.17 0.81h2.68c0.41 0 0.75 0.34 0.75 0.75s-0.34 0.75-0.75 0.75z"/>
 <path d="m12 19.75h-2.68c-1.16 0-2.17-0.7-2.57-1.78-0.41-1.08-0.11-2.27 0.76-3.04l7.99-6.99c0.48-0.42 0.49-0.99 0.35-1.38-0.15-0.39-0.53-0.81-1.17-0.81h-2.68c-0.41 0-0.75-0.34-0.75-0.75s0.34-0.75 0.75-0.75h2.68c1.16 0 2.17 0.7 2.57 1.78 0.41 1.08 0.11 2.27-0.76 3.04l-7.99 6.99c-0.48 0.42-0.49 0.99-0.35 1.38 0.15 0.39 0.53 0.81 1.17 0.81h2.68c0.41 0 0.75 0.34 0.75 0.75s-0.34 0.75-0.75 0.75z"/>
</svg>
