<?xml version="1.0" encoding="UTF-8"?>
<svg width="24" height="24" viewBox="0 0 24 24" xmlns="http://www.w3.org/2000/svg">
 <path d="m19.9 22.75h-15.8c-1.92 0-2.85-0.98-2.85-2.98v-4.04c0-2.01 0.93-2.98 2.85-2.98h15.8c1.92 0 2.85 0.98 2.85 2.98v4.04c0 2-0.93 2.98-2.85 2.98zm-15.8-8.5c-1.01 0-1.35 0.21-1.35 1.48v4.04c0 1.27 0.34 1.48 1.35 1.48h15.8c1.01 0 1.35-0.21 1.35-1.48v-4.04c0-1.27-0.34-1.48-1.35-1.48h-15.8z"/>
 <path d="m19.9 11.25h-15.8c-1.92 0-2.85-0.98-2.85-2.98v-4.04c0-2.01 0.93-2.98 2.85-2.98h15.8c1.92 0 2.85 0.98 2.85 2.98v4.04c0 2-0.93 2.98-2.85 2.98zm-15.8-8.5c-1.01 0-1.35 0.21-1.35 1.48v4.04c0 1.27 0.34 1.48 1.35 1.48h15.8c1.01 0 1.35-0.21 1.35-1.48v-4.04c0-1.27-0.34-1.48-1.35-1.48h-15.8z"/>
</svg>
