<?xml version="1.0" encoding="UTF-8"?>
<svg width="24" height="24" viewBox="0 0 24 24" xmlns="http://www.w3.org/2000/svg">
 <path d="m19 17.75h-14c-2.42 0-3.75-1.33-3.75-3.75v-4c0-2.42 1.33-3.75 3.75-3.75h14c2.42 0 3.75 1.33 3.75 3.75v4c0 2.42-1.33 3.75-3.75 3.75zm-14-10c-1.58 0-2.25 0.67-2.25 2.25v4c0 1.58 0.67 2.25 2.25 2.25h14c1.58 0 2.25-0.67 2.25-2.25v-4c0-1.58-0.67-2.25-2.25-2.25h-14z"/>
 <path d="m18 12.75c-0.41 0-0.75-0.34-0.75-0.75v-5c0-0.41 0.34-0.75 0.75-0.75s0.75 0.34 0.75 0.75v5c0 0.41-0.34 0.75-0.75 0.75z"/>
 <path d="m6 11.75c-0.41 0-0.75-0.34-0.75-0.75v-4c0-0.41 0.34-0.75 0.75-0.75s0.75 0.34 0.75 0.75v4c0 0.41-0.34 0.75-0.75 0.75z"/>
 <path d="m10 12.75c-0.42 0-0.75-0.34-0.75-0.76l0.05-5c0-0.41 0.34-0.74 0.75-0.74h0.01c0.41 0 0.75 0.34 0.74 0.76l-0.05 5c0 0.41-0.34 0.74-0.75 0.74z"/>
 <path d="m14 10.75c-0.41 0-0.75-0.34-0.75-0.75v-3c0-0.41 0.34-0.75 0.75-0.75s0.75 0.34 0.75 0.75v3c0 0.41-0.34 0.75-0.75 0.75z"/>
</svg>
