<?xml version="1.0" encoding="UTF-8"?>
<svg width="24" height="24" viewBox="0 0 24 24" xmlns="http://www.w3.org/2000/svg">
 <path d="m18.47 22.75h-4c-2.42 0-3.75-1.33-3.75-3.75v-14c0-2.42 1.33-3.75 3.75-3.75h4c2.42 0 3.75 1.33 3.75 3.75v14c0 2.42-1.34 3.75-3.75 3.75zm-4-20c-1.58 0-2.25 0.67-2.25 2.25v14c0 1.58 0.67 2.25 2.25 2.25h4c1.58 0 2.25-0.67 2.25-2.25v-14c0-1.58-0.67-2.25-2.25-2.25h-4z"/>
 <path d="m16.47 6.75h-5c-0.41 0-0.75-0.34-0.75-0.75s0.34-0.75 0.75-0.75h5c0.41 0 0.75 0.34 0.75 0.75s-0.34 0.75-0.75 0.75z"/>
 <path d="m15.47 18.75h-4c-0.41 0-0.75-0.34-0.75-0.75s0.34-0.75 0.75-0.75h4c0.41 0 0.75 0.34 0.75 0.75s-0.34 0.75-0.75 0.75z"/>
 <path d="m16.47 14.75c-0.01 0-0.01 0 0 0l-5.01-0.05c-0.41 0-0.75-0.34-0.74-0.76 0-0.41 0.34-0.74 0.75-0.74h0.01l5 0.05c0.41 0 0.75 0.34 0.74 0.76-0.01 0.41-0.34 0.74-0.75 0.74z"/>
 <path d="m14.47 10.75h-3c-0.41 0-0.75-0.34-0.75-0.75s0.34-0.75 0.75-0.75h3c0.41 0 0.75 0.34 0.75 0.75s-0.34 0.75-0.75 0.75z"/>
 <path d="m5.4898 22.72c-0.91 0-1.77-0.56-2.36-1.54l-0.82-1.36c-0.3-0.5-0.53-1.32-0.53-1.9v-12.97c0-2.04 1.66-3.7 3.7-3.7 2.04 0 3.7 1.66 3.7 3.7v12.96c0 0.58-0.23 1.4-0.53 1.9l-0.82 1.36c-0.57 0.99-1.43 1.55-2.34 1.55zm0-19.97c-1.21 0-2.2 0.99-2.2 2.2v12.96c0 0.31 0.15 0.86 0.31 1.13l0.82 1.36c0.31 0.52 0.69999 0.81 1.07 0.81 0.37001 0 0.76-0.3 1.07-0.81l0.82001-1.36c0.16-0.27 0.31-0.82 0.31-1.13v-12.96c0-1.21-0.99-2.2-2.2-2.2z"/>
 <path d="m8.4398 7.75h-5.91c-0.41 0-0.75-0.34-0.75-0.75s0.34-0.75 0.75-0.75h5.91c0.40999 0 0.75 0.34 0.75 0.75s-0.34001 0.75-0.75 0.75z"/>
</svg>
