<?xml version="1.0" encoding="UTF-8"?>
<svg width="24" height="24" viewBox="0 0 24 24" xmlns="http://www.w3.org/2000/svg">
 <path d="m18.53 23.75c-0.15 0-0.29-0.02-0.42-0.05-1.32-0.36-2.51-1.15-3.36-2.23-0.91-1.13-1.41-2.51-1.41-3.9v-2.19c0-0.72 0.48-1.45 1.15-1.73l2.79-1.14c0.82-0.32 1.71-0.32 2.52 0l2.8001 1.14c0.67 0.28 1.16 1.01 1.16 1.73v2.19c0 2.79-2 5.37-4.75 6.13-0.17 0.03-0.3301 0.05-0.4801 0.05zm0.0101-10c-0.24 0-0.4801 0.04-0.7101 0.14l-2.77 1.1401c-0.1 0.04-0.22 0.2299-0.22 0.3499v2.19c0 1.05 0.3801 2.1001 1.0801 2.9701 0.66 0.84 1.57 1.4499 2.56 1.7199 0.03 0.01 0.0899 0.01 0.1399-0.01 2.05-0.57 3.62-2.58 3.62-4.68v-2.19c0-0.12-0.1199-0.2999-0.2299-0.3499l-2.78-1.1401c-0.22-0.09-0.45-0.14-0.69-0.14z"/>
 <path d="m15.34 21.75h-9.16c-1.74 0-3.34-1.3501-3.63-3.0601l-1.26-7.5499c-0.21-1.19 0.37998-2.72 1.32-3.48l6.58-5.26c1.29-1.04 3.31-1.03 4.6 0.01001l6.58 5.25c0.95 0.76 1.53 2.29 1.32 3.48l-0.43 2.59c-0.04 0.22-0.18 0.42-0.38 0.53s-0.44 0.13-0.65 0.04l-1-0.41c-0.44-0.18-0.94-0.18-1.4 0l-2.77 1.14c-0.1 0.04-0.22 0.23-0.22 0.35v2.1899c0 1.05 0.38 2.1001 1.08 2.9701 0.18 0.22 0.22 0.5299 0.09 0.7899-0.12 0.25-0.38 0.4201-0.67 0.4201zm-3.86-18.63c-0.49 0-0.99 0.15007-1.35 0.44007l-6.58 5.2599c-0.52 0.42-0.89 1.4001-0.78 2.0601l1.26 7.55c0.17 0.98 1.15 1.81 2.15 1.81h7.8c-0.42-0.85-0.64-1.77-0.64-2.69v-2.19c0-0.72 0.48-1.45 1.15-1.73l2.79-1.14c0.82-0.32 1.71-0.32 2.52 0l0.14 0.06 0.28-1.66c0.11-0.66-0.26-1.6401-0.78-2.0601l-6.58-5.25c-0.38-0.31-0.88-0.45996-1.38-0.45996z"/>
</svg>
