<?xml version="1.0" encoding="UTF-8"?>
<svg width="24" height="24" viewBox="0 0 24 24" xmlns="http://www.w3.org/2000/svg">
 <path d="m21 12.75c-0.41 0-0.75-0.34-0.75-0.75v-8.25h-8.25c-0.41 0-0.75-0.34-0.75-0.75s0.34-0.75 0.75-0.75h9c0.41 0 0.75 0.34 0.75 0.75v9c0 0.41-0.34 0.75-0.75 0.75z"/>
 <path d="m3 21.75c-0.19 0-0.38003-0.07-0.53003-0.22-0.29-0.29-0.29-0.77 0-1.06l18-18c0.29-0.29 0.7701-0.29 1.0601 0s0.29 0.77006 0 1.0601l-18 18c-0.15 0.15-0.34003 0.22-0.53003 0.22z"/>
 <path d="m17.4 18.149c-0.19 0-0.3801-0.0701-0.5301-0.2201l-10.8-10.8c-0.29-0.29-0.29-0.77 0-1.06s0.77-0.29 1.06 0l10.8 10.8c0.29 0.2899 0.29 0.7699 0 1.0599-0.15 0.15-0.3399 0.2201-0.5299 0.2201z"/>
</svg>
