<svg width="24" height="24" viewBox="0 0 24 24"  xmlns="http://www.w3.org/2000/svg">
<path d="M21 12.75C20.59 12.75 20.25 12.41 20.25 12V3.75H12C11.59 3.75 11.25 3.41 11.25 3C11.25 2.59 11.59 2.25 12 2.25H21C21.41 2.25 21.75 2.59 21.75 3V12C21.75 12.41 21.41 12.75 21 12.75Z" />
<path d="M2.99997 21.7495C2.80997 21.7495 2.61994 21.6795 2.46994 21.5295C2.17994 21.2395 2.17994 20.7595 2.46994 20.4695L20.4699 2.46945C20.7599 2.17945 21.24 2.17945 21.53 2.46945C21.82 2.75945 21.82 3.23951 21.53 3.52951L3.53 21.5295C3.38 21.6795 3.18997 21.7495 2.99997 21.7495Z" />
<path d="M17.4001 18.1491C17.2101 18.1491 17.02 18.079 16.87 17.929L6.07004 7.12906C5.78004 6.83906 5.78004 6.35906 6.07004 6.06906C6.36004 5.77906 6.84004 5.77906 7.13004 6.06906L17.93 16.8691C18.22 17.159 18.22 17.639 17.93 17.929C17.78 18.079 17.5901 18.1491 17.4001 18.1491Z" />
</svg>
