<?xml version="1.0" encoding="UTF-8"?>
<svg width="24" height="24" viewBox="0 0 24 24" xmlns="http://www.w3.org/2000/svg">
 <path d="m14.69 22.75c-0.44 0-0.9-0.13-1.37-0.38l-3.93-2.19c-0.19-0.1-0.59999-0.1-0.79 0l-3.93 2.19c-0.85 0.47-1.71 0.51-2.38 0.12-0.66-0.39-1.05-1.17-1.05-2.13v-11.36c0-2.13 1.73-3.86 3.86-3.86h7.78c2.13 0 3.86 1.73 3.86 3.86v11.36c0 0.96-0.38 1.74-1.05 2.13-0.29 0.17-0.63 0.26-1 0.26zm-5.69-4.15c0.4 0 0.79 0.09 1.12 0.27l3.94 2.19c0.36 0.2 0.69 0.25 0.89 0.13 0.19-0.11 0.31-0.43 0.31-0.84v-11.36c0-1.3-1.06-2.36-2.36-2.36h-7.79c-1.3 0-2.36 1.06-2.36 2.36v11.36c0 0.41 0.12 0.73 0.31 0.84s0.53 0.06 0.89-0.14l3.93-2.19c0.32-0.17 0.72-0.26 1.12-0.26z"/>
 <path d="m7.5898 14.16c-0.19 0-0.38-0.07-0.53-0.22-0.29-0.29-0.29-0.77 0-1.06l2.83-2.83c0.29001-0.28997 0.77001-0.28997 1.06 0 0.29 0.29 0.29 0.77 0 1.06l-2.83 2.83c-0.15 0.15-0.34 0.22-0.53 0.22z"/>
 <path d="m10.41 14.16c-0.19 0-0.38-0.07-0.52998-0.22l-2.83-2.83c-0.29-0.29-0.29-0.77 0-1.06 0.29-0.28997 0.77-0.28997 1.06 0l2.83 2.83c0.29 0.29 0.29 0.77 0 1.06-0.14 0.15-0.33 0.22-0.53 0.22z"/>
 <path d="m20.69 18.87c-0.44 0-0.9-0.1301-1.37-0.3801l-3.69-2.06c-0.24-0.13-0.38-0.3799-0.38-0.6499v-6.78c0-1.3-1.06-2.36-2.36-2.36h-4.89c-0.41 0-0.75-0.34-0.75-0.75v-0.77002c0-2.13 1.73-3.86 3.86-3.86h7.78c2.13 0 3.86 1.73 3.86 3.86v11.36c0 0.96-0.38 1.7399-1.05 2.1299-0.3 0.17-0.64 0.2601-1.01 0.2601zm-3.94-3.5401 3.31 1.85c0.36 0.2 0.69 0.2501 0.89 0.1301 0.19-0.11 0.31-0.43 0.31-0.84v-11.36c0-1.3-1.06-2.36-2.36-2.36h-7.78c-1.3 0-2.36 1.06-2.36 2.36v0.02002h4.14c2.13 0 3.86 1.73 3.86 3.86v6.34h-0.01z"/>
</svg>
