<svg width="24" height="24" viewBox="0 0 24 24"  xmlns="http://www.w3.org/2000/svg">
<path d="M14.6902 22.7496C14.2502 22.7496 13.7902 22.6196 13.3202 22.3696L9.39023 20.1796C9.20023 20.0796 8.79024 20.0796 8.60023 20.1796L4.67023 22.3696C3.82023 22.8396 2.96023 22.8796 2.29023 22.4896C1.63023 22.0996 1.24023 21.3196 1.24023 20.3596V8.99963C1.24023 6.86963 2.97023 5.13965 5.10023 5.13965H12.8802C15.0102 5.13965 16.7402 6.86963 16.7402 8.99963V20.3596C16.7402 21.3196 16.3602 22.0996 15.6902 22.4896C15.4002 22.6596 15.0602 22.7496 14.6902 22.7496ZM9.00023 18.5996C9.40023 18.5996 9.79023 18.6896 10.1202 18.8696L14.0602 21.0596C14.4202 21.2596 14.7502 21.3096 14.9502 21.1896C15.1402 21.0796 15.2602 20.7596 15.2602 20.3496V8.98962C15.2602 7.68962 14.2002 6.62964 12.9002 6.62964H5.11023C3.81023 6.62964 2.75023 7.68962 2.75023 8.98962V20.3496C2.75023 20.7596 2.87023 21.0796 3.06023 21.1896C3.25023 21.2996 3.59023 21.2496 3.95023 21.0496L7.88023 18.8596C8.20023 18.6896 8.60023 18.5996 9.00023 18.5996Z" />
<path d="M7.58979 14.1595C7.39979 14.1595 7.20979 14.0895 7.05979 13.9395C6.76979 13.6495 6.76979 13.1695 7.05979 12.8795L9.88979 10.0495C10.1798 9.75953 10.6598 9.75953 10.9498 10.0495C11.2398 10.3395 11.2398 10.8195 10.9498 11.1095L8.11979 13.9395C7.96979 14.0895 7.77979 14.1595 7.58979 14.1595Z" />
<path d="M10.41 14.1595C10.22 14.1595 10.03 14.0895 9.88002 13.9395L7.05002 11.1095C6.76002 10.8195 6.76002 10.3395 7.05002 10.0495C7.34002 9.75953 7.82002 9.75953 8.11002 10.0495L10.94 12.8795C11.23 13.1695 11.23 13.6495 10.94 13.9395C10.8 14.0895 10.61 14.1595 10.41 14.1595Z" />
<path d="M20.69 18.8698C20.25 18.8698 19.79 18.7397 19.32 18.4897L15.63 16.4297C15.39 16.2997 15.25 16.0498 15.25 15.7798V8.99976C15.25 7.69976 14.19 6.63977 12.89 6.63977H8C7.59 6.63977 7.25 6.29977 7.25 5.88977V5.11975C7.25 2.98975 8.98 1.25977 11.11 1.25977H18.89C21.02 1.25977 22.75 2.98975 22.75 5.11975V16.4798C22.75 17.4398 22.37 18.2197 21.7 18.6097C21.4 18.7797 21.06 18.8698 20.69 18.8698ZM16.75 15.3297L20.06 17.1797C20.42 17.3797 20.75 17.4298 20.95 17.3098C21.14 17.1998 21.26 16.8798 21.26 16.4698V5.10974C21.26 3.80974 20.2 2.74976 18.9 2.74976H11.12C9.82 2.74976 8.76 3.80974 8.76 5.10974V5.12976H12.9C15.03 5.12976 16.76 6.85975 16.76 8.98975V15.3297H16.75Z" />
</svg>
