<svg width="24" height="24" viewBox="0 0 24 24"  xmlns="http://www.w3.org/2000/svg">
<path d="M14.69 22.7496C14.25 22.7496 13.79 22.6196 13.32 22.3696L9.39001 20.1796C9.20001 20.0796 8.78998 20.0796 8.59998 20.1796L4.67999 22.3696C3.82999 22.8396 2.95999 22.8796 2.29999 22.4896C1.62999 22.0996 1.25 21.3196 1.25 20.3596V8.99963C1.25 6.86963 2.97999 5.13965 5.10999 5.13965H12.89C15.02 5.13965 16.75 6.86963 16.75 8.99963V20.3596C16.75 21.3196 16.37 22.0996 15.7 22.4896C15.4 22.6596 15.06 22.7496 14.69 22.7496ZM9 18.5996C9.4 18.5996 9.79 18.6896 10.12 18.8696L14.05 21.0596C14.41 21.2596 14.74 21.3096 14.94 21.1896C15.13 21.0796 15.25 20.7596 15.25 20.3496V8.98962C15.25 7.68962 14.19 6.62964 12.89 6.62964H5.10999C3.80999 6.62964 2.75 7.68962 2.75 8.98962V20.3496C2.75 20.7596 2.87 21.0796 3.06 21.1896C3.25 21.2996 3.59001 21.2496 3.95001 21.0496L7.88 18.8596C8.20001 18.6896 8.6 18.5996 9 18.5996Z" />
<path d="M20.69 18.8698C20.25 18.8698 19.79 18.7397 19.32 18.4897L15.63 16.4297C15.39 16.2997 15.25 16.0498 15.25 15.7798V8.99976C15.25 7.69976 14.19 6.63977 12.89 6.63977H8C7.59 6.63977 7.25 6.29977 7.25 5.88977V5.11975C7.25 2.98975 8.97999 1.25977 11.11 1.25977H18.89C21.02 1.25977 22.75 2.98975 22.75 5.11975V16.4798C22.75 17.4398 22.37 18.2197 21.7 18.6097C21.4 18.7797 21.06 18.8698 20.69 18.8698ZM16.75 15.3297L20.05 17.1797C20.41 17.3797 20.74 17.4298 20.94 17.3098C21.13 17.1998 21.25 16.8798 21.25 16.4698V5.10974C21.25 3.80974 20.19 2.74976 18.89 2.74976H11.11C9.80999 2.74976 8.75 3.80974 8.75 5.10974V5.12976H12.89C15.02 5.12976 16.75 6.85975 16.75 8.98975V15.3297Z" />
<path d="M11 12.75H7C6.59 12.75 6.25 12.41 6.25 12C6.25 11.59 6.59 11.25 7 11.25H11C11.41 11.25 11.75 11.59 11.75 12C11.75 12.41 11.41 12.75 11 12.75Z" />
</svg>
