<svg width="24" height="24" viewBox="0 0 24 24"  xmlns="http://www.w3.org/2000/svg">
<path opacity="0.4" d="M16 8.98987V20.3499C16 21.7999 14.96 22.4099 13.69 21.7099L9.76 19.5199C9.34 19.2899 8.66 19.2899 8.24 19.5199L4.31 21.7099C3.04 22.4099 2 21.7999 2 20.3499V8.98987C2 7.27987 3.4 5.87988 5.11 5.87988H12.89C14.6 5.87988 16 7.27987 16 8.98987Z" />
<path d="M10.06 12.0003L10.94 11.1203C11.23 10.8303 11.23 10.3503 10.94 10.0603C10.65 9.77027 10.17 9.77027 9.88003 10.0603L9.00003 10.9403L8.12003 10.0603C7.83003 9.77027 7.35003 9.77027 7.06003 10.0603C6.77003 10.3503 6.77003 10.8303 7.06003 11.1203L7.94003 12.0003L7.06003 12.8803C6.77003 13.1703 6.77003 13.6503 7.06003 13.9403C7.21003 14.0903 7.40003 14.1603 7.59003 14.1603C7.78003 14.1603 7.97003 14.0903 8.12003 13.9403L9.00003 13.0603L9.88003 13.9403C10.03 14.0903 10.22 14.1603 10.41 14.1603C10.6 14.1603 10.79 14.0903 10.94 13.9403C11.23 13.6503 11.23 13.1703 10.94 12.8803L10.06 12.0003Z" />
<path d="M22 5.10999V16.47C22 17.92 20.96 18.53 19.69 17.83L16 15.77V8.98999C16 7.27999 14.6 5.88 12.89 5.88H8V5.10999C8 3.39999 9.4 2 11.11 2H18.89C20.6 2 22 3.39999 22 5.10999Z" />
</svg>
