<?xml version="1.0" encoding="UTF-8"?>
<svg width="24" height="24" viewBox="0 0 24 24" xmlns="http://www.w3.org/2000/svg">
 <path d="m15 22.75h-6c-5.43 0-7.75-2.32-7.75-7.75v-6c0-5.43 2.32-7.75 7.75-7.75h6c5.43 0 7.75 2.32 7.75 7.75v6c0 5.43-2.32 7.75-7.75 7.75zm-6-20c-4.61 0-6.25 1.64-6.25 6.25v6c0 4.61 1.64 6.25 6.25 6.25h6c4.61 0 6.25-1.64 6.25-6.25v-6c0-4.61-1.64-6.25-6.25-6.25h-6z"/>
 <path d="m8.42 11.65c-1.47 0-2.67-1.2-2.67-2.67 0-1.47 1.2-2.68 2.67-2.68s2.67 1.2 2.67 2.68c0 1.48-1.19 2.67-2.67 2.67zm0-3.85c-0.65 0-1.17 0.52999-1.17 1.18s0.52998 1.17 1.17 1.17 1.17-0.52996 1.17-1.17-0.52005-1.18-1.17-1.18z"/>
 <path d="m8.42 17.7c-1.47 0-2.67-1.2-2.67-2.68s1.2-2.67 2.67-2.67 2.67 1.2 2.67 2.67-1.19 2.68-2.67 2.68zm0-3.85c-0.65 0-1.17 0.53-1.17 1.17s0.52998 1.18 1.17 1.18 1.17-0.53 1.17-1.18-0.52005-1.17-1.17-1.17z"/>
 <path d="m10.16 14.94c-0.22999 0-0.44997-0.1-0.59997-0.3-0.25-0.33-0.17997-0.8 0.15003-1.05l7.3399-5.49c0.33-0.25 0.8-0.18 1.05 0.15s0.18 0.8-0.15 1.05l-7.34 5.49c-0.14 0.1-0.29 0.15-0.45 0.15z"/>
 <path d="m17.5 16.03c-0.16 0-0.31-0.05-0.45-0.15l-7.3399-5.49c-0.33-0.25-0.40003-0.72004-0.15003-1.05s0.71997-0.39999 1.05-0.14999l7.34 5.49c0.33 0.25 0.4 0.72 0.15 1.05-0.15 0.2-0.37 0.3-0.6 0.3z"/>
</svg>
