<svg width="24" height="24" viewBox="0 0 24 24"  xmlns="http://www.w3.org/2000/svg">
<path opacity="0.4" d="M16.19 2H7.82001C4.18001 2 2.01001 4.17 2.01001 7.81V16.18C2.01001 19.82 4.18001 21.99 7.82001 21.99H16.19C19.83 21.99 22 19.82 22 16.18V7.81C22 4.17 19.83 2 16.19 2Z" />
<path d="M14.1699 11.9899L17.77 9.29992C18.1 9.04992 18.1699 8.57992 17.9199 8.24992C17.6699 7.91992 17.1999 7.84992 16.8699 8.09992L12.9199 11.0499L10.52 9.24992C10.53 9.15992 10.5499 9.06992 10.5499 8.96992C10.5499 7.69992 9.51994 6.66992 8.24994 6.66992C6.97994 6.66992 5.94995 7.69992 5.94995 8.96992C5.94995 10.2399 6.97994 11.2699 8.24994 11.2699C8.86994 11.2699 9.42991 11.0199 9.84991 10.6199L11.6799 11.9899L9.83997 13.3699C9.42997 12.9799 8.86995 12.7299 8.25995 12.7299C6.98995 12.7299 5.95996 13.7599 5.95996 15.0299C5.95996 16.2999 6.98995 17.3299 8.25995 17.3299C9.52995 17.3299 10.5599 16.2999 10.5599 15.0299C10.5599 14.9299 10.54 14.8299 10.53 14.7299L12.9399 12.9299L16.89 15.8799C17.02 15.9799 17.18 16.0299 17.34 16.0299C17.57 16.0299 17.7899 15.9299 17.9399 15.7299C18.1899 15.3999 18.1199 14.9299 17.7899 14.6799L14.1699 11.9899Z" />
</svg>
