<?xml version="1.0" encoding="UTF-8"?>
<svg width="24" height="24" viewBox="0 0 24 24" xmlns="http://www.w3.org/2000/svg">
 <path d="m5.5 10.75c-2.34 0-4.25-1.91-4.25-4.25s1.91-4.25 4.25-4.25 4.25 1.91 4.25 4.25-1.91 4.25-4.25 4.25zm0-7c-1.52 0-2.75 1.23-2.75 2.75s1.23 2.75 2.75 2.75 2.75-1.23 2.75-2.75-1.23-2.75-2.75-2.75z"/>
 <path d="m5.5 21.75c-2.34 0-4.25-1.91-4.25-4.25s1.91-4.25 4.25-4.25 4.25 1.91 4.25 4.25-1.91 4.25-4.25 4.25zm0-7c-1.52 0-2.75 1.23-2.75 2.75s1.23 2.75 2.75 2.75 2.75-1.23 2.75-2.75-1.23-2.75-2.75-2.75z"/>
 <path d="m8.6502 16.73c-0.23 0-0.45-0.1-0.6-0.3-0.25-0.33-0.17998-0.8 0.15002-1.05l13.35-9.98c0.33-0.25 0.8-0.18 1.05 0.15s0.18 0.8-0.15 1.05l-13.35 9.98c-0.13 0.1-0.29001 0.15-0.45001 0.15z"/>
 <path d="m22 18.72c-0.16 0-0.31-0.05-0.45-0.15l-13.35-9.98c-0.33-0.25-0.40002-0.72-0.15002-1.05s0.72001-0.4 1.05-0.15l13.35 9.98c0.33 0.25 0.4 0.72 0.15 1.05-0.15 0.19-0.37 0.3-0.6 0.3z"/>
</svg>
