<?xml version="1.0" encoding="UTF-8"?>
<svg width="24" height="24" viewBox="0 0 24 24" xmlns="http://www.w3.org/2000/svg">
 <path d="m15 22.75h-6c-5.43 0-7.75-2.32-7.75-7.75v-6c0-5.43 2.32-7.75 7.75-7.75h6c5.43 0 7.75 2.32 7.75 7.75v6c0 5.43-2.32 7.75-7.75 7.75zm-6-20c-4.61 0-6.25 1.64-6.25 6.25v6c0 4.61 1.64 6.25 6.25 6.25h6c4.61 0 6.25-1.64 6.25-6.25v-6c0-4.61-1.64-6.25-6.25-6.25h-6z"/>
 <path d="m16.4 19.25h-3.8c-1.92 0-2.85-0.93-2.85-2.85v-1.8c0-1.92 0.93-2.85 2.85-2.85h3.8c1.92 0 2.85 0.93 2.85 2.85v1.8c0 1.92-0.93 2.85-2.85 2.85zm-3.8-6c-1.08 0-1.35 0.27-1.35 1.35v1.8c0 1.08 0.27 1.35 1.35 1.35h3.8c1.08 0 1.35-0.27 1.35-1.35v-1.8c0-1.08-0.27-1.35-1.35-1.35h-3.8z"/>
</svg>
