<?xml version="1.0" encoding="UTF-8"?>
<svg width="24" height="24" viewBox="0 0 24 24" xmlns="http://www.w3.org/2000/svg">
 <path d="m15 22.75h-6c-5.43 0-7.75-2.32-7.75-7.75v-6c0-5.43 2.32-7.75 7.75-7.75h6c5.43 0 7.75 2.32 7.75 7.75v6c0 5.43-2.32 7.75-7.75 7.75zm-6-20c-4.61 0-6.25 1.64-6.25 6.25v6c0 4.61 1.64 6.25 6.25 6.25h6c4.61 0 6.25-1.64 6.25-6.25v-6c0-4.61-1.64-6.25-6.25-6.25h-6z"/>
 <path d="m9.6002 15.78c-0.19 0-0.38-0.07-0.53001-0.22l-2.49-2.49c-0.59-0.59-0.59-1.54 0-2.13l2.49-2.49c0.29-0.29 0.77001-0.29 1.06 0s0.29 0.77 0 1.06l-2.49 2.49 2.49 2.5c0.29 0.29 0.29 0.77 0 1.06-0.15 0.14-0.34 0.22-0.53 0.22z"/>
 <path d="m14.4 15.78c-0.19 0-0.38-0.07-0.53-0.22-0.29-0.29-0.29-0.77 0-1.06l2.49-2.5-2.49-2.5c-0.29-0.29-0.29-0.77 0-1.06s0.77-0.29 1.06 0l2.49 2.49c0.59 0.59 0.59 1.54 0 2.13l-2.49 2.49c-0.14 0.15-0.34 0.23-0.53 0.23z"/>
</svg>
