<?xml version="1.0" encoding="UTF-8"?>
<svg width="24" height="24" viewBox="0 0 24 24" xmlns="http://www.w3.org/2000/svg">
 <path d="m11.5 21.75c-5.65 0-10.25-4.6-10.25-10.25s4.6-10.25 10.25-10.25c0.41 0 0.75 0.34 0.75 0.75s-0.34 0.75-0.75 0.75c-4.83 0-8.75 3.93-8.75 8.75s3.92 8.75 8.75 8.75 8.75-3.93 8.75-8.75c0-0.41 0.34-0.75 0.75-0.75s0.75 0.34 0.75 0.75c0 5.65-4.6 10.25-10.25 10.25z"/>
 <path d="m22 22.75c-0.19 0-0.38-0.07-0.53-0.22l-2-2c-0.29-0.29-0.29-0.77 0-1.06s0.77-0.29 1.06 0l2 2c0.29 0.29 0.29 0.77 0 1.06-0.15 0.15-0.34 0.22-0.53 0.22z"/>
 <path d="m17.5 9.5392c-0.92 0-3.06-1.12-3.72-3.18-0.45-1.41 0.07-3.26 1.7-3.79 0.7-0.23 1.43-0.12 2.01 0.25 0.57-0.37 1.32-0.47 2.02-0.25 1.63 0.53 2.16 2.38 1.7 3.79-0.65 2.1-2.9 3.18-3.71 3.18zm-2.29-3.63c0.46 1.45 2.02 2.11 2.3 2.14 0.32-0.03 1.85-0.77 2.27-2.13 0.23-0.73 0-1.67-0.73-1.91-0.31-0.1-0.73-0.04-0.93 0.25-0.14 0.21-0.36 0.33-0.61 0.34-0.22 0.01-0.48-0.11-0.62-0.31-0.23-0.33-0.65-0.38-0.95-0.29-0.72 0.24-0.96 1.18-0.73 1.91z"/>
</svg>
