<svg width="24" height="24" viewBox="0 0 24 24"  xmlns="http://www.w3.org/2000/svg">
<path d="M11.5 21.75C5.85 21.75 1.25 17.15 1.25 11.5C1.25 5.85 5.85 1.25 11.5 1.25C11.91 1.25 12.25 1.59 12.25 2C12.25 2.41 11.91 2.75 11.5 2.75C6.67 2.75 2.75 6.68 2.75 11.5C2.75 16.32 6.67 20.25 11.5 20.25C16.33 20.25 20.25 16.32 20.25 11.5C20.25 11.09 20.59 10.75 21 10.75C21.41 10.75 21.75 11.09 21.75 11.5C21.75 17.15 17.15 21.75 11.5 21.75Z" />
<path d="M21.9999 22.7495C21.8099 22.7495 21.6199 22.6795 21.4699 22.5295L19.4699 20.5295C19.1799 20.2395 19.1799 19.7595 19.4699 19.4695C19.7599 19.1795 20.2399 19.1795 20.5299 19.4695L22.5299 21.4695C22.8199 21.7595 22.8199 22.2395 22.5299 22.5295C22.3799 22.6795 22.1899 22.7495 21.9999 22.7495Z" />
<path d="M17.4999 9.53921C16.5799 9.53921 14.4399 8.41921 13.7799 6.35921C13.3299 4.94921 13.8499 3.09921 15.4799 2.56921C16.1799 2.33921 16.9099 2.44921 17.4899 2.81921C18.0599 2.44921 18.8099 2.34921 19.5099 2.56921C21.1399 3.09921 21.6699 4.94921 21.2099 6.35921C20.5599 8.45921 18.3099 9.53921 17.4999 9.53921ZM15.2099 5.90921C15.6699 7.35921 17.2299 8.01921 17.5099 8.04921C17.8299 8.01921 19.3599 7.27921 19.7799 5.91921C20.0099 5.18921 19.7799 4.24921 19.0499 4.00921C18.7399 3.90921 18.3199 3.96921 18.1199 4.25921C17.9799 4.46921 17.7599 4.58921 17.5099 4.59921C17.2899 4.60921 17.0299 4.48921 16.8899 4.28921C16.6599 3.95921 16.2399 3.90921 15.9399 3.99921C15.2199 4.23921 14.9799 5.17921 15.2099 5.90921Z" />
</svg>
