<svg width="24" height="24" viewBox="0 0 24 24"  xmlns="http://www.w3.org/2000/svg">
<path opacity="0.4" d="M11.5 21C16.7467 21 21 16.7467 21 11.5C21 6.25329 16.7467 2 11.5 2C6.25329 2 2 6.25329 2 11.5C2 16.7467 6.25329 21 11.5 21Z" />
<path d="M21.3001 22.0001C21.1201 22.0001 20.9401 21.9301 20.8101 21.8001L18.9501 19.9401C18.6801 19.6701 18.6801 19.2301 18.9501 18.9501C19.2201 18.6801 19.6601 18.6801 19.9401 18.9501L21.8001 20.8101C22.0701 21.0801 22.0701 21.5201 21.8001 21.8001C21.6601 21.9301 21.4801 22.0001 21.3001 22.0001Z" />
<path d="M14.2 10.95H12.45V9.19995C12.45 8.78995 12.11 8.44995 11.7 8.44995C11.29 8.44995 10.95 8.78995 10.95 9.19995V10.95H9.19995C8.78995 10.95 8.44995 11.29 8.44995 11.7C8.44995 12.11 8.78995 12.45 9.19995 12.45H10.95V14.2C10.95 14.61 11.29 14.95 11.7 14.95C12.11 14.95 12.45 14.61 12.45 14.2V12.45H14.2C14.61 12.45 14.95 12.11 14.95 11.7C14.95 11.29 14.61 10.95 14.2 10.95Z" />
</svg>
