<?xml version="1.0" encoding="UTF-8"?>
<svg width="24" height="24" viewBox="0 0 24 24" xmlns="http://www.w3.org/2000/svg">
 <path d="m14.2 12.449h-5c-0.41 0-0.75-0.34-0.75-0.75s0.34-0.75 0.75-0.75h5c0.41 0 0.75 0.34 0.75 0.75s-0.34 0.75-0.75 0.75z"/>
 <path d="m11.7 14.949c-0.41 0-0.75-0.34-0.75-0.75v-5c0-0.41 0.34-0.75 0.75-0.75s0.75 0.34 0.75 0.75v5c0 0.41-0.34 0.75-0.75 0.75z"/>
 <path d="m11.5 21.75c-5.65 0-10.25-4.6-10.25-10.25s4.6-10.25 10.25-10.25 10.25 4.6 10.25 10.25-4.6 10.25-10.25 10.25zm0-19c-4.83 0-8.75 3.93-8.75 8.75s3.92 8.75 8.75 8.75 8.75-3.93 8.75-8.75-3.92-8.75-8.75-8.75z"/>
 <path d="m22 22.75c-0.19 0-0.38-0.07-0.53-0.22l-2-2c-0.29-0.29-0.29-0.77 0-1.06s0.77-0.29 1.06 0l2 2c0.29 0.29 0.29 0.77 0 1.06-0.15 0.15-0.34 0.22-0.53 0.22z"/>
</svg>
