<?xml version="1.0" encoding="UTF-8"?>
<svg width="24" height="24" viewBox="0 0 24 24" xmlns="http://www.w3.org/2000/svg">
 <path d="m11 20.75c-5.38 0-9.75-4.37-9.75-9.75s4.37-9.75 9.75-9.75c0.41 0 0.75 0.34 0.75 0.75s-0.34 0.75-0.75 0.75c-4.55 0-8.25 3.7-8.25 8.25s3.7 8.25 8.25 8.25 8.25-3.7 8.25-8.25c0-0.41 0.34-0.75 0.75-0.75s0.75 0.34 0.75 0.75c0 5.38-4.37 9.75-9.75 9.75z"/>
 <path d="m16.5 9.5392c-0.92 0-3.06-1.12-3.72-3.18-0.45-1.41 0.07-3.26 1.7-3.79 0.7-0.23 1.43-0.12 2.01 0.25 0.57-0.37 1.32-0.47 2.02-0.25 1.63 0.53 2.16 2.38 1.7 3.79-0.65 2.1-2.9 3.18-3.71 3.18zm-2.29-3.63c0.46 1.45 2.02 2.11 2.3 2.14 0.32-0.03 1.85-0.77 2.27-2.13 0.23-0.73 0-1.67-0.73-1.91-0.31-0.1-0.73-0.04-0.93 0.25-0.14 0.21-0.36 0.33-0.61 0.34-0.23 0.01-0.48-0.11-0.62-0.31-0.23-0.33-0.65-0.38-0.95-0.29-0.72 0.24-0.96 1.18-0.73 1.91z"/>
 <path d="m20.16 22.79c-0.08 0-0.16-0.01-0.23-0.02-0.47-0.06-1.32-0.38-1.8-1.81-0.25-0.75-0.16-1.5 0.25-2.07s1.1-0.89 1.89-0.89c1.02 0 1.82 0.39 2.18 1.08s0.26 1.57-0.31 2.42c-0.71 1.07-1.48 1.29-1.98 1.29zm-0.6-2.3c0.17 0.52 0.41 0.78 0.57 0.8s0.46-0.17 0.77-0.62c0.29-0.43 0.31-0.74 0.24-0.88s-0.35-0.29-0.87-0.29c-0.31 0-0.54 0.1-0.67 0.27-0.12 0.17-0.14 0.43-0.04 0.72z"/>
</svg>
