<svg width="24" height="24" viewBox="0 0 24 24"  xmlns="http://www.w3.org/2000/svg">
<path opacity="0.4" d="M11 20.01C15.9761 20.01 20.01 15.9761 20.01 11C20.01 6.0239 15.9761 1.98999 11 1.98999C6.0239 1.98999 1.98999 6.0239 1.98999 11C1.98999 15.9761 6.0239 20.01 11 20.01Z" />
<path d="M12.7699 8.28997C12.1399 8.08997 11.4699 8.20997 10.9899 8.57997C10.4999 8.20997 9.84993 8.08997 9.21993 8.28997C7.85993 8.72997 7.42993 10.28 7.80993 11.46C8.38993 13.27 10.2999 14.21 10.9899 14.21C11.6599 14.21 13.6099 13.25 14.1699 11.46C14.5599 10.28 14.1299 8.72997 12.7699 8.28997Z" />
<path d="M21.9901 18.95C21.6601 18.34 20.9601 18 20.0201 18C19.3101 18 18.7001 18.29 18.3401 18.79C17.9801 19.29 17.9001 19.96 18.1201 20.63C18.5501 21.93 19.3001 22.22 19.7101 22.27C19.7701 22.28 19.8301 22.28 19.9001 22.28C20.3401 22.28 21.0201 22.09 21.6801 21.1C22.2101 20.33 22.3101 19.56 21.9901 18.95Z" />
</svg>
