<svg width="24" height="24" viewBox="0 0 24 24"  xmlns="http://www.w3.org/2000/svg">
<path d="M14.2002 12.4492H9.2002C8.7902 12.4492 8.4502 12.1092 8.4502 11.6992C8.4502 11.2892 8.7902 10.9492 9.2002 10.9492H14.2002C14.6102 10.9492 14.9502 11.2892 14.9502 11.6992C14.9502 12.1092 14.6102 12.4492 14.2002 12.4492Z" />
<path d="M11.7002 14.9492C11.2902 14.9492 10.9502 14.6092 10.9502 14.1992V9.19922C10.9502 8.78922 11.2902 8.44922 11.7002 8.44922C12.1102 8.44922 12.4502 8.78922 12.4502 9.19922V14.1992C12.4502 14.6092 12.1102 14.9492 11.7002 14.9492Z" />
<path d="M11.5 21.75C5.85 21.75 1.25 17.15 1.25 11.5C1.25 5.85 5.85 1.25 11.5 1.25C17.15 1.25 21.75 5.85 21.75 11.5C21.75 17.15 17.15 21.75 11.5 21.75ZM11.5 2.75C6.67 2.75 2.75 6.68 2.75 11.5C2.75 16.32 6.67 20.25 11.5 20.25C16.33 20.25 20.25 16.32 20.25 11.5C20.25 6.68 16.33 2.75 11.5 2.75Z" />
<path d="M21.9999 22.7495C21.8099 22.7495 21.6199 22.6795 21.4699 22.5295L19.4699 20.5295C19.1799 20.2395 19.1799 19.7595 19.4699 19.4695C19.7599 19.1795 20.2399 19.1795 20.5299 19.4695L22.5299 21.4695C22.8199 21.7595 22.8199 22.2395 22.5299 22.5295C22.3799 22.6795 22.1899 22.7495 21.9999 22.7495Z" />
</svg>
