<?xml version="1.0" encoding="UTF-8"?>
<svg width="24" height="24" viewBox="0 0 24 24" xmlns="http://www.w3.org/2000/svg">
 <path d="m12 22.76c-1.09 0-2.17-0.32-3.02-0.95l-4.3-3.21c-1.14-0.85-2.03-2.63-2.03-4.04v-7.44c0-1.54 1.13-3.18 2.58-3.72l4.99-1.87c0.99-0.37 2.55-0.37 3.54 0l4.99 1.87c1.45 0.54 2.58 2.18 2.58 3.72v7.43c0 1.42-0.89 3.19-2.03 4.04l-4.3 3.21c-0.83 0.64-1.91 0.96-3 0.96zm-1.25-19.82-4.99 1.87c-0.85 0.32-1.6 1.4-1.6 2.32v7.43c0 0.95 0.66999 2.28 1.42 2.84l4.3 3.21c1.15 0.86 3.09 0.86 4.25 0l4.3-3.21c0.76-0.57 1.42-1.89 1.42-2.84v-7.44c0-0.91-0.75-1.99-1.6-2.32l-4.99-1.87c-0.68-0.24-1.84-0.24-2.51 0.01z"/>
 <path d="m12 16.25c-2.62 0-4.75-2.13-4.75-4.75s2.13-4.75 4.75-4.75 4.75 2.13 4.75 4.75-2.13 4.75-4.75 4.75zm0-8c-1.79 0-3.25 1.46-3.25 3.25s1.46 3.25 3.25 3.25 3.25-1.46 3.25-3.25-1.46-3.25-3.25-3.25z"/>
 <path d="m11 13.25c-0.25 0-0.5-0.13-0.64-0.36-0.21-0.36-0.1-0.82 0.26-1.03l0.76-0.46c0.08-0.05 0.12-0.13 0.12-0.21v-0.93c0-0.41003 0.34-0.75003 0.75-0.75003s0.75 0.33 0.75 0.74003v0.93c0 0.61-0.33 1.19-0.85 1.5l-0.77 0.46c-0.11 0.08-0.25 0.11-0.38 0.11z"/>
</svg>
