<svg width="24" height="24" viewBox="0 0 24 24"  xmlns="http://www.w3.org/2000/svg">
<path opacity="0.4" d="M20.9101 11.1198C20.9101 16.0098 17.3601 20.5898 12.5101 21.9298C12.1801 22.0198 11.8201 22.0198 11.4901 21.9298C6.64008 20.5898 3.09009 16.0098 3.09009 11.1198V6.72982C3.09009 5.90982 3.7101 4.97982 4.4801 4.66982L10.0501 2.38982C11.3001 1.87982 12.7101 1.87982 13.9601 2.38982L19.5301 4.66982C20.2901 4.97982 20.9201 5.90982 20.9201 6.72982L20.9101 11.1198Z" />
<path d="M14.5 10.5C14.5 9.12 13.38 8 12 8C10.62 8 9.5 9.12 9.5 10.5C9.5 11.62 10.24 12.55 11.25 12.87V15.5C11.25 15.91 11.59 16.25 12 16.25C12.41 16.25 12.75 15.91 12.75 15.5V12.87C13.76 12.55 14.5 11.62 14.5 10.5Z" />
</svg>
