<?xml version="1.0" encoding="UTF-8"?>
<svg width="24" height="24" viewBox="0 0 24 24" xmlns="http://www.w3.org/2000/svg">
 <path d="m12 22.75c-0.24 0-0.4799-0.03-0.7099-0.1-5.19-1.43-8.9501-6.28-8.9501-11.54v-4.39c0-1.12 0.81001-2.33 1.85-2.76l5.57-2.28c1.45-0.59 3.0399-0.59 4.4799 0l5.57 2.28c1.04 0.43 1.8501 1.64 1.8501 2.76v4.39c0 5.25-3.7701 10.1-8.9501 11.54-0.23 0.07-0.47 0.1-0.71 0.1zm0-20c-0.57 0-1.13 0.11002-1.67 0.33002l-5.5699 2.28c-0.48 0.2-0.92002 0.84999-0.92002 1.37v4.39c0 4.59 3.3 8.83 7.85 10.09 0.2 0.06 0.42 0.06 0.62 0 4.55-1.26 7.8501-5.5 7.8501-10.09v-4.39c0-0.52-0.4401-1.17-0.9201-1.37l-5.5699-2.28c-0.54-0.22-1.1001-0.33002-1.6701-0.33002z"/>
 <path d="m12 13.25c-1.52 0-2.75-1.23-2.75-2.75s1.23-2.75 2.75-2.75 2.75 1.23 2.75 2.75-1.23 2.75-2.75 2.75zm0-4c-0.69 0-1.25 0.56-1.25 1.25s0.56 1.25 1.25 1.25 1.25-0.56 1.25-1.25-0.56-1.25-1.25-1.25z"/>
 <path d="m12 16.25c-0.41 0-0.75-0.34-0.75-0.75v-3c0-0.41 0.34-0.75 0.75-0.75s0.75 0.34 0.75 0.75v3c0 0.41-0.34 0.75-0.75 0.75z"/>
</svg>
