<?xml version="1.0" encoding="UTF-8"?>
<svg width="24" height="24" viewBox="0 0 24 24" xmlns="http://www.w3.org/2000/svg">
 <path d="m10.56 22.71c-1.08 0-2.17-0.31-3.01-0.94l-4.28-3.2c-1.13-0.84-2.01-2.61-2.01-4.03v-7.41c0-1.53 1.12-3.16 2.56-3.7l4.98-1.87c0.99-0.37 2.54-0.37 3.53 0l4.97 1.87c1.17 0.44 2.16 1.61 2.48 2.91 0.05 0.22 0 0.46001-0.14 0.64001s-0.36 0.28998-0.59 0.28998l-7.91 0.01001c-1.27 0.08-1.58 0.29002-1.58 2.14v5.43c0 1.91 0.25 2.15 2.19 2.15h5.92c0.31 0 0.59 0.19 0.7 0.48s0.03 0.62-0.2 0.83c-0.11 0.09-0.2 0.18-0.31 0.26l-4.28 3.21c-0.86 0.62-1.94 0.93-3.02 0.93zm0-19.92c-0.45 0-0.91002 0.06-1.24 0.19l-4.98 1.87c-0.84 0.32-1.59 1.39-1.59 2.3v7.41c0 0.94 0.66 2.26 1.41 2.82l4.28 3.2c1.15 0.85 3.08 0.85 4.23 0l2.77-2.07h-3.7c-2.76 0-3.69-0.92-3.69-3.65v-5.43c0-2.13 0.51-3.48 3.04-3.64l0.65-0.01001h6.15c-0.3-0.43-0.7-0.76999-1.12-0.92999l-4.97-1.87c-0.34-0.13-0.79-0.19-1.24-0.19z"/>
 <path d="m22 11.97h-13.2c-0.41 0-0.75-0.34-0.75-0.75s0.34-0.75 0.75-0.75h13.2c0.41 0 0.75 0.34 0.75 0.75s-0.34 0.75-0.75 0.75z"/>
 <path d="m19.06 18.5h-7.32c-2.76 0-3.69-0.92-3.69-3.65v-5.43c0-2.13 0.51-3.48 3.04-3.64l0.65-0.01001h7.32c2.76 0 3.69 0.92002 3.69 3.65v5.55c-0.02 2.64-0.95 3.53-3.69 3.53zm-7.32-11.23-0.61 0.01001c-1.27 0.08-1.58 0.29001-1.58 2.14v5.43c0 1.91 0.25001 2.15 2.19 2.15h7.32c1.91 0 2.17-0.25 2.19-2.03v-5.54c0-1.91-0.25-2.15-2.19-2.15h-7.32v-0.01001z"/>
 <path d="m12.65 16.01h-1.34c-0.41 0-0.75-0.34-0.75-0.75s0.34-0.75 0.75-0.75h1.34c0.41 0 0.75 0.34 0.75 0.75s-0.33 0.75-0.75 0.75z"/>
 <path d="m18.02 16.01h-3.27c-0.41 0-0.75-0.34-0.75-0.75s0.34-0.75 0.75-0.75h3.27c0.41 0 0.75 0.34 0.75 0.75s-0.33 0.75-0.75 0.75z"/>
</svg>
