<svg width="24" height="24" viewBox="0 0 24 24"  xmlns="http://www.w3.org/2000/svg">
<path d="M11.9999 22.7604C10.9099 22.7604 9.82992 22.4404 8.97992 21.8104L4.6799 18.6004C3.5399 17.7504 2.6499 15.9704 2.6499 14.5604V7.12043C2.6499 5.58043 3.77992 3.94043 5.22992 3.40043L10.2199 1.53043C11.2099 1.16043 12.7699 1.16043 13.7599 1.53043L18.7499 3.40043C20.1999 3.94043 21.3299 5.58043 21.3299 7.12043V14.5504C21.3299 15.9704 20.4399 17.7404 19.2999 18.5904L14.9999 21.8004C14.1699 22.4404 13.0899 22.7604 11.9999 22.7604ZM10.7499 2.94043L5.75992 4.81043C4.90992 5.13043 4.15991 6.21043 4.15991 7.13043V14.5604C4.15991 15.5104 4.8299 16.8404 5.5799 17.4004L9.87991 20.6104C11.0299 21.4704 12.9699 21.4704 14.1299 20.6104L18.4299 17.4004C19.1899 16.8304 19.8499 15.5104 19.8499 14.5604V7.12043C19.8499 6.21043 19.0999 5.13043 18.2499 4.80043L13.2599 2.93043C12.5799 2.69043 11.4199 2.69043 10.7499 2.94043Z" />
<path d="M12 16.2504C9.38 16.2504 7.25 14.1204 7.25 11.5004C7.25 8.88043 9.38 6.75043 12 6.75043C14.62 6.75043 16.75 8.88043 16.75 11.5004C16.75 14.1204 14.62 16.2504 12 16.2504ZM12 8.25043C10.21 8.25043 8.75 9.71043 8.75 11.5004C8.75 13.2904 10.21 14.7504 12 14.7504C13.79 14.7504 15.25 13.2904 15.25 11.5004C15.25 9.71043 13.79 8.25043 12 8.25043Z" />
<path d="M10.9999 13.2504C10.7499 13.2504 10.4999 13.1204 10.3599 12.8904C10.1499 12.5304 10.2599 12.0704 10.6199 11.8604L11.3799 11.4004C11.4599 11.3504 11.4999 11.2704 11.4999 11.1904V10.2604C11.4999 9.85044 11.8399 9.51044 12.2499 9.51044C12.6599 9.51044 12.9999 9.84044 12.9999 10.2504V11.1804C12.9999 11.7904 12.6699 12.3704 12.1499 12.6804L11.3799 13.1404C11.2699 13.2204 11.1299 13.2504 10.9999 13.2504Z" />
</svg>
