<?xml version="1.0" encoding="UTF-8"?>
<svg width="24" height="24" viewBox="0 0 24 24" xmlns="http://www.w3.org/2000/svg">
 <path d="m12 22.76c-1.09 0-2.17-0.32-3.02-0.95l-4.3-3.21c-1.14-0.85-2.03-2.62-2.03-4.04v-7.43c0-1.54 1.13-3.18 2.58-3.72l4.99-1.87c0.99-0.37 2.55-0.37 3.54 0l5 1.87c1.45 0.54 2.58 2.18 2.58 3.72v7.43c0 1.42-0.89 3.19-2.03 4.04l-4.3 3.21c-0.84 0.63-1.92 0.95-3.01 0.95zm-1.25-19.82-4.99 1.87c-0.86 0.32-1.61 1.4-1.61 2.32v7.43c0 0.95 0.67002 2.28 1.42 2.84l4.3 3.21c1.15 0.86 3.1 0.86 4.25 0l4.3-3.21c0.76-0.57 1.42-1.9 1.42-2.84v-7.43c0-0.91-0.75-1.99-1.61-2.32l-4.99-1.87c-0.66-0.25-1.82-0.25-2.49 0z"/>
 <path d="m12 11.67h-0.07c-1.45-0.04-2.51-1.15-2.51-2.5 0-1.38 1.13-2.51 2.51-2.51s2.51 1.13 2.51 2.51c-0.01 1.36-1.07 2.4599-2.42 2.5099-0.01-0.01-0.01-0.0099-0.02-0.0099zm-0.07-3.51c-0.56 0-1.01 0.45001-1.01 1.01 0 0.55 0.43 0.98993 0.97 1.0099h0.11c0.53-0.03 0.94-0.46993 0.94-1.0099 0.01-0.56-0.45-1.01-1.01-1.01z"/>
 <path d="m12 17.35c-0.86 0-1.73-0.23-2.4-0.68-0.67-0.44-1.05-1.09-1.05-1.78s0.38002-1.34 1.05-1.79c1.35-0.9 3.46-0.89 4.8 0 0.67 0.44 1.05 1.09 1.05 1.78s-0.38 1.34-1.05 1.79-1.54 0.68-2.4 0.68zm-1.57-3.01c-0.25 0.16-0.39 0.36-0.38 0.54 0 0.18 0.14 0.38 0.38 0.54 0.84 0.56 2.3 0.56 3.14 0 0.25-0.16 0.39-0.36 0.39-0.54s-0.14-0.38-0.38-0.54c-0.84-0.55-2.31-0.55-3.15 0z"/>
</svg>
