<svg width="24" height="24" viewBox="0 0 24 24"  xmlns="http://www.w3.org/2000/svg">
<path opacity="0.4" d="M9.42001 2.15994L3.92001 4.21994C2.87001 4.60994 2.01001 5.85993 2.01001 6.97993V15.0799C2.01001 15.8899 2.54002 16.9599 3.19002 17.4399L8.69002 21.5499C9.66002 22.2799 11.25 22.2799 12.22 21.5499L17.72 17.4399C18.37 16.9499 18.9 15.8899 18.9 15.0799V6.97993C18.9 5.85993 18.04 4.60994 16.99 4.21994L11.49 2.15994C10.92 1.94994 9.99001 1.94994 9.42001 2.15994Z" />
<path d="M19.2599 6.75977H12.4099C12.2099 6.75977 12.0199 6.76978 11.8399 6.76978C10.1199 6.86978 9.65991 7.49978 9.65991 9.45978V9.84978C9.65991 10.264 9.9957 10.5998 10.4099 10.5998H21.2499C21.6641 10.5998 21.9999 10.264 21.9999 9.84978V9.45978C21.9999 7.29978 21.4499 6.75977 19.2599 6.75977Z" />
<path d="M10.4199 11.7002C10.0057 11.7002 9.66992 12.036 9.66992 12.4502V14.5402C9.66992 16.7002 10.2199 17.2502 12.4099 17.2502H19.2599C21.4099 17.2502 21.9799 16.7302 21.9999 14.6602V12.4502C21.9999 12.036 21.6641 11.7002 21.2499 11.7002H10.4199ZM13.2699 15.4702H12.0199C11.7199 15.4702 11.4799 15.2302 11.4799 14.9302C11.4799 14.6302 11.7199 14.3902 12.0199 14.3902H13.2699C13.5699 14.3902 13.8099 14.6302 13.8099 14.9302C13.8099 15.2302 13.5699 15.4702 13.2699 15.4702ZM17.3199 15.4702H14.8299C14.5299 15.4702 14.2899 15.2302 14.2899 14.9302C14.2899 14.6302 14.5299 14.3902 14.8299 14.3902H17.3199C17.6199 14.3902 17.8599 14.6302 17.8599 14.9302C17.8699 15.2302 17.6199 15.4702 17.3199 15.4702Z" />
</svg>
