<?xml version="1.0" encoding="UTF-8"?>
<svg width="24" height="24" viewBox="0 0 24 24" xmlns="http://www.w3.org/2000/svg">
 <path d="m15 22.75h-6c-5.43 0-7.75-2.32-7.75-7.75v-6c0-5.43 2.32-7.75 7.75-7.75h6c5.43 0 7.75 2.32 7.75 7.75v6c0 5.43-2.32 7.75-7.75 7.75zm-6-20c-4.61 0-6.25 1.64-6.25 6.25v6c0 4.61 1.64 6.25 6.25 6.25h6c4.61 0 6.25-1.64 6.25-6.25v-6c0-4.61-1.64-6.25-6.25-6.25h-6z"/>
 <path d="m15 10.26c-0.19 0-0.38-0.0701-0.53-0.2201l-2.47-2.4699-2.47 2.4699c-0.29 0.29-0.77 0.29-1.06 0-0.29-0.28995-0.29-0.76995 0-1.06l3-3c0.29-0.29 0.77-0.29 1.06 0l3 3c0.29 0.29 0.29 0.77 0 1.06-0.15 0.15-0.34 0.2201-0.53 0.2201z"/>
 <path d="m12 15.26c-0.41 0-0.75-0.34-0.75-0.75v-8c0-0.41 0.34-0.75 0.75-0.75s0.75 0.34 0.75 0.75v8c0 0.42-0.34 0.75-0.75 0.75z"/>
 <path d="m12 18.23c-2.11 0-4.23-0.34-6.24-1.01-0.39-0.13-0.6-0.56-0.47-0.95s0.56001-0.61 0.95001-0.47c3.72 1.24 7.81 1.24 11.53 0 0.39-0.13 0.82 0.08 0.95 0.47s-0.08 0.82-0.47 0.95c-2.02 0.68-4.14 1.01-6.25 1.01z"/>
</svg>
