<?xml version="1.0" encoding="UTF-8"?>
<svg width="24" height="24" viewBox="0 0 24 24" xmlns="http://www.w3.org/2000/svg">
 <path d="m15 22.75h-6c-5.43 0-7.75-2.32-7.75-7.75v-6c0-5.43 2.32-7.75 7.75-7.75h6c5.43 0 7.75 2.32 7.75 7.75v6c0 5.43-2.32 7.75-7.75 7.75zm-6-20c-4.61 0-6.25 1.64-6.25 6.25v6c0 4.61 1.64 6.25 6.25 6.25h6c4.61 0 6.25-1.64 6.25-6.25v-6c0-4.61-1.64-6.25-6.25-6.25h-6z"/>
 <path d="m14.83 12.68c-0.41 0-0.75-0.34-0.75-0.75v-3.49h-3.49c-0.41 0-0.74996-0.34-0.74996-0.75s0.33996-0.75 0.74996-0.75h4.24c0.41 0 0.75 0.34 0.75 0.75v4.24c0 0.41-0.34 0.75-0.75 0.75z"/>
 <path d="m9.1699 14.09c-0.19 0-0.38-0.07-0.53-0.22-0.29-0.29-0.29-0.77 0-1.06l5.66-5.66c0.29-0.29 0.77-0.29 1.06 0s0.29 0.77001 0 1.06l-5.66 5.66c-0.14 0.15-0.34 0.22-0.53 0.22z"/>
 <path d="m12 18.23c-2.11 0-4.23-0.34-6.24-1.01-0.39-0.13-0.6-0.56-0.47-0.95s0.56001-0.61 0.95001-0.47c3.72 1.24 7.81 1.24 11.53 0 0.39-0.13 0.82 0.08 0.95 0.47s-0.08 0.82-0.47 0.95c-2.02 0.68-4.14 1.01-6.25 1.01z"/>
</svg>
