<?xml version="1.0" encoding="UTF-8"?>
<svg width="24" height="24" viewBox="0 0 24 24" xmlns="http://www.w3.org/2000/svg">
 <path d="m14.22 21.63c-1.18 0-2.85-0.83-4.17-4.8l-0.72002-2.16-2.16-0.72c-3.96-1.32-4.79-2.99-4.79-4.17 0-1.17 0.83-2.85 4.79-4.18l8.49-2.83c2.12-0.71 3.89-0.5 4.98 0.58s1.3 2.86 0.59 4.98l-2.83 8.49c-1.33 3.98-3 4.81-4.18 4.81zm-6.58-14.6c-2.78 0.93-3.77 2.03-3.77 2.75s0.99 1.82 3.77 2.74l2.52 0.84c0.22 0.07 0.4 0.25 0.47 0.47l0.84 2.52c0.92 2.78 2.03 3.77 2.75 3.77s1.82-0.99 2.75-3.77l2.83-8.49c0.51-1.54 0.42-2.8-0.23-3.45s-1.91-0.73-3.44-0.22l-8.49 2.84z"/>
 <path d="m10.11 14.4c-0.19 0-0.38-0.07-0.53-0.22-0.29-0.29-0.29-0.77 0-1.06l3.58-3.59c0.29-0.29 0.77-0.29 1.06 0s0.29 0.77 0 1.06l-3.58 3.59c-0.14 0.15-0.34 0.22-0.53 0.22z"/>
</svg>
