<svg width="24" height="24" viewBox="0 0 24 24"  xmlns="http://www.w3.org/2000/svg">
<path opacity="0.4" d="M20.5 22.7999H3.49995C3.09995 22.7999 2.69995 22.5 2.69995 22C2.69995 21.5 2.99995 21.2 3.49995 21.2H20.5C20.9 21.2 21.2999 21.5 21.2999 22C21.2999 22.5 20.9 22.7999 20.5 22.7999Z" />
<path d="M18.9999 18.1999C18.7999 18.1999 18.5999 18.0999 18.4999 17.9999L4.4999 3.9999C4.1999 3.6999 4.1999 3.2999 4.4999 2.9999C4.7999 2.6999 5.2999 2.6999 5.5999 2.9999L19.5999 16.9999C19.8999 17.2999 19.8999 17.7999 19.5999 18.0999C19.3999 18.1999 19.1999 18.1999 18.9999 18.1999Z" />
<path d="M4.99995 14.5C4.59995 14.5 4.19995 14.2 4.19995 13.7V3.49995C4.19995 3.09995 4.49995 2.69995 4.99995 2.69995H15.3C15.7 2.69995 16.1 2.99995 16.1 3.49995C16.1 3.99995 15.8 4.29995 15.3 4.29995H5.79995V13.8C5.79995 14.2 5.39995 14.5 4.99995 14.5Z" />
</svg>
