<?xml version="1.0" encoding="UTF-8"?>
<svg width="24" height="24" viewBox="0 0 24 24" xmlns="http://www.w3.org/2000/svg">
 <path d="m12 15.75c-2.07 0-3.75-1.68-3.75-3.75s1.68-3.75 3.75-3.75 3.75 1.68 3.75 3.75-1.68 3.75-3.75 3.75zm0-6c-1.24 0-2.25 1.01-2.25 2.25s1.01 2.25 2.25 2.25 2.25-1.01 2.25-2.25-1.01-2.25-2.25-2.25z"/>
 <path d="m15.21 22.19c-0.21 0-0.42-0.03-0.63-0.08-0.62-0.17-1.14-0.56-1.47-1.11l-0.12-0.2c-0.59-1.02-1.4-1.02-1.99 0l-0.11 0.19c-0.33 0.56-0.85 0.96-1.47 1.12-0.63 0.17-1.28 0.08-1.83-0.25l-1.72-0.99c-0.61-0.35-1.05-0.92-1.24-1.61-0.18-0.69-0.09-1.4 0.26-2.01 0.29-0.51 0.37-0.97 0.2-1.26s-0.6-0.46-1.19-0.46c-1.46 0-2.65-1.19-2.65-2.65v-1.76c0-1.46 1.19-2.65 2.65-2.65 0.59 0 1.02-0.17 1.19-0.46s0.1-0.75-0.2-1.26c-0.35-0.61-0.44-1.33-0.26-2.01 0.18-0.69 0.62-1.26 1.24-1.61l1.73-0.99c1.13-0.67 2.62-0.28 3.3 0.87l0.12 0.2c0.59 1.02 1.4 1.02 1.99 0l0.11-0.19c0.68-1.16 2.17-1.55 3.31-0.87l1.72 0.99c0.61 0.35 1.05 0.92 1.24 1.61 0.18 0.69 0.09 1.4-0.26 2.01-0.29 0.51-0.37 0.97-0.2 1.26s0.6 0.46 1.19 0.46c1.46 0 2.65 1.19 2.65 2.65v1.76c0 1.46-1.19 2.65-2.65 2.65-0.59 0-1.02 0.17-1.19 0.46s-0.1 0.75 0.2 1.26c0.35 0.61 0.45 1.33 0.26 2.01-0.18 0.69-0.62 1.26-1.24 1.61l-1.73 0.99c-0.38 0.21-0.79 0.32-1.21 0.32zm-3.21-3.7c0.89 0 1.72 0.56 2.29 1.55l0.11 0.19c0.12 0.21 0.32 0.36 0.56 0.42s0.48 0.03 0.68-0.09l1.73-1c0.26-0.15 0.46-0.4 0.54-0.7s0.04-0.61-0.11-0.87c-0.57-0.98-0.64-1.99-0.2-2.76s1.35-1.21 2.49-1.21c0.64 0 1.15-0.51 1.15-1.15v-1.76c0-0.63-0.51-1.15-1.15-1.15-1.14 0-2.05-0.44-2.49-1.21s-0.37-1.78 0.2-2.76c0.15-0.26 0.19-0.57 0.11-0.87s-0.27-0.54-0.53-0.7l-1.73-0.99c-0.43-0.26-1-0.11-1.26 0.33l-0.11 0.19c-0.57 0.99-1.4 1.55-2.29 1.55s-1.72-0.56-2.29-1.55l-0.11-0.2c-0.25-0.42-0.81-0.57-1.24-0.32l-1.73 1c-0.26 0.15-0.46 0.4-0.54 0.7s-0.04 0.61 0.11 0.87c0.57 0.98 0.64 1.99 0.2 2.76s-1.35 1.21-2.49 1.21c-0.64 0-1.15 0.51001-1.15 1.15v1.76c0 0.63 0.51 1.15 1.15 1.15 1.14 0 2.05 0.44 2.49 1.21s0.37 1.78-0.2 2.76c-0.15 0.26-0.19 0.57-0.11 0.87s0.27 0.54 0.53 0.7l1.73 0.99c0.21 0.13 0.46 0.16 0.69 0.1 0.24-0.06 0.44-0.22 0.57-0.43l0.11-0.19c0.57-0.98 1.4-1.55 2.29-1.55z"/>
</svg>
