<?xml version="1.0" encoding="UTF-8"?>
<svg width="24" height="24" viewBox="0 0 24 24" xmlns="http://www.w3.org/2000/svg">
 <path d="m12 22.63c-0.67 0-1.35-0.15-1.88-0.46l-5.5-3.17c-2.24-1.51-2.38-1.74-2.38-4.11v-5.78c0-2.37 0.13-2.6 2.33-4.09l5.54-3.2c1.05-0.61 2.7-0.61 3.75 0l5.52 3.18c2.24 1.51 2.38 1.74 2.38 4.11v5.77c0 2.37-0.13 2.6-2.33 4.09l-5.54 3.2c-0.54 0.31-1.22 0.46-1.89 0.46zm0-19.76c-0.42 0-0.83 0.08-1.12 0.25l-5.5 3.18c-1.63 1.1-1.63 1.1-1.63 2.81v5.77c0 1.71 0 1.71 1.67 2.84l5.46 3.15c0.59 0.34 1.66 0.34 2.25 0l5.5-3.18c1.62-1.1 1.62-1.1 1.62-2.81v-5.77c0-1.71 0-1.71-1.67-2.84l-5.46-3.15c-0.29-0.17-0.7-0.25-1.12-0.25z"/>
 <path d="m12 15.75c-2.07 0-3.75-1.68-3.75-3.75s1.68-3.75 3.75-3.75 3.75 1.68 3.75 3.75-1.68 3.75-3.75 3.75zm0-6c-1.24 0-2.25 1.01-2.25 2.25s1.01 2.25 2.25 2.25 2.25-1.01 2.25-2.25-1.01-2.25-2.25-2.25z"/>
</svg>
