<?xml version="1.0" encoding="UTF-8"?>
<svg width="24" height="24" viewBox="0 0 24 24" xmlns="http://www.w3.org/2000/svg">
 <path d="m15 22.75h-6c-5.43 0-7.75-2.32-7.75-7.75v-6c0-5.43 2.32-7.75 7.75-7.75h6c5.43 0 7.75 2.32 7.75 7.75v6c0 5.43-2.32 7.75-7.75 7.75zm-6-20c-4.61 0-6.25 1.64-6.25 6.25v6c0 4.61 1.64 6.25 6.25 6.25h6c4.61 0 6.25-1.64 6.25-6.25v-6c0-4.61-1.64-6.25-6.25-6.25h-6z"/>
 <path d="m15.58 19.25c-0.41 0-0.75-0.34-0.75-0.75v-3.9c0-0.41 0.34-0.75 0.75-0.75s0.75 0.34 0.75 0.75v3.9c0 0.41-0.34 0.75-0.75 0.75z"/>
 <path d="m15.58 8.2c-0.41 0-0.75-0.34-0.75-0.75v-1.95c0-0.41 0.34-0.75 0.75-0.75s0.75 0.34 0.75 0.75v1.95c0 0.41-0.34 0.75-0.75 0.75z"/>
 <path d="m15.58 13.4c-1.85 0-3.35-1.5-3.35-3.35s1.5-3.35 3.35-3.35 3.35 1.5 3.35 3.35-1.51 3.35-3.35 3.35zm0-5.2c-1.02 0-1.85 0.83-1.85 1.85s0.83 1.85 1.85 1.85 1.85-0.83 1.85-1.85-0.84-1.85-1.85-1.85z"/>
 <path d="m8.4199 19.25c-0.41 0-0.75-0.34-0.75-0.75v-1.95c0-0.41 0.34-0.75 0.75-0.75s0.75 0.34 0.75 0.75v1.95c0 0.41-0.33 0.75-0.75 0.75z"/>
 <path d="m8.4199 10.15c-0.41 0-0.75-0.34-0.75-0.75v-3.9c0-0.41 0.34-0.75 0.75-0.75s0.75 0.34 0.75 0.75v3.9c0 0.41-0.33 0.75-0.75 0.75z"/>
 <path d="m8.4198 17.3c-1.85 0-3.35-1.5-3.35-3.35s1.5-3.35 3.35-3.35c1.85 0 3.35 1.5 3.35 3.35s-1.5 3.35-3.35 3.35zm0-5.2c-1.02 0-1.85 0.83-1.85 1.85s0.83 1.85 1.85 1.85 1.85-0.83 1.85-1.85-0.81998-1.85-1.85-1.85z"/>
</svg>
