<?xml version="1.0" encoding="UTF-8"?>
<svg width="24" height="24" viewBox="0 0 24 24" xmlns="http://www.w3.org/2000/svg">
 <path d="m19 22.75c-0.41 0-0.75-0.34-0.75-0.75v-11c0-0.41 0.34-0.75 0.75-0.75s0.75 0.34 0.75 0.75v11c0 0.41-0.34 0.75-0.75 0.75z"/>
 <path d="m19 7.75c-0.41 0-0.75-0.34-0.75-0.75v-5c0-0.41 0.34-0.75 0.75-0.75s0.75 0.34 0.75 0.75v5c0 0.41-0.34 0.75-0.75 0.75z"/>
 <path d="m12 22.75c-0.41 0-0.75-0.34-0.75-0.75v-5c0-0.41 0.34-0.75 0.75-0.75s0.75 0.34 0.75 0.75v5c0 0.41-0.34 0.75-0.75 0.75z"/>
 <path d="m12 13.75c-0.41 0-0.75-0.34-0.75-0.75v-11c0-0.41 0.34-0.75 0.75-0.75s0.75 0.34 0.75 0.75v11c0 0.41-0.34 0.75-0.75 0.75z"/>
 <path d="m5 22.75c-0.41 0-0.75-0.34-0.75-0.75v-11c0-0.41 0.34-0.75 0.75-0.75s0.75 0.34 0.75 0.75v11c0 0.41-0.34 0.75-0.75 0.75z"/>
 <path d="m5 7.75c-0.41 0-0.75-0.34-0.75-0.75v-5c0-0.41 0.34-0.75 0.75-0.75s0.75 0.34 0.75 0.75v5c0 0.41-0.34 0.75-0.75 0.75z"/>
 <path d="m7 11.75h-4c-0.41 0-0.75-0.34-0.75-0.75s0.34-0.75 0.75-0.75h4c0.41 0 0.75 0.34 0.75 0.75s-0.34 0.75-0.75 0.75z"/>
 <path d="m21 11.75h-4c-0.41 0-0.75-0.34-0.75-0.75s0.34-0.75 0.75-0.75h4c0.41 0 0.75 0.34 0.75 0.75s-0.34 0.75-0.75 0.75z"/>
 <path d="m14 13.75h-4c-0.41 0-0.75-0.34-0.75-0.75s0.34-0.75 0.75-0.75h4c0.41 0 0.75 0.34 0.75 0.75s-0.34 0.75-0.75 0.75z"/>
</svg>
