<svg width="24" height="24" viewBox="0 0 24 24"  xmlns="http://www.w3.org/2000/svg">
<path opacity="0.4" d="M16.19 2H7.81C4.17 2 2 4.17 2 7.81V16.18C2 19.83 4.17 22 7.81 22H16.18C19.82 22 21.99 19.83 21.99 16.19V7.81C22 4.17 19.83 2 16.19 2Z" />
<path d="M15.5801 19.25C15.1701 19.25 14.8301 18.91 14.8301 18.5V14.6C14.8301 14.19 15.1701 13.85 15.5801 13.85C15.9901 13.85 16.3301 14.19 16.3301 14.6V18.5C16.3301 18.91 15.9901 19.25 15.5801 19.25Z" />
<path d="M15.5801 8.2C15.1701 8.2 14.8301 7.86 14.8301 7.45V5.5C14.8301 5.09 15.1701 4.75 15.5801 4.75C15.9901 4.75 16.3301 5.09 16.3301 5.5V7.45C16.3301 7.86 15.9901 8.2 15.5801 8.2Z" />
<path d="M8.41992 19.25C8.00992 19.25 7.66992 18.91 7.66992 18.5V16.55C7.66992 16.14 8.00992 15.8 8.41992 15.8C8.82992 15.8 9.16992 16.14 9.16992 16.55V18.5C9.16992 18.91 8.83992 19.25 8.41992 19.25Z" />
<path d="M8.41992 10.15C8.00992 10.15 7.66992 9.81 7.66992 9.4V5.5C7.66992 5.09 8.00992 4.75 8.41992 4.75C8.82992 4.75 9.16992 5.09 9.16992 5.5V9.4C9.16992 9.81 8.83992 10.15 8.41992 10.15Z" />
<path d="M15.5801 7.32996C14.0801 7.32996 12.8501 8.54996 12.8501 10.05C12.8501 11.55 14.0701 12.78 15.5801 12.78C17.0801 12.78 18.3001 11.56 18.3001 10.05C18.3001 8.53996 17.0801 7.32996 15.5801 7.32996Z" />
<path d="M8.41995 11.23C6.91995 11.23 5.69995 12.45 5.69995 13.96C5.69995 15.47 6.91995 16.68 8.41995 16.68C9.91995 16.68 11.15 15.46 11.15 13.96C11.15 12.46 9.92995 11.23 8.41995 11.23Z" />
</svg>
