<?xml version="1.0" encoding="UTF-8"?>
<svg width="24" height="24" viewBox="0 0 24 24" xmlns="http://www.w3.org/2000/svg">
 <path d="m11.72 22.75h-4.5c-4.15 0-6-1.85-6-6v-4.5c0-4.15 1.85-6 6-6h4.5c4.15 0 6 1.85 6 6v4.5c0 4.15-1.85 6-6 6zm-4.5-15c-3.32 0-4.5 1.18-4.5 4.5v4.5c0 3.32 1.18 4.5 4.5 4.5h4.5c3.32 0 4.5-1.18 4.5-4.5v-4.5c0-3.32-1.18-4.5-4.5-4.5h-4.5z"/>
 <path d="m16.97 13.72c-0.19 0-0.37-0.07-0.51-0.2-0.16-0.14-0.24-0.34-0.24-0.55v-0.72c0-3.32-1.18-4.5-4.5-4.5h-0.72c-0.21 0-0.41-0.09-0.55-0.24-0.14-0.16-0.21-0.36-0.19-0.57 0.29-3.24 2.96-5.68 6.22-5.68 3.12 0 5.78 2.33 6.18 5.42 0.04 0.24 0.07 0.53 0.07 0.83 0 3.26-2.44 5.93-5.68 6.22-0.03-0.01-0.05-0.01-0.08-0.01zm-5.08-7.47c3.97 0.05 5.78 1.85 5.83 5.83 2.04-0.54 3.5-2.39 3.5-4.58 0-0.21-0.02-0.41-0.05-0.6-0.31-2.38-2.33-4.15-4.7-4.15-2.19 0-4.03 1.46-4.58 3.5z"/>
</svg>
