<?xml version="1.0" encoding="UTF-8"?>
<svg width="24" height="24" viewBox="0 0 24 24" xmlns="http://www.w3.org/2000/svg">
 <path d="m13.43 15.75h-9.03c-1.12 0-2.14-0.5799-2.71-1.5499s-0.59-2.1301-0.05-3.1201l4.51-8.21c0.56-1.02 1.59-1.63 2.76-1.63s2.2 0.61001 2.76 1.63l4.52 8.21c0.54 0.98 0.52 2.1501-0.05 3.1201s-1.59 1.5499-2.71 1.5499zm-4.52-13c-0.61 0-1.15 0.32001-1.44 0.85001l-4.51 8.21c-0.28 0.52-0.27 1.12 0.02 1.63 0.3 0.51 0.83 0.81 1.42 0.81h9.03c0.59 0 1.12-0.3 1.42-0.81s0.31-1.11 0.02-1.63l-4.52-8.21c-0.29-0.53-0.83-0.85001-1.44-0.85001z"/>
 <path d="m15.5 22.75c-4 0-7.25-3.25-7.25-7.25 0-0.18 0.01-0.36 0.02-0.54 0.02-0.4 0.35-0.71 0.75-0.71h4.41c0.59 0 1.12-0.3 1.42-0.81s0.31-1.11 0.02-1.63l-1.28-2.33c-0.12-0.21-0.12-0.46002-0.02-0.68002s0.3-0.36999 0.53-0.41999c0.45-0.09 0.92-0.13 1.4-0.13 4 0 7.25 3.25 7.25 7.25s-3.25 7.25-7.25 7.25zm-5.74-7c0.13 3.06 2.66 5.5 5.74 5.5 3.17 0 5.75-2.58 5.75-5.75s-2.58-5.75-5.75-5.75h-0.05l0.74 1.34c0.54 0.98 0.52 2.15-0.05 3.12s-1.58 1.55-2.71 1.55h-3.67v-0.01z"/>
</svg>
