<svg width="24" height="24" viewBox="0 0 24 24"  xmlns="http://www.w3.org/2000/svg">
<path d="M20.6201 13.0703C20.2401 13.0703 19.9201 12.7803 19.8701 12.4003C19.6301 10.1403 18.4101 8.09035 16.5301 6.79035C16.1901 6.55035 16.1101 6.09035 16.3401 5.75035C16.5801 5.41035 17.0501 5.33035 17.3801 5.56035C19.6201 7.11035 21.0601 9.55035 21.3501 12.2403C21.3901 12.6503 21.1001 13.0203 20.6801 13.0703C20.6701 13.0703 20.6401 13.0703 20.6201 13.0703Z" />
<path d="M3.48991 13.1203C3.45991 13.1203 3.43991 13.1203 3.40991 13.1203C2.99991 13.0703 2.69991 12.7003 2.73991 12.2903C3.00991 9.60026 4.43991 7.17026 6.64991 5.60026C6.98991 5.36026 7.45991 5.44026 7.69991 5.78026C7.93991 6.12026 7.85991 6.59026 7.51991 6.83026C5.65991 8.14026 4.45991 10.1903 4.22991 12.4503C4.19991 12.8303 3.86991 13.1203 3.48991 13.1203Z" />
<path d="M12.06 22.61C10.58 22.61 9.16997 22.27 7.84997 21.61C7.47997 21.42 7.32997 20.97 7.51997 20.6C7.70997 20.23 8.15997 20.08 8.52997 20.27C10.69 21.36 13.29 21.38 15.47 20.33C15.84 20.15 16.29 20.31 16.47 20.68C16.65 21.05 16.49 21.5 16.12 21.68C14.84 22.3 13.48 22.61 12.06 22.61Z" />
<path d="M12.0598 8.43988C10.1098 8.43988 8.52979 6.85988 8.52979 4.90988C8.52979 2.95988 10.1098 1.37988 12.0598 1.37988C14.0098 1.37988 15.5898 2.95988 15.5898 4.90988C15.5898 6.85988 13.9998 8.43988 12.0598 8.43988ZM12.0598 2.88988C10.9398 2.88988 10.0298 3.79988 10.0298 4.91988C10.0298 6.03988 10.9398 6.94988 12.0598 6.94988C13.1798 6.94988 14.0898 6.03988 14.0898 4.91988C14.0898 3.79988 13.1698 2.88988 12.0598 2.88988Z" />
<path d="M4.8298 20.6704C2.8798 20.6704 1.2998 19.0904 1.2998 17.1404C1.2998 15.2004 2.8798 13.6104 4.8298 13.6104C6.7798 13.6104 8.3598 15.1904 8.3598 17.1404C8.3598 19.0804 6.7798 20.6704 4.8298 20.6704ZM4.8298 15.1104C3.7098 15.1104 2.7998 16.0204 2.7998 17.1404C2.7998 18.2604 3.7098 19.1704 4.8298 19.1704C5.9498 19.1704 6.85981 18.2604 6.85981 17.1404C6.85981 16.0204 5.9498 15.1104 4.8298 15.1104Z" />
<path d="M19.1701 20.6704C17.2201 20.6704 15.6401 19.0904 15.6401 17.1404C15.6401 15.2004 17.2201 13.6104 19.1701 13.6104C21.1201 13.6104 22.7001 15.1904 22.7001 17.1404C22.6901 19.0804 21.1101 20.6704 19.1701 20.6704ZM19.1701 15.1104C18.0501 15.1104 17.1401 16.0204 17.1401 17.1404C17.1401 18.2604 18.0501 19.1704 19.1701 19.1704C20.2901 19.1704 21.2001 18.2604 21.2001 17.1404C21.1901 16.0204 20.2901 15.1104 19.1701 15.1104Z" />
</svg>
