<svg width="24" height="24" viewBox="0 0 24 24"  xmlns="http://www.w3.org/2000/svg">
<path d="M15.8578 16.1883C16.3406 15.7969 16.957 15.5625 17.625 15.5625C19.1766 15.5625 20.4375 16.8234 20.4375 18.375C20.4375 19.9266 19.1766 21.1875 17.625 21.1875C16.0734 21.1875 14.8125 19.9266 14.8125 18.375C14.8125 18.1055 14.85 17.843 14.9227 17.5945L10.3102 14.2547C9.62578 15.1617 8.53828 15.75 7.3125 15.75C5.24062 15.75 3.5625 14.0719 3.5625 12C3.5625 9.92812 5.24062 8.25 7.3125 8.25C8.53828 8.25 9.62578 8.83828 10.3102 9.74531L14.9227 6.40547C14.85 6.15703 14.8125 5.89687 14.8125 5.625C14.8125 4.07344 16.0734 2.8125 17.625 2.8125C19.1766 2.8125 20.4375 4.07344 20.4375 5.625C20.4375 7.17656 19.1766 8.4375 17.625 8.4375C16.957 8.4375 16.3406 8.20312 15.8578 7.81172L11.0016 11.325C11.0829 11.7713 11.0829 12.2287 11.0016 12.675L15.8578 16.1883Z" />
</svg>
