<svg width="24" height="24" viewBox="0 0 24 24"  xmlns="http://www.w3.org/2000/svg">
<path d="M20.6198 13.07C20.2398 13.07 19.9198 12.78 19.8698 12.4C19.6298 10.14 18.4098 8.09 16.5298 6.79C16.1898 6.55 16.1098 6.09 16.3398 5.75C16.5798 5.41 17.0498 5.33 17.3798 5.56C19.6198 7.11 21.0598 9.55 21.3498 12.24C21.3898 12.65 21.0998 13.02 20.6798 13.07C20.6698 13.07 20.6398 13.07 20.6198 13.07Z" />
<path d="M3.4898 13.12C3.4598 13.12 3.4398 13.12 3.4098 13.12C2.9998 13.07 2.6998 12.7 2.7398 12.29C3.0098 9.6 4.43981 7.17 6.64981 5.6C6.98981 5.36 7.4598 5.44 7.6998 5.78C7.9398 6.12 7.8598 6.59 7.5198 6.83C5.6598 8.14 4.4598 10.19 4.2298 12.45C4.1998 12.83 3.8698 13.12 3.4898 13.12Z" />
<path d="M12.0598 22.61C10.5798 22.61 9.1698 22.27 7.8498 21.61C7.4798 21.42 7.3298 20.97 7.5198 20.6C7.7098 20.23 8.1598 20.08 8.5298 20.27C10.6898 21.36 13.2898 21.38 15.4698 20.33C15.8398 20.15 16.2898 20.31 16.4698 20.68C16.6498 21.05 16.4898 21.5 16.1198 21.68C14.8398 22.3 13.4798 22.61 12.0598 22.61Z" />
<path d="M12.0598 8.44C10.1098 8.44 8.5298 6.86 8.5298 4.91C8.5298 2.96 10.1098 1.38 12.0598 1.38C14.0098 1.38 15.5898 2.96 15.5898 4.91C15.5898 6.86 13.9998 8.44 12.0598 8.44ZM12.0598 2.89C10.9398 2.89 10.0298 3.8 10.0298 4.92C10.0298 6.04 10.9398 6.95 12.0598 6.95C13.1798 6.95 14.0898 6.04 14.0898 4.92C14.0898 3.8 13.1698 2.89 12.0598 2.89Z" />
<path d="M4.8298 20.67C2.8798 20.67 1.2998 19.09 1.2998 17.14C1.2998 15.2 2.8798 13.61 4.8298 13.61C6.7798 13.61 8.3598 15.19 8.3598 17.14C8.3598 19.08 6.7798 20.67 4.8298 20.67ZM4.8298 15.11C3.7098 15.11 2.7998 16.02 2.7998 17.14C2.7998 18.26 3.7098 19.17 4.8298 19.17C5.9498 19.17 6.85981 18.26 6.85981 17.14C6.85981 16.02 5.9498 15.11 4.8298 15.11Z" />
<path d="M19.1698 20.67C17.2198 20.67 15.6398 19.09 15.6398 17.14C15.6398 15.2 17.2198 13.61 19.1698 13.61C21.1198 13.61 22.6998 15.19 22.6998 17.14C22.6898 19.08 21.1098 20.67 19.1698 20.67ZM19.1698 15.11C18.0498 15.11 17.1398 16.02 17.1398 17.14C17.1398 18.26 18.0498 19.17 19.1698 19.17C20.2898 19.17 21.1998 18.26 21.1998 17.14C21.1898 16.02 20.2898 15.11 19.1698 15.11Z" />
</svg>
