<?xml version="1.0" encoding="UTF-8"?>
<svg width="24" height="24" viewBox="0 0 24 24" xmlns="http://www.w3.org/2000/svg">
 <path d="m20.62 13.07c-0.38 0-0.7-0.29-0.75-0.67-0.24-2.26-1.46-4.31-3.34-5.61-0.34-0.24-0.42-0.7-0.19-1.04 0.24-0.34 0.71-0.42 1.04-0.19 2.24 1.55 3.68 3.99 3.97 6.68 0.04 0.41-0.25 0.78-0.67 0.83h-0.06z"/>
 <path d="m3.4899 13.12h-0.08c-0.41-0.05-0.71-0.42-0.67-0.83 0.27-2.69 1.7-5.12 3.91-6.69 0.34-0.24 0.81-0.16 1.05 0.18s0.16 0.81-0.18 1.05c-1.86 1.31-3.06 3.36-3.29 5.62-0.03 0.38-0.36 0.67-0.74 0.67z"/>
 <path d="m12.06 22.61c-1.48 0-2.89-0.34-4.21-1-0.37-0.19-0.52-0.64-0.33-1.01s0.64-0.52 1.01-0.33c2.16 1.09 4.76 1.11 6.94 0.06 0.37-0.18 0.82-0.02 1 0.35s0.02 0.82-0.35 1c-1.28 0.62-2.64 0.93-4.06 0.93z"/>
 <path d="m12.06 8.4399c-1.95 0-3.53-1.58-3.53-3.53s1.58-3.53 3.53-3.53 3.53 1.58 3.53 3.53-1.59 3.53-3.53 3.53zm0-5.55c-1.12 0-2.03 0.91-2.03 2.03s0.91 2.03 2.03 2.03 2.03-0.91 2.03-2.03-0.92-2.03-2.03-2.03z"/>
 <path d="m4.8298 20.67c-1.95 0-3.53-1.58-3.53-3.53 0-1.94 1.58-3.53 3.53-3.53s3.53 1.58 3.53 3.53c0 1.94-1.58 3.53-3.53 3.53zm0-5.56c-1.12 0-2.03 0.91-2.03 2.03s0.91 2.03 2.03 2.03 2.03-0.91 2.03-2.03-0.91001-2.03-2.03-2.03z"/>
 <path d="m19.17 20.67c-1.95 0-3.53-1.58-3.53-3.53 0-1.94 1.58-3.53 3.53-3.53s3.53 1.58 3.53 3.53c-0.01 1.94-1.59 3.53-3.53 3.53zm0-5.56c-1.12 0-2.03 0.91-2.03 2.03s0.91 2.03 2.03 2.03 2.03-0.91 2.03-2.03c-0.01-1.12-0.91-2.03-2.03-2.03z"/>
</svg>
