<svg width="24" height="24" viewBox="0 0 24 24"  xmlns="http://www.w3.org/2000/svg">
<path d="M11.9999 22.7599C10.9099 22.7599 9.8299 22.4399 8.9799 21.8099L4.6799 18.5999C3.5399 17.7499 2.6499 15.9699 2.6499 14.5599V7.11994C2.6499 5.57994 3.7799 3.93994 5.2299 3.39994L10.2199 1.52994C11.2099 1.15994 12.7699 1.15994 13.7599 1.52994L18.7499 3.39994C20.1999 3.93994 21.3299 5.57994 21.3299 7.11994V14.5499C21.3299 15.9699 20.4399 17.7399 19.2999 18.5899L14.9999 21.7999C14.1699 22.4399 13.0899 22.7599 11.9999 22.7599ZM10.7499 2.93994L5.7599 4.80994C4.9099 5.12994 4.1599 6.20994 4.1599 7.12994V14.5599C4.1599 15.5099 4.8299 16.8399 5.5799 17.3999L9.8799 20.6099C11.0299 21.4699 12.9699 21.4699 14.1299 20.6099L18.4299 17.3999C19.1899 16.8299 19.8499 15.5099 19.8499 14.5599V7.11994C19.8499 6.20994 19.0999 5.12994 18.2499 4.79994L13.2599 2.92994C12.5799 2.68994 11.4199 2.68994 10.7499 2.93994Z" />
<path d="M14.1499 14.1899C13.9599 14.1899 13.7699 14.1199 13.6199 13.9699L9.3699 9.71994C9.0799 9.42994 9.0799 8.94994 9.3699 8.65994C9.6599 8.36994 10.1399 8.36994 10.4299 8.65994L14.6799 12.9099C14.9699 13.1999 14.9699 13.6799 14.6799 13.9699C14.5299 14.1099 14.3399 14.1899 14.1499 14.1899Z" />
<path d="M9.8499 14.2299C9.6599 14.2299 9.4699 14.1599 9.3199 14.0099C9.0299 13.7199 9.0299 13.2399 9.3199 12.9499L13.5699 8.69994C13.8599 8.40994 14.3399 8.40994 14.6299 8.69994C14.9199 8.98994 14.9199 9.46994 14.6299 9.75994L10.3799 14.0099C10.2399 14.1599 10.0399 14.2299 9.8499 14.2299Z" />
</svg>
