<svg width="24" height="24" viewBox="0 0 24 24"  xmlns="http://www.w3.org/2000/svg">
<path d="M21.63 14.6598L21.22 16.5198C20.51 19.7198 18 21.9998 14.38 21.9998H9.61998C5.99998 21.9998 3.48999 19.7198 2.77999 16.5198L2.36998 14.6598C2.16998 13.7498 2.70997 12.7198 3.57997 12.3698L4.99999 11.7998L10.51 9.58981C10.99 9.39981 11.5 9.2998 12 9.2998C12.5 9.2998 13.01 9.39981 13.49 9.58981L19 11.7998L20.42 12.3698C21.29 12.7198 21.83 13.7498 21.63 14.6598Z" />
<path opacity="0.4" d="M19 8V11.8L13.49 9.59C12.53 9.21 11.47 9.21 10.51 9.59L5 11.8V8C5 6.35 6.35 5 8 5H16C17.65 5 19 6.35 19 8Z" />
<path d="M14.5 5H9.5V3C9.5 2.45 9.95 2 10.5 2H13.5C14.05 2 14.5 2.45 14.5 3V5Z" />
</svg>
