<?xml version="1.0" encoding="UTF-8"?>
<svg width="24" height="24" viewBox="0 0 24 24" xmlns="http://www.w3.org/2000/svg">
 <path d="m14.38 22.75h-4.76c-3.78 0-6.75-2.38-7.57-6.07l-0.40998-1.86c-0.28-1.28 0.44998-2.66 1.66-3.15l6.93-2.78c1.14-0.45 2.4-0.45 3.54 0l6.93 2.78c1.22 0.49 1.95 1.87 1.66 3.15l-0.41 1.86c-0.82 3.69-3.79 6.07-7.57 6.07zm-2.38-12.7c-0.41 0-0.82 0.08-1.22 0.23l-6.93 2.78c-0.53 0.21-0.88001 0.88-0.76001 1.43l0.41001 1.86c0.67 3.02 3.01 4.89 6.11 4.89h4.76c3.1 0 5.44-1.87 6.11-4.89l0.41-1.86c0.12-0.55-0.23-1.22-0.76-1.43l-6.93-2.78c-0.38-0.15-0.79-0.23-1.2-0.23z"/>
 <path d="m12 22.75c-0.41 0-0.75-0.34-0.75-0.75v-12c0-0.41 0.34-0.75 0.75-0.75s0.75 0.34 0.75 0.75v12c0 0.41-0.34 0.75-0.75 0.75z"/>
 <path d="m19 12.55c-0.09 0-0.19-0.02-0.28-0.05l-5.51-2.21c-0.78-0.30999-1.64-0.30999-2.43 0l-5.51 2.21c-0.23 0.09-0.48998 0.06-0.69998-0.08s-0.33002-0.37-0.33002-0.62v-3.8c0-2.07 1.68-3.75 3.75-3.75h8c2.07 0 3.75 1.68 3.75 3.75v3.8c0 0.25-0.12 0.48-0.33 0.62-0.12 0.09-0.26 0.13-0.41 0.13zm-7-4c0.6 0 1.2 0.11002 1.77 0.34002l4.48 1.8v-2.69c0-1.24-1.01-2.25-2.25-2.25h-8c-1.24 0-2.25 1.01-2.25 2.25v2.69l4.4801-1.8c0.57-0.22 1.1699-0.34002 1.7699-0.34002z"/>
 <path d="m14.5 5.75h-5c-0.41 0-0.75-0.34-0.75-0.75v-2c0-0.96 0.79-1.75 1.75-1.75h3c0.96 0 1.75 0.79 1.75 1.75v2c0 0.41-0.34 0.75-0.75 0.75zm-4.25-1.5h3.5v-1.25c0-0.14-0.11-0.25-0.25-0.25h-3c-0.14 0-0.25 0.11-0.25 0.25v1.25z"/>
</svg>
