<?xml version="1.0" encoding="UTF-8"?>
<svg width="24" height="24" viewBox="0 0 24 24" xmlns="http://www.w3.org/2000/svg">
 <path d="m14.72 22.75h-5.3899c-0.64 0-1.2-0.04-1.71-0.11-0.41-0.06-0.70002-0.44-0.64002-0.85s0.43004-0.71 0.85004-0.64c0.44 0.06 0.92999 0.09 1.49 0.09h5.39c4.09 0 5.54-1.45 5.54-5.54v-4.49c0-0.41 0.34-0.75 0.75-0.75s0.75 0.34 0.75 0.75v4.49c0.01 4.94-2.1001 7.05-7.0301 7.05z"/>
 <path d="m3.04 16.27c-0.41 0-0.75-0.34-0.75-0.75v-4.3001c0-0.41 0.34-0.75 0.75-0.75s0.75 0.34 0.75 0.75v4.3001c0 0.41-0.34 0.75-0.75 0.75z"/>
 <path d="m12.03 12.75c-1.1 0-2.1-0.43-2.81-1.22s-1.04-1.82-0.92999-2.92l0.67004-6.6799c0.04-0.38 0.36-0.68005 0.75-0.68005h4.67c0.39 0 0.71 0.29005 0.75 0.68005l0.67 6.6799c0.11 1.1-0.22 2.13-0.93 2.92-0.74 0.79-1.74 1.22-2.84 1.22zm-1.66-10-0.59997 6.01c-0.07 0.67 0.12999 1.3 0.54997 1.76 0.85 0.94 2.55 0.94 3.4 0 0.42-0.47 0.62-1.1 0.55-1.76l-0.6-6.01h-3.3z"/>
 <path d="m18.33 12.75c-2.03 0-3.84-1.64-4.05-3.66l-0.7-7.01c-0.02-0.21 0.05-0.41996 0.19-0.57996s0.34-0.25 0.56-0.25h3.05c2.94 0 4.31 1.23 4.72 4.25l0.28 2.78c0.12 1.18-0.24 2.3001-1.01 3.1501s-1.85 1.3199-3.04 1.3199zm-3.17-10 0.62 6.1899c0.13 1.25 1.3 2.3101 2.55 2.3101 0.76 0 1.44-0.2899 1.93-0.8199 0.48-0.53005 0.7-1.24 0.63-2l-0.28-2.75c-0.31-2.26-1.04-2.93-3.23-2.93h-2.22z"/>
 <path d="m5.6698 12.75c-1.19 0-2.27-0.4699-3.04-1.3199s-1.13-1.9701-1.01-3.1501l0.28003-2.75c0.42-3.05 1.79-4.28 4.73-4.28h3.05c0.21 0 0.41 0.09 0.56 0.25 0.14 0.16 0.21 0.36996 0.19 0.57996l-0.70001 7.01c-0.22 2.02-2.04 3.66-4.06 3.66zm0.95002-10c-2.19 0-2.92 0.65995-3.24 2.95l-0.27002 2.7201c-0.08 0.76 0.15 1.47 0.63 2 0.48 0.53 1.17 0.82 1.93 0.82 1.26 0 2.43-1.0599 2.55-2.31l0.62006-6.1901h-2.22v0.01001z"/>
 <path d="m5 23.75c-1.4 0-2.71-0.6101-3.61-1.6801-0.01-0.01-0.05001-0.0499-0.08001-0.0999-0.15-0.18-0.28001-0.36-0.38001-0.55-0.44-0.71-0.67999-1.55-0.67999-2.43 0-1.46 0.65003-2.81 1.78-3.71 0.2-0.16 0.41997-0.31 0.65997-0.44 0.69-0.39 1.5-0.61 2.31-0.61 1.16 0 2.23 0.4 3.09 1.15 0.11 0.08 0.25995 0.23 0.38995 0.37 0.81 0.89 1.26 2.03 1.26 3.22 0 0.87-0.24 1.72-0.69 2.45-0.22 0.38-0.48998 0.71-0.78998 0.97-0.06 0.06-0.12 0.12-0.19 0.17-0.79 0.77-1.9 1.19-3.07 1.19zm-2.52-2.71c0.03 0.03 0.08 0.0799 0.12 0.1499 0.55 0.65 1.45 1.0701 2.4 1.0701 0.79 0 1.55-0.2901 2.13-0.8101 0.03001-0.04 0.07-0.0799 0.12-0.1099 0.2-0.17 0.37003-0.3901 0.53003-0.6501 0.31-0.51 0.47998-1.0799 0.47998-1.6799 0-0.81-0.31-1.6-0.87-2.21-0.07-0.08-0.14004-0.1601-0.23004-0.2201-1.08-0.93-2.56-1.0699-3.74-0.3999-0.16 0.09-0.29999 0.18-0.42999 0.29-0.78 0.62-1.23 1.54-1.23 2.54 0 0.59 0.15997 1.17 0.46997 1.67 0.08 0.14 0.16 0.25 0.25 0.35-0.01 0 0 0 0 0.01z"/>
 <path d="m6.4998 19.73h-2.99c-0.41 0-0.75-0.34-0.75-0.75s0.34-0.75 0.75-0.75h2.99c0.41 0 0.75 0.34 0.75 0.75s-0.34 0.75-0.75 0.75z"/>
 <path d="m5 21.26c-0.41 0-0.75-0.34-0.75-0.75v-2.99c0-0.41 0.34-0.75 0.75-0.75s0.75 0.34 0.75 0.75v2.99c0 0.42-0.34 0.75-0.75 0.75z"/>
</svg>
