<?xml version="1.0" encoding="UTF-8"?>
<svg width="24" height="24" viewBox="0 0 24 24" xmlns="http://www.w3.org/2000/svg">
 <path d="m16.49 22.75h-8.99c-1.72 0-3.01-0.46-3.81-1.37s-1.11-2.23-0.90001-3.94l0.90001-7.5c0.26-2.21 0.82-4.19 4.72-4.19h7.2c3.89 0 4.45 1.98 4.72 4.19l0.9 7.5c0.2 1.71-0.1 3.04-0.9 3.94-0.83 0.91-2.11 1.37-3.84 1.37zm-8.09-15.5c-2.88 0-3.02 1.14-3.23 2.86l-0.89999 7.5c-0.15 1.27 0.02999 2.2 0.53999 2.77s1.41 0.86 2.69 0.86h8.99c1.28 0 2.18-0.29 2.69-0.86s0.69-1.5 0.54-2.77l-0.9-7.5c-0.21-1.73-0.34-2.86-3.23-2.86h-7.19z"/>
 <path d="m16 8.75c-0.41 0-0.75-0.34-0.75-0.75v-3.5c0-1.08-0.67-1.75-1.75-1.75h-3c-1.08 0-1.75 0.67-1.75 1.75v3.5c0 0.41-0.34 0.75-0.75 0.75s-0.75-0.34-0.75-0.75v-3.5c0-1.91 1.34-3.25 3.25-3.25h3c1.91 0 3.25 1.34 3.25 3.25v3.5c0 0.41-0.34 0.75-0.75 0.75z"/>
 <path d="m20.41 17.78h-12.41c-0.41 0-0.75-0.34-0.75-0.75s0.34-0.75 0.75-0.75h12.41c0.41 0 0.75 0.34 0.75 0.75s-0.34 0.75-0.75 0.75z"/>
</svg>
