<?xml version="1.0" encoding="UTF-8"?>
<svg width="24" height="24" viewBox="0 0 24 24" xmlns="http://www.w3.org/2000/svg">
 <path d="m14.7 22.75h-5.4c-4.94 0-7.04-2.11-7.04-7.04v-4.49c0-0.41 0.34-0.75 0.75-0.75s0.75 0.34 0.75 0.75v4.49c0 4.09 1.45 5.54 5.54 5.54h5.39c4.09 0 5.54-1.45 5.54-5.54v-4.49c0-0.41 0.34-0.75 0.75-0.75s0.75 0.34 0.75 0.75v4.49c0.01 4.93-2.1 7.04-7.03 7.04z"/>
 <path d="m12 12.75c-1.1 0-2.1-0.43-2.81-1.22s-1.04-1.82-0.93-2.92l0.67-6.68c0.04-0.38 0.36-0.68 0.75-0.68h4.67c0.39 0 0.71 0.29 0.75 0.68l0.67 6.68c0.11 1.1-0.22 2.13-0.93 2.92-0.74 0.79-1.74 1.22-2.84 1.22zm-1.65-10-0.6 6.01c-0.07 0.67 0.13 1.3 0.55 1.76 0.85 0.94 2.55 0.94 3.4 0 0.42-0.47 0.62-1.1 0.55-1.76l-0.6-6.01h-3.3z"/>
 <path d="m18.31 12.75c-2.03 0-3.84-1.64-4.05-3.66l-0.7-7.01c-0.02-0.21 0.05-0.42 0.19-0.58s0.34-0.25 0.56-0.25h3.05c2.94 0 4.31 1.23 4.72 4.25l0.28 2.78c0.12 1.18-0.24 2.3-1.01 3.15s-1.85 1.32-3.04 1.32zm-3.17-10 0.62 6.19c0.13 1.25 1.29 2.31 2.55 2.31 0.76 0 1.44-0.29 1.93-0.82 0.48-0.53 0.7-1.24 0.63-2l-0.28-2.75c-0.31-2.26-1.04-2.93-3.23-2.93h-2.22z"/>
 <path d="m5.64 12.75c-1.19 0-2.27-0.47-3.04-1.32s-1.13-1.97-1.01-3.15l0.27-2.75c0.42-3.05 1.79-4.28 4.73-4.28h3.05c0.21 0 0.40998 0.09 0.55998 0.25s0.21 0.37 0.19 0.58l-0.69998 7.01c-0.21 2.02-2.02 3.66-4.05 3.66zm0.95-10c-2.19 0-2.92 0.66-3.24 2.95l-0.27 2.73c-0.08 0.76 0.15 1.47 0.63 2s1.16 0.82 1.93 0.82c1.26 0 2.43-1.06 2.55-2.31l0.62-6.19h-2.22z"/>
 <path d="m14.5 22.75h-5c-0.41 0-0.75-0.34-0.75-0.75v-2.5c0-2.1 1.15-3.25 3.25-3.25s3.25 1.15 3.25 3.25v2.5c0 0.41-0.34 0.75-0.75 0.75zm-4.25-1.5h3.5v-1.75c0-1.26-0.49-1.75-1.75-1.75s-1.75 0.49-1.75 1.75v1.75z"/>
</svg>
