<?xml version="1.0" encoding="UTF-8"?>
<svg width="24" height="24" viewBox="0 0 24 24" xmlns="http://www.w3.org/2000/svg">
 <path d="m18.19 17.75h-10.65c-0.99 0-1.94-0.42-2.61-1.15s-1.01-1.71-0.92999-2.7l0.83-9.96c0.03-0.31-0.08001-0.60999-0.29001-0.83999s-0.49999-0.35001-0.80999-0.35001h-1.73c-0.41 0-0.75-0.34-0.75-0.75s0.34-0.75 0.75-0.75h1.74c0.73 0 1.42 0.31 1.91 0.84 0.27 0.3 0.47001 0.65 0.58001 1.04h12.49c1.01 0 1.94 0.4 2.62 1.12 0.67 0.73 1.01 1.68 0.93 2.69l-0.54 7.5c-0.11 1.83-1.71 3.31-3.54 3.31zm-11.91-13.13-0.78 9.4c-0.05 0.58 0.14 1.13 0.53 1.56s0.92999 0.66 1.51 0.66h10.65c1.04 0 1.98-0.88 2.06-1.92l0.54-7.5c0.04-0.59-0.15-1.15-0.54-1.56-0.39-0.42-0.93-0.65002-1.52-0.65002h-12.45v0.01001z"/>
 <path d="m16.25 22.75c-1.1 0-2-0.9-2-2s0.9-2 2-2 2 0.9 2 2-0.9 2-2 2zm0-2.5c-0.28 0-0.5 0.22-0.5 0.5s0.22 0.5 0.5 0.5 0.5-0.22 0.5-0.5-0.22-0.5-0.5-0.5z"/>
 <path d="m8.25 22.75c-1.1 0-2-0.9-2-2s0.9-2 2-2 2 0.9 2 2-0.9 2-2 2zm0-2.5c-0.28 0-0.5 0.22-0.5 0.5s0.22 0.5 0.5 0.5 0.5-0.22 0.5-0.5-0.22-0.5-0.5-0.5z"/>
 <path d="m21 8.75h-12c-0.41 0-0.75-0.34-0.75-0.75s0.34-0.75 0.75-0.75h12c0.41 0 0.75 0.34 0.75 0.75s-0.34 0.75-0.75 0.75z"/>
</svg>
