<?xml version="1.0" encoding="UTF-8"?>
<svg width="24" height="24" viewBox="0 0 24 24" xmlns="http://www.w3.org/2000/svg">
 <path d="m5.5602 18.74h-0.01999l-2.55-0.01c-0.41 0-0.75-0.34-0.75-0.75s0.34-0.75 0.75-0.75l2.55 0.01h0.00998c0.65 0 1.26-0.32 1.62-0.87l6.3899-9.58c0.64-0.96 1.71-1.54 2.87-1.54h0.0201l4.5499 0.02002c0.41 0 0.75 0.34 0.75 0.75s-0.34 0.75-0.75 0.75l-4.5499-0.02002h-0.0101c-0.65 0-1.2599 0.32-1.6199 0.87l-6.3901 9.58c-0.64 0.97-1.71 1.54-2.87 1.54z"/>
 <path d="m19 20.73c-0.19 0-0.38-0.07-0.53-0.22-0.29-0.29-0.29-0.77 0-1.06l2-2c0.29-0.29 0.77-0.29 1.06 0s0.29 0.77 0 1.06l-2 2c-0.15 0.15-0.34 0.22-0.53 0.22z"/>
 <path d="m8.89 9.38c-0.23 0-0.46001-0.10999-0.61001-0.30999l-1.08-1.5c-0.37-0.51-0.98002-0.81-1.59-0.81l-2.61 0.01001c-0.46-0.01-0.75-0.33-0.75-0.75 0-0.41 0.33-0.75 0.75-0.75l2.61-0.01001h0.02001c1.11 0 2.15 0.53999 2.8 1.43l1.08 1.5c0.24 0.34 0.16999 0.79999-0.17001 1.05-0.14 0.09-0.28999 0.14001-0.44999 0.14001z"/>
 <path d="m16.32 18.75c-1.06 0-2.08-0.5-2.73-1.34l-1.22-1.5699c-0.25-0.33-0.19-0.8001 0.13-1.0501 0.33-0.25 0.8-0.19 1.05 0.13l1.22 1.57c0.37 0.48 0.96 0.72 1.55 0.76l4.67-0.02c0.41 0 0.75 0.33 0.75 0.75 0 0.41-0.33 0.75-0.75 0.75l-4.67 0.02s0.01 0 0 0z"/>
 <path d="m21 6.77c-0.19 0-0.38-0.07003-0.53-0.22003l-2-2c-0.29-0.29-0.29-0.77 0-1.06s0.77-0.29 1.06 0l2 2c0.29 0.29 0.29 0.77 0 1.06-0.15 0.15-0.34 0.22003-0.53 0.22003z"/>
</svg>
