<svg width="24" height="24" viewBox="0 0 24 24"  xmlns="http://www.w3.org/2000/svg">
<path opacity="0.4" d="M21.75 17.9799C21.75 17.9599 21.74 17.9399 21.74 17.9199C21.73 17.8399 21.72 17.7599 21.69 17.6899C21.65 17.5999 21.6 17.5299 21.54 17.4599C21.54 17.4599 21.54 17.4499 21.53 17.4499C21.46 17.3799 21.38 17.3299 21.29 17.2899C21.2 17.2499 21.1 17.2299 21 17.2299L16.33 17.2499C16.33 17.2499 16.33 17.2499 16.32 17.2499C15.72 17.2499 15.14 16.9699 14.78 16.4899L13.56 14.9199C13.31 14.5899 12.84 14.5299 12.51 14.7899C12.18 15.0499 12.12 15.5099 12.38 15.8399L13.6 17.4099C14.25 18.2499 15.27 18.7499 16.33 18.7499H16.34L19.19 18.7399L18.48 19.4499C18.19 19.7399 18.19 20.2199 18.48 20.5099C18.63 20.6599 18.82 20.7299 19.01 20.7299C19.2 20.7299 19.39 20.6599 19.54 20.5099L21.54 18.5099C21.61 18.4399 21.66 18.3599 21.7 18.2699C21.73 18.1699 21.75 18.0699 21.75 17.9799Z" />
<path opacity="0.4" d="M8.42001 6.68976C7.77001 5.78976 6.73 5.25977 5.62 5.25977C5.61 5.25977 5.61001 5.25977 5.60001 5.25977L2.98999 5.26978C2.57999 5.26978 2.23999 5.60978 2.23999 6.01978C2.23999 6.42978 2.57999 6.76978 2.98999 6.76978L5.60001 6.75977H5.60999C6.23999 6.75977 6.83 7.05976 7.19 7.56976L8.26999 9.06976C8.41999 9.26976 8.65 9.37976 8.88 9.37976C9.03 9.37976 9.19001 9.32975 9.32001 9.23975C9.66001 8.99975 9.72999 8.52976 9.48999 8.18976L8.42001 6.68976Z" />
<path d="M21.74 6.07974C21.74 6.05974 21.75 6.03976 21.75 6.02976C21.75 5.92976 21.73 5.82972 21.69 5.73972C21.65 5.64972 21.6 5.56973 21.53 5.49973L19.53 3.49973C19.24 3.20973 18.76 3.20973 18.47 3.49973C18.18 3.78973 18.18 4.26972 18.47 4.55972L19.18 5.26975L16.45 5.25974C16.44 5.25974 16.44 5.25974 16.43 5.25974C15.28 5.25974 14.2 5.82971 13.56 6.79971L7.17001 16.3797C6.81001 16.9197 6.19999 17.2497 5.54999 17.2497H5.54001L2.98999 17.2397C2.57999 17.2397 2.23999 17.5697 2.23999 17.9897C2.23999 18.3997 2.56999 18.7397 2.98999 18.7397L5.54001 18.7497C5.55001 18.7497 5.55 18.7497 5.56 18.7497C6.72 18.7497 7.78999 18.1797 8.42999 17.2097L14.82 7.62973C15.18 7.08973 15.79 6.75974 16.44 6.75974H16.45L21 6.77976C21.1 6.77976 21.19 6.7597 21.29 6.7197C21.38 6.6797 21.46 6.62972 21.53 6.55972C21.53 6.55972 21.53 6.54971 21.54 6.54971C21.6 6.47971 21.66 6.40973 21.69 6.31973C21.72 6.23973 21.73 6.15974 21.74 6.07974Z" />
</svg>
