<?xml version="1.0" encoding="UTF-8"?>
<svg width="24" height="24" viewBox="0 0 24 24" xmlns="http://www.w3.org/2000/svg">
 <path d="m12 22.75c-5.93 0-10.75-4.82-10.75-10.75 0-1.49 0.30001-2.92 0.89001-4.28 0.17-0.38 0.60999-0.55 0.98999-0.39 0.38 0.17 0.55002 0.61001 0.39002 0.99001-0.5 1.16-0.76001 2.4-0.76001 3.68 0 5.1 4.15 9.25 9.25 9.25 5.1 0 9.25-4.15 9.25-9.25s-4.15-9.25-9.25-9.25c-1.29 0-2.55 0.26-3.72 0.78-0.37 0.17-0.81999-1e-5 -0.98999-0.38001s0-0.81999 0.38-0.98999c1.37-0.6 2.82-0.91 4.33-0.91 5.93 0 10.75 4.82 10.75 10.75s-4.83 10.75-10.76 10.75z"/>
 <path d="m16 17h-4.25c-2.76 0-5-2.24-5-5s2.24-5 5-5 5 2.24 5 5v4.25c0 0.41-0.34 0.75-0.75 0.75zm-4.25-8.5c-1.93 0-3.5 1.57-3.5 3.5s1.57 3.5 3.5 3.5h3.5v-3.5c0-1.93-1.57-3.5-3.5-3.5z"/>
 <path d="m5 7.25c-1.24 0-2.25-1.01-2.25-2.25s1.01-2.25 2.25-2.25 2.25 1.01 2.25 2.25-1.01 2.25-2.25 2.25zm0-3c-0.41 0-0.75 0.34-0.75 0.75s0.34 0.75 0.75 0.75 0.75-0.34 0.75-0.75-0.34-0.75-0.75-0.75z"/>
</svg>
