<svg width="24" height="24" viewBox="0 0 24 24"  xmlns="http://www.w3.org/2000/svg">
<path d="M14.9702 22.75H8.97021C3.54022 22.75 1.22021 20.43 1.22021 15V9C1.22021 3.57 3.54022 1.25 8.97021 1.25H14.9702C20.4002 1.25 22.7202 3.57 22.7202 9V15C22.7202 20.43 20.4102 22.75 14.9702 22.75ZM8.97021 2.75C4.36021 2.75 2.72021 4.39 2.72021 9V15C2.72021 19.61 4.36021 21.25 8.97021 21.25H14.9702C19.5802 21.25 21.2202 19.61 21.2202 15V9C21.2202 4.39 19.5802 2.75 14.9702 2.75H8.97021Z" />
<path d="M22.0002 16.25H2.00021C1.59021 16.25 1.25021 15.91 1.25021 15.5C1.25021 15.09 1.59021 14.75 2.00021 14.75H22.0002C22.4102 14.75 22.7502 15.09 22.7502 15.5C22.7502 15.91 22.4102 16.25 22.0002 16.25Z" />
<path d="M12.0002 11.81C11.8102 11.81 11.6202 11.74 11.4702 11.59L8.91021 9.03C8.62021 8.74 8.62021 8.26 8.91021 7.97C9.20021 7.68 9.68021 7.68 9.97021 7.97L12.0002 10L14.0302 7.97C14.3202 7.68 14.8002 7.68 15.0902 7.97C15.3802 8.26 15.3802 8.74 15.0902 9.03L12.5302 11.59C12.3802 11.74 12.1902 11.81 12.0002 11.81Z" />
</svg>
