<?xml version="1.0" encoding="UTF-8"?>
<svg width="24" height="24" viewBox="0 0 24 24" xmlns="http://www.w3.org/2000/svg">
 <path d="m17.22 9.75h-8.26c-0.56 0-1.12-0.18999-1.56-0.54999l-2.19-1.75c-0.6-0.48-0.94-1.19-0.94-1.95s0.34-1.48 0.94-1.95l2.19-1.75c0.44-0.35 1-0.54999 1.56-0.54999h8.26c1.38 0 2.5 1.12 2.5 2.5v3.5c0 1.38-1.12 2.5-2.5 2.5zm-8.26-7c-0.23 0-0.44999 0.08-0.61999 0.22l-2.19 1.75c-0.24 0.19-0.38 0.48-0.38 0.78s0.14 0.59 0.38 0.78l2.19 1.75c0.18 0.14 0.39999 0.22 0.61999 0.22h8.26c0.55 0 1-0.45 1-1v-3.5c0-0.55-0.45-1-1-1h-8.26z"/>
 <path d="m15.06 19.75h-8.26c-1.38 0-2.5-1.12-2.5-2.5v-3.5c0-1.38 1.12-2.5 2.5-2.5h8.26c0.57 0 1.12 0.19 1.56 0.55l2.19 1.75c0.6 0.48 0.94 1.19 0.94 1.95s-0.34 1.48-0.94 1.95l-2.19 1.75c-0.44 0.36-0.99 0.55-1.56 0.55zm-8.26-7c-0.55 0-1 0.45-1 1v3.5c0 0.55 0.45 1 1 1h8.26c0.23 0 0.45-0.08 0.62-0.22l2.19-1.75c0.24-0.19 0.38-0.48 0.38-0.78s-0.14-0.59-0.38-0.78l-2.19-1.75c-0.18-0.14-0.4-0.22-0.62-0.22h-8.26z"/>
 <path d="m12 12.75c-0.41 0-0.75-0.34-0.75-0.75v-3c0-0.41 0.34-0.75 0.75-0.75s0.75 0.34 0.75 0.75v3c0 0.41-0.34 0.75-0.75 0.75z"/>
 <path d="m12 22.75c-0.41 0-0.75-0.34-0.75-0.75v-3c0-0.41 0.34-0.75 0.75-0.75s0.75 0.34 0.75 0.75v3c0 0.41-0.34 0.75-0.75 0.75z"/>
 <path d="m15 22.75h-6c-0.41 0-0.75-0.34-0.75-0.75s0.34-0.75 0.75-0.75h6c0.41 0 0.75 0.34 0.75 0.75s-0.34 0.75-0.75 0.75z"/>
</svg>
