<?xml version="1.0" encoding="UTF-8"?>
<svg width="24" height="24" viewBox="0 0 24 24" xmlns="http://www.w3.org/2000/svg">
 <path d="m12.11 22.72h-6.22c-2.73 0-4.64-1.91-4.64-4.64v-7.77c0-2.73 1.91-4.64 4.64-4.64h3.83c1.22 0 2.42 0.5 3.28 1.36l2.39 2.38c0.87 0.86998 1.36 2.06 1.36 3.28v5.39c0 2.73-1.91 4.64-4.64 4.64zm-6.22-15.55c-1.91 0-3.14 1.23-3.14 3.14v7.77c0 1.91 1.23 3.14 3.14 3.14h6.22c1.91 0 3.14-1.23 3.14-3.14v-5.39c0-0.83-0.34-1.63-0.92-2.22l-2.39-2.38c-0.59-0.59-1.4-0.92-2.22-0.92h-3.83z"/>
 <path d="m18.11 18.28h-2.11c-0.41 0-0.75-0.34-0.75-0.75v-4.84c0-0.83-0.34-1.63-0.92-2.22l-2.39-2.38c-0.59-0.59-1.4-0.92-2.22-0.92h-1.72c-0.41 0-0.75-0.34-0.75-0.75v-0.56c0-2.73 1.91-4.64 4.64-4.64h3.83c1.22 0 2.42 0.5 3.28 1.36l2.39 2.39c0.88 0.88 1.36 2.04 1.36 3.28v5.39c0 2.73-1.91 4.64-4.64 4.64zm-1.36-1.5h1.36c1.91 0 3.14-1.23 3.14-3.14v-5.39c0-0.84-0.33-1.63-0.92-2.22l-2.39-2.39c-0.58-0.58-1.39-0.92-2.22-0.92h-3.83c-1.84 0-3.06 1.15-3.14 2.95h0.97c1.22 0 2.42 0.5 3.28 1.36l2.39 2.38c0.87 0.86997 1.36 2.06 1.36 3.28v4.09z"/>
</svg>
