<?xml version="1.0" encoding="UTF-8"?>
<svg width="24" height="24" viewBox="0 0 24 24" xmlns="http://www.w3.org/2000/svg">
 <path d="m16 22.75h-8c-3.44 0-5.75-2.31-5.75-5.75v-10c0-3.44 2.31-5.75 5.75-5.75h4.93c1.54 0 2.98 0.6 4.07 1.68l3.07 3.07c1.09 1.09 1.68 2.53 1.68 4.07v6.93c0 3.44-2.31 5.75-5.75 5.75zm-8-20c-2.58 0-4.25 1.67-4.25 4.25v10c0 2.58 1.67 4.25 4.25 4.25h8c2.58 0 4.25-1.67 4.25-4.25v-6.93c0-1.13-0.44-2.2-1.25-3.01l-3.07-3.06c-0.8-0.8-1.87-1.25-3.01-1.25h-4.92z"/>
 <path d="m14 19.25h-4c-2.07 0-3.75-1.68-3.75-3.75v-3c0-2.07 1.68-3.75 3.75-3.75h4c2.07 0 3.75 1.68 3.75 3.75v3c0 2.07-1.68 3.75-3.75 3.75zm-4-9c-1.24 0-2.25 1.01-2.25 2.25v3c0 1.24 1.01 2.25 2.25 2.25h4c1.24 0 2.25-1.01 2.25-2.25v-3c0-1.24-1.01-2.25-2.25-2.25h-4z"/>
 <path d="m12 19.25c-0.41 0-0.75-0.34-0.75-0.75v-9c0-0.41 0.34-0.75 0.75-0.75s0.75 0.34 0.75 0.75v9c0 0.41-0.34 0.75-0.75 0.75z"/>
 <path d="m16.5 14.75h-9c-0.41 0-0.75-0.34-0.75-0.75s0.34-0.75 0.75-0.75h9c0.41 0 0.75 0.34 0.75 0.75s-0.34 0.75-0.75 0.75z"/>
</svg>
