<svg width="24" height="24" viewBox="0 0 24 24"  xmlns="http://www.w3.org/2000/svg">
<path d="M12.11 22.7197H5.89C3.16 22.7197 1.25 20.8097 1.25 18.0797V10.3097C1.25 7.57973 3.16 5.66973 5.89 5.66973H9.72C10.94 5.66973 12.14 6.16973 13 7.02973L15.39 9.40973C16.26 10.2797 16.75 11.4697 16.75 12.6897V18.0797C16.75 20.8097 14.84 22.7197 12.11 22.7197ZM5.89 7.16973C3.98 7.16973 2.75 8.39973 2.75 10.3097V18.0797C2.75 19.9897 3.98 21.2197 5.89 21.2197H12.11C14.02 21.2197 15.25 19.9897 15.25 18.0797V12.6897C15.25 11.8597 14.91 11.0597 14.33 10.4697L11.94 8.08973C11.35 7.49973 10.54 7.16973 9.72 7.16973H5.89Z" />
<path d="M18.11 18.2797H16C15.59 18.2797 15.25 17.9397 15.25 17.5297V12.6897C15.25 11.8597 14.91 11.0597 14.33 10.4697L11.94 8.08973C11.35 7.49973 10.54 7.16973 9.72 7.16973H8C7.59 7.16973 7.25 6.82973 7.25 6.41973V5.85973C7.25 3.12973 9.16 1.21973 11.89 1.21973H15.72C16.94 1.21973 18.14 1.71973 19 2.57973L21.39 4.96973C22.27 5.84973 22.75 7.00973 22.75 8.24973V13.6397C22.75 16.3697 20.84 18.2797 18.11 18.2797ZM16.75 16.7797H18.11C20.02 16.7797 21.25 15.5497 21.25 13.6397V8.24973C21.25 7.40973 20.92 6.61973 20.33 6.02973L17.94 3.63973C17.36 3.05973 16.55 2.71973 15.72 2.71973H11.89C10.05 2.71973 8.83 3.86973 8.75 5.66973H9.72C10.94 5.66973 12.14 6.16973 13 7.02973L15.39 9.40973C16.26 10.2797 16.75 11.4697 16.75 12.6897V16.7797Z" />
</svg>
