<svg width="24" height="24" viewBox="0 0 24 24"  xmlns="http://www.w3.org/2000/svg">
<path d="M11.7202 22.75H7.22021C3.07021 22.75 1.22021 20.9 1.22021 16.75V12.25C1.22021 8.1 3.07021 6.25 7.22021 6.25H11.7202C15.8702 6.25 17.7202 8.1 17.7202 12.25V16.75C17.7202 20.9 15.8702 22.75 11.7202 22.75ZM7.22021 7.75C3.90021 7.75 2.72021 8.93 2.72021 12.25V16.75C2.72021 20.07 3.90021 21.25 7.22021 21.25H11.7202C15.0402 21.25 16.2202 20.07 16.2202 16.75V12.25C16.2202 8.93 15.0402 7.75 11.7202 7.75H7.22021Z" />
<path d="M18.1202 13.75H16.9702C16.5602 13.75 16.2202 13.41 16.2202 13V12.25C16.2202 8.93 15.0402 7.75 11.7202 7.75H10.9702C10.5602 7.75 10.2202 7.41 10.2202 7V5.85C10.2202 2.67 11.6402 1.25 14.8202 1.25H18.1202C21.3002 1.25 22.7202 2.67 22.7202 5.85V9.15C22.7202 12.33 21.3002 13.75 18.1202 13.75ZM17.7202 12.25H18.1202C20.4702 12.25 21.2202 11.5 21.2202 9.15V5.85C21.2202 3.5 20.4702 2.75 18.1202 2.75H14.8202C12.4702 2.75 11.7202 3.5 11.7202 5.85V6.25C15.8702 6.25 17.7202 8.1 17.7202 12.25Z" />
</svg>
