<?xml version="1.0" encoding="UTF-8"?>
<svg width="24" height="24" viewBox="0 0 24 24" xmlns="http://www.w3.org/2000/svg">
 <path d="m14.54 11.37c-1.44 0-2.61-1.17-2.61-2.61v-4.64c0-1.44 1.17-2.61 2.61-2.61s2.61 1.17 2.61 2.61v4.64c0 1.44-1.17 2.61-2.61 2.61zm0-8.36c-0.61 0-1.11 0.49998-1.11 1.11v4.64c0 0.61 0.5 1.11 1.11 1.11s1.11-0.49998 1.11-1.11v-4.64c0-0.61-0.5-1.11-1.11-1.11z"/>
 <path d="m20.18 11.37h-1.57c-0.41 0-0.75-0.34-0.75-0.75v-1.57c0-1.28 1.04-2.32 2.32-2.32s2.32 1.04 2.32 2.32c0 1.28-1.04 2.32-2.32 2.32zm-0.81-1.5h0.82c0.45 0 0.82-0.37 0.82-0.82s-0.37-0.81998-0.82-0.81998-0.82 0.36998-0.82 0.81998v0.82z"/>
 <path d="m8.5 11.829h-4.64c-1.44 0-2.61-1.17-2.61-2.61 0-1.44 1.17-2.61 2.61-2.61h4.64c1.44 0 2.61 1.17 2.61 2.61 0 1.44-1.17 2.61-2.61 2.61zm-4.64-3.71c-0.61 0-1.11 0.50002-1.11 1.11s0.5 1.11 1.11 1.11h4.64c0.61 0 1.11-0.5 1.11-1.11s-0.5-1.11-1.11-1.11h-4.64z"/>
 <path d="m10.36 5.8802h-1.57c-1.28 0-2.32-1.04-2.32-2.32s1.04-2.32 2.32-2.32c1.28 0 2.32 1.04 2.32 2.32v1.57c0 0.42-0.34 0.75-0.75 0.75zm-1.57-3.13c-0.45 0-0.82 0.37001-0.82 0.82001s0.37 0.82001 0.82 0.82001h0.82v-0.82001c0-0.45-0.37-0.82001-0.82-0.82001z"/>
 <path d="m9.4298 22.52c-1.44 0-2.61-1.1699-2.61-2.6099v-4.6401c0-1.44 1.17-2.6099 2.61-2.6099 1.44 0 2.61 1.1699 2.61 2.6099v4.6401c0 1.44-1.17 2.6099-2.61 2.6099zm0-8.3599c-0.61 0-1.11 0.4999-1.11 1.1099v4.6401c0 0.61 0.49999 1.1099 1.11 1.1099 0.60999 0 1.11-0.4999 1.11-1.1099v-4.6401c0-0.62-0.5-1.1099-1.11-1.1099z"/>
 <path d="m3.7902 17.29c-1.28 0-2.32-1.04-2.32-2.32s1.04-2.32 2.32-2.32h1.57c0.41 0 0.75 0.34 0.75 0.75v1.57c0 1.28-1.04 2.32-2.32 2.32zm0-3.13c-0.45 0-0.82 0.37-0.82 0.82s0.37 0.82 0.82 0.82 0.82-0.37 0.82-0.82v-0.82h-0.82z"/>
 <path d="m20.11 17.41h-4.64c-1.44 0-2.61-1.1701-2.61-2.6101s1.17-2.6099 2.61-2.6099h4.64c1.44 0 2.61 1.1699 2.61 2.6099s-1.17 2.6101-2.61 2.6101zm-4.64-3.72c-0.61 0-1.11 0.4999-1.11 1.1099s0.5 1.1101 1.11 1.1101h4.64c0.61 0 1.11-0.5001 1.11-1.1101s-0.5-1.1099-1.11-1.1099h-4.64z"/>
 <path d="m15.18 22.73c-1.28 0-2.32-1.04-2.32-2.32v-1.5701c0-0.41 0.34-0.75 0.75-0.75h1.57c1.28 0 2.32 1.0401 2.32 2.3201s-1.05 2.32-2.32 2.32zm-0.82-3.1401v0.8201c0 0.45 0.37 0.82 0.82 0.82s0.82-0.37 0.82-0.82-0.37-0.8201-0.82-0.8201h-0.82z"/>
</svg>
