<svg width="24" height="24" viewBox="0 0 24 24"  xmlns="http://www.w3.org/2000/svg">
<path d="M14.54 11.3702C13.1 11.3702 11.93 10.2003 11.93 8.76025V4.12024C11.93 2.68024 13.1 1.51025 14.54 1.51025C15.98 1.51025 17.15 2.68024 17.15 4.12024V8.76025C17.15 10.2003 15.98 11.3702 14.54 11.3702ZM14.54 3.01025C13.93 3.01025 13.43 3.51024 13.43 4.12024V8.76025C13.43 9.37025 13.93 9.87024 14.54 9.87024C15.15 9.87024 15.65 9.37025 15.65 8.76025V4.12024C15.65 3.51024 15.15 3.01025 14.54 3.01025Z" />
<path d="M20.18 11.3702H18.61C18.2 11.3702 17.86 11.0302 17.86 10.6202V9.05023C17.86 7.77023 18.9 6.73026 20.18 6.73026C21.46 6.73026 22.5 7.77023 22.5 9.05023C22.5 10.3302 21.46 11.3702 20.18 11.3702ZM19.37 9.87024H20.19C20.64 9.87024 21.01 9.50023 21.01 9.05023C21.01 8.60023 20.64 8.23026 20.19 8.23026C19.74 8.23026 19.37 8.60023 19.37 9.05023V9.87024Z" />
<path d="M8.5 11.8302H3.86C2.42 11.8302 1.25 10.6602 1.25 9.22025C1.25 7.78025 2.42 6.61023 3.86 6.61023H8.5C9.94 6.61023 11.11 7.78025 11.11 9.22025C11.11 10.6602 9.94 11.8302 8.5 11.8302ZM3.86 8.12024C3.25 8.12024 2.75 8.62026 2.75 9.23026C2.75 9.84026 3.25 10.3402 3.86 10.3402H8.5C9.11 10.3402 9.61 9.84026 9.61 9.23026C9.61 8.62026 9.11 8.12024 8.5 8.12024H3.86Z" />
<path d="M10.36 5.88025H8.78999C7.50999 5.88025 6.47 4.84024 6.47 3.56024C6.47 2.28024 7.50999 1.24023 8.78999 1.24023C10.07 1.24023 11.11 2.28024 11.11 3.56024V5.13025C11.11 5.55025 10.77 5.88025 10.36 5.88025ZM8.78999 2.75024C8.33999 2.75024 7.97 3.12025 7.97 3.57025C7.97 4.02025 8.33999 4.39026 8.78999 4.39026H9.61V3.57025C9.61 3.12025 9.23999 2.75024 8.78999 2.75024Z" />
<path d="M9.42999 22.5202C7.98999 22.5202 6.82001 21.3502 6.82001 19.9102V15.2702C6.82001 13.8302 7.98999 12.6602 9.42999 12.6602C10.87 12.6602 12.04 13.8302 12.04 15.2702V19.9102C12.04 21.3502 10.87 22.5202 9.42999 22.5202ZM9.42999 14.1602C8.81999 14.1602 8.32001 14.6602 8.32001 15.2702V19.9102C8.32001 20.5202 8.81999 21.0202 9.42999 21.0202C10.04 21.0202 10.54 20.5202 10.54 19.9102V15.2702C10.54 14.6502 10.04 14.1602 9.42999 14.1602Z" />
<path d="M3.78999 17.2903C2.50999 17.2903 1.47 16.2502 1.47 14.9702C1.47 13.6902 2.50999 12.6502 3.78999 12.6502H5.36C5.77 12.6502 6.11 12.9902 6.11 13.4002V14.9702C6.11 16.2502 5.06999 17.2903 3.78999 17.2903ZM3.78999 14.1602C3.33999 14.1602 2.97 14.5303 2.97 14.9803C2.97 15.4303 3.33999 15.8002 3.78999 15.8002C4.23999 15.8002 4.61 15.4303 4.61 14.9803V14.1602H3.78999Z" />
<path d="M20.11 17.4102H15.47C14.03 17.4102 12.86 16.2402 12.86 14.8002C12.86 13.3602 14.03 12.1902 15.47 12.1902H20.11C21.55 12.1902 22.72 13.3602 22.72 14.8002C22.72 16.2402 21.55 17.4102 20.11 17.4102ZM15.47 13.6902C14.86 13.6902 14.36 14.1902 14.36 14.8002C14.36 15.4102 14.86 15.9102 15.47 15.9102H20.11C20.72 15.9102 21.22 15.4102 21.22 14.8002C21.22 14.1902 20.72 13.6902 20.11 13.6902H15.47Z" />
<path d="M15.18 22.7303C13.9 22.7303 12.86 21.6902 12.86 20.4102V18.8402C12.86 18.4302 13.2 18.0902 13.61 18.0902H15.18C16.46 18.0902 17.5 19.1302 17.5 20.4102C17.5 21.6902 16.45 22.7303 15.18 22.7303ZM14.36 19.5902V20.4102C14.36 20.8602 14.73 21.2303 15.18 21.2303C15.63 21.2303 16 20.8602 16 20.4102C16 19.9602 15.63 19.5902 15.18 19.5902H14.36Z" />
</svg>
