<svg width="24" height="24" viewBox="0 0 24 24"  xmlns="http://www.w3.org/2000/svg">
<path d="M14.5401 1.87988C13.3101 1.87988 12.3101 2.87989 12.3101 4.10989V8.74989C12.3101 9.97989 13.3101 10.9799 14.5401 10.9799C15.7701 10.9799 16.7701 9.97989 16.7701 8.74989V4.10989C16.7701 2.88989 15.7701 1.87988 14.5401 1.87988Z" />
<path opacity="0.4" d="M20.1797 7.11035C19.1097 7.11035 18.2397 7.98035 18.2397 9.05035V10.6204C18.2397 10.8304 18.4097 11.0004 18.6197 11.0004H20.1897C21.2597 11.0004 22.1297 10.1303 22.1297 9.06035C22.1297 7.99035 21.2497 7.11035 20.1797 7.11035Z" />
<path d="M8.49988 6.99023H3.85988C2.62988 6.99023 1.62988 7.99024 1.62988 9.22024C1.62988 10.4502 2.62988 11.4502 3.85988 11.4502H8.49988C9.72988 11.4502 10.7299 10.4502 10.7299 9.22024C10.7299 7.99024 9.72988 6.99023 8.49988 6.99023Z" />
<path opacity="0.4" d="M8.78984 1.62012C7.71984 1.62012 6.84985 2.49011 6.84985 3.56011C6.84985 4.63011 7.71984 5.50011 8.78984 5.50011H10.3598C10.5698 5.50011 10.7399 5.33012 10.7399 5.12012V3.55012C10.7299 2.50012 9.85984 1.62012 8.78984 1.62012Z" />
<path d="M9.4297 13.0303C8.1997 13.0303 7.19971 14.0303 7.19971 15.2603V19.9003C7.19971 21.1303 8.1997 22.1303 9.4297 22.1303C10.6597 22.1303 11.6597 21.1303 11.6597 19.9003V15.2603C11.6597 14.0303 10.6597 13.0303 9.4297 13.0303Z" />
<path opacity="0.4" d="M5.35985 13.0303H3.78984C2.71984 13.0303 1.84985 13.9003 1.84985 14.9703C1.84985 16.0403 2.71984 16.9103 3.78984 16.9103C4.85984 16.9103 5.72984 16.0403 5.72984 14.9703V13.4003C5.72984 13.2003 5.55985 13.0303 5.35985 13.0303Z" />
<path d="M20.1097 12.5703H15.4697C14.2397 12.5703 13.2397 13.5703 13.2397 14.8003C13.2397 16.0303 14.2397 17.0303 15.4697 17.0303H20.1097C21.3397 17.0303 22.3397 16.0303 22.3397 14.8003C22.3397 13.5703 21.3397 12.5703 20.1097 12.5703Z" />
<path opacity="0.4" d="M15.18 18.4697H13.61C13.4 18.4697 13.23 18.6397 13.23 18.8497V20.4197C13.23 21.4897 14.1 22.3597 15.17 22.3597C16.24 22.3597 17.11 21.4897 17.11 20.4197C17.12 19.3397 16.25 18.4697 15.18 18.4697Z" />
</svg>
