<?xml version="1.0" encoding="UTF-8"?>
<svg width="24" height="24" viewBox="0 0 24 24" xmlns="http://www.w3.org/2000/svg">
 <path d="m17 18.75h-10c-0.75 0-1.3-0.03-1.77-0.1-3.32-0.36-3.98-2.35-3.98-5.65v-2c0-3.3 0.66-5.29 4.01-5.66 0.44-0.06 0.99-0.09 1.74-0.09h10c0.75 0 1.3 0.03 1.77 0.1 3.33 0.37 3.98 2.35 3.98 5.65v2c0 3.3-0.66 5.29-4.01 5.66-0.44 0.06-0.99 0.09-1.74 0.09zm-10-12c-0.68 0-1.16 0.03-1.55 0.08-2.03 0.23-2.7 0.86-2.7 4.17v2c0 3.31 0.67 3.94 2.67 4.17 0.42 0.06 0.9 0.08 1.58 0.08h10c0.68 0 1.16-0.03 1.55-0.08 2.03-0.22 2.7-0.86 2.7-4.17v-2c0-3.31-0.67-3.94-2.67-4.17-0.42-0.06-0.9-0.08-1.58-0.08h-10z"/>
 <path d="m15.33 22.75h-6.66c-3.1 0-4.09-0.99-4.09-4.08v-0.34c0-0.17 0-0.32 0.01-0.47 0.01-0.21 0.11-0.4 0.28-0.53 0.16-0.13 0.37-0.19 0.58-0.16 0.4 0.06 0.88 0.08 1.55 0.08h10c0.68 0 1.16-0.03 1.55-0.08 0.21-0.03 0.42 0.03 0.58 0.16s0.26 0.32 0.28 0.53c0.01 0.16 0.01 0.3 0.01 0.47v0.34c0 3.09-0.99 4.08-4.09 4.08zm-9.25-4.02c0.01 2.19 0.36 2.52 2.59 2.52h6.66c2.23 0 2.58-0.33 2.59-2.52-0.27 0.01-0.57 0.02-0.92 0.02h-10c-0.35 0-0.65-0.01-0.92-0.02z"/>
 <path d="m18.66 6.84c-0.04 0-0.07 0-0.11-0.01-0.4-0.06-0.88-0.08-1.55-0.08h-10c-0.68 0-1.16 0.03-1.55 0.08-0.21 0.03-0.42-0.03-0.58-0.16s-0.26-0.32-0.28-0.53c-0.01-0.16-0.01-0.3-0.01-0.47v-0.34c0-3.09 0.99-4.08 4.09-4.08h6.66c3.1 0 4.09 0.99 4.09 4.08v0.34c0 0.17 0 0.32-0.01 0.47-0.01 0.21-0.11 0.4-0.28 0.53-0.13 0.11-0.3 0.17-0.47 0.17zm-11.66-1.59h10c0.35 0 0.65 0.01 0.92 0.02-0.01-2.19-0.36-2.52-2.59-2.52h-6.66c-2.23 0-2.58 0.33-2.59 2.52 0.27-0.01 0.57-0.02 0.92-0.02z"/>
</svg>
