<?xml version="1.0" encoding="UTF-8"?>
<svg width="24" height="24" viewBox="0 0 24 24" xmlns="http://www.w3.org/2000/svg">
 <path d="m14 22.25h-4c-3.3 0-5.29-0.66-5.66-4.01-0.06-0.45-0.09-0.99-0.09-1.74v-9c0-0.75 0.03-1.3 0.1-1.77 0.36-3.32 2.35-3.98 5.65-3.98h4c3.3 0 5.29 0.66 5.66 4.01 0.06 0.45 0.09 0.99 0.09 1.74v9c0 0.75-0.03 1.3-0.1 1.77-0.36 3.32-2.35 3.98-5.65 3.98zm-4-19c-3.31 0-3.94 0.67-4.17 2.67-0.05 0.42-0.08 0.9-0.08 1.58v9c0 0.68 0.03 1.16 0.08 1.55 0.22 2.03 0.86 2.7 4.17 2.7h4c3.31 0 3.94-0.67 4.17-2.67 0.06-0.42 0.08-0.9 0.08-1.58v-9c0-0.68-0.03-1.16-0.08-1.55-0.22-2.03-0.86-2.7-4.17-2.7h-4z"/>
 <path d="m2 20.25c-0.41 0-0.75-0.34-0.75-0.75v-15c0-0.41 0.34-0.75 0.75-0.75s0.75 0.34 0.75 0.75v15c0 0.41-0.34 0.75-0.75 0.75z"/>
 <path d="m22 19.75c-0.41 0-0.75-0.34-0.75-0.75v-15c0-0.41 0.34-0.75 0.75-0.75s0.75 0.34 0.75 0.75v15c0 0.41-0.34 0.75-0.75 0.75z"/>
</svg>
