<?xml version="1.0" encoding="UTF-8"?>
<svg width="24" height="24" viewBox="0 0 24 24" xmlns="http://www.w3.org/2000/svg">
 <path d="m13 22.75h-2c-3.3 0-5.29-0.66-5.66-4.01-0.06-0.45-0.09-0.99-0.09-1.74v-10c0-0.75 0.03-1.29 0.1-1.77 0.36-3.32 2.35-3.98 5.65-3.98h2c3.3 0 5.29 0.66 5.66 4.01 0.06 0.45 0.09 0.99 0.09 1.74v10c0 0.75-0.03 1.29-0.1 1.77-0.36 3.32-2.35 3.98-5.65 3.98zm-2-20c-3.31 0-3.94 0.67-4.16 2.67-0.06 0.43-0.09 0.9-0.09 1.58v10c0 0.68 0.03 1.15 0.08 1.55 0.22 2.03 0.86 2.7 4.17 2.7h2c3.31 0 3.94-0.67 4.16-2.67 0.06-0.42 0.09-0.9 0.09-1.58v-10c0-0.67-0.03-1.15-0.08-1.55-0.22-2.03-0.86-2.7-4.17-2.7h-2z"/>
 <path d="m5.67 19.42h-0.34c-3.09 0-4.08-0.99-4.08-4.09v-6.66c0-3.1 0.99-4.09 4.08-4.09h0.34c0.17 0 0.31 0 0.47 0.01 0.21 0.01 0.4 0.11 0.53 0.28s0.19 0.37 0.16 0.58c-0.05 0.4-0.08 0.87-0.08 1.55v10c0 0.68 0.03 1.15 0.08 1.55 0.03 0.21-0.03 0.42-0.16 0.58s-0.32 0.26-0.53 0.28c-0.16 0.01-0.3 0.01-0.47 0.01zm-0.4-13.34c-2.19 0.01-2.52 0.36-2.52 2.59v6.66c0 2.23 0.33 2.58 2.52 2.59-0.01-0.27-0.02-0.57-0.02-0.92v-10c0-0.35 0.01-0.65 0.02-0.92z"/>
 <path d="m18.67 19.42h-0.34c-0.17 0-0.31 0-0.47-0.01-0.21-0.01-0.4-0.11-0.53-0.28-0.13-0.16-0.19-0.37-0.16-0.58 0.06-0.4 0.08-0.88 0.08-1.55v-10c0-0.67-0.03-1.15-0.08-1.55-0.03-0.21 0.03-0.42 0.16-0.58s0.32-0.26 0.53-0.28c0.16-0.01 0.3-0.01 0.47-0.01h0.34c3.09 0 4.08 0.99 4.08 4.09v6.66c0 3.1-0.99 4.09-4.08 4.09zm0.06-13.34c0.01 0.27 0.02 0.57 0.02 0.92v10c0 0.35-0.01 0.65-0.02 0.92 2.19-0.01 2.52-0.36 2.52-2.59v-6.66c0-2.23-0.33-2.58-2.52-2.59z"/>
</svg>
