<?xml version="1.0" encoding="UTF-8"?>
<svg width="24" height="24" viewBox="0 0 24 24" xmlns="http://www.w3.org/2000/svg">
 <path d="m16.5 19.75h-9c-0.75 0-1.3-0.03-1.77-0.1-3.32-0.36-3.98-2.35-3.98-5.65v-4c0-3.3 0.66-5.29 4.01-5.66 0.44-0.06 0.99-0.09 1.74-0.09h9c0.75 0 1.3 0.03 1.77 0.1 3.33 0.37 3.98 2.35 3.98 5.65v4c0 3.3-0.66 5.29-4.01 5.66-0.44 0.06-0.99 0.09-1.74 0.09zm-9-14c-0.68 0-1.16 0.03-1.55 0.08-2.03 0.23-2.7 0.86-2.7 4.17v4c0 3.31 0.67 3.94 2.67 4.17 0.42 0.06 0.9 0.08 1.58 0.08h9c0.68 0 1.16-0.03 1.55-0.08 2.03-0.22 2.7-0.86 2.7-4.17v-4c0-3.31-0.67-3.94-2.67-4.17-0.42-0.06-0.9-0.08-1.58-0.08h-9z"/>
 <path d="m19.5 2.75h-15c-0.41 0-0.75-0.34-0.75-0.75s0.34-0.75 0.75-0.75h15c0.41 0 0.75 0.34 0.75 0.75s-0.34 0.75-0.75 0.75z"/>
 <path d="m20 22.75h-15c-0.41 0-0.75-0.34-0.75-0.75s0.34-0.75 0.75-0.75h15c0.41 0 0.75 0.34 0.75 0.75s-0.34 0.75-0.75 0.75z"/>
</svg>
