<?xml version="1.0" encoding="UTF-8"?>
<svg width="24" height="24" viewBox="0 0 24 24" xmlns="http://www.w3.org/2000/svg">
 <path d="m15 22.75h-6c-2.75 0-4.75-2-4.75-4.75v-12c0-2.75 2-4.75 4.75-4.75h6c2.75 0 4.75 2 4.75 4.75v12c0 2.75-2 4.75-4.75 4.75zm-6-20c-2.25 0-3.25 1.63-3.25 3.25v12c0 1.62 1 3.25 3.25 3.25h6c2.25 0 3.25-1.63 3.25-3.25v-12c0-1.62-1-3.25-3.25-3.25h-6z"/>
 <path d="m19 16.76h-14c-0.41 0-0.75-0.34-0.75-0.75s0.34-0.75 0.75-0.75h14c0.41 0 0.75 0.34 0.75 0.75s-0.34 0.75-0.75 0.75z"/>
 <path d="m2 20.75c-0.41 0-0.75-0.34-0.75-0.75v-16c0-0.41 0.34-0.75 0.75-0.75s0.75 0.34 0.75 0.75v16c0 0.41-0.34 0.75-0.75 0.75z"/>
 <path d="m22 20.75c-0.41 0-0.75-0.34-0.75-0.75v-16c0-0.41 0.34-0.75 0.75-0.75s0.75 0.34 0.75 0.75v16c0 0.41-0.34 0.75-0.75 0.75z"/>
</svg>
