<?xml version="1.0" encoding="UTF-8"?>
<svg width="24" height="24" viewBox="0 0 24 24" xmlns="http://www.w3.org/2000/svg">
 <path d="m18.61 6.68c-0.41 0-0.75-0.34-0.75-0.75v-1.51c0-0.6-0.49-1.1-1.1-1.1h-12.93c-0.6 0-1.1 0.49-1.1 1.1v1.51c0 0.41-0.34 0.75-0.75 0.75s-0.74-0.34-0.74-0.75v-1.51c0-1.43 1.17-2.6 2.6-2.6h12.92c1.43 0 2.6 1.16 2.6 2.6v1.51c0 0.41-0.34 0.75-0.75 0.75z"/>
 <path d="m10.3 18.85c-0.41 0-0.75-0.34-0.75-0.75v-14.78c0-0.41 0.34-0.75 0.75-0.75s0.75 0.34 0.75 0.75v14.78c0 0.42-0.34 0.75-0.75 0.75z"/>
 <path d="m12.48 18.85h-5.58c-0.41 0-0.75-0.34-0.75-0.75s0.34-0.75 0.75-0.75h5.58c0.41 0 0.75 0.34 0.75 0.75s-0.34 0.75-0.75 0.75z"/>
 <path d="m22.01 13.2c-0.41 0-0.75-0.34-0.75-0.75v-0.8c0-0.31-0.26-0.57-0.57-0.57h-7.01c-0.41 0-0.75-0.34-0.75-0.75 0-0.41004 0.34-0.75004 0.75-0.75004h7.01c1.14 0 2.07 0.93004 2.07 2.07v0.8c0 0.42-0.33 0.75-0.75 0.75z"/>
 <path d="m16.08 22.18c-0.41 0-0.75-0.34-0.75-0.75v-10.56c0-0.41 0.34-0.75 0.75-0.75s0.75 0.34 0.75 0.75v10.56c0 0.41-0.34 0.75-0.75 0.75z"/>
 <path d="m18.22 22.18h-4.28c-0.41 0-0.75-0.34-0.75-0.75s0.34-0.75 0.75-0.75h4.28c0.41 0 0.75 0.34 0.75 0.75s-0.34 0.75-0.75 0.75z"/>
</svg>
