<?xml version="1.0" encoding="UTF-8"?>
<svg width="24" height="24" viewBox="0 0 24 24" xmlns="http://www.w3.org/2000/svg">
 <path d="m17.6 22.56h-6.2c-0.41 0-0.75-0.34-0.75-0.75s0.34-0.75 0.75-0.75h6.2c1.07 0 2.12-0.8901 2.3-1.9501l1.33-7.9599c0.12-0.72-0.2799-1.7501-0.8399-2.2001l-6.9301-5.5399c-0.8-0.64-2.13-0.64001-2.92-0.01001l-6.93 5.5499c-0.57 0.46-0.96 1.4801-0.84 2.2001l0.28 1.6899c0.07 0.41-0.20999 0.8-0.61999 0.86-0.41 0.08-0.78999-0.21-0.85999-0.62l-0.28-1.6799c-0.21-1.24 0.39001-2.83 1.38-3.62l6.93-5.55c1.34-1.08 3.45-1.07 4.8 0.01001l6.93 5.54c0.98 0.79 1.58 2.38 1.38 3.62l-1.33 7.9599c-0.3 1.77-1.99 3.2001-3.78 3.2001z"/>
 <path d="m5.0002 22.75c-0.41 0-0.74-0.33-0.75-0.73-0.03-1.35-0.91999-2.24-2.27-2.27-0.41-0.01-0.74001-0.35-0.73001-0.77 0.01-0.41 0.34-0.73 0.75-0.73h0.01999c2.15 0.05 3.69 1.58 3.73 3.73 0.01 0.41-0.32001 0.76-0.73001 0.77h-0.01999z"/>
 <path d="m8.0002 22.75c-0.41 0-0.75-0.33-0.75-0.74-0.01001-0.66-0.12001-1.29-0.32001-1.88-0.51-1.46-1.6-2.5401-3.06-3.0601-0.59-0.21-1.22-0.3199-1.88-0.3199-0.41 0-0.74999-0.34-0.73999-0.76 0-0.41 0.34-0.74 0.75-0.74h0.01c0.83 0.01 1.62 0.15 2.36 0.41 1.89 0.67 3.3 2.08 3.97 3.97 0.26 0.74 0.4 1.54 0.41001 2.36 0 0.42-0.33 0.76-0.75 0.76 0 0 0.01 0 0 0z"/>
 <path d="m2 23c-0.56 0-1-0.45-1-1s0.45-1 1-1 1 0.45 1 1-0.44 1-1 1z"/>
</svg>
