<?xml version="1.0" encoding="UTF-8"?>
<svg width="24" height="24" viewBox="0 0 24 24" xmlns="http://www.w3.org/2000/svg">
 <path d="m15.5 14.5h-12c-0.23 0-0.44-0.1-0.58-0.28-0.14-0.17-0.19999-0.41-0.14999-0.63l0.84999-4.05c0.28-1.32 0.88-2.67 3.25-2.67h5.27c2.37 0 2.97 1.35 3.25 2.67l0.85 4.05c0.05 0.22-0.0101 0.45-0.1501 0.63-0.15 0.18-0.3599 0.28-0.5899 0.28zm-11.08-1.5h10.15l-0.66-3.15c-0.21-1.01-0.46-1.48-1.78-1.48h-5.27c-1.32 0-1.57 0.46998-1.78 1.48l-0.66 3.15z"/>
 <path d="m15.47 22.75h-1.41c-1.35 0-1.63-0.83-1.77-1.28l-0.15-0.45c-0.18-0.51-0.18-0.51-0.71-0.51h-3.84c-0.54 0-0.54999 0.02-0.70999 0.51l-0.15001 0.45c-0.15 0.45-0.43 1.29-1.78 1.29h-1.41c-0.65 0-1.26-0.27-1.7-0.75-0.42-0.46-0.62999-1.09-0.56999-1.71l0.42-4.57c0.13-1.42 0.59-2.73 3.03-2.73h9.57c2.44 0 2.9001 1.31 3.0301 2.73l0.42 4.57c0.06 0.62-0.1501 1.24-0.5701 1.71-0.44 0.47-1.05 0.74-1.7 0.74zm-1.67-1.52c0.02 0 0.1 0.02 0.26 0.02h1.41c0.23 0 0.44-0.09 0.59-0.26 0.14-0.16 0.21-0.35 0.19-0.56l-0.42-4.57c-0.09-0.94-0.13-1.37-1.54-1.37h-9.57c-1.41 0-1.45 0.43-1.54 1.37l-0.42 4.57c-0.02 0.21 0.05 0.41 0.19 0.56 0.15 0.17 0.36 0.26 0.59 0.26h1.41c0.22 0 0.28001-0.03 0.29001-0.03 0-0.01 0.03999-0.13 0.06999-0.22l0.15001-0.45c0.2-0.61 0.51-1.54 2.14-1.54h3.84c1.61 0 1.9101 0.88 2.1301 1.53l0.1599 0.46c0.01 0.08 0.04 0.19 0.07 0.23z"/>
 <path d="m3.5 12.25h-0.75c-0.41 0-0.75-0.34-0.75-0.75s0.34-0.75 0.75-0.75h0.75c0.41 0 0.75 0.34 0.75 0.75s-0.34 0.75-0.75 0.75z"/>
 <path d="m16.25 12.25h-0.75c-0.41 0-0.75-0.34-0.75-0.75s0.34-0.75 0.75-0.75h0.75c0.41 0 0.75 0.34 0.75 0.75s-0.34 0.75-0.75 0.75z"/>
 <path d="m7.25 17.5h-2.25c-0.41 0-0.75-0.34-0.75-0.75s0.34-0.75 0.75-0.75h2.25c0.41 0 0.75 0.34 0.75 0.75s-0.34 0.75-0.75 0.75z"/>
 <path d="m14 17.5h-2.25c-0.41 0-0.75-0.34-0.75-0.75s0.34-0.75 0.75-0.75h2.25c0.41 0 0.75 0.34 0.75 0.75s-0.34 0.75-0.75 0.75z"/>
 <path d="m18.71 9.49c-0.1 0-0.2-0.02-0.3-0.06-0.38-0.17-0.55-0.60999-0.39-0.98999 0.19-0.43 0.08-1.06-0.27-1.58-0.35-0.53-0.88-0.87999-1.37-0.85999h-0.01c-0.41 0-0.74-0.32999-0.75-0.73999 0-0.42 0.33-0.75001 0.74-0.76001 1.03-0.02 2 0.57002 2.63 1.52 0.64 0.96 0.79 2.11 0.4 3.01-0.11 0.29-0.39 0.45997-0.68 0.45997z"/>
 <path d="m21.82 10.48c-0.07 0-0.13-0.01-0.2-0.03-0.4-0.11-0.63-0.51994-0.52-0.91994 0.38-1.36 0.06-2.98-0.85-4.34s-2.29-2.27-3.7-2.44c-0.41-0.05-0.7-0.42002-0.65-0.83002s0.43-0.70996 0.83-0.64996c1.83 0.22 3.61 1.38 4.76 3.1s1.54 3.8 1.05 5.58c-0.09 0.30996-0.39 0.52996-0.72 0.52996z"/>
</svg>
