<?xml version="1.0" encoding="UTF-8"?>
<svg width="24" height="24" viewBox="0 0 24 24" xmlns="http://www.w3.org/2000/svg">
 <path d="m10 14.75h-3.8c-3.42 0-4.95-1.53-4.95-4.95v-3.6001c0-3.42 1.53-4.95 4.95-4.95h3.6c3.42 0 4.95 1.53 4.95 4.95v3.8c0 0.41-0.33 0.74-0.74 0.75-2.4 0.04-3.22 0.87-3.26 3.26-0.01 0.41-0.34 0.74-0.75 0.74zm-3.8-12c-2.58 0-3.45 0.86995-3.45 3.45v3.6001c0 2.58 0.87 3.45 3.45 3.45h3.09c0.24-2.44 1.52-3.71 3.96-3.96v-3.0901c0-2.58-0.87-3.45-3.45-3.45h-3.6z"/>
 <path d="m5.2 6.6296c-0.23 0-0.47-0.10994-0.61-0.31994-0.24-0.34-0.16-0.81005 0.18-1.05 0.78-0.55 1.83-0.56002 2.62-0.02002 0.34 0.23 0.43 0.70004 0.2 1.04s-0.7 0.42995-1.04 0.19995c-0.27-0.18-0.62999-0.17999-0.89999 0.01001-0.15 0.1-0.30001 0.14001-0.45001 0.14001z"/>
 <path d="m9.2 6.6296c-0.23 0-0.47-0.10994-0.61-0.31994-0.24-0.34-0.16-0.81005 0.18-1.05 0.78-0.55 1.83-0.56002 2.62-0.02002 0.34 0.23 0.43 0.70004 0.2 1.04s-0.7 0.42995-1.04 0.19995c-0.27-0.18-0.62999-0.17999-0.89999 0.01001-0.15 0.1-0.30001 0.14001-0.45001 0.14001z"/>
 <path d="m8.1598 12.17h-2.32c-0.71 0-1.29-0.5801-1.29-1.2901 0-1.9 1.55-3.4499 3.45-3.4499 0.78 0 1.55 0.26989 2.16 0.75989 0.32 0.26 0.38 0.73004 0.12 1.05s-0.72999 0.37-1.05 0.12c-0.34999-0.28-0.77-0.42993-1.22-0.42993-1 0-1.83 0.75999-1.94 1.74h2.1c0.41 0 0.75 0.34 0.75 0.75s-0.34999 0.75-0.75999 0.75z"/>
 <path d="m17.8 22.75h-3.6c-3.42 0-4.95-1.53-4.95-4.95v-3.8c0.06-3.19 1.56-4.69 4.74-4.75h3.81c3.42 0 4.95 1.53 4.95 4.95v3.6c0 3.42-1.53 4.95-4.95 4.95zm-3.8-12c-2.38 0.04-3.21 0.87-3.25 3.26v3.79c0 2.58 0.87 3.45 3.45 3.45h3.6c2.58 0 3.45-0.87 3.45-3.45v-3.6c0-2.58-0.87-3.45-3.45-3.45h-3.8z"/>
 <path d="m14.09 14.63c-0.47 0-0.93-0.14-1.32-0.42-0.34-0.24-0.42-0.7099-0.18-1.0499s0.71-0.4201 1.05-0.1801c0.27 0.19 0.63 0.19 0.9 0.01 0.34-0.23 0.81-0.15 1.04 0.2 0.23 0.34 0.15 0.81-0.2 1.04-0.39 0.27-0.84 0.4-1.29 0.4z"/>
 <path d="m18.09 14.63c-0.47 0-0.93-0.14-1.32-0.42-0.34-0.24-0.42-0.7099-0.18-1.0499s0.71-0.4201 1.05-0.1801c0.27 0.19 0.63 0.19 0.9 0.01 0.34-0.23 0.81-0.15 1.04 0.2 0.23 0.34 0.15 0.81-0.2 1.04-0.39 0.27-0.84 0.4-1.29 0.4z"/>
 <path d="m16 20.17c-1.9 0-3.45-1.5501-3.45-3.4501 0-0.71 0.58-1.2899 1.29-1.2899h4.32c0.71 0 1.29 0.5799 1.29 1.2899 0 1.9-1.55 3.4501-3.45 3.4501zm-1.94-3.24c0.1 0.98 0.93 1.74 1.94 1.74s1.83-0.76 1.94-1.74h-3.88z"/>
</svg>
