<?xml version="1.0" encoding="UTF-8"?>
<svg width="24" height="24" viewBox="0 0 24 24" xmlns="http://www.w3.org/2000/svg">
 <path d="m17 21.25h-10c-3.65 0-5.75-2.1-5.75-5.75v-7c0-3.65 2.1-5.75 5.75-5.75h5c0.41 0 0.75 0.34 0.75 0.75s-0.34 0.75-0.75 0.75h-5c-2.86 0-4.25 1.39-4.25 4.25v7c0 2.86 1.39 4.25 4.25 4.25h10c2.86 0 4.25-1.39 4.25-4.25v-4c0-0.41 0.34-0.75 0.75-0.75s0.75 0.34 0.75 0.75v4c0 3.65-2.1 5.75-5.75 5.75z"/>
 <path d="m12 12.87c-0.84 0-1.69-0.26-2.34-0.79l-3.13-2.5c-0.32-0.26-0.38-0.73-0.12-1.05s0.72999-0.38 1.05-0.12l3.13 2.5c0.76 0.61 2.05 0.61 2.81 0 0.32-0.26 0.79-0.21 1.05 0.12 0.26 0.32 0.21 0.8-0.12 1.05-0.64 0.53-1.49 0.79-2.33 0.79z"/>
 <path d="m16.74 9.7502c-0.41 0-0.69-0.14001-0.87-0.27001-0.33-0.24-0.84-0.83998-0.54-2.16l0.05-0.21001c0.02-0.08-0.04-0.27-0.09-0.33l-0.35-0.35001c-0.59-0.6-0.82-1.3-0.62-1.93 0.2-0.62 0.79-1.06 1.62-1.2l0.38-0.06c0.07-0.02 0.21-0.12 0.25-0.19l0.28-0.57001c0.39-0.79 0.99-1.24 1.65-1.24s1.26 0.44999 1.65 1.24l0.28 0.57001c0.03 0.06 0.18 0.17 0.25 0.19l0.38 0.06c0.83 0.14 1.42 0.58 1.62 1.2s-0.02 1.32-0.62 1.93l-0.35 0.35001c-0.05 0.06-0.11 0.25-0.09 0.33l0.05 0.21001c0.3 1.32-0.21 1.92-0.54 2.16s-1.05 0.52998-2.2-0.15998l-0.25-0.15001c-0.07-0.04-0.27-0.04-0.34 0l-0.26 0.15001c-0.54 0.32-0.99 0.42999-1.34 0.42999zm1.75-7c-0.01 0.01-0.15 0.10999-0.29 0.39999l-0.28 0.57001c-0.24 0.49-0.81 0.91-1.34 1l-0.38 0.06c-0.32 0.05-0.43 0.16001-0.44 0.18001 0 0.02 0.03 0.17998 0.26 0.40998l0.35 0.35001c0.41 0.42 0.62 1.14 0.49 1.71l-0.05 0.21001c-0.08 0.36-0.05 0.54999-0.03 0.61999 0.02-0.02 0.2-0.03999 0.53-0.23999l0.26-0.15001c0.55-0.33 1.34-0.33 1.89 0l0.25 0.15001c0.33 0.2 0.5 0.22 0.56 0.22-0.01-0.03 0.03-0.21-0.06-0.6l-0.05-0.21001c-0.13-0.58 0.08-1.29 0.49-1.71l0.35-0.35001c0.23-0.23 0.26-0.38999 0.26-0.41999-0.01-0.02-0.12-0.12-0.44-0.18l-0.38-0.05999c-0.54-0.09-1.1-0.51-1.34-1l-0.28-0.56002c-0.16-0.3-0.29-0.38999-0.33-0.39999z"/>
</svg>
