<?xml version="1.0" encoding="UTF-8"?>
<svg width="24" height="24" viewBox="0 0 24 24" xmlns="http://www.w3.org/2000/svg">
 <path d="m12 21.25h-5c-3.65 0-5.75-2.1-5.75-5.75v-7c0-3.65 2.1-5.75 5.75-5.75h10c3.65 0 5.75 2.1 5.75 5.75v3c0 0.41-0.34 0.75-0.75 0.75s-0.75-0.34-0.75-0.75v-3c0-2.86-1.39-4.25-4.25-4.25h-10c-2.86 0-4.25 1.39-4.25 4.25v7c0 2.86 1.39 4.25 4.25 4.25h5c0.41 0 0.75 0.34 0.75 0.75s-0.34 0.75-0.75 0.75z"/>
 <path d="m12 12.87c-0.84 0-1.69-0.26-2.34-0.79l-3.13-2.5c-0.32-0.26-0.38-0.72999-0.12-1.05s0.72999-0.37 1.05-0.12l3.13 2.5c0.76 0.61 2.05 0.61 2.81 0l3.13-2.5c0.32-0.26 0.79-0.21 1.05 0.12 0.26 0.32 0.21 0.79999-0.12 1.05l-3.13 2.5c-0.64 0.53-1.49 0.79-2.33 0.79z"/>
 <path d="m18.2 22.15c-2.18 0-3.95-1.77-3.95-3.95s1.77-3.95 3.95-3.95 3.95 1.77 3.95 3.95-1.77 3.95-3.95 3.95zm0-6.4c-1.35 0-2.45 1.1-2.45 2.45s1.1 2.45 2.45 2.45 2.45-1.1 2.45-2.45-1.1-2.45-2.45-2.45z"/>
 <path d="m22 22.75c-0.19 0-0.38-0.07-0.53-0.22l-1-1c-0.29-0.29-0.29-0.77 0-1.06s0.77-0.29 1.06 0l1 1c0.29 0.29 0.29 0.77 0 1.06-0.15 0.15-0.34 0.22-0.53 0.22z"/>
</svg>
