<?xml version="1.0" encoding="UTF-8"?>
<svg width="24" height="24" viewBox="0 0 24 24" xmlns="http://www.w3.org/2000/svg">
 <path d="m12 18.18c-1.02 0-1.63-0.38-2.03-0.63-0.19-0.12-0.33-0.2-0.47-0.25-0.33-0.11-0.64-0.12-0.91-0.14-0.31-0.01-0.61999-0.02-0.88999-0.2-0.28-0.19-0.37-0.46-0.41-0.64-0.02-0.01-0.04-0.01-0.06-0.02-0.26-0.07-0.55002-0.15-0.90002-0.34-0.52-0.29-0.57999-0.68-0.57999-0.89 0.01-0.2 0.09-0.58 0.59-0.81 1.21-0.58 1.63-1.39 1.76-1.74-0.11-0.07-0.24002-0.15-0.36002-0.23l-0.31-0.2c-0.82-0.57-0.67998-1.25-0.57998-1.51 0.16-0.44 0.56998-0.71 1.08-0.71 0.1 0 0.19 0.01 0.28 0.03 0.02 0 0.03002 0.01001 0.05002 0.01001 0-0.31-1e-5 -0.58001 0.01999-0.82001 0.1-1.07 0.48-1.64 0.85-2.06 0.32-0.36 1.23-1.21 2.85-1.21 1.11 0 2.15 0.43 2.84 1.18 0.4 0.47 0.77 1.03 0.86 2.08 0.02 0.28 0.03 0.56001 0.03 0.82001h0.02c0.04-0.02 0.17-0.04001 0.3-0.04001 0.51 0 0.92 0.28001 1.08 0.73001 0.1 0.25 0.24 0.92-0.58 1.5-0.06 0.04-0.17 0.12-0.31 0.2-0.13 0.08-0.25 0.16-0.35 0.23 0.14 0.36 0.57 1.16 1.77 1.75 0.48 0.26 0.58 0.59 0.58 0.83 0 0.25-0.1 0.6-0.58 0.86-0.35 0.19-0.65 0.28-0.9 0.35-0.02 0-0.04 0.01-0.07 0.02-0.05 0.21-0.14 0.45-0.39 0.62-0.29 0.19-0.59 0.2-0.89 0.21-0.28 0.01-0.59 0.03-0.94 0.14-0.12 0.04-0.26 0.13-0.43 0.23-0.42 0.28-1.01 0.65-2.02 0.65zm-3.31-2.51c0.34 0.02 0.78 0.05 1.28 0.21 0.3 0.1 0.54 0.24 0.8 0.4 0.33 0.21 0.64 0.4 1.23 0.4 0.58 0 0.89-0.19 1.24-0.41 0.25-0.15 0.49-0.29 0.78-0.39 0.54-0.17 0.99-0.2 1.3-0.21 0.06-0.19 0.19-0.39 0.43-0.55 0.08-0.05 0.15-0.09 0.24-0.13-1.42-1.08-1.62-2.35-1.63-2.42v-0.04c-0.03-0.19-0.06-0.59 0.32-0.96-0.11-0.05-0.2-0.12-0.26-0.19-0.12-0.12-0.25-0.34-0.22-0.69 0.02-0.42 0.06-0.98 0.02-1.48-0.06-0.67-0.26-0.95-0.49-1.22-0.22-0.24-0.76-0.68-1.71-0.68-1.03 0-1.58 0.53001-1.72 0.69001-0.22 0.25-0.41999 0.54001-0.47999 1.2-0.03 0.37-0.03002 0.84998 0.00998 1.4 0.01 0.05 0.01001 0.11 0.01001 0.14 0.02 0.29-0.11001 0.51-0.23001 0.63-0.05 0.06-0.13998 0.13-0.25998 0.19 0.39 0.37 0.35 0.78 0.32 0.97v0.04c-0.01 0.06-0.21002 1.33-1.62 2.41 0.08 0.04 0.17 0.08 0.25 0.14 0.21 0.16 0.33001 0.37 0.39001 0.55zm8.62-0.36-0.35-0.66s-0.01 0-0.01 0.01l0.36 0.65-0.36-0.65 0.36 0.65z"/>
 <path d="m12 22.75c-5.93 0-10.75-4.82-10.75-10.75s4.82-10.75 10.75-10.75 10.75 4.82 10.75 10.75-4.82 10.75-10.75 10.75zm0-20c-5.1 0-9.25 4.15-9.25 9.25s4.15 9.25 9.25 9.25 9.25-4.15 9.25-9.25-4.15-9.25-9.25-9.25z"/>
</svg>
