<?xml version="1.0" encoding="UTF-8"?>
<svg width="24" height="24" viewBox="0 0 24 24" xmlns="http://www.w3.org/2000/svg">
 <path d="m18.5 8.25h-14.5c-0.67 0-1.27-0.37-1.56-0.97-0.3-0.6-0.24003-1.3 0.15997-1.83l1.5-2c0.33-0.44 0.85003-0.7 1.4-0.7h14.5c0.67 0 1.27 0.37 1.56 0.97 0.3 0.6 0.24 1.3-0.16 1.83l-1.5 2c-0.33 0.44-0.85 0.7-1.4 0.7zm-13-4c-0.08 0-0.15002 0.04-0.20002 0.1l-1.5 2c-0.08 0.11-0.04995 0.21-0.01995 0.26s0.08997 0.14 0.21997 0.14h14.5c0.08 0 0.15-0.04 0.2-0.1l1.5-2c0.08-0.11 0.0499-0.21 0.0199-0.26s-0.0899-0.14-0.2199-0.14h-14.5z"/>
 <path d="m20 14.75h-14.5c-0.55 0-1.07-0.26-1.4-0.7l-1.5-2c-0.4-0.53-0.45998-1.24-0.16998-1.83 0.3-0.6 0.9-0.97 1.56-0.97h14.5c0.55 0 1.07 0.26 1.4 0.7l1.5 2c0.4 0.53 0.46 1.24 0.17 1.83-0.29 0.6-0.89 0.97-1.56 0.97zm-16-4c-0.13 0-0.19997 0.09-0.21997 0.14-0.03 0.05-0.06004 0.15 0.01996 0.26l1.5 2c0.05 0.06 0.12001 0.1 0.20001 0.1h14.5c0.13 0 0.1999-0.09 0.2199-0.14 0.03-0.05 0.0601-0.15-0.0199-0.26l-1.5-2c-0.05-0.06-0.12-0.1-0.2-0.1h-14.5z"/>
 <path d="m18.5 21.25h-14.5c-0.67 0-1.27-0.37-1.56-0.97-0.3-0.6-0.24003-1.3 0.15997-1.83l1.5-2c0.33-0.44 0.85003-0.7 1.4-0.7h14.5c0.67 0 1.27 0.37 1.56 0.97 0.3 0.6 0.24 1.3-0.16 1.83l-1.5 2c-0.33 0.44-0.85 0.7-1.4 0.7zm-13-4c-0.08 0-0.15002 0.04-0.20002 0.1l-1.5 2c-0.08 0.11-0.04995 0.21-0.01995 0.26s0.08997 0.14 0.21997 0.14h14.5c0.08 0 0.15-0.04 0.2-0.1l1.5-2c0.08-0.11 0.0499-0.21 0.0199-0.26s-0.0899-0.14-0.2199-0.14h-14.5z"/>
</svg>
