<?xml version="1.0" encoding="UTF-8"?>
<svg width="24" height="24" viewBox="0 0 24 24" xmlns="http://www.w3.org/2000/svg">
 <path d="m15 22.75h-6c-3.42 0-4.75-1.33-4.75-4.75v-12c0-3.42 1.33-4.75 4.75-4.75h6c3.42 0 4.75 1.33 4.75 4.75v12c0 3.42-1.33 4.75-4.75 4.75zm-6-20c-2.58 0-3.25 0.67-3.25 3.25v12c0 2.58 0.67 3.25 3.25 3.25h6c2.58 0 3.25-0.67 3.25-3.25v-12c0-2.58-0.67-3.25-3.25-3.25h-6z"/>
 <path d="m12 18.75c-2.07 0-3.75-1.68-3.75-3.75s1.68-3.75 3.75-3.75 3.75 1.68 3.75 3.75-1.68 3.75-3.75 3.75zm0-6c-1.24 0-2.25 1.01-2.25 2.25s1.01 2.25 2.25 2.25 2.25-1.01 2.25-2.25-1.01-2.25-2.25-2.25z"/>
 <path d="m12 9.75c-1.24 0-2.25-1.01-2.25-2.25s1.01-2.25 2.25-2.25 2.25 1.01 2.25 2.25-1.01 2.25-2.25 2.25zm0-3c-0.41 0-0.75 0.34-0.75 0.75s0.34 0.75 0.75 0.75 0.75-0.34 0.75-0.75-0.34-0.75-0.75-0.75z"/>
</svg>
