<?xml version="1.0" encoding="UTF-8"?>
<svg width="24" height="24" viewBox="0 0 24 24" xmlns="http://www.w3.org/2000/svg">
 <path d="m19.14 20.25c-0.19 0-0.38-0.07-0.53-0.21-0.3-0.29-0.3-0.76-0.01-1.06 1.71-1.74 2.65-4.04 2.65-6.48 0-5.1-4.15-9.25-9.25-9.25s-9.25 4.15-9.25 9.25c0 2.43 0.93 4.72 2.63 6.46 0.29 0.3 0.28 0.77-0.01 1.06-0.3 0.29-0.77 0.28-1.06-0.01-1.97-2.02-3.06-4.69-3.06-7.51 0-5.93 4.82-10.75 10.75-10.75s10.75 4.82 10.75 10.75c0 2.83-1.09 5.51-3.08 7.53-0.14 0.15-0.34 0.22-0.53 0.22z"/>
 <path d="m12 22.25c-2.27 0-4.12-1.85-4.12-4.12s1.85-4.13 4.12-4.13c2.27 0 4.12 1.85 4.12 4.12s-1.85 4.13-4.12 4.13zm0-6.75c-1.45 0-2.62 1.18-2.62 2.62s1.18 2.62 2.62 2.62 2.62-1.18 2.62-2.62-1.17-2.62-2.62-2.62z"/>
 <path d="m16 12.75h-0.75c-0.83 0-1.5-0.67-1.5-1.5v-0.75c0-1.24 1.01-2.25 2.25-2.25s2.25 1.01 2.25 2.25-1.01 2.25-2.25 2.25zm0-3c-0.41 0-0.75 0.34-0.75 0.75v0.75h0.75c0.41 0 0.75-0.34 0.75-0.75s-0.34-0.75-0.75-0.75z"/>
</svg>
