<svg width="24" height="24" viewBox="0 0 24 24"  xmlns="http://www.w3.org/2000/svg">
<path opacity="0.4" d="M12 22C17.5228 22 22 17.5228 22 12C22 6.47715 17.5228 2 12 2C6.47715 2 2 6.47715 2 12C2 17.5228 6.47715 22 12 22Z" />
<path d="M17.48 11.4202C17.33 11.4202 17.18 11.3702 17.04 11.2802C14.06 9.14015 10.24 8.67015 6.83998 10.0302C6.44998 10.1802 6.01998 9.99015 5.86998 9.61015C5.71998 9.23015 5.90997 8.79015 6.28997 8.64015C10.17 7.10015 14.52 7.63016 17.92 10.0702C18.26 10.3102 18.33 10.7801 18.09 11.1201C17.95 11.3101 17.72 11.4202 17.48 11.4202Z" />
<path d="M15.9098 14.1097C15.7598 14.1097 15.6098 14.0597 15.4698 13.9697C13.3498 12.4497 10.6399 12.1197 8.20985 13.0797C7.82985 13.2297 7.38985 13.0397 7.23985 12.6597C7.08985 12.2697 7.27985 11.8397 7.65985 11.6897C10.5598 10.5397 13.8098 10.9397 16.3398 12.7597C16.6798 12.9997 16.7498 13.4697 16.5098 13.8097C16.3698 13.9997 16.1398 14.1097 15.9098 14.1097Z" />
<path d="M14.81 16.8996C14.66 16.8996 14.51 16.8496 14.37 16.7596C12.83 15.6596 10.86 15.4196 9.09999 16.1096C8.71999 16.2596 8.27999 16.0696 8.12999 15.6896C7.97999 15.2996 8.16998 14.8696 8.54998 14.7196C10.79 13.8296 13.29 14.1396 15.24 15.5396C15.58 15.7796 15.65 16.2496 15.41 16.5896C15.28 16.7896 15.05 16.8996 14.81 16.8996Z" />
</svg>
