<?xml version="1.0" encoding="UTF-8"?>
<svg width="24" height="24" viewBox="0 0 24 24" xmlns="http://www.w3.org/2000/svg">
 <path d="m12 22.75c-5.93 0-10.75-4.82-10.75-10.75s4.82-10.75 10.75-10.75 10.75 4.82 10.75 10.75-4.82 10.75-10.75 10.75zm0-20c-5.1 0-9.25 4.15-9.25 9.25s4.15 9.25 9.25 9.25 9.25-4.15 9.25-9.25-4.15-9.25-9.25-9.25z"/>
 <path d="m17.48 11.419c-0.15 0-0.3-0.05-0.44-0.14-2.98-2.14-6.8-2.61-10.2-1.25-0.39 0.15-0.82-0.04005-0.97-0.42005s0.04-0.81997 0.42-0.96997c3.88-1.54 8.23-1.01 11.63 1.43 0.34 0.24 0.41 0.71 0.17 1.05-0.14 0.19-0.37 0.3-0.61 0.3z"/>
 <path d="m15.91 14.11c-0.15 0-0.3-0.05-0.44-0.14-2.12-1.52-4.8299-1.85-7.26-0.89-0.38 0.15-0.82-0.04-0.97-0.42-0.15-0.39 0.04-0.82 0.42-0.97 2.9-1.15 6.15-0.75 8.68 1.07 0.34 0.24 0.41 0.71 0.17 1.05-0.14 0.19-0.37 0.3-0.6 0.3z"/>
 <path d="m14.81 16.9c-0.15 0-0.3-0.05-0.44-0.14-1.54-1.1-3.51-1.34-5.27-0.65-0.38 0.15-0.82-0.04-0.97-0.42-0.15-0.39 0.03999-0.82 0.41999-0.97 2.24-0.89 4.74-0.58 6.69 0.82 0.34 0.24 0.41 0.71 0.17 1.05-0.13 0.2-0.36 0.31-0.6 0.31z"/>
</svg>
