<?xml version="1.0" encoding="UTF-8"?>
<svg width="24" height="24" viewBox="0 0 24 24" xmlns="http://www.w3.org/2000/svg">
 <path d="m9.37 22.75h-4.75c-2.3 0-3.37-1.07-3.37-3.37v-4.75c0-2.31 1.07-3.38 3.37-3.38h2.38c0.41 0 0.75 0.34 0.75 0.75v2.37c0 1.46 0.42 1.88 1.87 1.88h2.38c0.41 0 0.75 0.34 0.75 0.75v2.38c0 2.3-1.07 3.37-3.38 3.37zm-4.75-10c-1.45 0-1.87 0.42-1.87 1.88v4.75c0 1.45 0.42 1.87 1.87 1.87h4.75c1.46 0 1.88-0.42 1.88-1.87v-1.63h-1.63c-2.3 0-3.37-1.07-3.37-3.38v-1.62h-1.63z"/>
 <path d="m14.37 17.75h-4.75c-2.3 0-3.37-1.07-3.37-3.38v-4.75c0-2.3 1.07-3.37 3.37-3.37h2.38c0.41 0 0.75 0.34 0.75 0.75v2.37c0 1.46 0.42 1.88 1.87 1.88h2.38c0.41 0 0.75 0.34 0.75 0.75v2.37c0 2.31-1.07 3.38-3.38 3.38zm-4.75-10c-1.45 0-1.87 0.42-1.87 1.87v4.75c0 1.46 0.42 1.88 1.87 1.88h4.75c1.46 0 1.88-0.42 1.88-1.88v-1.62h-1.63c-2.3 0-3.37-1.07-3.37-3.38v-1.62h-1.63z"/>
 <path d="m19.37 12.75h-4.75c-2.3 0-3.37-1.07-3.37-3.38v-4.75c0-2.3 1.07-3.37 3.37-3.37h4.75c2.31 0 3.38 1.07 3.38 3.37v4.75c0 2.31-1.07 3.38-3.38 3.38zm-4.75-10c-1.45 0-1.87 0.42-1.87 1.87v4.75c0 1.46 0.42 1.88 1.87 1.88h4.75c1.46 0 1.88-0.42 1.88-1.88v-4.75c0-1.45-0.42-1.87-1.88-1.87h-4.75z"/>
</svg>
