<?xml version="1.0" encoding="UTF-8"?>
<svg width="24" height="24" viewBox="0 0 24 24" xmlns="http://www.w3.org/2000/svg">
 <path d="m15 22.75h-6c-5.43 0-7.75-2.32-7.75-7.75v-6c0-5.43 2.32-7.75 7.75-7.75h6c5.43 0 7.75 2.32 7.75 7.75v6c0 5.43-2.32 7.75-7.75 7.75zm-6-20c-4.61 0-6.25 1.64-6.25 6.25v6c0 4.61 1.64 6.25 6.25 6.25h6c4.61 0 6.25-1.64 6.25-6.25v-6c0-4.61-1.64-6.25-6.25-6.25h-6z"/>
 <path d="m12 13.08c-0.13 0-0.26-0.03-0.38-0.1l-5.3-3.06c-0.36-0.21-0.48002-0.67-0.27002-1.02 0.21-0.36 0.67002-0.48 1.02-0.27l4.92 2.85 4.89-2.83c0.36-0.21 0.82-0.08 1.02 0.27s0.08 0.82-0.27 1.02l-5.26 3.04c-0.11 0.06-0.24 0.1-0.37 0.1z"/>
 <path d="m12 18.52c-0.41 0-0.75-0.34-0.75-0.75v-5.44c0-0.41 0.34-0.75 0.75-0.75s0.75 0.34 0.75 0.75v5.44c0 0.41-0.34 0.75-0.75 0.75z"/>
 <path d="m12 18.75c-0.58 0-1.1499-0.13-1.6099-0.38l-3.2-1.78c-0.96-0.53-1.7-1.8-1.7-2.9v-3.39c0-1.09 0.75002-2.36 1.7-2.9l3.2-1.78c0.92-0.51 2.2999-0.51 3.2199 0l3.2 1.78c0.96 0.53 1.7001 1.8 1.7001 2.9v3.39c0 1.09-0.7501 2.36-1.7001 2.9l-3.2 1.78c-0.46 0.26-1.03 0.38-1.61 0.38zm0-12c-0.33 0-0.65 0.06-0.88 0.19l-3.1999 1.78c-0.49 0.27-0.93003 1.03-0.93003 1.58v3.39c0 0.56 0.44003 1.31 0.93003 1.58l3.1999 1.78c0.46 0.26 1.3 0.26 1.76 0l3.2-1.78c0.49-0.27 0.9301-1.03 0.9301-1.58v-3.39c0-0.55999-0.4401-1.31-0.9301-1.58l-3.2-1.78c-0.23-0.13-0.55-0.19-0.88-0.19z"/>
</svg>
