<?xml version="1.0" encoding="UTF-8"?>
<svg width="24" height="24" viewBox="0 0 24 24" xmlns="http://www.w3.org/2000/svg">
 <path d="m16.5 11.25h-9c-0.41 0-0.75-0.34-0.75-0.75s0.34-0.75 0.75-0.75h9c0.41 0 0.75 0.34 0.75 0.75s-0.34 0.75-0.75 0.75z"/>
 <path d="m11.82 11.25c-0.24 0-0.47-0.11-0.61-0.32l-2.82-4c-0.24-0.34-0.16001-0.81 0.17999-1.04 0.34-0.24 0.80998-0.15999 1.04 0.18001l2.82 4c0.24 0.34 0.16 0.81-0.18 1.04-0.13 0.1-0.28 0.14-0.43 0.14z"/>
 <path d="m12 11.25c-0.15 0-0.3-0.04-0.43-0.14-0.34-0.24-0.42-0.71-0.18-1.04l2.82-4c0.24-0.34 0.71-0.42001 1.04-0.18001 0.34 0.24 0.42 0.71 0.18 1.04l-2.82 4c-0.14 0.21-0.38 0.32-0.61 0.32z"/>
 <path d="m16.5 14.25h-9c-0.41 0-0.75-0.34-0.75-0.75s0.34-0.75 0.75-0.75h9c0.41 0 0.75 0.34 0.75 0.75s-0.34 0.75-0.75 0.75z"/>
 <path d="m8.9998 18.25c-0.15 0-0.3-0.04-0.43-0.14-0.34-0.24-0.41999-0.71-0.17999-1.04l2.82-4c0.24-0.34 0.71-0.42 1.04-0.18 0.34 0.24 0.42 0.71 0.18 1.04l-2.82 4c-0.14 0.21-0.37998 0.32-0.60998 0.32z"/>
 <path d="m14.82 18.25c-0.24 0-0.47-0.11-0.61-0.32l-2.82-4c-0.24-0.34-0.16-0.81 0.18-1.04 0.34-0.24 0.81-0.16 1.04 0.18l2.82 4c0.24 0.34 0.16 0.81-0.18 1.04-0.13 0.1-0.28 0.14-0.43 0.14z"/>
 <path d="m12 22.75c-5.93 0-10.75-4.82-10.75-10.75s4.82-10.75 10.75-10.75 10.75 4.82 10.75 10.75-4.82 10.75-10.75 10.75zm0-20c-5.1 0-9.25 4.15-9.25 9.25s4.15 9.25 9.25 9.25 9.25-4.15 9.25-9.25-4.15-9.25-9.25-9.25z"/>
</svg>
