<?xml version="1.0" encoding="UTF-8"?>
<svg width="24" height="24" viewBox="0 0 24 24" xmlns="http://www.w3.org/2000/svg">
 <path d="m9.4802 20.69c-0.5 0-0.85-0.17-1.06-0.33-0.4-0.29-1.02-1.04-0.63001-2.72l0.56998-2.46c0.05-0.21-0.05999-0.59-0.20999-0.75l-1.99-1.99c-1.05-1.05-0.96001-1.96-0.82001-2.41 0.14-0.45003 0.6-1.24 2.06-1.49l2.55-0.42c0.19-0.03 0.5-0.25999 0.58-0.42999l1.41-2.82c0.68-1.36 1.58-1.56 2.06-1.56s1.38 0.2 2.06 1.56l1.41 2.82c0.09 0.17 0.39 0.39999 0.58 0.42999l2.55 0.42c1.46 0.24 1.92 1.04 2.06 1.49 0.14 0.45 0.23 1.36-0.82 2.41l-1.99 1.99c-0.15 0.15-0.26 0.54-0.21 0.75l0.57 2.46c0.39 1.69-0.23 2.43-0.63 2.72s-1.29 0.66-2.79-0.23l-2.39-1.42c-0.2-0.12-0.62-0.12-0.82 0l-2.39 1.42c-0.69 0.42-1.27 0.56-1.71 0.56zm4.52-15.88c-0.16 0-0.45 0.19-0.72 0.73l-1.41 2.82c-0.3 0.61-1.01 1.13-1.68 1.24l-2.55 0.42002c-0.57 0.1-0.83 0.31-0.88 0.47s0.03998 0.48 0.44998 0.89l1.99 1.99c0.51 0.51 0.77999 1.44 0.61999 2.14l-0.57 2.46c-0.17 0.71-0.06002 1.09 0.04998 1.18 0.11 0.08 0.51001 0.07 1.13-0.31l2.4-1.42c0.67-0.4 1.68-0.4 2.34 0l2.39 1.42c0.63 0.37 1.03 0.39 1.14 0.31s0.22-0.46 0.05-1.18l-0.57-2.46c-0.16-0.71 0.1-1.63 0.62-2.14l1.99-1.99c0.41-0.41 0.5-0.74 0.45-0.89s-0.31-0.37-0.88-0.47l-2.55-0.42002c-0.67-0.11-1.38-0.63001-1.68-1.24l-1.41-2.82c-0.27-0.54-0.56-0.73-0.72-0.73z"/>
 <path d="m8 5.75h-6c-0.41 0-0.75-0.34-0.75-0.75s0.34-0.75 0.75-0.75h6c0.41 0 0.75 0.34 0.75 0.75s-0.34 0.75-0.75 0.75z"/>
 <path d="m5 19.75h-3c-0.41 0-0.75-0.34-0.75-0.75s0.34-0.75 0.75-0.75h3c0.41 0 0.75 0.34 0.75 0.75s-0.34 0.75-0.75 0.75z"/>
 <path d="m3 12.75h-1c-0.41 0-0.75-0.34-0.75-0.75s0.34-0.75 0.75-0.75h1c0.41 0 0.75 0.34 0.75 0.75s-0.34 0.75-0.75 0.75z"/>
</svg>
