<svg width="24" height="24" viewBox="0 0 24 24"  xmlns="http://www.w3.org/2000/svg">
<path d="M5.28012 19.3999C5.22012 19.3999 5.17012 19.3899 5.11012 19.3799C4.71012 19.2899 4.45012 18.8799 4.55012 18.4799L5.12012 16.0199C5.20012 15.6999 5.04012 15.1499 4.80012 14.9099L2.32012 12.4299C1.08012 11.1899 1.18012 10.1299 1.35012 9.60994C1.52012 9.08994 2.06012 8.16994 3.78012 7.87994L6.97012 7.34994C7.27012 7.28994 7.70012 6.96994 7.83012 6.69994L9.60012 3.16994C10.4001 1.55994 11.4501 1.32994 12.0001 1.32994C12.5501 1.32994 13.6001 1.56994 14.4001 3.16994L16.1601 6.68994C16.2201 6.80994 16.3501 6.94994 16.5001 7.06994C16.8301 7.31994 16.8901 7.79994 16.6301 8.11994C16.3801 8.44994 15.9101 8.50994 15.5801 8.24994C15.3401 8.06994 15.0201 7.75994 14.8201 7.35994L13.0601 3.83994C12.7501 3.20994 12.3501 2.82994 12.0001 2.82994C11.6501 2.82994 11.2501 3.20994 10.9401 3.84994L9.17012 7.36994C8.82012 8.06994 7.98012 8.68994 7.21012 8.81994L4.03012 9.34994C3.35012 9.45994 2.89012 9.72994 2.78012 10.0599C2.67012 10.3899 2.90012 10.8799 3.39012 11.3599L5.87012 13.8399C6.47012 14.4399 6.78012 15.5199 6.59012 16.3499L6.02012 18.8099C5.93012 19.1599 5.63012 19.3999 5.28012 19.3999Z" />
<path d="M17.6601 22.6699C17.1301 22.6699 16.4501 22.4999 15.6001 21.9999L12.6101 20.2299C12.3001 20.0499 11.7001 20.0499 11.4001 20.2299L8.40012 21.9999C8.05012 22.2099 7.58012 22.0899 7.37012 21.7399C7.16012 21.3799 7.28012 20.9199 7.63012 20.7099L10.6201 18.9399C11.4001 18.4799 12.5801 18.4799 13.3601 18.9399L16.3501 20.7099C17.2201 21.2299 17.7701 21.2299 17.9801 21.0799C18.1901 20.9299 18.3401 20.3999 18.1201 19.4199L17.4101 16.3499C17.2201 15.5199 17.5301 14.4499 18.1301 13.8399L20.6101 11.3599C21.1001 10.8699 21.3201 10.3899 21.2201 10.0599C21.1101 9.72994 20.6501 9.45994 19.9701 9.34994C19.5601 9.27994 19.2901 8.89994 19.3501 8.48994C19.4201 8.07994 19.8001 7.80994 20.2101 7.86994C21.9401 8.15994 22.4801 9.07994 22.6401 9.59994C22.8001 10.1199 22.9001 11.1799 21.6701 12.4199L19.2001 14.8999C18.9601 15.1399 18.8101 15.6799 18.8801 16.0099L19.5901 19.0799C20.0501 21.0799 19.3401 21.9499 18.8801 22.2899C18.6301 22.4699 18.2301 22.6699 17.6601 22.6699Z" />
<path d="M2.00012 22.7499C1.81012 22.7499 1.62012 22.6799 1.47012 22.5299C1.18012 22.2399 1.18012 21.7599 1.47012 21.4699L21.4701 1.46994C21.7601 1.17994 22.2401 1.17994 22.5301 1.46994C22.8201 1.75994 22.8201 2.23994 22.5301 2.52994L2.53012 22.5299C2.38012 22.6799 2.19012 22.7499 2.00012 22.7499Z" />
</svg>
