<?xml version="1.0" encoding="UTF-8"?>
<svg width="24" height="24" viewBox="0 0 24 24" xmlns="http://www.w3.org/2000/svg">
 <path d="m5.2801 19.4c-0.06 0-0.11-0.01-0.17-0.02-0.4-0.09-0.66-0.5-0.56-0.9l0.57-2.46c0.08-0.32-0.08-0.87-0.32-1.11l-2.48-2.48c-1.24-1.24-1.14-2.3-0.97-2.82 0.17-0.52 0.71-1.44 2.43-1.73l3.19-0.53c0.3-0.06 0.73-0.38 0.86-0.65l1.77-3.53c0.79998-1.61 1.85-1.84 2.4-1.84s1.6 0.24 2.4 1.84l1.76 3.52c0.06 0.12 0.19 0.26 0.34 0.38 0.33 0.25 0.39 0.73 0.13 1.05-0.25 0.33-0.72 0.39-1.05 0.13-0.24-0.18-0.56-0.49-0.76-0.89l-1.76-3.52c-0.31-0.63-0.71-1.01-1.06-1.01s-0.75 0.38-1.06 1.02l-1.77 3.52c-0.35 0.7-1.19 1.32-1.96 1.45l-3.18 0.53c-0.68 0.11-1.14 0.38-1.25 0.71002-0.11 0.33 0.12 0.82 0.61 1.3l2.48 2.48c0.6 0.6 0.91 1.68 0.72 2.51l-0.57 2.46c-0.09 0.35-0.39 0.59-0.74 0.59z"/>
 <path d="m17.66 22.67c-0.53 0-1.21-0.17-2.06-0.67l-2.99-1.77c-0.31-0.18-0.91-0.18-1.21 0l-3 1.77c-0.35 0.21-0.82 0.09-1.03-0.26-0.21-0.36-0.09-0.82 0.26-1.03l2.99-1.77c0.78-0.46 1.96-0.46 2.74 0l2.99 1.77c0.87 0.52 1.42 0.52 1.63 0.37s0.36-0.68 0.14-1.66l-0.71-3.07c-0.19-0.83 0.12-1.9 0.72-2.51l2.48-2.48c0.49-0.49 0.71-0.97 0.61-1.3-0.11-0.33004-0.57-0.60004-1.25-0.71004-0.41-0.07-0.68-0.45-0.62-0.86 0.07-0.41 0.45-0.68 0.86-0.62 1.73 0.29 2.27 1.21 2.43 1.73 0.16 0.52004 0.26 1.58-0.97 2.82l-2.47 2.48c-0.24 0.24-0.39 0.78-0.32 1.11l0.71 3.07c0.46 2-0.25 2.87-0.71 3.21-0.25 0.18-0.65 0.38-1.22 0.38z"/>
 <path d="m1.9999 22.75c-0.19 0-0.38-0.07-0.53-0.22-0.29-0.29-0.29-0.77 0-1.06l20-20c0.29-0.29 0.77-0.29 1.06 0s0.29 0.77 0 1.06l-20 20c-0.15 0.15-0.34 0.22-0.53 0.22z"/>
</svg>
