<svg width="24" height="24" viewBox="0 0 24 24"  xmlns="http://www.w3.org/2000/svg">
<path opacity="0.4" d="M18.7 14.46C18.35 14.81 18.15 15.52 18.26 16L18.95 19.01C19.24 20.26 19.06 21.2 18.44 21.65C18.19 21.83 17.89 21.92 17.54 21.92C17.03 21.92 16.43 21.73 15.77 21.34L12.84 19.6C12.39 19.33 11.61 19.33 11.16 19.6L8.22995 21.34C7.11995 21.99 6.16995 22.1 5.55995 21.65C5.51995 21.62 5.47995 21.59 5.44995 21.55L18.8 8.19995L19.97 8.39995C21.03 8.57995 21.74 9.05995 21.97 9.75995C22.19 10.46 21.89 11.27 21.13 12.03L18.7 14.46Z" />
<path opacity="0.4" d="M5.7401 16C5.8501 15.52 5.6501 14.81 5.3001 14.46L2.8701 12.03C2.1101 11.27 1.8101 10.46 2.0301 9.76C2.2601 9.06 2.9701 8.58 4.0301 8.4L7.1501 7.88C7.6001 7.8 8.1501 7.4 8.3601 6.99L10.0801 3.54C10.5801 2.55 11.2601 2 12.0001 2C12.7401 2 13.4201 2.55 13.9201 3.54L15.6401 6.99C15.7701 7.25 16.0401 7.5 16.3301 7.67L5.0701 18.93L5.7401 16Z" />
<path d="M21.7699 2.22988C21.4699 1.92988 20.9799 1.92988 20.6799 2.22988L2.22988 20.6899C1.92988 20.9899 1.92988 21.4799 2.22988 21.7799C2.37988 21.9199 2.56988 21.9999 2.76988 21.9999C2.96988 21.9999 3.15988 21.9199 3.30988 21.7699L21.7699 3.30988C22.0799 3.00988 22.0799 2.52988 21.7699 2.22988Z" />
</svg>
