<?xml version="1.0" encoding="UTF-8"?>
<svg width="24" height="24" viewBox="0 0 24 24" xmlns="http://www.w3.org/2000/svg">
 <path d="m6.8799 18.9c-0.41 0-0.75-0.34-0.75-0.75v-2.07c0-0.41 0.34-0.75 0.75-0.75s0.75 0.34 0.75 0.75v2.07c0 0.42-0.34 0.75-0.75 0.75z"/>
 <path d="m12 18.9c-0.41 0-0.75-0.34-0.75-0.75v-4.15c0-0.41 0.34-0.75 0.75-0.75s0.75 0.34 0.75 0.75v4.15c0 0.42-0.34 0.75-0.75 0.75z"/>
 <path d="m17.12 18.9c-0.41 0-0.75-0.34-0.75-0.75v-6.22c0-0.41 0.34-0.75 0.75-0.75s0.75 0.34 0.75 0.75v6.22c0 0.42-0.33 0.75-0.75 0.75z"/>
 <path d="m6.8801 13.18c-0.34 0-0.64-0.23-0.73-0.57-0.1-0.4 0.14-0.81 0.55-0.91 3.68-0.92 6.92-2.93 9.39-5.8l0.46-0.54c0.27-0.31 0.74-0.35 1.06-0.08 0.31 0.27 0.35 0.74 0.08 1.06l-0.46 0.54c-2.67 3.12-6.19 5.29-10.17 6.28-0.06 0.02-0.12 0.02-0.18 0.02z"/>
 <path d="m17.12 9.5196c-0.41 0-0.75-0.34-0.75-0.75v-2.17h-2.18c-0.41 0-0.75-0.34-0.75-0.75s0.34-0.75 0.75-0.75h2.93c0.41 0 0.75 0.34 0.75 0.75v2.93c0 0.41-0.33 0.74-0.75 0.74z"/>
 <path d="m15 22.75h-6c-5.43 0-7.75-2.32-7.75-7.75v-6c0-5.43 2.32-7.75 7.75-7.75h6c5.43 0 7.75 2.32 7.75 7.75v6c0 5.43-2.32 7.75-7.75 7.75zm-6-20c-4.61 0-6.25 1.64-6.25 6.25v6c0 4.61 1.64 6.25 6.25 6.25h6c4.61 0 6.25-1.64 6.25-6.25v-6c0-4.61-1.64-6.25-6.25-6.25h-6z"/>
</svg>
