<?xml version="1.0" encoding="UTF-8"?>
<svg width="24" height="24" viewBox="0 0 24 24" xmlns="http://www.w3.org/2000/svg">
 <path d="m9.9898 22.55c-0.05 0-0.1 0-0.15-0.02-3.83-0.78-6.94-3.6-8.1-7.34-0.12-0.4 0.1-0.82 0.49-0.94 0.4-0.12 0.82 0.1 0.94 0.49 1 3.22 3.67 5.64 6.97 6.31 0.41 0.08 0.67 0.48 0.58 0.89-0.07 0.36-0.39 0.61-0.73 0.61z"/>
 <path d="m21.95 11.73c-0.38 0-0.71-0.29-0.75-0.67-0.48-4.74-4.44-8.31-9.2-8.31-4.77 0-8.72 3.57-9.2 8.3-0.04 0.41-0.4 0.72-0.82 0.67-0.41-0.04-0.71-0.41-0.67-0.82 0.56-5.5 5.16-9.65 10.69-9.65 5.54 0 10.14 4.15 10.69 9.65 0.04 0.41-0.26 0.78-0.67 0.82-0.02 0.01-0.05 0.01-0.07 0.01z"/>
 <path d="m14.01 22.55c-0.35 0-0.66-0.24-0.73-0.6-0.08-0.41 0.18-0.8 0.58-0.88 3.28-0.67 5.95-3.07 6.96-6.27 0.12-0.4 0.55-0.62 0.94-0.49 0.4 0.12 0.61 0.55 0.49 0.94-1.18 3.72-4.28 6.51-8.09 7.29-0.05 0-0.1 0.01-0.15 0.01z"/>
</svg>
