<?xml version="1.0" encoding="UTF-8"?>
<svg width="24" height="24" viewBox="0 0 24 24" xmlns="http://www.w3.org/2000/svg">
 <path d="m4.04 14.94c-0.33 0-0.62997-0.22-0.71997-0.55-0.21-0.78-0.32001-1.58-0.32001-2.39 0-4.96 4.04-9 9-9 1.69 0 3.33 0.47 4.75 1.36 0.35 0.22 0.46 0.68 0.24 1.03s-0.68 0.46-1.03 0.24c-1.19-0.74-2.56-1.13-3.96-1.13-4.14 0-7.5 3.36-7.5 7.5 0 0.68 0.09002 1.35 0.27002 1.99 0.11 0.4-0.13003 0.81-0.53003 0.92-0.06 0.02-0.13001 0.03-0.20001 0.03z"/>
 <path d="m12 21.001c-1.7 0-3.35-0.48-4.78-1.37-0.35-0.22-0.45999-0.68-0.23999-1.03s0.68003-0.46 1.03-0.24c1.19 0.75 2.57 1.14 3.98 1.14 4.14 0 7.5-3.36 7.5-7.5 0-0.73-0.11-1.46-0.31-2.15-0.12-0.4 0.11-0.81 0.5-0.93 0.4-0.12 0.81 0.11 0.93 0.5 0.25 0.83004 0.38 1.7 0.38 2.58 0.01 4.96-4.03 9-8.99 9z"/>
 <path d="m2.0001 16.75c-0.26 0-0.51997-0.14-0.65997-0.39-0.2-0.36-0.07001-0.82 0.29999-1.02l20-11c0.36-0.2 0.8199-0.07 1.0199 0.3 0.2 0.36 0.07 0.82-0.3 1.02l-20 11c-0.11 0.06-0.23999 0.09-0.35999 0.09z"/>
 <path d="m2.0001 20.25c-0.26 0-0.51997-0.14-0.65997-0.39-0.2-0.36-0.07001-0.82 0.29999-1.02l20-11c0.36-0.2 0.8199-0.07 1.0199 0.3 0.2 0.36 0.07 0.82-0.3 1.02l-20 11c-0.11 0.06-0.23999 0.09-0.35999 0.09z"/>
</svg>
