<?xml version="1.0" encoding="UTF-8"?>
<svg width="24" height="24" viewBox="0 0 24 24" xmlns="http://www.w3.org/2000/svg">
 <path d="m11.97 22.75c-0.61 0-1.24-0.05-1.88-0.16-4.4-0.75-7.99-4.35-8.72-8.77-0.58-3.51 0.51-6.94 3-9.43s5.92-3.57 9.42-3c4.41 0.73 8.02 4.31 8.77 8.71 0.16 0.97 0.2 1.92 0.12 2.82v0.01c-0.02 0.23-0.06 0.45-0.12 0.67-0.07 0.25-0.26 0.44-0.5 0.52s-0.51 0.02-0.71-0.14c-0.94-0.79-2.14-1.23-3.38-1.23-2.9 0-5.25 2.36-5.25 5.25 0 1.24 0.44 2.44 1.23 3.38 0.17 0.2 0.22 0.46 0.14 0.71s-0.27 0.43-0.52 0.5c-0.22 0.06-0.44 0.1-0.67 0.12-0.3 0.03-0.61 0.04-0.93 0.04zm0-20c-2.45 0-4.77 0.95-6.53 2.71-2.14 2.14-3.08 5.1-2.58 8.12 0.63 3.79 3.7 6.89 7.49 7.53 0.6 0.1 1.17 0.16 1.72 0.14-0.54-0.99-0.83-2.11-0.83-3.25 0-3.72 3.03-6.75 6.75-6.75 1.14 0 2.26 0.29 3.25 0.83 0.01-0.55-0.04-1.12-0.14-1.72-0.64-3.78-3.74-6.86-7.53-7.48-0.55-0.09-1.08-0.13-1.6-0.13z"/>
 <path d="m13.38 22.61c-0.22 0-0.43-0.09-0.57-0.27-1.02-1.21-1.59-2.75-1.59-4.34 0-3.72 3.03-6.75 6.75-6.75 1.59 0 3.13 0.56 4.34 1.59 0.23 0.19 0.32 0.5 0.24 0.78-0.18 0.62-0.5 1.16-0.96 1.62l-6.38 6.38c-0.46 0.46-1.01 0.78-1.62 0.96-0.07 0.02-0.14 0.03-0.21 0.03zm4.59-9.86c-2.9 0-5.25 2.36-5.25 5.25 0 1.06 0.32 2.09 0.91 2.95 0.19-0.1 0.36-0.23 0.52-0.39l6.38-6.38c0.16-0.16 0.29-0.33 0.39-0.52-0.86-0.59-1.89-0.91-2.95-0.91z"/>
</svg>
