<?xml version="1.0" encoding="UTF-8"?>
<svg width="24" height="24" viewBox="0 0 24 24" xmlns="http://www.w3.org/2000/svg">
 <path d="m8 5.75c-0.41 0-0.75-0.34-0.75-0.75v-3c0-0.41 0.34-0.75 0.75-0.75s0.75 0.34 0.75 0.75v3c0 0.41-0.34 0.75-0.75 0.75z"/>
 <path d="m16 5.75c-0.41 0-0.75-0.34-0.75-0.75v-3c0-0.41 0.34-0.75 0.75-0.75s0.75 0.34 0.75 0.75v3c0 0.41-0.34 0.75-0.75 0.75z"/>
 <path d="m15 11.75h-8c-0.41 0-0.75-0.34-0.75-0.75s0.34-0.75 0.75-0.75h8c0.41 0 0.75 0.34 0.75 0.75s-0.34 0.75-0.75 0.75z"/>
 <path d="m12 15.75h-5c-0.41 0-0.75-0.34-0.75-0.75s0.34-0.75 0.75-0.75h5c0.41 0 0.75 0.34 0.75 0.75s-0.34 0.75-0.75 0.75z"/>
 <path d="m15 22.75h-6c-5.62 0-6.75-2.65-6.75-6.93v-6.17c0-4.74 1.6-6.67 5.71-6.9h8.04c4.15 0.23 5.75 2.16 5.75 6.9v6.35c0 0.41-0.34 0.75-0.75 0.75s-0.75-0.34-0.75-0.75v-6.35c0-4.36-1.45-5.24-4.29-5.4h-7.96c-2.8 0.16-4.25 1.04-4.25 5.4v6.17c0 3.83 0.73 5.43 5.25 5.43h6c0.41 0 0.75 0.34 0.75 0.75s-0.34 0.75-0.75 0.75z"/>
 <path d="m15 22.75c-0.1 0-0.19-0.02-0.29-0.06-0.28-0.12-0.46-0.39-0.46-0.69v-3c0-2.42 1.33-3.75 3.75-3.75h3c0.3 0 0.58 0.18 0.69 0.46 0.12 0.28 0.05 0.6-0.16 0.82l-6 6c-0.14 0.14-0.33 0.22-0.53 0.22zm3-6c-1.58 0-2.25 0.67-2.25 2.25v1.19l3.44-3.44h-1.19z"/>
</svg>
