<svg width="24" height="24" viewBox="0 0 24 24"  xmlns="http://www.w3.org/2000/svg">
<path d="M11.9702 22.75C6.05021 22.75 1.22021 17.93 1.22021 12C1.22021 6.07 6.05021 1.25 11.9702 1.25C17.8902 1.25 22.7202 6.07 22.7202 12C22.7202 17.93 17.9002 22.75 11.9702 22.75ZM11.9702 2.75C6.87021 2.75 2.72021 6.9 2.72021 12C2.72021 17.1 6.87021 21.25 11.9702 21.25C17.0702 21.25 21.2202 17.1 21.2202 12C21.2202 6.9 17.0702 2.75 11.9702 2.75Z" />
<path d="M13.2702 16.98H10.7302C8.20022 16.98 7.02022 15.8 7.02022 13.27V10.73C7.02022 8.2 8.20022 7.02 10.7302 7.02H13.2702C15.8002 7.02 16.9802 8.2 16.9802 10.73V13.27C16.9802 15.8 15.8002 16.98 13.2702 16.98ZM10.7302 8.52C9.04022 8.52 8.52022 9.04 8.52022 10.73V13.27C8.52022 14.96 9.04022 15.48 10.7302 15.48H13.2702C14.9602 15.48 15.4802 14.96 15.4802 13.27V10.73C15.4802 9.04 14.9602 8.52 13.2702 8.52H10.7302Z" />
</svg>
