<?xml version="1.0" encoding="UTF-8"?>
<svg width="24" height="24" viewBox="0 0 24 24" xmlns="http://www.w3.org/2000/svg">
 <path d="m11.97 22.75c-5.92 0-10.75-4.82-10.75-10.75s4.83-10.75 10.75-10.75c5.92 0 10.75 4.82 10.75 10.75s-4.82 10.75-10.75 10.75zm0-20c-5.1 0-9.25 4.15-9.25 9.25s4.15 9.25 9.25 9.25c5.1 0 9.25-4.15 9.25-9.25s-4.15-9.25-9.25-9.25z"/>
 <path d="m13.27 16.98h-2.54c-2.53 0-3.71-1.18-3.71-3.71v-2.54c0-2.53 1.18-3.71 3.71-3.71h2.54c2.53 0 3.71 1.18 3.71 3.71v2.54c0 2.53-1.18 3.71-3.71 3.71zm-2.54-8.46c-1.69 0-2.21 0.52-2.21 2.21v2.54c0 1.69 0.52 2.21 2.21 2.21h2.54c1.69 0 2.21-0.52 2.21-2.21v-2.54c0-1.69-0.52-2.21-2.21-2.21h-2.54z"/>
</svg>
