<?xml version="1.0" encoding="UTF-8"?>
<svg width="24" height="24" viewBox="0 0 24 24" xmlns="http://www.w3.org/2000/svg">
 <path d="m12 19.371c-1.79 0-3.5801-0.68-4.9501-2.05-2.73-2.73-2.73-7.1701 0-9.9 2.73-2.73 7.1701-2.73 9.9001 0 2.73 2.73 2.73 7.17 0 9.9-1.37 1.37-3.16 2.05-4.95 2.05zm0-12.5c-1.41 0-2.8201 0.53998-3.8901 1.61-2.14 2.15-2.14 5.6301 0 7.7801 2.15 2.15 5.6401 2.14 7.7801 0 2.14-2.15 2.14-5.6301 0-7.7801-1.07-1.07-2.48-1.61-3.89-1.61z"/>
 <path d="m8.25 22.39c-0.09 0-0.18999-0.02-0.27999-0.05-2.25-0.9-4.07-2.49-5.29-4.59-1.18-2.05-1.65-4.37-1.34-6.73 0.05-0.41 0.43-0.7 0.84-0.65s0.69999 0.43 0.64999 0.84c-0.26 2.02 0.14003 4.02 1.15 5.78 1.04 1.8 2.61 3.17 4.54 3.94 0.38 0.16 0.57002 0.5899 0.42002 0.9799-0.11 0.3-0.40001 0.4801-0.69001 0.4801z"/>
 <path d="m5.8501 5.2304c-0.22 0-0.44-0.09998-0.59-0.28998-0.26-0.33-0.19999-0.79999 0.13001-1.05 1.91-1.49 4.19-2.28 6.61-2.28 2.36 0 4.61 0.76001 6.5 2.2 0.33 0.25 0.39 0.71999 0.14 1.05s-0.72 0.39002-1.05 0.14002c-1.62-1.24-3.55-1.89-5.59-1.89-2.08 0-4.05 0.68002-5.69 1.96-0.14 0.11-0.29999 0.15998-0.45999 0.15998z"/>
 <path d="m15.75 22.39c-0.3 0-0.58-0.18-0.7-0.47-0.15-0.38 0.03-0.82 0.42-0.98 1.93-0.78 3.5-2.14 4.54-3.94 1.02-1.76 1.42-3.76 1.15-5.78-0.05-0.41 0.24-0.79 0.65-0.84 0.4-0.05 0.79 0.2401 0.84 0.6501 0.3 2.35-0.16 4.6799-1.34 6.7299-1.21 2.1-3.04 3.68-5.29 4.59-0.08 0.02-0.17 0.04-0.27 0.04z"/>
</svg>
