<?xml version="1.0" encoding="UTF-8"?>
<svg width="24" height="24" viewBox="0 0 24 24" xmlns="http://www.w3.org/2000/svg">
 <path d="m15 22.75h-6c-5.43 0-7.75-2.32-7.75-7.75v-6c0-5.43 2.32-7.75 7.75-7.75h6c5.43 0 7.75 2.32 7.75 7.75v6c0 5.43-2.32 7.75-7.75 7.75zm-6-20c-4.61 0-6.25 1.64-6.25 6.25v6c0 4.61 1.64 6.25 6.25 6.25h6c4.61 0 6.25-1.64 6.25-6.25v-6c0-4.61-1.64-6.25-6.25-6.25h-6z"/>
 <path d="m16 19.75h-8c-2.42 0-3.75-1.33-3.75-3.75v-8c0-2.42 1.33-3.75 3.75-3.75h8c2.42 0 3.75 1.33 3.75 3.75v8c0 2.42-1.33 3.75-3.75 3.75zm-8-14c-1.58 0-2.25 0.67-2.25 2.25v8c0 1.58 0.67 2.25 2.25 2.25h8c1.58 0 2.25-0.67 2.25-2.25v-8c0-1.58-0.67-2.25-2.25-2.25h-8z"/>
 <path d="m7.48 15.25h-2.48c-0.41 0-0.75-0.34-0.75-0.75s0.34-0.75 0.75-0.75h2.48c0.97 0 1.75-0.79 1.75-1.75s-0.79-1.75-1.75-1.75h-2.48c-0.41 0-0.75-0.34-0.75-0.75s0.34-0.75 0.75-0.75h2.48c1.79 0 3.25 1.46 3.25 3.25s-1.45 3.25-3.25 3.25z"/>
 <path d="m19 10.74h-3c-0.41 0-0.75-0.34-0.75-0.75001 0-0.41 0.34-0.75 0.75-0.75h3c0.41 0 0.75 0.34 0.75 0.75 0 0.41001-0.34 0.75001-0.75 0.75001z"/>
 <path d="m19 14.75h-3c-0.41 0-0.75-0.34-0.75-0.75s0.34-0.75 0.75-0.75h3c0.41 0 0.75 0.34 0.75 0.75s-0.34 0.75-0.75 0.75z"/>
 <path d="m7.25 13c-0.13 0-0.26-0.03-0.38-0.08s-0.23001-0.12-0.33001-0.21c-0.19-0.19-0.28999-0.44-0.28999-0.71 0-0.26 0.10999-0.52 0.28999-0.71 0.28-0.27 0.72001-0.37 1.09-0.21 0.13 0.05 0.24001 0.12 0.33001 0.21 0.18 0.19 0.28999 0.45 0.28999 0.71 0 0.27-0.09999 0.52-0.28999 0.71-0.1 0.09-0.21001 0.16-0.33001 0.21s-0.25 0.08-0.38 0.08z"/>
</svg>
