<?xml version="1.0" encoding="UTF-8"?>
<svg width="24" height="24" viewBox="0 0 24 24" xmlns="http://www.w3.org/2000/svg">
 <path d="m15 22.75h-6c-5.43 0-7.75-2.32-7.75-7.75v-6c0-5.43 2.32-7.75 7.75-7.75h6c5.43 0 7.75 2.32 7.75 7.75v6c0 5.43-2.32 7.75-7.75 7.75zm-6-20c-4.61 0-6.25 1.64-6.25 6.25v6c0 4.61 1.64 6.25 6.25 6.25h6c4.61 0 6.25-1.64 6.25-6.25v-6c0-4.61-1.64-6.25-6.25-6.25h-6z"/>
 <path d="m12 16.56c-1.1 0-2-0.9-2-2v-1.6c-0.58998-0.49-0.98997-1.18-1.09-1.95-0.02-0.12-0.04001-0.29-0.04001-0.45 0-0.97002 0.44-1.87 1.22-2.47 0.78-0.6 1.78-0.79 2.74-0.54 1.05 0.28 1.92 1.14 2.19 2.19 0.11 0.41002 0.14 0.84002 0.07 1.27-0.11 0.76-0.5 1.45-1.09 1.94v1.6c0 1.11-0.9 2.01-2 2.01zm-0.01-7.62c-0.36 0-0.7 0.11-0.99 0.34-0.4 0.31-0.63 0.78002-0.63 1.28 0 0.07 0 0.15 0.02 0.21 0.07 0.5 0.34 0.91 0.76 1.17l0.35 0.22v2.4c0 0.28 0.22 0.5 0.5 0.5s0.5-0.22 0.5-0.5v-2.4l0.35-0.22c0.41-0.26 0.69-0.67 0.75-1.14v-0.02c0.04-0.22 0.03-0.44-0.03-0.65-0.14-0.55002-0.59-0.99002-1.13-1.13-0.15-0.04-0.3-0.06-0.45-0.06z"/>
 <path d="m22 10.16h-7.65v1.5h7.65v-1.5z"/>
 <path d="m9.65 10.16h-7.65v1.5h7.65v-1.5z"/>
</svg>
