<svg width="24" height="24" viewBox="0 0 24 24"  xmlns="http://www.w3.org/2000/svg">
<path d="M17.4999 17.8301H15.6499C15.2399 17.8301 14.8999 17.4901 14.8999 17.0801C14.8999 16.6701 15.2399 16.3301 15.6499 16.3301H17.4999C17.9099 16.3301 18.2499 16.6701 18.2499 17.0801C18.2499 17.4901 17.9099 17.8301 17.4999 17.8301Z" />
<path d="M12.97 17.8301H6.5C6.09 17.8301 5.75 17.4901 5.75 17.0801C5.75 16.6701 6.09 16.3301 6.5 16.3301H12.97C13.38 16.3301 13.72 16.6701 13.72 17.0801C13.72 17.4901 13.39 17.8301 12.97 17.8301Z" />
<path d="M17.5 14.0698H11.97C11.56 14.0698 11.22 13.7298 11.22 13.3198C11.22 12.9098 11.56 12.5698 11.97 12.5698H17.5C17.91 12.5698 18.25 12.9098 18.25 13.3198C18.25 13.7298 17.91 14.0698 17.5 14.0698Z" />
<path d="M9.27 14.0698H6.5C6.09 14.0698 5.75 13.7298 5.75 13.3198C5.75 12.9098 6.09 12.5698 6.5 12.5698H9.27C9.68 12.5698 10.02 12.9098 10.02 13.3198C10.02 13.7298 9.68 14.0698 9.27 14.0698Z" />
<path opacity="0.4" d="M16.19 2H7.81C4.17 2 2 4.17 2 7.81V16.18C2 19.83 4.17 22 7.81 22H16.18C19.82 22 21.99 19.83 21.99 16.19V7.81C22 4.17 19.83 2 16.19 2Z" />
</svg>
