<?xml version="1.0" encoding="UTF-8"?>
<svg width="24" height="24" viewBox="0 0 24 24" xmlns="http://www.w3.org/2000/svg">
 <path d="m15 22.75h-6c-5.43 0-7.75-2.32-7.75-7.75v-6c0-5.43 2.32-7.75 7.75-7.75h6c5.43 0 7.75 2.32 7.75 7.75v6c0 5.43-2.32 7.75-7.75 7.75zm-6-20c-4.61 0-6.25 1.64-6.25 6.25v6c0 4.61 1.64 6.25 6.25 6.25h6c4.61 0 6.25-1.64 6.25-6.25v-6c0-4.61-1.64-6.25-6.25-6.25h-6z"/>
 <path d="m17.5 17.83h-1.85c-0.41 0-0.75-0.34-0.75-0.75s0.34-0.75 0.75-0.75h1.85c0.41 0 0.75 0.34 0.75 0.75s-0.34 0.75-0.75 0.75z"/>
 <path d="m12.97 17.83h-6.47c-0.41 0-0.75-0.34-0.75-0.75s0.34-0.75 0.75-0.75h6.47c0.41 0 0.75 0.34 0.75 0.75s-0.33 0.75-0.75 0.75z"/>
 <path d="m17.5 14.07h-5.53c-0.41 0-0.75-0.34-0.75-0.75s0.34-0.75 0.75-0.75h5.53c0.41 0 0.75 0.34 0.75 0.75s-0.34 0.75-0.75 0.75z"/>
 <path d="m9.27 14.07h-2.77c-0.41 0-0.75-0.34-0.75-0.75s0.34-0.75 0.75-0.75h2.77c0.41 0 0.75 0.34 0.75 0.75s-0.34 0.75-0.75 0.75z"/>
</svg>
