<svg width="24" height="24" viewBox="0 0 24 24"  xmlns="http://www.w3.org/2000/svg">
<path d="M15 22.75H9C3.57 22.75 1.25 20.43 1.25 15V9C1.25 3.57 3.57 1.25 9 1.25H15C20.43 1.25 22.75 3.57 22.75 9V15C22.75 20.43 20.43 22.75 15 22.75ZM9 2.75C4.39 2.75 2.75 4.39 2.75 9V15C2.75 19.61 4.39 21.25 9 21.25H15C19.61 21.25 21.25 19.61 21.25 15V9C21.25 4.39 19.61 2.75 15 2.75H9Z" />
<path d="M17.4999 17.8301H15.6499C15.2399 17.8301 14.8999 17.4901 14.8999 17.0801C14.8999 16.6701 15.2399 16.3301 15.6499 16.3301H17.4999C17.9099 16.3301 18.2499 16.6701 18.2499 17.0801C18.2499 17.4901 17.9099 17.8301 17.4999 17.8301Z" />
<path d="M12.97 17.8301H6.5C6.09 17.8301 5.75 17.4901 5.75 17.0801C5.75 16.6701 6.09 16.3301 6.5 16.3301H12.97C13.38 16.3301 13.72 16.6701 13.72 17.0801C13.72 17.4901 13.39 17.8301 12.97 17.8301Z" />
<path d="M17.5002 14.0701H11.9702C11.5602 14.0701 11.2202 13.7301 11.2202 13.3201C11.2202 12.9101 11.5602 12.5701 11.9702 12.5701H17.5002C17.9102 12.5701 18.2502 12.9101 18.2502 13.3201C18.2502 13.7301 17.9102 14.0701 17.5002 14.0701Z" />
<path d="M9.27 14.0701H6.5C6.09 14.0701 5.75 13.7301 5.75 13.3201C5.75 12.9101 6.09 12.5701 6.5 12.5701H9.27C9.68 12.5701 10.02 12.9101 10.02 13.3201C10.02 13.7301 9.68 14.0701 9.27 14.0701Z" />
</svg>
