<svg width="24" height="24" viewBox="0 0 24 24"  xmlns="http://www.w3.org/2000/svg">
<path opacity="0.4" d="M10 3.75H11.25V8.5C11.25 8.91 11.59 9.25 12 9.25C12.41 9.25 12.75 8.91 12.75 8.5V3.75H14C14.41 3.75 14.75 3.41 14.75 3C14.75 2.59 14.41 2.25 14 2.25H10C9.59 2.25 9.25 2.59 9.25 3C9.25 3.41 9.59 3.75 10 3.75Z" />
<path opacity="0.4" d="M14 20.25H12.75V15.5C12.75 15.09 12.41 14.75 12 14.75C11.59 14.75 11.25 15.09 11.25 15.5V20.25H10C9.59 20.25 9.25 20.59 9.25 21C9.25 21.41 9.59 21.75 10 21.75H14C14.41 21.75 14.75 21.41 14.75 21C14.75 20.59 14.41 20.25 14 20.25Z" />
<path opacity="0.4" d="M2.83014 9.87994C2.95014 9.94994 3.08014 9.97994 3.20014 9.97994C3.46014 9.97994 3.71014 9.84993 3.85014 9.59993L4.48014 8.51994L8.60014 10.8999C8.71014 10.9699 8.84014 10.9999 8.97014 10.9999C9.23014 10.9999 9.48014 10.8699 9.62014 10.6199C9.83014 10.2599 9.70014 9.79993 9.35014 9.59993L5.24014 7.21994L5.86014 6.13994C6.07014 5.77994 5.94014 5.31993 5.59014 5.11993C5.23014 4.90993 4.77014 5.02994 4.57014 5.38994L2.57014 8.84993C2.35014 9.21993 2.47014 9.66994 2.83014 9.87994Z" />
<path opacity="0.4" d="M21.1702 14.1202C20.8102 13.9102 20.3502 14.0302 20.1502 14.3902L19.5202 15.4702L15.4002 13.1002C15.0402 12.8902 14.5802 13.0202 14.3802 13.3702C14.1702 13.7302 14.3002 14.1902 14.6502 14.3902L18.7602 16.7702L18.1402 17.8502C17.9302 18.2102 18.0602 18.6702 18.4102 18.8702C18.5302 18.9402 18.6602 18.9702 18.7802 18.9702C19.0402 18.9702 19.2902 18.8402 19.4302 18.5902L21.4302 15.1302C21.6502 14.7802 21.5302 14.3302 21.1702 14.1202Z" />
<path opacity="0.4" d="M18.7702 7.2197L14.6602 9.5997C14.3002 9.8097 14.1802 10.2697 14.3902 10.6197C14.5302 10.8597 14.7802 10.9997 15.0402 10.9997C15.1702 10.9997 15.3002 10.9697 15.4102 10.8997L19.5202 8.5197L20.1502 9.5997C20.2902 9.8397 20.5402 9.9797 20.8002 9.9797C20.9302 9.9797 21.0602 9.9497 21.1702 9.8797C21.5302 9.6697 21.6502 9.2097 21.4402 8.8597L19.4402 5.3997C19.2302 5.0397 18.7702 4.9197 18.4202 5.1297C18.0602 5.3397 17.9402 5.7997 18.1502 6.1497L18.7702 7.2197Z" />
<path opacity="0.4" d="M5.23012 16.7802L9.34012 14.4002C9.70012 14.1902 9.82012 13.7302 9.61012 13.3802C9.40012 13.0202 8.94012 12.9002 8.59012 13.1102L4.48012 15.4902L3.85012 14.4102C3.64012 14.0502 3.18012 13.9302 2.83012 14.1402C2.47012 14.3502 2.35012 14.8102 2.56012 15.1602L4.56012 18.6202C4.70012 18.8602 4.95012 19.0002 5.21012 19.0002C5.34012 19.0002 5.47012 18.9702 5.58012 18.9002C5.94012 18.6902 6.06012 18.2302 5.85012 17.8802L5.23012 16.7802Z" />
<path d="M15.5 12C15.5 12.64 15.33 13.23 15.03 13.75C14.42 14.8 13.29 15.5 12 15.5C10.71 15.5 9.58 14.8 8.97 13.75C8.67 13.23 8.5 12.64 8.5 12C8.5 11.36 8.67 10.77 8.97 10.25C9.58 9.2 10.71 8.5 12 8.5C13.29 8.5 14.42 9.2 15.03 10.25C15.33 10.77 15.5 11.36 15.5 12Z" />
</svg>
