<?xml version="1.0" encoding="UTF-8"?>
<svg width="24" height="24" viewBox="0 0 24 24" xmlns="http://www.w3.org/2000/svg">
 <path d="m12 9.25c-0.41 0-0.75-0.34-0.75-0.75v-5.5c0-0.41 0.34-0.75 0.75-0.75s0.75 0.34 0.75 0.75v5.5c0 0.41-0.34 0.75-0.75 0.75z"/>
 <path d="m12 21.75c-0.41 0-0.75-0.34-0.75-0.75v-5.5c0-0.41 0.34-0.75 0.75-0.75s0.75 0.34 0.75 0.75v5.5c0 0.41-0.34 0.75-0.75 0.75z"/>
 <path d="m14 3.75h-4c-0.41 0-0.75-0.34-0.75-0.75s0.34-0.75 0.75-0.75h4c0.41 0 0.75 0.34 0.75 0.75s-0.34 0.75-0.75 0.75z"/>
 <path d="m14 21.75h-4c-0.41 0-0.75-0.34-0.75-0.75s0.34-0.75 0.75-0.75h4c0.41 0 0.75 0.34 0.75 0.75s-0.34 0.75-0.75 0.75z"/>
 <path d="m8.9701 11c-0.13 0-0.26-0.03-0.37-0.1l-4.76-2.75c-0.36-0.21-0.48-0.66999-0.27-1.02 0.21-0.36 0.67-0.48001 1.02-0.27001l4.76 2.75c0.36 0.21 0.48 0.66998 0.27 1.02-0.14 0.24-0.39 0.37-0.65 0.37z"/>
 <path d="m19.79 17.25c-0.13 0-0.26-0.03-0.37-0.1l-4.76-2.75c-0.36-0.21-0.48-0.67-0.27-1.02 0.21-0.36 0.67-0.48 1.02-0.27l4.76 2.75c0.36 0.21 0.48 0.67 0.27 1.02-0.14 0.24-0.39 0.37-0.65 0.37z"/>
 <path d="m3.2101 9.9799c-0.13 0-0.26-0.02999-0.37-0.09999-0.36-0.21-0.48-0.67001-0.27-1.02l2-3.46c0.21-0.36 0.67-0.47999 1.02-0.26999 0.36 0.21 0.48 0.66999 0.27 1.02l-2 3.46c-0.14 0.24-0.4 0.37-0.65 0.37z"/>
 <path d="m18.79 18.98c-0.13 0-0.26-0.03-0.37-0.1-0.36-0.21-0.48-0.67-0.27-1.02l2-3.46c0.21-0.36 0.67-0.48 1.02-0.27 0.36 0.21 0.48 0.67 0.27 1.02l-2 3.46c-0.13 0.24-0.39 0.37-0.65 0.37z"/>
 <path d="m12 16.25c-1.51 0-2.92-0.81-3.68-2.12-0.38-0.66-0.57-1.37-0.57-2.13s0.19-1.47 0.57-2.12c0.76-1.31 2.17-2.12 3.68-2.12s2.92 0.81001 3.68 2.12c0.38 0.65998 0.57 1.37 0.57 2.13s-0.19 1.47-0.57 2.12c-0.76 1.31-2.17 2.12-3.68 2.12zm0-7c-0.98 0-1.89 0.53-2.38 1.38-0.24 0.42-0.37 0.89-0.37 1.37s0.12 0.95 0.37 1.38c0.49 0.85 1.4 1.38 2.38 1.38s1.89-0.53 2.38-1.38c0.24-0.42 0.37-0.89 0.37-1.37s-0.12-0.95-0.37-1.38c-0.49-0.84998-1.4-1.38-2.38-1.38z"/>
 <path d="m15.03 11c-0.26 0-0.51-0.13-0.65-0.38-0.21-0.36-0.08-0.82003 0.27-1.02l4.76-2.75c0.36-0.21 0.82-0.08002 1.02 0.26998 0.21 0.36 0.08 0.82001-0.27 1.02l-4.76 2.75c-0.11 0.08-0.24 0.11-0.37 0.11z"/>
 <path d="m4.2101 17.25c-0.26 0-0.51-0.13-0.65-0.38-0.21-0.36-0.08-0.82 0.27-1.02l4.76-2.75c0.36-0.21 0.82-0.08 1.02 0.27 0.21 0.36 0.08 0.82-0.27 1.02l-4.76 2.75c-0.11 0.08-0.24 0.11-0.37 0.11z"/>
 <path d="m20.79 9.9799c-0.26 0-0.51-0.12999-0.65-0.37999l-2-3.46c-0.21-0.36-0.08-0.82 0.27-1.02 0.36-0.21 0.82-0.08 1.02 0.27l2 3.46c0.21 0.36 0.08 0.81999-0.27 1.02-0.11 0.08-0.24 0.11-0.37 0.11z"/>
 <path d="m5.2101 18.98c-0.26 0-0.51-0.13-0.65-0.38l-2-3.46c-0.21-0.36-0.08-0.82 0.27-1.02 0.36-0.21 0.82-0.08 1.02 0.27l2 3.46c0.21 0.36 0.08 0.82-0.27 1.02-0.12 0.08-0.25 0.11-0.37 0.11z"/>
</svg>
