<?xml version="1.0" encoding="UTF-8"?>
<svg width="24" height="24" viewBox="0 0 24 24" xmlns="http://www.w3.org/2000/svg">
 <path d="m12 19.25c-4 0-7.25-3.25-7.25-7.25s3.25-7.25 7.25-7.25 7.25 3.25 7.25 7.25-3.25 7.25-7.25 7.25zm0-13c-3.17 0-5.75 2.58-5.75 5.75s2.58 5.75 5.75 5.75 5.75-2.58 5.75-5.75-2.58-5.75-5.75-5.75z"/>
 <path d="m12 22.96c-0.55 0-1-0.41-1-0.96v-0.08c0-0.55 0.45-1 1-1s1 0.45 1 1-0.45 1.04-1 1.04zm7.14-2.82c-0.26 0-0.51-0.1-0.71-0.29l-0.13-0.13c-0.39-0.39-0.39-1.02 0-1.41s1.02-0.39 1.41 0l0.13 0.13c0.39 0.39 0.39 1.02 0 1.41-0.19 0.19-0.44 0.29-0.7 0.29zm-14.28 0c-0.26 0-0.51-0.1-0.71-0.29-0.39-0.39-0.39-1.02 0-1.41l0.13-0.13c0.39-0.39 1.02-0.39 1.41 0s0.39 1.02 0 1.41l-0.13 0.13c-0.19 0.19-0.45 0.29-0.7 0.29zm17.14-7.14h-0.08c-0.55 0-1-0.45-1-1s0.45-1 1-1 1.04 0.45 1.04 1-0.41 1-0.96 1zm-19.92 0h-0.08c-0.55 0-1-0.45-1-1s0.45-1 1-1 1.04 0.45 1.04 1-0.41 1-0.96 1zm16.93-7.01c-0.26 0-0.51-0.1-0.71-0.29-0.39-0.39-0.39-1.02 0-1.41l0.13-0.13c0.39-0.39 1.02-0.39 1.41 0s0.39 1.02 0 1.41l-0.13 0.13c-0.19 0.19-0.44 0.29-0.7 0.29zm-14.02 0c-0.26 0-0.51-0.1-0.71-0.29l-0.13-0.14c-0.39-0.39-0.39-1.02 0-1.41s1.02-0.39 1.41 0l0.13 0.13c0.39 0.39 0.39 1.02 0 1.41-0.19 0.2-0.45 0.3-0.7 0.3zm7.01-2.95c-0.55 0-1-0.41-1-0.96v-0.08c0-0.55 0.45-1 1-1s1 0.45 1 1-0.45 1.04-1 1.04z"/>
</svg>
