<?xml version="1.0" encoding="UTF-8"?>
<svg width="24" height="24" viewBox="0 0 24 24" xmlns="http://www.w3.org/2000/svg">
 <path d="m18.5 12.75c-0.41 0-0.75-0.34-0.75-0.75 0-3.17-2.58-5.75-5.75-5.75s-5.75 2.58-5.75 5.75c0 0.41-0.34 0.75-0.75 0.75s-0.75-0.34-0.75-0.75c0-4 3.25-7.25 7.25-7.25s7.25 3.25 7.25 7.25c0 0.41-0.34 0.75-0.75 0.75z"/>
 <path d="m22 13h-0.08c-0.55 0-1-0.45-1-1s0.45-1 1-1 1.04 0.45 1.04 1-0.41 1-0.96 1zm-19.92 0h-0.08002c-0.55 0-1-0.45-1-1s0.45-1 1-1 1.04 0.45 1.04 1-0.40996 1-0.95996 1zm16.93-7.01c-0.26 0-0.51-0.09998-0.71-0.28998-0.39-0.39-0.39-1.02 0-1.41l0.13-0.13001c0.39-0.39 1.02-0.39 1.41 0s0.39 1.02 0 1.41l-0.13 0.13c-0.19 0.19-0.44 0.28998-0.7 0.28998zm-14.02 0c-0.26 0-0.50996-0.09998-0.70996-0.28998l-0.13001-0.13c-0.39-0.39-0.39-1.02 0-1.41s1.02-0.39 1.41 0l0.13 0.13001c0.39 0.39 0.39 1.02 0 1.41-0.19 0.19-0.45001 0.28998-0.70001 0.28998zm7.01-2.95c-0.55 0-1-0.41002-1-0.96002v-0.07999c0-0.55 0.45-1 1-1s1 0.45 1 1-0.45 1.04-1 1.04z"/>
 <path d="m20 15.75h-16c-0.41 0-0.75-0.34-0.75-0.75s0.34-0.75 0.75-0.75h16c0.41 0 0.75 0.34 0.75 0.75s-0.34 0.75-0.75 0.75z"/>
 <path d="m18 18.75h-12c-0.41 0-0.75-0.34-0.75-0.75s0.34-0.75 0.75-0.75h12c0.41 0 0.75 0.34 0.75 0.75s-0.34 0.75-0.75 0.75z"/>
 <path d="m15 21.75h-6c-0.41 0-0.75-0.34-0.75-0.75s0.34-0.75 0.75-0.75h6c0.41 0 0.75 0.34 0.75 0.75s-0.34 0.75-0.75 0.75z"/>
</svg>
