<?xml version="1.0" encoding="UTF-8"?>
<svg width="24" height="24" viewBox="0 0 24 24" xmlns="http://www.w3.org/2000/svg">
 <path d="m12 22.75c-0.7 0-1.41-0.2701-1.94-0.8001l-1.71-1.6899c-0.43-0.42-0.99002-0.6501-1.59-0.6501h-0.75999c-2.07 0-3.75-1.6699-3.75-3.7199v-10.91c0-2.05 1.68-3.72 3.75-3.72h12c2.07 0 3.75 1.67 3.75 3.72v10.91c0 2.05-1.68 3.7199-3.75 3.7199h-0.76c-0.6 0-1.17 0.2301-1.59 0.6501l-1.71 1.6899c-0.53 0.53-1.24 0.8001-1.94 0.8001zm-6-20c-1.24 0-2.25 0.99997-2.25 2.22v10.91c0 1.23 1.01 2.2199 2.25 2.2199h0.75999c1 0 1.94 0.39 2.65 1.09l1.71 1.6901c0.49 0.48 1.28 0.48 1.77 0l1.71-1.6901c0.71-0.7 1.65-1.09 2.65-1.09h0.75c1.24 0 2.25-0.9999 2.25-2.2199v-10.91c0-1.23-1.01-2.22-2.25-2.22h-12z"/>
 <path d="m10.38 14.51h-2.68c-0.44 0-0.85-0.2101-1.11-0.5701-0.25-0.34-0.31001-0.7599-0.19001-1.1599 0.35-1.07 1.21-1.65 1.97-2.17 0.8-0.54 1.25-0.87998 1.25-1.46 0-0.52-0.42-0.94006-0.94-0.94006s-0.93999 0.42006-0.93999 0.94006c0 0.41-0.34 0.75-0.75 0.75s-0.75-0.34-0.75-0.75c0-1.34 1.09-2.4401 2.44-2.4401 1.35 0 2.44 1.0901 2.44 2.4401 0 1.41-1.06 2.13-1.91 2.71-0.53 0.36-1.03 0.7-1.28 1.15h2.44c0.41 0 0.75 0.34 0.75 0.75s-0.33 0.75-0.74 0.75z"/>
 <path d="m16.04 14.51c-0.41 0-0.75-0.34-0.75-0.75v-0.69h-1.96-0.01c-0.49 0-0.94-0.2599-1.19-0.6799-0.25-0.43-0.25-0.9601 0-1.3801 0.68-1.17 1.47-2.5 2.19-3.66 0.32-0.51 0.93-0.73995 1.5-0.57995 0.57 0.17 0.97 0.69003 0.96 1.29v3.5199h0.22c0.41 0 0.75 0.34 0.75 0.75s-0.34 0.75-0.75 0.75h-0.21v0.6901c0 0.41-0.33 0.7399-0.75 0.7399zm-0.75-5.87c-0.59 0.96-1.2 1.99-1.75 2.93h1.75v-2.93z"/>
</svg>
