<svg width="24" height="24" viewBox="0 0 24 24"  xmlns="http://www.w3.org/2000/svg">
<path d="M14.6699 21.6496H4.21992C3.11992 21.6496 2.14994 21.0796 1.61994 20.1196C1.08994 19.1596 1.11996 18.0296 1.69996 17.0996L4.46992 12.6696C4.68992 12.3196 4.68992 11.6696 4.46992 11.3296L1.69996 6.89961C1.11996 5.96961 1.08994 4.83961 1.61994 3.87961C2.14994 2.91961 3.12992 2.34961 4.21992 2.34961H15.6599C16.5999 2.34961 17.6899 2.94961 18.1799 3.74961L22.3599 10.4296C22.9199 11.3296 22.8699 12.7096 22.2299 13.5596L17.0499 20.4596C16.5399 21.1396 15.5199 21.6496 14.6699 21.6496ZM4.21992 3.84961C3.67992 3.84961 3.18994 4.12961 2.92994 4.60961C2.66994 5.08961 2.67992 5.64961 2.96992 6.10961L5.73993 10.5396C6.25993 11.3796 6.25993 12.6396 5.73993 13.4796L2.96992 17.9096C2.67992 18.3696 2.66994 18.9296 2.92994 19.4096C3.18994 19.8896 3.67992 20.1696 4.21992 20.1696H14.6699C15.0499 20.1696 15.6199 19.8796 15.8499 19.5796L21.03 12.6796C21.3 12.3196 21.33 11.6296 21.09 11.2496L16.9099 4.56961C16.6899 4.20961 16.0799 3.87961 15.6599 3.87961H4.21992V3.84961Z" />
</svg>
