<?xml version="1.0" encoding="UTF-8"?>
<svg width="24" height="24" viewBox="0 0 24 24" xmlns="http://www.w3.org/2000/svg">
 <path d="m12.07 21.98c-1.41 0-2.83-0.54-3.9-1.61l-4.53-4.53c-1.1-1.1-1.68-2.62-1.61-4.17l0.24-5c0.11-2.39 2-4.28 4.4-4.4l5-0.24c1.55-0.06 3.07 0.51 4.17 1.61l4.53 4.53c2.15 2.15 2.15 5.66 0 7.81l-4.39 4.39c-1.08 1.07-2.49 1.61-3.91 1.61zm-7.37-7.21 4.53 4.53c0.76 0.76 1.77 1.18 2.84 1.18s2.08-0.42 2.84-1.18l4.39-4.39c0.76-0.76 1.18-1.77 1.18-2.84s-0.42-2.08-1.18-2.84l-4.53-4.53c-0.8-0.8-1.91-1.23-3.03-1.17l-5 0.24c-1.63 0.07-2.9 1.34-2.98 2.96l-0.24 5c-0.05 1.13 0.38 2.24 1.18 3.04z"/>
 <path d="m9.5 12.75c-1.79 0-3.25-1.46-3.25-3.25s1.46-3.25 3.25-3.25 3.25 1.46 3.25 3.25-1.46 3.25-3.25 3.25zm0-5c-0.96 0-1.75 0.79-1.75 1.75s0.79 1.75 1.75 1.75 1.75-0.79 1.75-1.75-0.79-1.75-1.75-1.75z"/>
</svg>
