<?xml version="1.0" encoding="UTF-8"?>
<svg width="24" height="24" viewBox="0 0 24 24" xmlns="http://www.w3.org/2000/svg">
 <path d="m12.07 21.98c-1.41 0-2.83-0.54-3.9-1.61l-4.53-4.53c-1.1-1.1-1.68-2.62-1.61-4.17l0.24-5.01c0.11-2.39 2-4.28 4.4-4.4l5-0.24c1.56-0.07 3.07 0.51 4.17 1.61l4.53 4.53c2.15 2.15 2.15 5.66 0 7.81l-4.39 4.39c-1.08 1.08-2.49 1.62-3.91 1.62zm-7.37-7.21 4.53 4.53c1.57 1.57 4.12 1.57 5.69 0l4.39-4.39c1.57-1.57 1.57-4.12 0-5.69l-4.54-4.52c-0.8-0.8-1.89-1.22-3.04-1.17l-5 0.24c-1.62 0.07-2.89 1.34-2.97 2.96l-0.24 5.01c-0.05 1.12 0.38 2.23 1.18 3.03z"/>
 <path d="m9.5 12.75c-1.79 0-3.25-1.46-3.25-3.25s1.46-3.25 3.25-3.25 3.25 1.46 3.25 3.25-1.46 3.25-3.25 3.25zm0-5c-0.96 0-1.75 0.79-1.75 1.75s0.79 1.75 1.75 1.75 1.75-0.79 1.75-1.75-0.79-1.75-1.75-1.75z"/>
 <path d="m13 17.75c-0.19 0-0.38-0.07-0.53-0.22-0.29-0.29-0.29-0.77 0-1.06l4-4c0.29-0.29 0.77-0.29 1.06 0s0.29 0.77 0 1.06l-4 4c-0.15 0.15-0.34 0.22-0.53 0.22z"/>
</svg>
