<?xml version="1.0" encoding="UTF-8"?>
<svg width="24" height="24" viewBox="0 0 24 24" xmlns="http://www.w3.org/2000/svg">
 <path d="m17 21h-6.72c-1.62 0-3.17-0.69-4.25-1.88l-3.53-3.88c-1.68-1.84-1.68-4.62 0-6.47l3.53-3.88c1.08-1.2 2.63-1.89 4.25-1.89h6.72c3.17 0 5.75 2.58 5.75 5.75v6.5c0 3.17-2.58 5.75-5.75 5.75zm-6.72-16.5c-1.19 0-2.34 0.51-3.14 1.39l-3.54 3.89c-1.15 1.27-1.15 3.18 0 4.45l3.53 3.88c0.8 0.88 1.95 1.39 3.14 1.39h6.73c2.34 0 4.25-1.91 4.25-4.25v-6.5c0-2.34-1.91-4.25-4.25-4.25h-6.72z"/>
 <path d="m16 15.22c-0.19 0-0.38-0.07-0.53-0.22l-4.94-4.95c-0.29-0.29004-0.29-0.77004 0-1.06s0.77-0.29 1.06 0l4.94 4.95c0.29 0.29 0.29 0.77 0 1.06-0.15 0.15-0.34 0.22-0.53 0.22z"/>
 <path d="m11.06 15.22c-0.19 0-0.38-0.07-0.53-0.22-0.29-0.29-0.29-0.77 0-1.06l4.94-4.94c0.29-0.29 0.77-0.29 1.06 0s0.29 0.77 0 1.06l-4.94 4.94c-0.15 0.15-0.34 0.22-0.53 0.22z"/>
</svg>
