<svg width="24" height="24" viewBox="0 0 24 24"  xmlns="http://www.w3.org/2000/svg">
<path d="M17.8801 6.12003L3.93009 20.07C3.50009 20.5 2.78009 20.46 2.43009 19.97C1.93009 19.28 1.8301 18.32 2.3501 17.49L5.1101 13.06C5.4801 12.47 5.4801 11.51 5.1101 10.92L2.3501 6.49003C1.4201 5.01003 2.49009 3.09003 4.23009 3.09003H15.6801C16.3601 3.09003 17.2001 3.56003 17.5601 4.13003L18.0301 4.87003C18.2601 5.28003 18.2101 5.79003 17.8801 6.12003Z" />
<path opacity="0.4" d="M21.6301 13.11L16.4501 20.01C16.0901 20.5 15.2901 20.9 14.6701 20.9H7.51011C6.62011 20.9 6.17012 19.82 6.80012 19.19L18.3101 7.67999C18.7601 7.22999 19.5301 7.30999 19.8701 7.85999L21.7201 10.83C22.1301 11.47 22.0901 12.5 21.6301 13.11Z" />
</svg>
