<?xml version="1.0" encoding="UTF-8"?>
<svg width="24" height="24" viewBox="0 0 24 24" xmlns="http://www.w3.org/2000/svg">
 <path d="m14.67 21.65h-10.45c-1.1 0-2.07-0.57-2.6-1.53s-0.49998-2.09 0.08002-3.02l2.77-4.43c0.22-0.35 0.22-1 0-1.34l-2.77-4.43c-0.58-0.93-0.61002-2.06-0.08002-3.02s1.51-1.53 2.6-1.53h11.44c0.94 0 2.03 0.6 2.52 1.4l4.18 6.68c0.56 0.9 0.51 2.28-0.13 3.13l-5.18 6.9c-0.51 0.68-1.53 1.19-2.38 1.19zm-10.45-17.8c-0.54 0-1.03 0.28-1.29 0.76s-0.25002 1.04 0.03998 1.5l2.77 4.43c0.52 0.84 0.52 2.1 0 2.94l-2.77 4.43c-0.29 0.46-0.29998 1.02-0.03998 1.5s0.74998 0.76 1.29 0.76h10.45c0.38 0 0.95-0.29 1.18-0.59l5.1801-6.9c0.27-0.36 0.3-1.05 0.06-1.43l-4.1801-6.68c-0.22-0.36-0.83-0.69-1.25-0.69h-11.44v-0.03z"/>
</svg>
