<?xml version="1.0" encoding="UTF-8"?>
<svg width="24" height="24" viewBox="0 0 24 24" xmlns="http://www.w3.org/2000/svg">
 <path d="m12 22.75c-0.7 0-1.41-0.27-1.94-0.8l-1.71-1.69c-0.42-0.42-0.99997-0.65-1.59-0.65h-0.76001c-2.07 0-3.75-1.67-3.75-3.72v-10.92c0-2.05 1.68-3.72 3.75-3.72h12c2.07 0 3.75 1.67 3.75 3.72v10.91c0 2.05-1.68 3.72-3.75 3.72h-0.76c-0.59 0-1.17 0.24-1.59 0.65l-1.71 1.69c-0.53 0.54-1.24 0.81-1.94 0.81zm-6-20c-1.24 0-2.25 1-2.25 2.22v10.91c0 1.23 1.01 2.22 2.25 2.22h0.76001c0.99 0 1.95 0.4 2.65 1.09l1.71 1.69c0.49 0.48 1.28 0.48 1.77 0l1.71-1.69c0.7-0.69 1.66-1.09 2.65-1.09h0.75c1.24 0 2.25-1 2.25-2.22v-10.91c0-1.23-1.01-2.22-2.25-2.22h-12z"/>
 <path d="m12.07 9.6998h-0.07-0.1c-1.46-0.05-2.6-1.23-2.6-2.7 0-1.49 1.21-2.7 2.7-2.7s2.7 1.21 2.7 2.7c-0.01 1.47-1.15 2.65-2.61 2.7h-0.02zm-0.07-3.9c-0.66 0-1.2 0.54-1.2 1.2 0 0.65 0.51 1.18 1.15 1.2 0-0.01 0.06-0.01 0.13 0 0.63-0.04 1.12-0.56 1.12-1.2 0-0.66-0.54-1.2-1.2-1.2z"/>
 <path d="m12 16.7c-1.14 0-2.28-0.3-3.17-0.89-0.84-0.56-1.33-1.37-1.33-2.23s0.48002-1.68 1.33-2.24c1.78-1.18 4.56-1.18 6.33 0 0.84 0.56 1.33 1.38 1.33 2.23 0 0.86-0.48 1.67-1.33 2.24-0.88 0.6-2.02 0.89-3.16 0.89zm-2.34-4.11c-0.43 0.29-0.65997 0.64-0.65997 0.99s0.23997 0.7 0.65997 0.99c1.27 0.85 3.4 0.85 4.67 0 0.43-0.29 0.67-0.64 0.66-0.99 0-0.35-0.24-0.7-0.66-0.99-1.26-0.85-3.4-0.85-4.67 0z"/>
</svg>
