<svg width="24" height="24" viewBox="0 0 24 24"  xmlns="http://www.w3.org/2000/svg">
<path d="M20.0001 19.2601H10.9301C10.4801 19.2601 10.1101 18.8901 10.1101 18.4401C10.1101 17.9901 10.4801 17.6201 10.9301 17.6201H20.0001C20.4501 17.6201 20.8201 17.9901 20.8201 18.4401C20.8201 18.9001 20.4501 19.2601 20.0001 19.2601Z" />
<path d="M20.0001 12.9701H10.9301C10.4801 12.9701 10.1101 12.6001 10.1101 12.1501C10.1101 11.7001 10.4801 11.3301 10.9301 11.3301H20.0001C20.4501 11.3301 20.8201 11.7001 20.8201 12.1501C20.8201 12.6001 20.4501 12.9701 20.0001 12.9701Z" />
<path d="M20.0001 6.66979H10.9301C10.4801 6.66979 10.1101 6.29978 10.1101 5.84978C10.1101 5.39978 10.4801 5.02979 10.9301 5.02979H20.0001C20.4501 5.02979 20.8201 5.39978 20.8201 5.84978C20.8201 6.29978 20.4501 6.66979 20.0001 6.66979Z" />
<path opacity="0.4" d="M4.90993 8.02992C4.68993 8.02992 4.47993 7.93992 4.32993 7.78992L3.41993 6.87992C3.09993 6.55992 3.09993 6.03992 3.41993 5.71992C3.73993 5.39992 4.25993 5.39992 4.57993 5.71992L4.90993 6.04992L7.04993 3.90992C7.36993 3.58992 7.88993 3.58992 8.20993 3.90992C8.52993 4.22992 8.52993 4.74992 8.20993 5.06992L5.48993 7.78992C5.32993 7.93992 5.12993 8.02992 4.90993 8.02992Z" />
<path opacity="0.4" d="M4.90993 14.3302C4.69993 14.3302 4.48993 14.2502 4.32993 14.0902L3.41993 13.1802C3.09993 12.8602 3.09993 12.3402 3.41993 12.0202C3.73993 11.7002 4.25993 11.7002 4.57993 12.0202L4.90993 12.3502L7.04993 10.2102C7.36993 9.89021 7.88993 9.89021 8.20993 10.2102C8.52993 10.5302 8.52993 11.0502 8.20993 11.3702L5.48993 14.0902C5.32993 14.2502 5.11993 14.3302 4.90993 14.3302Z" />
<path opacity="0.4" d="M4.90993 20.3302C4.69993 20.3302 4.48993 20.2502 4.32993 20.0902L3.41993 19.1802C3.09993 18.8602 3.09993 18.3402 3.41993 18.0202C3.73993 17.7002 4.25993 17.7002 4.57993 18.0202L4.90993 18.3502L7.04993 16.2102C7.36993 15.8902 7.88993 15.8902 8.20993 16.2102C8.52993 16.5302 8.52993 17.0502 8.20993 17.3702L5.48993 20.0902C5.32993 20.2502 5.11993 20.3302 4.90993 20.3302Z" />
</svg>
