<?xml version="1.0" encoding="UTF-8"?>
<svg width="24" height="24" viewBox="0 0 24 24" xmlns="http://www.w3.org/2000/svg">
 <path d="m21 20.25h-10c-0.41 0-0.75-0.34-0.75-0.75s0.34-0.75 0.75-0.75h10c0.41 0 0.75 0.34 0.75 0.75s-0.34 0.75-0.75 0.75z"/>
 <path d="m21 13.25h-10c-0.41 0-0.75-0.34-0.75-0.75s0.34-0.75 0.75-0.75h10c0.41 0 0.75 0.34 0.75 0.75s-0.34 0.75-0.75 0.75z"/>
 <path d="m21 6.25h-10c-0.41 0-0.75-0.34-0.75-0.75s0.34-0.75 0.75-0.75h10c0.41 0 0.75 0.34 0.75 0.75s-0.34 0.75-0.75 0.75z"/>
 <path d="m3.9999 7.2504c-0.19 0-0.38-0.07-0.53-0.22l-1-1c-0.29-0.29-0.29-0.77 0-1.06s0.77-0.29 1.06 0l0.47 0.47 2.47-2.47c0.29-0.29 0.77-0.29 1.06 0s0.29 0.77 0 1.06l-3 3c-0.15 0.15-0.34 0.22-0.53 0.22z"/>
 <path d="m3.9999 14.25c-0.19 0-0.38-0.07-0.53-0.22l-1-1c-0.29-0.29-0.29-0.77 0-1.06s0.77-0.29 1.06 0l0.47 0.47 2.47-2.47c0.29-0.29 0.77-0.29 1.06 0 0.29 0.28997 0.29 0.76997 0 1.06l-3 3c-0.15 0.15-0.34 0.22-0.53 0.22z"/>
 <path d="m3.9999 21.25c-0.19 0-0.38-0.07-0.53-0.22l-1-1c-0.29-0.29-0.29-0.77 0-1.06s0.77-0.29 1.06 0l0.47 0.47 2.47-2.47c0.29-0.29 0.77-0.29 1.06 0s0.29 0.77 0 1.06l-3 3c-0.15 0.15-0.34 0.22-0.53 0.22z"/>
</svg>
