<svg width="24" height="24" viewBox="0 0 24 24"  xmlns="http://www.w3.org/2000/svg">
<path d="M20.9999 20.2499H10.9999C10.5899 20.2499 10.2499 19.9099 10.2499 19.4999C10.2499 19.0899 10.5899 18.7499 10.9999 18.7499H20.9999C21.4099 18.7499 21.7499 19.0899 21.7499 19.4999C21.7499 19.9099 21.4099 20.2499 20.9999 20.2499Z" />
<path d="M20.9999 13.2499H10.9999C10.5899 13.2499 10.2499 12.9099 10.2499 12.4999C10.2499 12.0899 10.5899 11.7499 10.9999 11.7499H20.9999C21.4099 11.7499 21.7499 12.0899 21.7499 12.4999C21.7499 12.9099 21.4099 13.2499 20.9999 13.2499Z" />
<path d="M20.9999 6.24994H10.9999C10.5899 6.24994 10.2499 5.90994 10.2499 5.49994C10.2499 5.08994 10.5899 4.74994 10.9999 4.74994H20.9999C21.4099 4.74994 21.7499 5.08994 21.7499 5.49994C21.7499 5.90994 21.4099 6.24994 20.9999 6.24994Z" />
<path d="M3.99994 7.24994C3.80994 7.24994 3.61994 7.17994 3.46994 7.02994L2.46994 6.02994C2.17994 5.73994 2.17994 5.25994 2.46994 4.96994C2.75994 4.67994 3.23994 4.67994 3.52994 4.96994L3.99994 5.43994L6.46994 2.96994C6.75994 2.67994 7.23994 2.67994 7.52994 2.96994C7.81994 3.25994 7.81994 3.73994 7.52994 4.02994L4.52994 7.02994C4.37994 7.17994 4.18994 7.24994 3.99994 7.24994Z" />
<path d="M3.99994 14.2499C3.80994 14.2499 3.61994 14.1799 3.46994 14.0299L2.46994 13.0299C2.17994 12.7399 2.17994 12.2599 2.46994 11.9699C2.75994 11.6799 3.23994 11.6799 3.52994 11.9699L3.99994 12.4399L6.46994 9.96994C6.75994 9.67994 7.23994 9.67994 7.52994 9.96994C7.81994 10.2599 7.81994 10.7399 7.52994 11.0299L4.52994 14.0299C4.37994 14.1799 4.18994 14.2499 3.99994 14.2499Z" />
<path d="M3.99994 21.2499C3.80994 21.2499 3.61994 21.1799 3.46994 21.0299L2.46994 20.0299C2.17994 19.7399 2.17994 19.2599 2.46994 18.9699C2.75994 18.6799 3.23994 18.6799 3.52994 18.9699L3.99994 19.4399L6.46994 16.9699C6.75994 16.6799 7.23994 16.6799 7.52994 16.9699C7.81994 17.2599 7.81994 17.7399 7.52994 18.0299L4.52994 21.0299C4.37994 21.1799 4.18994 21.2499 3.99994 21.2499Z" />
</svg>
