<?xml version="1.0" encoding="UTF-8"?>
<svg width="24" height="24" viewBox="0 0 24 24" xmlns="http://www.w3.org/2000/svg">
 <path d="m12.01 17c-0.85 0-1.71-0.22-2.38-0.65l-6.02-3.93c-1.12-0.73-1.79-1.96-1.79-3.3 0-1.34 0.67-2.57 1.79-3.3l6.03-3.92c1.34-0.87 3.43-0.87 4.76 0.01l5.99 3.93c1.11 0.73 1.78 1.96 1.78 3.29 0 1.33-0.67 2.56-1.78 3.29l-5.99 3.93c-0.67 0.44-1.53 0.65-2.39 0.65zm0-14.25c-0.57 0-1.14 0.13-1.55 0.41l-6.02 3.92c-0.7 0.46-1.11 1.2-1.11 2.04s0.4 1.58 1.11 2.04l6.02 3.93c0.83 0.54 2.29 0.54 3.12 0l5.99-3.93c0.7-0.46 1.1-1.2 1.1-2.04s-0.4-1.58-1.1-2.04l-5.99-3.93c-0.42-0.26-0.99-0.4-1.57-0.4z"/>
 <path d="m12 22.75c-0.44 0-0.89-0.06-1.25-0.18l-3.19-1.06c-1.51-0.5-2.7-2.15-2.69-3.74l0.01-4.69c0-0.41 0.34-0.75 0.75-0.75s0.75 0.34 0.75 0.75l-0.01 4.69c0 0.94 0.78 2.02 1.67 2.32l3.19 1.06c0.4 0.13 1.14 0.13 1.54 0l3.19-1.06c0.89-0.3 1.67-1.38 1.67-2.31v-4.64c0-0.41 0.34-0.75 0.75-0.75s0.75 0.34 0.75 0.75v4.64c0 1.59-1.18 3.23-2.69 3.74l-3.19 1.06c-0.36 0.11-0.81 0.17-1.25 0.17z"/>
 <path d="m21.4 15.75c-0.41 0-0.75-0.34-0.75-0.75v-6c0-0.41 0.34-0.75 0.75-0.75s0.75 0.34 0.75 0.75v6c0 0.41-0.34 0.75-0.75 0.75z"/>
</svg>
