<?xml version="1.0" encoding="UTF-8"?>
<svg width="24" height="24" viewBox="0 0 24 24" xmlns="http://www.w3.org/2000/svg">
 <path d="m12 21.399c-0.94 0-1.88-0.32-2.59-0.97l-6.93-6.29c-1.21-1.1-1.59-3.11-0.86-4.57l2.4-4.82c0.6-1.2 2.11-2.14 3.45-2.14h9.06c1.34 0 2.85 0.94 3.45 2.14l2.4 4.82c0.73 1.46 0.35 3.47-0.86 4.57l-6.93 6.29c-0.71 0.64-1.65 0.97-2.59 0.97zm-4.53-17.3c-0.78 0-1.76 0.60999-2.11 1.31l-2.4 4.82c-0.42 0.85-0.18 2.15 0.53 2.79l6.93 6.29c0.86 0.78 2.31 0.78 3.16 0l6.93-6.29c0.7-0.64 0.95-1.94 0.53-2.79l-2.4-4.82c-0.35-0.69-1.33-1.3-2.11-1.3h-9.06v-0.01z"/>
 <path d="m12 15.25c-0.41 0-0.75-0.34-0.75-0.75v-6c0-0.41 0.34-0.75 0.75-0.75s0.75 0.34 0.75 0.75v6c0 0.41-0.34 0.75-0.75 0.75z"/>
 <path d="m16 9.25h-8c-0.41 0-0.75-0.34-0.75-0.75s0.34-0.75 0.75-0.75h8c0.41 0 0.75 0.34 0.75 0.75s-0.34 0.75-0.75 0.75z"/>
</svg>
