<svg width="24" height="24" viewBox="0 0 24 24"  xmlns="http://www.w3.org/2000/svg">
<path opacity="0.4" d="M7.46995 3.34961H16.53C17.59 3.34961 18.84 4.11961 19.31 5.06961L21.71 9.88961C22.29 11.0496 21.97 12.6996 21.02 13.5696L14.09 19.8596C12.94 20.8996 11.07 20.8996 9.91996 19.8596L2.98996 13.5696C2.02996 12.6996 1.71996 11.0496 2.29996 9.88961L4.69996 5.06961C5.15996 4.11961 6.40996 3.34961 7.46995 3.34961Z" />
<path d="M16 7.75H8C7.59 7.75 7.25 8.09 7.25 8.5C7.25 8.91 7.59 9.25 8 9.25H11.25V14.5C11.25 14.91 11.59 15.25 12 15.25C12.41 15.25 12.75 14.91 12.75 14.5V9.25H16C16.41 9.25 16.75 8.91 16.75 8.5C16.75 8.09 16.41 7.75 16 7.75Z" />
</svg>
