<?xml version="1.0" encoding="UTF-8"?>
<svg width="24" height="24" viewBox="0 0 24 24" xmlns="http://www.w3.org/2000/svg">
 <path d="m15 22.75h-6c-5.43 0-7.75-2.32-7.75-7.75v-6c0-5.43 2.32-7.75 7.75-7.75h6c5.43 0 7.75 2.32 7.75 7.75v6c0 5.43-2.32 7.75-7.75 7.75zm-6-20c-4.61 0-6.25 1.64-6.25 6.25v6c0 4.61 1.64 6.25 6.25 6.25h6c4.61 0 6.25-1.64 6.25-6.25v-6c0-4.61-1.64-6.25-6.25-6.25h-6z"/>
 <path d="m7 9.63c-0.27 0-0.54-0.15-0.67-0.41-0.19-0.37-0.04-0.82 0.33-1.01 3.34-1.67 7.33-1.67 10.67 0 0.37 0.19 0.52 0.64 0.34 1.01-0.19 0.37-0.63 0.52-1.01 0.34-2.92-1.46-6.41-1.46-9.33 0-0.1 0.05-0.22 0.07-0.33 0.07z"/>
 <path d="m12 17.04c-0.41 0-0.75-0.34-0.75-0.75v-8.36c0-0.41 0.34-0.75 0.75-0.75s0.75 0.34 0.75 0.75v8.37c0 0.41-0.34 0.74-0.75 0.74z"/>
</svg>
