<svg width="24" height="24" viewBox="0 0 24 24"  xmlns="http://www.w3.org/2000/svg">
<path opacity="0.4" d="M16.19 2H7.81C4.17 2 2 4.17 2 7.81V16.18C2 19.83 4.17 22 7.81 22H16.18C19.82 22 21.99 19.83 21.99 16.19V7.81C22 4.17 19.83 2 16.19 2Z" />
<path d="M17.34 8.21002C14 6.54002 10.01 6.54002 6.67001 8.21002C6.29001 8.40002 6.14001 8.85002 6.33001 9.22002C6.46001 9.48002 6.73001 9.63002 7.00001 9.63002C7.11001 9.63002 7.23001 9.60002 7.34001 9.55002C8.57001 8.94002 9.90001 8.60002 11.25 8.50002V16.29C11.25 16.7 11.59 17.04 12 17.04C12.41 17.04 12.75 16.7 12.75 16.29V8.50002C14.1 8.60002 15.43 8.94002 16.66 9.55002C17.03 9.73002 17.48 9.59002 17.67 9.21002C17.86 8.85002 17.71 8.40002 17.34 8.21002Z" />
</svg>
