<?xml version="1.0" encoding="UTF-8"?>
<svg width="24" height="24" viewBox="0 0 24 24" xmlns="http://www.w3.org/2000/svg">
 <path d="m18.88 3.75h-9.26c-0.41 0-0.74-0.34-0.74-0.75s0.34-0.75 0.75-0.75h9.25c0.41 0 0.75 0.34 0.75 0.75s-0.34 0.75-0.75 0.75z"/>
 <path d="m14.38 21.75h-9.26c-0.41 0-0.75-0.34-0.75-0.75s0.34-0.75 0.75-0.75h9.25c0.41 0 0.75 0.34 0.75 0.75s-0.33 0.75-0.74 0.75z"/>
 <path d="m9.7501 21.75c-0.06 0-0.12-0.01-0.18-0.02-0.4-0.1-0.65-0.51-0.55-0.91l4.5-18c0.1-0.4 0.5-0.65 0.91-0.55 0.4 0.1 0.65 0.51 0.55 0.91l-4.5 18c-0.09 0.34-0.39 0.57-0.73 0.57z"/>
</svg>
