<?xml version="1.0" encoding="UTF-8"?>
<svg width="24" height="24" viewBox="0 0 24 24" xmlns="http://www.w3.org/2000/svg">
 <path d="m12 12.75h-7.12c-0.41 0-0.75-0.34-0.75-0.75v-7.5c0-1.52 1.23-2.75 2.75-2.75h5.12c3.03 0 5.5 2.47 5.5 5.5s-2.47 5.5-5.5 5.5zm-6.38-1.5h6.38c2.21 0 4-1.79 4-4s-1.79-4-4-4h-5.12c-0.69 0-1.25 0.56-1.25 1.25v6.75h-0.01z"/>
 <path d="m14.38 22.25h-7.5c-1.52 0-2.75-1.23-2.75-2.75v-7.5c0-0.41 0.34-0.75 0.75-0.75h9.5c3.03 0 5.5 2.47 5.5 5.5s-2.47 5.5-5.5 5.5zm-8.76-9.5v6.75c0 0.69 0.56 1.25 1.25 1.25h7.5c2.21 0 4-1.79 4-4s-1.79-4-4-4h-8.75z"/>
</svg>
