<?xml version="1.0" encoding="UTF-8"?>
<svg width="24" height="24" viewBox="0 0 24 24" xmlns="http://www.w3.org/2000/svg">
 <path d="m21.33 7.92c-0.41 0-0.75-0.34-0.75-0.75v-1.82c0-0.73-0.59-1.32-1.32-1.32h-14.52c-0.73 0-1.32 0.59-1.32 1.32v1.83c0 0.41-0.34 0.75-0.75 0.75s-0.75-0.34-0.75-0.76v-1.82c0-1.56 1.27-2.82 2.82-2.82h14.52c1.56 0 2.82 1.27 2.82 2.82v1.83c0 0.41-0.33 0.74-0.75 0.74z"/>
 <path d="m12 21.47c-0.41 0-0.75-0.34-0.75-0.75v-16.61c0-0.41 0.34-0.75 0.75-0.75s0.75 0.34 0.75 0.75v16.61c0 0.42-0.34 0.75-0.75 0.75z"/>
 <path d="m15.94 21.47h-7.88c-0.41 0-0.75-0.34-0.75-0.75s0.34-0.75 0.75-0.75h7.88c0.41 0 0.75 0.34 0.75 0.75s-0.34 0.75-0.75 0.75z"/>
</svg>
