<?xml version="1.0" encoding="UTF-8"?>
<svg width="24" height="24" viewBox="0 0 24 24" xmlns="http://www.w3.org/2000/svg">
 <path d="m11.31 14.689c-2.27 0-4.12-1.85-4.12-4.12 0-2.27 1.85-4.12 4.12-4.12 2.27 0 4.12 1.85 4.12 4.12 0 2.27-1.84 4.12-4.12 4.12zm0-6.75c-1.45 0-2.62 1.18-2.62 2.62 0 1.44 1.18 2.62 2.62 2.62 1.44 0 2.62-1.18 2.62-2.62 0-1.44-1.17-2.62-2.62-2.62z"/>
 <path d="m16.51 8.3106c-0.55 0-1-0.45-1-1s0.44-1 1-1h0.01c0.55 0 1 0.45 1 1s-0.46 1-1.01 1z"/>
 <path d="m12.06 18.56c-0.19 0-0.38-0.07-0.53-0.22-0.29-0.29-0.29-0.77 0-1.06l3-3c0.29-0.29 0.77-0.29 1.06 0s0.29 0.77 0 1.06l-3 3c-0.14 0.15-0.34 0.22-0.53 0.22z"/>
 <path d="m12 22.75c-5.93 0-10.75-4.82-10.75-10.75s4.82-10.75 10.75-10.75 10.75 4.82 10.75 10.75-4.82 10.75-10.75 10.75zm0-20c-5.1 0-9.25 4.15-9.25 9.25s4.15 9.25 9.25 9.25 9.25-4.15 9.25-9.25-4.15-9.25-9.25-9.25z"/>
</svg>
