<svg width="24" height="24" viewBox="0 0 24 24"  xmlns="http://www.w3.org/2000/svg">
<path d="M11.3099 14.6892C9.03994 14.6892 7.18994 12.8392 7.18994 10.5692C7.18994 8.29922 9.03994 6.44922 11.3099 6.44922C13.5799 6.44922 15.4299 8.29922 15.4299 10.5692C15.4299 12.8392 13.5899 14.6892 11.3099 14.6892ZM11.3099 7.93922C9.85994 7.93922 8.68994 9.11922 8.68994 10.5592C8.68994 11.9992 9.86994 13.1792 11.3099 13.1792C12.7499 13.1792 13.9299 11.9992 13.9299 10.5592C13.9299 9.11922 12.7599 7.93922 11.3099 7.93922Z" />
<path d="M16.5098 8.31055C15.9598 8.31055 15.5098 7.86055 15.5098 7.31055C15.5098 6.76055 15.9498 6.31055 16.5098 6.31055H16.5198C17.0698 6.31055 17.5198 6.76055 17.5198 7.31055C17.5198 7.86055 17.0598 8.31055 16.5098 8.31055Z" />
<path d="M12.06 18.56C11.87 18.56 11.68 18.49 11.53 18.34C11.24 18.05 11.24 17.57 11.53 17.28L14.53 14.28C14.82 13.99 15.3 13.99 15.59 14.28C15.88 14.57 15.88 15.05 15.59 15.34L12.59 18.34C12.45 18.49 12.25 18.56 12.06 18.56Z" />
<path d="M12 22.75C6.07 22.75 1.25 17.93 1.25 12C1.25 6.07 6.07 1.25 12 1.25C17.93 1.25 22.75 6.07 22.75 12C22.75 17.93 17.93 22.75 12 22.75ZM12 2.75C6.9 2.75 2.75 6.9 2.75 12C2.75 17.1 6.9 21.25 12 21.25C17.1 21.25 21.25 17.1 21.25 12C21.25 6.9 17.1 2.75 12 2.75Z" />
</svg>
