<?xml version="1.0" encoding="UTF-8"?>
<svg width="24" height="24" viewBox="0 0 24 24" xmlns="http://www.w3.org/2000/svg">
 <path d="m5.6399 22.751c-0.58 0-1.12-0.28-1.48-0.79-0.51-0.72-0.44997-1.65 0.15003-2.29l7.33-7.96-3.5499-3.59c-0.43-0.43-0.61006-1.05-0.49006-1.65s0.53003-1.09 1.09-1.33l8.94-3.75c0.79-0.33 1.66-0.09 2.18 0.59 0.51 0.69 0.49 1.59-0.05 2.26l-6.07 7.41 3.58 3.63c0.43 0.43 0.61 1.05 0.49 1.65s-0.53 1.09-1.09 1.33l-10.3 4.34c-0.24 0.1-0.47998 0.15-0.72998 0.15zm7.05-9.96-7.27 7.9c-0.16 0.17-0.07997 0.33-0.02997 0.42 0.06 0.08 0.18997 0.21 0.39997 0.11l10.3-4.3401c0.14-0.06 0.1799-0.1799 0.1999-0.24 0.01-0.06 0.02-0.1899-0.09-0.2999l-3.51-3.55zm-3.53-5.72 3.47 3.51 5.9601-7.28c0.14-0.17 0.0699-0.33 0.0099-0.41s-0.18-0.2-0.4-0.11l-8.94 3.75c-0.14 0.06-0.18001 0.18-0.20001 0.24s-3e-5 0.19 0.09997 0.3z"/>
</svg>
