<?xml version="1.0" encoding="UTF-8"?>
<svg width="24" height="24" viewBox="0 0 24 24" xmlns="http://www.w3.org/2000/svg">
 <path d="m16.69 22.75h-9.38c-4.17 0-5.44-1.27-5.44-5.44v-0.46c0-0.41 0.34-0.75 0.75-0.75 0.88 0 1.6-0.72 1.6-1.6s-0.72-1.6-1.6-1.6c-0.41 0-0.75-0.34-0.75-0.75v-0.46c0-4.17 1.27-5.44 5.44-5.44h9.38c4.17 0 5.44 1.27 5.44 5.44v0.94c0 0.41-0.34 0.75-0.75 0.75-0.88 0-1.6 0.72-1.6 1.6s0.72 1.59 1.6 1.59c0.41 0 0.75 0.34 0.75 0.75-0.01 4.16-1.28 5.43-5.44 5.43zm-13.31-5.24c0.02 3.18 0.65 3.74 3.94 3.74h9.38c3.12 0 3.84-0.51 3.93-3.28-1.34-0.34-2.34-1.55-2.34-3s1-2.67 2.35-3.01v-0.28c0-3.35-0.59-3.94-3.94-3.94h-9.39c-3.28 0-3.91 0.57-3.94 3.74 1.35 0.34 2.35 1.56 2.35 3.01s-1 2.68-2.34 3.02z"/>
 <path d="m10 10.25c-0.41 0-0.75-0.34-0.75-0.75v-2.5c0-0.41 0.34-0.75 0.75-0.75s0.75 0.34 0.75 0.75v2.5c0 0.41-0.34 0.75-0.75 0.75z"/>
 <path d="m10 16.92c-0.41 0-0.75-0.34-0.75-0.75v-3.33c0-0.41 0.34-0.75 0.75-0.75s0.75 0.34 0.75 0.75v3.33c0 0.41-0.34 0.75-0.75 0.75z"/>
 <path d="m10 22.75c-0.41 0-0.75-0.34-0.75-0.75v-2.5c0-0.41 0.34-0.75 0.75-0.75s0.75 0.34 0.75 0.75v2.5c0 0.41-0.34 0.75-0.75 0.75z"/>
 <path d="m16.33 7.75h-9.09c-0.3 0-0.58-0.18-0.69-0.46s-0.05-0.61 0.16-0.82l2.93-2.93c2.7-2.7 4.35-2.7 7.04 0l0.6 0.6c0.14 0.14 0.22 0.33 0.22 0.53s-0.08 0.39-0.22 0.53c-0.4 0.4-0.51 0.99-0.28 1.5 0.11 0.23 0.09 0.50001-0.05 0.72-0.13 0.2-0.37 0.33-0.62 0.33zm-7.28-1.5h6.33c-0.02-0.53 0.11-1.06 0.38-1.52l-0.13-0.13c-2.09-2.09-2.83-2.09-4.92 0l-1.66 1.65z"/>
</svg>
