<svg width="24" height="24" viewBox="0 0 24 24"  xmlns="http://www.w3.org/2000/svg">
<path opacity="0.4" d="M21.3 10.8404C21.69 10.8404 22 10.5304 22 10.1404V9.21035C22 5.11035 20.75 3.86035 16.65 3.86035H7.35C3.25 3.86035 2 5.11035 2 9.21035V9.68035C2 10.0704 2.31 10.3804 2.7 10.3804C3.6 10.3804 4.33 11.1104 4.33 12.0104C4.33 12.9104 3.6 13.6304 2.7 13.6304C2.31 13.6304 2 13.9404 2 14.3304V14.8004C2 18.9004 3.25 20.1504 7.35 20.1504H16.65C20.75 20.1504 22 18.9004 22 14.8004C22 14.4104 21.69 14.1004 21.3 14.1004C20.4 14.1004 19.67 13.3704 19.67 12.4704C19.67 11.5704 20.4 10.8404 21.3 10.8404Z" />
<path d="M15 15.8799C14.44 15.8799 13.99 15.4299 13.99 14.8799C13.99 14.3299 14.44 13.8799 14.99 13.8799C15.54 13.8799 15.99 14.3299 15.99 14.8799C15.99 15.4299 15.56 15.8799 15 15.8799Z" />
<path d="M8.99999 10.8799C8.43999 10.8799 7.98999 10.4299 7.98999 9.87988C7.98999 9.32988 8.43999 8.87988 8.98999 8.87988C9.53999 8.87988 9.98999 9.32988 9.98999 9.87988C9.98999 10.4299 9.55999 10.8799 8.99999 10.8799Z" />
<path d="M8.63007 16.4296C8.44007 16.4296 8.25007 16.3596 8.10007 16.2096C7.81007 15.9196 7.81007 15.4396 8.10007 15.1496L14.8301 8.41965C15.1201 8.12965 15.6001 8.12965 15.8901 8.41965C16.1801 8.70965 16.1801 9.18965 15.8901 9.47965L9.16007 16.2096C9.02007 16.3596 8.82007 16.4296 8.63007 16.4296Z" />
</svg>
