<?xml version="1.0" encoding="UTF-8"?>
<svg width="24" height="24" viewBox="0 0 24 24" xmlns="http://www.w3.org/2000/svg">
 <path d="m17.38 20.75h-6.47c-0.41 0-0.75-0.34-0.75-0.75s0.34-0.75 0.75-0.75h6.47c3.06 0 3.78-0.5 3.86-3.22-1.32-0.34-2.3-1.54-2.3-2.96 0-1.43 0.98-2.64 2.31-2.98v-0.25998c0-3.29-0.58-3.87-3.87-3.87h-5.63v6.04c0 0.41-0.34 0.75-0.75 0.75s-0.75-0.34-0.75-0.75v-6.79c0-0.41 0.34-0.75 0.75-0.75h6.38c4.12 0 5.37 1.25 5.37 5.37v0.91998c0 0.41-0.34 0.75-0.75 0.75-0.86 0-1.56 0.7-1.56 1.57 0 0.86 0.7 1.56 1.56 1.56 0.41 0 0.75 0.34 0.75 0.75 0 4.12-1.25 5.37-5.37 5.37z"/>
 <path d="m11 20.75h-2.77c-2.02 0-3.06-1.52-4.01-3.8l-0.19-0.46c-0.07-0.18-0.07-0.39 0.01-0.57s0.23-0.33 0.41-0.4c0.4-0.16 0.71-0.47 0.88-0.86 0.17-0.4 0.17-0.84 0-1.24-0.33-0.84-1.28-1.23-2.12-0.9-0.19 0.08-0.39 0.07-0.58-0.01-0.18-0.08-0.33-0.23-0.4-0.41l-0.17-0.43c-1.6-3.89-0.9-5.56 2.99-7.17l2.64-1.08c0.38-0.16 0.82 0.03 0.98 0.41l3.03 7.34c0.04 0.09 0.06 0.19 0.06 0.29v2.54c0 0.41-0.34 0.75-0.75 0.75s-0.75-0.34-0.75-0.75v-2.4l-2.7-6.51-1.94 0.8c-3.08 1.27-3.45 2.05-2.24 5.05 1.39-0.2 2.79 0.55 3.34 1.9 0.32 0.77 0.32 1.62-0.01 2.39-0.22 0.53-0.58 0.98-1.04 1.31 0.96 2.26 1.66 2.71 2.55 2.71h2.02v-2.25c0-0.41 0.34-0.75 0.75-0.75s0.75 0.34 0.75 0.75v3c0.01 0.41-0.33 0.75-0.74 0.75z"/>
 <path d="m8.17 20.75h-0.17c-0.41 0-0.75-0.34-0.75-0.75s0.34-0.75 0.75-0.75h0.17c0.41 0 0.75 0.34 0.75 0.75s-0.34 0.75-0.75 0.75z"/>
</svg>
