<svg width="24" height="24" viewBox="0 0 24 24"  xmlns="http://www.w3.org/2000/svg">
<path d="M17.3799 20.7502H10.9099C10.4999 20.7502 10.1599 20.4102 10.1599 20.0002C10.1599 19.5902 10.4999 19.2502 10.9099 19.2502H17.3799C20.4399 19.2502 21.1599 18.7502 21.2399 16.0302C19.9199 15.6902 18.9399 14.4902 18.9399 13.0702C18.9399 11.6402 19.9199 10.4302 21.2499 10.0902V9.83022C21.2499 6.54022 20.6699 5.96022 17.3799 5.96022H11.7499V12.0002C11.7499 12.4102 11.4099 12.7502 10.9999 12.7502C10.5899 12.7502 10.2499 12.4102 10.2499 12.0002V5.21022C10.2499 4.80022 10.5899 4.46022 10.9999 4.46022H17.3799C21.4999 4.46022 22.7499 5.71022 22.7499 9.83022V10.7502C22.7499 11.1602 22.4099 11.5002 21.9999 11.5002C21.1399 11.5002 20.4399 12.2002 20.4399 13.0702C20.4399 13.9302 21.1399 14.6302 21.9999 14.6302C22.4099 14.6302 22.7499 14.9702 22.7499 15.3802C22.7499 19.5002 21.4999 20.7502 17.3799 20.7502Z" />
<path d="M10.9999 20.7502H8.22995C6.20995 20.7502 5.16995 19.2302 4.21995 16.9502L4.02995 16.4902C3.95995 16.3102 3.95995 16.1002 4.03995 15.9202C4.11995 15.7402 4.26995 15.5902 4.44995 15.5202C4.84995 15.3602 5.15995 15.0502 5.32995 14.6602C5.49995 14.2602 5.49995 13.8202 5.32995 13.4202C4.99995 12.5802 4.04995 12.1902 3.20995 12.5202C3.01995 12.6002 2.81995 12.5902 2.62995 12.5102C2.44995 12.4302 2.29995 12.2802 2.22995 12.1002L2.05995 11.6702C0.459948 7.78022 1.15995 6.11022 5.04995 4.50022L7.68995 3.42022C8.06995 3.26022 8.50995 3.45022 8.66995 3.83022L11.6999 11.1702C11.7399 11.2602 11.7599 11.3602 11.7599 11.4602V14.0002C11.7599 14.4102 11.4199 14.7502 11.0099 14.7502C10.5999 14.7502 10.2599 14.4102 10.2599 14.0002V11.6002L7.55995 5.09022L5.61995 5.89022C2.53995 7.16022 2.16995 7.94022 3.37995 10.9402C4.76995 10.7402 6.16995 11.4902 6.71995 12.8402C7.03995 13.6102 7.03995 14.4602 6.70995 15.2302C6.48995 15.7602 6.12995 16.2102 5.66995 16.5402C6.62995 18.8002 7.32995 19.2502 8.21995 19.2502H10.2399V17.0002C10.2399 16.5902 10.5799 16.2502 10.9899 16.2502C11.3999 16.2502 11.7399 16.5902 11.7399 17.0002V20.0002C11.7499 20.4102 11.4099 20.7502 10.9999 20.7502Z" />
<path d="M8.16995 20.7502H7.99995C7.58995 20.7502 7.24995 20.4102 7.24995 20.0002C7.24995 19.5902 7.58995 19.2502 7.99995 19.2502H8.16995C8.57995 19.2502 8.91995 19.5902 8.91995 20.0002C8.91995 20.4102 8.57995 20.7502 8.16995 20.7502Z" />
</svg>
