<svg width="24" height="24" viewBox="0 0 24 24"  xmlns="http://www.w3.org/2000/svg">
<path opacity="0.4" d="M22 9.21035V14.7904C22 18.8904 20.75 20.1404 16.65 20.1404H9.90996V17.1204C9.90996 16.7404 9.58996 16.4204 9.20996 16.4204V7.58035C9.58996 7.58035 9.90996 7.26035 9.90996 6.88035V3.86035H16.65C20.75 3.86035 22 5.11035 22 9.21035Z" />
<path d="M18.47 11.9001C18.64 11.7401 18.7 11.4901 18.63 11.2701C18.56 11.0401 18.37 10.8801 18.13 10.8501L16.85 10.6601C16.8 10.6501 16.76 10.6201 16.74 10.5801L16.17 9.42008C16.07 9.21008 15.85 9.08008 15.62 9.08008C15.38 9.08008 15.17 9.21008 15.06 9.42008L14.49 10.5801C14.47 10.6301 14.42 10.6601 14.37 10.6601L13.09 10.8501C12.86 10.8801 12.66 11.0501 12.59 11.2701C12.52 11.5001 12.58 11.7401 12.75 11.9001L13.68 12.8001C13.72 12.8301 13.73 12.8901 13.72 12.9401L13.5 14.2101C13.46 14.4401 13.55 14.6801 13.75 14.8101C13.86 14.8901 13.98 14.9301 14.11 14.9301C14.21 14.9301 14.31 14.9101 14.4 14.8601L15.55 14.2601C15.59 14.2401 15.65 14.2401 15.69 14.2601L16.84 14.8601C17.05 14.9701 17.3 14.9501 17.49 14.8101C17.68 14.6701 17.78 14.4401 17.74 14.2001L17.52 12.9301C17.51 12.8801 17.53 12.8301 17.56 12.7901L18.47 11.9001Z" />
<path d="M9.21012 7.58035V16.4204C8.83012 16.4204 8.51012 16.7404 8.51012 17.1204V20.1404H7.35012C3.40012 20.1404 2.10012 18.9604 2.01012 15.2804C2.00012 15.0904 2.08012 14.9104 2.21012 14.7804C2.34012 14.6404 2.53012 14.5704 2.71012 14.5704C4.11012 14.5704 5.26012 13.4204 5.26012 12.0104C5.26012 10.6004 4.11012 9.44035 2.71012 9.44035C2.51012 9.44035 2.34012 9.37035 2.21012 9.23035C2.08012 9.10035 2.00012 8.91035 2.01012 8.73035C2.10012 5.04035 3.40012 3.86035 7.35012 3.86035H8.51012V6.88035C8.51012 7.27035 8.83012 7.58035 9.21012 7.58035Z" />
</svg>
