<?xml version="1.0" encoding="UTF-8"?>
<svg width="24" height="24" viewBox="0 0 24 24" xmlns="http://www.w3.org/2000/svg">
 <path d="m17 20.75h-10c-4.25 0-5.64-1.27-5.74-5.23 0-0.2 0.07-0.4 0.21-0.54s0.33-0.23 0.54-0.23c1.51 0 2.74-1.24 2.74-2.75s-1.23-2.75-2.74-2.75c-0.2 0-0.39-0.08-0.54-0.23s-0.22-0.34-0.21-0.54c0.1-3.96 1.49-5.23 5.74-5.23h10c4.41 0 5.75 1.34 5.75 5.75v6c0 4.41-1.34 5.75-5.75 5.75zm-14.21-4.57c0.17 2.54 1.03 3.07 4.21 3.07h10c3.58 0 4.25-0.68 4.25-4.25v-6c0-3.57-0.67-4.25-4.25-4.25h-10c-3.18 0-4.04 0.54-4.21 3.07 1.97 0.38 3.46 2.11 3.46 4.18s-1.49 3.8-3.46 4.18z"/>
 <path d="m9 8.25c-0.41 0-0.75-0.34-0.75-0.75v-3.5c0-0.41 0.34-0.75 0.75-0.75s0.75 0.34 0.75 0.75v3.5c0 0.41-0.34 0.75-0.75 0.75z"/>
 <path d="m9 20.75c-0.41 0-0.75-0.34-0.75-0.75v-3.5c0-0.41 0.34-0.75 0.75-0.75s0.75 0.34 0.75 0.75v3.5c0 0.41-0.34 0.75-0.75 0.75z"/>
 <path d="m13.04 15.65c-0.24 0-0.48-0.08-0.68-0.22-0.36-0.26-0.54-0.7-0.46-1.14l0.21-1.19-0.87-0.85c-0.32-0.31-0.43-0.77-0.3-1.19 0.14-0.42 0.5-0.73 0.94-0.79l1.2-0.18 0.54-1.09c0.2-0.4 0.6-0.65 1.04-0.65 0.45 0 0.85 0.25 1.04 0.65l0.54 1.09 1.2 0.18c0.44 0.06 0.8 0.37 0.94 0.79s0.02 0.88-0.3 1.19l-0.87 0.85 0.21 1.19c0.08 0.44-0.1 0.88-0.46 1.14s-0.83 0.29-1.22 0.09l-1.07-0.56-1.08 0.56c-0.17 0.09-0.36 0.13-0.55 0.13zm-0.27-4 0.51 0.5c0.28 0.27 0.4 0.65 0.34 1.03l-0.12 0.7 0.63-0.33c0.34-0.18 0.74-0.18 1.08 0l0.63 0.33-0.12-0.7c-0.06-0.39 0.06-0.77 0.34-1.03l0.51-0.5-0.7-0.1c-0.38-0.06-0.71-0.3-0.88-0.64l-0.31-0.64-0.31 0.64c-0.17 0.34-0.5 0.58-0.88 0.64l-0.72 0.1z"/>
</svg>
