<svg width="24" height="24" viewBox="0 0 24 24"  xmlns="http://www.w3.org/2000/svg">
<path d="M17.0002 20.75H7.00022C2.75022 20.75 1.36021 19.48 1.26021 15.52C1.26021 15.32 1.33021 15.12 1.47021 14.98C1.61021 14.84 1.80021 14.75 2.01021 14.75C3.52021 14.75 4.75021 13.51 4.75021 12C4.75021 10.49 3.52021 9.25 2.01021 9.25C1.81021 9.25 1.62021 9.17 1.47021 9.02C1.32021 8.87 1.25021 8.68 1.26021 8.48C1.36021 4.52 2.75022 3.25 7.00022 3.25H17.0002C21.4102 3.25 22.7502 4.59 22.7502 9V15C22.7502 19.41 21.4102 20.75 17.0002 20.75ZM2.79021 16.18C2.96021 18.72 3.82021 19.25 7.00022 19.25H17.0002C20.5802 19.25 21.2502 18.57 21.2502 15V9C21.2502 5.43 20.5802 4.75 17.0002 4.75H7.00022C3.82021 4.75 2.96021 5.29 2.79021 7.82C4.76021 8.2 6.25022 9.93 6.25022 12C6.25022 14.07 4.76021 15.8 2.79021 16.18Z" />
<path d="M9.00021 8.25C8.59021 8.25 8.25021 7.91 8.25021 7.5V4C8.25021 3.59 8.59021 3.25 9.00021 3.25C9.41021 3.25 9.75021 3.59 9.75021 4V7.5C9.75021 7.91 9.41021 8.25 9.00021 8.25Z" />
<path d="M9.00021 20.75C8.59021 20.75 8.25021 20.41 8.25021 20V16.5C8.25021 16.09 8.59021 15.75 9.00021 15.75C9.41021 15.75 9.75021 16.09 9.75021 16.5V20C9.75021 20.41 9.41021 20.75 9.00021 20.75Z" />
<path d="M13.0402 15.65C12.8002 15.65 12.5602 15.57 12.3602 15.43C12.0002 15.17 11.8202 14.73 11.9002 14.29L12.1102 13.1L11.2402 12.25C10.9202 11.94 10.8102 11.48 10.9402 11.06C11.0802 10.64 11.4402 10.33 11.8802 10.27L13.0802 10.09L13.6202 9C13.8202 8.6 14.2202 8.35 14.6602 8.35C15.1102 8.35 15.5102 8.6 15.7002 9L16.2402 10.09L17.4402 10.27C17.8802 10.33 18.2402 10.64 18.3802 11.06C18.5202 11.48 18.4002 11.94 18.0802 12.25L17.2102 13.1L17.4202 14.29C17.5002 14.73 17.3202 15.17 16.9602 15.43C16.6002 15.69 16.1302 15.72 15.7402 15.52L14.6702 14.96L13.5902 15.52C13.4202 15.61 13.2302 15.65 13.0402 15.65ZM12.7702 11.65L13.2802 12.15C13.5602 12.42 13.6802 12.8 13.6202 13.18L13.5002 13.88L14.1302 13.55C14.4702 13.37 14.8702 13.37 15.2102 13.55L15.8402 13.88L15.7202 13.18C15.6602 12.79 15.7802 12.41 16.0602 12.15L16.5702 11.65L15.8702 11.55C15.4902 11.49 15.1602 11.25 14.9902 10.91L14.6802 10.27L14.3702 10.91C14.2002 11.25 13.8702 11.49 13.4902 11.55L12.7702 11.65Z" />
</svg>
