<?xml version="1.0" encoding="UTF-8"?>
<svg width="24" height="24" viewBox="0 0 24 24" xmlns="http://www.w3.org/2000/svg">
 <path d="m12 22.75c-5.93 0-10.75-4.82-10.75-10.75s4.82-10.75 10.75-10.75 10.75 4.82 10.75 10.75-4.82 10.75-10.75 10.75zm0-20c-5.1 0-9.25 4.15-9.25 9.25s4.15 9.25 9.25 9.25 9.25-4.15 9.25-9.25-4.15-9.25-9.25-9.25z"/>
 <path d="m10.58 15.58c-0.2 0-0.39-0.08-0.53-0.22l-2.83-2.83c-0.29-0.29-0.29-0.77 0-1.06s0.77-0.29 1.06 0l2.3 2.3 5.14-5.14c0.29-0.29 0.77-0.29 1.06 0s0.29 0.77 0 1.06l-5.67 5.67c-0.14 0.14-0.33 0.22-0.53 0.22z"/>
</svg>
