<?xml version="1.0" encoding="UTF-8"?>
<svg width="24" height="24" viewBox="0 0 24 24" xmlns="http://www.w3.org/2000/svg">
 <path d="m17 20.75h-10c-4.41 0-5.75-1.34-5.75-5.75v-0.5c0-0.41 0.34-0.75 0.75-0.75 0.96 0 1.75-0.79 1.75-1.75s-0.79-1.75-1.75-1.75c-0.41 0-0.75-0.34-0.75-0.75v-0.5c0-4.41 1.34-5.75 5.75-5.75h10c4.41 0 5.75 1.34 5.75 5.75v1c0 0.41-0.34 0.75-0.75 0.75-0.96 0-1.75 0.79-1.75 1.75s0.79 1.75 1.75 1.75c0.41 0 0.75 0.34 0.75 0.75 0 4.41-1.34 5.75-5.75 5.75zm-14.25-5.59c0.02 3.44 0.73 4.09 4.25 4.09h10c3.34 0 4.15-0.59 4.24-3.59-1.43-0.34-2.49-1.63-2.49-3.16s1.07-2.82 2.5-3.16v-0.34c0-3.57-0.68-4.25-4.25-4.25h-10c-3.52 0-4.23 0.65-4.25 4.09 1.43 0.34 2.5 1.63 2.5 3.16s-1.07 2.82-2.5 3.16z"/>
 <path d="m15 15.88c-0.56 0-1.01-0.45-1.01-1s0.45-1 1-1 1 0.45 1 1-0.43 1-0.99 1z"/>
 <path d="m9.0002 10.88c-0.56 0-1.01-0.45-1.01-1s0.45-1 1-1 1 0.45 1 1-0.43 1-0.99 1z"/>
 <path d="m8.6298 16.43c-0.19 0-0.38-0.07-0.53-0.22-0.29-0.29-0.29-0.77 0-1.06l6.73-6.73c0.29-0.29 0.77-0.29 1.06 0s0.29 0.77 0 1.06l-6.73 6.73c-0.14 0.15-0.34 0.22-0.53 0.22z"/>
</svg>
