<?xml version="1.0" encoding="UTF-8"?>
<svg width="24" height="24" viewBox="0 0 24 24" xmlns="http://www.w3.org/2000/svg">
 <path d="m12 13.75c-0.41 0-0.75-0.34-0.75-0.75v-5c0-0.41 0.34-0.75 0.75-0.75s0.75 0.34 0.75 0.75v5c0 0.41-0.34 0.75-0.75 0.75z"/>
 <path d="m12 22.75c-5.24 0-9.5-4.26-9.5-9.5s4.26-9.5 9.5-9.5 9.5 4.26 9.5 9.5c0 0.41-0.34 0.75-0.75 0.75s-0.75-0.34-0.75-0.75c0-4.41-3.59-8-8-8s-8 3.59-8 8 3.59 8 8 8c0.41 0 0.75 0.34 0.75 0.75s-0.34 0.75-0.75 0.75z"/>
 <path d="m15 2.75h-6c-0.41 0-0.75-0.34-0.75-0.75s0.34-0.75 0.75-0.75h6c0.41 0 0.75 0.34 0.75 0.75s-0.34 0.75-0.75 0.75z"/>
 <path d="m16.15 22.02c-0.35 0-0.67-0.08-0.96-0.25-0.66-0.38-1.04-1.15-1.04-2.11v-2.31c0-0.96 0.38-1.73 1.04-2.11s1.51-0.32 2.34 0.15l2 1.16c0.83 0.48 1.31 1.19 1.31 1.95s-0.48 1.47-1.31 1.95l-2 1.16c-0.46 0.27-0.93 0.41-1.38 0.41zm0.01-5.54c-0.08 0-0.16 0.02-0.22 0.05-0.18 0.1-0.29 0.41-0.29 0.81v2.31c0 0.4 0.11 0.71 0.29 0.81s0.5 0.05 0.84-0.15l2-1.16c0.35-0.2 0.56-0.45 0.56-0.65s-0.21-0.45-0.56-0.65l-2-1.16c-0.23-0.14-0.45-0.21-0.62-0.21z"/>
</svg>
