<?xml version="1.0" encoding="UTF-8"?>
<svg width="24" height="24" viewBox="0 0 24 24" xmlns="http://www.w3.org/2000/svg">
 <path d="m15.24 22.75h-6.48c-1.89 0-3.27-0.79-3.8-2.15-0.55-1.42-0.04-3.18 1.28-4.37l4.64-4.23-4.64-4.23c-1.32-1.19-1.83-2.95-1.28-4.37 0.53-1.37 1.91-2.15 3.8-2.15h6.48c1.89 0 3.27 0.79 3.8 2.15 0.55 1.42 0.04 3.18-1.28 4.37l-4.64 4.23 4.65 4.23c1.31 1.19 1.83 2.95 1.28 4.37-0.54 1.36-1.92 2.15-3.81 2.15zm-3.24-9.74-4.75 4.32c-0.84 0.77-1.21 1.89-0.89 2.72 0.3 0.77 1.15 1.2 2.4 1.2h6.48c1.25 0 2.1-0.42 2.4-1.2 0.32-0.83-0.04-1.95-0.89-2.72l-4.75-4.32zm-3.24-10.26c-1.25 0-2.1 0.42-2.4 1.2-0.32 0.83 0.04 1.95 0.89 2.72l4.75 4.32 4.75-4.32c0.84-0.77 1.21-1.89 0.89-2.72-0.3-0.77-1.15-1.2-2.4-1.2h-6.48z"/>
</svg>
