<svg width="24" height="24" viewBox="0 0 24 24"  xmlns="http://www.w3.org/2000/svg">
<path opacity="0.4" d="M7.35 3.85999H16.65C20.75 3.85999 22 5.10999 22 9.20999V14.79C22 18.89 20.75 20.14 16.65 20.14H7.35C3.25 20.14 2 18.89 2 14.79V9.20999C2 5.10999 3.25 3.85999 7.35 3.85999Z" />
<path d="M13.2099 7.57996H15.4399C17.6899 7.57996 18.7399 8.62996 18.7399 10.88V13.11C18.7399 15.36 17.6899 16.41 15.4399 16.41H13.2099C10.9599 16.41 9.90991 15.36 9.90991 13.11V10.88C9.90991 8.62996 10.9599 7.57996 13.2099 7.57996Z" />
</svg>
