<?xml version="1.0" encoding="UTF-8"?>
<svg width="24" height="24" viewBox="0 0 24 24" xmlns="http://www.w3.org/2000/svg">
 <path d="m14 20.75h-4c-4.83 0-8.75-3.93-8.75-8.75s3.92-8.75 8.75-8.75h4c4.83 0 8.75 3.93 8.75 8.75s-3.92 8.75-8.75 8.75zm-4-16c-4 0-7.25 3.25-7.25 7.25s3.25 7.25 7.25 7.25h4c4 0 7.25-3.25 7.25-7.25s-3.25-7.25-7.25-7.25h-4z"/>
 <path d="m10 16.75c-2.62 0-4.75-2.13-4.75-4.75s2.13-4.75 4.75-4.75 4.75 2.13 4.75 4.75-2.13 4.75-4.75 4.75zm0-8c-1.79 0-3.25 1.46-3.25 3.25s1.46 3.25 3.25 3.25 3.25-1.46 3.25-3.25-1.46-3.25-3.25-3.25z"/>
</svg>
