<svg width="24" height="24" viewBox="0 0 24 24"  xmlns="http://www.w3.org/2000/svg">
<path opacity="0.4" d="M16.65 3.85999H7.35C3.25 3.85999 2 5.10999 2 9.20999V14.79C2 18.89 3.25 20.14 7.35 20.14H16.65C20.75 20.14 22 18.89 22 14.79V9.20999C22 5.10999 20.75 3.85999 16.65 3.85999Z" />
<path d="M10.79 7.57996H8.56001C6.31001 7.57996 5.26001 8.62996 5.26001 10.88V13.11C5.26001 15.36 6.31001 16.41 8.56001 16.41H10.79C13.04 16.41 14.09 15.36 14.09 13.11V10.88C14.09 8.62996 13.04 7.57996 10.79 7.57996Z" />
</svg>
