<?xml version="1.0" encoding="UTF-8"?>
<svg width="24" height="24" viewBox="0 0 24 24" xmlns="http://www.w3.org/2000/svg">
 <path d="m15.5 15.75c-0.18 0-0.38-0.01-0.57-0.02-0.37-0.02-0.67-0.32-0.7-0.69-0.22-2.79-2.49-5.05-5.27-5.27-0.37-0.03-0.67-0.32998-0.69-0.69998-0.01-0.19-0.01999-0.38001-0.01999-0.57001 0-4 3.25-7.25 7.25-7.25s7.25 3.25 7.25 7.25-3.25 7.25-7.25 7.25zm-5.75-7.39c2.98 0.52 5.37 2.91 5.89 5.89 3.11-0.08 5.61-2.62 5.61-5.75 0-3.17-2.58-5.75-5.75-5.75-3.12 0-5.67 2.5-5.75 5.61z"/>
 <path d="m8.5 22.75c-4 0-7.25-3.25-7.25-7.25s3.25-7.25 7.25-7.25c0.18 0 0.38001 0.00999 0.57001 0.01999 3.53 0.28 6.39 3.14 6.66 6.65 0.01 0.2 0.02 0.39 0.02 0.58 0 4-3.25 7.25-7.25 7.25zm0-13c-3.17 0-5.75 2.58-5.75 5.75s2.58 5.75 5.75 5.75 5.75-2.58 5.75-5.75c0-0.16-0.01-0.32-0.02-0.47-0.22-2.77-2.48-5.04-5.27-5.26-0.14-0.01-0.29999-0.01999-0.45999-0.01999z"/>
 <path d="m3 7.34c-0.23 0-0.45001-0.04001-0.67001-0.13001-0.66-0.27-1.08-0.90999-1.08-1.62v-2.59c0-0.96 0.79-1.75 1.75-1.75h2.59c0.71 0 1.34 0.41999 1.62 1.08 0.27 0.66 0.12 1.41-0.38 1.91l-2.59 2.59c-0.34 0.33-0.77999 0.51001-1.24 0.51001zm0-4.59c-0.14 0-0.25 0.11-0.25 0.25v2.59c0 0.15 0.09999 0.21001 0.14999 0.23001 0.06 0.02 0.17002 0.04998 0.27002-0.05002l2.59-2.59c0.1-0.1 0.07999-0.20999 0.04999-0.26999s-0.09001-0.14999-0.23001-0.14999h-2.58v-0.01001z"/>
 <path d="m21 22.75h-2.59c-0.71 0-1.34-0.42-1.62-1.08-0.27-0.66-0.12-1.41 0.38-1.91l2.59-2.59c0.5-0.5 1.25-0.65 1.91-0.38s1.08 0.91 1.08 1.62v2.59c0 0.96-0.79 1.75-1.75 1.75zm-0.01-4.59c-0.05 0-0.11 0.02-0.17 0.08l-2.59 2.59c-0.1 0.1-0.08 0.21-0.05 0.27s0.09 0.15 0.23 0.15h2.59c0.14 0 0.25-0.11 0.25-0.25v-2.59c0-0.15-0.1-0.21-0.15-0.23-0.03-0.01-0.07-0.02-0.11-0.02z"/>
</svg>
