<?xml version="1.0" encoding="UTF-8"?>
<svg width="24" height="24" viewBox="0 0 24 24" xmlns="http://www.w3.org/2000/svg">
 <path d="m14.79 19.42c-0.11 0-0.23-0.03-0.33-0.08-0.37-0.19-0.52-0.64-0.34-1.01l2.14-4.27c0.13-0.25 0.39-0.41 0.67-0.41s0.54 0.16 0.67 0.42l2.14 4.27c0.19 0.37 0.04 0.82-0.34 1.01-0.37 0.19-0.82 0.04-1.01-0.34l-1.46-2.93-1.46 2.93c-0.14 0.26-0.41 0.41-0.68 0.41z"/>
 <path d="m18.68 18.66h-3.5199c-0.41 0-0.75-0.34-0.75-0.75s0.34-0.75 0.75-0.75h3.5199c0.41 0 0.75 0.34 0.75 0.75s-0.33 0.75-0.75 0.75z"/>
 <path d="m16.92 22.75c-3.21 0-5.83-2.6101-5.83-5.8301s2.61-5.8299 5.83-5.8299c3.21 0 5.83 2.6099 5.83 5.8299s-2.61 5.8301-5.83 5.8301zm0-10.15c-2.39 0-4.33 1.9401-4.33 4.3301s1.94 4.33 4.33 4.33c2.38 0 4.33-1.94 4.33-4.33s-1.94-4.3301-4.33-4.3301z"/>
 <path d="m4.86 12.7c-1.11 0-1.99-0.31-2.61-0.91-0.66-0.64-1-1.61-1-2.86v-3.92c0-2.43 1.34-3.77 3.77-3.77h3.92c1.25 0 2.21 0.33 2.86 1 0.63 0.65 0.94 1.59 0.91 2.79v3.9c0.03 1.22-0.28 2.18-0.93 2.83s-1.61 0.95-2.85 0.93h-3.9c-0.07 0.01-0.12 0.01-0.17 0.01zm0.16-9.95c-1.61 0-2.27 0.66002-2.27 2.27v3.92c0 0.83 0.17999 1.43 0.53999 1.78 0.35 0.34 0.91002 0.49 1.7 0.48h3.94c0.84 0.02 1.42-0.15 1.77-0.5s0.51-0.93999 0.49-1.75v-3.94c0.02-0.8-0.14-1.37-0.48-1.72-0.35-0.36-0.95001-0.53998-1.78-0.53998h-3.91z"/>
 <path d="m8.9999 6.5998h-4.06c-0.41 0-0.75-0.34-0.75-0.75s0.34-0.75 0.75-0.75h4.06c0.41 0 0.75 0.34 0.75 0.75s-0.33 0.75-0.75 0.75z"/>
 <path d="m6.98 6.5999c-0.41 0-0.75-0.34-0.75-0.75v-0.67999c0-0.41 0.34-0.75 0.75-0.75s0.75 0.34 0.75 0.75v0.67999c0 0.41-0.34 0.75-0.75 0.75z"/>
 <path d="m4.9399 9.76c-0.41 0-0.75-0.34-0.75-0.75s0.34-0.75 0.75-0.75c1.27 0 2.3-1.08 2.3-2.42 0-0.41 0.34-0.75 0.75-0.75s0.75 0.34 0.75 0.75c0 2.16-1.7 3.92-3.8 3.92z"/>
 <path d="m9.0099 9.7599c-0.93 0-1.82-0.46998-2.45-1.3-0.25-0.33-0.17999-0.80005 0.15001-1.05s0.79998-0.17998 1.05 0.15002c0.34 0.46 0.79 0.71002 1.25 0.71002 0.41 0 0.75 0.34 0.75 0.75s-0.34 0.73999-0.75 0.73999z"/>
 <path d="m9 22.75c-4.27 0-7.75-3.48-7.75-7.75 0-0.41 0.34-0.75 0.75-0.75s0.75 0.34 0.75 0.75c0 2.96 2.06 5.44 4.83 6.09l-0.27-0.45c-0.21-0.36-0.09999-0.82 0.26001-1.03 0.35-0.21 0.82-0.1 1.03 0.26l1.05 1.75c0.14 0.23 0.14001 0.52 0.01001 0.75-0.14 0.23-0.39 0.38-0.66 0.38z"/>
 <path d="m22 9.75c-0.41 0-0.75-0.34-0.75-0.75 0-2.96-2.06-5.44-4.83-6.09l0.27 0.45002c0.21 0.36 0.1 0.82002-0.26 1.03-0.35 0.21-0.82 0.1-1.03-0.26001l-1.05-1.75c-0.14-0.23-0.14-0.52-0.01-0.75 0.13-0.24 0.38-0.38 0.65-0.38 4.27 0 7.75 3.48 7.75 7.75 0.01 0.41-0.33 0.75-0.74 0.75z"/>
</svg>
