<svg width="24" height="24" viewBox="0 0 24 24"  xmlns="http://www.w3.org/2000/svg">
<path opacity="0.4" d="M16.9201 21.9998C14.1201 21.9998 11.8401 19.7299 11.8401 16.9199C11.8401 14.1199 14.1101 11.8398 16.9201 11.8398C19.7201 11.8398 22.0001 14.1099 22.0001 16.9199C22.0001 19.7299 19.7301 21.9998 16.9201 21.9998Z" />
<path opacity="0.4" d="M5.02 2H8.94C11.01 2 12.01 2.99999 11.96 5.01999V8.94C12.01 11.01 11.01 12.01 8.94 11.96H5.02C3 12 2 11 2 8.92999V5.01001C2 3.00001 3 2 5.02 2Z" />
<path d="M9.00993 8.25992C8.69993 8.25992 8.40994 8.13991 8.13994 7.93991C8.38994 7.53991 8.56994 7.08991 8.65994 6.59991H8.99994C9.40994 6.59991 9.74994 6.25991 9.74994 5.84991C9.74994 5.43991 9.40994 5.09991 8.99994 5.09991H8.00993C7.99993 5.09991 7.98994 5.09991 7.98994 5.09991H7.96994H7.70995C7.66995 4.71991 7.35994 4.41992 6.96994 4.41992C6.57994 4.41992 6.26993 4.71991 6.22993 5.09991H4.93994C4.52994 5.09991 4.18994 5.43991 4.18994 5.84991C4.18994 6.25991 4.52994 6.59991 4.93994 6.59991H7.10994C6.80994 7.55991 5.94993 8.25992 4.92993 8.25992C4.51993 8.25992 4.17993 8.59992 4.17993 9.00992C4.17993 9.41992 4.51993 9.75992 4.92993 9.75992C5.73993 9.75992 6.48994 9.48992 7.10994 9.03992C7.65994 9.49992 8.31994 9.75992 8.99994 9.75992C9.40994 9.75992 9.74994 9.41992 9.74994 9.00992C9.74994 8.59992 9.41993 8.25992 9.00993 8.25992Z" />
<path d="M9 22.75C4.73 22.75 1.25 19.27 1.25 15C1.25 14.59 1.59 14.25 2 14.25C2.41 14.25 2.75 14.59 2.75 15C2.75 17.96 4.81 20.44 7.58 21.09L7.31 20.64C7.1 20.28 7.21001 19.82 7.57001 19.61C7.92001 19.4 8.39001 19.51 8.60001 19.87L9.64999 21.62C9.78999 21.85 9.79 22.14 9.66 22.37C9.52 22.6 9.27 22.75 9 22.75Z" />
<path d="M21.9999 9.75C21.5899 9.75 21.2499 9.41 21.2499 9C21.2499 6.04 19.1899 3.56 16.4199 2.91L16.6899 3.35999C16.8999 3.71999 16.7899 4.18001 16.4299 4.39001C16.0799 4.60001 15.6099 4.49 15.3999 4.13L14.3499 2.38C14.2099 2.15 14.2099 1.86 14.3399 1.63C14.4699 1.39 14.7199 1.25 14.9899 1.25C19.2599 1.25 22.7399 4.73 22.7399 9C22.7499 9.41 22.4099 9.75 21.9999 9.75Z" />
<path d="M19.73 18.3301L17.59 14.0601C17.46 13.8101 17.2 13.6401 16.92 13.6401C16.64 13.6401 16.38 13.8001 16.25 14.0501L14.11 18.3201C13.92 18.6901 14.07 19.1401 14.45 19.3301C14.56 19.3801 14.67 19.4101 14.78 19.4101C15.05 19.4101 15.32 19.2601 15.45 19.0001L15.62 18.6601H18.2101L18.38 19.0001C18.57 19.3701 19.02 19.5201 19.39 19.3401C19.77 19.1501 19.92 18.7001 19.73 18.3301ZM16.38 17.1601L16.93 16.0701L17.48 17.1601H16.38Z" />
</svg>
