<?xml version="1.0" encoding="UTF-8"?>
<svg width="24" height="24" viewBox="0 0 24 24" xmlns="http://www.w3.org/2000/svg">
 <path d="m21 6.7305h-0.08c-5.29-0.53-10.57-0.73-15.8-0.2l-2.04 0.2c-0.42 0.04-0.79-0.26-0.83-0.68s0.26-0.78 0.67-0.82l2.04-0.2c5.32-0.54 10.71-0.33 16.11 0.2 0.41 0.04 0.71 0.41 0.67 0.82-0.03 0.39-0.36 0.68-0.74 0.68z"/>
 <path d="m8.4998 5.72c-0.04 0-0.08 0-0.13-0.01-0.4-0.07-0.68-0.46-0.61-0.86l0.22-1.31c0.16-0.96 0.38-2.29 2.71-2.29h2.62c2.34 0 2.56 1.38 2.71 2.3l0.22 1.3c0.07 0.41-0.21 0.8-0.61 0.86-0.41 0.07-0.8-0.21-0.86-0.61l-0.22-1.3c-0.14-0.87-0.17-1.04-1.23-1.04h-2.62c-1.06 0-1.08 0.14-1.23 1.03l-0.23 1.3c-0.06 0.37-0.38 0.63-0.74 0.63z"/>
 <path d="m15.21 22.75h-6.42c-3.49 0-3.63-1.93-3.74-3.49l-0.65-10.07c-0.03-0.41 0.29-0.77 0.7-0.8 0.42-0.02 0.77 0.29 0.8 0.7l0.65 10.07c0.11 1.52 0.15 2.09 2.24 2.09h6.42c2.1 0 2.14-0.57 2.24-2.09l0.65-10.07c0.03-0.41 0.39-0.72 0.8-0.7 0.41 0.03 0.73 0.38 0.7 0.8l-0.65 10.07c-0.11 1.56-0.25 3.49-3.74 3.49z"/>
 <path d="m13.66 17.25h-3.33c-0.41002 0-0.75002-0.34-0.75002-0.75s0.34-0.75 0.75002-0.75h3.33c0.41 0 0.75 0.34 0.75 0.75s-0.34 0.75-0.75 0.75z"/>
 <path d="m14.5 13.25h-5c-0.41 0-0.75-0.34-0.75-0.75s0.34-0.75 0.75-0.75h5c0.41 0 0.75 0.34 0.75 0.75s-0.34 0.75-0.75 0.75z"/>
</svg>
