<?xml version="1.0" encoding="UTF-8"?>
<svg width="24" height="24" viewBox="0 0 24 24" xmlns="http://www.w3.org/2000/svg">
 <path d="m16.17 10.81h-8.3401c-0.86 0-1.52-0.34-1.82-0.91995-0.3-0.59-0.18003-1.32 0.31997-2.01l4.17-5.84c0.74-1.06 2.27-1.06 3.02 0.01l4.17 5.83c0.5 0.69 0.62 1.42 0.32 2.01-0.32 0.57995-0.9799 0.91995-1.8399 0.91995zm-4.1701-8.11c-0.09 0-0.19 0.08001-0.28 0.20001l-4.17 5.85c-0.2 0.27-0.20999 0.42999-0.19999 0.46 0.01 0.02 0.14999 0.09999 0.48999 0.09999h8.34c0.33 0 0.4701-0.09 0.4901-0.11 0-0.02-0.0101-0.17999-0.2001-0.44999l-4.17-5.84c-0.11-0.14-0.21-0.21001-0.3-0.21001z"/>
 <path d="m17.59 18.75h-11.17c-1.43 0-2-0.69-2.21-1.1s-0.42999-1.27 0.41001-2.43l3.99-5.6c0.14-0.2 0.37001-0.31001 0.61001-0.31001h5.57c0.24 0 0.4699 0.12001 0.6099 0.31001l3.9901 5.61c0.84 1.15 0.61 2.01 0.4 2.42s-0.77 1.1-2.2001 1.1zm-7.9899-7.94-3.77 5.29c-0.32 0.44-0.34998 0.74-0.28998 0.87 0.07 0.13 0.33 0.28 0.87 0.28h11.17c0.54 0 0.8101-0.15 0.8701-0.28 0.07-0.13 0.03-0.43-0.29-0.87l-3.77-5.3h-4.79v0.01z"/>
 <path d="m12 22.75c-0.41 0-0.75-0.34-0.75-0.75v-4c0-0.41 0.34-0.75 0.75-0.75s0.75 0.34 0.75 0.75v4c0 0.41-0.34 0.75-0.75 0.75z"/>
</svg>
