<svg width="24" height="24" viewBox="0 0 24 24"  xmlns="http://www.w3.org/2000/svg">
<path d="M16.1703 10.8098H7.83022C6.97022 10.8098 6.31025 10.4698 6.01025 9.88985C5.71025 9.29985 5.83022 8.56984 6.33022 7.87984L10.5002 2.03985C11.2402 0.979847 12.7702 0.979849 13.5202 2.04985L17.6902 7.87984C18.1902 8.56984 18.3102 9.29985 18.0102 9.88985C17.6902 10.4698 17.0303 10.8098 16.1703 10.8098ZM12.0002 2.69984C11.9102 2.69984 11.8102 2.77985 11.7202 2.89985L7.55023 8.74985C7.35023 9.01985 7.34024 9.17984 7.35024 9.20985C7.36024 9.22985 7.50023 9.30984 7.84023 9.30984H16.1802C16.5102 9.30984 16.6503 9.21984 16.6703 9.19984C16.6703 9.17984 16.6602 9.01985 16.4702 8.74985L12.3002 2.90985C12.1902 2.76985 12.0902 2.69984 12.0002 2.69984Z" />
<path d="M17.5901 18.7496H6.42017C4.99017 18.7496 4.42014 18.0596 4.21014 17.6496C4.00014 17.2396 3.78015 16.3796 4.62015 15.2196L8.61014 9.61958C8.75014 9.41958 8.98015 9.30957 9.22015 9.30957H14.7902C15.0302 9.30957 15.2601 9.42958 15.4001 9.61958L19.3902 15.2296C20.2302 16.3796 20.0002 17.2396 19.7902 17.6496C19.5802 18.0596 19.0202 18.7496 17.5901 18.7496ZM9.60016 10.8096L5.83014 16.0996C5.51014 16.5396 5.48016 16.8396 5.54016 16.9696C5.61016 17.0996 5.87016 17.2496 6.41016 17.2496H17.5801C18.1201 17.2496 18.3902 17.0996 18.4502 16.9696C18.5202 16.8396 18.4802 16.5396 18.1602 16.0996L14.3902 10.7996H9.60016V10.8096Z" />
<path d="M12 22.75C11.59 22.75 11.25 22.41 11.25 22V18C11.25 17.59 11.59 17.25 12 17.25C12.41 17.25 12.75 17.59 12.75 18V22C12.75 22.41 12.41 22.75 12 22.75Z" />
</svg>
