<?xml version="1.0" encoding="UTF-8"?>
<svg width="24" height="24" viewBox="0 0 24 24" xmlns="http://www.w3.org/2000/svg">
 <path d="m15 22.75h-6c-5.43 0-7.75-2.32-7.75-7.75v-6c0-5.43 2.32-7.75 7.75-7.75h6c5.43 0 7.75 2.32 7.75 7.75v6c0 5.43-2.32 7.75-7.75 7.75zm-6-20c-4.61 0-6.25 1.64-6.25 6.25v6c0 4.61 1.64 6.25 6.25 6.25h6c4.61 0 6.25-1.64 6.25-6.25v-6c0-4.61-1.64-6.25-6.25-6.25h-6z"/>
 <path d="m9.5499 18.469h-2.45c-1.09 0-1.97-0.89-1.97-1.98v-8.98c0-1.09 0.88997-1.98 1.97-1.98h2.45c1.09 0 1.98 0.89001 1.98 1.98v8.98c0 1.09-0.89 1.98-1.98 1.98zm-2.45-11.44c-0.26 0-0.46997 0.22001-0.46997 0.48001v8.98c0 0.26 0.21997 0.48 0.46997 0.48h2.45c0.26 0 0.48003-0.22 0.48003-0.48v-8.98c0-0.26-0.22003-0.48001-0.48003-0.48001h-2.45z"/>
 <path d="m17.14 14.379h-2.94c-0.96 0-1.7301-0.78-1.7301-1.73v-5.39c0-0.96 0.7801-1.73 1.7301-1.73h2.94c0.96 0 1.73 0.78001 1.73 1.73v5.39c0.01 0.96-0.77 1.73-1.73 1.73zm-2.93-7.35c-0.13 0-0.2301 0.11001-0.2301 0.23001v5.39c0 0.13 0.1101 0.23 0.2301 0.23h2.94c0.13 0 0.23-0.11 0.23-0.23v-5.39c0-0.13-0.11-0.23001-0.23-0.23001h-2.94z"/>
</svg>
