<svg width="24" height="24" viewBox="0 0 24 24"  xmlns="http://www.w3.org/2000/svg">
<path d="M15 22.75H9C3.57 22.75 1.25 20.43 1.25 15V9C1.25 3.57 3.57 1.25 9 1.25H15C20.43 1.25 22.75 3.57 22.75 9V15C22.75 20.43 20.43 22.75 15 22.75ZM9 2.75C4.39 2.75 2.75 4.39 2.75 9V15C2.75 19.61 4.39 21.25 9 21.25H15C19.61 21.25 21.25 19.61 21.25 15V9C21.25 4.39 19.61 2.75 15 2.75H9Z" />
<path d="M9.54999 18.47H7.09998C6.00998 18.47 5.13 17.58 5.13 16.49V7.51001C5.13 6.42001 6.01998 5.53 7.09998 5.53H9.54999C10.64 5.53 11.53 6.42001 11.53 7.51001V16.49C11.53 17.58 10.64 18.47 9.54999 18.47ZM7.09998 7.03C6.83998 7.03 6.63 7.25001 6.63 7.51001V16.49C6.63 16.75 6.84998 16.97 7.09998 16.97H9.54999C9.80999 16.97 10.03 16.75 10.03 16.49V7.51001C10.03 7.25001 9.80999 7.03 9.54999 7.03H7.09998Z" />
<path d="M17.14 14.38H14.2C13.24 14.38 12.47 13.6 12.47 12.65V7.26001C12.47 6.30001 13.25 5.53 14.2 5.53H17.14C18.1 5.53 18.87 6.31001 18.87 7.26001V12.65C18.88 13.61 18.1 14.38 17.14 14.38ZM14.21 7.03C14.08 7.03 13.98 7.14001 13.98 7.26001V12.65C13.98 12.78 14.09 12.88 14.21 12.88H17.15C17.28 12.88 17.38 12.77 17.38 12.65V7.26001C17.38 7.13001 17.27 7.03 17.15 7.03H14.21Z" />
</svg>
