<svg width="24" height="24" viewBox="0 0 24 24"  xmlns="http://www.w3.org/2000/svg">
<path opacity="0.4" d="M16.19 2H7.82001C4.18001 2 2.01001 4.17 2.01001 7.81V16.18C2.01001 19.82 4.18001 21.99 7.82001 21.99H16.19C19.83 21.99 22 19.82 22 16.18V7.81C22 4.17 19.83 2 16.19 2Z" />
<path d="M9.54987 17.7198H7.09985C6.42985 17.7198 5.87988 17.1698 5.87988 16.4998V7.5198C5.87988 6.8498 6.42985 6.2998 7.09985 6.2998H9.54987C10.2199 6.2998 10.7699 6.8498 10.7699 7.5198V16.4998C10.7699 17.1698 10.2199 17.7198 9.54987 17.7198Z" />
<path d="M17.1398 13.6303H14.1998C13.6598 13.6303 13.2197 13.1903 13.2197 12.6503V7.26028C13.2197 6.72028 13.6598 6.28027 14.1998 6.28027H17.1398C17.6798 6.28027 18.1198 6.72028 18.1198 7.26028V12.6503C18.1198 13.1903 17.6798 13.6303 17.1398 13.6303Z" />
</svg>
