<?xml version="1.0" encoding="UTF-8"?>
<svg width="24" height="24" viewBox="0 0 24 24" xmlns="http://www.w3.org/2000/svg">
 <path d="m16.5 15.25c-0.19 0-0.38-0.07-0.53-0.22l-3.55-3.55-1.09 1.64c-0.12 0.19-0.33 0.31-0.55 0.33-0.23 0.02-0.45-0.06-0.6-0.22l-3.2-3.2c-0.29-0.28997-0.29-0.76997 0-1.06s0.77-0.29 1.06 0l2.55 2.55 1.09-1.64c0.12-0.18 0.32-0.3 0.55-0.33 0.23-0.02 0.45 0.06 0.6 0.22l4.2 4.2c0.29 0.29 0.29 0.77 0 1.06-0.15 0.15-0.34 0.22-0.53 0.22z"/>
 <path d="m16.5 15.25h-2c-0.41 0-0.75-0.34-0.75-0.75s0.34-0.75 0.75-0.75h1.25v-1.25c0-0.41 0.34-0.75 0.75-0.75s0.75 0.34 0.75 0.75v2c0 0.41-0.34 0.75-0.75 0.75z"/>
 <path d="m15 22.75h-6c-5.43 0-7.75-2.32-7.75-7.75v-6c0-5.43 2.32-7.75 7.75-7.75h6c5.43 0 7.75 2.32 7.75 7.75v6c0 5.43-2.32 7.75-7.75 7.75zm-6-20c-4.61 0-6.25 1.64-6.25 6.25v6c0 4.61 1.64 6.25 6.25 6.25h6c4.61 0 6.25-1.64 6.25-6.25v-6c0-4.61-1.64-6.25-6.25-6.25h-6z"/>
</svg>
