<?xml version="1.0" encoding="UTF-8"?>
<svg width="24" height="24" viewBox="0 0 24 24" xmlns="http://www.w3.org/2000/svg">
 <path d="m10.9 22.75c-0.2 0-0.3901-0.08-0.5301-0.22l-10-10c-0.29-0.29-0.29-0.77 0-1.06l10-10c0.21-0.21 0.5401-0.28 0.8201-0.16s0.46 0.39 0.46 0.69v4c0 0.2-0.0801 0.39-0.2201 0.53l-5.4699 5.47 5.4699 5.47c0.14 0.14 0.2201 0.33 0.2201 0.53v4c0 0.3-0.18 0.58-0.46 0.69-0.1 0.04-0.19 0.06-0.29 0.06zm-8.94-10.75 8.19 8.19v-1.88l-5.7801-5.78c-0.29-0.29-0.29-0.77 0-1.06l5.7801-5.78v-1.88l-8.19 8.19z"/>
 <path d="m12.9 22.75c-0.1 0-0.19-0.02-0.29-0.06-0.28-0.12-0.46-0.39-0.46-0.69v-4c0-0.2 0.08-0.39 0.22-0.53l5.47-5.47-5.47-5.47c-0.14-0.14-0.22-0.33-0.22-0.53v-4c0-0.3 0.18-0.58 0.46-0.69 0.28-0.12 0.6-0.05 0.82 0.16l10 10c0.29 0.29 0.29 0.77 0 1.06l-10 10c-0.14 0.14-0.33 0.22-0.53 0.22zm0.75-4.44v1.88l8.19-8.19-8.19-8.19v1.88l5.78 5.78c0.29 0.29 0.29 0.77 0 1.06l-5.78 5.78z"/>
 <path d="m10.9 15.75c-0.2 0-0.3901-0.08-0.5301-0.22l-3-3c-0.29-0.29-0.29-0.77 0-1.06l3-3c0.21-0.21 0.5401-0.28 0.8201-0.16s0.46 0.39 0.46 0.69v6c0 0.3-0.18 0.58-0.46 0.69-0.1 0.04-0.19 0.06-0.29 0.06zm-1.94-3.75 1.19 1.19v-2.38l-1.19 1.19z"/>
</svg>
