<?xml version="1.0" encoding="UTF-8"?>
<svg width="24" height="24" viewBox="0 0 24 24" xmlns="http://www.w3.org/2000/svg">
 <path d="m18.06 22.16h-12.12c-1.95 0-3.44-0.71-4.2-1.99-0.75-1.28-0.65-2.93 0.3-4.63l6.06-10.91c1-1.8 2.38-2.79 3.9-2.79s2.9 0.99 3.9 2.79l6.06 10.91c0.95 1.71 1.06 3.35 0.3 4.63s-2.25 1.99-4.2 1.99zm-6.06-18.82c-0.94 0-1.86 0.72-2.59 2.02l-6.05 10.91c-0.68 1.22-0.79 2.34-0.32 3.15 0.47 0.8 1.51 1.25 2.91 1.25h12.12c1.4 0 2.43-0.44 2.91-1.25 0.47-0.81 0.36-1.92-0.32-3.15l-6.07-10.91c-0.73-1.3-1.65-2.02-2.59-2.02z"/>
 <path d="m21.44 20.75c-0.15 0-0.3-0.04-0.43-0.14l-9.01-6.31-9.01 6.31c-0.34 0.24-0.81 0.16-1.04-0.18-0.24-0.34-0.16-0.81 0.18-1.04l9.44-6.61c0.26-0.18 0.6-0.18 0.86 0l9.44 6.61c0.34 0.24 0.42 0.71 0.18 1.04-0.14 0.21-0.37 0.32-0.61 0.32z"/>
 <path d="m12 14.14c-0.41 0-0.75-0.34-0.75-0.75v-10.39c0-0.41 0.34-0.75 0.75-0.75s0.75 0.34 0.75 0.75v10.39c0 0.41-0.34 0.75-0.75 0.75z"/>
</svg>
