<svg width="24" height="24" viewBox="0 0 24 24"  xmlns="http://www.w3.org/2000/svg">
<path d="M20.66 8.04004C20.66 8.27004 20.6 8.51004 20.45 8.70004L11.07 20.64C10.73 21.07 10.33 21.22 9.98999 21.1L9.99999 21L11 10L20.04 8.19004L20.66 8.04004Z" />
<path opacity="0.4" d="M20.66 8.0398L20.04 8.1898L11 9.9998L16.95 4.0498C17.07 4.0998 17.17 4.1698 17.24 4.2398L20.37 7.3698C20.55 7.5498 20.65 7.7898 20.66 8.0398Z" />
<path d="M16.9499 4.04971L10.9999 9.99971L3.00991 2.89971L2.65991 2.55971V2.54971C2.85991 2.28971 3.21991 2.15971 3.69991 2.22971L16.6599 3.95971C16.7499 3.96971 16.8499 3.99971 16.9499 4.04971Z" />
<path opacity="0.4" d="M10.9999 9.99957L9.99991 20.9996L9.98991 21.0996C9.73991 21.0096 9.50991 20.7696 9.35991 20.3896L2.63991 3.58957C2.46991 3.16957 2.48991 2.80957 2.65991 2.55957L3.00991 2.89957L10.9999 9.99957Z" />
</svg>
