<?xml version="1.0" encoding="UTF-8"?>
<svg width="24" height="24" viewBox="0 0 24 24" xmlns="http://www.w3.org/2000/svg">
 <path d="m10.23 21.881c-0.07 0-0.1399 0-0.2099-0.02-0.59004-0.08-1.0901-0.52-1.3601-1.2l-6.72-16.8c-0.27-0.67-0.20998-1.32 0.15002-1.79 0.37-0.47 0.97995-0.69 1.7-0.59l12.97 1.73c0.35 0.05 0.76 0.25 1.01 0.5l3.13 3.13c0.61 0.62 0.6799 1.63 0.1399 2.32l-9.38 11.94c-0.4 0.51-0.91 0.78-1.43 0.78zm-6.7699-18.92c-0.12 0-0.18001 0.03-0.19001 0.04 0 0.01-0.02 0.12 0.06 0.31l6.7199 16.8c0.08 0.2 0.17 0.27 0.18 0.27s0.11-0.04 0.24-0.21l9.38-11.94c0.07-0.08 0.0601-0.26-0.0199-0.33l-3.13-3.13c-0.02-0.02-0.1101-0.06-0.1501-0.07l-12.95-1.73c-0.05-0.01-0.09995-0.01-0.13995-0.01z"/>
 <path d="m9.9998 21.751h-0.07001c-0.41-0.04-0.71999-0.4-0.67999-0.81l0.96995-10.62-7.7099-6.85c-0.31-0.28-0.34-0.75-0.06-1.06s0.75-0.34 1.06-0.06l7.9899 7.1c0.18 0.16 0.27 0.39 0.25 0.62996l-1 11c-0.04 0.38-0.37 0.67-0.74995 0.67z"/>
 <path d="m11 10.75c-0.27 0-0.5299-0.15-0.6599-0.4-0.16-0.29-0.1001-0.65005 0.1299-0.88005l6-6c0.29-0.29 0.7701-0.29 1.0601 0s0.29 0.77 0 1.06l-4.25 4.25 6.6099-1.32c0.41-0.08 0.8001 0.18 0.8801 0.59s-0.1801 0.8-0.5901 0.88l-9.04 1.81c-0.04 0.01-0.09 0.01-0.14 0.01z"/>
</svg>
