<?xml version="1.0" encoding="UTF-8"?>
<svg width="24" height="24" viewBox="0 0 24 24" xmlns="http://www.w3.org/2000/svg">
 <path d="m13 14.75h-11c-0.41 0-0.75-0.34-0.75-0.75v-8c0-2.62 2.13-4.75 4.75-4.75h9c0.41 0 0.75 0.34 0.75 0.75v10c0 1.52-1.23 2.75-2.75 2.75zm-10.25-1.5h10.25c0.69 0 1.25-0.56 1.25-1.25v-9.25h-8.25c-1.79 0-3.25 1.46-3.25 3.25v7.25z"/>
 <path d="m19 20.75h-1c-0.41 0-0.75-0.34-0.75-0.75 0-0.69-0.56-1.25-1.25-1.25s-1.25 0.56-1.25 1.25c0 0.41-0.34 0.75-0.75 0.75h-4c-0.41 0-0.75-0.34-0.75-0.75 0-0.69-0.56-1.25-1.25-1.25s-1.25 0.56-1.25 1.25c0 0.41-0.34 0.75-0.75 0.75h-1c-2.07 0-3.75-1.68-3.75-3.75v-3c0-0.41 0.34-0.75 0.75-0.75h11c0.69 0 1.25-0.56 1.25-1.25v-7c0-0.41 0.34-0.75 0.75-0.75h1.84c0.99 0 1.9 0.53001 2.39 1.39l1.71 2.99c0.13 0.23 0.13 0.52 0 0.75s-0.38 0.37-0.65 0.37h-1.29c-0.14 0-0.25 0.11-0.25 0.25v3c0 0.14 0.11 0.25 0.25 0.25h3c0.41 0 0.75 0.34 0.75 0.75v3c0 2.07-1.68 3.75-3.75 3.75zm-0.35-1.5h0.35c1.24 0 2.25-1.01 2.25-2.25v-2.25h-2.25c-0.96 0-1.75-0.79-1.75-1.75v-3c0-0.96 0.78-1.75 1.75-1.75l-1.07-1.87c-0.22-0.39-0.64-0.63-1.09-0.63h-1.09v6.25c0 1.52-1.23 2.75-2.75 2.75h-10.25v2.25c0 1.24 1.01 2.25 2.25 2.25h0.35001c0.33-1.15 1.39-2 2.65-2s2.32 0.85 2.65 2h2.71c0.33-1.15 1.39-2 2.65-2s2.31 0.85 2.64 2z"/>
 <path d="m8 22.75c-1.52 0-2.75-1.23-2.75-2.75s1.23-2.75 2.75-2.75 2.75 1.23 2.75 2.75-1.23 2.75-2.75 2.75zm0-4c-0.69 0-1.25 0.56-1.25 1.25s0.56 1.25 1.25 1.25 1.25-0.56 1.25-1.25-0.56-1.25-1.25-1.25z"/>
 <path d="m16 22.75c-1.52 0-2.75-1.23-2.75-2.75s1.23-2.75 2.75-2.75 2.75 1.23 2.75 2.75-1.23 2.75-2.75 2.75zm0-4c-0.69 0-1.25 0.56-1.25 1.25s0.56 1.25 1.25 1.25 1.25-0.56 1.25-1.25-0.56-1.25-1.25-1.25z"/>
 <path d="m22 14.75h-3c-0.96 0-1.75-0.79-1.75-1.75v-3c0-0.96 0.79-1.75 1.75-1.75h1.29c0.27 0 0.52 0.14 0.65 0.38l1.71 3c0.06 0.11 0.1 0.24 0.1 0.37v2c0 0.41-0.34 0.75-0.75 0.75zm-3-5c-0.14 0-0.25 0.11-0.25 0.25v3c0 0.14 0.11 0.25 0.25 0.25h2.25v-1.05l-1.4-2.45h-0.85z"/>
</svg>
