<?xml version="1.0" encoding="UTF-8"?>
<svg width="24" height="24" viewBox="0 0 24 24" xmlns="http://www.w3.org/2000/svg">
 <path d="m13 14.75h-11c-0.41 0-0.75-0.34-0.75-0.75v-6.38c0-0.32001 0.19999-0.60003 0.48999-0.71003 0.3-0.11 0.63002-0.01996 0.83002 0.22003 0.61 0.73 1.56 1.14 2.5 1.11 0.8-0.02 1.54-0.31998 2.1-0.84998 0.26-0.22 0.47001-0.48001 0.63001-0.77001 0.31-0.53 0.46001-1.11 0.45001-1.7-0.02-0.92-0.41998-1.76-1.1-2.37-0.24-0.21-0.32002-0.54002-0.21002-0.83002s0.39001-0.48999 0.70001-0.48999h7.36c0.41 0 0.75 0.34 0.75 0.75v10c0 1.54-1.23 2.77-2.75 2.77zm-10.25-1.5h10.25c0.69 0 1.25-0.56 1.25-1.25v-9.25h-5.06c0.35 0.65 0.54 1.38 0.56 2.14 0.02 0.87-0.20002 1.73-0.64001 2.48-0.24 0.42999-0.57 0.84001-0.93 1.14-0.8 0.76-1.9 1.21-3.07 1.24-0.84 0.03-1.65-0.18-2.35-0.56v4.06h-0.01001z"/>
 <path d="m19 20.75h-1c-0.41 0-0.75-0.34-0.75-0.75 0-0.69-0.56-1.25-1.25-1.25s-1.25 0.56-1.25 1.25c0 0.41-0.34 0.75-0.75 0.75h-4c-0.41 0-0.75-0.34-0.75-0.75 0-0.69-0.56-1.25-1.25-1.25s-1.25 0.56-1.25 1.25c0 0.41-0.34 0.75-0.75 0.75h-1c-2.07 0-3.75-1.68-3.75-3.75v-3c0-0.41 0.34-0.75 0.75-0.75h11c0.69 0 1.25-0.56 1.25-1.25v-7c0-0.41 0.34-0.75 0.75-0.75h1.84c0.99 0 1.9 0.53001 2.39 1.39l1.71 2.99c0.13 0.23 0.13 0.52 0 0.75s-0.38 0.37-0.65 0.37h-1.29c-0.14 0-0.25 0.11-0.25 0.25v3c0 0.14 0.11 0.25 0.25 0.25h3c0.41 0 0.75 0.34 0.75 0.75v3c0 2.07-1.68 3.75-3.75 3.75zm-0.35-1.5h0.35c1.24 0 2.25-1.01 2.25-2.25v-2.25h-2.25c-0.96 0-1.75-0.79-1.75-1.75v-3c0-0.96 0.78-1.75 1.75-1.75l-1.07-1.87c-0.22-0.39-0.64-0.63-1.09-0.63h-1.09v6.25c0 1.52-1.23 2.75-2.75 2.75h-10.25v2.25c0 1.24 1.01 2.25 2.25 2.25h0.34998c0.33-1.15 1.39-2 2.65-2s2.32 0.85 2.65 2h2.71c0.33-1.15 1.39-2 2.65-2s2.31 0.85 2.64 2z"/>
 <path d="m8 22.75c-1.52 0-2.75-1.23-2.75-2.75s1.23-2.75 2.75-2.75 2.75 1.23 2.75 2.75-1.23 2.75-2.75 2.75zm0-4c-0.69 0-1.25 0.56-1.25 1.25s0.56 1.25 1.25 1.25 1.25-0.56 1.25-1.25-0.56-1.25-1.25-1.25z"/>
 <path d="m16 22.75c-1.52 0-2.75-1.23-2.75-2.75s1.23-2.75 2.75-2.75 2.75 1.23 2.75 2.75-1.23 2.75-2.75 2.75zm0-4c-0.69 0-1.25 0.56-1.25 1.25s0.56 1.25 1.25 1.25 1.25-0.56 1.25-1.25-0.56-1.25-1.25-1.25z"/>
 <path d="m22 14.75h-3c-0.96 0-1.75-0.79-1.75-1.75v-3c0-0.96 0.79-1.75 1.75-1.75h1.29c0.27 0 0.52 0.14 0.65 0.38l1.71 3c0.06 0.11 0.1 0.24 0.1 0.37v2c0 0.41-0.34 0.75-0.75 0.75zm-3-5c-0.14 0-0.25 0.11-0.25 0.25v3c0 0.14 0.11 0.25 0.25 0.25h2.25v-1.05l-1.4-2.45h-0.85z"/>
 <path d="m4.9901 9.75c-1.38 0-2.68-0.60002-3.56-1.65-0.14-0.15-0.28999-0.36-0.41999-0.56-0.47-0.71-0.73-1.55-0.75-2.43-0.04-1.46 0.58001-2.83 1.7-3.76 0.85-0.7 1.87-1.08 2.95-1.1 1.18 0.01 2.36 0.4 3.24 1.19 1 0.88 1.58 2.11 1.61 3.45 0.02 0.87-0.20001 1.73-0.64001 2.48-0.24 0.42999-0.56999 0.84001-0.92999 1.14-0.8 0.76-1.9 1.21-3.07 1.24h-0.13001zm0-8h-0.05999c-0.73 0.01-1.43 0.28001-2.02 0.76001-0.76 0.63-1.18 1.57-1.16 2.56 0.02 0.6 0.19001 1.17 0.51001 1.64 0.09 0.14 0.17998 0.26996 0.28998 0.38996 0.64 0.76 1.59 1.16 2.52 1.14 0.8-0.02 1.54-0.31998 2.1-0.84998 0.26-0.22 0.47-0.48001 0.63-0.77001 0.31-0.53 0.46001-1.11 0.45001-1.7-0.02-0.92-0.41997-1.76-1.1-2.37-0.6-0.51-1.36-0.79999-2.16-0.79999z"/>
 <path d="m4.4499 6.7497c-0.19 0-0.37002-0.07002-0.52002-0.21002l-1.01-0.95996c-0.3-0.29-0.30996-0.76-0.01996-1.06s0.76-0.31002 1.06-0.02002l0.48999 0.46997 1.57-1.52c0.3-0.29 0.77-0.28004 1.06 0.01996s0.27998 0.77006-0.02002 1.0601l-2.09 2.02c-0.15 0.13-0.33996 0.20001-0.51996 0.20001z"/>
</svg>
