<?xml version="1.0" encoding="UTF-8"?>
<svg width="24" height="24" viewBox="0 0 24 24" xmlns="http://www.w3.org/2000/svg">
 <path d="m15 22.75h-6c-5.43 0-7.75-2.32-7.75-7.75v-6c0-5.43 2.32-7.75 7.75-7.75h6c5.43 0 7.75 2.32 7.75 7.75v6c0 5.43-2.32 7.75-7.75 7.75zm-6-20c-4.61 0-6.25 1.64-6.25 6.25v6c0 4.61 1.64 6.25 6.25 6.25h6c4.61 0 6.25-1.64 6.25-6.25v-6c0-4.61-1.64-6.25-6.25-6.25h-6z"/>
 <path d="m17.9 9.8h-0.07c-3.46-0.34-6.9-0.48001-10.31-0.13001l-1.34 0.13001c-0.42 0.04-0.78-0.26-0.82-0.67s0.26-0.78001 0.67-0.82001l1.34-0.13c3.51-0.35 7.05-0.22 10.61 0.13 0.41 0.04 0.71 0.41001 0.67 0.82001-0.04 0.38-0.37 0.67-0.75 0.67z"/>
 <path d="m14.29 9.14c-0.36 0-0.68-0.25999-0.74-0.61999l-0.14-0.85001c-0.02-0.14-0.06-0.36-0.1-0.41 0 0-0.1-0.06-0.46-0.06h-1.72c-0.37 0-0.47 0.06-0.47 0.06-0.02 0.04-0.06 0.26001-0.08 0.40001l-0.14 0.86c-0.07 0.41-0.46001 0.67999-0.86001 0.61999-0.41-0.07-0.68-0.46-0.62-0.86l0.14-0.86c0.11-0.64 0.29-1.71 2.03-1.71h1.72c1.75 0 1.93 1.12 2.03 1.72l0.14 0.85c0.07 0.41-0.21 0.8-0.61 0.86h-0.12z"/>
 <path d="m14.1 18.31h-4.21c-2.53 0-2.64-1.52-2.71-2.53l-0.42999-6.61c-0.03-0.41 0.28999-0.77001 0.69999-0.80001 0.42-0.03 0.77001 0.29002 0.80001 0.70002l0.42999 6.6c0.07 0.98 0.08001 1.13 1.21 1.13h4.21c1.13 0 1.14-0.15 1.21-1.13l0.43-6.6c0.03-0.41 0.37-0.73002 0.8-0.70002 0.41 0.03 0.73 0.38001 0.7 0.80001l-0.43 6.6c-0.07 1.02-0.17 2.54-2.71 2.54z"/>
</svg>
