<?xml version="1.0" encoding="UTF-8"?>
<svg width="24" height="24" viewBox="0 0 24 24" xmlns="http://www.w3.org/2000/svg">
 <path d="m9.5 22.75h-3c-0.41 0-0.75-0.34-0.75-0.75v-2.25h-3.25c-0.41 0-0.75-0.34-0.75-0.75v-14c0-0.15 0.04-0.29001 0.13-0.42001l2-3c0.14-0.21 0.37-0.32999 0.62-0.32999h17c0.41 0 0.75 0.34 0.75 0.75v12c0 0.2-0.08 0.39-0.22 0.53l-5 5c-0.14 0.14-0.33 0.22-0.53 0.22h-4.6l-1.78 2.67c-0.14001 0.2-0.37 0.33-0.62 0.33zm-2.25-1.5h1.85l1.78-2.67c0.14-0.21 0.37-0.33 0.62-0.33h4.69l4.56-4.56v-10.94h-15.85l-1.65 2.48v13.02h3.25c0.41 0 0.75 0.34 0.75 0.75v2.25z"/>
 <path d="m11 13.75h-2c-0.41 0-0.75-0.34-0.75-0.75v-6c0-0.41 0.34-0.75 0.75-0.75h2c0.41 0 0.75 0.34 0.75 0.75v6c0 0.41-0.34 0.75-0.75 0.75zm-1.25-1.5h0.5v-4.5h-0.5v4.5z"/>
 <path d="m16 13.75h-2c-0.41 0-0.75-0.34-0.75-0.75v-6c0-0.41 0.34-0.75 0.75-0.75h2c0.41 0 0.75 0.34 0.75 0.75v6c0 0.41-0.34 0.75-0.75 0.75zm-1.25-1.5h0.5v-4.5h-0.5v4.5z"/>
</svg>
