<?xml version="1.0" encoding="UTF-8"?>
<svg width="24" height="24" viewBox="0 0 24 24" xmlns="http://www.w3.org/2000/svg">
 <path d="m10.5 22.54c-0.4 0-0.79003-0.09-1.16-0.26l-6.5-3.06c-0.96-0.45-1.58-1.43-1.58-2.49v-7.46c0-1.06 0.62-2.04 1.58-2.49l6.5-3.06c0.74003-0.35 1.59-0.34 2.33 0l2.67 1.26c0.31 0.15 0.48 0.48 0.42 0.81-0.01 0.07-0.01 0.13999-0.01 0.20999 0 1.79 1.46 3.25 3.25 3.25 0.29 0 0.55-0.03001 0.8-0.10001 0.22-0.07 0.47-0.02 0.66 0.12s0.3 0.36001 0.3 0.60001v6.86c0 1.06-0.62 2.04-1.58 2.49l-6.5 3.06c-0.38 0.17-0.78 0.26-1.18 0.26zm0-17.58c-0.18 0-0.37 0.04-0.54002 0.12l-6.5 3.06c-0.44 0.21-0.72 0.63998-0.72 1.13v7.46c0 0.49 0.28 0.92 0.72 1.13l6.5 3.06c0.34002 0.15 0.73002 0.16 1.07 0l6.5-3.06c0.44-0.21 0.72-0.64 0.72-1.13v-5.99c-0.08 0-0.17 0.01-0.25 0.01-2.58 0-4.68-2.06-4.75-4.62l-2.22-1.05c-0.17-0.08-0.35-0.12-0.53-0.12z"/>
 <path d="m9 16.25c-1.52 0-2.75-1.23-2.75-2.75v-3c0-0.41 0.34-0.75 0.75-0.75s0.75 0.34 0.75 0.75v3c0 0.69 0.56 1.25 1.25 1.25s1.25-0.56 1.25-1.25v-3c0-0.41 0.34-0.75 0.75-0.75s0.75 0.34 0.75 0.75v3c0 1.52-1.23 2.75-2.75 2.75z"/>
 <path d="m14 16.19c-0.41 0-0.75-0.34-0.75-0.75v-4.94c0-0.41 0.34-0.75 0.75-0.75s0.75 0.34 0.75 0.75v4.94c0 0.42-0.34 0.75-0.75 0.75z"/>
 <path d="m18 10.75c-2.62 0-4.75-2.13-4.75-4.75 0-0.15 0-0.32 0.03-0.47 0.2-2.41 2.23-4.28 4.72-4.28 2.62 0 4.75 2.13 4.75 4.75 0 2.17-1.47 4.06-3.56 4.6-0.37 0.1-0.76 0.15-1.19 0.15zm0-8c-1.7 0-3.09 1.28-3.23 2.97-0.02 0.14-0.02 0.21-0.02 0.28 0 1.79 1.46 3.25 3.25 3.25 0.29 0 0.55-0.03001 0.8-0.10001 1.45-0.37 2.45-1.66 2.45-3.15 0-1.79-1.46-3.25-3.25-3.25z"/>
 <path d="m19.09 5.9108c0.24-0.21 0.3701-0.49002 0.3701-0.83002 0-0.77-0.58-1.28-1.46-1.28s-1.4601 0.52-1.4601 1.28c0 0.33 0.1301 0.62002 0.3701 0.83002-0.32 0.24-0.5 0.59001-0.5 0.98001 0 0.81 0.6099 1.31 1.5999 1.31s1.6001-0.5 1.6001-1.31c-0.01-0.4-0.1901-0.75001-0.5201-0.98001zm-1.0899-0.4c-0.27 0-0.44-0.15-0.44-0.38 0-0.28 0.23-0.37 0.44-0.37s0.44 0.1 0.44 0.37c0 0.23-0.17 0.38-0.44 0.38zm0 0.82999c0.28 0 0.58 0.12001 0.58 0.45001 0 0.29-0.22 0.45999-0.58 0.45999s-0.58-0.16999-0.58-0.45999c0-0.41 0.44-0.45001 0.58-0.45001z"/>
</svg>
