<svg width="24" height="24" viewBox="0 0 24 24"  xmlns="http://www.w3.org/2000/svg">
<path d="M10.4998 22.54C10.0998 22.54 9.70977 22.45 9.33977 22.28L2.83977 19.22C1.87977 18.77 1.25977 17.79 1.25977 16.73V9.26999C1.25977 8.20999 1.87977 7.23 2.83977 6.78L9.33977 3.72001C10.0798 3.37001 10.9298 3.38001 11.6698 3.72001L14.3398 4.98002C14.6498 5.13002 14.8198 5.46001 14.7598 5.79001C14.7498 5.86001 14.7498 5.93 14.7498 6C14.7498 7.79 16.2098 9.25001 17.9998 9.25001C18.2898 9.25001 18.5498 9.22 18.7998 9.15C19.0198 9.08 19.2698 9.12999 19.4598 9.26999C19.6498 9.40999 19.7598 9.63 19.7598 9.87V16.73C19.7598 17.79 19.1398 18.77 18.1798 19.22L11.6798 22.28C11.2998 22.45 10.8998 22.54 10.4998 22.54ZM10.4998 4.96C10.3198 4.96 10.1298 4.99999 9.95978 5.07999L3.45978 8.14002C3.01978 8.35002 2.73978 8.77999 2.73978 9.26999V16.73C2.73978 17.22 3.01978 17.65 3.45978 17.86L9.95978 20.92C10.2998 21.07 10.6898 21.08 11.0298 20.92L17.5298 17.86C17.9698 17.65 18.2498 17.22 18.2498 16.73V10.74C18.1698 10.74 18.0798 10.75 17.9998 10.75C15.4198 10.75 13.3198 8.69001 13.2498 6.13001L11.0298 5.07999C10.8598 4.99999 10.6798 4.96 10.4998 4.96Z" />
<path d="M8.99977 16.25C7.47977 16.25 6.24977 15.02 6.24977 13.5V10.5C6.24977 10.09 6.58977 9.75 6.99977 9.75C7.40977 9.75 7.74977 10.09 7.74977 10.5V13.5C7.74977 14.19 8.30977 14.75 8.99977 14.75C9.68977 14.75 10.2498 14.19 10.2498 13.5V10.5C10.2498 10.09 10.5898 9.75 10.9998 9.75C11.4098 9.75 11.7498 10.09 11.7498 10.5V13.5C11.7498 15.02 10.5198 16.25 8.99977 16.25Z" />
<path d="M13.9998 16.19C13.5898 16.19 13.2498 15.85 13.2498 15.44V10.5C13.2498 10.09 13.5898 9.75 13.9998 9.75C14.4098 9.75 14.7498 10.09 14.7498 10.5V15.44C14.7498 15.86 14.4098 16.19 13.9998 16.19Z" />
<path d="M17.9998 10.75C15.3798 10.75 13.2498 8.62 13.2498 6C13.2498 5.85 13.2498 5.68 13.2798 5.53C13.4798 3.12 15.5098 1.25 17.9998 1.25C20.6198 1.25 22.7498 3.38 22.7498 6C22.7498 8.17 21.2798 10.06 19.1898 10.6C18.8198 10.7 18.4298 10.75 17.9998 10.75ZM17.9998 2.75C16.2998 2.75 14.9098 4.03 14.7698 5.72C14.7498 5.86 14.7498 5.93 14.7498 6C14.7498 7.79 16.2098 9.25001 17.9998 9.25001C18.2898 9.25001 18.5498 9.22 18.7998 9.15C20.2498 8.78 21.2498 7.49 21.2498 6C21.2498 4.21 19.7898 2.75 17.9998 2.75Z" />
<path d="M19.0898 5.91C19.3298 5.7 19.4598 5.41999 19.4598 5.07999C19.4598 4.30999 18.8798 3.79999 17.9998 3.79999C17.1198 3.79999 16.5398 4.31999 16.5398 5.07999C16.5398 5.40999 16.6698 5.7 16.9098 5.91C16.5898 6.15 16.4098 6.50001 16.4098 6.89001C16.4098 7.70001 17.0198 8.20001 18.0098 8.20001C18.9998 8.20001 19.6098 7.70001 19.6098 6.89001C19.5998 6.49001 19.4198 6.14 19.0898 5.91ZM17.9998 5.51001C17.7298 5.51001 17.5598 5.36 17.5598 5.13C17.5598 4.85 17.7898 4.76001 17.9998 4.76001C18.2098 4.76001 18.4398 4.86 18.4398 5.13C18.4398 5.36 18.2698 5.51001 17.9998 5.51001ZM17.9998 6.34C18.2798 6.34 18.5798 6.46001 18.5798 6.79001C18.5798 7.08001 18.3598 7.25 17.9998 7.25C17.6398 7.25 17.4198 7.08001 17.4198 6.79001C17.4198 6.38001 17.8598 6.34 17.9998 6.34Z" />
</svg>
