<?xml version="1.0" encoding="UTF-8"?>
<svg width="24" height="24" viewBox="0 0 24 24" xmlns="http://www.w3.org/2000/svg">
 <path d="m17.45 17.3c-1.68 0-3.2301-0.79-4.2401-2.18-0.24-0.33-0.17-0.8 0.16-1.05s0.8001-0.17 1.0501 0.16c0.73 0.99 1.83 1.56 3.03 1.56 2.09 0 3.7999-1.7 3.7999-3.8 0-2.1-1.6999-3.8-3.7999-3.8-1.42 0-2.7601 0.75997-3.4901 1.97l-2.65 4.41c-1 1.67-2.83 2.7001-4.77 2.7001-2.92 0-5.3-2.3801-5.3-5.3001 0-2.92 2.38-5.3 5.3-5.3 1.68 0 3.23 0.78999 4.24 2.18 0.24 0.33 0.17 0.80005-0.16 1.05-0.34 0.24004-0.79995 0.16994-1.05-0.16003-0.73-0.99-1.83-1.56-3.03-1.56-2.09 0-3.8 1.7-3.8 3.8 0 2.1 1.7 3.8001 3.8 3.8001 1.42 0 2.76-0.7601 3.49-1.9701l2.65-4.4099c1-1.67 2.8301-2.7 4.7701-2.7 2.92 0 5.2999 2.38 5.2999 5.3 0 2.92-2.3799 5.3-5.2999 5.3z"/>
</svg>
