<?xml version="1.0" encoding="UTF-8"?>
<svg width="24" height="24" viewBox="0 0 24 24" xmlns="http://www.w3.org/2000/svg">
 <path d="m17 22.75h-10c-4.41 0-5.75-1.34-5.75-5.75v-2c0-4.41 1.34-5.75 5.75-5.75h10c4.41 0 5.75 1.34 5.75 5.75v2c0 4.41-1.34 5.75-5.75 5.75zm-10-12c-3.58 0-4.25 0.68-4.25 4.25v2c0 3.57 0.67 4.25 4.25 4.25h10c3.58 0 4.25-0.68 4.25-4.25v-2c0-3.57-0.67-4.25-4.25-4.25h-10z"/>
 <path d="m6 10.75c-0.41 0-0.75-0.34-0.75-0.75v-2c0-2.9 0.7-6.75 6.75-6.75 4.48 0 6.75 1.93 6.75 5.75 0 0.41-0.34 0.75-0.75 0.75s-0.75-0.34-0.75-0.75c0-1.98-0.6-4.25-5.25-4.25-4.36 0-5.25 2.1-5.25 5.25v2c0 0.41-0.34 0.75-0.75 0.75z"/>
 <path d="m12 19.25c-1.79 0-3.25-1.46-3.25-3.25s1.46-3.25 3.25-3.25 3.25 1.46 3.25 3.25-1.46 3.25-3.25 3.25zm0-5c-0.96 0-1.75 0.79-1.75 1.75s0.79 1.75 1.75 1.75 1.75-0.79 1.75-1.75-0.79-1.75-1.75-1.75z"/>
</svg>
