<svg width="24" height="24" viewBox="0 0 24 24"  xmlns="http://www.w3.org/2000/svg">
<path opacity="0.4" d="M12 22C17.5228 22 22 17.5228 22 12C22 6.47715 17.5228 2 12 2C6.47715 2 2 6.47715 2 12C2 17.5228 6.47715 22 12 22Z" />
<path d="M16.9501 17.7002C16.7601 17.7002 16.5701 17.6302 16.4201 17.4802C16.1301 17.1902 16.1301 16.7102 16.4201 16.4202C17.6001 15.2402 18.2501 13.6702 18.2501 12.0002C18.2501 10.3302 17.6001 8.76023 16.4201 7.58023C16.1301 7.29023 16.1301 6.81023 16.4201 6.52023C16.7101 6.23023 17.1901 6.23023 17.4801 6.52023C18.9401 7.98023 19.7501 9.93023 19.7501 12.0002C19.7501 14.0702 18.9401 16.0202 17.4801 17.4802C17.3301 17.6302 17.1401 17.7002 16.9501 17.7002Z" />
<path d="M7.04999 17.7002C6.85999 17.7002 6.66999 17.6302 6.51999 17.4802C5.05999 16.0202 4.25 14.0702 4.25 12.0002C4.25 9.93023 5.05999 7.98023 6.51999 6.52023C6.80999 6.23023 7.28999 6.23023 7.57999 6.52023C7.86999 6.81023 7.86999 7.29023 7.57999 7.58023C6.39999 8.76023 5.75 10.3302 5.75 12.0002C5.75 13.6702 6.39999 15.2402 7.57999 16.4202C7.86999 16.7102 7.86999 17.1902 7.57999 17.4802C7.42999 17.6302 7.23999 17.7002 7.04999 17.7002Z" />
<path d="M13.6499 11.7798L12.7499 11.4598V9.4798H12.7799C13.2199 9.4798 13.5899 9.8798 13.5899 10.3598C13.5899 10.7698 13.9299 11.1098 14.3399 11.1098C14.7499 11.1098 15.0899 10.7698 15.0899 10.3598C15.0899 9.0498 14.0599 7.9798 12.7799 7.9798H12.7499V7.7998C12.7499 7.3898 12.4099 7.0498 11.9999 7.0498C11.5899 7.0498 11.2499 7.3898 11.2499 7.7998V7.9798H11.0199C9.8599 7.9798 8.90991 8.9598 8.90991 10.1498C8.90991 11.1998 9.3799 11.8698 10.3399 12.2098L11.2399 12.5298V14.5098H11.2099C10.7699 14.5098 10.3999 14.1098 10.3999 13.6298C10.3999 13.2198 10.0599 12.8798 9.6499 12.8798C9.2399 12.8798 8.8999 13.2198 8.8999 13.6298C8.8999 14.9398 9.9299 16.0098 11.2099 16.0098H11.2399V16.1898C11.2399 16.5998 11.5799 16.9398 11.9899 16.9398C12.3999 16.9398 12.7399 16.5998 12.7399 16.1898V16.0098H12.9699C14.1299 16.0098 15.0799 15.0298 15.0799 13.8398C15.0799 12.7898 14.6199 12.1198 13.6499 11.7798ZM10.8399 10.7998C10.5199 10.6898 10.4099 10.6298 10.4099 10.1598C10.4099 9.7898 10.6799 9.4898 11.0199 9.4898H11.2499V10.9498L10.8399 10.7998ZM12.9799 14.5198H12.7499V13.0598L13.1599 13.1998C13.4799 13.3098 13.5899 13.3698 13.5899 13.8398C13.5799 14.2098 13.3099 14.5198 12.9799 14.5198Z" />
</svg>
