<?xml version="1.0" encoding="UTF-8"?>
<svg width="24" height="24" viewBox="0 0 24 24" xmlns="http://www.w3.org/2000/svg">
 <path d="m16.95 17.7c-0.19 0-0.38-0.07-0.53-0.22-0.29-0.29-0.29-0.77 0-1.06 1.18-1.18 1.83-2.75 1.83-4.42s-0.65-3.24-1.83-4.42c-0.29-0.29-0.29-0.77001 0-1.06s0.77-0.29 1.06 0c1.46 1.46 2.27 3.41 2.27 5.48 0 2.07-0.81 4.02-2.27 5.48-0.15 0.15-0.34 0.22-0.53 0.22z"/>
 <path d="m7.05 17.7c-0.19 0-0.38-0.07-0.53-0.22-1.46-1.46-2.27-3.41-2.27-5.48 0-2.07 0.80999-4.02 2.27-5.48 0.29-0.29 0.77-0.29 1.06 0s0.29 0.77001 0 1.06c-1.18 1.18-1.83 2.75-1.83 4.42s0.64999 3.24 1.83 4.42c0.29 0.29 0.29 0.77 0 1.06-0.15 0.15-0.34 0.22-0.53 0.22z"/>
 <path d="m12.98 16.02h-1.76c-1.27 0-2.31-1.07-2.31-2.38 0-0.41 0.34-0.75 0.75-0.75 0.41004 0 0.75004 0.34 0.75004 0.75 0 0.49 0.36 0.88 0.81 0.88h1.76c0.33 0 0.6099-0.3 0.6099-0.67 0-0.47-0.1099-0.53-0.4299-0.64l-2.81-0.98c-0.96004-0.34-1.43-1.01-1.43-2.06 0-1.2 0.93998-2.17 2.11-2.17h1.76c1.27 0 2.31 1.07 2.31 2.38 0 0.41-0.34 0.75-0.75 0.75s-0.75-0.34-0.75-0.75c0-0.49-0.36-0.88-0.81-0.88h-1.76c-0.33 0-0.61 0.3-0.61 0.67 0 0.47 0.11 0.53 0.43 0.64l2.81 0.98c0.96 0.34 1.4299 1.01 1.4299 2.06-0.01 1.19-0.9499 2.17-2.1099 2.17z"/>
 <path d="m12 16.951c-0.41 0-0.75-0.34-0.75-0.75v-8.4c0-0.41 0.34-0.75 0.75-0.75s0.75 0.34 0.75 0.75v8.4c0 0.41-0.34 0.75-0.75 0.75z"/>
 <path d="m12 22.75c-5.93 0-10.75-4.82-10.75-10.75s4.82-10.75 10.75-10.75 10.75 4.82 10.75 10.75-4.82 10.75-10.75 10.75zm0-20c-5.1 0-9.25 4.15-9.25 9.25s4.15 9.25 9.25 9.25 9.25-4.15 9.25-9.25-4.15-9.25-9.25-9.25z"/>
</svg>
