<?xml version="1.0" encoding="UTF-8"?>
<svg width="24" height="24" viewBox="0 0 24 24" xmlns="http://www.w3.org/2000/svg">
 <path d="m12 12.75c-3.17 0-5.75-2.58-5.75-5.75s2.58-5.75 5.75-5.75 5.75 2.58 5.75 5.75-2.58 5.75-5.75 5.75zm0-10c-2.34 0-4.25 1.91-4.25 4.25s1.91 4.25 4.25 4.25 4.25-1.91 4.25-4.25-1.91-4.25-4.25-4.25z"/>
 <path d="m3.4102 22.75c-0.41 0-0.75-0.34-0.75-0.75 0-4.27 4.19-7.75 9.34-7.75 0.41 0 0.75 0.34 0.75 0.75s-0.34 0.75-0.75 0.75c-4.32 0-7.84 2.8-7.84 6.25 0 0.41-0.34 0.75-0.75 0.75z"/>
 <path d="m18.2 22.15c-2.18 0-3.95-1.77-3.95-3.95s1.77-3.95 3.95-3.95 3.95 1.77 3.95 3.95-1.77 3.95-3.95 3.95zm0-6.4c-1.35 0-2.45 1.1-2.45 2.45s1.1 2.45 2.45 2.45 2.45-1.1 2.45-2.45-1.1-2.45-2.45-2.45z"/>
 <path d="m22 22.75c-0.19 0-0.3801-0.07-0.5301-0.22l-1-1c-0.29-0.29-0.29-0.7701 0-1.0601s0.7701-0.29 1.0601 0l1 1c0.29 0.29 0.29 0.7701 0 1.0601-0.15 0.15-0.34 0.22-0.53 0.22z"/>
</svg>
