<?xml version="1.0" encoding="UTF-8"?>
<svg width="24" height="24" viewBox="0 0 24 24" xmlns="http://www.w3.org/2000/svg">
 <path d="m12 22.75c-0.7 0-1.41-0.27-1.94-0.8l-1.71-1.69c-0.42-0.42-0.99997-0.6501-1.59-0.6501h-0.76001c-2.07 0-3.75-1.6699-3.75-3.7199v-10.91c0-2.05 1.68-3.72 3.75-3.72h12c2.07 0 3.75 1.67 3.75 3.72v10.91c0 2.05-1.68 3.7199-3.75 3.7199h-0.76c-0.59 0-1.17 0.2401-1.59 0.6501l-1.71 1.69c-0.53 0.53-1.24 0.8-1.94 0.8zm-6-20c-1.24 0-2.25 0.99997-2.25 2.22v10.91c0 1.23 1.01 2.2199 2.25 2.2199h0.76001c0.99 0 1.95 0.4001 2.65 1.0901l1.71 1.69c0.49 0.48 1.28 0.48 1.77 0l1.71-1.69c0.7-0.69 1.66-1.0901 2.65-1.0901h0.75c1.24 0 2.25-0.9999 2.25-2.2199v-10.91c0-1.23-1.01-2.22-2.25-2.22h-12z"/>
 <path d="m12 10.75c-1.7 0-3.08-1.38-3.08-3.08s1.38-3.08 3.08-3.08 3.0801 1.38 3.0801 3.08-1.3801 3.08-3.0801 3.08zm0-4.66c-0.87 0-1.58 0.70996-1.58 1.58s0.71 1.58 1.58 1.58 1.5801-0.71002 1.5801-1.58-0.7101-1.58-1.5801-1.58z"/>
 <path d="m16 16.41c-0.41 0-0.75-0.34-0.75-0.75 0-1.38-1.46-2.5099-3.25-2.5099s-3.25 1.1299-3.25 2.5099c0 0.41-0.34 0.75-0.75 0.75s-0.75-0.34-0.75-0.75c0-2.21 2.13-4.0099 4.75-4.0099s4.75 1.7999 4.75 4.0099c0 0.41-0.34 0.75-0.75 0.75z"/>
</svg>
