<?xml version="1.0" encoding="UTF-8"?>
<svg width="24" height="24" viewBox="0 0 24 24" xmlns="http://www.w3.org/2000/svg">
 <path d="m12 22.75c-0.67 0-1.35-0.17-1.95-0.52l-5.94-3.43c-1.2-0.7-1.95-1.99-1.95-3.38v-6.84c0-1.39 0.75-2.68 1.95-3.38l5.94-3.43c1.2-0.7 2.69-0.7 3.9 0l5.94 3.43c1.2 0.7 1.95 1.99 1.95 3.38v6.84c0 1.39-0.75 2.68-1.95 3.38l-5.94 3.43c-0.6 0.35-1.28 0.52-1.95 0.52zm0-20c-0.41 0-0.83 0.11-1.2 0.32l-5.94 3.43c-0.74 0.43-1.2 1.22-1.2 2.08v6.84c0 0.85 0.46 1.65 1.2 2.08l5.94 3.43c0.74 0.43 1.66 0.43 2.4 0l5.94-3.43c0.74-0.43 1.2-1.22 1.2-2.08v-6.84c0-0.85-0.46-1.65-1.2-2.08l-5.94-3.43c-0.37-0.21-0.79-0.32-1.2-0.32z"/>
 <path d="m12 11.75c-1.7 0-3.08-1.38-3.08-3.08s1.38-3.08 3.08-3.08 3.08 1.38 3.08 3.08-1.38 3.08-3.08 3.08zm0-4.66c-0.87 0-1.58 0.70996-1.58 1.58s0.71 1.58 1.58 1.58 1.58-0.71 1.58-1.58-0.71-1.58-1.58-1.58z"/>
 <path d="m16 17.41c-0.41 0-0.75-0.34-0.75-0.75 0-1.38-1.46-2.5099-3.25-2.5099s-3.25 1.1299-3.25 2.5099c0 0.41-0.34 0.75-0.75 0.75s-0.75-0.34-0.75-0.75c0-2.21 2.13-4.0099 4.75-4.0099s4.75 1.7999 4.75 4.0099c0 0.41-0.34 0.75-0.75 0.75z"/>
</svg>
