<?xml version="1.0" encoding="UTF-8"?>
<svg width="24" height="24" viewBox="0 0 24 24" xmlns="http://www.w3.org/2000/svg">
 <path d="m12 12.75c-3.17 0-5.75-2.58-5.75-5.75s2.58-5.75 5.75-5.75 5.75 2.58 5.75 5.75-2.58 5.75-5.75 5.75zm0-10c-2.34 0-4.25 1.91-4.25 4.25s1.91 4.25 4.25 4.25 4.25-1.91 4.25-4.25-1.91-4.25-4.25-4.25z"/>
 <path d="m3.4102 22.75c-0.41 0-0.75-0.34-0.75-0.75 0-4.27 4.19-7.75 9.34-7.75 1.01 0 1.9999 0.13 2.9599 0.4 0.4 0.11 0.6301 0.52 0.5201 0.92s-0.5201 0.63-0.92 0.52c-0.82-0.23-1.68-0.34-2.56-0.34-4.32 0-7.84 2.8-7.84 6.25 0 0.41-0.34 0.75-0.75 0.75z"/>
 <path d="m18 22.75c-1.18 0-2.3-0.44-3.17-1.23-0.35-0.3-0.66-0.67-0.9-1.08-0.44-0.72-0.68-1.57-0.68-2.44 0-1.25 0.48-2.42 1.34-3.31 0.9-0.93 2.11-1.44 3.41-1.44 1.36 0 2.65 0.58 3.53 1.58 0.78 0.87 1.22 1.99 1.22 3.17 0 0.38-0.05 0.76-0.15 1.12-0.1 0.45-0.29 0.92-0.55 1.33-0.83 1.42-2.39 2.3-4.05 2.3zm0-8c-0.89 0-1.71 0.35-2.33 0.98-0.59 0.61-0.92 1.41-0.92 2.27 0 0.59 0.16 1.17 0.47 1.67 0.16 0.28 0.37 0.53 0.61 0.74 0.6 0.55 1.37 0.85 2.17 0.85 1.13 0 2.2-0.6 2.78-1.57 0.17-0.28 0.3-0.6 0.37-0.91 0.07-0.26 0.1-0.51 0.1-0.77 0-0.8-0.3-1.57-0.84-2.17-0.6-0.7-1.48-1.09-2.41-1.09z"/>
 <path d="m19.5 18.73h-2.99c-0.41 0-0.75-0.34-0.75-0.75s0.34-0.75 0.75-0.75h2.99c0.41 0 0.75 0.34 0.75 0.75s-0.34 0.75-0.75 0.75z"/>
 <path d="m18 20.26c-0.41 0-0.75-0.34-0.75-0.75v-2.99c0-0.41 0.34-0.75 0.75-0.75s0.75 0.34 0.75 0.75v2.99c0 0.42-0.34 0.75-0.75 0.75z"/>
</svg>
