<?xml version="1.0" encoding="UTF-8"?>
<svg width="24" height="24" viewBox="0 0 24 24" xmlns="http://www.w3.org/2000/svg">
 <path d="m12 12.75c-3.17 0-5.75-2.58-5.75-5.75s2.58-5.75 5.75-5.75 5.75 2.58 5.75 5.75-2.58 5.75-5.75 5.75zm0-10c-2.34 0-4.25 1.91-4.25 4.25s1.91 4.25 4.25 4.25 4.25-1.91 4.25-4.25-1.91-4.25-4.25-4.25z"/>
 <path d="m15.82 22.75c-0.38 0-0.74-0.14-1-0.4-0.31-0.31-0.45-0.76-0.38-1.23l0.19-1.35c0.05-0.35 0.26-0.76 0.51-1.02l3.5399-3.54c1.42-1.42 2.6701-0.61 3.2801 0 0.52 0.52 0.79 1.08 0.79 1.64 0 0.57-0.26 1.1-0.79 1.63l-3.5401 3.54c-0.25 0.25-0.6699 0.46-1.0199 0.51l-1.3501 0.1899c-0.08 0.02-0.1499 0.0301-0.2299 0.0301zm4.4899-6.83c-0.18 0-0.34 0.12-0.57 0.35l-3.5399 3.54c-0.03 0.03-0.0801 0.13-0.0801 0.17l-0.1799 1.25 1.25-0.18c0.04-0.01 0.1399-0.06 0.1699-0.09l3.5401-3.54c0.16-0.16 0.35-0.39 0.35-0.57 0-0.15-0.12-0.36-0.35-0.58-0.24-0.24-0.4201-0.35-0.5901-0.35z"/>
 <path d="m20.92 19.22c-0.07 0-0.14-0.0099-0.2-0.0299-1.32-0.37-2.37-1.42-2.74-2.74-0.11-0.4 0.12-0.81 0.52-0.92s0.81 0.12 0.92 0.52c0.23 0.82 0.88 1.47 1.7 1.7 0.4 0.11 0.63 0.53 0.52 0.92-0.09 0.33-0.39 0.5499-0.72 0.5499z"/>
 <path d="m3.4102 22.75c-0.41 0-0.75-0.34-0.75-0.75 0-4.27 4.19-7.75 9.34-7.75 1.09 0 2.17 0.16 3.18 0.46 0.4 0.12 0.62 0.54 0.5 0.93-0.12 0.4-0.54 0.62-0.93 0.5-0.88-0.26-1.8-0.4-2.75-0.4-4.32 0-7.84 2.8-7.84 6.25 0 0.42-0.34 0.76-0.75 0.76z"/>
</svg>
