<?xml version="1.0" encoding="UTF-8"?>
<svg width="24" height="24" viewBox="0 0 24 24" xmlns="http://www.w3.org/2000/svg">
 <path d="m15 22.75h-6c-1.32 0-2.42-0.13-3.35-0.41-0.34-0.1-0.56-0.43-0.54-0.78 0.25-2.99 3.28-5.3401 6.89-5.3401 3.61 0 6.63 2.3401 6.89 5.3401 0.03 0.36-0.19 0.68-0.54 0.78-0.93 0.28-2.03 0.41-3.35 0.41zm-8.28-1.69c0.66 0.13 1.41 0.19 2.28 0.19h6c0.87 0 1.62-0.06 2.28-0.19-0.53-1.92-2.72-3.3401-5.28-3.3401-2.56 0-4.75 1.4201-5.28 3.3401z"/>
 <path d="m15 2h-6c-5 0-7 2-7 7v6c0 3.78 1.14 5.85 3.86 6.62 0.22-2.6 2.89-4.65 6.14-4.65s5.92 2.05 6.14 4.65c2.72-0.77 3.86-2.84 3.86-6.62v-6c0-5-2-7-7-7zm-3 12.17c-1.98 0-3.58-1.61-3.58-3.59 0-1.98 1.6-3.58 3.58-3.58s3.58 1.6 3.58 3.58c0 1.98-1.6 3.59-3.58 3.59z" stroke="#fff" stroke-linecap="round" stroke-linejoin="round" stroke-width="1.5"/>
 <path d="m12 14.92c-2.39 0-4.33-1.95-4.33-4.34 0-2.39 1.94-4.33 4.33-4.33 2.39 0 4.33 1.94 4.33 4.33 0 2.39-1.94 4.34-4.33 4.34zm0-7.17c-1.56 0-2.83 1.27-2.83 2.83 0 1.57 1.27 2.84 2.83 2.84s2.83-1.27 2.83-2.84c0-1.56-1.27-2.83-2.83-2.83z"/>
</svg>
