<?xml version="1.0" encoding="UTF-8"?>
<svg width="24" height="24" viewBox="0 0 24 24" xmlns="http://www.w3.org/2000/svg">
 <path d="m11.46 14.48c-1.96 0-3.56-1.6-3.56-3.56 0-1.96 1.6-3.56 3.56-3.56s3.56 1.6 3.56 3.56c0 1.96-1.6 3.56-3.56 3.56zm0-5.61c-1.13 0-2.06 0.92-2.06 2.06 0 1.14 0.92 2.06 2.06 2.06s2.06-0.92 2.06-2.06c0-1.14-0.92-2.06-2.06-2.06z"/>
 <path d="m16.65 20.95c-0.41 0-0.75-0.34-0.75-0.75 0-1.92-1.99-3.4801-4.44-3.4801-2.45 0-4.44 1.5601-4.44 3.4801 0 0.41-0.34 0.75-0.75 0.75s-0.75-0.34-0.75-0.75c0-2.74 2.66-4.9801 5.94-4.9801 3.28 0 5.94 2.2301 5.94 4.9801 0 0.41-0.34 0.75-0.75 0.75z"/>
 <path d="m11.5 22.75c-5.65 0-10.25-4.6-10.25-10.25s4.6-10.25 10.25-10.25c1.39 0 2.73 0.26999 3.99 0.79999 0.36 0.15 0.54 0.54998 0.42 0.91998-0.11 0.33-0.16 0.68003-0.16 1.03 0 0.59 0.16 1.17 0.47 1.67 0.16 0.28 0.37 0.52999 0.61 0.73999 0.87 0.79 2.16 1.0401 3.17 0.68006 0.37-0.14 0.79 0.04998 0.94 0.41998 0.54 1.27 0.81 2.62 0.81 4 0 5.64-4.6 10.24-10.25 10.24zm0-19c-4.82 0-8.75 3.92-8.75 8.75s3.93 8.75 8.75 8.75 8.75-3.92 8.75-8.75c0-0.96-0.16-1.91-0.46-2.82-1.38 0.24-2.89-0.18997-3.95-1.16-0.35-0.3-0.66-0.67002-0.9-1.08-0.44-0.72-0.68-1.57-0.68-2.44 0-0.27 0.02-0.52998 0.07-0.78998-0.91-0.31-1.86-0.46002-2.83-0.46002z"/>
 <path d="m19 9.75c-1.18 0-2.3-0.43998-3.17-1.23-0.35-0.3-0.66-0.67002-0.9-1.08-0.44-0.72-0.68-1.57-0.68-2.44 0-0.51 0.08-1.01 0.24-1.49 0.22-0.68 0.6-1.31 1.11-1.82 0.9-0.92 2.11-1.44 3.41-1.44 1.36 0 2.65 0.58002 3.53 1.58 0.78 0.87 1.22 1.99 1.22 3.17 0 0.38-0.05 0.75999-0.15 1.12-0.1 0.44999-0.29 0.92001-0.55 1.33-0.58 0.98-1.5 1.71-2.58 2.05-0.45 0.17-0.95 0.25-1.48 0.25zm0-8c-0.89 0-1.72 0.34998-2.33 0.97998-0.35 0.36-0.6 0.76999-0.75 1.24-0.11 0.33-0.16 0.68003-0.16 1.03 0 0.59 0.16 1.17 0.47 1.67 0.16 0.28 0.37 0.52999 0.61 0.73999 0.87 0.79 2.16 1.0401 3.17 0.68006 0.76-0.24 1.38-0.74004 1.78-1.41 0.18-0.29 0.3-0.59997 0.37-0.90997 0.07-0.26 0.1-0.51002 0.1-0.77002 0-0.8-0.3-1.57-0.84-2.17-0.61-0.69-1.49-1.08-2.42-1.08z"/>
 <path d="m20.49 5.73h-2.99c-0.41 0-0.75-0.34-0.75-0.75s0.34-0.75 0.75-0.75h2.99c0.41 0 0.75 0.34 0.75 0.75s-0.33 0.75-0.75 0.75z"/>
 <path d="m19 7.26c-0.41 0-0.75-0.34-0.75-0.75v-2.99c0-0.41 0.34-0.75 0.75-0.75s0.75 0.34 0.75 0.75v2.99c0 0.42-0.34 0.75-0.75 0.75z"/>
</svg>
