<svg width="24" height="24" viewBox="0 0 24 24"  xmlns="http://www.w3.org/2000/svg">
<path d="M22 3.78027H2C1.59 3.78027 1.25 3.44027 1.25 3.03027C1.25 2.62027 1.59 2.28027 2 2.28027H22C22.41 2.28027 22.75 2.62027 22.75 3.03027C22.75 3.44027 22.41 3.78027 22 3.78027Z" />
<path d="M12 21.7203C11.36 21.7203 10.78 21.4003 10.43 20.8703L2.47 8.48028C2.1 7.91028 2.07999 7.18028 2.39999 6.58028C2.72999 5.98028 3.34999 5.61028 4.02999 5.61028H19.96C20.64 5.61028 21.27 5.98028 21.59 6.58028C21.92 7.18028 21.89 7.91028 21.52 8.48028L13.56 20.8703C13.22 21.4003 12.64 21.7203 12 21.7203ZM4.04 7.11028C3.85 7.11028 3.75 7.24028 3.72 7.30028C3.69 7.36028 3.63001 7.51027 3.73001 7.67027L11.69 20.0603C11.78 20.2003 11.92 20.2303 11.99 20.2303C12.06 20.2303 12.2 20.2103 12.29 20.0603L20.25 7.67027C20.35 7.51027 20.29 7.36028 20.26 7.30028C20.23 7.24028 20.14 7.11028 19.94 7.11028H4.04Z" />
</svg>
