<?xml version="1.0" encoding="UTF-8"?>
<svg width="24" height="24" viewBox="0 0 24 24" xmlns="http://www.w3.org/2000/svg">
 <path d="m22 3.7793h-20c-0.41 0-0.75-0.34-0.75-0.75s0.34-0.75 0.75-0.75h20c0.41 0 0.75 0.34 0.75 0.75s-0.34 0.75-0.75 0.75z"/>
 <path d="m12 21.719c-0.64 0-1.22-0.32-1.57-0.85l-7.96-12.39c-0.37-0.57-0.39001-1.3-0.07001-1.9 0.33-0.6 0.95001-0.97 1.63-0.97h15.93c0.68 0 1.31 0.37 1.63 0.97 0.33 0.6 0.3 1.33-0.07 1.9l-7.96 12.39c-0.34 0.53-0.92 0.85-1.56 0.85zm-7.9599-14.61c-0.19 0-0.29001 0.13-0.32001 0.19s-0.08999 0.20999 0.01001 0.36999l7.9599 12.39c0.09 0.14 0.23 0.17 0.3 0.17s0.2101-0.02 0.3001-0.17l7.9599-12.39c0.1-0.16 0.0401-0.30999 0.0101-0.36999s-0.12-0.19-0.3201-0.19h-15.9z"/>
</svg>
