<?xml version="1.0" encoding="UTF-8"?>
<svg width="24" height="24" viewBox="0 0 24 24" xmlns="http://www.w3.org/2000/svg">
 <path d="m10.79 15.17c-0.2 0-0.39-0.08-0.53-0.22l-2.42-2.42c-0.29-0.29-0.29-0.77 0-1.06s0.77-0.29 1.06 0l1.89 1.89 4.3-4.3c0.29-0.29 0.77-0.29 1.06 0s0.29 0.77 0 1.06l-4.83 4.83c-0.14 0.14-0.33 0.22-0.53 0.22z"/>
 <path d="m12 22.75c-0.63 0-1.26-0.21-1.75-0.63l-1.58-1.36c-0.16-0.14-0.56-0.28-0.77-0.28h-1.72c-1.48 0-2.68-1.2-2.68-2.68v-1.71c0-0.21-0.14-0.6-0.28-0.76l-1.35-1.59c-0.82-0.97-0.82-2.5 0-3.47l1.35-1.59c0.14-0.16 0.28-0.55 0.28-0.76v-1.72c0-1.48 1.2-2.68 2.68-2.68h1.73c0.21 0 0.61-0.15 0.77-0.28l1.58-1.36c0.98-0.84 2.51-0.84 3.49 0l1.58 1.36c0.16 0.14 0.56 0.28 0.77 0.28h1.7c1.48 0 2.68 1.2 2.68 2.68v1.7c0 0.21 0.15 0.61 0.29 0.77l1.36 1.58c0.84 0.98 0.84 2.51 0 3.49l-1.36 1.58c-0.14 0.16-0.29 0.56-0.29 0.77v1.7c0 1.48-1.2 2.68-2.68 2.68h-1.7c-0.21 0-0.61 0.15-0.77 0.28l-1.58 1.36c-0.49 0.43-1.12 0.64-1.75 0.64zm-5.82-17.73c-0.65 0-1.18 0.53-1.18 1.18v1.71c0 0.57-0.27 1.3-0.64 1.73l-1.35 1.59c-0.35 0.41-0.35 1.12 0 1.53l1.35 1.59c0.37 0.44 0.64 1.16 0.64 1.73v1.71c0 0.65 0.53 1.18 1.18 1.18h1.73c0.58 0 1.31 0.27 1.75 0.65l1.58 1.36c0.41 0.35 1.13 0.35 1.54 0l1.58-1.36c0.44-0.37 1.17-0.65 1.75-0.65h1.7c0.65 0 1.18-0.53 1.18-1.18v-1.7c0-0.58 0.27-1.31 0.65-1.75l1.36-1.58c0.35-0.41 0.35-1.13 0-1.54l-1.36-1.58c-0.38-0.44-0.65-1.17-0.65-1.75v-1.69c0-0.65-0.53-1.18-1.18-1.18h-1.7c-0.58 0-1.31-0.27-1.75-0.65l-1.58-1.36c-0.41-0.35-1.13-0.35-1.54 0l-1.58 1.37c-0.44 0.37-1.18 0.64-1.75 0.64h-1.73z"/>
</svg>
