<?xml version="1.0" encoding="UTF-8"?>
<svg width="24" height="24" viewBox="0 0 24 24" xmlns="http://www.w3.org/2000/svg">
 <path d="m12 12.6c-0.24 0-0.46-0.11-0.6-0.3l-2.5-3.33c-0.17-0.23-0.20001-0.53001-0.07001-0.79001s0.38999-0.40999 0.66999-0.40999h5c0.28 0 0.54 0.15999 0.67 0.40999s0.1 0.56001-0.07 0.79001l-2.5 3.33c-0.14 0.19-0.36 0.3-0.6 0.3zm-1-3.33 1 1.33 1-1.33h-2z"/>
 <path d="m12 22.75c-5.93 0-10.75-4.82-10.75-10.75s4.82-10.75 10.75-10.75 10.75 4.82 10.75 10.75-4.82 10.75-10.75 10.75zm0-20c-5.1 0-9.25 4.15-9.25 9.25s4.15 9.25 9.25 9.25 9.25-4.15 9.25-9.25-4.15-9.25-9.25-9.25z"/>
 <path d="m12 17.75c-0.24 0-0.47-0.12-0.61-0.31l-5-7c-0.24-0.34-0.16002-0.80996 0.16998-1.05 0.34-0.24 0.80999-0.16 1.05 0.17l4.39 6.15 4.39-6.15c0.24-0.34 0.71-0.42 1.05-0.17 0.34 0.24 0.42 0.70996 0.17 1.05l-5 7c-0.14 0.19-0.37 0.31-0.61 0.31z"/>
</svg>
