<?xml version="1.0" encoding="UTF-8"?>
<svg width="24" height="24" viewBox="0 0 24 24" xmlns="http://www.w3.org/2000/svg">
 <path d="m15 22.75h-6c-5.43 0-7.75-2.32-7.75-7.75v-6c0-5.43 2.32-7.75 7.75-7.75h6c5.43 0 7.75 2.32 7.75 7.75v6c0 0.24 0 0.49-0.02 0.72-0.03 0.3-0.24 0.56-0.53 0.65s-0.61-0.01-0.8-0.25c-0.71-0.87-1.76-1.37-2.9-1.37-0.85 0-1.68 0.29-2.34 0.82-0.9 0.71-1.41 1.77-1.41 2.93 0 1.13 0.5 2.19 1.37 2.9 0.24 0.19 0.33 0.51 0.25 0.8-0.09 0.29-0.34 0.5-0.65 0.53-0.23 0.02-0.48 0.02-0.72 0.02zm-6-20c-4.61 0-6.25 1.64-6.25 6.25v6c0 4.61 1.64 6.25 6.25 6.25h5.02c-0.5-0.81-0.77-1.76-0.77-2.75 0-1.62 0.72-3.11 1.98-4.1 1.68-1.36 4.23-1.48 6.02-0.38v-5.02c0-4.61-1.64-6.25-6.25-6.25h-6z"/>
 <path d="m21.48 7.8599h-18.96c-0.41 0-0.75-0.34-0.75-0.75s0.34-0.75 0.75-0.75h18.96c0.41 0 0.75 0.34 0.75 0.75s-0.33 0.75-0.75 0.75z"/>
 <path d="m8.52 7.7198c-0.41 0-0.75-0.34-0.75-0.75v-4.86c0-0.41 0.34-0.75 0.75-0.75s0.75 0.34 0.75 0.75v4.86c0 0.41-0.34 0.75-0.75 0.75z"/>
 <path d="m15.48 7.2699c-0.41 0-0.75-0.34-0.75-0.75v-4.41c0-0.41 0.34-0.75 0.75-0.75s0.75 0.34 0.75 0.75v4.41c0 0.42-0.33 0.75-0.75 0.75z"/>
 <path d="m18.5 23.75c-1.22 0-2.4-0.42-3.33-1.19-1.22-0.99-1.92-2.47-1.92-4.06 0-1.62 0.72-3.11 1.98-4.1 0.92-0.74 2.08-1.15 3.27-1.15 1.59 0 3.07 0.7 4.06 1.93 0.76 0.92 1.19 2.1 1.19 3.32 0 1.49-0.65 2.93-1.78 3.94-0.98 0.85-2.21 1.31-3.47 1.31zm0-9c-0.85 0-1.68 0.29-2.34 0.82-0.9 0.71-1.41 1.77-1.41 2.93 0 1.13 0.5 2.19 1.37 2.9 1.36 1.13 3.47 1.12 4.86-0.09 0.8-0.72 1.27-1.75 1.27-2.81 0-0.87-0.3-1.71-0.85-2.37-0.71-0.88-1.77-1.38-2.9-1.38z"/>
 <path d="m17.38 20.38c-0.25 0-0.5-0.13-0.64-0.36-0.21-0.36-0.1-0.82 0.26-1.03l1.04-0.62v-1.26c0-0.41 0.34-0.75 0.75-0.75s0.75 0.34 0.75 0.75v1.69c0 0.26-0.14 0.51-0.36 0.64l-1.41 0.84c-0.13 0.06-0.26 0.1-0.39 0.1z"/>
</svg>
