<?xml version="1.0" encoding="UTF-8"?>
<svg width="24" height="24" viewBox="0 0 24 24" xmlns="http://www.w3.org/2000/svg">
 <path d="m12.88 20.86h-6.07c-3.55 0-4.81-2.49-4.81-4.81v-8.1c0-3.46 1.35-4.81 4.81-4.81h6.07c3.46 0 4.81 1.35 4.81 4.81v8.1c0 3.46-1.35 4.81-4.81 4.81zm-6.07-16.2c-2.61 0-3.29 0.68-3.29 3.29v8.1c0 1.23 0.43 3.29 3.29 3.29h6.07c2.61 0 3.29-0.68 3.29-3.29v-8.1c0-2.61-0.68-3.29-3.29-3.29h-6.07z"/>
 <path d="m20.78 18.11c-0.43 0-0.98-0.14-1.61-0.58l-2.67-1.87c-0.2-0.14-0.32-0.37-0.32-0.62v-6.08c0-0.25 0.12-0.47999 0.32-0.62l2.67-1.87c1.19-0.83 2.06-0.59 2.47-0.38 0.41 0.22 1.11 0.79 1.11 2.24v7.33c0 1.45-0.7 2.03-1.11 2.24-0.19 0.11-0.49 0.21-0.86 0.21zm-3.09-3.47 2.35 1.64c0.45 0.31 0.77 0.34 0.9 0.27 0.14-0.07 0.29-0.35 0.29-0.89v-7.32c0-0.55-0.16-0.82-0.29-0.89s-0.45-0.04-0.9 0.27l-2.35 1.64v5.28z"/>
 <path d="m11.5 11.75c-1.24 0-2.25-1.01-2.25-2.25s1.01-2.25 2.25-2.25 2.25 1.01 2.25 2.25-1.01 2.25-2.25 2.25zm0-3c-0.41 0-0.75 0.34-0.75 0.75s0.34 0.75 0.75 0.75 0.75-0.34 0.75-0.75-0.34-0.75-0.75-0.75z"/>
</svg>
