<?xml version="1.0" encoding="UTF-8"?>
<svg width="24" height="24" viewBox="0 0 24 24" xmlns="http://www.w3.org/2000/svg">
 <path d="m15 22.75h-6c-5.43 0-7.75-2.32-7.75-7.75v-6c0-5.43 2.32-7.75 7.75-7.75h6c5.43 0 7.75 2.32 7.75 7.75v6c0 5.43-2.32 7.75-7.75 7.75zm-6-20c-4.61 0-6.25 1.64-6.25 6.25v6c0 4.61 1.64 6.25 6.25 6.25h6c4.61 0 6.25-1.64 6.25-6.25v-6c0-4.61-1.64-6.25-6.25-6.25h-6z"/>
 <path d="m21.48 17.86h-18.96c-0.41 0-0.75-0.34-0.75-0.75s0.34-0.75 0.75-0.75h18.96c0.41 0 0.75 0.34 0.75 0.75s-0.33 0.75-0.75 0.75z"/>
 <path d="m21.48 7.8601h-18.96c-0.41 0-0.75-0.34-0.75-0.75s0.33-0.75 0.75-0.75h18.96c0.41 0 0.75 0.34 0.75 0.75s-0.33 0.75-0.75 0.75z"/>
 <path d="m6.9702 22.21c-0.41 0-0.75-0.34-0.75-0.75v-4.35c0-0.41 0.34-0.75 0.75-0.75s0.75 0.34 0.75 0.75v4.35c0 0.42-0.34 0.75-0.75 0.75z"/>
 <path d="m12 22.72c-0.41 0-0.75-0.34-0.75-0.75v-4.86c0-0.41 0.34-0.75 0.75-0.75s0.75 0.34 0.75 0.75v4.86c0 0.41-0.34 0.75-0.75 0.75z"/>
 <path d="m16.97 22.27c-0.41 0-0.75-0.34-0.75-0.75v-4.41c0-0.41 0.34-0.75 0.75-0.75s0.75 0.34 0.75 0.75v4.41c0 0.42-0.34 0.75-0.75 0.75z"/>
 <path d="m6.9702 7.2101c-0.41 0-0.75-0.34-0.75-0.75v-4.35c0-0.41 0.34-0.75 0.75-0.75s0.75 0.34 0.75 0.75v4.35c0 0.42-0.34 0.75-0.75 0.75z"/>
 <path d="m12 7.7201c-0.41 0-0.75-0.34-0.75-0.75v-4.86c0-0.41 0.34-0.75 0.75-0.75s0.75 0.34 0.75 0.75v4.86c0 0.41-0.34 0.75-0.75 0.75z"/>
 <path d="m12 18.78c-0.41 0-0.75-0.34-0.75-0.75v-11c0-0.41 0.34-0.75 0.75-0.75s0.75 0.34 0.75 0.75v11c0 0.41-0.34 0.75-0.75 0.75z"/>
 <path d="m16.97 7.2701c-0.41 0-0.75-0.34-0.75-0.75v-4.41c0-0.41 0.34-0.75 0.75-0.75s0.75 0.34 0.75 0.75v4.41c0 0.42-0.34 0.75-0.75 0.75z"/>
</svg>
