<?xml version="1.0" encoding="UTF-8"?>
<svg width="24" height="24" viewBox="0 0 24 24" xmlns="http://www.w3.org/2000/svg">
 <path d="m15 22.75h-6c-5.43 0-7.75-2.32-7.75-7.75v-6c0-5.43 2.32-7.75 7.75-7.75h6c5.43 0 7.75 2.32 7.75 7.75v6c0 0.25 0 0.5-0.02 0.74-0.03 0.32-0.25 0.58-0.56 0.66s-0.63-0.04-0.81-0.31c-0.03-0.03-0.09-0.1-0.13-0.15-0.72-0.77-1.7-1.19-2.73-1.19-1.02 0-1.98 0.4-2.69 1.13-0.68 0.7-1.06 1.63-1.06 2.62 0 0.67 0.19 1.34 0.54 1.93 0.18 0.3 0.4 0.58 0.65 0.8 0.04 0.03 0.07 0.06 0.09 0.08l0.08 0.07c0.23 0.19 0.34 0.52 0.25 0.81s-0.33 0.51-0.63 0.54c-0.22 0.02-0.48 0.02-0.73 0.02zm-6-20c-4.61 0-6.25 1.64-6.25 6.25v6c0 4.61 1.64 6.25 6.25 6.25h5.03c-0.01-0.02-0.02-0.03-0.03-0.05-0.49-0.82-0.76-1.76-0.76-2.7 0-1.38 0.53-2.68 1.48-3.66 0.98-1.01 2.36-1.59 3.77-1.59 0.98 0 1.94 0.27 2.75 0.78v-5.03c0-4.61-1.64-6.25-6.25-6.25h-5.99z"/>
 <path d="m21.48 7.8599h-18.96c-0.41 0-0.75-0.34-0.75-0.75s0.34-0.75 0.75-0.75h18.96c0.41 0 0.75 0.34 0.75 0.75s-0.33 0.75-0.75 0.75z"/>
 <path d="m8.52 7.7198c-0.41 0-0.75-0.34-0.75-0.75v-4.86c0-0.41 0.34-0.75 0.75-0.75s0.75 0.34 0.75 0.75v4.86c0 0.41-0.34 0.75-0.75 0.75z"/>
 <path d="m15.48 7.2699c-0.41 0-0.75-0.34-0.75-0.75v-4.41c0-0.41 0.34-0.75 0.75-0.75s0.75 0.34 0.75 0.75v4.41c0 0.42-0.33 0.75-0.75 0.75z"/>
 <path d="m18.5 23.75c-1.18 0-2.33-0.4-3.23-1.14-0.03-0.02-0.06-0.04-0.08-0.06-0.07-0.06-0.12-0.1-0.16-0.14-0.02-0.01-0.03-0.02-0.04-0.04-0.37-0.33-0.71-0.73-0.97-1.17-0.49-0.82-0.76-1.76-0.76-2.7 0-1.38 0.53-2.68 1.48-3.66 0.98-1.01 2.36-1.59 3.77-1.59 1.48 0 2.89 0.62 3.87 1.71 0.01 0.01 0.03 0.03 0.04 0.05 0.07 0.07 0.14 0.16 0.19 0.24 0.72 0.87 1.15 2.04 1.15 3.25 0 0.44-0.05 0.85-0.15 1.24-0.12 0.5-0.32 0.99-0.6 1.46-0.96 1.58-2.68 2.55-4.51 2.55zm-2.41-2.4c0.03 0.02 0.05 0.03 0.07 0.05 0.66 0.55 1.46 0.84 2.34 0.84 1.31 0 2.53-0.7 3.21-1.82 0.2-0.33 0.34-0.69 0.43-1.06 0.07-0.28 0.11-0.56 0.11-0.87 0-0.86-0.3-1.69-0.85-2.35l-0.09-0.12c-0.03-0.03-0.06-0.06-0.08-0.1-0.72-0.76-1.7-1.18-2.73-1.18-1.02 0-1.98 0.4-2.69 1.13-0.68 0.7-1.06 1.63-1.06 2.62 0 0.67 0.19 1.34 0.54 1.93 0.18 0.3 0.4 0.58 0.65 0.8 0.04 0.03 0.07 0.06 0.09 0.08l0.06 0.05z"/>
 <path d="m20.18 19.23h-3.36c-0.41 0-0.75-0.34-0.75-0.75s0.34-0.75 0.75-0.75h3.36c0.41 0 0.75 0.34 0.75 0.75s-0.33 0.75-0.75 0.75z"/>
 <path d="m18.5 20.95c-0.41 0-0.75-0.34-0.75-0.75v-3.36c0-0.41 0.34-0.75 0.75-0.75s0.75 0.34 0.75 0.75v3.36c0 0.42-0.34 0.75-0.75 0.75z"/>
</svg>
