<?xml version="1.0" encoding="UTF-8"?>
<svg width="24" height="24" viewBox="0 0 24 24" xmlns="http://www.w3.org/2000/svg">
 <path d="m10.76 16.37c-0.42 0-0.80996-0.1001-1.16-0.3001-0.8-0.46-1.26-1.4-1.26-2.59v-2.96c0-1.18 0.46-2.13 1.26-2.59 0.79996-0.46 1.84-0.39 2.87 0.21l2.57 1.48c1.02 0.58995 1.61 1.46 1.61 2.38s-0.59 1.79-1.61 2.38l-2.57 1.48c-0.58 0.34-1.17 0.5101-1.71 0.5101zm0.01-7.24c-0.16 0-0.3 0.03-0.41 0.1-0.32 0.19-0.50996 0.66-0.50996 1.29v2.96c0 0.63 0.17996 1.1 0.50996 1.29 0.32 0.19 0.82 0.11 1.37-0.21l2.57-1.48c0.55-0.32 0.86-0.71 0.86-1.08s-0.31-0.77-0.86-1.08l-2.57-1.48c-0.36-0.21-0.69-0.31-0.96-0.31z"/>
 <path d="m12 22.75c-5.93 0-10.75-4.82-10.75-10.75s4.82-10.75 10.75-10.75 10.75 4.82 10.75 10.75-4.82 10.75-10.75 10.75zm0-20c-5.1 0-9.25 4.15-9.25 9.25s4.15 9.25 9.25 9.25 9.25-4.15 9.25-9.25-4.15-9.25-9.25-9.25z"/>
</svg>
