<?xml version="1.0" encoding="UTF-8"?>
<svg width="24" height="24" viewBox="0 0 24 24" xmlns="http://www.w3.org/2000/svg">
 <path d="m12 22.75c-0.67 0-1.3501-0.17-1.9501-0.52l-5.94-3.43c-1.2-0.7-1.95-1.99-1.95-3.38v-6.84c0-1.39 0.74998-2.68 1.95-3.38l5.94-3.43c1.2-0.7 2.6901-0.7 3.9001 0l5.94 3.43c1.2 0.7 1.9499 1.99 1.9499 3.38v6.84c0 1.39-0.7499 2.68-1.9499 3.38l-5.94 3.43c-0.6 0.35-1.28 0.52-1.95 0.52zm0-20c-0.41 0-0.8301 0.11-1.2001 0.32l-5.94 3.43c-0.74 0.43-1.2 1.22-1.2 2.08v6.84c0 0.85 0.45998 1.65 1.2 2.08l5.94 3.43c0.74 0.43 1.6601 0.43 2.4001 0l5.94-3.43c0.74-0.43 1.1999-1.22 1.1999-2.08v-6.84c0-0.85-0.4599-1.65-1.1999-2.08l-5.94-3.43c-0.37-0.21-0.79-0.32-1.2-0.32z"/>
 <path d="m11.09 15.67c-0.36 0-0.7-0.09-1.01-0.26-0.68997-0.4-1.09-1.21-1.09-2.22v-2.4c0-1.01 0.4-1.82 1.09-2.22 0.69-0.4 1.5901-0.34001 2.4601 0.16999l2.0799 1.2c0.87 0.49995 1.38 1.25 1.38 2.05s-0.5 1.54-1.38 2.05l-2.0799 1.2c-0.48 0.29-0.9801 0.43-1.4501 0.43zm0.0101-5.85c-0.1 0-0.1901 0.02-0.2601 0.06-0.21 0.12005-0.34 0.45995-0.34 0.91995v2.4001c0 0.45 0.13 0.7899 0.34 0.9199 0.21 0.12 0.57 0.0601 0.96-0.1699l2.08-1.2001c0.39-0.23 0.62-0.51 0.62-0.75s-0.23-0.52-0.62-0.75l-2.08-1.2c-0.26-0.14997-0.5099-0.22995-0.6999-0.22995z"/>
</svg>
