<?xml version="1.0" encoding="UTF-8"?>
<svg width="24" height="24" viewBox="0 0 24 24" xmlns="http://www.w3.org/2000/svg">
 <path d="m15 22.75h-6c-5.43 0-7.75-2.32-7.75-7.75v-6c0-5.43 2.32-7.75 7.75-7.75h6c5.43 0 7.75 2.32 7.75 7.75v6c0 0.24 0 0.49-0.02 0.72-0.03 0.3-0.24 0.56-0.53 0.65s-0.61-0.01-0.8-0.25c-0.71-0.87-1.76-1.37-2.9-1.37-0.85 0-1.68 0.29-2.34 0.82-0.9 0.71-1.41 1.77-1.41 2.93 0 0.67 0.19 1.34 0.54 1.93 0.22 0.37 0.51 0.7 0.84 0.96 0.24 0.19 0.34 0.51 0.25 0.8s-0.34 0.5-0.65 0.53c-0.23 0.03-0.48 0.03-0.73 0.03zm-6-20c-4.61 0-6.25 1.64-6.25 6.25v6c0 4.61 1.64 6.25 6.25 6.25h5.03c-0.01-0.01-0.02-0.03-0.03-0.04-0.5-0.82-0.76-1.76-0.76-2.71 0-1.62 0.72-3.11 1.98-4.1 1.68-1.36 4.23-1.48 6.02-0.38v-5.02c0-4.61-1.64-6.25-6.25-6.25h-5.99z"/>
 <path d="m21.48 7.8599h-18.96c-0.41 0-0.75-0.34-0.75-0.75s0.34-0.75 0.75-0.75h18.96c0.41 0 0.75 0.34 0.75 0.75s-0.33 0.75-0.75 0.75z"/>
 <path d="m8.52 7.7198c-0.41 0-0.75-0.34-0.75-0.75v-4.86c0-0.41 0.34-0.75 0.75-0.75s0.75 0.34 0.75 0.75v4.86c0 0.41-0.34 0.75-0.75 0.75z"/>
 <path d="m15.48 7.2699c-0.41 0-0.75-0.34-0.75-0.75v-4.41c0-0.41 0.34-0.75 0.75-0.75s0.75 0.34 0.75 0.75v4.41c0 0.42-0.33 0.75-0.75 0.75z"/>
 <path d="m18.5 23.75c-1.18 0-2.32-0.4-3.24-1.13-0.02-0.02-0.05-0.03-0.07-0.05-0.47-0.38-0.87-0.83-1.18-1.36-0.5-0.82-0.76-1.76-0.76-2.71 0-1.62 0.72-3.11 1.98-4.1 0.92-0.74 2.08-1.15 3.27-1.15 1.59 0 3.07 0.7 4.06 1.93 0.76 0.92 1.19 2.1 1.19 3.32 0 0.95-0.26 1.88-0.76 2.71-0.29 0.48-0.64 0.89-1.04 1.24-0.95 0.84-2.17 1.3-3.45 1.3zm-2.43-2.4c0.03 0.02 0.05 0.04 0.08 0.06 0.66 0.55 1.49 0.85 2.35 0.85 0.92 0 1.77-0.32 2.46-0.93 0.29-0.25 0.54-0.55 0.75-0.88 0.35-0.59 0.54-1.26 0.54-1.93 0-0.87-0.3-1.71-0.85-2.37-0.71-0.88-1.77-1.38-2.9-1.38-0.85 0-1.68 0.29-2.34 0.82-0.9 0.71-1.41 1.77-1.41 2.93 0 0.67 0.19 1.34 0.54 1.93 0.21 0.33 0.47 0.64 0.78 0.9z"/>
 <path d="m17.85 20.36c-0.19 0-0.38-0.07-0.53-0.22l-1.11-1.11c-0.29-0.29-0.29-0.77 0-1.06s0.77-0.29 1.06 0l0.6 0.6 1.87-1.73c0.3-0.28 0.78-0.26 1.06 0.04s0.26 0.78-0.04 1.06l-2.4 2.22c-0.14 0.13-0.32 0.2-0.51 0.2z"/>
</svg>
