<?xml version="1.0" encoding="UTF-8"?>
<svg width="24" height="24" viewBox="0 0 24 24" xmlns="http://www.w3.org/2000/svg">
 <path d="m15 22.75h-6c-5.43 0-7.75-2.32-7.75-7.75v-6c0-5.43 2.32-7.75 7.75-7.75h6c5.43 0 7.75 2.32 7.75 7.75v6c0 5.43-2.32 7.75-7.75 7.75zm-6-20c-4.61 0-6.25 1.64-6.25 6.25v6c0 4.61 1.64 6.25 6.25 6.25h6c4.61 0 6.25-1.64 6.25-6.25v-6c0-4.61-1.64-6.25-6.25-6.25h-6z"/>
 <path d="m21.48 7.8601h-18.96c-0.41 0-0.75-0.34-0.75-0.75s0.33-0.75 0.75-0.75h18.96c0.41 0 0.75 0.34 0.75 0.75s-0.33 0.75-0.75 0.75z"/>
 <path d="m8.52 7.7201c-0.41 0-0.75-0.34-0.75-0.75v-4.86c0-0.41 0.34-0.75 0.75-0.75s0.75 0.34 0.75 0.75v4.86c0 0.41-0.34 0.75-0.75 0.75z"/>
 <path d="m15.48 7.2701c-0.41 0-0.75-0.34-0.75-0.75v-4.41c0-0.41 0.34-0.75 0.75-0.75s0.75 0.34 0.75 0.75v4.41c0 0.42-0.33 0.75-0.75 0.75z"/>
 <path d="m11.09 18.12c-0.36 0-0.7-0.09-1.01-0.26-0.68-0.4-1.08-1.2-1.08-2.21v-2.4c0-1.01 0.4-1.82 1.09-2.22s1.59-0.34 2.46 0.17l2.08 1.2c0.87 0.5 1.38 1.25 1.38 2.05s-0.51 1.55-1.39 2.05l-2.08 1.2c-0.48 0.28-0.98 0.42-1.45 0.42zm0.01-5.85c-0.1 0-0.19 0.02-0.26 0.06-0.21 0.12-0.34 0.46-0.34 0.92v2.4c0 0.45 0.13 0.79 0.34 0.92 0.21 0.12 0.57 0.06 0.96-0.17l2.08-1.2c0.39-0.23 0.63-0.51 0.63-0.75s-0.23-0.52-0.63-0.75l-2.08-1.2c-0.26-0.15-0.51-0.23-0.7-0.23z"/>
</svg>
