<?xml version="1.0" encoding="UTF-8"?>
<svg width="24" height="24" viewBox="0 0 24 24" xmlns="http://www.w3.org/2000/svg">
 <path d="m4.3 19.92c-0.17 0-0.34-0.06-0.48-0.17-1.01-0.83-1.57-2.16-1.57-3.75v-8c0-3.42 1.33-4.75 4.75-4.75h6c2.04 0 4.18 0.38 4.64 3.23 0.07 0.41-0.21 0.79-0.62 0.86s-0.79-0.21-0.86-0.62c-0.21-1.3-0.76-1.97-3.16-1.97h-6c-2.58 0-3.25 0.67-3.25 3.25v8c0 0.65 0.13 1.86 1.02 2.59 0.32 0.26 0.37 0.74 0.1 1.06-0.14 0.18-0.36 0.27-0.57 0.27z"/>
 <path d="m13 20.75h-5c-0.41 0-0.75-0.34-0.75-0.75s0.34-0.75 0.75-0.75h5c2.58 0 3.25-0.67 3.25-3.25v-5c0-0.41 0.34-0.75 0.75-0.75s0.75 0.34 0.75 0.75v5c0 3.42-1.33 4.75-4.75 4.75z"/>
 <path d="m20.8 18.04c-0.43 0-0.96-0.14-1.59-0.58l-2.64-1.85c-0.34-0.24-0.42-0.71-0.18-1.04 0.24-0.34 0.7-0.42 1.04-0.18l2.64 1.85c0.44 0.31 0.76 0.34 0.89 0.27s0.29-0.34 0.29-0.88v-8.63c0-0.41 0.34-0.75 0.75-0.75s0.75 0.34 0.75 0.75v8.62c0 1.43-0.69 2-1.1 2.21-0.19 0.1-0.48 0.21-0.85 0.21z"/>
 <path d="m2.02 22.94c-0.19 0-0.38-0.07-0.53-0.22-0.29-0.29-0.29-0.77 0-1.06l20-20c0.29-0.29 0.77-0.29 1.06 0s0.29 0.77 0 1.06l-20 20c-0.14 0.15-0.34 0.22-0.53 0.22z"/>
</svg>
