<svg width="24" height="24" viewBox="0 0 24 24"  xmlns="http://www.w3.org/2000/svg">
<path d="M12.88 20.8601H6.81C3.26 20.8601 2 18.3701 2 16.0501V7.95014C2 4.49014 3.35 3.14014 6.81 3.14014H12.88C16.34 3.14014 17.69 4.49014 17.69 7.95014V16.0501C17.69 19.5101 16.34 20.8601 12.88 20.8601ZM6.81 4.66014C4.2 4.66014 3.52 5.34014 3.52 7.95014V16.0501C3.52 17.2801 3.95 19.3401 6.81 19.3401H12.88C15.49 19.3401 16.17 18.6601 16.17 16.0501V7.95014C16.17 5.34014 15.49 4.66014 12.88 4.66014H6.81Z" />
<path d="M20.7799 18.1101C20.3499 18.1101 19.7999 17.9701 19.1699 17.5301L16.4999 15.6601C16.2999 15.5201 16.1799 15.2901 16.1799 15.0401V8.96014C16.1799 8.71014 16.2999 8.48014 16.4999 8.34014L19.1699 6.47014C20.3599 5.64014 21.2299 5.88014 21.6399 6.09014C22.0499 6.31014 22.7499 6.88014 22.7499 8.33014V15.6601C22.7499 17.1101 22.0499 17.6901 21.6399 17.9001C21.4499 18.0101 21.1499 18.1101 20.7799 18.1101ZM17.6899 14.6401L20.0399 16.2801C20.4899 16.5901 20.8099 16.6201 20.9399 16.5501C21.0799 16.4801 21.2299 16.2001 21.2299 15.6601V8.34014C21.2299 7.79014 21.0699 7.52014 20.9399 7.45014C20.8099 7.38014 20.4899 7.41014 20.0399 7.72014L17.6899 9.36014V14.6401Z" />
<path d="M11.5 11.7501C10.26 11.7501 9.25 10.7401 9.25 9.50014C9.25 8.26014 10.26 7.25014 11.5 7.25014C12.74 7.25014 13.75 8.26014 13.75 9.50014C13.75 10.7401 12.74 11.7501 11.5 11.7501ZM11.5 8.75014C11.09 8.75014 10.75 9.09014 10.75 9.50014C10.75 9.91014 11.09 10.2501 11.5 10.2501C11.91 10.2501 12.25 9.91014 12.25 9.50014C12.25 9.09014 11.91 8.75014 11.5 8.75014Z" />
</svg>
