<?xml version="1.0" encoding="UTF-8"?>
<svg width="24" height="24" viewBox="0 0 24 24" xmlns="http://www.w3.org/2000/svg">
 <path d="m6 14.89c-0.41 0-0.75-0.34-0.75-0.75v-4.29c0-0.41 0.34-0.75 0.75-0.75s0.75 0.34 0.75 0.75v4.29c0 0.42-0.34 0.75-0.75 0.75z"/>
 <path d="m9 16.32c-0.41 0-0.75-0.34-0.75-0.75v-7.14c0-0.41 0.34-0.75 0.75-0.75s0.75 0.34 0.75 0.75v7.14c0 0.42-0.34 0.75-0.75 0.75z"/>
 <path d="m12 17.75c-0.41 0-0.75-0.34-0.75-0.75v-10c0-0.41 0.34-0.75 0.75-0.75s0.75 0.34 0.75 0.75v10c0 0.41-0.34 0.75-0.75 0.75z"/>
 <path d="m15 16.32c-0.41 0-0.75-0.34-0.75-0.75v-7.14c0-0.41 0.34-0.75 0.75-0.75s0.75 0.34 0.75 0.75v7.14c0 0.42-0.34 0.75-0.75 0.75z"/>
 <path d="m18 14.89c-0.41 0-0.75-0.34-0.75-0.75v-4.29c0-0.41 0.34-0.75 0.75-0.75s0.75 0.34 0.75 0.75v4.29c0 0.42-0.34 0.75-0.75 0.75z"/>
 <path d="m15 22.75h-6c-5.43 0-7.75-2.32-7.75-7.75v-6c0-5.43 2.32-7.75 7.75-7.75h6c5.43 0 7.75 2.32 7.75 7.75v6c0 5.43-2.32 7.75-7.75 7.75zm-6-20c-4.61 0-6.25 1.64-6.25 6.25v6c0 4.61 1.64 6.25 6.25 6.25h6c4.61 0 6.25-1.64 6.25-6.25v-6c0-4.61-1.64-6.25-6.25-6.25h-6z"/>
</svg>
