<svg width="24" height="24" viewBox="0 0 24 24"  xmlns="http://www.w3.org/2000/svg">
<path d="M12.55 20.5901C11.76 20.5901 10.89 20.3101 10.02 19.7601L7.1 17.9301C6.9 17.8101 6.67 17.7401 6.44 17.7401H5C2.58 17.7401 1.25 16.4101 1.25 13.9901V9.99011C1.25 7.57011 2.58 6.24011 5 6.24011H6.43C6.66 6.24011 6.89 6.17011 7.09 6.05011L10.01 4.22011C11.47 3.31011 12.89 3.14011 14.01 3.76011C15.13 4.38011 15.74 5.67011 15.74 7.40011V16.5701C15.74 18.2901 15.12 19.5901 14.01 20.2101C13.57 20.4701 13.07 20.5901 12.55 20.5901ZM5 7.75011C3.42 7.75011 2.75 8.42011 2.75 10.0001V14.0001C2.75 15.5801 3.42 16.2501 5 16.2501H6.43C6.95 16.2501 7.45 16.3901 7.89 16.6701L10.81 18.5001C11.77 19.1001 12.68 19.2601 13.29 18.9201C13.9 18.5801 14.25 17.7301 14.25 16.6001V7.41011C14.25 6.27011 13.9 5.42011 13.29 5.09011C12.68 4.75011 11.77 4.90011 10.81 5.51011L7.88 7.33011C7.45 7.61011 6.94 7.75011 6.43 7.75011H5Z" />
<path d="M18 16.7501C17.84 16.7501 17.69 16.7001 17.55 16.6001C17.22 16.3501 17.15 15.8801 17.4 15.5501C18.97 13.4601 18.97 10.5401 17.4 8.45011C17.15 8.12011 17.22 7.65011 17.55 7.40011C17.88 7.15011 18.35 7.22011 18.6 7.55011C20.56 10.1701 20.56 13.8301 18.6 16.4501C18.45 16.6501 18.23 16.7501 18 16.7501Z" />
<path d="M19.83 19.2501C19.67 19.2501 19.52 19.2001 19.38 19.1001C19.05 18.8501 18.98 18.3801 19.23 18.0501C21.9 14.4901 21.9 9.51011 19.23 5.95011C18.98 5.62011 19.05 5.15011 19.38 4.90011C19.71 4.65011 20.18 4.72011 20.43 5.05011C23.5 9.14011 23.5 14.8601 20.43 18.9501C20.29 19.1501 20.06 19.2501 19.83 19.2501Z" />
</svg>
