<?xml version="1.0" encoding="UTF-8"?>
<svg width="24" height="24" viewBox="0 0 24 24" xmlns="http://www.w3.org/2000/svg">
 <path d="m12.76 20.75c-0.81 0-1.68-0.28-2.58-0.84l-2.98-1.86c-0.21-0.13-0.44-0.2-0.68-0.2h-1.46c-2.46 0-3.81-1.35-3.81-3.81v-4.08c0-2.46 1.35-3.81 3.81-3.81h1.46c0.24 0 0.48-0.07 0.68-0.2l2.98-1.86c1.49-0.93 2.93-1.1 4.07-0.46 1.14 0.63 1.76 1.94 1.76 3.7v9.36c0 1.75-0.63 3.07-1.76 3.7-0.45 0.24-0.95 0.36-1.49 0.36zm-7.7-13.1c-1.62 0-2.31 0.69-2.31 2.31v4.08c0 1.62 0.69 2.31 2.31 2.31h1.46c0.52 0 1.03 0.15 1.48 0.42l2.98 1.86c0.99 0.62 1.92 0.77 2.55 0.43 0.63-0.35 0.99-1.22 0.99-2.38v-9.36c0-1.17-0.36-2.04-0.99-2.38-0.63-0.35-1.56-0.19-2.55 0.43l-2.98 1.85c-0.45 0.28-0.96 0.43-1.48 0.43h-1.46z"/>
 <path d="m22 12.75h-4c-0.41 0-0.75-0.34-0.75-0.75s0.34-0.75 0.75-0.75h4c0.41 0 0.75 0.34 0.75 0.75s-0.34 0.75-0.75 0.75z"/>
</svg>
