<?xml version="1.0" encoding="UTF-8"?>
<svg width="24" height="24" viewBox="0 0 24 24" xmlns="http://www.w3.org/2000/svg">
 <path d="m16.05 20.59c-0.79 0-1.66-0.28-2.53-0.83l-2.92-1.83c-0.2-0.12-0.43-0.19-0.66-0.19h-1.44c-2.42 0-3.75-1.33-3.75-3.75v-4c0-2.42 1.33-3.75 3.75-3.75h1.43c0.23 0 0.46-0.07 0.66-0.19l2.92-1.83c1.46-0.91 2.88-1.08 4-0.46s1.73 1.91 1.73 3.64v9.17c0 1.72-0.62 3.02-1.73 3.64-0.44 0.26-0.94 0.38-1.46 0.38zm-7.55-12.84c-1.58 0-2.25 0.67-2.25 2.25v4c0 1.58 0.67 2.25 2.25 2.25h1.43c0.52 0 1.02 0.14 1.46 0.42l2.92 1.83c0.97 0.6 1.87 0.76 2.48 0.42s0.96-1.19 0.96-2.32v-9.19c0-1.14-0.35-1.99-0.96-2.32-0.61-0.34-1.51-0.19-2.48 0.42l-2.92 1.83c-0.44 0.27-0.94 0.42-1.46 0.42h-1.43v-0.01z"/>
</svg>
