<?xml version="1.0" encoding="UTF-8"?>
<svg width="24" height="24" viewBox="0 0 24 24" xmlns="http://www.w3.org/2000/svg">
 <path d="m7 17.75h-2c-2.42 0-3.75-1.33-3.75-3.75v-4c0-2.42 1.33-3.75 3.75-3.75h1.43c0.23 0 0.46-0.07001 0.66-0.19l2.92-1.83c1.46-0.91 2.88-1.08 4-0.46s1.73 1.91 1.73 3.64v0.96c0 0.41-0.34 0.75-0.75 0.75s-0.75-0.34-0.75-0.75v-0.96c0-1.14-0.35-1.99-0.96-2.32-0.61-0.34-1.51-0.19-2.48 0.42l-2.92 1.82c-0.43 0.28-0.94 0.42-1.45 0.42h-1.43c-1.58 0-2.25 0.67-2.25 2.25v4c0 1.58 0.67 2.25 2.25 2.25h2c0.41 0 0.75 0.34 0.75 0.75s-0.34 0.75-0.75 0.75z"/>
 <path d="m12.55 20.59c-0.79 0-1.66-0.28-2.53-0.83-0.35001-0.22-0.46001-0.68-0.24001-1.03 0.22001-0.35 0.68001-0.46 1.03-0.24 0.97 0.6 1.87 0.76 2.48 0.42s0.96-1.19 0.96-2.32v-3.64c0-0.41 0.34-0.75 0.75-0.75s0.75 0.34 0.75 0.75v3.64c0 1.72-0.62 3.02-1.73 3.64-0.45 0.24-0.95 0.36-1.47 0.36z"/>
 <path d="m18 16.75c-0.16 0-0.31-0.05-0.45-0.15-0.33-0.25-0.4-0.72-0.15-1.05 1.26-1.68 1.53-3.91 0.72-5.84-0.16-0.38 0.02-0.82 0.4-0.98s0.82 0.02 0.98 0.4c1.02 2.42 0.67 5.23-0.9 7.33-0.15 0.19-0.37 0.29-0.6 0.29z"/>
 <path d="m19.83 19.25c-0.16 0-0.31-0.05-0.45-0.15-0.33-0.25-0.4-0.72-0.15-1.05 2.14-2.85 2.61-6.67 1.23-9.96-0.16-0.38 0.02-0.82 0.4-0.98 0.39-0.15999 0.82 0.02001 0.98 0.40001 1.59 3.78 1.05 8.16-1.41 11.44-0.14 0.2-0.37 0.3-0.6 0.3z"/>
 <path d="m1.9999 22.75c-0.19 0-0.38-0.07-0.53-0.22-0.29-0.29-0.29-0.77 0-1.06l20-20c0.29-0.29 0.77-0.29 1.06 0s0.29 0.77 0 1.06l-20 20c-0.15 0.15-0.34 0.22-0.53 0.22z"/>
</svg>
