<?xml version="1.0" encoding="UTF-8"?>
<svg width="24" height="24" viewBox="0 0 24 24" xmlns="http://www.w3.org/2000/svg">
 <path d="m12 22.751c-0.25 0-0.49-0.13-0.63-0.34l-9.04-14c-0.22-0.35-0.12-0.81001 0.22-1.04 0.35-0.22 0.81001-0.13 1.04 0.22l8.4 13.02 8.37-13.02c0.22-0.35 0.69-0.45001 1.04-0.23001s0.45 0.69001 0.23 1.04l-9 14c-0.14 0.22-0.37 0.35-0.63 0.35z"/>
 <path d="m12 18.75c-0.26 0-0.4901-0.13-0.6301-0.34l-9-14c-0.15-0.23-0.16-0.52001-0.03-0.76001s0.38-0.38998 0.66-0.38998h3c0.25 0 0.48 0.11998 0.62 0.32998l5.38 8.06 5.38-8.06c0.14-0.21 0.37-0.32998 0.62-0.32998h3c0.27 0 0.53 0.14998 0.66 0.38998s0.12 0.53001-0.03 0.76001l-9 14c-0.14 0.21-0.37 0.34-0.63 0.34zm-7.63-14 7.63 11.86 7.63-11.86h-1.2301l-5.78 8.67c-0.28 0.42-0.97 0.42-1.25 0l-5.78-8.67h-1.22z"/>
 <path d="m12 9.75c-0.25 0-0.48-0.11999-0.62-0.32999l-4-6c-0.18-0.27-0.17-0.62 0.03-0.88 0.2-0.25 0.53999-0.35002 0.83999-0.24002l1.8 0.64001v-0.94c0-0.41 0.34-0.75 0.75-0.75h2.4001c0.41 0 0.75 0.34 0.75 0.75v0.94l1.7999-0.64001c0.3-0.11 0.64-0.00998 0.84 0.24002s0.21 0.61 0.03 0.88l-4 6c-0.14 0.2-0.37 0.32999-0.62 0.32999zm-2.12-5.28 2.12 3.18 2.12-3.18-0.6699 0.23999c-0.23 0.08-0.4801 0.05001-0.6801-0.08999s-0.3199-0.36999-0.3199-0.60999v-1.25h-0.9001v1.24c0 0.24-0.1199 0.46999-0.3199 0.60999s-0.4601 0.17002-0.6801 0.09002l-0.66995-0.23001z"/>
</svg>
