<?xml version="1.0" encoding="UTF-8"?>
<svg width="24" height="24" viewBox="0 0 24 24" xmlns="http://www.w3.org/2000/svg">
 <path d="m5 23.75c-1.66 0-3.22-0.88-4.06-2.31-0.45-0.72-0.69-1.57-0.69-2.44 0-2.62 2.13-4.75 4.75-4.75s4.75 2.13 4.75 4.75c0 0.87-0.24 1.72-0.69 2.45-0.84 1.42-2.4 2.3-4.06 2.3zm0-8c-1.79 0-3.25 1.46-3.25 3.25 0 0.59 0.16 1.17 0.47 1.67 0.59 1 1.63 1.58 2.78 1.58s2.19-0.59 2.78-1.57c0.31-0.51 0.47-1.08 0.47-1.68 0-1.79-1.46-3.25-3.25-3.25z"/>
 <path d="m4.4299 20.74c-0.19 0-0.38-0.07-0.53-0.22l-0.99-0.99c-0.29-0.29-0.29-0.7701 0-1.0601s0.77-0.29 1.06 0l0.48 0.4801 1.6-1.4801c0.3-0.28 0.78-0.2599 1.06 0.0401s0.26 0.78-0.04 1.06l-2.13 1.9699c-0.15 0.13-0.33 0.2001-0.51 0.2001z"/>
 <path d="m6.19 7.81c-0.24 0-0.45999-0.11-0.60999-0.31-0.17-0.23-0.19-0.53003-0.06-0.78003 0.17-0.34 0.41-0.66997 0.72-0.96997l3.25-3.26c1.66-1.65 4.36-1.65 6.02 0l1.75 1.78c0.74 0.73 1.19 1.71 1.24 2.75 0.01 0.23-0.08 0.44998-0.25 0.59998s-0.4 0.21999-0.62 0.17999c-0.2-0.03-0.41-0.03998-0.63-0.03998h-10c-0.24 0-0.47 0.01999-0.7 0.04999h-0.11001zm1.67-1.56h8.96c-0.13-0.34-0.34-0.64999-0.62-0.92999l-1.76-1.78c-1.07-1.06-2.82-1.06-3.9 0l-2.68 2.71z"/>
 <path d="m17 22.75h-9.37c-0.32 0-0.6-0.2-0.71-0.49-0.11-0.3-0.02-0.63 0.22-0.83s0.46-0.46 0.62-0.74c0.32-0.51 0.48-1.09 0.48-1.68 0-1.79-1.46-3.25-3.25-3.25-0.93 0-1.82 0.4-2.44 1.11-0.21 0.23-0.54 0.32-0.83 0.21s-0.49-0.39-0.49-0.7v-4.38c0-3.08 1.9-5.31 4.85-5.68 0.27-0.04 0.58-0.07001 0.9-0.07001h10c0.24 0 0.55 0.01 0.87 0.06 2.95 0.34 4.88 2.58 4.88 5.69v5c0.02 3.44-2.29 5.75-5.73 5.75zm-7.82-1.5h7.82c2.58 0 4.25-1.67 4.25-4.25v-5c0-2.34-1.37-3.95-3.59-4.21-0.24-0.04-0.45-0.03998-0.66-0.03998h-10c-0.24 0-0.47 0.01999-0.7 0.04999-2.2 0.28-3.55 1.88-3.55 4.2v2.82c0.68-0.37 1.46-0.57 2.25-0.57 2.62 0 4.75 2.13 4.75 4.75 0 0.79-0.2 1.57-0.57 2.25z"/>
 <path d="m22 17.25h-3c-1.52 0-2.75-1.23-2.75-2.75s1.23-2.75 2.75-2.75h3c0.41 0 0.75 0.34 0.75 0.75s-0.34 0.75-0.75 0.75h-3c-0.69 0-1.25 0.56-1.25 1.25s0.56 1.25 1.25 1.25h3c0.41 0 0.75 0.34 0.75 0.75s-0.34 0.75-0.75 0.75z"/>
</svg>
