<?xml version="1.0" encoding="UTF-8"?>
<svg width="24" height="24" viewBox="0 0 24 24" xmlns="http://www.w3.org/2000/svg">
 <path d="m13 11.9h-6c-0.41 0-0.75-0.34-0.75-0.75s0.34-0.75 0.75-0.75h6c0.41 0 0.75 0.34 0.75 0.75s-0.34 0.75-0.75 0.75z"/>
 <path d="m2 11.9c-0.41 0-0.75-0.34-0.75-0.75v-4.62c0-2.45 1.99-4.44 4.44-4.44h5.62c2.57 0 4.44 1.71 4.44 4.06 0 0.41-0.34 0.75-0.75 0.75s-0.75-0.34-0.75-0.75c0-1.76-1.53-2.56-2.94-2.56h-5.62c-1.62 0-2.94 1.32-2.94 2.94v4.62c0 0.42-0.34 0.75-0.75 0.75z"/>
 <path d="m16 21.9h-10c-2.62 0-4.75-2.13-4.75-4.75v-7c0-2.62 2.13-4.75 4.75-4.75h10c2.62 0 4.75 2.13 4.75 4.75v1.45c0 0.41-0.34 0.75-0.75 0.75h-1.08c-0.35 0-0.67 0.13-0.9 0.37l-0.01 0.01c-0.33 0.33-0.46 0.79-0.34 1.24 0.15 0.56 0.74 0.97 1.4 0.97h0.93c0.41 0 0.75 0.34 0.75 0.75v1.45c0 2.63-2.13 4.76-4.75 4.76zm-10-15c-1.79 0-3.25 1.46-3.25 3.25v7c0 1.79 1.46 3.25 3.25 3.25h10c1.79 0 3.25-1.46 3.25-3.25v-0.7h-0.18c-1.35 0-2.52-0.85-2.85-2.08-0.26-0.97 0.02-2 0.73-2.7 0.52-0.53 1.22-0.82 1.97-0.82h0.33v-0.7c0-1.79-1.46-3.25-3.25-3.25h-10z"/>
 <path d="m20.97 16.45h-1.93c-1.51 0-2.79-1.12-2.91-2.56-0.08-0.83 0.22-1.64 0.82-2.23 0.5-0.52 1.21-0.81 1.96-0.81h2.05c0.98 0 1.78 0.79 1.78 1.77v2.06c0.01 0.98-0.79 1.77-1.77 1.77zm-2.05-4.1c-0.35 0-0.67 0.13-0.9 0.37-0.29 0.28-0.43 0.66-0.39 1.04 0.05 0.66 0.69 1.19 1.41 1.19h1.93c0.15 0 0.28-0.12 0.28-0.27v-2.06c0-0.15-0.13-0.27-0.28-0.27h-2.05z"/>
</svg>
