<?xml version="1.0" encoding="UTF-8"?>
<svg width="24" height="24" viewBox="0 0 24 24" xmlns="http://www.w3.org/2000/svg">
 <path d="m17 22.75h-10c-3.44 0-5.75-2.31-5.75-5.75v-5c0-3.08 1.9-5.31 4.85-5.68 0.28-0.04 0.59-0.07001 0.9-0.07001h10c0.24 0 0.55 0.01 0.87 0.06 2.95 0.34 4.88 2.58 4.88 5.69v5c0 3.44-2.31 5.75-5.75 5.75zm-10-15c-0.24 0-0.47 0.01999-0.7 0.04999-2.2 0.28-3.55 1.88-3.55 4.2v5c0 2.58 1.67 4.25 4.25 4.25h10c2.58 0 4.25-1.67 4.25-4.25v-5c0-2.34-1.37-3.95-3.59-4.21-0.24-0.04-0.45-0.04001-0.66-0.04001h-10z"/>
 <path d="m6.19 7.81c-0.24 0-0.46-0.11-0.61-0.31-0.17-0.23-0.19-0.53-0.06-0.78 0.17-0.34 0.41-0.67 0.72-0.97l3.25-3.26c1.66-1.65 4.36-1.65 6.02 0l1.75 1.77c0.74 0.73 1.19 1.71 1.24 2.75 0.01 0.23-0.08 0.44998-0.25 0.59998s-0.4 0.22002-0.62 0.18002c-0.2-0.03-0.41-0.04001-0.63-0.04001h-10c-0.24 0-0.47 0.01999-0.7 0.04999-0.03 0.01-0.07 0.01001-0.11 0.01001zm1.67-1.56h8.96c-0.13-0.34-0.34-0.64999-0.62-0.92999l-1.76-1.78c-1.07-1.06-2.82-1.06-3.9 0l-2.68 2.71z"/>
 <path d="m22 17.25h-3c-1.52 0-2.75-1.23-2.75-2.75s1.23-2.75 2.75-2.75h3c0.41 0 0.75 0.34 0.75 0.75s-0.34 0.75-0.75 0.75h-3c-0.69 0-1.25 0.56-1.25 1.25s0.56 1.25 1.25 1.25h3c0.41 0 0.75 0.34 0.75 0.75s-0.34 0.75-0.75 0.75z"/>
</svg>
