<svg width="24" height="24" viewBox="0 0 24 24"  xmlns="http://www.w3.org/2000/svg">
<path d="M14.5002 16.7499H9.50023C9.09023 16.7499 8.75023 16.4099 8.75023 15.9999C8.75023 15.5899 9.09023 15.2499 9.50023 15.2499H14.5002C14.9102 15.2499 15.2502 15.5899 15.2502 15.9999C15.2502 16.4099 14.9102 16.7499 14.5002 16.7499Z" />
<path d="M5.20023 10.4599C5.01023 10.4599 4.82023 10.3799 4.67023 10.2399C4.46023 10.0299 4.39023 9.69988 4.51023 9.41988L6.37023 4.97988C6.41023 4.88988 6.43023 4.82988 6.46023 4.77988C7.94023 1.36988 9.83023 0.539877 13.1702 1.81988C13.3602 1.88988 13.5102 2.03988 13.5902 2.22988C13.6702 2.41988 13.6702 2.62988 13.5902 2.81988L10.6602 9.61988C10.5402 9.88988 10.2702 10.0699 9.97023 10.0699H7.12023C6.55023 10.0699 6.01023 10.1799 5.49023 10.3999C5.40023 10.4399 5.30023 10.4599 5.20023 10.4599ZM10.6102 2.74988C9.37023 2.74988 8.61023 3.55988 7.82023 5.39988C7.81023 5.42988 7.79023 5.45988 7.78023 5.48988L6.47023 8.59988C6.69023 8.57988 6.90023 8.56988 7.12023 8.56988H9.47023L11.8802 2.96988C11.4102 2.81988 10.9902 2.74988 10.6102 2.74988Z" />
<path d="M18.2902 10.2699C18.2202 10.2699 18.1402 10.2599 18.0702 10.2399C17.7002 10.1299 17.2902 10.0699 16.8702 10.0699L9.97023 10.0699C9.72023 10.0699 9.48024 9.93988 9.34024 9.72988C9.21024 9.51988 9.18023 9.24988 9.28023 9.01988L12.1802 2.28988C12.3302 1.92988 12.7602 1.68988 13.1402 1.80988C13.2602 1.84988 13.3702 1.89988 13.4902 1.94988L15.8502 2.93988C17.2302 3.50988 18.1502 4.10988 18.7502 4.82988C18.8702 4.96988 18.9702 5.11988 19.0602 5.26988C19.1702 5.43988 19.2702 5.64988 19.3402 5.85988C19.3702 5.92988 19.4202 6.05988 19.4502 6.19988C19.7302 7.13988 19.5902 8.30988 18.9902 9.80988C18.8702 10.0899 18.5902 10.2699 18.2902 10.2699ZM11.1102 8.56988H16.8802C17.2002 8.56988 17.5102 8.59988 17.8202 8.64988C18.1002 7.77988 18.1602 7.10988 18.0002 6.56988C17.9802 6.47988 17.9602 6.43988 17.9502 6.39988C17.8902 6.23988 17.8502 6.14988 17.8002 6.06988C17.7302 5.95988 17.6802 5.86988 17.6002 5.77988C17.1702 5.25988 16.4102 4.77988 15.2802 4.31988L13.3002 3.48988L11.1102 8.56988Z" />
<path d="M15.9002 22.7499H8.10023C7.82023 22.7499 7.56023 22.7299 7.30023 22.6999C3.79023 22.4599 1.79023 20.4599 1.55023 16.9099C1.52023 16.6899 1.50023 16.4199 1.50023 16.1499V14.1999C1.50023 11.9499 2.84023 9.91988 4.91023 9.01988C5.61023 8.71988 6.36023 8.56988 7.13023 8.56988H16.8902C17.4602 8.56988 18.0102 8.64988 18.5202 8.80988C20.8702 9.51988 22.5202 11.7399 22.5202 14.1999V16.1499C22.5202 16.3699 22.5102 16.5799 22.5002 16.7799C22.2802 20.6899 20.0002 22.7499 15.9002 22.7499ZM7.12023 10.0699C6.55023 10.0699 6.01023 10.1799 5.49023 10.3999C3.97023 11.0599 2.99023 12.5499 2.99023 14.1999V16.1499C2.99023 16.3599 3.01023 16.5699 3.03023 16.7699C3.22023 19.6199 4.62023 21.0199 7.43023 21.2099C7.68023 21.2399 7.88023 21.2599 8.09023 21.2599H15.8902C19.1902 21.2599 20.8102 19.8099 20.9702 16.7099C20.9802 16.5299 20.9902 16.3499 20.9902 16.1499V14.1999C20.9902 12.3899 19.7802 10.7699 18.0602 10.2399C17.6902 10.1299 17.2802 10.0699 16.8602 10.0699H7.12023Z" />
<path d="M2.24023 14.9499C1.83023 14.9499 1.49023 14.6099 1.49023 14.1999V11.2699C1.49023 8.11988 3.72023 5.39988 6.80023 4.79988C7.07023 4.74988 7.35023 4.84988 7.53023 5.05988C7.70023 5.26988 7.75023 5.56988 7.64023 5.81988L5.89023 9.99988C5.81023 10.1799 5.67023 10.3199 5.50023 10.3999C3.98023 11.0599 3.00023 12.5499 3.00023 14.1999C2.99023 14.6099 2.66023 14.9499 2.24023 14.9499ZM5.60023 6.81988C4.32023 7.53988 3.39023 8.79988 3.10023 10.2699C3.54023 9.81988 4.05023 9.43988 4.63023 9.15988L5.60023 6.81988Z" />
<path d="M21.7602 14.9499C21.3502 14.9499 21.0102 14.6099 21.0102 14.1999C21.0102 12.3899 19.8002 10.7699 18.0802 10.2399C17.8802 10.1799 17.7102 10.0399 17.6202 9.84988C17.5302 9.65988 17.5202 9.43988 17.6002 9.24988C18.0702 8.07988 18.1902 7.22988 18.0002 6.56988C17.9802 6.47988 17.9602 6.43988 17.9502 6.39988C17.8202 6.10988 17.8902 5.76988 18.1202 5.54988C18.3502 5.32988 18.7002 5.27988 18.9802 5.42988C21.1602 6.56988 22.5102 8.80988 22.5102 11.2699V14.1999C22.5102 14.6099 22.1702 14.9499 21.7602 14.9499ZM19.2502 9.08988C19.8802 9.37988 20.4402 9.78988 20.9102 10.2799C20.7202 9.29988 20.2502 8.40988 19.5602 7.70988C19.5102 8.12988 19.4102 8.58988 19.2502 9.08988Z" />
</svg>
