<?xml version="1.0" encoding="UTF-8"?>
<svg width="24" height="24" viewBox="0 0 24 24" xmlns="http://www.w3.org/2000/svg">
 <path d="m17 22.75h-5c-0.41 0-0.75-0.34-0.75-0.75s0.34-0.75 0.75-0.75h5c2.58 0 4.25-1.67 4.25-4.25v-5c0-2.29-1.42-4-3.54-4.25h-10.71c-0.28 0-0.38 0-0.56 0.06-0.05 0.02-0.1 0.03003-0.15 0.03003-2.21 0.26-3.54 1.81-3.54 4.16v1c0 0.41-0.34 0.75-0.75 0.75s-0.75-0.34-0.75-0.75v-1c0-3.06 1.88-5.27 4.79-5.64 0.38-0.11 0.66-0.10999 0.96-0.10999h10.8c3 0.35 4.95 2.66 4.95 5.75v5c0 3.44-2.31 5.75-5.75 5.75z"/>
 <path d="m6.1998 7.85c-0.2 0-0.38999-0.07997-0.52999-0.21997-0.2-0.2-0.27-0.50002-0.18-0.77002 0.16-0.47 0.44999-0.75996 0.77999-1.09l3.19-3.29c1.65-1.65 4.43-1.65 6.07-0.01001l1.8 1.8c0.66 0.66 1.08 1.57 1.21 2.64 0.03 0.21-0.04 0.43003-0.18 0.59003s-0.35 0.25-0.56 0.25h-10.8c-0.28 0-0.38 0-0.56 0.06-0.08 0.03-0.16001 0.03997-0.24001 0.03997zm1.69-1.6h8.96c-0.12-0.32-0.31-0.63998-0.58-0.91998l-1.8-1.8c-1.07-1.07-2.87-1.07-3.94 0l-2.64 2.72z"/>
 <path d="m22 17.25h-3c-1.52 0-2.75-1.23-2.75-2.75s1.23-2.75 2.75-2.75h3c0.41 0 0.75 0.34 0.75 0.75s-0.34 0.75-0.75 0.75h-3c-0.69 0-1.25 0.56-1.25 1.25s0.56 1.25 1.25 1.25h3c0.41 0 0.75 0.34 0.75 0.75s-0.34 0.75-0.75 0.75z"/>
 <path d="m5.8001 22.15c-2.18 0-3.95-1.77-3.95-3.95s1.77-3.95 3.95-3.95 3.95 1.77 3.95 3.95-1.77 3.95-3.95 3.95zm0-6.4c-1.35 0-2.45 1.1-2.45 2.45s1.1 2.45 2.45 2.45 2.45-1.1 2.45-2.45-1.1-2.45-2.45-2.45z"/>
 <path d="m1.9999 22.75c-0.19 0-0.38-0.07-0.53-0.22-0.29-0.29-0.29-0.7701 0-1.0601l1-1c0.29-0.29 0.77-0.29 1.06 0s0.29 0.7701 0 1.0601l-1 1c-0.15 0.15-0.34 0.22-0.53 0.22z"/>
</svg>
