<?xml version="1.0" encoding="UTF-8"?>
<svg width="24" height="24" viewBox="0 0 24 24" xmlns="http://www.w3.org/2000/svg">
 <path d="m14.5 16.19h-5c-0.41 0-0.75-0.34-0.75-0.75s0.34-0.75 0.75-0.75h5c0.41 0 0.75 0.34 0.75 0.75s-0.34 0.75-0.75 0.75z"/>
 <path d="m12 18.75c-0.41 0-0.75-0.34-0.75-0.75v-5c0-0.41 0.34-0.75 0.75-0.75s0.75 0.34 0.75 0.75v5c0 0.41-0.34 0.75-0.75 0.75z"/>
 <path d="m5.2002 10.46c-0.19 0-0.38-0.08-0.53-0.22-0.21-0.21-0.28-0.54-0.16-0.82l1.86-4.44c0.04-0.09 0.06-0.15 0.09-0.2 1.48-3.41 3.37-4.24 6.71-2.96 0.19 0.07 0.34 0.22 0.42 0.41s0.08 0.4 0 0.59l-2.93 6.8c-0.12 0.27-0.39 0.45-0.69002 0.45h-2.85c-0.57 0-1.11 0.11-1.63 0.33-0.09 0.04-0.19 0.06-0.29 0.06zm5.41-7.71c-1.24 0-2 0.81-2.79 2.65-0.01 0.03-0.03 0.06-0.04 0.09l-1.31 3.11c0.22-0.02 0.43-0.03 0.65-0.03h2.35l2.41-5.6c-0.47-0.15-0.89-0.22-1.27-0.22z"/>
 <path d="m18.29 10.27c-0.07 0-0.15-0.01-0.22-0.03-0.37-0.11-0.78-0.17-1.2-0.17h-6.9c-0.25 0-0.49-0.12998-0.63-0.33998-0.13-0.21-0.16-0.48-0.06-0.71l2.9-6.73c0.15-0.36 0.59-0.6 0.96-0.48 0.12 0.04 0.23 0.09 0.35 0.14l2.36 0.99c1.38 0.57 2.3 1.17 2.9 1.89 0.12 0.14 0.22 0.29 0.31 0.44 0.11 0.17 0.21 0.38 0.28 0.59 0.03 0.07 0.08 0.2 0.11 0.34 0.28 0.94 0.14 2.11-0.46 3.61-0.12 0.27998-0.4 0.45998-0.7 0.45998zm-7.18-1.7h5.77c0.32 0 0.63 0.03 0.94 0.08 0.28-0.87 0.34-1.54 0.18-2.08-0.02-0.09-0.04-0.13-0.05-0.17-0.06-0.16-0.1-0.25-0.15-0.33-0.07-0.11-0.12-0.2-0.2-0.29-0.43-0.52-1.19-1-2.32-1.46l-1.98-0.83-2.19 5.08z"/>
 <path d="m15.9 22.75h-7.8c-0.28 0-0.54-0.02-0.8-0.05-3.51-0.24-5.51-2.24-5.75-5.79-0.03-0.22-0.05-0.49-0.05-0.76v-1.95c0-2.25 1.34-4.28 3.41-5.18 0.7-0.3 1.45-0.45 2.22-0.45h9.76c0.57 0 1.12 0.08 1.63 0.24 2.35 0.71 4 2.93 4 5.39v1.95c0 0.22-0.01 0.43-0.02 0.63-0.22 3.91-2.5 5.97-6.6 5.97zm-8.78-12.68c-0.57 0-1.11 0.11-1.63 0.33-1.52 0.66-2.5 2.15-2.5 3.8v1.95c0 0.21 0.02 0.42 0.04 0.62 0.19 2.85 1.59 4.25 4.4 4.44 0.25 0.03 0.45 0.05 0.66 0.05h7.8c3.3 0 4.92-1.45 5.08-4.55 0.01-0.18 0.02-0.36 0.02-0.56v-1.95c0-1.81-1.21-3.43-2.93-3.96-0.37-0.11-0.78-0.17-1.2-0.17h-9.74z"/>
 <path d="m2.2402 14.95c-0.41 0-0.75-0.34-0.75-0.75v-2.93c0-3.15 2.23-5.87 5.31-6.47 0.27-0.05 0.55 0.05 0.73 0.26 0.17 0.21 0.22 0.51 0.11 0.76l-1.75 4.18c-0.08 0.18002-0.22 0.32002-0.39 0.40002-1.52 0.66-2.5 2.15-2.5 3.8-0.01 0.41-0.34 0.75-0.76 0.75zm3.36-8.13c-1.28 0.72-2.21 1.98-2.5 3.45 0.44-0.45002 0.95-0.83002 1.53-1.11l0.97-2.34z"/>
 <path d="m21.76 14.95c-0.41 0-0.75-0.34-0.75-0.75 0-1.81-1.21-3.43-2.93-3.96-0.2-0.06-0.37-0.2-0.46-0.38998-0.09-0.19-0.1-0.41-0.02-0.6 0.47-1.17 0.59-2.02 0.4-2.68-0.02-0.09-0.04-0.13-0.05-0.17-0.13-0.29-0.06-0.63 0.17-0.85s0.58-0.27 0.86-0.12c2.18 1.14 3.53 3.38 3.53 5.84v2.93c0 0.41-0.34 0.75-0.75 0.75zm-2.51-5.86c0.63 0.29 1.19 0.7 1.66 1.19-0.19-0.97998-0.66-1.87-1.35-2.57-0.05 0.42-0.15 0.88-0.31 1.38z"/>
</svg>
