<svg width="24" height="24" viewBox="0 0 24 24"  xmlns="http://www.w3.org/2000/svg">
<path d="M17 22.7499H7C3.56 22.7499 1.25 20.4399 1.25 16.9999V11.9999C1.25 8.91994 3.15 6.68995 6.1 6.31995C6.38 6.27995 6.69 6.24994 7 6.24994H17C17.24 6.24994 17.55 6.25994 17.87 6.30994C20.82 6.64994 22.75 8.88994 22.75 11.9999V16.9999C22.75 20.4399 20.44 22.7499 17 22.7499ZM7 7.74994C6.76 7.74994 6.53 7.76993 6.3 7.79993C4.1 8.07993 2.75 9.67994 2.75 11.9999V16.9999C2.75 19.5799 4.42 21.2499 7 21.2499H17C19.58 21.2499 21.25 19.5799 21.25 16.9999V11.9999C21.25 9.65994 19.88 8.04995 17.66 7.78995C17.42 7.74995 17.21 7.74994 17 7.74994H7Z" />
<path d="M6.19005 7.80995C5.95005 7.80995 5.73005 7.69995 5.58005 7.49995C5.41005 7.26995 5.39005 6.96995 5.52005 6.71995C5.69005 6.37995 5.93005 6.04995 6.24005 5.74995L9.49005 2.48994C11.15 0.839941 13.85 0.839941 15.51 2.48994L17.26 4.25996C18 4.98996 18.45 5.96996 18.5 7.00996C18.51 7.23996 18.42 7.45994 18.25 7.60994C18.08 7.75994 17.85 7.82996 17.63 7.78996C17.43 7.75996 17.22 7.74994 17 7.74994H7C6.76 7.74994 6.53 7.76993 6.3 7.79993C6.27 7.80993 6.23005 7.80995 6.19005 7.80995ZM7.86005 6.24995H16.82C16.69 5.90995 16.48 5.59996 16.2 5.31996L14.44 3.53996C13.37 2.47996 11.62 2.47996 10.54 3.53996L7.86005 6.24995Z" />
<path d="M22 17.2499H19C17.48 17.2499 16.25 16.0199 16.25 14.4999C16.25 12.9799 17.48 11.7499 19 11.7499H22C22.41 11.7499 22.75 12.0899 22.75 12.4999C22.75 12.9099 22.41 13.2499 22 13.2499H19C18.31 13.2499 17.75 13.8099 17.75 14.4999C17.75 15.1899 18.31 15.7499 19 15.7499H22C22.41 15.7499 22.75 16.0899 22.75 16.4999C22.75 16.9099 22.41 17.2499 22 17.2499Z" />
</svg>
