<?xml version="1.0" encoding="UTF-8"?>
<svg width="24" height="24" viewBox="0 0 24 24" xmlns="http://www.w3.org/2000/svg">
 <path d="m7.1698 22.75c-2.38 0-4.33-1.73-4.33-3.86v-2.04c0-0.41 0.34-0.75 0.75-0.75s0.75 0.34 0.75 0.75c0 1.25 1.21 2.19 2.83 2.19s2.83-0.94 2.83-2.19c0-0.41 0.33998-0.75 0.74998-0.75s0.75 0.34 0.75 0.75v2.04c0 2.13-1.94 3.86-4.33 3.86zm-2.57-2.88c0.44 0.82 1.43 1.38 2.57 1.38s2.13-0.57 2.57-1.38c-0.71 0.43-1.59 0.68-2.57 0.68s-1.86-0.25-2.57-0.68z"/>
 <path d="m7.1698 17.8c-1.64 0-3.11-0.75-3.84-1.94-0.32-0.52-0.48999-1.13-0.48999-1.75 0-1.05 0.45999-2.03 1.3-2.76 1.62-1.42 4.41-1.4199 6.04-0.0099 0.84 0.74 1.31 1.7199 1.31 2.7699 0 0.62-0.17 1.23-0.49 1.75-0.72 1.19-2.19 1.94-3.83 1.94zm0-6.05c-0.78 0-1.5 0.26-2.04 0.73-0.51 0.44-0.78998 1.02-0.78998 1.63 0 0.35 0.08996 0.6701 0.26996 0.9701 0.46 0.76 1.44 1.2299 2.56 1.2299s2.1-0.4699 2.55-1.2199c0.18-0.29 0.27002-0.6201 0.27002-0.9701 0-0.61-0.27998-1.19-0.78998-1.64-0.53-0.47-1.25-0.73-2.03-0.73z"/>
 <path d="m7.1698 20.55c-2.47 0-4.33-1.59-4.33-3.69v-2.75c0-2.13 1.94-3.86 4.33-3.86 1.13 0 2.21 0.39 3.02 1.09 0.84 0.74 1.31 1.72 1.31 2.77v2.75c0 2.1-1.86 3.69-4.33 3.69zm0-8.8c-1.56 0-2.83 1.06-2.83 2.36v2.75c0 1.25 1.21 2.19 2.83 2.19s2.83-0.94 2.83-2.19v-2.75c0-0.61-0.27998-1.19-0.78998-1.64-0.54-0.46-1.26-0.72-2.04-0.72z"/>
 <path d="m19.04 14.8c-1.51 0-2.79-1.12-2.91-2.56-0.08-0.83 0.22-1.64 0.82-2.23 0.5-0.51995 1.21-0.80995 1.96-0.80995h2.09c0.99 0.03 1.75 0.80995 1.75 1.77v2.0601c0 0.96-0.76 1.7399-1.72 1.7699h-1.99zm1.93-4.0999h-2.05c-0.35 0-0.67 0.1299-0.9 0.3699-0.29 0.28-0.43 0.66-0.39 1.04 0.05 0.66 0.69 1.19 1.41 1.19h1.96c0.13 0 0.25-0.1199 0.25-0.2699v-2.0601c0-0.15-0.12-0.2599-0.28-0.2699z"/>
 <path d="m16 21.25h-2.5c-0.41 0-0.75-0.34-0.75-0.75s0.34-0.75 0.75-0.75h2.5c2.58 0 4.25-1.67 4.25-4.25v-0.7h-1.21c-1.51 0-2.79-1.12-2.91-2.56-0.08-0.83 0.2201-1.64 0.8201-2.23 0.5-0.51999 1.2099-0.80999 1.9599-0.80999h1.33v-0.70001c0-2.34-1.3699-3.95-3.5899-4.21-0.24-0.04-0.4501-0.03998-0.6601-0.03998h-9c-0.24 0-0.47001 0.01999-0.70001 0.04999-2.2 0.28-3.55 1.88-3.55 4.2v2c0 0.41-0.34 0.75-0.75 0.75s-0.75-0.34-0.75-0.75v-2c0-3.08 1.9-5.31 4.85-5.68 0.27-0.04 0.57996-0.07001 0.89996-0.07001h9c0.24 0 0.55 0.01 0.87 0.06 2.95 0.34 4.88 2.58 4.88 5.69v1.45c0 0.40999-0.34 0.74999-0.75 0.74999h-2.08c-0.35 0-0.6699 0.13-0.8999 0.37-0.29 0.28-0.4301 0.66-0.3901 1.04 0.05 0.66 0.6901 1.19 1.4101 1.19h1.9699c0.41 0 0.75 0.34 0.75 0.75v1.45c0 3.44-2.31 5.75-5.75 5.75z"/>
</svg>
