<svg width="24" height="24" viewBox="0 0 24 24"  xmlns="http://www.w3.org/2000/svg">
<path opacity="0.8" d="M12.9 2.52009L12.87 2.59009L9.96995 9.32009H7.11995C6.43995 9.32009 5.79995 9.45009 5.19995 9.71009L6.94995 5.53009L6.98995 5.44009L7.04995 5.28009C7.07995 5.21009 7.09995 5.15009 7.12995 5.10009C8.43995 2.07009 9.91995 1.38009 12.9 2.52009Z" />
<path d="M18.29 9.52002C17.84 9.39002 17.37 9.32002 16.88 9.32002H9.96997L12.87 2.59002L12.9 2.52002C13.04 2.57002 13.19 2.64002 13.34 2.69002L15.55 3.62002C16.78 4.13002 17.64 4.66002 18.17 5.30002C18.26 5.42002 18.34 5.53002 18.42 5.66002C18.51 5.80002 18.58 5.94002 18.62 6.09002C18.66 6.18002 18.69 6.26002 18.71 6.35002C18.97 7.20002 18.81 8.23002 18.29 9.52002Z" />
<path opacity="0.4" d="M21.76 14.1998V16.1498C21.76 16.3498 21.75 16.5498 21.74 16.7398C21.55 20.2398 19.6 21.9998 15.9 21.9998H8.09999C7.84999 21.9998 7.61999 21.9798 7.38999 21.9498C4.20999 21.7398 2.50999 20.0398 2.28999 16.8598C2.25999 16.6198 2.23999 16.3898 2.23999 16.1498V14.1998C2.23999 12.1898 3.45999 10.4598 5.19999 9.70982C5.79999 9.44982 6.43999 9.31982 7.11999 9.31982H16.88C17.37 9.31982 17.84 9.38982 18.29 9.51982C20.29 10.1298 21.76 11.9898 21.76 14.1998Z" />
<path opacity="0.6" d="M6.94999 5.52979L5.19999 9.70978C3.45999 10.4598 2.23999 12.1898 2.23999 14.1998V11.2698C2.23999 8.42979 4.25999 6.05979 6.94999 5.52979Z" />
<path opacity="0.6" d="M21.76 11.2698V14.1998C21.76 11.9898 20.29 10.1298 18.29 9.51984C18.81 8.22984 18.97 7.19984 18.71 6.34984C18.69 6.25984 18.66 6.17984 18.62 6.08984C20.49 7.05984 21.76 9.02984 21.76 11.2698Z" />
</svg>
