<svg width="24" height="24" viewBox="0 0 24 24"  xmlns="http://www.w3.org/2000/svg">
<path d="M13 11.8998H7C6.59 11.8998 6.25 11.5598 6.25 11.1498C6.25 10.7398 6.59 10.3998 7 10.3998H13C13.41 10.3998 13.75 10.7398 13.75 11.1498C13.75 11.5598 13.41 11.8998 13 11.8998Z" />
<path d="M2 11.8998C1.59 11.8998 1.25 11.5598 1.25 11.1498V6.52985C1.25 4.07985 3.24 2.08984 5.69 2.08984H11.31C13.88 2.08984 15.75 3.79984 15.75 6.14984C15.75 6.55984 15.41 6.89984 15 6.89984C14.59 6.89984 14.25 6.55984 14.25 6.14984C14.25 4.38984 12.72 3.58984 11.31 3.58984H5.69C4.07 3.58984 2.75 4.90985 2.75 6.52985V11.1498C2.75 11.5698 2.41 11.8998 2 11.8998Z" />
<path d="M16 21.8998H6C3.38 21.8998 1.25 19.7698 1.25 17.1498V10.1498C1.25 7.52978 3.38 5.39978 6 5.39978H16C18.62 5.39978 20.75 7.52978 20.75 10.1498V11.5997C20.75 12.0097 20.41 12.3497 20 12.3497H18.92C18.57 12.3497 18.25 12.4797 18.02 12.7197L18.01 12.7297C17.68 13.0597 17.55 13.5197 17.67 13.9697C17.82 14.5297 18.41 14.9398 19.07 14.9398H20C20.41 14.9398 20.75 15.2798 20.75 15.6898V17.1398C20.75 19.7698 18.62 21.8998 16 21.8998ZM6 6.89978C4.21 6.89978 2.75 8.35978 2.75 10.1498V17.1498C2.75 18.9398 4.21 20.3998 6 20.3998H16C17.79 20.3998 19.25 18.9398 19.25 17.1498V16.4498H19.07C17.72 16.4498 16.55 15.5998 16.22 14.3698C15.96 13.3998 16.24 12.3697 16.95 11.6697C17.47 11.1397 18.17 10.8497 18.92 10.8497H19.25V10.1498C19.25 8.35978 17.79 6.89978 16 6.89978H6Z" />
<path d="M20.9699 16.4498H19.0399C17.5299 16.4498 16.2499 15.3298 16.1299 13.8898C16.0499 13.0598 16.3499 12.2497 16.9499 11.6597C17.4499 11.1397 18.1599 10.8497 18.9099 10.8497H20.9599C21.9399 10.8497 22.7399 11.6398 22.7399 12.6198V14.6797C22.7499 15.6597 21.9499 16.4498 20.9699 16.4498ZM18.92 12.3497C18.57 12.3497 18.25 12.4797 18.02 12.7197C17.73 12.9997 17.5899 13.3798 17.6299 13.7598C17.6799 14.4198 18.3199 14.9498 19.0399 14.9498H20.9699C21.1199 14.9498 21.2499 14.8297 21.2499 14.6797V12.6198C21.2499 12.4698 21.1199 12.3497 20.9699 12.3497H18.92Z" />
</svg>
