<?xml version="1.0" encoding="UTF-8"?>
<svg width="24" height="24" viewBox="0 0 24 24" xmlns="http://www.w3.org/2000/svg">
 <path d="m13 9.75h-6c-0.41 0-0.75-0.34-0.75-0.75s0.34-0.75 0.75-0.75h6c0.41 0 0.75 0.34 0.75 0.75s-0.34 0.75-0.75 0.75z"/>
 <path d="m19.04 14.8c-1.51 0-2.79-1.12-2.91-2.56-0.08-0.83 0.22-1.64 0.82-2.23 0.5-0.51995 1.21-0.80995 1.96-0.80995h2.09c0.99 0.03 1.75 0.80995 1.75 1.77v2.0601c0 0.96-0.76 1.7399-1.72 1.7699h-1.99zm1.93-4.0999h-2.05c-0.35 0-0.67 0.1299-0.9 0.3699-0.29 0.28-0.43 0.66-0.39 1.04 0.05 0.66 0.69 1.19 1.41 1.19h1.96c0.13 0 0.25-0.1199 0.25-0.2699v-2.0601c0-0.15-0.12-0.2599-0.28-0.2699z"/>
 <path d="m16 21.25h-9c-3.44 0-5.75-2.31-5.75-5.75v-7c0-3.08 1.9-5.31 4.85-5.68 0.27-0.04 0.58002-0.07001 0.90002-0.07001h9c0.24 0 0.55 0.01 0.87 0.06 2.95 0.34 4.88 2.58 4.88 5.69v1.45c0 0.40999-0.34 0.74999-0.75 0.74999h-2.08c-0.35 0-0.67 0.13-0.9 0.37l-0.01 0.01c-0.28 0.27-0.41 0.64-0.38 1.02 0.05 0.66 0.69 1.19 1.41 1.19h1.96c0.41 0 0.75 0.34 0.75 0.75v1.45c0 3.45-2.31 5.76-5.75 5.76zm-9-17c-0.24 0-0.47001 0.01999-0.70001 0.04999-2.2 0.28-3.55 1.88-3.55 4.2v7c0 2.58 1.67 4.25 4.25 4.25h9c2.58 0 4.25-1.67 4.25-4.25v-0.7h-1.21c-1.51 0-2.79-1.12-2.91-2.56-0.08-0.82 0.22-1.64 0.82-2.22 0.52-0.52998 1.22-0.81999 1.97-0.81999h1.33v-0.70001c0-2.34-1.37-3.95-3.59-4.21-0.24-0.04-0.45-0.03998-0.66-0.03998h-9z"/>
</svg>
