<?xml version="1.0" encoding="UTF-8"?>
<svg width="24" height="24" viewBox="0 0 24 24" xmlns="http://www.w3.org/2000/svg">
 <path d="m18.73 21.75h-6.46c-0.42 0-0.81-0.21-1.04-0.56l-2.92-4.38-2.26 3.87c-0.22 0.38-0.60998 0.61-1.04 0.62-0.42 0.04-0.84002-0.19-1.08-0.56l-3.37-5.06c-0.28-0.42-0.28-0.97 0-1.39l3.67-5.5c0.23-0.35 0.61998-0.56 1.04-0.56h4.93l-2.4-4.12c-0.22-0.39-0.23-0.87 0-1.25 0.22-0.39 0.64002-0.63 1.08-0.63h6.84c0.44 0 0.86 0.24001 1.08 0.62001l6.7 11.48c0.24 0.42 0.23 0.92-0.04 1.32l-3.68 5.52c-0.24 0.37-0.63 0.58-1.05 0.58zm-6.33-1.5h6.2l3.52-5.28-6.55-11.22h-6.26l3.5 6 2.4 4.12c0.22 0.38 0.23 0.86 0 1.25-0.22 0.39-0.64 0.63-1.08 0.63h-4.73l3 4.5zm-10.5-5.25 3.06 4.58 2.24-3.83 3.5-6h-5.29l-3.51 5.25zm7.91-0.75h3.89l-1.94-3.33-1.95 3.33z"/>
</svg>
