<svg width="24" height="24" viewBox="0 0 24 24"  xmlns="http://www.w3.org/2000/svg">
<path opacity="0.4" d="M12 22C17.5228 22 22 17.5228 22 12C22 6.47715 17.5228 2 12 2C6.47715 2 2 6.47715 2 12C2 17.5228 6.47715 22 12 22Z" />
<path d="M16.5 9.15988V12.9899C16.5 13.7699 15.65 14.2499 14.99 13.8499L12.52 12.3699C12.2 12.1799 11.81 12.1799 11.49 12.3699L9.02002 13.8499C8.35002 14.2499 7.51001 13.7699 7.51001 12.9899V9.15988C7.51001 8.81988 7.69002 8.49988 7.97002 8.31988L11.47 6.09988C11.8 5.88988 12.21 5.88988 12.54 6.09988L16.04 8.31988C16.32 8.49988 16.5 8.81988 16.5 9.15988Z" />
<path d="M11.9999 18.0597C11.8499 18.0597 11.7099 18.0197 11.5799 17.9297L9.32995 16.4297C8.98995 16.1997 8.88994 15.7297 9.11994 15.3897C9.34994 15.0397 9.81995 14.9497 10.1599 15.1797L11.99 16.3997L13.82 15.1797C14.16 14.9497 14.6299 15.0397 14.8599 15.3897C15.0899 15.7297 14.9999 16.1997 14.6499 16.4297L12.3999 17.9297C12.2899 18.0197 12.1499 18.0597 11.9999 18.0597Z" />
</svg>
