<?xml version="1.0" encoding="UTF-8"?>
<svg width="24" height="24" viewBox="0 0 24 24" xmlns="http://www.w3.org/2000/svg">
 <path d="m16.5 9.5995c-0.13 0-0.26-0.03-0.39-0.11l-4.11-2.47-4.11 2.47c-0.35 0.21-0.82 0.09999-1.03-0.26001-0.21-0.35-0.1-0.82 0.26-1.03l4.5-2.7c0.24-0.14 0.53-0.14 0.77 0l4.5 2.7c0.36 0.21 0.47 0.67 0.26 1.03-0.15 0.24-0.4 0.37001-0.65 0.37001z"/>
 <path d="m16.5 15.9c-0.13 0-0.27-0.04-0.39-0.11l-4.11-2.47-4.11 2.47c-0.23 0.14-0.52 0.14-0.76 0.01-0.23-0.13-0.38-0.38-0.38-0.65v-6.15c0-0.41 0.34-0.75 0.75-0.75s0.75 0.34 0.75 0.75v4.83l3.36-2.02c0.24-0.14 0.53-0.14 0.77 0l3.36 2.02v-4.83c0-0.41 0.34-0.75 0.75-0.75s0.75 0.34 0.75 0.75v6.15c0 0.27-0.15 0.52-0.38 0.65-0.11 0.07-0.23 0.1-0.36 0.1z"/>
 <path d="m12 18.45c-0.15 0-0.29-0.04-0.42-0.13l-2.25-1.5c-0.34-0.23-0.44001-0.7-0.21001-1.04 0.23-0.35 0.70001-0.44 1.04-0.21l1.8301 1.22 1.83-1.22c0.34-0.23 0.8099-0.14 1.0399 0.21 0.23 0.34 0.14 0.81-0.21 1.04l-2.25 1.5c-0.11 0.09-0.25 0.13-0.4 0.13z"/>
 <path d="m12 22.75c-5.93 0-10.75-4.82-10.75-10.75s4.82-10.75 10.75-10.75 10.75 4.82 10.75 10.75-4.82 10.75-10.75 10.75zm0-20c-5.1 0-9.25 4.15-9.25 9.25s4.15 9.25 9.25 9.25 9.25-4.15 9.25-9.25-4.15-9.25-9.25-9.25z"/>
</svg>
