<?xml version="1.0" encoding="UTF-8"?>
<svg width="24" height="24" viewBox="0 0 24 24" xmlns="http://www.w3.org/2000/svg">
 <path d="m12 13.75c-0.41 0-0.75-0.34-0.75-0.75v-5.25c0-0.41 0.34-0.75 0.75-0.75s0.75 0.34 0.75 0.75v5.25c0 0.41-0.34 0.75-0.75 0.75z"/>
 <path d="m12 17.25c-0.27 0-0.52-0.1-0.71-0.29-0.09-0.1-0.16-0.21-0.22-0.33-0.05-0.12-0.07-0.25-0.07-0.38 0-0.26 0.11-0.52 0.29-0.71 0.37-0.37 1.05-0.37 1.42 0 0.18 0.19 0.29 0.45 0.29 0.71 0 0.13-0.03 0.26-0.08 0.38s-0.12 0.23-0.21 0.33c-0.19 0.19-0.44 0.29-0.71 0.29z"/>
 <path d="m12 22.75c-0.67 0-1.35-0.17-1.95-0.52l-5.94-3.43c-1.2-0.7-1.95-1.99-1.95-3.38v-6.84c0-1.39 0.75001-2.68 1.95-3.38l5.94-3.43c1.2-0.7 2.69-0.7 3.9 0l5.94 3.43c1.2 0.7 1.95 1.99 1.95 3.38v6.84c0 1.39-0.75 2.68-1.95 3.38l-5.94 3.43c-0.6 0.35-1.28 0.52-1.95 0.52zm0-20c-0.41 0-0.83 0.11-1.2 0.32l-5.94 3.43c-0.74 0.43-1.2 1.22-1.2 2.08v6.84c0 0.85 0.46001 1.65 1.2 2.08l5.94 3.43c0.74 0.43 1.66 0.43 2.39 0l5.94-3.43c0.74-0.43 1.2-1.22 1.2-2.08v-6.84c0-0.85-0.46-1.65-1.2-2.08l-5.94-3.43c-0.36-0.21-0.78-0.32-1.19-0.32z"/>
</svg>
