<?xml version="1.0" encoding="UTF-8"?>
<svg width="24" height="24" viewBox="0 0 24 24" xmlns="http://www.w3.org/2000/svg">
 <path d="m15.5 19.75h-7c-2.74 0-4.25-1.51-4.25-4.25v-7c0-2.74 1.51-4.25 4.25-4.25h7c2.74 0 4.25 1.51 4.25 4.25v7c0 2.74-1.51 4.25-4.25 4.25zm-7-14c-1.93 0-2.75 0.82-2.75 2.75v7c0 1.93 0.82 2.75 2.75 2.75h7c1.93 0 2.75-0.82 2.75-2.75v-7c0-1.93-0.82-2.75-2.75-2.75h-7z"/>
 <path d="m16 2.75h-8c-0.41 0-0.75-0.34-0.75-0.75s0.34-0.75 0.75-0.75h8c0.41 0 0.75 0.34 0.75 0.75s-0.34 0.75-0.75 0.75z"/>
 <path d="m16 22.75h-8c-0.41 0-0.75-0.34-0.75-0.75s0.34-0.75 0.75-0.75h8c0.41 0 0.75 0.34 0.75 0.75s-0.34 0.75-0.75 0.75z"/>
 <path d="m12 14.75c-0.41 0-0.75-0.34-0.75-0.75v-4c0-0.41 0.34-0.75 0.75-0.75s0.75 0.34 0.75 0.75v4c0 0.42-0.34 0.75-0.75 0.75z"/>
 <path d="m15 14.75c-0.41 0-0.75-0.34-0.75-0.75v-2c0-0.41 0.34-0.75 0.75-0.75s0.75 0.34 0.75 0.75v2c0 0.42-0.33 0.75-0.75 0.75z"/>
 <path d="m9 14.75c-0.41 0-0.75-0.34-0.75-0.75v-1c0-0.41 0.34-0.75 0.75-0.75s0.75 0.34 0.75 0.75v1c0 0.42-0.34 0.75-0.75 0.75z"/>
</svg>
