<?xml version="1.0" encoding="UTF-8"?>
<svg width="24" height="24" viewBox="0 0 24 24" xmlns="http://www.w3.org/2000/svg">
 <path d="m14 22.75h-4c-5.43 0-7.75-2.32-7.75-7.75v-6c0-5.43 2.32-7.75 7.75-7.75h4c5.43 0 7.75 2.32 7.75 7.75v6c0 5.43-2.32 7.75-7.75 7.75zm-4-20c-4.61 0-6.25 1.64-6.25 6.25v6c0 4.61 1.64 6.25 6.25 6.25h4c4.61 0 6.25-1.64 6.25-6.25v-6c0-4.61-1.64-6.25-6.25-6.25h-4z"/>
 <path d="m15.07 12.54c-0.18 0-0.36-0.07-0.5-0.19-1.46-1.3-3.68-1.3-5.14 0-0.16 0.15-0.38 0.21-0.61 0.18-0.22-0.03-0.41-0.16-0.53-0.35l-2.18-3.5c-0.19-0.31-0.13-0.71 0.14-0.96 3.28-2.91 8.22-2.91 11.5 0 0.27 0.24 0.33 0.65 0.14 0.96l-2.18 3.5c-0.12 0.19-0.31 0.31-0.53 0.35-0.04 0-0.08 0.01-0.11 0.01zm-3.07-2.67c1 0 1.99 0.27999 2.86 0.82999l1.4-2.25c-2.53-1.88-6-1.88-8.53 0l1.4 2.25c0.87999-0.56 1.87-0.82999 2.87-0.82999z"/>
</svg>
