<?xml version="1.0" encoding="UTF-8"?>
<svg width="24" height="24" viewBox="0 0 24 24" xmlns="http://www.w3.org/2000/svg">
 <path d="m2.0001 22.75c-0.2 0-0.39003-0.08-0.53003-0.22-0.19-0.19-0.26995-0.47-0.19995-0.73l1.26-4.71c-0.84-1.56-1.28-3.32-1.28-5.1 0-5.93 4.82-10.75 10.75-10.75 5.93 0 10.75 4.82 10.75 10.75 0 5.93-4.82 10.75-10.75 10.75-1.81 0-3.5799-0.45-5.1599-1.31l-4.64 1.29c-0.07 0.02-0.13001 0.03-0.20001 0.03zm4.94-2.87c0.13 0 0.26001 0.0401 0.38001 0.1001 1.41 0.83 3.03 1.2699 4.68 1.2699 5.1 0 9.25-4.15 9.25-9.25 0-5.1-4.15-9.25-9.25-9.25-5.1 0-9.25 4.15-9.25 9.25 0 1.63 0.42999 3.22 1.24 4.62 0.1 0.17 0.13002 0.38 0.08002 0.57l-1 3.74 3.68-1.02c0.06-0.02 0.13-0.03 0.19-0.03z"/>
 <path d="m14.74 17.76c-0.62 0-1.26-0.14-1.93-0.43-0.63-0.27-1.26-0.63-1.87-1.08-0.6-0.44-1.1899-0.94-1.7299-1.48-0.54-0.55-1.04-1.13-1.48-1.73-0.45-0.63-0.81-1.25-1.07-1.86-0.28-0.66-0.41999-1.31-0.41999-1.93 0-0.44 0.07998-0.86 0.22998-1.25 0.16-0.41 0.42001-0.78001 0.76001-1.1 0.64-0.63 1.56-0.85998 2.29-0.50998 0.25 0.11 0.46 0.29 0.62004 0.53l1.1599 1.63c0.12 0.16 0.2101 0.33 0.2801 0.5 0.08 0.2 0.13 0.40003 0.13 0.59003 0 0.26-0.0701 0.52-0.2101 0.75-0.09 0.15-0.22 0.33-0.39 0.5l-0.13 0.14c0.06 0.08 0.13 0.18 0.24 0.3 0.21 0.24 0.44 0.5 0.69 0.75 0.25 0.24 0.5 0.48 0.75 0.69 0.12 0.1 0.2201 0.18 0.3001 0.23l0.1399-0.14c0.18-0.18 0.3601-0.32 0.5401-0.41 0.33-0.21 0.8399-0.26 1.2899-0.07 0.16 0.06 0.32 0.15 0.49 0.27l1.6701 1.18c0.23 0.16 0.4099 0.38 0.5299 0.63 0.1 0.25 0.1401 0.47 0.1401 0.7 0 0.3-0.0701 0.59-0.2001 0.87-0.13 0.26-0.28 0.49-0.46 0.7-0.32 0.35-0.6899 0.61-1.0899 0.78s-0.8301 0.25-1.2701 0.25zm-5.95-10.02c-0.06 0-0.25995 0-0.50995 0.25-0.19 0.18-0.32003 0.37001-0.41003 0.58001s-0.13001 0.45001-0.13001 0.69001c0 0.42 0.09999 0.87 0.29999 1.35 0.21 0.5 0.52003 1.03 0.90003 1.56 0.39 0.53 0.83 1.06 1.32 1.55 0.49 0.48 1.0099 0.93 1.5499 1.33 0.52 0.38 1.0501 0.68 1.5801 0.91 0.76 0.33 1.4599 0.41 2.0299 0.17 0.2-0.08 0.38-0.22 0.56-0.4 0.09-0.1 0.1601-0.2 0.2201-0.33 0.03-0.07 0.0499-0.15 0.0499-0.22 0-0.02 0-0.05-0.03-0.11l-1.67-1.16c-0.07-0.05-0.14-0.09-0.2-0.11-0.04 0.02-0.0999 0.05-0.2099 0.16l-0.38 0.38c-0.29 0.29-0.75 0.37-1.12 0.24l-0.18-0.08c-0.23-0.12-0.4901-0.3-0.7801-0.55-0.28-0.24-0.5499-0.49-0.8399-0.77-0.28-0.29-0.53-0.56-0.77-0.84-0.26005-0.31-0.44005-0.56-0.56005-0.77l-0.10998-0.26c-0.03-0.1-0.04004-0.21-0.04004-0.31 0-0.28 0.10004-0.53 0.29004-0.73l0.38003-0.39001c0.11-0.11 0.15-0.16999 0.17-0.20999-0.03-0.07-0.07-0.13001-0.12-0.20001l-1.1701-1.65-0.12-0.08001z"/>
</svg>
