<?xml version="1.0" encoding="UTF-8"?>
<svg width="24" height="24" viewBox="0 0 24 24" xmlns="http://www.w3.org/2000/svg">
 <path d="m19.09 12.59c-0.16 0-0.32-0.05-0.46-0.16-4.03-3.11-9.24-3.11-13.27 0-0.33 0.25-0.8 0.19-1.05-0.13-0.25-0.33-0.18999-0.8 0.13001-1.05 4.59-3.55 10.52-3.55 15.1 0 0.33 0.25 0.39 0.72 0.13 1.05-0.13 0.19-0.35 0.29-0.58 0.29z"/>
 <path d="m22 9.1104c-0.16 0-0.32-0.04998-0.46-0.15998-5.8-4.48-13.29-4.48-19.08 0-0.33 0.25-0.80001 0.19-1.05-0.13-0.25-0.33-0.19001-0.80002 0.12999-1.05 6.35-4.91 14.56-4.91 20.92 0 0.33 0.25 0.39 0.72002 0.13 1.05-0.14 0.19-0.37 0.28998-0.59 0.28998z"/>
 <path d="m17.21 16.24c-0.16 0-0.32-0.05-0.46-0.16-2.88-2.23-6.61-2.23-9.5 0-0.33 0.25-0.8 0.19-1.05-0.13-0.25-0.33-0.19-0.8 0.13-1.05 3.44-2.66 7.89-2.66 11.33 0 0.33 0.25 0.39 0.72 0.13 1.05-0.14 0.19-0.36 0.29-0.58 0.29z"/>
 <path d="m14.6 19.9c-0.16 0-0.32-0.05-0.46-0.16-1.3-1.01-2.99-1.01-4.29 0-0.33 0.25-0.8 0.19-1.05-0.13-0.25-0.33-0.19001-0.8 0.12999-1.05 1.86-1.44 4.26-1.44 6.12 0 0.33 0.25 0.39 0.72 0.13 1.05-0.13 0.18-0.35 0.29-0.58 0.29z"/>
</svg>
