<?xml version="1.0" encoding="UTF-8"?>
<svg width="24" height="24" viewBox="0 0 24 24" xmlns="http://www.w3.org/2000/svg">
 <path d="m18 10.71c-0.16 0-0.32-0.05-0.46-0.16-3.37-2.6-7.72-2.6-11.08 0-0.33 0.25-0.8 0.19-1.05-0.13-0.25-0.33-0.19-0.80004 0.13-1.05 3.92-3.03 8.99-3.03 12.92 0 0.33 0.25 0.39 0.72004 0.13 1.05-0.14 0.19-0.37 0.29-0.59 0.29z"/>
 <path d="m16.4 13.8c-0.16 0-0.32-0.05-0.46-0.16-2.4-1.85-5.49-1.85-7.89 0-0.33 0.25-0.80001 0.19-1.05-0.13-0.25-0.33-0.19-0.8 0.13-1.05 2.95-2.28 6.77-2.28 9.72 0 0.33 0.25 0.39 0.72 0.13 1.05-0.13 0.19-0.35 0.29-0.58 0.29z"/>
 <path d="m14.2 16.89c-0.16 0-0.32-0.05-0.46-0.16-1.06-0.82-2.43-0.82-3.49 0-0.33003 0.25-0.80003 0.19-1.05-0.13-0.25-0.33-0.19-0.8 0.13-1.05 1.59-1.23 3.73-1.23 5.32 0 0.33 0.25 0.39 0.72 0.13 1.05-0.13 0.19-0.35 0.29-0.58 0.29z"/>
 <path d="m15 22.75h-6c-5.43 0-7.75-2.32-7.75-7.75v-6c0-5.43 2.32-7.75 7.75-7.75h6c5.43 0 7.75 2.32 7.75 7.75v6c0 5.43-2.32 7.75-7.75 7.75zm-6-20c-4.61 0-6.25 1.64-6.25 6.25v6c0 4.61 1.64 6.25 6.25 6.25h6c4.61 0 6.25-1.64 6.25-6.25v-6c0-4.61-1.64-6.25-6.25-6.25h-6z"/>
</svg>
