<?xml version="1.0" encoding="UTF-8"?>
<svg width="24" height="24" viewBox="0 0 24 24" xmlns="http://www.w3.org/2000/svg">
 <path d="m22 11.749h-10c-0.41 0-0.75-0.34-0.75-0.75v-7c0-0.36 0.25-0.66999 0.6-0.73999l10-2c0.22-0.04 0.45 0.01 0.62 0.16 0.17 0.14 0.27 0.35999 0.27 0.57999v9c0.01 0.41-0.33 0.75-0.74 0.75zm-9.25-1.5h8.5v-7.33l-8.5 1.7v5.63z"/>
 <path d="m22 22.75c-0.05 0-0.1 0-0.15-0.01l-10-2c-0.35-0.07-0.6-0.38-0.6-0.74v-7c0-0.41 0.34-0.75 0.75-0.75h10c0.41 0 0.75 0.34 0.75 0.75v9c0 0.22-0.1 0.44-0.27 0.58-0.14 0.11-0.31 0.17-0.48 0.17zm-9.25-3.37 8.5 1.7v-7.33h-8.5v5.63z"/>
 <path d="m10 11.75h-8c-0.41 0-0.75-0.34-0.75-0.75v-5c0-0.35 0.25003-0.66001 0.59003-0.73001l8-1.7c0.21997-0.05 0.44997 0.00999 0.62997 0.14999s0.28 0.35999 0.28 0.57999v6.7c0 0.41-0.34 0.75-0.75 0.75zm-7.25-1.5h6.5v-5.02l-6.5 1.38v3.64z"/>
 <path d="m10 20.45c-0.05 0-0.09997-0.01-0.15997-0.02l-8-1.7c-0.35-0.07-0.59003-0.38-0.59003-0.73v-5c0-0.41 0.34-0.75 0.75-0.75h8c0.41 0 0.75 0.34 0.75 0.75v6.7c0 0.23-0.1 0.44-0.28 0.58-0.13 0.11-0.3 0.17-0.47 0.17zm-7.25-3.06 6.5 1.38v-5.02h-6.5v3.64z"/>
</svg>
