<?xml version="1.0" encoding="UTF-8"?>
<svg width="24" height="24" viewBox="0 0 24 24" xmlns="http://www.w3.org/2000/svg">
 <path d="m18.5 22.75c-2.34 0-4.25-1.91-4.25-4.25v-0.5c0-0.41 0.34-0.75 0.75-0.75s0.75 0.34 0.75 0.75v0.5c0 1.52 1.23 2.75 2.75 2.75s2.75-1.23 2.75-2.75-1.23-2.75-2.75-2.75h-16.5c-0.41 0-0.75-0.34-0.75-0.75s0.34-0.75 0.75-0.75h16.5c2.34 0 4.25 1.91 4.25 4.25s-1.91 4.25-4.25 4.25z"/>
 <path d="m18.5 12.75h-16.5c-0.41 0-0.75-0.34-0.75-0.75s0.34-0.75 0.75-0.75h16.5c1.52 0 2.75-1.23 2.75-2.75s-1.23-2.75-2.75-2.75-2.75 1.23-2.75 2.75v0.5c0 0.41-0.34 0.75-0.75 0.75s-0.75-0.34-0.75-0.75v-0.5c0-2.34 1.91-4.25 4.25-4.25s4.25 1.91 4.25 4.25-1.91 4.25-4.25 4.25z"/>
 <path d="m9.31 9.7501h-7.31c-0.41 0-0.75-0.34-0.75-0.75s0.34-0.75 0.75-0.75h7.31c1.07 0 1.94-0.87 1.94-1.94s-0.87-1.94-1.94-1.94-1.94 0.87-1.94 1.94v0.38c0 0.41-0.34001 0.75-0.75 0.75-0.41 0-0.75-0.34-0.75-0.75v-0.38c0-1.9 1.54-3.44 3.44-3.44s3.44 1.54 3.44 3.44-1.54 3.44-3.44 3.44z"/>
</svg>
