<?xml version="1.0" encoding="UTF-8"?>
<svg width="24" height="24" viewBox="0 0 24 24" xmlns="http://www.w3.org/2000/svg">
 <path d="m22 13.85c-0.13 0-0.26-0.03-0.38-0.11l-2.5-1.5c-1.3-0.78-2.92-0.78-4.23 0-1.78 1.07-3.99 1.07-5.77 0-1.3-0.78-2.92-0.78-4.23 0l-2.5 1.5c-0.36 0.21-0.82003 0.1-1.03-0.26s-0.09999-0.82 0.26001-1.03l2.5-1.5c1.78-1.07 3.99-1.07 5.77 0 1.3 0.78 2.92 0.78 4.23 0 1.78-1.07 3.99-1.07 5.77 0l2.5 1.5c0.36 0.21 0.47 0.67 0.26 1.03-0.15 0.24-0.4 0.37-0.65 0.37z"/>
 <path d="m7.0001 6.85c-1 0-2-0.27-2.89-0.8l-2.5-1.5c-0.36-0.21-0.46998-0.67-0.25998-1.03 0.21-0.35 0.67-0.47 1.03-0.26l2.5 1.5c1.3 0.78 2.92 0.78 4.23 0 1.78-1.07 3.99-1.07 5.77 0 1.3 0.78 2.92 0.78 4.23 0l2.5-1.5c0.36-0.21 0.82-0.1 1.03 0.26 0.21 0.35 0.1 0.82-0.26 1.03l-2.5 1.5c-1.78 1.07-3.99 1.07-5.77 0-1.3-0.78-2.92-0.78-4.23 0-0.88 0.53-1.88 0.8-2.88 0.8z"/>
 <path d="m22 20.85c-0.13 0-0.26-0.03-0.38-0.11l-2.5-1.5c-1.3-0.78-2.92-0.78-4.23 0-1.78 1.07-3.99 1.07-5.77 0-1.3-0.78-2.92-0.78-4.23 0l-2.5 1.5c-0.36 0.21-0.82003 0.1-1.03-0.26s-0.09999-0.82 0.26001-1.03l2.5-1.5c1.78-1.07 3.99-1.07 5.77 0 1.3 0.78 2.92 0.78 4.23 0 1.78-1.07 3.99-1.07 5.77 0l2.5 1.5c0.36 0.21 0.47 0.67 0.26 1.03-0.15 0.24-0.4 0.37-0.65 0.37z"/>
</svg>
