<svg width="24" height="24" viewBox="0 0 24 24"  xmlns="http://www.w3.org/2000/svg">
<path d="M22 11.7503H12C11.59 11.7503 11.25 11.4103 11.25 11.0003V4.00029C11.25 3.64029 11.5 3.3303 11.85 3.2603L21.85 1.2603C22.07 1.2203 22.3 1.2703 22.47 1.4203C22.64 1.5603 22.74 1.78029 22.74 2.00029V11.0003C22.75 11.4103 22.41 11.7503 22 11.7503ZM12.75 10.2503H21.25V2.9203L12.75 4.62028V10.2503Z" />
<path d="M22 22.7503C21.95 22.7503 21.9 22.7503 21.85 22.7403L11.85 20.7403C11.5 20.6703 11.25 20.3603 11.25 20.0003V13.0003C11.25 12.5903 11.59 12.2503 12 12.2503H22C22.41 12.2503 22.75 12.5903 22.75 13.0003V22.0003C22.75 22.2203 22.65 22.4403 22.48 22.5803C22.34 22.6903 22.17 22.7503 22 22.7503ZM12.75 19.3803L21.25 21.0803V13.7503H12.75V19.3803Z" />
<path d="M10 11.7503H2C1.59 11.7503 1.25 11.4103 1.25 11.0003V6.00027C1.25 5.65027 1.50003 5.34025 1.84003 5.27025L9.84003 3.57027C10.06 3.52027 10.29 3.58027 10.47 3.72027C10.65 3.86027 10.75 4.08025 10.75 4.30025V11.0003C10.75 11.4103 10.41 11.7503 10 11.7503ZM2.75 10.2503H9.25V5.23028L2.75 6.61025V10.2503Z" />
<path d="M10 20.4503C9.95 20.4503 9.90003 20.4403 9.84003 20.4303L1.84003 18.7303C1.49003 18.6603 1.25 18.3503 1.25 18.0003V13.0003C1.25 12.5903 1.59 12.2503 2 12.2503H10C10.41 12.2503 10.75 12.5903 10.75 13.0003V19.7003C10.75 19.9303 10.65 20.1403 10.47 20.2803C10.34 20.3903 10.17 20.4503 10 20.4503ZM2.75 17.3903L9.25 18.7703V13.7503H2.75V17.3903Z" />
</svg>
