<?xml version="1.0" encoding="UTF-8"?>
<svg width="24" height="24" viewBox="0 0 24 24" xmlns="http://www.w3.org/2000/svg">
 <path d="m17 19.75c-0.26 0-0.51-0.14-0.64-0.37l-1.85-3.1c-0.14-0.23-0.14-0.52-0.01-0.76l3.34-5.83-2.49-4.33c-0.13-0.23-0.13-0.52 0-0.75s0.38-0.37 0.65-0.37h3.5c0.27 0 0.52 0.13999 0.65 0.37999l2.7 4.7c0.13 0.23 0.13 0.50999 0 0.73996l-5.2 9.3c-0.13 0.23-0.38 0.38-0.64 0.38 0 0.01-0.01 0.01-0.01 0.01zm-0.98-3.86 0.96 1.61 4.36-7.8-2.27-3.96h-1.77l2.05 3.58c0.13 0.23 0.13 0.52 0 0.74996l-3.33 5.82z"/>
 <path d="m10 19.75c-0.26001 0-0.51003-0.14-0.64003-0.37l-1.85-3.1c-0.14-0.23-0.14001-0.52-0.01001-0.76l3.34-5.83-2.49-4.33c-0.13-0.23-0.13-0.52 0-0.75s0.38-0.37 0.65-0.37h3.5c0.27 0 0.52 0.13999 0.65 0.37999l2.7 4.7c0.13 0.23 0.13 0.50999 0 0.73996l-5.2 9.3c-0.13 0.23-0.38 0.38-0.64 0.38 0 0.01-0.01 0.01-0.01 0.01zm-0.98002-3.86 0.96002 1.61 4.36-7.8-2.27-3.96h-1.77l2.05 3.58c0.13 0.23 0.13 0.52 0 0.74996l-3.33 5.82z"/>
 <path d="m6.2999 13.45c-0.27 0-0.51-0.14-0.65-0.37l-4.5-7.7c-0.14-0.23-0.14-0.52 0-0.75 0.13-0.23 0.38-0.38 0.65-0.38h3.5c0.27 0 0.52002 0.15 0.65002 0.38l2.7 4.8c0.13 0.23 0.13002 0.52-0.00998 0.75001l-1.7 2.9c-0.13 0.23-0.37001 0.37-0.64001 0.37zm-3.19-7.7 3.19 5.47 0.83001-1.42-2.27-4.04h-1.75v-0.00999z"/>
</svg>
