<svg width="24" height="24" viewBox="0 0 24 24"  xmlns="http://www.w3.org/2000/svg">
<path d="M16.9999 19.7502C16.7399 19.7502 16.4899 19.6102 16.3599 19.3802L14.5099 16.2802C14.3699 16.0502 14.3699 15.7602 14.4999 15.5202L17.8399 9.69023L15.3499 5.36023C15.2199 5.13023 15.2199 4.84023 15.3499 4.61023C15.4799 4.38023 15.7299 4.24023 15.9999 4.24023H19.4999C19.7699 4.24023 20.0199 4.38022 20.1499 4.62022L22.8499 9.32024C22.9799 9.55024 22.9799 9.83023 22.8499 10.0602L17.6499 19.3602C17.5199 19.5902 17.2699 19.7402 17.0099 19.7402C17.0099 19.7502 16.9999 19.7502 16.9999 19.7502ZM16.0199 15.8902L16.9799 17.5002L21.3399 9.70023L19.0699 5.74023H17.2999L19.3499 9.32024C19.4799 9.55024 19.4799 9.84024 19.3499 10.0702L16.0199 15.8902Z" />
<path d="M9.99994 19.7502C9.73994 19.7502 9.48992 19.6102 9.35992 19.3802L7.50995 16.2802C7.36995 16.0502 7.36994 15.7602 7.49994 15.5202L10.8399 9.69023L8.34994 5.36023C8.21994 5.13023 8.21994 4.84023 8.34994 4.61023C8.47994 4.38023 8.72994 4.24023 8.99994 4.24023H12.4999C12.7699 4.24023 13.0199 4.38022 13.1499 4.62022L15.8499 9.32024C15.9799 9.55024 15.9799 9.83023 15.8499 10.0602L10.6499 19.3602C10.5199 19.5902 10.2699 19.7402 10.0099 19.7402C10.0099 19.7502 9.99994 19.7502 9.99994 19.7502ZM9.01993 15.8902L9.97995 17.5002L14.3399 9.70023L12.0699 5.74023H10.2999L12.3499 9.32024C12.4799 9.55024 12.4799 9.84024 12.3499 10.0702L9.01993 15.8902Z" />
<path d="M6.29992 13.4502C6.02992 13.4502 5.78992 13.3102 5.64992 13.0802L1.14992 5.38023C1.00992 5.15023 1.00992 4.86023 1.14992 4.63023C1.27992 4.40023 1.52992 4.25023 1.79992 4.25023H5.29992C5.56992 4.25023 5.81994 4.40023 5.94994 4.63023L8.64992 9.43022C8.77992 9.66022 8.77994 9.95022 8.63994 10.1802L6.93993 13.0802C6.80993 13.3102 6.56992 13.4502 6.29992 13.4502ZM3.10991 5.75023L6.29992 11.2202L7.12993 9.80023L4.85991 5.76022H3.10991V5.75023Z" />
</svg>
