<?xml version="1.0" encoding="UTF-8"?>
<svg width="24" height="24" viewBox="0 0 24 24" xmlns="http://www.w3.org/2000/svg">
 <path d="m15 22.75h-6c-5.43 0-7.75-2.32-7.75-7.75v-6c0-5.43 2.32-7.75 7.75-7.75h6c5.43 0 7.75 2.32 7.75 7.75v6c0 5.43-2.32 7.75-7.75 7.75zm-6-20c-4.61 0-6.25 1.64-6.25 6.25v6c0 4.61 1.64 6.25 6.25 6.25h6c4.61 0 6.25-1.64 6.25-6.25v-6c0-4.61-1.64-6.25-6.25-6.25h-6z"/>
 <path d="m17.96 16.281h-1.77c-1.39 0-2.52-1.1299-2.52-2.5199s1.13-2.5201 2.52-2.5201h1.02v-2.78c0-0.41 0.34-0.75 0.75-0.75s0.75 0.34 0.75 0.75v7.06c0 0.43-0.34 0.76-0.75 0.76zm-1.77-3.53c-0.56 0-1.02 0.46-1.02 1.02s0.46 1.0201 1.02 1.0201h1.02v-2.03h-1.02v-0.0101z"/>
 <path d="m11.69 16.28c-0.22 0-0.44-0.1-0.59-0.28l-5.65-7.06c-0.26-0.32-0.20999-0.79999 0.12001-1.05 0.32-0.26 0.79998-0.21 1.05 0.12l5.65 7.06c0.26 0.32 0.21 0.8-0.12 1.05-0.13 0.11-0.29 0.16-0.46 0.16z"/>
 <path d="m6.0398 16.279c-0.16 0-0.32998-0.05-0.46998-0.16-0.32-0.26-0.38002-0.73-0.12002-1.05l5.65-7.06c0.26-0.32 0.73-0.38 1.05-0.12s0.38 0.72999 0.12 1.05l-5.65 7.06c-0.14 0.18-0.36 0.28-0.58 0.28z"/>
</svg>
