<svg width="24" height="24" viewBox="0 0 24 24"  xmlns="http://www.w3.org/2000/svg">
<path d="M15 22.75H9C3.57 22.75 1.25 20.43 1.25 15V9C1.25 3.57 3.57 1.25 9 1.25H15C20.43 1.25 22.75 3.57 22.75 9V15C22.75 20.43 20.43 22.75 15 22.75ZM9 2.75C4.39 2.75 2.75 4.39 2.75 9V15C2.75 19.61 4.39 21.25 9 21.25H15C19.61 21.25 21.25 19.61 21.25 15V9C21.25 4.39 19.61 2.75 15 2.75H9Z" />
<path d="M17.96 16.28H16.19C14.8 16.28 13.67 15.15 13.67 13.76C13.67 12.37 14.8 11.24 16.19 11.24H17.21V8.45999C17.21 8.04999 17.55 7.70999 17.96 7.70999C18.37 7.70999 18.71 8.04999 18.71 8.45999V15.52C18.71 15.95 18.37 16.28 17.96 16.28ZM16.19 12.75C15.63 12.75 15.17 13.21 15.17 13.77C15.17 14.33 15.63 14.79 16.19 14.79H17.21V12.76H16.19V12.75Z" />
<path d="M11.69 16.28C11.47 16.28 11.25 16.18 11.1 16L5.44999 8.94C5.18999 8.62 5.24 8.14002 5.57 7.89002C5.89 7.63002 6.36999 7.68001 6.61999 8.01001L12.27 15.07C12.53 15.39 12.48 15.87 12.15 16.12C12.02 16.23 11.86 16.28 11.69 16.28Z" />
<path d="M6.03999 16.28C5.87999 16.28 5.71001 16.23 5.57001 16.12C5.25001 15.86 5.19 15.39 5.45 15.07L11.1 8.01C11.36 7.69 11.83 7.63001 12.15 7.89001C12.47 8.15001 12.53 8.61999 12.27 8.93999L6.62 16C6.48 16.18 6.25999 16.28 6.03999 16.28Z" />
</svg>
