<?xml version="1.0" encoding="UTF-8"?>
<svg width="24" height="24" viewBox="0 0 24 24" xmlns="http://www.w3.org/2000/svg">
 <path d="m12 11.49c-1.32 0-2.5599-0.51-3.4899-1.45l-5.73-5.73c-0.52-0.52-0.67002-1.29-0.39002-1.96s0.92997-1.11 1.66-1.11h1.41c1.04 0 2.02 0.41 2.75 1.14l3.5799 3.58c0.15 0.15 0.2701 0.15 0.4201 0l3.5799-3.58c0.74-0.74 1.71-1.14 2.75-1.14h1.4101c0.73 0 1.3799 0.44 1.6599 1.11s0.13 1.44-0.39 1.96l-5.73 5.73c-0.93 0.94-2.17 1.45-3.49 1.45zm-7.95-8.74c-0.17 0-0.24996 0.12-0.27996 0.18s-0.06001 0.2 0.05999 0.32l5.73 5.73c1.3 1.3 3.57 1.3 4.87 0l5.73-5.73c0.12-0.12 0.09-0.26 0.06-0.32s-0.0999-0.18-0.28-0.18h-1.4099c-0.64 0-1.24 0.25-1.69 0.7l-3.58 3.58c-0.7 0.7-1.8401 0.7-2.5401 0l-3.5799-3.58c-0.45-0.45-1.05-0.7-1.69-0.7h-1.4z"/>
 <path d="m19.95 22.721h-1.4101c-1.04 0-2.02-0.41-2.75-1.14l-3.5799-3.58c-0.15-0.15-0.2701-0.15-0.4201 0l-3.5799 3.58c-0.74 0.74-1.71 1.14-2.75 1.14h-1.41c-0.73 0-1.38-0.44-1.66-1.11s-0.12998-1.44 0.39002-1.96l5.73-5.73c0.93-0.93 2.1699-1.45 3.4899-1.45s2.56 0.51 3.49 1.45l5.73 5.73c0.52 0.52 0.67 1.29 0.39 1.96s-0.9299 1.11-1.6599 1.11zm-7.9501-6.3c0.46 0 0.9201 0.18 1.2701 0.53l3.5799 3.58c0.45 0.45 1.05 0.7 1.69 0.7h1.4101c0.17 0 0.2499-0.12 0.2799-0.18s0.06-0.2-0.06-0.32l-5.73-5.73c-1.3-1.3-3.5699-1.3-4.87 0l-5.73 5.73c-0.12 0.12-0.08999 0.26-0.05999 0.32s0.09996 0.18 0.27996 0.18h1.41c0.64 0 1.24-0.25 1.69-0.7l3.58-3.58c0.34-0.36 0.8-0.53 1.26-0.53z"/>
</svg>
