<svg width="24" height="24" viewBox="0 0 24 24"  xmlns="http://www.w3.org/2000/svg">
<path d="M5.45991 2H4.04991C3.11991 2 2.64991 3.13 3.30991 3.79L9.03991 9.52C10.6799 11.16 13.3299 11.16 14.9699 9.52L20.6999 3.79C21.3499 3.13 20.8799 2 19.9499 2H18.5399C17.7099 2 16.9099 2.33 16.3199 2.92L12.7399 6.5C12.3299 6.91 11.6699 6.91 11.2599 6.5L7.67991 2.92C7.08991 2.33 6.28991 2 5.45991 2Z" />
<path opacity="0.4" d="M5.45991 21.9697H4.04991C3.11991 21.9697 2.64991 20.8397 3.30991 20.1797L9.03991 14.4497C10.6799 12.8097 13.3299 12.8097 14.9699 14.4497L20.6999 20.1797C21.3599 20.8397 20.8899 21.9697 19.9599 21.9697H18.5499C17.7199 21.9697 16.9199 21.6397 16.3299 21.0497L12.7499 17.4697C12.3399 17.0597 11.6799 17.0597 11.2699 17.4697L7.68991 21.0497C7.08991 21.6397 6.28991 21.9697 5.45991 21.9697Z" />
</svg>
