<svg width="24" height="24" viewBox="0 0 24 24"  xmlns="http://www.w3.org/2000/svg">
<path d="M11.9998 11.4902C10.6798 11.4902 9.43986 10.9802 8.50986 10.0402L2.77988 4.31023C2.25988 3.79023 2.10986 3.02023 2.38986 2.35023C2.66986 1.68023 3.31983 1.24023 4.04983 1.24023H5.45987C6.49987 1.24023 7.47987 1.65023 8.20987 2.38023L11.7898 5.96023C11.9398 6.11023 12.0599 6.11023 12.2099 5.96023L15.7898 2.38023C16.5298 1.64023 17.4998 1.24023 18.5398 1.24023H19.9499C20.6799 1.24023 21.3298 1.68023 21.6098 2.35023C21.8898 3.02023 21.7398 3.79023 21.2198 4.31023L15.4898 10.0402C14.5598 10.9802 13.3198 11.4902 11.9998 11.4902ZM4.04983 2.75023C3.87983 2.75023 3.79987 2.87023 3.76987 2.93023C3.73987 2.99023 3.70986 3.13023 3.82986 3.25023L9.55984 8.98023C10.8598 10.2802 13.1298 10.2802 14.4298 8.98023L20.1598 3.25023C20.2798 3.13023 20.2498 2.99023 20.2198 2.93023C20.1898 2.87023 20.1199 2.75023 19.9398 2.75023H18.5299C17.8899 2.75023 17.2899 3.00023 16.8399 3.45023L13.2599 7.03023C12.5599 7.73023 11.4198 7.73023 10.7198 7.03023L7.13986 3.45023C6.68986 3.00023 6.08986 2.75023 5.44986 2.75023H4.04983Z" />
<path d="M19.9499 22.7207H18.5398C17.4998 22.7207 16.5198 22.3107 15.7898 21.5807L12.2099 18.0007C12.0599 17.8507 11.9398 17.8507 11.7898 18.0007L8.20987 21.5807C7.46987 22.3207 6.49987 22.7207 5.45987 22.7207H4.04983C3.31983 22.7207 2.66986 22.2807 2.38986 21.6107C2.10986 20.9407 2.25988 20.1707 2.77988 19.6507L8.50986 13.9207C9.43986 12.9907 10.6798 12.4707 11.9998 12.4707C13.3198 12.4707 14.5598 12.9807 15.4898 13.9207L21.2198 19.6507C21.7398 20.1707 21.8898 20.9407 21.6098 21.6107C21.3298 22.2807 20.6799 22.7207 19.9499 22.7207ZM11.9998 16.4207C12.4598 16.4207 12.9199 16.6007 13.2699 16.9507L16.8498 20.5307C17.2998 20.9807 17.8998 21.2307 18.5398 21.2307H19.9499C20.1199 21.2307 20.1998 21.1107 20.2298 21.0507C20.2598 20.9907 20.2898 20.8507 20.1698 20.7307L14.4398 15.0007C13.1398 13.7007 10.8699 13.7007 9.56985 15.0007L3.83987 20.7307C3.71987 20.8507 3.74988 20.9907 3.77988 21.0507C3.80988 21.1107 3.87984 21.2307 4.05984 21.2307H5.46982C6.10982 21.2307 6.70982 20.9807 7.15982 20.5307L10.7398 16.9507C11.0798 16.5907 11.5398 16.4207 11.9998 16.4207Z" />
</svg>
