<?xml version="1.0" encoding="UTF-8"?>
<svg width="24" height="24" viewBox="0 0 24 24" xmlns="http://www.w3.org/2000/svg">
 <path d="m17 20.75h-10c-3.44 0-5.75-2.31-5.75-5.75v-6c0-3.44 2.31-5.75 5.75-5.75h10c3.44 0 5.75 2.31 5.75 5.75v6c0 3.44-2.31 5.75-5.75 5.75zm-10-16c-2.58 0-4.25 1.67-4.25 4.25v6c0 2.58 1.67 4.25 4.25 4.25h10c2.58 0 4.25-1.67 4.25-4.25v-6c0-2.58-1.67-4.25-4.25-4.25h-10z"/>
 <path d="m10.59 15.529c-0.29 0-0.57-0.07-0.81996-0.21-0.58-0.33-0.92004-1-0.92004-1.83v-2.96c0-0.82996 0.33004-1.5 0.92004-1.83 0.57996-0.33 1.33-0.27002 2.04 0.15998l2.4701 1.48c0.68 0.41 1.0699 1.0201 1.0699 1.6701s-0.3899 1.2599-1.0699 1.6699l-2.4701 1.48c-0.41 0.24-0.83 0.37-1.22 0.37zm0-5.56c-0.04 0-0.07 0.00999-0.09 0.01999-0.07 0.03997-0.15 0.21997-0.15 0.52997v2.9601c0 0.3 0.08 0.48 0.15 0.53 0.08 0.04 0.2701 0.0199 0.5301-0.1401l2.4699-1.4799c0.25-0.15 0.34-0.3001 0.34-0.3901s-0.09-0.23-0.34-0.39l-2.4699-1.48c-0.18-0.11-0.3401-0.15996-0.4401-0.15996z"/>
</svg>
