<?xml version="1.0" encoding="UTF-8"?>
<svg width="24" height="24" viewBox="0 0 24 24" xmlns="http://www.w3.org/2000/svg">
 <path d="m8 16.501c-0.13 0-0.26-0.03-0.37-0.1l-2.5-1.44c-0.23-0.13-0.38-0.38-0.38-0.65v-2.85c0-0.27 0.14-0.52 0.38-0.65l2.5-1.44c0.23-0.13 0.52-0.13 0.75 0l2.5 1.44c0.23 0.13 0.38 0.38 0.38 0.65v2.85c0 0.27-0.14 0.52-0.38 0.65l-2.5 1.44c-0.12 0.07-0.25 0.1-0.38 0.1zm-1.75-2.62 1.75 1.01 1.75-1.01v-1.99l-1.75-1.01-1.75 1.01v1.99z"/>
 <path d="m16 16.501c-0.13 0-0.26-0.03-0.37-0.1l-2.5-1.44c-0.23-0.13-0.38-0.38-0.38-0.65v-2.85c0-0.27 0.14-0.52 0.38-0.65l2.5-1.44c0.23-0.13 0.52-0.13 0.75 0l2.5 1.44c0.23 0.13 0.38 0.38 0.38 0.65v2.85c0 0.27-0.14 0.52-0.38 0.65l-2.5 1.44c-0.12 0.07-0.25 0.1-0.38 0.1zm-1.75-2.62 1.75 1.01 1.75-1.01v-1.99l-1.75-1.01-1.75 1.01v1.99z"/>
 <path d="m12 14.8c-0.13 0-0.26-0.03-0.37-0.1l-1.5-0.86c-0.23-0.13-0.38-0.38-0.38-0.65v-1.3l-0.87-0.5c-0.23-0.13-0.38-0.38-0.38-0.65v-1.42c0-0.27 0.14-0.52001 0.38-0.65001l2.75-1.58c0.23-0.13 0.52-0.13 0.75 0l2.75 1.58c0.23 0.13 0.38 0.38001 0.38 0.65001v1.42c0 0.27-0.14 0.52-0.38 0.65l-0.87 0.5v1.3c0 0.27-0.14 0.52-0.38 0.65l-1.5 0.86c-0.12 0.07-0.25 0.1-0.38 0.1zm-0.75-2.04 0.75 0.43 0.75-0.43v-1.3c0-0.27 0.14-0.52 0.38-0.65l0.87-0.5v-0.55001l-2-1.15-2 1.15v0.55001l0.87 0.5c0.23 0.13 0.38 0.38 0.38 0.65v1.3z"/>
 <path d="m12 22.75c-5.93 0-10.75-4.82-10.75-10.75s4.82-10.75 10.75-10.75 10.75 4.82 10.75 10.75-4.82 10.75-10.75 10.75zm0-20c-5.1 0-9.25 4.15-9.25 9.25s4.15 9.25 9.25 9.25 9.25-4.15 9.25-9.25-4.15-9.25-9.25-9.25z"/>
</svg>
