<svg width="24" height="24" viewBox="0 0 24 24"  xmlns="http://www.w3.org/2000/svg">
<path opacity="0.4" d="M12 22C17.5228 22 22 17.5228 22 12C22 6.47715 17.5228 2 12 2C6.47715 2 2 6.47715 2 12C2 17.5228 6.47715 22 12 22Z" />
<path fill-rule="evenodd" clip-rule="evenodd" d="M6.25 9.67976V12.4798C6.25 14.0198 7.50001 15.2598 9.04001 15.2498L12.72 15.2198C13.23 15.2198 13.64 14.7998 13.64 14.2998V11.5298C13.64 9.99977 12.4 8.75977 10.87 8.75977H7.17999C6.65999 8.75977 6.25 9.16976 6.25 9.67976Z" />
<path fill-rule="evenodd" clip-rule="evenodd" d="M17.75 10.0201V14.0001C17.75 14.4301 17.27 14.6901 16.91 14.4501L14.99 13.1701C14.84 13.0701 14.75 12.9001 14.75 12.7201V11.3001C14.75 11.1201 14.84 10.9501 14.99 10.8501L16.91 9.57013C17.27 9.33013 17.75 9.59012 17.75 10.0201Z" />
</svg>
