<?xml version="1.0" encoding="UTF-8"?>
<svg width="24" height="24" viewBox="0 0 24 24" xmlns="http://www.w3.org/2000/svg">
 <path d="m8.77 15.99c-0.93 0-1.81-0.36-2.48-1.02-0.67-0.67-1.04-1.55-1.04-2.5v-2.8c0-0.92 0.75001-1.67 1.67-1.67h3.69c1.94 0 3.52 1.58 3.52 3.52v2.77c0 0.92-0.75 1.67-1.66 1.67l-3.68 0.03h-0.02002zm-1.85-6.48c-0.1 0-0.17001 0.07998-0.17001 0.16998v2.8c0 0.54 0.21001 1.05 0.60001 1.43 0.38 0.38 0.9 0.62 1.44 0.59l3.68-0.03c0.09 0 0.17-0.08 0.17-0.17v-2.77c0-1.11-0.91-2.02-2.02-2.02h-3.7z"/>
 <path d="m18 15.531c-0.15 0-0.29-0.04-0.42-0.13l-2.77-1.85c-0.21-0.14-0.33-0.37-0.33-0.62v-1.85c0-0.25 0.13-0.49 0.33-0.62l2.77-1.85c0.23-0.15 0.53-0.16997 0.77-0.03997s0.4 0.38 0.4 0.66v5.54c0 0.28-0.15 0.53-0.4 0.66-0.11 0.07-0.23 0.1-0.35 0.1zm-2.02-3 1.27 0.85v-2.74l-1.27 0.85v1.04z"/>
 <path d="m12 22.75c-5.93 0-10.75-4.82-10.75-10.75s4.82-10.75 10.75-10.75 10.75 4.82 10.75 10.75-4.82 10.75-10.75 10.75zm0-20c-5.1 0-9.25 4.15-9.25 9.25s4.15 9.25 9.25 9.25 9.25-4.15 9.25-9.25-4.15-9.25-9.25-9.25z"/>
</svg>
