<?xml version="1.0" encoding="UTF-8"?>
<svg width="24" height="24" viewBox="0 0 24 24" xmlns="http://www.w3.org/2000/svg">
 <path d="m12 2c-5.52 0-10 4.48-10 10s4.48 10 10 10 10-4.48 10-10-4.48-10-10-10zm4.3 14.69c-0.1 0.04-0.2 0.06-0.3 0.06-0.29 0-0.56-0.17-0.69-0.45l-3.31-7.45-1.07 2.4h1.07c0.41 0 0.75 0.34 0.75 0.75s-0.34 0.75-0.75 0.75h-1.73l-1.58 3.55c-0.17 0.38-0.61999 0.55-0.98999 0.38-0.38-0.17-0.55-0.61-0.38-0.99l1.31-2.95h-0.63c-0.41 0-0.75-0.34-0.75-0.75s0.34-0.75 0.75-0.75h1.29l2.02-4.55c0.24-0.54 1.13-0.54 1.37 0l4 9c0.17 0.38 0 0.83-0.38 1z"/>
</svg>
