<?xml version="1.0" encoding="UTF-8"?>
<svg width="24" height="24" viewBox="0 0 24 24" xmlns="http://www.w3.org/2000/svg">
 <path d="m16.19 2h-8.38c-3.64 0-5.81 2.17-5.81 5.81v8.37c0 3.65 2.17 5.82 5.81 5.82h8.37c3.64 0 5.81-2.17 5.81-5.81v-8.38c0.01-3.64-2.16-5.81-5.8-5.81zm1.07 7.96-2.31 2.98c-0.29 0.37-0.7 0.61-1.17 0.66-0.47 0.06-0.93-0.07-1.3-0.36l-1.83-1.44c-0.07-0.06-0.15-0.06-0.19-0.05-0.04 0-0.11 0.02-0.17 0.1l-2.38 3.09c-0.15 0.19-0.37 0.29-0.59 0.29-0.16 0-0.32-0.05-0.46-0.16-0.33-0.25-0.39-0.72-0.14-1.05l2.38-3.09c0.29-0.37 0.7-0.61 1.17-0.67 0.46-0.06 0.93 0.07 1.3 0.36l1.83 1.44c0.07 0.06 0.14 0.06 0.19 0.05 0.04 0 0.11-0.02 0.17-0.1l2.31-2.98c0.25-0.33 0.73-0.39 1.05-0.13 0.33 0.27 0.39 0.74 0.14 1.06z"/>
</svg>
