<?xml version="1.0" encoding="UTF-8"?>
<svg width="24" height="24" viewBox="0 0 24 24" xmlns="http://www.w3.org/2000/svg">
 <path d="M13.43 5.43V6.77C10.81 6.98 9.32 8.66 9.32 11.43V16H5.43C3.14 16 2 14.86 2 12.57V5.43C2 3.14 3.14 2 5.43 2H10C12.29 2 13.43 3.14 13.43 5.43Z"/>
 <path d="m18.57 8h-4.57c-2.29 0-3.43 1.14-3.43 3.43v7.14c0 2.29 1.14 3.43 3.43 3.43h4.57c2.29 0 3.43-1.14 3.43-3.43v-7.14c0-2.29-1.14-3.43-3.43-3.43zm-0.44 7.75h-0.88v0.88c0 0.41-0.34 0.75-0.75 0.75s-0.75-0.34-0.75-0.75v-0.88h-0.88c-0.41 0-0.75-0.34-0.75-0.75s0.34-0.75 0.75-0.75h0.88v-0.88c0-0.41 0.34-0.75 0.75-0.75s0.75 0.34 0.75 0.75v0.88h0.88c0.41 0 0.75 0.34 0.75 0.75s-0.34 0.75-0.75 0.75z"/>
</svg>
