<?xml version="1.0" encoding="UTF-8"?>
<svg width="24" height="24" viewBox="0 0 24 24" xmlns="http://www.w3.org/2000/svg">
 <path d="m14.13 11.34c0.39-1.64-1.04-3.07-2.68-2.68-0.77 0.19-1.4 0.82-1.59 1.59-0.39 1.64 1.04 3.07 2.68 2.68 0.78-0.19 1.41-0.82 1.59-1.59z"/>
 <path d="m6.02 17.97c-0.18 0-0.37-0.07-0.51-0.2-1.94-1.8-3.05-4.34-3.05-6.98 0-5.26 4.28-9.54 9.54-9.54 5.26 0 9.54 4.28 9.54 9.54 0 2.66-1.07 5.12-3.01 6.95-0.3 0.28-0.78 0.27-1.06-0.03s-0.27-0.78 0.03-1.06c1.64-1.54 2.54-3.61 2.54-5.85 0-4.43-3.61-8.04-8.04-8.04-4.43 0-8.04 3.61-8.04 8.04 0 2.26 0.91 4.34 2.57 5.88 0.3 0.28 0.32 0.76 0.04 1.06-0.15 0.15-0.35 0.23-0.55 0.23z"/>
 <path d="m16 15.3c-0.18 0-0.37-0.07-0.51-0.2-0.3-0.28-0.32-0.76-0.03-1.06 0.83-0.88 1.29-2.04 1.29-3.24 0-2.62-2.13-4.74-4.74-4.74-2.61 0-4.74 2.13-4.74 4.74 0 1.21 0.46 2.36 1.29 3.24 0.28 0.3 0.27 0.78-0.03 1.06-0.3 0.29-0.78 0.27-1.06-0.03-1.09-1.16-1.7-2.68-1.7-4.27 0-3.44 2.8-6.24 6.24-6.24 3.44 0 6.24 2.8 6.24 6.24 0 1.59-0.6 3.11-1.7 4.27-0.15 0.15-0.35 0.23-0.55 0.23z"/>
 <path d="m10.3 16.66-1.44 1.79c-1.14 1.43-0.11999 3.55 1.7 3.55h2.87c1.83 0 2.85-2.12 1.7-3.54l-1.44-1.79c-0.86-1.1-2.52-1.1-3.39-0.01z"/>
</svg>
