<?xml version="1.0" encoding="UTF-8"?>
<svg width="24" height="24" viewBox="0 0 24 24" xmlns="http://www.w3.org/2000/svg">
 <path d="m15.08 11.34h-6.16c-0.64 0-1.27-0.26-1.72-0.72-0.14-0.14-0.26-0.29-0.36-0.46-0.18-0.29998-0.5-0.48998-0.85-0.48998h-2.49c-0.55 0-1 0.44998-1 0.99998v6.83c0 2.49 2.01 4.5 4.5 4.5h10c2.49 0 4.5-2.01 4.5-4.5v-6.83c0-0.55-0.45-0.99998-1-0.99998h-2.5c-0.36 0-0.68 0.2-0.86 0.50998-0.42 0.69-1.19 1.16-2.06 1.16z"/>
 <path d="m17 2h-10c-2.49 0-4.5 2.01-4.5 4.5v0.67c0 0.55 0.45 1 1 1h2.5c0.36 0 0.68-0.2 0.86-0.51 0.42-0.69 1.19-1.16 2.06-1.16h5.99c0.61 0 1.49 0.32 1.91 0.75 0.13 0.13 0.23 0.27 0.33 0.42 0.18 0.3 0.5 0.5 0.86 0.5h2.5c0.55 0 1-0.45 1-1v-0.67c-0.01-2.49-2.02-4.5-4.51-4.5z"/>
</svg>
