<?xml version="1.0" encoding="UTF-8"?>
<svg width="24" height="24" viewBox="0 0 24 24" xmlns="http://www.w3.org/2000/svg">
 <path d="m20.05 10.63-4.67-2.01-1.04-0.44c-0.16-0.08-0.3-0.29-0.3-0.47v-3.06c0-0.96-0.71-2.1-1.57-2.54-0.3-0.15-0.66-0.15-0.96 0-0.85 0.44-1.56 1.59-1.56 2.55v3.06c0 0.18-0.14 0.39-0.3 0.47l-5.7 2.45c-0.63 0.26-1.14 1.05-1.14 1.73v1.32c0 0.85 0.64 1.27 1.43 0.93l5.01-2.16c0.39-0.17 0.71 0.04 0.71 0.47v2.91c0 0.23-0.13 0.56-0.29 0.72l-2.32 2.33c-0.24 0.24-0.35 0.71-0.24 1.05l0.45 1.36c0.18 0.59 0.85 0.87 1.4 0.59l2.38-2c0.36-0.31 0.95-0.31 1.31 0l2.38 2c0.55 0.27 1.22 0 1.42-0.59l0.45-1.36c0.11-0.33 0-0.81-0.24-1.05l-2.32-2.33c-0.17-0.16-0.3-0.49-0.3-0.72v-2.91c0-0.43 0.31-0.63 0.71-0.47l5.01 2.16c0.79 0.34 1.43-0.08 1.43-0.93v-1.32c0-0.68-0.51-1.47-1.14-1.74z"/>
</svg>
