<?xml version="1.0" encoding="UTF-8"?>
<svg width="24" height="24" viewBox="0 0 24 24" xmlns="http://www.w3.org/2000/svg">
 <path d="m16.19 2h-8.38c-3.64 0-5.81 2.17-5.81 5.81v8.37c0 3.65 2.17 5.82 5.81 5.82h8.37c3.64 0 5.81-2.17 5.81-5.81v-8.38c0.01-3.64-2.16-5.81-5.8-5.81zm2.32 11.19c0 0.6-0.46 0.9-1.01 0.66l-3.35-1.44c-0.39-0.16-0.7 0.04-0.7 0.46v1.85c0 0.16 0.09 0.39 0.21 0.51l1.64 1.65c0.17 0.17 0.25 0.51 0.17 0.74l-0.32 0.96c-0.14 0.42-0.62 0.62-1.01 0.42l-1.67-1.42c-0.26-0.21-0.68-0.21-0.93 0l-1.68 1.42c-0.4 0.2-0.87 0-1.01-0.43l-0.32-0.96c-0.08-0.23 0-0.57 0.17-0.74l1.67-1.64c0.11-0.11 0.21-0.34 0.21-0.51v-1.85c0-0.42-0.32-0.63-0.7-0.46l-3.35 1.44c-0.56 0.24-1.01-0.06-1.01-0.66v-0.93c0-0.48 0.37-1.04 0.81-1.23l3.94-1.7c0.16-0.07 0.3-0.28 0.3-0.46v-2.07c0-0.68 0.49-1.49 1.1-1.79 0.22-0.11 0.47-0.11 0.69 0 0.6 0.31 1.1 1.11 1.1 1.79v2.07c0 0.18 0.13 0.39 0.3 0.46l3.94 1.7c0.45 0.19 0.81 0.75 0.81 1.23v0.93z"/>
</svg>
