<?xml version="1.0" encoding="UTF-8"?>
<svg width="24" height="24" viewBox="0 0 24 24" xmlns="http://www.w3.org/2000/svg">
 <path d="m7.67 2h-1.89c-1.04 0-1.98 0.42-2.67 1.11s-1.11 1.63-1.11 2.67c0 2.08 1.7 3.78 3.78 3.78h0.94v7.55c0 0.73 0.42 1.36 1.03 1.67 0.25 0.14 0.55 0.22 0.86 0.22 0.22 0 0.44-0.04 0.64-0.12 0.73-0.26 1.25-0.95 1.25-1.77v-12.28c0-1.55-1.28-2.83-2.83-2.83zm-1.89 3.97c0.41 0 0.75 0.34 0.75 0.75s-0.34 0.75-0.75 0.75c-0.93 0-1.69-0.76-1.69-1.7s0.76-1.69 1.69-1.69c0.41 0 0.75 0.34 0.75 0.75s-0.34 0.75-0.75 0.75c-0.11 0-0.19 0.09-0.19 0.19s0.08 0.2 0.19 0.2z"/>
 <path d="m20.89 3.11c-0.69-0.69-1.63-1.11-2.67-1.11h-1.89c-1.56 0-2.83 1.28-2.83 2.83v12.28c0 0.82 0.52 1.51 1.25 1.77 0.2 0.08 0.42 0.12 0.64 0.12 0.31 0 0.61-0.08 0.86-0.22 0.61-0.31 1.03-0.94 1.03-1.67v-7.55h0.94c2.08 0 3.78-1.7 3.78-3.78 0-1.04-0.42-1.98-1.11-2.67zm-2.67 4.36c-0.41 0-0.75-0.34-0.75-0.75s0.34-0.75 0.75-0.75c0.11 0 0.19-0.09 0.19-0.2s-0.09-0.19-0.19-0.19c-0.41 0-0.75-0.34-0.75-0.75s0.34-0.75 0.75-0.75c0.93 0 1.69 0.76 1.69 1.69s-0.75 1.7-1.69 1.7z"/>
 <path d="m9.25 18.88v3.12c0 0.41-0.34 0.75-0.75 0.75s-0.75-0.34-0.75-0.75v-3.22c0.25 0.14 0.55 0.22 0.86 0.22 0.22 0 0.44-0.04 0.64-0.12z"/>
 <path d="m16.25 18.78v3.22c0 0.41-0.34 0.75-0.75 0.75s-0.75-0.34-0.75-0.75v-3.12c0.2 0.08 0.42 0.12 0.64 0.12 0.31 0 0.61-0.08 0.86-0.22z"/>
</svg>
