<?xml version="1.0" encoding="UTF-8"?>
<svg width="24" height="24" viewBox="0 0 24 24" xmlns="http://www.w3.org/2000/svg">
 <path d="m4.75 17.4v-10.8c0-1.5 0.64-2.1 2.23-2.1h1.04c1.59 0 2.23 0.6 2.23 2.1v10.8c0 1.5-0.64 2.1-2.23 2.1h-1.04c-1.59 0-2.23-0.6-2.23-2.1z"/>
 <path d="m4.75 12.75h-2c-0.41 0-0.75-0.34-0.75-0.75s0.34-0.75 0.75-0.75h2v1.5z"/>
 <path d="m13.25 11.25h-3v1.5h3v-1.5z"/>
 <path d="m21.25 12.75h-2.5v-1.5h2.5c0.41 0 0.75 0.34 0.75 0.75s-0.34 0.75-0.75 0.75z"/>
 <path d="m13.25 15.4v-6.8c0-1.5 0.64-2.1 2.23-2.1h1.04c1.59 0 2.23 0.6 2.23 2.1v6.8c0 1.5-0.64 2.1-2.23 2.1h-1.04c-1.59 0-2.23-0.6-2.23-2.1z"/>
</svg>
