<svg width="24" height="24" viewBox="0 0 24 24"  xmlns="http://www.w3.org/2000/svg">
<path d="M20.8899 10.5303C20.4799 10.5303 20.1399 10.1903 20.1399 9.78032V6.91032L11.9999 2.84031L3.85986 6.91032V9.78032C3.85986 10.1903 3.51986 10.5303 3.10986 10.5303C2.69986 10.5303 2.35986 10.1903 2.35986 9.78032V6.45031C2.35986 6.17031 2.51991 5.91031 2.77991 5.78031L11.6699 1.34031C11.8799 1.23031 12.1299 1.23031 12.3399 1.34031L21.2299 5.78031C21.4799 5.91031 21.6499 6.17031 21.6499 6.45031V9.78032C21.6399 10.1903 21.2999 10.5303 20.8899 10.5303Z" />
<path d="M11.9999 22.7505C11.8799 22.7505 11.7699 22.7205 11.6699 22.6705L2.77991 18.2305C2.52991 18.1005 2.35986 17.8405 2.35986 17.5605V14.2305C2.35986 13.8205 2.69986 13.4805 3.10986 13.4805C3.51986 13.4805 3.85986 13.8205 3.85986 14.2305V17.1005L11.9999 21.1705L20.1399 17.1005V14.2305C20.1399 13.8205 20.4799 13.4805 20.8899 13.4805C21.2999 13.4805 21.6399 13.8205 21.6399 14.2305V17.5605C21.6399 17.8405 21.4798 18.1005 21.2198 18.2305L12.3299 22.6705C12.2299 22.7205 12.1199 22.7505 11.9999 22.7505Z" />
<path d="M16.4401 11.9996C16.4401 9.54957 14.4501 7.55957 12.0001 7.55957C9.55006 7.55957 7.56006 9.54957 7.56006 11.9996C7.56006 14.1996 9.17008 16.0196 11.2701 16.3696C11.2701 16.3996 11.2601 16.4196 11.2601 16.4396V21.9996C11.2601 22.4096 11.6001 22.7496 12.0101 22.7496C12.4201 22.7496 12.7601 22.4096 12.7601 21.9996V16.4396C12.7601 16.4096 12.7501 16.3896 12.7501 16.3696C14.8401 16.0196 16.4401 14.1996 16.4401 11.9996Z" />
</svg>
