<?xml version="1.0" encoding="UTF-8"?>
<svg width="24" height="24" viewBox="0 0 24 24" xmlns="http://www.w3.org/2000/svg">
 <path d="m20.89 10.53c-0.41 0-0.75-0.34-0.75-0.74998v-2.87l-8.14-4.07-8.14 4.07v2.87c0 0.40998-0.34 0.74998-0.75 0.74998s-0.75-0.34-0.75-0.74998v-3.33c0-0.28 0.16005-0.53999 0.42005-0.67l8.89-4.44c0.21-0.11 0.46-0.11 0.67 0l8.89 4.44c0.25 0.13001 0.42 0.39 0.42 0.67v3.33c-0.01 0.40998-0.35 0.74998-0.76 0.74998z"/>
 <path d="m12 22.75c-0.12 0-0.23-0.03-0.33-0.08l-8.89-4.44c-0.25-0.13-0.42005-0.39-0.42005-0.67v-3.33c0-0.41 0.34-0.75 0.75-0.75s0.75 0.34 0.75 0.75v2.87l8.14 4.07 8.14-4.07v-2.87c0-0.41 0.34-0.75 0.75-0.75s0.75 0.34 0.75 0.75v3.33c0 0.28-0.1601 0.54-0.4201 0.67l-8.8899 4.44c-0.1 0.05-0.21 0.08-0.33 0.08z"/>
 <path d="m16.44 12c0-2.45-1.99-4.44-4.44-4.44-2.45 0-4.44 1.99-4.44 4.44 0 2.2 1.61 4.02 3.71 4.37 0 0.03-0.01 0.0501-0.01 0.0701v5.5599c0 0.41 0.34 0.75 0.75 0.75s0.75-0.34 0.75-0.75v-5.5599c0-0.03-0.01-0.0501-0.01-0.0701 2.09-0.35 3.69-2.17 3.69-4.37z"/>
</svg>
