<?xml version="1.0" encoding="UTF-8"?>
<svg width="24" height="24" viewBox="0 0 24 24" xmlns="http://www.w3.org/2000/svg">
 <path d="m20.12 3.88-16.73 16.73c-0.05-0.2-0.07-0.42-0.07-0.66v-14.09c0-2.12 1.73-3.86 3.86-3.86h9.64c1.4 0 2.63 0.75 3.3 1.88z"/>
 <path d="m21.77 2.2299c-0.3-0.3-0.79-0.3-1.09 0l-18.45 18.46c-0.3 0.3-0.3 0.79 0 1.09 0.15 0.14 0.34 0.22 0.54 0.22s0.39-0.08 0.54-0.23l18.46-18.46c0.31-0.3 0.31-0.78 0-1.08z"/>
 <path d="m19.29 7.7096-7.39 7.39c-0.46 0.46-0.37 1.23 0.19 1.56l7.39 4.43c0.67 0.4 1.51-0.08 1.51-0.86v-11.82c0.01-0.89-1.07-1.33-1.7-0.7z"/>
</svg>
