<?xml version="1.0" encoding="UTF-8"?>
<svg width="24" height="24" viewBox="0 0 24 24" xmlns="http://www.w3.org/2000/svg">
 <path d="m16.82 2h-9.64c-2.13 0-3.86 1.74-3.86 3.86v14.09c0 1.8 1.29 2.56 2.87 1.69l4.88-2.71c0.52-0.29 1.36-0.29 1.87 0l4.88 2.71c1.58 0.88 2.87 0.12 2.87-1.69v-14.09c-0.01-2.12-1.74-3.86-3.87-3.86zm-1.81 7.75c-0.97 0.35-1.99 0.53-3.01 0.53s-2.04-0.18-3.01-0.53c-0.39-0.14-0.59-0.57-0.45-0.96 0.15-0.39 0.58-0.59 0.97-0.45 1.61 0.58 3.38 0.58 4.99 0 0.39-0.14 0.82 0.06 0.96 0.45s-0.06 0.82-0.45 0.96z"/>
</svg>
