<?xml version="1.0" encoding="UTF-8"?>
<svg width="24" height="24" viewBox="0 0 24 24" xmlns="http://www.w3.org/2000/svg">
 <path d="m14.93 2.5v5.9c0 0.44-0.52 0.66-0.84 0.37l-1.75-1.61c-0.19-0.18-0.49-0.18-0.68 0l-1.75 1.6c-0.32 0.3-0.84 0.07-0.84-0.36v-5.9c0-0.28 0.22-0.5 0.5-0.5h4.86c0.28 0 0.5 0.22 0.5 0.5z"/>
 <path d="m16.98 2.0599c-0.29-0.04-0.55 0.21-0.55 0.5v6.02c0 0.76-0.45 1.45-1.15 1.76-0.7 0.3-1.51 0.17-2.07-0.35001l-0.87-0.8c-0.19-0.18-0.48-0.18-0.68 0l-0.87 0.8c-0.36 0.34001-0.83 0.51001-1.3 0.51001-0.26 0-0.52-0.05-0.77-0.16-0.7-0.31-1.15-1-1.15-1.76v-6.02c0-0.29-0.26-0.54-0.55-0.5-2.8 0.35-4.02 2.24-4.02 4.94v10c0 3 1.5 5 5 5h8c3.5 0 5-2 5-5v-10c0-2.7-1.22-4.59-4.02-4.94zm0.52 16.69h-8.5c-0.41 0-0.75-0.34-0.75-0.75s0.34-0.75 0.75-0.75h8.5c0.41 0 0.75 0.34 0.75 0.75s-0.34 0.75-0.75 0.75zm0-4h-4.25c-0.41 0-0.75-0.34-0.75-0.75s0.34-0.75 0.75-0.75h4.25c0.41 0 0.75 0.34 0.75 0.75s-0.34 0.75-0.75 0.75z"/>
</svg>
