<svg width="24" height="24" viewBox="0 0 24 24"  xmlns="http://www.w3.org/2000/svg">
<path d="M20.1201 3.88L3.39007 20.61C3.34007 20.41 3.32007 20.19 3.32007 19.95V5.86C3.32007 3.74 5.05007 2 7.18007 2H16.8201C18.2201 2 19.4501 2.75 20.1201 3.88Z" />
<path d="M21.7699 2.22988C21.4699 1.92988 20.9799 1.92988 20.6799 2.22988L2.22988 20.6899C1.92988 20.9899 1.92988 21.4799 2.22988 21.7799C2.37988 21.9199 2.56988 21.9999 2.76988 21.9999C2.96988 21.9999 3.15988 21.9199 3.30988 21.7699L21.7699 3.30988C22.0799 3.00988 22.0799 2.52988 21.7699 2.22988Z" />
<path d="M19.2899 7.70956L11.8999 15.0996C11.4399 15.5596 11.5299 16.3296 12.0899 16.6596L19.4799 21.0896C20.1499 21.4896 20.9899 21.0096 20.9899 20.2296V8.40956C20.9999 7.51956 19.9199 7.07956 19.2899 7.70956Z" />
</svg>
