<?xml version="1.0" encoding="UTF-8"?>
<svg width="24" height="24" viewBox="0 0 24 24" xmlns="http://www.w3.org/2000/svg">
 <path d="m12 2c-5.52 0-10 4.48-10 10s4.48 10 10 10 10-4.48 10-10-4.48-10-10-10zm5.85 12.1c-0.04 0.09-0.09 0.17-0.16 0.24l-3.04 3.04c-0.15 0.15-0.34 0.22-0.53 0.22s-0.38-0.07-0.53-0.22c-0.29-0.29-0.29-0.77 0-1.06l1.76-1.76h-8.5c-0.41 0-0.75-0.34-0.75-0.75s0.34-0.75 0.75-0.75h10.31c0.1 0 0.19 0.02 0.29 0.06 0.18 0.08 0.33 0.22 0.41 0.41 0.06 0.18 0.06 0.39-0.01 0.57zm-0.7-3.17h-10.3c-0.1 0-0.2-0.02-0.29-0.06-0.18-0.08-0.33-0.22-0.41-0.41-0.08-0.18-0.08-0.39 0-0.57 0.04-0.09 0.09-0.17 0.16-0.24l3.04-3.04c0.29-0.29 0.77-0.29 1.06 0s0.29 0.77 0 1.06l-1.75 1.76h8.5c0.41 0 0.75 0.34 0.75 0.75s-0.34 0.75-0.76 0.75z"/>
</svg>
