<?xml version="1.0" encoding="UTF-8"?>
<svg width="24" height="24" viewBox="0 0 24 24" xmlns="http://www.w3.org/2000/svg">
 <path d="m12 2c-5.52 0-10 4.48-10 10s4.48 10 10 10 10-4.48 10-10-4.48-10-10-10zm-1.07 15.15c0 0.1-0.02 0.19-0.06 0.29-0.08 0.18-0.22 0.33-0.41 0.41-0.09 0.04-0.19 0.06-0.29 0.06s-0.19-0.02-0.29-0.06c-0.09-0.04-0.17-0.09-0.24-0.16l-3.04-3.04c-0.29-0.29-0.29-0.77 0-1.06s0.77-0.29 1.06 0l1.76 1.76v-8.5c0-0.41 0.34-0.75 0.75-0.75s0.75 0.34 0.75 0.75v10.3h0.01zm6.46-6.73c-0.15 0.15-0.34 0.22-0.53 0.22s-0.38-0.07-0.53-0.22l-1.76-1.76v8.5c0 0.41-0.34 0.75-0.75 0.75s-0.75-0.34-0.75-0.75v-10.31c0-0.1 0.02-0.19 0.06-0.29 0.08-0.18 0.22-0.33 0.41-0.41 0.18-0.08 0.39-0.08 0.57 0 0.09 0.04 0.17 0.09 0.24 0.16l3.04 3.04c0.29 0.3 0.29 0.77 0 1.07z"/>
</svg>
