<?xml version="1.0" encoding="UTF-8"?>
<svg width="24" height="24" viewBox="0 0 24 24" xmlns="http://www.w3.org/2000/svg">
 <path d="m16.19 2h-8.38c-3.64 0-5.81 2.17-5.81 5.81v8.37c0 3.65 2.17 5.82 5.81 5.82h8.37c3.64 0 5.81-2.17 5.81-5.81v-8.38c0.01-3.64-2.16-5.81-5.8-5.81zm0.63 12.24-4.29 4.29c-0.14 0.14-0.33 0.22-0.53 0.22s-0.39-0.08-0.53-0.22l-4.29-4.29c-0.29-0.29-0.29-0.77 0-1.06s0.77-0.29 1.06 0l3.01 3.01v-10.19c0-0.41 0.34-0.75 0.75-0.75s0.75 0.34 0.75 0.75v10.19l3.01-3.01c0.29-0.29 0.77-0.29 1.06 0 0.15 0.15 0.22 0.34 0.22 0.53s-0.08 0.39-0.22 0.53z"/>
</svg>
