<?xml version="1.0" encoding="UTF-8"?>
<svg width="24" height="24" viewBox="0 0 24 24" xmlns="http://www.w3.org/2000/svg">
 <path d="m16.19 2h-8.38c-3.64 0-5.81 2.17-5.81 5.81v8.37c0 3.65 2.17 5.82 5.81 5.82h8.37c3.64 0 5.81-2.17 5.81-5.81v-8.38c0.01-3.64-2.16-5.81-5.8-5.81zm3.16 6.84c-0.04 0.09-0.09 0.17-0.16 0.24l-1.8 1.8c-0.15 0.15-0.34 0.22-0.53 0.22s-0.38-0.07-0.53-0.22c-0.29-0.29-0.29-0.77 0-1.06l0.52-0.52h-0.15c-2.1 0-3.82 1.71-3.82 3.81v4.13c0 0.41-0.34 0.75-0.75 0.75s-0.75-0.34-0.75-0.75v-4.13c0-2.1-1.71-3.81-3.81-3.81h-0.42l0.52 0.52c0.29 0.29 0.29 0.77 0 1.06-0.15 0.15-0.34 0.22-0.53 0.22s-0.38-0.07-0.53-0.22l-1.8-1.8c-0.29-0.29-0.29-0.77 0-1.06l1.8-1.8c0.29-0.29 0.77-0.29 1.06 0s0.29 0.77 0 1.06l-0.52 0.52h0.43c1.95 0 3.64 1.07 4.56 2.64 0.92-1.57 2.61-2.64 4.57-2.64h0.15l-0.52-0.52c-0.29-0.29-0.29-0.77 0-1.06s0.77-0.29 1.06 0l1.8 1.8c0.07 0.07 0.12 0.15 0.16 0.24 0.07 0.19 0.07 0.4-0.01 0.58z"/>
</svg>
