<?xml version="1.0" encoding="UTF-8"?>
<svg width="24" height="24" viewBox="0 0 24 24" xmlns="http://www.w3.org/2000/svg">
 <path d="m16.19 2h-8.38c-3.64 0-5.81 2.17-5.81 5.81v8.37c0 3.65 2.17 5.82 5.81 5.82h8.37c3.64 0 5.81-2.17 5.81-5.81v-8.38c0.01-3.64-2.16-5.81-5.8-5.81zm-5.2 15c0 0.1-0.02 0.19-0.06 0.29-0.08 0.18-0.22 0.33-0.41 0.41-0.09 0.04-0.19 0.06-0.29 0.06s-0.19-0.02-0.29-0.06c-0.09-0.04-0.17-0.09-0.24-0.16l-2.95-2.95c-0.29-0.29-0.29-0.77 0-1.06s0.77-0.29 1.06 0l1.67 1.67v-8.2c0-0.41 0.34-0.75 0.75-0.75s0.76 0.34 0.76 0.75v10zm6.25-6.52c-0.15 0.15-0.34 0.22-0.53 0.22s-0.38-0.07-0.53-0.22l-1.67-1.67v8.19c0 0.41-0.34 0.75-0.75 0.75s-0.75-0.34-0.75-0.75v-10c0-0.1 0.02-0.19 0.06-0.29 0.08-0.18 0.22-0.33 0.41-0.41 0.18-0.08 0.39-0.08 0.57 0 0.09 0.04 0.17 0.09 0.24 0.16l2.95 2.95c0.29 0.3 0.29 0.78 0 1.07z"/>
</svg>
