<?xml version="1.0" encoding="UTF-8"?>
<svg width="24" height="24" viewBox="0 0 24 24" xmlns="http://www.w3.org/2000/svg">
 <path d="m16.19 2h-8.38c-3.64 0-5.81 2.17-5.81 5.81v8.37c0 3.65 2.17 5.82 5.81 5.82h8.37c3.64 0 5.81-2.17 5.81-5.81v-8.38c0.01-3.64-2.16-5.81-5.8-5.81zm1.5 12.05c-0.04 0.09-0.09 0.17-0.16 0.24l-2.95 2.95c-0.15 0.15-0.34 0.22-0.53 0.22s-0.38-0.07-0.53-0.22c-0.29-0.29-0.29-0.77 0-1.06l1.67-1.67h-8.19c-0.41 0-0.75-0.34-0.75-0.75s0.34-0.75 0.75-0.75h10c0.1 0 0.19 0.02 0.29 0.06 0.18 0.08 0.33 0.22 0.41 0.41 0.07 0.18 0.07 0.38-0.01 0.57zm-0.69-3.06h-10c-0.1 0-0.19-0.02-0.29-0.06-0.18-0.08-0.33-0.22-0.41-0.41-0.08-0.18-0.08-0.39 0-0.57 0.05-0.09 0.1-0.17 0.17-0.24l2.95-2.95c0.29-0.29 0.77-0.29 1.06 0s0.29 0.77 0 1.06l-1.67 1.67h8.19c0.41 0 0.75 0.34 0.75 0.75s-0.34 0.75-0.75 0.75z"/>
</svg>
