<svg width="24" height="24" viewBox="0 0 24 24"  xmlns="http://www.w3.org/2000/svg">
<path d="M18.2639 4.6085C16.0561 2.40068 12.4608 2.40068 10.2553 4.6085L4.13811 10.721C4.09826 10.7608 4.07717 10.8147 4.07717 10.871C4.07717 10.9272 4.09826 10.9812 4.13811 11.021L5.00295 11.8858C5.04248 11.9252 5.096 11.9473 5.15178 11.9473C5.20756 11.9473 5.26108 11.9252 5.30061 11.8858L11.4178 5.77334C12.1772 5.01396 13.1873 4.59678 14.2608 4.59678C15.3342 4.59678 16.3444 5.01396 17.1014 5.77334C17.8608 6.53271 18.278 7.54287 18.278 8.61396C18.278 9.6874 17.8608 10.6952 17.1014 11.4546L9.85686 18.6968C8.91233 19.6413 7.37717 19.6413 6.43264 18.6968C5.97561 18.2397 5.72483 17.6327 5.72483 16.9858C5.72483 16.339 5.97561 15.7319 6.43264 15.2749L12.6178 9.09209C12.7748 8.9374 12.9811 8.85068 13.2014 8.85068H13.2037C13.424 8.85068 13.628 8.9374 13.7826 9.09209C13.9397 9.24912 14.024 9.45537 14.024 9.67568C14.024 9.89365 13.9373 10.0999 13.7826 10.2546L8.72717 15.3054C8.68733 15.3452 8.66623 15.3991 8.66623 15.4554C8.66623 15.5116 8.68733 15.5655 8.72717 15.6054L9.59201 16.4702C9.63155 16.5096 9.68506 16.5317 9.74084 16.5317C9.79663 16.5317 9.85014 16.5096 9.88967 16.4702L14.9428 11.4171C15.4092 10.9507 15.6647 10.3319 15.6647 9.67334C15.6647 9.01475 15.4069 8.39365 14.9428 7.92959C13.9795 6.96631 12.4139 6.96865 11.4506 7.92959L10.8506 8.53193L5.2678 14.1124C4.88888 14.4891 4.58853 14.9373 4.38414 15.4309C4.17976 15.9246 4.07542 16.4539 4.07717 16.9882C4.07717 18.0733 4.50139 19.0929 5.2678 19.8593C6.06233 20.6515 7.10295 21.0476 8.14358 21.0476C9.1842 21.0476 10.2248 20.6515 11.017 19.8593L18.2639 12.6171C19.3303 11.5483 19.9209 10.1257 19.9209 8.61396C19.9233 7.0999 19.3326 5.67725 18.2639 4.6085Z" />
</svg>
