<?xml version="1.0" encoding="UTF-8"?>
<svg width="24" height="24" viewBox="0 0 24 24" xmlns="http://www.w3.org/2000/svg">
 <path d="m16.19 2h-8.38c-3.64 0-5.81 2.17-5.81 5.81v8.37c0 3.65 2.17 5.82 5.81 5.82h8.37c3.64 0 5.81-2.17 5.81-5.81v-8.38c0.01-3.64-2.16-5.81-5.8-5.81zm0.18 12.35-2.22 2.22c-0.54 0.54-1.24 0.8-1.94 0.8s-1.41-0.27-1.94-0.8c-0.52-0.52-0.81-1.21-0.81-1.94s0.29-1.43 0.81-1.94l1.41-1.41c0.29-0.29 0.77-0.29 1.06 0s0.29 0.77 0 1.06l-1.41 1.41c-0.24 0.24-0.37 0.55-0.37 0.88s0.13 0.65 0.37 0.88c0.49 0.49 1.28 0.49 1.77 0l2.22-2.22c1.27-1.27 1.27-3.33 0-4.6s-3.33-1.27-4.6 0l-2.42 2.42c-0.51 0.51-0.79 1.18-0.79 1.89s0.28 1.39 0.79 1.89c0.29 0.29 0.29 0.77 0 1.06s-0.77 0.29-1.06 0c-0.8-0.77-1.24-1.82-1.24-2.94s0.43-2.17 1.22-2.96l2.42-2.42c1.85-1.85 4.87-1.85 6.72 0 1.86 1.85 1.86 4.87 0.01 6.72z"/>
</svg>
