<?xml version="1.0" encoding="UTF-8"?>
<svg width="24" height="24" viewBox="0 0 24 24" xmlns="http://www.w3.org/2000/svg">
 <path d="m9.6701 13.92c-0.74 0-1.33 0.6-1.33 1.34s0.6 1.33 1.33 1.33c0.74001 0 1.34-0.6 1.34-1.33 0-0.74-0.6-1.34-1.34-1.34z"/>
 <path d="m16.19 2h-8.38c-3.64 0-5.81 2.17-5.81 5.81v8.37c0 3.65 2.17 5.82 5.81 5.82h8.37c3.64 0 5.81-2.17 5.81-5.81v-8.38c0.01-3.64-2.16-5.81-5.8-5.81zm0.93 7.8c0 0.61-0.26 1.15-0.7 1.47-0.28 0.2-0.62 0.31-0.98 0.31-0.21 0-0.42-0.04-0.64-0.11l-2.29-0.76c-0.01 0-0.03-0.01-0.04-0.02v4.56c0 1.54-1.26 2.8-2.8 2.8s-2.8-1.26-2.8-2.8 1.26-2.8 2.8-2.8c0.49 0 0.94 0.14 1.34 0.35v-4.78c0-0.61 0.26-1.15 0.7-1.47 0.45-0.32 1.04-0.4 1.62-0.2l2.29 0.76c0.86 0.29 1.51 1.19 1.51 2.09v0.6h-0.01z"/>
</svg>
