<?xml version="1.0" encoding="UTF-8"?>
<svg width="24" height="24" viewBox="0 0 24 24" xmlns="http://www.w3.org/2000/svg">
 <path d="m12 2c-5.52 0-10 4.48-10 10s4.48 10 10 10 10-4.48 10-10-4.48-10-10-10zm-3.67 8.66 2.5-5c0.13-0.25 0.39-0.41 0.67-0.41h1c0.28 0 0.54 0.16 0.67 0.41l2.5 5c0.19 0.37 0.04 0.82-0.34 1.01-0.11 0.05-0.22 0.08-0.33 0.08-0.27 0-0.54-0.15-0.67-0.41l-2.29-4.59h-0.07l-2.29 4.59c-0.18 0.37-0.63 0.52-1.01 0.34-0.38-0.19-0.53-0.64-0.34-1.02zm9.06 4.98-5 3c-0.12 0.07-0.25 0.11-0.39 0.11s-0.27-0.04-0.39-0.11l-5-3c-0.34-0.2-0.46-0.63-0.29-0.98l1-2c0.19-0.37 0.64-0.52 1.01-0.34 0.37 0.19 0.52 0.64 0.34 1.01l-0.69 1.38 4.02 2.41 4.02-2.41-0.69-1.38c-0.19-0.37-0.04-0.82 0.34-1.01 0.37-0.18 0.82-0.04 1.01 0.34l1 2c0.17 0.35 0.04 0.78-0.29 0.98z"/>
</svg>
