<?xml version="1.0" encoding="UTF-8"?>
<svg width="24" height="24" viewBox="0 0 24 24" xmlns="http://www.w3.org/2000/svg">
 <path d="m21.56 10.74-1.35-1.58c-0.25-0.3-0.46-0.86-0.46-1.26v-1.7c0-1.06-0.87-1.93-1.93-1.93h-1.7c-0.4 0-0.97-0.21-1.27-0.46l-1.58-1.35c-0.69-0.59-1.82-0.59-2.51 0l-1.6 1.35c-0.3 0.25-0.86 0.46-1.26 0.46h-1.73c-1.06 0-1.93 0.87-1.93 1.93v1.7c0 0.39-0.2 0.95-0.45 1.25l-1.35 1.59c-0.58 0.7-0.58 1.82 0 2.5l1.35 1.59c0.25 0.29 0.45 0.86 0.45 1.25v1.71c0 1.06 0.87 1.93 1.93 1.93h1.74c0.39 0 0.96 0.21 1.26 0.46l1.58 1.35c0.69 0.59 1.82 0.59 2.51 0l1.58-1.35c0.3-0.25 0.86-0.46 1.26-0.46h1.7c1.06 0 1.93-0.87 1.93-1.93v-1.7c0-0.4 0.21-0.96 0.46-1.26l1.35-1.58c0.61-0.68 0.61-1.81 0.02-2.51zm-6.75 5.5-0.98-2.2c-0.03 0-0.06 0.02-0.09 0.02h-3.5c-0.03 0-0.06-0.01-0.09-0.02l-0.98002 2.2-1.37-0.61 3.5-7.88h1.37l3.5 7.88-1.36 0.61z"/>
 <path d="m10.82 12.56h2.36l-1.18-2.65-1.18 2.65z"/>
</svg>
