<?xml version="1.0" encoding="UTF-8"?>
<svg width="24" height="24" viewBox="0 0 24 24" xmlns="http://www.w3.org/2000/svg">
 <path d="m12 2c-5.52 0-10 4.48-10 10s4.48 10 10 10 10-4.48 10-10-4.48-10-10-10zm-1.3 14.14h-4.26c-0.19 0-0.31002-0.21-0.21002-0.38l2.13-3.55c0.1-0.16 0.32999-0.16 0.42999 0l2.13 3.55c0.1 0.17-0.02 0.38-0.22 0.38zm-0.83-6c-0.19 0-0.31003-0.21001-0.21003-0.38001l2.13-3.55c0.1-0.16 0.33-0.16 0.43 0l2.13 3.55c0.1 0.17-0.02 0.38001-0.21 0.38001h-4.27zm7.69 6h-4.26c-0.19 0-0.31-0.21-0.21-0.38l2.13-3.55c0.1-0.16 0.33-0.16 0.43 0l2.13 3.55c0.09 0.17-0.03 0.38-0.22 0.38z"/>
</svg>
