<?xml version="1.0" encoding="UTF-8"?>
<svg width="24" height="24" viewBox="0 0 24 24" xmlns="http://www.w3.org/2000/svg">
 <path d="m12 2c-5.52 0-10 4.48-10 10s4.48 10 10 10 10-4.48 10-10-4.48-10-10-10zm-1.28 13.41c-0.33 0.53-0.91001 0.85-1.54 0.85h-2.74c-0.35 0-0.57001-0.38-0.39001-0.68l5.61-9.61c0.16-0.28 0.56-0.3 0.75-0.04l1.56 2.09c0.45 0.6 0.48 1.41 0.09 2.05l-3.34 5.34zm6.83 0.85h-3.84c-0.35 0-0.57-0.38-0.39-0.69l1.92-3.2c0.18-0.29 0.6-0.29 0.78 0l1.92 3.2c0.18 0.3-0.04 0.69-0.39 0.69z"/>
</svg>
