<?xml version="1.0" encoding="UTF-8"?>
<svg width="24" height="24" viewBox="0 0 24 24" xmlns="http://www.w3.org/2000/svg">
 <path d="m17.81 5.49v0.74l-3.54-2.05c-1.34-0.77-3.21-0.77-4.54 0l-3.54 2.06v-0.75c0-2.25 1.23-3.49 3.48-3.49h4.66c2.25 0 3.48 1.24 3.48 3.49z"/>
 <path d="m17.84 7.9702-0.14-0.07-1.36-0.78-2.82-1.63c-0.86-0.5-2.18-0.5-3.04 0l-2.82 1.62-1.36 0.8-0.18 0.09c-1.75 1.18-1.87 1.4-1.87 3.29v4.52c0 1.89 0.12 2.11 1.91 3.32l4.32 2.49c0.43 0.26 0.97 0.37 1.52 0.37 0.54 0 1.09-0.12 1.52-0.37l4.36-2.52c1.76-1.18 1.87-1.39 1.87-3.29v-4.52c0-1.89-0.12-2.11-1.91-3.32zm-3.05 5.53-0.61 0.75c-0.1 0.11-0.17 0.32-0.16 0.47l0.06 0.96c0.04 0.59-0.38 0.89-0.93 0.68l-0.89-0.36c-0.14-0.05-0.37-0.05-0.51 0l-0.89 0.35c-0.55 0.22-0.97-0.09-0.93-0.68l0.06-0.96c0.01-0.15-0.06-0.36-0.16-0.47l-0.62-0.74c-0.38-0.45-0.21-0.95 0.36-1.1l0.93-0.24c0.15-0.04 0.32-0.18 0.4-0.3l0.52-0.8c0.32-0.5 0.83-0.5 1.16 0l0.52 0.8c0.08 0.13 0.26 0.26 0.4 0.3l0.93 0.24c0.57 0.15 0.74 0.65 0.36 1.1z"/>
</svg>
