<?xml version="1.0" encoding="UTF-8"?>
<svg width="24" height="24" viewBox="0 0 24 24" xmlns="http://www.w3.org/2000/svg">
 <path d="m12.38 16.92h-2.29c-0.41002 0-0.75002-0.34-0.75002-0.75s0.34-0.75 0.75002-0.75h2.29c0.43 0 0.78-0.35 0.78-0.78s-0.35-0.78-0.78-0.78h-2.29c-0.24002 0-0.47002-0.12-0.61002-0.31s-0.18-0.45-0.1-0.68l0.76002-2.29c0.1-0.31 0.39-0.51 0.71-0.51h3.06c0.41 0 0.75 0.34 0.75 0.75s-0.34 0.75-0.75 0.75h-2.52l-0.26 0.79h1.25c1.26 0 2.28 1.02 2.28 2.28s-1.02 2.28-2.28 2.28z"/>
 <path d="m12 3.4799c-0.08 0-0.16 0.01-0.24 0.01l0.82-1.02c0.26-0.32 0.21-0.8-0.12-1.05s-0.79-0.21-1.05 0.12l-1.97 2.46c-0.01 0.01-0.01 0.02-0.02 0.04-0.03 0.04-0.05 0.09-0.07 0.13-0.02 0.05-0.04 0.09-0.05 0.13-0.01 0.05-0.01 0.09-0.01 0.14v0.15 0.05c0.01 0.03 0.03 0.05 0.04 0.08 0.02 0.05 0.04 0.09 0.06 0.14 0.03 0.04 0.06 0.08 0.1 0.11 0.02 0.03 0.03 0.06 0.06 0.08 0.02 0.01 0.03 0.02 0.05 0.03 0.03 0.02 0.05 0.03 0.08 0.04 0.05 0.03 0.11 0.05 0.17 0.06 0.03 0.02 0.06 0.02 0.09 0.02s0.05 0.01 0.08 0.01 0.05-0.01 0.07-0.02c0.03 0 0.06 0.01 0.09 0 0.64-0.15 1.24-0.22 1.81-0.22 4.49 0 8.14 3.65 8.14 8.14 0 4.49-3.65 8.14-8.14 8.14s-8.14-3.65-8.14-8.14c0-1.74 0.57-3.42 1.65-4.86 0.25-0.33 0.18-0.8-0.15-1.05s-0.8-0.18-1.05 0.15c-1.28 1.7-1.95 3.69-1.95 5.76 0 5.31 4.32 9.64 9.64 9.64s9.64-4.32 9.64-9.64c0-5.32-4.32-9.63-9.63-9.63z"/>
</svg>
