<?xml version="1.0" encoding="UTF-8"?>
<svg width="24" height="24" viewBox="0 0 24 24" xmlns="http://www.w3.org/2000/svg">
 <path d="m21.25 5.15v2.7c0 1.84-0.56 2.4-2.4 2.4h-2.7c-1.84 0-2.4-0.56-2.4-2.4v-2.7c0-1.84 0.56-2.4 2.4-2.4h2.7c1.84 0 2.4 0.56 2.4 2.4z"/>
 <path d="m10.25 16.15v2.7c0 1.84-0.56 2.4-2.4 2.4h-2.7c-1.84 0-2.4-0.56-2.4-2.4v-2.7c0-1.84 0.56-2.4 2.4-2.4h2.7c1.84 0 2.4 0.56 2.4 2.4z"/>
 <path d="m16.15 11.75c0.2651 0 0.48 0.2149 0.48 0.48v1.39c0 2.28-0.73 3.01-3.01 3.01h-1.39c-0.2651 0-0.48-0.2149-0.48-0.48 0-2.66-1.24-3.9-3.9-3.9-0.2651 0-0.48-0.2149-0.48-0.48v-1.39c0-2.28 0.73-3.01 3.01-3.01h1.39c0.2651 0 0.48 0.2149 0.48 0.48 0 2.66 1.24 3.9 3.9 3.9z"/>
</svg>
