<?xml version="1.0" encoding="UTF-8"?>
<svg width="24" height="24" viewBox="0 0 24 24" xmlns="http://www.w3.org/2000/svg">
 <path d="m9.54 16.67c-0.41 0-0.75-0.34-0.75-0.75v-3.39l-0.19 0.22c-0.28 0.31-0.75 0.33-1.06 0.06-0.31-0.28-0.33-0.75-0.06-1.06l1.5-1.67c0.21-0.23002 0.54-0.31002 0.83-0.20002 0.28996 0.11 0.47996 0.39002 0.47996 0.70002v5.35c0 0.41-0.32996 0.74-0.74996 0.74z"/>
 <path d="m12 3.48c-0.08 0-0.16 0.01-0.24 0.01l0.82-1.02c0.26-0.32 0.21-0.8-0.12-1.05-0.32-0.26-0.79-0.21-1.05 0.12l-1.97 2.46c-0.01 0.01-0.01 0.02-0.02 0.04-0.03 0.04-0.05 0.09-0.07 0.13-0.02 0.05-0.04 0.09-0.05 0.13-0.01 0.05-0.01 0.09-0.01 0.14v0.15 0.05c0.01 0.03 0.03 0.05 0.04 0.09 0.02 0.05 0.03 0.09 0.06 0.13s0.06 0.08 0.1 0.12c0.02 0.02 0.04 0.05 0.06 0.07 0.01 0.01 0.03 0.01 0.04 0.02 0.03 0.02 0.06 0.04 0.1 0.05 0.05 0.03 0.1 0.05 0.15 0.06 0.04 0.02 0.07 0.02 0.11 0.02 0.03 0 0.04998 0.01 0.07998 0.01 0.02 0 0.05-0.01 0.07-0.02h0.1c0.64-0.15 1.24-0.22 1.81-0.22 4.49 0 8.14 3.65 8.14 8.14 0 4.49-3.65 8.14-8.14 8.14-4.49 0-8.14-3.65-8.14-8.14 0-1.74 0.57-3.42 1.65-4.86 0.25-0.33 0.18-0.8-0.15-1.05s-0.8-0.18-1.05 0.15c-1.28 1.7-1.95 3.69-1.95 5.76 0 5.31 4.32 9.64 9.64 9.64 5.32 0 9.64-4.32 9.64-9.64 0-5.32-4.34-9.63-9.65-9.63z"/>
 <path d="m14 16.67c-1.52 0-2.75-1.23-2.75-2.75v-1.35c0-1.52 1.23-2.75 2.75-2.75s2.75 1.23 2.75 2.75v1.35c0 1.52-1.23 2.75-2.75 2.75zm0-5.34c-0.69 0-1.25 0.56-1.25 1.25v1.35c0 0.69 0.56 1.25 1.25 1.25s1.25-0.56 1.25-1.25v-1.35c0-0.69-0.56-1.25-1.25-1.25z"/>
</svg>
