<svg width="24" height="24" viewBox="0 0 24 24"  xmlns="http://www.w3.org/2000/svg">
<path d="M19.96 8.96039C19.29 8.22039 18.28 7.79039 16.88 7.64039V6.88039C16.88 5.51039 16.3 4.19039 15.28 3.27039C14.25 2.33039 12.91 1.89039 11.52 2.02039C9.12999 2.25039 7.11999 4.56039 7.11999 7.06039V7.64039C5.71999 7.79039 4.70999 8.22039 4.03999 8.96039C3.06999 10.0404 3.09999 11.4804 3.20999 12.4804L3.90999 18.0504C4.11999 20.0004 4.90999 22.0004 9.20999 22.0004H14.79C19.09 22.0004 19.88 20.0004 20.09 18.0604L20.79 12.4704C20.9 11.4804 20.93 10.0404 19.96 8.96039ZM11.66 3.41039C12.66 3.32039 13.61 3.63039 14.35 4.30039C15.08 4.96039 15.49 5.90039 15.49 6.88039V7.58039H8.50999V7.06039C8.50999 5.28039 9.97999 3.57039 11.66 3.41039ZM12 18.5804C9.90999 18.5804 8.20999 16.8804 8.20999 14.7904C8.20999 12.7004 9.90999 11.0004 12 11.0004C14.09 11.0004 15.79 12.7004 15.79 14.7904C15.79 16.8804 14.09 18.5804 12 18.5804Z" />
<path d="M11.4299 16.64C11.2399 16.64 11.0499 16.57 10.8999 16.42L9.90988 15.43C9.61988 15.14 9.61988 14.66 9.90988 14.37C10.1999 14.08 10.6799 14.08 10.9699 14.37L11.4499 14.85L13.0499 13.37C13.3499 13.09 13.8299 13.11 14.1099 13.41C14.3899 13.71 14.3699 14.19 14.0699 14.47L11.9399 16.44C11.7899 16.57 11.6099 16.64 11.4299 16.64Z" />
</svg>
