<?xml version="1.0" encoding="UTF-8"?>
<svg width="24" height="24" viewBox="0 0 24 24" xmlns="http://www.w3.org/2000/svg">
 <path d="m19.24 5.5796h-0.4l-3.38-3.38c-0.27-0.27-0.71-0.27-0.99 0-0.27 0.27-0.27 0.71 0 0.99l2.39 2.39h-9.72l2.39-2.39c0.27-0.27 0.27-0.71 0-0.99-0.27-0.27-0.71-0.27-0.99 0l-3.37 3.38h-0.4c-0.9 0-2.77 0-2.77 2.56 0 0.97 0.2 1.61 0.62 2.03 0.24 0.25 0.53 0.38 0.84 0.45 0.29 0.07 0.6 0.08 0.9 0.08h15.28c0.31 0 0.6-0.02 0.88-0.08 0.84-0.2 1.48-0.80003 1.48-2.48 0-2.56-1.87-2.56-2.76-2.56z"/>
 <path d="m19.09 12h-14.18c-0.62 0-1.09 0.55-0.99 1.16l0.84 5.14c0.28 1.72 1.03 3.7 4.36 3.7h5.61c3.37 0 3.9701-1.69 4.33-3.58l1.0101-5.23c0.12-0.62-0.35-1.19-0.98-1.19zm-5.17 6.89c-0.14 0.15-0.33 0.22-0.53 0.22-0.19 0-0.3801-0.07-0.53-0.22l-0.84-0.85-0.88 0.88c-0.15 0.15-0.3401 0.22-0.5301 0.22-0.2 0-0.39-0.07-0.53-0.22-0.29995-0.29-0.29995-0.76 0-1.06l0.88-0.88-0.85-0.84c-0.29995-0.3-0.29995-0.77 0-1.06 0.29-0.3 0.76-0.3 1.0601 0l0.85 0.84 0.81-0.81c0.3-0.3 0.77-0.3 1.06 0 0.3 0.29 0.3 0.76 0 1.06l-0.81 0.81 0.84 0.85c0.3 0.3 0.3 0.77 0 1.06z"/>
</svg>
