<?xml version="1.0" encoding="UTF-8"?>
<svg width="24" height="24" viewBox="0 0 24 24" xmlns="http://www.w3.org/2000/svg">
 <path d="m19.96 8.9604c-0.67-0.74-1.68-1.17-3.08-1.32v-0.76c0-1.37-0.58-2.69-1.6-3.61-1.03-0.94-2.37-1.38-3.76-1.25-2.39 0.23-4.4 2.54-4.4 5.04v0.58c-1.4 0.15-2.41 0.58-3.08 1.32-0.97 1.08-0.94 2.52-0.83 3.52l0.7 5.57c0.21 1.95 1 3.95 5.3 3.95h5.58c4.3 0 5.09-2 5.3-3.94l0.7-5.59c0.11-0.99 0.14-2.43-0.83-3.51zm-8.3-5.55c1-0.09 1.95 0.22 2.69 0.89 0.73 0.66 1.14 1.6 1.14 2.58v0.7h-6.98v-0.52c0-1.78 1.47-3.49 3.15-3.65zm0.34 15.17c-2.09 0-3.79-1.7-3.79-3.79s1.7-3.79 3.79-3.79c2.09 0 3.79 1.7 3.79 3.79s-1.7 3.79-3.79 3.79z"/>
 <path d="m11 16.58c-0.25 0-0.5-0.13-0.64-0.36-0.21-0.35-0.1-0.82 0.26-1.03l0.89-0.53v-1.08c0-0.41 0.34-0.75 0.75-0.75s0.74 0.33 0.74 0.75v1.5c0 0.26-0.14 0.51-0.36 0.64l-1.25 0.75c-0.12 0.07-0.26 0.11-0.39 0.11z"/>
</svg>
