<?xml version="1.0" encoding="UTF-8"?>
<svg width="24" height="24" viewBox="0 0 24 24" xmlns="http://www.w3.org/2000/svg">
 <path d="m19.24 5.5796h-0.4l-3.38-3.38c-0.27-0.27-0.71-0.27-0.99 0-0.27 0.27-0.27 0.71 0 0.99l2.39 2.39h-9.72l2.39-2.39c0.27-0.27 0.27-0.71 0-0.99-0.27-0.27-0.71-0.27-0.99 0l-3.37 3.38h-0.4c-0.9 0-2.77 0-2.77 2.56 0 0.97 0.2 1.61 0.62 2.03 0.24 0.25 0.53 0.38 0.84 0.45 0.29 0.07 0.6 0.08 0.9 0.08h15.28c0.31 0 0.6-0.02 0.88-0.08 0.84-0.2 1.48-0.80003 1.48-2.48 0-2.56-1.87-2.56-2.76-2.56z"/>
 <path d="m19.09 12h-14.18c-0.62 0-1.09 0.55-0.99 1.16l0.84 5.14c0.28 1.72 1.03 3.7 4.36 3.7h5.61c3.37 0 3.9701-1.69 4.33-3.58l1.0101-5.23c0.12-0.62-0.35-1.19-0.98-1.19zm-4.21 4.05-3.25 3c-0.14 0.13-0.3201 0.2-0.5101 0.2s-0.3799-0.07-0.5299-0.22l-1.5-1.5c-0.29-0.29-0.29-0.77 0-1.06 0.3-0.29 0.77-0.29 1.07 0l0.99 0.99 2.7201-2.51c0.3-0.28 0.78-0.26 1.06 0.04 0.28 0.31 0.26 0.78-0.05 1.06z"/>
</svg>
