<?xml version="1.0" encoding="UTF-8"?>
<svg width="24" height="24" viewBox="0 0 24 24" xmlns="http://www.w3.org/2000/svg">
 <path d="m19.96 8.9604c-0.67-0.74-1.68-1.17-3.08-1.32v-0.76c0-1.37-0.58-2.69-1.6-3.61-1.03-0.94-2.37-1.38-3.76-1.25-2.39 0.23-4.4 2.54-4.4 5.04v0.58c-1.4 0.15-2.41 0.58-3.08 1.32-0.97 1.08-0.94 2.52-0.83 3.52l0.7 5.57c0.21 1.95 1 3.95 5.3 3.95h5.58c4.3 0 5.09-2 5.3-3.94l0.7-5.59c0.11-0.99 0.14-2.43-0.83-3.51zm-8.3-5.55c1-0.09 1.95 0.22 2.69 0.89 0.73 0.66 1.14 1.6 1.14 2.58v0.7h-6.98v-0.52c0-1.78 1.47-3.49 3.15-3.65zm0.34 15.17c-2.09 0-3.79-1.7-3.79-3.79s1.7-3.79 3.79-3.79c2.09 0 3.79 1.7 3.79 3.79s-1.7 3.79-3.79 3.79z"/>
 <path d="m11.43 16.64c-0.19 0-0.38-0.07-0.53-0.22l-0.99002-0.99c-0.29-0.29-0.29-0.77 0-1.06 0.29002-0.29 0.77002-0.29 1.06 0l0.48 0.48 1.6-1.48c0.3-0.28 0.78-0.26 1.06 0.04s0.26 0.78-0.04 1.06l-2.13 1.97c-0.15 0.13-0.33 0.2-0.51 0.2z"/>
</svg>
