<svg width="24" height="24" viewBox="0 0 24 24"  xmlns="http://www.w3.org/2000/svg">
<path d="M20.42 9.00047C20.28 8.99047 20.1 8.98047 19.9 8.98047C19.51 8.98047 19.2 9.29047 19.2 9.68047V14.3305C19.2 14.7205 19.51 15.0305 19.9 15.0305C20.1 15.0305 20.27 15.0205 20.44 15.0105C22 14.8305 22 13.7305 22 12.9305V11.0705C22 10.2705 22 9.17047 20.42 9.00047Z" />
<path d="M18.2799 10.1395V13.8595C18.2799 16.8095 15.8799 19.2095 12.9299 19.2095H9.25991C8.46991 19.2095 7.98991 18.3395 8.40991 17.6795L15.6699 6.19952C16.0299 5.62952 16.8399 5.57953 17.2899 6.08953C18.0099 6.91953 18.2799 8.20953 18.2799 10.1395Z" />
<path d="M16.4 1.87036C16.05 1.65036 15.59 1.75036 15.37 2.10036L13.66 4.81036C13.43 4.80036 13.19 4.79036 12.93 4.79036H7.35C3.25 4.79036 2 6.04036 2 10.1404V13.8604C2 16.9104 2.7 18.3704 4.74 18.9204L3.37 21.1004C3.15 21.4504 3.25 21.9104 3.6 22.1304C3.72 22.2104 3.86 22.2504 4 22.2504C4.25 22.2504 4.49 22.1304 4.63 21.9004L16.63 2.90036C16.86 2.55036 16.75 2.09036 16.4 1.87036Z" />
</svg>
