<?xml version="1.0" encoding="UTF-8"?>
<svg width="24" height="24" viewBox="0 0 24 24" xmlns="http://www.w3.org/2000/svg">
 <path d="m20.42 9.0005c-0.14-0.01-0.32-0.02-0.52-0.02-0.39 0-0.7 0.31-0.7 0.7v4.65c0 0.39 0.31 0.7 0.7 0.7 0.2 0 0.37-0.01 0.54-0.02 1.56-0.18 1.56-1.28 1.56-2.08v-1.86c0-0.8 0-1.9-1.58-2.07z"/>
 <path d="m18.28 10.14v3.72c0 2.95-2.4 5.35-5.35 5.35h-3.67c-0.79 0-1.27-0.87-0.85-1.53l7.26-11.48c0.36-0.57 1.17-0.61999 1.62-0.10999 0.72 0.83 0.99 2.12 0.99 4.05z"/>
 <path d="m16.4 1.8704c-0.35-0.22-0.81-0.12-1.03 0.23l-1.71 2.71c-0.23-0.01-0.47-0.02-0.73-0.02h-5.58c-4.1 0-5.35 1.25-5.35 5.35v3.72c0 3.05 0.7 4.51 2.74 5.06l-1.37 2.18c-0.22 0.35-0.12 0.81 0.23 1.03 0.12 0.08 0.26 0.12 0.4 0.12 0.25 0 0.49-0.12 0.63-0.35l12-19c0.23-0.35 0.12-0.81-0.23-1.03z"/>
</svg>
