<?xml version="1.0" encoding="UTF-8"?>
<svg width="24" height="24" viewBox="0 0 24 24" xmlns="http://www.w3.org/2000/svg">
 <path d="m20.42 9.0005c-0.14-0.01-0.32-0.02-0.52-0.02-0.39 0-0.7 0.31-0.7 0.7v4.65c0 0.39 0.31 0.7 0.7 0.7 0.2 0 0.37-0.01 0.54-0.02 1.56-0.18 1.56-1.28 1.56-2.08v-1.86c0-0.8 0-1.9-1.58-2.07z"/>
 <path d="m12.93 4.79h-5.58c-4.1 0-5.35 1.25-5.35 5.35v3.72c0 4.1 1.25 5.35 5.35 5.35h5.58c4.1 0 5.35-1.25 5.35-5.35v-3.72c0-4.1-1.25-5.35-5.35-5.35zm-5.83 9.39c-0.08 0.34-0.39 0.57-0.73 0.57-0.06 0-0.12-0.01-0.18-0.02-0.4-0.1-0.65-0.51-0.55-0.91 0.3-1.19 0.3-2.45 0-3.64-0.1-0.39996 0.14-0.80996 0.55-0.90996s0.81 0.15 0.91 0.55c0.36 1.43 0.36 2.93 0 4.36zm3.5 0c-0.08 0.34-0.39 0.57-0.73 0.57-0.06 0-0.12-0.01-0.18-0.02-0.4-0.1-0.65-0.51-0.55-0.91 0.3-1.19 0.3-2.45 0-3.64-0.1-0.39996 0.14-0.80996 0.55-0.90996 0.4-0.1 0.81 0.14 0.91 0.55 0.36 1.43 0.36 2.93 0 4.36zm3.5 0c-0.08 0.34-0.39 0.57-0.73 0.57-0.06 0-0.12-0.01-0.18-0.02-0.4-0.1-0.65-0.51-0.55-0.91 0.3-1.19 0.3-2.45 0-3.64-0.1-0.39996 0.14-0.80996 0.55-0.90996 0.4-0.1 0.81 0.14 0.91 0.55 0.36 1.43 0.36 2.93 0 4.36z"/>
</svg>
