<?xml version="1.0" encoding="UTF-8"?>
<svg width="24" height="24" viewBox="0 0 24 24" xmlns="http://www.w3.org/2000/svg">
 <path d="m19.14 7.72c0.29 0.75 1.01 1.28 1.86 1.28 1.1 0 2-0.9 2-2s-0.9-2-2-2c-0.85 0-1.57 0.53-1.86 1.28-0.05-0.01-0.09-0.03-0.14-0.03h-4v-0.75c0-0.82-0.68-1.5-1.5-1.5h-3c-0.82 0-1.5 0.68-1.5 1.5v0.75h-4c-0.05 0-0.09 0.02-0.14 0.03-0.29-0.75-1.01-1.28-1.86-1.28-1.1 0-2 0.9-2 2s0.9 2 2 2c0.85 0 1.57-0.53 1.86-1.28 0.05 0.01 0.09 0.03 0.14 0.03h2.57c-2.05 1.52-3.32 4.04-3.32 6.75 0 0.17 0.01 0.33 0.03 0.5h-0.28c-0.83 0-1.5 0.67-1.5 1.5v2c0 0.83 0.67 1.5 1.5 1.5h2c0.22 0 0.42-0.05 0.61-0.14 0.52-0.22 0.89-0.75 0.89-1.36v-2c0-0.83-0.67-1.5-1.5-1.5h-0.23c0-0.03 0.01-0.06 0.01-0.09-0.02-0.14-0.02-0.27-0.02-0.41 0-2.47 1.27-4.73 3.26-5.9 0.04 0.77 0.69 1.4 1.48 1.4h3c0.79 0 1.44-0.63 1.49-1.4 1.99 1.17 3.26 3.44 3.26 5.9 0 0.14-0.01 0.27-0.02 0.41 0 0.03 0.01 0.06 0.01 0.09h-0.24c-0.83 0-1.5 0.67-1.5 1.5v2c0 0.61 0.37 1.14 0.89 1.36 0.19 0.09 0.39 0.14 0.61 0.14h2c0.83 0 1.5-0.67 1.5-1.5v-2c0-0.83-0.67-1.5-1.5-1.5h-0.28c0.02-0.17 0.03-0.33 0.03-0.5 0-2.71-1.27-5.23-3.32-6.75h2.57c0.05 0 0.09-0.02 0.14-0.03z"/>
</svg>
