<?xml version="1.0" encoding="UTF-8"?>
<svg width="24" height="24" viewBox="0 0 24 24" xmlns="http://www.w3.org/2000/svg">
 <path d="m11.65 2.3495-5.29 5.29c-0.2 0.2-0.2 0.51 0 0.71l1.29 1.29c0.2 0.2 0.51001 0.2 0.71001 0l3.29-3.29c0.2-0.2 0.51-0.2 0.71 0l3.29 3.29c0.2 0.2 0.51 0.2 0.71 0l1.29-1.29c0.2-0.2 0.2-0.51 0-0.71l-5.29-5.29c-0.2-0.19-0.52-0.19-0.71 0z"/>
 <path d="m11.65 21.651-5.29-5.29c-0.2-0.2-0.2-0.51 0-0.71l1.29-1.29c0.2-0.2 0.51001-0.2 0.71001 0l3.29 3.29c0.2 0.2 0.51 0.2 0.71 0l3.29-3.29c0.2-0.2 0.51-0.2 0.71 0l1.29 1.29c0.2 0.2 0.2 0.51 0 0.71l-5.29 5.29c-0.2 0.19-0.52 0.19-0.71 0z"/>
 <path d="m20.1 10.1 1.5399 1.54c0.2 0.2 0.2 0.51 0 0.71l-1.5399 1.54c-0.2 0.2-0.5101 0.2-0.7101 0l-1.5399-1.54c-0.2-0.2-0.2-0.51 0-0.71l1.5399-1.54c0.2-0.18997 0.5201-0.18997 0.7101 0z"/>
 <path d="m4.6 10.1 1.54 1.54c0.2 0.2 0.2 0.51 0 0.71l-1.54 1.54c-0.2 0.2-0.51001 0.2-0.71001 0l-1.54-1.54c-0.2-0.2-0.2-0.51 0-0.71l1.54-1.54c0.2-0.18997 0.52001-0.18997 0.71001 0z"/>
 <path d="m12.35 9.8805 1.77 1.77c0.2 0.2 0.2 0.51 0 0.71l-1.77 1.77c-0.2 0.2-0.51 0.2-0.71 0l-1.77-1.77c-0.2-0.2-0.2-0.51 0-0.71l1.77-1.77c0.2-0.2 0.52-0.2 0.71 0z"/>
</svg>
