<svg width="24" height="24" viewBox="0 0 24 24"  xmlns="http://www.w3.org/2000/svg">
<path d="M11.4001 2.34953L6.2501 7.49953C6.0501 7.69953 6.0501 8.00953 6.2501 8.20953L7.98011 9.93953C8.18011 10.1395 8.4901 10.1395 8.6901 9.93953L13.8401 4.78953C14.0401 4.58953 14.0401 4.27953 13.8401 4.07953L12.1101 2.34953C11.9101 2.15953 11.6001 2.15953 11.4001 2.34953Z" />
<path d="M15.3001 6.26035L6.2501 15.3104C6.0501 15.5104 6.0501 15.8204 6.2501 16.0204L7.98011 17.7504C8.18011 17.9504 8.4901 17.9504 8.6901 17.7504L17.7401 8.70035C17.9401 8.50035 17.9401 8.19035 17.7401 7.99035L16.0101 6.26035C15.8201 6.06035 15.5001 6.06035 15.3001 6.26035Z" />
<path d="M19.21 10.1598L10.16 19.2098C9.96001 19.4098 9.96001 19.7198 10.16 19.9198L11.89 21.6498C12.09 21.8498 12.4 21.8498 12.6 21.6498L21.65 12.5998C21.85 12.3998 21.85 12.0898 21.65 11.8898L19.92 10.1598C19.72 9.95977 19.4 9.95977 19.21 10.1598Z" />
<path d="M4.08997 13.8395L2.35996 12.1095C2.15996 11.9095 2.15996 11.5995 2.35996 11.3995L4.08997 9.66953C4.28997 9.46953 4.59996 9.46953 4.79996 9.66953L6.52997 11.3995C6.72997 11.5995 6.72997 11.9095 6.52997 12.1095L4.79996 13.8395C4.59996 14.0395 4.27997 14.0395 4.08997 13.8395Z" />
</svg>
