<?xml version="1.0" encoding="UTF-8"?>
<svg width="24" height="24" viewBox="0 0 24 24" xmlns="http://www.w3.org/2000/svg">
 <path d="m23 15.22c-0.41 0-0.75 0.34-0.75 0.75 0 2.96-2.06 5.44-4.83 6.09l0.27-0.45c0.21-0.36 0.1-0.82-0.26-1.03-0.35-0.21-0.82-0.1-1.03 0.26l-1.05 1.75c-0.14 0.23-0.14 0.52-0.01 0.75 0.13 0.24 0.38 0.38 0.65 0.38 4.27 0 7.75-3.48 7.75-7.75 0.01-0.41-0.33-0.75-0.74-0.75z"/>
 <path d="m8 0.21973c-4.27 0-7.75 3.48-7.75 7.75 0 0.41 0.34 0.75 0.75 0.75s0.75-0.34 0.75-0.75c0-2.96 2.06-5.44 4.83-6.09l-0.27 0.45c-0.21 0.36-0.1 0.82 0.26 1.03 0.35 0.21 0.82 0.1 1.03-0.26l1.05-1.75c0.13-0.23 0.14-0.51 0-0.75-0.13-0.23-0.38-0.38-0.65-0.38z"/>
 <path d="m21.5 8.67c0 3.08-2.24 5.62-5.17 6.09v-0.02c-0.29-3.73-3.31-6.77-7.09-7.07 0.47-2.93 3.01-5.17 6.09-5.17 3.41 0 6.17 2.76 6.17 6.17z"/>
 <path d="m9.8101 14.2c0-0.15-0.17-0.38-0.38-0.38h-2.06v0.75h2.06c0.21 0.01 0.38-0.16 0.38-0.37z"/>
 <path d="m9.8301 16.08h-2.46v0.75h2.47c0.31998 0 0.53998-0.2 0.53998-0.38s-0.23-0.37-0.54998-0.37z"/>
 <path d="m14.83 14.85c-0.23-3.03-2.65-5.45-5.68-5.68-0.16-0.01-0.31-0.02-0.48-0.02-3.41 0-6.17 2.76-6.17 6.18 0 3.41 2.76 6.17 6.17 6.17s6.18-2.76 6.18-6.17c0-0.17-0.01-0.32-0.02-0.48zm-5 3.48h-0.66v0.38c0 0.41-0.34 0.75-0.75 0.75s-0.75-0.34-0.75-0.75v-0.38h-1.05c-0.41 0-0.75-0.34-0.75-0.75v-4.5c0-0.41 0.34-0.75 0.75-0.75h1.05v-0.38c0-0.41 0.34-0.75 0.75-0.75s0.75 0.34 0.75 0.75v0.38h0.26c1 0 1.88 0.88 1.88 1.88 0 0.29-0.07 0.56-0.19 0.81 0.46 0.34 0.75 0.86 0.75 1.44 0 1.03-0.91 1.87-2.04 1.87z"/>
</svg>
