<svg width="24" height="24" viewBox="0 0 24 24"  xmlns="http://www.w3.org/2000/svg">
<path d="M22.9999 15.2197C22.5899 15.2197 22.2499 15.5597 22.2499 15.9697C22.2499 18.9297 20.1899 21.4097 17.4199 22.0597L17.6899 21.6097C17.8999 21.2497 17.7899 20.7897 17.4299 20.5797C17.0799 20.3697 16.6099 20.4797 16.3999 20.8397L15.3499 22.5897C15.2099 22.8197 15.2099 23.1097 15.3399 23.3397C15.4699 23.5797 15.7199 23.7197 15.9899 23.7197C20.2599 23.7197 23.7399 20.2397 23.7399 15.9697C23.7499 15.5597 23.4099 15.2197 22.9999 15.2197Z" />
<path d="M8 0.219727C3.73 0.219727 0.25 3.69973 0.25 7.96973C0.25 8.37973 0.59 8.71973 1 8.71973C1.41 8.71973 1.75 8.37973 1.75 7.96973C1.75 5.00973 3.81 2.52973 6.58 1.87973L6.31 2.32973C6.1 2.68973 6.21 3.14973 6.57 3.35973C6.92 3.56973 7.39 3.45973 7.6 3.09973L8.65 1.34973C8.78 1.11973 8.79 0.839727 8.65 0.599727C8.52 0.369727 8.27 0.219727 8 0.219727Z" />
<path d="M21.5 8.67C21.5 11.75 19.26 14.29 16.33 14.76C16.33 14.75 16.33 14.75 16.33 14.74C16.04 11.01 13.02 7.97 9.23999 7.67C9.70999 4.74 12.25 2.5 15.33 2.5C18.74 2.5 21.5 5.26 21.5 8.67Z" />
<path d="M9.81012 14.2003C9.81012 14.0503 9.64012 13.8203 9.43012 13.8203H7.37012V14.5703H9.43012C9.64012 14.5803 9.81012 14.4103 9.81012 14.2003Z" />
<path d="M9.83012 16.0801H9.43012H7.37012V16.8301H9.84012C10.1601 16.8301 10.3801 16.6301 10.3801 16.4501C10.3801 16.2701 10.1501 16.0801 9.83012 16.0801Z" />
<path d="M14.83 14.8504C14.6 11.8204 12.18 9.40039 9.15 9.17039C8.99 9.16039 8.84 9.15039 8.67 9.15039C5.26 9.15039 2.5 11.9104 2.5 15.3304C2.5 18.7404 5.26 21.5004 8.67 21.5004C12.08 21.5004 14.85 18.7404 14.85 15.3304C14.85 15.1604 14.84 15.0104 14.83 14.8504ZM9.83 18.3304H9.17V18.7104C9.17 19.1204 8.83 19.4604 8.42 19.4604C8.01 19.4604 7.67 19.1204 7.67 18.7104V18.3304H6.62C6.21 18.3304 5.87 17.9904 5.87 17.5804V15.3304V13.0804C5.87 12.6704 6.21 12.3304 6.62 12.3304H7.67V11.9504C7.67 11.5404 8.01 11.2004 8.42 11.2004C8.83 11.2004 9.17 11.5404 9.17 11.9504V12.3304H9.43C10.43 12.3304 11.31 13.2104 11.31 14.2104C11.31 14.5004 11.24 14.7704 11.12 15.0204C11.58 15.3604 11.87 15.8804 11.87 16.4604C11.87 17.4904 10.96 18.3304 9.83 18.3304Z" />
</svg>
