<?xml version="1.0" encoding="UTF-8"?>
<svg width="24" height="24" viewBox="0 0 24 24" xmlns="http://www.w3.org/2000/svg">
 <path d="m14.97 12.75h-5.44v2.83h5.44c0.95 0 1.73-0.64 1.73-1.42s-0.78-1.41-1.73-1.41z"/>
 <path d="m12 2c-5.52 0-10 4.48-10 10s4.48 10 10 10 10-4.48 10-10-4.48-10-10-10zm2.97 15.08h-1.65v1.42c0 0.41-0.34 0.75-0.75 0.75s-0.75-0.34-0.75-0.75v-1.42h-1.21v1.42c0 0.41-0.34 0.75-0.75 0.75s-0.75-0.34-0.75-0.75v-1.42h-2.06c-0.41 0-0.75-0.34-0.75-0.75s0.34-0.75 0.75-0.75h0.98v-7.16h-0.98c-0.41 0-0.75-0.34-0.75-0.75s0.34-0.75 0.75-0.75h2.06v-1.42c0-0.41 0.34-0.75 0.75-0.75s0.75 0.34 0.75 0.75v1.42h1.21v-1.42c0-0.41 0.34-0.75 0.75-0.75s0.75 0.34 0.75 0.75v1.42h0.88c1.55 0 2.92 1.36 2.92 2.92 0 0.67-0.24 1.28-0.62 1.78 1.01 0.49 1.7 1.45 1.7 2.56 0 1.59-1.45 2.9-3.23 2.9z"/>
 <path d="m15.62 9.8302c0-0.66-0.62-1.42-1.42-1.42h-4.67v2.83h4.67c0.78 0.01 1.42-0.63 1.42-1.41z"/>
</svg>
