<?xml version="1.0" encoding="UTF-8"?>
<svg width="24" height="24" viewBox="0 0 24 24" xmlns="http://www.w3.org/2000/svg">
 <path d="m17.38 10.75c0-0.22-0.24-0.5-0.5-0.5h-2.38v1h2.38c0.27 0 0.5-0.22 0.5-0.5z"/>
 <path d="m17.32 12.75h-2.82v1h2.82c0.37 0 0.68-0.23 0.68-0.5s-0.31-0.5-0.68-0.5z"/>
 <path d="m17.85 3.4004h-11.7c-2.29 0-4.15 1.85-4.15 4.14v8.92c0 2.29 1.86 4.14 4.15 4.14h11.7c2.29 0 4.15-1.85 4.15-4.14v-8.92c0-2.29-1.86-4.14-4.15-4.14zm-8.6 9.35h-4c-0.41 0-0.75-0.34-0.75-0.75s0.34-0.75 0.75-0.75h4c0.41 0 0.75 0.34 0.75 0.75s-0.34 0.75-0.75 0.75zm8.07 2.5h-1.06v0.5c0 0.41-0.34 0.75-0.75 0.75s-0.75-0.34-0.75-0.75v-0.5h-2.01c-0.41 0-0.75-0.34-0.75-0.75s0.34-0.75 0.75-0.75h0.25v-3.5h-0.25c-0.41 0-0.75-0.34001-0.75-0.75001s0.34-0.75 0.75-0.75h2.01v-0.5c0-0.41 0.34-0.75 0.75-0.75s0.75 0.34 0.75 0.75v0.5h0.61c1.07 0 2 0.93 2 2 0 0.33-0.09 0.64-0.23 0.92 0.52 0.37 0.86 0.94 0.86 1.58 0 1.1-0.98 2-2.18 2z"/>
</svg>
