<?xml version="1.0" encoding="UTF-8"?>
<svg width="24" height="24" viewBox="0 0 24 24" xmlns="http://www.w3.org/2000/svg">
 <path d="m21.97 12c0 3.31-2.69 6-6 6-0.7445 0-1.4608-0.1357-2.1189-0.3859-0.3187-0.1212-0.3781-0.529-0.1563-0.7879 1.142-1.3324 1.7752-3.0402 1.7752-4.8262 0-1.7918-0.6389-3.5057-1.7722-4.8253-0.2226-0.25924-0.1636-0.66846 0.1558-0.78973 0.6575-0.24957 1.3728-0.38494 2.1164-0.38494 3.31 0 6 2.69 6 6z"/>
 <path d="m13.97 12c0 1.77-0.77 3.37-2 4.46-1.06 0.96-2.46 1.54-4 1.54-3.31 0-6-2.69-6-6s2.69-6 6-6c1.54 0 2.94 0.58 4 1.54 1.23 1.09 2 2.69 2 4.46z"/>
</svg>
