<?xml version="1.0" encoding="UTF-8"?>
<svg width="24" height="24" viewBox="0 0 24 24" xmlns="http://www.w3.org/2000/svg">
 <path d="m15.9 8.07c-0.45-3.43-3.38-6.07-6.93-6.07-3.87 0-7 3.13-7 7 0 3.55 2.64 6.48 6.07 6.93 0.3 0.05 0.61 0.07 0.93 0.07 0.11637 0 0.23124-3e-3 0.34519-9e-3 0.22037-0.0117 0.31086-0.275 0.15481-0.431-0.29-0.3-0.29-0.77 0-1.06 0.29-0.3 0.77003-0.3 1.06 0l0.7795 0.7795c0.1401 0.1401 0.3504 0.1858 0.5314 0.1052 0.3825-0.1702 0.7443-0.3744 1.0854-0.6104 0.2442-0.169 0.2597-0.5162 0.0486-0.725l-0.5049-0.4993c-0.29-0.29-0.3-0.76 0-1.06 0.29-0.29 0.76-0.3 1.06-0.01l0.5085 0.5029c0.2099 0.2075 0.5544 0.1899 0.7224-0.0527 0.2307-0.3333 0.4316-0.6871 0.5966-1.0612 0.0794-0.18 0.0331-0.3884-0.106-0.5275l-0.7815-0.7815c-0.29-0.3-0.29-0.77 0-1.06 0.29-0.3 0.77-0.3 1.06 0 0.156 0.15604 0.4193 0.06556 0.4309-0.15481 0.0061-0.11395 0.0091-0.22882 0.0091-0.34519 0-0.32-0.02-0.63-0.07-0.93z"/>
 <path d="m21.97 15c0 3.87-3.13 7-7 7-2.9301 0-5.4443-1.7999-6.4784-4.3672-0.12521-0.3108 0.14329-0.6328 0.47841-0.6328 0.35 0 0.68-0.02 1.02-0.07l0.50509-0.0673c0.1544-0.0206 0.3095 0.0319 0.4196 0.1421l0.5253 0.5252c0.15 0.15 0.34 0.22 0.53 0.22 0.2 0 0.39-0.07 0.53-0.22 0.3-0.29 0.3-0.77 0-1.06-0.0963-0.0963-0.0661-0.2597 0.0558-0.3204 0.399-0.1989 0.8078-0.4523 1.1758-0.7258 0.2078-0.1544 0.4995-0.1444 0.6837 0.0375l0.4847 0.4787c0.15 0.14 0.34 0.22 0.53 0.22s0.39-0.08 0.53-0.23c0.29-0.29 0.29-0.77-0.01-1.06l-0.478-0.472c-0.1828-0.1805-0.1979-0.4694-0.0466-0.6769 0.2634-0.3613 0.5108-0.7544 0.7074-1.1393 0.0593-0.1159 0.2152-0.1438 0.3072-0.0518 0.15 0.15 0.34 0.22 0.53 0.22 0.2 0 0.39-0.07 0.53-0.22 0.3-0.29 0.3-0.77 0-1.06l-0.5253-0.5252c-0.1101-0.1102-0.1626-0.2653-0.142-0.4197l0.0673-0.5051c0.05-0.33996 0.07-0.66996 0.07-1.02 0-0.33496 0.322-0.60322 0.6325-0.47771 2.5599 1.0346 4.3675 3.5482 4.3675 6.4777z"/>
</svg>
