<?xml version="1.0" encoding="UTF-8"?>
<svg width="24" height="24" viewBox="0 0 24 24" xmlns="http://www.w3.org/2000/svg">
 <path d="m14 13.25h-4c-0.41 0-0.75 0.34-0.75 0.75s0.34 0.75 0.75 0.75h4c0.41 0 0.75-0.34 0.75-0.75s-0.34-0.75-0.75-0.75z"/>
 <path d="m10 10.75h2c0.41 0 0.75-0.34 0.75-0.75s-0.34-0.75-0.75-0.75h-2c-0.41 0-0.75 0.34-0.75 0.75s0.34 0.75 0.75 0.75z"/>
 <path d="m16.19 2h-8.37c-3.64 0-5.81 2.17-5.81 5.81v8.37c0 3.64 2.17 5.81 5.81 5.81h8.37c3.64 0 5.81-2.17 5.81-5.81v-8.37c0-3.64-2.17-5.81-5.81-5.81zm1.81 13c0 2-1 3-3 3h-6c-2 0-3-1-3-3v-6c0-2 1-3 3-3h4c2 0 3 1 3 3v1c0 0.55 0.45 1 1 1s1 0.45 1 1v3z"/>
</svg>
