<?xml version="1.0" encoding="UTF-8"?>
<svg width="24" height="24" viewBox="0 0 24 24" xmlns="http://www.w3.org/2000/svg">
 <path d="m12.9 10.59 1.67-1.53-1.67-1.39v2.92z"/>
 <path d="m12.9 16.33 1.67-1.39-1.67-1.53v2.92z"/>
 <path d="m12 2c-5.52 0-10 4.48-10 10s4.48 10 10 10 10-4.48 10-10-4.48-10-10-10zm3.72 11.95c0.29 0.27 0.45 0.64 0.44 1.02s-0.19 0.75-0.49 1l-2.07 1.73c-0.38 0.32-0.73 0.41-1 0.41-0.22 0-0.39-0.06-0.49-0.1-0.22-0.1-0.72-0.43-0.72-1.34v-2.67l-2.3 2.11c-0.3 0.28-0.78 0.26-1.06-0.05s-0.26-0.78 0.05-1.06l3.28-3-3.28-3.01c-0.3-0.28-0.32-0.75-0.04-1.06 0.28-0.3 0.76-0.33 1.06-0.05l2.3 2.12v-2.67c0-0.9 0.5-1.23 0.72-1.34 0.21-0.1 0.79-0.27 1.49 0.3l2.06 1.72c0.3 0.25 0.48 0.62 0.49 1s-0.15 0.76-0.44 1.02l-2.14 1.97 2.14 1.95z"/>
</svg>
