<?xml version="1.0" encoding="UTF-8"?>
<svg width="24" height="24" viewBox="0 0 24 24" xmlns="http://www.w3.org/2000/svg">
 <path d="m12.93 10.64 2.33-2.13-2.33-1.87v4z"/>
 <path d="m16.19 2h-8.38c-3.64 0-5.81 2.17-5.81 5.81v8.37c0 3.65 2.17 5.82 5.81 5.82h8.37c3.64 0 5.81-2.17 5.81-5.81v-8.38c0.01-3.64-2.16-5.81-5.8-5.81zm0.08 12.39c0.31 0.29 0.49 0.69 0.48 1.1s-0.2 0.8-0.53 1.08l-2.42 2.02c-0.42 0.35-0.8 0.45-1.09 0.45-0.23 0-0.41-0.06-0.51-0.11-0.23-0.11-0.77-0.47-0.77-1.45v-3.42l-2.92 2.68c-0.3 0.28-0.78 0.26-1.06-0.05s-0.26-0.78 0.05-1.06l3.93-3.6v-0.08l-3.94-3.57c-0.3-0.28-0.32-0.76-0.04-1.06s0.76-0.33 1.06-0.05l2.92 2.68v-3.42c0-0.98 0.54-1.34 0.77-1.45s0.85-0.29 1.6 0.34l2.42 2.02c0.33 0.27 0.52 0.67 0.53 1.08s-0.16 0.81-0.48 1.1l-2.6 2.38 2.6 2.39z"/>
 <path d="m12.93 17.36 2.33-1.95-2.33-2.11v4.06z"/>
</svg>
