<?xml version="1.0" encoding="UTF-8"?>
<svg width="24" height="24" viewBox="0 0 24 24" xmlns="http://www.w3.org/2000/svg">
 <path d="m12.3 17.32 2.31-1.93-2.31-2.09v4.02z"/>
 <path d="m12.3 6.6797v3.96l2.31-2.12-2.31-1.84z"/>
 <path d="m16.19 2h-8.38c-3.64 0-5.81 2.17-5.81 5.81v8.37c0 3.65 2.17 5.82 5.81 5.82h8.37c3.64 0 5.81-2.17 5.81-5.81v-8.38c0.01-3.64-2.16-5.81-5.8-5.81zm-10.94 10c0-0.76 0.62-1.38 1.38-1.38s1.37 0.62 1.37 1.38-0.62 1.38-1.38 1.38-1.37-0.62-1.37-1.38zm10.32 4.54-2.41 2.01c-0.41 0.35-0.79 0.45-1.08 0.45-0.23 0-0.41-0.06-0.51-0.11-0.23-0.11-0.77-0.46-0.77-1.44v-3.39l-2.9 2.65c-0.3 0.28-0.78 0.26-1.06-0.05s-0.26-0.78 0.05-1.06l3.91-3.58v-0.08l-3.91-3.54c-0.31-0.28-0.33-0.75-0.05-1.06 0.28-0.3 0.76-0.33 1.06-0.05l2.9 2.65v-3.38c0-0.98 0.54-1.34 0.77-1.44 0.23-0.11 0.85-0.29 1.6 0.34l2.41 2.01c0.33 0.27 0.52 0.66 0.53 1.07s-0.16 0.81-0.47 1.1l-2.6 2.36 2.59 2.37c0.31 0.29 0.49 0.69 0.48 1.1-0.02 0.41-0.21 0.8-0.54 1.07zm1.81-3.16c-0.76 0-1.38-0.62-1.38-1.38s0.62-1.38 1.38-1.38 1.38 0.62 1.38 1.38-0.63 1.38-1.38 1.38z"/>
</svg>
