<?xml version="1.0" encoding="UTF-8"?>
<svg width="24" height="24" viewBox="0 0 24 24" xmlns="http://www.w3.org/2000/svg">
 <path d="m13.47 7.4101 2.46-1.21c0.3-0.15 0.38-0.54 0.15-0.78-0.89-0.98-1.79-1.8-2.51-2.42-0.33-0.28-0.82-0.05-0.82 0.38v3.58c0 0.37 0.39 0.61 0.72 0.45z"/>
 <path d="m12.75 19.74v1.65c0 0.3 0.27 0.55 0.57 0.5 2.73-0.45 5.01-2.28 6.09-4.74 0.19-0.42-0.27-0.84-0.69-0.64l-5.69 2.79c-0.17 0.08-0.28 0.25-0.28 0.44z"/>
 <path d="m11.25 3.3601c0-0.43-0.49-0.66-0.82-0.39-2.36 1.98-6.55 6.15-6.53 10.93 0 4.02 2.94 7.35 6.78 7.99 0.3 0.05 0.57-0.2 0.57-0.5v-18.03z"/>
 <path d="m13.44 12.47 5.29-2.22c0.27-0.12 0.4-0.42995 0.27-0.68995-0.37-0.73-0.8-1.44-1.27-2.1-0.14-0.2-0.4-0.26-0.62-0.16l-4.09 1.99c-0.17 0.08-0.28 0.25999-0.28 0.44999v2.27c0.01 0.35 0.37 0.6 0.7 0.46z"/>
 <path d="m19.83 14.31c0.16-0.08 0.26-0.23 0.26-0.4 0-0.64-0.08-1.27-0.22-1.89-0.07-0.3-0.4-0.46-0.68-0.34l-6.14 2.62c-0.18 0.08-0.3 0.26-0.3 0.46v2.2c0 0.37 0.39 0.61 0.72 0.45l5.9-2.87 0.46-0.23z"/>
</svg>
