<?xml version="1.0" encoding="UTF-8"?>
<svg width="24" height="24" viewBox="0 0 24 24" xmlns="http://www.w3.org/2000/svg">
 <path d="m17 4.96v7.12c0 1.99-1.41 2.76-3.14 1.72l-1.32-0.8c-0.3-0.18-0.78-0.18-1.08 0l-1.32 0.8c-1.73 1.04-3.14 0.27-3.14-1.72v-7.09c0.01-1.99 1.01-2.99 3-2.99h4c1.98 0 2.98 0.99 3 2.96z"/>
 <path d="m22 11.9v3.03c0 5.05-2 7.07-7 7.07h-6c-5 0-7-2.02-7-7.07v-3.03c0-2.69 0.57-4.52 1.85-5.64 0.65-0.55 1.65-0.07 1.65 0.78v5.04c0 1.49 0.61 2.69 1.67 3.29 1.07 0.61 2.43 0.5 3.75-0.29l1.08-0.65 1.09 0.65c0.74 0.45 1.51 0.68 2.23 0.68 0.54 0 1.05-0.13 1.51-0.39 1.06-0.6 1.67-1.8 1.67-3.29v-5.05c0-0.85 1.01-1.33 1.65-0.77 1.28 1.12 1.85 2.95 1.85 5.64z"/>
</svg>
