<svg width="24" height="24" viewBox="0 0 24 24"  xmlns="http://www.w3.org/2000/svg">
<path d="M22 4.84969V16.7397C22 17.7097 21.21 18.5997 20.24 18.7197L19.93 18.7597C18.29 18.9797 15.98 19.6597 14.12 20.4397C13.47 20.7097 12.75 20.2197 12.75 19.5097V5.59969C12.75 5.22969 12.96 4.88969 13.29 4.70969C15.12 3.71969 17.89 2.83969 19.77 2.67969H19.83C21.03 2.67969 22 3.64969 22 4.84969Z" />
<path d="M10.71 4.70969C8.87999 3.71969 6.10999 2.83969 4.22999 2.67969H4.15999C2.95999 2.67969 1.98999 3.64969 1.98999 4.84969V16.7397C1.98999 17.7097 2.77999 18.5997 3.74999 18.7197L4.05999 18.7597C5.69999 18.9797 8.00999 19.6597 9.86999 20.4397C10.52 20.7097 11.24 20.2197 11.24 19.5097V5.59969C11.24 5.21969 11.04 4.88969 10.71 4.70969ZM4.99999 7.73969H7.24999C7.65999 7.73969 7.99999 8.07969 7.99999 8.48969C7.99999 8.90969 7.65999 9.23969 7.24999 9.23969H4.99999C4.58999 9.23969 4.24999 8.90969 4.24999 8.48969C4.24999 8.07969 4.58999 7.73969 4.99999 7.73969ZM7.99999 12.2397H4.99999C4.58999 12.2397 4.24999 11.9097 4.24999 11.4897C4.24999 11.0797 4.58999 10.7397 4.99999 10.7397H7.99999C8.40999 10.7397 8.74999 11.0797 8.74999 11.4897C8.74999 11.9097 8.40999 12.2397 7.99999 12.2397Z" />
</svg>
