<?xml version="1.0" encoding="UTF-8"?>
<svg width="24" height="24" viewBox="0 0 24 24" xmlns="http://www.w3.org/2000/svg">
 <path d="m11.25 6.0001v13.91c0 0.71-0.72 1.2-1.37 0.93-1.86-0.78-4.17-1.46-5.81-1.68l-0.31-0.04c-0.97-0.12-1.76-1.01-1.76-1.98v-11.89c0-1.2 0.97-2.17 2.17-2.17h0.07c1.88 0.16 4.65 1.04 6.48 2.03 0.33 0.18 0.53 0.51 0.53 0.89z"/>
 <path d="m19.83 3.0801h-0.06c-0.24 0.02-0.5 0.05-0.77 0.1-1.23 0.2-2.69 0.62-4 1.14-0.62 0.25-1.2 0.52-1.71 0.79-0.33 0.18-0.54 0.52-0.54 0.89v13.91c0 0.71 0.72 1.2 1.37 0.93 1.86-0.78 4.17-1.46 5.81-1.68l0.31-0.04c0.97-0.12 1.76-1.01 1.76-1.98v-11.89c0-1.2-0.97-2.17-2.17-2.17zm-0.56 10.65c0 0.39-0.28 0.56-0.62 0.37l-1.06-0.59c-0.11-0.06-0.29-0.06-0.41 0l-1.06 0.59c-0.34 0.19-0.62 0.02-0.62-0.37v-3.07c0-0.46 0.38-0.84002 0.84-0.84002h2.1c0.46 0 0.84 0.38002 0.84 0.84002v3.07h-0.01z"/>
</svg>
