<?xml version="1.0" encoding="UTF-8"?>
<svg width="24" height="24" viewBox="0 0 24 24" xmlns="http://www.w3.org/2000/svg">
 <path d="m22 7.8098v8.38c0 3.21-2.6 5.81-5.81 5.81h-8.38c-3.21 0-5.81-2.6-5.81-5.81v-8.38c0-2.49 1.02-4.3 2.83-5.18 0.66-0.32 1.42 0.18 1.42 0.91v8.88c0 1.19 0.46 2.14 1.29 2.62 0.84 0.47 1.9 0.37 2.98-0.28l1.3-0.78c0.08-0.04 0.28-0.04 0.34-0.01l1.32 0.79c0.72 0.43 1.34 0.57 1.84 0.57 0.52 0 0.92-0.16 1.16-0.3 0.81-0.47 1.27-1.42 1.27-2.61v-8.88c0-0.73 0.77-1.23 1.42-0.91 1.81 0.88 2.83 2.69 2.83 5.18z"/>
 <path d="m15.25 2c0.55 0 1 0.45 1 1v9.42c0 0.64-0.19 1.12-0.52 1.31-0.34 0.2-0.88 0.1-1.48-0.26l-1.32-0.79c-0.51-0.31-1.35-0.31-1.86 0l-1.32 0.79c-0.6 0.36-1.14 0.45-1.48 0.26-0.33-0.19-0.52-0.67-0.52-1.31v-9.42c0-0.55 0.45-1 1-1h6.5z"/>
</svg>
