<?xml version="1.0" encoding="UTF-8"?>
<svg width="24" height="24" viewBox="0 0 24 24" xmlns="http://www.w3.org/2000/svg">
 <path d="m20.5 16v2.5c0 1.93-1.57 3.5-3.5 3.5h-10c-1.93 0-3.5-1.57-3.5-3.5v-0.65c0-1.57 1.28-2.85 2.85-2.85h13.15c0.55 0 1 0.45 1 1z"/>
 <path d="m15.5 2h-7c-4 0-5 1-5 5v7.58c0.76-0.67 1.76-1.08 2.85-1.08h13.15c0.55 0 1-0.45 1-1v-5.5c0-4-1-5-5-5zm-2.5 8.75h-5c-0.41 0-0.75-0.34-0.75-0.75s0.34-0.75 0.75-0.75h5c0.41 0 0.75 0.34 0.75 0.75s-0.34 0.75-0.75 0.75zm3-3.5h-8c-0.41 0-0.75-0.34-0.75-0.75s0.34-0.75 0.75-0.75h8c0.41 0 0.75 0.34 0.75 0.75s-0.34 0.75-0.75 0.75z"/>
</svg>
