<?xml version="1.0" encoding="UTF-8"?>
<svg width="24" height="24" viewBox="0 0 24 24" xmlns="http://www.w3.org/2000/svg">
 <path d="m22 4.8502v11.89c0 0.97-0.79 1.86-1.76 1.98l-0.31 0.04c-1.64 0.22-3.95 0.9-5.81 1.68-0.65 0.27-1.37-0.22-1.37-0.93v-13.91c0-0.37 0.21-0.71 0.54-0.89 1.83-0.99 4.6-1.87 6.48-2.03h0.06c1.2 0 2.17 0.97 2.17 2.17z"/>
 <path d="m10.71 4.7102c-1.83-0.99-4.6-1.87-6.48-2.03h-0.07c-1.2 0-2.17 0.97-2.17 2.17v11.89c0 0.97 0.79 1.86 1.76 1.98l0.31 0.04c1.64 0.22 3.95 0.9 5.81 1.68 0.65001 0.27 1.37-0.22 1.37-0.93v-13.91c0-0.38-0.2-0.71-0.53-0.89zm-5.71 3.03h2.25c0.41 0 0.75 0.34 0.75 0.75 0 0.42-0.34 0.75-0.75 0.75h-2.25c-0.41 0-0.75-0.33-0.75-0.75 0-0.41 0.34-0.75 0.75-0.75zm3 4.5h-3c-0.41 0-0.75-0.33-0.75-0.75 0-0.41 0.34-0.75 0.75-0.75h3c0.41 0 0.75 0.34 0.75 0.75 0 0.42-0.34 0.75-0.75 0.75z"/>
</svg>
