<?xml version="1.0" encoding="UTF-8"?>
<svg width="24" height="24" viewBox="0 0 24 24" xmlns="http://www.w3.org/2000/svg">
 <path d="m16.19 2h-8.38c-3.64 0-5.81 2.17-5.81 5.81v8.37c0 3.65 2.17 5.82 5.81 5.82h8.37c3.64 0 5.81-2.17 5.81-5.81v-8.38c0.01-3.64-2.16-5.81-5.8-5.81zm-4.69 15.25c0 0.36-0.36 0.6-0.69 0.46-1.21-0.52-2.79-1-3.89-1.14l-0.19-0.02c-0.61-0.08-1.11-0.65-1.11-1.27v-7.7c0-0.77 0.62-1.34 1.38-1.28 1.25 0.1 3.1 0.7 4.26 1.36 0.16 0.09 0.24 0.26 0.24 0.43v9.16zm6.88-1.98c0 0.62-0.5 1.19-1.11 1.27l-0.21 0.02c-1.09 0.15-2.66 0.62-3.87 1.13-0.33 0.14-0.69-0.1-0.69-0.46v-9.15c0-0.18 0.09-0.35 0.25-0.44 1.16-0.65 2.97-1.23 4.2-1.34h0.04c0.77 0 1.39 0.62 1.39 1.39v7.58z"/>
</svg>
