<svg width="24" height="24" viewBox="0 0 24 24"  xmlns="http://www.w3.org/2000/svg">
<path d="M17.6 5.30979L11.95 2.26979C11.35 1.94979 10.64 1.94979 10.04 2.26979L4.39998 5.30979C3.98998 5.53979 3.72998 5.97978 3.72998 6.45978C3.72998 6.94979 3.97998 7.38979 4.39998 7.60979L10.05 10.6498C10.35 10.8098 10.68 10.8898 11 10.8898C11.32 10.8898 11.66 10.8098 11.95 10.6498L17.6 7.60979C18.01 7.38979 18.27 6.94979 18.27 6.45978C18.27 5.97978 18.01 5.53979 17.6 5.30979Z" />
<path d="M9.12 11.7096L3.87 9.0896C3.46 8.8796 3 8.9096 2.61 9.1396C2.23 9.3796 2 9.7896 2 10.2396V15.1996C2 16.0596 2.48 16.8296 3.25 17.2196L8.5 19.8396C8.68 19.9296 8.88 19.9796 9.08 19.9796C9.31 19.9796 9.55 19.9096 9.76 19.7896C10.14 19.5496 10.37 19.1396 10.37 18.6896V13.7296C10.36 12.8696 9.88 12.0996 9.12 11.7096Z" />
<path d="M19.9999 10.2396V12.6996C19.5199 12.5596 19.0099 12.4996 18.4999 12.4996C17.1399 12.4996 15.8099 12.9696 14.7599 13.8096C13.3199 14.9396 12.4999 16.6496 12.4999 18.4996C12.4999 18.9896 12.5599 19.4796 12.6899 19.9496C12.5399 19.9296 12.3899 19.8696 12.2499 19.7796C11.8699 19.5496 11.6399 19.1396 11.6399 18.6896V13.7296C11.6399 12.8696 12.1199 12.0996 12.8799 11.7096L18.1299 9.0896C18.5399 8.8796 18.9999 8.9096 19.3899 9.1396C19.7699 9.3796 19.9999 9.7896 19.9999 10.2396Z" />
<path d="M22.58 21.4999L21.74 20.6599C22.18 19.9999 22.44 19.1999 22.44 18.3499C22.44 16.0199 20.55 14.1299 18.22 14.1299C15.89 14.1299 14 16.0199 14 18.3499C14 20.6799 15.89 22.5699 18.22 22.5699C19.07 22.5699 19.87 22.3099 20.53 21.8699L21.37 22.7099C21.54 22.8799 21.75 22.9599 21.97 22.9599C22.19 22.9599 22.41 22.8799 22.57 22.7099C22.91 22.3699 22.91 21.8299 22.58 21.4999Z" />
</svg>
