<?xml version="1.0" encoding="UTF-8"?>
<svg width="24" height="24" viewBox="0 0 24 24" xmlns="http://www.w3.org/2000/svg">
 <path d="m20.21 7.8199-7.7 4.46c-0.31 0.18-0.7 0.18-1.02 0l-7.7-4.46c-0.55-0.32-0.69-1.07-0.27-1.54 0.29-0.33 0.62-0.6 0.97-0.79l5.42-3c1.16-0.65 3.04-0.65 4.2 0l5.42 3c0.35 0.19 0.68 0.47 0.97 0.79 0.4 0.47 0.26 1.22-0.29 1.54z"/>
 <path d="m11.43 14.14v6.82c0 0.76-0.77 1.26-1.45 0.93-2.06-1.01-5.53-2.9-5.53-2.9-1.22-0.69-2.22-2.43-2.22-3.86v-5.16c0-0.79 0.83-1.29 1.51-0.9l7.19 4.17c0.3 0.19 0.5 0.53 0.5 0.9z"/>
 <path d="m12.57 14.14v6.82c0 0.76 0.77 1.26 1.45 0.93 2.06-1.01 5.53-2.9 5.53-2.9 1.22-0.69 2.22-2.43 2.22-3.86v-5.16c0-0.79-0.83-1.29-1.51-0.9l-7.19 4.17c-0.3 0.19-0.5 0.53-0.5 0.9z"/>
</svg>
