<svg width="24" height="24" viewBox="0 0 24 24"  xmlns="http://www.w3.org/2000/svg">
<path d="M20.0999 6.94C20.0999 7.48 19.8099 7.97 19.3499 8.22L17.6099 9.16L16.1299 9.95L13.0599 11.61C12.7299 11.79 12.3699 11.88 11.9999 11.88C11.6299 11.88 11.2699 11.79 10.9399 11.61L4.6499 8.22C4.1899 7.97 3.8999 7.48 3.8999 6.94C3.8999 6.4 4.1899 5.91 4.6499 5.66L6.6199 4.6L8.1899 3.75L10.9399 2.27C11.5999 1.91 12.3999 1.91 13.0599 2.27L19.3499 5.66C19.8099 5.91 20.0999 6.4 20.0999 6.94Z" />
<path d="M9.89997 12.7901L4.04997 9.87014C3.59997 9.64014 3.07997 9.67014 2.64997 9.93014C2.21997 10.1901 1.96997 10.6501 1.96997 11.1501V16.6801C1.96997 17.6401 2.49997 18.5001 3.35997 18.9301L9.20997 21.8501C9.40997 21.9501 9.62997 22.0001 9.84997 22.0001C10.11 22.0001 10.37 21.9301 10.6 21.7801C11.03 21.5201 11.28 21.0601 11.28 20.5601V15.0301C11.29 14.0801 10.76 13.2201 9.89997 12.7901Z" />
<path d="M22.03 11.1496V16.6796C22.03 17.6296 21.5 18.4896 20.64 18.9196L14.79 21.8496C14.59 21.9496 14.37 21.9996 14.15 21.9996C13.89 21.9996 13.63 21.9296 13.39 21.7796C12.97 21.5196 12.71 21.0596 12.71 20.5596V15.0396C12.71 14.0796 13.24 13.2196 14.1 12.7896L16.25 11.7196L17.75 10.9696L19.95 9.86964C20.4 9.63964 20.92 9.65964 21.35 9.92964C21.77 10.1896 22.03 10.6496 22.03 11.1496Z" />
<path d="M17.6101 9.16L16.1301 9.95L6.62012 4.6L8.19012 3.75L17.3701 8.93C17.4701 8.99 17.5501 9.07 17.6101 9.16Z" />
<path d="M17.75 10.9697V13.2397C17.75 13.6497 17.41 13.9897 17 13.9897C16.59 13.9897 16.25 13.6497 16.25 13.2397V11.7197L17.75 10.9697Z" />
</svg>
