<?xml version="1.0" encoding="UTF-8"?>
<svg width="24" height="24" viewBox="0 0 24 24" xmlns="http://www.w3.org/2000/svg">
 <path d="m20.1 6.94c0 0.54-0.29 1.03-0.75 1.28l-1.74 0.94-1.48 0.79-3.07 1.66c-0.33 0.18-0.69 0.27-1.06 0.27s-0.73-0.09-1.06-0.27l-6.29-3.39c-0.46-0.25-0.75-0.74-0.75-1.28s0.29-1.03 0.75-1.28l1.97-1.06 1.57-0.85 2.75-1.48c0.66-0.36 1.46-0.36 2.12 0l6.29 3.39c0.46 0.25 0.75 0.74 0.75 1.28z"/>
 <path d="m9.9 12.79-5.85-2.92c-0.45-0.23-0.97-0.2-1.4 0.06-0.43 0.25996-0.68 0.71996-0.68 1.22v5.53c0 0.96 0.53 1.82 1.39 2.25l5.85 2.92c0.2 0.1 0.42 0.15 0.64 0.15 0.26003 0 0.52003-0.07 0.75003-0.22 0.43-0.26 0.68-0.72 0.68-1.22v-5.53c0.01-0.95-0.52-1.81-1.38-2.24z"/>
 <path d="m22.03 11.15v5.53c0 0.95-0.53 1.81-1.39 2.24l-5.85 2.93c-0.2 0.1-0.42 0.15-0.64 0.15-0.26 0-0.52-0.07-0.76-0.22-0.42-0.26-0.68-0.72-0.68-1.22v-5.52c0-0.96 0.53-1.82 1.39-2.25l2.15-1.07 1.5-0.75 2.2-1.1c0.45-0.23 0.97-0.21 1.4 0.06 0.42 0.25997 0.68 0.71997 0.68 1.22z"/>
 <path d="m17.61 9.16-1.48 0.79-9.51-5.35 1.57-0.85 9.18 5.18c0.1 0.06 0.18 0.14 0.24 0.23z"/>
 <path d="m17.75 10.97v2.27c0 0.41-0.34 0.75-0.75 0.75s-0.75-0.34-0.75-0.75v-1.52l1.5-0.75z"/>
</svg>
