<?xml version="1.0" encoding="UTF-8"?>
<svg width="24" height="24" viewBox="0 0 24 24" xmlns="http://www.w3.org/2000/svg">
 <path d="m17.6 5.3098-5.65-3.04c-0.6-0.32-1.31-0.32-1.91 0l-5.64 3.04c-0.41 0.23-0.67 0.66999-0.67 1.15 0 0.49001 0.25 0.93001 0.67 1.15l5.65 3.04c0.3 0.16 0.63 0.24 0.95 0.24s0.66-0.08 0.95-0.24l5.65-3.04c0.41-0.22 0.67-0.66 0.67-1.15 0-0.48-0.26-0.91999-0.67-1.15z"/>
 <path d="m9.12 11.71-5.25-2.62c-0.41-0.21-0.87-0.18-1.26 0.05-0.38 0.24-0.61 0.65-0.61 1.1v4.96c0 0.86 0.48 1.63 1.25 2.02l5.25 2.62c0.18 0.09 0.38 0.14 0.58 0.14 0.23 0 0.47-0.07 0.68-0.19 0.38-0.24 0.61-0.65 0.61-1.1v-4.96c-0.01-0.86-0.49-1.63-1.25-2.02z"/>
 <path d="m20 10.24v2.46c-0.48-0.14-0.99-0.2-1.5-0.2-1.36 0-2.69 0.47-3.74 1.31-1.44 1.13-2.26 2.84-2.26 4.69 0 0.49 0.06 0.98 0.19 1.45-0.15-0.02-0.3-0.08-0.44-0.17-0.38-0.23-0.61-0.64-0.61-1.09v-4.96c0-0.86 0.48-1.63 1.24-2.02l5.25-2.62c0.41-0.21 0.87-0.18 1.26 0.05 0.38 0.24 0.61 0.65 0.61 1.1z"/>
 <path d="m22 15.7c0-0.01-0.01-0.02-0.02-0.03-0.04-0.06-0.09-0.12-0.14-0.17-0.01-0.01-0.02-0.03-0.03-0.04-0.81-0.9-2-1.46-3.31-1.46-1.26 0-2.41 0.52-3.23 1.36-0.79 0.81-1.27 1.92-1.27 3.14 0 0.84 0.24 1.64 0.65 2.32 0.22 0.37 0.5 0.71 0.82 0.99 0.02 0.01 0.03 0.02 0.04 0.03 0.05 0.05 0.1 0.09 0.16 0.14h0.01c0.01 0.01 0.02 0.02 0.03 0.02 0.75 0.63 1.72 1 2.79 1 1.64 0 3.07-0.88 3.85-2.18 0.23-0.39 0.41-0.82 0.52-1.27 0.09-0.34 0.13-0.69 0.13-1.05 0-1.06-0.37-2.04-1-2.8zm-1.82 3.53h-0.93v0.97c0 0.41-0.34 0.75-0.75 0.75s-0.75-0.34-0.75-0.75v-0.97h-0.93c-0.41 0-0.75-0.34-0.75-0.75s0.34-0.75 0.75-0.75h0.93v-0.89c0-0.41 0.34-0.75 0.75-0.75s0.75 0.34 0.75 0.75v0.89h0.93c0.41 0 0.75 0.34 0.75 0.75s-0.33 0.75-0.75 0.75z"/>
</svg>
