<svg width="24" height="24" viewBox="0 0 24 24"  xmlns="http://www.w3.org/2000/svg">
<path d="M17.6 5.31027L11.95 2.27027C11.35 1.95027 10.64 1.95027 10.04 2.27027L4.39998 5.31027C3.98998 5.54027 3.72998 5.98027 3.72998 6.46027C3.72998 6.95027 3.97998 7.39027 4.39998 7.61027L10.05 10.6503C10.35 10.8103 10.68 10.8903 11 10.8903C11.32 10.8903 11.66 10.8103 11.95 10.6503L17.6 7.61027C18.01 7.39027 18.27 6.95027 18.27 6.46027C18.27 5.98027 18.01 5.54027 17.6 5.31027Z" />
<path d="M9.12 11.7106L3.87 9.09058C3.46 8.88058 3 8.91058 2.61 9.14058C2.23 9.38058 2 9.79058 2 10.2406V15.2006C2 16.0606 2.48 16.8306 3.25 17.2206L8.5 19.8406C8.68 19.9306 8.88 19.9806 9.08 19.9806C9.31 19.9806 9.55 19.9106 9.76 19.7906C10.14 19.5506 10.37 19.1406 10.37 18.6906V13.7306C10.36 12.8706 9.88 12.1006 9.12 11.7106Z" />
<path d="M19.9999 10.2406V12.7006C19.5199 12.5606 19.0099 12.5006 18.4999 12.5006C17.1399 12.5006 15.8099 12.9706 14.7599 13.8106C13.3199 14.9406 12.4999 16.6506 12.4999 18.5006C12.4999 18.9906 12.5599 19.4806 12.6899 19.9506C12.5399 19.9306 12.3899 19.8706 12.2499 19.7806C11.8699 19.5506 11.6399 19.1406 11.6399 18.6906V13.7306C11.6399 12.8706 12.1199 12.1006 12.8799 11.7106L18.1299 9.09058C18.5399 8.88058 18.9999 8.91058 19.3899 9.14058C19.7699 9.38058 19.9999 9.79058 19.9999 10.2406Z" />
<path d="M22 15.7C22 15.69 21.99 15.68 21.98 15.67C21.94 15.61 21.89 15.55 21.84 15.5C21.83 15.49 21.82 15.47 21.81 15.46C21 14.56 19.81 14 18.5 14C17.24 14 16.09 14.52 15.27 15.36C14.48 16.17 14 17.28 14 18.5C14 19.34 14.24 20.14 14.65 20.82C14.87 21.19 15.15 21.53 15.47 21.81C15.49 21.82 15.5 21.83 15.51 21.84C15.56 21.89 15.61 21.93 15.67 21.98C15.67 21.98 15.67 21.98 15.68 21.98C15.69 21.99 15.7 22 15.71 22C16.46 22.63 17.43 23 18.5 23C20.14 23 21.57 22.12 22.35 20.82C22.58 20.43 22.76 20 22.87 19.55C22.96 19.21 23 18.86 23 18.5C23 17.44 22.63 16.46 22 15.7ZM20.18 19.23H19.25V20.2C19.25 20.61 18.91 20.95 18.5 20.95C18.09 20.95 17.75 20.61 17.75 20.2V19.23H16.82C16.41 19.23 16.07 18.89 16.07 18.48C16.07 18.07 16.41 17.73 16.82 17.73H17.75V16.84C17.75 16.43 18.09 16.09 18.5 16.09C18.91 16.09 19.25 16.43 19.25 16.84V17.73H20.18C20.59 17.73 20.93 18.07 20.93 18.48C20.93 18.89 20.6 19.23 20.18 19.23Z" />
</svg>
