<svg width="24" height="24" viewBox="0 0 24 24"  xmlns="http://www.w3.org/2000/svg">
<path d="M17.6 5.31027L11.95 2.27027C11.35 1.95027 10.64 1.95027 10.04 2.27027L4.39998 5.31027C3.98998 5.54027 3.72998 5.98027 3.72998 6.46027C3.72998 6.95027 3.97998 7.39027 4.39998 7.61027L10.05 10.6503C10.35 10.8103 10.68 10.8903 11 10.8903C11.32 10.8903 11.66 10.8103 11.95 10.6503L17.6 7.61027C18.01 7.39027 18.27 6.95027 18.27 6.46027C18.27 5.98027 18.01 5.54027 17.6 5.31027Z" />
<path d="M9.12 11.7106L3.87 9.09058C3.46 8.88058 3 8.91058 2.61 9.14058C2.23 9.38058 2 9.79058 2 10.2406V15.2006C2 16.0606 2.48 16.8306 3.25 17.2206L8.5 19.8406C8.68 19.9306 8.88 19.9806 9.08 19.9806C9.31 19.9806 9.55 19.9106 9.76 19.7906C10.14 19.5506 10.37 19.1406 10.37 18.6906V13.7306C10.36 12.8706 9.88 12.1006 9.12 11.7106Z" />
<path d="M19.9999 10.2406V12.7006C19.5199 12.5606 19.0099 12.5006 18.4999 12.5006C17.1399 12.5006 15.8099 12.9706 14.7599 13.8106C13.3199 14.9406 12.4999 16.6506 12.4999 18.5006C12.4999 18.9906 12.5599 19.4806 12.6899 19.9506C12.5399 19.9306 12.3899 19.8706 12.2499 19.7806C11.8699 19.5506 11.6399 19.1406 11.6399 18.6906V13.7306C11.6399 12.8706 12.1199 12.1006 12.8799 11.7106L18.1299 9.09058C18.5399 8.88058 18.9999 8.91058 19.3899 9.14058C19.7699 9.38058 19.9999 9.79058 19.9999 10.2406Z" />
<path d="M21.6799 15.3197C20.7899 14.4297 19.6099 13.9797 18.4399 13.9997C17.3099 14.0097 16.1799 14.4597 15.3199 15.3197C14.7199 15.9097 14.3299 16.6497 14.1399 17.4197C14.0299 17.8397 13.9899 18.2697 14.0199 18.6997V18.7497C14.0199 18.8197 14.0299 18.8797 14.0399 18.9597C14.0399 18.9597 14.0399 18.9597 14.0499 18.9697V18.9997C14.1399 19.9797 14.5599 20.9297 15.3199 21.6797C16.4799 22.8397 18.1099 23.2297 19.5799 22.8597C20.0199 22.7497 20.4499 22.5697 20.8499 22.3297C21.1499 22.1597 21.4299 21.9397 21.6799 21.6797C22.4299 20.9297 22.8599 19.9797 22.9499 18.9897C22.9599 18.9897 22.9599 18.9697 22.9599 18.9597C22.9799 18.8897 22.9799 18.8097 22.9799 18.7397C22.9799 18.7297 22.9899 18.7097 22.9899 18.6897C23.0499 17.4797 22.6099 16.2397 21.6799 15.3197ZM20.2299 20.2097C19.9399 20.4997 19.4699 20.4997 19.1699 20.2097L18.5099 19.5497L17.8299 20.2297C17.5299 20.5297 17.0599 20.5297 16.7699 20.2297C16.4699 19.9397 16.4699 19.4697 16.7699 19.1697L17.4499 18.4897L16.7899 17.8297C16.4999 17.5297 16.4999 17.0597 16.7899 16.7697C17.0899 16.4697 17.5599 16.4697 17.8599 16.7697L18.5099 17.4297L19.1399 16.7897C19.4399 16.4997 19.9099 16.4997 20.2099 16.7897C20.4999 17.0897 20.4999 17.5597 20.2099 17.8597L19.5699 18.4897L20.2299 19.1397C20.5299 19.4397 20.5299 19.9097 20.2299 20.2097Z" />
</svg>
