<?xml version="1.0" encoding="UTF-8"?>
<svg width="24" height="24" viewBox="0 0 24 24" xmlns="http://www.w3.org/2000/svg">
 <path d="m17.6 5.3098-5.65-3.04c-0.6-0.32-1.31-0.32-1.91 0l-5.64 3.04c-0.41 0.23-0.67 0.66999-0.67 1.15 0 0.49001 0.25 0.93001 0.67 1.15l5.65 3.04c0.3 0.16 0.63 0.24 0.95 0.24s0.66-0.08 0.95-0.24l5.65-3.04c0.41-0.22 0.67-0.66 0.67-1.15 0-0.48-0.26-0.91999-0.67-1.15z"/>
 <path d="m9.12 11.71-5.25-2.62c-0.41-0.21-0.87-0.18-1.26 0.05-0.38 0.24-0.61 0.65-0.61 1.1v4.96c0 0.86 0.48 1.63 1.25 2.02l5.25 2.62c0.18 0.09 0.38 0.14 0.58 0.14 0.23 0 0.47-0.07 0.68-0.19 0.38-0.24 0.61-0.65 0.61-1.1v-4.96c-0.01-0.86-0.49-1.63-1.25-2.02z"/>
 <path d="m20 10.24v2.46c-0.48-0.14-0.99-0.2-1.5-0.2-1.36 0-2.69 0.47-3.74 1.31-1.44 1.13-2.26 2.84-2.26 4.69 0 0.49 0.06 0.98 0.19 1.45-0.15-0.02-0.3-0.08-0.44-0.17-0.38-0.23-0.61-0.64-0.61-1.09v-4.96c0-0.86 0.48-1.63 1.24-2.02l5.25-2.62c0.41-0.21 0.87-0.18 1.26 0.05 0.38 0.24 0.61 0.65 0.61 1.1z"/>
 <path d="m21.68 15.32c-0.89-0.89-2.07-1.34-3.24-1.32-1.13 0.01-2.26 0.46-3.12 1.32-0.6 0.59-0.99 1.33-1.18 2.1-0.11 0.42-0.15 0.85-0.12 1.28v0.05c0 0.07 0.01 0.1299 0.02 0.2099l0.01 0.01v0.0301c0.09 0.98 0.51 1.93 1.27 2.68 1.16 1.16 2.79 1.55 4.26 1.18 0.44-0.11 0.87-0.29 1.27-0.53 0.3-0.17 0.58-0.39 0.83-0.65 0.75-0.75 1.18-1.7 1.27-2.6901 0.01 0 0.01-0.02 0.01-0.03 0.02-0.07 0.02-0.1499 0.02-0.22 0-0.01 0.01-0.0299 0.01-0.0499 0.06-1.21-0.38-2.4501-1.31-3.37zm-1.45 4.8899c-0.29 0.29-0.76 0.29-1.06 0l-0.66-0.66-0.68 0.68c-0.3 0.3-0.77 0.3-1.06 0-0.3-0.29-0.3-0.7599 0-1.0599l0.68-0.6801-0.66-0.6599c-0.29-0.3-0.29-0.77 0-1.06 0.3-0.3 0.77-0.3 1.07 0l0.65 0.66 0.63-0.64c0.3-0.29 0.77-0.29 1.07 0 0.29 0.3 0.29 0.77 0 1.07l-0.64 0.6299 0.66 0.65c0.3 0.3 0.3 0.77 0 1.07z"/>
</svg>
