<?xml version="1.0" encoding="UTF-8"?>
<svg width="24" height="24" viewBox="0 0 24 24" xmlns="http://www.w3.org/2000/svg">
 <path d="m17.6 5.3098-5.65-3.04c-0.6-0.32-1.31-0.32-1.91 0l-5.64 3.04c-0.41 0.23-0.67 0.66999-0.67 1.15 0 0.49001 0.25 0.93001 0.67 1.15l5.65 3.04c0.3 0.16 0.63 0.24 0.95 0.24s0.66-0.08 0.95-0.24l5.65-3.04c0.41-0.22 0.67-0.66 0.67-1.15 0-0.48-0.26-0.91999-0.67-1.15z"/>
 <path d="m9.12 11.71-5.25-2.62c-0.41-0.21-0.87-0.18-1.26 0.05-0.38 0.24-0.61 0.65-0.61 1.1v4.96c0 0.86 0.48 1.63 1.25 2.02l5.25 2.62c0.18 0.09 0.38 0.14 0.58 0.14 0.23 0 0.47-0.07 0.68-0.19 0.38-0.24 0.61-0.65 0.61-1.1v-4.96c-0.01-0.86-0.49-1.63-1.25-2.02z"/>
 <path d="m20 10.24v2.46c-0.48-0.14-0.99-0.2-1.5-0.2-1.36 0-2.69 0.47-3.74 1.31-1.44 1.13-2.26 2.84-2.26 4.69 0 0.49 0.06 0.98 0.19 1.45-0.15-0.02-0.3-0.08-0.44-0.17-0.38-0.23-0.61-0.64-0.61-1.09v-4.96c0-0.86 0.48-1.63 1.24-2.02l5.25-2.62c0.41-0.21 0.87-0.18 1.26 0.05 0.38 0.24 0.61 0.65 0.61 1.1z"/>
 <path d="m21.98 15.67c-0.82-1.01-2.07-1.65-3.48-1.65-1.06 0-2.04 0.37-2.81 0.99-1.04 0.82-1.69 2.09-1.69 3.51 0 0.84 0.24 1.64 0.65 2.32 0.27 0.45 0.61 0.84 1.01 1.16h0.01c0.77 0.64 1.76 1.02 2.83 1.02 1.14 0 2.17-0.42 2.96-1.12 0.35-0.3 0.65-0.66 0.89-1.06 0.41-0.68 0.65-1.48 0.65-2.32 0-1.08-0.38-2.08-1.02-2.85zm-1.22 2.29-2.4 2.22c-0.14 0.13-0.33 0.2-0.51 0.2-0.19 0-0.38-0.07-0.53-0.22l-1.11-1.11c-0.29-0.29-0.29-0.77 0-1.06s0.77-0.29 1.06 0l0.6 0.6 1.87-1.73c0.3-0.28 0.78-0.26 1.06 0.04 0.29 0.31 0.27 0.78-0.04 1.06z"/>
</svg>
