<?xml version="1.0" encoding="UTF-8"?>
<svg width="24" height="24" viewBox="0 0 24 24" xmlns="http://www.w3.org/2000/svg">
 <path d="m21.09 6.98c-0.85-0.94-2.27-1.41-4.33-1.41h-0.24v-0.04c0-1.68 0-3.76-3.76-3.76h-1.52c-3.76 0-3.76 2.09-3.76 3.76v0.05h-0.24c-2.07 0-3.48 0.47-4.33 1.41-0.99 1.1-0.96 2.58-0.86 3.59l0.01 0.07 0.07745 0.8133c0.01427 0.1498 0.09493 0.2851 0.22082 0.3674 0.23981 0.157 0.64115 0.4157 0.88173 0.5493 0.14 0.09 0.29 0.17 0.44 0.25 1.71 0.94 3.59 1.57 5.5 1.88 0.09 0.94 0.5 2.04 2.69 2.04 2.19 0 2.62-1.09 2.69-2.06 2.04-0.33 4.01-1.04 5.79-2.08 0.06-0.03 0.1-0.06 0.15-0.09 0.3968-0.2242 0.8083-0.5005 1.1835-0.7711 0.113-0.0816 0.1853-0.2076 0.2007-0.3461l0.0158-0.1428 0.05-0.47c0.01-0.06 0.01-0.11 0.02-0.18 0.08-1.01 0.06-2.39-0.88-3.43zm-8 6.85c0 1.06 0 1.22-1.23 1.22s-1.23-0.19-1.23-1.21v-1.26h2.46v1.25zm-4.18-8.26v-0.04c0-1.7 0-2.33 2.33-2.33h1.52c2.33 0 2.33 0.64 2.33 2.33v0.05h-6.18v-0.01z"/>
 <path d="m20.874 13.734c0.3536-0.1683 0.7608 0.112 0.7254 0.502l-0.3589 3.9538c-0.21 2-1.03 4.04-5.43 4.04h-7.62c-4.4 0-5.22-2.04-5.43-4.03l-0.34071-3.7478c-0.03505-0.3855 0.36291-0.6654 0.71555-0.5059 1.1394 0.5155 3.2426 1.4301 4.5417 1.7704 0.16431 0.043 0.2972 0.1606 0.36914 0.3145 0.60697 1.2981 1.9234 1.9888 3.8243 1.9888 1.8821 0 3.2151-0.7173 3.8241-2.0186 0.0721-0.154 0.2051-0.2715 0.3695-0.3148 1.3796-0.363 3.6182-1.3853 4.8099-1.9524z"/>
</svg>
