<svg width="24" height="24" viewBox="0 0 24 24"  xmlns="http://www.w3.org/2000/svg">
<path d="M11.13 15.8799C10.88 15.8799 10.63 15.7499 10.49 15.5199C10.28 15.1699 10.39 14.6999 10.75 14.4899L11.64 13.9599V12.8799C11.64 12.4699 11.98 12.1299 12.39 12.1299C12.8 12.1299 13.14 12.4699 13.14 12.8799V14.3799C13.14 14.6399 13 14.8899 12.78 15.0199L11.53 15.7699C11.39 15.8399 11.26 15.8799 11.13 15.8799Z" />
<path d="M21.09 6.97953C20.24 6.03953 18.83 5.56953 16.76 5.56953H16.52V5.52953C16.52 3.84953 16.52 1.76953 12.76 1.76953H11.24C7.48004 1.76953 7.48004 3.84953 7.48004 5.52953V5.56953H7.24004C5.17004 5.56953 3.75004 6.03953 2.91004 6.97953C1.92004 8.08953 1.95004 9.55953 2.05004 10.5695L2.06004 10.6395L2.12912 11.4455C2.14232 11.5994 2.22586 11.7387 2.35558 11.8227C2.63927 12.0063 2.94109 12.199 3.23004 12.3595C3.37004 12.4495 3.52004 12.5295 3.67004 12.6095C4.80004 13.2295 6.01004 13.7195 7.25004 14.0595C7.28004 16.6495 9.40004 18.7495 12 18.7495C14.62 18.7495 16.75 16.6195 16.75 13.9995V13.9595C18.01 13.5795 19.22 13.0495 20.35 12.3895C20.41 12.3595 20.45 12.3295 20.5 12.2995C20.8949 12.0849 21.3045 11.804 21.6782 11.539C21.7941 11.4568 21.869 11.3288 21.8847 11.1876L21.9 11.0495L21.95 10.5795C21.96 10.5195 21.96 10.4695 21.97 10.3995C22.05 9.39953 22.03 8.01953 21.09 6.97953ZM8.91004 5.52953C8.91004 3.82953 8.91004 3.18953 11.24 3.18953H12.76C15.09 3.18953 15.09 3.82953 15.09 5.52953V5.56953H8.91004V5.52953ZM12 17.2495C10.35 17.2495 8.98004 16.0095 8.78004 14.4095C8.76004 14.2795 8.75004 14.1395 8.75004 13.9995C8.75004 12.2095 10.21 10.7495 12 10.7495C13.79 10.7495 15.25 12.2095 15.25 13.9995C15.25 14.1195 15.24 14.2295 15.23 14.3395V14.3495C15.05 15.9795 13.67 17.2495 12 17.2495Z" />
<path d="M21.0401 13.7301C21.2888 13.5919 21.6115 13.7922 21.5856 14.0755L21.2301 17.9601C21.0201 19.9601 20.2001 22.0001 15.8001 22.0001H8.1801C3.7801 22.0001 2.9601 19.9601 2.7601 17.9701L2.41423 14.2668C2.38738 13.9793 2.69488 13.785 2.9501 13.9201V13.9201C3.7301 14.3501 4.5401 14.7301 5.3701 15.0301C5.6801 15.1401 5.9001 15.4001 5.9901 15.7201C6.7401 18.3201 9.1601 20.2501 12.0001 20.2501C14.8901 20.2501 17.3301 18.2801 18.0401 15.5801C18.1201 15.2601 18.3401 15.0001 18.6501 14.8801C19.4901 14.5501 20.2901 14.1601 21.0401 13.7301V13.7301Z" />
</svg>
