<?xml version="1.0" encoding="UTF-8"?>
<svg width="24" height="24" viewBox="0 0 24 24" xmlns="http://www.w3.org/2000/svg">
 <path d="m21.09 6.98c-0.85-0.94-2.26-1.41-4.33-1.41h-0.24v-0.04c0-1.68 0-3.76-3.76-3.76h-1.52c-3.76 0-3.76 2.08-3.76 3.76v0.04h-0.24c-2.07 0-3.49 0.47-4.33 1.41-0.99 1.11-0.96 2.58-0.86 3.59l0.01 0.07 0.06908 0.806c0.0132 0.1539 0.09674 0.2932 0.22646 0.3772 0.28369 0.1836 0.58551 0.3763 0.87446 0.5368 0.14 0.09 0.29 0.17 0.44 0.25 1.13 0.62 2.34 1.11 3.58 1.45 0.03 2.59 2.15 4.69 4.75 4.69 2.62 0 4.75-2.13 4.75-4.75v-0.04c1.26-0.38 2.47-0.91 3.6-1.57 0.06-0.03 0.1-0.06 0.15-0.09 0.3947-0.2145 0.804-0.4952 1.1776-0.76 0.1162-0.0825 0.1912-0.211 0.2066-0.3527l0.0658-0.6073c0.01-0.06 0.01-0.11 0.02-0.18 0.08-0.99998 0.06-2.38-0.88-3.42zm-12.18-1.45c0-1.7 0-2.34 2.33-2.34h1.52c2.33 0 2.33 0.64 2.33 2.34v0.04h-6.18v-0.04zm3.09 11.72c-1.65 0-3.02-1.24-3.22-2.84-0.02-0.13-0.03-0.27-0.03-0.41 0-1.79 1.46-3.25 3.25-3.25s3.25 1.46 3.25 3.25c0 0.12-0.01 0.23-0.02 0.34v0.01c-0.18 1.63-1.56 2.9-3.23 2.9z"/>
 <path d="m11.43 16.03c-0.19 0-0.38-0.07-0.53-0.22l-0.99002-0.98c-0.29-0.29-0.29-0.77 0-1.06 0.29002-0.29 0.77002-0.29 1.06 0l0.48 0.48 1.61-1.48c0.3-0.28 0.78-0.26 1.06 0.04s0.26 0.78-0.04 1.06l-2.13 1.97c-0.16 0.12-0.34 0.19-0.52 0.19z"/>
 <path d="m21.042 13.731c0.2487-0.1382 0.5713 0.062 0.5454 0.3454l-0.3554 3.8846c-0.21 2-1.03 4.04-5.43 4.04h-7.62c-4.4 0-5.22-2.04-5.42-4.03l-0.34587-3.7033c-0.02685-0.2876 0.28066-0.4818 0.53587-0.3467 0.78 0.43 1.59 0.81 2.42 1.11 0.31 0.11 0.53 0.37 0.62 0.69 0.75 2.6 3.17 4.53 6.01 4.53 2.89 0 5.33-1.97 6.04-4.67 0.08-0.32 0.3-0.58 0.61-0.7 0.84-0.33 1.64-0.72 2.39-1.15z"/>
</svg>
