<svg width="24" height="24" viewBox="0 0 24 24"  xmlns="http://www.w3.org/2000/svg">
<path d="M13.6001 14.5104L13.0701 13.9804L13.5701 13.4804C13.8601 13.1904 13.8601 12.7104 13.5701 12.4204C13.2801 12.1304 12.8001 12.1304 12.5101 12.4204L12.0101 12.9204L11.4801 12.3904C11.1901 12.1004 10.7101 12.1004 10.4201 12.3904C10.1301 12.6804 10.1301 13.1604 10.4201 13.4504L10.9501 13.9804L10.4001 14.5304C10.1101 14.8204 10.1101 15.3004 10.4001 15.5904C10.5501 15.7404 10.7401 15.8104 10.9301 15.8104C11.1201 15.8104 11.3101 15.7404 11.4601 15.5904L12.0101 15.0404L12.5401 15.5704C12.6901 15.7204 12.8801 15.7904 13.0701 15.7904C13.2601 15.7904 13.4501 15.7204 13.6001 15.5704C13.8901 15.2804 13.8901 14.8104 13.6001 14.5104Z" />
<path d="M21.09 6.97953C20.24 6.03953 18.83 5.56953 16.76 5.56953H16.52V5.52953C16.52 3.84953 16.52 1.76953 12.76 1.76953H11.24C7.48004 1.76953 7.48004 3.84953 7.48004 5.52953V5.56953H7.24004C5.17004 5.56953 3.75004 6.03953 2.91004 6.97953C1.92004 8.08953 1.95004 9.55953 2.05004 10.5695L2.06004 10.6395L2.12912 11.4455C2.14232 11.5994 2.22586 11.7387 2.35558 11.8227C2.63927 12.0063 2.94109 12.199 3.23004 12.3595C3.37004 12.4495 3.52004 12.5295 3.67004 12.6095C4.80004 13.2295 6.01004 13.7195 7.25004 14.0595C7.28004 16.6495 9.40004 18.7495 12 18.7495C14.62 18.7495 16.75 16.6195 16.75 13.9995V13.9595C18.01 13.5795 19.22 13.0495 20.35 12.3895C20.41 12.3595 20.45 12.3295 20.5 12.2995C20.8949 12.0849 21.3045 11.804 21.6782 11.539C21.7941 11.4568 21.869 11.3288 21.8847 11.1876L21.9 11.0495L21.95 10.5795C21.96 10.5195 21.96 10.4695 21.97 10.3995C22.05 9.39953 22.03 8.01953 21.09 6.97953ZM8.91004 5.52953C8.91004 3.82953 8.91004 3.18953 11.24 3.18953H12.76C15.09 3.18953 15.09 3.82953 15.09 5.52953V5.56953H8.91004V5.52953ZM12 17.2495C10.35 17.2495 8.98004 16.0095 8.78004 14.4095C8.76004 14.2795 8.75004 14.1395 8.75004 13.9995C8.75004 12.2095 10.21 10.7495 12 10.7495C13.79 10.7495 15.25 12.2095 15.25 13.9995C15.25 14.1195 15.24 14.2295 15.23 14.3395V14.3495C15.05 15.9795 13.67 17.2495 12 17.2495Z" />
<path d="M21.0416 13.7311C21.2903 13.5929 21.6129 13.7931 21.587 14.0765L21.2316 17.9611C21.0216 19.9611 20.2016 22.0011 15.8016 22.0011H8.18156C3.78156 22.0011 2.96156 19.9611 2.76156 17.9711L2.41569 14.2678C2.38884 13.9802 2.69635 13.786 2.95156 13.9211V13.9211C3.73156 14.3511 4.54156 14.7311 5.37156 15.0311C5.68156 15.1411 5.90156 15.4011 5.99156 15.7211C6.74156 18.3211 9.16156 20.2511 12.0016 20.2511C14.8916 20.2511 17.3316 18.2811 18.0416 15.5811C18.1216 15.2611 18.3416 15.0011 18.6516 14.8811C19.4916 14.5511 20.2916 14.1611 21.0416 13.7311V13.7311Z" />
</svg>
