<?xml version="1.0" encoding="UTF-8"?>
<svg width="24" height="24" viewBox="0 0 24 24" xmlns="http://www.w3.org/2000/svg">
 <path d="m8.82 4.9-1.28-2.12c-0.48-0.78-1.43-1.22-2.32-0.96-1.34 0.4-1.86 1.91-1.19 3.02l1.32 2.17c0.15 0.23 0.46 0.31 0.69 0.17l2.61-1.59c0.24-0.15 0.32-0.46 0.17-0.69z"/>
 <path d="m19.74 14.21-2.81-3.8c-0.98-1.32-2.68-1.94-4.28-1.51 0-0.01-0.01-0.01-0.01-0.02l-1.66-2.73c-0.3-0.47-0.92-0.62-1.39-0.33l-3.47 2.11c-0.48 0.28-0.63 0.91-0.34 1.39l1.65 2.73s0 0.01 0.01 0.01c-1.11 1.23-1.35 3.02-0.61 4.51l2.08 4.24c0.64 1.31 2.15 1.81 3.43 1.15 0.1-0.05 0.13-0.17 0.07-0.27l-1.56-2.58c-0.22-0.36-0.11-0.82 0.25-1.05 0.36-0.21 0.82-0.1 1.05 0.25l1.57 2.58c0.06 0.09 0.18 0.12 0.27 0.07l0.96-0.58c0.09-0.06 0.12-0.18 0.07-0.27l-1.57-2.58c-0.21-0.36-0.1-0.82 0.25-1.05 0.37-0.21 0.83-0.1 1.05 0.25l1.57 2.58c0.06 0.09 0.18 0.12 0.27 0.07l0.96-0.58c0.09-0.06 0.12-0.18 0.07-0.27l-1.57-2.58c-0.21-0.36-0.1-0.82 0.25-1.05 0.37-0.21 0.83-0.1 1.05 0.25l1.58 2.57c0.06 0.09 0.18 0.12 0.27 0.06 1.16-0.83 1.42-2.39 0.54-3.57z"/>
</svg>
