<svg width="24" height="24" viewBox="0 0 24 24"  xmlns="http://www.w3.org/2000/svg">
<path d="M8.82005 4.89997L7.54005 2.77997C7.06005 1.99997 6.11005 1.55997 5.22005 1.81997C3.88005 2.21997 3.36005 3.72997 4.03005 4.83997L5.35005 7.00997C5.50005 7.23997 5.81005 7.31997 6.04005 7.17997L8.65005 5.58997C8.89005 5.43997 8.97005 5.12997 8.82005 4.89997Z" />
<path d="M19.7401 14.21L16.9301 10.41C15.9501 9.08996 14.2501 8.46996 12.6501 8.89996C12.6501 8.88996 12.6401 8.88996 12.6401 8.87996L10.9801 6.14996C10.6801 5.67996 10.0601 5.52996 9.59012 5.81996L6.12012 7.92996C5.64012 8.20996 5.49012 8.83996 5.78012 9.31996L7.43012 12.05C7.43012 12.05 7.43012 12.06 7.44012 12.06C6.33012 13.29 6.09012 15.08 6.83012 16.57L8.91012 20.81C9.55012 22.12 11.0601 22.62 12.3401 21.96C12.4401 21.91 12.4701 21.79 12.4101 21.69L10.8501 19.11C10.6301 18.75 10.7401 18.29 11.1001 18.06C11.4601 17.85 11.9201 17.96 12.1501 18.31L13.7201 20.89C13.7801 20.98 13.9001 21.01 13.9901 20.96L14.9501 20.38C15.0401 20.32 15.0701 20.2 15.0201 20.11L13.4501 17.53C13.2401 17.17 13.3501 16.71 13.7001 16.48C14.0701 16.27 14.5301 16.38 14.7501 16.73L16.3201 19.31C16.3801 19.4 16.5001 19.43 16.5901 19.38L17.5501 18.8C17.6401 18.74 17.6701 18.62 17.6201 18.53L16.0501 15.95C15.8401 15.59 15.9501 15.13 16.3001 14.9C16.6701 14.69 17.1301 14.8 17.3501 15.15L18.9301 17.72C18.9901 17.81 19.1101 17.84 19.2001 17.78C20.3601 16.95 20.6201 15.39 19.7401 14.21Z" />
</svg>
