<?xml version="1.0" encoding="UTF-8"?>
<svg width="24" height="24" viewBox="0 0 24 24" xmlns="http://www.w3.org/2000/svg">
 <path d="m9.5 19.5v-1.5h-5c-0.55 0-1.05-0.22-1.41-0.59-0.37-0.36-0.59-0.86-0.59-1.41 0-1.03 0.8-1.89 1.81-1.99 0.06-0.01 0.12-0.01 0.19-0.01h15c0.07 0 0.13 0 0.19 0.01 0.48 0.04 0.9 0.25 1.22 0.58 0.41 0.4 0.63 0.97 0.58 1.59-0.09 1.05-1.04 1.82-2.1 1.82h-4.89v1.5c0 1.38-1.12 2.5-2.5 2.5s-2.5-1.12-2.5-2.5z"/>
 <path d="m17.19 2h-3.94c-0.28 0-0.5 0.22-0.5 0.5v1.5c0 0.41-0.34 0.75-0.75 0.75-0.09 0-0.17-0.02-0.25-0.05-0.29-0.1-0.5-0.38-0.5-0.7v-1.5c0-0.28-0.22-0.5-0.5-0.5h-1.51c-0.28 0-0.5 0.22-0.5 0.5v4.5c0 0.41-0.34 0.75-0.75 0.75s-0.75-0.34-0.75-0.75v-4.5c0-0.27-0.2-0.48-0.47-0.5h-0.03c-1.74 0.04-3.09 1.55-2.91 3.3l0.37 6.75c0.03 0.53 0.47 0.95 1 0.95h13.6c0.53 0 0.97-0.42 1-0.95l0.37-6.75c0.18-1.77-1.21-3.3-2.98-3.3z"/>
</svg>
