<?xml version="1.0" encoding="UTF-8"?>
<svg width="24" height="24" viewBox="0 0 24 24" xmlns="http://www.w3.org/2000/svg">
 <path d="m6 2h12c1.1 0 2 0.9 2 2v3.32c0 0.55-0.45 1-1 1h-14c-0.55 0-1-0.45-1-1v-3.32c0-1.1 0.9-2 2-2z"/>
 <path d="m4 10.32v1.56c0 1.08 0.58 2.08 1.53 2.61l2.96 1.67c0.63 0.35 1.02 1.02 1.02 1.74v2.1c0 1.1 0.9 2 2 2h1c1.1 0 2-0.9 2-2v-2.1c0-0.72 0.39-1.39 1.02-1.74l2.96-1.67c0.94-0.53 1.53-1.53 1.53-2.61v-1.56c0-0.54998-0.45-0.99998-1-0.99998h-14.02c-0.55 0-1 0.44-1 0.99998z"/>
</svg>
