<?xml version="1.0" encoding="UTF-8"?>
<svg width="24" height="24" viewBox="0 0 24 24" xmlns="http://www.w3.org/2000/svg">
 <path d="m16.19 2h-8.38c-3.64 0-5.81 2.17-5.81 5.81v8.37c0 3.65 2.17 5.82 5.81 5.82h8.37c3.64 0 5.81-2.17 5.81-5.81v-8.38c0.01-3.64-2.16-5.81-5.8-5.81zm-5.7 14.72c-0.34 0.34-0.79 0.57-1.34 0.64l-1.35 0.15c-0.74 0.08-1.37-0.55-1.29-1.3l0.15-1.36c0.13-1.21 1.14-1.98 2.21-2 0.1-0.01 0.22 0 0.33 0.01 0.47 0.06 0.92 0.28 1.3 0.65 0.37 0.37 0.58 0.81 0.64 1.26 0.01 0.11 0.02 0.22 0.02 0.32 0 0.62-0.23 1.19-0.67 1.63zm6.95-9.17c-0.72 1.8-2.37 4.16-3.94 5.7-0.23-1.42-1.36-2.54-2.8-2.74 1.54-1.58 3.92-3.25 5.73-3.98 0.32-0.12 0.64-0.03 0.84 0.17 0.2 0.22 0.3 0.53 0.17 0.85z"/>
</svg>
