<?xml version="1.0" encoding="UTF-8"?>
<svg width="24" height="24" viewBox="0 0 24 24" xmlns="http://www.w3.org/2000/svg">
 <path d="m17.04 10.64-7.35-7.35-0.87-0.87c-0.29-0.29-0.77-0.29-1.06 0s-0.29 0.77 0 1.06l0.87 0.87-5.63 5.63c-0.64 0.63996-0.98 1.29-1 1.94-0.02 0.69 0.32 1.38 1 2.07l4.01 4.01c1.34 1.33 2.68 1.33 4.01 0l6.02-6.02c0.2-0.2 0.29-0.47 0.27-0.73-0.01-0.22-0.11-0.45-0.27-0.61z"/>
 <path d="m16 22.75h-13c-0.41 0-0.75-0.34-0.75-0.75s0.34-0.75 0.75-0.75h13c0.41 0 0.75 0.34 0.75 0.75s-0.34 0.75-0.75 0.75z"/>
 <path d="m19.35 14.78c-0.26-0.28-0.74-0.28-1 0-0.31 0.34-1.85 2.07-1.85 3.39 0 1.3 1.05 2.35 2.35 2.35s2.35-1.05 2.35-2.35c0-1.31-1.54-3.05-1.85-3.39z"/>
</svg>
