<svg width="24" height="24" viewBox="0 0 24 24"  xmlns="http://www.w3.org/2000/svg">
<path d="M17.0401 10.6401L9.6901 3.29014L8.8201 2.42014C8.5301 2.13014 8.0501 2.13014 7.7601 2.42014C7.4701 2.71014 7.4701 3.19014 7.7601 3.48014L8.6301 4.35014L3.0001 9.98014C2.3601 10.6201 2.0201 11.2701 2.0001 11.9201C1.9801 12.6101 2.3201 13.3001 3.0001 13.9901L7.0101 18.0001C8.3501 19.3301 9.6901 19.3301 11.0201 18.0001L17.0401 11.9801C17.2401 11.7801 17.3301 11.5101 17.3101 11.2501C17.3001 11.0301 17.2001 10.8001 17.0401 10.6401Z" />
<path d="M16 22.75H3C2.59 22.75 2.25 22.41 2.25 22C2.25 21.59 2.59 21.25 3 21.25H16C16.41 21.25 16.75 21.59 16.75 22C16.75 22.41 16.41 22.75 16 22.75Z" />
<path d="M19.35 14.7798C19.09 14.4998 18.61 14.4998 18.35 14.7798C18.04 15.1198 16.5 16.8498 16.5 18.1698C16.5 19.4698 17.55 20.5198 18.85 20.5198C20.15 20.5198 21.2 19.4698 21.2 18.1698C21.2 16.8598 19.66 15.1198 19.35 14.7798Z" />
</svg>
