<?xml version="1.0" encoding="UTF-8"?>
<svg width="24" height="24" viewBox="0 0 24 24" xmlns="http://www.w3.org/2000/svg">
 <path d="m12 2c-5.52 0-10 4.48-10 10s4.48 10 10 10 10-4.48 10-10-4.48-10-10-10zm-0.37 14.25c-0.85 0.85-1.71 0.85-2.57 0l-2.56-2.57c-0.44-0.44-0.65-0.88-0.64-1.33 0.01-0.42 0.23-0.83 0.64-1.24l3.6-3.6-0.56-0.55c-0.19-0.19-0.19-0.49 0-0.68s0.49-0.19 0.68 0l5.25 5.25c0.1 0.1 0.17 0.25 0.17 0.39 0.01 0.17-0.04 0.34-0.17 0.47l-3.84 3.86zm5.01 1.61c-0.83 0-1.5-0.67-1.5-1.5 0-0.84 0.99-1.95 1.19-2.17 0.16-0.18 0.47-0.18 0.64 0 0.2 0.21 1.19 1.33 1.19 2.17-0.02 0.83-0.69 1.5-1.52 1.5z"/>
</svg>
