<?xml version="1.0" encoding="UTF-8"?>
<svg width="24" height="24" viewBox="0 0 24 24" xmlns="http://www.w3.org/2000/svg">
 <path d="m15 7.0698c0-0.67-0.33-1.29-0.89-1.66l-4-2.67c-0.67-0.45-1.55-0.45-2.22 0l-4 2.67c-0.55 0.37-0.89 0.99-0.89 1.66v5.68c0 0.28 0.22 0.5 0.5 0.5h11c0.28 0 0.5-0.22 0.5-0.5v-5.68zm-6 3.68c-0.96 0-1.75-0.78996-1.75-1.75s0.79-1.75 1.75-1.75 1.75 0.79 1.75 1.75-0.79 1.75-1.75 1.75z"/>
 <path d="m22 21.25h-1.27v-3c0.95-0.31 1.64-1.2 1.64-2.25v-2c0-1.31-1.07-2.38-2.38-2.38s-2.38 1.07-2.38 2.38v2c0 1.04 0.68 1.92 1.61 2.24v3.01h-4.22v-6c0-0.28-0.22-0.5-0.5-0.5h-11c-0.28 0-0.5 0.22-0.5 0.5v6h-1c-0.41 0-0.75 0.34-0.75 0.75s0.34 0.75 0.75 0.75h17.93c0.02 0 0.03 0.01 0.05 0.01s0.03-0.01 0.05-0.01h1.97c0.41 0 0.75-0.34 0.75-0.75s-0.34-0.75-0.75-0.75zm-13.75-3c0-0.41 0.34-0.75 0.75-0.75s0.75 0.34 0.75 0.75v3h-1.5v-3z"/>
</svg>
