<?xml version="1.0" encoding="UTF-8"?>
<svg width="24" height="24" viewBox="0 0 24 24" xmlns="http://www.w3.org/2000/svg">
 <path d="m11.32 3h-6.23c-1.99 0-2.99 1.01-2.99 3.02v15.98h5.4v-3.75c0-0.41 0.34-0.75 0.75-0.75s0.75 0.33 0.75 0.75v3.75h5.3v-15.98c0-2.01-0.99-3.02-2.98-3.02zm-0.57 9.75h-4.95c-0.41 0-0.75-0.34-0.75-0.75s0.34-0.75 0.75-0.75h4.95c0.41 0 0.75 0.34 0.75 0.75s-0.34 0.75-0.75 0.75zm0-3.75h-4.95c-0.41 0-0.75-0.34-0.75-0.75s0.34-0.75 0.75-0.75h4.95c0.41 0 0.75 0.34 0.75 0.75s-0.34 0.75-0.75 0.75z"/>
 <path d="m23 21.25h-2.27v-3c0.95-0.31 1.64-1.2 1.64-2.25v-2c0-1.31-1.07-2.38-2.38-2.38s-2.38 1.07-2.38 2.38v2c0 1.04 0.68 1.92 1.61 2.24v3.01h-18.22c-0.41 0-0.75 0.34-0.75 0.75s0.34 0.75 0.75 0.75h18.93c0.02 0 0.03 0.01 0.05 0.01s0.03-0.01 0.05-0.01h2.97c0.41 0 0.75-0.34 0.75-0.75s-0.34-0.75-0.75-0.75z"/>
</svg>
