<?xml version="1.0" encoding="UTF-8"?>
<svg width="24" height="24" viewBox="0 0 24 24" xmlns="http://www.w3.org/2000/svg">
 <path d="m10.75 4.6404-4.43-2.19c-2.39-1.17-4.35 0.02-4.35 2.64v14.84c0 1.14 0.95 2.07 2.11 2.07h7.42c0.55 0 1-0.45 1-1v-13.59c0-1.05-0.79-2.3-1.75-2.77zm-1.78 9.11h-3.47c-0.41 0-0.75-0.34-0.75-0.75s0.34-0.75 0.75-0.75h3.47c0.41 0 0.75 0.34 0.75 0.75s-0.33 0.75-0.75 0.75zm0-4h-3.47c-0.41 0-0.75-0.34-0.75-0.75s0.34-0.75 0.75-0.75h3.47c0.41 0 0.75 0.34 0.75 0.75s-0.33 0.75-0.75 0.75z"/>
 <path d="m22 18.04v1.46c0 1.38-1.12 2.5-2.5 2.5h-4.53c-0.54 0-0.97-0.43-0.97-0.97v-2.16c1.07 0.13 2.2-0.18 3.01-0.83 0.68 0.55 1.55 0.88 2.5 0.88 0.93 0 1.8-0.33 2.49-0.88z"/>
 <path d="m22 15.05v0.01c-0.08 1.31-1.15 2.36-2.49 2.36-1.39 0-2.5-1.13-2.5-2.5 0 1.53-1.41 2.76-3.01 2.45v-5.37c0-0.64 0.59-1.12 1.22-0.98l1.79 0.4 0.48 0.11 2.04 0.46c0.49 0.1 0.94 0.27 1.33 0.52 0 0.01 0.01 0.01 0.01 0.01 0.1 0.07 0.2 0.15 0.29 0.24 0.46 0.46 0.76 1.13 0.83 2.11 0 0.06 0.01 0.12 0.01 0.18z"/>
</svg>
