<?xml version="1.0" encoding="UTF-8"?>
<svg width="24" height="24" viewBox="0 0 24 24" xmlns="http://www.w3.org/2000/svg">
 <path d="m5 8c-1.66 0-3 1.34-3 3v8c0 1.66 1.34 3 3 3h1.5c1.1 0 2-0.9 2-2v-10c0-1.1-0.9-2-2-2h-1.5zm1 9c0 0.41-0.34 0.75-0.75 0.75s-0.75-0.34-0.75-0.75v-4c0-0.41 0.34-0.75 0.75-0.75s0.75 0.34 0.75 0.75v4z"/>
 <path d="m19 2h-6c-1.66 0-3 1.34-3 3v14c0 1.66 1.34 3 3 3h0.5c0.28 0 0.5-0.22 0.5-0.5v-3.5c0-0.55 0.45-1 1-1h2c0.55 0 1 0.45 1 1v3.5c0 0.28 0.22 0.5 0.5 0.5h0.5c1.66 0 3-1.34 3-3v-14c0-1.66-1.34-3-3-3zm-4.25 11c0 0.41-0.34 0.75-0.75 0.75s-0.75-0.34-0.75-0.75v-5c0-0.41 0.34-0.75 0.75-0.75s0.75 0.34 0.75 0.75v5zm4 0c0 0.41-0.34 0.75-0.75 0.75s-0.75-0.34-0.75-0.75v-5c0-0.41 0.34-0.75 0.75-0.75s0.75 0.34 0.75 0.75v5z"/>
</svg>
