<svg width="24" height="24" viewBox="0 0 24 24"  xmlns="http://www.w3.org/2000/svg">
<path d="M10.75 4.64035L6.31997 2.45035C3.92997 1.28035 1.96997 2.47035 1.96997 5.09035V19.9303C1.96997 21.0703 2.91997 22.0003 4.07997 22.0003H11.5C12.05 22.0003 12.5 21.5503 12.5 21.0003V7.41035C12.5 6.36035 11.71 5.11035 10.75 4.64035ZM8.96997 13.7503H5.49997C5.08997 13.7503 4.74997 13.4103 4.74997 13.0003C4.74997 12.5903 5.08997 12.2503 5.49997 12.2503H8.96997C9.37997 12.2503 9.71997 12.5903 9.71997 13.0003C9.71997 13.4103 9.38997 13.7503 8.96997 13.7503ZM8.96997 9.75035H5.49997C5.08997 9.75035 4.74997 9.41035 4.74997 9.00035C4.74997 8.59035 5.08997 8.25035 5.49997 8.25035H8.96997C9.37997 8.25035 9.71997 8.59035 9.71997 9.00035C9.71997 9.41035 9.38997 9.75035 8.96997 9.75035Z" />
<path d="M22 18.04V19.5C22 20.88 20.88 22 19.5 22H14.97C14.43 22 14 21.57 14 21.03V18.87C15.07 19 16.2 18.69 17.01 18.04C17.69 18.59 18.56 18.92 19.51 18.92C20.44 18.92 21.31 18.59 22 18.04Z" />
<path d="M22 15.0495V15.0595C21.92 16.3695 20.85 17.4195 19.51 17.4195C18.12 17.4195 17.01 16.2895 17.01 14.9195C17.01 16.4495 15.6 17.6795 14 17.3695V11.9995C14 11.3595 14.59 10.8795 15.22 11.0195L17.01 11.4195L17.49 11.5295L19.53 11.9895C20.02 12.0895 20.47 12.2595 20.86 12.5095C20.86 12.5195 20.87 12.5195 20.87 12.5195C20.97 12.5895 21.07 12.6695 21.16 12.7595C21.62 13.2195 21.92 13.8895 21.99 14.8695C21.99 14.9295 22 14.9895 22 15.0495Z" />
</svg>
