<?xml version="1.0" encoding="UTF-8"?>
<svg width="24" height="24" viewBox="0 0 24 24" xmlns="http://www.w3.org/2000/svg">
 <path d="M10.6 4.15C10.6 4.34 10.44 4.5 10.25 4.5H9.12C6.96 4.5 5.2 6.26 5.2 8.42V17.65C5.2 17.84 5.04 18 4.85 18H4.15C2.96 18 2 17.04 2 15.85V4.15C2 2.96 2.96 2 4.15 2H8.45C9.64 2 10.6 2.96 10.6 4.15Z"/>
 <path d="m22 4.15v11.7c0 1.19-0.96 2.15-2.15 2.15h-0.63c-0.19 0-0.35-0.16-0.35-0.35v-9.23c0-2.16-1.76-3.92-3.92-3.92h-1.2c-0.19 0-0.35-0.16-0.35-0.35 0-1.19 0.96-2.15 2.15-2.15h4.3c1.19 0 2.15 0.96 2.15 2.15z"/>
 <path d="m14.95 6h-5.83c-1.34 0-2.42 1.08-2.42 2.42v11.16c0 1.34 1.08 2.42 2.42 2.42h1.63c0.28 0 0.5-0.22 0.5-0.5v-2.5c0-0.41 0.34-0.75 0.75-0.75s0.75 0.34 0.75 0.75v2.5c0 0.28 0.22 0.5 0.5 0.5h1.71c1.33 0 2.41-1.08 2.41-2.41v-11.17c0-1.34-1.08-2.42-2.42-2.42zm-0.95 8.75h-4c-0.41 0-0.75-0.34-0.75-0.75s0.34-0.75 0.75-0.75h4c0.41 0 0.75 0.34 0.75 0.75s-0.34 0.75-0.75 0.75zm0-3h-4c-0.41 0-0.75-0.34-0.75-0.75s0.34-0.75 0.75-0.75h4c0.41 0 0.75 0.34 0.75 0.75s-0.34 0.75-0.75 0.75z"/>
</svg>
