<?xml version="1.0" encoding="UTF-8"?>
<svg width="24" height="24" viewBox="0 0 24 24" xmlns="http://www.w3.org/2000/svg">
 <path d="m4 13.5v5.4c0 1.7 1.39 3.1 3.1 3.1h9.8c1.7 0 3.1-1.39 3.1-3.1v-5.4c0-0.28-0.22-0.5-0.5-0.5h-15c-0.28 0-0.5 0.22-0.5 0.5zm4.88 4.88c-0.23 0.24-0.55 0.37-0.88 0.37-0.08 0-0.16-0.01-0.24-0.02-0.08-0.02-0.16-0.04-0.24-0.08-0.07-0.03-0.15-0.07-0.21-0.11-0.07-0.05-0.14-0.1-0.19-0.16-0.24-0.23-0.37-0.55-0.37-0.88s0.13-0.65 0.37-0.88c0.05-0.06 0.12-0.11 0.19-0.16 0.06-0.04 0.14-0.08 0.21-0.11 0.08-0.04 0.16-0.06 0.24-0.08 0.4-0.08 0.83 0.06 1.12 0.35 0.24 0.23 0.37 0.55 0.37 0.88s-0.13 0.65-0.37 0.88zm8 0c-0.05 0.06-0.12 0.11-0.19 0.16-0.06 0.04-0.14 0.08-0.21 0.11-0.08 0.04-0.16 0.06-0.23 0.08-0.09 0.01-0.17 0.02-0.25 0.02s-0.16-0.01-0.24-0.02c-0.08-0.02-0.16-0.04-0.24-0.08-0.07-0.03-0.15-0.07-0.21-0.11-0.07-0.05-0.14-0.1-0.19-0.16-0.24-0.23-0.37-0.55-0.37-0.88s0.13-0.65 0.37-0.88c0.05-0.06 0.12-0.11 0.19-0.16 0.06-0.04 0.14-0.08 0.21-0.11 0.08-0.04 0.16-0.06 0.24-0.08 0.16-0.03 0.32-0.03 0.49 0 0.07 0.02 0.15 0.04 0.23 0.08 0.07 0.03 0.15 0.07 0.21 0.11 0.07 0.05 0.14 0.1 0.19 0.16 0.24 0.23 0.37 0.55 0.37 0.88s-0.13 0.65-0.37 0.88z"/>
 <path d="m16.9 2h-9.8c-1.71 0-3.1 1.39-3.1 3.1v2.4c0 0.28 0.22 0.5 0.5 0.5h15c0.28 0 0.5-0.22 0.5-0.5v-2.4c0-1.71-1.39-3.1-3.1-3.1zm-2.4 3.75h-5c-0.41 0-0.75-0.34-0.75-0.75s0.34-0.75 0.75-0.75h5c0.41 0 0.75 0.34 0.75 0.75s-0.34 0.75-0.75 0.75z"/>
 <path d="m19.5 12h-15c-0.28 0-0.5-0.22-0.5-0.5v-2c0-0.28 0.22-0.5 0.5-0.5h15c0.28 0 0.5 0.22 0.5 0.5v2c0 0.28-0.22 0.5-0.5 0.5z"/>
</svg>
