<?xml version="1.0" encoding="UTF-8"?>
<svg width="24" height="24" viewBox="0 0 24 24" xmlns="http://www.w3.org/2000/svg">
 <path d="m22 8.5c0 3.26-2.4 5.95-5.52 6.42v-0.06c-0.31-3.88-3.46-7.03-7.37-7.34h-0.03c0.47-3.12 3.16-5.52 6.42-5.52 3.59 0 6.5 2.91 6.5 6.5z"/>
 <path d="m14.98 14.98c-0.25-3.17-2.79-5.71-5.96-5.96-0.17-0.01-0.35-0.02-0.52-0.02-3.59 0-6.5 2.91-6.5 6.5s2.91 6.5 6.5 6.5 6.5-2.91 6.5-6.5c0-0.17-0.01-0.35-0.02-0.52zm-5.6 1.4-0.88 1.62-0.88-1.62-1.62-0.88 1.62-0.88 0.88-1.62 0.88 1.62 1.62 0.88-1.62 0.88z"/>
</svg>
