<?xml version="1.0" encoding="UTF-8"?>
<svg width="24" height="24" viewBox="0 0 24 24" xmlns="http://www.w3.org/2000/svg">
 <path d="m16 2h-8c-2.76 0-5 2.24-5 5v10c0 2.76 2.24 5 5 5h8c2.76 0 5-2.24 5-5v-10c0-2.76-2.24-5-5-5zm-7.14 16.63c-0.19 0.19-0.44 0.29-0.7 0.29-0.27 0-0.52-0.1-0.71-0.29s-0.3-0.44-0.3-0.71c0-0.26 0.11-0.52 0.3-0.71 0.09-0.09 0.2-0.16 0.32-0.21 0.25-0.1 0.52-0.1 0.77 0 0.06 0.02 0.12 0.05 0.17 0.09 0.06 0.03 0.11 0.08 0.15 0.12 0.19 0.19 0.3 0.45 0.3 0.71 0 0.27-0.11 0.52-0.3 0.71zm-1.71-4.71c0-0.13 0.03-0.26 0.08-0.38 0.05-0.13 0.12-0.23 0.22-0.33 0.23-0.23 0.58-0.34 0.9-0.27 0.06 0.01 0.13 0.03 0.19 0.06 0.06 0.02 0.12 0.05 0.17 0.09 0.06 0.03 0.11 0.08 0.15 0.12 0.09 0.1 0.17 0.2 0.22 0.33 0.05 0.12 0.07 0.25 0.07 0.38 0 0.27-0.1 0.52-0.29 0.71s-0.44 0.29-0.7 0.29c-0.14 0-0.27-0.03-0.39-0.08s-0.23-0.12-0.32-0.21c-0.19-0.19-0.3-0.44-0.3-0.71zm5.71 4.71c-0.09 0.09-0.2 0.16-0.32 0.21s-0.25 0.08-0.39 0.08c-0.26 0-0.51-0.1-0.7-0.29s-0.3-0.44-0.3-0.71c0-0.07 0.01-0.13 0.02-0.2l0.06-0.18 0.09-0.18c0.04-0.05 0.08-0.1 0.13-0.15 0.09-0.09 0.2-0.16 0.32-0.21 0.37-0.15 0.81-0.07 1.09 0.21 0.19 0.19 0.29 0.45 0.29 0.71 0 0.27-0.1 0.52-0.29 0.71zm0-4c-0.19 0.19-0.44 0.29-0.71 0.29-0.26 0-0.51-0.1-0.7-0.29s-0.3-0.44-0.3-0.71c0-0.26 0.11-0.52 0.3-0.71 0.37-0.37 1.04-0.37 1.41 0 0.09 0.1 0.17 0.2 0.22 0.33 0.05 0.12 0.07 0.25 0.07 0.38 0 0.27-0.1 0.52-0.29 0.71zm-3.86-4.17c-1.03 0-1.88-0.84-1.88-1.88v-1c0-1.03 0.84-1.88 1.88-1.88h6c1.03 0 1.88 0.84 1.88 1.88v1c0 1.03-0.84 1.88-1.88 1.88h-6zm7.86 8.17c-0.19 0.19-0.44 0.29-0.71 0.29-0.13 0-0.26-0.03-0.38-0.08s-0.23-0.12-0.32-0.21c-0.19-0.19-0.29-0.44-0.29-0.71 0-0.26 0.1-0.52 0.29-0.71 0.27-0.28 0.72-0.36 1.09-0.21 0.12 0.05 0.23 0.12 0.32 0.21 0.19 0.19 0.29 0.45 0.29 0.71 0 0.27-0.1 0.52-0.29 0.71zm0.22-4.33c-0.05 0.12-0.12 0.23-0.22 0.33-0.19 0.19-0.44 0.29-0.71 0.29-0.26 0-0.51-0.1-0.7-0.29s-0.3-0.44-0.3-0.71c0-0.26 0.11-0.52 0.3-0.71 0.37-0.37 1.04-0.37 1.41 0 0.19 0.19 0.3 0.45 0.3 0.71 0 0.13-0.03 0.26-0.08 0.38z"/>
</svg>
