<?xml version="1.0" encoding="UTF-8"?>
<svg width="24" height="24" viewBox="0 0 24 24" xmlns="http://www.w3.org/2000/svg">
 <path d="m16.75 3.56v-1.56c0-0.41-0.34-0.75-0.75-0.75s-0.75 0.34-0.75 0.75v1.5h-6.5v-1.5c0-0.41-0.34-0.75-0.75-0.75s-0.75 0.34-0.75 0.75v1.56c-2.7 0.25-4.01 1.86-4.21 4.25-0.02 0.29 0.22 0.53 0.5 0.53h16.92c0.29 0 0.53-0.25 0.5-0.53-0.2-2.39-1.51-4-4.21-4.25z"/>
 <path d="m20 9.8398h-16c-0.55 0-1 0.44996-1 0.99996v6.16c0 3 1.5 5 5 5h8c3.5 0 5-2 5-5v-6.16c0-0.55-0.45-0.99996-1-0.99996zm-5.16 5.15-0.5 0.51h-0.01l-3.03 3.03c-0.13 0.13-0.4 0.27-0.59 0.29l-1.35 0.2c-0.49 0.07-0.83-0.28-0.76-0.76l0.19-1.36c0.03-0.19 0.16-0.45 0.29-0.59l3.04-3.03 0.5-0.51c0.33-0.33 0.7-0.57 1.1-0.57 0.34 0 0.71 0.16 1.12 0.57 0.9 0.9 0.61 1.61 0 2.22z"/>
</svg>
