<?xml version="1.0" encoding="UTF-8"?>
<svg width="24" height="24" viewBox="0 0 24 24" xmlns="http://www.w3.org/2000/svg">
 <path d="m16.75 3.56v-1.56c0-0.41-0.34-0.75-0.75-0.75s-0.75 0.34-0.75 0.75v1.5h-6.5v-1.5c0-0.41-0.34-0.75-0.75-0.75s-0.75 0.34-0.75 0.75v1.56c-2.7 0.25-4.01 1.86-4.21 4.25-0.02 0.29 0.22 0.53 0.5 0.53h16.92c0.29 0 0.53-0.25 0.5-0.53-0.2-2.39-1.51-4-4.21-4.25z"/>
 <path d="m20 9.8398h-16c-0.55 0-1 0.44996-1 0.99996v6.16c0 3 1.5 5 5 5h4.93c0.69 0 1.17-0.67 0.95-1.32-0.2-0.58-0.37-1.22-0.37-1.68 0-3.03 2.47-5.5 5.5-5.5 0.29 0 0.58 0.02 0.86 0.07 0.6 0.09 1.14-0.38 1.14-0.98v-1.74c-0.01-0.56-0.46-1.01-1.01-1.01zm-10.79 7.87c-0.1 0.09-0.21 0.16-0.33 0.21s-0.25 0.08-0.38 0.08-0.26-0.03-0.38-0.08-0.23-0.12-0.33-0.21c-0.18-0.19-0.29-0.45-0.29-0.71 0-0.06 0.01-0.13 0.02-0.19 0.01-0.07 0.03-0.13 0.06-0.19 0.02-0.06 0.05-0.12 0.09-0.18 0.03-0.05 0.08-0.1 0.12-0.15 0.1-0.09 0.21-0.16 0.33-0.21 0.24-0.1 0.52-0.1 0.76 0 0.12 0.05 0.23 0.12 0.33 0.21 0.04 0.05 0.09 0.1 0.12 0.15 0.04 0.06 0.07 0.12 0.09 0.18 0.03 0.06 0.05 0.12 0.06 0.19 0.01 0.06 0.02 0.13 0.02 0.19 0 0.26-0.11 0.52-0.29 0.71zm0-3.5c-0.1 0.09-0.21 0.16-0.33 0.21s-0.25 0.08-0.38 0.08-0.26-0.03-0.38-0.08c-0.13-0.05-0.23-0.12-0.33-0.21-0.18-0.19-0.29-0.45-0.29-0.71s0.11-0.52 0.29-0.71c0.1-0.09 0.21-0.16 0.33-0.21 0.24-0.1 0.52-0.1 0.76 0 0.12 0.05 0.23 0.12 0.33 0.21 0.04 0.05 0.09 0.1 0.12 0.15 0.04 0.06 0.07 0.12 0.09 0.18 0.03 0.06 0.05 0.12 0.06 0.18 0.01 0.07 0.02 0.14 0.02 0.2 0 0.26-0.11 0.52-0.29 0.71zm3.5 0c-0.19 0.18-0.44 0.29-0.71 0.29-0.13 0-0.26-0.03-0.38-0.08-0.13-0.05-0.23-0.12-0.33-0.21-0.18-0.19-0.29-0.45-0.29-0.71 0-0.06 0.01-0.13 0.02-0.2 0.01-0.06 0.03-0.12 0.06-0.18 0.02-0.06 0.05-0.12 0.09-0.18l0.12-0.15c0.37-0.37 1.04-0.37 1.42 0l0.12 0.15c0.04 0.06 0.07 0.12 0.09 0.18 0.03 0.06 0.05 0.12 0.06 0.18 0.01 0.07 0.02 0.14 0.02 0.2 0 0.26-0.11 0.52-0.29 0.71z"/>
 <path d="m21.83 16.17c-1.56-1.56-4.1-1.56-5.66 0s-1.56 4.1 0 5.66 4.1 1.56 5.66 0 1.56-4.1 0-5.66zm-0.76 3.39c-0.13 0.14-0.32 0.22-0.53 0.22h-0.74v0.78c0 0.21-0.08 0.39-0.22 0.53s-0.32 0.22-0.53 0.22c-0.41 0-0.75-0.34-0.75-0.75v-0.78h-0.75c-0.41 0-0.75-0.33-0.75-0.75 0-0.41 0.34-0.75 0.75-0.75h0.75v-0.71c0-0.41 0.33-0.75 0.75-0.75 0.41 0 0.75 0.34 0.75 0.75v0.71h0.74c0.42 0 0.75 0.34 0.75 0.75 0 0.21-0.08 0.4-0.22 0.53z"/>
</svg>
