<?xml version="1.0" encoding="UTF-8"?>
<svg width="24" height="24" viewBox="0 0 24 24" xmlns="http://www.w3.org/2000/svg">
 <path d="m16.75 3.56v-1.56c0-0.41-0.34-0.75-0.75-0.75s-0.75 0.34-0.75 0.75v1.5h-6.5v-1.5c0-0.41-0.34-0.75-0.75-0.75s-0.75 0.34-0.75 0.75v1.56c-2.7 0.25-4.01 1.86-4.21 4.25-0.02 0.29 0.22 0.53 0.5 0.53h16.92c0.29 0 0.53-0.25 0.5-0.53-0.2-2.39-1.51-4-4.21-4.25z"/>
 <path d="m20 9.8398h-16c-0.55 0-1 0.44996-1 0.99996v6.16c0 3 1.5 5 5 5h4.93c0.69 0 1.17-0.67 0.95-1.32-0.2-0.58-0.37-1.22-0.37-1.68 0-3.03 2.47-5.5 5.5-5.5 0.29 0 0.58 0.02 0.86 0.07 0.6 0.09 1.14-0.38 1.14-0.98v-1.74c-0.01-0.56-0.46-1.01-1.01-1.01zm-10.79 7.87c-0.19 0.18-0.45 0.29-0.71 0.29-0.13 0-0.26-0.03-0.38-0.08s-0.23-0.12-0.33-0.21c-0.18-0.19-0.29-0.44-0.29-0.71 0-0.13 0.03-0.26 0.08-0.38 0.05-0.13 0.12-0.23 0.21-0.33 0.1-0.09 0.21-0.16 0.33-0.21 0.36-0.16 0.81-0.07 1.09 0.21 0.09 0.1 0.16 0.2 0.21 0.33 0.05 0.12 0.08 0.25 0.08 0.38 0 0.27-0.11 0.52-0.29 0.71zm0-3.5c-0.19 0.18-0.45 0.29-0.71 0.29-0.13 0-0.26-0.02-0.38-0.08-0.12-0.05-0.23-0.12-0.33-0.21-0.18-0.19-0.29-0.45-0.29-0.71 0-0.13 0.03-0.26 0.08-0.38s0.12-0.23 0.21-0.33c0.1-0.09 0.21-0.16 0.33-0.21 0.36-0.15 0.81-0.07 1.09 0.21 0.09 0.1 0.16 0.21 0.21 0.33s0.08 0.25 0.08 0.38c0 0.26-0.11 0.52-0.29 0.71zm3.71-0.33c-0.05 0.12-0.12 0.23-0.21 0.33-0.1 0.09-0.21 0.16-0.33 0.21-0.12 0.06-0.25 0.08-0.38 0.08-0.26 0-0.52-0.11-0.71-0.29-0.09-0.1-0.16-0.21-0.21-0.33s-0.08-0.25-0.08-0.38c0-0.26 0.11-0.52 0.29-0.71 0.28-0.28 0.72-0.37 1.09-0.21 0.12 0.05 0.23 0.12 0.33 0.21 0.18 0.19 0.29 0.45 0.29 0.71 0 0.13-0.02 0.26-0.08 0.38z"/>
 <path d="m19 15c-2.21 0-4 1.79-4 4s1.79 4 4 4 4-1.79 4-4-1.79-4-4-4zm1.6 5.64c-0.15 0.15-0.34 0.22-0.53 0.22s-0.38-0.07-0.53-0.22l-0.53-0.53-0.55 0.55c-0.15 0.15-0.34 0.22-0.53 0.22s-0.38-0.07-0.53-0.22c-0.29-0.29-0.29-0.77 0-1.06l0.55-0.55-0.53-0.53c-0.29-0.29-0.29-0.77 0-1.06s0.77-0.29 1.06 0l0.53 0.54 0.5-0.5c0.29-0.29 0.77-0.29 1.06 0s0.29 0.77 0 1.06l-0.5 0.5 0.53 0.53c0.29 0.29 0.29 0.76 0 1.05z"/>
</svg>
