<?xml version="1.0" encoding="UTF-8"?>
<svg width="24" height="24" viewBox="0 0 24 24" xmlns="http://www.w3.org/2000/svg">
 <path d="m12 2c-5.52 0-10 4.48-10 10s4.48 10 10 10 10-4.48 10-10-4.48-10-10-10zm-5.15 7.44c0.42-0.97 1.21-1.72 2.3-2.06v-0.8c0-0.41 0.34-0.75 0.75-0.75s0.75 0.34 0.75 0.75v0.59h2.71v-0.59c0-0.41 0.34-0.75 0.75-0.75s0.75 0.34 0.75 0.75v0.79c1.09 0.34 1.88 1.09 2.3 2.06 0.14 0.33-0.1 0.71-0.46 0.71h-9.39c-0.36 0-0.6-0.37-0.46-0.7zm10.65 4.73c0 2.2-1.5 4-4 4h-3c-2.5 0-4-1.8-4-4v-2.53c0-0.28 0.22-0.5 0.5-0.5h10c0.28 0 0.5 0.22 0.5 0.5v2.53z"/>
</svg>
