<?xml version="1.0" encoding="UTF-8"?>
<svg width="24" height="24" viewBox="0 0 24 24" xmlns="http://www.w3.org/2000/svg">
 <path d="m22 18.33c0 0.36-0.08 0.73-0.25 1.09s-0.39 0.7-0.68 1.02c-0.49 0.54-1.03 0.93-1.64 1.18-0.6 0.25-1.26 0.38-1.96 0.38-1.02 0-2.11-0.24-3.26-0.73s-2.31-1.15-3.45-1.98c-0.58-0.43-1.15-0.87-1.7-1.35l3.26-3.26c0.01 0 0.01 0 0.02 0.01 0.52 0.44 0.95 0.74 1.29 0.92 0.05 0.02 0.11 0.05 0.18 0.08 0.08 0.03 0.16 0.04 0.25 0.04 0.17 0 0.3-0.06 0.41-0.17l0.76-0.75c0.25-0.25 0.49-0.44 0.72-0.56 0.23-0.14 0.46-0.21 0.71-0.21 0.19 0 0.39 0.04 0.61 0.13s0.45 0.22 0.7 0.39l3.32 2.35c0.26 0.18 0.44 0.39 0.55 0.64 0.1 0.25 0.16 0.5 0.16 0.78z"/>
 <path d="m10.76 13.24-3.26 3.26c-0.01 0-0.01 0-0.02-0.01-1.03-1.04-1.96-2.13-2.8-3.27-0.81-1.12-1.46-2.25-1.94-3.36-0.01-0.02-0.01-0.03-0.02-0.05-0.48-1.14-0.72-2.23-0.72-3.27 0-0.68 0.12-1.33 0.36-1.93 0.2-0.51 0.5-0.99 0.91-1.42 0.07-0.08 0.15-0.17 0.24-0.25 0.16-0.16 0.32-0.3 0.49-0.41h0.01c0.5-0.36 1.03-0.53 1.59-0.53 0.28 0 0.56 0.06 0.81 0.18 0.24 0.11 0.45 0.27 0.62 0.5 0.02 0.02 0.03 0.04 0.05 0.06l2.32 3.27c0.18 0.25 0.31 0.48 0.4 0.7 0.09 0.21 0.14 0.42 0.14 0.61 0 0.24-0.07 0.48-0.21 0.71-0.13 0.23-0.32 0.47-0.56 0.71l-0.76 0.79c-0.11 0.11-0.16 0.24-0.16 0.4 0 0.08 0.01 0.15 0.03 0.23 0.03 0.08 0.06 0.14 0.08 0.2 0.18 0.33 0.49 0.76 0.93 1.28 0.45 0.52 0.93 1.05 1.45 1.58l0.02 0.02z"/>
 <path d="m21.77 2.2299c-0.3-0.3-0.79-0.3-1.09 0l-18.45 18.46c-0.3 0.3-0.3 0.79 0 1.09 0.15 0.14 0.34 0.22 0.54 0.22s0.39-0.08 0.54-0.23l18.46-18.46c0.31-0.3 0.31-0.78 0-1.08z"/>
</svg>
