<?xml version="1.0" encoding="UTF-8"?>
<svg width="24" height="24" viewBox="0 0 24 24" xmlns="http://www.w3.org/2000/svg">
 <path d="m21.77 2.2299c-0.3-0.3-0.79-0.3-1.09 0l-18.45 18.46c-0.3 0.3-0.3 0.79 0 1.09 0.15 0.14 0.34 0.22 0.54 0.22s0.39-0.08 0.54-0.23l18.46-18.46c0.31-0.3 0.31-0.78 0-1.08z"/>
 <path d="m16.55 5.11-0.72-1.45c-0.46-0.91-1.66-1.66-2.68-1.66h-2.29c-1.03 0-2.23 0.75-2.69 1.66l-0.72 1.45c-0.28 0.54-0.84 0.89-1.45 0.89-2.17 0-3.89 1.83-3.75 3.99l0.52 8.26c0.05 0.85 0.26 1.64 0.71 2.27l14.52-14.52c-0.61 0-1.17-0.35-1.45-0.89zm-7.05 5.64h-3c-0.41 0-0.75-0.34-0.75-0.75s0.34-0.75 0.75-0.75h3c0.41 0 0.74998 0.34 0.74998 0.75s-0.33998 0.75-0.74998 0.75z"/>
 <path d="m21.75 9.9901-0.52 8.26c-0.13 2.06-1.23 3.75-3.99 3.75h-9.83c-0.89 0-1.34-1.08-0.71-1.71l2.47-2.47c0.31-0.31 0.79-0.35 1.18-0.13 0.69 0.39 1.52 0.54 2.4 0.35 1.27-0.27 2.3-1.31 2.55-2.59 0.17-0.86 0.02-1.67-0.36-2.34-0.22-0.39-0.19-0.88 0.13-1.19l4.5-4.5c0.41-0.41 1.1-0.36 1.45 0.11 0.52 0.68 0.79 1.54 0.73 2.46z"/>
</svg>
