<?xml version="1.0" encoding="UTF-8"?>
<svg width="24" height="24" viewBox="0 0 24 24" xmlns="http://www.w3.org/2000/svg">
 <path d="m21.75 8.0001c0 0.41-0.34 0.75-0.75 0.75h-18c-0.41 0-0.75-0.34-0.75-0.75s0.34-0.75 0.75-0.75h1.02l0.38-1.81c0.36-1.75 1.11-3.36 4.09-3.36h7.02c2.98 0 3.73 1.61 4.09 3.36l0.38 1.81h1.02c0.41 0 0.75 0.34 0.75 0.75z"/>
 <path d="m22.18 13.66c-0.15-1.65-0.59-3.41-3.8-3.41h-12.76c-3.21 0-3.64 1.76-3.8 3.41l-0.56 6.09c-0.07 0.76 0.18 1.52 0.7 2.09 0.53 0.58 1.28 0.91 2.08 0.91h1.88c1.62 0 1.93-0.93 2.13-1.54l0.2-0.6c0.23-0.69 0.29-0.86 1.19-0.86h5.12c0.9 0 0.93 0.1 1.19 0.86l0.2 0.6c0.2 0.61 0.51 1.54 2.13 1.54h1.88c0.79 0 1.55-0.33 2.08-0.91 0.52-0.57 0.77-1.33 0.7-2.09l-0.56-6.09zm-13.18 2.09h-3c-0.41 0-0.75-0.34-0.75-0.75s0.34-0.75 0.75-0.75h3c0.41 0 0.75 0.34 0.75 0.75s-0.34 0.75-0.75 0.75zm9 0h-3c-0.41 0-0.75-0.34-0.75-0.75s0.34-0.75 0.75-0.75h3c0.41 0 0.75 0.34 0.75 0.75s-0.34 0.75-0.75 0.75z"/>
</svg>
