<svg width="24" height="24" viewBox="0 0 24 24"  xmlns="http://www.w3.org/2000/svg">
<path d="M22 21.25C22 21.66 21.66 22 21.25 22H2.75C2.34 22 2 21.66 2 21.25C2 20.84 2.34 20.5 2.75 20.5H21.25C21.66 20.5 22 20.84 22 21.25Z" />
<path d="M15.3899 4.51977L4.64994 15.2598C4.23994 15.6698 3.57994 15.6698 3.17994 15.2598H3.16994C1.77994 13.8598 1.77994 11.5998 3.16994 10.2098L10.3199 3.05977C11.7199 1.65977 13.9799 1.65977 15.3799 3.05977C15.7899 3.44977 15.7899 4.11977 15.3899 4.51977Z" />
<path d="M20.8199 8.49031L17.7699 5.44031C17.3599 5.03031 16.6999 5.03031 16.2999 5.44031L5.55994 16.1803C5.14994 16.5803 5.14994 17.2403 5.55994 17.6503L8.60994 20.7103C10.0099 22.1003 12.2699 22.1003 13.6699 20.7103L20.8099 13.5603C22.2299 12.1603 22.2299 9.89031 20.8199 8.49031ZM12.7599 17.5203L11.5499 18.7403C11.2999 18.9903 10.8899 18.9903 10.6299 18.7403C10.3799 18.4903 10.3799 18.0803 10.6299 17.8203L11.8499 16.6003C12.0899 16.3603 12.5099 16.3603 12.7599 16.6003C13.0099 16.8503 13.0099 17.2803 12.7599 17.5203ZM16.7299 13.5503L14.2899 16.0003C14.0399 16.2403 13.6299 16.2403 13.3699 16.0003C13.1199 15.7503 13.1199 15.3403 13.3699 15.0803L15.8199 12.6303C16.0599 12.3903 16.4799 12.3903 16.7299 12.6303C16.9799 12.8903 16.9799 13.3003 16.7299 13.5503Z" />
</svg>
