<?xml version="1.0" encoding="UTF-8"?>
<svg width="24" height="24" viewBox="0 0 24 24" xmlns="http://www.w3.org/2000/svg">
 <path d="m19.27 3.65-5.1 5.1h-10.97c-0.66 0-1.2-0.54-1.2-1.2v-0.01c0-2.29 1.85-4.14 4.14-4.14h11.71c0.5 0 0.98 0.09 1.42 0.25z"/>
 <path d="m12.67 10.25-5.5 5.5h-1.17c-0.41 0-0.75 0.34-0.75 0.75 0 0.31 0.2 0.59 0.48 0.69l-2.35 2.35c-0.85-0.75-1.38-1.85-1.38-3.08v-5.01c0-0.66 0.54-1.2 1.2-1.2h9.47z"/>
 <path d="m22 11v5.46c0 2.29-1.85 4.14-4.14 4.14h-9.05c-0.89 0-1.34-1.08-0.71-1.71l1.35-1.35c0.19-0.19 0.44-0.29 0.70998-0.29h4.34c0.41 0 0.75-0.34 0.75-0.75s-0.34-0.75-0.75-0.75h-0.84c-0.89 0-1.34-1.08-0.71-1.71l3.46-3.46c0.38-0.37 0.89-0.58 1.42-0.58h3.17c0.55 0 1 0.45 1 1z"/>
 <path d="m21.77 2.23c-0.3-0.3-0.79-0.3-1.09 0l-18.45 18.46c-0.3 0.3-0.3 0.79 0 1.09 0.15 0.14 0.34 0.22 0.54 0.22s0.39-0.08 0.54-0.23l18.46-18.46c0.31-0.3 0.31-0.78 0-1.08z"/>
 <path d="m21.77 3.31-18.46 18.46c-0.15 0.15-0.34 0.23-0.54 0.23s-0.39-0.08-0.54-0.23c-0.31-0.3-0.31-0.78 0-1.08l18.46-18.46c0.3-0.31 0.78-0.31 1.08 0 0.31 0.3 0.31 0.78 0 1.08z"/>
 <path d="m22 7.41c0-0.89-1.08-1.34-1.71-0.71l-0.29 0.3-0.29 0.29c-0.63 0.63-0.19 1.71 0.7 1.71h0.59c0.55 0 1-0.45 1-1v-0.59z"/>
</svg>
