<?xml version="1.0" encoding="UTF-8"?>
<svg width="24" height="24" viewBox="0 0 24 24" xmlns="http://www.w3.org/2000/svg">
 <path d="m19.97 1.75h-2.94c-1.27 0-2.03 0.76-2.03 2.03v2.94c0 1.27 0.76 2.03 2.03 2.03h2.94c1.27 0 2.03-0.76 2.03-2.03v-2.94c0-1.27-0.76-2.03-2.03-2.03zm0.22 3.31c-0.12 0.12-0.28 0.18-0.44 0.18s-0.32-0.06-0.44-0.18l-0.18-0.18v2.24c0 0.35-0.28 0.63-0.63 0.63s-0.63-0.28-0.63-0.63v-2.24l-0.18 0.18c-0.24 0.24-0.64 0.24-0.88 0s-0.24-0.64 0-0.88l1.25-1.25c0.05-0.05 0.12-0.09 0.19-0.12 0.02-0.01 0.04-0.01 0.06-0.02 0.05-0.02 0.1-0.03 0.16-0.03h0.06c0.07 0 0.13 0.01 0.2 0.04h0.02c0.07 0.03 0.13 0.07 0.18 0.12 0.01 0.01 0.01 0.01 0.02 0.01l1.25 1.25c0.24 0.24 0.24 0.64-0.01 0.88z"/>
 <path d="m2 11.46v5c0 2.29 1.85 4.14 4.14 4.14h11.71c2.29 0 4.15-1.86 4.15-4.15v-4.99c0-0.67-0.54-1.21-1.21-1.21h-17.58c-0.67 0-1.21 0.54-1.21 1.21zm6 5.79h-2c-0.41 0-0.75-0.34-0.75-0.75s0.34-0.75 0.75-0.75h2c0.41 0 0.75 0.34 0.75 0.75s-0.34 0.75-0.75 0.75zm6.5 0h-4c-0.41 0-0.75-0.34-0.75-0.75s0.34-0.75 0.75-0.75h4c0.41 0 0.75 0.34 0.75 0.75s-0.34 0.75-0.75 0.75z"/>
 <path d="m13.5 4.61v2.93c0 0.67-0.54 1.21-1.21 1.21h-9.08c-0.68 0-1.21-0.56-1.21-1.23 0.01-1.13 0.46-2.16 1.21-2.91s1.79-1.21 2.93-1.21h6.15c0.67 0 1.21 0.54 1.21 1.21z"/>
</svg>
