<svg width="24" height="24" viewBox="0 0 24 24"  xmlns="http://www.w3.org/2000/svg">
<path d="M17.1499 10C17.7022 10 18.1499 9.55228 18.1499 9C18.1499 8.44772 17.7022 8 17.1499 8C16.5976 8 16.1499 8.44772 16.1499 9C16.1499 9.55228 16.5976 10 17.1499 10Z" />
<path d="M17.1499 16C17.7022 16 18.1499 15.5523 18.1499 15C18.1499 14.4477 17.7022 14 17.1499 14C16.5976 14 16.1499 14.4477 16.1499 15C16.1499 15.5523 16.5976 16 17.1499 16Z" />
<path d="M19.75 13C20.3023 13 20.75 12.5523 20.75 12C20.75 11.4477 20.3023 11 19.75 11C19.1977 11 18.75 11.4477 18.75 12C18.75 12.5523 19.1977 13 19.75 13Z" />
<path d="M6.7998 10C7.35209 10 7.7998 9.55228 7.7998 9C7.7998 8.44772 7.35209 8 6.7998 8C6.24752 8 5.7998 8.44772 5.7998 9C5.7998 9.55228 6.24752 10 6.7998 10Z" />
<path d="M6.7998 16C7.35209 16 7.7998 15.5523 7.7998 15C7.7998 14.4477 7.35209 14 6.7998 14C6.24752 14 5.7998 14.4477 5.7998 15C5.7998 15.5523 6.24752 16 6.7998 16Z" />
<path d="M4.19995 13C4.75224 13 5.19995 12.5523 5.19995 12C5.19995 11.4477 4.75224 11 4.19995 11C3.64767 11 3.19995 11.4477 3.19995 12C3.19995 12.5523 3.64767 13 4.19995 13Z" />
<path d="M15.8999 6.19922C16.4522 6.19922 16.8999 5.7515 16.8999 5.19922C16.8999 4.64693 16.4522 4.19922 15.8999 4.19922C15.3476 4.19922 14.8999 4.64693 14.8999 5.19922C14.8999 5.7515 15.3476 6.19922 15.8999 6.19922Z" />
<path d="M8.09985 6.19922C8.65214 6.19922 9.09985 5.7515 9.09985 5.19922C9.09985 4.64693 8.65214 4.19922 8.09985 4.19922C7.54757 4.19922 7.09985 4.64693 7.09985 5.19922C7.09985 5.7515 7.54757 6.19922 8.09985 6.19922Z" />
<path d="M12.0498 7C12.6021 7 13.0498 6.55228 13.0498 6C13.0498 5.44772 12.6021 5 12.0498 5C11.4975 5 11.0498 5.44772 11.0498 6C11.0498 6.55228 11.4975 7 12.0498 7Z" />
<path d="M15.8999 20C16.4522 20 16.8999 19.5523 16.8999 19C16.8999 18.4477 16.4522 18 15.8999 18C15.3476 18 14.8999 18.4477 14.8999 19C14.8999 19.5523 15.3476 20 15.8999 20Z" />
<path d="M8.09985 20C8.65214 20 9.09985 19.5523 9.09985 19C9.09985 18.4477 8.65214 18 8.09985 18C7.54757 18 7.09985 18.4477 7.09985 19C7.09985 19.5523 7.54757 20 8.09985 20Z" />
<path d="M12.0498 19.1992C12.6021 19.1992 13.0498 18.7515 13.0498 18.1992C13.0498 17.6469 12.6021 17.1992 12.0498 17.1992C11.4975 17.1992 11.0498 17.6469 11.0498 18.1992C11.0498 18.7515 11.4975 19.1992 12.0498 19.1992Z" />
<path d="M13.75 10.25C14.4404 10.25 15 9.69036 15 9C15 8.30964 14.4404 7.75 13.75 7.75C13.0596 7.75 12.5 8.30964 12.5 9C12.5 9.69036 13.0596 10.25 13.75 10.25Z" />
<path d="M10.25 10.25C10.9404 10.25 11.5 9.69036 11.5 9C11.5 8.30964 10.9404 7.75 10.25 7.75C9.55964 7.75 9 8.30964 9 9C9 9.69036 9.55964 10.25 10.25 10.25Z" />
<path d="M15.5 13.25C16.1904 13.25 16.75 12.6904 16.75 12C16.75 11.3096 16.1904 10.75 15.5 10.75C14.8096 10.75 14.25 11.3096 14.25 12C14.25 12.6904 14.8096 13.25 15.5 13.25Z" />
<path d="M8.5 13.25C9.19036 13.25 9.75 12.6904 9.75 12C9.75 11.3096 9.19036 10.75 8.5 10.75C7.80964 10.75 7.25 11.3096 7.25 12C7.25 12.6904 7.80964 13.25 8.5 13.25Z" />
<path d="M10.25 16.25C10.9404 16.25 11.5 15.6904 11.5 15C11.5 14.3096 10.9404 13.75 10.25 13.75C9.55964 13.75 9 14.3096 9 15C9 15.6904 9.55964 16.25 10.25 16.25Z" />
<path d="M13.75 16.25C14.4404 16.25 15 15.6904 15 15C15 14.3096 14.4404 13.75 13.75 13.75C13.0596 13.75 12.5 14.3096 12.5 15C12.5 15.6904 13.0596 16.25 13.75 16.25Z" />
<path d="M12.0001 3.33031C11.5101 3.33031 11.1201 2.94031 11.1201 2.45031C11.1201 1.96031 11.5101 1.57031 12.0001 1.57031C12.4901 1.57031 12.8801 1.96031 12.8801 2.45031C12.8801 2.94031 12.4901 3.33031 12.0001 3.33031Z" />
<path d="M17.25 3.59961C16.83 3.59961 16.49 3.25961 16.49 2.84961C16.49 2.43961 16.83 2.09961 17.24 2.09961C17.65 2.09961 18 2.43961 18 2.84961C18 3.25961 17.67 3.59961 17.25 3.59961Z" />
<path d="M6.75 3.59961C6.34 3.59961 6 3.25961 6 2.84961C6 2.43961 6.33 2.09961 6.75 2.09961H6.76001C7.17001 2.09961 7.51001 2.43961 7.51001 2.84961C7.51001 3.25961 7.17 3.59961 6.75 3.59961Z" />
<path d="M12.0001 22.3791C11.5101 22.3791 11.1201 21.9891 11.1201 21.4991C11.1201 21.0091 11.5101 20.6191 12.0001 20.6191C12.4901 20.6191 12.8801 21.0091 12.8801 21.4991C12.8801 21.9891 12.4901 22.3791 12.0001 22.3791Z" />
<path d="M17.25 21.8496C16.83 21.8496 16.49 21.5096 16.49 21.0996C16.49 20.6896 16.83 20.3496 17.24 20.3496C17.65 20.3496 18 20.6896 18 21.0996C18 21.5096 17.67 21.8496 17.25 21.8496Z" />
<path d="M6.75 21.8496C6.34 21.8496 6 21.5096 6 21.0996C6 20.6896 6.33 20.3496 6.75 20.3496H6.76001C7.17001 20.3496 7.51001 20.6896 7.51001 21.0996C7.51001 21.5096 7.17 21.8496 6.75 21.8496Z" />
<path d="M1.5499 12.8791C1.0699 12.8791 0.669922 12.4891 0.669922 12.0091V11.9991C0.669922 11.5191 1.0599 11.1191 1.5499 11.1191C2.0399 11.1191 2.4299 11.5091 2.4299 11.9991C2.4299 12.4891 2.0299 12.8791 1.5499 12.8791Z" />
<path d="M3.75 17.7502C3.34 17.7502 3 17.4202 3 17.0002V16.9902C3 16.5802 3.34 16.2402 3.75 16.2402C4.16 16.2402 4.5 16.5802 4.5 16.9902C4.5 17.4002 4.16 17.7502 3.75 17.7502Z" />
<path d="M3.75 7.75977C3.34 7.75977 3 7.41977 3 7.00977C3 6.59977 3.34 6.25977 3.75 6.25977C4.16 6.25977 4.5 6.58977 4.5 6.99977V7.00977C4.5 7.41977 4.16 7.75977 3.75 7.75977Z" />
<path d="M22.5001 12.8791C22.0201 12.8791 21.6201 12.4891 21.6201 12.0091V11.9991C21.6201 11.5191 22.0101 11.1191 22.5001 11.1191C22.9901 11.1191 23.3801 11.5091 23.3801 11.9991C23.3801 12.4891 22.9801 12.8791 22.5001 12.8791Z" />
<path d="M20.3 17.7502C19.89 17.7502 19.55 17.4202 19.55 17.0002V16.9902C19.55 16.5802 19.89 16.2402 20.3 16.2402C20.71 16.2402 21.05 16.5802 21.05 16.9902C21.05 17.4002 20.71 17.7502 20.3 17.7502Z" />
<path d="M20.3 7.75977C19.89 7.75977 19.55 7.41977 19.55 7.00977C19.55 6.59977 19.89 6.25977 20.3 6.25977C20.71 6.25977 21.05 6.58977 21.05 7.00977V7.01977C21.05 7.41977 20.71 7.75977 20.3 7.75977Z" />
</svg>
