<?xml version="1.0" encoding="UTF-8"?>
<svg width="24" height="24" viewBox="0 0 24 24" xmlns="http://www.w3.org/2000/svg">
 <path d="m15.22 6.55h-9.44c-0.28 0-0.54 0.01-0.78 0.02-2.37 0.14-3 1.01-3 3.71v0.58c0 0.55 0.45 1 1 1h15c0.55 0 1-0.45 1-1v-0.58c0-2.98-0.76-3.73-3.78-3.73z"/>
 <path d="m3 13.36c-0.55 0-1 0.45-1 1v2.91c0 2.98 0.76 3.73 3.78 3.73h9.44c2.97 0 3.75-0.72 3.78-3.57v-3.07c0-0.55-0.45-1-1-1h-15zm3.96 5.2h-1.71c-0.41 0-0.75-0.34-0.75-0.75s0.34-0.75 0.75-0.75h1.72c0.41 0 0.75 0.34 0.75 0.75s-0.34 0.75-0.76 0.75zm5.59 0h-3.44c-0.41 0-0.75-0.34-0.75-0.75s0.34-0.75 0.75-0.75h3.44c0.41 0 0.75 0.34 0.75 0.75s-0.33 0.75-0.75 0.75z"/>
 <path d="m22 13.33v-5.24c0-3.13-1.79-4.49-4.49-4.49h-8.93c-0.76 0-1.44 0.11-2.04 0.34-0.47 0.17-0.89 0.42-1.23 0.75-0.18 0.17-0.04 0.45 0.22 0.45h10.87c2.25 0 4.07 1.82 4.07 4.07v7.17c0 0.25 0.27 0.39 0.45 0.21 0.69-0.73 1.08-1.8 1.08-3.26z"/>
</svg>
