<?xml version="1.0" encoding="UTF-8"?>
<svg width="24" height="24" viewBox="0 0 24 24" xmlns="http://www.w3.org/2000/svg">
 <path d="m17.15 10c0.5523 0 1-0.44772 1-1s-0.4477-1-1-1-1 0.44772-1 1 0.4477 1 1 1z"/>
 <path d="m17.15 16c0.5523 0 1-0.4477 1-1s-0.4477-1-1-1-1 0.4477-1 1 0.4477 1 1 1z"/>
 <path d="m19.75 13c0.5523 0 1-0.4477 1-1s-0.4477-1-1-1-1 0.4477-1 1 0.4477 1 1 1z"/>
 <path d="m6.7998 10c0.55229 0 1-0.44772 1-1s-0.44771-1-1-1c-0.55228 0-1 0.44772-1 1s0.44772 1 1 1z"/>
 <path d="m6.7998 16c0.55229 0 1-0.4477 1-1s-0.44771-1-1-1c-0.55228 0-1 0.4477-1 1s0.44772 1 1 1z"/>
 <path d="m4.2 13c0.55229 0 1-0.4477 1-1s-0.44771-1-1-1c-0.55228 0-1 0.4477-1 1s0.44772 1 1 1z"/>
 <path d="m15.9 6.1992c0.5523 0 1-0.44772 1-1 0-0.55229-0.4477-1-1-1s-1 0.44771-1 1c0 0.55228 0.4477 1 1 1z"/>
 <path d="m8.0998 6.1992c0.55229 0 1-0.44772 1-1 0-0.55229-0.44771-1-1-1-0.55228 0-1 0.44771-1 1 0 0.55228 0.44772 1 1 1z"/>
 <path d="m12.05 7c0.5523 0 1-0.44772 1-1s-0.4477-1-1-1-1 0.44772-1 1 0.4477 1 1 1z"/>
 <path d="m15.9 20c0.5523 0 1-0.4477 1-1s-0.4477-1-1-1-1 0.4477-1 1 0.4477 1 1 1z"/>
 <path d="m8.0998 20c0.55229 0 1-0.4477 1-1s-0.44771-1-1-1c-0.55228 0-1 0.4477-1 1s0.44772 1 1 1z"/>
 <path d="m12.05 19.199c0.5523 0 1-0.4477 1-1s-0.4477-1-1-1-1 0.4477-1 1 0.4477 1 1 1z"/>
 <path d="m13.75 10.25c0.6904 0 1.25-0.55964 1.25-1.25s-0.5596-1.25-1.25-1.25-1.25 0.55964-1.25 1.25 0.5596 1.25 1.25 1.25z"/>
 <path d="m10.25 10.25c0.6904 0 1.25-0.55964 1.25-1.25s-0.5596-1.25-1.25-1.25c-0.69036 0-1.25 0.55964-1.25 1.25s0.55964 1.25 1.25 1.25z"/>
 <path d="m15.5 13.25c0.6904 0 1.25-0.5596 1.25-1.25s-0.5596-1.25-1.25-1.25-1.25 0.5596-1.25 1.25 0.5596 1.25 1.25 1.25z"/>
 <path d="m8.5 13.25c0.69036 0 1.25-0.5596 1.25-1.25s-0.55964-1.25-1.25-1.25-1.25 0.5596-1.25 1.25 0.55964 1.25 1.25 1.25z"/>
 <path d="m10.25 16.25c0.6904 0 1.25-0.5596 1.25-1.25s-0.5596-1.25-1.25-1.25c-0.69036 0-1.25 0.5596-1.25 1.25s0.55964 1.25 1.25 1.25z"/>
 <path d="m13.75 16.25c0.6904 0 1.25-0.5596 1.25-1.25s-0.5596-1.25-1.25-1.25-1.25 0.5596-1.25 1.25 0.5596 1.25 1.25 1.25z"/>
 <path d="m12 3.3303c-0.49 0-0.88-0.39-0.88-0.88s0.39-0.88 0.88-0.88 0.88 0.39 0.88 0.88-0.39 0.88-0.88 0.88z"/>
 <path d="m17.25 3.5996c-0.42 0-0.76-0.34-0.76-0.75s0.34-0.75 0.75-0.75 0.76 0.34 0.76 0.75-0.33 0.75-0.75 0.75z"/>
 <path d="m6.75 3.5996c-0.41 0-0.75-0.34-0.75-0.75s0.33-0.75 0.75-0.75h0.01001c0.41 0 0.75 0.34 0.75 0.75s-0.34001 0.75-0.76001 0.75z"/>
 <path d="m12 22.379c-0.49 0-0.88-0.39-0.88-0.88s0.39-0.88 0.88-0.88 0.88 0.39 0.88 0.88-0.39 0.88-0.88 0.88z"/>
 <path d="m17.25 21.85c-0.42 0-0.76-0.34-0.76-0.75s0.34-0.75 0.75-0.75 0.76 0.34 0.76 0.75-0.33 0.75-0.75 0.75z"/>
 <path d="m6.75 21.85c-0.41 0-0.75-0.34-0.75-0.75s0.33-0.75 0.75-0.75h0.01001c0.41 0 0.75 0.34 0.75 0.75s-0.34001 0.75-0.76001 0.75z"/>
 <path d="m1.5499 12.879c-0.48 0-0.87998-0.39-0.87998-0.87v-0.01c0-0.48 0.38998-0.88 0.87998-0.88s0.88 0.39 0.88 0.88-0.4 0.88-0.88 0.88z"/>
 <path d="m3.75 17.75c-0.41 0-0.75-0.33-0.75-0.75v-0.01c0-0.41 0.34-0.75 0.75-0.75s0.75 0.34 0.75 0.75-0.34 0.76-0.75 0.76z"/>
 <path d="m3.75 7.7598c-0.41 0-0.75-0.34-0.75-0.75s0.34-0.75 0.75-0.75 0.75 0.33 0.75 0.74v0.01c0 0.41-0.34 0.75-0.75 0.75z"/>
 <path d="m22.5 12.879c-0.48 0-0.88-0.39-0.88-0.87v-0.01c0-0.48 0.39-0.88 0.88-0.88s0.88 0.39 0.88 0.88-0.4 0.88-0.88 0.88z"/>
 <path d="m20.3 17.75c-0.41 0-0.75-0.33-0.75-0.75v-0.01c0-0.41 0.34-0.75 0.75-0.75s0.75 0.34 0.75 0.75-0.34 0.76-0.75 0.76z"/>
 <path d="m20.3 7.7598c-0.41 0-0.75-0.34-0.75-0.75s0.34-0.75 0.75-0.75 0.75 0.33 0.75 0.75v0.01c0 0.4-0.34 0.74-0.75 0.74z"/>
</svg>
