<?xml version="1.0" encoding="UTF-8"?>
<svg width="24" height="24" viewBox="0 0 24 24" xmlns="http://www.w3.org/2000/svg">
 <path d="m2 11.46v5c0 2.29 1.85 4.14 4.14 4.14h11.71c2.29 0 4.15-1.86 4.15-4.15v-4.99c0-0.67-0.54-1.21-1.21-1.21h-17.58c-0.67 0-1.21 0.54-1.21 1.21zm6 5.79h-2c-0.41 0-0.75-0.34-0.75-0.75s0.34-0.75 0.75-0.75h2c0.41 0 0.75 0.34 0.75 0.75s-0.34 0.75-0.75 0.75zm6.5 0h-4c-0.41 0-0.75-0.34-0.75-0.75s0.34-0.75 0.75-0.75h4c0.41 0 0.75 0.34 0.75 0.75s-0.34 0.75-0.75 0.75z"/>
 <path d="m13.5 4.61v2.93c0 0.67-0.54 1.21-1.21 1.21h-9.08c-0.68 0-1.21-0.56-1.21-1.23 0.01-1.13 0.46-2.16 1.21-2.91s1.79-1.21 2.93-1.21h6.15c0.67 0 1.21 0.54 1.21 1.21z"/>
 <path d="m19.97 2h-2.94c-1.27 0-2.03 0.76-2.03 2.03v2.94c0 1.27 0.76 2.03 2.03 2.03h2.94c1.27 0 2.03-0.76 2.03-2.03v-2.94c0-1.27-0.76-2.03-2.03-2.03zm0.37 4.49c0.11 0.13 0.17 0.27 0.17 0.44 0 0.14-0.06 0.3-0.17 0.41-0.23 0.23-0.62 0.23-0.85 0l-0.99-0.99-0.98 1c-0.23 0.23-0.62 0.23-0.86-0.01-0.23-0.23-0.23-0.62 0-0.85l1-0.98-0.99-0.99c-0.23-0.23-0.24-0.62-0.01-0.86s0.62-0.23 0.86 0.01l0.98 0.99 1-1c0.23-0.23 0.62-0.23 0.85 0 0.11 0.13 0.16 0.28 0.17 0.44 0 0.14-0.06 0.3-0.16 0.42l-1 1 0.98 0.97z"/>
</svg>
