<?xml version="1.0" encoding="UTF-8"?>
<svg width="24" height="24" viewBox="0 0 24 24" xmlns="http://www.w3.org/2000/svg">
 <path d="m22 21.25c0 0.41-0.34 0.75-0.75 0.75h-18.5c-0.41 0-0.75-0.34-0.75-0.75s0.34-0.75 0.75-0.75h18.5c0.41 0 0.75 0.34 0.75 0.75z"/>
 <path d="m15.39 4.52-10.74 10.74c-0.41 0.41-1.07 0.41-1.47 0h-0.01c-1.39-1.4-1.39-3.66 0-5.05l7.15-7.15c1.4-1.4 3.66-1.4 5.06 0 0.41 0.39 0.41 1.06 0.01 1.46z"/>
 <path d="m20.82 8.49-3.05-3.05c-0.41-0.41-1.07-0.41-1.47 0l-10.74 10.74c-0.41 0.4-0.41 1.06 0 1.47l3.05 3.06c1.4 1.39 3.66 1.39 5.06 0l7.14-7.15c1.42-1.4 1.42-3.67 0.01-5.07zm-8.06 9.03-1.21 1.22c-0.25 0.25-0.66 0.25-0.92 0-0.25-0.25-0.25-0.66 0-0.92l1.22-1.22c0.24-0.24 0.66-0.24 0.91 0 0.25 0.25 0.25 0.68 0 0.92zm3.97-3.97-2.44 2.45c-0.25 0.24-0.66 0.24-0.92 0-0.25-0.25-0.25-0.66 0-0.92l2.45-2.45c0.24-0.24 0.66-0.24 0.91 0 0.25 0.26 0.25 0.67 0 0.92z"/>
</svg>
