<?xml version="1.0" encoding="UTF-8"?>
<svg width="24" height="24" viewBox="0 0 24 24" xmlns="http://www.w3.org/2000/svg">
 <path d="m12 2c-5.52 0-10 4.48-10 10s4.48 10 10 10 10-4.48 10-10-4.48-10-10-10zm4.93 13.74c-1.18 1.56-2.98 2.45-4.93 2.45-3.41 0-6.19-2.78-6.19-6.19s2.78-6.19 6.19-6.19c1.35 0 2.64 0.43 3.72 1.24 0.33 0.25 0.4 0.72001 0.15 1.05s-0.72 0.39999-1.05 0.14999c-0.82-0.62-1.79-0.94-2.82-0.94-2.58 0-4.69 2.1-4.69 4.69s2.1 4.69 4.69 4.69c1.48 0 2.84-0.68 3.74-1.86 0.25-0.33 0.72-0.39 1.05-0.14s0.39 0.72 0.14 1.05zm0.49-4.4c-0.65 0-1.17-0.52-1.17-1.17s0.52-1.17 1.17-1.17 1.17 0.52 1.17 1.17-0.52 1.17-1.17 1.17z"/>
</svg>
