<svg width="24" height="24" viewBox="0 0 24 24"  xmlns="http://www.w3.org/2000/svg">
<path d="M21 22.75H3C2.59 22.75 2.25 22.41 2.25 22C2.25 21.59 2.59 21.25 3 21.25H21C21.41 21.25 21.75 21.59 21.75 22C21.75 22.41 21.41 22.75 21 22.75Z" />
<path d="M5.6 8.37988H4C3.45 8.37988 3 8.82988 3 9.37988V17.9999C3 18.5499 3.45 18.9999 4 18.9999H5.6C6.15 18.9999 6.6 18.5499 6.6 17.9999V9.37988C6.6 8.81988 6.15 8.37988 5.6 8.37988Z" />
<path d="M12.8 5.19043H11.2C10.65 5.19043 10.2 5.64043 10.2 6.19043V18.0004C10.2 18.5504 10.65 19.0004 11.2 19.0004H12.8C13.35 19.0004 13.8 18.5504 13.8 18.0004V6.19043C13.8 5.64043 13.35 5.19043 12.8 5.19043Z" />
<path d="M19.9999 2H18.3999C17.8499 2 17.3999 2.45 17.3999 3V18C17.3999 18.55 17.8499 19 18.3999 19H19.9999C20.5499 19 20.9999 18.55 20.9999 18V3C20.9999 2.45 20.5499 2 19.9999 2Z" />
</svg>
