<?xml version="1.0" encoding="UTF-8"?>
<svg width="24" height="24" viewBox="0 0 24 24" xmlns="http://www.w3.org/2000/svg">
 <path d="m21.97 7.21c-0.28-2.73-2.45-4.9-5.18-5.18-0.2-0.02-0.4-0.03-0.6-0.03h-8.38c-0.2 0-0.4 0.01-0.6 0.03-2.73 0.28-4.9 2.45-5.18 5.18-0.02 0.2-0.03 0.4-0.03 0.6v8.38c0 0.2 0.01 0.4 0.03 0.6 0.28 2.73 2.45 4.9 5.18 5.18 0.2 0.02 0.4 0.03 0.6 0.03h6.19c0.55 0 1-0.45 1-1v-2.97c0-1.67 1.36-3.03 3.03-3.03h2.97c0.55 0 1-0.45 1-1v-6.19c0-0.2-0.01-0.4-0.03-0.6zm-14.22 6.29c0 0.41-0.34 0.75-0.75 0.75s-0.75-0.34-0.75-0.75v-3c0-0.41 0.34-0.75 0.75-0.75s0.75 0.34 0.75 0.75v3zm5 0c0 0.41-0.34 0.75-0.75 0.75s-0.75-0.34-0.75-0.75v-3c0-0.41 0.34-0.75 0.75-0.75s0.75 0.34 0.75 0.75v3z"/>
 <path d="m20.97 16h-2.94c-1.27 0-2.03 0.76-2.03 2.03v2.94c0 1.27 0.76 2.03 2.03 2.03h2.94c1.27 0 2.03-0.76 2.03-2.03v-2.94c0-1.27-0.76-2.03-2.03-2.03zm0.5 4.56c0.25 0.25 0.25 0.66 0 0.91-0.13 0.12-0.3 0.18-0.46 0.18s-0.33-0.06-0.46-0.18l-1.06-1.06-1.04 1.06c-0.13 0.12-0.29 0.18-0.47 0.18-0.15 0-0.32-0.06-0.44-0.18-0.25-0.25-0.25-0.66 0-0.91l1.06-1.06-1.06-1.05c-0.25-0.25-0.25-0.66 0-0.91s0.66-0.25 0.91 0l1.04 1.06 1.06-1.06c0.25-0.25 0.67-0.25 0.92 0s0.25 0.66 0 0.91l-1.06 1.05 1.06 1.06z"/>
</svg>
