<?xml version="1.0" encoding="UTF-8"?>
<svg width="24" height="24" viewBox="0 0 24 24" xmlns="http://www.w3.org/2000/svg">
 <path d="m16.19 2h-8.38c-3.64 0-5.81 2.17-5.81 5.81v8.37c0 3.65 2.17 5.82 5.81 5.82h8.37c3.64 0 5.81-2.17 5.81-5.81v-8.38c0.01-3.64-2.16-5.81-5.8-5.81zm-6.28 14.19c0 0.64-0.52 1.16-1.17 1.16-0.64 0-1.16-0.52-1.16-1.16v-3.26c0-0.64 0.52-1.16 1.16-1.16 0.65 0 1.17 0.52 1.17 1.16v3.26zm6.51 0c0 0.64-0.52 1.16-1.16 1.16-0.65 0-1.17-0.52-1.17-1.16v-8.38c0-0.64 0.52-1.16 1.17-1.16 0.64 0 1.16 0.52 1.16 1.16v8.38z"/>
</svg>
