<?xml version="1.0" encoding="UTF-8"?>
<svg width="24" height="24" viewBox="0 0 24 24" xmlns="http://www.w3.org/2000/svg">
 <path d="m20.97 16h-2.94c-1.27 0-2.03 0.76-2.03 2.03v2.94c0 1.27 0.76 2.03 2.03 2.03h2.94c1.27 0 2.03-0.76 2.03-2.03v-2.94c0-1.27-0.76-2.03-2.03-2.03zm0.66 2.45-2.37 2.77c-0.1 0.11-0.23 0.18-0.38 0.18h-0.02c-0.13 0-0.27-0.05-0.36-0.15l-1.1-1.08c-0.2-0.2-0.2-0.53 0-0.74 0.2-0.2 0.53-0.2 0.74 0l0.69 0.69 2.01-2.34c0.18-0.22 0.51-0.25 0.73-0.06s0.24 0.52 0.06 0.73z"/>
 <path d="m20.97 16h-2.94c-1.27 0-2.03 0.76-2.03 2.03v2.94c0 1.27 0.76 2.03 2.03 2.03h2.94c1.27 0 2.03-0.76 2.03-2.03v-2.94c0-1.27-0.76-2.03-2.03-2.03zm0.66 2.45-2.37 2.77c-0.1 0.11-0.23 0.18-0.38 0.18h-0.02c-0.13 0-0.27-0.05-0.36-0.15l-1.1-1.08c-0.2-0.2-0.2-0.53 0-0.74 0.2-0.2 0.53-0.2 0.74 0l0.69 0.69 2.01-2.34c0.18-0.22 0.51-0.25 0.73-0.06s0.24 0.52 0.06 0.73z"/>
 <path d="m21.97 7.21c-0.28-2.73-2.45-4.9-5.18-5.18-0.2-0.02-0.4-0.03-0.6-0.03h-8.38c-0.2 0-0.4 0.01-0.6 0.03-2.73 0.28-4.9 2.45-5.18 5.18-0.02 0.2-0.03 0.4-0.03 0.6v8.38c0 0.2 0.01 0.4 0.03 0.6 0.28 2.73 2.45 4.9 5.18 5.18 0.2 0.02 0.4 0.03 0.6 0.03h6.19c0.55 0 1-0.45 1-1v-2.97c0-1.67 1.36-3.03 3.03-3.03h2.97c0.55 0 1-0.45 1-1v-6.19c0-0.2-0.01-0.4-0.03-0.6zm-14.22 6.29c0 0.41-0.34 0.75-0.75 0.75s-0.75-0.34-0.75-0.75v-3c0-0.41 0.34-0.75 0.75-0.75s0.75 0.34 0.75 0.75v3zm5 0c0 0.41-0.34 0.75-0.75 0.75s-0.75-0.34-0.75-0.75v-3c0-0.41 0.34-0.75 0.75-0.75s0.75 0.34 0.75 0.75v3z"/>
</svg>
