<?xml version="1.0" encoding="UTF-8"?>
<svg width="24" height="24" viewBox="0 0 24 24" xmlns="http://www.w3.org/2000/svg">
 <path d="m16.19 2h-8.38c-3.64 0-5.81 2.17-5.81 5.81v8.38c0 3.64 2.17 5.81 5.81 5.81h8.38c3.64 0 5.81-2.17 5.81-5.81v-8.38c0-3.64-2.17-5.81-5.81-5.81zm-8.44 11.6c0 0.41-0.34 0.75-0.75 0.75s-0.75-0.34-0.75-0.75v-3.2c0-0.41 0.34-0.75 0.75-0.75s0.75 0.34 0.75 0.75v3.2zm5 1.74c0 0.41-0.34 0.75-0.75 0.75s-0.75-0.34-0.75-0.75v-6.68c0-0.41 0.34-0.75 0.75-0.75s0.75 0.34 0.75 0.75v6.68zm5-1.74c0 0.41-0.34 0.75-0.75 0.75s-0.75-0.34-0.75-0.75v-3.2c0-0.41 0.34-0.75 0.75-0.75s0.75 0.34 0.75 0.75v3.2z"/>
</svg>
