<?xml version="1.0" encoding="UTF-8"?>
<svg width="24" height="24" viewBox="0 0 24 24" xmlns="http://www.w3.org/2000/svg">
 <path d="m16.19 2h-8.38c-3.64 0-5.81 2.17-5.81 5.81v8.37c0 3.65 2.17 5.82 5.81 5.82h8.37c3.64 0 5.81-2.17 5.81-5.81v-8.38c0.01-3.64-2.16-5.81-5.8-5.81zm-7.08 14.9c0 0.28-0.22 0.5-0.5 0.5h-2.79c-0.28 0-0.5-0.22-0.5-0.5v-4.62c0-0.63 0.51-1.14 1.14-1.14h2.15c0.28 0 0.5 0.22 0.5 0.5v5.26zm4.78 0c0 0.28-0.22 0.5-0.5 0.5h-2.79c-0.28 0-0.5-0.22-0.5-0.5v-9.16c0-0.63 0.51-1.14 1.14-1.14h1.52c0.63 0 1.14 0.51 1.14 1.14v9.16h-0.01zm4.79 0c0 0.28-0.22 0.5-0.5 0.5h-2.79c-0.28 0-0.5-0.22-0.5-0.5v-3.55c0-0.28 0.22-0.5 0.5-0.5h2.15c0.63 0 1.14 0.51 1.14 1.14v2.91z"/>
</svg>
