<?xml version="1.0" encoding="UTF-8"?>
<svg width="24" height="24" viewBox="0 0 24 24" xmlns="http://www.w3.org/2000/svg">
 <path d="m15 22c-0.41 0-0.75-0.34-0.75-0.75v-18.5c0-0.41 0.34-0.75 0.75-0.75s0.75 0.34 0.75 0.75v18.5c0 0.41-0.34 0.75-0.75 0.75z"/>
 <path d="m18 20h-3v-16h3c2.21 0 4 1.79 4 4v8c0 2.21-1.79 4-4 4z"/>
 <path d="m6 4c-2.21 0-4 1.79-4 4v8c0 2.21 1.79 4 4 4h5c0.55 0 1-0.45 1-1v-14c0-0.55-0.45-1-1-1h-5zm1.75 11.5c0 0.41-0.34 0.75-0.75 0.75s-0.75-0.34-0.75-0.75v-7c0-0.41 0.34-0.75 0.75-0.75s0.75 0.34 0.75 0.75v7z"/>
</svg>
