<?xml version="1.0" encoding="UTF-8"?>
<svg width="24" height="24" viewBox="0 0 24 24" xmlns="http://www.w3.org/2000/svg">
 <path d="m11.82 6.9c2.86-0.62 5.76-0.71 8.63-0.24-1.77-2.8-4.89-4.66-8.45-4.66-3.11 0-5.89 1.42-7.73 3.65 0.44 1.3 1 2.54 1.67 3.72 0.38 0.68 1.35 0.65 1.74-0.02 0.85-1.43 2.38-2.39 4.14-2.45z"/>
 <path d="m7.72 14.72c-2-2.14-3.56-4.58-4.63-7.28-1.5 2.96-1.49 6.59 0.34 9.64 1.6 2.67 4.24 4.33 7.1 4.76 0.89-1.05 1.67-2.17 2.34-3.34 0.39-0.68-0.14-1.49-0.92-1.49-1.67 0.01-3.28-0.81-4.23-2.29z"/>
 <path d="m8.5701 12c0 0.61 0.15 1.18 0.46 1.72 0.61 1.05 1.74 1.71 2.96 1.71s2.36-0.66 2.96-1.71c0.31-0.54 0.47-1.11 0.47-1.72 0-1.89-1.54-3.42-3.43-3.42-1.88-0.01-3.42 1.53-3.42 3.42z"/>
 <path d="m21.34 8.4203c-1.37-0.29-2.76-0.45-4.14-0.47-0.79-0.01-1.24 0.85-0.85 1.54 0.4 0.71002 0.63 1.53 0.63 2.4 0 0.84-0.22 1.67-0.63 2.41-0.94 2.88-2.34 5.44-4.19 7.7 5.45-0.09 9.84-4.53 9.84-10 0-1.26-0.23-2.47-0.66-3.58z"/>
</svg>
