<?xml version="1.0" encoding="UTF-8"?>
<svg width="24" height="24" viewBox="0 0 24 24" xmlns="http://www.w3.org/2000/svg">
 <path d="m14.3 10.131c0.28 1.1-0.21 2.12-1.05 2.64v1.9799c0 0.69-0.56 1.25-1.25 1.25s-1.25-0.56-1.25-1.25v-1.9799c-0.68-0.42-1.13-1.1701-1.13-2.0201 0-1.52 1.44-2.7 3.02-2.28 0.8 0.21 1.45 0.86 1.66 1.66z"/>
 <path d="m12 22.75c-5.93 0-10.75-4.82-10.75-10.75s4.82-10.75 10.75-10.75c4.74 0 8.86 3.04 10.27 7.55 0.12 0.4-0.1 0.82001-0.49 0.94001-0.4 0.12-0.82-0.10001-0.94-0.49001-1.21-3.89-4.76-6.5-8.83-6.5-5.1 0-9.25 4.15-9.25 9.25s4.15 9.25 9.25 9.25c4.06 0 7.61-2.6 8.82-6.47 0.12-0.4 0.54-0.61 0.94-0.49s0.61 0.55 0.49 0.94c-1.42 4.5-5.54 7.52-10.26 7.52z"/>
</svg>
