<svg width="24" height="24" viewBox="0 0 24 24"  xmlns="http://www.w3.org/2000/svg">
<path d="M14.3001 10.1296C14.5801 11.2296 14.0901 12.2496 13.2501 12.7696V14.7496C13.2501 15.4396 12.6901 15.9996 12.0001 15.9996C11.3101 15.9996 10.7501 15.4396 10.7501 14.7496V12.7696C10.0701 12.3496 9.62012 11.5996 9.62012 10.7496C9.62012 9.22957 11.0601 8.04957 12.6401 8.46957C13.4401 8.67957 14.0901 9.32958 14.3001 10.1296Z" />
<path d="M12 22.75C6.07 22.75 1.25 17.93 1.25 12C1.25 6.07 6.07 1.25 12 1.25C16.74 1.25 20.86 4.29 22.27 8.8C22.39 9.2 22.17 9.62001 21.78 9.74001C21.38 9.86001 20.96 9.64 20.84 9.25C19.63 5.36 16.08 2.75 12.01 2.75C6.90999 2.75 2.75999 6.9 2.75999 12C2.75999 17.1 6.90999 21.25 12.01 21.25C16.07 21.25 19.62 18.65 20.83 14.78C20.95 14.38 21.37 14.17 21.77 14.29C22.17 14.41 22.38 14.84 22.26 15.23C20.84 19.73 16.72 22.75 12 22.75Z" />
</svg>
