<svg width="24" height="24" viewBox="0 0 24 24"  xmlns="http://www.w3.org/2000/svg">
<path d="M14.3001 10.1306C14.5801 11.2306 14.0901 12.2506 13.2501 12.7706V14.7505C13.2501 15.4405 12.6901 16.0005 12.0001 16.0005C11.3101 16.0005 10.7501 15.4405 10.7501 14.7505V12.7706C10.0701 12.3506 9.62012 11.6005 9.62012 10.7505C9.62012 9.23055 11.0601 8.05055 12.6401 8.47055C13.4401 8.68055 14.0901 9.33055 14.3001 10.1306Z" />
<path d="M12 22.75C6.07 22.75 1.25 17.93 1.25 12C1.25 6.07 6.07 1.25 12 1.25C16.74 1.25 20.86 4.29 22.27 8.8C22.39 9.2 22.17 9.62001 21.78 9.74001C21.38 9.86001 20.96 9.64 20.84 9.25C19.63 5.36 16.08 2.75 12.01 2.75C6.90999 2.75 2.75999 6.9 2.75999 12C2.75999 17.1 6.90999 21.25 12.01 21.25C16.07 21.25 19.62 18.65 20.83 14.78C20.95 14.38 21.37 14.17 21.77 14.29C22.17 14.41 22.38 14.84 22.26 15.23C20.84 19.73 16.72 22.75 12 22.75Z" />
</svg>
