<svg width="24" height="24" viewBox="0 0 24 24"  xmlns="http://www.w3.org/2000/svg">
<path d="M14.35 2H9.65001C8.61001 2 7.76001 2.84 7.76001 3.88V4.82C7.76001 5.86 8.60001 6.7 9.64001 6.7H14.35C15.39 6.7 16.23 5.86 16.23 4.82V3.88C16.24 2.84 15.39 2 14.35 2Z" />
<path d="M17.24 4.82047C17.24 6.41047 15.94 7.71047 14.35 7.71047H9.65004C8.06004 7.71047 6.76004 6.41047 6.76004 4.82047C6.76004 4.26047 6.16004 3.91047 5.66004 4.17047C4.25004 4.92047 3.29004 6.41047 3.29004 8.12047V17.5305C3.29004 19.9905 5.30004 22.0005 7.76004 22.0005H16.24C18.7 22.0005 20.71 19.9905 20.71 17.5305V8.12047C20.71 6.41047 19.75 4.92047 18.34 4.17047C17.84 3.91047 17.24 4.26047 17.24 4.82047ZM14.53 16.6905C14.38 16.8405 14.19 16.9105 14 16.9105C13.81 16.9105 13.62 16.8405 13.47 16.6905L12.02 15.2405L10.53 16.7305C10.38 16.8805 10.19 16.9505 10 16.9505C9.81004 16.9505 9.62004 16.8805 9.47004 16.7305C9.18004 16.4405 9.18004 15.9605 9.47004 15.6705L10.96 14.1805L9.51004 12.7305C9.22004 12.4405 9.22004 11.9605 9.51004 11.6705C9.80004 11.3805 10.28 11.3805 10.57 11.6705L12.02 13.1205L13.42 11.7205C13.71 11.4305 14.19 11.4305 14.48 11.7205C14.77 12.0105 14.77 12.4905 14.48 12.7805L13.08 14.1805L14.53 15.6305C14.82 15.9205 14.82 16.3905 14.53 16.6905Z" />
</svg>
