<svg width="24" height="24" viewBox="0 0 24 24"  xmlns="http://www.w3.org/2000/svg">
<path d="M14.35 2H9.65001C8.61001 2 7.76001 2.84 7.76001 3.88V4.82C7.76001 5.86 8.60001 6.7 9.64001 6.7H14.35C15.39 6.7 16.23 5.86 16.23 4.82V3.88C16.24 2.84 15.39 2 14.35 2Z" />
<path d="M17.24 4.82047C17.24 6.41047 15.94 7.71047 14.35 7.71047H9.65004C8.06004 7.71047 6.76004 6.41047 6.76004 4.82047C6.76004 4.26047 6.16004 3.91047 5.66004 4.17047C4.25004 4.92047 3.29004 6.41047 3.29004 8.12047V17.5305C3.29004 19.9905 5.30004 22.0005 7.76004 22.0005H16.24C18.7 22.0005 20.71 19.9905 20.71 17.5305V8.12047C20.71 6.41047 19.75 4.92047 18.34 4.17047C17.84 3.91047 17.24 4.26047 17.24 4.82047ZM15.34 12.7305L11.34 16.7305C11.19 16.8805 11 16.9505 10.81 16.9505C10.62 16.9505 10.43 16.8805 10.28 16.7305L8.78004 15.2305C8.49004 14.9405 8.49004 14.4605 8.78004 14.1705C9.07004 13.8805 9.55004 13.8805 9.84004 14.1705L10.81 15.1405L14.28 11.6705C14.57 11.3805 15.05 11.3805 15.34 11.6705C15.63 11.9605 15.63 12.4405 15.34 12.7305Z" />
</svg>
