<svg width="24" height="24" viewBox="0 0 24 24"  xmlns="http://www.w3.org/2000/svg">
<path d="M14.35 2H9.65001C8.61001 2 7.76001 2.84 7.76001 3.88V4.82C7.76001 5.86 8.60001 6.7 9.64001 6.7H14.35C15.39 6.7 16.23 5.86 16.23 4.82V3.88C16.24 2.84 15.39 2 14.35 2Z" />
<path d="M17.24 4.82047C17.24 6.41047 15.94 7.71047 14.35 7.71047H9.65004C8.06004 7.71047 6.76004 6.41047 6.76004 4.82047C6.76004 4.26047 6.16004 3.91047 5.66004 4.17047C4.25004 4.92047 3.29004 6.41047 3.29004 8.12047V17.5305C3.29004 19.9905 5.30004 22.0005 7.76004 22.0005H16.24C18.7 22.0005 20.71 19.9905 20.71 17.5305V8.12047C20.71 6.41047 19.75 4.92047 18.34 4.17047C17.84 3.91047 17.24 4.26047 17.24 4.82047ZM15.53 17.5305C15.38 17.6805 15.19 17.7505 15 17.7505C14.81 17.7505 14.62 17.6805 14.47 17.5305L9.75004 12.8105V14.0005C9.75004 14.4105 9.41004 14.7505 9.00004 14.7505C8.59004 14.7505 8.25004 14.4105 8.25004 14.0005V11.0005C8.25004 10.5905 8.59004 10.2505 9.00004 10.2505H12C12.41 10.2505 12.75 10.5905 12.75 11.0005C12.75 11.4105 12.41 11.7505 12 11.7505H10.81L15.53 16.4705C15.82 16.7605 15.82 17.2405 15.53 17.5305Z" />
</svg>
