<?xml version="1.0" encoding="UTF-8"?>
<svg width="24" height="24" viewBox="0 0 24 24" xmlns="http://www.w3.org/2000/svg">
 <path d="m14.35 2h-4.7c-1.04 0-1.89 0.84-1.89 1.88v0.94c0 1.04 0.84 1.88 1.88 1.88h4.71c1.04 0 1.88-0.84 1.88-1.88v-0.94c0.01-1.04-0.84-1.88-1.88-1.88z"/>
 <path d="m17.24 4.8205c0 1.59-1.3 2.89-2.89 2.89h-4.7c-1.59 0-2.89-1.3-2.89-2.89 0-0.56-0.6-0.91-1.1-0.65-1.41 0.75-2.37 2.24-2.37 3.95v9.41c0 2.46 2.01 4.47 4.47 4.47h8.48c2.46 0 4.47-2.01 4.47-4.47v-9.41c0-1.71-0.96-3.2-2.37-3.95-0.5-0.26-1.1 0.09-1.1 0.65zm-4.86 12.13h-4.38c-0.41 0-0.75-0.34-0.75-0.75s0.34-0.75 0.75-0.75h4.38c0.41 0 0.75 0.34 0.75 0.75s-0.34 0.75-0.75 0.75zm2.62-4h-7c-0.41 0-0.75-0.34-0.75-0.75s0.34-0.75 0.75-0.75h7c0.41 0 0.75 0.34 0.75 0.75s-0.34 0.75-0.75 0.75z"/>
</svg>
