<svg width="24" height="24" viewBox="0 0 24 24"  xmlns="http://www.w3.org/2000/svg">
<path d="M13.89 2.88014L9.19999 2.14014C5.28999 1.53014 3.47999 2.85014 2.85999 6.76014L2.11999 11.4501C1.71999 14.0101 2.13999 15.6701 3.58999 16.6801C4.34999 17.2201 5.38999 17.5801 6.73999 17.7901L11.43 18.5301C15.34 19.1401 17.15 17.8201 17.77 13.9101L18.5 9.22014C18.62 8.45014 18.67 7.76014 18.63 7.15014C18.5 4.65014 17.03 3.37014 13.89 2.88014ZM8.23999 9.35014C7.06999 9.35014 6.11999 8.40014 6.11999 7.24014C6.11999 6.07014 7.06999 5.12014 8.23999 5.12014C9.39999 5.12014 10.35 6.07014 10.35 7.24014C10.35 8.40014 9.39999 9.35014 8.23999 9.35014Z" />
<path d="M20.4999 13.4701L18.9999 17.9801C17.7499 21.7401 15.7499 22.7401 11.9899 21.4901L7.47989 19.9901C6.06989 19.5201 5.04989 18.9401 4.38989 18.2101C5.01989 18.4601 5.74989 18.6501 6.57989 18.7801L11.2799 19.5201C11.9199 19.6201 12.5199 19.6701 13.0799 19.6701C16.3799 19.6701 18.1499 17.8901 18.7599 14.0601L19.4899 9.37006C19.5899 8.79006 19.6299 8.28006 19.6299 7.81006C21.1499 9.06006 21.3699 10.8401 20.4999 13.4701Z" />
</svg>
