<?xml version="1.0" encoding="UTF-8"?>
<svg width="24" height="24" viewBox="0 0 24 24" xmlns="http://www.w3.org/2000/svg">
 <path d="m14.718 18.997c0.3978-0.1551 0.8573 0.1839 0.7721 0.6023-0.49 1.9-1.59 2.4-2.94 2.4h-1.09c-1.35 0-2.46-0.5-2.94-2.41-0.08225-0.419 0.37502-0.7553 0.77265-0.5995 0.85459 0.3348 1.7682 0.5095 2.7074 0.5095 0.9437 0 1.8618-0.1686 2.7179-0.5023z"/>
 <path d="M15.49 4.4C15.5784 4.82271 15.1124 5.1669 14.7106 5.00871C13.8728 4.67891 12.9588 4.5 12 4.5C11.0425 4.5 10.1302 4.68113 9.29169 5.01127C8.89381 5.16793 8.4347 4.82901 8.52005 4.41C9.00005 2.5 10.11 2 11.46 2H12.55C13.9 2 15 2.5 15.49 4.4Z"/>
 <path d="m12 5.5c-3.59 0-6.5 2.91-6.5 6.5 0 2.1 0.99 3.96 2.53 5.15h0.01c1.1 0.85 2.47 1.35 3.96 1.35 1.51 0 2.89-0.51 3.99-1.37h0.01c1.52-1.19 2.5-3.05 2.5-5.13 0-3.59-2.91-6.5-6.5-6.5zm1.93 8.88c-0.15 0.15-0.34 0.22-0.53 0.22s-0.38-0.07-0.53-0.22l-1.4-1.4c-0.14-0.14-0.22-0.33-0.22-0.53v-2.79c0-0.41 0.34-0.75 0.75-0.75s0.75 0.34 0.75 0.75v2.48l1.18 1.18c0.29 0.29 0.29 0.77 0 1.06z"/>
</svg>
