<svg width="24" height="24" viewBox="0 0 24 24"  xmlns="http://www.w3.org/2000/svg">
<path d="M20.61 10.8305C19.84 9.91045 18.85 9.31045 17.7 9.05045C17.44 7.89045 16.99 6.89045 16.33 6.06045C16.31 6.03045 16.29 6.00045 16.27 5.98045C14.07 3.32045 10.47 3.33045 8.04001 4.71045C5.96001 5.90045 4.19001 8.41045 5.12001 11.9904C2.99001 12.5104 2.01001 14.3704 2.01001 16.0504C2.01001 17.9304 3.24001 20.0404 5.98001 20.2404H16.32C16.33 20.2404 16.35 20.2404 16.36 20.2404C17.78 20.2404 19.14 19.7105 20.19 18.7505C22.7 16.5305 22.37 12.9104 20.61 10.8305Z" />
<path d="M21.76 8.73977C21.76 9.07977 21.72 9.40976 21.62 9.72976C20.89 8.87976 19.96 8.24977 18.93 7.85977C18.61 6.85977 18.1499 5.96977 17.5499 5.18977C17.5199 5.14977 17.49 5.10977 17.45 5.05977C17.64 5.01977 17.84 5.00977 18.03 5.00977C20.09 5.00977 21.76 6.67977 21.76 8.73977Z" />
</svg>
