<?xml version="1.0" encoding="UTF-8"?>
<svg width="24" height="24" viewBox="0 0 24 24" xmlns="http://www.w3.org/2000/svg">
 <path d="m20.17 17.57c-0.53 0.49-1.14 0.86-1.8 1.11s-1.37-0.23-1.37-0.94v-1.32c0-1.95-1.58-3.53-3.53-3.53h-2.94c-1.95 0-3.53 1.58-3.53 3.53v1.58c0 0.55-0.45 1-1 1h-0.45c-2.45-0.37-3.55-2.36-3.55-4.14 0-1.68 0.98-3.54 3.11-4.06-0.59-2.33-0.09-4.52 1.43-6.11 1.73-1.81 4.49-2.53 6.87-1.79 2.19 0.67 3.73 2.47 4.28 4.97 1.91 0.43 3.44 1.87 4.05 3.87 0.66 2.17 0.06 4.4-1.57 5.83z"/>
 <path d="m13.47 14.39h-2.94c-1.27 0-2.03 0.76-2.03 2.03v2.94c0 1.27 0.76 2.03 2.03 2.03h2.94c1.27 0 2.03-0.76 2.03-2.03v-2.94c0-1.27-0.76-2.03-2.03-2.03zm-1.76 4.45-1.24 1.23c-0.09 0.09-0.21 0.14-0.32 0.14-0.13 0-0.24-0.05-0.33-0.14-0.18-0.18-0.18-0.47 0-0.65l1.23-1.24c0.19-0.18 0.48-0.18 0.66 0s0.18 0.48 0 0.66zm0-2.48-1.24 1.24c-0.09 0.09-0.21 0.14-0.32 0.14-0.13 0-0.24-0.05-0.33-0.14-0.18-0.18-0.18-0.48 0-0.66l1.23-1.23c0.19-0.18 0.48-0.18 0.66 0s0.18 0.47 0 0.65zm2.47 2.48-1.23 1.23c-0.1 0.09-0.21 0.14-0.33 0.14s-0.24-0.05-0.33-0.14c-0.18-0.18-0.18-0.47 0-0.65l1.24-1.24c0.18-0.18 0.47-0.18 0.65 0s0.18 0.48 0 0.66zm0-2.48-1.23 1.24c-0.1 0.09-0.21 0.14-0.33 0.14s-0.24-0.05-0.33-0.14c-0.18-0.18-0.18-0.48 0-0.66l1.24-1.23c0.18-0.18 0.47-0.18 0.65 0s0.18 0.47 0 0.65z"/>
</svg>
