<?xml version="1.0" encoding="UTF-8"?>
<svg width="24" height="24" viewBox="0 0 24 24" xmlns="http://www.w3.org/2000/svg">
 <path d="m13.47 14.39h-2.94c-1.27 0-2.03 0.76-2.03 2.03v2.94c0 1.27 0.76 2.03 2.03 2.03h2.94c1.27 0 2.03-0.76 2.03-2.03v-2.94c0-1.27-0.76-2.03-2.03-2.03zm0.94 3.93c-0.1 0.1-0.25 0.17-0.41 0.18h-1.41l0.01 1.39c-0.01 0.17-0.07 0.31-0.19 0.43-0.1 0.1-0.25 0.17-0.41 0.17-0.33 0-0.6-0.27-0.6-0.6v-1.4l-1.4 0.01c-0.33 0-0.6-0.28-0.6-0.61s0.27-0.6 0.6-0.6l1.4 0.01v-1.4c0-0.33 0.27-0.61 0.6-0.61s0.6 0.28 0.6 0.61l-0.01 1.39h1.41c0.33 0 0.6 0.27 0.6 0.6-0.01 0.17-0.08 0.31-0.19 0.43z"/>
 <path d="m20.17 17.57c-0.53 0.49-1.14 0.86-1.8 1.11s-1.37-0.23-1.37-0.94v-1.32c0-1.95-1.58-3.53-3.53-3.53h-2.94c-1.95 0-3.53 1.58-3.53 3.53v1.58c0 0.55-0.45 1-1 1h-0.45c-2.45-0.37-3.55-2.36-3.55-4.14 0-1.68 0.98-3.54 3.11-4.06-0.59-2.33-0.09-4.52 1.43-6.11 1.73-1.81 4.49-2.53 6.87-1.79 2.19 0.67 3.73 2.47 4.28 4.97 1.91 0.43 3.44 1.87 4.05 3.87 0.66 2.17 0.06 4.4-1.57 5.83z"/>
</svg>
