<svg width="24" height="24" viewBox="0 0 24 24"  xmlns="http://www.w3.org/2000/svg">
<path d="M20.17 17.5701C19.64 18.0601 19.03 18.4301 18.37 18.6801C17.71 18.9301 17 18.4501 17 17.7401V16.4201C17 14.4701 15.42 12.8901 13.47 12.8901H10.53C8.58 12.8901 7 14.4701 7 16.4201V18.0001C7 18.5501 6.55 19.0001 6 19.0001H5.55C3.1 18.6301 2 16.6401 2 14.8601C2 13.1801 2.98 11.3201 5.11 10.8001C4.52 8.47006 5.02 6.28006 6.54 4.69006C8.27 2.88006 11.03 2.16006 13.41 2.90006C15.6 3.57006 17.14 5.37006 17.69 7.87006C19.6 8.30006 21.13 9.74006 21.74 11.7401C22.4 13.9101 21.8 16.1401 20.17 17.5701Z" />
<path d="M13.47 14.39H10.53C9.26 14.39 8.5 15.15 8.5 16.42V19.36C8.5 20.63 9.26 21.39 10.53 21.39H13.47C14.74 21.39 15.5 20.63 15.5 19.36V16.42C15.5 15.15 14.74 14.39 13.47 14.39ZM13.71 18.46H10.3C9.94 18.46 9.65 18.17 9.65 17.81C9.65 17.46 9.94 17.17 10.3 17.17H13.72C14.07 17.17 14.36 17.46 14.36 17.81C14.35 18.18 14.06 18.46 13.71 18.46Z" />
</svg>
