<svg width="24" height="24" viewBox="0 0 24 24"  xmlns="http://www.w3.org/2000/svg">
<path d="M20.17 17.5699C19.64 18.0599 19.03 18.4299 18.37 18.6799C17.71 18.9299 17 18.4499 17 17.7399V16.4199C17 14.4699 15.42 12.8899 13.47 12.8899H10.53C8.58 12.8899 7 14.4699 7 16.4199V17.9999C7 18.5499 6.55 18.9999 6 18.9999H5.55C3.1 18.6299 2 16.6399 2 14.8599C2 13.1799 2.98 11.3199 5.11 10.7999C4.52 8.46994 5.02 6.27994 6.54 4.68994C8.27 2.87994 11.03 2.15994 13.41 2.89994C15.6 3.56994 17.14 5.36994 17.69 7.86994C19.6 8.29994 21.13 9.73994 21.74 11.7399C22.4 13.9099 21.8 16.1399 20.17 17.5699Z" />
<path d="M13.47 14.3896H10.53C9.26 14.3896 8.5 15.1496 8.5 16.4196V19.3596C8.5 20.6296 9.26 21.3896 10.53 21.3896H13.47C14.74 21.3896 15.5 20.6296 15.5 19.3596V16.4196C15.5 15.1496 14.74 14.3896 13.47 14.3896ZM11.71 18.8396L10.47 20.0696C10.38 20.1596 10.26 20.2096 10.15 20.2096C10.02 20.2096 9.91 20.1596 9.82 20.0696C9.64 19.8896 9.64 19.5996 9.82 19.4196L11.05 18.1796C11.24 17.9996 11.53 17.9996 11.71 18.1796C11.89 18.3596 11.89 18.6596 11.71 18.8396ZM11.71 16.3596L10.47 17.5996C10.38 17.6896 10.26 17.7396 10.15 17.7396C10.02 17.7396 9.91 17.6896 9.82 17.5996C9.64 17.4196 9.64 17.1196 9.82 16.9396L11.05 15.7096C11.24 15.5296 11.53 15.5296 11.71 15.7096C11.89 15.8896 11.89 16.1796 11.71 16.3596ZM14.18 18.8396L12.95 20.0696C12.85 20.1596 12.74 20.2096 12.62 20.2096C12.5 20.2096 12.38 20.1596 12.29 20.0696C12.11 19.8896 12.11 19.5996 12.29 19.4196L13.53 18.1796C13.71 17.9996 14 17.9996 14.18 18.1796C14.36 18.3596 14.36 18.6596 14.18 18.8396ZM14.18 16.3596L12.95 17.5996C12.85 17.6896 12.74 17.7396 12.62 17.7396C12.5 17.7396 12.38 17.6896 12.29 17.5996C12.11 17.4196 12.11 17.1196 12.29 16.9396L13.53 15.7096C13.71 15.5296 14 15.5296 14.18 15.7096C14.36 15.8896 14.36 16.1796 14.18 16.3596Z" />
</svg>
