<?xml version="1.0" encoding="UTF-8"?>
<svg width="24" height="24" viewBox="0 0 24 24" xmlns="http://www.w3.org/2000/svg">
 <path d="m20.61 10.83c-0.77-0.92004-1.76-1.52-2.91-1.78-0.26-1.16-0.71-2.16-1.37-2.99-0.02-0.03-0.04-0.06-0.06-0.08-2.2-2.66-5.8-2.65-8.23-1.27-2.08 1.19-3.85 3.7-2.92 7.28-2.13 0.52-3.11 2.38-3.11 4.06 0 1.88 1.23 3.99 3.97 4.19h10.34 0.04c1.42 0 2.78-0.53 3.83-1.49 2.51-2.22 2.18-5.84 0.42-7.92z"/>
 <path d="m21.76 8.74c0 0.34-0.04 0.67-0.14 0.99-0.73-0.85-1.66-1.48-2.69-1.87-0.32-1-0.7801-1.89-1.3801-2.67-0.03-0.04-0.0599-0.08-0.0999-0.13 0.19-0.04 0.39-0.05 0.58-0.05 2.06 0 3.73 1.67 3.73 3.73z"/>
</svg>
