<svg width="24" height="24" viewBox="0 0 24 24"  xmlns="http://www.w3.org/2000/svg">
<path d="M12 11.5303C9.24 11.5303 7 13.7703 7 16.5303C7 17.2703 7.16 17.9703 7.46 18.5903C7.54 18.7703 7.63 18.9403 7.73 19.1003C8.59 20.5503 10.18 21.5303 12 21.5303C13.82 21.5303 15.41 20.5503 16.27 19.1003C16.37 18.9403 16.46 18.7703 16.54 18.5903C16.84 17.9703 17 17.2703 17 16.5303C17 13.7703 14.76 11.5303 12 11.5303ZM14.07 16.1003L11.94 18.0703C11.8 18.2003 11.61 18.2703 11.43 18.2703C11.24 18.2703 11.05 18.2003 10.9 18.0503L9.91 17.0603C9.62 16.7703 9.62 16.2903 9.91 16.0003C10.2 15.7103 10.68 15.7103 10.97 16.0003L11.45 16.4803L13.05 15.0003C13.36 14.7203 13.83 14.7403 14.11 15.0403C14.39 15.3403 14.37 15.8103 14.07 16.1003Z" />
<path d="M20.2001 17.0695C19.8401 17.3895 19.4501 17.6595 19.0301 17.8795C18.6701 18.0595 18.3101 17.7095 18.3701 17.3095C18.4101 17.0195 18.4301 16.7195 18.4301 16.4095C18.4301 12.8295 15.5101 9.90954 11.9301 9.90954C8.35007 9.90954 5.43007 12.8295 5.43007 16.4095C5.43007 16.8695 5.48007 17.3095 5.57007 17.7395C5.64007 18.0895 5.37007 18.4395 5.02007 18.3495C1.07007 17.3895 1.05007 11.3095 5.47007 10.9995H5.52007C2.31007 2.06954 15.8501 -1.50046 17.4001 7.87954C21.7301 8.42954 23.4801 14.1995 20.2001 17.0695Z" />
</svg>
