<svg width="24" height="24" viewBox="0 0 24 24"  xmlns="http://www.w3.org/2000/svg">
<path d="M20.17 17.5699C19.64 18.0599 19.03 18.4299 18.37 18.6799C17.71 18.9299 17 18.4499 17 17.7399V16.4199C17 14.4699 15.42 12.8899 13.47 12.8899H10.53C8.58 12.8899 7 14.4699 7 16.4199V17.9999C7 18.5499 6.55 18.9999 6 18.9999H5.55C3.1 18.6299 2 16.6399 2 14.8599C2 13.1799 2.98 11.3199 5.11 10.7999C4.52 8.46994 5.02 6.27994 6.54 4.68994C8.27 2.87994 11.03 2.15994 13.41 2.89994C15.6 3.56994 17.14 5.36994 17.69 7.86994C19.6 8.29994 21.13 9.73994 21.74 11.7399C22.4 13.9099 21.8 16.1399 20.17 17.5699Z" />
<path d="M13.47 14.3896H10.53C9.26 14.3896 8.5 15.1496 8.5 16.4196V19.3596C8.5 20.6296 9.26 21.3896 10.53 21.3896H13.47C14.74 21.3896 15.5 20.6296 15.5 19.3596V16.4196C15.5 15.1496 14.74 14.3896 13.47 14.3896ZM10.5 17.6296C10.08 17.6296 9.75 17.2896 9.75 16.8796C9.75 16.4696 10.08 16.1296 10.5 16.1296C10.92 16.1296 11.25 16.4696 11.25 16.8796C11.25 17.2896 10.91 17.6296 10.5 17.6296ZM12 19.8796C11.59 19.8796 11.25 19.5396 11.25 19.1296C11.25 18.7196 11.59 18.3796 12 18.3796C12.41 18.3796 12.75 18.7196 12.75 19.1296C12.75 19.5396 12.42 19.8796 12 19.8796ZM13.51 17.6296C13.09 17.6296 12.76 17.2896 12.76 16.8796C12.76 16.4696 13.09 16.1296 13.51 16.1296C13.93 16.1296 14.26 16.4696 14.26 16.8796C14.26 17.2896 13.92 17.6296 13.51 17.6296Z" />
</svg>
