<?xml version="1.0" encoding="UTF-8"?>
<svg width="24" height="24" viewBox="0 0 24 24" xmlns="http://www.w3.org/2000/svg">
 <path d="m21.27 8.76c0 1.02-0.47 1.94-1.23 2.54-0.55 0.45-1.26 0.72-2.03 0.72-1.79 0-3.25-1.46-3.25-3.25 0-0.89 0.36-1.7 0.96-2.29v-0.01c0.59-0.59 1.4-0.96 2.29-0.96 1.8 0 3.26 1.46 3.26 3.25z"/>
 <path d="m20.18 18.73c-1.05 0.96-2.4 1.49-3.83 1.49h-10.38c-2.74-0.2-3.96-2.31-3.96-4.19 0-1.68 0.97-3.54 3.1-4.06-0.93-3.58 0.85-6.08 2.93-7.27 2.06-1.17 4.96-1.36 7.14 0.25-0.19 0.14-0.36 0.29-0.53 0.46l-0.43 0.45v0.06c-0.62 0.81-0.96 1.8-0.96 2.84 0 2.62 2.14 4.75 4.76 4.75 1.08 0 2.13-0.37 2.95-1.04 0.15-0.12 0.3-0.25 0.43-0.39 0.99 2.08 0.85 4.84-1.22 6.65z"/>
</svg>
