<?xml version="1.0" encoding="UTF-8"?>
<svg width="24" height="24" viewBox="0 0 24 24" xmlns="http://www.w3.org/2000/svg">
 <path d="m12 11.53c-2.76 0-5 2.24-5 5 0 0.74 0.16 1.44 0.46 2.06 0.08 0.18 0.17 0.35 0.27 0.51 0.86 1.45 2.45 2.43 4.27 2.43s3.41-0.98 4.27-2.43c0.1-0.16 0.19-0.33 0.27-0.51 0.3-0.62 0.46-1.32 0.46-2.06 0-2.76-2.24-5-5-5zm1.5 6.61c-0.15 0.15-0.34 0.22-0.53 0.22s-0.38-0.07-0.53-0.22l-0.53-0.53-0.55 0.55c-0.15 0.15-0.34 0.22-0.53 0.22s-0.38-0.07-0.53-0.22c-0.29-0.29-0.29-0.77 0-1.06l0.55-0.55-0.53-0.53c-0.29-0.29-0.29-0.77 0-1.06s0.77-0.29 1.06 0l0.53 0.53 0.5-0.5c0.29-0.29 0.77-0.29 1.06 0s0.29 0.77 0 1.06l-0.5 0.5 0.53 0.53c0.29 0.3 0.29 0.77 0 1.06z"/>
 <path d="m20.2 17.29c-0.36 0.32-0.75 0.59-1.17 0.81-0.36 0.18-0.72-0.17-0.66-0.57 0.04-0.29 0.06-0.59 0.06-0.9 0-3.58-2.92-6.5-6.5-6.5-3.58 0-6.5 2.92-6.5 6.5 0 0.46 0.05 0.9 0.14 1.33 0.07 0.35-0.2 0.7-0.55 0.61-3.95-0.96-3.97-7.04 0.45-7.36h0.05c-3.21-8.92 10.33-12.49 11.88-3.11 4.33 0.55 6.08 6.32 2.8 9.19z"/>
</svg>
