<?xml version="1.0" encoding="UTF-8"?>
<svg width="24" height="24" viewBox="0 0 24 24" xmlns="http://www.w3.org/2000/svg">
 <path d="m8.11 11.85c-2.82 0.2-2.81 4.3 0 4.5h6.67c0.81 0.01 1.59-0.3 2.19-0.84 1.98-1.73 0.92-5.2-1.68-5.53-0.93-5.64-9.08-3.5-7.15 1.87"/>
 <path d="m9 22.75c-4.27 0-7.75-3.48-7.75-7.75 0-0.41 0.34-0.75 0.75-0.75s0.75 0.34 0.75 0.75c0 2.96 2.06 5.44 4.83 6.09l-0.27-0.45c-0.21-0.36-0.1-0.82 0.26-1.03 0.35-0.21 0.82-0.1 1.03 0.26l1.05 1.75c0.14 0.23 0.14 0.52 0.01 0.75-0.14 0.23-0.39 0.38-0.66 0.38z"/>
 <path d="m22 9.75c-0.41 0-0.75-0.34-0.75-0.75 0-2.96-2.06-5.44-4.83-6.09l0.27 0.45c0.21 0.36 0.1 0.82-0.26 1.03-0.35 0.21-0.82 0.1-1.03-0.26l-1.05-1.75c-0.14-0.23-0.14-0.52-0.01-0.75 0.14-0.23 0.39-0.38 0.66-0.38 4.27 0 7.75 3.48 7.75 7.75 0 0.41-0.34 0.75-0.75 0.75z"/>
</svg>
