<?xml version="1.0" encoding="UTF-8"?>
<svg width="24" height="24" viewBox="0 0 24 24" xmlns="http://www.w3.org/2000/svg">
 <path d="m19.2 14.78c-0.86 0.79-2 1.23-3.17 1.22h-9.66c-4.07-0.29-4.08-6.2 0-6.49h0.04c-2.79-7.76 9-10.85 10.35-2.71 3.77 0.48 5.3 5.49 2.44 7.98z"/>
 <path d="m18.75 21c0 0.41-0.34 0.75-0.75 0.75h-4c-0.05 0-0.09 0-0.14-0.02-0.29 0.74-1.02 1.27-1.86 1.27s-1.57-0.53-1.86-1.27c-0.05 0.02-0.09 0.02-0.14 0.02h-4c-0.41 0-0.75-0.34-0.75-0.75s0.34-0.75 0.75-0.75h4c0.05 0 0.09 0 0.14 0.02 0.2-0.52 0.61-0.93 1.13-1.13-0.02-0.05-0.02-0.09-0.02-0.14v-3h1.5v3c0 0.05 0 0.09-0.02 0.14 0.52 0.2 0.93 0.61 1.13 1.13 0.05-0.02 0.09-0.02 0.14-0.02h4c0.41 0 0.75 0.34 0.75 0.75z"/>
</svg>
