<svg width="24" height="24" viewBox="0 0 24 24"  xmlns="http://www.w3.org/2000/svg">
<path d="M20.17 17.5699C19.64 18.0599 19.03 18.4299 18.37 18.6799C17.71 18.9299 17 18.4499 17 17.7399V16.4199C17 14.4699 15.42 12.8899 13.47 12.8899H10.53C8.58 12.8899 7 14.4699 7 16.4199V17.9999C7 18.5499 6.55 18.9999 6 18.9999H5.55C3.1 18.6299 2 16.6399 2 14.8599C2 13.1799 2.98 11.3199 5.11 10.7999C4.52 8.46994 5.02 6.27994 6.54 4.68994C8.27 2.87994 11.03 2.15994 13.41 2.89994C15.6 3.56994 17.14 5.36994 17.69 7.86994C19.6 8.29994 21.13 9.73994 21.74 11.7399C22.4 13.9099 21.8 16.1399 20.17 17.5699Z" />
<path d="M13.47 14.3896H10.53C9.26 14.3896 8.5 15.1496 8.5 16.4196V19.3596C8.5 20.6296 9.26 21.3896 10.53 21.3896H13.47C14.74 21.3896 15.5 20.6296 15.5 19.3596V16.4196C15.5 15.1496 14.74 14.3896 13.47 14.3896ZM13.97 18.9396C14.22 19.1896 14.22 19.5996 13.97 19.8496C13.84 19.9696 13.68 20.0296 13.51 20.0296C13.35 20.0296 13.19 19.9696 13.06 19.8496L12 18.7896L10.95 19.8496C10.82 19.9696 10.66 20.0296 10.49 20.0296C10.33 20.0296 10.17 19.9696 10.04 19.8496C9.79 19.5996 9.79 19.1896 10.04 18.9396L11.1 17.8796L10.04 16.8296C9.79 16.5796 9.79 16.1696 10.04 15.9196C10.29 15.6696 10.7 15.6696 10.95 15.9196L12 16.9796L13.06 15.9196C13.31 15.6696 13.72 15.6696 13.97 15.9196C14.22 16.1696 14.22 16.5796 13.97 16.8296L12.91 17.8796L13.97 18.9396Z" />
</svg>
