<svg width="24" height="24" viewBox="0 0 24 24"  xmlns="http://www.w3.org/2000/svg">
<path d="M13.47 14.3896H10.53C9.26 14.3896 8.5 15.1496 8.5 16.4196V19.3596C8.5 20.6296 9.26 21.3896 10.53 21.3896H13.47C14.74 21.3896 15.5 20.6296 15.5 19.3596V16.4196C15.5 15.1496 14.74 14.3896 13.47 14.3896ZM14.41 18.3196C14.31 18.4196 14.16 18.4896 14 18.4996H12.59L12.6 19.8896C12.59 20.0596 12.53 20.1996 12.41 20.3196C12.31 20.4196 12.16 20.4896 12 20.4896C11.67 20.4896 11.4 20.2196 11.4 19.8896V18.4896L10 18.4996C9.67 18.4996 9.4 18.2196 9.4 17.8896C9.4 17.5596 9.67 17.2896 10 17.2896L11.4 17.2996V15.8996C11.4 15.5696 11.67 15.2896 12 15.2896C12.33 15.2896 12.6 15.5696 12.6 15.8996L12.59 17.2896H14C14.33 17.2896 14.6 17.5596 14.6 17.8896C14.59 18.0596 14.52 18.1996 14.41 18.3196Z" />
<path d="M20.17 17.5699C19.64 18.0599 19.03 18.4299 18.37 18.6799C17.71 18.9299 17 18.4499 17 17.7399V16.4199C17 14.4699 15.42 12.8899 13.47 12.8899H10.53C8.58 12.8899 7 14.4699 7 16.4199V17.9999C7 18.5499 6.55 18.9999 6 18.9999H5.55C3.1 18.6299 2 16.6399 2 14.8599C2 13.1799 2.98 11.3199 5.11 10.7999C4.52 8.46994 5.02 6.27994 6.54 4.68994C8.27 2.87994 11.03 2.15994 13.41 2.89994C15.6 3.56994 17.14 5.36994 17.69 7.86994C19.6 8.29994 21.13 9.73994 21.74 11.7399C22.4 13.9099 21.8 16.1399 20.17 17.5699Z" />
</svg>
