<?xml version="1.0" encoding="UTF-8"?>
<svg width="24" height="24" viewBox="0 0 24 24" xmlns="http://www.w3.org/2000/svg">
 <path d="m21 10h-18c-0.55 0-1 0.45-1 1v5.19c0 0.2 0.01 0.4 0.03 0.6 0.2 3.08 2.1 4.98 5.18 5.18 0.2 0.02 0.4 0.03 0.6 0.03h8.38c0.2 0 0.4-0.01 0.6-0.03 3.08-0.2 4.98-2.1 5.18-5.18 0.02-0.2 0.03-0.4 0.03-0.6v-5.19c0-0.55-0.45-1-1-1zm-13 6.15c0.34 0.5 0.8 0.91 1.33 1.18 0.38 0.18 0.53 0.63 0.34 1.01-0.13 0.26-0.4 0.41-0.67 0.41-0.11 0-0.23-0.03-0.33-0.08-0.78-0.38-1.44-0.97-1.91-1.68-0.4-0.6-0.4-1.38 0-1.98 0.47-0.71 1.13-1.3 1.91-1.68 0.37-0.19 0.82-0.04 1 0.33 0.19 0.38 0.04 0.83-0.34 1.01-0.53 0.27-0.99 0.68-1.33 1.18-0.06 0.09-0.06 0.21 0 0.3zm9.45 0.84c-0.48 0.71-1.14 1.3-1.91 1.68-0.11 0.05-0.22 0.08-0.33 0.08-0.28 0-0.54-0.15-0.67-0.41-0.19-0.38-0.04-0.83 0.33-1.01 0.54-0.27 1-0.68 1.33-1.18 0.07-0.09 0.07-0.21 0-0.3-0.33-0.5-0.79-0.91-1.33-1.18-0.37-0.18-0.52-0.63-0.33-1.01 0.18-0.37 0.63-0.52 1-0.33 0.77 0.38 1.43 0.97 1.91 1.68 0.4 0.6 0.4 1.38 0 1.98z"/>
 <path d="m22 7.81v0.19c0 0.55-0.45 1-1 1l-18 0.01c-0.55 0-1-0.45-1-1v-0.2c0-0.2 0.01-0.4 0.03-0.6 0.2-3.08 2.1-4.98 5.18-5.18 0.2-0.02 0.4-0.03 0.6-0.03h8.38c0.2 0 0.4 0.01 0.6 0.03 3.08 0.2 4.98 2.1 5.18 5.18 0.02 0.2 0.03 0.4 0.03 0.6z"/>
</svg>
