<?xml version="1.0" encoding="UTF-8"?>
<svg width="24" height="24" viewBox="0 0 24 24" xmlns="http://www.w3.org/2000/svg">
 <path d="m6 5.1201c-0.41 0-0.75-0.34-0.75-0.75v-1.75c0-0.41 0.34-0.75 0.75-0.75s0.75 0.34 0.75 0.75v1.75c0 0.42-0.34 0.75-0.75 0.75z"/>
 <path d="m10 5.1201c-0.41 0-0.75-0.34-0.75-0.75v-1.75c0-0.41 0.34-0.75 0.75-0.75s0.75 0.34 0.75 0.75v1.75c0 0.42-0.34 0.75-0.75 0.75z"/>
 <path d="m14 5.1201c-0.41 0-0.75-0.34-0.75-0.75v-1.75c0-0.41 0.34-0.75 0.75-0.75s0.75 0.34 0.75 0.75v1.75c0 0.42-0.34 0.75-0.75 0.75z"/>
 <path d="m22.25 13.25c0-2.62-2.03-4.74-4.59-4.96-0.74-1.21-2.06-2.03-3.58-2.03h-7.37c-2.32 0-4.21 1.89-4.21 4.21v0.53h15.79v-0.53c0-0.19-0.03-0.38-0.06-0.56003 1.45 0.43003 2.52 1.75 2.52 3.34 0 1.57-1.04 2.88-2.46 3.32v-4.57h-15.79v5.79c0 2.32 1.89 4.21 4.21 4.21h7.37c2.2 0 3.99-1.7 4.17-3.86 2.28-0.46 4-2.48 4-4.89z"/>
</svg>
