<?xml version="1.0" encoding="UTF-8"?>
<svg width="24" height="24" viewBox="0 0 24 24" xmlns="http://www.w3.org/2000/svg">
 <path d="m21.92 16.75c-0.33 2.66-2.51 4.84-5.17 5.17-1.61 0.2-3.11-0.24-4.28-1.1-0.67-0.49-0.51-1.53 0.29-1.77 3.01-0.91 5.38-3.29 6.3-6.3 0.24-0.79 1.28-0.95 1.77-0.29 0.85 1.18 1.29 2.68 1.09 4.29z"/>
 <path d="m9.99 2c-4.41 0-7.99 3.58-7.99 7.99s3.58 7.99 7.99 7.99 7.99-3.58 7.99-7.99c-0.01-4.41-3.58-7.99-7.99-7.99zm-0.94 6.87 2.41 0.84c0.87 0.31 1.29 0.92 1.29 1.86 0 1.08-0.86 1.97-1.91 1.97h-0.09v0.05c0 0.41-0.34 0.75-0.75 0.75s-0.75-0.34-0.75-0.75v-0.06c-1.11-0.05-2-0.98-2-2.14 0-0.41 0.34-0.75 0.75-0.75s0.75 0.34 0.75 0.75c0 0.36 0.26 0.65 0.58 0.65h1.5c0.23 0 0.41-0.21 0.41-0.47 0-0.35-0.06-0.37-0.29-0.45l-2.41-0.84c-0.86-0.3-1.29-0.91-1.29-1.86 0-1.08 0.86-1.97 1.91-1.97h0.09v-0.04c0-0.41 0.34-0.75 0.75-0.75s0.75 0.34 0.75 0.75v0.06c1.11 0.05 2 0.98 2 2.14 0 0.41-0.34 0.75-0.75 0.75s-0.75-0.34-0.75-0.75c0-0.36-0.26-0.65-0.58-0.65h-1.5c-0.23 0-0.41 0.21-0.41 0.47-0.01 0.34 0.05 0.36 0.29 0.44z"/>
</svg>
