<?xml version="1.0" encoding="UTF-8"?>
<svg width="24" height="24" viewBox="0 0 24 24" xmlns="http://www.w3.org/2000/svg">
 <path d="m14 16c0 1.77-0.77 3.37-2 4.46-1.06 0.96-2.46 1.54-4 1.54-3.31 0-6-2.69-6-6 0-2.0247 1.014-3.8186 2.5554-4.9026 0.24818-0.1746 0.5839-0.0552 0.71784 0.2171 0.94391 1.9187 2.681 3.3555 4.7468 3.9155 0.63 0.18 1.29 0.27 1.98 0.27 0.4872 0 0.9539-0.0462 1.4074-0.1312 0.2884-0.0541 0.5754 0.1307 0.5881 0.4238 3e-3 0.0695 0.0045 0.1388 0.0045 0.2074z"/>
 <path d="m18 8c0 0.78-0.15 1.53-0.42 2.21-0.69 1.74-2.17 3.08-4 3.58-0.5 0.14-1.03 0.21-1.58 0.21s-1.08-0.07-1.58-0.21c-1.83-0.5-3.31-1.84-4-3.58-0.27-0.68-0.42-1.43-0.42-2.21 0-3.31 2.69-6 6-6s6 2.69 6 6z"/>
 <path d="m22 16c0 3.31-2.69 6-6 6-0.7445 0-1.4607-0.1357-2.1189-0.3859-0.3187-0.1211-0.3781-0.529-0.1563-0.7878 1.142-1.3325 1.7752-3.0403 1.7752-4.8263 0-0.34-0.03-0.68-0.08-1-0.0298-0.1844 0.0644-0.3658 0.2278-0.4562 1.3241-0.7331 2.4054-1.8562 3.0792-3.2285 0.1339-0.2725 0.4698-0.3922 0.7182-0.2175 1.5411 1.0841 2.5548 2.8778 2.5548 4.9022z"/>
</svg>
