<?xml version="1.0" encoding="UTF-8"?>
<svg width="24" height="24" viewBox="0 0 24 24" xmlns="http://www.w3.org/2000/svg">
 <path d="m22 16.5v3c0 1.38-1.12 2.5-2.5 2.5h-7.14c-0.89 0-1.33-1.07-0.71-1.7l5.87-6c0.19-0.19 0.45-0.3 0.71-0.3h1.27c1.38 0 2.5 1.12 2.5 2.5z"/>
 <path d="m18.37 11.29-2.71 2.71-2.46 2.45c-0.63 0.63-1.71 0.19-1.71-0.7v-8.49c0-0.27 0.11-0.52 0.29-0.71l0.92-0.92c0.98-0.98 2.56-0.98 3.54 0l2.12 2.12c0.99 0.98 0.99 2.56 0.01 3.54z"/>
 <path d="m7.5 2h-3c-1.5 0-2.5 1-2.5 2.5v13.5c0 0.27 0.03 0.54 0.08 0.8 0.03 0.13 0.06 0.26 0.1 0.39 0.05 0.15 0.1 0.3 0.16 0.44 0.01 0.01 0.01 0.02 0.01 0.02 0.01 0 0.01 0 0 0.01 0.14 0.28 0.3 0.55 0.49 0.8 0.11 0.13 0.22 0.25 0.33 0.37s0.23 0.22 0.36 0.32l0.01 0.01c0.25 0.19 0.52 0.35 0.8 0.49 0.01-0.01 0.01-0.01 0.01 0 0.15 0.07 0.3 0.12 0.46 0.17 0.13 0.04 0.26 0.07 0.39 0.1 0.26 0.05 0.53 0.08 0.8 0.08 0.41 0 0.83-0.06 1.22-0.19 0.11-0.04 0.22-0.08 0.33-0.13 0.35-0.14 0.69-0.34 0.99-0.6 0.09-0.07 0.19-0.16 0.28-0.25l0.04-0.04c0.7-0.72 1.14-1.71 1.14-2.79v-13.5c0-1.5-1-2.5-2.5-2.5zm-1.5 17.5c-0.83 0-1.5-0.67-1.5-1.5s0.67-1.5 1.5-1.5 1.5 0.67 1.5 1.5-0.67 1.5-1.5 1.5z"/>
</svg>
