<?xml version="1.0" encoding="UTF-8"?>
<svg width="24" height="24" viewBox="0 0 24 24" xmlns="http://www.w3.org/2000/svg">
 <path d="m16.19 2h-8.38c-3.64 0-5.81 2.17-5.81 5.81v8.37c0 3.65 2.17 5.82 5.81 5.82h8.37c3.64 0 5.81-2.17 5.81-5.81v-8.38c0.01-3.64-2.16-5.81-5.8-5.81zm-4.19 4c1.99 0 3.6 1.61 3.6 3.6 0 0.47-0.09 0.92-0.25 1.33-0.41 1.04-1.3 1.85-2.4 2.15-0.3 0.08-0.62 0.13-0.95 0.13s-0.65-0.04-0.95-0.13c-1.1-0.3-1.99-1.1-2.4-2.15-0.16-0.41-0.25-0.86-0.25-1.33 0-1.99 1.61-3.6 3.6-3.6zm-2.4 12c-1.99 0-3.6-1.61-3.6-3.6 0-1.1325 0.52861-2.1437 1.3443-2.8039 0.23672-0.1916 0.57483-0.0709 0.72311 0.1951 0.58477 1.049 1.5781 1.8283 2.7426 2.1388 0.38 0.11 0.77 0.16 1.19 0.16 0.2489 0 0.4868-0.0184 0.7181-0.0553 0.2373-0.0378 0.4819 0.115 0.4819 0.3553 0 1.06-0.46 2.02-1.2 2.68-0.64 0.58-1.48 0.93-2.4 0.93zm4.8 0c-0.3485 0-0.69-0.0488-1.0122-0.1424-0.3265-0.0948-0.3863-0.5017-0.1819-0.7733 0.5751-0.7641 0.8941-1.7079 0.8941-2.6843 0-0.2-0.02-0.41-0.05-0.6-0.0179-0.1132 0.0398-0.2244 0.1399-0.2803 0.7241-0.4042 1.3306-0.9973 1.7343-1.7255 0.1481-0.267 0.4864-0.39 0.7245-0.1989 0.8223 0.6602 1.3513 1.6717 1.3513 2.8047 0 1.99-1.61 3.6-3.6 3.6z"/>
</svg>
