<?xml version="1.0" encoding="UTF-8"?>
<svg width="24" height="24" viewBox="0 0 24 24" xmlns="http://www.w3.org/2000/svg">
 <path d="m16.19 2h-8.38c-3.64 0-5.81 2.17-5.81 5.81v8.37c0 3.65 2.17 5.82 5.81 5.82h8.37c3.64 0 5.81-2.17 5.81-5.81v-8.38c0.01-3.64-2.16-5.81-5.8-5.81zm-6.59 14.2c0 0.99-0.81 1.8-1.8 1.8s-1.8-0.81-1.8-1.8 0.81-1.8 1.8-1.8h0.8c0.55 0 1 0.45 1 1v0.8zm0-7.6c0 0.55-0.45 1-1 1h-0.8c-0.99 0-1.8-0.81-1.8-1.8s0.81-1.8 1.8-1.8 1.8 0.81 1.8 1.8v0.8zm4.55 4.65c0 0.49-0.4 0.9-0.9 0.9h-2.51c-0.49 0-0.9-0.4-0.9-0.9v-2.51c0-0.49 0.4-0.9 0.9-0.9h2.51c0.49 0 0.9 0.4 0.9 0.9v2.51zm2.05 4.75c-0.99 0-1.8-0.81-1.8-1.8v-0.8c0-0.55 0.45-1 1-1h0.8c0.99 0 1.8 0.81 1.8 1.8s-0.81 1.8-1.8 1.8zm0-8.4h-0.8c-0.55 0-1-0.45-1-1v-0.8c0-0.99 0.81-1.8 1.8-1.8s1.8 0.81 1.8 1.8-0.81 1.8-1.8 1.8z"/>
</svg>
