<svg width="24" height="24" viewBox="0 0 24 24"  xmlns="http://www.w3.org/2000/svg">
<path d="M14.9999 22.75C14.7299 22.75 14.4799 22.6 14.3499 22.37C14.2199 22.14 14.2199 21.85 14.3599 21.62L15.4099 19.87C15.6199 19.51 16.0799 19.4 16.4399 19.61C16.7999 19.82 16.9099 20.28 16.6999 20.64L16.4299 21.09C19.1899 20.44 21.2599 17.96 21.2599 15C21.2599 14.59 21.5999 14.25 22.0099 14.25C22.4199 14.25 22.7599 14.59 22.7599 15C22.7499 19.27 19.2699 22.75 14.9999 22.75Z" />
<path d="M2 9.75C1.59 9.75 1.25 9.41 1.25 9C1.25 4.73 4.73 1.25 9 1.25C9.27 1.25 9.52 1.4 9.65 1.63C9.78 1.86 9.78 2.15 9.64 2.38L8.59 4.14C8.38 4.49 7.92 4.61 7.56 4.39C7.21 4.18 7.09 3.72 7.31 3.36L7.58 2.91C4.81 3.56 2.75 6.04 2.75 9C2.75 9.41 2.41 9.75 2 9.75Z" />
<path d="M10.67 13.8504L7.52996 12.1604C7.19996 11.9804 6.79996 11.9804 6.46996 12.1604L3.32996 13.8504C3.09996 13.9704 2.95996 14.2204 2.95996 14.4904C2.95996 14.7604 3.09996 15.0104 3.32996 15.1304L6.46996 16.8204C6.63996 16.9104 6.81996 16.9504 6.99996 16.9504C7.17996 16.9504 7.35996 16.9104 7.52996 16.8204L10.67 15.1304C10.9 15.0104 11.04 14.7604 11.04 14.4904C11.04 14.2204 10.89 13.9804 10.67 13.8504Z" />
<path d="M5.95 17.4096L3.03 15.9496C2.81 15.8396 2.55 15.8496 2.33 15.9796C2.13 16.1096 2 16.3396 2 16.5896V19.3496C2 19.8296 2.26 20.2596 2.69 20.4696L5.61 21.9296C5.71 21.9696 5.82 21.9996 5.93 21.9996C6.06 21.9996 6.19 21.9596 6.31 21.8896C6.52 21.7596 6.65 21.5296 6.65 21.2796V18.5196C6.65 18.0496 6.38 17.6196 5.95 17.4096Z" />
<path d="M11.6601 15.9796C11.4501 15.8496 11.1901 15.8396 10.9601 15.9496L8.0401 17.4096C7.6101 17.6196 7.3501 18.0496 7.3501 18.5296V21.2896C7.3501 21.5396 7.4801 21.7696 7.6901 21.8996C7.8101 21.9596 7.9401 21.9996 8.0701 21.9996C8.1801 21.9996 8.2901 21.9696 8.3901 21.9196L11.3101 20.4596C11.7401 20.2496 12.0001 19.8196 12.0001 19.3396V16.5796C12.0001 16.3396 11.8701 16.1096 11.6601 15.9796Z" />
<path d="M20.67 3.82988L17.53 2.13988C17.2 1.95988 16.8 1.95988 16.47 2.13988L13.33 3.82988C13.1 3.94988 12.96 4.19988 12.96 4.46988C12.96 4.73988 13.1 4.98988 13.33 5.10988L16.47 6.79988C16.64 6.88988 16.82 6.92988 17 6.92988C17.18 6.92988 17.36 6.88988 17.53 6.79988L20.67 5.10988C20.9 4.98988 21.04 4.73988 21.04 4.46988C21.04 4.18988 20.89 3.94988 20.67 3.82988Z" />
<path d="M15.95 7.38035L13.03 5.92035C12.81 5.81035 12.55 5.82035 12.33 5.95035C12.13 6.08035 12 6.31035 12 6.56035V9.32035C12 9.80035 12.26 10.2304 12.69 10.4404L15.61 11.9004C15.71 11.9504 15.82 11.9804 15.93 11.9804C16.06 11.9804 16.19 11.9404 16.31 11.8704C16.52 11.7404 16.65 11.5104 16.65 11.2604V8.50035C16.65 8.02035 16.38 7.59035 15.95 7.38035Z" />
<path d="M21.6601 5.95035C21.4501 5.82035 21.1901 5.81035 20.9601 5.92035L18.0401 7.38035C17.6101 7.59035 17.3501 8.02035 17.3501 8.50035V11.2604C17.3501 11.5104 17.4801 11.7404 17.6901 11.8704C17.8101 11.9404 17.9401 11.9804 18.0701 11.9804C18.1801 11.9804 18.2901 11.9504 18.3901 11.9004L21.3101 10.4404C21.7401 10.2204 22.0001 9.79035 22.0001 9.32035V6.56035C22.0001 6.31035 21.8701 6.08035 21.6601 5.95035Z" />
</svg>
