<?xml version="1.0" encoding="UTF-8"?>
<svg width="24" height="24" viewBox="0 0 24 24" xmlns="http://www.w3.org/2000/svg">
 <path d="m15 22.75c-0.27 0-0.52-0.15-0.65-0.38s-0.13-0.52 0.01-0.75l1.05-1.75c0.21-0.36 0.67-0.47 1.03-0.26s0.47 0.67 0.26 1.03l-0.27 0.45c2.76-0.65 4.83-3.13 4.83-6.09 0-0.41 0.34-0.75 0.75-0.75s0.75 0.34 0.75 0.75c-0.01 4.27-3.49 7.75-7.76 7.75z"/>
 <path d="m2 9.75c-0.41 0-0.75-0.34-0.75-0.75 0-4.27 3.48-7.75 7.75-7.75 0.27 0 0.52 0.15 0.65 0.38s0.13 0.52-0.01 0.75l-1.05 1.76c-0.21 0.35-0.67 0.47-1.03 0.25-0.35-0.21-0.47-0.67-0.25-1.03l0.27-0.45c-2.77 0.65-4.83 3.13-4.83 6.09 0 0.41-0.34 0.75-0.75 0.75z"/>
 <path d="m10.67 13.85-3.14-1.69c-0.33-0.18-0.73-0.18-1.06 0l-3.14 1.69c-0.23 0.12-0.37 0.37-0.37 0.64s0.14 0.52 0.37 0.64l3.14 1.69c0.17 0.09 0.35 0.13 0.53 0.13s0.36-0.04 0.53-0.13l3.14-1.69c0.23-0.12 0.37-0.37 0.37-0.64s-0.15-0.51-0.37-0.64z"/>
 <path d="m5.95 17.41-2.92-1.46c-0.22-0.11-0.48-0.1-0.7 0.03-0.2 0.13-0.33 0.36-0.33 0.61v2.76c0 0.48 0.26 0.91 0.69 1.12l2.92 1.46c0.1 0.04 0.21 0.07 0.32 0.07 0.13 0 0.26-0.04 0.38-0.11 0.21-0.13 0.34-0.36 0.34-0.61v-2.76c0-0.47-0.27-0.9-0.7-1.11z"/>
 <path d="m11.66 15.98c-0.21-0.13-0.47-0.14-0.7-0.03l-2.92 1.46c-0.43 0.21-0.69 0.64-0.69 1.12v2.76c0 0.25 0.13 0.48 0.34 0.61 0.12 0.06 0.25 0.1 0.38 0.1 0.11 0 0.22-0.03 0.32-0.08l2.92-1.46c0.43-0.21 0.69-0.64 0.69-1.12v-2.76c0-0.24-0.13-0.47-0.34-0.6z"/>
 <path d="m20.67 3.8299-3.14-1.69c-0.33-0.18-0.73-0.18-1.06 0l-3.14 1.69c-0.23 0.12-0.37 0.37-0.37 0.64s0.14 0.52 0.37 0.64l3.14 1.69c0.17 0.09 0.35 0.13 0.53 0.13s0.36-0.04 0.53-0.13l3.14-1.69c0.23-0.12 0.37-0.37 0.37-0.64 0-0.28-0.15-0.52-0.37-0.64z"/>
 <path d="m15.95 7.3799-2.92-1.46c-0.22-0.11-0.48-0.1-0.7 0.03-0.2 0.13-0.33 0.36-0.33 0.61v2.76c0 0.48 0.26 0.91004 0.69 1.12l2.92 1.46c0.1 0.05 0.21 0.08 0.32 0.08 0.13 0 0.26-0.04 0.38-0.11 0.21-0.13 0.34-0.36 0.34-0.61v-2.76c0-0.48-0.27-0.91-0.7-1.12z"/>
 <path d="m21.66 5.9499c-0.21-0.13-0.47-0.14-0.7-0.03l-2.92 1.46c-0.43 0.21-0.69 0.64-0.69 1.12v2.76c0 0.25 0.13 0.48 0.34 0.61 0.12 0.07 0.25 0.11 0.38 0.11 0.11 0 0.22-0.03 0.32-0.08l2.92-1.46c0.43-0.22 0.69-0.65004 0.69-1.12v-2.76c0-0.25-0.13-0.48-0.34-0.61z"/>
</svg>
