<?xml version="1.0" encoding="UTF-8"?>
<svg width="24" height="24" viewBox="0 0 24 24" xmlns="http://www.w3.org/2000/svg">
 <path d="m12.031 2.0303c-1.9499 0-3.77 0.56-5.3 1.52l6.86 6.87 0.01-2.74c0-0.41 0.34-0.75 0.75-0.75 0.42 0 0.75 0.34 0.75 0.75l-0.01 4.55c0 0.31-0.1901 0.58-0.47 0.69-0.0901 0.04-0.19 0.06-0.28 0.06-0.2 0-0.39-0.08-0.53-0.22l-8.19-8.2c-0.04-0.04-0.07-0.08-0.1-0.12-2.14 1.84-3.49 4.56-3.49 7.59 0 5.52 4.48 10 10 10 1.95 0 3.7701-0.56 5.3001-1.52l-6.86-6.87-0.01 2.74c0 0.41-0.34 0.75-0.75005 0.75-0.42 0-0.75-0.34-0.75-0.75l0.01-4.55c0-0.31 0.19-0.58 0.47-0.69 0.27-0.12 0.60005-0.06 0.81005 0.16l8.1899 8.2c0.0401 0.04 0.07 0.08 0.1001 0.12 2.1399-1.84 3.4899-4.56 3.4899-7.59 0-5.52-4.4799-10-10-10z"/>
</svg>
