<?xml version="1.0" encoding="UTF-8"?>
<svg width="24" height="24" viewBox="0 0 24 24" xmlns="http://www.w3.org/2000/svg">
 <path d="m17.1 2h-4.2c-3.0831 0-4.529 1.0941-4.8302 3.739-0.06302 0.55334 0.39525 1.011 0.95216 1.011h2.0781c4.2 0 6.15 1.95 6.15 6.15v2.0781c0 0.5569 0.4577 1.0152 1.011 0.9522 2.6449-0.3013 3.739-1.7472 3.739-4.8303v-4.2c0-3.5-1.4-4.9-4.9-4.9z"/>
 <path d="m11.1 8h-4.2c-3.5 0-4.9 1.4-4.9 4.9v4.2c0 3.5 1.4 4.9 4.9 4.9h4.2c3.5 0 4.9-1.4 4.9-4.9v-4.2c0-3.5-1.4-4.9-4.9-4.9zm1.19 5.65-3.71 3.71c-0.14 0.14-0.32 0.21-0.51 0.21s-0.37-0.07-0.51-0.21l-1.86-1.86c-0.28-0.28-0.28-0.73 0-1.01s0.73-0.28 1.01 0l1.35 1.35 3.21-3.21c0.28-0.28 0.73-0.28 1.01 0s0.29 0.74 0.01 1.02z"/>
</svg>
