<?xml version="1.0" encoding="UTF-8"?>
<svg width="24" height="24" viewBox="0 0 24 24" xmlns="http://www.w3.org/2000/svg">
 <path d="M16 12.9V17.1C16 20.6 14.6 22 11.1 22H6.9C3.4 22 2 20.6 2 17.1V12.9C2 9.4 3.4 8 6.9 8H11.1C14.6 8 16 9.4 16 12.9Z"/>
 <path d="m17.1 2h-4.2c-3.0831 0-4.529 1.0941-4.8302 3.739-0.06302 0.55334 0.39525 1.011 0.95216 1.011h2.0781c4.2 0 6.15 1.95 6.15 6.15v2.0781c0 0.5569 0.4577 1.0152 1.011 0.9522 2.6449-0.3013 3.739-1.7472 3.739-4.8303v-4.2c0-3.5-1.4-4.9-4.9-4.9z"/>
</svg>
