<?xml version="1.0" encoding="UTF-8"?>
<svg width="24" height="24" viewBox="0 0 24 24" xmlns="http://www.w3.org/2000/svg">
 <path d="m22 21.25h-1.25v-10.25c0-2.42-1.33-3.75-3.75-3.75h-4.25v-1.23c0.58 0.14 1.16 0.22 1.75 0.22 0.94 0 1.88-0.18 2.78-0.54 0.28-0.11 0.47-0.39 0.47-0.7v-3c0-0.25-0.12-0.48-0.33-0.62s-0.47-0.17-0.7-0.08c-1.43 0.57-3.01 0.57-4.44 0-0.23-0.09-0.49-0.06-0.7 0.08s-0.33 0.37-0.33 0.62v5.25h-4.25c-2.42 0-3.75 1.33-3.75 3.75v10.25h-1.25c-0.41 0-0.75 0.34-0.75 0.75s0.34 0.75 0.75 0.75h20c0.41 0 0.75-0.34 0.75-0.75s-0.34-0.75-0.75-0.75zm-14.76 0h-2.49v-8.5h2.49v8.5zm4 0h-2.5v-8.5h2.5v8.5zm4 0h-2.5v-8.5h2.5v8.5zm4.01 0h-2.51v-8.5h2.51v8.5z"/>
</svg>
