<?xml version="1.0" encoding="UTF-8"?>
<svg width="24" height="24" viewBox="0 0 24 24" xmlns="http://www.w3.org/2000/svg">
 <path d="m13.98 7.75h-3.97c-1.25 0-2.27 1.01-2.27 2.27v3.97c0 1.25 1.01 2.27 2.27 2.27h3.97c1.25 0 2.27-1.01 2.27-2.27v-3.97c0-1.26-1.01-2.27-2.27-2.27zm-0.48 5.23-0.89 1.55c-0.13 0.23-0.37 0.35-0.61 0.35-0.12 0-0.25-0.03-0.35-0.09-0.34-0.19-0.46-0.62-0.26-0.96l0.64-1.11h-0.56c-0.45 0-0.82-0.2-1.02-0.54s-0.18-0.76 0.05-1.15l0.89-1.55c0.2-0.34 0.63-0.45 0.96-0.26 0.34 0.19 0.46 0.62 0.26 0.96l-0.64 1.11h0.56c0.45 0 0.82 0.2 1.02 0.54s0.18 0.76-0.05 1.15z"/>
 <path d="m21.25 12.75c0.42 0 0.75-0.34 0.75-0.75 0-0.42-0.33-0.75-0.75-0.75h-1.25v-2.2h1.25c0.42 0 0.75-0.33 0.75-0.75 0-0.41-0.33-0.75-0.75-0.75h-1.48c-0.48-1.59-1.73-2.84-3.32-3.32v-1.48c0-0.41-0.34-0.75-0.75-0.75s-0.75 0.34-0.75 0.75v1.25h-2.2v-1.25c0-0.41-0.34-0.75-0.75-0.75s-0.75 0.34-0.75 0.75v1.25h-2.19v-1.25c0-0.41-0.34-0.75-0.75-0.75-0.42 0-0.75 0.34-0.75 0.75v1.48c-1.6 0.48-2.85 1.73-3.33 3.32h-1.48c-0.41 0-0.75 0.34-0.75 0.75 0 0.42 0.34 0.75 0.75 0.75h1.25v2.2h-1.25c-0.41 0-0.75 0.33-0.75 0.75 0 0.41 0.34 0.75 0.75 0.75h1.25v2.2h-1.25c-0.41 0-0.75 0.33-0.75 0.75 0 0.41 0.34 0.75 0.75 0.75h1.48c0.47 1.59 1.73 2.84 3.33 3.32v1.48c0 0.41 0.33 0.75 0.75 0.75 0.41 0 0.75-0.34 0.75-0.75v-1.25h2.2v1.25c0 0.41 0.33 0.75 0.75 0.75 0.41 0 0.75-0.34 0.75-0.75v-1.25h2.19v1.25c0 0.41 0.34 0.75 0.75 0.75s0.75-0.34 0.75-0.75v-1.48c1.59-0.48 2.84-1.73 3.32-3.32h1.48c0.42 0 0.75-0.34 0.75-0.75 0-0.42-0.33-0.75-0.75-0.75h-1.25v-2.2h1.25zm-3.99 1.51c0 1.65-1.35 3-3 3h-4.52c-1.65 0-3-1.35-3-3v-4.52c0-1.65 1.35-3 3-3h4.52c1.65 0 3 1.35 3 3v4.52z"/>
</svg>
