<?xml version="1.0" encoding="UTF-8"?>
<svg width="24" height="24" viewBox="0 0 24 24" xmlns="http://www.w3.org/2000/svg">
 <path d="M4.09 8.08C4.04 8.38 4 8.68 4 9C4 8.69 4.04 8.38 4.09 8.08ZM4 15C4 15.32 4.04 15.62 4.09 15.92C4.04 15.62 4 15.31 4 15ZM8.09 19.91C8.38 19.96 8.69 20 9 20C8.69 20 8.39 19.96 8.09 19.91ZM8.09 4.09C8.39 4.04 8.69 4 9 4C8.69 4 8.38 4.04 8.09 4.09ZM15.92 4.09C15.62 4.04 15.32 4 15 4C15.31 4 15.62 4.04 15.92 4.09ZM19.91 8.08C19.96 8.38 20 8.69 20 9C20 8.68 19.96 8.38 19.91 8.08Z"/>
 <path d="m22 8.3c0 0.42-0.33 0.75-0.75 0.75h-1.25v1.8371c0 0.3336-0.362 0.5413-0.65 0.3729-0.43-0.25-0.93-0.33-1.41-0.2-0.3079 0.0739-0.68-0.1251-0.68-0.4417v-0.8783c0-1.65-1.35-3-3-3h-4.52c-1.65 0-3 1.35-3 3v4.52c0 1.65 1.35 3 3 3h0.45c0.116 0 0.21 0.094 0.21 0.21 0 0.9635 0.6982 1.7736 1.6175 1.9598 0.1729 0.035 0.2898 0.2418 0.2325 0.4085-0.0328 0.0954-0.1198 0.1617-0.2207 0.1617h-2.9693v1.25c0 0.41-0.34 0.75-0.75 0.75-0.42 0-0.75-0.34-0.75-0.75v-1.47c-1.6-0.49-2.85-1.74-3.33-3.33h-1.48c-0.41 0-0.75-0.34-0.75-0.75 0-0.42 0.34-0.75 0.75-0.75h1.25v-2.2h-1.25c-0.41 0-0.75-0.34-0.75-0.75 0-0.42 0.34-0.75 0.75-0.75h1.25v-2.2h-1.25c-0.41 0-0.75-0.33-0.75-0.75 0-0.41 0.34-0.75 0.75-0.75h1.48c0.48-1.59 1.73-2.84 3.33-3.33v-1.47c0-0.41 0.33-0.75 0.75-0.75 0.41 0 0.75 0.34 0.75 0.75v1.25h2.19v-1.25c0-0.41 0.34-0.75 0.75-0.75s0.75 0.34 0.75 0.75v1.25h2.2v-1.25c0-0.41 0.34-0.75 0.75-0.75s0.75 0.34 0.75 0.75v1.48c1.59 0.48 2.84 1.73 3.32 3.32h1.48c0.42 0 0.75 0.34 0.75 0.75z"/>
 <path d="m20.99 15.53c-0.68 0-1.07-0.34-1.07-0.84 0-0.2 0.06-0.43 0.2-0.67 0.28-0.48 0.11-1.1-0.37-1.37l-0.91-0.53c-0.42-0.25-0.96-0.1-1.21 0.32l-0.06 0.1c-0.48 0.83-1.26 0.83-1.74 0l-0.06-0.1c-0.24-0.42-0.79-0.57-1.2-0.32l-0.92 0.53c-0.32 0.18-0.51 0.52-0.51 0.87 0 0.17 0.05 0.34 0.14 0.5 0.14 0.24 0.21 0.47 0.21 0.67 0 0.5-0.4 0.84-1.08 0.84-0.55 0-1.01 0.45-1.01 1v0.94c0 0.55 0.46 1 1.01 1 0.68 0 1.08 0.34 1.08 0.84 0 0.2-0.07 0.43-0.21 0.67-0.28 0.48-0.11 1.1 0.37 1.37l0.92 0.53c0.41 0.25 0.96 0.1 1.2-0.32l0.06-0.1c0.48-0.83 1.26-0.83 1.74 0l0.06 0.1c0.25 0.42 0.79 0.57 1.21 0.32l0.91-0.53c0.32-0.18 0.51-0.52 0.51-0.87 0-0.17-0.05-0.34-0.14-0.5-0.14-0.24-0.2-0.47-0.2-0.67 0-0.5 0.39-0.84 1.07-0.84 0.56 0 1.01-0.45 1.01-1v-0.94c0-0.55-0.45-1-1.01-1zm-4.29 3.19c-0.95 0-1.72-0.77-1.72-1.72s0.77-1.72 1.72-1.72 1.72 0.77 1.72 1.72-0.77 1.72-1.72 1.72z"/>
 <path d="m16.25 10.02v0.5725c0 0.3341-0.4453 0.5459-0.77 0.4675-0.5-0.13-1-0.06-1.41 0.19l-0.91 0.53c-0.63 0.35-1.02 1.02-1.02 1.74 0 0.0596 0.0025 0.1196 0.0075 0.1796 0.0328 0.3862-0.2372 0.8549-0.5882 1.0195-0.4826 0.2263-0.8614 0.6386-1.0428 1.1433-0.0776 0.2161-0.2669 0.3876-0.4965 0.3876-1.26 0-2.27-1.01-2.27-2.27v-3.96c0-1.26 1.01-2.27 2.27-2.27h3.96c1.26 0 2.27 1.01 2.27 2.27z"/>
</svg>
