<?xml version="1.0" encoding="UTF-8"?>
<svg width="24" height="24" viewBox="0 0 24 24" xmlns="http://www.w3.org/2000/svg">
 <path d="m12 2c-5.52 0-10 4.48-10 10s4.48 10 10 10 10-4.48 10-10-4.48-10-10-10zm-3.01 12.12c0.51 0 1.01-0.19 1.4-0.53 0.31-0.27 0.79-0.24 1.06 0.07s0.24 0.79-0.07 1.06c-0.66 0.58-1.51 0.9-2.39 0.9-2 0-3.62-1.62-3.62-3.62s1.62-3.62 3.62-3.62c0.88 0 1.72 0.32 2.39 0.9 0.31 0.27 0.34 0.75 0.07 1.06s-0.75 0.34-1.06 0.07c-0.39-0.34-0.89-0.53-1.4-0.53-1.17 0-2.12 0.95-2.12 2.12s0.95 2.12 2.12 2.12zm7 0c0.51 0 1.01-0.19 1.4-0.53 0.31-0.27 0.79-0.24 1.06 0.07s0.24 0.79-0.07 1.06c-0.66 0.58-1.51 0.9-2.39 0.9-2 0-3.62-1.62-3.62-3.62s1.62-3.62 3.62-3.62c0.88 0 1.72 0.32 2.39 0.9 0.31 0.27 0.34 0.75 0.07 1.06s-0.75 0.34-1.06 0.07c-0.39-0.34-0.88-0.53-1.4-0.53-1.17 0-2.12 0.95-2.12 2.12s0.95 2.12 2.12 2.12z"/>
</svg>
