<?xml version="1.0" encoding="UTF-8"?>
<svg width="24" height="24" viewBox="0 0 24 24" xmlns="http://www.w3.org/2000/svg">
 <path d="m5.53 2c-0.42 0-0.75 0.34-0.75 0.75v2.03h-2.03c-0.41 0-0.75 0.33-0.75 0.75s0.34 0.75 0.75 0.75h2.78c0.41 0 0.75-0.34 0.75-0.75v-2.78c0-0.41-0.34-0.75-0.75-0.75z"/>
 <path d="m21.25 17.72h-2.78c-0.41 0-0.75 0.34-0.75 0.75v2.78c0 0.41 0.34 0.75 0.75 0.75s0.75-0.34 0.75-0.75v-2.03h2.03c0.41 0 0.75-0.34 0.75-0.75s-0.34-0.75-0.75-0.75z"/>
 <path d="m16.72 18.47c0-0.96 0.79-1.75 1.75-1.75h0.69v-6.67c0-2.89-2.34-5.23-5.23-5.23h-6.65v0.69c0 0.96-0.79 1.75-1.75 1.75h-0.7v6.67c0 2.89 2.34 5.23 5.23 5.23h6.67v-0.69h-0.01z"/>
</svg>
