<?xml version="1.0" encoding="UTF-8"?>
<svg width="24" height="24" viewBox="0 0 24 24" xmlns="http://www.w3.org/2000/svg">
 <path d="m22 5.7105v9.58c0 2.76-2.24 5-5 5h-10c-0.46 0-0.9-0.06-1.33-0.18-0.62-0.17-0.82-0.96-0.36-1.42l10.63-10.63c0.22-0.22 0.55-0.27 0.86-0.21 0.32 0.06 0.67-0.03 0.92-0.27l2.57-2.58c0.94-0.94 1.71-0.63 1.71 0.71z"/>
 <path d="m14.64 7.3595-10.47 10.47c-0.48 0.48-1.28 0.36-1.6-0.24-0.37-0.68-0.57-1.47-0.57-2.3v-9.58c0-1.34 0.77-1.65 1.71-0.71l2.58 2.59c0.39 0.38 1.03 0.38 1.42 0l3.58-3.59c0.39-0.39 1.03-0.39 1.42 0l1.94 1.94c0.38 0.39 0.38 1.03-0.01 1.42z"/>
</svg>
