<?xml version="1.0" encoding="UTF-8"?>
<svg width="24" height="24" viewBox="0 0 24 24" xmlns="http://www.w3.org/2000/svg">
 <path d="m17 22h-10c-0.41 0-0.75-0.34-0.75-0.75s0.34-0.75 0.75-0.75h10c0.41 0 0.75 0.34 0.75 0.75s-0.34 0.75-0.75 0.75z"/>
 <path d="m20.35 5.52-4 2.86c-0.53 0.38-1.29 0.15-1.52-0.46l-1.89-5.04c-0.32-0.87-1.55-0.87-1.87 0l-1.9 5.03c-0.23 0.62-0.98001 0.85-1.51 0.46l-4-2.86c-0.8-0.56-1.86 0.23-1.53 1.16l4.16 11.65c0.14 0.4 0.52 0.66 0.94 0.66h9.53c0.42 0 0.8-0.27 0.94-0.66l4.16-11.65c0.34-0.93-0.72-1.72-1.51-1.15zm-5.85 9.23h-5c-0.41 0-0.75-0.34-0.75-0.75s0.34-0.75 0.75-0.75h5c0.41 0 0.75 0.34 0.75 0.75s-0.34 0.75-0.75 0.75z"/>
</svg>
