<?xml version="1.0" encoding="UTF-8"?>
<svg width="24" height="24" viewBox="0 0 24 24" xmlns="http://www.w3.org/2000/svg">
 <path d="m19.33 5.6803-6.27-3.38c-0.66-0.36-1.46-0.36-2.12 0l-6.27 3.38c-0.46 0.25-0.74 0.73-0.74 1.28 0 0.54 0.28 1.03 0.74 1.28l6.27 3.38c0.33 0.18 0.7 0.27 1.06 0.27s0.73-0.09 1.06-0.27l6.27-3.38c0.46-0.25 0.74-0.73 0.74-1.28s-0.28-1.03-0.74-1.28z"/>
 <path d="m9.91 12.79-5.84-2.92c-0.45-0.22-0.97-0.2-1.39 0.06-0.43 0.27-0.68 0.72-0.68 1.22v5.51c0 0.95 0.53 1.81 1.38 2.24l5.83 2.92c0.2 0.1 0.42 0.15 0.64 0.15 0.26 0 0.52-0.07 0.75-0.21 0.43-0.26 0.68-0.72 0.68-1.22v-5.51c0.01-0.96-0.52-1.82-1.37-2.24z"/>
 <path d="m21.32 9.9301c-0.43-0.26-0.95-0.29-1.39-0.06l-5.83 2.92c-0.85 0.43-1.38 1.28-1.38 2.24v5.51c0 0.5 0.25 0.96 0.68 1.22 0.23 0.14 0.49 0.21 0.75 0.21 0.22 0 0.44-0.05 0.64-0.15l5.83-2.92c0.85-0.43 1.38-1.28 1.38-2.24v-5.51c0-0.5-0.25-0.95-0.68-1.22z"/>
</svg>
