<?xml version="1.0" encoding="UTF-8"?>
<svg width="24" height="24" viewBox="0 0 24 24" xmlns="http://www.w3.org/2000/svg">
 <path d="m11.25 18.25h-2.25c-1.1 0-2 0.9-2 2v0.25h-1c-0.41 0-0.75 0.34-0.75 0.75s0.34 0.75 0.75 0.75h12c0.41 0 0.75-0.34 0.75-0.75s-0.34-0.75-0.75-0.75h-1v-0.25c0-1.1-0.9-2-2-2h-2.25v-2.29c-0.25 0.03-0.5 0.04-0.75 0.04s-0.5-0.01-0.75-0.04v2.29z"/>
 <path d="m18.48 11.64c0.66-0.25 1.24-0.66 1.7-1.12 0.93-1.03 1.54-2.26 1.54-3.7s-1.13-2.57-2.57-2.57h-0.56c-0.65-1.33-2.01-2.25-3.59-2.25h-6c-1.58 0-2.94 0.92-3.59 2.25h-0.56c-1.44 0-2.57 1.13-2.57 2.57s0.61 2.67 1.54 3.7c0.46 0.46 1.04 0.87 1.7 1.12 1.04 2.56 3.54 4.36 6.48 4.36 2.94 0 5.44-1.8 6.48-4.36zm-3.64-3.19-0.62 0.76c-0.1 0.11-0.17 0.33-0.16 0.48l0.06 0.98c0.04 0.6-0.39 0.91-0.95 0.69l-0.91-0.36c-0.14-0.05-0.38-0.05-0.52 0l-0.91 0.36c-0.56 0.22-0.98997-0.09-0.94997-0.69l0.06-0.98c0.01-0.15-0.06-0.37-0.16-0.48l-0.62-0.76c-0.39-0.46-0.22-0.97 0.36-1.12l0.94997-0.24c0.15-0.04 0.33-0.18 0.41-0.31l0.53-0.82c0.33-0.51 0.85-0.51 1.18 0l0.53 0.82c0.08 0.13 0.26 0.27 0.41 0.31l0.95 0.24c0.58 0.15 0.75 0.66 0.36 1.12z"/>
</svg>
