<?xml version="1.0" encoding="UTF-8"?>
<svg width="24" height="24" viewBox="0 0 24 24" xmlns="http://www.w3.org/2000/svg">
 <path d="m12 7.75h-3.25v1.5h6.46c-0.78-0.91-1.92-1.5-3.21-1.5z"/>
 <path d="m16.25 12c0-0.44-0.09-0.85-0.21-1.25h-7.29v2.5h7.29c0.12-0.4 0.21-0.81 0.21-1.25z"/>
 <path d="m12 2c-5.52 0-10 4.48-10 10s4.48 10 10 10 10-4.48 10-10-4.48-10-10-10zm6.52 12.75h-1.47c-0.98 1.79-2.87 3-5.05 3h-4c-0.41 0-0.75-0.34-0.75-0.75v-2.25h-0.77002c-0.41 0-0.75-0.34-0.75-0.75s0.34-0.75 0.75-0.75h0.77002v-2.5h-0.77002c-0.41 0-0.75-0.34-0.75-0.75s0.34-0.75 0.75-0.75h0.77002v-2.25c0-0.41 0.34-0.75 0.75-0.75h4c2.18 0 4.07 1.21 5.05 3h1.47c0.41 0 0.75 0.34 0.75 0.75s-0.34 0.75-0.75 0.75h-0.91c0.09 0.4 0.14 0.82 0.14 1.25s-0.05 0.85-0.14 1.25h0.91c0.41 0 0.75 0.34 0.75 0.75s-0.34 0.75-0.75 0.75z"/>
 <path d="m8.75 16.25h3.25c1.29 0 2.43-0.59 3.21-1.5h-6.46v1.5z"/>
</svg>
