<?xml version="1.0" encoding="UTF-8"?>
<svg width="24" height="24" viewBox="0 0 24 24" xmlns="http://www.w3.org/2000/svg">
 <path d="m21.76 15.92-6.4-11.52c-0.86-1.55-2.05-2.4-3.36-2.4s-2.5 0.85-3.36 2.4l-6.4 11.52c-0.81 1.47-0.9 2.88-0.25 3.99s1.93 1.72 3.61 1.72h12.8c1.68 0 2.96-0.61 3.61-1.72s0.56-2.53-0.25-3.99zm-10.51-6.92c0-0.41 0.34-0.75 0.75-0.75s0.75 0.34 0.75 0.75v5c0 0.41-0.34 0.75-0.75 0.75s-0.75-0.34-0.75-0.75v-5zm1.46 8.71-0.15 0.12c-0.06 0.04-0.12 0.07-0.18 0.09-0.06 0.03-0.12 0.05-0.19 0.06-0.06 0.01-0.13 0.02-0.19 0.02s-0.13-0.01-0.2-0.02c-0.06-0.01-0.12-0.03-0.18-0.06-0.06-0.02-0.12-0.05-0.18-0.09l-0.15-0.12c-0.18-0.19-0.29-0.45-0.29-0.71s0.11-0.52 0.29-0.71l0.15-0.12c0.06-0.04 0.12-0.07 0.18-0.09 0.06-0.03 0.12-0.05 0.18-0.06 0.13-0.03 0.27-0.03 0.39 0 0.07 0.01 0.13 0.03 0.19 0.06 0.06 0.02 0.12 0.05 0.18 0.09l0.15 0.12c0.18 0.19 0.29 0.45 0.29 0.71s-0.11 0.52-0.29 0.71z"/>
</svg>
