<?xml version="1.0" encoding="UTF-8"?>
<svg width="24" height="24" viewBox="0 0 24 24" xmlns="http://www.w3.org/2000/svg">
 <path d="M7 8H4C2.9 8 2 7.1 2 6V4C2 2.9 2.9 2 4 2H7C8.1 2 9 2.9 9 4V6C9 7.1 8.1 8 7 8Z"/>
 <path d="M20.8 7H17.2C16.54 7 16 6.46 16 5.8V4.2C16 3.54 16.54 3 17.2 3H20.8C21.46 3 22 3.54 22 4.2V5.8C22 6.46 21.46 7 20.8 7Z"/>
 <path d="m20.8 14.5h-3.6c-0.66 0-1.2-0.54-1.2-1.2v-1.6c0-0.66 0.54-1.2 1.2-1.2h3.6c0.66 0 1.2 0.54 1.2 1.2v1.6c0 0.66-0.54 1.2-1.2 1.2z"/>
 <path d="m16 13.25c0.41 0 0.75-0.34 0.75-0.75s-0.34-0.75-0.75-0.75h-2.75v-6h2.75c0.41 0 0.75-0.34 0.75-0.75s-0.34-0.75-0.75-0.75h-7c-0.41 0-0.75 0.34-0.75 0.75s0.34 0.75 0.75 0.75h2.75v12.25c0 1.52 1.23 2.75 2.75 2.75h1.5c0.41 0 0.75-0.34 0.75-0.75s-0.34-0.75-0.75-0.75h-1.5c-0.69 0-1.25-0.56-1.25-1.25v-4.75h2.75z" opacity=".96"/>
 <path d="m20.8 22h-3.6c-0.66 0-1.2-0.54-1.2-1.2v-1.6c0-0.66 0.54-1.2 1.2-1.2h3.6c0.66 0 1.2 0.54 1.2 1.2v1.6c0 0.66-0.54 1.2-1.2 1.2z"/>
</svg>
