<?xml version="1.0" encoding="UTF-8"?>
<svg width="24" height="24" viewBox="0 0 24 24" xmlns="http://www.w3.org/2000/svg">
 <path d="m5.65 7.65-2.8-2.8c-0.31-0.31-0.09-0.85001 0.35-0.85001h3.59c0.13 0 0.26 0.04999 0.35 0.14999l5 5c0.31 0.31 0.09 0.85001-0.35 0.85001h-3.29c-1.93 0-3.5 1.57-3.5 3.5s1.57 3.5 3.5 3.5h1.5l2.15 2.15c0.31 0.31 0.09 0.85-0.35 0.85h-3.29c-3.59 0-6.5-2.91-6.5-6.5 0-2.49 1.4-4.66 3.47-5.75l0.16998-0.10001z"/>
 <path d="m18.35 16.35 2.8 2.8c0.31 0.31 0.09 0.85-0.35 0.85h-3.59c-0.13 0-0.26-0.05-0.35-0.15l-5-5c-0.31-0.31-0.09-0.85 0.35-0.85h3.29c1.93 0 3.5-1.57 3.5-3.5s-1.57-3.5-3.5-3.5h-1.5l-2.15-2.15c-0.31-0.31-0.09-0.85001 0.35-0.85001h3.29c3.59 0 6.5 2.91 6.5 6.5 0 2.49-1.4 4.66-3.47 5.75l-0.17 0.1z"/>
</svg>
