<?xml version="1.0" encoding="UTF-8"?>
<svg width="24" height="24" viewBox="0 0 24 24" xmlns="http://www.w3.org/2000/svg">
 <path d="m12 2c-5.52 0-10 4.48-10 10s4.48 10 10 10 10-4.48 10-10-4.48-10-10-10zm3.38 10.43 1.46 0.84c0.63 0.36 0.84 1.17 0.48 1.8s-1.17 0.84-1.8 0.48l-1.46-0.84c-0.33-0.19-0.75 0.05-0.75 0.43v1.68c0 0.72-0.59 1.32-1.32 1.32s-1.32-0.59-1.32-1.32v-1.68c0-0.38-0.42-0.63-0.75-0.43l-1.46 0.84c-0.63 0.36-1.44 0.15-1.8-0.48s-0.15-1.44 0.48-1.8l1.46-0.84c0.33-0.19 0.33-0.67 0-0.87l-1.46-0.84c-0.63-0.36-0.84-1.17-0.48-1.8s1.17-0.84 1.8-0.48l1.46 0.84c0.33 0.19 0.75-0.04999 0.75-0.42999v-1.68c0-0.72 0.59-1.32 1.32-1.32s1.32 0.58999 1.32 1.32v1.68c0 0.38 0.42 0.62999 0.75 0.42999l1.46-0.84c0.63-0.36 1.44-0.15 1.8 0.48s0.15 1.44-0.48 1.8l-1.46 0.84c-0.33 0.2-0.33 0.68 0 0.87z"/>
</svg>
