<?xml version="1.0" encoding="UTF-8"?>
<svg width="24" height="24" viewBox="0 0 24 24" xmlns="http://www.w3.org/2000/svg">
 <path d="m15.72 9.69c-2.05-2.06-5.39-2.06-7.44 0-2.06 2.06-2.06 5.39 0 7.44 2.06 2.06 5.39 2.06 7.44 0 2.06-2.06 2.06-5.39 0-7.44zm-3.19 4.25-1.59 1.59c-0.15 0.15-0.34 0.22-0.53 0.22s-0.39-0.07-0.52999-0.22c-0.29-0.29-0.29-0.77 0-1.07l1.59-1.59c0.29-0.29 0.77-0.29 1.07 0 0.29 0.3 0.29 0.78-0.01 1.07z"/>
 <path d="m19.6 5.81c-0.22-0.22-0.5-0.34-0.81-0.34s-0.59 0.12-0.81 0.33c-0.45 0.45-0.45 1.17 0 1.62 0.22 0.22 0.5 0.34 0.81 0.34s0.59-0.12 0.81-0.33c0.22-0.22 0.34-0.5 0.34-0.81s-0.12-0.6-0.34-0.81z"/>
 <path d="m6.0201 19.39c-0.22-0.22-0.5-0.34-0.81-0.34s-0.59 0.12-0.81 0.33c-0.22 0.22-0.34 0.5001-0.34 0.8101s0.12 0.5899 0.34 0.8099 0.52 0.33 0.81 0.33 0.59-0.11 0.81-0.34c0.44-0.43 0.44-1.16 0-1.6z"/>
 <path d="m22.41 12.6c-0.21-0.22-0.5-0.33-0.81-0.34-0.31 0-0.59 0.12-0.81 0.34-0.45 0.45-0.45 1.17 0 1.62 0.22 0.22 0.52 0.33 0.81 0.33s0.59-0.11 0.81-0.33c0.45-0.45 0.45-1.18 0-1.62z"/>
 <path d="m3.2099 12.6c-0.44-0.44-1.17-0.45-1.62 0s-0.45 1.17 0 1.62c0.22 0.22 0.52 0.33 0.81 0.33s0.59-0.11 0.81-0.33c0.44-0.45 0.44-1.18 0-1.62z"/>
 <path d="m19.6 19.39c-0.45-0.45-1.17-0.45-1.62 0s-0.45 1.17 0 1.62c0.22 0.22 0.52 0.33 0.81 0.33s0.59-0.11 0.81-0.33 0.34-0.51 0.34-0.81c0-0.31-0.12-0.6-0.34-0.81z"/>
 <path d="m6.0201 5.81c-0.22-0.22-0.5-0.34-0.81-0.34s-0.59 0.12-0.81 0.33c-0.22 0.22-0.34 0.5-0.34 0.81s0.12 0.6 0.34 0.81c0.22 0.22 0.5 0.34 0.81 0.34s0.59-0.12 0.81-0.33c0.44-0.45 0.44-1.18 0-1.62z"/>
 <path d="m12.81 3.0001v0c-0.45-0.45-1.17-0.45-1.62 0-0.22 0.22-0.34 0.51-0.34 0.81 0 0.31 0.12 0.59 0.33 0.81 0.22 0.22 0.5 0.34 0.81 0.34s0.59-0.12 0.81-0.34c0.46-0.45 0.46-1.18 0.01-1.62z"/>
</svg>
