<?xml version="1.0" encoding="UTF-8"?>
<svg width="24" height="24" viewBox="0 0 24 24" xmlns="http://www.w3.org/2000/svg">
 <path d="m20 6v0.24h-5.13c-2.97 0-4.35 1.38-4.35 4.35v5.11h-0.77v3.55h0.77v1.5h-5.57c-0.41 0-0.75-0.34-0.75-0.75s0.34-0.75 0.75-0.75h3.3v-3.55h-2.25c-3.13 0-3.97-0.77-4-3.8v-5.9c0-3.2 0.8-4 4-4h10c3.2 0 4 0.8 4 4z"/>
 <path d="m20 7.7902c-0.25-0.03-0.54-0.05-0.85-0.05h-4.28c-2.14 0-2.85 0.71-2.85 2.85v8.66c0.01 0.62 0.08 1.11 0.23 1.5 0.35 0.91 1.14 1.25 2.62 1.25h4.28c2.14 0 2.85-0.71 2.85-2.85v-8.56c0-1.83-0.52-2.61-2-2.8zm-2.99 2.3c0.87 0 1.57 0.7 1.57 1.57s-0.7 1.57-1.57 1.57-1.57-0.7-1.57-1.57 0.7-1.57 1.57-1.57zm0 9.06c-1.18 0-2.14-0.96-2.14-2.14 0-0.49 0.17-0.95 0.45-1.31 0.39-0.5 1-0.83 1.69-0.83 0.54 0 1.03 0.2 1.4 0.52 0.45 0.4 0.74 0.98 0.74 1.62 0 1.18-0.96 2.14-2.14 2.14z"/>
 <path d="m20 7.7902c-0.25-0.03-0.54-0.05-0.85-0.05h-4.28c-2.14 0-2.85 0.71-2.85 2.85v8.66c0.01 0.62 0.08 1.11 0.23 1.5 0.35 0.91 1.14 1.25 2.62 1.25h4.28c2.14 0 2.85-0.71 2.85-2.85v-8.56c0-1.83-0.52-2.61-2-2.8zm-2.99 2.3c0.87 0 1.57 0.7 1.57 1.57s-0.7 1.57-1.57 1.57-1.57-0.7-1.57-1.57 0.7-1.57 1.57-1.57zm0 9.06c-1.18 0-2.14-0.96-2.14-2.14 0-0.49 0.17-0.95 0.45-1.31 0.39-0.5 1-0.83 1.69-0.83 0.54 0 1.03 0.2 1.4 0.52 0.45 0.4 0.74 0.98 0.74 1.62 0 1.18-0.96 2.14-2.14 2.14z"/>
</svg>
