<?xml version="1.0" encoding="UTF-8"?>
<svg width="24" height="24" viewBox="0 0 24 24" xmlns="http://www.w3.org/2000/svg">
 <path d="m18.75 13.9h-1.8462c-0.1981 0-0.3917 0.0588-0.5562 0.169l-2.2576 1.511c-0.36 0.24-0.78 0.35-1.19 0.35-0.35 0-0.7-0.08-1.02-0.26-0.4818-0.2547-0.8357-0.7225-1.0095-1.247-0.1392-0.4201-0.4168-0.8094-0.8168-0.9986-0.45926-0.2171-0.87327-0.504-1.2237-0.8544-0.86-0.86-1.33-2.07-1.33-3.42v-4.15c0-0.55228-0.44772-1-1-1-2.7 0-4.5 1.35-4.5 4.5v5.4c0 3.15 1.8 4.5 4.5 4.5h3.75v2.85h-2.85c-0.41 0-0.75 0.34-0.75 0.75s0.34 0.75 0.75 0.75h7.2c0.41 0 0.75-0.34 0.75-0.75s-0.34-0.75-0.75-0.75h-2.85v-2.85h3.75c2.3954 0 4.0824-1.0626 4.4326-3.502 0.0784-0.5467-0.3803-0.998-0.9326-0.998h-0.25z"/>
 <path d="m18.75 2h-6.5c-1.49 0-2.61 0.76-3.05 2-0.13 0.38-0.2 0.8-0.2 1.25v3.9c0 0.97 0.32 1.79 0.89 2.36s1.39 0.89 2.36 0.89v1.39c0 0.51 0.58 0.82 1.01 0.54l2.89-1.93h2.6c0.45 0 0.87-0.07 1.25-0.2 1.24-0.44 2-1.56 2-3.05v-3.9c0-1.95-1.3-3.25-3.25-3.25zm-6.13 6c-0.42 0-0.75-0.34-0.75-0.75s0.33-0.75 0.75-0.75 0.75 0.34 0.75 0.75-0.33 0.75-0.75 0.75zm2.82 0c-0.42 0-0.75-0.34-0.75-0.75s0.34-0.75 0.75-0.75 0.75 0.34 0.75 0.75-0.34 0.75-0.75 0.75zm2.81 0c-0.42 0-0.75-0.34-0.75-0.75s0.34-0.75 0.75-0.75 0.75 0.34 0.75 0.75-0.34 0.75-0.75 0.75z"/>
 <path d="m22 5.25v3.9c0 1.49-0.76 2.61-2 3.05-0.38 0.13-0.8 0.2-1.25 0.2h-2.6l-2.89 1.93c-0.43 0.28-1.01-0.03-1.01-0.54v-1.39c-0.97 0-1.79-0.32-2.36-0.89s-0.89-1.39-0.89-2.36v-3.9c0-0.45 0.07-0.87 0.2-1.25 0.44-1.24 1.56-2 3.05-2h6.5c1.95 0 3.25 1.3 3.25 3.25z"/>
</svg>
