<?xml version="1.0" encoding="UTF-8"?>
<svg width="24" height="24" viewBox="0 0 24 24" xmlns="http://www.w3.org/2000/svg">
 <path d="m22 22.75h-17c-2.07 0-3.75-1.68-3.75-3.75v-17c0-0.41 0.34-0.75 0.75-0.75s0.75 0.34 0.75 0.75v17c0 1.24 1.01 2.25 2.25 2.25h17c0.41 0 0.75 0.34 0.75 0.75s-0.34 0.75-0.75 0.75z"/>
 <path d="m5.0001 17.75c-0.17 0-0.35-0.06-0.49-0.18-0.31-0.27-0.35-0.74-0.08-1.06l4.59-5.36c0.5-0.58 1.22-0.93 1.98-0.96 0.76-0.02 1.51 0.26 2.05 0.8l0.95 0.95c0.25 0.25 0.57 0.37 0.93 0.37 0.35-0.01 0.67-0.17 0.9-0.44l4.59-5.36c0.27-0.31 0.74-0.35 1.06-0.08 0.31 0.27 0.35 0.74 0.08 1.06l-4.59 5.36c-0.5 0.58-1.22 0.93-1.98 0.96-0.77 0.02-1.51-0.26-2.05-0.8l-0.94-0.95c-0.25-0.25-0.58-0.38-0.93-0.37s-0.67 0.17-0.9 0.44l-4.59 5.36c-0.16 0.17-0.37 0.26-0.58 0.26z"/>
</svg>
