<?xml version="1.0" encoding="UTF-8"?>
<svg width="24" height="24" viewBox="0 0 24 24" xmlns="http://www.w3.org/2000/svg">
 <path d="m18.69 11.53c-0.57-0.15-1.24-0.23-2.04-0.23-1.11 0-1.52 0.27-2.09 0.7-0.03 0.02-0.06 0.05-0.09 0.08l-0.95 1.01c-0.8 0.84-2.24 0.85-3.04-0.01l-0.94997-1c-0.03-0.03-0.06-0.06-0.09-0.08-0.57-0.43-0.98-0.7-2.09-0.7-0.8 0-1.47 0.08-2.04 0.23-2.38 0.64-2.38 2.53-2.38 4.19v0.93c0 2.51 0 5.35 5.35 5.35h7.44c3.55 0 5.35-1.8 5.35-5.35v-0.93c0-1.66 0-3.55-2.38-4.19zm-4.36 6.87h-4.66c-0.38 0-0.69-0.31-0.69-0.7s0.31-0.7 0.69-0.7h4.66c0.38 0 0.69 0.31 0.69 0.7s-0.31 0.7-0.69 0.7z"/>
 <path d="m12.67 2.67c0-0.37-0.3-0.67-0.67-0.67s-0.67 0.3-0.67 0.67v1.33h1.35v-1.33h-0.01z"/>
 <path d="m19.21 8.42v1.7c-0.04-0.02-0.09-0.03-0.13-0.04h-0.01c-0.71-0.19-1.5-0.28-2.42-0.28-1.54 0-2.27 0.45-2.93 0.95-0.14 0.1-0.24 0.2-0.34 0.3l-0.95 1.01c-0.1 0.1-0.26 0.16-0.43 0.16-0.08 0-0.28-0.01-0.43-0.17l-0.98-1.03c-0.1-0.11-0.22-0.2-0.25-0.22-0.71996-0.55-1.45-1-2.99-1-0.92 0-1.71 0.09-2.43 0.28-0.04 0.01-0.09 0.02-0.13 0.04v-1.7c0-2.07 0-4.42 4.42-4.42h2.12v3.45l-0.65-0.65c-0.27-0.27-0.68996-0.27-0.95996 0-0.26 0.26-0.26 0.69 0 0.95l1.8 1.8c0.01 0.01 0.02 0.01 0.02 0.02 0.06 0.05 0.13 0.1 0.2 0.13 0.09 0.03 0.17 0.05 0.26 0.05s0.17-0.02 0.26-0.05c0.08-0.03 0.15-0.08 0.22-0.15l1.8-1.8c0.26-0.26 0.26-0.69 0-0.95-0.27-0.27-0.69-0.27-0.96 0l-0.65 0.65v-3.45h2.12c4.42 0 4.42 2.35 4.42 4.42z"/>
</svg>
