<?xml version="1.0" encoding="UTF-8"?>
<svg width="24" height="24" viewBox="0 0 24 24" xmlns="http://www.w3.org/2000/svg">
 <path d="m21.3 12.23h-3.48c-0.98 0-1.85 0.54-2.29 1.42l-0.84 1.66c-0.2 0.4-0.6 0.65-1.04 0.65h-3.28c-0.31 0-0.75-0.07-1.04-0.65l-0.84-1.65c-0.44-0.87-1.32-1.42-2.29-1.42h-3.5c-0.39 0-0.7 0.31-0.7 0.7v3.26c0 3.63 2.18 5.8 5.82 5.8h8.38c3.43 0 5.54-1.88 5.8-5.22v-3.85c0-0.38-0.31-0.7-0.7-0.7z"/>
 <path d="m12.75 3.8102 0.72 0.72c0.15 0.15 0.34 0.22 0.53 0.22s0.38-0.07 0.53-0.22c0.29-0.29 0.29-0.77 0-1.06l-2-2c-0.01-0.01-0.02-0.01-0.02-0.02-0.06-0.06-0.14-0.11-0.22-0.15-0.01 0-0.01 0-0.02-0.01-0.08-0.03-0.16-0.04-0.24-0.05h-0.08c-0.06 0-0.12 0.02-0.18 0.04-0.03 0.01-0.05 0.02-0.07 0.03-0.08 0.04-0.16 0.08-0.22 0.15l-2 2c-0.29 0.29-0.29 0.77 0 1.06s0.77005 0.29 1.06 0l0.72-0.72v1.2h1.5v-1.19h-0.01z"/>
 <path d="m22 10.81v0.04c-0.22-0.08-0.46-0.12-0.7-0.12h-3.48c-1.55 0-2.94 0.86-3.63 2.24l-0.75 1.48h-2.86l-0.75-1.47c-0.69-1.39-2.08-2.25-3.63-2.25h-3.5c-0.24 0-0.48 0.04-0.7 0.12v-0.04c0-3.64 2.17-5.81 5.81-5.81h3.44v4c0 0.41 0.34 0.75 0.75 0.75s0.75-0.34 0.75-0.75v-4h3.44c3.64 0 5.81 2.17 5.81 5.81z"/>
</svg>
