<?xml version="1.0" encoding="UTF-8"?>
<svg width="24" height="24" viewBox="0 0 24 24" xmlns="http://www.w3.org/2000/svg">
 <path d="m19 8c1.6569 0 3-1.3432 3-3s-1.3431-3-3-3-3 1.3432-3 3 1.3431 3 3 3z"/>
 <path d="m20.34 12.72h-3.31c-0.93 0-1.76 0.52-2.18 1.34l-0.8 1.58c-0.19 0.38-0.57 0.61-0.99 0.61h-3.11c-0.29 0-0.72-0.06-0.99-0.62l-0.79-1.57c-0.42-0.83-1.25-1.35-2.18-1.35h-3.33c-0.36 0.01-0.66 0.31-0.66 0.67v3.09c0 3.47 2.07 5.53 5.53 5.53h7.96c3.26 0 5.27-1.79 5.51-4.96v-3.66c0-0.36-0.3-0.66-0.66-0.66z"/>
 <path d="m21 10.4v0.93c-0.21-0.07-0.43-0.11-0.66-0.11h-3.31c-1.5 0-2.85 0.83-3.51 2.17l-0.7 1.37h-2.63l-0.68-1.36c-0.68-1.35-2.02-2.18-3.52-2.18h-3.33c-0.23 0-0.45 0.04-0.66 0.11v-2.81c0-3.05 2.47-5.52 5.52-5.52h6.08c0.64 0 1.1 0.58 0.98 1.2-0.16 0.8-0.09 1.67 0.3 2.59 0.45 1.04 1.29 1.88 2.33 2.33 0.92 0.39 1.79 0.46 2.59 0.3 0.62-0.12 1.2 0.34 1.2 0.98z"/>
</svg>
