<?xml version="1.0" encoding="UTF-8"?>
<svg width="24" height="24" viewBox="0 0 24 24" xmlns="http://www.w3.org/2000/svg">
 <path d="m2.7101 17.02 1.74-3.48c0.48-0.97 0.48-2.1 0-3.07l-1.74-3.49c-1.49-2.98 1.72-6.13 4.67-4.57l1.54 0.82c0.22 0.11 0.39 0.29 0.48 0.51l5.69 12.65c0.23 0.52 0.02 1.13-0.48 1.39l-7.24 3.81c-2.94 1.56-6.15-1.59-4.66-4.57z"/>
 <path d="m16.31 15.6-3.73-8.28c-0.42-0.93 0.58-1.87 1.48-1.39l5.77 3.04c2.45 1.29 2.45 4.79 0 6.08l-2.04 1.07c-0.55 0.28-1.22 0.05-1.48-0.52z"/>
</svg>
