<?xml version="1.0" encoding="UTF-8"?>
<svg width="24" height="24" viewBox="0 0 24 24" xmlns="http://www.w3.org/2000/svg">
 <path d="m18.69 11.53c-0.57-0.15-1.24-0.23-2.04-0.23-1.11 0-1.52 0.27-2.09 0.7-0.03 0.02-0.06 0.05-0.09 0.08l-0.95 1.01c-0.8 0.84-2.24 0.85-3.04-0.01l-0.94997-1c-0.03-0.03-0.06-0.06-0.09-0.08-0.57-0.43-0.98-0.7-2.09-0.7-0.8 0-1.47 0.08-2.04 0.23-2.38 0.64-2.38 2.53-2.38 4.19v0.93c0 2.51 0 5.35 5.35 5.35h7.44c3.55 0 5.35-1.8 5.35-5.35v-0.93c0-1.66 0-3.55-2.38-4.19zm-4.36 6.87h-4.66c-0.38 0-0.69-0.31-0.69-0.7s0.31-0.7 0.69-0.7h4.66c0.38 0 0.69 0.31 0.69 0.7s-0.31 0.7-0.69 0.7z"/>
 <path d="m19.21 6.42v3.7c-0.04-0.02-0.09-0.03-0.13-0.04-0.7-0.19-1.49-0.28-2.43-0.28-1.54 0-2.26 0.45-3 1.01-0.1 0.07-0.19 0.16-0.27 0.24l-0.96 1.01c-0.09 0.1-0.25 0.16-0.42 0.16s-0.33-0.06-0.43-0.17l-0.94-0.99c-0.09-0.1-0.19-0.19-0.29-0.26-0.71996-0.55-1.45-1-2.99-1-0.94 0-1.73 0.09-2.43 0.28-0.04 0.01-0.09 0.02-0.13 0.04v-3.7c0-2.07 0-4.42 4.42-4.42h5.58c4.42 0 4.42 2.35 4.42 4.42z"/>
</svg>
