<?xml version="1.0" encoding="UTF-8"?>
<svg width="24" height="24" viewBox="0 0 24 24" xmlns="http://www.w3.org/2000/svg">
 <path d="m17.02 2.7202-3.48 1.74c-0.97 0.48-2.1 0.48-3.07 0l-3.49-1.75c-2.98-1.49-6.13 1.73-4.57 4.68l0.82 1.54c0.11 0.21 0.29 0.38 0.51 0.48l12.65 5.69c0.52 0.23 1.13 0.02 1.39-0.48l3.81-7.24c1.55-2.94-1.59-6.16-4.57-4.66z"/>
 <path d="m15.6 16.31-8.28-3.73c-0.93-0.42-1.87 0.58-1.39 1.48l3.04 5.77c1.29 2.45 4.79 2.45 6.08 0l1.07-2.04c0.28-0.55 0.04-1.22-0.52-1.48z"/>
</svg>
