<?xml version="1.0" encoding="UTF-8"?>
<svg width="24" height="24" viewBox="0 0 24 24" xmlns="http://www.w3.org/2000/svg">
 <path d="m21.3 12.23h-3.48c-0.98 0-1.85 0.54-2.29 1.42l-0.84 1.66c-0.2 0.4-0.6 0.65-1.04 0.65h-3.28c-0.31 0-0.75-0.07-1.04-0.65l-0.84-1.65c-0.44-0.87-1.32-1.42-2.29-1.42h-3.5c-0.39 0-0.7 0.31-0.7 0.7v3.26c0 3.63 2.18 5.8 5.82 5.8h8.38c3.43 0 5.54-1.88 5.8-5.22v-3.85c0-0.38-0.31-0.7-0.7-0.7z"/>
 <path d="m16.19 2h-8.38c-3.64 0-5.81 2.17-5.81 5.81v3.04c0.22-0.08 0.46-0.12 0.7-0.12h3.5c1.55 0 2.94 0.86 3.63 2.25l0.75 1.47h2.86l0.75-1.48c0.69-1.38 2.08-2.24 3.63-2.24h3.48c0.24 0 0.48 0.04 0.7 0.12v-3.04c0-3.64-2.17-5.81-5.81-5.81zm-5.74 3.41h3.1c0.38 0 0.7 0.31 0.7 0.69 0 0.39-0.32 0.7-0.7 0.7h-3.1c-0.38 0-0.7-0.31-0.7-0.7 0-0.38 0.32-0.69 0.7-0.69zm3.88 4.18h-4.66c-0.38 0-0.69-0.31-0.69-0.69 0-0.39 0.31-0.7 0.69-0.7h4.66c0.38 0 0.69 0.31 0.69 0.7 0 0.38-0.31 0.69-0.69 0.69z"/>
</svg>
