<?xml version="1.0" encoding="UTF-8"?>
<svg width="24" height="24" viewBox="0 0 24 24" xmlns="http://www.w3.org/2000/svg">
 <path d="m21.29 17.02-1.74-3.48c-0.48-0.97-0.48-2.1 0-3.07l1.74-3.48c1.49-2.99-1.72-6.13-4.67-4.57l-1.54 0.82c-0.21 0.11-0.38 0.29-0.48 0.51l-5.7 12.64c-0.23 0.52-0.02 1.13 0.48 1.39l7.24 3.81c2.95 1.56 6.16-1.59 4.67-4.57z"/>
 <path d="m7.69 15.6 3.73-8.28c0.42-0.93-0.58-1.87-1.48-1.39l-5.77 3.03c-2.45 1.29-2.45 4.79 0 6.08l2.04 1.07c0.55 0.29 1.22 0.06 1.48-0.51z"/>
</svg>
