<svg width="24" height="24" viewBox="0 0 24 24"  xmlns="http://www.w3.org/2000/svg">
<path d="M20.9801 3.01986C20.1101 2.14986 18.8801 1.80986 17.6901 2.10986L7.8901 4.55986C6.2401 4.96986 4.9701 6.24986 4.5601 7.88986L2.1101 17.6999C1.8101 18.8899 2.1501 20.1199 3.0201 20.9899C3.6801 21.6399 4.5501 21.9999 5.4501 21.9999C5.7301 21.9999 6.0201 21.9699 6.3001 21.8899L16.1101 19.4399C17.7501 19.0299 19.0301 17.7599 19.4401 16.1099L21.8901 6.29986C22.1901 5.10986 21.8501 3.87986 20.9801 3.01986ZM12.0001 15.8799C9.8601 15.8799 8.1201 14.1399 8.1201 11.9999C8.1201 9.85986 9.8601 8.11986 12.0001 8.11986C14.1401 8.11986 15.8801 9.85986 15.8801 11.9999C15.8801 14.1399 14.1401 15.8799 12.0001 15.8799Z" />
</svg>
