<?xml version="1.0" encoding="UTF-8"?>
<svg width="24" height="24" viewBox="0 0 24 24" xmlns="http://www.w3.org/2000/svg">
 <path d="m21.53 10.87-1.52-1.52c-0.26-0.26001-0.47-0.77-0.47-1.13v-2.16c0-0.88-0.72-1.6-1.6-1.6h-2.15c-0.36 0-0.87-0.21-1.13-0.47l-1.52-1.52c-0.62-0.62-1.64-0.62-2.26 0l-1.54 1.52c-0.25 0.26-0.76 0.47-1.13 0.47h-2.15c-0.88 0-1.6 0.72-1.6 1.6v2.15c0 0.36-0.21 0.87-0.47 1.13l-1.52 1.52c-0.62 0.62-0.62 1.64 0 2.26l1.52 1.52c0.26 0.26 0.47 0.77 0.47 1.13v2.15c0 0.88 0.72 1.6 1.6 1.6h2.15c0.36 0 0.87 0.21 1.13 0.47l1.52 1.52c0.62 0.62 1.64 0.62 2.26 0l1.52-1.52c0.26-0.26 0.77-0.47 1.13-0.47h2.15c0.88 0 1.6-0.72 1.6-1.6v-2.15c0-0.36 0.21-0.87 0.47-1.13l1.52-1.52c0.65-0.61 0.65-1.63 0.02-2.25zm-13.53-1.87c0-0.55 0.45-1 1-1s1 0.45 1 1-0.44 1-1 1c-0.55 0-1-0.45-1-1zm1.53 6.53c-0.15 0.15-0.34 0.22-0.53 0.22s-0.38-0.07-0.53-0.22c-0.29-0.29-0.29-0.77 0-1.06l6-6c0.29-0.29 0.77-0.29 1.06 0 0.29 0.28999 0.29 0.76999 0 1.06l-6 6zm5.47 0.47c-0.56 0-1.01-0.45-1.01-1s0.45-1 1-1 1 0.45 1 1-0.44 1-0.99 1z"/>
</svg>
