<?xml version="1.0" encoding="UTF-8"?>
<svg width="24" height="24" viewBox="0 0 24 24" xmlns="http://www.w3.org/2000/svg">
 <path d="m20.98 3.0199c-0.87-0.87-2.1-1.21-3.29-0.91l-9.8 2.45c-1.65 0.41-2.92 1.69-3.33 3.33l-2.45 9.81c-0.3 1.19 0.04 2.42 0.91 3.29 0.66 0.65 1.53 1.01 2.43 1.01 0.28 0 0.57-0.03 0.85-0.11l9.81-2.45c1.64-0.41 2.92-1.68 3.33-3.33l2.45-9.81c0.3-1.19-0.04-2.42-0.91-3.28zm-8.98 12.86c-2.14 0-3.88-1.74-3.88-3.88 0-2.14 1.74-3.88 3.88-3.88s3.88 1.74 3.88 3.88c0 2.14-1.74 3.88-3.88 3.88z"/>
</svg>
