<?xml version="1.0" encoding="UTF-8"?>
<svg width="24" height="24" viewBox="0 0 24 24" xmlns="http://www.w3.org/2000/svg">
 <path d="m15.61 5.4995v10.16c0 0.4-0.12 0.79-0.34 1.12l-2.73 4.06c-0.43 0.65-1.5 1.11-2.41 0.77-0.97998-0.33-1.63-1.43-1.42-2.41l0.52-3.27c0.04-0.3-0.04-0.57-0.21-0.78-0.17-0.19-0.42-0.31-0.69-0.31h-4.11c-0.79 0-1.47-0.32-1.87-0.88-0.38-0.54-0.45-1.24-0.2-1.95l2.46-7.49c0.31-1.24 1.66-2.25 3-2.25h3.9c0.67 0 1.61 0.23 2.04 0.66l1.28 0.99c0.49 0.38 0.78 0.96 0.78 1.58z"/>
 <path d="m18.79 17.61h1.03c1.55 0 2.18-0.6 2.18-2.08v-10.05c0-1.48-0.63-2.08-2.18-2.08h-1.03c-1.55 0-2.18 0.6-2.18 2.08v10.06c0 1.47 0.63 2.07 2.18 2.07z"/>
</svg>
