<?xml version="1.0" encoding="UTF-8"?>
<svg width="24" height="24" viewBox="0 0 24 24" xmlns="http://www.w3.org/2000/svg">
 <path d="m15.8 2.2105c-0.41-0.41-1.12-0.13-1.12 0.44v3.49c0 1.46 1.24 2.67 2.75 2.67 0.95 0.01 2.27 0.01 3.4 0.01 0.57 0 0.87-0.67 0.47-1.07-1.44-1.45-4.02-4.06-5.5-5.54z"/>
 <path d="m14.76 19.26c-2.35 0.17-2.35 3.57 0 3.74h5.56c0.67 0 1.33-0.25 1.82-0.7 1.65-1.44 0.77-4.32-1.4-4.59-0.78-4.69-7.56-2.91-5.96 1.56"/>
 <path d="m21.5 11.19v3.25c0 0.3-0.44 0.44-0.66 0.23-0.48-0.47-1.07-0.83-1.75-1.04-1.68-0.52-3.63-0.01-4.84 1.27-0.81 0.84-1.22 1.91-1.21 3.07 0 0.19-0.09 0.36-0.24 0.47-0.8 0.61-1.3 1.57-1.3 2.68 0 0.08 0 0.16 0.01 0.24 0.02 0.32-0.21 0.63-0.54 0.63h-2.9c-3.08 0-5.57-2-5.57-5.57v-8.85c0-3.57 2.49-5.57 5.57-5.57h4.24c0.55 0 1 0.45 1 1v2.89c0 2.38 1.92 4.3 4.3 4.3h2.89c0.55 0 1 0.45 1 1z"/>
</svg>
