<?xml version="1.0" encoding="UTF-8"?>
<svg width="24" height="24" viewBox="0 0 24 24" xmlns="http://www.w3.org/2000/svg">
 <path d="m16 2h-8c-3.5 0-5 2-5 5v10c0 3 1.5 5 5 5h8c3.5 0 5-2 5-5v-10c0-3-1.5-5-5-5zm-2.93 13.49c-0.51 1.63-2.3 2.48-2.8 2.48-0.49-0.01-2.26-0.84-2.79-2.48-0.33-1.03 0.06-2.3 1.13-2.65 0.57-0.18 1.27-0.03 1.66 0.52 0.37-0.57 1.1-0.7 1.66-0.52 1.08 0.35 1.46 1.62 1.14 2.65zm5.43-6.24h-2c-1.52 0-2.75-1.23-2.75-2.75v-2c0-0.41 0.34-0.75 0.75-0.75s0.75 0.34 0.75 0.75v2c0 0.69 0.56 1.25 1.25 1.25h2c0.41 0 0.75 0.34 0.75 0.75s-0.34 0.75-0.75 0.75z"/>
</svg>
