<?xml version="1.0" encoding="UTF-8"?>
<svg width="24" height="24" viewBox="0 0 24 24" xmlns="http://www.w3.org/2000/svg">
 <path d="m3.23 1h8.13c0.68 0 1.23 0.56 1.23 1.25v1.37c0 0.5-0.31 1.12-0.62 1.43l-2.64 2.38c-0.37 0.31-0.61 0.93-0.61 1.43v2.68c0 0.37-0.25 0.87-0.55 1.06l-0.87 0.57c-0.8 0.5-1.91-0.06-1.91-1.06v-3.31c0-0.44-0.25-1-0.49-1.31l-2.34-2.5c-0.31-0.31-0.56-0.87-0.56-1.24v-1.44c0-0.75 0.55-1.31 1.23-1.31z"/>
 <path d="m17 2h-2.4c-0.28 0-0.5 0.22-0.5 0.5v1.12c0 0.99-0.53 1.96-1.05 2.49l-2.72 2.43c-0.03 0.07-0.08 0.17-0.11 0.25v2.75c0 0.91-0.54 1.9-1.28 2.35l-0.82 0.53c-0.46 0.29-0.97 0.43-1.48 0.43-0.46 0-0.92-0.12-1.34-0.35-0.51746-0.2866-0.90817-0.719-1.1469-1.2264-0.12197-0.2593-0.1531-0.5491-0.1531-0.8356v-2.228c0-0.13-0.05-0.26-0.15-0.35l-1-1c-0.31-0.32-0.85-0.1-0.85 0.35v7.79c0 2.76 2.24 5 5 5h10c2.76 0 5-2.24 5-5v-10c0-2.76-2.24-5-5-5zm1 15.75h-7c-0.41 0-0.75-0.34-0.75-0.75s0.34-0.75 0.75-0.75h7c0.41 0 0.75 0.34 0.75 0.75s-0.34 0.75-0.75 0.75zm0-4h-5c-0.41 0-0.75-0.34-0.75-0.75s0.34-0.75 0.75-0.75h5c0.41 0 0.75 0.34 0.75 0.75s-0.34 0.75-0.75 0.75z"/>
</svg>
