<?xml version="1.0" encoding="UTF-8"?>
<svg width="24" height="24" viewBox="0 0 24 24" xmlns="http://www.w3.org/2000/svg">
 <path d="m16 2h-8c-3.5 0-5 2-5 5v4.47c0 0.35 0.34 0.59 0.66 0.47 1.1-0.43 2.35-0.57 3.64-0.31 2.6 0.52 4.67 2.66 5.1 5.27 0.26 1.59-0.06 3.1-0.79 4.35-0.2 0.33 0.04 0.75 0.43 0.75h3.96c3.5 0 5-2 5-5v-10c0-3-1.5-5-5-5zm2.5 7.25h-2c-1.52 0-2.75-1.23-2.75-2.75v-2c0-0.41 0.34-0.75 0.75-0.75s0.75 0.34 0.75 0.75v2c0 0.69 0.56 1.25 1.25 1.25h2c0.41 0 0.75 0.34 0.75 0.75s-0.34 0.75-0.75 0.75z"/>
 <path d="m6 13c-2.76 0-5 2.24-5 5s2.24 5 5 5 5-2.24 5-5-2.24-5-5-5zm-0.84 6.27c0.25 0.25 0.25 0.66 0 0.92-0.13 0.13-0.29 0.19-0.46 0.19s-0.33-0.06-0.46-0.19l-1.73-1.73c-0.25-0.25-0.25-0.66 0-0.92l1.73-1.73c0.25-0.25 0.66-0.25 0.92 0 0.25 0.25 0.25 0.66 0 0.92l-1.27 1.27 1.27 1.27zm4.32-0.81-1.73 1.73c-0.13 0.13-0.29 0.19-0.46 0.19s-0.33-0.06-0.46-0.19c-0.25-0.25-0.25-0.66 0-0.92l1.28-1.27-1.27-1.27c-0.25-0.25-0.25-0.66 0-0.92 0.25-0.25 0.66-0.25 0.92 0l1.73 1.73c0.24 0.26 0.24 0.66-0.01 0.92z"/>
</svg>
