<?xml version="1.0" encoding="UTF-8"?>
<svg width="24" height="24" viewBox="0 0 24 24" xmlns="http://www.w3.org/2000/svg">
 <path d="m20.5 10.19h-2.89c-2.37 0-4.3-1.93-4.3-4.3v-2.89c0-0.55-0.45-1-1-1h-4.24c-3.08 0-5.57 2-5.57 5.57v8.86c0 3.57 2.49 5.57 5.57 5.57h7.86c3.08 0 5.57-2 5.57-5.57v-5.24c0-0.55-0.45-1-1-1zm-8.02 5.51c-0.52 1.67-2.35 2.57-2.98 2.57-0.64 0-2.43-0.87-2.98-2.57-0.36-1.11 0.05-2.56 1.32-2.97 0.58-0.19 1.2-0.08 1.65 0.27 0.45-0.35 1.07-0.46 1.66-0.27 1.28 0.41 1.68 1.86 1.33 2.97z"/>
 <path d="m17.43 8.8105c0.95 0.01 2.27 0.01 3.4 0.01 0.57 0 0.87-0.67 0.47-1.07-1.44-1.45-4.02-4.06-5.5-5.54-0.41-0.41-1.12-0.13-1.12 0.44v3.49c0 1.46 1.24 2.67 2.75 2.67z"/>
</svg>
