<?xml version="1.0" encoding="UTF-8"?>
<svg width="24" height="24" viewBox="0 0 24 24" xmlns="http://www.w3.org/2000/svg">
 <path d="m20.5 10.19h-2.89c-2.37 0-4.3-1.93-4.3-4.3v-2.89c0-0.55-0.45-1-1-1h-4.24c-3.08 0-5.57 2-5.57 5.57v8.86c0 3.57 2.49 5.57 5.57 5.57h7.86c3.08 0 5.57-2 5.57-5.57v-5.24c0-0.55-0.45-1-1-1zm-8.1 5.39-1.86 1.86c-0.23 0.23-0.55 0.36-0.89 0.36s-0.65-0.13-0.89-0.36l-1.86-1.86c-0.41-0.41-0.48-1.1-0.15-1.58l0.85-1.28c0.21-0.33 0.65-0.56 1.04-0.56h2.01c0.39 0 0.82 0.23 1.04 0.56l0.86 1.28c0.31 0.48 0.25 1.17-0.15 1.58z"/>
 <path d="m17.43 8.8105c0.95 0.01 2.27 0.01 3.4 0.01 0.57 0 0.87-0.67 0.47-1.07-1.44-1.45-4.02-4.06-5.5-5.54-0.41-0.41-1.12-0.13-1.12 0.44v3.49c0 1.46 1.24 2.67 2.75 2.67z"/>
</svg>
