<?xml version="1.0" encoding="UTF-8"?>
<svg width="24" height="24" viewBox="0 0 24 24" xmlns="http://www.w3.org/2000/svg">
 <path d="m11.25 8.08v2.86l-1.01-0.35c-0.50998-0.18-0.81998-0.35-0.81998-1.22 0-0.71 0.53-1.29 1.18-1.29h0.65z"/>
 <path d="m14.58 14.63c0 0.71-0.53 1.29-1.18 1.29h-0.65v-2.86l1.01 0.35c0.51 0.18 0.82 0.35 0.82 1.22z"/>
 <path d="m16.19 2h-8.38c-3.64 0-5.81 2.17-5.81 5.81v8.38c0 3.64 2.17 5.81 5.81 5.81h8.38c3.64 0 5.81-2.17 5.81-5.81v-8.38c0-3.64-2.17-5.81-5.81-5.81zm-1.93 10c0.78 0.27 1.82 0.84 1.82 2.63 0 1.54-1.2 2.79-2.68 2.79h-0.65v0.58c0 0.41-0.34 0.75-0.75 0.75s-0.75-0.34-0.75-0.75v-0.58h-0.36c-1.64 0-2.97-1.39-2.97-3.09 0-0.41 0.33-0.75 0.75-0.75 0.41 0 0.75 0.34 0.75 0.75 0 0.88 0.66 1.59 1.47 1.59h0.36v-3.39l-1.51-0.53c-0.78-0.27-1.82-0.84-1.82-2.63 0-1.54 1.2-2.79 2.68-2.79h0.65v-0.58c0-0.41 0.34-0.75 0.75-0.75s0.75 0.34 0.75 0.75v0.58h0.36c1.64 0 2.97 1.39 2.97 3.09 0 0.41-0.33 0.75-0.75 0.75-0.41 0-0.75-0.34-0.75-0.75 0-0.88-0.66-1.59-1.47-1.59h-0.36v3.39l1.51 0.53z"/>
</svg>
