<?xml version="1.0" encoding="UTF-8"?>
<svg width="24" height="24" viewBox="0 0 24 24" xmlns="http://www.w3.org/2000/svg">
 <path d="m12.75 15.92h0.65c0.65 0 1.19-0.58 1.19-1.28 0-0.87-0.31-1.04-0.82-1.22l-1.01-0.35v2.85h-0.01z"/>
 <path d="m11.97 1.9c-5.52 0.02-9.99 4.51-9.97 10.03 0.02 5.52 4.51 9.99 10.03 9.97 5.52-0.02 9.99-4.51 9.97-10.03-0.02-5.52-4.51-9.98-10.03-9.97zm2.29 10.1c0.78 0.27 1.83 0.85 1.83 2.64 0 1.54-1.21 2.78-2.69 2.78h-0.65v0.58c0 0.41-0.34 0.75-0.75 0.75s-0.75-0.34-0.75-0.75v-0.58h-0.36c-1.64 0-2.97-1.38-2.97-3.08 0-0.41 0.34-0.75 0.75-0.75s0.75 0.34 0.75 0.75c0 0.87 0.66003 1.58 1.47 1.58h0.36v-3.38l-1.51-0.54c-0.78-0.27-1.83-0.85-1.83-2.64 0-1.54 1.21-2.78 2.69-2.78h0.65v-0.58c0-0.41 0.34-0.75 0.75-0.75s0.75 0.34 0.75 0.75v0.58h0.36c1.64 0 2.97 1.38 2.97 3.08 0 0.41002-0.34 0.75002-0.75 0.75002s-0.75-0.34-0.75-0.75002c0-0.87-0.66-1.58-1.47-1.58h-0.36v3.38l1.51 0.54z"/>
 <path d="m9.4199 9.37c0 0.86998 0.31 1.04 0.81998 1.22l1.01 0.35v-2.86h-0.65c-0.64998 0-1.18 0.58-1.18 1.29z"/>
</svg>
