<?xml version="1.0" encoding="UTF-8"?>
<svg width="24" height="24" viewBox="0 0 24 24" xmlns="http://www.w3.org/2000/svg">
 <path d="m15.88 20.921c0.03 0.16-0.06 0.33-0.21 0.39-1.13 0.45-2.37 0.69-3.65 0.69-2.21 0-4.25-0.71-5.9-1.93-0.14-0.1-0.17997-0.3-0.08997-0.45 0.55-0.98 2.7-4.13 7.45-5.89 0.18-0.07 0.38 0.02 0.44 0.2 1.19 3.19 1.75 5.89 1.96 6.99z" clip-rule="evenodd" fill-rule="evenodd"/>
 <path d="m21.82 13.89c-0.46 2.46-1.8401 4.6-3.7701 6.06-0.21 0.16-0.51 0.04-0.56-0.21-0.21-1.08-0.72-3.41-1.7-6.18-0.07-0.21 0.0701-0.44 0.2901-0.47 2.49-0.3 4.67 0.18 5.49 0.4 0.17 0.06 0.28 0.23 0.25 0.4z" clip-rule="evenodd" fill-rule="evenodd"/>
 <path d="m21.59 11.821c-1.02-0.18-3.62-0.56-6.28-0.27-0.16 0.02-0.3-0.07-0.37-0.22-0.04-0.09-0.07-0.18-0.11-0.27-0.16-0.37-0.33-0.75-0.5-1.12-0.09-0.18 0-0.40001 0.18-0.48001 2.8-1.21 4.3599-2.77 4.9699-3.47 0.1501-0.17 0.4101-0.15998 0.5501 0.02002 1.15 1.53 1.86 3.4 1.97 5.42 0.01 0.25-0.19 0.43-0.41 0.39z" clip-rule="evenodd" fill-rule="evenodd"/>
 <path d="m18.44 4.7898c-0.52 0.63-1.98 2.13-4.75 3.23-0.16 0.07001-0.35 0-0.44-0.16-1.28-2.32-2.6401-4.27-3.2701-5.15-0.15-0.21-0.02997-0.50999 0.22006-0.54999 0.58-0.1 1.19-0.14999 1.81-0.14999 2.42 0 4.65 0.85998 6.38 2.3 0.15 0.11 0.17 0.33001 0.05 0.48001z" clip-rule="evenodd" fill-rule="evenodd"/>
 <path d="m11.02 8.8394c-3.79 0.95-7.14 1.08-8.36 1.1-0.23 0-0.39997-0.22-0.33997-0.44 0.72-2.8 2.64-5.14 5.17-6.43 0.15-0.08 0.34001-0.03001 0.44001 0.10999 0.52 0.72 1.93 2.75 3.31 5.14 0.11 0.2 0.01 0.45999-0.22 0.51999z" clip-rule="evenodd" fill-rule="evenodd"/>
 <path d="m12.92 11.601c0.09 0.19-0.02 0.42-0.22 0.49-4.43 1.43-7.08 4.98-7.88 6.2-0.13 0.2-0.41 0.21-0.56 0.03-1.4-1.72-2.25-3.69-2.25-6.08v-0.18c0-0.2 0.15999-0.36 0.35999-0.35 1.26 0.05 5.37-0.12 9.64-1.35 0.16-0.05 0.34 0.03 0.41 0.18 0.17 0.35 0.34 0.7 0.5 1.06z" clip-rule="evenodd" fill-rule="evenodd"/>
</svg>
