<svg width="24" height="24" viewBox="0 0 24 24"  xmlns="http://www.w3.org/2000/svg">
<path fill-rule="evenodd" clip-rule="evenodd" d="M15.88 20.9208C15.91 21.0808 15.82 21.2508 15.67 21.3108C14.54 21.7608 13.3 22.0008 12.02 22.0008C9.80999 22.0008 7.76997 21.2908 6.11997 20.0708C5.97997 19.9708 5.94 19.7708 6.03 19.6208C6.58 18.6408 8.72995 15.4908 13.48 13.7308C13.66 13.6608 13.86 13.7508 13.92 13.9308C15.11 17.1208 15.67 19.8208 15.88 20.9208Z" />
<path fill-rule="evenodd" clip-rule="evenodd" d="M21.8202 13.89C21.3602 16.35 19.9801 18.49 18.0501 19.95C17.8401 20.11 17.5401 19.99 17.4901 19.74C17.2801 18.66 16.7701 16.33 15.7901 13.56C15.7201 13.35 15.8602 13.12 16.0802 13.09C18.5702 12.79 20.7502 13.27 21.5702 13.49C21.7402 13.55 21.8502 13.72 21.8202 13.89Z" />
<path fill-rule="evenodd" clip-rule="evenodd" d="M21.59 11.8206C20.57 11.6406 17.97 11.2606 15.31 11.5506C15.15 11.5706 15.01 11.4806 14.94 11.3306C14.9 11.2406 14.87 11.1506 14.83 11.0606C14.67 10.6906 14.5 10.3106 14.33 9.94063C14.24 9.76063 14.33 9.54062 14.51 9.46062C17.31 8.25062 18.8699 6.69062 19.4799 5.99062C19.63 5.82062 19.89 5.83064 20.03 6.01064C21.18 7.54064 21.89 9.41062 22 11.4306C22.01 11.6806 21.81 11.8606 21.59 11.8206Z" />
<path fill-rule="evenodd" clip-rule="evenodd" d="M18.44 4.78976C17.92 5.41976 16.46 6.91974 13.69 8.01974C13.53 8.08975 13.34 8.01974 13.25 7.85974C11.97 5.53974 10.6099 3.58975 9.97994 2.70975C9.82994 2.49975 9.94997 2.19976 10.2 2.15976C10.78 2.05976 11.39 2.00977 12.01 2.00977C14.43 2.00977 16.66 2.86975 18.39 4.30975C18.54 4.41975 18.56 4.63976 18.44 4.78976Z" />
<path fill-rule="evenodd" clip-rule="evenodd" d="M11.02 8.83942C7.23002 9.78942 3.87998 9.91943 2.65998 9.93943C2.42998 9.93943 2.26001 9.71943 2.32001 9.49943C3.04001 6.69943 4.95999 4.35943 7.48999 3.06943C7.63999 2.98943 7.83 3.03942 7.93 3.17942C8.45 3.89942 9.85999 5.92943 11.24 8.31943C11.35 8.51943 11.25 8.77942 11.02 8.83942Z" />
<path fill-rule="evenodd" clip-rule="evenodd" d="M12.92 11.6006C13.01 11.7906 12.9 12.0206 12.7 12.0906C8.27001 13.5206 5.62001 17.0706 4.82001 18.2906C4.69001 18.4906 4.41001 18.5006 4.26001 18.3206C2.86001 16.6006 2.01001 14.6306 2.01001 12.2406V12.0606C2.01001 11.8606 2.17 11.7006 2.37 11.7106C3.63 11.7606 7.74001 11.5906 12.01 10.3606C12.17 10.3106 12.35 10.3906 12.42 10.5406C12.59 10.8906 12.76 11.2406 12.92 11.6006Z" />
</svg>
