<svg width="24" height="24" viewBox="0 0 24 24"  xmlns="http://www.w3.org/2000/svg">
<path fill-rule="evenodd" clip-rule="evenodd" d="M15.88 20.9198C15.91 21.0798 15.82 21.2498 15.67 21.3098C14.54 21.7598 13.3 21.9998 12.02 21.9998C9.80999 21.9998 7.76997 21.2898 6.11997 20.0698C5.97997 19.9698 5.94 19.7698 6.03 19.6198C6.58 18.6398 8.72995 15.4898 13.48 13.7298C13.66 13.6598 13.86 13.7498 13.92 13.9298C15.11 17.1198 15.67 19.8198 15.88 20.9198Z" />
<path fill-rule="evenodd" clip-rule="evenodd" d="M21.8202 13.89C21.3602 16.35 19.9801 18.49 18.0501 19.95C17.8401 20.11 17.5401 19.99 17.4901 19.74C17.2801 18.66 16.7701 16.33 15.7901 13.56C15.7201 13.35 15.8602 13.12 16.0802 13.09C18.5702 12.79 20.7502 13.27 21.5702 13.49C21.7402 13.55 21.8502 13.72 21.8202 13.89Z" />
<path fill-rule="evenodd" clip-rule="evenodd" d="M21.59 11.8197C20.57 11.6397 17.97 11.2596 15.31 11.5496C15.15 11.5696 15.01 11.4796 14.94 11.3296C14.9 11.2396 14.87 11.1497 14.83 11.0597C14.67 10.6897 14.5 10.3097 14.33 9.93966C14.24 9.75966 14.33 9.53965 14.51 9.45965C17.31 8.24965 18.8699 6.68965 19.4799 5.98965C19.6299 5.81965 19.89 5.82967 20.03 6.00967C21.18 7.53967 21.89 9.40965 22 11.4296C22.01 11.6796 21.81 11.8597 21.59 11.8197Z" />
<path fill-rule="evenodd" clip-rule="evenodd" d="M18.44 4.78976C17.92 5.41976 16.46 6.91974 13.69 8.01974C13.53 8.08974 13.34 8.01974 13.25 7.85974C11.97 5.53974 10.6099 3.58975 9.97994 2.70975C9.82994 2.49975 9.94997 2.19976 10.2 2.15976C10.78 2.05976 11.39 2.00977 12.01 2.00977C14.43 2.00977 16.66 2.86975 18.39 4.30975C18.54 4.41975 18.56 4.63976 18.44 4.78976Z" />
<path fill-rule="evenodd" clip-rule="evenodd" d="M11.02 8.8404C7.23002 9.7904 3.87998 9.92041 2.65998 9.94041C2.42998 9.94041 2.26001 9.7204 2.32001 9.5004C3.04001 6.7004 4.95999 4.36041 7.48999 3.07041C7.63999 2.99041 7.83 3.0404 7.93 3.1804C8.45 3.9004 9.85999 5.93041 11.24 8.32041C11.35 8.52041 11.25 8.7804 11.02 8.8404Z" />
<path fill-rule="evenodd" clip-rule="evenodd" d="M12.92 11.5996C13.01 11.7896 12.9 12.0196 12.7 12.0896C8.27001 13.5196 5.62001 17.0696 4.82001 18.2896C4.69001 18.4896 4.41001 18.4996 4.26001 18.3196C2.86001 16.5996 2.01001 14.6296 2.01001 12.2396V12.0596C2.01001 11.8596 2.17 11.6996 2.37 11.7096C3.63 11.7596 7.74001 11.5896 12.01 10.3596C12.17 10.3096 12.35 10.3896 12.42 10.5396C12.59 10.8896 12.76 11.2396 12.92 11.5996Z" />
</svg>
