<?xml version="1.0" encoding="UTF-8"?>
<svg width="24" height="24" viewBox="0 0 24 24" xmlns="http://www.w3.org/2000/svg">
 <path d="m16.19 2h-8.38c-3.21 0-5.81 2.6-5.81 5.81v2.44c0 0.55 0.45 1 1 1h18c0.55 0 1-0.45 1-1v-2.44c0-3.21-2.6-5.81-5.81-5.81zm-9.44 6.25c0 0.41-0.34 0.75-0.75 0.75s-0.75-0.34-0.75-0.75v-2c0-0.41 0.34-0.75 0.75-0.75s0.75 0.34 0.75 0.75v2zm4 0c0 0.41-0.34 0.75-0.75 0.75s-0.75-0.34-0.75-0.75v-2c0-0.41 0.34-0.75 0.75-0.75s0.75 0.34 0.75 0.75v2zm7.25-0.25h-4c-0.41 0-0.75-0.34-0.75-0.75s0.34-0.75 0.75-0.75h4c0.41 0 0.75 0.34 0.75 0.75s-0.34 0.75-0.75 0.75z"/>
 <path d="m2 16.19c0 3.21 2.6 5.81 5.81 5.81h8.37c3.22 0 5.82-2.6 5.82-5.81v-2.44c0-0.55-0.45-1-1-1h-18c-0.55 0-1 0.45-1 1v2.44zm12 0.06h4c0.41 0 0.75 0.34 0.75 0.75s-0.34 0.75-0.75 0.75h-4c-0.41 0-0.75-0.34-0.75-0.75s0.34-0.75 0.75-0.75zm-4.75-0.25c0-0.41 0.34-0.75 0.75-0.75s0.75 0.34 0.75 0.75v2c0 0.41-0.34 0.75-0.75 0.75s-0.75-0.34-0.75-0.75v-2zm-4 0c0-0.41 0.34-0.75 0.75-0.75s0.75 0.34 0.75 0.75v2c0 0.41-0.34 0.75-0.75 0.75s-0.75-0.34-0.75-0.75v-2z"/>
</svg>
