<?xml version="1.0" encoding="UTF-8"?>
<svg width="24" height="24" viewBox="0 0 24 24" xmlns="http://www.w3.org/2000/svg">
 <path d="m19.32 2h-14.64c-1.47 0-2.68 1.21-2.68 2.68v2.63c0 1.48 1.21 2.69 2.68 2.69h14.63c1.48 0 2.69-1.21 2.69-2.68v-2.64c0-1.47-1.21-2.68-2.68-2.68zm-12.57 5c0 0.41-0.34 0.75-0.75 0.75s-0.75-0.34-0.75-0.75v-2c0-0.41 0.34-0.75 0.75-0.75s0.75 0.34 0.75 0.75v2zm4 0c0 0.41-0.34 0.75-0.75 0.75s-0.75-0.34-0.75-0.75v-2c0-0.41 0.34-0.75 0.75-0.75s0.75 0.34 0.75 0.75v2zm7.25-0.25h-4c-0.41 0-0.75-0.34-0.75-0.75s0.34-0.75 0.75-0.75h4c0.41 0 0.75 0.34 0.75 0.75s-0.34 0.75-0.75 0.75z"/>
 <path d="m19.32 14h-14.64c-1.47 0-2.68 1.21-2.68 2.68v2.63c0 1.48 1.21 2.69 2.68 2.69h14.63c1.48 0 2.68-1.21 2.68-2.68v-2.63c0.01-1.48-1.2-2.69-2.67-2.69zm-12.57 5c0 0.41-0.34 0.75-0.75 0.75s-0.75-0.34-0.75-0.75v-2c0-0.41 0.34-0.75 0.75-0.75s0.75 0.34 0.75 0.75v2zm4 0c0 0.41-0.34 0.75-0.75 0.75s-0.75-0.34-0.75-0.75v-2c0-0.41 0.34-0.75 0.75-0.75s0.75 0.34 0.75 0.75v2zm7.25-0.25h-4c-0.41 0-0.75-0.34-0.75-0.75s0.34-0.75 0.75-0.75h4c0.41 0 0.75 0.34 0.75 0.75s-0.34 0.75-0.75 0.75z"/>
</svg>
