<?xml version="1.0" encoding="UTF-8"?>
<svg width="24" height="24" viewBox="0 0 24 24" xmlns="http://www.w3.org/2000/svg">
 <path d="m9.93 12.75h-6.93c-0.55 0-1 0.45-1 1v2.44c0 3.21 2.6 5.81 5.81 5.81h1.7c0.77 0 1.24-0.82 0.87-1.5-0.79-1.47-1.1-3.24-0.71-5.1 0.14-0.68 0.38-1.32 0.7-1.92 0.17-0.33-0.06-0.73-0.44-0.73zm-3.18 5.25c0 0.41-0.34 0.75-0.75 0.75s-0.75-0.34-0.75-0.75v-2c0-0.41 0.34-0.75 0.75-0.75s0.75 0.34 0.75 0.75v2z"/>
 <path d="m16.19 2h-8.38c-3.21 0-5.81 2.6-5.81 5.81v2.44c0 0.55 0.45 1 1 1h8.84c0.22 0 0.43-0.08 0.61-0.22 0.86-0.66 1.87-1.14 2.95-1.36 1.86-0.39 3.63-0.08 5.1 0.71 0.68 0.36 1.5-0.1 1.5-0.87v-1.7c0-3.21-2.6-5.81-5.81-5.81zm-9.44 6.25c0 0.41-0.34 0.75-0.75 0.75s-0.75-0.34-0.75-0.75v-2c0-0.41 0.34-0.75 0.75-0.75s0.75 0.34 0.75 0.75v2zm4 0c0 0.41-0.34 0.75-0.75 0.75s-0.75-0.34-0.75-0.75v-2c0-0.41 0.34-0.75 0.75-0.75s0.75 0.34 0.75 0.75v2zm7.25-0.25h-4c-0.41 0-0.75-0.34-0.75-0.75s0.34-0.75 0.75-0.75h4c0.41 0 0.75 0.34 0.75 0.75s-0.34 0.75-0.75 0.75z"/>
 <path d="m17 11c-3.31 0-6 2.69-6 6s2.69 6 6 6 6-2.69 6-6-2.69-6-6-6zm2.93 7.2c-0.16 0.39-0.39 0.74-0.69 1.04-0.6 0.6-1.39 0.93-2.24 0.93-0.68 0-1.32-0.22-1.86-0.62v0.14c0 0.31-0.25 0.57-0.57 0.57-0.32-0.01-0.57-0.26-0.57-0.58v-1.44c0-0.31 0.25-0.57 0.57-0.57h1.44c0.31 0 0.57 0.25 0.57 0.57 0 0.29-0.21 0.51-0.49 0.55 0.76 0.37 1.73 0.25 2.34-0.36 0.19-0.19 0.34-0.42 0.44-0.67 0.12-0.29 0.45-0.43 0.74-0.31 0.3 0.12 0.44 0.46 0.32 0.75zm0.07-2.44c0 0.31-0.25 0.57-0.57 0.57h-1.44c-0.31 0-0.57-0.25-0.57-0.57 0-0.29 0.21-0.51 0.49-0.55-0.76-0.37-1.73-0.25-2.35 0.36-0.17 0.17-0.3 0.36-0.4 0.57s-0.3 0.33-0.51 0.33c-0.08 0-0.16-0.02-0.24-0.05-0.28-0.13-0.41-0.47-0.27-0.76 0.16-0.33 0.37-0.63 0.62-0.89 0.6-0.6 1.39-0.93 2.24-0.93 0.68 0 1.32 0.22 1.86 0.62v-0.13c0-0.31 0.25-0.57 0.57-0.57s0.57 0.24 0.57 0.56v1.44z"/>
</svg>
