<?xml version="1.0" encoding="UTF-8"?>
<svg width="24" height="24" viewBox="0 0 24 24" xmlns="http://www.w3.org/2000/svg">
 <path d="m12 18.75c-0.41 0-0.75-0.34-0.75-0.75v-1c0-0.41 0.34-0.75 0.75-0.75s0.75 0.34 0.75 0.75v1c0 0.41-0.34 0.75-0.75 0.75z"/>
 <path d="m12 22.75c-0.41 0-0.75-0.34-0.75-0.75v-1c0-0.41 0.34-0.75 0.75-0.75s0.75 0.34 0.75 0.75v1c0 0.41-0.34 0.75-0.75 0.75z"/>
 <path d="m2.0001 22.75c-0.06 0-0.12-0.01-0.18-0.02-0.4-0.1-0.65-0.51-0.55-0.91l1-4c0.1-0.4 0.5-0.65 0.91-0.55 0.4 0.1 0.65 0.51 0.55 0.91l-1 4c-0.09 0.34-0.39 0.57-0.73 0.57z"/>
 <path d="m21.753 22.503c-0.34 0-0.64-0.23-0.73-0.57l-1-4c-0.1-0.4 0.14-0.81 0.55-0.91 0.4-0.1 0.81 0.14 0.91 0.55l1 4c0.1 0.4-0.14 0.81-0.55 0.91-0.06 0.01-0.12 0.02-0.18 0.02z"/>
 <path d="m19.14 5.3c0 0.3-0.25 0.54-0.54 0.54h-13.07c-0.3 0-0.54-0.25-0.54-0.54 0-0.3 0.25-0.54 0.54-0.54h0.74l0.28-1.31c0.26-1.28 0.8-2.45 2.96-2.45h5.09c2.16 0 2.71 1.17 2.97 2.44l0.28 1.31h0.74c0.3 0 0.55 0.25 0.55 0.55z"/>
 <path d="m19.45 9.4002c-0.11-1.2-0.43-2.47-2.76-2.47h-9.26c-2.33 0-2.64 1.28-2.76 2.47l-0.41 4.42c-0.05 0.55 0.13 1.1 0.51 1.52 0.39 0.42 0.93 0.66 1.51 0.66h1.36c1.18 0 1.4-0.67 1.55-1.12l0.15-0.44c0.17-0.5 0.21-0.62 0.86-0.62h3.72c0.65 0 0.67 0.07 0.86 0.62l0.15 0.44c0.14 0.45 0.37 1.12 1.54 1.12h1.36c0.57 0 1.12-0.24 1.51-0.66 0.38-0.41 0.56-0.97 0.51-1.52l-0.4-4.42zm-9.57 1.52h-2.17c-0.3 0-0.54-0.25-0.54-0.54s0.25-0.54002 0.54-0.54002h2.18c0.3 0 0.54 0.25002 0.54 0.54002s-0.25 0.54-0.55 0.54zm6.53 0h-2.18c-0.3 0-0.54-0.25-0.54-0.54s0.25-0.54002 0.54-0.54002h2.18c0.3 0 0.54 0.25002 0.54 0.54002s-0.24 0.54-0.54 0.54z"/>
</svg>
