<?xml version="1.0" encoding="UTF-8"?>
<svg width="24" height="24" viewBox="0 0 24 24" xmlns="http://www.w3.org/2000/svg">
 <path d="m16.59 7.41-10.28 10.28c-0.48 0.48-1.3 0.37-1.59-0.24-0.52-1.07-0.82-2.28-0.82-3.55-0.02-5.52 5.58-10.24 7.48-11.69 0.37-0.28 0.87-0.28 1.23 0 0.87 0.66 2.5 2.03 4.03 3.83 0.34 0.4 0.32 1-0.05 1.37z"/>
 <path d="m20.1 13.91c0 4.46-3.63 8.09-8.1 8.09-1.79 0-3.46-0.58-4.81-1.58-0.49-0.36-0.53-1.08-0.1-1.51l10.07-10.07c0.47-0.47 1.26-0.37 1.58 0.21 0.82 1.51 1.37 3.15 1.36 4.86z"/>
</svg>
