<?xml version="1.0" encoding="UTF-8"?>
<svg width="24" height="24" viewBox="0 0 24 24" xmlns="http://www.w3.org/2000/svg">
 <path d="m16.19 2h-8.38c-3.64 0-5.81 2.17-5.81 5.81v8.37c0 3.65 2.17 5.82 5.81 5.82h8.37c3.64 0 5.81-2.17 5.81-5.81v-8.38c0.01-3.64-2.16-5.81-5.8-5.81zm-5.24 15.51c-0.29 0.29-0.84 0.57-1.24 0.63l-2.46 0.35c-0.09 0.01-0.18 0.02-0.27 0.02-0.41 0-0.79-0.14-1.06-0.41-0.33-0.33-0.47-0.81-0.39-1.34l0.35-2.46c0.06-0.41 0.33-0.95 0.63-1.24l4.46-4.46c0.08 0.21 0.16 0.42 0.27 0.66 0.1 0.21 0.21 0.43 0.33 0.63 0.1 0.17 0.21 0.33 0.3 0.45 0.11 0.17 0.24 0.33 0.32 0.42 0.05 0.07 0.09 0.12 0.11 0.14 0.25 0.3 0.54 0.58 0.79 0.79 0.07 0.07 0.11 0.11 0.13 0.12 0.15 0.12 0.3 0.24 0.43 0.33 0.16 0.12 0.32 0.23 0.49 0.32 0.2 0.12 0.42 0.23 0.64 0.34 0.23 0.1 0.44 0.19 0.65 0.26l-4.48 4.45zm6.42-6.42-0.92 0.93c-0.06 0.06-0.14 0.09-0.22 0.09-0.03 0-0.07 0-0.09-0.01-2.03-0.58-3.65-2.2-4.23-4.23-0.03-0.11 0-0.23 0.08-0.3l0.93-0.93c1.52-1.52 2.97-1.49 4.46 0 0.76 0.76 1.13 1.49 1.13 2.25-0.01 0.72-0.38 1.44-1.14 2.2z"/>
</svg>
