<?xml version="1.0" encoding="UTF-8"?>
<svg width="24" height="24" viewBox="0 0 24 24" xmlns="http://www.w3.org/2000/svg">
 <path d="m7.93 5.4794 3.13 3.13c0.52 0.52 1.37 0.52 1.89 0l3.13-3.13c0.84-0.84 0.25-2.29-0.95-2.29h-6.26c-1.19 0-1.79 1.45-0.94001 2.29z"/>
 <path d="m7.93 18.52 3.13-3.13c0.52-0.52 1.37-0.52 1.89 0l3.13 3.13c0.84 0.84 0.25 2.29-0.95 2.29h-6.26c-1.19 0-1.79-1.45-0.94001-2.29z"/>
 <path d="m2.1599 11.43 2.29-3.6c0.36-0.57 1.16-0.66 1.64-0.18l3.6 3.6c0.41003 0.41 0.41003 1.08 0 1.49l-3.6 3.6c-0.48 0.48-1.27 0.39-1.64-0.18l-2.29-3.6c-0.21-0.34-0.21-0.78 0-1.13z"/>
 <path d="m21.84 11.43-2.2901-3.6c-0.36-0.57-1.16-0.66-1.64-0.18l-3.6 3.6c-0.41 0.41-0.41 1.08 0 1.49l3.6 3.6c0.48 0.48 1.27 0.39 1.64-0.18l2.2901-3.6c0.21-0.34 0.21-0.78 0-1.13z"/>
</svg>
