<?xml version="1.0" encoding="UTF-8"?>
<svg width="24" height="24" viewBox="0 0 24 24" xmlns="http://www.w3.org/2000/svg">
 <path d="m22 8.52v-4.54c0-1.41-0.64-1.98-2.23-1.98h-4.04c-1.59 0-2.23 0.57-2.23 1.98v4.53c0 1.42 0.64 1.98 2.23 1.98h4.04c1.59 0.01 2.23-0.56 2.23-1.97z"/>
 <path d="m22 19.77v-4.04c0-1.59-0.64-2.23-2.23-2.23h-4.04c-1.59 0-2.23 0.64-2.23 2.23v4.04c0 1.59 0.64 2.23 2.23 2.23h4.04c1.59 0 2.23-0.64 2.23-2.23z"/>
 <path d="M10.5 8.52V3.98C10.5 2.57 9.86 2 8.27 2H4.23C2.64 2 2 2.57 2 3.98V8.51C2 9.93 2.64 10.49 4.23 10.49H8.27C9.86 10.5 10.5 9.93 10.5 8.52Z"/>
 <path d="m10.5 19.77v-4.04c0-1.59-0.64-2.23-2.23-2.23h-4.04c-1.59 0-2.23 0.64-2.23 2.23v4.04c0 1.59 0.64 2.23 2.23 2.23h4.04c1.59 0 2.23-0.64 2.23-2.23z"/>
</svg>
