<?xml version="1.0" encoding="UTF-8"?>
<svg width="24" height="24" viewBox="0 0 24 24" xmlns="http://www.w3.org/2000/svg">
 <path d="m21.5 10.9v-6.8c0-1.5-0.64-2.1-2.23-2.1h-4.04c-1.59 0-2.23 0.6-2.23 2.1v6.8c0 1.5 0.64 2.1 2.23 2.1h4.04c1.59 0 2.23-0.6 2.23-2.1z"/>
 <path d="m11 13.1v6.8c0 1.5-0.64 2.1-2.23 2.1h-4.04c-1.59 0-2.23-0.6-2.23-2.1v-6.8c0-1.5 0.64-2.1 2.23-2.1h4.04c1.59 0 2.23 0.6 2.23 2.1z"/>
 <path d="m21.5 19.9v-2.8c0-1.5-0.64-2.1-2.23-2.1h-4.04c-1.59 0-2.23 0.6-2.23 2.1v2.8c0 1.5 0.64 2.1 2.23 2.1h4.04c1.59 0 2.23-0.6 2.23-2.1z"/>
 <path d="M11 6.9V4.1C11 2.6 10.36 2 8.77 2H4.73C3.14 2 2.5 2.6 2.5 4.1V6.9C2.5 8.4 3.14 9 4.73 9H8.77C10.36 9 11 8.4 11 6.9Z"/>
</svg>
