<?xml version="1.0" encoding="UTF-8"?>
<svg width="24" height="24" viewBox="0 0 24 24" xmlns="http://www.w3.org/2000/svg">
 <path d="m16.19 2h-8.38c-3.64 0-5.81 2.17-5.81 5.81v8.37c0 3.65 2.17 5.82 5.81 5.82h8.37c3.64 0 5.81-2.17 5.81-5.81v-8.38c0.01-3.64-2.16-5.81-5.8-5.81zm-9.72 7.28c-0.29-0.29-0.29-0.77 0-1.06 1.29-1.29 3.4-1.29 4.7 0 0.29 0.29 0.29 0.77 0 1.06-0.15 0.15-0.34 0.22-0.53 0.22s-0.38-0.07-0.53-0.22c-0.71-0.71-1.87-0.71-2.58 0-0.29 0.3-0.77 0.3-1.06 0zm9.13 8.8h-7.2c-0.7 0-1.27-0.57-1.27-1.28 0-2.69 2.19-4.88 4.88-4.88s4.88 2.19 4.88 4.88c-0.01 0.7-0.59 1.28-1.29 1.28zm1.93-8.8c-0.29 0.29-0.77 0.29-1.06 0-0.71-0.71-1.87-0.71-2.58 0-0.15 0.15-0.34 0.22-0.53 0.22s-0.38-0.07-0.53-0.22c-0.29-0.29-0.29-0.77 0-1.06 1.29-1.29 3.4-1.29 4.7 0 0.29 0.3 0.29 0.77 0 1.06z"/>
</svg>
