<?xml version="1.0" encoding="UTF-8"?>
<svg width="24" height="24" viewBox="0 0 24 24" xmlns="http://www.w3.org/2000/svg">
 <path d="m16.19 2h-8.38c-3.64 0-5.81 2.17-5.81 5.81v8.37c0 3.65 2.17 5.82 5.81 5.82h8.37c3.64 0 5.81-2.17 5.81-5.81v-8.38c0.01-3.64-2.16-5.81-5.8-5.81zm-9.72 5.72c0.29-0.29 0.77-0.29 1.06 0 0.71 0.71 1.87 0.71 2.58 0 0.29-0.29 0.77-0.29 1.06 0s0.29 0.77 0 1.06c-0.65 0.65-1.5 0.97-2.35 0.97s-1.7-0.32-2.35-0.97c-0.29-0.3-0.29-0.77 0-1.06zm5.53 11.06c-2.69 0-4.88-2.19-4.88-4.88 0-0.7 0.57-1.28 1.27-1.28h7.2c0.7 0 1.27 0.57 1.27 1.28 0.02 2.69-2.17 4.88-4.86 4.88zm5.53-10c-0.65 0.65-1.5 0.97-2.35 0.97s-1.7-0.32-2.35-0.97c-0.29-0.29-0.29-0.77 0-1.06s0.77-0.29 1.06 0c0.71 0.71 1.87 0.71 2.58 0 0.29-0.29 0.77-0.29 1.06 0s0.29 0.76 0 1.06z"/>
</svg>
