<?xml version="1.0" encoding="UTF-8"?>
<svg width="24" height="24" viewBox="0 0 24 24" xmlns="http://www.w3.org/2000/svg">
 <path d="m16.19 2h-8.38c-3.64 0-5.81 2.17-5.81 5.81v8.37c0 3.65 2.17 5.82 5.81 5.82h8.37c3.64 0 5.81-2.17 5.81-5.81v-8.38c0.01-3.64-2.16-5.81-5.8-5.81zm-7.69 4.38c1.03 0 1.88 0.84 1.88 1.88s-0.84 1.88-1.88 1.88-1.88-0.86-1.88-1.89 0.85-1.87 1.88-1.87zm3.5 12.7c-2.69 0-4.88-2.19-4.88-4.88 0-0.7 0.57-1.28 1.27-1.28h7.2c0.7 0 1.27 0.57 1.27 1.28 0.02 2.69-2.17 4.88-4.86 4.88zm3.5-8.96c-1.03 0-1.88-0.84-1.88-1.88s0.84-1.88 1.88-1.88 1.88 0.84 1.88 1.88-0.85 1.88-1.88 1.88z"/>
</svg>
