<?xml version="1.0" encoding="UTF-8"?>
<svg width="25" height="24" viewBox="0 0 25 24" xmlns="http://www.w3.org/2000/svg">
 <path d="m8.2591 21.245c0.64697-0.6469 1.0186-1.4729 1.115-2.3263 0.13077-1.1357-0.24778-2.3126-1.115-3.1798-0.5162-0.5162-1.1494-0.8604-1.817-1.0187-1.2733-0.3234-2.6842 0.0138-3.6891 1.0187-0.69515 0.6951-1.0737 1.583-1.1219 2.4984-0.03441 0.3923 0 0.7984 0.10324 1.1907 0.15831 0.6676 0.50244 1.3008 1.0186 1.817 1.5211 1.5211 3.9851 1.5211 5.5062 0zm-1.294-3.4688c0.3992 0 0.72957 0.3303 0.72957 0.7295-0.00688 0.4061-0.33037 0.7296-0.73645 0.7365l-0.72268-0.0069 0.00688 0.6951c-0.00688 0.4061-0.33037 0.7296-0.73645 0.7365-0.40608-0.0069-0.72957-0.3304-0.73645-0.7365l0.00688-0.6951-0.72268 0.0069c-0.40608-0.0069-0.72956-0.3304-0.73645-0.7365 0.00689-0.1996 0.08948-0.3785 0.22025-0.5093s0.30972-0.2134 0.50932-0.2202h0.72956v-0.7571c0-0.2065 0.0826-0.3855 0.21337-0.5162 0.13077-0.1308 0.30972-0.2134 0.5162-0.2134 0.3992 0 0.72957 0.3304 0.72957 0.7296v0.7571h0.72956z"/>
 <path d="m15.095 3.8455v3.6988h-1.46v-3.6988c0-0.26281-0.2336-0.38935-0.3894-0.38935-0.0486 0-0.0973 0.00974-0.146 0.02921l-7.7187 2.9103c-0.51588 0.19468-0.84682 0.68135-0.84682 1.2362v0.65215c-0.88576 0.66189-1.46 1.7228-1.46 2.92v-3.5722c0-1.1583 0.71055-2.1901 1.791-2.5989l7.7285-2.9201c0.2141-0.07787 0.438-0.11681 0.6521-0.11681 0.9734 0 1.8494 0.78843 1.8494 1.8494z"/>
 <path d="m21.57 14.115v0.9733c0 0.2628-0.2045 0.477-0.477 0.4867h-1.4211c-0.5159 0-0.9831-0.3796-1.022-0.8857-0.0292-0.3018 0.0876-0.5841 0.2822-0.7787 0.1753-0.185 0.4186-0.2823 0.6814-0.2823h1.4698c0.2822 0.0097 0.4867 0.2239 0.4867 0.4867z"/>
 <path d="m19.602 12.605h0.9928c0.5354 0 0.9734-0.438 0.9734-0.9734v-0.4282c0-2.0149-1.645-3.6599-3.6599-3.6599h-11.174c-0.82735 0-1.5866 0.27254-2.1998 0.73975-0.88576 0.66189-1.46 1.7228-1.46 2.9201v1.7325c0 0.3699 0.38934 0.6035 0.73975 0.4867 0.54508-0.1849 1.1194-0.2823 1.6936-0.2823 2.9493 0 5.3535 2.4042 5.3535 5.3535 0 0.7008-0.1849 1.4698-0.4769 2.1511-0.1558 0.3505 0.0876 0.769 0.4672 0.769h7.0568c2.0149 0 3.6599-1.645 3.6599-3.6598v-0.185c0-0.5353-0.438-0.9733-0.9734-0.9733h-0.8468c-0.9344 0-1.8299-0.5743-2.0733-1.4795-0.1947-0.7398 0.039-1.4601 0.5256-1.9273 0.3602-0.3699 0.8566-0.584 1.4017-0.584zm-5.334-0.1947h-4.8668c-0.39908 0-0.73002-0.3309-0.73002-0.73s0.33094-0.73 0.73002-0.73h4.8668c0.399 0 0.73 0.3309 0.73 0.73s-0.331 0.73-0.73 0.73z"/>
</svg>
