<?xml version="1.0" encoding="UTF-8"?>
<svg width="24" height="24" viewBox="0 0 24 24" xmlns="http://www.w3.org/2000/svg">
 <path d="m5 15c-0.94 0-1.81 0.33-2.5 0.88-0.92 0.73-1.5 1.86-1.5 3.12 0 2.21 1.79 4 4 4 1.01 0 1.93-0.38 2.64-1 0.83-0.73 1.36-1.8 1.36-3 0-2.21-1.79-4-4-4zm1 4.25c0 0.26-0.14 0.51-0.36 0.64l-1.25 0.75c-0.12 0.08-0.26 0.11-0.39 0.11-0.25 0-0.5-0.13-0.64-0.36-0.21-0.36-0.1-0.82 0.26-1.03l0.89-0.53v-1.08c-0.01-0.41 0.33-0.75 0.74-0.75s0.75 0.34 0.75 0.75v1.5z"/>
 <path d="m14.85 3.95v3.8h-1.5v-3.8c0-0.27-0.24-0.4-0.4-0.4-0.05 0-0.1 0.01-0.15 0.03l-7.93 2.99c-0.53 0.2-0.87 0.7-0.87 1.27v0.67c-0.91 0.68-1.5 1.77-1.5 3v-3.67c0-1.19 0.73-2.25 1.84-2.67l7.94-3c0.22-0.08 0.45-0.12 0.67-0.12 1 0 1.9 0.81 1.9 1.9z"/>
 <path d="m21.5 14.5v1c0 0.27-0.21 0.49-0.49 0.5h-1.46c-0.53 0-1.01-0.39-1.05-0.91-0.03-0.31 0.09-0.6 0.29-0.8 0.18-0.19 0.43-0.29 0.7-0.29h1.51c0.29 0.01 0.5 0.23 0.5 0.5z"/>
 <path d="m19.48 12.95h1.02c0.55 0 1-0.45 1-1v-0.44c0-2.07-1.69-3.76-3.76-3.76h-11.48c-0.85 0-1.63 0.28-2.26 0.76-0.91 0.68-1.5 1.77-1.5 3v1.78c0 0.38 0.4 0.62 0.76 0.5 0.56-0.19 1.15-0.29 1.74-0.29 3.03 0 5.5 2.47 5.5 5.5 0 0.72-0.19 1.51-0.49 2.21-0.16 0.36 0.09 0.79 0.48 0.79h7.25c2.07 0 3.76-1.69 3.76-3.76v-0.19c0-0.55-0.45-1-1-1h-0.87c-0.96 0-1.88-0.59-2.13-1.52-0.2-0.76 0.04-1.5 0.54-1.98 0.37-0.38 0.88-0.6 1.44-0.6zm-5.48-0.2h-5c-0.41 0-0.75-0.34-0.75-0.75s0.34-0.75 0.75-0.75h5c0.41 0 0.75 0.34 0.75 0.75s-0.34 0.75-0.75 0.75z"/>
</svg>
