<?xml version="1.0" encoding="UTF-8"?>
<svg width="24" height="24" viewBox="0 0 24 24" xmlns="http://www.w3.org/2000/svg">
 <path d="m12 2c-5.52 0-10 4.48-10 10s4.48 10 10 10 10-4.48 10-10-4.48-10-10-10zm3.75 9.25c0.41 0 0.75 0.34 0.75 0.75s-0.34 0.75-0.75 0.75h-7.25v0.25c0 1.24 1.01 2.25 2.25 2.25h5c0.41 0 0.75 0.34 0.75 0.75s-0.34 0.75-0.75 0.75h-5c-2.07 0-3.75-1.68-3.75-3.75v-2c0-2.07 1.68-3.75 3.75-3.75h5c0.41 0 0.75 0.34 0.75 0.75s-0.34 0.75-0.75 0.75h-5c-1.24 0-2.25 1.01-2.25 2.25v0.25h7.25z"/>
</svg>
