<svg width="24" height="24" viewBox="0 0 24 24"  xmlns="http://www.w3.org/2000/svg">
<path d="M9.28012 20.3094C9.45012 20.7894 8.93011 21.2294 8.49011 20.9694L5.34012 19.1794C4.77012 18.8494 4.42013 18.0594 4.54013 17.4194L5.48013 12.7494C5.59013 12.1994 6.35013 12.1494 6.54013 12.6694L9.28012 20.3094Z" />
<path d="M18.66 19.1808L15.5 20.9808C15.06 21.2308 14.54 20.8008 14.71 20.3208L17.46 12.6108C17.65 12.0908 18.41 12.1408 18.52 12.6908L19.47 17.4208C19.58 18.0608 19.23 18.8508 18.66 19.1808Z" />
<path d="M17.08 7.32031C17.32 7.62031 17.39 8.02031 17.26 8.38031L12.52 21.6303C12.35 22.1203 11.66 22.1203 11.49 21.6303L6.74999 8.39031C6.61999 8.03031 6.68999 7.63031 6.92999 7.33031L10.75 2.63031C11.44 1.80031 12.58 1.80031 13.28 2.63031L17.08 7.32031Z" />
</svg>
