<svg width="24" height="24" viewBox="0 0 24 24"  xmlns="http://www.w3.org/2000/svg">
<path d="M9.28012 20.3103C9.45012 20.7903 8.93011 21.2303 8.49011 20.9703L5.34012 19.1803C4.77012 18.8503 4.42013 18.0603 4.54013 17.4203L5.48013 12.7503C5.59013 12.2003 6.35013 12.1503 6.54013 12.6703L9.28012 20.3103Z" />
<path d="M18.66 19.1798L15.5 20.9798C15.06 21.2298 14.54 20.7998 14.71 20.3198L17.46 12.6098C17.65 12.0898 18.41 12.1398 18.52 12.6898L19.47 17.4198C19.58 18.0598 19.23 18.8498 18.66 19.1798Z" />
<path d="M17.08 7.32031C17.32 7.62031 17.39 8.02031 17.26 8.38031L12.52 21.6303C12.35 22.1203 11.66 22.1203 11.49 21.6303L6.74999 8.39031C6.61999 8.03031 6.68999 7.63031 6.92999 7.33031L10.75 2.63031C11.44 1.80031 12.58 1.80031 13.28 2.63031L17.08 7.32031Z" />
</svg>
