<?xml version="1.0" encoding="UTF-8"?>
<svg width="24" height="24" viewBox="0 0 24 24" xmlns="http://www.w3.org/2000/svg">
 <path d="m9.2801 20.309c0.17 0.48-0.35001 0.92-0.79001 0.66l-3.15-1.79c-0.57-0.33-0.91999-1.12-0.79999-1.76l0.94-4.67c0.11-0.55 0.87-0.6 1.06-0.08l2.74 7.64z"/>
 <path d="m18.66 19.181-3.16 1.8c-0.44 0.25-0.96-0.18-0.79-0.66l2.75-7.71c0.19-0.52 0.95-0.47 1.06 0.08l0.95 4.73c0.11 0.64-0.24 1.43-0.81 1.76z"/>
 <path d="m17.08 7.3203c0.24 0.3 0.31 0.7 0.18 1.06l-4.74 13.25c-0.17 0.49-0.86 0.49-1.03 0l-4.74-13.24c-0.13-0.36-0.06-0.76 0.18-1.06l3.82-4.7c0.69-0.83 1.83-0.83 2.53 0l3.8 4.69z"/>
</svg>
