<?xml version="1.0" encoding="UTF-8"?>
<svg width="24" height="24" viewBox="0 0 24 24" xmlns="http://www.w3.org/2000/svg">
 <path d="m16.19 2h-8.38c-3.64 0-5.81 2.17-5.81 5.81v8.37c0 3.65 2.17 5.82 5.81 5.82h8.37c3.64 0 5.81-2.17 5.81-5.81v-8.38c0.01-3.64-2.16-5.81-5.8-5.81zm-3.67 13.75-1.26 1.26c-0.64 0.65-1.69 0.65-2.34 0l-1.93-1.93c-0.65-0.65-0.64-1.69 0-2.34l1.27-1.26c0.2-0.19 0.51-0.19 0.71 0l3.56 3.56c0.19 0.2 0.19 0.52-0.01 0.71zm4.49-4.49-3.08 3.08c-0.2 0.2-0.51 0.2-0.71 0l-3.56-3.56c-0.2-0.2-0.2-0.51 0-0.71l3.08-3.08c0.64-0.65 1.69-0.65 2.34 0l1.93 1.93c0.65 0.65 0.65 1.7 0 2.34z"/>
</svg>
