<svg width="24" height="24" viewBox="0 0 24 24"  xmlns="http://www.w3.org/2000/svg">
<path d="M21.03 22H13.99C13.57 22 13.24 21.66 13.24 21.25C13.24 20.84 13.58 20.5 13.99 20.5H21.03C21.45 20.5 21.78 20.84 21.78 21.25C21.78 21.66 21.45 22 21.03 22Z" />
<path d="M13.64 16.6899C14.03 17.0799 14.03 17.7099 13.64 18.1099L10.66 21.0899C9.55 22.1999 7.77 22.2599 6.59 21.2699C6.52 21.2099 6.46 21.1499 6.4 21.0899L5.53 20.2199L3.74 18.4299L2.88 17.5699C2.81 17.4999 2.75 17.4299 2.69 17.3599C1.71 16.1799 1.78 14.4199 2.88 13.3199L5.86 10.3399C6.25 9.94986 6.88 9.94986 7.27 10.3399L13.64 16.6899Z" />
<path d="M21.1201 10.6399L16.1201 15.6399C15.7301 16.0299 15.1001 16.0299 14.7101 15.6399L8.34011 9.28994C7.95011 8.89994 7.95011 8.26994 8.34011 7.86994L13.3401 2.87994C14.5101 1.70994 16.4301 1.70994 17.6001 2.87994L21.1201 6.38994C22.2901 7.55994 22.2901 9.46994 21.1201 10.6399Z" />
</svg>
