<?xml version="1.0" encoding="UTF-8"?>
<svg width="24" height="24" viewBox="0 0 24 24" xmlns="http://www.w3.org/2000/svg">
 <path d="m21.03 22h-7.04c-0.42 0-0.75-0.34-0.75-0.75s0.34-0.75 0.75-0.75h7.04c0.42 0 0.75 0.34 0.75 0.75s-0.33 0.75-0.75 0.75z"/>
 <path d="m13.64 16.69c0.39 0.39 0.39 1.02 0 1.42l-2.98 2.98c-1.11 1.11-2.89 1.17-4.07 0.18-0.07-0.06-0.13-0.12-0.19-0.18l-3.52-3.52c-0.07-0.07-0.13-0.14-0.19-0.21-0.98-1.18-0.91-2.94 0.19-4.04l2.98-2.98c0.39-0.39004 1.02-0.39004 1.41 0l6.37 6.35z"/>
 <path d="m21.12 10.64-5 5c-0.39 0.39-1.02 0.39-1.41 0l-6.37-6.35c-0.39-0.39-0.39-1.02 0-1.42l5-4.99c1.17-1.17 3.09-1.17 4.26 0l3.52 3.51c1.17 1.17 1.17 3.08 0 4.25z"/>
</svg>
