<?xml version="1.0" encoding="UTF-8"?>
<svg width="24" height="24" viewBox="0 0 24 24" xmlns="http://www.w3.org/2000/svg">
 <path d="m8.7701 14.43 1.61 0.72c1.03 0.46 2.21 0.46 3.25 0l1.61-0.72c1.44-0.64 2.77 1.1 1.77 2.32l-3.46 4.23c-0.85 1.04-2.24 1.04-3.1 0l-3.45-4.23c-1.01-1.22 0.32-2.96 1.77-2.32z"/>
 <path d="m8.57 11.67c-0.3 0.22-0.25999 0.68 0.08001 0.85l2.35 1.17c0.55 0.28 1.44 0.28 1.98 0l2.35-1.17c0.33-0.17 0.37-0.62 0.08-0.85l-3.11-2.34c-0.18-0.13-0.42-0.13-0.6 0l-3.13 2.34z"/>
 <path d="m17.88 8.2392-4.17-5.2c-0.08-0.1-0.17-0.19-0.26-0.28-0.26-0.25-0.63-0.02-0.63 0.34v4.3c0 0.16 0.07 0.31 0.2 0.4l4.15 3.12 0.18 0.13c0.18 0.13 0.43 0.13 0.58-0.03 0.7-0.76 0.69-1.86-0.05-2.78z"/>
 <path d="m6.1101 8.3308 4.15-5.28c0.08-0.1 0.16-0.19 0.25-0.28 0.26-0.25 0.63-0.03 0.63 0.34v4.37c0 0.16-0.07 0.3-0.2 0.4l-4.13 3.17-0.17 0.13c-0.18 0.13-0.43 0.13-0.59-0.04-0.68-0.77-0.67-1.87 0.06-2.81z"/>
</svg>
