<svg width="24" height="24" viewBox="0 0 24 24"  xmlns="http://www.w3.org/2000/svg">
<path d="M6.90012 9.09914L11.6701 6.97914C11.8801 6.88914 12.1201 6.88914 12.3201 6.97914L17.0901 9.09914C17.5101 9.28914 17.9001 8.77914 17.6101 8.41914L12.6101 2.30914C12.2701 1.88914 11.7101 1.88914 11.3701 2.30914L6.37009 8.41914C6.09009 8.77914 6.48012 9.28914 6.90012 9.09914Z" />
<path d="M6.90007 14.9005L11.68 17.0205C11.89 17.1105 12.1301 17.1105 12.3301 17.0205L17.11 14.9005C17.53 14.7105 17.92 15.2205 17.63 15.5805L12.63 21.6905C12.29 22.1105 11.7301 22.1105 11.3901 21.6905L6.39006 15.5805C6.09006 15.2205 6.47007 14.7105 6.90007 14.9005Z" />
<path d="M11.7801 9.49L7.65006 11.55C7.28006 11.73 7.28006 12.26 7.65006 12.44L11.7801 14.5C11.9201 14.57 12.09 14.57 12.23 14.5L16.36 12.44C16.73 12.26 16.73 11.73 16.36 11.55L12.23 9.49C12.08 9.42 11.9201 9.42 11.7801 9.49Z" />
</svg>
