<?xml version="1.0" encoding="UTF-8"?>
<svg width="24" height="24" viewBox="0 0 24 24" xmlns="http://www.w3.org/2000/svg">
 <path d="m6.9001 9.0991 4.77-2.12c0.21-0.09 0.45-0.09 0.65 0l4.77 2.12c0.42 0.19 0.81-0.32 0.52-0.68l-5-6.11c-0.34-0.42-0.9-0.42-1.24 0l-5 6.11c-0.28 0.36 0.11003 0.87 0.53003 0.68z"/>
 <path d="m6.9001 14.9 4.7799 2.12c0.21 0.09 0.4501 0.09 0.6501 0l4.7799-2.12c0.42-0.19 0.81 0.32 0.52 0.68l-5 6.11c-0.34 0.42-0.8999 0.42-1.2399 0l-5-6.11c-0.3-0.36 0.08001-0.87 0.51001-0.68z"/>
 <path d="m11.78 9.49-4.13 2.06c-0.37 0.18-0.37 0.71 0 0.89l4.13 2.06c0.14 0.07 0.3099 0.07 0.4499 0l4.13-2.06c0.37-0.18 0.37-0.71 0-0.89l-4.13-2.06c-0.15-0.07-0.3099-0.07-0.4499 0z"/>
</svg>
