<?xml version="1.0" encoding="UTF-8"?>
<svg width="24" height="24" viewBox="0 0 24 24" xmlns="http://www.w3.org/2000/svg">
 <path d="m16.19 2h-8.38c-3.64 0-5.81 2.17-5.81 5.81v8.37c0 3.65 2.17 5.82 5.81 5.82h8.37c3.64 0 5.81-2.17 5.81-5.81v-8.38c0.01-3.64-2.16-5.81-5.8-5.81zm1.06 10.33c0 0.41-0.34 0.75-0.75 0.75s-0.75-0.34-0.75-0.75v-3.02l-7.72 7.72c-0.15 0.15-0.34 0.22-0.53 0.22s-0.38-0.07-0.53-0.22c-0.29-0.29-0.29-0.77 0-1.06l7.72-7.72h-3.02c-0.41 0-0.75-0.34-0.75-0.75s0.34-0.75 0.75-0.75h4.83c0.41 0 0.75 0.34 0.75 0.75v4.83z"/>
</svg>
