<?xml version="1.0" encoding="UTF-8"?>
<svg width="24" height="24" viewBox="0 0 24 24" xmlns="http://www.w3.org/2000/svg">
 <path d="m21.14 9.8999h-8.39v5.48c0 0.41-0.34 0.75-0.75 0.75s-0.75-0.34-0.75-0.75v-5.48h-8.39c-0.48 0-0.86 0.38-0.86 0.86 0 5.89 4.11 10 10 10s10-4.11 10-10c0-0.48-0.38-0.86-0.86-0.86z"/>
 <path d="m12.75 5.7999 1.56 1.56c0.29 0.29 0.77 0.29 1.06 0s0.29-0.77 0-1.06l-2.85-2.84c-0.29-0.29-0.77-0.29-1.06 0l-2.84 2.85c-0.14 0.15-0.22 0.34-0.22 0.53s0.07 0.38 0.22 0.53c0.29 0.29 0.77 0.29 1.06 0l1.56-1.56v4.09h1.5v-4.1h0.01z"/>
</svg>
