<?xml version="1.0" encoding="UTF-8"?>
<svg width="24" height="24" viewBox="0 0 24 24" xmlns="http://www.w3.org/2000/svg">
 <path d="m22 16.19c0 3.64-2.17 5.81-5.81 5.81h-1.19c-0.55 0-1-0.45-1-1v-5.77c0-0.27 0.22-0.5 0.49-0.5l1.76-0.03c0.14-0.01 0.26-0.11 0.29-0.25l0.35-1.91c0.03-0.18-0.11-0.35-0.3-0.35l-2.13 0.03c-0.28 0-0.5-0.22-0.51-0.49l-0.04-2.45c0-0.16 0.13-0.29999 0.3-0.29999l2.4-0.04001c0.17 0 0.3-0.12999 0.3-0.29999l-0.04-2.4c0-0.17-0.13-0.29999-0.3-0.29999l-2.7 0.04001c-1.66 0.03-2.98 1.39-2.95 3.05l0.05 2.75c0.01 0.28-0.21 0.5-0.49 0.51l-1.2 0.02c-0.17 0-0.29999 0.13-0.29999 0.3l0.03 1.9c0 0.17 0.12999 0.3 0.29999 0.3l1.2-0.02c0.28 0 0.5 0.22 0.51 0.49l0.09 5.7c0.01 0.56-0.44 1.02-1 1.02h-2.3c-3.64 0-5.81-2.17-5.81-5.82v-8.37c0-3.64 2.17-5.81 5.81-5.81h8.38c3.64 0 5.81 2.17 5.81 5.81v8.38z"/>
</svg>
