<?xml version="1.0" encoding="UTF-8"?>
<svg width="24" height="24" viewBox="0 0 24 24" xmlns="http://www.w3.org/2000/svg">
 <path d="m19.12 14.94 0.32 0.65c0.16 0.32 0.57 0.62 0.91 0.68l0.43 0.07c1.31 0.22 1.61 1.18 0.68 2.12l-0.4 0.4c-0.27 0.27-0.41 0.79-0.33 1.17l0.05 0.24c0.36 1.58-0.48 2.19-1.85 1.36l-0.29-0.18c-0.35-0.21-0.93-0.21-1.28 0l-0.29 0.18c-1.38 0.83-2.21 0.22-1.85-1.36l0.05-0.24c0.08-0.37-0.06-0.9-0.33-1.17l-0.4-0.4c-0.93-0.95-0.63-1.9 0.68-2.12l0.43-0.07c0.35-0.06 0.75-0.36 0.91-0.68l0.32-0.65c0.62-1.25 1.62-1.25 2.24 0z"/>
 <path d="m16.19 2h-8.38c-3.64 0-5.81 2.17-5.81 5.81v8.38c0 3.64 2.17 5.81 5.81 5.81h5.28c0.35 0 0.6-0.36 0.56-0.71-0.04-0.38-0.02-0.83 0.1-1.35 0.02-0.07 0-0.15-0.06-0.21l-0.22-0.22c-0.85-0.86-1.16-1.9-0.86-2.85 0.31-0.94 1.17-1.6 2.36-1.8l0.3-0.05 0.27-0.54c0.55-1.12 1.45-1.77 2.46-1.77s1.91 0.65 2.46 1.77l0.15 0.31c0.07 0.15 0.21 0.25 0.37 0.28l0.27 0.06c0.35 0.09 0.75-0.19 0.75-0.56v-6.55c0-3.64-2.17-5.81-5.81-5.81zm0.07 6.96-2.31 2.98c-0.29 0.37-0.7 0.61-1.17 0.66-0.46 0.06-0.93-0.07-1.29-0.36l-1.83-1.42c-0.07-0.06-0.15-0.06-0.19-0.05-0.04 0-0.11 0.02-0.17 0.1l-2.38 3.09c-0.15 0.19-0.37 0.29-0.6 0.29-0.16 0-0.32-0.05-0.46-0.16-0.33-0.25-0.39-0.72-0.14-1.05l2.38-3.09c0.29-0.37 0.7-0.61 1.17-0.67s0.93 0.07 1.3 0.36l1.83 1.44c0.07 0.06 0.14 0.05 0.19 0.05 0.04 0 0.11-0.02 0.17-0.1l2.31-2.98c0.25-0.33 0.72-0.39 1.05-0.13 0.34 0.25 0.39 0.72 0.14 1.04z"/>
</svg>
