<?xml version="1.0" encoding="UTF-8"?>
<svg width="24" height="24" viewBox="0 0 24 24" xmlns="http://www.w3.org/2000/svg">
 <path d="m12 2h-3.3301c-1.84 0-3.33 1.49-3.33 3.33s1.49 3.33 3.33 3.33h3.3301v-6.66z"/>
 <path d="m12 8.6699h-3.3301c-1.84 0-3.33 1.49-3.33 3.33s1.49 3.33 3.33 3.33h3.3301v-6.66z"/>
 <path d="m12 15.33h-3.3301c-1.84 0-3.33 1.49-3.33 3.33s1.49 3.33 3.33 3.33c1.84 0 3.3301-1.49 3.3301-3.33v-3.33z"/>
 <path d="m12 2h3.33c1.84 0 3.33 1.49 3.33 3.33s-1.49 3.33-3.33 3.33h-3.33v-6.66z"/>
 <path d="m15.33 8.6699c1.84 0 3.33 1.49 3.33 3.33s-1.49 3.33-3.33 3.33-3.33-1.49-3.33-3.33 1.49-3.33 3.33-3.33z"/>
</svg>
