<?xml version="1.0" encoding="UTF-8"?>
<svg width="24" height="24" viewBox="0 0 24 24" xmlns="http://www.w3.org/2000/svg">
 <path d="m17.92 10.12c-0.33-0.08-0.68-0.12-1.04-0.12-2.62 0-4.75 2.13-4.75 4.75 0 0.89 0.25 1.73 0.69 2.45 0.37 0.62 0.88 1.15 1.5 1.53 0.74 0.49 1.62 0.77 2.56 0.77 1.74 0 3.25-0.93 4.07-2.3 0.44-0.72 0.68-1.56 0.68-2.45 0-2.26-1.58-4.16-3.71-4.63zm1.33 4.01-2.54 2.34c-0.14 0.13-0.33 0.2-0.51 0.2-0.19 0-0.38-0.07-0.53-0.22l-1.17-1.17c-0.29-0.29-0.29-0.77 0-1.06s0.77-0.29 1.06 0l0.66 0.66 2.01-1.85c0.31-0.28 0.78-0.26 1.06 0.04 0.28 0.31 0.26 0.78-0.04 1.06z"/>
 <path d="m20.58 4.02v2.22c0 0.81-0.5 1.82-1 2.33l-0.18 0.16c-0.14 0.13-0.35 0.16-0.53 0.1-0.2-0.07-0.4-0.12-0.6-0.17-0.44-0.11-0.91-0.16-1.39-0.16-3.45 0-6.25 2.8-6.25 6.25 0 1.14 0.31 2.26 0.9 3.22 0.5 0.84 1.2 1.54 1.96 2.01 0.23 0.15 0.32 0.47 0.12 0.65-0.07 0.06-0.14 0.11-0.21 0.16l-1.4 0.91c-1.3 0.81-3.09-0.1-3.09-1.72v-5.35c0-0.71-0.4-1.62-0.8-2.12l-3.79-4.04c-0.5-0.51-0.9-1.42-0.9-2.02v-2.33c0-1.21 0.9-2.12 1.99-2.12h13.18c1.09 0 1.99 0.91 1.99 2.02z"/>
</svg>
