<?xml version="1.0" encoding="UTF-8"?>
<svg width="24" height="24" viewBox="0 0 24 24" xmlns="http://www.w3.org/2000/svg">
 <path d="m20.95 4.13c-0.29-0.42-0.66-0.79-1.08-1.08-0.95-0.69-2.19-1.05-3.68-1.05h-8.38c-0.2 0-0.4 0.01-0.59 0.03-3.28 0.21-5.22 2.34-5.22 5.78v8.38c0 1.49 0.36 2.73 1.05 3.68 0.29 0.42 0.66 0.79 1.08 1.08 0.82 0.6 1.86 0.95 3.09 1.03 0.19 0.01 0.39 0.02 0.59 0.02h8.38c3.64 0 5.81-2.17 5.81-5.81v-8.38c0-1.49-0.36-2.73-1.05-3.68zm-12.49 6.55-0.49-0.51c-0.26-0.26-0.47-0.73-0.47-1.05v-1.2c0-0.63 0.47-1.1 1.05-1.1h2.14c0.41 0 0.66 0.45 0.44 0.8l-1.85 2.98c-0.18 0.29-0.59 0.33-0.82 0.08zm8.04-1.66c0 0.42-0.26 0.94-0.52 1.2l-2.25 1.99c-0.31 0.26-0.52 0.78-0.52 1.2v2.25c0 0.31-0.21 0.73-0.47 0.89l-0.74 0.47c-0.68 0.42-1.62-0.05-1.62-0.89v-2.77c0-0.37-0.21-0.84-0.42-1.1l-0.24-0.26c-0.16-0.17-0.19-0.43-0.07-0.64l2.68-4.3c0.1-0.15 0.26-0.25 0.44-0.25h2.68c0.58 0 1.05 0.47 1.05 1.05v1.16z"/>
</svg>
