<?xml version="1.0" encoding="UTF-8"?>
<svg width="24" height="24" viewBox="0 0 24 24" xmlns="http://www.w3.org/2000/svg">
 <path d="m20.6 4.0996v2.2c0 0.8-0.5 1.8-1 2.3l-4.3 3.8c-0.6 0.5-1 1.5-1 2.3v4.3c0 0.6-0.4 1.4-0.9 1.7l-1.4 0.9c-1.3 0.8-3.1-0.1-3.1-1.7v-5.3c0-0.7-0.39999-1.6-0.79999-2.1l-0.47-0.49c-0.31-0.33-0.37-0.83-0.12-1.22l5.12-8.22c0.18-0.29 0.5-0.47 0.85-0.47h5.12c1.1 0 2 0.9 2 2z"/>
 <path d="m10.35 3.6296-3.55 5.69c-0.34 0.55-1.12 0.63-1.57 0.16l-0.93-0.98c-0.5-0.5-0.9-1.4-0.9-2v-2.3c0-1.2 0.9-2.1 2-2.1h4.1c0.78 0 1.26 0.86 0.85 1.53z"/>
</svg>
