<?xml version="1.0" encoding="UTF-8"?>
<svg width="24" height="24" viewBox="0 0 24 24" xmlns="http://www.w3.org/2000/svg">
 <path d="m20.72 18.24-0.94-0.94c0.49-0.74 0.78-1.63 0.78-2.59 0-2.6-2.11-4.71-4.71-4.71s-4.71 2.11-4.71 4.71 2.11 4.71 4.71 4.71c0.96 0 1.84-0.29 2.59-0.78l0.94 0.94c0.19 0.19 0.43 0.28 0.68 0.28s0.49-0.09 0.68-0.28c0.35-0.36 0.35-0.96-0.02-1.34z"/>
 <path d="m19.58 4.02v2.22c0 0.81-0.5 1.82-1 2.33l-0.18 0.16c-0.14 0.13-0.35 0.16-0.53 0.1-0.2-0.07-0.4-0.12-0.6-0.17-0.44-0.11-0.91-0.16-1.39-0.16-3.45 0-6.25 2.8-6.25 6.25 0 1.14 0.31 2.26 0.89998 3.22 0.5 0.84 1.2 1.54 1.96 2.01 0.23 0.15 0.32 0.47 0.12 0.65-0.07 0.06-0.14 0.11-0.21 0.16l-1.4 0.91c-1.3 0.81-3.09-0.1-3.09-1.72v-5.35c0-0.71-0.4-1.62-0.8-2.12l-3.79-4.04c-0.5-0.51-0.9-1.42-0.9-2.02v-2.33c0-1.21 0.9-2.12 1.99-2.12h13.18c1.09 0 1.99 0.91 1.99 2.02z"/>
</svg>
