<?xml version="1.0" encoding="UTF-8"?>
<svg width="24" height="24" viewBox="0 0 24 24" xmlns="http://www.w3.org/2000/svg">
 <path d="m17.92 6.37c-0.33-0.08-0.68-0.12-1.04-0.12-2.62 0-4.75 2.13-4.75 4.75 0 0.89 0.25 1.73 0.69 2.45 0.37 0.62 0.88 1.15 1.5 1.53 0.74 0.49 1.62 0.77 2.56 0.77 1.74 0 3.25-0.93 4.07-2.3 0.44-0.72 0.68-1.56 0.68-2.45 0-2.26-1.58-4.16-3.71-4.63zm0.91 4.2-2.43 2.43c-0.09 0.09-0.28 0.18-0.41 0.2l-0.93 0.13c-0.34 0.05-0.57-0.19-0.52-0.52l0.13-0.93c0.02-0.13 0.11-0.31 0.2-0.41l2.43-2.43c0.42-0.42 0.91-0.62 1.52 0s0.43 1.11 0.01 1.53z"/>
 <path d="m20.58 4.02v0.96c0 0.41-0.47 0.66-0.84 0.47-0.46-0.24-0.95-0.42-1.47-0.54-0.44-0.11-0.91-0.16-1.39-0.16-3.45 0-6.25 2.8-6.25 6.25 0 1.14 0.31 2.26 0.9 3.22 0.5 0.84 1.2 1.54 1.96 2.01 0.17 0.11 0.35 0.21 0.52 0.31 0.17 0.09 0.29 0.27 0.29 0.46v2.07c0 0.61-0.4 1.42-0.9 1.72l-1.4 0.91c-1.3 0.81-3.09-0.1-3.09-1.72v-5.35c0-0.71-0.4-1.62-0.8-2.12l-3.79-4.04c-0.5-0.51-0.9-1.42-0.9-2.02v-2.33c0-1.21 0.9-2.12 1.99-2.12h13.18c1.09 0 1.99 0.91 1.99 2.02z"/>
</svg>
