<?xml version="1.0" encoding="UTF-8"?>
<svg width="24" height="24" viewBox="0 0 24 24" xmlns="http://www.w3.org/2000/svg">
 <path d="m16.88 10c-2.62 0-4.75 2.13-4.75 4.75 0 0.89 0.25 1.73 0.69 2.45 0.82 1.38 2.33 2.3 4.06 2.3s3.24-0.93 4.06-2.3c0.44-0.71 0.69-1.56 0.69-2.45 0-2.62-2.12-4.75-4.75-4.75zm1.8 6.52c-0.15 0.15-0.34 0.22-0.53 0.22s-0.38-0.07-0.53-0.22l-0.72-0.72-0.75 0.75c-0.15 0.15-0.34 0.22-0.53 0.22s-0.38-0.07-0.53-0.22c-0.29-0.29-0.29-0.77 0-1.06l0.75-0.75-0.72-0.73c-0.29-0.29-0.29-0.77 0-1.06s0.77-0.29 1.06 0l0.72 0.72 0.7-0.7c0.29-0.29 0.77-0.29 1.06 0s0.29 0.77 0 1.06l-0.7 0.7 0.72 0.73c0.3 0.29 0.3 0.77 0 1.06z"/>
 <path d="m20.58 4.02v2.22c0 0.81-0.5 1.82-1 2.33l-0.18 0.16c-0.14 0.13-0.35 0.16-0.53 0.1-0.2-0.07-0.4-0.12-0.6-0.17-0.44-0.11-0.91-0.16-1.39-0.16-3.45 0-6.25 2.8-6.25 6.25 0 1.14 0.31 2.26 0.9 3.22 0.5 0.84 1.2 1.54 1.96 2.01 0.23 0.15 0.32 0.47 0.12 0.65-0.07 0.06-0.14 0.11-0.21 0.16l-1.4 0.91c-1.3 0.81-3.09-0.1-3.09-1.72v-5.35c0-0.71-0.4-1.62-0.8-2.12l-3.79-4.04c-0.5-0.51-0.9-1.42-0.9-2.02v-2.33c0-1.21 0.9-2.12 1.99-2.12h13.18c1.09 0 1.99 0.91 1.99 2.02z"/>
</svg>
