<?xml version="1.0" encoding="UTF-8"?>
<svg width="24" height="24" viewBox="0 0 24 24" xmlns="http://www.w3.org/2000/svg">
 <path d="m12 7.9502c-1.79 0-3.25 1.46-3.25 3.25v1.6c0 1.79 1.46 3.25 3.25 3.25s3.25-1.46 3.25-3.25v-1.6c0-1.79-1.46-3.25-3.25-3.25zm0.9 5.29c0 0.5-0.4 0.9-0.9 0.9s-0.9-0.4-0.9-0.9v-2.47c0-0.49 0.4-0.9 0.9-0.9s0.9 0.4 0.9 0.9v2.47z"/>
 <path d="m12 2c-5.52 0-10 4.48-10 10s4.48 10 10 10 10-4.48 10-10-4.48-10-10-10zm4.75 10.8c0 2.62-2.13 4.75-4.75 4.75s-4.75-2.13-4.75-4.75v-1.6c0-2.62 2.13-4.75 4.75-4.75s4.75 2.13 4.75 4.75v1.6z"/>
</svg>
