<?xml version="1.0" encoding="UTF-8"?>
<svg width="24" height="24" viewBox="0 0 24 24" xmlns="http://www.w3.org/2000/svg">
 <path d="m22 9.75c-0.41 0-0.75-0.34-0.75-0.75v-2c0-2.58-1.67-4.25-4.25-4.25h-2c-0.41 0-0.75-0.34-0.75-0.75s0.34-0.75 0.75-0.75h2c3.44 0 5.75 2.31 5.75 5.75v2c0 0.41-0.34 0.75-0.75 0.75z"/>
 <path d="m2 9.75c-0.41 0-0.75-0.34-0.75-0.75v-2c0-3.44 2.31-5.75 5.75-5.75h2c0.41 0 0.75 0.34 0.75 0.75s-0.34 0.75-0.75 0.75h-2c-2.58 0-4.25 1.67-4.25 4.25v2c0 0.41-0.34 0.75-0.75 0.75z"/>
 <path d="m17 22.75h-2c-0.41 0-0.75-0.34-0.75-0.75s0.34-0.75 0.75-0.75h2c2.58 0 4.25-1.67 4.25-4.25v-2c0-0.41 0.34-0.75 0.75-0.75s0.75 0.34 0.75 0.75v2c0 3.44-2.31 5.75-5.75 5.75z"/>
 <path d="m9 22.75h-2c-3.44 0-5.75-2.31-5.75-5.75v-2c0-0.41 0.34-0.75 0.75-0.75s0.75 0.34 0.75 0.75v2c0 2.58 1.67 4.25 4.25 4.25h2c0.41 0 0.75 0.34 0.75 0.75s-0.34 0.75-0.75 0.75z"/>
 <path d="m12 9.8701c-0.49 0-0.9 0.39998-0.9 0.89998v2.47c0 0.5 0.4 0.9 0.9 0.9s0.9-0.4 0.9-0.9v-2.47c0-0.5-0.41-0.89998-0.9-0.89998z"/>
 <path d="m15.53 7.4002c-0.34-0.34-0.73-0.63-1.15-0.87-0.14-0.07-0.29-0.14-0.44-0.21-0.15-0.06-0.3-0.12-0.46-0.16-0.16-0.05-0.32-0.09-0.48-0.13-0.01 0-0.03 0-0.04-0.01-0.31-0.06-0.63-0.09-0.95-0.09h-0.02c-0.32 0-0.63 0.03-0.94 0.09-0.04 0.01-0.08 0.01-0.11 0.03-0.14 0.03-0.28 0.06-0.42 0.11-0.17 0.04-0.34 0.11-0.51 0.18-0.12999 0.06-0.25999 0.13-0.37999 0.19-0.15 0.08-0.28 0.17-0.42 0.26-0.26 0.18-0.51 0.38-0.74 0.61-0.11 0.11-0.22 0.23-0.32 0.35-0.1 0.13-0.2 0.25-0.29 0.39-0.09 0.13-0.17 0.27-0.25 0.41-0.38 0.71-0.6 1.52-0.6 2.38v2.14c0 1.73 0.88 3.25 2.2 4.14 0.12 0.09 0.25 0.16 0.38 0.24l0.54999 0.26c0.28 0.11 0.57 0.2 0.86 0.26 0.32 0.06 0.65 0.1 0.99 0.1h0.02c0.34 0 0.67-0.04 0.99-0.1 0.3-0.06 0.59-0.15 0.87-0.26 0.19-0.08 0.37-0.17 0.54-0.26 1.54-0.85 2.58-2.5 2.58-4.38v-2.14c0-1.38-0.56-2.63-1.46-3.53zm-1.13 5.84c0 1.32-1.08 2.4-2.4 2.4s-2.4-1.08-2.4-2.4v-2.47c0-1.32 1.08-2.4 2.4-2.4s2.4 1.08 2.4 2.4v2.47z"/>
</svg>
