<svg width="24" height="24" viewBox="0 0 24 24"  xmlns="http://www.w3.org/2000/svg">
<path d="M21.7699 2.22988C21.4699 1.92988 20.9799 1.92988 20.6799 2.22988L2.22988 20.6899C1.92988 20.9899 1.92988 21.4799 2.22988 21.7799C2.37988 21.9199 2.56988 21.9999 2.76988 21.9999C2.96988 21.9999 3.15988 21.9199 3.30988 21.7699L21.7699 3.30988C22.0799 3.00988 22.0799 2.52988 21.7699 2.22988Z" />
<path d="M14.82 3.5199V9.1799L9.18001 14.8199V13.2799H6.09001C4.69001 13.2799 4.30001 12.4199 5.23001 11.3699L12 3.6699L12.8 2.7599C13.91 1.4999 14.82 1.8399 14.82 3.5199Z" />
<path d="M18.7699 12.6297L11.9999 20.3297L11.1999 21.2397C10.0899 22.4997 9.17993 22.1597 9.17993 20.4797V17.8197L16.2799 10.7197H17.9099C19.3099 10.7197 19.6999 11.5797 18.7699 12.6297Z" />
</svg>
