<?xml version="1.0" encoding="UTF-8"?>
<svg width="24" height="24" viewBox="0 0 24 24" xmlns="http://www.w3.org/2000/svg">
 <path d="m12.75 16h2.75c2.8 0 3.5-0.7 3.5-3.5v-4.2c0-2.8-0.7-3.5-3.5-3.5h-2.1c-0.7 0-0.85-0.21-1.12-0.56l-1.05-1.4c-0.4-0.53-0.63-0.84-1.68-0.84h-1.05c-2.8 0-3.5 0.7-3.5 3.5v7c0 2.8 0.7 3.5 3.5 3.5h2.75v3c0 0.05 0.02 0.09 0.03 0.14-0.52 0.2-0.94 0.62-1.14 1.14-0.05-0.01-0.09-0.03-0.14-0.03h-4c-0.41 0-0.75 0.34-0.75 0.75s0.34 0.75 0.75 0.75h4c0.05 0 0.09-0.02 0.14-0.03 0.29 0.75 1.01 1.28 1.86 1.28s1.57-0.53 1.86-1.28c0.05 0.01 0.09 0.03 0.14 0.03h4c0.41 0 0.75-0.34 0.75-0.75s-0.34-0.75-0.75-0.75h-4c-0.05 0-0.09 0.02-0.14 0.03-0.2-0.52-0.62-0.94-1.14-1.14 0.01-0.05 0.03-0.09 0.03-0.14v-3z"/>
</svg>
