<?xml version="1.0" encoding="UTF-8"?>
<svg width="24" height="24" viewBox="0 0 24 24" xmlns="http://www.w3.org/2000/svg">
 <path d="m21.017 7.9918c0.3979 0.56658-0.0764 1.2582-0.7687 1.2582h-17.248c-0.55228 0-1-0.44772-1-1v-1.83c0-2.44 1.98-4.42 4.42-4.42h2.32c1.63 0 2.14 0.53 2.79 1.4l1.4 1.86c0.31 0.41 0.35 0.46 0.93 0.46h2.79c1.8046 0 3.4016 0.89709 4.3669 2.2718z"/>
 <path d="m21.983 11.746c-0.0019-0.551-0.4491-0.9966-1-0.9966l-17.983 3e-4c-0.55227 0-0.99998 0.4477-0.99998 1v4.9c0 2.95 2.4 5.35 5.35 5.35h9.3c2.95 0 5.35-2.4 5.35-5.35l-0.0166-4.9037zm-7.6434 6.5337c-0.15 0.14-0.34 0.22-0.53 0.22s-0.39-0.08-0.53-0.22l-1.24-1.24-1.28 1.28c-0.14 0.14-0.34 0.22-0.53 0.22s-0.38-0.08-0.53-0.22c-0.29-0.29-0.29-0.77 0-1.06l1.28-1.28-1.24-1.24c-0.29-0.29-0.29-0.77 0-1.06 0.3-0.29 0.77-0.29 1.06 0l1.24 1.24 1.2-1.2c0.29-0.29 0.76-0.29 1.06 0 0.29 0.3 0.29 0.77 0 1.06l-1.2 1.2 1.24 1.24c0.29 0.29 0.29 0.77 0 1.06z"/>
</svg>
