<?xml version="1.0" encoding="UTF-8"?>
<svg width="24" height="24" viewBox="0 0 24 24" xmlns="http://www.w3.org/2000/svg">
 <path d="m21.017 7.9918c0.3979 0.56658-0.0764 1.2582-0.7687 1.2582h-17.248c-0.55228 0-1-0.44772-1-1v-1.83c0-2.44 1.98-4.42 4.42-4.42h2.32c1.63 0 2.14 0.53 2.79 1.4l1.4 1.86c0.31 0.41 0.35 0.46 0.93 0.46h2.79c1.8046 0 3.4016 0.89709 4.3669 2.2718z"/>
 <path d="m21.983 11.747c-0.0019-0.5509-0.4491-0.9966-1-0.9966h-17.983c-0.55228 0-1 0.4477-1 1v4.9c0 2.95 2.4 5.35 5.35 5.35h9.3c2.95 0 5.35-2.4 5.35-5.35l-0.0166-4.9034zm-7.4434 5.2234-2.15 1.88c-0.11 0.1-0.25 0.15-0.39 0.15s-0.28-0.05-0.39-0.15l-2.15-1.88c-0.68-0.6-0.77-1.62-0.2-2.33 0.57-0.72 1.6-0.85 2.34-0.3l0.4 0.3 0.4-0.3c0.74-0.55 1.77-0.42 2.34 0.3 0.57 0.71 0.48 1.73-0.2 2.33z"/>
</svg>
