<?xml version="1.0" encoding="UTF-8"?>
<svg width="24" height="24" viewBox="0 0 24 24" xmlns="http://www.w3.org/2000/svg">
 <path d="m21.06 11.82-0.16-0.22c-0.28-0.34-0.61-0.61-0.99-0.81-0.51-0.29-1.09-0.44-1.69-0.44h-12.45c-0.6 0-1.17 0.15-1.69 0.44-0.39 0.21-0.74 0.5-1.03 0.86-0.57 0.73-0.84 1.63-0.75 2.53l0.37 4.67c0.13 1.41 0.3 3.15 3.47 3.15h11.72c3.17 0 3.33-1.74 3.47-3.16l0.37-4.65c0.09-0.84-0.13-1.68-0.64-2.37zm-6.67 5.52h-4.79c-0.39 0-0.7-0.32-0.7-0.7s0.31-0.7 0.7-0.7h4.79c0.39 0 0.7 0.32 0.7 0.7 0 0.39-0.31 0.7-0.7 0.7z"/>
 <path d="m20.561 8.5964c0.0376 0.38285-0.3777 0.63918-0.7425 0.51705-0.5048-0.16899-1.0361-0.25348-1.5886-0.25348h-12.46c-0.55684 0-1.1051 0.09012-1.6167 0.26194-0.36039 0.12104-0.77334-0.12687-0.77334-0.50705v-1.9549c0-3.57 1.09-4.66 4.66-4.66h1.18c1.43 0 1.88 0.46 2.46 1.21l1.2 1.6c0.25 0.34 0.26 0.36 0.7 0.36h2.38c3.1257 0 4.347 0.83724 4.6011 3.4264z"/>
</svg>
