<?xml version="1.0" encoding="UTF-8"?>
<svg width="24" height="24" viewBox="0 0 24 24" xmlns="http://www.w3.org/2000/svg">
 <path d="m19.435 4.0345c0.1323 0.20792-0.0943 0.45013-0.3346 0.39552-0.47-0.14-0.99-0.21-1.52-0.21h-3.3003c-0.1572 0-0.3053-0.07395-0.3997-0.19963l-1.15-1.5304c-0.1409-0.19956-0.0077-0.49 0.2365-0.49h2.7535c1.561 0 2.936 0.81073 3.7146 2.0345z"/>
 <path d="m20.14 6.54c-0.43-0.31-0.92-0.54-1.45-0.67-0.36-0.1-0.73-0.15-1.11-0.15h-3.72c-0.58 0-0.62-0.05-0.93-0.46l-1.4-1.86c-0.65-0.87-1.16-1.4-2.79-1.4h-2.32c-2.44 0-4.42 1.98-4.42 4.42v11.16c0 2.44 1.98 4.42 4.42 4.42h11.16c2.44 0 4.42-1.98 4.42-4.42v-7.44c0-1.49-0.73-2.8-1.86-3.6zm-5.75 9.8h-4.79c-0.39 0-0.69-0.31-0.69-0.7 0-0.38 0.3-0.7 0.69-0.7h4.79c0.39 0 0.7 0.32 0.7 0.7 0 0.39-0.31 0.7-0.7 0.7z"/>
</svg>
