<?xml version="1.0" encoding="UTF-8"?>
<svg width="24" height="24" viewBox="0 0 24 24" xmlns="http://www.w3.org/2000/svg">
 <path d="m15.58 19.7c-2.11 0.15-2.11 3.21 0 3.36h5.01c0.61 0 1.19-0.22 1.64-0.63 1.48-1.29 0.69-3.89-1.26-4.13-0.7-4.22-6.81-2.62-5.36 1.4"/>
 <path d="m15.58 19.7c-2.11 0.15-2.11 3.21 0 3.36h5.01c0.61 0 1.19-0.22 1.64-0.63 1.48-1.29 0.69-3.89-1.26-4.13-0.7-4.22-6.81-2.62-5.36 1.4"/>
 <path d="m22 11.07v4.27c0 0.32-0.51 0.46-0.73 0.23-0.47-0.49-1.06-0.86-1.74-1.07-1.57-0.49-3.38-0.01-4.52 1.17-0.72 0.77-1.11 1.73-1.13 2.77 0 0.18-0.09 0.34-0.23 0.45-0.72 0.57-1.16 1.46-1.16 2.48v0.01c0 0.32-0.23 0.61-0.55 0.61h-4.6c-2.94 0.01-5.34-2.39-5.34-5.34v-10.23c0-2.44 1.98-4.42 4.42-4.42h2.32c1.63 0 2.14 0.53 2.79 1.4l1.4 1.86c0.31 0.41 0.35 0.46 0.93 0.46h2.79c2.38 0 4.4 1.56 5.09 3.72 0.15 0.45 0.23 0.91 0.25 1.4 0.01 0.07 0.01 0.16 0.01 0.23z"/>
</svg>
