<?xml version="1.0" encoding="UTF-8"?>
<svg width="24" height="24" viewBox="0 0 24 24" xmlns="http://www.w3.org/2000/svg">
 <path d="m21.017 7.9918c0.3979 0.56658-0.0764 1.2582-0.7687 1.2582h-17.248c-0.55228 0-1-0.44772-1-1v-1.83c0-2.44 1.98-4.42 4.42-4.42h2.32c1.63 0 2.14 0.53 2.79 1.4l1.4 1.86c0.31 0.41 0.35 0.46 0.93 0.46h2.79c1.8046 0 3.4016 0.89709 4.3669 2.2718z"/>
 <path d="m21.983 11.746c-0.0019-0.551-0.4491-0.9966-1.0001-0.9966l-17.983 7e-4c-0.55227 0-0.99996 0.4477-0.99996 1v4.9c0 2.95 2.4 5.35 5.35 5.35h9.3c2.95 0 5.35-2.4 5.35-5.35l-0.0166-4.9041zm-7.5534 5.0041h-5c-0.42 0-0.75-0.33-0.75-0.75 0-0.41 0.33-0.75 0.75-0.75h5c0.41 0 0.75 0.34 0.75 0.75 0 0.42-0.34 0.75-0.75 0.75z"/>
</svg>
