<?xml version="1.0" encoding="UTF-8"?>
<svg width="24" height="24" viewBox="0 0 24 24" xmlns="http://www.w3.org/2000/svg">
 <path d="m21.12 6.98-4.1-4.1c-0.48-0.48-1.44-0.88-2.12-0.88h-5.8c-0.68 0-1.64 0.4-2.12 0.88l-4.1 4.1c-0.48 0.48-0.88 1.44-0.88 2.12v5.8c0 0.68 0.4 1.64 0.88 2.12l4.1 4.1c0.48 0.48 1.44 0.88 2.12 0.88h5.8c0.68 0 1.64-0.4 2.12-0.88l4.1-4.1c0.48-0.48 0.88-1.44 0.88-2.12v-5.8c0-0.68-0.4-1.64-0.88-2.12zm-5.09 7.99c0.29 0.29 0.29 0.77 0 1.06-0.15 0.15-0.34 0.22-0.53 0.22s-0.38-0.07-0.53-0.22l-2.97-2.97-2.97 2.97c-0.15 0.15-0.34 0.22-0.53 0.22s-0.38-0.07-0.53-0.22c-0.29-0.29-0.29-0.77 0-1.06l2.97-2.97-2.97-2.97c-0.29-0.29-0.29-0.77 0-1.06s0.77-0.29 1.06 0l2.97 2.97 2.97-2.97c0.29-0.29 0.77-0.29 1.06 0s0.29 0.77 0 1.06l-2.97 2.97 2.97 2.97z"/>
</svg>
