<?xml version="1.0" encoding="UTF-8"?>
<svg width="24" height="24" viewBox="0 0 24 24" xmlns="http://www.w3.org/2000/svg">
 <path d="M17.02 2.88C16.54 2.4 15.58 2 14.9 2H9.1C8.42 2 7.46 2.4 6.98 2.88L2.88 6.98C2.4 7.46 2 8.42 2 9.1V14.9C2 15.58 2.4 16.54 2.88 17.02L4.41 18.55L18.55 4.41L17.02 2.88Z"/>
 <path d="m21.12 6.9797-1.51-1.51-14.14 14.14 1.51 1.51c0.48 0.48 1.44 0.88 2.12 0.88h5.8c0.68 0 1.64-0.4 2.12-0.88l4.1-4.1c0.48-0.48 0.88-1.44 0.88-2.12v-5.8c0-0.68-0.4-1.64-0.88-2.12z"/>
 <path d="m2.49 20.47c-0.29 0.29-0.29 0.77 0 1.06 0.15 0.15 0.34 0.22 0.53 0.22s0.38-0.07 0.53-0.22l1.92-1.92-1.06-1.06-1.92 1.92z"/>
 <path d="m21.53 3.55c0.29-0.29 0.29-0.77 0-1.06s-0.7701-0.29-1.0601 0l-1.92 1.92 1.0601 1.06 1.92-1.92z"/>
</svg>
