<?xml version="1.0" encoding="UTF-8"?>
<svg width="24" height="24" viewBox="0 0 24 24" xmlns="http://www.w3.org/2000/svg">
 <path d="m20.75 16.5v-9c1.19-0.5 2-1.67 2-3 0-1.79-1.46-3.25-3.25-3.25-1.32 0-2.5 0.81-3 2h-9c-0.5-1.19-1.67-2-3-2-1.79 0-3.25 1.46-3.25 3.25 0 1.32 0.81 2.5 2 3v9c-1.19 0.5-2 1.67-2 3 0 1.79 1.46 3.25 3.25 3.25 1.32 0 2.5-0.81 3-2h9c0.5 1.19 1.67 2 3 2 1.79 0 3.25-1.46 3.25-3.25 0-1.32-0.81-2.5-2-3zm-1.59-0.23c-0.11 0.01-0.21 0.03-0.32 0.05-0.27 0.05-0.53 0.14-0.78 0.27-0.06 0.03-0.12 0.06-0.18 0.1-0.5 0.28-0.91 0.69-1.19 1.19-0.04 0.06-0.07 0.12-0.1 0.18-0.13 0.25-0.22 0.51-0.27 0.78-0.02 0.11-0.04 0.21-0.05 0.32-0.01 0.03-0.01 0.06-0.01 0.09h-8.52c-0.02-0.25-0.07-0.49-0.14-0.72-0.02-0.08-0.05-0.17-0.09-0.25-0.03-0.07-0.06-0.14-0.1-0.22-0.03-0.06-0.06-0.12-0.1-0.18-0.28-0.5-0.69-0.91-1.19-1.19-0.06-0.04-0.12-0.07-0.18-0.1-0.08-0.04-0.15-0.07-0.22-0.1-0.08-0.04-0.17-0.07-0.25-0.09-0.23-0.07-0.47-0.12-0.72-0.14v-8.52c0.26-0.02 0.5-0.07 0.74-0.15 0.09-0.02 0.19-0.06 0.28-0.1 0.05-0.02 0.11-0.05 0.17-0.08s0.12-0.06 0.18-0.1c0.5-0.28 0.91-0.69 1.19-1.19 0.04-0.06 0.07-0.12 0.1-0.18s0.06-0.12 0.08-0.17c0.04-0.09 0.08-0.19 0.1-0.28 0.08-0.24 0.13-0.48 0.15-0.74h8.52c0.02 0.27 0.07 0.52 0.16 0.77 0.02 0.08 0.05 0.17 0.09 0.25 0.02 0.06 0.05 0.11 0.08 0.17s0.06 0.12 0.1 0.18c0.28 0.5 0.69 0.91 1.19 1.19 0.06 0.04 0.12 0.07 0.18 0.1s0.11 0.06 0.17 0.08c0.08 0.04 0.17 0.07 0.25 0.09 0.25 0.09 0.5 0.14 0.77 0.16v8.52c-0.03 0-0.06 0-0.09 0.01z"/>
</svg>
