<?xml version="1.0" encoding="UTF-8"?>
<svg width="24" height="24" viewBox="0 0 24 24" xmlns="http://www.w3.org/2000/svg">
 <path d="m21.1 7.87c0.58-0.64 0.9-1.47 0.9-2.34 0-1.95-1.58-3.53-3.53-3.53-0.87 0-1.69 0.32-2.33 0.9-1.29-0.6-2.68-0.9-4.14-0.9-1.43 0-2.85 0.31-4.13 0.9-0.64-0.58-1.47-0.9-2.34-0.9-1.95 0-3.53 1.58-3.53 3.53 0 0.87 0.32 1.7 0.9 2.34-0.59 1.28-0.9 2.7-0.9 4.13 0 1.46 0.3 2.85 0.9 4.14-0.58 0.64-0.9 1.46-0.9 2.33 0 1.95 1.58 3.53 3.53 3.53 0.87 0 1.7-0.32 2.34-0.9 1.28 0.59 2.7 0.9 4.13 0.9 1.46 0 2.85-0.3 4.14-0.9 0.64 0.58 1.46 0.9 2.33 0.9 1.95 0 3.53-1.58 3.53-3.53 0-0.87-0.32-1.69-0.9-2.33 0.6-1.29 0.9-2.68 0.9-4.14 0-1.43-0.31-2.85-0.9-4.13zm-1.42 7.3c-0.11-0.04-0.22-0.08-0.33-0.11-0.17-0.04-0.35-0.07-0.52-0.09-0.12-0.01-0.24-0.02-0.36-0.02-1.94 0-3.52 1.58-3.52 3.52 0 0.12 0.01 0.24 0.02 0.36 0.02 0.17 0.05 0.35 0.09 0.52 0.03 0.11 0.07 0.22 0.11 0.33 0 0.03 0.01 0.06 0.03 0.09l0.03 0.09c-2.01 0.84-4.41 0.85-6.46 0l0.03-0.09c0.02-0.03 0.03-0.06 0.03-0.09 0.04-0.11 0.08-0.22 0.11-0.33 0.04-0.17 0.07-0.35 0.09-0.52 0.01-0.12 0.02-0.24 0.02-0.36 0-1.94-1.58-3.52-3.52-3.52-0.12 0-0.24 0.01-0.36 0.02-0.17 0.02-0.35 0.05-0.52 0.09-0.11 0.03-0.22 0.07-0.33 0.11-0.03 0-0.06 0.01-0.09 0.03-0.03 0.01-0.06 0.02-0.09 0.03-0.43-1.01-0.64-2.1-0.64-3.23 0-1.11 0.22-2.22 0.64-3.23 0.01 0 0.03 0.01 0.04 0.01-0.12-0.05-0.25-0.11-0.36-0.17-0.16-0.09-0.32-0.19-0.47-0.31 0.3 0.23 0.62 0.41 0.97 0.53 0.12 0.05 0.25 0.09 0.37 0.12 0.08 0.02 0.15 0.03 0.22 0.04 0.09 0.02 0.17 0.03 0.26 0.04 0.12 0.01 0.24 0.02 0.36 0.02 1.94 0 3.52-1.58 3.52-3.52 0-0.12-0.01-0.24-0.02-0.36-0.01-0.09-0.02-0.17-0.04-0.26-0.01-0.07-0.02-0.14-0.04-0.22-0.03-0.12-0.07-0.25-0.12-0.37-0.12-0.35-0.3-0.67-0.53-0.97 0.12 0.15 0.22 0.31 0.31 0.47 0.06 0.11 0.12 0.24 0.17 0.36 0-0.01-0.01-0.03-0.01-0.04 2.04-0.85 4.45-0.84 6.46 0l-0.03 0.09c-0.02 0.03-0.03 0.06-0.03 0.09-0.04 0.11-0.08 0.22-0.11 0.33-0.04 0.17-0.07 0.35-0.09 0.52-0.01 0.12-0.02 0.24-0.02 0.36 0 1.94 1.58 3.52 3.52 3.52 0.12 0 0.24-0.01 0.36-0.02 0.17-0.02 0.35-0.05 0.52-0.09 0.11-0.03 0.22-0.07 0.33-0.11 0.03 0 0.06-0.01 0.09-0.03 0.03-0.01 0.06-0.02 0.09-0.03 0.42 1.01 0.64 2.12 0.64 3.23 0 1.13-0.21 2.22-0.64 3.23-0.03-0.01-0.06-0.02-0.09-0.03-0.03-0.02-0.06-0.03-0.09-0.03z"/>
</svg>
