<?xml version="1.0" encoding="UTF-8"?>
<svg width="24" height="24" viewBox="0 0 24 24" xmlns="http://www.w3.org/2000/svg">
 <path d="m19.69 7.35c-0.25-0.33-0.72-0.4-1.05-0.15s-0.4 0.72-0.15 1.05c1.08 1.44 1.65 3.12 1.65 4.86 0 4.49-3.65 8.14-8.14 8.14s-8.14-3.65-8.14-8.14c0-4.49 3.65-8.13 8.14-8.13 0.58 0 1.17 0.07 1.81 0.22 0.03 0.01 0.06 0 0.1 0 0.02 0 0.05 0.02 0.07 0.02 0.03 0 0.05-0.01 0.08-0.01 0.04 0 0.07-0.01 0.1-0.02 0.05-0.01 0.1-0.03 0.15-0.06 0.03-0.02 0.07-0.03 0.1-0.05 0.01-0.01 0.03-0.01 0.04-0.02 0.03-0.02 0.04-0.05 0.06-0.07 0.04-0.04 0.07-0.07 0.1-0.12 0.03-0.04 0.04-0.09 0.06-0.13 0.01-0.03 0.03-0.06 0.04-0.09v-0.05c0.01-0.05 0.01-0.1 0-0.15 0-0.05 0-0.09-0.01-0.14-0.01-0.04-0.03-0.08-0.05-0.13s-0.04-0.1-0.07-0.14c-0.01-0.02-0.01-0.03-0.02-0.04l-1.98-2.47c-0.26-0.32-0.73-0.37-1.05-0.12-0.32 0.26-0.37 0.73-0.12 1.05l0.82 1.02c-0.08 0-0.16-0.01-0.24-0.01-5.31 0-9.64 4.32-9.64 9.64 0 5.32 4.32 9.64 9.64 9.64s9.64-4.32 9.64-9.64c0.01-2.07-0.67-4.06-1.94-5.76z"/>
 <path d="m9.54 16.67c-0.41 0-0.75-0.34-0.75-0.75v-3.39l-0.19 0.22c-0.28 0.31-0.75 0.33-1.06 0.06-0.31-0.28-0.33-0.75-0.06-1.06l1.5-1.67c0.21-0.23002 0.54-0.31002 0.83-0.20002 0.28996 0.11 0.47996 0.39002 0.47996 0.70002v5.35c0 0.41-0.32996 0.74-0.74996 0.74z"/>
 <path d="m14 16.67c-1.52 0-2.75-1.23-2.75-2.75v-1.35c0-1.52 1.23-2.75 2.75-2.75s2.75 1.23 2.75 2.75v1.35c0 1.52-1.23 2.75-2.75 2.75zm0-5.34c-0.69 0-1.25 0.56-1.25 1.25v1.35c0 0.69 0.56 1.25 1.25 1.25s1.25-0.56 1.25-1.25v-1.35c0-0.69-0.56-1.25-1.25-1.25z"/>
</svg>
