<?xml version="1.0" encoding="UTF-8"?>
<svg width="24" height="24" viewBox="0 0 24 24" xmlns="http://www.w3.org/2000/svg">
 <path d="m21.25 5.77v3.23c0 2.1146-0.7078 2.899-2.6193 3.0068-0.2757 0.0155-0.5007-0.2107-0.5007-0.4868v-1.14c0-3.12-1.39-4.51-4.51-4.51h-1.14c-0.2762 0-0.5023-0.22506-0.4868-0.50076 0.1078-1.9115 0.8922-2.6192 3.0068-2.6192h3.23c2.29 0 3.02 0.73 3.02 3.02z"/>
 <path d="m16.63 10.38v3.24c0 2.28-0.73 3.01-3.01 3.01h-3.24c-2.28 0-3.01-0.73-3.01-3.01v-3.24c0-2.28 0.73-3.01 3.01-3.01h3.24c2.28 0 3.01 0.73 3.01 3.01z"/>
 <path d="m11.52 18.13c0.2761 0 0.5023 0.225 0.4868 0.5007-0.1078 1.9115-0.8922 2.6193-3.0068 2.6193h-3.23c-2.29 0-3.02-0.73-3.02-3.02v-3.23c0-2.1146 0.70773-2.8991 2.6192-3.0068 0.2757-0.0156 0.50076 0.2106 0.50076 0.4868v1.14c0 3.12 1.39 4.51 4.51 4.51h1.14z"/>
</svg>
