<?xml version="1.0" encoding="UTF-8"?>
<svg width="24" height="24" viewBox="0 0 24 24" xmlns="http://www.w3.org/2000/svg">
 <path d="m19.48 7.09c-0.26-0.32-0.73-0.37-1.05-0.11s-0.37 0.73-0.11 1.05c1.13 1.4 1.76 3.06 1.82 4.8 0.16 4.48-3.36 8.26-7.85 8.41-4.49 0.16-8.26-3.36-8.42-7.84-0.16-4.48 3.36-8.26 7.85-8.41 0.57-0.02 1.17 0.03 1.82 0.16 0.04 0.01 0.08 0 0.12 0 0.1 0.05 0.22 0.08 0.33 0.08 0.17 0 0.33-0.05 0.47-0.17 0.32-0.26 0.37-0.73 0.12-1.05l-1.98-2.47c-0.26-0.32-0.73-0.38-1.05-0.12s-0.37 0.73-0.12 1.05l0.83 1.03c-0.19-0.01-0.39-0.02-0.58-0.01-5.31 0.18-9.48 4.66-9.29 9.97 0.19 5.31 4.66 9.48 9.97 9.29 5.31-0.19 9.48-4.66 9.29-9.97-0.09-2.07-0.83-4.04-2.17-5.69z"/>
 <path d="m12.38 16.92h-2.29c-0.41002 0-0.75002-0.34-0.75002-0.75s0.34-0.75 0.75002-0.75h2.29c0.43 0 0.78-0.35 0.78-0.78s-0.35-0.78-0.78-0.78h-2.29c-0.24002 0-0.47002-0.12-0.61002-0.31s-0.18-0.45-0.1-0.68l0.76002-2.29c0.1-0.31 0.39-0.51 0.71-0.51h3.06c0.41 0 0.75 0.34 0.75 0.75s-0.34 0.75-0.75 0.75h-2.52l-0.26 0.79h1.25c1.26 0 2.28 1.02 2.28 2.28s-1.02 2.28-2.28 2.28z"/>
</svg>
