<?xml version="1.0" encoding="UTF-8"?>
<svg width="24" height="24" viewBox="0 0 24 24" xmlns="http://www.w3.org/2000/svg">
 <path d="m14.43 16.92h-2.29c-0.41 0-0.75-0.34-0.75-0.75s0.34-0.75 0.75-0.75h2.29c0.43 0 0.78-0.35 0.78-0.78s-0.35-0.78-0.78-0.78h-2.29c-0.24 0-0.47-0.12-0.61-0.31s-0.18-0.45-0.1-0.68l0.76-2.29c0.1-0.31 0.39-0.51 0.71-0.51h3.06c0.41 0 0.75 0.34 0.75 0.75s-0.34 0.75-0.75 0.75h-2.52l-0.26 0.79h1.25c1.26 0 2.28 1.02 2.28 2.28s-1.03 2.28-2.28 2.28z"/>
 <path d="m9.5399 16.92c-0.41 0-0.75-0.34-0.75-0.75v-3.39l-0.19 0.22c-0.28 0.31-0.75 0.33-1.06 0.06-0.3-0.28-0.33-0.75-0.05-1.06l1.5-1.67c0.21-0.23 0.54-0.31 0.83-0.2 0.28998 0.11 0.47998 0.39 0.47998 0.7v5.35c-0.01 0.41-0.33998 0.74-0.75998 0.74z"/>
 <path d="m19.69 7.35c-0.25-0.33-0.72-0.4-1.05-0.15s-0.4 0.72-0.15 1.05c1.08 1.44 1.65 3.12 1.65 4.86 0 4.49-3.65 8.14-8.14 8.14s-8.14-3.65-8.14-8.14c0-4.49 3.65-8.13 8.14-8.13 0.58 0 1.17 0.07 1.81 0.22 0.03 0.01 0.06 0 0.09 0s0.05 0.02 0.07 0.02c0.03 0 0.05-0.01 0.08-0.01s0.06-0.01 0.1-0.02c0.06-0.01 0.11-0.04 0.16-0.06 0.03-0.02 0.06-0.03 0.09-0.05 0.01-0.01 0.03-0.01 0.04-0.02 0.03-0.02 0.04-0.05 0.06-0.07 0.04-0.04 0.07-0.07 0.1-0.12 0.03-0.04 0.04-0.09 0.06-0.14 0.01-0.03 0.03-0.06 0.04-0.09v-0.05c0.01-0.05 0.01-0.1 0-0.15 0-0.05 0-0.09-0.01-0.14-0.01-0.04-0.03-0.08-0.05-0.13s-0.04-0.1-0.07-0.14c0-0.01 0-0.02-0.01-0.03l-1.98-2.47c-0.26-0.32-0.73-0.38-1.05-0.12s-0.37 0.73-0.12 1.05l0.82 1.02c-0.08 0-0.16-0.01-0.24-0.01-5.31 0-9.64 4.32-9.64 9.64 0 5.32 4.32 9.64 9.64 9.64s9.64-4.32 9.64-9.64c0.01-2.07-0.67-4.06-1.94-5.76z"/>
</svg>
