<?xml version="1.0" encoding="UTF-8"?>
<svg width="24" height="24" viewBox="0 0 24 24" xmlns="http://www.w3.org/2000/svg">
 <path d="m20.41 6.9599v1.83c0 0.64-0.3 1.24-0.82 1.61l-11 8.06c-0.71 0.52-1.68 0.52-2.38-0.01l-1.44-1.08c-0.65-0.49-1.18-1.55-1.18-2.36v-8.05c0-1.12 0.86-2.36 1.91-2.75l5.47-2.05c0.57-0.21 1.49-0.21 2.06 0l5.47 2.05c1.05 0.39 1.91 1.63 1.91 2.75z"/>
 <path d="m18.82 12.34c0.66-0.48 1.59-0.01 1.59 0.81v1.88c0 0.81-0.53 1.86-1.18 2.35l-5.47 4.09c-0.48 0.35-1.12 0.53-1.76 0.53s-1.28-0.18-1.76-0.54l-0.82999-0.62c-0.54-0.4-0.54-1.21 0.01-1.61l9.4-6.89z"/>
</svg>
