<?xml version="1.0" encoding="UTF-8"?>
<svg width="24" height="24" viewBox="0 0 24 24" xmlns="http://www.w3.org/2000/svg">
 <path d="m19 8c1.6569 0 3-1.3432 3-3s-1.3431-3-3-3-3 1.3432-3 3 1.3431 3 3 3z"/>
 <path d="m17.79 9.3402c-1.51-0.4-2.73-1.62-3.13-3.13-0.26-0.96-0.2-1.88 0.09-2.7 0.2-0.56-0.14-1.18-0.72-1.3-1.47-0.31-3.06-0.3-4.72 0.15-3.78 1.06-6.67 4.33-7.21 8.22-0.92 6.62 4.69 12.23 11.31 11.32 3.9-0.54 7.16-3.43 8.21-7.22 0.46-1.65 0.47-3.24 0.16-4.72-0.12-0.58-0.74-0.91-1.3-0.72-0.81 0.29-1.73 0.35-2.69 0.1z"/>
</svg>
