<?xml version="1.0" encoding="UTF-8"?>
<svg width="24" height="24" viewBox="0 0 24 24" xmlns="http://www.w3.org/2000/svg">
 <path d="m20.97 1h-2.94c-1.27 0-2.03 0.76-2.03 2.03v2.94c0 1.27 0.76 2.03 2.03 2.03h2.94c1.27 0 2.03-0.76 2.03-2.03v-2.94c0-1.27-0.76-2.03-2.03-2.03zm0.5 4.56c0.25 0.25 0.25 0.66 0 0.91-0.13 0.12-0.29 0.18-0.46 0.18-0.16 0-0.32-0.06-0.45-0.18l-1.06-1.06-1.05 1.06c-0.13 0.12-0.29 0.18-0.46 0.18-0.16 0-0.32-0.06-0.45-0.18-0.25-0.25-0.25-0.66 0-0.91l1.06-1.06-1.06-1.05c-0.25-0.25-0.25-0.66 0-0.91s0.66-0.25 0.91 0l1.05 1.06 1.06-1.06c0.25-0.25 0.66-0.25 0.91 0s0.25 0.66 0 0.91l-1.06 1.05 1.06 1.06z"/>
 <path d="m9.0001 10.38c1.3145 0 2.38-1.0655 2.38-2.38s-1.0655-2.38-2.38-2.38c-1.3144 0-2.38 1.0656-2.38 2.38s1.0656 2.38 2.38 2.38z"/>
 <path d="m20.97 8h-0.47v4.61l-0.13-0.11c-0.78-0.67-2.04-0.67-2.82 0l-4.16 3.57c-0.78 0.67-2.04 0.67-2.82 0l-0.34-0.28c-0.71-0.62-1.84-0.68-2.64-0.14l-3.74 2.51c-0.22-0.56-0.35-1.21-0.35-1.97v-8.38c0-2.82 1.49-4.31 4.31-4.31h8.19v-0.47c0-0.4 0.07-0.74 0.23-1.03h-8.42c-3.64 0-5.81 2.17-5.81 5.81v8.38c0 1.09 0.19 2.04 0.56 2.84 0.86 1.9 2.7 2.97 5.25 2.97h8.38c3.64 0 5.81-2.17 5.81-5.81v-8.42c-0.29 0.16-0.63 0.23-1.03 0.23z"/>
</svg>
