<?xml version="1.0" encoding="UTF-8"?>
<svg width="24" height="24" viewBox="0 0 24 24" xmlns="http://www.w3.org/2000/svg">
 <path d="m21.77 2.2299c-0.3-0.3-0.79-0.3-1.09 0l-18.45 18.46c-0.3 0.3-0.3 0.79 0 1.09 0.15 0.14 0.34 0.22 0.54 0.22s0.39-0.08 0.54-0.23l18.46-18.46c0.31-0.3 0.31-0.78 0-1.08z"/>
 <path d="m9.0001 10.38c1.3145 0 2.38-1.0655 2.38-2.38s-1.0655-2.38-2.38-2.38c-1.3144 0-2.38 1.0656-2.38 2.38s1.0656 2.38 2.38 2.38z"/>
 <path d="m21.61 5.3899-1.22 1.22c0.08 0.37 0.11 0.77 0.11 1.2v4.8l-0.13-0.11c-0.78-0.67-2.04-0.67-2.82 0l-4.16 3.57c-0.71 0.61-1.83 0.67-2.61 0.15l-5.38 5.38c0.04 0.02 0.08 0.03 0.12 0.04 0.27 0.09 0.54 0.16 0.83 0.22 0.1 0.02 0.2 0.04 0.31 0.05 0.37 0.05 0.75 0.09 1.15 0.09h8.38c3.64 0 5.81-2.17 5.81-5.81v-8.38c0-0.9-0.13-1.71-0.39-2.42z"/>
 <path d="m21.61 5.3899-1.22 1.22c0.08 0.37 0.11 0.77 0.11 1.2v4.8l-0.13-0.11c-0.78-0.67-2.04-0.67-2.82 0l-4.16 3.57c-0.71 0.61-1.83 0.67-2.61 0.15l-5.39 5.39c0.71 0.26 1.52 0.39 2.42 0.39h8.38c3.64 0 5.81-2.17 5.81-5.81v-8.38c0-0.9-0.13-1.71-0.39-2.42z"/>
 <path d="m20.46 3.54-1.06 1.06c-0.72-0.73-1.8-1.1-3.21-1.1h-8.38c-2.82 0-4.31 1.49-4.31 4.31v8.38c0 0.76 0.13 1.41 0.35 1.97l3.74-2.51c0.34-0.23 0.73-0.35 1.12-0.36l-5.17 5.17c-0.4-0.4-0.73-0.88-0.98-1.43-0.37-0.8-0.56-1.75-0.56-2.84v-8.38c0-3.64 2.17-5.81 5.81-5.81h8.38c1.82 0 3.27 0.54 4.27 1.54z"/>
</svg>
