<?xml version="1.0" encoding="UTF-8"?>
<svg width="24" height="24" viewBox="0 0 24 24" xmlns="http://www.w3.org/2000/svg">
 <path d="m20.97 1h-2.94c-1.27 0-2.03 0.76-2.03 2.03v2.94c0 1.27 0.76 2.03 2.03 2.03h2.94c1.27 0 2.03-0.76 2.03-2.03v-2.94c0-1.27-0.76-2.03-2.03-2.03zm-1.96 5.57c-0.03 0.03-0.1 0.07-0.15 0.07l-1.04 0.15c-0.03 0.01-0.07 0.01-0.1 0.01-0.15 0-0.28-0.05-0.37-0.15-0.12-0.12-0.17-0.29-0.14-0.47l0.15-1.04c0.01-0.05 0.04-0.12 0.07-0.15l1.7-1.7c0.03 0.07 0.06 0.15 0.09 0.23 0.04 0.08 0.08 0.15 0.12 0.22 0.03 0.06 0.07 0.12 0.11 0.16 0.04 0.06 0.08 0.12 0.11 0.15 0.02 0.03 0.03 0.04 0.04 0.05 0.09 0.11 0.19 0.21 0.28 0.28 0.02 0.02 0.04 0.04 0.05 0.04 0.05 0.04 0.11 0.09 0.15 0.12 0.06 0.04 0.11 0.08 0.17 0.11 0.07 0.04 0.15 0.08 0.23 0.12s0.16 0.07 0.23 0.09l-1.7 1.71zm2.39-2.39-0.32 0.32c-0.02 0.03-0.05 0.04-0.08 0.04h-0.03c-0.72-0.21-1.29-0.78-1.5-1.5-0.01-0.04 0-0.08 0.03-0.11l0.33-0.33c0.54-0.54 1.05-0.53 1.58 0 0.27 0.27 0.4 0.53 0.4 0.79-0.01 0.26-0.14 0.52-0.41 0.79z"/>
 <path d="m9.0001 10.38c1.3145 0 2.38-1.0655 2.38-2.38s-1.0655-2.38-2.38-2.38c-1.3144 0-2.38 1.0656-2.38 2.38s1.0656 2.38 2.38 2.38z"/>
 <path d="m20.97 8h-0.47v4.61l-0.13-0.11c-0.78-0.67-2.04-0.67-2.82 0l-4.16 3.57c-0.78 0.67-2.04 0.67-2.82 0l-0.34-0.28c-0.71-0.62-1.84-0.68-2.64-0.14l-3.74 2.51c-0.22-0.56-0.35-1.21-0.35-1.97v-8.38c0-2.82 1.49-4.31 4.31-4.31h8.19v-0.47c0-0.4 0.07-0.74 0.23-1.03h-8.42c-3.64 0-5.81 2.17-5.81 5.81v8.38c0 1.09 0.19 2.04 0.56 2.84 0.86 1.9 2.7 2.97 5.25 2.97h8.38c3.64 0 5.81-2.17 5.81-5.81v-8.42c-0.29 0.16-0.63 0.23-1.03 0.23z"/>
</svg>
