<?xml version="1.0" encoding="UTF-8"?>
<svg width="24" height="24" viewBox="0 0 24 24" xmlns="http://www.w3.org/2000/svg">
 <path d="m16.65 5.7197h-9.3c-2.95 0-5.35 2.4-5.35 5.35v5.58c0 2.95 2.4 5.35 5.35 5.35h9.3c2.95 0 5.35-2.4 5.35-5.35v-5.58c0-2.95-2.4-5.35-5.35-5.35zm-2.15 6.3c0-0.55 0.45-1 1-1s1 0.45 1 1-0.45 1.01-1 1.01-1-0.44-1-0.99v-0.02zm-4.37 4.05c-0.15 0.15-0.34 0.22-0.53 0.22s-0.38-0.07-0.53-0.22l-1.03-1.03-0.99 0.99c-0.15 0.15-0.34 0.22-0.53 0.22s-0.38-0.07-0.53-0.22c-0.29-0.29-0.29-0.77 0-1.06l0.99-0.99-0.96-0.96c-0.29-0.29-0.29-0.77 0-1.06s0.77-0.29 1.06 0l0.96 0.96 0.99-0.99c0.29-0.29 0.77-0.29 1.06 0s0.29 0.77 0 1.06l-0.99 0.99 1.03 1.03c0.29 0.29 0.29 0.77 0 1.06zm3.41-1.07c-0.55 0-1.01-0.45-1.01-1s0.44-1 0.99-1h0.02c0.55 0 1 0.45 1 1s-0.44 1-1 1zm1.96 1.97c-0.55 0-1-0.44-1-0.99v-0.02c0-0.55 0.45-1 1-1s1 0.45 1 1-0.44 1.01-1 1.01zm1.98-1.97c-0.55 0-1.01-0.45-1.01-1s0.44-1 0.99-1h0.02c0.55 0 1 0.45 1 1s-0.44 1-1 1z"/>
 <path d="m13.64 2.71-0.01 0.94c-0.01 0.88-0.74 1.61-1.63 1.61-0.15 0-0.24 0.1-0.24 0.23s0.1 0.23 0.23 0.23h-1.61c-0.01-0.07-0.02-0.15-0.02-0.23 0-0.9 0.73-1.63 1.62-1.63 0.15 0 0.25-0.1 0.25-0.23l0.01-0.94c0.01-0.38 0.32-0.69 0.7-0.69h0.01c0.39 0 0.69 0.32 0.69 0.71z"/>
</svg>
