<?xml version="1.0" encoding="UTF-8"?>
<svg width="24" height="24" viewBox="0 0 24 24" xmlns="http://www.w3.org/2000/svg">
 <path d="m17 2h-10c-2.2 0-4 1.8-4 4v12c0 2.2 1.8 4 4 4h10c2.2 0 4-1.8 4-4v-12c0-2.2-1.8-4-4-4zm-6.14 16.14c-0.15 0.15-0.34 0.22-0.53 0.22s-0.38-0.07-0.53-0.22l-0.65-0.65-0.62 0.62c-0.15 0.15-0.34 0.22-0.53 0.22s-0.38-0.07-0.53-0.22c-0.29-0.29-0.29-0.77 0-1.06l0.62-0.62-0.59-0.59c-0.29-0.29-0.29-0.77 0-1.06s0.77-0.29 1.06 0l0.59 0.59 0.62-0.62c0.29-0.29 0.77-0.29 1.06 0s0.29 0.77 0 1.06l-0.62 0.62 0.65 0.65c0.29 0.29 0.29 0.77 0 1.06zm3.63 0.35c-0.55 0-1-0.44-1-0.99v-0.02c0-0.55 0.45-1 1-1s1 0.45 1 1-0.45 1.01-1 1.01zm2.02-2.16c-0.55 0-1.01-0.45-1.01-1s0.44-1 0.99-1h0.02c0.55 0 1 0.45 1 1s-0.45 1-1 1zm1.49-7.08c0 0.96-0.79 1.75-1.75 1.75h-8.5c-0.96 0-1.75-0.79-1.75-1.75v-2.5c0-0.96 0.79-1.75 1.75-1.75h8.5c0.96 0 1.75 0.79 1.75 1.75v2.5z"/>
</svg>
