<?xml version="1.0" encoding="UTF-8"?>
<svg width="24" height="24" viewBox="0 0 24 24" xmlns="http://www.w3.org/2000/svg">
 <path d="m22.34 9.33-2-1c-0.37-0.18-0.83-0.04-1.01 0.33-0.19 0.38-0.04 0.83 0.33 1.01l1.59 0.79v4.79l-3.75 0.01v-10.26c0-2-1.34-3-3-3h-8c-1.66 0-3 1-3 3v16.25h-1.5c-0.41 0-0.75 0.34-0.75 0.75s0.34 0.75 0.75 0.75h17c0.41 0 0.75-0.34 0.75-0.75s-0.34-0.75-0.75-0.75h-1.5v-4.49l4.5-0.01c0.42 0 0.75-0.34 0.75-0.75v-6c0-0.28-0.16-0.54-0.41-0.67zm-16.34-2.44c0-1.39 0.85-1.89 1.89-1.89h5.23c1.03 0 1.88 0.5 1.88 1.89v1.23c0 1.38-0.85 1.88-1.89 1.88h-5.22c-1.04 0-1.89-0.5-1.89-1.89v-1.22zm0.5 5.36h3c0.41 0 0.75 0.34 0.75 0.75s-0.34 0.75-0.75 0.75h-3c-0.41 0-0.75-0.34-0.75-0.75s0.34-0.75 0.75-0.75z"/>
</svg>
