<?xml version="1.0" encoding="UTF-8"?>
<svg width="24" height="24" viewBox="0 0 24 24" xmlns="http://www.w3.org/2000/svg">
 <path d="m12 2c-5.5 0-10 4.58-10 10.18v7.89c0 1.26 0.75 1.6 1.67 0.76l1-0.91c0.37-0.34 0.97-0.34 1.34 0l2 1.83c0.37 0.34 0.97 0.34 1.34 0l2-1.83c0.37-0.34 0.97-0.34 1.34 0l2 1.83c0.37 0.34 0.97 0.34 1.34 0l2-1.83c0.37-0.34 0.97-0.34 1.34 0l1 0.91c0.92 0.84 1.67 0.5 1.67-0.76v-7.89c-0.04-5.6-4.54-10.18-10.04-10.18zm0 4.62c1.31 0 2.38 1.07 2.38 2.38s-1.07 2.38-2.38 2.38-2.38-1.07-2.38-2.38 1.07-2.38 2.38-2.38zm4.45 7.98c-1.31 0.98-2.88 1.47-4.45 1.47s-3.14-0.49-4.45-1.47c-0.33-0.25-0.4-0.72-0.15-1.05s0.72-0.4 1.05-0.15c2.09 1.57 5.01 1.57 7.1 0 0.33-0.25 0.8-0.18 1.05 0.15s0.18 0.8-0.15 1.05z"/>
</svg>
