<?xml version="1.0" encoding="UTF-8"?>
<svg width="24" height="24" viewBox="0 0 24 24" xmlns="http://www.w3.org/2000/svg">
 <path d="m20 12v6c0 2.21-1.79 4-4 4h-8c-2.21 0-4-1.79-4-4v-6c0-0.55 0.45-1 1-1h1.97c0.55 0 1 0.45 1 1v3.14c0 0.74 0.41 1.42 1.06 1.77 0.29 0.16 0.61 0.24 0.94 0.24 0.38 0 0.76-0.11 1.09-0.33l0.95-0.62 0.88 0.59c0.61 0.41 1.39 0.46 2.04 0.11 0.66-0.35 1.07-1.02 1.07-1.77v-3.13c0-0.55 0.45-1 1-1h2c0.55 0 1 0.45 1 1z"/>
 <path d="m21.5 7v1c0 1.1-0.53 2-2 2h-15c-1.53 0-2-0.9-2-2v-1c0-1.1 0.47-2 2-2h15c1.47 0 2 0.9 2 2z"/>
 <path d="m11.64 4.9999h-5.52c-0.34-0.37-0.33-0.94 0.03-1.3l1.42-1.42c0.37-0.37 0.98-0.37 1.35 0l2.72 2.72z"/>
 <path d="m17.87 4.9999h-5.52l2.72-2.72c0.37-0.37 0.98-0.37 1.35 0l1.42 1.42c0.36 0.36 0.37 0.93 0.03 1.3z"/>
 <path d="m13.97 11c0.55 0 1 0.45 1 1v3.13c0 0.8-0.89 1.28-1.55 0.83l-0.9-0.6c-0.33-0.22-0.76-0.22-1.1 0l-0.94 0.62c-0.65996 0.44-1.54-0.04-1.54-0.83v-3.15c0-0.55 0.45-1 1-1h4.03z"/>
</svg>
