<?xml version="1.0" encoding="UTF-8"?>
<svg width="24" height="24" viewBox="0 0 24 24" xmlns="http://www.w3.org/2000/svg">
 <path d="m17.71 2h-0.95c-0.39 0-0.71 0.32-0.71 0.71 0 0.4 0.32 0.72 0.71 0.72h0.95c1.71 0 3.1 1.39 3.1 3.09v5.88c-0.36-0.19-0.76-0.29-1.19-0.29h-3.81c-1.44 0-2.62 1.17-2.62 2.62v1.56h-2.38v-1.56c0-1.45-1.18-2.62-2.62-2.62h-3.81c-0.43 0-0.83 0.1-1.19 0.29v-5.88c0-1.7 1.39-3.09 3.1-3.09h0.95c0.39 0 0.71-0.32 0.71-0.72 0-0.39-0.32-0.71-0.71-0.71h-0.95c-2.5 0-4.53 2.03-4.53 4.52v12.86c0 1.45 1.18 2.62 2.62 2.62h3.81c1.44 0 2.62-1.17 2.62-2.62v-1.67h2.38v1.67c0 1.45 1.18 2.62 2.62 2.62h3.81c1.44 0 2.62-1.17 2.62-2.62v-12.86c0-2.49-2.03-4.52-4.53-4.52z"/>
</svg>
