<?xml version="1.0" encoding="UTF-8"?>
<svg width="24" height="24" viewBox="0 0 24 24" xmlns="http://www.w3.org/2000/svg">
 <path d="m15.84 22h-7.68c-4.19 0-5.02-2.53-3.66-5.61l1.44-3.27s3.06-0.12 6.06 0.88 5.83-0.89 5.83-0.89l0.19-0.12 1.49 3.41c1.34 3.08 0.46 5.6-3.67 5.6z"/>
 <path d="m15.44 6.74h-0.16l2.13 4.86-0.41 0.26c-0.02 0.01-2.28 1.46-4.53 0.72-2.35-0.79-4.71-0.93-5.87-0.95l2.14-4.89h-0.3c-0.65 0-1.25-0.26-1.68-0.69s-0.69-1.03-0.69-1.68c0-1.3 1.06-2.37 2.37-2.37h7.11c0.66 0 1.25 0.27 1.68 0.7 0.56 0.56 0.85 1.38 0.63 2.25-0.26 1.08-1.3 1.79-2.42 1.79z"/>
</svg>
