<?xml version="1.0" encoding="UTF-8"?>
<svg width="24" height="24" viewBox="0 0 24 24" xmlns="http://www.w3.org/2000/svg">
 <path d="m21.79 20.76-0.72-0.72c0.37-0.56 0.59-1.24 0.59-1.96 0-1.98-1.6-3.58-3.58-3.58s-3.58 1.6-3.58 3.58 1.6 3.58 3.58 3.58c0.73 0 1.4-0.22 1.96-0.59l0.72 0.72c0.14 0.14 0.33 0.21 0.51 0.21 0.19 0 0.37-0.07 0.51-0.21 0.29-0.29 0.29-0.75 0.01-1.03z"/>
 <path d="m2.03 14.63c0 0.03-0.02 0.07-0.02 0.1 0.92 1.84 2.42 3.35 4.26 4.26 0.03 0 0.07-0.02 0.1-0.02-0.34-1.16-0.6-2.35-0.79-3.54-1.2-0.2-2.39-0.46-3.55-0.8z"/>
 <path d="m19.07 6.4299c-0.94-1.97-2.53-3.56-4.49-4.49 0.36 1.19 0.66 2.41 0.86 3.63 1.22 0.2 2.44 0.49 3.63 0.86z"/>
 <path d="m1.9299 6.43c1.2-0.36 2.42-0.66 3.64-0.86 0.2-1.19 0.45-2.37 0.79-3.53-0.03 0-0.07-0.02-0.1-0.02-1.88 0.93-3.41 2.5-4.33 4.41z"/>
 <path d="m13.82 5.36c-0.24-1.3-0.54-2.6-0.97-3.86-0.02-0.07-0.02-0.13-0.03-0.21-0.74-0.18-1.52-0.29-2.32-0.29-0.80997 0-1.58 0.11-2.33 0.3-0.01 0.07 0 0.13-0.02 0.21-0.42 1.26-0.73 2.55-0.97 3.85 2.21-0.24 4.43-0.24 6.64 0z"/>
 <path d="m5.36 7.1802c-1.31 0.24-2.59 0.55-3.86 0.97-0.07 0.02-0.13 0.02-0.2 0.03-0.19 0.74-0.3 1.52-0.3 2.32 0 0.81 0.11 1.58 0.3 2.33 0.07 0.01 0.13 0 0.21 0.02 1.26 0.42 2.55 0.73 3.86 0.97-0.25-2.21-0.25-4.43-0.01-6.64z"/>
 <path d="m19.7 8.1802c-0.07 0-0.13-0.01-0.21-0.03-1.26-0.42-2.56-0.73-3.86-0.97 0.25 2.21 0.25 4.43 0 6.63 1.3-0.24 2.6-0.54 3.86-0.97 0.07-0.02 0.13-0.01 0.21-0.02 0.18-0.75 0.3-1.52 0.3-2.33 0-0.79002-0.11-1.56-0.3-2.31z"/>
 <path d="m7.1799 15.64c0.24 1.31 0.54 2.6 0.97 3.86 0.02 0.07 0.01 0.13 0.02 0.21 0.75 0.18 1.52 0.29 2.33 0.29 0.8 0 1.58-0.11 2.32-0.3 0.01-0.07 0.01-0.13 0.03-0.21 0.42-1.26 0.73-2.55 0.97-3.86-1.1 0.12-2.21 0.21-3.32 0.21-1.11 0-2.22-0.08-3.32-0.2z"/>
 <path d="m6.9501 6.9501c-0.3 2.36-0.3 4.74 0 7.11 2.36 0.3 4.74 0.3 7.11 0 0.3-2.36 0.3-4.74 0-7.11-2.37-0.3-4.75-0.3-7.11 0z"/>
</svg>
