<svg width="24" height="24" viewBox="0 0 24 24"  xmlns="http://www.w3.org/2000/svg">
<path d="M5.93989 16.7703L4.27992 19.5903C4.15992 19.8003 3.84986 19.8003 3.71986 19.5903L2.02992 16.7703C1.89992 16.5503 2.05989 16.2803 2.30989 16.2803H5.65986C5.90986 16.2803 6.05989 16.5603 5.93989 16.7703Z" />
<path d="M11.6899 8.4104L7.73991 14.8804C7.64991 15.0304 7.48992 15.1104 7.31992 15.1104H2.24992C1.86992 15.1104 1.62992 14.7104 1.81992 14.3904L8.27995 3.73041C8.46995 3.42041 8.93992 3.41041 9.12992 3.73041L11.6899 7.9404C11.7799 8.0804 11.7799 8.2604 11.6899 8.4104Z" />
<path d="M13.72 14.4902H10.24C10.04 14.4902 9.91006 14.2702 10.0101 14.0902L11.7501 11.1402C11.8501 10.9702 12.1001 10.9702 12.2001 11.1402L13.9401 14.0902C14.0501 14.2702 13.92 14.4902 13.72 14.4902Z" />
<path d="M13.6599 3.39999L12.21 5.87C12.11 6.04 11.85 6.04 11.75 5.87L10.2999 3.39999C10.1999 3.21999 10.32 3 10.53 3H13.43C13.64 3 13.7599 3.21999 13.6599 3.39999Z" />
<path d="M22.17 14.3704C22.37 14.7004 22.12 15.1204 21.74 15.1204H16.87C16.7 15.1204 16.55 15.0304 16.46 14.8904L12.65 8.42041C12.56 8.27041 12.56 8.0904 12.65 7.9404L15.12 3.73041C15.3 3.42041 15.76 3.41041 15.94 3.73041C17.16 5.84041 20.89 12.1804 22.17 14.3704Z" />
<path d="M21.93 16.7695C21.38 17.6995 20.79 18.6995 20.25 19.6095C20.12 19.8295 19.81 19.8195 19.68 19.5995L18.02 16.7695C17.89 16.5495 18.05 16.2695 18.31 16.2695H21.64C21.9 16.2795 22.06 16.5495 21.93 16.7695Z" />
<path d="M18.02 21.0004H5.93994C5.57994 21.0004 5.35992 20.6104 5.53992 20.3004L7.86994 16.3404C7.94994 16.2004 8.09996 16.1104 8.26996 16.1104H15.6899C15.8499 16.1104 16.01 16.2004 16.09 16.3404L18.4199 20.3004C18.5999 20.6104 18.38 21.0004 18.02 21.0004Z" />
</svg>
