<svg width="24" height="24" viewBox="0 0 24 24"  xmlns="http://www.w3.org/2000/svg">
<path d="M21.4 12.95L18.62 14.34C18.43 14.44 18.2 14.4 18.04 14.25L16.17 12.38C15.97 12.18 15.97 11.87 16.17 11.67L18.07 9.77002C18.22 9.62002 18.46 9.58002 18.65 9.68002L21.4 11.06C22.19 11.44 22.19 12.56 21.4 12.95Z" />
<path d="M16.3 8.49045C16.61 8.64045 16.67 9.05047 16.43 9.29047L14.76 10.9605L14.05 11.6705C13.85 11.8705 13.54 11.8705 13.34 11.6705L6.19997 4.53046C5.79997 4.13046 6.26997 3.48047 6.77997 3.73047L16.3 8.49045Z" />
<path d="M2 20.1501V3.48008C2 3.04008 2.53 2.81007 2.85 3.12007L11.62 11.6301C11.83 11.8301 11.82 12.1601 11.61 12.3601L2.84 20.5201C2.52 20.8201 2 20.5901 2 20.1501Z" />
<path d="M16.2701 15.5197L6.88007 20.2197C6.37007 20.4697 5.90007 19.8197 6.30007 19.4197L13.3501 12.3697C13.5501 12.1697 13.8601 12.1697 14.0601 12.3697L16.4101 14.7197C16.6401 14.9597 16.5701 15.3697 16.2701 15.5197Z" />
</svg>
