<svg width="24" height="24" viewBox="0 0 24 24"  xmlns="http://www.w3.org/2000/svg">
<path d="M21.4 12.95L18.62 14.34C18.43 14.44 18.2 14.4 18.04 14.25L16.17 12.38C15.97 12.18 15.97 11.87 16.17 11.67L18.07 9.77002C18.22 9.62002 18.46 9.58002 18.65 9.68002L21.4 11.06C22.19 11.44 22.19 12.56 21.4 12.95Z" />
<path d="M16.3 8.48948C16.61 8.63948 16.67 9.04949 16.43 9.28949L14.76 10.9595L14.05 11.6695C13.85 11.8695 13.54 11.8695 13.34 11.6695L6.19997 4.52948C5.79997 4.12948 6.26997 3.4795 6.77997 3.7295L16.3 8.48948Z" />
<path d="M2 20.1491V3.47911C2 3.03911 2.53 2.80909 2.85 3.11909L11.62 11.6291C11.83 11.8291 11.82 12.1591 11.61 12.3591L2.84 20.5191C2.52 20.8191 2 20.5891 2 20.1491Z" />
<path d="M16.2701 15.5207L6.88007 20.2207C6.37007 20.4707 5.90007 19.8207 6.30007 19.4207L13.3501 12.3707C13.5501 12.1707 13.8601 12.1707 14.0601 12.3707L16.4101 14.7207C16.6401 14.9607 16.5701 15.3707 16.2701 15.5207Z" />
</svg>
