<?xml version="1.0" encoding="UTF-8"?>
<svg width="24" height="24" viewBox="0 0 24 24" xmlns="http://www.w3.org/2000/svg">
 <path d="m21.4 12.95-2.78 1.39c-0.19 0.1-0.42 0.06-0.58-0.09l-1.87-1.87c-0.2-0.2-0.2-0.51 0-0.71l1.9-1.9c0.15-0.15 0.39-0.19 0.58-0.09l2.75 1.38c0.79 0.38 0.79 1.5 0 1.89z"/>
 <path d="m16.3 8.4895c0.31 0.15 0.37 0.56001 0.13 0.80001l-1.67 1.67-0.71 0.71c-0.2 0.2-0.51 0.2-0.71 0l-7.14-7.14c-0.4-0.4 0.07-1.05 0.58-0.79998l9.52 4.76z"/>
 <path d="m2 20.149v-16.67c0-0.44 0.53-0.67002 0.85-0.36002l8.77 8.51c0.21 0.2 0.2 0.53-0.01 0.73l-8.77 8.16c-0.32 0.3-0.84 0.07-0.84-0.37z"/>
 <path d="m16.27 15.521-9.39 4.7c-0.51 0.25-0.98-0.4-0.58-0.8l7.05-7.05c0.2-0.2 0.51-0.2 0.71 0l2.35 2.35c0.23 0.24 0.16 0.65-0.14 0.8z"/>
</svg>
