<?xml version="1.0" encoding="UTF-8"?>
<svg width="24" height="24" viewBox="0 0 24 24" xmlns="http://www.w3.org/2000/svg">
 <path d="m5.9399 16.769-1.66 2.82c-0.12 0.21-0.43006 0.21-0.56006 0l-1.6899-2.82c-0.13-0.22 0.02997-0.49 0.27997-0.49h3.35c0.25 0 0.40003 0.28 0.28003 0.49z"/>
 <path d="m11.69 8.4104-3.95 6.47c-0.09 0.15-0.24999 0.23-0.41999 0.23h-5.07c-0.38 0-0.62-0.4-0.43-0.72l6.46-10.66c0.19-0.31 0.65997-0.32 0.84997 0l2.56 4.21c0.09 0.14 0.09 0.32 0 0.47z"/>
 <path d="m13.72 14.489h-3.48c-0.2 0-0.32994-0.22-0.2299-0.4l1.74-2.95c0.1-0.17 0.35-0.17 0.45 0l1.74 2.95c0.11 0.18-0.0201 0.4-0.2201 0.4z"/>
 <path d="m13.66 3.4-1.4499 2.47c-0.1 0.17-0.36 0.17-0.46 0l-1.4501-2.47c-0.1-0.18 0.0201-0.39999 0.2301-0.39999h2.9c0.21 0 0.3299 0.21999 0.2299 0.39999z"/>
 <path d="m22.17 14.37c0.2 0.33-0.05 0.75-0.43 0.75h-4.87c-0.17 0-0.32-0.09-0.41-0.23l-3.81-6.47c-0.09-0.15-0.09-0.33001 0-0.48001l2.47-4.21c0.18-0.31 0.64-0.32 0.82 0 1.22 2.11 4.95 8.45 6.23 10.64z"/>
 <path d="m21.93 16.77c-0.55 0.93-1.14 1.93-1.68 2.84-0.13 0.22-0.44 0.21-0.57-0.01l-1.66-2.83c-0.13-0.22 0.03-0.5 0.29-0.5h3.33c0.26 0.01 0.42 0.28 0.29 0.5z"/>
 <path d="m18.02 20.999h-12.08c-0.36 0-0.58002-0.39-0.40002-0.7l2.33-3.96c0.08-0.14 0.23002-0.23 0.40002-0.23h7.4199c0.16 0 0.3201 0.09 0.4001 0.23l2.3299 3.96c0.18 0.31-0.0399 0.7-0.3999 0.7z"/>
</svg>
