<?xml version="1.0" encoding="UTF-8"?>
<svg width="24" height="24" viewBox="0 0 24 24" xmlns="http://www.w3.org/2000/svg">
 <path d="m21.74 11.07c-0.05-0.51-0.48-0.89-0.99-0.89h-7.55c-0.55 0-1 0.45-1 1v1.71c0 0.55 0.45 1 1 1h4.51c-0.11 0.92-0.71 2.31-2.04 3.24-0.85 0.59-1.98 1-3.47 1-0.07 0-0.13 0-0.2-0.01-2.55-0.08-4.71-1.79-5.49-4.14-0.21-0.63-0.33001-1.29-0.33001-1.98s0.12-1.36 0.32-1.98c0.06-0.18001 0.13-0.35999 0.21-0.53999 0.92-2.07 2.93-3.53 5.29-3.6 0.06-0.01 0.13-0.01 0.2-0.01 1.43 0 2.5 0.46999 3.25 0.98999 0.39 0.27 0.91 0.21 1.25-0.12l1.39-1.36c0.44-0.43 0.4-1.16-0.1-1.52-1.59-1.17-3.53-1.86-5.79-1.86-0.07 0-0.13 1e-5 -0.2 0.01001-3.83 0.07-7.12 2.29-8.73 5.5-0.68 1.36-1.07 2.88-1.07 4.49s0.39 3.13 1.07 4.49h0.01c1.61 3.21 4.9 5.43 8.72 5.5 0.07 0.01 0.13 0.01 0.2 0.01 2.7 0 4.97-0.89 6.62-2.42 1.89-1.75 2.98-4.31 2.98-7.36 0-0.43-0.02-0.8-0.06-1.15z"/>
</svg>
