<?xml version="1.0" encoding="UTF-8"?>
<svg width="24" height="24" viewBox="0 0 24 24" xmlns="http://www.w3.org/2000/svg">
 <path d="m22.75 12c0 0.41-0.34 0.75-0.75 0.75h-2.04c-0.35 3.81-3.4 6.86-7.21 7.21v2.04c0 0.41-0.34 0.75-0.75 0.75s-0.75-0.34-0.75-0.75v-2.04c-0.61-0.05-1.21-0.18-1.78-0.37-0.71-0.24-0.93-1.14-0.4-1.67l2.81-2.81c0.04 0.01 0.07 0.01 0.11 0.01 1.73 0 3.12-1.39 3.12-3.12 0-0.04 0-0.07-0.01-0.11l2.81-2.81c0.53-0.53 1.43-0.31 1.67 0.4 0.19 0.57001 0.32 1.16 0.37 1.78h2.05c0.41-0.01 0.75 0.33 0.75 0.74z"/>
 <path d="m21.77 2.23c-0.3-0.3-0.79-0.3-1.09 0l-3.61 3.61c-1.2-0.99-2.7-1.64-4.33-1.79v-2.05c0-0.41-0.34-0.75-0.75-0.75s-0.75 0.34-0.75 0.75v2.04c-3.81 0.36-6.86 3.4-7.21 7.21h-2.03c-0.41 0-0.75 0.34-0.75 0.75s0.34 0.75 0.75 0.75h2.04c0.15 1.63 0.8 3.13 1.79 4.33l-3.61 3.61c-0.3 0.3-0.3 0.79 0 1.09 0.16 0.14 0.35 0.22 0.55 0.22s0.39-0.08 0.54-0.23l18.46-18.46c0.31-0.3 0.31-0.78 0-1.08zm-12.89 9.77c0-1.72 1.4-3.12 3.12-3.12 0.58 0 1.12 0.17 1.58 0.45l-4.25 4.25c-0.28-0.46-0.45-1-0.45-1.58z"/>
</svg>
