<?xml version="1.0" encoding="UTF-8"?>
<svg width="24" height="24" viewBox="0 0 24 24" xmlns="http://www.w3.org/2000/svg">
 <path d="m21.53 17.31v-0.16c0-1.93-0.98-2.9-2.9-2.9s-2.9 0.98-2.9 2.9v0.16c-1.05 0.26-1.47 0.98-1.47 2.42v0.74c0 1.85 0.69 2.53 2.53 2.53h3.68c1.85 0 2.53-0.69 2.53-2.53v-0.74c0-1.43-0.42-2.16-1.47-2.42zm-2.91-1.68c1.29 0 1.52 0.49 1.52 1.52v0.05h-3.04v-0.05c0-1.03 0.23-1.52 1.52-1.52z"/>
 <path d="m6.7468 2.0655c0.54986-0.07124 1.0032 0.38563 1.0032 0.94008v3.7944c0 0.55229-0.44772 1-1 1h-3.75c-0.55228 0-1.0082-0.44973-0.94133-0.99796 0.32766-2.6866 2.0132-4.39 4.6882-4.7366z"/>
 <path d="m20.93 7.8h-3.68c-0.5523 0-1-0.44772-1-1v-3.7938c0-0.55472 0.4541-1.0117 1.0042-0.93992 2.6336 0.34345 4.3103 2.0018 4.6758 4.6137 0.08 0.59-0.4 1.12-1 1.12z"/>
 <path d="m6.75 16.3c0.55228 0 1 0.4477 1 1v3.62c0 0.6-0.53 1.08-1.13 1-2.5691-0.3823-4.1899-2.0289-4.5463-4.6099-0.07621-0.552 0.38177-1.0101 0.93901-1.0101h3.7373z"/>
 <path d="m7.75 10.3c0-0.55228-0.44772-1-1-1h-3.75c-0.55228 0-1 0.44772-1 1v3.5c0 0.5523 0.44772 1 1 1h3.75c0.55228 0 1-0.4477 1-1v-3.5z"/>
 <path d="m14.75 10.3c0-0.55228-0.4477-1-1-1h-3.5c-0.55228 0-1 0.44772-1 1v3.5c0 0.5523 0.44772 1 1 1h3.5c0.55 0 1-0.45 1-1v-3.5z"/>
 <path d="m14.75 3c0-0.55229-0.4477-1-1-1h-3.5c-0.55228 0-1 0.44772-1 1v3.8c0 0.55229 0.44772 1 1 1h3.5c0.5523 0 1-0.44772 1-1v-3.8z"/>
</svg>
