<?xml version="1.0" encoding="UTF-8"?>
<svg width="24" height="24" viewBox="0 0 24 24" xmlns="http://www.w3.org/2000/svg">
 <path d="M7.75 2V7.8H2C2 4.19 4.15 2.02 7.75 2Z"/>
 <path d="M22 7.8H16.25V2C19.85 2.02 22 4.19 22 7.8Z"/>
 <path d="m22 16.3c-0.04 3.55-2.18 5.68-5.75 5.7v-5.7h5.75z"/>
 <path d="m7.75 16.3v5.7c-3.57-0.02-5.71-2.15-5.75-5.7h5.75z"/>
 <path d="m7.75 9.2998h-5.75v5.5h5.75v-5.5z"/>
 <path d="m22 9.2998h-5.75v5.5h5.75v-5.5z"/>
 <path d="m14.75 9.2998h-5.5v5.5h5.5v-5.5z"/>
 <path d="M14.75 2H9.25V7.8H14.75V2Z"/>
 <path d="m14.75 16.3h-5.5v5.7h5.5v-5.7z"/>
</svg>
