<?xml version="1.0" encoding="UTF-8"?>
<svg width="24" height="24" viewBox="0 0 24 24" xmlns="http://www.w3.org/2000/svg">
 <path d="m8.05 10.14v1.16h3.26v-3.25h-1.16c-1.16 0-2.1 0.94-2.1 2.09z"/>
 <path d="m8.05 13.86c0 1.15 0.94 2.09 2.09 2.09h1.16v-3.25h-3.25v1.16z"/>
 <path d="m12.7 15.95h1.16c1.15 0 2.09-0.94 2.09-2.09v-1.16h-3.25v3.25z"/>
 <path d="m16.19 2h-8.38c-3.64 0-5.81 2.17-5.81 5.81v8.37c0 3.65 2.17 5.82 5.81 5.82h8.37c3.64 0 5.81-2.17 5.81-5.81v-8.38c0.01-3.64-2.16-5.81-5.8-5.81zm1.16 11.86c0 1.92-1.57 3.49-3.49 3.49h-3.72c-1.92 0-3.49-1.56-3.49-3.49v-3.72c0-1.92 1.57-3.49 3.49-3.49h3.72c1.92 0 3.49 1.56 3.49 3.49v3.72z"/>
 <path d="m13.86 8.0498h-1.16v3.26h3.26v-1.16c-0.01-1.16-0.95-2.1-2.1-2.1z"/>
</svg>
