<?xml version="1.0" encoding="UTF-8"?>
<svg width="24" height="24" viewBox="0 0 24 24" xmlns="http://www.w3.org/2000/svg">
 <path d="m10.08 11.83h1.65l0.19-1.66h-1.65l-0.19 1.66z"/>
 <path d="m21.97 7.21c-0.2-3.08-2.1-4.98-5.18-5.18-0.2-0.02-0.4-0.03-0.6-0.03h-8.38c-0.2 0-0.4 0.01-0.6 0.03-3.08 0.2-4.98 2.1-5.18 5.18-0.02 0.2-0.03 0.4-0.03 0.6v8.38c0 0.2 0.01 0.4 0.03 0.6 0.2 3.08 2.1 4.98 5.18 5.18 0.2 0.02 0.4 0.03 0.6 0.03h5.69c0.55 0 1-0.45 1-1v-2.97c0-1.95 1.58-3.53 3.53-3.53h2.97c0.55 0 1-0.45 1-1v-5.69c0-0.2-0.01-0.4-0.03-0.6zm-5.97 2.96h-2.57l-0.19 1.66h2.23c0.42 0 0.75 0.34 0.75 0.75s-0.33 0.75-0.75 0.75h-2.39l-0.28 2.49c-0.04 0.38-0.37 0.67-0.75 0.67-0.02 0-0.05 0-0.08-0.01-0.41-0.04-0.71-0.41-0.66-0.83l0.26-2.32h-1.65l-0.28 2.49c-0.04 0.38-0.37 0.67-0.74 0.67-0.03 0-0.06 0-0.09-0.01-0.41-0.04-0.71-0.41-0.66-0.83l0.26-2.32h-2.41c-0.41 0-0.75-0.34-0.75-0.75s0.34-0.75 0.75-0.75h2.57l0.19-1.66h-2.23c-0.42 0-0.75-0.34-0.75-0.75s0.33-0.75 0.75-0.75h2.39l0.28-2.49c0.05-0.41 0.42-0.71 0.83-0.66 0.41 0.04 0.71 0.41 0.66 0.83l-0.26 2.32h1.65l0.28-2.49c0.05-0.41 0.42-0.71 0.83-0.66 0.41 0.04 0.71 0.41 0.66 0.83l-0.26 2.32h2.41c0.41 0 0.75 0.34 0.75 0.75s-0.34 0.75-0.75 0.75z"/>
 <path d="m20.97 23h-2.94c-1.27 0-2.03-0.76-2.03-2.03v-2.94c0-1.27 0.76-2.03 2.03-2.03h2.94c1.27 0 2.03 0.76 2.03 2.03v2.94c0 1.27-0.76 2.03-2.03 2.03zm0.22-3.31c-0.12-0.12-0.28-0.18-0.44-0.18s-0.32 0.06-0.44 0.18l-0.18 0.18v-2.24c0-0.35-0.28-0.63-0.63-0.63s-0.63 0.28-0.63 0.63v2.24l-0.18-0.18c-0.24-0.24-0.64-0.24-0.88 0s-0.24 0.64 0 0.88l1.25 1.25c0.05 0.05 0.12 0.09 0.19 0.12 0.02 0.01 0.04 0.01 0.06 0.02 0.05 0.02 0.1 0.03 0.16 0.03h0.06c0.07 0 0.13-0.01 0.2-0.04h0.02c0.07-0.03 0.13-0.07 0.18-0.12 0.01-0.01 0.01-0.01 0.02-0.01l1.25-1.25c0.24-0.24 0.24-0.64-0.01-0.88z"/>
</svg>
