<?xml version="1.0" encoding="UTF-8"?>
<svg width="24" height="24" viewBox="0 0 24 24" xmlns="http://www.w3.org/2000/svg">
 <path d="m10.42 13.42h2.84l0.32-2.84h-2.84l-0.32 2.84z"/>
 <path d="m16.19 2h-8.38c-3.64 0-5.81 2.17-5.81 5.81v8.37c0 3.65 2.17 5.82 5.81 5.82h8.37c3.64 0 5.81-2.17 5.81-5.81v-8.38c0.01-3.64-2.16-5.81-5.8-5.81zm2.63 8.58h-3.77l-0.32 2.85h3.37c0.4 0 0.73 0.33 0.73 0.73s-0.33 0.73-0.73 0.73h-3.53l-0.41 3.66c-0.04 0.37-0.36 0.65-0.73 0.65h-0.08c-0.4-0.04-0.69-0.41-0.65-0.81l0.39-3.5h-2.84l-0.41 3.66c-0.04 0.37-0.36 0.65-0.73 0.65h-0.08c-0.4-0.04-0.69-0.41-0.65-0.81l0.39-3.5h-3.59c-0.4 0-0.73-0.33-0.73-0.73s0.33-0.73 0.73-0.73h3.77l0.32-2.85h-3.37c-0.4 0-0.73-0.33-0.73-0.73s0.33-0.73 0.73-0.73h3.53l0.41-3.66c0.04-0.4 0.41-0.69 0.81-0.65s0.69 0.41 0.65 0.81l-0.39 3.5h2.84l0.41-3.66c0.05-0.4 0.41-0.69 0.81-0.65s0.69 0.41 0.65 0.81l-0.39 3.5h3.61c0.4 0 0.73 0.33 0.73 0.73s-0.35 0.73-0.75 0.73z"/>
</svg>
