<?xml version="1.0" encoding="UTF-8"?>
<svg width="24" height="24" viewBox="0 0 24 24" xmlns="http://www.w3.org/2000/svg">
 <path d="m8.5 12.75c-0.41 0-0.75-0.34-0.75-0.75v-6c0-0.41 0.34-0.75 0.75-0.75s0.75 0.34 0.75 0.75v6c0 0.41-0.34 0.75-0.75 0.75z"/>
 <path d="m8.5 22.75c-0.41 0-0.75-0.34-0.75-0.75v-4c0-0.41 0.34-0.75 0.75-0.75s0.75 0.34 0.75 0.75v4c0 0.41-0.34 0.75-0.75 0.75z"/>
 <path d="m15.5 22.75c-0.41 0-0.75-0.34-0.75-0.75v-16c0-0.41 0.34-0.75 0.75-0.75s0.75 0.34 0.75 0.75v16c0 0.41-0.34 0.75-0.75 0.75z"/>
 <path d="m10.1 5.3c0 0.49-0.19995 0.94-0.52995 1.27s-0.78 0.53-1.27 0.53h-2.25c0.28-0.37 0.45-0.85 0.45-1.35v-0.9c0-0.5-0.17-0.98-0.45-1.35h2.25c0.99 0 1.8 0.81 1.8 1.8z"/>
 <path d="m6.5 4.8503v0.9c0 0.5-0.17 0.98-0.45 1.35-0.76 1.01-2.32 1.35-3.77 0.06-0.16-0.14-0.28-0.44-0.28-0.65v-2.34c0-0.2 0.1-0.47 0.23-0.61 1.26-1.32 2.78-1.13 3.61-0.3 0.07 0.07 0.15 0.15 0.21 0.24 0.28 0.37 0.45 0.85 0.45 1.35z"/>
 <path d="m13.9 5.3c0 0.49 0.2 0.94 0.53 1.27s0.78 0.53 1.27 0.53h2.25c-0.28-0.37-0.45-0.85-0.45-1.35v-0.9c0-0.5 0.17-0.98 0.45-1.35h-2.25c-0.99 0-1.8 0.81-1.8 1.8z"/>
 <path d="m17.5 4.8503v0.9c0 0.5 0.17 0.98 0.45 1.35 0.76 1.01 2.32 1.35 3.77 0.06 0.16-0.14 0.28-0.44 0.28-0.65v-2.34c0-0.19-0.1-0.47-0.23-0.61-1.26-1.32-2.78-1.13-3.61-0.3-0.07 0.07-0.14 0.15-0.21 0.24-0.28 0.37-0.45 0.85-0.45 1.35z"/>
 <path d="m10 13.5v4c0 0.83-0.67 1.5-1.5 1.5s-1.5-0.67-1.5-1.5v-4c0-0.83 0.67-1.5 1.5-1.5s1.5 0.67 1.5 1.5z"/>
</svg>
