<?xml version="1.0" encoding="UTF-8"?>
<svg width="24" height="24" viewBox="0 0 24 24" xmlns="http://www.w3.org/2000/svg">
 <path d="m20.68 13.91v-0.01c-0.88-0.93-2.11-1.5-3.48-1.5-2.65 0-4.8 2.15-4.8 4.8 0 1.23 0.47 2.35 1.23 3.2 0.88 0.98 2.15 1.6 3.57 1.6 2.65 0 4.8-2.15 4.8-4.8 0-1.27-0.5-2.43-1.32-3.29zm-1.69 4.1h-1.04v1.09c0 0.41-0.34 0.75-0.75 0.75s-0.75-0.34-0.75-0.75v-1.09h-1.04c-0.42 0-0.75-0.33-0.75-0.75 0-0.41 0.32-0.74 0.74-0.75h1.05v-1c0-0.02 0-0.04 0.01-0.06 0.02-0.38 0.35-0.69 0.74-0.69 0.4 0 0.73 0.32 0.75 0.72v1.03h1.04c0.42 0 0.75 0.34 0.75 0.75 0 0.42-0.33 0.75-0.75 0.75z"/>
 <path d="m22 8.7296c0 1.19-0.19 2.29-0.52 3.31-0.06 0.21-0.31 0.27-0.49 0.14-1.09-0.81-2.42-1.24-3.79-1.24-3.47 0-6.3 2.83-6.3 6.3 0 1.08 0.28 2.14 0.81 3.08 0.16 0.28-0.03 0.6401-0.33 0.53-2.41-0.82-7.28-3.81-8.86-8.81-0.33-1.02-0.52-2.12-0.52-3.31 0-3.09 2.49-5.59 5.56-5.59 1.81 0 3.43 0.88 4.44 2.23 1.01-1.35 2.63-2.23 4.44-2.23 3.07 0 5.56 2.5 5.56 5.59z"/>
</svg>
