<?xml version="1.0" encoding="UTF-8"?>
<svg width="24" height="24" viewBox="0 0 24 24" xmlns="http://www.w3.org/2000/svg">
 <path d="m20.69 13.92c-0.01 0-0.01-0.01-0.01-0.01v-0.01c-0.88-0.92-2.11-1.5-3.48-1.5-2.65 0-4.8 2.15-4.8 4.8 0 1.23 0.47 2.35 1.23 3.2 0.88 0.98 2.15 1.6 3.57 1.6 2.65 0 4.8-2.15 4.8-4.8 0-1.27-0.5-2.42-1.31-3.28zm-1.68 5.15c-0.14 0.14-0.34 0.22-0.53 0.22s-0.38-0.08-0.53-0.22l-0.74-0.74-0.76 0.77c-0.15 0.14-0.34 0.22-0.53 0.22-0.1 0-0.19-0.02-0.28-0.06-0.09-0.03-0.18-0.09-0.25-0.16-0.3-0.3-0.3-0.77 0-1.06l0.76-0.77-0.73-0.74c-0.3-0.29-0.3-0.77 0-1.06 0.29-0.29 0.76-0.29 1.06 0l0.73 0.74 0.71-0.71c0.3-0.29 0.77-0.29 1.06 0 0.17 0.17 0.24 0.39 0.21 0.61-0.01 0.17-0.08 0.33-0.21 0.45l-0.71 0.71 0.74 0.74c0.3 0.29 0.3 0.76 0 1.06z"/>
 <path d="m22 8.7296c0 1.19-0.19 2.29-0.52 3.31-0.06 0.21-0.31 0.27-0.49 0.14-1.09-0.81-2.42-1.24-3.79-1.24-3.47 0-6.3 2.83-6.3 6.3 0 1.08 0.28 2.14 0.81 3.08 0.16 0.28-0.03 0.6401-0.33 0.53-2.41-0.82-7.28-3.81-8.86-8.81-0.33-1.02-0.52-2.12-0.52-3.31 0-3.09 2.49-5.59 5.56-5.59 1.81 0 3.43 0.88 4.44 2.23 1.01-1.35 2.63-2.23 4.44-2.23 3.07 0 5.56 2.5 5.56 5.59z"/>
</svg>
