<svg width="24" height="24" viewBox="0 0 24 24"  xmlns="http://www.w3.org/2000/svg">
<path d="M17.1999 12.3999C14.5499 12.3999 12.3999 14.5499 12.3999 17.1999C12.3999 18.0999 12.6499 18.9499 13.0999 19.6699C13.9299 21.0599 15.4499 21.9999 17.1999 21.9999C18.9499 21.9999 20.4799 21.0599 21.2999 19.6699C21.7399 18.9499 21.9999 18.0999 21.9999 17.1999C21.9999 14.5499 19.8499 12.3999 17.1999 12.3999ZM19.5799 16.5699L17.0199 18.9299C16.8799 19.0599 16.6899 19.1299 16.5099 19.1299C16.3199 19.1299 16.1299 19.0599 15.9799 18.9099L14.7999 17.7299C14.5099 17.4399 14.5099 16.9599 14.7999 16.6699C15.0899 16.3799 15.5699 16.3799 15.8599 16.6699L16.5299 17.3399L18.5599 15.4599C18.8599 15.1799 19.3399 15.1999 19.6199 15.4999C19.8999 15.8099 19.8799 16.2899 19.5799 16.5699Z" />
<path d="M22 8.72989C22 9.91989 21.81 11.0199 21.48 12.0399C21.42 12.2499 21.17 12.3099 20.99 12.1799C19.9 11.3699 18.57 10.9399 17.2 10.9399C13.73 10.9399 10.9 13.7699 10.9 17.2399C10.9 18.3199 11.18 19.3799 11.71 20.3199C11.87 20.5999 11.68 20.9599 11.38 20.8499C8.97 20.0299 4.1 17.0399 2.52 12.0399C2.19 11.0199 2 9.91989 2 8.72989C2 5.63989 4.49 3.13989 7.56 3.13989C9.37 3.13989 10.99 4.01989 12 5.36989C13.01 4.01989 14.63 3.13989 16.44 3.13989C19.51 3.13989 22 5.63989 22 8.72989Z" />
</svg>
