<?xml version="1.0" encoding="UTF-8"?>
<svg width="24" height="24" viewBox="0 0 24 24" xmlns="http://www.w3.org/2000/svg">
 <path d="m21.74 20.51-0.86-0.86c0.45-0.68 0.71-1.49 0.71-2.36 0-2.37-1.92-4.3-4.3-4.3s-4.29 1.93-4.29 4.31 1.92 4.3 4.3 4.3c0.87 0 1.68-0.26 2.36-0.71l0.86 0.86c0.17 0.17 0.39 0.26 0.62 0.26s0.45-0.09 0.62-0.26c0.33-0.35 0.33-0.9-0.02-1.24z"/>
 <path d="m22 8.7296c0 1.19-0.19 2.29-0.52 3.31-0.06 0.21-0.31 0.27-0.49 0.14-1.09-0.81-2.42-1.24-3.79-1.24-3.47 0-6.3 2.83-6.3 6.3 0 1.08 0.28 2.14 0.81 3.08 0.16 0.28-0.03 0.6401-0.33 0.53-2.41-0.82-7.28-3.81-8.86-8.81-0.33-1.02-0.52-2.12-0.52-3.31 0-3.09 2.49-5.59 5.56-5.59 1.81 0 3.43 0.88 4.44 2.23 1.01-1.35 2.63-2.23 4.44-2.23 3.07 0 5.56 2.5 5.56 5.59z"/>
</svg>
