<svg width="24" height="24" viewBox="0 0 24 24"  xmlns="http://www.w3.org/2000/svg">
<path d="M20.6899 13.9199C20.6799 13.9199 20.6799 13.9099 20.6799 13.9099V13.8999C19.7999 12.9799 18.5699 12.3999 17.1999 12.3999C14.5499 12.3999 12.3999 14.5499 12.3999 17.1999C12.3999 18.4299 12.8699 19.5499 13.6299 20.3999C14.5099 21.3799 15.7799 21.9999 17.1999 21.9999C19.8499 21.9999 21.9999 19.8499 21.9999 17.1999C21.9999 15.9299 21.4999 14.7799 20.6899 13.9199ZM19.0099 19.0699C18.8699 19.2099 18.6699 19.2899 18.4799 19.2899C18.2899 19.2899 18.0999 19.2099 17.9499 19.0699L17.2099 18.3299L16.4499 19.0999C16.2999 19.2399 16.1099 19.3199 15.9199 19.3199C15.8199 19.3199 15.7299 19.2999 15.6399 19.2599C15.5499 19.2299 15.4599 19.1699 15.3899 19.0999C15.0899 18.7999 15.0899 18.3299 15.3899 18.0399L16.1499 17.2699L15.4199 16.5299C15.1199 16.2399 15.1199 15.7599 15.4199 15.4699C15.7099 15.1799 16.1799 15.1799 16.4799 15.4699L17.2099 16.2099L17.9199 15.4999C18.2199 15.2099 18.6899 15.2099 18.9799 15.4999C19.1499 15.6699 19.2199 15.8899 19.1899 16.1099C19.1799 16.2799 19.1099 16.4399 18.9799 16.5599L18.2699 17.2699L19.0099 18.0099C19.3099 18.2999 19.3099 18.7699 19.0099 19.0699Z" />
<path d="M22 8.72989C22 9.91989 21.81 11.0199 21.48 12.0399C21.42 12.2499 21.17 12.3099 20.99 12.1799C19.9 11.3699 18.57 10.9399 17.2 10.9399C13.73 10.9399 10.9 13.7699 10.9 17.2399C10.9 18.3199 11.18 19.3799 11.71 20.3199C11.87 20.5999 11.68 20.9599 11.38 20.8499C8.97 20.0299 4.1 17.0399 2.52 12.0399C2.19 11.0199 2 9.91989 2 8.72989C2 5.63989 4.49 3.13989 7.56 3.13989C9.37 3.13989 10.99 4.01989 12 5.36989C13.01 4.01989 14.63 3.13989 16.44 3.13989C19.51 3.13989 22 5.63989 22 8.72989Z" />
</svg>
