<?xml version="1.0" encoding="UTF-8"?>
<svg width="24" height="24" viewBox="0 0 24 24" xmlns="http://www.w3.org/2000/svg">
 <path d="m22 8.6901c0 1.19-0.19 2.29-0.52 3.31-1.58 5-6.45 7.99-8.86 8.81-0.34 0.12-0.9 0.12-1.24 0-0.64-0.22-1.45-0.59-2.32-1.11-0.56-0.33-0.65-1.11-0.19-1.57l11.28-11.28c0.54-0.54 1.49-0.31 1.68 0.43 0.11 0.45 0.17 0.92 0.17 1.41z"/>
 <path d="m22.53 1.4704c-0.29-0.29-0.77-0.29-1.06 0l-2.34 2.34c-0.79-0.45-1.71-0.71-2.69-0.71-1.81 0-3.43 0.88-4.44 2.23-1.01-1.35-2.63-2.23-4.44-2.23-3.07 0-5.56 2.5-5.56 5.59 0 1.19 0.19 2.29 0.52 3.31 0.65 2.07 1.87 3.8 3.25 5.17l-4.3 4.3c-0.29 0.29-0.29 0.77 0 1.06 0.15 0.15 0.34 0.22 0.53 0.22s0.38-0.07 0.53-0.22l20-20c0.29-0.29 0.29-0.77 0-1.06z"/>
</svg>
