<svg width="24" height="24" viewBox="0 0 24 24"  xmlns="http://www.w3.org/2000/svg">
<path d="M22.0001 8.69008C22.0001 9.88008 21.8101 10.9801 21.4801 12.0001C19.9001 17.0001 15.0301 19.9901 12.6201 20.8101C12.2801 20.9301 11.7201 20.9301 11.3801 20.8101C10.7401 20.5901 9.93012 20.2201 9.06012 19.7001C8.50012 19.3701 8.41012 18.5901 8.87012 18.1301L20.1501 6.85008C20.6901 6.31008 21.6401 6.54008 21.8301 7.28008C21.9401 7.73008 22.0001 8.20008 22.0001 8.69008Z" />
<path d="M22.5299 1.47043C22.2399 1.18043 21.7599 1.18043 21.4699 1.47043L19.1299 3.81043C18.3399 3.36043 17.4199 3.10043 16.4399 3.10043C14.6299 3.10043 13.0099 3.98043 11.9999 5.33043C10.9899 3.98043 9.36994 3.10043 7.55994 3.10043C4.48994 3.10043 1.99994 5.60043 1.99994 8.69043C1.99994 9.88043 2.18994 10.9804 2.51994 12.0004C3.16994 14.0704 4.38994 15.8004 5.76994 17.1704L1.46994 21.4704C1.17994 21.7604 1.17994 22.2404 1.46994 22.5304C1.61994 22.6804 1.80994 22.7504 1.99994 22.7504C2.18994 22.7504 2.37994 22.6804 2.52994 22.5304L22.5299 2.53043C22.8199 2.24043 22.8199 1.76043 22.5299 1.47043Z" />
</svg>
