<?xml version="1.0" encoding="UTF-8"?>
<svg width="24" height="24" viewBox="0 0 24 24" xmlns="http://www.w3.org/2000/svg">
 <path d="m17.2 12.4c-2.65 0-4.8 2.15-4.8 4.8 0 0.9 0.25 1.75 0.7 2.47 0.83 1.39 2.35 2.33 4.1 2.33s3.28-0.94 4.1-2.33c0.44-0.72 0.7-1.57 0.7-2.47 0-2.65-2.15-4.8-4.8-4.8zm2.38 4.17-2.56 2.36c-0.14 0.13-0.33 0.2-0.51 0.2-0.19 0-0.38-0.07-0.53-0.22l-1.18-1.18c-0.29-0.29-0.29-0.77 0-1.06s0.77-0.29 1.06 0l0.67 0.67 2.03-1.88c0.3-0.28 0.78-0.26 1.06 0.04 0.28 0.31 0.26 0.79-0.04 1.07z"/>
 <path d="m22 8.7296c0 1.19-0.19 2.29-0.52 3.31-0.06 0.21-0.31 0.27-0.49 0.14-1.09-0.81-2.42-1.24-3.79-1.24-3.47 0-6.3 2.83-6.3 6.3 0 1.08 0.28 2.14 0.81 3.08 0.16 0.28-0.03 0.6401-0.33 0.53-2.41-0.82-7.28-3.81-8.86-8.81-0.33-1.02-0.52-2.12-0.52-3.31 0-3.09 2.49-5.59 5.56-5.59 1.81 0 3.43 0.88 4.44 2.23 1.01-1.35 2.63-2.23 4.44-2.23 3.07 0 5.56 2.5 5.56 5.59z"/>
</svg>
