<svg width="24" height="24" viewBox="0 0 24 24"  xmlns="http://www.w3.org/2000/svg">
<path d="M20.6799 13.9099V13.8999C19.7999 12.9699 18.5699 12.3999 17.1999 12.3999C14.5499 12.3999 12.3999 14.5499 12.3999 17.1999C12.3999 18.4299 12.8699 19.5499 13.6299 20.3999C14.5099 21.3799 15.7799 21.9999 17.1999 21.9999C19.8499 21.9999 21.9999 19.8499 21.9999 17.1999C21.9999 15.9299 21.4999 14.7699 20.6799 13.9099ZM18.9899 18.0099H17.9499V19.0999C17.9499 19.5099 17.6099 19.8499 17.1999 19.8499C16.7899 19.8499 16.4499 19.5099 16.4499 19.0999V18.0099H15.4099C14.9899 18.0099 14.6599 17.6799 14.6599 17.2599C14.6599 16.8499 14.9799 16.5199 15.3999 16.5099H16.4499V15.5099C16.4499 15.4899 16.4499 15.4699 16.4599 15.4499C16.4799 15.0699 16.8099 14.7599 17.1999 14.7599C17.5999 14.7599 17.9299 15.0799 17.9499 15.4799V16.5099H18.9899C19.4099 16.5099 19.7399 16.8499 19.7399 17.2599C19.7399 17.6799 19.4099 18.0099 18.9899 18.0099Z" />
<path d="M22 8.72989C22 9.91989 21.81 11.0199 21.48 12.0399C21.42 12.2499 21.17 12.3099 20.99 12.1799C19.9 11.3699 18.57 10.9399 17.2 10.9399C13.73 10.9399 10.9 13.7699 10.9 17.2399C10.9 18.3199 11.18 19.3799 11.71 20.3199C11.87 20.5999 11.68 20.9599 11.38 20.8499C8.97 20.0299 4.1 17.0399 2.52 12.0399C2.19 11.0199 2 9.91989 2 8.72989C2 5.63989 4.49 3.13989 7.56 3.13989C9.37 3.13989 10.99 4.01989 12 5.36989C13.01 4.01989 14.63 3.13989 16.44 3.13989C19.51 3.13989 22 5.63989 22 8.72989Z" />
</svg>
