<?xml version="1.0" encoding="UTF-8"?>
<svg width="24" height="24" viewBox="0 0 24 24" xmlns="http://www.w3.org/2000/svg">
 <path d="m10.87 14 1.93 3.33-1.92 3.33h-3.88l-1.91-3.31 1.94-3.35h3.84z" opacity=".13"/>
 <path d="m10.54 14.08h-3.42c-0.18 0-0.33999 0.1-0.42999 0.25l-1.71 2.96c-0.09 0.15-0.09 0.35 0 0.5l1.71 2.96c0.09 0.15 0.24999 0.25 0.42999 0.25h3.42c0.18 0 0.34-0.1 0.43-0.25l1.71-2.96c0.09-0.15 0.09-0.35 0-0.5l-1.71-2.96c-0.09-0.16-0.25-0.25-0.43-0.25z"/>
 <path d="m22.24 11.74c0.09 0.16 0.09 0.36 0 0.52l-4.93 8.53c-0.07 0.13-0.21 0.21-0.36 0.21-0.32 0-0.52-0.35-0.36-0.62l3.29-5.7c0.09-0.16 0.09-0.36 0-0.52l-4.4-7.62c-0.09-0.16-0.26-0.26-0.45-0.26h-8.81c-0.19 0-0.35001 0.1-0.45001 0.26l-3.27 5.68c-0.17 0.3-0.6 0.3-0.78 0-0.08-0.14-0.08-0.31 0-0.45l4.92-8.52c0.08-0.16 0.25998-0.26001 0.44998-0.26001h9.79c0.19 0 0.35 0.10001 0.45 0.26001l4.91 8.49z"/>
 <path d="m18.09 14.68-3.5 6.06c-0.09 0.16-0.26 0.26-0.45 0.26h-0.6c-0.4 0-0.65-0.43-0.45-0.78l1.4-2.42c0.09-0.16 0.09-0.36 0-0.52l-2.6-4.5c-0.1-0.16-0.28-0.26-0.47-0.26h-5.2c-0.19 0-0.35002 0.1-0.45002 0.26l-1.4 2.42c-0.2 0.35-0.69999 0.35-0.89999 0l-0.29999-0.51c-0.09-0.16-0.09-0.36 0-0.52l3.49-6.06c0.09-0.16 0.25998-0.26 0.44998-0.26h6.99c0.19 0 0.35 0.1 0.45 0.26l3.5 6.06c0.12 0.15 0.12 0.36 0.04 0.51z"/>
</svg>
