<?xml version="1.0" encoding="UTF-8"?>
<svg width="24" height="24" viewBox="0 0 24 24" xmlns="http://www.w3.org/2000/svg">
 <path d="m16.19 2h-8.38c-3.64 0-5.81 2.17-5.81 5.81v8.37c0 3.65 2.17 5.82 5.81 5.82h8.37c3.64 0 5.81-2.17 5.81-5.81v-8.38c0.01-3.64-2.16-5.81-5.8-5.81zm-6.34 14.45c0 1.13-0.92 2.05-2.05 2.05s-2.05-0.92-2.05-2.05c0-0.87 0.54-1.6 1.3-1.9v-4.29c-0.84-0.31-1.45-1.11-1.45-2.06 0-1.21 0.99-2.2 2.2-2.2s2.2 0.99 2.2 2.2c0 0.95-0.61 1.75-1.45 2.06v4.29c0.76 0.3 1.3 1.04 1.3 1.9zm6.9 2.05c-1.13 0-2.05-0.92-2.05-2.05 0-0.87 0.54-1.6 1.3-1.9v-5.8c0-0.14-0.11-0.25-0.25-0.25h-1.13l0.21 0.17c0.32 0.27 0.36 0.74 0.1 1.06-0.15 0.18-0.37 0.27-0.58 0.27-0.17 0-0.34-0.06-0.48-0.17l-1.8-1.5c-0.17-0.15-0.27-0.36-0.27-0.58s0.1-0.43 0.27-0.58l1.8-1.5c0.32-0.26 0.79-0.22 1.06 0.1s0.22 0.79-0.1 1.06l-0.21 0.17h1.13c0.96 0 1.75 0.79 1.75 1.75v5.8c0.76 0.3 1.3 1.04 1.3 1.9 0 1.13-0.92 2.05-2.05 2.05z"/>
</svg>
