<?xml version="1.0" encoding="UTF-8"?>
<svg width="24" height="24" viewBox="0 0 24 24" xmlns="http://www.w3.org/2000/svg">
 <path d="m5.25 8.5c1.7949 0 3.25-1.4551 3.25-3.25s-1.4551-3.25-3.25-3.25-3.25 1.4551-3.25 3.25 1.4551 3.25 3.25 3.25z"/>
 <path d="m5 22c1.6568 0 3-1.3431 3-3s-1.3432-3-3-3-3 1.3431-3 3 1.3432 3 3 3z"/>
 <path d="m19 22c1.6569 0 3-1.3431 3-3s-1.3431-3-3-3-3 1.3431-3 3 1.3431 3 3 3z"/>
 <path d="m19.17 15.98c-0.97-2.78-3.59-4.65-6.54-4.65h-0.03l-3.53 0.01c-1.52 0.02-2.88-1.01-3.29-2.49v-1.84c0-0.42-0.34-0.76-0.77-0.76s-0.76 0.34-0.76 0.76v11.22c0 0.42 0.34 0.76 0.76 0.76s0.77-0.34 0.77-0.76v-6.62c0.88 0.78 2.03 1.26 3.28 1.26h0.02l3.53-0.01h0.02c2.29 0 4.34 1.45 5.09 3.62 0.12 0.32 0.41 0.52 0.73 0.52 0.08 0 0.17-0.01 0.25-0.04 0.4-0.14 0.61-0.58 0.47-0.98z"/>
</svg>
