<?xml version="1.0" encoding="UTF-8"?>
<svg width="24" height="24" viewBox="0 0 24 24" xmlns="http://www.w3.org/2000/svg">
 <path d="m18.75 22c1.7949 0 3.25-1.4551 3.25-3.25s-1.4551-3.25-3.25-3.25-3.25 1.4551-3.25 3.25 1.4551 3.25 3.25 3.25z"/>
 <path d="m19 8c1.6569 0 3-1.3432 3-3s-1.3431-3-3-3-3 1.3432-3 3 1.3431 3 3 3z"/>
 <path d="m5 8c1.6568 0 3-1.3432 3-3s-1.3432-3-3-3-3 1.3432-3 3 1.3432 3 3 3z"/>
 <path d="m4.83 8.02c0.97 2.78 3.59 4.65 6.54 4.65h0.03l3.53-0.01c1.52-0.02 2.88 1.01 3.29 2.49v1.85c0 0.42 0.34 0.76 0.77 0.76 0.42 0 0.76-0.34 0.76-0.76v-11.24c0-0.42-0.34-0.76-0.76-0.76s-0.77 0.34-0.77 0.76v6.62c-0.88-0.78-2.03-1.26-3.28-1.26h-0.02l-3.53 0.01h-0.02c-2.29 0-4.34-1.45-5.09-3.62-0.12-0.31-0.41-0.51-0.73-0.51-0.08 0-0.17 0.02-0.25 0.04-0.4 0.14-0.61 0.58-0.47 0.98z"/>
</svg>
