<?xml version="1.0" encoding="UTF-8"?>
<svg width="24" height="24" viewBox="0 0 24 24" xmlns="http://www.w3.org/2000/svg">
 <path d="m16.19 2h-8.38c-3.64 0-5.81 2.17-5.81 5.81v8.37c0 3.65 2.17 5.82 5.81 5.82h8.37c3.64 0 5.81-2.17 5.81-5.81v-8.38c0.01-3.64-2.16-5.81-5.8-5.81zm0.01 16.25c-1.13 0-2.05-0.92-2.05-2.05 0-0.66 0.32-1.24 0.81-1.62-0.42-1.1-1.47-1.86-2.65-1.82l-2.06 0.01h-0.01c-0.61 0-1.19-0.18-1.68-0.49v2.02c0.76 0.3 1.3 1.04 1.3 1.9 0 1.13-0.92 2.05-2.05 2.05s-2.05-0.92-2.05-2.05c0-0.87 0.54-1.6 1.3-1.9v-4.35c-0.76-0.35-1.3-1.11-1.3-2 0-1.21 0.99-2.2 2.2-2.2s2.2 0.99 2.2 2.2c0 0.98-0.65 1.8-1.54 2.09 0.2 0.73 0.86 1.24 1.62 1.24h0.01l2.06-0.01h0.02c1.84 0 3.49 1.17 4.09 2.91 1.03 0.11 1.84 0.97 1.84 2.03-0.01 1.12-0.93 2.04-2.06 2.04z"/>
</svg>
