<?xml version="1.0" encoding="UTF-8"?>
<svg width="24" height="24" viewBox="0 0 24 24" xmlns="http://www.w3.org/2000/svg">
 <path d="m16.19 2h-8.38c-3.64 0-5.81 2.17-5.81 5.81v8.37c0 3.65 2.17 5.82 5.81 5.82h8.37c3.64 0 5.81-2.17 5.81-5.81v-8.38c0.01-3.64-2.16-5.81-5.8-5.81zm0.22 7.83c-0.61 1.74-2.25 2.91-4.09 2.91h-0.02l-2.06-0.01h-0.01c-0.76 0-1.42 0.51-1.62 1.24 0.89 0.28 1.54 1.11 1.54 2.09 0 1.21-0.99 2.2-2.2 2.2s-2.2-0.99-2.2-2.2c0-0.89 0.54-1.66 1.3-2v-4.36c-0.76-0.3-1.3-1.04-1.3-1.9 0-1.13 0.92-2.05 2.05-2.05s2.05 0.92 2.05 2.05c0 0.87-0.54 1.6-1.3 1.9v2.02c0.49-0.31 1.07-0.49 1.68-0.49h0.01l2.06 0.01c1.18 0.04 2.23-0.72 2.65-1.82-0.49-0.38-0.81-0.96-0.81-1.62 0-1.13 0.92-2.05 2.05-2.05s2.05 0.92 2.05 2.05c0.01 1.06-0.8 1.92-1.83 2.03z"/>
</svg>
