<?xml version="1.0" encoding="UTF-8"?>
<svg width="24" height="24" viewBox="0 0 24 24" xmlns="http://www.w3.org/2000/svg">
 <path d="m20.86 8.3698-6.93-5.54c-1.07-0.86-2.8-0.86-3.86-0.01l-6.93 5.55c-0.78 0.62-1.28 1.93-1.11 2.91l1.33 7.96c0.24 1.42 1.6 2.57 3.04 2.57h11.2c1.43 0 2.8-1.16 3.04-2.57l1.33-7.96c0.16-0.98-0.34-2.29-1.11-2.91zm-8.15 8.83c-0.2 0.1999-0.45 0.2999-0.71 0.2999s-0.51-0.1-0.71-0.29c-0.39-0.39-0.39-1.02 0-1.41s1.03-0.39 1.42 0c0.39 0.38 0.39 1.01 0 1.4001zm1.95-2.3001c-0.15 0.15-0.34 0.23-0.54 0.23-0.19 0-0.37-0.07-0.52-0.21-0.97-0.93-2.23-0.93-3.21 0-0.3 0.29-0.76998 0.28-1.06-0.02s-0.28-0.77 0.02-1.06c1.55-1.49 3.72-1.49 5.28 0 0.31 0.28 0.32 0.76 0.03 1.06zm2.12-2.12c-0.15 0.15-0.34 0.23-0.54 0.23-0.19 0-0.38-0.07-0.52-0.21-0.47-0.46-1-0.83-1.56-1.1-1.4-0.67-2.93-0.67-4.32 0-0.56 0.27-1.08 0.64-1.56 1.1-0.29 0.29-0.77 0.29-1.06-0.01s-0.28-0.77 0.01-1.06c0.59-0.58 1.25-1.04 1.96-1.38 1.81-0.86995 3.81-0.86995 5.61 0 0.71 0.34 1.37 0.8 1.96 1.38 0.3 0.28 0.31 0.76 0.02 1.05z"/>
</svg>
