<?xml version="1.0" encoding="UTF-8"?>
<svg width="24" height="24" viewBox="0 0 24 24" xmlns="http://www.w3.org/2000/svg">
 <path d="m22 21.25h-20c-0.41 0-0.75 0.34-0.75 0.75s0.34 0.75 0.75 0.75h20c0.41 0 0.75-0.34 0.75-0.75s-0.34-0.75-0.75-0.75z"/>
 <path d="m17 2h-10c-3 0-4 1.79-4 4v16h6v-6.06c0-0.52 0.42-0.94 0.94-0.94h4.13c0.51 0 0.94 0.42 0.94 0.94v6.06h6v-16c-0.01-2.21-1.01-4-4.01-4zm-2.5 7.25h-1.75v1.75c0 0.41-0.34 0.75-0.75 0.75s-0.75-0.34-0.75-0.75v-1.75h-1.75c-0.41 0-0.75-0.34-0.75-0.75s0.34-0.75 0.75-0.75h1.75v-1.75c0-0.41 0.34-0.75 0.75-0.75s0.75 0.34 0.75 0.75v1.75h1.75c0.41 0 0.75 0.34 0.75 0.75s-0.34 0.75-0.75 0.75z"/>
</svg>
