<?xml version="1.0" encoding="UTF-8"?>
<svg width="24" height="24" viewBox="0 0 24 24" xmlns="http://www.w3.org/2000/svg">
 <path d="m22 21.25h-1v-11.27c0-0.62-0.28-1.2-0.77-1.58l-1.23-0.96-0.02-2.45c0-0.55-0.45-0.99-1-0.99h-3.41l-1.34-1.04c-0.72-0.57-1.74-0.57-2.46 0l-7 5.44c-0.49 0.38-0.77 0.96-0.77 1.57l-0.05 11.28h-0.95c-0.41 0-0.75 0.34-0.75 0.75s0.34 0.75 0.75 0.75h20c0.41 0 0.75-0.34 0.75-0.75s-0.34-0.75-0.75-0.75zm-15.5-8.5v-1.5c0-0.55 0.45-1 1-1h2c0.55 0 1 0.45 1 1v1.5c0 0.55-0.45 1-1 1h-2c-0.55 0-1-0.45-1-1zm8 8.5h-5v-2.75c0-0.83 0.67-1.5 1.5-1.5h2c0.83 0 1.5 0.67 1.5 1.5v2.75zm3-8.5c0 0.55-0.45 1-1 1h-2c-0.55 0-1-0.45-1-1v-1.5c0-0.55 0.45-1 1-1h2c0.55 0 1 0.45 1 1v1.5z"/>
</svg>
