<svg width="24" height="24" viewBox="0 0 24 24"  xmlns="http://www.w3.org/2000/svg">
<path d="M22 21.2497H21V9.97973C21 9.35973 20.72 8.77973 20.23 8.39973L19 7.43973L18.98 4.98973C18.98 4.43973 18.53 3.99973 17.98 3.99973H14.57L13.23 2.95973C12.51 2.38973 11.49 2.38973 10.77 2.95973L3.77 8.39973C3.28 8.77973 3 9.35973 3 9.96973L2.95 21.2497H2C1.59 21.2497 1.25 21.5897 1.25 21.9997C1.25 22.4097 1.59 22.7497 2 22.7497H22C22.41 22.7497 22.75 22.4097 22.75 21.9997C22.75 21.5897 22.41 21.2497 22 21.2497ZM6.5 12.7497V11.2497C6.5 10.6997 6.95 10.2497 7.5 10.2497H9.5C10.05 10.2497 10.5 10.6997 10.5 11.2497V12.7497C10.5 13.2997 10.05 13.7497 9.5 13.7497H7.5C6.95 13.7497 6.5 13.2997 6.5 12.7497ZM14.5 21.2497H9.5V18.4997C9.5 17.6697 10.17 16.9997 11 16.9997H13C13.83 16.9997 14.5 17.6697 14.5 18.4997V21.2497ZM17.5 12.7497C17.5 13.2997 17.05 13.7497 16.5 13.7497H14.5C13.95 13.7497 13.5 13.2997 13.5 12.7497V11.2497C13.5 10.6997 13.95 10.2497 14.5 10.2497H16.5C17.05 10.2497 17.5 10.6997 17.5 11.2497V12.7497Z" />
</svg>
