<?xml version="1.0" encoding="UTF-8"?>
<svg width="24" height="24" viewBox="0 0 24 24" xmlns="http://www.w3.org/2000/svg">
 <path d="m10 15.5c-0.41 0-0.75 0.34-0.75 0.75v1.5c0 0.41 0.34 0.75 0.75 0.75s0.75-0.34 0.75-0.75v-1.5c0-0.41-0.34-0.75-0.75-0.75z"/>
 <path d="m22 21.25h-1v-11.27c0-0.62-0.28-1.2-0.77-1.58l-7-5.44c-0.72-0.57-1.74-0.57-2.46 0l-7 5.44c-0.49 0.38-0.77 0.96-0.77 1.57l-0.05 11.28h-0.95c-0.41 0-0.75 0.33-0.75 0.75 0 0.41 0.34 0.75 0.75 0.75h20c0.41 0 0.75-0.34 0.75-0.75 0-0.42-0.34-0.75-0.75-0.75zm-11.5-14.5h3c0.41 0 0.75 0.34 0.75 0.75s-0.34 0.75-0.75 0.75h-3c-0.41 0-0.75-0.34-0.75-0.75s0.34-0.75 0.75-0.75zm6.5 14.5h-10v-8.75c0-0.83 0.67-1.5 1.5-1.5h7c0.83 0 1.5 0.67 1.5 1.5v8.75z"/>
</svg>
