<?xml version="1.0" encoding="UTF-8"?>
<svg width="24" height="24" viewBox="0 0 24 24" xmlns="http://www.w3.org/2000/svg">
 <path d="m19.88 2h-15.77c-0.6 0-1.06 0.52-0.98999 1.11l1.8 16.22c0.04 0.4 0.33003 0.74 0.72003 0.85l6.0799 1.74c0.18 0.05 0.3701 0.05 0.5501 0l6.0799-1.74c0.39-0.11 0.6701-0.45 0.7201-0.85l1.7999-16.22c0.07-0.59-0.3899-1.11-0.9899-1.11zm-3.6301 5.5h-7.6599l0.32995 3h6.83c0.21 0 0.41 0.09 0.56 0.25 0.14 0.16 0.21 0.37 0.19 0.58l-0.5 5c-0.03 0.31-0.2399 0.56-0.5399 0.65l-3.5 1c-0.07 0.02-0.1401 0.03-0.2101 0.03s-0.14-0.01-0.21-0.03l-3.5-1c-0.32-0.09-0.53998-0.39-0.53998-0.72v-2c0-0.41 0.34-0.75 0.75-0.75s0.75 0.34 0.75 0.75v1.43l2.75 0.79 2.8-0.8 0.37-3.67h-6.67c-0.38 0-0.7-0.29-0.75-0.67l-0.5-4.5c-0.02-0.21 0.04-0.42001 0.19-0.58001 0.14-0.16 0.35-0.25 0.56-0.25h8.5c0.41 0 0.75 0.34 0.75 0.75s-0.34 0.74001-0.75 0.74001z"/>
</svg>
