<?xml version="1.0" encoding="UTF-8"?>
<svg width="24" height="24" viewBox="0 0 24 24" xmlns="http://www.w3.org/2000/svg">
 <path d="m19.88 2h-15.76c-0.6 0-1.06 0.51999-0.99 1.11l1.8 16.22c0.04 0.4 0.33 0.74 0.72 0.85l6.08 1.74c0.18 0.05 0.37 0.05 0.55 0l6.08-1.74c0.39-0.11 0.67-0.45 0.72-0.85l1.8-16.22c0.06-0.59-0.4-1.11-1-1.11zm-3.63 14.08c-0.03 0.3-0.25 0.55-0.54 0.64l-3.5 1c-0.07 0.02-0.14 0.03-0.21 0.03s-0.14-0.01-0.21-0.03l-3.5-1c-0.26-0.07-0.46-0.28-0.52-0.54l-0.5-2c-0.1-0.4 0.14-0.81 0.55-0.91 0.4-0.1 0.81 0.14 0.91 0.55l0.4 1.58 2.88 0.82 2.81-0.8 0.41-3.67h-7.23c-0.41 0-0.75-0.34-0.75-0.75s0.34-0.75 0.75-0.75h7.38l0.28-2.5-8.16-0.01999c-0.41 0-0.75-0.34-0.75-0.75s0.34-0.75 0.75-0.75l9 0.01999c0.21 0 0.42 0.09 0.56 0.25s0.21 0.36999 0.19 0.57999l-1 9z"/>
</svg>
