<?xml version="1.0" encoding="UTF-8"?>
<svg width="24" height="24" viewBox="0 0 24 24" xmlns="http://www.w3.org/2000/svg">
 <path d="m16.19 2h-8.38c-3.64 0-5.81 2.17-5.81 5.81v8.37c0 3.64 2.17 5.81 5.81 5.81h8.37c3.64 0 5.81-2.17 5.81-5.81v-8.37c0.01-3.64-2.16-5.81-5.8-5.81zm-3.13 14.68c-0.08 0.03-0.16 0.04-0.24 0.04-0.31 0-0.61-0.2-0.71-0.51l-0.71-2.13h-3.08l-0.98 2.2c-0.17 0.38-0.61 0.55-0.99 0.38s-0.55-0.61-0.38-0.99l3.53-7.93c0.13-0.28 0.4-0.47 0.72-0.44 0.31 0.01 0.58 0.22001 0.68 0.51001l2.64 7.93c0.12 0.38-0.09 0.81-0.48 0.94zm4.04-0.71c0 0.41-0.34 0.75-0.75 0.75s-0.75-0.34-0.75-0.75v-5.29c0-0.41 0.34-0.75001 0.75-0.75001s0.75 0.34001 0.75 0.75001v5.29zm0.17-7.55c-0.05 0.12-0.12 0.22998-0.22 0.31998-0.09 0.09-0.2 0.17-0.32 0.22s-0.25 0.07001-0.38 0.07001c-0.27 0-0.52-0.10001-0.71-0.29001-0.09-0.09-0.17-0.19998-0.22-0.31998-0.05-0.13-0.07-0.25001-0.07-0.39001 0-0.13 0.02-0.26001 0.07-0.38001 0.06-0.12 0.13-0.23 0.22-0.32 0.09-0.1 0.2-0.17 0.32-0.22 0.37-0.15 0.82-0.06 1.09 0.22 0.1 0.09 0.17 0.2 0.22 0.32s0.08 0.25001 0.08 0.38001c0 0.14-0.03 0.27001-0.08 0.39001z"/>
 <path d="m8.98 12.569h1.92l-0.82-2.46-1.1 2.46z"/>
</svg>
