<?xml version="1.0" encoding="UTF-8"?>
<svg width="24" height="24" viewBox="0 0 24 24" xmlns="http://www.w3.org/2000/svg">
 <path d="m22.02 16.82-3.13-7.32c-0.57-1.34-1.42-2.1-2.39-2.15-0.96-0.05-1.89 0.62-2.6 1.9l-1.9 3.41c-0.4 0.72-0.97 1.15-1.59 1.2-0.63001 0.06-1.26-0.27-1.77-0.92l-0.22-0.28c-0.71-0.89-1.59-1.32-2.49-1.23s-1.67 0.71-2.18 1.72l-1.73 3.45c-0.62 1.25-0.56 2.7 0.17 3.88s2 1.89 3.39 1.89h12.76c1.34 0 2.59-0.67 3.33-1.79 0.76-1.12 0.88-2.53 0.35-3.76z"/>
 <path d="m6.9701 8.3801c1.8667 0 3.38-1.5133 3.38-3.38 0-1.8667-1.5133-3.38-3.38-3.38s-3.38 1.5133-3.38 3.38c0 1.8667 1.5133 3.38 3.38 3.38z"/>
</svg>
