<?xml version="1.0" encoding="UTF-8"?>
<svg width="24" height="24" viewBox="0 0 24 24" xmlns="http://www.w3.org/2000/svg">
 <path d="m16.8 9h-4.05v4.44l2.07-2.07c0.15-0.15 0.34-0.22 0.53-0.22s0.38 0.07 0.53 0.22c0.29 0.29 0.29 0.77 0 1.06l-3.35 3.35c-0.29 0.29-0.77 0.29-1.06 0l-3.35-3.35c-0.29-0.29-0.29-0.77 0-1.06s0.77-0.29 1.06 0l2.07 2.07v-4.44h-4.05c-3.2 0-5.2 2-5.2 5.2v2.59c0 3.21 2 5.21 5.2 5.21h9.59c3.2 0 5.2-2 5.2-5.2v-2.6c0.01-3.2-1.99-5.2-5.19-5.2z"/>
 <path d="m12.75 2.75c0-0.41-0.34-0.75-0.75-0.75s-0.75 0.34-0.75 0.75v6.25h1.5v-6.25z"/>
</svg>
