<?xml version="1.0" encoding="UTF-8"?>
<svg width="24" height="24" viewBox="0 0 24 24" xmlns="http://www.w3.org/2000/svg">
 <path d="m21.14 9.8999h-8.46v3.67l1.57-1.57c0.29-0.29 0.77-0.29 1.06 0s0.29 0.77 0 1.06l-2.85 2.84c-0.29 0.29-0.77 0.29-1.06 0l-2.85-2.84c-0.15-0.15-0.22-0.34-0.22-0.53s0.08-0.38 0.23-0.53c0.29-0.29 0.77-0.29 1.06 0l1.56 1.56v-3.66h-8.32c-0.48 0-0.86 0.38-0.86 0.86 0 5.89 4.11 10 10 10s10-4.11 10-10c0-0.48-0.38-0.86-0.86-0.86z"/>
 <path d="m12.68 3.99c0-0.41-0.34-0.75-0.75-0.75s-0.75 0.34-0.75 0.75v5.9h1.5v-5.9z"/>
</svg>
