<?xml version="1.0" encoding="UTF-8"?>
<svg width="24" height="24" viewBox="0 0 24 24" xmlns="http://www.w3.org/2000/svg">
 <path d="m16.19 2h-8.38c-3.64 0-5.81 2.17-5.81 5.81v8.37c0 3.65 2.17 5.82 5.81 5.82h8.37c3.64 0 5.81-2.17 5.81-5.81v-8.38c0.01-3.64-2.16-5.81-5.8-5.81zm-4.19 13.88c-2.14 0-3.88-1.74-3.88-3.88s1.74-3.88 3.88-3.88 3.88 1.74 3.88 3.88-1.74 3.88-3.88 3.88zm5.92-9c-0.05 0.12-0.12 0.23-0.21 0.33-0.1 0.09-0.21 0.16-0.33 0.21s-0.25 0.08-0.38 0.08c-0.27 0-0.52-0.1-0.71-0.29-0.09-0.1-0.16-0.21-0.21-0.33s-0.08-0.25-0.08-0.38 0.03-0.26 0.08-0.38c0.05-0.13 0.12-0.23 0.21-0.33 0.23-0.23 0.58-0.34 0.9-0.27 0.07 0.01 0.13 0.03 0.19 0.06 0.06 0.02 0.12 0.05 0.18 0.09 0.05 0.03 0.1 0.08 0.15 0.12 0.09 0.1 0.16 0.2 0.21 0.33 0.05 0.12 0.08 0.25 0.08 0.38s-0.03 0.26-0.08 0.38z"/>
</svg>
