<?xml version="1.0" encoding="UTF-8"?>
<svg width="24" height="24" viewBox="0 0 24 24" xmlns="http://www.w3.org/2000/svg">
 <path d="m19.51 6.4198-6.5-3.82c-0.63-0.37-1.4-0.37-2.03 0l-6.5 3.82c-0.61 0.36-0.98999 1.02-0.98999 1.72v7.71c0 0.71 0.37999 1.36 0.98999 1.72l6.5 3.82c0.63 0.37 1.4 0.37 2.03 0l6.5-3.82c0.61-0.36 0.99-1.02 0.99-1.72v-7.71c0-0.7-0.38-1.36-0.99-1.72zm-2.12 9.22-5 3c-0.12 0.07-0.25 0.11-0.39 0.11s-0.27-0.04-0.39-0.11l-5-3c-0.36-0.21-0.47001-0.67-0.26001-1.03s0.67002-0.47 1.03-0.26l4.61 2.77 3.54-2.13-1.86-1.12-0.65 0.65c-0.15 0.15-0.34 0.22-0.53 0.22s-0.38-0.07-0.53-0.22c-0.29-0.29-0.29-0.77 0-1.06l0.38-0.38-1.8-1.08-0.52 0.52c-0.14998 0.15-0.34001 0.22-0.53001 0.22s-0.37997-0.07-0.52997-0.22c-0.29-0.29-0.29-0.77 0-1.06l0.25995-0.26-2.61-1.57c-0.23-0.14-0.35999-0.37999-0.35999-0.63999 0-0.26001 0.13999-0.51 0.35999-0.64l5-3c0.24-0.14 0.54-0.14 0.77 0l5 3c0.36 0.21 0.47 0.66999 0.26 1.03-0.21 0.35-0.67 0.47-1.03 0.26l-4.61-2.77-3.54 2.13 1.86 1.12 0.65-0.65004c0.29-0.29 0.77-0.29 1.06 0s0.29 0.77004 0 1.06l-0.38 0.38 1.8 1.08 0.52-0.52c0.29-0.29 0.77-0.29 1.06 0s0.29 0.77 0 1.06l-0.26 0.26 2.61 1.57c0.23 0.14 0.36 0.38 0.36 0.64s-0.13 0.51-0.35 0.64z"/>
</svg>
