<?xml version="1.0" encoding="UTF-8"?>
<svg width="24" height="24" viewBox="0 0 24 24" xmlns="http://www.w3.org/2000/svg">
 <path d="m19.88 2h-15.77c-0.6 0-1.06 0.52-0.98999 1.11l1.8 16.22c0.04 0.4 0.33003 0.74 0.72003 0.85l6.0799 1.74c0.18 0.05 0.3701 0.05 0.5501 0l6.0799-1.74c0.39-0.11 0.6701-0.45 0.7201-0.85l1.7999-16.22c0.07-0.59-0.3899-1.11-0.9899-1.11zm-8.5101 13.99c0 0.24-0.1099 0.46-0.2999 0.6-0.13 0.1-0.2901 0.15-0.4501 0.15-0.07 0-0.14-0.01-0.21-0.03l-3.12-0.9c-0.4-0.12-0.62995-0.53-0.50995-0.93 0.11-0.4 0.52999-0.62 0.92999-0.51l2.16 0.62v-7.98c0-0.41 0.33996-0.75 0.74996-0.75s0.75 0.34 0.75 0.75v8.98zm5.88-0.89c0 0.34-0.23 0.64-0.57 0.73l-3.5999 0.9c-0.06 0.02-0.12 0.02-0.18 0.02-0.34 0-0.6401-0.23-0.7301-0.57-0.1-0.4 0.14-0.81 0.55-0.91l3.03-0.76v-1.7l-2.2899 0.33c-0.22 0.03-0.4301-0.03-0.6001-0.18-0.16-0.14-0.26-0.35-0.26-0.57v-4.95c0-0.37 0.27-0.69 0.64-0.74l3.1501-0.45c0.41-0.06 0.7899 0.23 0.8499 0.64s-0.23 0.79001-0.64 0.85001l-2.5099 0.36v3.43l2.29-0.33c0.22-0.03 0.4299 0.03 0.5999 0.18 0.16 0.14 0.26 0.35 0.26 0.57v3.15h0.01z"/>
</svg>
