<?xml version="1.0" encoding="UTF-8"?>
<svg width="24" height="24" viewBox="0 0 24 24" xmlns="http://www.w3.org/2000/svg">
 <path d="m15.25 16.75h-1.75c-1.38 0-2.5-1.12-2.5-2.5 0-0.41 0.34-0.75 0.75-0.75s0.75 0.34 0.75 0.75c0 0.55 0.45 1 1 1h1.75c0.55 0 1-0.45 1-1s-0.45-1-1-1h-1.75c-1.38 0-2.5-1.12-2.5-2.5s1.12-2.5 2.5-2.5h1.75c1.38 0 2.5 1.12 2.5 2.5 0 0.41-0.34 0.75-0.75 0.75s-0.75-0.34-0.75-0.75c0-0.55-0.45-1-1-1h-1.75c-0.55 0-1 0.45-1 1s0.45 1 1 1h1.75c1.38 0 2.5 1.12 2.5 2.5s-1.12 2.5-2.5 2.5z"/>
 <path d="m12 22.61c-0.29 0-0.58-0.0699-0.85-0.2199l-1.48-0.7101c-0.37-0.18-0.52997-0.63-0.34997-1s0.62-0.53 0.99999-0.35l1.51 0.73c0.11 0.06 0.21 0.06 0.28 0.02l8-4.4399c0.08-0.04 0.13-0.13 0.13-0.2201v-8.82c0-0.09-0.05-0.17-0.13-0.22l-8-4.44c-0.08-0.04-0.17-0.04-0.24 0l-8 4.44c-0.08 0.04-0.13001 0.13-0.13001 0.22v8.82c0 0.0901 0.05001 0.1701 0.13001 0.2201l2.51 1.3899c0.39 0.22 0.85 0.21 1.24-0.02 0.38999-0.23 0.61999-0.63 0.61999-1.08l0.01001-7.93c0-0.41 0.34-0.75 0.75-0.75s0.75 0.34 0.75 0.75l-0.01001 7.93c0 0.98-0.50999 1.87-1.36 2.37s-1.87 0.51-2.73 0.03l-2.51-1.39c-0.56-0.31-0.90002-0.9-0.90002-1.53v-8.82c0-0.63 0.34002-1.22 0.90002-1.53l8-4.44c0.53-0.3 1.17-0.3 1.7 0l8 4.44c0.56 0.31 0.9 0.9 0.9 1.53v8.82c0 0.63-0.34 1.22-0.9 1.53l-8 4.44c-0.26 0.15-0.55 0.23-0.84 0.23z"/>
</svg>
