<svg width="24" height="24" viewBox="0 0 24 24"  xmlns="http://www.w3.org/2000/svg">
<path d="M20.54 19.0403C20.39 19.1903 20.2 19.2603 20.01 19.2603C19.82 19.2603 19.63 19.1903 19.48 19.0403L14.53 14.0903L15.06 13.5603L15.59 13.0303L20.54 17.9803C20.83 18.2703 20.83 18.7503 20.54 19.0403Z" />
<path d="M6.47011 9.28009L12.2701 15.0801C12.6601 15.4701 12.6601 16.1001 12.2701 16.4901L11.3701 17.4001C10.5601 18.2001 9.28011 18.2001 8.48011 17.4001L4.14011 13.0601C3.35011 12.2701 3.35011 10.9801 4.14011 10.1801L5.05011 9.27009C5.44011 8.89009 6.08011 8.89009 6.47011 9.28009Z" />
<path d="M18.59 10.1897L14.78 13.9897C14.38 14.3897 13.74 14.3897 13.34 13.9897L7.56001 8.20969C7.16001 7.80969 7.16001 7.16969 7.56001 6.76969L11.37 2.95969C12.16 2.16969 13.45 2.16969 14.25 2.95969L18.59 7.29969C19.38 8.09969 19.38 9.37969 18.59 10.1897Z" />
<path d="M8 21.75H2C1.59 21.75 1.25 21.41 1.25 21C1.25 20.59 1.59 20.25 2 20.25H8C8.41 20.25 8.75 20.59 8.75 21C8.75 21.41 8.41 21.75 8 21.75Z" />
</svg>
