<?xml version="1.0" encoding="UTF-8"?>
<svg width="24" height="24" viewBox="0 0 24 24" xmlns="http://www.w3.org/2000/svg">
 <path d="m18.27 3.35c-0.47-0.07-1.01-0.1-1.77-0.1h-9c-0.75 0-1.3 0.03-1.74 0.09-3.35 0.37-4.01 2.36-4.01 5.66v6c0 3.3 0.66 5.29 3.98 5.65 0.47 0.07 1.01 0.1 1.77 0.1h9c0.75 0 1.3-0.03 1.74-0.09 3.35-0.37 4.01-2.35 4.01-5.66v-6c0-3.3-0.66-5.29-3.98-5.65zm-8.18 5.65c0.56 0 1.01 0.45 1.01 1s-0.45 1-1 1-1-0.45-1-1 0.44-1 0.99-1zm-3 0c0.57 0 1.01 0.45 1.01 1s-0.45 1-1 1-1-0.45-1-1 0.44-1 0.99-1zm9.91 7.25h-9.98c-0.41 0-0.76-0.34-0.76-0.75s0.33-0.75 0.74-0.75h10c0.41 0 0.75 0.34 0.75 0.75s-0.34 0.75-0.75 0.75zm0-5.5h-3.5c-0.41 0-0.75-0.34-0.75-0.75s0.34-0.75 0.75-0.75h3.5c0.41 0 0.75 0.34 0.75 0.75s-0.34 0.75-0.75 0.75z"/>
</svg>
