<?xml version="1.0" encoding="UTF-8"?>
<svg width="24" height="24" viewBox="0 0 24 24" xmlns="http://www.w3.org/2000/svg">
 <path d="m17 22.75h-10c-0.41 0-0.75-0.34-0.75-0.75s0.34-0.75 0.75-0.75h10c0.41 0 0.75 0.34 0.75 0.75s-0.34 0.75-0.75 0.75z"/>
 <path d="m18 2h-12c-2.21 0-4 1.79-4 4v9c0 2.21 1.79 4 4 4h12c2.21 0 4-1.79 4-4v-9c0-2.21-1.79-4-4-4zm-8.01 5.32c0.56 0 1.01 0.45 1.01 1s-0.45 1-1 1-1-0.45-1-1 0.44-1 0.99-1zm-3.15 0c0.56 0 1.01 0.45 1.01 1s-0.45 1-1 1-1-0.45-1-1 0.43-1 0.99-1zm10.42 7.54h-10.5c-0.42 0-0.76-0.34-0.76-0.75s0.33-0.75 0.74-0.75h10.53c0.41 0 0.75 0.34 0.75 0.75s-0.34 0.75-0.76 0.75zm0-5.79h-3.68c-0.41 0-0.75-0.34-0.75-0.75s0.34-0.75 0.75-0.75h3.68c0.41 0 0.75 0.34 0.75 0.75s-0.33 0.75-0.75 0.75z"/>
</svg>
