<?xml version="1.0" encoding="UTF-8"?>
<svg width="24" height="24" viewBox="0 0 24 24" xmlns="http://www.w3.org/2000/svg">
 <path d="m13.25 12c0.6904 0 1.25-0.5596 1.25-1.25s-0.5596-1.25-1.25-1.25-1.25 0.5596-1.25 1.25 0.5596 1.25 1.25 1.25z"/>
 <path d="m16.19 2h-8.38c-3.64 0-5.81 2.17-5.81 5.81v8.37c0 3.65 2.17 5.82 5.81 5.82h8.37c3.64 0 5.81-2.17 5.81-5.81v-8.38c0.01-3.64-2.16-5.81-5.8-5.81zm-0.3 11.47c-1.03 1.02-2.5 1.34-3.8 0.93l-1.06 1.05c-0.09 0.09-0.25 0.09-0.35 0l-0.97-0.97c-0.14-0.14-0.38-0.14-0.53 0s-0.14 0.38 0 0.53l0.97 0.97c0.1 0.1 0.1 0.26 0 0.35l-0.41 0.41c-0.17 0.18-0.5 0.29-0.74 0.26l-1.09-0.15c-0.36-0.05-0.69-0.39-0.75-0.75l-0.15-1.09c-0.04-0.24 0.08-0.57 0.24-0.74l2.35-2.35c-0.4-1.3-0.09-2.77 0.94-3.8 1.47-1.47 3.87-1.47 5.35 0s1.48 3.87 0 5.35z"/>
</svg>
