<?xml version="1.0" encoding="UTF-8"?>
<svg width="24" height="24" viewBox="0 0 24 24" xmlns="http://www.w3.org/2000/svg">
 <path d="m17.82 8.7c0.71-0.39 1.58 0.12001 1.57 0.93001l-0.04 5.42c-0.01 0.82-0.9 1.32-1.6 0.9l-4.68-2.8c-0.7-0.42-0.68-1.44 0.03-1.83l4.72-2.62z"/>
 <path d="m19.25 6.2806c0.15 0.38-0.08 0.77-0.44 0.97l-5.63 3.11c-0.8 0.44-1.74-0.27-1.54-1.15l1.22-5.53c0.15-0.7 0.94-1.04 1.56-0.68999l3.9201 2.24c0.43 0.25 0.7399 0.62 0.9099 1.05z"/>
 <path d="m12.01 2.6697-2.07 9.3c-0.03 0.14-0.03 0.29 0 0.44l1.73 8.68c0.12 0.6-0.3899 1.17-0.8899 0.8l-5.2901-3.77c-0.56-0.4-0.89001-1.04-0.89001-1.72v-9.31c0-0.76 0.4-1.46 1.07-1.84l5.29-3.01c0.15-0.09 0.31-0.15001 0.47-0.20001 0.38-0.13 0.66 0.25 0.58 0.63z"/>
 <path d="m17.63 16.81c0.65 0.39 0.69 1.3201 0.08 1.7601l-3.4701 2.5199c-0.62 0.45-1.5099 0.11-1.6599-0.65l-1.0201-5.1999c-0.18-0.9 0.7901-1.5801 1.5801-1.1101l4.49 2.68z"/>
</svg>
