<svg width="24" height="24" viewBox="0 0 24 24"  xmlns="http://www.w3.org/2000/svg">
<path d="M19.21 6.35952C18.17 4.25952 16.16 2.70952 13.83 2.19952C11.39 1.65952 8.88997 2.23952 6.97997 3.77952C5.05997 5.30952 3.96997 7.59952 3.96997 10.0495C3.96997 12.6395 5.51997 15.3495 7.85997 16.9195V17.7495C7.84997 18.0295 7.83997 18.4595 8.17997 18.8095C8.52997 19.1695 9.04997 19.2095 9.45997 19.2095H14.59C15.13 19.2095 15.54 19.0595 15.82 18.7795C16.2 18.3895 16.19 17.8895 16.18 17.6195V16.9195C19.28 14.8295 21.23 10.4195 19.21 6.35952Z" />
<path d="M15.2599 22.0004C15.1999 22.0004 15.1299 21.9904 15.0699 21.9704C13.0599 21.4004 10.9499 21.4004 8.93991 21.9704C8.56991 22.0704 8.17991 21.8604 8.07991 21.4904C7.96991 21.1204 8.18991 20.7304 8.55991 20.6304C10.8199 19.9904 13.1999 19.9904 15.4599 20.6304C15.8299 20.7404 16.0499 21.1204 15.9399 21.4904C15.8399 21.8004 15.5599 22.0004 15.2599 22.0004Z" />
</svg>
