<?xml version="1.0" encoding="UTF-8"?>
<svg width="24" height="24" viewBox="0 0 24 24" xmlns="http://www.w3.org/2000/svg">
 <path d="m15.7 4.3501-9.3 9.3c-0.47 0.47-1.29 0.37-1.59-0.23-0.54-1.07-0.84-2.24-0.84-3.37 0-2.45 1.09-4.74 3-6.28s4.41-2.11 6.86-1.57c0.54 0.12 1.07 0.29 1.57 0.52 0.64 0.29 0.8 1.13 0.3 1.63z"/>
 <path d="m15.45 20.63c-2.26-0.64-4.64-0.64-6.9 0-0.37 0.11-0.59 0.49-0.48 0.86s0.49 0.58 0.86 0.48c2.01-0.57 4.12-0.57 6.13 0 0.06 0.02 0.13 0.03 0.19 0.03 0.3 0 0.58-0.2 0.67-0.51 0.11-0.37-0.1-0.75-0.47-0.86z"/>
 <path d="m20.56 1.9499c-0.29-0.29-0.77-0.29-1.06 0l-15.85 15.85c-0.29 0.29-0.29 0.77 0 1.06 0.15 0.15 0.34 0.22 0.53 0.22s0.38-0.07 0.53-0.22l2.46-2.46c0.22 0.18 0.45 0.36 0.69 0.52v0.83c-0.01 0.28-0.02 0.71 0.31 1.06 0.35 0.35 0.87 0.4 1.28 0.4h5.13c0.54 0 0.95-0.15 1.23-0.43 0.39-0.4 0.37-0.9 0.36-1.16v-0.7c3.11-2.09 5.06-6.5 3.04-10.56-0.22-0.43-0.49-0.84-0.79-1.22l2.13-2.13c0.3-0.29 0.3-0.77 0.01-1.06z"/>
</svg>
