<?xml version="1.0" encoding="UTF-8"?>
<svg width="24" height="24" viewBox="0 0 24 24" xmlns="http://www.w3.org/2000/svg">
 <path d="m12.5 5.4803c0.08 0 0.16 0 0.25 0.01v-2.96c0-0.41-0.34-0.75-0.75-0.75s-0.75 0.34-0.75 0.75v2.96c0.08-0.01 0.16-0.01 0.25-0.01-4.61 0.23-8.28 4.03-8.28 8.7v1.94c0 1.1 0.9 2 2 2h13.56c1.1 0 2-0.9 2-2v-1.94c0-4.67-3.67-8.47-8.28-8.7z"/>
 <path d="m14.73 19.11c0.33 0 0.57 0.31 0.49 0.63-0.38 1.43-1.68 2.48-3.22 2.48s-2.84-1.05-3.22-2.48c-0.08-0.32 0.16-0.63 0.49-0.63h5.46z"/>
</svg>
