<?xml version="1.0" encoding="UTF-8"?>
<svg width="24" height="24" viewBox="0 0 24 24" xmlns="http://www.w3.org/2000/svg">
 <path d="m12 2c-5.52 0-10 4.48-10 10s4.48 10 10 10 10-4.48 10-10-4.48-10-10-10zm5 15.47c-1.71 0-3.31-0.74-4.59-2.11-1.45 1.31-3.34 2.11-5.41 2.11-0.41 0-0.75-0.34-0.75-0.75s0.34-0.75 0.75-0.75c3.47 0 6.34-2.75 6.71-6.27h-6.7c-0.41 0-0.75-0.34-0.75-0.75s0.34-0.74 0.75-0.74h4.24v-0.93c0-0.41 0.34-0.75 0.75-0.75s0.75 0.34 0.75 0.75v0.93h1.69c0.02 0 0.04-0.01 0.06-0.01s0.04 0.01 0.06 0.01h2.43c0.41 0 0.75 0.34 0.75 0.75s-0.34 0.75-0.75 0.75h-1.78c-0.15 1.71-0.79 3.28-1.77 4.56 1 1.11 2.25 1.71 3.56 1.71 0.41 0 0.75 0.34 0.75 0.75s-0.34 0.74-0.75 0.74z"/>
</svg>
