<?xml version="1.0" encoding="UTF-8"?>
<svg width="24" height="24" viewBox="0 0 24 24" xmlns="http://www.w3.org/2000/svg">
 <path d="m16.19 2h-8.38c-3.64 0-5.81 2.17-5.81 5.81v8.37c0 3.65 2.17 5.82 5.81 5.82h8.37c3.64 0 5.81-2.17 5.81-5.81v-8.38c0.01-3.64-2.16-5.81-5.8-5.81zm0.81 15.47c-1.71 0-3.31-0.74-4.59-2.11-1.45 1.31-3.34 2.11-5.41 2.11-0.41 0-0.75-0.34-0.75-0.75s0.34-0.75 0.75-0.75c3.47 0 6.34-2.75 6.71-6.27h-6.7c-0.41 0-0.75-0.34-0.75-0.75s0.34-0.74 0.75-0.74h4.24v-0.93c0-0.41 0.34-0.75 0.75-0.75s0.75 0.34 0.75 0.75v0.93h1.69c0.02 0 0.04-0.01 0.06-0.01s0.04 0.01 0.06 0.01h2.43c0.41 0 0.75 0.34 0.75 0.75s-0.34 0.75-0.75 0.75h-1.78c-0.15 1.71-0.79 3.28-1.77 4.56 1 1.11 2.25 1.71 3.56 1.71 0.41 0 0.75 0.34 0.75 0.75s-0.34 0.74-0.75 0.74z"/>
</svg>
