<?xml version="1.0" encoding="UTF-8"?>
<svg width="24" height="24" viewBox="0 0 24 24" xmlns="http://www.w3.org/2000/svg">
 <path d="m7.5 12c0-0.6631 0.14791-1.2929 0.41078-1.8628 0.2035-0.44127 0.16848-0.97796-0.17512-1.3216l-2.5771-2.5771c-0.41006-0.41006-1.0862-0.38853-1.4172 0.08765-1.1204 1.612-1.7714 3.5677-1.7714 5.6738 0 2.1044 0.64997 4.0587 1.7628 5.67 0.33001 0.4778 1.0072 0.5009 1.4183 0.0908l2.5831-2.5765c0.34437-0.3435 0.37979-0.8808 0.17618-1.3225-0.26258-0.5697-0.41032-1.1991-0.41032-1.8618z"/>
 <path d="m12 7.5c0.6631 0 1.2928 0.14791 1.8628 0.41078 0.4412 0.2035 0.9779 0.16848 1.3215-0.17512l2.5492-2.5492c0.4093-0.40926 0.3888-1.0839-0.0859-1.415-1.6061-1.1204-3.5632-1.7714-5.6776-1.7714-2.1042 0-4.0513 0.64985-5.6603 1.7625-0.47762 0.33029-0.50074 1.0074-0.09064 1.4186l2.5611 2.5676c0.3459 0.34678 0.88786 0.38005 1.3314 0.17237 0.5738-0.26865 1.2121-0.42105 1.8884-0.42105z"/>
 <path d="m19.89 5.9063c-0.1777-0.22963-0.5151-0.24158-0.7206-0.03653l-3.2188 3.2105c-0.1734 0.17295-0.1933 0.44464-0.0694 0.65588 0.3904 0.66548 0.6187 1.4362 0.6187 2.264 0 0.8281-0.2284 1.599-0.619 2.2645-0.1238 0.211-0.1041 0.4824 0.0689 0.6554l3.2196 3.2196c0.2055 0.2055 0.5432 0.1937 0.721-0.0362 1.3052-1.6883 2.0795-3.8064 2.0795-6.1033 0-2.297-0.7744-4.4068-2.0799-6.0939z"/>
 <path d="m12 16.5c-0.8281 0-1.599-0.2284-2.2645-0.619-0.21101-0.1238-0.4824-0.1041-0.6554 0.0689l-3.2496 3.2496c-0.20549 0.2055-0.19374 0.5432 0.03616 0.721 1.6883 1.3052 3.8065 2.0795 6.1034 2.0795 2.3071 0 4.4269-0.775 6.1078-2.0892 0.2279-0.1783 0.2386-0.5144 0.0339-0.719l-3.2246-3.2246c-0.1718-0.1718-0.4408-0.1926-0.6513-0.0712-0.6631 0.3826-1.4245 0.604-2.2358 0.604z"/>
</svg>
