<?xml version="1.0" encoding="UTF-8"?>
<svg width="24" height="24" viewBox="0 0 24 24" xmlns="http://www.w3.org/2000/svg">
 <path d="m21.56 10.74-1.36-1.58c-0.26-0.3-0.47-0.86-0.47-1.26v-1.7c0-1.06-0.87-1.93-1.93-1.93h-1.7c-0.39 0-0.96-0.21-1.26-0.47l-1.58-1.36c-0.69-0.59-1.82-0.59-2.52 0l-1.57 1.37c-0.3 0.25-0.87 0.46-1.26 0.46h-1.73c-1.06 0-1.93 0.87-1.93 1.93v1.71c0 0.39-0.21 0.95-0.46 1.25l-1.35 1.59c-0.58 0.69-0.58 1.81 0 2.5l1.35 1.59c0.25 0.3 0.46 0.86 0.46 1.25v1.71c0 1.06 0.87 1.93 1.93 1.93h1.73c0.39 0 0.96 0.21 1.26 0.47l1.58 1.36c0.69 0.59 1.82 0.59 2.52 0l1.58-1.36c0.3-0.26 0.86-0.47 1.26-0.47h1.7c1.06 0 1.93-0.87 1.93-1.93v-1.7c0-0.39 0.21-0.96 0.47-1.26l1.36-1.58c0.58-0.69 0.58-1.83-0.01-2.52zm-4.88 1.26-1.17 3.56c-0.15 0.59-0.78 1.07-1.42 1.07h-1.85c-0.32 0-0.77-0.11-0.97-0.31l-1.47-1.15c-0.03 0.64-0.32 0.91-1.03 0.91h-0.48c-0.74 0-1.04-0.29-1.04-0.99v-4.78c0-0.70003 0.3-0.99003 1.04-0.99003h0.49c0.74 0 1.04 0.29 1.04 0.99003v0.36l1.94-2.88c0.2-0.31 0.71-0.53 1.14-0.36 0.47 0.16 0.77 0.68 0.67 1.14l-0.24 1.56c-0.02 0.14 0.01 0.27 0.1 0.37 0.08 0.09 0.2 0.15 0.33 0.15h1.95c0.38 0 0.7 0.15 0.89 0.42 0.17 0.26 0.2 0.59 0.08 0.93z"/>
</svg>
