<?xml version="1.0" encoding="UTF-8"?>
<svg width="24" height="24" viewBox="0 0 24 24" xmlns="http://www.w3.org/2000/svg">
 <path d="m18 2h-12c-1.66 0-3 1.33-3 2.97v10.91c0 1.64 1.34 2.97 3 2.97h0.76c0.8 0 1.56 0.31 2.12 0.87l1.71 1.69c0.78 0.77 2.05 0.77 2.83 0l1.71-1.69c0.56-0.56 1.33-0.87 2.12-0.87h0.75c1.66 0 3-1.33 3-2.97v-10.91c0-1.64-1.34-2.97-3-2.97zm-5.72 12.96c-0.15 0.05-0.4 0.05-0.56 0-1.3-0.45-4.22-2.3-4.22-5.45 0.01-1.39 1.12-2.51 2.5-2.51 0.82 0 1.54 0.39 2 1 0.46-0.61 1.18-1 2-1 1.38 0 2.5 1.12 2.5 2.51-0.01 3.15-2.92 5-4.22 5.45z"/>
</svg>
