<?xml version="1.0" encoding="UTF-8"?>
<svg width="24" height="24" viewBox="0 0 24 24" xmlns="http://www.w3.org/2000/svg">
 <path d="m18 2h-12c-1.66 0-3 1.33-3 2.97v10.91c0 1.64 1.34 2.97 3 2.97h0.76c0.8 0 1.56 0.31 2.12 0.87l1.71 1.69c0.78 0.77 2.05 0.77 2.83 0l1.71-1.69c0.56-0.56 1.33-0.87 2.12-0.87h0.75c1.66 0 3-1.33 3-2.97v-10.91c0-1.64-1.34-2.97-3-2.97zm-1.32 8.5-1.17 3.56c-0.15 0.59-0.78 1.07-1.42 1.07h-1.85c-0.32 0-0.77-0.11-0.97-0.31l-1.47-1.15c-0.03 0.64-0.32 0.91-1.03 0.91h-0.48c-0.74 0-1.04-0.29-1.04-0.99v-4.77c0-0.7 0.3-0.99 1.04-0.99h0.49c0.74 0 1.04 0.29 1.04 0.99v0.36l1.94-2.88c0.2-0.31 0.71-0.53 1.14-0.36 0.47 0.16 0.77 0.68 0.67 1.14l-0.24 1.56c-0.03 0.13 0 0.27 0.09 0.36 0.08 0.09 0.2 0.15 0.33 0.15h1.95c0.38 0 0.7 0.15 0.89 0.42 0.18 0.26 0.21 0.59 0.09 0.93z"/>
</svg>
