<?xml version="1.0" encoding="UTF-8"?>
<svg width="24" height="24" viewBox="0 0 24 24" xmlns="http://www.w3.org/2000/svg">
 <path d="m8.3899 18.49v-10.16c0-0.4 0.12-0.79 0.34-1.12l2.73-4.06c0.43-0.65 1.5-1.11 2.41-0.77 0.98 0.33 1.63 1.43 1.42 2.41l-0.52 3.27c-0.04 0.3 0.04 0.57 0.21 0.78 0.17 0.19 0.42 0.31 0.69 0.31h4.11c0.79 0 1.47 0.32 1.87 0.87997 0.38 0.54 0.45 1.24 0.2 1.95l-2.46 7.49c-0.31 1.24-1.66 2.25-3 2.25h-3.9c-0.67 0-1.61-0.23-2.04-0.66l-1.28-0.99c-0.49-0.37-0.78-0.96-0.78-1.58z"/>
 <path d="m5.21 6.3799h-1.03c-1.55 0-2.18 0.6-2.18 2.08v10.06c0 1.48 0.63 2.08 2.18 2.08h1.03c1.55 0 2.18-0.6 2.18-2.08v-10.06c0-1.48-0.63-2.08-2.18-2.08z"/>
</svg>
