<svg width="24" height="24" viewBox="0 0 24 24"  xmlns="http://www.w3.org/2000/svg">
<path d="M13.15 15.3699C12.93 15.0499 12.54 14.8699 12.09 14.8699H9.76C9.61 14.8699 9.46 14.8099 9.37 14.6899C9.27 14.5699 9.23 14.4199 9.25 14.2499L9.54 12.3899C9.66 11.8399 9.29 11.2099 8.74 11.0199C8.22 10.8299 7.62 11.0899 7.37 11.4599L5.06 14.8999V14.4699C5.06 13.6299 4.7 13.2899 3.82 13.2899H3.24C2.36 13.2999 2 13.6399 2 14.4799V20.1899C2 21.0299 2.36 21.3699 3.24 21.3699H3.82C4.66 21.3699 5.01 21.0399 5.04 20.2799L6.79 21.6299C7.04 21.8699 7.57 21.9999 7.95 21.9999H10.16C10.92 21.9999 11.68 21.4299 11.86 20.7299L13.26 16.4799C13.41 16.0699 13.37 15.6799 13.15 15.3699Z" />
<path d="M21.11 2.61047H20.53C19.69 2.61047 19.34 2.94047 19.3 3.70047L17.55 2.35047C17.31 2.11047 16.77 1.98047 16.39 1.98047H14.18C13.42 1.98047 12.66 2.55047 12.48 3.25047L11.08 7.50047C10.93 7.91047 10.98 8.30047 11.19 8.61047C11.41 8.93047 11.8 9.11047 12.25 9.11047H14.58C14.73 9.11047 14.88 9.17047 14.97 9.29047C15.07 9.41047 15.11 9.56047 15.09 9.73047L14.8 11.5905C14.68 12.1405 15.05 12.7705 15.6 12.9605C16.12 13.1505 16.72 12.8905 16.97 12.5205L19.28 9.08047V9.51047C19.28 10.3505 19.64 10.6905 20.52 10.6905H21.1C21.98 10.6905 22.34 10.3505 22.34 9.51047V3.78047C22.35 2.95047 21.99 2.61047 21.11 2.61047Z" />
</svg>
