<?xml version="1.0" encoding="UTF-8"?>
<svg width="24" height="24" viewBox="0 0 24 24" xmlns="http://www.w3.org/2000/svg">
 <path d="m13.15 15.37c-0.22-0.32-0.61-0.5-1.06-0.5h-2.33c-0.15 0-0.3-0.06-0.39-0.18-0.1-0.12-0.14-0.27-0.12-0.44l0.29-1.86c0.12-0.55-0.25-1.18-0.8-1.37-0.52-0.19-1.12 0.07-1.37 0.44l-2.31 3.44v-0.43c0-0.84-0.36-1.18-1.24-1.18h-0.58c-0.88 0.01-1.24 0.35-1.24 1.19v5.71c0 0.84 0.36 1.18 1.24 1.18h0.58c0.84 0 1.19-0.33 1.22-1.09l1.75 1.35c0.25 0.24 0.78 0.37 1.16 0.37h2.21c0.76 0 1.52-0.57 1.7-1.27l1.4-4.25c0.15-0.41 0.11-0.8-0.11-1.11z"/>
 <path d="m21.11 2.6105h-0.58c-0.84 0-1.19 0.33-1.23 1.09l-1.75-1.35c-0.24-0.24-0.78-0.37-1.16-0.37h-2.21c-0.76 0-1.52 0.57-1.7 1.27l-1.4 4.25c-0.15 0.41-0.1 0.8 0.11 1.11 0.22 0.32 0.61 0.5 1.06 0.5h2.33c0.15 0 0.3 0.06 0.39 0.18 0.1 0.12 0.14 0.27 0.12 0.44l-0.29 1.86c-0.12 0.55 0.25 1.18 0.8 1.37 0.52 0.19 1.12-0.07 1.37-0.44l2.31-3.44v0.43c0 0.84003 0.36 1.18 1.24 1.18h0.58c0.88 0 1.24-0.34 1.24-1.18v-5.73c0.01-0.83-0.35-1.17-1.23-1.17z"/>
</svg>
