<?xml version="1.0" encoding="UTF-8"?>
<svg width="24" height="24" viewBox="0 0 24 24" xmlns="http://www.w3.org/2000/svg">
 <path d="m16.19 2h-8.38c-3.64 0-5.81 2.17-5.81 5.81v8.37c0 3.65 2.17 5.82 5.81 5.82h8.37c3.64 0 5.81-2.17 5.81-5.81v-8.38c0.01-3.64-2.16-5.81-5.8-5.81zm-8.01 14.77h-0.07c-0.97-0.09-1.88-0.54-2.56-1.26-1.6-1.68-1.6-4.41 0-6.09l2.19-2.3c0.78-0.82 1.83-1.28 2.95-1.28s2.17 0.45 2.95 1.28c1.6 1.68 1.6 4.41 0 6.09l-1.09 1.15c-0.29 0.3-0.76 0.31-1.06 0.03-0.3-0.29-0.31-0.76-0.03-1.06l1.09-1.15c1.06-1.11 1.06-2.92 0-4.02-0.99-1.04-2.73-1.04-3.73 0l-2.19 2.3c-1.06 1.11-1.06 2.92 0 4.02 0.43 0.46 1.01 0.74 1.62 0.8 0.41 0.04 0.71 0.41 0.67 0.82-0.03 0.38-0.36 0.67-0.74 0.67zm10.27-2.18-2.19 2.3c-0.78 0.82-1.83 1.28-2.95 1.28s-2.17-0.45-2.95-1.28c-1.6-1.68-1.6-4.41 0-6.09l1.09-1.15c0.29-0.3 0.76-0.31 1.06-0.03 0.3 0.29 0.31 0.76 0.03 1.06l-1.09 1.15c-1.06 1.11-1.06 2.92 0 4.02 0.99 1.04 2.73 1.05 3.73 0l2.19-2.3c1.06-1.11 1.06-2.92 0-4.02-0.43-0.46-1.01-0.74-1.62-0.8-0.41-0.04-0.71-0.41-0.67-0.82s0.4-0.72 0.82-0.67c0.97 0.1 1.88 0.54 2.56 1.26 1.59 1.67 1.59 4.41-0.01 6.09z"/>
</svg>
