<?xml version="1.0" encoding="UTF-8"?>
<svg width="24" height="24" viewBox="0 0 24 24" xmlns="http://www.w3.org/2000/svg">
 <path d="m7.2499 12c0-0.41 0.34-0.75 0.75-0.75h3v-3.75c0-0.55-0.45-1-1-1h-2.23c-3.15 0-5.89 2.58-5.77 5.72 0.06 1.43 0.66 2.72 1.61 3.67 1 0.99 2.37 1.61 3.89 1.61h2.5c0.55001 0 1-0.45 1-1v-3.75h-3c-0.41 0-0.75-0.34-0.75-0.75z"/>
 <path d="m20.39 8.11c-1-0.99-2.37-1.61-3.89-1.61h-2.5c-0.55 0-1 0.45-1 1v3.75h3c0.41 0 0.75 0.34 0.75 0.75s-0.34 0.75-0.75 0.75h-3v3.75c0 0.55 0.45 1 1 1h2.23c3.15 0 5.89-2.58 5.76-5.72-0.05-1.43-0.66-2.72-1.6-3.67z"/>
 <path d="m13 11.25h-2v1.5h2v-1.5z"/>
</svg>
