<?xml version="1.0" encoding="UTF-8"?>
<svg width="24" height="24" viewBox="0 0 24 24" xmlns="http://www.w3.org/2000/svg">
 <path d="m12.5 14.75h-2.5c-0.41 0-0.75-0.34-0.75-0.75s0.34-0.75 0.75-0.75h2.5c2.62 0 4.75-2.13 4.75-4.75s-2.13-4.75-4.75-4.75h-5c-2.62 0-4.75 2.13-4.75 4.75 0 1.1 0.39 2.17 1.09 3.02 0.26 0.32 0.22 0.79-0.1 1.06-0.32 0.26-0.79 0.22-1.06-0.1-0.92-1.12-1.43-2.53-1.43-3.98 0-3.45 2.8-6.25 6.25-6.25h5c3.45 0 6.25 2.8 6.25 6.25s-2.8 6.25-6.25 6.25z"/>
 <path d="m16.5 21.75h-5c-3.45 0-6.25-2.8-6.25-6.25s2.8-6.25 6.25-6.25h2.5c0.41 0 0.75 0.34 0.75 0.75s-0.34 0.75-0.75 0.75h-2.5c-2.62 0-4.75 2.13-4.75 4.75s2.13 4.75 4.75 4.75h5c2.62 0 4.75-2.13 4.75-4.75 0-1.1-0.39-2.17-1.09-3.02-0.26-0.32-0.22-0.79 0.1-1.06s0.79-0.22 1.06 0.1c0.93 1.12 1.44 2.53 1.44 3.98-0.01 3.45-2.81 6.25-6.26 6.25z"/>
</svg>
