<?xml version="1.0" encoding="UTF-8"?>
<svg width="24" height="24" viewBox="0 0 24 24" xmlns="http://www.w3.org/2000/svg">
 <path d="m19.07 14.24c-0.29 0.29-0.75 0.29-1.03 0-0.29-0.29-0.29-0.75 0-1.03 2-2 2-5.25 0-7.24s-5.25-2-7.24 0c-1.99 2-2 5.25 0 7.24 0.29 0.29 0.29 0.75 0 1.03-0.29 0.29-0.75 0.29-1.03 0-2.57-2.57-2.57-6.75 0-9.31 2.57-2.56 6.75-2.57 9.31 0s2.56 6.74-0.01 9.31z"/>
 <path d="m4.93 9.76c0.29-0.29 0.75-0.29 1.03 0 0.29 0.29002 0.29 0.75002 0 1.03-2 2-2 5.25 0 7.24s5.25 2 7.24 0 2-5.25 0-7.24c-0.29-0.29-0.29-0.75 0-1.03 0.29-0.29 0.75-0.29 1.03 0 2.57 2.57 2.57 6.75 0 9.31s-6.75 2.57-9.31 0-2.56-6.74 0.01-9.31z"/>
</svg>
