<?xml version="1.0" encoding="UTF-8"?>
<svg width="24" height="24" viewBox="0 0 24 24" xmlns="http://www.w3.org/2000/svg">
 <path d="m15.41 18.59c-0.4 0-0.73-0.33-0.73-0.73s0.33-0.73 0.73-0.73c2.82 0 5.12-2.3 5.12-5.12 0-2.82-2.3-5.12-5.12-5.12s-5.12 2.3-5.12 5.12c0 0.4-0.33002 0.73-0.73002 0.73s-0.73-0.33-0.73-0.73c0-3.63 2.95-6.59 6.59-6.59s6.58 2.95 6.58 6.58c0 3.63-2.95 6.59-6.59 6.59z"/>
 <path d="m8.59 5.41c0.4 0 0.73 0.33 0.73 0.73s-0.33 0.73-0.73 0.73c-2.82 0-5.12 2.3-5.12 5.12 0 2.82 2.3 5.12 5.12 5.12s5.12-2.3 5.12-5.12c0-0.4 0.33-0.73 0.73-0.73s0.73 0.33 0.73 0.73c0 3.63-2.95 6.59-6.59 6.59s-6.58-2.95-6.58-6.58c0-3.63 2.95-6.59 6.59-6.59z"/>
</svg>
