<?xml version="1.0" encoding="UTF-8"?>
<svg width="24" height="24" viewBox="0 0 24 24" xmlns="http://www.w3.org/2000/svg">
 <path d="m12 2c-5.52 0-10 4.48-10 10s4.48 10 10 10 10-4.48 10-10-4.48-10-10-10zm-3.35 12.77c-0.11 0.3-0.4 0.49-0.7 0.49-0.09 0-0.17-0.01-0.26-0.05-0.81-0.3-1.49-0.89-1.92-1.66-1-1.8-0.38-4.15 1.37-5.24l2.34-1.45c0.86-0.53 1.87-0.69 2.83-0.44s1.77 0.88 2.26 1.76c1 1.8 0.38 4.15-1.37 5.24l-0.26 0.19c-0.34 0.24-0.81 0.16-1.05-0.17-0.24-0.34-0.16-0.81 0.17-1.05l0.31-0.22c1.12-0.7 1.5-2.15 0.89-3.26-0.29-0.52-0.76-0.89-1.32-1.04s-1.15-0.06-1.66 0.26l-2.36 1.46c-1.08 0.67-1.46 2.12-0.85 3.24 0.25 0.45 0.65 0.8 1.13 0.98 0.39 0.14 0.59 0.57 0.45 0.96zm8.27 0.88-2.34 1.45c-0.59 0.37-1.25 0.55-1.92 0.55-0.3 0-0.61-0.04-0.91-0.12-0.96-0.25-1.77-0.88-2.25-1.76-1-1.8-0.38-4.15 1.37-5.24l0.26-0.19c0.34-0.24 0.81-0.16 1.05 0.17 0.24 0.34 0.16 0.81-0.17 1.05l-0.31 0.22c-1.12 0.7-1.5 2.15-0.89 3.26 0.29 0.52 0.76 0.89 1.32 1.04s1.15 0.06 1.66-0.26l2.34-1.45c1.08-0.67 1.46-2.12 0.85-3.24-0.25-0.45-0.65-0.8-1.13-0.98-0.39-0.14-0.59-0.57-0.44-0.96 0.14-0.39 0.58-0.59 0.96-0.44 0.81 0.3 1.49 0.89 1.92 1.66 0.99 1.8 0.38 4.15-1.37 5.24z"/>
</svg>
