<?xml version="1.0" encoding="UTF-8"?>
<svg width="24" height="24" viewBox="0 0 24 24" xmlns="http://www.w3.org/2000/svg">
 <path d="m12 2c-5.52 0-10 4.48-10 10s4.48 10 10 10 10-4.48 10-10-4.48-10-10-10zm3.82 14.32c-0.09 0.48-0.5 0.82-0.98 0.82h-5.54c-0.66 0-1.14-0.64-0.95999-1.27l0.83999-2.95-1.71 0.34c-0.05 0.01-0.09999 0.01-0.14999 0.01-0.35 0-0.66001-0.25-0.73001-0.6-0.08-0.41 0.17999-0.8 0.58999-0.88l2.47-0.49 1.31-4.57c0.06-0.21 0.26-0.36 0.48-0.36h1.36c0.66 0 1.14 0.62 0.97 1.26l-0.81 3.01 1.93-0.39c0.4-0.08 0.8 0.18 0.88 0.59s-0.18 0.8-0.59 0.88l-2.66 0.53-0.55 2.05h3.03c0.62 0 1.09 0.56 0.98 1.18l-0.16 0.84z"/>
</svg>
