<?xml version="1.0" encoding="UTF-8"?>
<svg width="24" height="24" viewBox="0 0 24 24" xmlns="http://www.w3.org/2000/svg">
 <path d="m15.78 20.98c-1.06 1.02-2.42 1.53-3.78 1.53s-2.72-0.52-3.78-1.54c-0.36-0.34-0.72-0.72-1.08-1.11l12.9-12.9c0.25 0.54 0.44 1.11 0.58 1.74 1.17 5.16-1.99 9.52-4.84 12.28z"/>
 <path d="m21.77 2.2299c-0.3-0.3-0.79-0.3-1.09 0l-18.45 18.46c-0.3 0.3-0.3 0.79 0 1.09 0.15 0.14 0.34 0.22 0.54 0.22s0.39-0.08 0.54-0.23l18.46-18.46c0.31-0.3 0.31-0.78 0-1.08z"/>
 <path d="m8.8501 10.31c0-1.74 1.41-3.15 3.15-3.15 1.31 0 2.43 0.8 2.91 1.94l3.98-3.98c-1.77-2.14-4.45-3.12-6.89-3.12-1.77 0-3.66 0.52-5.24 1.61-1.58 1.1-2.86 2.77-3.38 5.08-0.84 3.67 0.52 6.95 2.41 9.52l5-5c-1.14-0.47-1.94-1.6-1.94-2.9z"/>
</svg>
