<?xml version="1.0" encoding="UTF-8"?>
<svg width="24" height="24" viewBox="0 0 24 24" xmlns="http://www.w3.org/2000/svg">
 <path d="m12 17.35c0.9002 0 1.63-0.7297 1.63-1.63 0-0.9002-0.7298-1.63-1.63-1.63s-1.63 0.7298-1.63 1.63c0 0.9003 0.7298 1.63 1.63 1.63z"/>
 <path d="m18.28 9.53v-1.25c0-2.7-0.65-6.28-6.28-6.28s-6.28 3.58-6.28 6.28v1.25c-2.8 0.35-3.72 1.77-3.72 5.26v1.86c0 4.1 1.25 5.35 5.35 5.35h9.3c4.1 0 5.35-1.25 5.35-5.35v-1.86c0-3.49-0.92-4.91-3.72-5.26zm-6.28 9.21c-1.67 0-3.02-1.36-3.02-3.02 0-1.67 1.36-3.02 3.02-3.02s3.02 1.36 3.02 3.02c0 1.67-1.35 3.02-3.02 3.02zm-4.65-9.3h-0.23v-1.16c0-2.93 0.83-4.88 4.88-4.88s4.88 1.95 4.88 4.88v1.17h-0.23-9.3v-0.01z"/>
</svg>
