<?xml version="1.0" encoding="UTF-8"?>
<svg width="24" height="24" viewBox="0 0 24 24" xmlns="http://www.w3.org/2000/svg">
 <path d="m13.63 15.72c0 0.9-0.73 1.63-1.63 1.63-0.64 0-1.19-0.37-1.45-0.9l2.18-2.18c0.53 0.26 0.9 0.81 0.9 1.45z"/>
 <path d="m21.77 2.23c-0.3-0.3-0.79-0.3-1.09 0l-2.81 2.81c-0.77-2.02-2.74-3.04-5.87-3.04-5.63 0-6.28 3.58-6.28 6.28v1.25h0.03c-2.83 0.34-3.75 1.75-3.75 5.26v1.86c0 1.6 0.19 2.76 0.67 3.59l-0.45 0.45c-0.3 0.3-0.3 0.79 0 1.09 0.16 0.14 0.35 0.22 0.55 0.22s0.39-0.08 0.54-0.23l18.46-18.46c0.31-0.3 0.31-0.78 0-1.08zm-14.42 7.21h-0.23v-1.16c0-2.93 0.83-4.88 4.88-4.88 3.4 0 4.47 1.3 4.77 2.75l-3.29 3.29h-6.13z"/>
 <path d="m22 14.79v1.86c0 4.1-1.25 5.35-5.35 5.35h-9.24c-0.89 0-1.33-1.08-0.7-1.71l2.82-2.82c0.07 0.1 0.15 0.19 0.23 0.28 0.70005 0.76 1.74 1.16 2.89 0.92 0.09-0.02 0.18-0.04 0.27-0.08 0.09-0.02 0.17-0.05 0.25-0.09 0.2-0.07 0.39-0.18 0.57-0.31 0.07-0.04 0.13-0.09 0.18-0.14 0.15-0.12 0.29-0.26 0.41-0.41 0.05-0.05 0.1-0.11 0.14-0.18 0.13-0.18 0.24-0.37 0.31-0.57 0.04-0.08 0.07-0.16 0.09-0.25 0.04-0.09 0.06-0.18 0.08-0.27 0.24-1.15-0.16-2.19-0.92-2.89-0.08-0.08-0.18-0.16-0.28-0.23l3.12-3.12c0.05-0.05 0.09-0.09 0.14-0.13002 0.4-0.33 0.91-0.49 1.42-0.45 0.09 0.01 0.19 0.02 0.28 0.04 0.17 0.03 0.34 0.07 0.5 0.11s0.31 0.09 0.46 0.14c0.29 0.11 0.54 0.24002 0.77 0.39002s0.42 0.33 0.6 0.54c0.09 0.11 0.18 0.23 0.25 0.36 0.07 0.11 0.13 0.23 0.19 0.36s0.11 0.27 0.16 0.41c0.06 0.17 0.11 0.36 0.15 0.56 0.04 0.14 0.06 0.29 0.09 0.45 0.02 0.15 0.04 0.31 0.06 0.48 0.04 0.42 0.06 0.89 0.06 1.4z"/>
</svg>
