<?xml version="1.0" encoding="UTF-8"?>
<svg width="24" height="24" viewBox="0 0 24 24" xmlns="http://www.w3.org/2000/svg">
 <path d="m12 7.75c-1.89 0-2.25 0.79-2.25 2.25v0.62h4.5v-0.62c0-1.46-0.36-2.25-2.25-2.25z"/>
 <path d="m12 15.1c0.6075 0 1.1-0.4925 1.1-1.1s-0.4925-1.1-1.1-1.1-1.1 0.4925-1.1 1.1 0.4925 1.1 1.1 1.1z"/>
 <path d="m12 2c-5.52 0-10 4.48-10 10s4.48 10 10 10 10-4.48 10-10-4.48-10-10-10zm5.38 12.5c0 2.2-0.68 2.88-2.88 2.88h-5c-2.2 0-2.88-0.68-2.88-2.88v-1c0-1.71 0.41-2.5 1.63-2.77v-0.73c0-0.93 0-3.75 3.75-3.75s3.75 2.82 3.75 3.75v0.73c1.22 0.27 1.63 1.06 1.63 2.77v1z"/>
</svg>
