<?xml version="1.0" encoding="UTF-8"?>
<svg width="24" height="24" viewBox="0 0 24 24" xmlns="http://www.w3.org/2000/svg">
 <path d="m18.75 8v2.1c-0.44-0.06-0.94-0.09-1.5-0.1v-2c0-3.15-0.89-5.25-5.25-5.25s-5.25 2.1-5.25 5.25v2c-0.56 0.01-1.06 0.04-1.5 0.1v-2.1c0-2.9 0.7-6.75 6.75-6.75s6.75 3.85 6.75 6.75z"/>
 <path d="m18.75 10.1c-0.44-0.06-0.94-0.09-1.5-0.1h-10.5c-0.56 0.01-1.06 0.04-1.5 0.1-2.55 0.31-3.25 1.56-3.25 4.9v2c0 4 1 5 5 5h10c4 0 5-1 5-5v-2c0-3.34-0.7-4.59-3.25-4.9zm-10.04 6.61c-0.19 0.18-0.45 0.29-0.71 0.29-0.13 0-0.26-0.03-0.38-0.08-0.13-0.05-0.23-0.12-0.33-0.21-0.18-0.19-0.29-0.45-0.29-0.71 0-0.13 0.03-0.26 0.08-0.38s0.12-0.23 0.21-0.33c0.1-0.09 0.2-0.16 0.33-0.21 0.37-0.16 0.81-0.07 1.09 0.21 0.09 0.1 0.16 0.21 0.21 0.33s0.08 0.25 0.08 0.38c0 0.26-0.11 0.52-0.29 0.71zm4.21-0.33c-0.05 0.12-0.12 0.23-0.21 0.33-0.19 0.18-0.45 0.29-0.71 0.29-0.27 0-0.52-0.11-0.71-0.29-0.09-0.1-0.16-0.21-0.21-0.33s-0.08-0.25-0.08-0.38c0-0.27 0.11-0.52 0.29-0.71 0.37-0.37 1.04-0.37 1.42 0 0.18 0.19 0.29 0.44 0.29 0.71 0 0.13-0.03 0.26-0.08 0.38zm3.79 0.33c-0.19 0.18-0.45 0.29-0.71 0.29s-0.52-0.11-0.71-0.29c-0.18-0.19-0.29-0.44-0.29-0.71s0.11-0.52 0.29-0.71c0.38-0.37 1.05-0.37 1.42 0 0.04 0.05 0.08 0.1 0.12 0.16 0.04 0.05 0.07 0.11 0.09 0.17 0.03 0.06 0.05 0.12 0.06 0.18 0.01 0.07 0.02 0.14 0.02 0.2 0 0.26-0.11 0.52-0.29 0.71z"/>
</svg>
