<?xml version="1.0" encoding="UTF-8"?>
<svg width="24" height="24" viewBox="0 0 24 24" xmlns="http://www.w3.org/2000/svg">
 <path d="m10.76 2c-0.48 0-0.86 0.38-0.86 0.86v8.46h3.67l-1.57-1.57c-0.29-0.29-0.29-0.77 0-1.06s0.77-0.29 1.06 0l2.84 2.85c0.29 0.29 0.29 0.77 0 1.06l-2.84 2.85c-0.15 0.15-0.34 0.22-0.53 0.22s-0.38-0.07-0.53-0.22c-0.29-0.29-0.29-0.77 0-1.06l1.56-1.56h-3.66v8.33c0 0.47 0.38 0.86 0.86 0.86 5.89 0 10-4.11 10-10s-4.12-10.02-10-10.02z"/>
 <path d="m3.99 11.32c-0.41 0-0.75 0.34-0.75 0.75s0.34 0.75 0.75 0.75h5.9v-1.5h-5.9z"/>
</svg>
