<?xml version="1.0" encoding="UTF-8"?>
<svg width="24" height="24" viewBox="0 0 24 24" xmlns="http://www.w3.org/2000/svg">
 <path d="m16.8 2h-2.6c-3.2 0-5.2 2-5.2 5.2v4.05h4.44l-2.07-2.07c-0.15-0.15-0.22-0.34-0.22-0.53s0.07-0.38 0.22-0.53c0.29-0.29 0.77-0.29 1.06 0l3.35 3.35c0.29 0.29 0.29 0.77 0 1.06l-3.35 3.35c-0.29 0.29-0.77 0.29-1.06 0s-0.29-0.77 0-1.06l2.07-2.07h-4.44v4.05c0 3.2 2 5.2 5.2 5.2h2.59c3.2 0 5.2-2 5.2-5.2v-9.6c0.01-3.2-1.99-5.2-5.19-5.2z"/>
 <path d="m2.75 11.25c-0.41 0-0.75 0.34-0.75 0.75s0.34 0.75 0.75 0.75h6.25v-1.5h-6.25z"/>
</svg>
