<?xml version="1.0" encoding="UTF-8"?>
<svg width="24" height="24" viewBox="0 0 24 24" xmlns="http://www.w3.org/2000/svg">
 <path d="m7.88 12.07c0-0.41 0.34-0.75 0.75-0.75h5.48v-8.46c-0.01-0.48-0.39-0.86-0.87-0.86-5.89 0-10 4.11-10 10s4.11 10 10 10c0.47 0 0.86-0.38 0.86-0.86v-8.33h-5.47c-0.42 0.01-0.75-0.33-0.75-0.74z"/>
 <path d="m20.54 11.54-2.84-2.85c-0.29-0.29-0.77-0.29-1.06 0s-0.29 0.77 0 1.06l1.56 1.56h-4.1v1.5h4.09l-1.56 1.56c-0.29 0.29-0.29 0.77 0 1.06 0.15 0.15 0.34 0.22 0.53 0.22s0.38-0.07 0.53-0.22l2.84-2.85c0.3-0.28 0.3-0.75 0.01-1.04z"/>
</svg>
