<?xml version="1.0" encoding="UTF-8"?>
<svg width="24" height="24" viewBox="0 0 24 24" xmlns="http://www.w3.org/2000/svg">
 <path d="m18.8 9.9102c-1.13 0-2.14 0.55004-2.77 1.39-0.63-0.84-1.64-1.39-2.77-1.39-1.91 0-3.46 1.56-3.46 3.48 0 0.74 0.12 1.43 0.31995 2.06 0.98 3.11 4.02 4.98 5.52 5.49 0.21 0.07 0.56 0.07 0.77 0 1.5-0.51 4.54-2.37 5.52-5.49 0.21-0.64 0.32-1.32 0.32-2.06 0.01-1.92-1.54-3.48-3.45-3.48z"/>
 <path d="m20.75 8.3396c0 0.23-0.23 0.38-0.45 0.32-1.35-0.35-2.83-0.06-3.95 0.74-0.22 0.16-0.52 0.16-0.73 0-0.79-0.58-1.75-0.9-2.76-0.9-2.58 0-4.68 2.11-4.68 4.71 0 2.82 1.35 4.93 2.71 6.34 0.07 0.07 0.01 0.19-0.08 0.15-2.73-0.93-8.81-4.79-8.81-11.36 0-2.9 2.33-5.24 5.21-5.24 1.71 0 3.22 0.82 4.17 2.09 0.96-1.27 2.47-2.09 4.17-2.09 2.87 0 5.2 2.34 5.2 5.24z"/>
</svg>
