<?xml version="1.0" encoding="UTF-8"?>
<svg width="24" height="24" viewBox="0 0 24 24" xmlns="http://www.w3.org/2000/svg">
 <path d="m19.5 7.4999-1.49 1.49-3-3 1.49-1.49c0.42-0.42 0.96-0.62 1.5-0.62s1.08 0.2 1.5 0.62c0.83 0.83 0.83 2.17 0 3z"/>
 <path d="m17.31 9.7002-10.81 10.8c-0.83 0.83-2.17 0.83-3 0s-0.83-2.17 0-3l10.81-10.8 3 3z"/>
 <path d="m9.95 3.5 0.40998-1.39c0.04-0.13 0-0.27-0.09-0.37s-0.25-0.14-0.37998-0.1l-1.39 0.41-1.39-0.41c-0.13-0.04-0.27 0-0.37 0.09-0.1 0.1-0.13 0.24-0.09 0.37l0.4 1.4-0.41 1.39c-0.04 0.13 0 0.27 0.09 0.37 0.1 0.1 0.24 0.13 0.37 0.09l1.4-0.4 1.39 0.41c0.04 0.01 0.07 0.02 0.10998 0.02 0.1 0 0.19-0.04 0.27-0.11 0.1-0.1 0.13-0.24 0.09-0.37l-0.40998-1.4z"/>
 <path d="m5.95 9.5 0.41-1.39c0.04-0.13 0-0.27-0.09-0.37-0.1-0.1-0.24-0.13-0.37-0.09l-1.4 0.4-1.39-0.41c-0.13-0.04-0.27 0-0.37 0.09-0.1 0.1-0.13 0.24-0.09 0.37l0.4 1.4-0.41 1.39c-0.04 0.13 0 0.27 0.09 0.37 0.1 0.1 0.24 0.13 0.37 0.09l1.39-0.41 1.39 0.41c0.03 0.01 0.07 0.01 0.11 0.01 0.1 0 0.19-0.04 0.27-0.11 0.1-0.1 0.13-0.24 0.09-0.37l-0.4-1.38z"/>
 <path d="m20.95 14.5 0.41-1.39c0.04-0.13 0-0.27-0.09-0.37-0.1-0.1-0.24-0.13-0.37-0.09l-1.39 0.41-1.39-0.41c-0.13-0.04-0.27 0-0.37 0.09-0.1 0.1-0.13 0.24-0.09 0.37l0.41 1.39-0.41 1.39c-0.04 0.13 0 0.27 0.09 0.37 0.1 0.1 0.24 0.13 0.37 0.09l1.39-0.41 1.39 0.41c0.03 0.01 0.07 0.01 0.11 0.01 0.1 0 0.19-0.04 0.27-0.11 0.1-0.1 0.13-0.24 0.09-0.37l-0.42-1.38z"/>
</svg>
