<?xml version="1.0" encoding="UTF-8"?>
<svg width="24" height="24" viewBox="0 0 24 24" xmlns="http://www.w3.org/2000/svg">
 <path d="m16.51 5.01-1.96-1.96c-1.4-1.4-3.7-1.4-5.1 0l-1.96 1.96c-0.39 0.39-0.39 1.03 0 1.42l3.81 3.81c0.39 0.39 1.02 0.39 1.41 0l3.81-3.81c0.38-0.39 0.38-1.03-0.01-1.42z"/>
 <path d="m5.01 7.4898-1.96 1.96c-1.4 1.4-1.4 3.7 0 5.1l1.96 1.96c0.39 0.39 1.02 0.39 1.41 0l3.81-3.81c0.39-0.39 0.39-1.02 0-1.41l-3.8-3.8c-0.39-0.39-1.03-0.39-1.42 0z"/>
 <path d="m20.95 9.4498-1.96-1.96c-0.39-0.39-1.02-0.39-1.41 0l-3.81 3.81c-0.39 0.39-0.39 1.02 0 1.41l3.81 3.81c0.39 0.39 1.02 0.39 1.41 0l1.96-1.96c1.4-1.41 1.4-3.71 0-5.11z"/>
 <path d="m7.49 18.99 1.96 1.96c1.4 1.4 3.7 1.4 5.1 0l1.96-1.96c0.39-0.39 0.39-1.02 0-1.41l-3.81-3.81c-0.39-0.39-1.02-0.39-1.41 0l-3.81 3.81c-0.38 0.38-0.38 1.02 0.01 1.41z"/>
</svg>
