<?xml version="1.0" encoding="UTF-8"?>
<svg width="24" height="24" viewBox="0 0 24 24" xmlns="http://www.w3.org/2000/svg">
 <path d="m12 2c-5.52 0-10 4.48-10 10s4.48 10 10 10 10-4.48 10-10-4.48-10-10-10zm-0.5 12.5c0 0.41-0.34 0.75-0.75 0.75s-0.75-0.34-0.75-0.75v-2.08l-2.67-1.6v3.68c0 0.41-0.34 0.75-0.75 0.75s-0.75-0.34-0.75-0.75v-5c0-0.27 0.15-0.52 0.38-0.65s0.52-0.13 0.75 0.01l4.17 2.5c0.23 0.14 0.36 0.38 0.36 0.64v2.5h0.01zm6.67 0c0 0.41-0.34 0.75-0.75 0.75s-0.75-0.34-0.75-0.75v-3.68l-2.67 1.6v2.08c0 0.41-0.34 0.75-0.75 0.75s-0.75-0.34-0.75-0.75v-2.5c0-0.26 0.14-0.51 0.36-0.64l4.17-2.5c0.23-0.14 0.52-0.14 0.75-0.01 0.24 0.13 0.38 0.38 0.38 0.65v5h0.01z"/>
</svg>
