<?xml version="1.0" encoding="UTF-8"?>
<svg width="24" height="24" viewBox="0 0 24 24" xmlns="http://www.w3.org/2000/svg">
 <path d="m22.19 2.21c-0.07-0.18-0.22-0.33-0.4-0.4-0.1-0.04-0.19-0.06-0.29-0.06h-6.5c-0.41 0-0.75 0.34-0.75 0.75s0.34 0.75 0.75 0.75h4.69l-4.51 4.52h-0.01c-1.34-1.11-3.05-1.77-4.92-1.77-4.28 0-7.75 3.47-7.75 7.75s3.47 7.75 7.75 7.75 7.75-3.47 7.75-7.75c0-1.87-0.66-3.58-1.77-4.92l4.52-4.52v4.69c0 0.41 0.34 0.75 0.75 0.75s0.75-0.34 0.75-0.75v-6.5c0-0.1-0.02-0.19-0.06-0.29z"/>
</svg>
