<?xml version="1.0" encoding="UTF-8"?>
<svg width="24" height="24" viewBox="0 0 24 24" xmlns="http://www.w3.org/2000/svg">
 <path d="m9.1499 7.4902c-0.56 0-1 0.45-1 1s0.45 1 1 1 1-0.45 1-1-0.45-1-1-1z"/>
 <path d="m21.46 5.04c-0.84-1.95-2.69-3.04-5.27-3.04h-8.38c-3.21 0-5.81 2.6-5.81 5.81v8.38c0 2.58 1.09 4.43 3.04 5.27 0.19 0.08 0.41 0.03 0.55-0.11l15.76-15.76c0.15-0.15 0.2-0.37 0.11-0.55zm-10.93 7.2c-0.39 0.38-0.9 0.56-1.41 0.56s-1.02-0.19-1.41-0.56c-1.02-0.96-2.14-2.49-1.71-4.31 0.38-1.65 1.84-2.39 3.12-2.39s2.74 0.74 3.12 2.4c0.42 1.81-0.7 3.34-1.71 4.3z"/>
 <path d="m19.47 20.53c0.22 0.22 0.19 0.58-0.08 0.73-0.88 0.49-1.95 0.74-3.2 0.74h-8.38c-0.29 0-0.41-0.34-0.21-0.54l6.04-6.04c0.2-0.2 0.51-0.2 0.71 0l5.12 5.11z"/>
 <path d="m22 7.8099v8.38c0 1.25-0.25 2.33-0.74 3.2-0.15 0.27-0.51 0.29-0.73 0.08l-5.12-5.12c-0.2-0.2-0.2-0.51 0-0.71l6.04-6.04c0.21-0.2 0.55-0.08 0.55 0.21z"/>
</svg>
