<?xml version="1.0" encoding="UTF-8"?>
<svg width="24" height="24" viewBox="0 0 24 24" xmlns="http://www.w3.org/2000/svg">
 <path d="m7.63 3.5702c0.17938-0.09785 0.37 0.05268 0.37 0.25701v13.556c0 0.2233-0.15242 0.412-0.3498 0.5163-0.00677 0.0036-0.01351 0.0072-0.0202 0.0109l-2.35 1.34c-1.64 0.94-2.99 0.16-2.99-1.74v-9.73c0-0.63 0.45-1.41 1.01-1.73l4.33-2.48z"/>
 <path d="m14.722 6.1024c0.1703 0.08435 0.2781 0.25799 0.2781 0.44806v13.153c0 0.3685-0.385 0.6104-0.717 0.4505l-4.25-2.0476c-0.17302-0.0834-0.283-0.2584-0.283-0.4505v-13.21c0-0.37085 0.3896-0.61265 0.7219-0.44806l4.25 2.1048z"/>
 <path d="m22 6.4901v9.73c0 0.63-0.45 1.41-1.01 1.73l-3.4914 2.0009c-0.3333 0.1911-0.7486-0.0496-0.7486-0.4338v-13.187c0-0.17951 0.0962-0.34525 0.2521-0.43423l2.0079-1.1461c1.64-0.94 2.99-0.16 2.99 1.74z"/>
</svg>
