<svg width="24" height="24" viewBox="0 0 24 24"  xmlns="http://www.w3.org/2000/svg">
<path d="M16.2399 9.52023L20.9499 14.2302C21.2299 14.5102 21.7199 14.3602 21.7999 13.9702C21.9299 13.3302 21.9999 12.6702 21.9999 12.0002C21.9999 9.71023 21.2199 7.60023 19.9299 5.92023C19.7499 5.68023 19.3899 5.67023 19.1799 5.88023L16.2399 8.82023C16.0499 9.01023 16.0499 9.33023 16.2399 9.52023Z" />
<path d="M14.4801 10.58L12.7101 12.35C12.5101 12.55 12.5101 12.86 12.7101 13.06L18.5301 18.88C18.7301 19.08 19.0501 19.08 19.2401 18.88C19.8601 18.23 20.3901 17.5 20.8201 16.71C20.9201 16.52 20.8801 16.27 20.7301 16.12L15.1901 10.58C14.9901 10.39 14.6701 10.39 14.4801 10.58Z" />
<path d="M10.94 14.1198L9.18003 15.8798C8.98003 16.0798 8.98003 16.3898 9.18003 16.5898L14.1 21.5199C14.23 21.6499 14.42 21.6998 14.59 21.6498C15.52 21.3998 16.4 21.0199 17.2 20.5199C17.47 20.3499 17.51 19.9698 17.28 19.7398L11.65 14.1098C11.45 13.9298 11.13 13.9298 10.94 14.1198Z" />
<path d="M18.0799 4.07016C16.0999 2.54016 13.5299 1.74016 10.7699 2.07016C6.25991 2.61016 2.60991 6.27016 2.06991 10.7702C1.73991 13.5302 2.53991 16.0902 4.06991 18.0802C4.24991 18.3202 4.60991 18.3302 4.81991 18.1202L18.1199 4.82016C18.3299 4.61016 18.3199 4.25016 18.0799 4.07016Z" />
<path d="M7.39998 17.67L5.87998 19.19C5.66998 19.4 5.67998 19.76 5.91998 19.94C7.42998 21.11 9.27998 21.85 11.31 21.99C11.74 22.02 11.95 21.51 11.64 21.2L8.10998 17.67C7.91998 17.47 7.59998 17.47 7.39998 17.67Z" />
</svg>
