<?xml version="1.0" encoding="UTF-8"?>
<svg width="24" height="24" viewBox="0 0 24 24" xmlns="http://www.w3.org/2000/svg">
 <path d="m16.24 9.5202 4.71 4.71c0.28 0.28 0.77 0.13 0.85-0.26 0.13-0.64 0.2-1.3 0.2-1.97 0-2.29-0.78-4.4-2.07-6.08-0.18-0.24-0.54-0.25-0.75-0.04l-2.94 2.94c-0.19 0.19-0.19 0.51 0 0.7z"/>
 <path d="m14.48 10.58-1.77 1.77c-0.2 0.2-0.2 0.51 0 0.71l5.82 5.82c0.2 0.2 0.52 0.2 0.71 0 0.62-0.65 1.15-1.38 1.58-2.17 0.1-0.19 0.06-0.44-0.09-0.59l-5.54-5.54c-0.2-0.19-0.52-0.19-0.71 0z"/>
 <path d="m10.94 14.12-1.76 1.76c-0.2 0.2-0.2 0.51 0 0.71l4.92 4.9301c0.13 0.13 0.32 0.1799 0.49 0.1299 0.93-0.25 1.81-0.6299 2.61-1.1299 0.27-0.17 0.31-0.5501 0.08-0.7801l-5.63-5.63c-0.2-0.18-0.52-0.18-0.71 0.01z"/>
 <path d="m18.08 4.0702c-1.98-1.53-4.55-2.33-7.31-2-4.51 0.54-8.16 4.2-8.7 8.7-0.33 2.76 0.47 5.32 2 7.31 0.18 0.24 0.54 0.25 0.75 0.04l13.3-13.3c0.21-0.21 0.2-0.57-0.04-0.75z"/>
 <path d="m7.4 17.67-1.52 1.52c-0.21 0.21-0.2 0.57 0.04 0.75 1.51 1.17 3.36 1.91 5.39 2.05 0.43 0.03 0.64-0.48 0.33-0.79l-3.53-3.53c-0.19-0.2-0.51-0.2-0.71 0z"/>
</svg>
