<?xml version="1.0" encoding="UTF-8"?>
<svg width="24" height="24" viewBox="0 0 24 24" xmlns="http://www.w3.org/2000/svg">
 <path d="m20.95 4.13c-0.29-0.42-0.66-0.79-1.08-1.08-0.95-0.69-2.19-1.05-3.68-1.05h-8.38c-0.2 0-0.4 0.01-0.59 0.03-3.28 0.21-5.22 2.34-5.22 5.78v8.38c0 1.49 0.36 2.73 1.05 3.68 0.29 0.42 0.66 0.79 1.08 1.08 0.82 0.6 1.86 0.95 3.09 1.03 0.19 0.01 0.39 0.02 0.59 0.02h8.38c3.64 0 5.81-2.17 5.81-5.81v-8.38c0-1.49-0.36-2.73-1.05-3.68zm-2.2 5.87c0 0.41-0.34 0.75-0.75 0.75s-0.75-0.34-0.75-0.75v-2.19l-4.19 4.19 4.19 4.19v-2.19c0-0.41 0.34-0.75 0.75-0.75s0.75 0.34 0.75 0.75v4c0 0.1-0.02 0.19-0.06 0.29-0.08 0.18-0.22 0.33-0.41 0.41-0.09 0.04-0.19 0.06-0.29 0.06h-4c-0.41 0-0.75-0.34-0.75-0.75s0.34-0.75 0.75-0.75h2.19l-4.18-4.2-4.19 4.19h2.19c0.41 0 0.75 0.34 0.75 0.75s-0.34 0.75-0.75 0.75h-4c-0.1 0-0.2-0.02-0.29-0.06-0.18-0.08-0.33-0.22-0.41-0.41-0.03-0.09-0.05-0.18-0.05-0.28v-4c0-0.41 0.34-0.75 0.75-0.75s0.75 0.34 0.75 0.75v2.19l4.19-4.19-4.19-4.19v2.19c0 0.41-0.34 0.75-0.75 0.75s-0.75-0.34-0.75-0.75v-4c0-0.1 0.02-0.19 0.06-0.29 0.08-0.18 0.22-0.33 0.41-0.41 0.09-0.03 0.18-0.05 0.28-0.05h4c0.41 0 0.75 0.34 0.75 0.75s-0.34 0.75-0.75 0.75h-2.19l4.19 4.19 4.19-4.19h-2.19c-0.41 0-0.75-0.34-0.75-0.75s0.34-0.75 0.75-0.75h4c0.1 0 0.19 0.02 0.29 0.06 0.18 0.08 0.33 0.22 0.41 0.41 0.03 0.09 0.05 0.18 0.05 0.28v4z"/>
</svg>
