<?xml version="1.0" encoding="UTF-8"?>
<svg width="24" height="24" viewBox="0 0 24 24" xmlns="http://www.w3.org/2000/svg">
 <path d="m16.19 2h-8.38c-3.64 0-5.81 2.17-5.81 5.81v8.37c0 3.65 2.17 5.82 5.81 5.82h8.37c3.64 0 5.81-2.17 5.81-5.81v-8.38c0.01-3.64-2.16-5.81-5.8-5.81zm-4.66 11.53-3.72 3.72h2.19c0.41 0 0.75 0.34 0.75 0.75s-0.34 0.75-0.75 0.75h-4c-0.1 0-0.2-0.02-0.29-0.06-0.18-0.08-0.33-0.22-0.41-0.41-0.03-0.09-0.05-0.18-0.05-0.28v-4c0-0.41 0.34-0.75 0.75-0.75s0.75 0.34 0.75 0.75v2.19l3.72-3.72c0.29-0.29 0.77-0.29 1.06 0s0.29 0.77 0 1.06zm7.22-3.53c0 0.41-0.34 0.75-0.75 0.75s-0.75-0.34-0.75-0.75v-2.19l-3.72 3.72c-0.15 0.15-0.34 0.22-0.53 0.22s-0.38-0.07-0.53-0.22c-0.29-0.29-0.29-0.77 0-1.06l3.72-3.72h-2.19c-0.41 0-0.75-0.34-0.75-0.75s0.34-0.75 0.75-0.75h4c0.1 0 0.19 0.02 0.29 0.06 0.18 0.08 0.33 0.22 0.41 0.41 0.03 0.09 0.05 0.18 0.05 0.28v4z"/>
</svg>
