<?xml version="1.0" encoding="UTF-8"?>
<svg width="24" height="24" viewBox="0 0 24 24" xmlns="http://www.w3.org/2000/svg">
 <path d="m21.69 2.71c-0.08-0.18-0.22-0.33-0.41-0.41-0.09-0.03-0.18-0.05-0.28-0.05h-4c-0.41 0-0.75 0.34-0.75 0.75s0.34 0.75 0.75 0.75h2.19l-4.72 4.72c-0.29 0.29-0.29 0.77 0 1.06 0.15 0.15 0.34 0.22 0.53 0.22s0.38-0.07 0.53-0.22l4.72-4.72v2.19c0 0.41 0.34 0.75 0.75 0.75s0.75-0.34 0.75-0.75v-4c0-0.1-0.02-0.19-0.06-0.29z"/>
 <path d="m8.47 14.47-4.72 4.72v-2.19c0-0.41-0.34-0.75-0.75-0.75s-0.75 0.34-0.75 0.75v4c0 0.1 0.02 0.19 0.06 0.29 0.08 0.18 0.22 0.33 0.41 0.41 0.08 0.03 0.18 0.05 0.28 0.05h4c0.41 0 0.75-0.34 0.75-0.75s-0.34-0.75-0.75-0.75h-2.19l4.72-4.72c0.29-0.29 0.29-0.77 0-1.06s-0.77-0.29-1.06 0z"/>
 <path d="m2.2 14.75c-0.35 0-0.66-0.25-0.73-0.6-0.14-0.7-0.22-1.43-0.22-2.15 0-5.93 4.82-10.75 10.75-10.75 0.73 0 1.46 0.07 2.17 0.22 0.41 0.08 0.67 0.48 0.59 0.88-0.08 0.41-0.49 0.66-0.88 0.59-0.63-0.13-1.25-0.19-1.88-0.19-5.1 0-9.25 4.15-9.25 9.25 0 0.62 0.06 1.25 0.19 1.85 0.08 0.41-0.18 0.8-0.59 0.88-0.05 0.02-0.1 0.02-0.15 0.02z"/>
 <path d="m12 22.75c-0.73 0-1.46-0.07-2.17-0.22-0.41-0.08-0.67-0.48-0.59-0.88 0.08-0.41 0.49-0.66 0.87997-0.59 0.61 0.12 1.24 0.19 1.87 0.19 5.1 0 9.25-4.15 9.25-9.25 0-0.62-0.06-1.24-0.18-1.85-0.08-0.41004 0.18-0.80004 0.59-0.88004s0.8 0.18 0.88 0.59c0.14 0.70004 0.21 1.42 0.21 2.14 0.01 5.93-4.81 10.75-10.74 10.75z"/>
</svg>
