<?xml version="1.0" encoding="UTF-8"?>
<svg width="24" height="24" viewBox="0 0 24 24" xmlns="http://www.w3.org/2000/svg">
 <path d="M11 16.15V18.85C11 21.1 10.1 22 7.85 22H5.15C2.9 22 2 21.1 2 18.85V16.15C2 13.9 2.9 13 5.15 13H7.85C10.1 13 11 13.9 11 16.15Z"/>
 <path d="m16.48 2h-7.96c-3.05 0-5.52 2.47-5.52 5.52v2.98c0 0.55 0.45 1 1 1h4.5c2.21 0 4 1.79 4 4v4.5c0 0.55 0.45 1 1 1h2.98c3.45 0 5.52-2.06 5.52-5.52v-7.96c0-3.05-2.47-5.52-5.52-5.52zm2.28 7.99c0 0.41-0.34 0.75-0.75 0.75s-0.75-0.34-0.75-0.75v-2.2l-3.73 3.74c-0.15 0.15-0.34 0.22-0.53 0.22s-0.38-0.07-0.53-0.22c-0.29-0.29-0.29-0.77 0-1.06l3.73-3.75h-2.2c-0.42 0-0.75-0.33-0.75-0.75 0-0.41 0.33-0.75 0.75-0.75h4.01c0.09 0 0.18 0.03 0.26 0.06 0.03 0.01 0.05 0.02 0.07 0.03 0.06 0.03 0.11 0.06 0.16 0.11 0.02 0.01 0.04 0.03 0.06 0.05 0.05 0.06 0.09 0.12 0.13 0.19 0 0.01 0.01 0.02 0.01 0.03 0.04 0.08 0.05 0.17 0.05 0.26 0.01 0.01 0.01 0.01 0.01 0.02v4.02z"/>
</svg>
