<?xml version="1.0" encoding="UTF-8"?>
<svg width="24" height="24" viewBox="0 0 24 24" xmlns="http://www.w3.org/2000/svg">
 <path d="m16.19 2h-8.38c-3.64 0-5.81 2.17-5.81 5.81v8.37c0 3.65 2.17 5.82 5.81 5.82h8.37c3.64 0 5.81-2.17 5.81-5.81v-8.38c0.01-3.64-2.16-5.81-5.8-5.81zm-5.97 19h-2.31c-2.71 0-4.91-2.2-4.91-4.91v-2.31c0-0.41 0.34-0.75 0.75-0.75s0.75 0.34 0.75 0.75v2.31c0 1.88 1.53 3.41 3.41 3.41h2.31c0.41 0 0.75 0.34 0.75 0.75s-0.33 0.75-0.75 0.75zm0-16.5h-2.31c-1.88 0-3.41 1.53-3.41 3.41v2.31c0 0.41-0.34 0.75-0.75 0.75s-0.75-0.33-0.75-0.75v-2.31c0-2.71 2.2-4.91 4.91-4.91h2.31c0.41 0 0.75 0.34 0.75 0.75s-0.33 0.75-0.75 0.75zm10.78 11.59c0 2.71-2.2 4.91-4.91 4.91h-1.39c-0.41 0-0.75-0.34-0.75-0.75s0.34-0.75 0.75-0.75h1.39c1.88 0 3.41-1.53 3.41-3.41v-1.39c0-0.41 0.34-0.75 0.75-0.75s0.75 0.34 0.75 0.75v1.39zm0-5.87c0 0.41-0.34 0.75-0.75 0.75s-0.75-0.34-0.75-0.75v-2.31c0-1.88-1.53-3.41-3.41-3.41h-2.31c-0.41 0-0.75-0.34-0.75-0.75s0.33-0.75 0.75-0.75h2.31c2.71 0 4.91 2.2 4.91 4.91v2.31z"/>
</svg>
