<?xml version="1.0" encoding="UTF-8"?>
<svg width="24" height="24" viewBox="0 0 24 24" xmlns="http://www.w3.org/2000/svg">
 <path d="m21.25 18.47-1.65 0.39c-0.37 0.09-0.66 0.37-0.74 0.74l-0.35 1.47c-0.19 0.8-1.21 1.05-1.74 0.42l-2.99-3.44c-0.24-0.28-0.11-0.72 0.25-0.81 1.77-0.43 3.36-1.42 4.53-2.83 0.19-0.23 0.53-0.26 0.74-0.05l2.22 2.22c0.76 0.76 0.49 1.71-0.27 1.89z"/>
 <path d="m2.6999 18.47 1.65 0.39c0.37 0.09 0.66 0.37 0.74 0.74l0.35 1.47c0.19 0.8 1.21 1.05 1.74 0.42l2.99-3.44c0.24-0.28 0.11-0.72-0.24998-0.81-1.77-0.43-3.36-1.42-4.53-2.83-0.19-0.23-0.53-0.26-0.74-0.05l-2.22 2.22c-0.76 0.76-0.49 1.71 0.27 1.89z"/>
 <path d="m12 2c-3.87 0-7 3.13-7 7 0 1.45 0.43 2.78 1.17 3.89 1.08 1.6 2.79 2.73 4.78 3.02 0.34 0.06 0.69 0.09 1.05 0.09s0.71-0.03 1.05-0.09c1.99-0.29 3.7-1.42 4.78-3.02 0.74-1.11 1.17-2.44 1.17-3.89 0-3.87-3.13-7-7-7zm3.06 6.78-0.83 0.83c-0.14 0.14-0.22 0.41-0.17 0.61l0.24 1.03c0.19 0.81-0.24 1.13-0.96 0.7l-1-0.59c-0.18-0.11-0.48-0.11-0.66 0l-1 0.59c-0.72 0.42-1.15 0.11-0.96-0.7l0.24-1.03c0.04-0.19-0.03-0.47-0.17-0.61l-0.85-0.83c-0.49-0.49-0.33-0.98 0.35-1.09l1.07-0.18c0.18-0.03 0.39-0.19 0.47-0.35l0.59-1.18c0.32-0.64 0.84-0.64 1.16 0l0.59 1.18c0.08 0.16 0.29 0.32 0.48 0.35l1.07 0.18c0.67 0.11 0.83 0.6 0.34 1.09z"/>
</svg>
