<?xml version="1.0" encoding="UTF-8"?>
<svg width="24" height="24" viewBox="0 0 24 24" xmlns="http://www.w3.org/2000/svg">
 <path d="m12 15c3.7279 0 6.75-2.9101 6.75-6.5 0-3.5898-3.0221-6.5-6.75-6.5-3.7279 0-6.75 2.9102-6.75 6.5 0 3.5899 3.0221 6.5 6.75 6.5z"/>
 <path d="m15.79 15.61c0.33-0.17 0.71 0.08 0.71 0.45v4.85c0 0.9-0.63 1.34-1.41 0.97l-2.68-1.27c-0.23-0.1-0.59-0.1-0.82 0l-2.68 1.27c-0.78 0.36-1.41-0.08-1.41-0.98l0.02-4.84c0-0.37 0.39-0.61 0.71-0.45 1.13 0.57 2.41 0.89 3.77 0.89s2.65-0.32 3.79-0.89z"/>
</svg>
