<?xml version="1.0" encoding="UTF-8"?>
<svg width="24" height="24" viewBox="0 0 24 24" xmlns="http://www.w3.org/2000/svg">
 <path d="m20.9 9.85 0.59 9.89c0.02 0.27-0.11 0.45-0.18 0.53-0.08 0.09-0.25 0.23-0.53 0.23h-2.73l2.16-10.65h0.69zm1.1-3.85-0.01 0.02c0.02 0.24 0 0.49-0.06 0.74l-7.37 13.53c-0.24 1.01-1.14 1.71-2.18 1.71h8.4c1.29 0 2.31-1.09 2.21-2.38l-0.99-13.62z"/>
 <path d="m11.45 2.2404c0.1-0.4-0.15-0.81-0.55-0.91-0.4-0.09-0.81 0.15-0.91001 0.55l-0.5 2.07h1.54l0.42-1.71z"/>
 <path d="m18.05 2.2096c0.09-0.41-0.17-0.8-0.58-0.89-0.4-0.09-0.8 0.17-0.89 0.58l-0.45 2.07h1.54l0.38-1.76z"/>
 <path d="m21.82 5.3304c-0.33-0.8-1.11-1.37-2.07-1.37h-2.08l-0.56 2.59c-0.08 0.35-0.39 0.59-0.73 0.59-0.05 0-0.11 0-0.16-0.02-0.4-0.09-0.66-0.49-0.58-0.89l0.49-2.28h-5.1l-0.63 2.6c-0.08 0.34-0.39 0.57-0.73 0.57-0.06 0-0.12-0.01-0.18-0.02-0.4-0.1-0.65-0.5-0.55-0.91l0.54-2.25h-2.03c-0.98 0-1.85 0.64-2.14 1.58l-4.21 13.55c-0.44 1.45 0.63 2.93 2.14 2.93h13.14c1.04 0 1.94-0.7 2.18-1.71l3.37-13.53c0.06-0.25 0.08-0.5 0.06-0.74s-0.07-0.48-0.17-0.69zm-7.12 11.42h-8c-0.41 0-0.75-0.34-0.75-0.75s0.34-0.75 0.75-0.75h8c0.41 0 0.75 0.34 0.75 0.75s-0.34 0.75-0.75 0.75zm1-4h-8c-0.41 0-0.75-0.34-0.75-0.75s0.34-0.75 0.75-0.75h8c0.41 0 0.75 0.34 0.75 0.75s-0.34 0.75-0.75 0.75z"/>
</svg>
