<svg width="24" height="24" viewBox="0 0 24 24"  xmlns="http://www.w3.org/2000/svg">
<path d="M20.8999 9.85L21.4899 19.74C21.5099 20.01 21.3799 20.19 21.3099 20.27C21.2299 20.36 21.0599 20.5 20.7799 20.5H18.0499L20.2099 9.85H20.8999ZM21.9999 6L21.9899 6.02C22.0099 6.26 21.9899 6.51 21.9299 6.76L14.5599 20.29C14.3199 21.3 13.4199 22 12.3799 22H20.7799C22.0699 22 23.0899 20.91 22.9899 19.62L21.9999 6Z" />
<path d="M11.45 2.2399C11.55 1.8399 11.3 1.4299 10.9 1.3299C10.5 1.2399 10.09 1.4799 9.98999 1.8799L9.48999 3.9499H11.03L11.45 2.2399Z" />
<path d="M18.0499 2.21005C18.1399 1.80005 17.8799 1.41005 17.4699 1.32005C17.0699 1.23005 16.6699 1.49005 16.5799 1.90005L16.1299 3.97005H17.6699L18.0499 2.21005Z" />
<path d="M21.82 5.32994C21.49 4.52994 20.71 3.95994 19.75 3.95994H17.67L17.11 6.54994C17.03 6.89994 16.72 7.13994 16.38 7.13994C16.33 7.13994 16.27 7.13994 16.22 7.11994C15.82 7.02994 15.56 6.62994 15.64 6.22994L16.13 3.94994H11.03L10.4 6.54994C10.32 6.88994 10.01 7.11994 9.67 7.11994C9.61 7.11994 9.55 7.10994 9.49 7.09994C9.09 6.99994 8.84 6.59994 8.94 6.18994L9.48 3.93994H7.45C6.47 3.93994 5.6 4.57994 5.31 5.51994L1.1 19.0699C0.659999 20.5199 1.73 21.9999 3.24 21.9999H16.38C17.42 21.9999 18.32 21.2999 18.56 20.2899L21.93 6.75994C21.99 6.50994 22.01 6.25994 21.99 6.01994C21.97 5.77994 21.92 5.53994 21.82 5.32994ZM14.7 16.7499H6.7C6.29 16.7499 5.95 16.4099 5.95 15.9999C5.95 15.5899 6.29 15.2499 6.7 15.2499H14.7C15.11 15.2499 15.45 15.5899 15.45 15.9999C15.45 16.4099 15.11 16.7499 14.7 16.7499ZM15.7 12.7499H7.7C7.29 12.7499 6.95 12.4099 6.95 11.9999C6.95 11.5899 7.29 11.2499 7.7 11.2499H15.7C16.11 11.2499 16.45 11.5899 16.45 11.9999C16.45 12.4099 16.11 12.7499 15.7 12.7499Z" />
</svg>
