<?xml version="1.0" encoding="UTF-8"?>
<svg width="24" height="24" viewBox="0 0 24 24" xmlns="http://www.w3.org/2000/svg">
 <path d="m12 2c-5.52 0-10 4.48-10 10s4.48 10 10 10 10-4.48 10-10-4.48-10-10-10zm5.25 10.81c0 0.17-0.01 0.33-0.03 0.49-0.15 1.77-1.2 2.65-3.12 2.65h-0.26c-0.16 0-0.32 0.08-0.42 0.21l-0.79 1.05c-0.35 0.47-0.91 0.47-1.26 0l-0.79-1.05c-0.09-0.11-0.28-0.21-0.42-0.21h-0.26c-2.09 0-3.15-0.52-3.15-3.15v-2.63c0-1.92 0.89-2.97 2.65-3.12 0.16-0.01 0.33-0.01 0.5-0.01h4.2c2.09 0 3.15 1.05 3.15 3.15v2.62z"/>
</svg>
