<?xml version="1.0" encoding="UTF-8"?>
<svg width="24" height="24" viewBox="0 0 24 24" xmlns="http://www.w3.org/2000/svg">
 <path d="m5 13.5c-0.94 0-1.81 0.33-2.5 0.88-0.92 0.73-1.5 1.86-1.5 3.12 0 2.21 1.79 4 4 4 1.01 0 1.93-0.38 2.64-1 0.83-0.73 1.36-1.8 1.36-3 0-2.21-1.79-4-4-4zm1 4.25c0 0.26-0.14 0.51-0.36 0.64l-1.25 0.75c-0.12 0.08-0.26 0.11-0.39 0.11-0.25 0-0.5-0.13-0.64-0.36-0.21-0.36-0.1-0.82 0.26-1.03l0.89-0.53v-1.08c0-0.41 0.34-0.75 0.75-0.75s0.74 0.34 0.74 0.75v1.5z"/>
 <path d="m17.25 2.4302h-9.5c-2.85 0-4.75 1.9-4.75 4.75v4.46c0 0.35 0.36 0.6 0.7 0.51 0.42-0.1 0.85-0.15 1.3-0.15 2.86 0 5.22 2.32 5.48 5.13 0.02 0.28 0.25 0.5 0.52 0.5h0.55l4.23 2.82c0.62 0.42 1.47-0.04 1.47-0.8v-2.02c1.42 0 2.61-0.48 3.44-1.3 0.83-0.84 1.31-2.03 1.31-3.45v-5.7c0-2.85-1.9-4.75-4.75-4.75zm-1.42 8.38h-6.66c-0.39 0-0.71-0.32-0.71-0.71 0-0.40002 0.32-0.72002 0.71-0.72002h6.66c0.39 0 0.71 0.32 0.71 0.72002 0 0.39-0.32 0.71-0.71 0.71z"/>
</svg>
