<?xml version="1.0" encoding="UTF-8"?>
<svg width="24" height="24" viewBox="0 0 24 24" xmlns="http://www.w3.org/2000/svg">
 <path d="m16 2h-8c-4 0-6 2-6 6v13c0 0.55 0.45 1 1 1h13c4 0 6-2 6-6v-8c0-4-2-6-6-6zm-4.89 14.66c-0.25 0.25-0.71 0.48-1.05 0.53l-2.08 0.29c-0.08 0.01-0.16 0.02-0.23 0.02-0.35 0-0.67-0.12-0.9-0.35-0.28-0.28-0.4-0.69-0.33-1.13l0.29-2.08c0.05-0.34 0.28-0.81 0.53-1.05l3.77-3.77c0.06 0.18 0.14 0.36 0.23 0.56 0.09 0.18 0.18 0.36 0.28 0.53 0.08 0.14 0.17 0.28 0.25 0.38 0.1 0.15 0.2 0.28 0.27 0.35 0.04 0.06 0.08 0.1 0.09 0.12 0.22 0.25 0.45 0.49 0.67 0.67 0.06 0.06 0.1 0.09 0.11 0.1 0.13 0.1 0.25 0.21 0.37 0.28 0.13 0.1 0.27 0.19 0.41 0.27 0.17 0.1 0.35 0.2 0.54 0.29s0.37 0.16 0.55 0.22l-3.77 3.77zm5.44-5.43-0.78 0.78c-0.05 0.05-0.12 0.08-0.19 0.08-0.02 0-0.06 0-0.08-0.01-1.72-0.49-3.09-1.86-3.58-3.58-0.03-0.09 0-0.19 0.07-0.26l0.79-0.79c1.29-1.29 2.51-1.26 3.77 0 0.64 0.64 0.96 1.26 0.95 1.9 0 0.63-0.31 1.24-0.95 1.88z"/>
</svg>
