<?xml version="1.0" encoding="UTF-8"?>
<svg width="24" height="24" viewBox="0 0 24 24" xmlns="http://www.w3.org/2000/svg">
 <path d="m20 6.75c1.5188 0 2.75-1.2312 2.75-2.75s-1.2312-2.75-2.75-2.75-2.75 1.2312-2.75 2.75 1.2312 2.75 2.75 2.75z"/>
 <path d="m19.04 8.15c-1.57-0.34-2.85-1.62-3.19-3.19-0.13-0.61-0.14-1.2-0.03-1.76 0.13-0.62-0.33-1.2-0.97-1.2h-7.85c-2.76 0-5 2.24-5 5v6.95c0 2.76 2.24 5 5 5h1.5c0.28 0 0.64 0.18 0.8 0.4l1.5 1.99c0.66 0.88 1.74 0.88 2.4 0l1.5-1.99c0.19-0.25 0.48-0.4 0.8-0.4h1.51c2.76 0 4.99-2.23 4.99-4.99v-4.81c0-0.63-0.58-1.09-1.2-0.97-0.56 0.1-1.15 0.1-1.76-0.03zm-11.04 3.85c-0.56 0-1-0.45-1-1s0.44-1 1-1c0.55 0 1 0.45 1 1s-0.44 1-1 1zm4 0c-0.56 0-1-0.45-1-1s0.44-1 1-1c0.55 0 1 0.45 1 1s-0.44 1-1 1zm4 0c-0.56 0-1-0.45-1-1s0.44-1 1-1c0.55 0 1 0.45 1 1s-0.44 1-1 1z"/>
</svg>
