<?xml version="1.0" encoding="UTF-8"?>
<svg width="24" height="24" viewBox="0 0 24 24" xmlns="http://www.w3.org/2000/svg">
 <path d="m5.21 13.51c-1.09-0.07-2.21 0.33-3.04 1.16-1.56 1.56-1.56 4.09 0 5.66 0.53 0.53 1.18 0.88 1.87 1.05 0.38 0.1 0.78 0.13 1.18 0.11 0.95-0.04 1.88-0.42 2.61-1.15 1.03-1.03 1.38-2.48 1.05-3.79-0.16-0.69-0.52-1.34-1.05-1.87-0.72-0.73-1.66-1.12-2.62-1.17zm2.03 3.97c0 0.21-0.08 0.39-0.22 0.53s-0.32 0.22-0.53 0.22h-0.74v0.78c0 0.21-0.08 0.39-0.22 0.53s-0.32 0.22-0.53 0.22c-0.41 0-0.75-0.34-0.75-0.75v-0.78h-0.75c-0.41 0-0.75-0.34-0.75-0.75s0.34-0.75 0.75-0.75h0.75v-0.71c0-0.41 0.34-0.75 0.75-0.75s0.75 0.34 0.75 0.75v0.71h0.74c0.42 0 0.75 0.34 0.75 0.75z"/>
 <path d="m17.25 2.4302h-9.5c-2.85 0-4.75 1.9-4.75 4.75v4.46c0 0.35 0.36 0.6 0.7 0.51 0.42-0.1 0.85-0.15 1.3-0.15 2.86 0 5.22 2.32 5.48 5.13 0.02 0.28 0.25 0.5 0.52 0.5h0.55l4.23 2.82c0.62 0.42 1.47-0.04 1.47-0.8v-2.02c1.42 0 2.61-0.48 3.44-1.3 0.83-0.84 1.31-2.03 1.31-3.45v-5.7c0-2.85-1.9-4.75-4.75-4.75zm-1.42 8.38h-6.66c-0.39 0-0.71-0.32-0.71-0.71 0-0.40002 0.32-0.72002 0.71-0.72002h6.66c0.39 0 0.71 0.32 0.71 0.72002 0 0.39-0.32 0.71-0.71 0.71z"/>
</svg>
