<?xml version="1.0" encoding="UTF-8"?>
<svg width="24" height="24" viewBox="0 0 24 24" xmlns="http://www.w3.org/2000/svg">
 <path d="m16.19 2h-8.38c-3.64 0-5.81 2.17-5.81 5.81v8.37c0 3.65 2.17 5.82 5.81 5.82h8.37c3.64 0 5.81-2.17 5.81-5.81v-8.38c0.01-3.64-2.16-5.81-5.8-5.81zm2.09 10.91c0 0.2-0.01 0.4-0.03 0.59-0.18 2.12-1.43 3.18-3.73 3.18h-0.32c-0.2 0-0.39 0.09-0.5 0.25l-0.94 1.26c-0.42 0.56-1.09 0.56-1.51 0l-0.94-1.26c-0.1-0.13-0.33-0.25-0.5-0.25h-0.32c-2.51 0-3.76-0.62-3.76-3.76v-3.16c0-2.3 1.06-3.55 3.18-3.73 0.17-0.02 0.37-0.03 0.58-0.03h5.03c2.51 0 3.76 1.26 3.76 3.76v3.15z"/>
</svg>
