<?xml version="1.0" encoding="UTF-8"?>
<svg width="24" height="24" viewBox="0 0 24 24" xmlns="http://www.w3.org/2000/svg">
 <path d="m12 2c-5.52 0-10 4.15-10 9.26 0 2.9 1.44 5.48 3.68 7.18v1.85c0 0.77 0.81999 1.25 1.49 0.87l1.86-1.05c0.94 0.27 1.93 0.41 2.96 0.41 5.52 0 10-4.15 10-9.26 0.01-5.11-4.47-9.26-9.99-9.26zm3.51 8.44-2.5 2.99c-0.16 0.19-0.42 0.23-0.63 0.11l-1.01-0.59c-0.11-0.06-0.24-0.08-0.37-0.05l-2.01 0.49c-0.47 0.11-0.81-0.44-0.5-0.81l2.54-3.02c0.15-0.18 0.41-0.23 0.62-0.12l1.18 0.62c0.11 0.06 0.24 0.07 0.36 0.04l1.82-0.47c0.46-0.12 0.81 0.44 0.5 0.81z"/>
</svg>
