<?xml version="1.0" encoding="UTF-8"?>
<svg width="24" height="24" viewBox="0 0 24 24" xmlns="http://www.w3.org/2000/svg">
 <path d="m22 12.86c0 2.29-1.18 4.32-3 5.6l-1.34 2.95c-0.31 0.67-1.21 0.8-1.68 0.23l-1.48-1.78c-1.86 0-3.57-0.63-4.87-1.68l0.60002-0.71c4.62-0.35 8.27-4.01 8.27-8.47 0-0.76-0.11-1.51-0.31-2.23 2.27 1.2 3.81 3.48 3.81 6.09z"/>
 <path d="m16.3 6.07c-1.17-2.4-3.78-4.07-6.8-4.07-4.14 0-7.5 3.13-7.5 7 0 2.29 1.18 4.32 3 5.6l1.34 2.95c0.31 0.67 1.21 0.79 1.68 0.23l0.55-0.66 0.93-1.12c4.14 0 7.5-3.13 7.5-7 0-1.05-0.25-2.04-0.7-2.93zm-4.3 3.68h-5c-0.41 0-0.75-0.34-0.75-0.75s0.34-0.75 0.75-0.75h5c0.41 0 0.75 0.34 0.75 0.75s-0.34 0.75-0.75 0.75z"/>
</svg>
