<?xml version="1.0" encoding="UTF-8"?>
<svg width="24" height="24" viewBox="0 0 24 24" xmlns="http://www.w3.org/2000/svg">
 <path d="m16 1.9697h-8c-4 0-6 2-6 6v5c0 5 2 6 6 6h0.5c0.28 0 0.64 0.18 0.8 0.4l1.5 2c0.66 0.88 1.74 0.88 2.4 0l1.5-2c0.19-0.25 0.49-0.4 0.8-0.4h0.5c4 0 6-2 6-6v-5c0-4-2-6-6-6zm-7.47 10.2c0.29 0.29 0.29 0.77 0 1.06-0.15 0.15-0.34 0.22-0.53 0.22s-0.38-0.07-0.53-0.22l-2-2c-0.29-0.29-0.29-0.77 0-1.06l2-2c0.29-0.29 0.77-0.29 1.06 0s0.29 0.77 0 1.06l-1.47 1.47 1.47 1.47zm5.16-3.51-2 4.67c-0.12 0.28-0.4 0.45-0.69 0.45-0.1 0-0.2-0.02-0.3-0.06-0.38-0.16-0.56-0.6-0.39-0.99l2-4.67c0.16-0.38 0.6-0.56 0.99-0.39 0.38 0.17 0.55 0.61 0.39 0.99zm4.84 2.57-2 2c-0.15 0.15-0.34 0.22-0.53 0.22s-0.38-0.07-0.53-0.22c-0.29-0.29-0.29-0.77 0-1.06l1.47-1.47-1.47-1.47c-0.29-0.29-0.29-0.77 0-1.06s0.77-0.29 1.06 0l2 2c0.29 0.29 0.29 0.77 0 1.06z"/>
</svg>
