<?xml version="1.0" encoding="UTF-8"?>
<svg width="24" height="24" viewBox="0 0 24 24" xmlns="http://www.w3.org/2000/svg">
 <path d="m18.47 16.83 0.39 3.16c0.1 0.83-0.79 1.41-1.5 0.98l-3.46-2.06c-0.24-0.14-0.3-0.44-0.17-0.68 0.5-0.92 0.77-1.96 0.77-3 0-3.66-3.14-6.64-7-6.64-0.79 0-1.56 0.12-2.28 0.36-0.37 0.12-0.73-0.22-0.64-0.6 0.91-3.64 4.41-6.35 8.59-6.35 4.88 0 8.83 3.69 8.83 8.24 0 2.7-1.39 5.09-3.53 6.59z"/>
 <path d="m13 15.23c0 1.19-0.44 2.29-1.18 3.16-0.99 1.2-2.56 1.97-4.32 1.97l-2.61 1.55c-0.44 0.27-1-0.1-0.94-0.61l0.25-1.97c-1.34-0.93-2.2-2.42-2.2-4.1 0-1.76 0.94-3.31 2.38-4.23 0.89-0.58 1.96-0.91 3.12-0.91 3.04 0 5.5 2.3 5.5 5.14z"/>
</svg>
