<?xml version="1.0" encoding="UTF-8"?>
<svg width="24" height="24" viewBox="0 0 24 24" xmlns="http://www.w3.org/2000/svg">
 <path d="m13.19 6h-6.4c-0.26 0-0.51 0.01-0.75 0.04-2.69 0.23-4.04 1.82-4.04 4.75v4c0 4 1.6 4.79 4.79 4.79h0.4c0.22 0 0.51 0.15 0.64 0.32l1.2 1.6c0.53 0.71 1.39 0.71 1.92 0l1.2-1.6c0.15-0.2 0.39-0.32 0.64-0.32h0.4c2.93 0 4.52-1.34 4.75-4.04 0.03-0.24 0.04-0.49 0.04-0.75v-4c0-3.19-1.6-4.79-4.79-4.79zm-6.69 8c-0.56 0-1-0.45-1-1s0.45-1 1-1 1 0.45 1 1-0.45 1-1 1zm3.49 0c-0.56 0-1-0.45-1-1s0.45-1 1-1 1 0.45 1 1-0.44 1-1 1zm3.5 0c-0.56 0-1-0.45-1-1s0.45-1 1-1 1 0.45 1 1-0.45 1-1 1z"/>
 <path d="m21.98 6.79v4c0 2-0.62 3.36-1.86 4.11-0.3 0.18-0.65-0.06-0.65-0.41l0.01-3.7c0-4-2.29-6.29-6.29-6.29l-6.09 0.01c-0.35 0-0.59-0.35-0.41-0.65 0.75-1.24 2.11-1.86 4.1-1.86h6.4c3.19 0 4.79 1.6 4.79 4.79z"/>
</svg>
