<?xml version="1.0" encoding="UTF-8"?>
<svg width="24" height="24" viewBox="0 0 24 24" xmlns="http://www.w3.org/2000/svg">
 <path d="m17 2h-10c-2.76 0-5 2.23-5 4.98v6.98c0 2.75 2.24 4.98 5 4.98h1.5c0.27 0 0.63 0.18 0.8 0.4l1.5 1.99c0.66 0.88 1.74 0.88 2.4 0l1.5-1.99c0.19-0.25 0.49-0.4 0.8-0.4h1.5c2.76 0 5-2.23 5-4.98v-6.98c0-2.75-2.24-4.98-5-4.98zm-1.34 12.53c-0.15 0.15-0.34 0.22-0.53 0.22s-0.38-0.07-0.53-0.22l-0.74-0.74c-0.58 0.38-1.28 0.61-2.03 0.61-2.04 0-3.7-1.66-3.7-3.7s1.65-3.7 3.7-3.7 3.7 1.66 3.7 3.7c0 0.75-0.23 1.45-0.61 2.03l0.74 0.74c0.29 0.29 0.29 0.77 0 1.06z"/>
</svg>
