<?xml version="1.0" encoding="UTF-8"?>
<svg width="24" height="24" viewBox="0 0 24 24" xmlns="http://www.w3.org/2000/svg">
 <path d="m17 2.4297h-10c-3 0-5 2-5 5v6c0 3 2 5 5 5v2.13c0 0.8 0.89 1.28 1.55 0.83l4.45-2.96h4c3 0 5-2 5-5v-6c0-3-2-5-5-5zm-5 12.17c-0.42 0-0.75-0.34-0.75-0.75s0.33-0.75 0.75-0.75 0.75 0.34 0.75 0.75-0.33 0.75-0.75 0.75zm1.26-4.15c-0.39 0.26-0.51 0.43-0.51 0.71v0.21c0 0.41-0.34 0.75-0.75 0.75s-0.75-0.34-0.75-0.75v-0.21c0-1.16 0.85-1.73 1.17-1.95 0.37-0.25 0.49-0.42 0.49-0.68 0-0.5-0.41-0.91-0.91-0.91s-0.91 0.41-0.91 0.91c0 0.41-0.34 0.75-0.75 0.75s-0.75-0.34-0.75-0.75c0-1.33 1.08-2.41 2.41-2.41s2.41 1.08 2.41 2.41c0 1.14-0.84 1.71-1.15 1.92z"/>
</svg>
