<?xml version="1.0" encoding="UTF-8"?>
<svg width="24" height="24" viewBox="0 0 24 24" xmlns="http://www.w3.org/2000/svg">
 <path d="m5 13.5c-2.21 0-4 1.79-4 4 0 0.75 0.21 1.46 0.58 2.06 0.69 1.16 1.96 1.94 3.42 1.94s2.73-0.78 3.42-1.94c0.37-0.6 0.58-1.31 0.58-2.06 0-2.21-1.79-4-4-4zm1.97 3.67-2.13 1.97c-0.14 0.13-0.33 0.2-0.51 0.2-0.19 0-0.38-0.07-0.53-0.22l-0.99-0.99c-0.29-0.29-0.29-0.77 0-1.06s0.77-0.29 1.06 0l0.48 0.48 1.6-1.48c0.3-0.28 0.78-0.26 1.06 0.04s0.26 0.78-0.04 1.06z"/>
 <path d="m17.25 2.4302h-9.5c-2.85 0-4.75 1.9-4.75 4.75v4.46c0 0.35 0.36 0.6 0.7 0.51 0.42-0.1 0.85-0.15 1.3-0.15 2.86 0 5.22 2.32 5.48 5.13 0.02 0.28 0.25 0.5 0.52 0.5h0.55l4.23 2.82c0.62 0.42 1.47-0.04 1.47-0.8v-2.02c1.42 0 2.61-0.48 3.44-1.3 0.83-0.84 1.31-2.03 1.31-3.45v-5.7c0-2.85-1.9-4.75-4.75-4.75zm-1.42 8.38h-6.66c-0.39 0-0.71-0.32-0.71-0.71 0-0.40002 0.32-0.72002 0.71-0.72002h6.66c0.39 0 0.71 0.32 0.71 0.72002 0 0.39-0.32 0.71-0.71 0.71z"/>
</svg>
