<?xml version="1.0" encoding="UTF-8"?>
<svg width="24" height="24" viewBox="0 0 24 24" xmlns="http://www.w3.org/2000/svg">
 <path d="m18 16v3c0 1.65-1.35 3-3 3h-6c-1.65 0-3-1.35-3-3v-4.01c0-0.55 0.45-1 1.01-1l2.88 0.01c0.69 0 1.37 0.15 2 0.45 0.69 0.32 1.42 0.55 2.19 0.55h2.92c0.55 0 1 0.45 1 1z"/>
 <path d="m17.41 9.41-2.12-2.12c-0.19-0.19-0.29-0.44-0.29-0.7v-1.68c0.58-0.2 1-0.76 1-1.41 0-0.83-0.67-1.5-1.5-1.5h-5c-0.83 0-1.5 0.67-1.5 1.5 0 0.65 0.42 1.21 1 1.41v1.68c0 0.26-0.1 0.51-0.29 0.7l-2.12 2.12c-0.32 0.32-0.59 0.97-0.59 1.42v0.65c0 0.55 0.44 1 0.99 1l2.91 0.02c0.98 0 1.97 0.24 2.85 0.7 0.42 0.22 0.9 0.3 1.37 0.3h2.88c0.55 0 1-0.45 1-1v-1.67c0-0.45-0.27-1.1-0.59-1.42z"/>
</svg>
