<svg width="24" height="24" viewBox="0 0 24 24"  xmlns="http://www.w3.org/2000/svg">
<path d="M11 16.15V18.85C11 21.1 10.1 22 7.85 22H5.15C2.9 22 2 21.1 2 18.85V16.15C2 13.9 2.9 13 5.15 13H7.85C10.1 13 11 13.9 11 16.15Z" />
<path fill-rule="evenodd" clip-rule="evenodd" d="M16.48 2C19.53 2 22 4.47 22 7.52V15.48C22 18.94 19.93 21 16.48 21H13.5C12.95 21 12.5 20.55 12.5 20V15.5C12.5 13.29 10.71 11.5 8.5 11.5H4C3.45 11.5 3 11.05 3 10.5V7.52C3 4.47 5.47 2 8.52 2H16.48ZM18.0123 5.21973C18.2023 5.21973 18.3923 5.28973 18.5423 5.43973C18.8323 5.72973 18.8323 6.20973 18.5423 6.49973L14.8023 10.2497L17.0123 10.2497C17.4223 10.2497 17.7623 10.5897 17.7623 10.9997C17.7623 11.4097 17.4323 11.7497 17.0123 11.7497L13.0023 11.7497C12.7064 11.7497 12.4299 11.5746 12.3169 11.3011C12.2755 11.2086 12.2524 11.1065 12.2524 10.9997V6.98973C12.2524 6.56973 12.5924 6.22973 13.0024 6.22973C13.4124 6.22973 13.7524 6.56973 13.7524 6.97973V9.18444L17.4823 5.43973C17.6323 5.28973 17.8223 5.21973 18.0123 5.21973Z" />
</svg>
