<?xml version="1.0" encoding="UTF-8"?>
<svg width="24" height="24" viewBox="0 0 24 24" xmlns="http://www.w3.org/2000/svg">
 <path d="m20.71 17.52c-0.37 1.22-1.1 2.16-2.14 2.74-0.04-0.16-0.06-0.33-0.06-0.5 0-1.22 0.99-2.22 2.2-2.24z" opacity=".4"/>
 <path d="m21 7.52v1.964c0 0.52253-0.414 0.94543-0.92 1.076l-2.95 0.82c-1.56 0.4-2.6 1.75-2.6 3.36v1.5449c0 0.4746-0.3427 0.8707-0.7688 1.0795-1.0155 0.4975-1.7914 1.507-2.0842 2.6463-0.1375 0.5349-0.5747 0.9893-1.127 0.9893h-3.03c-3.45 0-5.52-2.06-5.52-5.52v-7.96c0-3.46 2.07-5.52 5.52-5.52h7.96c3.45 0 5.52 2.06 5.52 5.52z"/>
 <path d="m22.31 12.25c-0.26-0.19-0.68-0.39-1.31-0.33-0.16 0.01-0.33 0.04-0.52 0.09l-2.98 0.82c-0.89 0.23-1.47 0.98-1.47 1.91v3.91c-0.23-0.08-0.48-0.13-0.74-0.13-1.24 0-2.25 1-2.25 2.24 0 0.08 0 0.16 0.01 0.24 0.12 1.12 1.08 2 2.24 2 1.22 0 2.21-0.99 2.23-2.2 0-0.02 0.01-0.03 0.01-0.04v-3.69l3.45-0.95 0.52-0.14v1.68c-0.23-0.08-0.48-0.14-0.75-0.14h-0.04c-1.21 0.02-2.2 1.02-2.2 2.24 0 0.17 0.02 0.34 0.06 0.5 0.23 1 1.12 1.75 2.18 1.75 1.23 0 2.22-0.99 2.24-2.21 0-0.01 0.01-0.02 0.01-0.04v-5.83c0-0.76-0.23-1.32-0.69-1.68zm-7.02 9.25c-0.33 0-0.61-0.21-0.7-0.5-0.04-0.07-0.05-0.16-0.05-0.24 0-0.41 0.34-0.74 0.75-0.74 0.4 0 0.74 0.33 0.74 0.74 0 0.08-0.01 0.15-0.04 0.22-0.09 0.3-0.37 0.52-0.7 0.52zm5.46-0.99c-0.4 0-0.74-0.34-0.74-0.75 0-0.4 0.34-0.74 0.74-0.74 0.41 0 0.75 0.34 0.75 0.74 0 0.41-0.34 0.75-0.75 0.75z"/>
</svg>
