<?xml version="1.0" encoding="UTF-8"?>
<svg width="24" height="24" viewBox="0 0 24 24" xmlns="http://www.w3.org/2000/svg">
 <path d="m17 3h-10c-2.76 0-5 2.24-5 5v8c0 2.76 2.24 5 5 5h10c2.76 0 5-2.24 5-5v-8c0-2.76-2.24-5-5-5zm-6.51 13.81c-0.03 0-0.06 0.01-0.1 0.01-0.37 0-0.69-0.28-0.74-0.65-0.13-1.02-0.87-1.76-1.89-1.89-0.41-0.05-0.7-0.43-0.65-0.84s0.43-0.7 0.84-0.65c1.69 0.22 2.97 1.5 3.19 3.19 0.05 0.4-0.24 0.78-0.65 0.83zm3.05-0.51c-0.03 0-0.06 0.01-0.1 0.01-0.37 0-0.69-0.28-0.74-0.65-0.31-2.38-2.04-4.12-4.43-4.43-0.41-0.05-0.7-0.43-0.65-0.84s0.43-0.7 0.84-0.65c3.08 0.4 5.33 2.64 5.73 5.73 0.05 0.4-0.24 0.77-0.65 0.83zm2.7-0.87c-0.03 0-0.06 0.01-0.1 0.01-0.37 0-0.69-0.28-0.74-0.65-0.43-3.38-2.89-5.84-6.27-6.27-0.41-0.05-0.7-0.43-0.65-0.84s0.43-0.7 0.84-0.65c4.07 0.52 7.04 3.49 7.57 7.57 0.05 0.41-0.24 0.78-0.65 0.83z"/>
</svg>
