<?xml version="1.0" encoding="UTF-8"?>
<svg width="24" height="24" viewBox="0 0 24 24" xmlns="http://www.w3.org/2000/svg">
 <path d="m18 13c-2.76 0-5 2.24-5 5s2.24 5 5 5 5-2.24 5-5-2.24-5-5-5zm-0.84 6.27c0.25 0.25 0.25 0.66 0 0.92-0.13 0.13-0.29 0.19-0.46 0.19s-0.33-0.06-0.46-0.19l-1.73-1.73c-0.25-0.25-0.25-0.66 0-0.92l1.73-1.73c0.25-0.25 0.66-0.25 0.92 0 0.25 0.25 0.25 0.66 0 0.92l-1.27 1.27 1.27 1.27zm4.32-0.81-1.73 1.73c-0.13 0.13-0.29 0.19-0.46 0.19s-0.33-0.06-0.46-0.19c-0.25-0.25-0.25-0.66 0-0.92l1.28-1.27-1.27-1.27c-0.25-0.25-0.25-0.66 0-0.92 0.25-0.25 0.66-0.25 0.92 0l1.73 1.73c0.24 0.26 0.24 0.66-0.01 0.92z"/>
 <path d="m21 6.9998v4.47c0 0.35-0.34 0.59-0.66 0.47-1.11-0.43-2.35-0.57-3.65-0.31-2.6 0.52-4.67 2.65-5.1 5.27-0.26 1.6 0.06 3.11 0.79 4.34 0.2 0.34-0.04 0.76-0.43 0.76h-3.95c-3.5 0-5-2-5-5v-10c0-2.66 1.18-4.53 3.89-4.92 0.29-0.04 0.55 0.19 0.56 0.49l0.03 1.01c0.03 1.6 1.38 2.92 3 2.92h3.02c1.65 0 3-1.35 3-3v-0.93c0-0.3 0.26-0.54 0.55-0.5 2.75 0.37 3.95 2.25 3.95 4.93z"/>
 <path d="m15 3v0.5c0 0.82-0.68 1.5-1.5 1.5h-3.03c-0.80999 0-1.48-0.65-1.5-1.46l-0.01-0.51c-0.02-0.57 0.43-1.03 1-1.03h4.04c0.55 0 1 0.45 1 1z"/>
</svg>
