<?xml version="1.0" encoding="UTF-8"?>
<svg width="24" height="24" viewBox="0 0 24 24" xmlns="http://www.w3.org/2000/svg">
 <path d="m3.18 15.031c-0.35 0-0.6 0.35-0.47 0.67 1.47 3.7 5.08 6.3 9.29 6.3 4.22 0 7.83-2.62 9.3-6.33 0.13-0.32-0.13-0.67-0.47-0.67h-3.33c-0.28 0-0.5-0.22-0.5-0.5v-2.74c0-0.92-1.15-1.35-1.75-0.65l-2.87 3.43c-0.2 0.24-0.57 0.24-0.77 0l-2.87-3.43c-0.59-0.7-1.74-0.27-1.74 0.65v2.74c0 0.28-0.22 0.5-0.5 0.5l-3.32 0.03z"/>
 <path d="m22 12.14c0 0.31-0.02 0.62-0.06 0.92-0.03 0.25-0.25 0.44-0.51 0.44h-2.43c-0.28 0-0.5-0.22-0.5-0.5v-1.1c0-1.01-0.54-1.99-1.46-2.41-1.03-0.47-2.2-0.21-2.94 0.65997l-1.72 2.05c-0.2 0.24-0.57 0.24-0.77 0l-1.73-2.07c-0.72-0.84998-1.88-1.11-2.92-0.63997-0.92 0.42-1.46 1.4-1.46 2.41v0.98c0 0.42-0.22 0.64-0.5 0.64l-2.44 0.01c-0.25 0-0.48-0.19-0.51-0.44-0.03-0.36-0.05-0.72-0.05-1.09 0-6.05 5.39-10.86 11.63-9.87 4.83 0.76 8.44 5.11 8.37 10.01z"/>
</svg>
