<?xml version="1.0" encoding="UTF-8"?>
<svg width="24" height="24" viewBox="0 0 24 24" xmlns="http://www.w3.org/2000/svg">
 <path d="m19.17 6.64c-0.43-2.17-2.04-3.12-4.28-3.12h-8.78c-2.64 0-4.4 1.32-4.4 4.4v5.15c0 2.22 0.91 3.52 2.41 4.08 0.22 0.08 0.46 0.15 0.71 0.19 0.4 0.09 0.83 0.13 1.28 0.13h8.79c2.64 0 4.4-1.32 4.4-4.4v-5.15c0-0.47-0.04-0.89-0.13-1.28zm-13.64 5.36c0 0.41-0.34 0.75-0.75 0.75s-0.75-0.34-0.75-0.75v-3c0-0.41 0.34-0.75 0.75-0.75s0.75 0.34 0.75 0.75v3zm4.97 1.14c-1.46 0-2.64-1.18-2.64-2.64 0-1.46 1.18-2.64 2.64-2.64 1.46 0 2.64 1.18 2.64 2.64 0 1.46-1.18 2.64-2.64 2.64zm6.46-1.14c0 0.41-0.34 0.75-0.75 0.75s-0.75-0.34-0.75-0.75v-3c0-0.41 0.34-0.75 0.75-0.75s0.75 0.34 0.75 0.75v3z"/>
 <path d="m22.3 10.92v5.15c0 3.08-1.76 4.41-4.41 4.41h-8.78c-0.75 0-1.42-0.11-2-0.33-0.47-0.17-0.88-0.42-1.21-0.74-0.18-0.17-0.04-0.44 0.21-0.44h8.78c3.7 0 5.9-2.2 5.9-5.89v-5.16c0-0.24 0.27-0.39 0.44-0.21 0.68 0.72 1.07 1.77 1.07 3.21z"/>
</svg>
