<?xml version="1.0" encoding="UTF-8"?>
<svg width="24" height="24" viewBox="0 0 24 24" xmlns="http://www.w3.org/2000/svg">
 <path d="m18.81 6.25h1.36c-0.19-0.27-0.39-0.52-0.6-0.77l-0.76 0.77z"/>
 <path d="m18.52 4.42c-0.25-0.21-0.5-0.41-0.77-0.6v1.36l0.77-0.76z"/>
 <path d="m19.58 5.48 2.95-2.95c0.29-0.29 0.29-0.77 0-1.06s-0.77-0.29-1.06 0l-2.95 2.95c0.38 0.33 0.73 0.69 1.06 1.06z"/>
 <path d="m17.75 3c0-0.41-0.34-0.75-0.75-0.75-0.4 0-0.72 0.32-0.74 0.71 0.52 0.25 1.02 0.53 1.49 0.86v-0.82z"/>
 <path d="m21.75 7c0-0.41-0.34-0.75-0.75-0.75h-0.83c0.33 0.47 0.62 0.97 0.86 1.49 0.4-0.02 0.72-0.34 0.72-0.74z"/>
 <path d="m12.75 14.75h0.3c0.39 0 0.7-0.35 0.7-0.78 0-0.54-0.15-0.62-0.49-0.74l-0.51-0.18v1.7z"/>
 <path d="m21.04 7.74c-0.01 0-0.02 0.01-0.04 0.01h-4c-0.1 0-0.19-0.02-0.29-0.06-0.18-0.08-0.33-0.22-0.41-0.41-0.03-0.09-0.05-0.18-0.05-0.28v-4c0-0.01 0.01-0.02 0.01-0.04-1.3-0.61-2.74-0.96-4.26-0.96-5.52 0-10 4.48-10 10s4.48 10 10 10 10-4.48 10-10c0-1.52-0.35-2.96-0.96-4.26zm-7.29 4.08c0.64 0.22 1.5 0.69 1.5 2.16 0 1.25-0.99 2.28-2.2 2.28h-0.3v0.25c0 0.41-0.34 0.75-0.75 0.75s-0.75-0.34-0.75-0.75v-0.25h-0.08c-1.33 0-2.42-1.12-2.42-2.5 0-0.42 0.34-0.76 0.75-0.76s0.75 0.34 0.75 0.75c0 0.55 0.41 1 0.92 1h0.08v-2.22l-1-0.35c-0.64-0.22-1.5-0.69-1.5-2.16 0-1.25 0.99-2.28 2.2-2.28h0.3v-0.24c0-0.41 0.34-0.75 0.75-0.75s0.75 0.34 0.75 0.75v0.25h0.08c1.33 0 2.42 1.12 2.42 2.5 0 0.41-0.34 0.75-0.75 0.75s-0.75-0.34-0.75-0.75c0-0.55-0.41-1-0.92-1h-0.08v2.22l1 0.35z"/>
 <path d="m10.25 10.03c0 0.54 0.15 0.62 0.49 0.74l0.51 0.18v-1.7h-0.3c-0.38 0-0.7 0.35-0.7 0.78z"/>
</svg>
