<?xml version="1.0" encoding="UTF-8"?>
<svg width="24" height="24" viewBox="0 0 24 24" xmlns="http://www.w3.org/2000/svg">
 <path d="m1.7 20.24c0.01-0.01 0.01-0.02 0.01-0.02l5.5-5.5c0.01-0.01 0.02-0.01 0.03-0.02-0.63-0.44-1.4-0.7-2.24-0.7-2.21 0-4 1.79-4 4 0 0.75 0.21 1.46 0.58 2.06l0.12 0.18z"/>
 <path d="m8.3 15.75c-0.01 0.01-0.01 0.02-0.02 0.03l-5.5 5.5c-0.01 0.01-0.02 0.01-0.03 0.02 0.64 0.44 1.41 0.7 2.25 0.7 1.46 0 2.73-0.78 3.42-1.94 0.37-0.6 0.58-1.31 0.58-2.06 0-0.84-0.26-1.61-0.7-2.25z"/>
 <path d="m17 4h-10c-3 0-5 1.5-5 5v3.56c0 0.37 0.38 0.6 0.71 0.45 0.98-0.45 2.11-0.62 3.3-0.41 2.63 0.47 4.56 2.91 4.49 5.58-0.01 0.42-0.07 0.83-0.18 1.23-0.08 0.31 0.17 0.6 0.49 0.6h6.19c3 0 5-1.5 5-5v-6.01c0-3.5-2-5-5-5zm-5 10.5c-1.38 0-2.5-1.12-2.5-2.5s1.12-2.5 2.5-2.5 2.5 1.12 2.5 2.5-1.12 2.5-2.5 2.5zm7.25-0.5c0 0.41-0.34 0.75-0.75 0.75s-0.75-0.34-0.75-0.75v-4c0-0.41 0.34-0.75 0.75-0.75s0.75 0.34 0.75 0.75v4z"/>
</svg>
