<svg width="24" height="24" viewBox="0 0 24 24"  xmlns="http://www.w3.org/2000/svg">
<path d="M3.17996 15.03C2.82996 15.03 2.57996 15.38 2.70996 15.7C4.17996 19.4 7.78996 22 12 22C16.22 22 19.83 19.38 21.3 15.67C21.43 15.35 21.17 15 20.83 15H17.5C17.22 15 17 14.78 17 14.5V11.76C17 10.84 15.85 10.41 15.25 11.11L12.38 14.54C12.18 14.78 11.81 14.78 11.61 14.54L8.73996 11.11C8.14996 10.41 6.99996 10.84 6.99996 11.76V14.5C6.99996 14.78 6.77996 15 6.49996 15L3.17996 15.03Z" />
<path d="M22 12.1397C22 12.4497 21.98 12.7597 21.94 13.0597C21.91 13.3097 21.69 13.4997 21.43 13.4997H19C18.72 13.4997 18.5 13.2797 18.5 12.9997V11.8997C18.5 10.8897 17.96 9.90973 17.04 9.48973C16.01 9.01973 14.84 9.27973 14.1 10.1497L12.38 12.1997C12.18 12.4397 11.81 12.4397 11.61 12.1997L9.88 10.1297C9.16 9.27972 8 9.01973 6.96 9.48973C6.04 9.90973 5.5 10.8897 5.5 11.8997V12.8797C5.5 13.2997 5.28 13.5197 5 13.5197L2.56 13.5297C2.31 13.5297 2.08 13.3397 2.05 13.0897C2.02 12.7297 2 12.3697 2 11.9997C2 5.94973 7.39 1.13972 13.63 2.12972C18.46 2.88972 22.07 7.23973 22 12.1397Z" />
</svg>
