<?xml version="1.0" encoding="UTF-8"?>
<svg width="24" height="24" viewBox="0 0 24 24" xmlns="http://www.w3.org/2000/svg">
 <path d="m10.25 10.03c0 0.54 0.15 0.62 0.49 0.74l0.51 0.18v-1.7h-0.3c-0.38 0-0.7 0.35-0.7 0.78z"/>
 <path d="m12.75 14.75h0.3c0.39 0 0.7-0.35 0.7-0.78 0-0.54-0.15-0.62-0.49-0.74l-0.51-0.18v1.7z"/>
 <path d="m19.58 5.48-2.05 2.05c-0.15 0.15-0.34 0.22-0.53 0.22s-0.38-0.07-0.53-0.22c-0.29-0.29-0.29-0.77 0-1.06l2.05-2.05c-1.76-1.5-4.03-2.42-6.52-2.42-5.52 0-10 4.48-10 10s4.48 10 10 10 10-4.48 10-10c0-2.49-0.92-4.76-2.42-6.52zm-5.83 6.34c0.64 0.23 1.5 0.69 1.5 2.16 0 1.25-0.99 2.28-2.2 2.28h-0.3v0.25c0 0.41-0.34 0.75-0.75 0.75s-0.75-0.34-0.75-0.75v-0.25h-0.08c-1.33 0-2.42-1.12-2.42-2.5 0-0.42 0.34-0.76 0.75-0.76s0.75 0.34 0.75 0.75c0 0.55 0.41 1 0.92 1h0.08v-2.22l-1-0.35c-0.64-0.23-1.5-0.69-1.5-2.16 0-1.25 0.99-2.28 2.2-2.28h0.3v-0.24c0-0.41 0.34-0.75 0.75-0.75s0.75 0.34 0.75 0.75v0.25h0.08c1.33 0 2.42 1.12 2.42 2.5 0 0.41-0.34 0.75-0.75 0.75s-0.75-0.34-0.75-0.75c0-0.55-0.41-1-0.92-1h-0.08v2.22l1 0.35z"/>
 <path d="m22.69 1.71c-0.08-0.18-0.22-0.33-0.41-0.41-0.09-0.03-0.18-0.05-0.28-0.05h-4c-0.41 0-0.75 0.34-0.75 0.75s0.34 0.75 0.75 0.75h2.19l-1.67 1.67c0.38 0.33 0.73 0.68 1.06 1.06l1.67-1.67v2.19c0 0.41 0.34 0.75 0.75 0.75s0.75-0.34 0.75-0.75v-4c0-0.1-0.02-0.19-0.06-0.29z"/>
</svg>
