<?xml version="1.0" encoding="UTF-8"?>
<svg width="24" height="24" viewBox="0 0 24 24" xmlns="http://www.w3.org/2000/svg">
 <path d="m17 4h-10c-3 0-5 1.5-5 5v3.56c0 0.37 0.38 0.6 0.71 0.45 0.98-0.45 2.11-0.62 3.3-0.41 2.63 0.47 4.56 2.91 4.49 5.58-0.01 0.42-0.07 0.83-0.18 1.23-0.08 0.31 0.17 0.6 0.49 0.6h6.19c3 0 5-1.5 5-5v-6.01c0-3.5-2-5-5-5zm-5 10.5c-1.38 0-2.5-1.12-2.5-2.5s1.12-2.5 2.5-2.5 2.5 1.12 2.5 2.5-1.12 2.5-2.5 2.5zm7.25-0.5c0 0.41-0.34 0.75-0.75 0.75s-0.75-0.34-0.75-0.75v-4c0-0.41 0.34-0.75 0.75-0.75s0.75 0.34 0.75 0.75v4z"/>
 <path d="m5 14c-1.25 0-2.38 0.59-3.11 1.49-0.56 0.69-0.89 1.56-0.89 2.51 0 2.21 1.8 4 4 4 1.74 0 3.23-1.11 3.77-2.67 0.15-0.41 0.23-0.86 0.23-1.33 0-2.2-1.79-4-4-4zm2.36 5.74c-0.02 0.06-0.06 0.12-0.1 0.16l-0.72 0.71c-0.09 0.1-0.21 0.14-0.34 0.14s-0.26-0.04-0.35-0.14c-0.16-0.15-0.18-0.39-0.08-0.57h-2.01c-0.64 0-1.16-0.52-1.16-1.17v-0.1c0-0.28 0.22-0.49 0.49-0.49s0.49 0.21 0.49 0.49v0.1c0 0.11 0.08 0.2 0.19 0.2h2.01c-0.1-0.19-0.08-0.42 0.08-0.58 0.19-0.19 0.5-0.19 0.68 0l0.72 0.72c0.04 0.04 0.08 0.1 0.11 0.16 0.04 0.11 0.04 0.25-0.01 0.37zm0.04-2.51c0 0.28-0.22 0.49-0.49 0.49s-0.49-0.21-0.49-0.49v-0.1c0-0.11-0.08-0.2-0.19-0.2h-2c0.1 0.19 0.08 0.42-0.08 0.58-0.09 0.09-0.21 0.14-0.35 0.14-0.12 0-0.25-0.05-0.34-0.14l-0.72-0.72c-0.04-0.04-0.08-0.1-0.11-0.16-0.04-0.12-0.04-0.25 0-0.37 0.03-0.05 0.06-0.12 0.11-0.16l0.72-0.71c0.19-0.2 0.5-0.2 0.68 0 0.16 0.15 0.18 0.39 0.08 0.57h2.01c0.64 0 1.16 0.52 1.16 1.17v0.1h0.01z"/>
</svg>
