<?xml version="1.0" encoding="UTF-8"?>
<svg width="24" height="24" viewBox="0 0 24 24" xmlns="http://www.w3.org/2000/svg">
 <path d="m20.99 9.71c-0.34-0.14-0.79-0.21-1.35-0.21h-5.28c-1.74 0-2.36 0.62-2.36 2.38v7.74c0 0.58 0.07 1.03 0.22 1.38 0.31 0.72 0.97 1 2.14 1h5.28c1.74 0 2.36-0.63 2.36-2.38v-7.74c0-1.19-0.28-1.86-1.01-2.17zm-2.99 10.04h-2c-0.02 0-0.05 0-0.07-0.01-0.15-0.01-0.28-0.06-0.39-0.16-0.18-0.13-0.29-0.34-0.29-0.58 0-0.41 0.34-0.75 0.75-0.75h2c0.41 0 0.75 0.34 0.75 0.75s-0.34 0.75-0.75 0.75z"/>
 <path d="m20.99 6.19v0.81c0 0.55-0.45 1-1 1h-5.63c-2.56 0-3.86 1.31-3.86 3.88v9.12c0 0.55-0.45 1-0.99999 1h-1.95c-0.4 0-0.72-0.32-0.72-0.71 0-0.4 0.32-0.71 0.72-0.71h1.95v-3.83h-3.5c-2.22-0.11-3.99-1.94-3.99-4.19v-6.37c0-2.31 1.88-4.19 4.2-4.19h10.59c2.31 0 4.19 1.88 4.19 4.19z"/>
</svg>
