<?xml version="1.0" encoding="UTF-8"?>
<svg width="24" height="24" viewBox="0 0 24 24" xmlns="http://www.w3.org/2000/svg">
 <path d="m20.97 10.37v3.19c0 2.32-1.88 4.2-4.2 4.2h-3.56c-0.55 0-1 0.44-1 1v0.82c0 0.55 0.45 1 1 1h2.26c0.39 0 0.71 0.31 0.71 0.71 0 0.39-0.32 0.71-0.71 0.71h-7.94c-0.39 0-0.71-0.32-0.71-0.71 0-0.4 0.32-0.71 0.71-0.71h2.26c0.55 0 1-0.45 1-1v-0.82c0-0.56-0.45-1-1-1h-3.6c-2.31 0-4.19-1.88-4.19-4.2v-6.37c0-2.31 1.88-4.19 4.19-4.19h4.31c0.55 0 1 0.45 1 1v2.15c0 1.93 1.29 3.22 3.21 3.22h5.26c0.55 0 1 0.45 1 1z"/>
 <path d="m21.99 2.3596-1.13 0.79v-0.42c0-0.95-0.77-1.71-1.71-1.71h-4.28c-1.03-0.01-1.87 0.83-1.87 1.86v3.28c0 0.86 0.43 1.71 1.71 1.71h4.43c0.95 0 1.71-0.77 1.71-1.71v-0.43l1.13 0.79c0.57 0.39 1.02 0.15 1.02-0.53v-3.1c0-0.68-0.45-0.91-1.01-0.53z"/>
</svg>
