<?xml version="1.0" encoding="UTF-8"?>
<svg width="24" height="24" viewBox="0 0 24 24" xmlns="http://www.w3.org/2000/svg">
 <path d="m13.298 2.1156c-0.2914-0.05128-0.5478 0.18126-0.5478 0.47717v2.8608c0 0.19836 0.1209 0.37302 0.2859 0.48321 0.5032 0.33618 0.8341 0.91014 0.8341 1.5632v2c0 1.03-0.84 1.88-1.87 1.88-1.04 0-1.88-0.85-1.88-1.88v-2c0-0.65328 0.3383-1.2274 0.8439-1.5635 0.1652-0.10981 0.2861-0.28455 0.2861-0.48291v-2.8601c0-0.29615-0.2565-0.52879-0.5481-0.47737-1.5495 0.27322-2.9361 1.0182-4.0019 2.0839-1.36 1.36-2.2 3.24-2.2 5.3v5c0 4.13 3.37 7.5 7.5 7.5s7.5-3.37 7.5-7.5v-5c0-3.6905-2.687-6.7658-6.2022-7.3844z"/>
</svg>
