<svg width="24" height="24" viewBox="0 0 24 24"  xmlns="http://www.w3.org/2000/svg">
<path d="M20.9599 17.84L19.3299 18.39C18.8799 18.54 18.5199 18.89 18.3699 19.35L17.8199 20.98C17.3499 22.39 15.3699 22.36 14.9299 20.95L13.0799 15C12.7199 13.82 13.8099 12.72 14.9799 13.09L20.9399 14.94C22.3399 15.38 22.3599 17.37 20.9599 17.84Z" />
<path d="M20.9999 11.5C20.9999 11.93 20.9699 12.36 20.9199 12.78C20.8799 13.08 20.5699 13.26 20.2799 13.17L15.4299 11.66C14.3499 11.33 13.1999 11.61 12.3999 12.4C11.5999 13.2 11.3099 14.37 11.6499 15.45L13.1499 20.28C13.2399 20.57 13.0499 20.88 12.7499 20.92C12.3299 20.97 11.9199 21 11.4999 21C6.15991 21 1.85991 16.61 1.99991 11.23C2.13991 6.27003 6.26991 2.14003 11.2299 2.00003C16.6099 1.86003 20.9999 6.16003 20.9999 11.5Z" />
</svg>
