<svg width="24" height="24" viewBox="0 0 24 24"  xmlns="http://www.w3.org/2000/svg">
<path d="M20.9599 17.8405L19.3299 18.3905C18.8799 18.5405 18.5199 18.8905 18.3699 19.3505L17.8199 20.9805C17.3499 22.3905 15.3699 22.3605 14.9299 20.9505L13.0799 15.0005C12.7199 13.8205 13.8099 12.7205 14.9799 13.0905L20.9399 14.9405C22.3399 15.3805 22.3599 17.3705 20.9599 17.8405Z" />
<path d="M20.9999 11.5004C20.9999 11.9304 20.9699 12.3604 20.9199 12.7804C20.8799 13.0804 20.5699 13.2604 20.2799 13.1704L15.4299 11.6604C14.3499 11.3304 13.1999 11.6104 12.3999 12.4004C11.5999 13.2004 11.3099 14.3704 11.6499 15.4504L13.1499 20.2804C13.2399 20.5704 13.0499 20.8804 12.7499 20.9204C12.3299 20.9704 11.9199 21.0004 11.4999 21.0004C6.15991 21.0004 1.85991 16.6104 1.99991 11.2304C2.13991 6.27039 6.26991 2.14039 11.2299 2.00039C16.6099 1.86039 20.9999 6.16039 20.9999 11.5004Z" />
</svg>
