<?xml version="1.0" encoding="UTF-8"?>
<svg width="24" height="24" viewBox="0 0 24 24" xmlns="http://www.w3.org/2000/svg">
 <path d="m21 7.52v5.88c0 0.34-0.33 0.58-0.65 0.48l-3.93-1.22c-1.08-0.33-2.24-0.05-3.03 0.74-0.8 0.8-1.09 1.97-0.75 3.05l1.21 3.9c0.1 0.32-0.14 0.65-0.48 0.65h-5.85c-3.45 0-5.52-2.06-5.52-5.52v-7.96c0-3.46 2.07-5.52 5.52-5.52h7.96c3.45 0 5.52 2.06 5.52 5.52z"/>
 <path d="m21.96 18.84-1.63 0.55c-0.45 0.15-0.81 0.5-0.96 0.96l-0.55 1.63c-0.47 1.41-2.45 1.38-2.89-0.03l-1.85-5.95c-0.36-1.18 0.73-2.28 1.9-1.91l5.96 1.85c1.4 0.44 1.42 2.43 0.02 2.9z"/>
</svg>
