<?xml version="1.0" encoding="UTF-8"?>
<svg width="24" height="24" viewBox="0 0 24 24" xmlns="http://www.w3.org/2000/svg">
 <path d="m20.96 17.84-1.63 0.55c-0.45 0.15-0.81 0.5-0.96 0.96l-0.55 1.63c-0.47 1.41-2.45 1.38-2.89-0.03l-1.85-5.95c-0.36-1.18 0.73-2.28 1.9-1.91l5.96 1.85c1.4 0.44 1.42 2.43 0.02 2.9z"/>
 <path d="m21 11.5c0 0.43-0.03 0.86-0.08 1.28-0.04 0.3-0.35 0.48-0.64 0.39l-4.85-1.51c-1.08-0.33-2.23-0.05-3.03 0.74-0.8 0.8-1.09 1.97-0.75 3.05l1.5 4.83c0.09 0.29-0.1 0.6-0.4 0.64-0.42 0.05-0.83 0.08-1.25 0.08-5.34 0-9.64-4.39-9.5-9.77 0.14-4.96 4.27-9.09 9.23-9.23 5.38-0.14 9.77 4.16 9.77 9.5z"/>
</svg>
