<?xml version="1.0" encoding="UTF-8"?>
<svg width="24" height="24" viewBox="0 0 24 24" xmlns="http://www.w3.org/2000/svg">
 <path d="m18 5.25h-12c-0.41 0-0.75-0.34-0.75-0.75s0.34-0.75 0.75-0.75h12c0.41 0 0.75 0.34 0.75 0.75s-0.34 0.75-0.75 0.75z"/>
 <path d="m15 2.75h-6c-0.41 0-0.75-0.34-0.75-0.75s0.34-0.75 0.75-0.75h6c0.41 0 0.75 0.34 0.75 0.75s-0.34 0.75-0.75 0.75z"/>
 <path d="m13.91 16.21c-0.34 0-0.62 0.28-0.62 0.62s0.28 0.62 0.62 0.62 0.62-0.28 0.62-0.62-0.28-0.62-0.62-0.62z"/>
 <path d="m9.51 17.74c0-0.34-0.28-0.61-0.62-0.61s-0.62 0.28-0.62 0.62 0.28 0.62 0.62 0.62c0.34-0.01 0.62-0.29 0.62-0.63z"/>
 <path d="m18 7h-12c-2.2 0-4 1.8-4 4v7c0 2.2 1.8 4 4 4h12c2.2 0 4-1.8 4-4v-7c0-2.2-1.8-4-4-4zm-1.97 5.46v4.37c0 0.02-0.01 0.03-0.01 0.05-0.03 1.14-0.96 2.07-2.11 2.07-1.17 0-2.12-0.95-2.12-2.12s0.95-2.12 2.12-2.12c0.22 0 0.42 0.04 0.62 0.1v-1.37l-3.52 0.96v3.34c0 1.17-0.95 2.12-2.12 2.12s-2.12-0.95-2.12-2.12 0.95-2.12 2.12-2.12c0.22 0 0.42 0.04 0.62 0.1v-3.5c0-0.89 0.55-1.61 1.4-1.83l2.73-0.75c0.88-0.23 1.42 0 1.73 0.24 0.3 0.23 0.66 0.7 0.66 1.59v0.99z"/>
</svg>
