<svg width="24" height="24" viewBox="0 0 24 24"  xmlns="http://www.w3.org/2000/svg">
<path d="M13.18 11.8596C12.78 11.8596 12.42 11.6396 12.25 11.2796L10.8 8.38961L10.38 9.16961C10.15 9.59961 9.68997 9.86961 9.19997 9.86961H8.46997C8.05997 9.86961 7.71997 9.52961 7.71997 9.11961C7.71997 8.70961 8.05997 8.36961 8.46997 8.36961H9.10997L9.89997 6.90961C10.09 6.56961 10.47 6.33961 10.83 6.35961C11.22 6.35961 11.57 6.58961 11.75 6.92961L13.18 9.78961L13.52 9.09961C13.75 8.63961 14.2 8.35961 14.72 8.35961H15.53C15.94 8.35961 16.28 8.69961 16.28 9.10961C16.28 9.51961 15.94 9.85961 15.53 9.85961H14.82L14.11 11.2696C13.93 11.6396 13.58 11.8596 13.18 11.8596Z" />
<path d="M2.75006 18.6498C2.34006 18.6498 2.00006 18.3098 2.00006 17.8998V12.1998C1.95006 9.4898 2.96006 6.9298 4.84006 5.0098C6.72006 3.0998 9.24006 2.0498 11.9501 2.0498C17.4901 2.0498 22.0001 6.5598 22.0001 12.0998V17.7998C22.0001 18.2098 21.6601 18.5498 21.2501 18.5498C20.8401 18.5498 20.5001 18.2098 20.5001 17.7998V12.0998C20.5001 7.3898 16.6701 3.5498 11.9501 3.5498C9.64006 3.5498 7.50006 4.43981 5.91006 6.0598C4.31006 7.68981 3.46006 9.85981 3.50006 12.1798V17.8898C3.50006 18.3098 3.17006 18.6498 2.75006 18.6498Z" />
<path d="M5.94 12.4502H5.81C3.71 12.4502 2 14.1602 2 16.2602V18.1402C2 20.2402 3.71 21.9502 5.81 21.9502H5.94C8.04 21.9502 9.75 20.2402 9.75 18.1402V16.2602C9.75 14.1602 8.04 12.4502 5.94 12.4502Z" />
<path d="M18.19 12.4502H18.06C15.96 12.4502 14.25 14.1602 14.25 16.2602V18.1402C14.25 20.2402 15.96 21.9502 18.06 21.9502H18.19C20.29 21.9502 22 20.2402 22 18.1402V16.2602C22 14.1602 20.29 12.4502 18.19 12.4502Z" />
</svg>
