<?xml version="1.0" encoding="UTF-8"?>
<svg width="24" height="24" viewBox="0 0 24 24" xmlns="http://www.w3.org/2000/svg">
 <path d="m21.97 16.33c-0.72-0.82-1.79-1.33-2.97-1.33-2.21 0-4 1.79-4 4 0 0.75 0.21 1.46 0.58 2.06 0.2 0.34 0.46 0.65 0.76 0.91 0.7 0.64 1.63 1.03 2.66 1.03 1.46 0 2.73-0.78 3.42-1.94 0.37-0.6 0.58-1.31 0.58-2.06 0-1.02-0.39-1.96-1.03-2.67zm-1.37 4.25c-0.15 0.15-0.34 0.22-0.53 0.22s-0.38-0.07-0.53-0.22l-0.53-0.53-0.55 0.55c-0.15 0.15-0.34 0.22-0.53 0.22s-0.38-0.07-0.53-0.22c-0.29-0.29-0.29-0.77 0-1.06l0.55-0.55-0.53-0.53c-0.29-0.29-0.29-0.77 0-1.06s0.77-0.29 1.06 0l0.53 0.53 0.5-0.5c0.29-0.29 0.77-0.29 1.06 0s0.29 0.77 0 1.06l-0.5 0.5 0.53 0.53c0.29 0.29 0.29 0.76 0 1.06z"/>
 <path d="m12.23 12.07c-0.41 0-0.74 0.33-0.74 0.74s0.33 0.74 0.74 0.74 0.74-0.33 0.74-0.74-0.33-0.74-0.74-0.74z"/>
 <path d="m6.76 13.06c-0.41 0-0.74 0.33-0.74 0.74s0.33 0.74 0.74 0.74 0.74-0.33 0.74-0.74-0.33-0.74-0.74-0.74z"/>
 <path d="m16.19 2h-8.38c-0.28 0-0.55 0.01-0.81 0.05-3.15 0.29-5 2.4-5 5.76v8.38c0 3.36 1.85 5.47 5 5.76 0.26 0.04 0.53 0.05 0.81 0.05h5.69c0.39 0 0.64-0.44 0.49-0.8-0.29-0.69-0.49-1.49-0.49-2.2 0-3.03 2.47-5.5 5.5-5.5 0.76 0 1.5 0.15 2.18 0.45 0.37 0.16 0.82-0.09 0.82-0.49v-5.65c0-3.64-2.17-5.81-5.81-5.81zm-1.71 6.05v4.76c0 0.01-0.01 0.02-0.01 0.04-0.02 1.22-1.01 2.21-2.24 2.21-1.24 0-2.24-1.01-2.24-2.24 0-1.24 1.01-2.24 2.24-2.24 0.26 0 0.51 0.05 0.75 0.14v-1.69l-3.97 1.08v3.7c0 0.01-0.01 0.02-0.01 0.03-0.02 1.22-1.01 2.2-2.24 2.2-1.24 0-2.24-1.01-2.24-2.24s1.01-2.24 2.24-2.24c0.26 0 0.51 0.05 0.74 0.14v-3.91c0-0.93 0.58-1.68 1.47-1.92l2.98-0.82c0.93-0.25 1.5 0 1.82 0.24 0.46 0.35 0.69 0.92 0.69 1.68v1.08h0.02z"/>
</svg>
