<?xml version="1.0" encoding="UTF-8"?>
<svg width="24" height="24" viewBox="0 0 24 24" xmlns="http://www.w3.org/2000/svg">
 <path d="m17 4.75h-1v-1.49c0-0.83-0.68-1.51-1.51-1.51h-4.98c-0.83 0-1.51 0.68-1.51 1.51v1.49h-1c-1.1 0-2 0.9-2 2v0.13c0.32-0.09 0.65-0.13 1-0.13h12c0.35 0 0.68 0.04 1 0.13v-0.13c0-1.1-0.9-2-2-2z"/>
 <path d="m13.93 16.93c-0.32 0-0.57 0.26-0.57 0.57s0.26 0.57 0.57 0.57 0.57-0.26 0.57-0.57-0.26-0.57-0.57-0.57z"/>
 <path d="m9.07 17.81c-0.32 0-0.57 0.26-0.57 0.57s0.26 0.57 0.57 0.57 0.57-0.26 0.57-0.57-0.25-0.57-0.57-0.57z"/>
 <path d="m19 8.38c-0.32-0.09-0.65-0.13-1-0.13h-12c-0.35 0-0.68 0.04-1 0.13-1.72 0.45-3 2.02-3 3.87v6c0 2.2 1.8 4 4 4h12c2.2 0 4-1.8 4-4v-6c0-1.85-1.28-3.42-3-3.87zm-3 4.9v4.22c0 1.14-0.93 2.07-2.07 2.07s-2.07-0.93-2.07-2.07 0.93-2.07 2.07-2.07c0.2 0 0.39 0.04 0.57 0.09v-1.26l-3.35 0.91v3.21c0 0.01 0 0.02-0.01 0.03-0.01 1.13-0.94 2.05-2.07 2.05-1.14 0-2.07-0.93-2.07-2.08s0.93-2.07 2.07-2.07c0.2 0 0.39 0.04 0.58 0.09v-3.35c0-0.86 0.54-1.56 1.36-1.78l2.65-0.73c0.85-0.23 1.39-0.01 1.69 0.22s0.65 0.68 0.65 1.57v0.95z"/>
</svg>
