<?xml version="1.0" encoding="UTF-8"?>
<svg width="24" height="24" viewBox="0 0 24 24" xmlns="http://www.w3.org/2000/svg">
 <path d="m7 3.2501v17.5c0 0.64-0.61 1.15-1.23 0.98-2.4-0.68-3.77-2.64-3.77-5.54v-8.38c0-2.9 1.37-4.86 3.77-5.54 0.62-0.17 1.23 0.33 1.23 0.98z"/>
 <path d="m12.47 14.37c-0.38 0-0.68 0.31-0.68 0.68s0.31 0.68 0.68 0.68c0.38 0 0.69-0.31 0.69-0.68s-0.31-0.68-0.69-0.68z"/>
 <path d="m17.52 13.45c-0.38 0-0.69 0.31-0.69 0.69s0.31 0.68 0.69 0.68 0.69-0.31 0.69-0.68-0.31-0.69-0.69-0.69z"/>
 <path d="m16.19 2h-6.69c-0.55 0-1 0.45-1 1v18c0 0.55 0.45 1 1 1h6.69c3.21 0 5.81-2.6 5.81-5.81v-8.38c0-3.21-2.6-5.81-5.81-5.81zm3.41 7.74v4.4c0 0.01-0.01 0.02-0.01 0.03-0.02 1.13-0.94 2.04-2.07 2.04-1.14 0-2.07-0.93-2.07-2.07s0.93-2.07 2.07-2.07c0.24 0 0.47 0.05 0.69 0.13v-1.55l-3.67 1v3.42c0 0.01-0.01 0.02-0.01 0.03-0.02 1.13-0.94 2.04-2.07 2.04-1.14 0-2.07-0.93-2.07-2.07s0.93-2.07 2.07-2.07c0.24 0 0.47 0.05 0.69 0.13v-3.63c0-0.86 0.53-1.56 1.36-1.77l2.75-0.76c0.86-0.23 1.39 0 1.69 0.23 0.43 0.33 0.64 0.85 0.64 1.55v0.99h0.01z"/>
</svg>
