<?xml version="1.0" encoding="UTF-8"?>
<svg width="24" height="24" viewBox="0 0 24 24" xmlns="http://www.w3.org/2000/svg">
 <path d="m22 3.75h-20c-0.41 0-0.75-0.34-0.75-0.75s0.34-0.75 0.75-0.75h20c0.41 0 0.75 0.34 0.75 0.75s-0.34 0.75-0.75 0.75z"/>
 <path d="m11 9.75h-9c-0.41 0-0.75-0.34-0.75-0.75s0.34-0.75 0.75-0.75h9c0.41 0 0.75 0.34 0.75 0.75s-0.34 0.75-0.75 0.75z"/>
 <path d="m8 15.75h-6c-0.41 0-0.75-0.34-0.75-0.75s0.34-0.75 0.75-0.75h6c0.41 0 0.75 0.34 0.75 0.75s-0.34 0.75-0.75 0.75z"/>
 <path d="m6 21.75h-4c-0.41 0-0.75-0.34-0.75-0.75s0.34-0.75 0.75-0.75h4c0.41 0 0.75 0.34 0.75 0.75s-0.34 0.75-0.75 0.75z"/>
 <path d="m21.86 7.68c-0.59-0.45-1.4-0.54-2.35-0.28l-4.35 1.18c-1.17 0.32-1.89 1.27-1.89 2.47v6.23c-0.42-0.24-0.91-0.39-1.43-0.39-1.61 0-2.93 1.31-2.93 2.93 0 1.61 1.31 2.93 2.93 2.93s2.93-1.31 2.93-2.93v-5.65l6.48-1.77v3.43c-0.42-0.24-0.91-0.39-1.43-0.39-1.61 0-2.93 1.31-2.93 2.93 0 1.61 1.31 2.93 2.93 2.93s2.93-1.31 2.93-2.93v-8.5c0-1.01-0.3-1.75-0.89-2.19zm-10.02 13.57c-0.79 0-1.43-0.64-1.43-1.43s0.64-1.43 1.43-1.43 1.43 0.64 1.43 1.43-0.64 1.43-1.43 1.43zm7.98-1.45c-0.79 0-1.43-0.64-1.43-1.43s0.64-1.43 1.43-1.43 1.43 0.64 1.43 1.43-0.64 1.43-1.43 1.43z"/>
</svg>
