<?xml version="1.0" encoding="UTF-8"?>
<svg width="24" height="24" viewBox="0 0 24 24" xmlns="http://www.w3.org/2000/svg">
 <path d="m20.89 5.1801v11.3c0 1.98-1.61 3.59-3.59 3.59-1.97 0-3.59-1.61-3.59-3.59 0-1.97 1.62-3.58 3.59-3.58 0.84 0 1.59 0.29 2.2 0.77v-5.95l-9.21 2.62v8.07c0 1.98-1.62 3.59-3.59 3.59-1.98 0-3.59-1.61-3.59-3.59 0-1.97 1.61-3.58 3.59-3.58 0.83 0 1.58 0.29 2.19 0.76v-8.84c0-1.47 0.89-2.61 2.3-2.99l5.78-1.58c1.17-0.32 2.16-0.21 2.86 0.33 0.71 0.53 1.06 1.43 1.06 2.67z"/>
</svg>
