<?xml version="1.0" encoding="UTF-8"?>
<svg width="24" height="24" viewBox="0 0 24 24" xmlns="http://www.w3.org/2000/svg">
 <path d="m2.5801 9.42c-0.08 0-0.17-0.01-0.25-0.04-0.39-0.14-0.59-0.57-0.46-0.96 0.67-1.88 1.83-3.53 3.38-4.78 0.32-0.26 0.79-0.21 1.05 0.11s0.21 0.79-0.11 1.06c-1.32 1.07-2.33 2.49-2.9 4.11-0.11 0.31-0.4 0.5-0.71 0.5z"/>
 <path d="m2.58 16.08c-0.31 0-0.6-0.19-0.71-0.5-0.41-1.16-0.62-2.37-0.62-3.58 0-0.41 0.34-0.75 0.75-0.75s0.75 0.34 0.75 0.75c0 1.04 0.18 2.08 0.54 3.08 0.14 0.39-0.07 0.82-0.46 0.96-0.08 0.03-0.17 0.04-0.25 0.04z"/>
 <path d="m12 22.75c-1.06 0-2.11-0.16-3.13-0.47-0.4-0.12-0.62-0.54-0.5-0.94s0.54-0.62 0.94-0.5c0.86999 0.27 1.78 0.4 2.69 0.4 5.1 0 9.25-4.15 9.25-9.25 0-0.52-0.05-1.06-0.15-1.63-0.07-0.40996 0.2-0.79996 0.61-0.86996 0.4-0.07 0.8 0.2 0.87 0.60996 0.12 0.66 0.18 1.28 0.18 1.9-0.01 5.93-4.83 10.75-10.76 10.75z"/>
 <path d="m5.72 20.5c-0.17 0-0.33-0.05-0.47-0.17-0.57-0.46-1.03-0.9-1.42-1.35-0.27-0.31-0.23-0.79 0.08-1.06 0.32-0.27 0.79-0.23 1.06 0.08 0.33 0.38 0.73 0.76 1.22 1.16 0.32 0.26 0.37 0.73 0.11 1.05-0.14 0.19-0.36 0.29-0.58 0.29z"/>
 <path d="m20.24 7.09c-0.24 0-0.47-0.11-0.62-0.33-1.72-2.51-4.58-4.01-7.62-4.01-0.91 0-1.82 0.13-2.69 0.4-0.39 0.12-0.81-0.1-0.94-0.5s0.1-0.82 0.5-0.94c1.02-0.3 2.07-0.46 3.13-0.46 3.54 0 6.85 1.75 8.86 4.67 0.23 0.34 0.15 0.81-0.19 1.04-0.13 0.09-0.28 0.13-0.43 0.13z"/>
 <path d="m16.03 6.5c-0.33-0.25-0.93-0.5-1.89-0.24l-3.19 0.86c-0.92 0.26-1.52 1.04-1.52 2v4.22c-0.26-0.1-0.54-0.16-0.84-0.16-1.29 0-2.34 1.05-2.34 2.34s1.05 2.34 2.34 2.34c1.28 0 2.31-1.03 2.33-2.3 0-0.01 0.01-0.02 0.01-0.04v-4.19l4.32-1.18v2.13c-0.26-0.1-0.54-0.16-0.84-0.16-1.29 0-2.34 1.05-2.34 2.34s1.05 2.34 2.34 2.34 2.34-1.05 2.34-2.34v-6.21c0-0.8-0.24-1.39-0.72-1.75zm-7.44 9.86c-0.46 0-0.84-0.38-0.84-0.84s0.38-0.84 0.84-0.84 0.84 0.38 0.84 0.84-0.38 0.84-0.84 0.84zm5.82-1.06c-0.46 0-0.84-0.38-0.84-0.84s0.38-0.84 0.84-0.84 0.84 0.38 0.84 0.84-0.38 0.84-0.84 0.84z"/>
</svg>
