<?xml version="1.0" encoding="UTF-8"?>
<svg width="24" height="24" viewBox="0 0 24 24" xmlns="http://www.w3.org/2000/svg">
 <path d="m19.21 15.01c-1.09-0.07-2.21 0.33-3.04 1.16-1.56 1.56-1.56 4.09 0 5.66 0.53 0.53 1.18 0.88 1.87 1.05 0.38 0.1 0.78 0.13 1.18 0.11 0.95-0.04 1.88-0.42 2.61-1.15 1.03-1.03 1.38-2.48 1.05-3.79-0.16-0.69-0.52-1.34-1.05-1.87-0.72-0.73-1.66-1.12-2.62-1.17zm2.03 3.97c0 0.21-0.08 0.39-0.22 0.53s-0.32 0.22-0.53 0.22h-0.74v0.78c0 0.21-0.08 0.39-0.22 0.53s-0.32 0.22-0.53 0.22c-0.41 0-0.75-0.34-0.75-0.75v-0.78h-0.75c-0.41 0-0.75-0.34-0.75-0.75s0.34-0.75 0.75-0.75h0.75v-0.71c0-0.41 0.34-0.75 0.75-0.75s0.75 0.34 0.75 0.75v0.71h0.74c0.42 0 0.75 0.34 0.75 0.75z"/>
 <path d="m12.23 12.07c-0.41 0-0.74 0.33-0.74 0.74s0.33 0.74 0.74 0.74 0.74-0.33 0.74-0.74-0.33-0.74-0.74-0.74z"/>
 <path d="m6.76 13.06c-0.41 0-0.74 0.33-0.74 0.74s0.33 0.74 0.74 0.74 0.74-0.33 0.74-0.74-0.33-0.74-0.74-0.74z"/>
 <path d="m16.19 2h-8.38c-0.28 0-0.55 0.01-0.81 0.05-3.15 0.29-5 2.4-5 5.76v8.38c0 3.36 1.85 5.47 5 5.76 0.26 0.04 0.53 0.05 0.81 0.05h5.69c0.39 0 0.64-0.44 0.49-0.8-0.29-0.69-0.49-1.49-0.49-2.2 0-3.03 2.47-5.5 5.5-5.5 0.76 0 1.5 0.15 2.18 0.45 0.37 0.16 0.82-0.09 0.82-0.49v-5.65c0-3.64-2.17-5.81-5.81-5.81zm-1.71 6.05v4.76c0 0.01-0.01 0.02-0.01 0.04-0.02 1.22-1.01 2.21-2.24 2.21-1.24 0-2.24-1.01-2.24-2.24 0-1.24 1.01-2.24 2.24-2.24 0.26 0 0.51 0.05 0.75 0.14v-1.69l-3.97 1.08v3.7c0 0.01-0.01 0.02-0.01 0.03-0.02 1.22-1.01 2.2-2.24 2.2-1.24 0-2.24-1.01-2.24-2.24s1.01-2.24 2.24-2.24c0.26 0 0.51 0.05 0.74 0.14v-3.91c0-0.93 0.58-1.68 1.47-1.92l2.98-0.82c0.93-0.25 1.5 0 1.82 0.24 0.46 0.35 0.69 0.92 0.69 1.68v1.08h0.02z"/>
</svg>
