<?xml version="1.0" encoding="UTF-8"?>
<svg width="24" height="24" viewBox="0 0 24 24" xmlns="http://www.w3.org/2000/svg">
 <path d="m14.54 13.67c-0.36 0-0.65 0.29-0.65 0.65s0.29 0.65 0.65 0.65 0.65-0.29 0.65-0.65c-0.01-0.36-0.3-0.65-0.65-0.65z"/>
 <path d="m9.0599 14.66c-0.36 0-0.65 0.29-0.65 0.65s0.29 0.65 0.65 0.65 0.65-0.29 0.65-0.65-0.29-0.65-0.65-0.65z"/>
 <path d="m16.19 2h-8.38c-3.64 0-5.81 2.17-5.81 5.81v8.37c0 3.65 2.17 5.82 5.81 5.82h8.37c3.64 0 5.81-2.17 5.81-5.81v-8.38c0.01-3.64-2.16-5.81-5.8-5.81zm0.69 7.55v4.76c0 1.29-1.05 2.34-2.34 2.34s-2.34-1.05-2.34-2.34 1.05-2.34 2.34-2.34c0.23 0 0.44 0.04 0.65 0.1v-1.42l-3.78 1.03v3.62c0 0.01-0.01 0.02-0.01 0.03-0.01 1.28-1.06 2.31-2.34 2.31-1.29 0-2.34-1.05-2.34-2.34s1.05-2.34 2.34-2.34c0.23 0 0.44 0.04 0.65 0.1v-3.77c0-0.97 0.6-1.76 1.54-2.01l2.99-0.82c0.96-0.26 1.56-0.01 1.9 0.25 0.33 0.26 0.74 0.77 0.74 1.77v1.07z"/>
</svg>
