<svg width="24" height="24" viewBox="0 0 24 24"  xmlns="http://www.w3.org/2000/svg">
<path d="M15.07 17.8803L14.0599 20.1003C13.7999 20.6603 13.4199 21.1503 12.9099 21.4903C12.3899 21.8403 11.7099 21.8703 11.1699 21.5303C9.52993 20.4903 5.94998 17.8203 3.77998 13.1903C3.69998 13.0303 3.91995 12.8703 4.05995 12.9703C4.62995 13.3703 5.23992 13.6503 5.90992 13.8103C6.31992 13.9003 6.73997 13.9403 7.13997 13.9403C8.99997 13.9403 10.6799 12.9903 11.7999 12.1703C12.1299 11.9303 12.5699 11.8803 12.9099 12.0903C14.0299 12.7903 14.78 13.6303 15.15 14.5803C15.79 16.2603 15.09 17.8103 15.07 17.8803Z" />
<path d="M16.8499 18.0497C16.7699 18.1397 16.61 18.0397 16.65 17.9297C17.09 16.4697 17.66 12.6197 12.56 10.1797C12.25 10.0297 12.0199 9.74967 11.9799 9.40967C11.3599 3.84967 16.15 2.84967 16.15 2.84967C16.54 2.76967 16.95 2.76966 17.33 2.87966C18.41 3.16966 19.51 3.56967 20.62 4.10967C21.57 4.56967 22.1199 5.56967 21.9799 6.61967C21.6499 9.09967 20.5499 13.8797 16.8499 18.0497Z" />
<path d="M10.56 10.2105L10.5901 10.4105C10.6601 10.7905 10.5 11.1805 10.18 11.3805C8.03003 12.7305 4.51002 13.7505 2.36002 7.84047C2.16002 7.30047 2.04003 6.90048 2.00003 6.32048C1.95003 5.56048 2.38003 4.69048 3.06003 4.37048C4.82003 3.55048 8.54006 2.12048 13.0301 2.25048C13.2301 2.26048 13.3 2.52047 13.14 2.63047C11.41 3.95047 9.92003 6.33048 10.56 10.2105Z" />
</svg>
