<?xml version="1.0" encoding="UTF-8"?>
<svg width="24" height="24" viewBox="0 0 24 24" xmlns="http://www.w3.org/2000/svg">
 <path d="m15.07 17.879-1.0101 2.22c-0.26 0.56-0.64 1.05-1.15 1.39-0.52 0.35-1.2 0.38-1.74 0.04-1.64-1.04-5.2199-3.71-7.3899-8.34-0.08-0.16 0.13997-0.32 0.27997-0.22 0.57 0.4 1.18 0.68 1.85 0.84 0.41 0.09 0.83005 0.13 1.23 0.13 1.86 0 3.5399-0.95 4.6599-1.77 0.33-0.24 0.77-0.29 1.11-0.08 1.12 0.7 1.8701 1.54 2.2401 2.49 0.64 1.68-0.06 3.23-0.08 3.3z"/>
 <path d="m16.85 18.05c-0.08 0.09-0.2399-0.01-0.1999-0.12 0.44-1.46 1.01-5.31-4.09-7.75-0.31-0.15-0.5401-0.43003-0.5801-0.77003-0.62-5.56 4.1701-6.56 4.1701-6.56 0.39-0.08 0.8-0.08001 1.18 0.02999 1.08 0.29 2.18 0.69001 3.29 1.23 0.95 0.46 1.4999 1.46 1.3599 2.51-0.33 2.48-1.43 7.26-5.13 11.43z"/>
 <path d="m10.56 10.21 0.0301 0.2c0.07 0.38-0.0901 0.77-0.4101 0.97-2.15 1.35-5.67 2.37-7.82-3.54-0.2-0.54-0.31999-0.93999-0.35999-1.52-0.05-0.76 0.38-1.63 1.06-1.95 1.76-0.82 5.48-2.25 9.9701-2.12 0.2 0.01 0.2699 0.26999 0.1099 0.37999-1.73 1.32-3.22 3.7-2.58 7.58z"/>
</svg>
