<?xml version="1.0" encoding="UTF-8"?>
<svg width="24" height="24" viewBox="0 0 24 24" xmlns="http://www.w3.org/2000/svg">
 <path d="m22 6.2797v11.43c0 0.18-0.09 0.34-0.24 0.43l-2.89 1.73c-0.16 0.09-0.35 0.09-0.51 0l-9.61-5.59c-0.15-0.09-0.25-0.25-0.25-0.43v-1.33c0-0.39 0.41999-0.63 0.75999-0.43l8.49 5.09c0.33 0.2 0.76-0.04 0.76-0.43v-8.33c0-0.18-0.09-0.33999-0.24-0.42999l-4.08-2.45c-0.32-0.19-0.32-0.66 0-0.86l2.57-1.55c0.16-0.1 0.36-0.1 0.52 0l4.5 2.7c0.13 0.11 0.22 0.28 0.22 0.45z"/>
 <path d="m11.29 18.431-4.03 2.42c-0.16 0.1-0.35999 0.1-0.50999 0l-4.5-2.7c-0.15-0.09-0.24001-0.25-0.24001-0.43v-11.43c0-0.18 0.09001-0.34 0.24001-0.43l4.5-2.7c0.16-0.1 0.35999-0.1 0.50999 0l9.5 5.7c0.15 0.09 0.24 0.25 0.24 0.43v4.83c0 0.39-0.42 0.63-0.76 0.43l-8.49-5.09c-0.33-0.2-0.76 0.03999-0.76 0.42999v4.83c0 0.18 0.08999 0.34 0.23999 0.43l4.04 2.43c0.34 0.19 0.34 0.65 0.02 0.85z"/>
</svg>
