<svg width="24" height="24" viewBox="0 0 24 24"  xmlns="http://www.w3.org/2000/svg">
<path d="M22 6.27968V17.7097C22 17.8897 21.91 18.0497 21.76 18.1397L18.87 19.8697C18.71 19.9597 18.52 19.9597 18.36 19.8697L8.75 14.2797C8.6 14.1897 8.5 14.0297 8.5 13.8497V12.5197C8.5 12.1297 8.91999 11.8897 9.25999 12.0897L17.75 17.1797C18.08 17.3797 18.51 17.1397 18.51 16.7497V8.41968C18.51 8.23968 18.42 8.07969 18.27 7.98969L14.19 5.53968C13.87 5.34968 13.87 4.87968 14.19 4.67968L16.76 3.12969C16.92 3.02969 17.12 3.02969 17.28 3.12969L21.78 5.82968C21.91 5.93968 22 6.10968 22 6.27968Z" />
<path d="M11.29 18.4299L7.26001 20.85C7.10001 20.95 6.90002 20.95 6.75002 20.85L2.25002 18.15C2.10002 18.06 2.01001 17.9 2.01001 17.72V6.28995C2.01001 6.10995 2.10002 5.94996 2.25002 5.85996L6.75002 3.15996C6.91002 3.05996 7.11001 3.05996 7.26001 3.15996L16.76 8.85996C16.91 8.94996 17 9.10995 17 9.28995V14.12C17 14.51 16.58 14.75 16.24 14.55L7.75002 9.45996C7.42002 9.25996 6.99002 9.49996 6.99002 9.88996V14.72C6.99002 14.9 7.08001 15.06 7.23001 15.15L11.27 17.58C11.61 17.77 11.61 18.2299 11.29 18.4299Z" />
</svg>
