<?xml version="1.0" encoding="UTF-8"?>
<svg width="24" height="24" viewBox="0 0 24 24" xmlns="http://www.w3.org/2000/svg">
 <path d="m12.678 19.957c0.2747 0.0639 0.2999 0.4237 0.0323 0.5129l-1.58 0.52c-3.97 1.28-6.06 0.21-7.35-3.76l-1.28-3.95c-1.28-3.97-0.22-6.07 3.75-7.35l0.52399-0.17353c0.40287-0.13342 0.79493 0.27064 0.68054 0.67932-0.0567 0.20257-0.11125 0.41397-0.16453 0.63421l-0.98 4.19c-1.1 4.71 0.51 7.31 5.22 8.43l1.1477 0.2671z"/>
 <path d="m17.17 3.21-1.67-0.39c-3.34-0.79-5.33-0.14-6.5 2.28-0.3 0.61-0.54 1.35-0.74 2.2l-0.98 4.19c-0.98 4.18 0.31 6.24 4.48 7.23l1.68 0.4c0.58 0.14 1.12 0.23 1.62 0.27 3.12 0.3 4.78-1.16 5.62-4.77l0.98-4.18c0.98-4.18-0.3-6.25-4.49-7.23zm-1.88 10.12c-0.09 0.34-0.39 0.56-0.73 0.56-0.06 0-0.12-0.01-0.19-0.02l-2.91-0.74c-0.4-0.1-0.64-0.51-0.54-0.91s0.51-0.64 0.91-0.54l2.91 0.74c0.41 0.1 0.65 0.51 0.55 0.91zm2.93-3.38c-0.09 0.33999-0.39 0.55999-0.73 0.55999-0.06 0-0.12-0.01-0.19-0.02l-4.85-1.23c-0.4-0.1-0.64-0.51-0.54-0.91s0.51-0.64 0.91-0.54l4.85 1.23c0.41 0.09 0.65 0.5 0.55 0.91z"/>
</svg>
