<?xml version="1.0" encoding="UTF-8"?>
<svg width="24" height="24" viewBox="0 0 24 24" xmlns="http://www.w3.org/2000/svg">
 <path d="m5.97 1h-2.94c-1.27 0-2.03 0.76-2.03 2.03v2.94c0 1.27 0.76 2.03 2.03 2.03h2.94c1.27 0 2.03-0.76 2.03-2.03v-2.94c0-1.27-0.76-2.03-2.03-2.03zm0.5 4.56c0.25 0.25 0.25 0.66 0 0.91-0.13 0.12-0.3 0.18-0.46 0.18s-0.32-0.06-0.45-0.18l-1.07-1.06-1.04 1.06c-0.13 0.12-0.29 0.18-0.47 0.18-0.16 0-0.32-0.06-0.45-0.18-0.25-0.25-0.25-0.66 0-0.91l1.07-1.06-1.06-1.05c-0.25-0.25-0.25-0.66 0-0.91s0.66-0.25 0.91 0l1.04 1.06 1.06-1.06c0.25-0.25 0.66-0.25 0.91 0s0.25 0.66 0 0.91l-1.05 1.05 1.06 1.06z"/>
 <path d="m21.5 15.82c0 0.15-0.05 0.3-0.18 0.43-1.45 1.46-4.03 4.06-5.51 5.55-0.13 0.14-0.3 0.2-0.47 0.2-0.33 0-0.65-0.26-0.65-0.64v-3.5c0-1.46 1.24-2.67 2.76-2.67 0.95-0.01 2.27-0.01 3.4-0.01 0.39 0 0.65 0.31 0.65 0.64z"/>
 <path d="m21.5 15.82c0 0.15-0.05 0.3-0.18 0.43-1.45 1.46-4.03 4.06-5.51 5.55-0.13 0.14-0.3 0.2-0.47 0.2-0.33 0-0.65-0.26-0.65-0.64v-3.5c0-1.46 1.24-2.67 2.76-2.67 0.95-0.01 2.27-0.01 3.4-0.01 0.39 0 0.65 0.31 0.65 0.64z"/>
 <path d="m16.63 2h-6.13c-0.55 0-1 0.45-1 1v3.5c0 1.66-1.34 3-3 3h-3c-0.55 0-1 0.45-1 1v6.63c0 2.69 2.18 4.87 4.87 4.87h4.82c0.55 0 1-0.45 1-1v-3.14c0-2.3 1.91-4.17 4.26-4.17 0.53-0.01 1.82-0.01 3.05-0.01 0.55 0 1-0.44 1-1v-5.81c0-2.69-2.18-4.87-4.87-4.87zm-7.91 15.01h-2.64c-0.41 0-0.75-0.34-0.75-0.75 0-0.42 0.34-0.76 0.75-0.76h2.64c0.43 0 0.75 0.34 0.75 0.76 0 0.41-0.32 0.75-0.75 0.75zm2.79-3.71h-5.43c-0.41 0-0.75-0.34-0.75-0.75 0-0.42 0.34-0.76 0.75-0.76h5.43c0.41 0 0.76 0.34 0.76 0.76 0 0.41-0.35 0.75-0.76 0.75z"/>
</svg>
