<?xml version="1.0" encoding="UTF-8"?>
<svg width="24" height="24" viewBox="0 0 24 24" xmlns="http://www.w3.org/2000/svg">
 <path d="m13.55 20.16c-0.26 0.11-0.54 0.21-0.84 0.31l-1.58 0.52c-3.97 1.28-6.06 0.21-7.35-3.76l-1.28-3.95c-1.28-3.97-0.22-6.07 3.75-7.35l1.54-0.51c-0.19 0.48-0.35 1.03-0.5 1.65l-0.98 4.19c-1.1 4.71 0.51 7.31 5.22 8.43l1.68 0.4c0.11 0.03 0.23 0.05 0.34 0.07z"/>
 <path d="m17.17 3.21-1.67-0.39c-3.34-0.79-5.33-0.14-6.5 2.28-0.3 0.61-0.54 1.35-0.74 2.2l-0.98 4.19c-0.98 4.18 0.31 6.24 4.48 7.23l1.68 0.4c0.58 0.14 1.12 0.23 1.62 0.27 3.12 0.3 4.78-1.16 5.62-4.77l0.98-4.18c0.98-4.18-0.3-6.25-4.49-7.23z"/>
</svg>
