<?xml version="1.0" encoding="UTF-8"?>
<svg width="24" height="24" viewBox="0 0 24 24" xmlns="http://www.w3.org/2000/svg">
 <path d="m21.62 12.1-0.62-0.21-1.67-0.55c-0.58-0.19-1.17-0.12-1.62 0.2-0.44 0.33-0.7 0.86-0.7 1.48v4.79c-0.4-0.22-0.85-0.36-1.34-0.36-1.54 0-2.79 1.26-2.79 2.8 0 0.26 0.04 0.51 0.1 0.75 0.33 1.19 1.41 2.05 2.69 2.05 1.53 0 2.77-1.22 2.8-2.74v-4.61c0.02 0 0.03 0.01 0.05 0.02l2.28 0.76c0.04 0.01 0.09 0.03 0.13 0.03 0.18 0.05 0.34 0.07 0.51 0.07 0.36 0 0.7-0.1 0.98-0.31 0.45-0.32 0.7-0.85 0.7-1.47v-0.6c0-0.91-0.64-1.81-1.5-2.1zm-5.95 9.49c-0.46 0-0.86-0.23-1.1-0.59-0.15-0.21-0.23-0.47-0.23-0.75 0-0.73 0.6-1.33 1.33-1.33 0.74 0 1.34 0.6 1.34 1.33 0 0.23-0.06 0.44-0.16 0.62-0.22 0.43-0.67 0.72-1.18 0.72z"/>
 <path d="m23.12 14.2v0.6c0 0.62-0.25 1.15-0.7 1.47-0.28 0.21-0.62 0.31-0.98 0.31-0.17 0-0.33-0.02-0.51-0.07-0.04 0-0.09-0.02-0.13-0.03l-2.28-0.76c-0.02-0.01-0.03-0.02-0.05-0.02v4.61c-0.03 1.52-1.27 2.74-2.8 2.74-1.28 0-2.36-0.86-2.69-2.05-0.06-0.24-0.1-0.49-0.1-0.75 0-1.54 1.25-2.8 2.79-2.8 0.49 0 0.94 0.14 1.34 0.36v-4.79c0-0.62 0.26-1.15 0.7-1.48 0.45-0.32 1.04-0.39 1.62-0.2l1.67 0.55 0.62 0.21c0.86 0.29 1.5 1.19 1.5 2.1z"/>
 <path d="m21 7.52v2.1c0 0.34-0.33 0.58-0.66 0.47l-0.54-0.18c-1.05-0.33-2.12-0.19-2.99 0.43-0.83 0.62-1.3 1.6-1.3 2.68v2.45c0 0.27-0.21 0.49-0.48 0.53-2.06 0.31-3.65 2.1-3.65 4.25v0.15c0.01 0.31-0.22 0.6-0.54 0.6h-3.32c-3.45 0-5.52-2.06-5.52-5.52v-7.96c0-3.46 2.07-5.52 5.52-5.52h7.96c3.45 0 5.52 2.06 5.52 5.52z"/>
</svg>
