<?xml version="1.0" encoding="UTF-8"?>
<svg width="24" height="24" viewBox="0 0 24 24" xmlns="http://www.w3.org/2000/svg">
 <path d="m8.29 6.29c-0.42 0-0.75-0.34-0.75-0.75v-2.79c0-0.41 0.33-0.75 0.75-0.75s0.75 0.34 0.75 0.75v2.78c0 0.42-0.33 0.76-0.75 0.76z"/>
 <path d="m15.71 6.29c-0.42 0-0.75-0.34-0.75-0.75v-2.79c0-0.42 0.34-0.75 0.75-0.75 0.42 0 0.75 0.34 0.75 0.75v2.78c0 0.42-0.33 0.76-0.75 0.76z"/>
 <path d="m19.57 4.5c-0.66-0.49-1.61-0.02-1.61 0.81v0.1c0 1.17-0.84 2.25-2.01 2.37-1.35 0.14-2.49-0.92-2.49-2.24v-1.04c0-0.55-0.45-1-1-1h-0.92c-0.55 0-1 0.45-1 1v1.04c0 0.79-0.41 1.49-1.03 1.88-0.09 0.06-0.19 0.11-0.29 0.16-0.09 0.05-0.19 0.09-0.3 0.12-0.12 0.04-0.25 0.07-0.39 0.08-0.16 0.02-0.32 0.02-0.48 0-0.14-0.01-0.27-0.04-0.39-0.08-0.1-0.03-0.2-0.07-0.3-0.12s-0.2-0.1-0.29-0.16c-0.63-0.44-1.03-1.2-1.03-2.01v-0.1c0-0.77-0.82-1.23-1.47-0.9-0.01 0.01-0.02 0.01-0.03 0.02-0.04 0.02-0.07 0.04-0.11 0.07-0.03 0.03-0.07 0.05-0.1 0.08-0.28 0.22-0.53 0.47-0.74 0.74-0.11 0.12-0.2 0.25-0.28 0.38-0.01 0.01-0.02 0.02-0.03 0.04-0.09 0.13-0.17 0.28-0.24 0.42-0.02 0.02-0.03 0.03-0.03 0.05-0.06 0.12-0.12 0.24-0.16 0.37-0.03 0.05-0.04 0.09-0.06 0.14-0.06 0.15-0.1 0.3-0.14 0.45-0.04 0.14-0.07 0.29-0.09 0.44-0.02 0.11-0.03 0.22-0.04 0.34-0.01 0.14-0.02 0.28-0.02 0.42v8.76c0 2.69 2.18 4.87 4.87 4.87h9.26c2.69 0 4.87-2.18 4.87-4.87v-8.76c0-1.59-0.76-2.98-1.93-3.87zm-7.57 11.75h-1.69v1.75c0 0.41-0.34 0.75-0.75 0.75-0.42 0-0.75-0.34-0.75-0.75v-1.75h-1.81c-0.41 0-0.75-0.34-0.75-0.75s0.34-0.75 0.75-0.75h1.81v-1.75c0-0.41 0.33-0.75 0.75-0.75 0.41 0 0.75 0.34 0.75 0.75v1.75h1.69c0.41 0 0.75 0.34 0.75 0.75s-0.34 0.75-0.75 0.75z"/>
</svg>
