<?xml version="1.0" encoding="UTF-8"?>
<svg width="24" height="24" viewBox="0 0 24 24" xmlns="http://www.w3.org/2000/svg">
 <path d="m16 4.25c0 1.24-1.01 2.25-2.25 2.25h-3.5c-0.62 0-1.18-0.25-1.59-0.66s-0.66-0.97-0.66-1.59c0-1.24 1.01-2.25 2.25-2.25h3.5c0.62 0 1.18 0.25 1.59 0.66s0.66 0.97 0.66 1.59z"/>
 <path d="m18.83 5.0297c-0.23-0.19-0.49-0.34-0.77-0.45-0.29-0.11-0.58 0.12-0.64 0.42-0.34 1.71-1.85 3-3.67 3h-3.5c-1 0-1.94-0.39-2.65-1.1-0.52-0.52-0.88-1.18-1.02-1.89-0.06-0.3-0.36-0.54-0.65-0.42-1.16 0.47-1.93 1.53-1.93 3.66v9.75c0 3 1.79 4 4 4h8c2.21 0 4-1 4-4v-9.75c0-1.63-0.45-2.63-1.17-3.22zm-10.83 7.22h4c0.41 0 0.75 0.34 0.75 0.75s-0.34 0.75-0.75 0.75h-4c-0.41 0-0.75-0.34-0.75-0.75s0.34-0.75 0.75-0.75zm8 5.5h-8c-0.41 0-0.75-0.34-0.75-0.75s0.34-0.75 0.75-0.75h8c0.41 0 0.75 0.34 0.75 0.75s-0.34 0.75-0.75 0.75z"/>
</svg>
