<?xml version="1.0" encoding="UTF-8"?>
<svg width="24" height="24" viewBox="0 0 24 24" xmlns="http://www.w3.org/2000/svg">
 <path d="M8.75 3.5V2C8.75 1.59 8.41 1.25 8 1.25C7.59 1.25 7.25 1.59 7.25 2V3.56C7.5 3.53 7.73 3.5 8 3.5H8.75Z"/>
 <path d="m16.75 3.56v-1.56c0-0.41-0.34-0.75-0.75-0.75s-0.75 0.34-0.75 0.75v1.5h0.75c0.27 0 0.5 0.03 0.75 0.06z"/>
 <path d="m16.75 3.56v1.44c0 0.41-0.34 0.75-0.75 0.75s-0.75-0.34-0.75-0.75v-1.5h-6.5v1.5c0 0.41-0.34 0.75-0.75 0.75s-0.75-0.34-0.75-0.75v-1.44c-2.95 0.27-4.25 2.17-4.25 4.94v8.5c0 3 1.5 5 5 5h8c3.5 0 5-2 5-5v-8.5c0-2.77-1.3-4.67-4.25-4.94zm-4.75 13.19h-4c-0.41 0-0.75-0.34-0.75-0.75s0.34-0.75 0.75-0.75h4c0.41 0 0.75 0.34 0.75 0.75s-0.34 0.75-0.75 0.75zm4-5h-8c-0.41 0-0.75-0.34-0.75-0.75s0.34-0.75 0.75-0.75h8c0.41 0 0.75 0.34 0.75 0.75s-0.34 0.75-0.75 0.75z"/>
</svg>
