<?xml version="1.0" encoding="UTF-8"?>
<svg width="24" height="24" viewBox="0 0 24 24" xmlns="http://www.w3.org/2000/svg">
 <path d="M7.75 3.5V2C7.75 1.59 7.41 1.25 7 1.25C6.59 1.25 6.25 1.59 6.25 2V3.56C6.5 3.53 6.73 3.5 7 3.5H7.75Z"/>
 <path d="m15.75 3.56v-1.56c0-0.41-0.34-0.75-0.75-0.75s-0.75 0.34-0.75 0.75v1.5h0.75c0.27 0 0.5 0.03 0.75 0.06z"/>
 <path d="m21.29 14.97c-0.77-0.61-1.74-0.97-2.79-0.97s-2.04 0.37-2.81 0.99c-1.04 0.82-1.69 2.1-1.69 3.51 0 0.84 0.24 1.65 0.65 2.31 0.32 0.52 0.73 0.98 1.22 1.33 0.74 0.54 1.64 0.86 2.63 0.86 1.14 0 2.17-0.42 2.96-1.12 0.35-0.29 0.65-0.65 0.89-1.06 0.41-0.67 0.65-1.48 0.65-2.32 0-1.43-0.67-2.71-1.71-3.53zm-2.79 5.67c0-1.18-0.96-2.14-2.14-2.14 1.18 0 2.14-0.96 2.14-2.14 0 1.18 0.96 2.14 2.14 2.14-1.18 0-2.14 0.96-2.14 2.14z"/>
 <path d="m15.75 3.56v1.44c0 0.41-0.34 0.75-0.75 0.75s-0.75-0.34-0.75-0.75v-1.5h-6.5v1.5c0 0.41-0.34 0.75-0.75 0.75s-0.75-0.34-0.75-0.75v-1.44c-2.95 0.27-4.25 2.17-4.25 4.94v8.5c0 3 1.5 5 5 5h4.13c0.76 0 1.27-0.85 1.08-1.59-0.14-0.54-0.21-1.1-0.21-1.66 0-2.08 0.93-4 2.54-5.27 1.17-0.95 2.67-1.48 4.21-1.48h0.04c0.63 0 1.21-0.46 1.21-1.09v-2.41c0-2.77-1.3-4.67-4.25-4.94zm-6.75 13.19h-2c-0.41 0-0.75-0.34-0.75-0.75s0.34-0.75 0.75-0.75h2c0.41 0 0.75 0.34 0.75 0.75s-0.34 0.75-0.75 0.75zm3-5h-5c-0.41 0-0.75-0.34-0.75-0.75s0.34-0.75 0.75-0.75h5c0.41 0 0.75 0.34 0.75 0.75s-0.34 0.75-0.75 0.75z"/>
</svg>
