<?xml version="1.0" encoding="UTF-8"?>
<svg width="24" height="24" viewBox="0 0 24 24" xmlns="http://www.w3.org/2000/svg">
 <path d="m19 8c1.6569 0 3-1.3432 3-3s-1.3431-3-3-3-3 1.3432-3 3 1.3431 3 3 3z"/>
 <path d="m21 10.4v6.08c0 0.14-0.01 0.28-0.02 0.41-0.01 0.12-0.02 0.23-0.04 0.35-0.01 0.12-0.03 0.24-0.05 0.35-0.35 2.42-1.89 3.95-4.3 4.3-0.11 0.02-0.23 0.04-0.35 0.05-0.12 0.02-0.23 0.03-0.35 0.04-0.13 0.01-0.27 0.02-0.41 0.02h-7.96c-0.14 0-0.28-0.01-0.41-0.02-0.12-0.01-0.23-0.02-0.35-0.04-0.12-0.01-0.24-0.03-0.35-0.05-2.41-0.35-3.95-1.88-4.3-4.3-0.02-0.11-0.04-0.23-0.05-0.35-0.02-0.12-0.03-0.23-0.04-0.35-0.01-0.13-0.02-0.27-0.02-0.41v-7.96c0-0.14 0.01-0.28 0.02-0.41 0.01-0.12 0.02-0.23 0.04-0.35 0.01-0.12 0.03-0.24 0.05-0.35 0.35-2.42 1.89-3.95 4.3-4.3 0.11-0.02 0.23-0.04 0.35-0.05 0.12-0.02 0.23-0.03 0.35-0.04 0.13-0.01 0.27-0.02 0.41-0.02h6.08c0.64 0 1.1 0.58 0.98 1.2 0 0.02-0.01 0.04-0.01 0.06-0.02 0.1-0.03 0.2-0.05 0.31-0.04 0.42-0.02 0.87 0.07 1.33 0.03 0.12 0.05 0.22 0.09 0.33 0.08 0.33 0.21 0.64 0.38 0.93 0.06 0.12 0.14 0.24 0.21 0.35 0.33 0.48 0.74 0.89 1.22 1.22 0.11 0.07 0.23 0.15 0.35 0.21 0.29 0.17 0.6 0.3 0.93 0.38 0.11 0.04 0.21 0.06 0.33 0.09 0.46 0.09 0.91 0.11 1.33 0.07 0.11-0.02 0.21-0.03 0.31-0.05 0.02 0 0.04-0.01 0.06-0.01 0.62-0.12 1.2 0.34 1.2 0.98z"/>
</svg>
