<?xml version="1.0" encoding="UTF-8"?>
<svg width="24" height="24" viewBox="0 0 24 24" xmlns="http://www.w3.org/2000/svg">
 <path d="m19 8c1.6569 0 3-1.3432 3-3s-1.3431-3-3-3-3 1.3432-3 3 1.3431 3 3 3z"/>
 <path d="m19.8 9.42c-0.03 0.01-0.06 0.01-0.09 0.02-0.08 0.01-0.15 0.02-0.24 0.03-0.15 0.02-0.31 0.03-0.47 0.03-0.43 0-0.84-0.06-1.23-0.18-0.17-0.04-0.33-0.09-0.48-0.16-0.15-0.06-0.31-0.14-0.45-0.22-0.75-0.41-1.37-1.03-1.78-1.78-0.08-0.14-0.16-0.3-0.22-0.45-0.07-0.15-0.12-0.31-0.16-0.48-0.12-0.39-0.18-0.8-0.18-1.23 0-0.16 0.01-0.32 0.03-0.47 0.01-0.09 0.02-0.16 0.03-0.24 0.01-0.03 0.01-0.06 0.02-0.09 0.12-0.62-0.34-1.2-0.98-1.2h-6.08c-0.14 0-0.28 0.01-0.41 0.02-0.12 0.01-0.23 0.02-0.35 0.04-0.12 0.01-0.24 0.03-0.35 0.05-2.41 0.35-3.95 1.88-4.3 4.3-0.02 0.11-0.04 0.23-0.05 0.35-0.02 0.12-0.03 0.23-0.04 0.35-0.01 0.13-0.02 0.27-0.02 0.41v7.96c0 0.14 0.01 0.28 0.02 0.41 0.01 0.12 0.02 0.23 0.04 0.35 0.01 0.12 0.03 0.24 0.05 0.35 0.35 2.42 1.89 3.95 4.3 4.3 0.11 0.02 0.23 0.04 0.35 0.05 0.12 0.02 0.23 0.03 0.35 0.04 0.13 0.01 0.27 0.02 0.41 0.02h7.96c0.14 0 0.28-0.01 0.41-0.02 0.12-0.01 0.23-0.02 0.35-0.04 0.12-0.01 0.24-0.03 0.35-0.05 2.41-0.35 3.95-1.88 4.3-4.3 0.02-0.11 0.04-0.23 0.05-0.35 0.02-0.12 0.03-0.23 0.04-0.35 0.01-0.13 0.02-0.27 0.02-0.41v-6.08c0-0.64-0.58-1.1-1.2-0.98zm-7.52 5.83c-0.53 1.67-2.35 2.57-2.98 2.57-0.64 0-2.43-0.88-2.97-2.57h-0.01c-0.35-1.11 0.05-2.56 1.32-2.97 0.58-0.19 1.2-0.08 1.65 0.27 0.45-0.35 1.08-0.46 1.67-0.27 1.27 0.41 1.67 1.86 1.32 2.97z"/>
</svg>
