<?xml version="1.0" encoding="UTF-8"?>
<svg width="24" height="24" viewBox="0 0 24 24" xmlns="http://www.w3.org/2000/svg">
 <path d="m20.19 14.06-1.13-1.88c-0.25-0.41-0.47-1.2-0.47-1.68v-1.87c0-3.63-2.95-6.58-6.57-6.58-3.63 0.01-6.58 2.95-6.58 6.58v1.86c0 0.48-0.22 1.27-0.46 1.68l-1.13 1.88c-0.43 0.73-0.53 1.56-0.26 2.28 0.27 0.73 0.88 1.31 1.68 1.57 1.08 0.36 2.17 0.62 3.28 0.81 0.11 0.02 0.22 0.03 0.33 0.05 0.14 0.02 0.29 0.04 0.44 0.06 0.26 0.04 0.52 0.07 0.79004 0.09 0.63 0.06 1.27 0.09 1.91 0.09 0.63 0 1.26-0.03 1.88-0.09 0.23-0.02 0.46-0.04 0.68-0.07 0.18-0.02 0.36-0.04 0.54-0.07 0.11-0.01 0.22-0.03 0.33-0.05 1.12-0.18 2.23-0.46 3.31-0.82 0.77-0.26 1.36-0.84 1.64-1.58 0.28-0.75 0.2-1.57-0.21-2.26zm-7.44-4.06c0 0.42-0.34 0.76-0.76 0.76s-0.76-0.34-0.76-0.76v-3.1c0-0.42001 0.34-0.76001 0.76-0.76001s0.76 0.34 0.76 0.76001v3.1z"/>
 <path d="m14.83 20.01c-0.42 1.16-1.53 1.99-2.83 1.99-0.79 0-1.57-0.32-2.12-0.89-0.32-0.3-0.56-0.7-0.7-1.11 0.13 0.02 0.26 0.03 0.4 0.05 0.23 0.03 0.46997 0.06 0.70997 0.08 0.57 0.05 1.15 0.08 1.73 0.08 0.57 0 1.14-0.03 1.7-0.08 0.21-0.02 0.42-0.03 0.62-0.06 0.16-0.02 0.32-0.04 0.49-0.06z"/>
</svg>
