<?xml version="1.0" encoding="UTF-8"?>
<svg width="24" height="24" viewBox="0 0 24 24" xmlns="http://www.w3.org/2000/svg">
 <path d="m19 8c1.6569 0 3-1.3432 3-3s-1.3431-3-3-3-3 1.3432-3 3 1.3431 3 3 3z"/>
 <path d="m19.8 9.42c-0.02 0-0.04 0.01-0.06 0.01-0.1 0.02-0.2 0.03-0.31 0.05-0.42 0.04-0.87 0.02-1.33-0.07-0.12-0.03-0.22-0.05-0.33-0.09-0.33-0.08-0.64-0.21-0.93-0.38-0.12-0.06-0.24-0.14-0.35-0.21-0.48-0.33-0.89-0.74-1.22-1.22-0.07-0.11-0.15-0.23-0.21-0.35-0.17-0.29-0.3-0.6-0.38-0.93-0.04-0.11-0.06-0.21-0.09-0.33-0.09-0.46-0.11-0.91-0.07-1.33 0.02-0.11 0.03-0.21 0.05-0.31 0-0.02 0.01-0.04 0.01-0.06 0.12-0.62-0.34-1.2-0.98-1.2h-6.08c-0.14 0-0.28 0.01-0.41 0.02-0.12 0.01-0.23 0.02-0.35 0.04-0.12 0.01-0.24 0.03-0.35 0.05-2.41 0.35-3.95 1.88-4.3 4.3-0.02 0.11-0.04 0.23-0.05 0.35-0.02 0.12-0.03 0.23-0.04 0.35-0.01 0.13-0.02 0.27-0.02 0.41v7.96c0 0.14 0.01 0.28 0.02 0.41 0.01 0.12 0.02 0.23 0.04 0.35 0.01 0.12 0.03 0.24 0.05 0.35 0.35 2.42 1.89 3.95 4.3 4.3 0.11 0.02 0.23 0.04 0.35 0.05 0.12 0.02 0.23 0.03 0.35 0.04 0.13 0.01 0.27 0.02 0.41 0.02h7.96c0.14 0 0.28-0.01 0.41-0.02 0.12-0.01 0.23-0.02 0.35-0.04 0.12-0.01 0.24-0.03 0.35-0.05 2.41-0.35 3.95-1.88 4.3-4.3 0.02-0.11 0.04-0.23 0.05-0.35 0.02-0.12 0.03-0.23 0.04-0.35 0.01-0.13 0.02-0.27 0.02-0.41v-6.08c0-0.64-0.58-1.1-1.2-0.98zm-13.05 3.08h5c0.41 0 0.75 0.34 0.75 0.75s-0.34 0.75-0.75 0.75h-5c-0.41 0-0.75-0.34-0.75-0.75s0.34-0.75 0.75-0.75zm9 5.5h-9c-0.41 0-0.75-0.34-0.75-0.75s0.34-0.75 0.75-0.75h9c0.41 0 0.75 0.34 0.75 0.75s-0.34 0.75-0.75 0.75z"/>
</svg>
