<?xml version="1.0" encoding="UTF-8"?>
<svg width="24" height="24" viewBox="0 0 24 24" xmlns="http://www.w3.org/2000/svg">
 <path d="m16.19 2h-8.38c-3.64 0-5.81 2.17-5.81 5.81v8.37c0 3.65 2.17 5.82 5.81 5.82h8.37c3.64 0 5.81-2.17 5.81-5.81v-8.38c0.01-3.64-2.16-5.81-5.8-5.81zm0.81 15.5h-3.1c-0.3 0-0.57-0.17-0.69-0.45s-0.07-0.59 0.13-0.81l1.62-1.79c0.67-0.75 1.05-1.7 1.05-2.68 0-1-0.41-1.94-1.16-2.65s-1.79-1.12-2.85-1.12-2.1 0.41-2.85 1.12-1.16 1.65-1.16 2.65c0 0.98 0.37 1.93 1.05 2.68l1.62 1.79c0.2 0.22 0.25 0.54 0.13 0.81s-0.39 0.45-0.69 0.45h-3.1c-0.41 0-0.75-0.34-0.75-0.75s0.34-0.75 0.75-0.75h1.41l-0.49-0.54c-0.92-1.02-1.43-2.33-1.43-3.69 0-1.39 0.59-2.76 1.63-3.74 1.04-0.99 2.41-1.53 3.88-1.53s2.84 0.54 3.88 1.53c1.03 0.98 1.63 2.35 1.63 3.74 0 1.35-0.51 2.66-1.43 3.69l-0.49 0.54h1.41c0.41 0 0.75 0.34 0.75 0.75s-0.34 0.75-0.75 0.75z"/>
</svg>
