<?xml version="1.0" encoding="UTF-8"?>
<svg width="24" height="24" viewBox="0 0 24 24" xmlns="http://www.w3.org/2000/svg">
 <path d="m19.11 7.47-3.52-3.52c-3.16-3.15-4.82-1.99-6.82 0l-5.66 5.66c-1.15 1.15-1.78 1.89-2.01 2.71 0 0.01-0.01 0.01-0.01 0.01v0.01 0.01 0.03c-0.41 1.46 0.67 2.7 2.02 4.05l3.53 3.51c1.26 1.27 2.28 2.06 3.41 2.06 1.13 0 2.1-0.76 3.4-2.06l5.66-5.65c0.49-0.5 0.85-0.91 1.13-1.3v-0.01h0.01c1.28-1.79 0.94-3.44-1.14-5.51zm-1.03 3.9h-0.01c-0.3-0.07-0.61-0.13-0.92-0.19-0.02 0-0.04-0.01-0.07-0.01-0.7-0.13-1.41-0.24-2.13-0.33h-0.04c-0.72-0.09-1.45-0.16-2.18-0.2h-0.08c-0.64-0.04-1.29-0.06-1.93-0.06-0.77995 0-1.56 0.04-2.33 0.09-0.13 0.01-0.25 0.02-0.37 0.03-0.58 0.04-1.16 0.1-1.73 0.17-0.16 0.02-0.31 0.04-0.46 0.06-0.58 0.09-1.15 0.18-1.72 0.29-0.13 0.03-0.25 0.05-0.38 0.07-0.05 0.01-0.11 0.02-0.16 0.03 0.18-0.2 0.39-0.41 0.62-0.64l5.65-5.65c1.82-1.8 2.44-2.23 4.68 0l3.51 3.52c0.54 0.53 0.9 0.98 1.12 1.37 0 0 0 0.01 0.01 0.01 0.42 0.73001-0.26 1.6-1.08 1.44z"/>
 <path d="m20.95 16.87c-0.38-0.47-0.71-0.87-1.45-0.87s-1.07 0.4-1.44 0.87c-0.8 0.99-1.16 2.07-1.03 3.11 0.15 1.19 1.17 2.02 2.47 2.02s2.32-0.83 2.47-2.03c0.13-1.04-0.22-2.11-1.02-3.1z"/>
</svg>
