<?xml version="1.0" encoding="UTF-8"?>
<svg width="24" height="24" viewBox="0 0 24 24" xmlns="http://www.w3.org/2000/svg">
 <path d="m16.19 2h-8.38c-3.64 0-5.81 2.17-5.81 5.81v8.37c0 3.65 2.17 5.82 5.81 5.82h8.37c3.64 0 5.81-2.17 5.81-5.81v-8.38c0.01-3.64-2.16-5.81-5.8-5.81zm0.56 11.71c0 1.52-1.23 2.75-2.75 2.75s-2.75-1.23-2.75-2.75v-2c0-0.41 0.34-0.75 0.75-0.75s0.75 0.34 0.75 0.75v2c0 0.69 0.56 1.25 1.25 1.25s1.25-0.56 1.25-1.25v-3.14c0-1.79-1.46-3.25-3.25-3.25s-3.25 1.46-3.25 3.25v3.43c0 1.48 1.2 2.68 2.68 2.68 0.41 0 0.75 0.34 0.75 0.75s-0.34 0.75-0.75 0.75c-2.3 0-4.18-1.88-4.18-4.18v-3.43c0-2.62 2.13-4.75 4.75-4.75s4.75 2.13 4.75 4.75v3.14z"/>
</svg>
