<?xml version="1.0" encoding="UTF-8"?>
<svg width="24" height="24" viewBox="0 0 24 24" xmlns="http://www.w3.org/2000/svg">
 <path d="m16.19 2h-8.38c-3.64 0-5.81 2.17-5.81 5.81v8.37c0 3.65 2.17 5.82 5.81 5.82h8.37c3.64 0 5.81-2.17 5.81-5.81v-8.38c0.01-3.64-2.16-5.81-5.8-5.81zm0.18 12.63-2.22 2.22c-0.54 0.54-1.24 0.8-1.94 0.8s-1.41-0.27-1.94-0.8c-1.07-1.07-1.07-2.82 0-3.89l1.41-1.41c0.29-0.29 0.77-0.29 1.06 0s0.29 0.77 0 1.06l-1.41 1.41c-0.49 0.49-0.49 1.28 0 1.77s1.28 0.49 1.77 0l2.22-2.22c0.61-0.61 0.95-1.43 0.95-2.3s-0.34-1.68-0.95-2.3c-1.23-1.23-3.37-1.23-4.6 0l-2.43 2.43c-1.04 1.04-1.04 2.74 0 3.79 0.29 0.29 0.29 0.77 0 1.06s-0.77 0.29-1.06 0c-1.63-1.63-1.63-4.28 0-5.91l2.42-2.42c0.9-0.9 2.09-1.39 3.36-1.39s2.46 0.49 3.36 1.39 1.39 2.09 1.39 3.36-0.49 2.46-1.39 3.35z"/>
</svg>
