<?xml version="1.0" encoding="UTF-8"?>
<svg width="24" height="24" viewBox="0 0 24 24" xmlns="http://www.w3.org/2000/svg">
 <path d="m18 4h-2.25v-1.25c0-0.41-0.34-0.75-0.75-0.75s-0.75 0.34-0.75 0.75v18.5c0 0.41 0.34 0.75 0.75 0.75s0.75-0.34 0.75-0.75v-1.25h2.25c2.21 0 4-1.79 4-4v-8c0-2.21-1.79-4-4-4z"/>
 <path d="m6.5 4c-2.21 0-4 1.79-4 4v8c0 2.21 1.79 4 4 4h5c0.55 0 1-0.45 1-1v-14c0-0.55-0.45-1-1-1h-5zm0.17 8.38c-0.05 0.12-0.12 0.23-0.21 0.33-0.1 0.09-0.21 0.16-0.33 0.21s-0.25 0.08-0.38 0.08-0.26-0.03-0.38-0.08-0.23-0.12-0.33-0.21c-0.09-0.1-0.16-0.21-0.22-0.33-0.05-0.12-0.07-0.25-0.07-0.38 0-0.26 0.11-0.52 0.29-0.71l0.15-0.12c0.06-0.04 0.12-0.07 0.18-0.09 0.06-0.03 0.12-0.05 0.18-0.06 0.34-0.07 0.68 0.04 0.91 0.27 0.18 0.19 0.29 0.45 0.29 0.71 0 0.13-0.03 0.26-0.08 0.38zm3.5 0c-0.05 0.12-0.12 0.23-0.21 0.33-0.1 0.09-0.21 0.16-0.33 0.21s-0.25 0.08-0.38 0.08-0.26-0.03-0.38-0.08-0.23-0.12-0.33-0.21c-0.19-0.19-0.29-0.44-0.29-0.71 0-0.13 0.03-0.26 0.08-0.38 0.05-0.13 0.12-0.23 0.21-0.33 0.37-0.37 1.04-0.37 1.42 0 0.18 0.19 0.29 0.45 0.29 0.71 0 0.13-0.03 0.26-0.08 0.38z"/>
</svg>
