<?xml version="1.0" encoding="UTF-8"?>
<svg width="24" height="24" viewBox="0 0 24 24" xmlns="http://www.w3.org/2000/svg">
 <path d="m20.02 10.7-2.12 1.34c-0.4 0.25-0.91 0.19-1.24-0.14l-4.53-4.53c-0.33-0.33-0.39-0.84-0.14-1.24l1.34-2.12c0.82-1.29 2.46-1.35 3.67-0.15l3.18 3.18c1.12 1.13 1.05 2.89-0.16 3.66z"/>
 <path d="m14.71 19.95-8.72 1.02c-0.07767 0.0104-0.15434 0.0177-0.22994 0.0222-0.68513 0.0403-0.85501-0.7672-0.36971-1.2525l2.5896-2.5897c0.32-0.31 0.32-0.8 0-1.11-0.3-0.31-0.79-0.31-1.11 0l-2.5896 2.5897c-0.4853 0.4853-1.2854 0.3147-1.249-0.3707 0.00382-0.0719 0.01002-0.1449 0.01866-0.219l1.03-8.72c0.26-2.18 1.06-2.9 3.36-2.76l1.5 0.09c0.49 0.03 0.95 0.24 1.3 0.59l6.55 6.55c0.35 0.35 0.56 0.81 0.58 1.3l0.09 1.5c0.23 2.31-0.56 3.11-2.75 3.36z"/>
</svg>
