<?xml version="1.0" encoding="UTF-8"?>
<svg width="24" height="24" viewBox="0 0 24 24" xmlns="http://www.w3.org/2000/svg">
 <path d="m14.15 22h-4.32c-1.54 0-2.68-1.25-2.38-2.58l0.52-2.32c0.1-0.46 0.51-0.78 0.98-0.78h6.09c0.47 0 0.87 0.32 0.98 0.78l0.52 2.31c0.32 1.43-0.75 2.59-2.39 2.59z"/>
 <path d="m18.82 13.69-1.07 0.94c-0.37 0.32-0.84 0.5-1.32 0.5h-8.84c-0.49 0-0.97-0.18-1.33-0.51l-1.05-0.94c-1.72-1.41-1.73-2.49-0.41-4.15l5.23-6.61c0.0365-0.04906 0.074-0.09626 0.1124-0.14164 0.441-0.52101 1.1276-0.07349 1.1276 0.60907v3.4726c-0.01 0.43 0.33 0.77 0.75 0.76 0.42 0.01 0.75-0.33 0.76-0.76v-3.4726c0-0.68256 0.6763-1.1198 1.129-0.60895 0.0375 0.04229 0.0745 0.08612 0.111 0.13152l5.21 6.62c1.3 1.66 1.25 2.69-0.41 4.16z"/>
</svg>
