<svg width="24" height="24" viewBox="0 0 24 24"  xmlns="http://www.w3.org/2000/svg">
<path d="M20.0199 10.6999L17.8999 12.0399C17.4999 12.2899 16.9899 12.2299 16.6599 11.8999L12.1299 7.36992C11.7999 7.03992 11.7399 6.52992 11.9899 6.12992L13.3299 4.00992C14.1499 2.71992 15.7899 2.65992 16.9999 3.85992L20.1799 7.03992C21.2999 8.16992 21.2299 9.92992 20.0199 10.6999Z" />
<path d="M14.7099 19.9502L5.9899 20.9702C5.91223 20.9806 5.83556 20.9879 5.75996 20.9924C5.07483 21.0327 4.90495 20.2252 5.39025 19.7399L7.9799 17.1502C8.2999 16.8402 8.2999 16.3502 7.9799 16.0402C7.6799 15.7302 7.1899 15.7302 6.8699 16.0402L4.28025 18.6299C3.79495 19.1152 2.99483 18.9446 3.03124 18.2592C3.03506 18.1873 3.04126 18.1143 3.0499 18.0402L4.0799 9.32024C4.3399 7.14024 5.1399 6.42024 7.4399 6.56024L8.9399 6.65024C9.4299 6.68024 9.8899 6.89024 10.2399 7.24024L16.7899 13.7902C17.1399 14.1402 17.3499 14.6002 17.3699 15.0902L17.4599 16.5902C17.6899 18.9002 16.8999 19.7002 14.7099 19.9502Z" />
</svg>
