<?xml version="1.0" encoding="UTF-8"?>
<svg width="24" height="24" viewBox="0 0 24 24" xmlns="http://www.w3.org/2000/svg">
 <path d="m16.19 2h-8.38c-3.64 0-5.81 2.17-5.81 5.81v8.37c0 3.65 2.17 5.82 5.81 5.82h8.37c3.64 0 5.81-2.17 5.81-5.81v-8.38c0.01-3.64-2.16-5.81-5.8-5.81zm0.47 9.25-1.62 1.02 0.14 2.4c0.13 1.34-0.33 1.8-1.6 1.95l-5.07 0.6c-0.27824 0.0379-0.37268-0.2773-0.17411-0.4759l1.5441-1.5441c0.29-0.29 0.29-0.77 0-1.06-0.3-0.29-0.77-0.29-1.07 0l-1.5352 1.543c-0.19779 0.1988-0.51267 0.1049-0.47478-0.173l0.59-5.07c0.16-1.27 0.62-1.68 1.96-1.6l2.39 0.14 1.03-1.63c0.47-0.74 1.43-0.78 2.13-0.08l1.85 1.85c0.66 0.65 0.62 1.68-0.09 2.13z"/>
</svg>
