<?xml version="1.0" encoding="UTF-8"?>
<svg width="24" height="24" viewBox="0 0 24 24" xmlns="http://www.w3.org/2000/svg">
 <path d="m11.97 2c-5.52 0-10 4.48-10 10s4.48 10 10 10c5.52 0 10-4.48 10-10s-4.47-10-10-10zm-1.25 13.03c0 0.48-0.2 0.67-0.71 0.67h-1.3c-0.51 0-0.71-0.19-0.71-0.67v-6.06c0-0.48 0.2-0.67 0.71-0.67h1.29c0.51003 0 0.71003 0.19 0.71003 0.67v6.06h0.01zm5.28 0c0 0.48-0.2 0.67-0.71 0.67h-1.29c-0.51 0-0.71-0.19-0.71-0.67v-6.06c0-0.48 0.2-0.67 0.71-0.67h1.29c0.51 0 0.71 0.19 0.71 0.67v6.06z"/>
</svg>
