<?xml version="1.0" encoding="UTF-8"?>
<svg width="24" height="24" viewBox="0 0 24 24" xmlns="http://www.w3.org/2000/svg">
 <path d="m6.5 2c-1.06 0-2.04 0.37-2.81 0.99-1.04 0.82-1.69 2.09-1.69 3.51 0 0.84 0.24 1.64 0.65 2.32 0.54 0.9 1.39 1.6 2.41 1.94 0.45 0.16 0.93 0.24 1.44 0.24 1.14 0 2.17-0.42 2.96-1.12 0.35-0.3 0.65-0.66 0.89-1.06 0.21-0.35 0.37-0.72 0.48-1.12 0.11-0.38 0.17-0.79 0.17-1.2 0-2.49-2.01-4.5-4.5-4.5zm1.66 5.25h-3.36c-0.41 0-0.75-0.34-0.75-0.75s0.34-0.75 0.75-0.75h3.36c0.41 0 0.75 0.34 0.75 0.75s-0.33 0.75-0.75 0.75z"/>
 <path d="m16 21.29-9.36 1.1c-0.65 0.08-1.23-0.02-1.72-0.26-0.52-0.26-0.93-0.66-1.19-1.19-0.24-0.49-0.33-1.06-0.26-1.7l0.85-7.15c0.08 0.03 0.16 0.06 0.24 0.08 0.61 0.22 1.26 0.33 1.94 0.33 1.46 0 2.87-0.53 3.94-1.48 0.46-0.4 0.87-0.88 1.2-1.43 0.28-0.47 0.49-0.97 0.63-1.46 0.07-0.26 0.13-0.54 0.17-0.82 0.01-0.05 0.01-0.1 0.01-0.15l0.17 0.01 6.08 6.09 0.26 4.42c0.25 2.48-0.61 3.34-2.96 3.61z"/>
 <path d="m22 10.28-2.07 1.31c-0.39 0.24-0.89 0.19-1.21-0.14l-4.43-4.43c-0.32-0.32-0.38-0.82-0.14-1.21l1.31-2.07c0.8-1.26 2.4-1.32 3.59-0.15l3.11 3.11c1.09 1.11 1.02 2.83-0.16 3.58z"/>
</svg>
