<?xml version="1.0" encoding="UTF-8"?>
<svg width="24" height="24" viewBox="0 0 24 24" xmlns="http://www.w3.org/2000/svg">
 <path d="m20.55 9.44h-1.1c-0.15 0-0.3 0.03-0.44 0.07l-4.99-4.99c0.48-0.62 0.44-1.51-0.13-2.07l-0.78-0.78c-0.59-0.59-1.63-0.59-2.23 0l-0.78 0.78c-0.55998 0.56-0.59998 1.45-0.11998 2.07l-4.99 4.99c-0.14-0.04-0.29-0.07-0.44-0.07h-1.1c-0.87 0-1.58 0.70996-1.58 1.58v1.1c0 0.87 0.71 1.58 1.58 1.58h1.1c0.87 0 1.58-0.71 1.58-1.58v-1.1c0-0.15-0.03-0.3-0.07-0.44l4.99-4.99c0.27 0.21 0.61 0.32 0.95 0.32s0.68-0.12 0.96-0.33l4.99 4.99c-0.04 0.14-0.07 0.29-0.07 0.44v1.1c0 0.87 0.71 1.58 1.58 1.58h1.1c0.87 0 1.58-0.71 1.58-1.58v-1.1c-0.02-0.87-0.72-1.57-1.59-1.57z"/>
 <path d="m15.75 16.55-1.64 1.45h-4.26l-1.64-1.45c-0.95-0.78-0.95-1.38-0.23-2.3l2.89-3.66c0.2-0.25 0.4301-0.42 0.6901-0.51 0.2699-0.09 0.5599-0.09 0.8399 0 0.25 0.09 0.48 0.26 0.69 0.51l2.89 3.66c0.72 0.91 0.69 1.48-0.23 2.3z"/>
 <path d="m13.29 22h-2.59c-0.92001 0-1.61-0.75-1.43-1.55l0.31-1.39c0.06-0.28 0.31-0.47 0.59001-0.47h3.65c0.28 0 0.52 0.19 0.59 0.47l0.31 1.39c0.2 0.85-0.45 1.55-1.43 1.55z"/>
</svg>
