<?xml version="1.0" encoding="UTF-8"?>
<svg width="24" height="24" viewBox="0 0 24 24" xmlns="http://www.w3.org/2000/svg">
 <path d="m20.98 10.7c-0.22-3.9-3.11-7.15-6.97-7.81-0.06-0.77-0.7-1.39-1.49-1.39h-1c-0.79 0-1.42 0.61-1.49 1.38-3.88 0.64-6.79 3.9-7.01 7.82-0.71 0.12-1.25 0.73-1.25 1.47v1c0 0.83 0.67 1.5 1.5 1.5h1c0.83 0 1.5-0.67 1.5-1.5v-1c0-0.74-0.54-1.35-1.25-1.47 0.21-3.12 2.5-5.71 5.56-6.31 0.17 0.64 0.75 1.11 1.44 1.11h1c0.69 0 1.26-0.47 1.44-1.1 3.04 0.61 5.31 3.2 5.52 6.3-0.71 0.12-1.25 0.73-1.25 1.47v1c0 0.83 0.67 1.5 1.5 1.5h1c0.83 0 1.5-0.67 1.5-1.5v-1c0-0.74-0.54-1.36-1.25-1.47z"/>
 <path d="m15.77 16.55-1.64 1.45h-4.25l-1.64-1.45c-0.95-0.78-0.95-1.38-0.23-2.3l2.89-3.66c0.2-0.25 0.43-0.42 0.69-0.51 0.27-0.09 0.56-0.09 0.84 0 0.25 0.09 0.48 0.26 0.69 0.51l2.88 3.65c0.73 0.92 0.69 1.49-0.23 2.31z"/>
 <path d="m13.32 22h-2.59c-0.92003 0-1.61-0.75-1.43-1.55l0.31-1.39c0.06-0.28 0.31-0.47 0.59003-0.47h3.65c0.28 0 0.52 0.19 0.59 0.47l0.31 1.39c0.19 0.85-0.45 1.55-1.43 1.55z"/>
</svg>
