<?xml version="1.0" encoding="UTF-8"?>
<svg width="24" height="24" viewBox="0 0 24 24" xmlns="http://www.w3.org/2000/svg">
 <path d="m12 2c-5.52 0-10 4.48-10 10s4.48 10 10 10 10-4.48 10-10-4.48-10-10-10zm-3.27 5.66c0.81 0 1.48 0.66 1.48 1.48 0 0.81-0.66 1.48-1.48 1.48-0.81 0-1.48-0.66-1.48-1.48s0.66-1.48 1.48-1.48zm0.12 8.14c-0.15 0.15-0.34 0.22-0.53 0.22s-0.38-0.07-0.53-0.22c-0.29-0.29-0.29-0.77 0-1.06l6.55-6.55c0.29-0.29 0.77-0.29 1.06 0s0.29 0.77 0 1.06l-6.55 6.55zm6.42 0.54c-0.81 0-1.48-0.66-1.48-1.48 0-0.81 0.66-1.48 1.48-1.48 0.81 0 1.48 0.66 1.48 1.48s-0.66 1.48-1.48 1.48z"/>
</svg>
