<?xml version="1.0" encoding="UTF-8"?>
<svg width="24" height="24" viewBox="0 0 24 24" xmlns="http://www.w3.org/2000/svg">
 <path d="m16.19 2h-8.38c-3.64 0-5.81 2.17-5.81 5.81v8.37c0 3.65 2.17 5.82 5.81 5.82h8.37c3.64 0 5.81-2.17 5.81-5.81v-8.38c0.01-3.64-2.16-5.81-5.8-5.81zm-8.44 7.14c0-0.81 0.66-1.48 1.48-1.48 0.81 0 1.48 0.66 1.48 1.48 0 0.81-0.66 1.48-1.48 1.48-0.82-0.01-1.48-0.67-1.48-1.48zm1.07 6.88c-0.19 0-0.38-0.07-0.53-0.22-0.29-0.29-0.29-0.76 0-1.06l6.55-6.55c0.29-0.29 0.77-0.29 1.06 0s0.29 0.77 0 1.06l-6.55 6.55c-0.15 0.15-0.34 0.22-0.53 0.22zm6.95 0.32c-0.81 0-1.48-0.66-1.48-1.48 0-0.81 0.66-1.48 1.48-1.48 0.81 0 1.48 0.66 1.48 1.48s-0.66 1.48-1.48 1.48z"/>
</svg>
