<?xml version="1.0" encoding="UTF-8"?>
<svg width="24" height="24" viewBox="0 0 24 24" xmlns="http://www.w3.org/2000/svg">
 <path d="m18 3h-12c-2.21 0-4 1.78-4 3.97v10.06c0 2.19 1.79 3.97 4 3.97h12c2.21 0 4-1.78 4-3.97v-10.06c0-2.19-1.79-3.97-4-3.97zm-9.5 4.17c1.27 0 2.31 1.04 2.31 2.31s-1.04 2.31-2.31 2.31-2.31-1.04-2.31-2.31 1.04-2.31 2.31-2.31zm3.87 9.49c-0.09 0.1-0.23 0.16-0.37 0.16h-7c-0.14 0-0.28-0.06-0.37-0.16s-0.14-0.24-0.13-0.38c0.17-1.68 1.51-3.01 3.19-3.17 0.53-0.05 1.08-0.05 1.61 0 1.68 0.16 3.03 1.49 3.19 3.17 0.02 0.14-0.03 0.28-0.12 0.38zm6.63 0.09h-2c-0.41 0-0.75-0.34-0.75-0.75s0.34-0.75 0.75-0.75h2c0.41 0 0.75 0.34 0.75 0.75s-0.34 0.75-0.75 0.75zm0-4h-4c-0.41 0-0.75-0.34-0.75-0.75s0.34-0.75 0.75-0.75h4c0.41 0 0.75 0.34 0.75 0.75s-0.34 0.75-0.75 0.75zm0-4h-5c-0.41 0-0.75-0.34-0.75-0.75s0.34-0.75 0.75-0.75h5c0.41 0 0.75 0.34 0.75 0.75s-0.34 0.75-0.75 0.75z"/>
</svg>
