<svg width="24" height="24" viewBox="0 0 24 24"  xmlns="http://www.w3.org/2000/svg">
<path d="M19.08 15.72C18.49 12.19 15.1 9.32001 11.52 9.32001C7.63003 9.32001 4.21003 12.47 3.88003 16.35C3.75003 17.85 4.23003 19.27 5.22003 20.34C6.20003 21.41 7.58003 22 9.08003 22H13.76C15.45 22 16.93 21.34 17.94 20.15C18.95 18.96 19.35 17.38 19.08 15.72Z" />
<path d="M10.2801 7.86C11.8983 7.86 13.2101 6.54819 13.2101 4.93C13.2101 3.31181 11.8983 2 10.2801 2C8.6619 2 7.3501 3.31181 7.3501 4.93C7.3501 6.54819 8.6619 7.86 10.2801 7.86Z" />
<path d="M16.94 9.03002C18.2876 9.03002 19.38 7.9376 19.38 6.59002C19.38 5.24245 18.2876 4.15002 16.94 4.15002C15.5924 4.15002 14.5 5.24245 14.5 6.59002C14.5 7.9376 15.5924 9.03002 16.94 9.03002Z" />
<path d="M20.5501 12.93C21.6271 12.93 22.5001 12.057 22.5001 10.98C22.5001 9.90307 21.6271 9.03003 20.5501 9.03003C19.4731 9.03003 18.6001 9.90307 18.6001 10.98C18.6001 12.057 19.4731 12.93 20.5501 12.93Z" />
<path d="M3.94 10.98C5.28757 10.98 6.38 9.88755 6.38 8.53998C6.38 7.1924 5.28757 6.09998 3.94 6.09998C2.59243 6.09998 1.5 7.1924 1.5 8.53998C1.5 9.88755 2.59243 10.98 3.94 10.98Z" />
</svg>
