<?xml version="1.0" encoding="UTF-8"?>
<svg width="24" height="24" viewBox="0 0 24 24" xmlns="http://www.w3.org/2000/svg">
 <path d="M10.51 11.22L8.31 2.39C8.26 2.16 8.05 2 7.81 2C4.6 2 2 4.6 2 7.81V13.51C2 13.85 2.33 14.1 2.66 14L10.16 11.83C10.42 11.76 10.58 11.49 10.51 11.22Z"/>
 <path d="m11.12 13.68c-0.07-0.28-0.36-0.45-0.64-0.37l-8.11 2.36c-0.22 0.07-0.37 0.27-0.37 0.5v0.02c0 3.21 2.6 5.81 5.81 5.81h4.72c0.33 0 0.58-0.31 0.5-0.64l-1.91-7.68z"/>
 <path d="m16.19 2h-5.75c-0.33 0-0.58003 0.31-0.50003 0.64l4.74 18.97c0.06 0.23 0.26 0.39 0.5 0.39h1c3.22 0 5.82-2.6 5.82-5.81v-8.38c0-3.21-2.6-5.81-5.81-5.81z"/>
</svg>
