<?xml version="1.0" encoding="UTF-8"?>
<svg width="24" height="24" viewBox="0 0 24 24" xmlns="http://www.w3.org/2000/svg">
 <path d="m21.28 15.72c-0.65-0.45-1.44-0.72-2.28-0.72-0.94 0-1.81 0.33-2.5 0.88-0.92 0.73-1.5 1.86-1.5 3.12 0 0.75 0.21 1.46 0.58 2.06 0.04 0.07 0.09 0.14 0.15 0.21 0.7 1.04 1.9 1.73 3.27 1.73 1.01 0 1.93-0.37 2.63-1 0.31-0.26 0.58-0.58 0.79-0.94 0.37-0.6 0.58-1.31 0.58-2.06 0-1.36-0.68-2.56-1.72-3.28zm-0.68 4.86c-0.15 0.15-0.34 0.22-0.53 0.22s-0.38-0.07-0.53-0.22l-0.53-0.53-0.55 0.55c-0.15 0.15-0.34 0.22-0.53 0.22s-0.38-0.07-0.53-0.22c-0.29-0.29-0.29-0.77 0-1.06l0.55-0.55-0.53-0.53c-0.29-0.29-0.29-0.77 0-1.06s0.77-0.29 1.06 0l0.53 0.53 0.5-0.5c0.29-0.29 0.77-0.29 1.06 0s0.29 0.77 0 1.06l-0.5 0.5 0.53 0.53c0.29 0.29 0.29 0.76 0 1.06z"/>
 <path d="m21.85 10.25c-0.78-4.45-4.61-7.9-9.12-8.22-6.1-0.44-11.14 4.61-10.7 10.7 0.32 4.51 3.77 8.33 8.22 9.11 1.15 0.2 2.27 0.2 3.34 0.02 0.31-0.05 0.49-0.39 0.37-0.67-0.3-0.68-0.46-1.43-0.46-2.2 0-1.69 0.75-3.25 2.07-4.29 0.97-0.78 2.19-1.21 3.43-1.21 0.78 0 1.52 0.16 2.19 0.46 0.29 0.13 0.62-0.06 0.68-0.37 0.18-1.06 0.18-2.18-0.02-3.33zm-7.35 3.32-2.4 1.38c-1.49 0.86-2.71 0.16-2.71-1.57v-2.77c0-1.72 1.22-2.43 2.71-1.57l2.4 1.38c1.49 0.88 1.49 2.28 0 3.15z"/>
</svg>
