<?xml version="1.0" encoding="UTF-8"?>
<svg width="24" height="24" viewBox="0 0 24 24" xmlns="http://www.w3.org/2000/svg">
 <path d="m19.07 19.82c-0.19 0-0.38-0.07-0.53-0.22-0.29-0.29-0.29-0.77 0-1.06 3.61-3.61 3.61-9.48 0-13.08-0.29-0.29-0.29-0.77 0-1.06s0.77-0.29 1.06 0c4.19 4.19 4.19 11.01 0 15.2-0.15 0.15-0.34 0.22-0.53 0.22z"/>
 <path d="m4.9301 19.82c-0.19 0-0.38-0.07-0.53-0.22-4.19-4.19-4.19-11.01 0-15.2 0.29-0.29 0.77-0.29 1.06 0s0.29 0.77 0 1.06c-3.61 3.61-3.61 9.48 0 13.08 0.29 0.29 0.29 0.77 0 1.06-0.15 0.15-0.34 0.22-0.53 0.22z"/>
 <path d="m12 22.71c-1.25-0.01-2.44-0.21-3.55-0.6-0.39-0.14-0.6-0.57-0.46-0.96s0.56-0.6 0.96-0.46c0.96 0.33 1.98 0.51 3.06 0.51 1.07 0 2.1-0.18 3.05-0.51 0.39-0.13 0.82 0.07 0.96 0.46s-0.07 0.82-0.46 0.96c-1.12 0.39-2.31 0.6-3.56 0.6z"/>
 <path d="m15.3 3.34c-0.08 0-0.17-0.01-0.25-0.04-0.95-0.34-1.98-0.51-3.05-0.51s-2.09 0.18-3.05 0.51c-0.4 0.13-0.82-0.07-0.96-0.46s0.07-0.82 0.46-0.96c1.12-0.39 2.31-0.59 3.55-0.59s2.44 0.2 3.55 0.59c0.39 0.14 0.6 0.57 0.46 0.96-0.11 0.31-0.4 0.5-0.71 0.5z"/>
 <path d="m8.74 12v-1.67c0-2.08 1.47-2.93 3.27-1.89l2.9 1.68c1.8 1.04 1.8 2.74 0 3.78l-2.9 1.68c-1.8 1.04-3.27 0.19-3.27-1.89v-1.69z"/>
</svg>
