<?xml version="1.0" encoding="UTF-8"?>
<svg width="24" height="24" viewBox="0 0 24 24" xmlns="http://www.w3.org/2000/svg">
 <path d="m21.85 10.25c-0.78-4.45-4.61-7.9-9.12-8.22-6.1-0.44-11.14 4.61-10.7 10.7 0.32 4.51 3.77 8.33 8.22 9.11 1.15 0.2 2.27 0.2 3.34 0.02 0.31-0.05 0.49-0.39 0.37-0.67-0.3-0.68-0.46-1.43-0.46-2.2 0-1.69 0.75-3.25 2.07-4.29 0.97-0.78 2.19-1.21 3.43-1.21 0.78 0 1.52 0.16 2.19 0.46 0.29 0.13 0.62-0.06 0.68-0.37 0.18-1.06 0.18-2.18-0.02-3.33zm-7.35 3.32-2.4 1.38c-1.49 0.86-2.71 0.16-2.71-1.57v-2.77c0-1.72 1.22-2.43 2.71-1.57l2.4 1.38c1.49 0.88 1.49 2.28 0 3.15z"/>
 <path d="m19 15c-0.94 0-1.81 0.33-2.5 0.88-0.92 0.73-1.5 1.86-1.5 3.12 0 0.75 0.21 1.46 0.58 2.06 0.69 1.16 1.96 1.94 3.42 1.94 1.01 0 1.93-0.37 2.63-1 0.31-0.26 0.58-0.58 0.79-0.94 0.37-0.6 0.58-1.31 0.58-2.06 0-2.21-1.79-4-4-4zm1.5 4.73h-0.75v0.78c0 0.41-0.34 0.75-0.75 0.75s-0.75-0.34-0.75-0.75v-0.78h-0.75c-0.41 0-0.75-0.34-0.75-0.75s0.34-0.75 0.75-0.75h0.75v-0.71c0-0.41 0.34-0.75 0.75-0.75s0.75 0.34 0.75 0.75v0.71h0.75c0.41 0 0.75 0.34 0.75 0.75s-0.34 0.75-0.75 0.75z"/>
</svg>
