<?xml version="1.0" encoding="UTF-8"?>
<svg width="24" height="24" viewBox="0 0 24 24" xmlns="http://www.w3.org/2000/svg">
 <path d="m14.5 18h-11c-0.41 0-0.75-0.34-0.75-0.75s0.34-0.75 0.75-0.75h11c3.45 0 6.25-2.8 6.25-6.25s-2.8-6.25-6.25-6.25h-5c-0.41 0-0.75-0.34-0.75-0.75s0.34-0.75 0.75-0.75h5c4.27 0 7.75 3.48 7.75 7.75s-3.48 7.75-7.75 7.75z"/>
 <path d="m13.81 14.89h-5.81c-0.41 0-0.75-0.34-0.75-0.75s0.34-0.75 0.75-0.75h5.81c1.62 0 2.94-1.32 2.94-2.94 0-1.62-1.32-2.94-2.94-2.94h-10.64c-0.41 0-0.75-0.34-0.75-0.75s0.34-0.75 0.75-0.75h10.64c2.45 0 4.44 1.99 4.44 4.44 0 2.45-1.99 4.44-4.44 4.44z"/>
 <path d="m8.5 11.5h-3c-0.41 0-0.75-0.34-0.75-0.75s0.34-0.75 0.75-0.75h3c0.41 0 0.75 0.34 0.75 0.75s-0.34 0.75-0.75 0.75z"/>
 <path d="m6.5 21.5h-4c-0.41 0-0.75-0.34-0.75-0.75s0.34-0.75 0.75-0.75h4c0.41 0 0.75 0.34 0.75 0.75s-0.34 0.75-0.75 0.75z"/>
</svg>
