<svg width="24" height="24" viewBox="0 0 24 24"  xmlns="http://www.w3.org/2000/svg">
<path d="M21.38 11.4502L16.88 8.85023C16.65 8.72023 16.36 8.72023 16.13 8.85023L11.63 11.4502C11.63 11.4502 11.63 11.4602 11.62 11.4602L7.49998 13.8402L3.74998 11.6702V7.34023L7.49998 5.17023L11.25 7.34023V8.48024C11.25 8.89024 11.59 9.23024 12 9.23024C12.41 9.23024 12.75 8.89024 12.75 8.48024V6.90023C12.75 6.63023 12.61 6.38023 12.37 6.25023L7.86998 3.65023C7.63998 3.52023 7.34998 3.52023 7.11998 3.65023L2.61998 6.25023C2.38998 6.38023 2.23999 6.63023 2.23999 6.90023V12.1002C2.23999 12.3702 2.37998 12.6202 2.61998 12.7502L7.11998 15.3502C7.23998 15.4202 7.36998 15.4502 7.49998 15.4502C7.62998 15.4502 7.75999 15.4202 7.87999 15.3502L12.38 12.7502C12.38 12.7502 12.38 12.7402 12.39 12.7402L16.51 10.3602L20.26 12.5302V16.8602L16.51 19.0302L12.76 16.8602V15.6402C12.76 15.2302 12.42 14.8902 12.01 14.8902C11.6 14.8902 11.26 15.2302 11.26 15.6402V17.2902C11.26 17.5602 11.4 17.8102 11.64 17.9402L16.14 20.5402C16.26 20.6102 16.39 20.6402 16.52 20.6402C16.65 20.6402 16.78 20.6102 16.9 20.5402L21.4 17.9402C21.63 17.8102 21.78 17.5602 21.78 17.2902V12.0902C21.75 11.8302 21.61 11.5802 21.38 11.4502Z" />
<path d="M4.5 8.35031V10.6603C4.5 11.0203 4.69 11.3503 5 11.5303L7 12.6803C7.31 12.8603 7.69 12.8603 8 12.6803L10 11.5303C10.31 11.3503 10.5 11.0203 10.5 10.6603V8.35031C10.5 7.99031 10.31 7.66031 10 7.48031L8 6.33031C7.69 6.15031 7.31 6.15031 7 6.33031L5 7.48031C4.69 7.66031 4.5 7.99031 4.5 8.35031Z" />
<path d="M13.5 13.5495V15.8595C13.5 16.2195 13.69 16.5495 14 16.7295L16 17.8795C16.31 18.0595 16.69 18.0595 17 17.8795L19 16.7295C19.31 16.5495 19.5 16.2195 19.5 15.8595V13.5495C19.5 13.1895 19.31 12.8595 19 12.6795L17 11.5295C16.69 11.3495 16.31 11.3495 16 11.5295L14 12.6795C13.69 12.8595 13.5 13.1895 13.5 13.5495Z" />
</svg>
