<?xml version="1.0" encoding="UTF-8"?>
<svg width="24" height="24" viewBox="0 0 24 24" xmlns="http://www.w3.org/2000/svg">
 <path d="m22 2.75h-20c-0.41 0-0.75-0.34-0.75-0.75s0.34-0.75 0.75-0.75h20c0.41 0 0.75 0.34 0.75 0.75s-0.34 0.75-0.75 0.75z"/>
 <path d="m16.67 22.34c-0.13 0.26-0.4 0.41-0.67 0.41-0.11 0-0.23-0.03-0.33-0.08l-3.67-1.83-3.67 1.83c-0.1 0.05-0.22 0.08-0.33 0.08-0.27 0-0.54-0.15-0.67-0.41-0.19-0.38-0.04-0.83 0.34-1.01l3.58-1.79v-2.54h1.5v2.54l3.58 1.79c0.38 0.18 0.53 0.63 0.34 1.01z"/>
 <path d="m3 2v12.1c0 1.9 1 2.9 2.9 2.9h12.2c1.9 0 2.9-1 2.9-2.9v-12.1h-18zm13.98 6.58-3.15 2.63c-0.29 0.24-0.66 0.34-1.01 0.28-0.36-0.06-0.67-0.28-0.86-0.6l-1.05-1.75-2.93 2.44c-0.14 0.12-0.31 0.17-0.48 0.17-0.21 0-0.43-0.09-0.58-0.27-0.27-0.32-0.22-0.79 0.1-1.06l3.15-2.63c0.29-0.24 0.66-0.34 1.01-0.28 0.36 0.06 0.67 0.28 0.86 0.6l1.05 1.75 2.93-2.44c0.32-0.27 0.79-0.22 1.06 0.1 0.26 0.32 0.22 0.79-0.1 1.06z"/>
</svg>
