<?xml version="1.0" encoding="UTF-8"?>
<svg width="24" height="24" viewBox="0 0 24 24" xmlns="http://www.w3.org/2000/svg">
 <path d="m6 7c-2 0-3 1-3 3v5c0 2 1 3 3 3l2-2v-1h1l8-8h-11zm1 4.75c-0.41 0-0.75-0.34-0.75-0.75s0.34-0.75 0.75-0.75h2c0.41 0 0.75 0.34 0.75 0.75s-0.34 0.75-0.75 0.75h-2z"/>
 <path d="m9 15-1 1v-1h1z"/>
 <path d="m17 5v2h-10v-2c0-1.66 1.34-3 3-3h4c1.66 0 3 1.34 3 3z"/>
 <path d="m22.53 1.4704c-0.29-0.29-0.77-0.29-1.06 0l-20 20c-0.29 0.29-0.29 0.77 0 1.06 0.15 0.15 0.34 0.22 0.53 0.22s0.38-0.07 0.53-0.22l20-20c0.29-0.29 0.29-0.77 0-1.06z"/>
 <path d="m17 14.25h-4.0429c-0.1326 0-0.2598 0.0527-0.3535 0.1464l-3.8036 3.8036c-0.64 0.64-0.77 1.8-0.25 2.54 0.54 0.76 1.44 1.26 2.45 1.26h2c1.66 0 3-1.34 3-3v-3.25h1c0.41 0 0.75-0.34 0.75-0.75s-0.34-0.75-0.75-0.75z"/>
 <path d="m19.02 7.9801-3.56 3.56c-0.63 0.63-0.18 1.71 0.71 1.71h0.74c0.87 0 1.68 0.59 1.82 1.45 0.1512 0.9154-0.417 1.739-1.2366 1.9795-0.265 0.0777-0.4934 0.2944-0.4934 0.5705v0.25c0 0.2762 0.2239 0.5 0.5 0.5h0.5c1.66 0 3-1.34 3-3v-5c0-0.78998-0.16-1.43-0.47-1.91-0.34-0.51-1.08-0.54-1.51-0.11z"/>
</svg>
