<?xml version="1.0" encoding="UTF-8"?>
<svg width="24" height="24" viewBox="0 0 24 24" xmlns="http://www.w3.org/2000/svg">
 <path d="m7 5c0-1.66 1.34-3 3-3h4c1.66 0 3 1.34 3 3 0 0.55-0.45 1-1 1h-8c-0.55 0-1-0.45-1-1z"/>
 <path d="m17.75 15c0 0.41-0.34 0.75-0.75 0.75h-1v3.25c0 1.66-1.34 3-3 3h-2c-1.66 0-3-1.34-3-3v-3.25h-1c-0.41 0-0.75-0.34-0.75-0.75s0.34-0.75 0.75-0.75h10c0.41 0 0.75 0.34 0.75 0.75z"/>
 <path d="m18 7h-12c-2 0-3 1-3 3v5c0 2 1 3 3 3h0.375c0.34518 0 0.625-0.2798 0.625-0.625s-0.28869-0.6146-0.61159-0.7366c-0.66222-0.2502-1.1384-0.8931-1.1384-1.6384 0-0.96 0.79-1.75 1.75-1.75h10c0.96 0 1.75 0.79 1.75 1.75 0 0.7453-0.4762 1.3882-1.1384 1.6384-0.3229 0.122-0.6116 0.3914-0.6116 0.7366s0.2798 0.625 0.625 0.625h0.375c2 0 3-1 3-3v-5c0-2-1-3-3-3zm-8 4.75h-3c-0.41 0-0.75-0.34-0.75-0.75s0.34-0.75 0.75-0.75h3c0.41 0 0.75 0.34 0.75 0.75s-0.34 0.75-0.75 0.75z"/>
</svg>
