<?xml version="1.0" encoding="UTF-8"?>
<svg width="24" height="24" viewBox="0 0 24 24" xmlns="http://www.w3.org/2000/svg">
 <path d="m9 2c-2.62 0-4.75 2.13-4.75 4.75 0 2.57 2.01 4.65 4.63 4.74 0.08-0.01 0.16-0.01 0.22 0h0.05 0.02c2.56-0.09 4.57-2.17 4.58-4.74 0-2.62-2.13-4.75-4.75-4.75z"/>
 <path d="m14.08 14.15c-2.79-1.86-7.34-1.86-10.15 0-1.27 0.85-1.97 2-1.97 3.23s0.7 2.37 1.96 3.21c1.4 0.94 3.24 1.41 5.08 1.41 1.84 0 3.68-0.47 5.08-1.41 1.26-0.85 1.96-1.99 1.96-3.23-0.01-1.23-0.7-2.37-1.96-3.21z"/>
 <path d="m19.99 7.3401c0.16 1.94-1.22 3.64-3.13 3.87h-0.02-0.03c-0.06 0-0.12 0-0.17 0.02-0.97 0.05-1.86-0.26-2.53-0.83 1.03-0.92 1.62-2.3 1.5-3.8-0.07-0.81-0.35-1.55-0.77-2.18 0.38-0.19 0.82-0.31 1.27-0.35 1.96-0.17 3.71 1.29 3.88 3.27z"/>
 <path d="m21.99 16.59c-0.08 0.97-0.7 1.81-1.74 2.38-1 0.55-2.26 0.81-3.51 0.78 0.72-0.65 1.14-1.46 1.22-2.32 0.1-1.24-0.49-2.43-1.67-3.38-0.67-0.53-1.45-0.95-2.3-1.26 2.21-0.64 4.99-0.21 6.7 1.17 0.92 0.74 1.39 1.67 1.3 2.63z"/>
</svg>
