<?xml version="1.0" encoding="UTF-8"?>
<svg width="24" height="24" viewBox="0 0 24 24" xmlns="http://www.w3.org/2000/svg">
 <path d="m12 2c-2.62 0-4.75 2.13-4.75 4.75 0 2.57 2.01 4.65 4.63 4.74 0.08-0.01 0.16-0.01 0.22 0h0.05 0.02c2.56-0.09 4.57-2.17 4.58-4.74 0-2.62-2.13-4.75-4.75-4.75z"/>
 <path d="m17.08 14.15c-2.79-1.86-7.34-1.86-10.15 0-1.27 0.85-1.97 2-1.97 3.23s0.7 2.37 1.96 3.21c1.4 0.94 3.24 1.41 5.08 1.41s3.68-0.47 5.08-1.41c1.26-0.85 1.96-1.99 1.96-3.23-0.01-1.23-0.7-2.37-1.96-3.21zm-3.14 4.11c0.29 0.29 0.29 0.77 0 1.06-0.15 0.15-0.34 0.22-0.53 0.22s-0.38-0.07-0.53-0.22l-0.88-0.88-0.88 0.88c-0.15 0.15-0.34 0.22-0.53 0.22s-0.38-0.07-0.53-0.22c-0.29004-0.29-0.29004-0.77 0-1.06l0.88-0.88-0.88-0.88c-0.29004-0.29-0.29004-0.77 0-1.06 0.29-0.29 0.77-0.29 1.06 0l0.88 0.88 0.88-0.88c0.29-0.29 0.77-0.29 1.06 0s0.29 0.77 0 1.06l-0.88 0.88 0.88 0.88z"/>
</svg>
