<?xml version="1.0" encoding="UTF-8"?>
<svg width="24" height="24" viewBox="0 0 24 24" xmlns="http://www.w3.org/2000/svg">
 <path d="m12 2c-2.62 0-4.75 2.13-4.75 4.75 0 2.57 2.01 4.65 4.63 4.74 0.08-0.01 0.16-0.01 0.22 0h0.05 0.02c2.56-0.09 4.57-2.17 4.58-4.74 0-2.62-2.13-4.75-4.75-4.75z"/>
 <path d="m17.08 14.15c-2.79-1.86-7.34-1.86-10.15 0-1.27 0.85-1.97 2-1.97 3.23s0.7 2.37 1.96 3.21c1.4 0.94 3.24 1.41 5.08 1.41s3.68-0.47 5.08-1.41c1.26-0.85 1.96-1.99 1.96-3.23-0.01-1.23-0.7-2.37-1.96-3.21zm-3.08 3.98h-1.25v1.25c0 0.41-0.34 0.75-0.75 0.75s-0.75-0.34-0.75-0.75v-1.25h-1.25c-0.41 0-0.75-0.34-0.75-0.75s0.34-0.75 0.75-0.75h1.25v-1.25c0-0.41 0.34-0.75 0.75-0.75s0.75 0.34 0.75 0.75v1.25h1.25c0.41 0 0.75 0.34 0.75 0.75s-0.34 0.75-0.75 0.75z"/>
</svg>
