<svg width="24" height="24" viewBox="0 0 24 24"  xmlns="http://www.w3.org/2000/svg">
<path d="M15.02 2.23055C13.02 1.92055 10.9801 1.92055 8.98006 2.23055C8.16006 2.36055 7.56005 3.06054 7.56005 3.88054V7.56053H3.88005C3.06005 7.56053 2.36006 8.16055 2.23006 8.98055C1.92006 10.9805 1.92006 13.0205 2.23006 15.0205C2.36006 15.8405 3.06005 16.4405 3.88005 16.4405H5.56005C5.84005 16.4405 6.06005 16.2205 6.06005 15.9405V14.2205C6.06005 12.1705 7.73005 10.5005 9.78005 10.5005H14.22C14.62 10.5005 14.9401 10.1805 14.9401 9.78053V6.56053C14.9401 6.28053 15.1601 6.06053 15.4401 6.06053H15.9401C16.22 6.06053 16.4401 5.84053 16.4401 5.56053V3.88054C16.4401 3.06054 15.84 2.36055 15.02 2.23055ZM10.33 5.58052C9.92003 5.58052 9.53005 5.19053 9.53005 4.78053C9.53005 4.36053 9.92003 3.97054 10.33 3.97054C10.53 3.97054 10.7501 4.06055 10.8901 4.20055C11.0401 4.34055 11.1401 4.57053 11.1401 4.78053C11.1401 5.19053 10.75 5.58052 10.33 5.58052Z" />
<path d="M21.7701 8.98056C21.64 8.16056 20.9401 7.56055 20.1201 7.56055H16.9401C16.6601 7.56055 16.4401 7.78055 16.4401 8.06055V9.78055C16.4401 11.0005 15.4501 12.0005 14.2201 12.0005H9.78006C8.55006 12.0005 7.56006 12.9906 7.56006 14.2206V20.1205C7.56006 20.9405 8.16007 21.6405 8.98007 21.7705C10.9801 22.0805 13.0201 22.0805 15.0201 21.7705C15.84 21.6405 16.4401 20.9405 16.4401 20.1205V16.4406H20.1201C20.9401 16.4406 21.64 15.8405 21.7701 15.0205C22.0801 13.0205 22.0801 10.9806 21.7701 8.98056ZM13.6701 20.0305C13.2601 20.0305 12.86 19.6406 12.86 19.2206C12.86 18.8006 13.2501 18.4106 13.6701 18.4106C13.8601 18.4106 14.0901 18.5006 14.2301 18.6306C14.3801 18.7706 14.4801 19.0105 14.4801 19.2105C14.4701 19.6405 14.0801 20.0305 13.6701 20.0305Z" />
</svg>
