<svg width="24" height="24" viewBox="0 0 24 24"  xmlns="http://www.w3.org/2000/svg">
<path d="M15.02 2.22957C13.02 1.91957 10.9801 1.91957 8.98006 2.22957C8.16006 2.35957 7.56005 3.05956 7.56005 3.87956V7.55956H3.88005C3.06005 7.55956 2.36006 8.15957 2.23006 8.97957C1.92006 10.9796 1.92006 13.0195 2.23006 15.0195C2.36006 15.8395 3.06005 16.4396 3.88005 16.4396H5.56005C5.84005 16.4396 6.06005 16.2196 6.06005 15.9396V14.2196C6.06005 12.1696 7.73005 10.4996 9.78005 10.4996H14.22C14.62 10.4996 14.9401 10.1796 14.9401 9.77956V6.55956C14.9401 6.27956 15.1601 6.05956 15.4401 6.05956H15.9401C16.2201 6.05956 16.4401 5.83956 16.4401 5.55956V3.87956C16.4401 3.05956 15.84 2.35957 15.02 2.22957ZM10.33 5.57955C9.92003 5.57955 9.53005 5.18956 9.53005 4.77956C9.53005 4.35956 9.92003 3.96956 10.33 3.96956C10.53 3.96956 10.7501 4.05957 10.8901 4.19957C11.0401 4.33957 11.1401 4.56956 11.1401 4.77956C11.1401 5.18956 10.75 5.57955 10.33 5.57955Z" />
<path d="M21.7701 8.97958C21.6401 8.15958 20.9401 7.55957 20.1201 7.55957H16.9401C16.6601 7.55957 16.4401 7.77957 16.4401 8.05957V9.77957C16.4401 10.9996 15.4501 11.9996 14.2201 11.9996H9.78006C8.55006 11.9996 7.56006 12.9896 7.56006 14.2196V20.1196C7.56006 20.9396 8.16007 21.6396 8.98007 21.7696C10.9801 22.0796 13.0201 22.0796 15.0201 21.7696C15.8401 21.6396 16.4401 20.9396 16.4401 20.1196V16.4396H20.1201C20.9401 16.4396 21.6401 15.8396 21.7701 15.0196C22.0801 13.0196 22.0801 10.9796 21.7701 8.97958ZM13.6701 20.0296C13.2601 20.0296 12.86 19.6396 12.86 19.2196C12.86 18.7996 13.2501 18.4096 13.6701 18.4096C13.8601 18.4096 14.0901 18.4996 14.2301 18.6296C14.3801 18.7696 14.4801 19.0096 14.4801 19.2096C14.4701 19.6396 14.0801 20.0296 13.6701 20.0296Z" />
</svg>
