<?xml version="1.0" encoding="UTF-8"?>
<svg width="24" height="24" viewBox="0 0 24 24" xmlns="http://www.w3.org/2000/svg">
 <path d="m20.49 6.7101-8-4.44c-0.3-0.17-0.67-0.17-0.97 0l-8 4.44c-0.32 0.18-0.51001 0.51-0.51001 0.87v8.82c0 0.36 0.20001 0.7 0.51001 0.87l8.02 4.46c0.29 0.16 0.64 0.17 0.93 0.02l4.03-2.01c0.31-0.16 0.68-0.14 0.98 0.05l1.99 1.25c0.67 0.42 1.53-0.06 1.53-0.85v-2.61c0-0.36-0.2-0.7-0.51-0.87l-3-1.66c-0.3-0.17-0.67-0.17-0.97 0l-4.03 2.24c-0.3 0.17-0.67 0.17-0.97 0l-4-2.22c-0.32-0.18-0.51001-0.51-0.51001-0.87v-4.38c0-0.36 0.20001-0.70001 0.51001-0.87001l4-2.22c0.3-0.17 0.67-0.17 0.97 0l4 2.22c0.32 0.18 0.51 0.51001 0.51 0.87001v3.06c0 0.81 0.91 1.28 1.57 0.82l2-1.39c0.27-0.19 0.43-0.49 0.43-0.82v-3.89c0-0.37-0.2-0.71-0.51-0.89z"/>
 <path d="m15.86 10.42v3.15c0 0.35-0.19 0.67-0.5 0.84l-2.89 1.61c-0.29 0.16-0.6499 0.16-0.9399 0l-2.8901-1.61c-0.31-0.17-0.5-0.49-0.5-0.84v-3.15c0-0.35 0.19-0.66999 0.5-0.83999l2.8901-1.61c0.29-0.16 0.6499-0.16 0.9399 0l2.89 1.61c0.31 0.17 0.5 0.48999 0.5 0.83999z"/>
</svg>
