<svg width="24" height="24" viewBox="0 0 24 24"  xmlns="http://www.w3.org/2000/svg">
<path fill-rule="evenodd" clip-rule="evenodd" d="M2 12C2 6.47768 6.47768 2 12 2C17.5223 2 22 6.47768 22 12C22 17.5223 17.5223 22 12 22C6.47768 22 2 17.5223 2 12ZM12 6.97159C12.8949 6.97159 13.7386 7.27841 14.3778 7.83878C15.0426 8.42045 15.4091 9.20241 15.407 10.0398C15.407 11.2713 14.5952 12.3793 13.3381 12.8629C13.1451 12.9374 12.9791 13.0684 12.8616 13.2386C12.7442 13.4089 12.6808 13.6106 12.6797 13.8175V14.3011C12.6797 14.3949 12.603 14.4716 12.5092 14.4716H11.4865C11.3928 14.4716 11.3161 14.3949 11.3161 14.3011V13.843C11.3161 13.3509 11.4609 12.8651 11.7401 12.4602C12.0149 12.0639 12.3984 11.7614 12.8501 11.5888C13.5767 11.3097 14.0455 10.7024 14.0455 10.0398C14.0455 9.10014 13.1271 8.33523 12 8.33523C10.8729 8.33523 9.95455 9.10014 9.95455 10.0398V10.2017C9.95455 10.2955 9.87784 10.3722 9.78409 10.3722H8.76136C8.66761 10.3722 8.59091 10.2955 8.59091 10.2017V10.0398C8.59091 9.20241 8.95739 8.42045 9.62216 7.83878C10.2614 7.28054 11.1051 6.97159 12 6.97159ZM11.3974 17.2901C11.2375 17.1303 11.1477 16.9135 11.1477 16.6875C11.1477 16.4615 11.2375 16.2447 11.3974 16.0849C11.5572 15.925 11.774 15.8352 12 15.8352C12.226 15.8352 12.4428 15.925 12.6026 16.0849C12.7625 16.2447 12.8523 16.4615 12.8523 16.6875C12.8523 16.9135 12.7625 17.1303 12.6026 17.2901C12.4428 17.45 12.226 17.5398 12 17.5398C11.774 17.5398 11.5572 17.45 11.3974 17.2901Z" />
</svg>
