<?xml version="1.0" encoding="UTF-8"?>
<svg width="24" height="24" viewBox="0 0 24 24" xmlns="http://www.w3.org/2000/svg">
 <path d="m8.09 11.63h-4.69c0.08-4.67 1-5.44 3.87-7.14 0.33-0.2 0.44-0.62 0.24-0.96-0.19-0.33-0.62-0.44-0.95-0.24-3.38 2-4.56 3.22-4.56 9.03v5.39c0 1.71 1.39 3.09 3.09 3.09h3c1.76 0 3.09-1.33 3.09-3.09v-3c0-1.75-1.33-3.08-3.09-3.08z"/>
 <path d="m18.91 11.63h-4.69c0.08-4.67 1-5.44 3.87-7.14 0.33-0.2 0.44-0.62 0.24-0.96-0.2-0.33-0.62-0.44-0.96-0.24-3.38 2-4.56 3.22-4.56 9.04v5.39c0 1.71 1.39 3.09 3.09 3.09h3c1.76 0 3.09-1.33 3.09-3.09v-3c0.01-1.76-1.32-3.09-3.08-3.09z"/>
</svg>
