<?xml version="1.0" encoding="UTF-8"?>
<svg width="24" height="24" viewBox="0 0 24 24" xmlns="http://www.w3.org/2000/svg">
 <path d="m16.19 2h-8.38c-3.64 0-5.81 2.17-5.81 5.81v8.37c0 3.65 2.17 5.82 5.81 5.82h8.37c3.64 0 5.81-2.17 5.81-5.81v-8.38c0.01-3.64-2.16-5.81-5.8-5.81zm-4.58 9.84c0 3.08-0.67 3.77-2.46 4.83-0.12 0.07-0.25 0.1-0.38 0.1-0.26 0-0.51-0.13-0.65-0.37-0.21-0.36-0.09-0.82 0.26-1.03 1.21-0.72 1.63-0.98 1.71-2.79h-1.9c-1.09 0-1.94-0.85-1.94-1.94v-1.48c0-1.09 0.85-1.94 1.94-1.94h1.49c1.07 0 1.94 0.87 1.94 1.94v2.68h-0.01zm6.14 0c0 3.08-0.67 3.77-2.46 4.83-0.12 0.07-0.25 0.1-0.38 0.1-0.26 0-0.51-0.13-0.65-0.37-0.21-0.36-0.09-0.82 0.26-1.03 1.21-0.72 1.63-0.98 1.71-2.79h-1.91c-1.09 0-1.94-0.85-1.94-1.94v-1.48c0-1.09 0.85-1.94 1.94-1.94h1.49c1.07 0 1.94 0.87 1.94 1.94v2.68z"/>
</svg>
