<?xml version="1.0" encoding="UTF-8"?>
<svg width="24" height="24" viewBox="0 0 24 24" xmlns="http://www.w3.org/2000/svg">
 <path d="m15.91 12.37h4.69c-0.08 4.67-1 5.44-3.87 7.14-0.33 0.2-0.44 0.62-0.24 0.96 0.2 0.33 0.62 0.44 0.96 0.24 3.38-2 4.56-3.22 4.56-9.04v-5.39c0-1.71-1.39-3.09-3.09-3.09h-3c-1.76 0-3.09 1.33-3.09 3.09v3c-0.01 1.76 1.32 3.09 3.08 3.09z"/>
 <path d="m5.09 12.37h4.69c-0.08 4.67-1 5.44-3.87 7.14-0.33 0.2-0.44 0.62-0.24 0.96 0.2 0.33 0.62 0.44 0.96 0.24 3.38-2 4.56-3.22 4.56-9.04v-5.39c0-1.71-1.39-3.09-3.09-3.09h-3c-1.77 0-3.1 1.33-3.1 3.09v3c0 1.76 1.33 3.09 3.09 3.09z"/>
</svg>
