<?xml version="1.0" encoding="UTF-8"?>
<svg width="24" height="24" viewBox="0 0 24 24" xmlns="http://www.w3.org/2000/svg">
 <path d="m12 14.38c1.3145 0 2.38-1.0655 2.38-2.38 0-1.3144-1.0655-2.38-2.38-2.38-1.3144 0-2.38 1.0656-2.38 2.38 0 1.3145 1.0656 2.38 2.38 2.38z"/>
 <path d="m20 18.75c-0.16 0-0.31-0.05-0.45-0.15-0.33-0.25-0.4-0.72-0.15-1.05 1.21-1.61 1.85-3.53 1.85-5.55 0-2.02-0.64-3.94-1.85-5.55-0.25-0.33-0.18-0.8 0.15-1.05s0.8-0.18 1.05 0.15c1.41 1.87 2.15 4.1 2.15 6.45 0 2.35-0.74 4.58-2.15 6.45-0.15 0.2-0.37 0.3-0.6 0.3z"/>
 <path d="m4 18.75c-0.23 0-0.45-0.1-0.6-0.3-1.41-1.87-2.15-4.1-2.15-6.45 0-2.35 0.74-4.58 2.15-6.45 0.25-0.33 0.72-0.4 1.05-0.15s0.4 0.72 0.15 1.05c-1.21 1.61-1.85 3.53-1.85 5.55 0 2.02 0.64 3.94 1.85 5.55 0.25 0.33 0.18 0.8-0.15 1.05-0.13 0.1-0.29 0.15-0.45 0.15z"/>
 <path d="m16.8 16.35c-0.16 0-0.31-0.05-0.45-0.15-0.33-0.25-0.4-0.72-0.15-1.05 0.69-0.91 1.05-2 1.05-3.15s-0.36-2.24-1.05-3.15c-0.25-0.33-0.18-0.8 0.15-1.05s0.8-0.18001 1.05 0.14999c0.88 1.18 1.35 2.58 1.35 4.05s-0.47 2.88-1.35 4.05c-0.15 0.2-0.37 0.3-0.6 0.3z"/>
 <path d="m7.2 16.35c-0.23 0-0.45-0.1-0.6-0.3-0.88-1.17-1.35-2.58-1.35-4.05s0.47-2.88 1.35-4.05c0.25-0.33 0.72-0.39999 1.05-0.14999s0.4 0.72 0.15 1.05c-0.69 0.91-1.05 2-1.05 3.15s0.36 2.24 1.05 3.15c0.25 0.33 0.18 0.8-0.15 1.05-0.13 0.1-0.29 0.15-0.45 0.15z"/>
</svg>
