<?xml version="1.0" encoding="UTF-8"?>
<svg width="24" height="24" viewBox="0 0 24 24" xmlns="http://www.w3.org/2000/svg">
 <path d="m12 2c-5.52 0-10 4.48-10 10s4.48 10 10 10 10-4.48 10-10-4.48-10-10-10zm0 17.75c-4.27 0-7.75-3.48-7.75-7.75 0-1.36 0.36-2.69 1.03-3.86 0.2-0.36 0.66-0.48 1.02-0.28l6.07 3.49c0.36 0.21 0.48 0.66 0.28 1.02-0.21 0.36-0.66 0.48-1.02 0.28l-2.91-1.67c-0.1 0.33-0.17 0.67-0.17 1.02 0 1.9 1.55 3.45 3.45 3.45s3.45-1.55 3.45-3.45-1.55-3.45-3.45-3.45c-0.51 0-1.01 0.11-1.47 0.33-0.38 0.18-0.82 0.02-1-0.36-0.18-0.37-0.02-0.82 0.36-1 0.66-0.31 1.37-0.47 2.11-0.47 2.73 0 4.95 2.22 4.95 4.95s-2.22 4.95-4.95 4.95-4.95-2.22-4.95-4.95c0-0.61 0.12-1.22 0.34-1.79l-1.15-0.65c-0.32 0.77-0.49 1.6-0.49 2.44 0 3.45 2.8 6.25 6.25 6.25s6.25-2.8 6.25-6.25-2.8-6.25-6.25-6.25c-1.36 0-2.66 0.43-3.75 1.25-0.33 0.25-0.8 0.18-1.05-0.15s-0.18-0.8 0.15-1.05c1.35-1.01 2.96-1.55 4.65-1.55 4.27 0 7.75 3.48 7.75 7.75s-3.48 7.75-7.75 7.75z"/>
</svg>
