<?xml version="1.0" encoding="UTF-8"?>
<svg width="24" height="24" viewBox="0 0 24 24" xmlns="http://www.w3.org/2000/svg">
 <path d="M7.75 2V5H7C6.74 5 6.49 5.01 6.25 5.05V2C6.25 1.59 6.59 1.25 7 1.25C7.41 1.25 7.75 1.59 7.75 2Z"/>
 <path d="m17 5h-10c-0.26 0-0.51 0.01-0.75 0.05-2.58 0.3-4.25 2.21-4.25 4.95v7c0 3 2 5 5 5h10c3 0 5-2 5-5v-7c0-3-2-5-5-5zm-9.12 11c-1.38 0-2.5-1.12-2.5-2.5s1.12-2.5 2.5-2.5 2.5 1.12 2.5 2.5-1.12 2.5-2.5 2.5zm6.5 0.25h-0.5c-0.41 0-0.75-0.34-0.75-0.75s0.34-0.75 0.75-0.75h0.5c0.41 0 0.75 0.34 0.75 0.75s-0.34 0.75-0.75 0.75zm3.5 0h-0.5c-0.41 0-0.75-0.34-0.75-0.75s0.34-0.75 0.75-0.75h0.5c0.41 0 0.75 0.34 0.75 0.75s-0.34 0.75-0.75 0.75zm0-4h-4c-0.41 0-0.75-0.34-0.75-0.75s0.34-0.75 0.75-0.75h4c0.41 0 0.75 0.34 0.75 0.75s-0.34 0.75-0.75 0.75z"/>
</svg>
