<?xml version="1.0" encoding="UTF-8"?>
<svg width="24" height="24" viewBox="0 0 24 24" xmlns="http://www.w3.org/2000/svg">
 <path d="m19.5 9c0.55 0 1-0.45 1-1v-1c0-3-1.53-5-5-5h-7c-3.53 0-5 2-5 5v10c0 2.3139 0.87827 4.0255 2.8949 4.6836 0.30155 0.0984 0.59402-0.1414 0.5929-0.4587l-0.00783-2.2249c0-1.66 1.35-3 3-3h4.01c1.64 0 2.99 1.34 3 2.98l0.0157 2.247c0.0022 0.3165 0.296 0.5531 0.5961 0.4524 1.9881-0.6668 2.8982-2.3767 2.8982-4.6794v-1.17c0-0.53-0.21-1.04-0.59-1.42l-0.82-0.82c-0.38-0.38-0.59-0.89-0.59-1.42v-2.17c0-0.55 0.45-1 1-1zm-5.53-0.47h-6c-0.41 0-0.75-0.34-0.75-0.75s0.34-0.75 0.75-0.75h6c0.41 0 0.75 0.34 0.75 0.75s-0.33 0.75-0.75 0.75z"/>
 <path d="m16.01 20.97c0.0056 0.5561-0.4437 1.01-0.9999 1.01h-6.0166c-0.54968 0-0.9963-0.4436-0.99998-0.9933l-0.01329-1.9867c0-1.1 0.89-2 2-2h4.01c1.1 0 1.99 0.89 2 1.99l0.0198 1.98z"/>
</svg>
