<?xml version="1.0" encoding="UTF-8"?>
<svg width="24" height="24" viewBox="0 0 24 24" xmlns="http://www.w3.org/2000/svg">
 <path d="m16.01 20.97c0.0056 0.5561-0.4437 1.01-0.9999 1.01h-6.0166c-0.54968 0-0.9963-0.4436-0.99998-0.9933l-0.01329-1.9867c0-1.1 0.89-2 2-2h4.01c1.1 0 1.99 0.89 2 1.99l0.0198 1.98z"/>
 <path d="m18.5 10v2.17c0 0.53 0.21 1.04 0.59 1.42l0.82 0.82c0.38 0.38 0.59 0.89 0.59 1.42v1.17c0 2.3011-0.9089 3.9936-2.8943 4.6661-0.3012 0.1021-0.5968-0.1358-0.5979-0.4539l-0.0078-2.2322c-0.02-1.64-1.37-2.98-3-2.98h-4.01c-1.66 0-3 1.35-3 3v2.2241c0 0.3175-0.29371 0.5563-0.5951 0.4565-2.0089-0.6647-2.8949-2.3676-2.8949-4.6806v-10c0-2.406 0.95179-4.1662 3.1452-4.7635 0.30056-0.08184 0.58067 0.15971 0.5762 0.47118l-0.03143 2.1923c-0.01 0.47 0.16 0.92 0.48 1.26 0.33 0.34 0.76 0.53 1.27 0.54 0.51417 0 0.97203-0.21275 1.2845-0.55906 0.1122-0.12437 0.3271-0.12939 0.4455-0.01094 0.32 0.34 0.76 0.54 1.27 0.55 0.5143 0 0.9835-0.22605 1.3036-0.58992 0.1052-0.11958 0.3206-0.12911 0.4264-0.01008 0.32 0.34 0.76 0.54 1.27 0.55 0.96 0 1.73-0.75 1.75-1.72l0.0397-2.2234c0.0054-0.30431 0.2809-0.53528 0.575-0.4571 2.204 0.58577 3.1953 2.3576 3.1953 4.7704v1c0 0.55-0.45 1-1 1s-1 0.45-1 1z"/>
 <path d="m9.2281 2.0033c0.28071-0.00181 0.5079 0.22777 0.50315 0.50844l-0.04135 2.4483c-0.01 0.41-0.34 0.74-0.75 0.74h-0.01c-0.42-0.01-0.75-0.35-0.74-0.77v-2.4232c0-0.27488 0.2219-0.49821 0.49677-0.49999l0.54143-0.00349z"/>
 <path d="m12.231 2c0.2794 0 0.5046 0.22906 0.4999 0.50847l-0.0414 2.4415c-0.01 0.4-0.34 0.73-0.75 0.73h-0.01c-0.42-0.01-0.75-0.35-0.74-0.76v-2.42c0-0.27614 0.2239-0.5 0.5-0.5h0.5415z"/>
 <path d="m15.234 2.0066c0.2783 0.00175 0.5016 0.23041 0.4967 0.50867l-0.0412 2.3745c-0.01 0.41-0.34 0.74-0.75 0.74h-0.01c-0.42-0.01-0.75-0.35-0.74-0.76v-2.3666c0-0.27737 0.2258-0.50174 0.5032-0.49999l0.5413 0.00341z"/>
</svg>
