<?xml version="1.0" encoding="UTF-8"?>
<svg width="24" height="24" viewBox="0 0 24 24" xmlns="http://www.w3.org/2000/svg">
 <path d="m13.3 8.1103 1.32 2.64c0.18 0.36 0.66 0.72 1.06 0.78l2.39 0.4c1.53 0.26 1.89 1.36 0.79 2.46l-1.86 1.87c-0.31 0.31-0.49 0.92-0.39 1.36l0.53 2.31c0.42 1.82-0.55 2.53-2.16 1.58l-2.24-1.33c-0.41-0.24-1.07-0.24-1.48 0l-2.25 1.32c-1.61 0.95-2.58 0.24-2.16-1.58l0.53-2.31c0.1-0.43-0.08-1.04-0.39-1.36l-1.85-1.85c-1.1-1.1-0.74-2.21 0.79-2.46l2.39-0.4c0.4-0.07 0.88-0.42 1.06-0.78l1.32-2.64c0.71-1.44 1.89-1.44 2.6-0.01z"/>
 <path d="m6 9.75c-0.41 0-0.75-0.34-0.75-0.75v-7c0-0.41 0.34-0.75 0.75-0.75s0.75 0.34 0.75 0.75v7c0 0.41-0.34 0.75-0.75 0.75z"/>
 <path d="m18 9.75c-0.41 0-0.75-0.34-0.75-0.75v-7c0-0.41 0.34-0.75 0.75-0.75s0.75 0.34 0.75 0.75v7c0 0.41-0.34 0.75-0.75 0.75z"/>
 <path d="m12 4.75c-0.41 0-0.75-0.34-0.75-0.75v-2c0-0.41 0.34-0.75 0.75-0.75s0.75 0.34 0.75 0.75v2c0 0.41-0.34 0.75-0.75 0.75z"/>
</svg>
