<?xml version="1.0" encoding="UTF-8"?>
<svg width="24" height="24" viewBox="0 0 24 24" xmlns="http://www.w3.org/2000/svg">
 <path d="m6.67 14h-2.67c-1.1 0-2 0.9-2 2v5c0 0.55 0.45 1 1 1h3.67c0.55 0 1-0.45 1-1v-6c0-0.55-0.45-1-1-1z"/>
 <path d="m13.33 10h-2.67c-1.1 0-2 0.9-2 2v9c0 0.55 0.45 1 1 1h4.67c0.55 0 1-0.45 1-1v-9c0-1.1-0.89-2-2-2z"/>
 <path d="m20 17h-2.67c-0.55 0-1 0.45-1 1v3c0 0.55 0.45 1 1 1h3.67c0.55 0 1-0.45 1-1v-2c0-1.1-0.9-2-2-2z"/>
 <path d="m15.01 4.8505c0.31-0.31 0.43-0.68 0.33-1s-0.41-0.55-0.85-0.62l-0.96-0.16c-0.04 0-0.13-0.07-0.15-0.11l-0.53-1.06c-0.4-0.81-1.31-0.81-1.71 0l-0.53 1.06c-0.01 0.04-0.1 0.11-0.14 0.11l-0.95996 0.16c-0.44 0.07-0.74 0.3-0.85 0.62-0.1 0.32 0.02 0.69 0.33 1l0.74 0.75c0.04 0.03 0.07 0.15 0.06 0.19l-0.21 0.92c-0.16 0.69 0.1 1 0.27 1.12 0.16996 0.12 0.53996 0.28 1.15-0.08l0.9-0.53c0.04-0.03 0.17-0.03 0.21 0l0.89 0.53c0.28 0.17 0.51 0.22 0.69 0.22 0.21 0 0.36-0.08 0.45-0.14 0.17-0.12 0.43-0.43 0.27-1.12l-0.21-0.92c-0.01-0.05 0.02-0.16 0.06-0.19l0.75-0.75z"/>
</svg>
