<?xml version="1.0" encoding="UTF-8"?>
<svg width="24" height="24" viewBox="0 0 24 24" xmlns="http://www.w3.org/2000/svg">
 <path d="m16.19 2h-8.38c-3.64 0-5.81 2.17-5.81 5.81v8.37c0 3.65 2.17 5.82 5.81 5.82h8.37c3.64 0 5.81-2.17 5.81-5.81v-8.38c0.01-3.64-2.16-5.81-5.8-5.81zm-7.55 5.15c0.29-0.29 0.77-0.29 1.06 0l4.38 4.38v-2.43c0-0.41 0.34-0.75 0.75-0.75s0.75 0.34 0.75 0.75v4.24c0 0.1-0.02 0.19-0.06 0.29-0.08 0.18-0.22 0.33-0.41 0.41-0.09 0.04-0.19 0.06-0.29 0.06h-4.24c-0.41 0-0.75-0.34-0.75-0.75s0.34-0.75 0.75-0.75h2.43l-4.37-4.39c-0.29-0.29-0.29-0.76 0-1.06zm9.6 10.07c-2.01 0.67-4.12 1.01-6.24 1.01s-4.23-0.34-6.24-1.01c-0.39-0.13-0.6-0.56-0.47-0.95s0.55-0.61 0.95-0.47c3.72 1.24 7.81 1.24 11.53 0 0.39-0.13 0.82 0.08 0.95 0.47 0.12 0.4-0.09 0.82-0.48 0.95z"/>
</svg>
