<?xml version="1.0" encoding="UTF-8"?>
<svg width="24" height="24" viewBox="0 0 24 24" xmlns="http://www.w3.org/2000/svg">
 <path d="m15.78 2h-7.56c-3.78 0-4.72 1.01-4.72 5.04v11.26c0 2.66 1.46 3.29 3.23 1.39l0.01-0.01c0.82-0.87 2.07-0.8 2.78 0.15l1.01 1.35c0.81 1.07 2.12 1.07 2.93 0l1.01-1.35c0.72-0.96 1.97-1.03 2.79-0.15 1.78 1.9 3.23 1.27 3.23-1.39v-11.25c0.01-4.03-0.93-5.04-4.71-5.04zm-0.12 12.53c-0.15 0.15-0.34 0.22-0.53 0.22s-0.38-0.07-0.53-0.22l-0.74-0.74c-0.58 0.38-1.28 0.61-2.03 0.61-2.04 0-3.7-1.66-3.7-3.7s1.65-3.7 3.7-3.7 3.7 1.66 3.7 3.7c0 0.75-0.23 1.45-0.61 2.03l0.74 0.74c0.29 0.29 0.29 0.77 0 1.06z"/>
</svg>
