<?xml version="1.0" encoding="UTF-8"?>
<svg width="24" height="24" viewBox="0 0 24 24" xmlns="http://www.w3.org/2000/svg">
 <path d="m7 2h-1c-3 0-4 1.79-4 4v15c0 0.83 0.94 1.3 1.6 0.8l1.71-1.28c0.4-0.3 0.96-0.26 1.32 0.1l1.66 1.67c0.39 0.39 1.03 0.39 1.42 0l1.68-1.68c0.35-0.35 0.91-0.39 1.3-0.09l1.71 1.28c0.66 0.49 1.6 0.02 1.6-0.8v-17c0-1.1 0.9-2 2-2h-11zm-1.03 12.01c-0.55 0-1-0.45-1-1s0.45-1 1-1 1 0.45 1 1-0.45 1-1 1zm0-4c-0.55 0-1-0.45-1-1s0.45-1 1-1 1 0.45 1 1-0.45 1-1 1zm6.03 3.75h-3c-0.41 0-0.75-0.34-0.75-0.75s0.34-0.75 0.75-0.75h3c0.41 0 0.75 0.34 0.75 0.75s-0.34 0.75-0.75 0.75zm0-4h-3c-0.41 0-0.75-0.34-0.75-0.75s0.34-0.75 0.75-0.75h3c0.41 0 0.75 0.34 0.75 0.75s-0.34 0.75-0.75 0.75z"/>
 <path d="m18.01 2v1.5c0.66 0 1.29 0.27 1.75 0.72 0.48 0.49 0.74 1.12 0.74 1.78v2.42c0 0.74-0.33 1.08-1.08 1.08h-1.92v-5.49c0-0.28 0.23-0.51 0.51-0.51v-1.5zm0 0c-1.11 0-2.01 0.9-2.01 2.01v6.99h3.42c1.58 0 2.58-1 2.58-2.58v-2.42c0-1.1-0.45-2.1-1.17-2.83-0.73-0.72-1.72-1.16-2.82-1.17 0.01 0 0 0 0 0z"/>
</svg>
