<?xml version="1.0" encoding="UTF-8"?>
<svg width="24" height="24" viewBox="0 0 24 24" xmlns="http://www.w3.org/2000/svg">
 <path d="m16.19 2h-8.38c-3.64 0-5.81 2.17-5.81 5.81v8.37c0 3.65 2.17 5.82 5.81 5.82h8.37c3.64 0 5.81-2.17 5.81-5.81v-8.38c0.01-3.64-2.16-5.81-5.8-5.81zm0.81 13.71c0 1.57-0.86 1.94-1.9 0.82-0.48-0.51-1.22-0.47-1.64 0.09l-0.59 0.79c-0.47 0.63-1.25 0.63-1.72 0l-0.6-0.8c-0.42-0.56-1.16-0.6-1.64-0.09-1.05 1.12-1.91 0.75-1.91-0.81v-6.63c0-2.37 0.56-2.96 2.78-2.96h4.44c2.22 0 2.78 0.59 2.78 2.96v6.63z"/>
</svg>
