<?xml version="1.0" encoding="UTF-8"?>
<svg width="24" height="24" viewBox="0 0 24 24" xmlns="http://www.w3.org/2000/svg">
 <path d="m4.71 18.19c0.1 0.04 0.19 0.06 0.29 0.06h10.27c0.41 0 0.75-0.34 0.75-0.75s-0.34-0.75-0.75-0.75h-8.46l12.72-12.72c0.29-0.29 0.29-0.77 0-1.06s-0.77-0.29-1.06 0l-12.72 12.72v-8.46c0-0.41-0.34-0.75-0.75-0.75s-0.75 0.34-0.75 0.75v10.27c0 0.1 0.02 0.19 0.06 0.29 0.07 0.18 0.22 0.33 0.4 0.4z"/>
 <path d="m20.5 21.25h-17c-0.41 0-0.75 0.34-0.75 0.75s0.34 0.75 0.75 0.75h17c0.41 0 0.75-0.34 0.75-0.75s-0.34-0.75-0.75-0.75z"/>
</svg>
