<?xml version="1.0" encoding="UTF-8"?>
<svg width="24" height="24" viewBox="0 0 24 24" xmlns="http://www.w3.org/2000/svg">
 <path d="m15.78 2h-7.56c-3.78 0-4.72 1.01-4.72 5.04v11.26c0 2.66 1.46 3.29 3.23 1.39l0.01-0.01c0.82-0.87 2.07-0.8 2.78 0.15l1.01 1.35c0.81 1.07 2.12 1.07 2.93 0l1.01-1.35c0.72-0.96 1.97-1.03 2.79-0.15 1.78 1.9 3.23 1.27 3.23-1.39v-11.25c0.01-4.03-0.93-5.04-4.71-5.04zm-0.94 7.99-0.5 0.51h-0.01l-3.03 3.03c-0.13 0.13-0.4 0.27-0.59 0.29l-1.35 0.2c-0.49 0.07-0.83-0.28-0.76-0.76l0.19-1.36c0.03-0.19 0.16-0.45 0.29-0.59l3.04-3.03 0.5-0.51c0.33-0.33 0.7-0.57 1.1-0.57 0.34 0 0.71 0.16 1.12 0.57 0.9 0.9 0.61 1.61 0 2.22z"/>
</svg>
