<?xml version="1.0" encoding="UTF-8"?>
<svg width="24" height="24" viewBox="0 0 24 24" xmlns="http://www.w3.org/2000/svg">
 <path d="m15 22.75c-0.27 0-0.52-0.15-0.65-0.38-0.13-0.24-0.13-0.52 0.01-0.76l1.05-1.75c0.21-0.36 0.68-0.47 1.03-0.26 0.36 0.21 0.47 0.67 0.26 1.03l-0.27 0.45c2.76-0.65 4.83-3.13 4.83-6.09 0-0.41 0.34-0.75 0.75-0.75s0.75 0.34 0.75 0.75c-0.01 4.28-3.49 7.76-7.76 7.76z"/>
 <path d="M2 9.75C1.59 9.75 1.25 9.41 1.25 9C1.25 4.73 4.73 1.25 9 1.25C9.27 1.25 9.52 1.4 9.65 1.63C9.78 1.87 9.78 2.15 9.64 2.39L8.59 4.14C8.38 4.49 7.92 4.61 7.56 4.39C7.21 4.18 7.09 3.72 7.31 3.36L7.58 2.91C4.81 3.56 2.75 6.04 2.75 9C2.75 9.41 2.41 9.75 2 9.75Z"/>
 <path d="m14.8 12.63v2.94c0 2.45-0.98 3.43-3.43 3.43h-2.94c-2.45 0-3.43-0.98-3.43-3.43v-2.94c0-2.45 0.98-3.43 3.43-3.43h2.94c2.45 0 3.43 0.98 3.43 3.43z"/>
 <path d="m15.57 5h-2.94c-2.41 0-3.39 0.96-3.42 3.32h2.16c2.94 0 4.3 1.37 4.3 4.3v2.16c2.37-0.03 3.32-1.01 3.32-3.42v-2.93c0.01-2.45-0.97-3.43-3.42-3.43z"/>
</svg>
