<?xml version="1.0" encoding="UTF-8"?>
<svg width="24" height="24" viewBox="0 0 24 24" xmlns="http://www.w3.org/2000/svg">
 <path d="m19.63 7.2399c0.3 0.47 0.14 1.1-0.34 1.39l-0.59 0.35-13.11 7.86c-0.48 0.29-1.11 0.13-1.39-0.36-1-1.74-1.45-3.86-1.06-6.08 0.66-3.77 3.76-6.77 7.55-7.31 3.75-0.53 7.14 1.27 8.94 4.15z"/>
 <path d="m20.89 13.43c-0.68 4.25-4.44 7.5-8.75 7.57-1.9 0.03-3.66-0.52-5.12-1.51-0.62-0.41-0.6-1.33 0.04-1.71l12.41-7.29c0.65-0.38 1.45 0.06 1.51 0.81 0.05 0.7 0.02 1.41-0.09 2.13z"/>
</svg>
