<?xml version="1.0" encoding="UTF-8"?>
<svg width="24" height="24" viewBox="0 0 24 24" xmlns="http://www.w3.org/2000/svg">
 <path d="m16.19 2h-8.38c-3.64 0-5.81 2.17-5.81 5.81v8.37c0 3.65 2.17 5.82 5.81 5.82h8.37c3.64 0 5.81-2.17 5.81-5.81v-8.38c0.01-3.64-2.16-5.81-5.8-5.81zm1.34 8.22-1.57 1.57c-0.15 0.15-0.34 0.22-0.53 0.22s-0.38-0.07-0.53-0.22c-0.29-0.29-0.29-0.77 0-1.06l0.26-0.26h-5.08c-1.28 0-2.33 1.04-2.33 2.33s1.04 2.33 2.33 2.33h4.92c0.41 0 0.75 0.34 0.75 0.75s-0.34 0.75-0.75 0.75h-4.92c-2.11 0-3.83-1.72-3.83-3.83s1.72-3.83 3.83-3.83h5.15l-0.33-0.32c-0.29-0.29-0.29-0.77 0-1.06s0.77-0.29 1.06 0l1.57 1.57c0.29 0.3 0.29 0.77 0 1.06z"/>
</svg>
