<?xml version="1.0" encoding="UTF-8"?>
<svg width="24" height="24" viewBox="0 0 24 24" xmlns="http://www.w3.org/2000/svg">
 <path d="m12 2c-5.52 0-10 4.48-10 10s4.48 10 10 10 10-4.48 10-10-4.48-10-10-10zm-5.4 9.23c0.17-1.19 0.7-2.26 1.53-3.1 2-1.99 5.15-2.1 7.29-0.36v-0.95c0-0.41 0.34-0.75 0.75-0.75s0.75 0.34 0.75 0.75v2.67c0 0.41-0.34 0.75-0.75 0.75h-2.67c-0.41 0-0.75-0.34-0.75-0.75s0.34-0.75 0.75-0.75h0.75c-1.55-1.08-3.69-0.93-5.07 0.45-0.6 0.6-0.98 1.38-1.11 2.25-0.05 0.37-0.37 0.64-0.74 0.64-0.04 0-0.07 0-0.11-0.01-0.39-0.05-0.68-0.43-0.62-0.84zm9.27 4.64c-1.07 1.07-2.47 1.6-3.87 1.6-1.22 0-2.43-0.43-3.43-1.24v0.94c0 0.41-0.34 0.75-0.75 0.75s-0.75-0.34-0.75-0.75v-2.67c0-0.41 0.34-0.75 0.75-0.75h2.67c0.41 0 0.75 0.34 0.75 0.75s-0.34 0.75-0.75 0.75h-0.75c1.55 1.08 3.69 0.93 5.07-0.45 0.6-0.6 0.98-1.38 1.11-2.25 0.06-0.41 0.43-0.7 0.85-0.64 0.41 0.06 0.69 0.44 0.64 0.85-0.18 1.21-0.71 2.28-1.54 3.11z"/>
</svg>
