<?xml version="1.0" encoding="UTF-8"?>
<svg width="24" height="24" viewBox="0 0 24 24" xmlns="http://www.w3.org/2000/svg">
 <path d="m16.19 2h-8.38c-3.64 0-5.81 2.17-5.81 5.81v8.37c0 3.65 2.17 5.82 5.81 5.82h8.37c3.64 0 5.81-2.17 5.81-5.81v-8.38c0.01-3.64-2.16-5.81-5.8-5.81zm-4.19 16.01c-3.17 0-5.75-2.58-5.75-5.75s2.58-5.75 5.75-5.75c0.14 0 0.29 0.02 0.43 0.03l-0.28-0.32c-0.27-0.31-0.24-0.79 0.07-1.06s0.79-0.24 1.06 0.07l1.67 1.91c0.01 0.01 0.01 0.02 0.02 0.03s0.02 0.01 0.02 0.02c0.02 0.03 0.03 0.07 0.05 0.11 0.02 0.05 0.05 0.09 0.06 0.14s0.01 0.09 0.02 0.14c0 0.05 0.01 0.09 0.01 0.14s-0.02 0.09-0.04 0.14-0.03 0.1-0.05 0.14-0.06 0.08-0.09 0.12c-0.03 0.03-0.04 0.07-0.07 0.09-0.01 0.01-0.02 0.01-0.03 0.02s-0.01 0.02-0.02 0.02l-1.94 1.42c-0.13 0.1-0.29 0.14-0.44 0.14-0.23 0-0.46-0.11-0.61-0.31-0.24-0.33-0.17-0.8 0.16-1.05l0.56-0.41c-0.19-0.01-0.37-0.03-0.56-0.03-2.34 0-4.25 1.91-4.25 4.25s1.91 4.25 4.25 4.25 4.25-1.91 4.25-4.25c0-0.85-0.25-1.66-0.71-2.36-0.23-0.34-0.14-0.81 0.21-1.04 0.34-0.23 0.81-0.14 1.04 0.21 0.63 0.95 0.97 2.05 0.97 3.19-0.01 3.18-2.59 5.75-5.76 5.75z"/>
</svg>
