<?xml version="1.0" encoding="UTF-8"?>
<svg width="24" height="24" viewBox="0 0 24 24" xmlns="http://www.w3.org/2000/svg">
 <path d="m16.19 2h-8.38c-3.64 0-5.81 2.17-5.81 5.81v8.37c0 3.65 2.17 5.82 5.81 5.82h8.37c3.64 0 5.81-2.17 5.81-5.81v-8.38c0.01-3.64-2.16-5.81-5.8-5.81zm-4.19 16.25c-1.79 0-3.19-0.89-4.14-1.77v0.71c0 0.41-0.34 0.75-0.75 0.75s-0.75-0.34-0.75-0.75v-2.75c0-0.41 0.34-0.75 0.75-0.75h2.48c0.41 0 0.75 0.34 0.75 0.75s-0.34 0.75-0.75 0.75h-0.9c0.74 0.74 1.89 1.56 3.31 1.56 2.62 0 4.75-2.13 4.75-4.75 0-0.41 0.34-0.75 0.75-0.75s0.75 0.34 0.75 0.75c0 3.45-2.8 6.25-6.25 6.25zm6.25-8.71v0.08c-0.01 0.11-0.04 0.21-0.09 0.3s-0.12 0.17-0.21 0.24c-0.07 0.05-0.15 0.09-0.24 0.12-0.07 0.02-0.14 0.03-0.21 0.03h-2.43c-0.41 0-0.75-0.34-0.75-0.75s0.34-0.75 0.75-0.75h0.83c-0.8-0.74-2.09-1.56-3.88-1.56-2.62 0-4.75 2.13-4.75 4.75 0 0.41-0.34 0.75-0.75 0.75s-0.77-0.34-0.77-0.75c0-3.45 2.8-6.25 6.25-6.25 2.15 0 3.73 0.93 4.75 1.82v-0.76c0-0.41 0.34-0.75 0.75-0.75s0.75 0.34 0.75 0.75v2.73z"/>
</svg>
