<?xml version="1.0" encoding="UTF-8"?>
<svg width="24" height="24" viewBox="0 0 24 24" xmlns="http://www.w3.org/2000/svg">
 <path d="m16.19 2h-8.38c-3.64 0-5.81 2.17-5.81 5.81v8.37c0 3.65 2.17 5.82 5.81 5.82h8.37c3.64 0 5.81-2.17 5.81-5.81v-8.38c0.01-3.64-2.16-5.81-5.8-5.81zm-4.19 16.01c-3.17 0-5.75-2.58-5.75-5.75 0-1.14 0.33-2.25 0.97-3.19 0.23-0.35 0.7-0.44 1.04-0.21s0.44 0.7 0.2 1.04c-0.46 0.7-0.71 1.52-0.71 2.36 0 2.34 1.91 4.25 4.25 4.25s4.25-1.91 4.25-4.25-1.91-4.25-4.25-4.25c-0.19 0-0.37 0.02-0.56 0.04l0.56 0.41c0.33 0.24 0.41 0.71 0.16 1.05-0.15 0.2-0.38 0.31-0.61 0.31-0.15 0-0.31-0.05-0.44-0.14l-1.94-1.43-0.02-0.02c-0.01-0.01-0.02-0.01-0.03-0.02-0.03-0.02-0.04-0.06-0.07-0.09-0.03-0.04-0.06-0.07-0.09-0.12-0.02-0.04-0.03-0.09-0.05-0.13-0.01-0.05-0.03-0.09-0.03-0.14s0-0.09 0.01-0.14c0-0.05 0-0.09 0.02-0.14 0-0.05 0.03-0.09 0.05-0.14 0.02-0.03 0.02-0.07 0.05-0.11 0.01 0 0.02-0.01 0.03-0.02s0.01-0.02 0.02-0.03l1.67-1.91c0.27-0.31 0.75-0.35 1.06-0.07 0.31 0.27 0.34 0.75 0.07 1.06l-0.28 0.32c0.14-0.01 0.28-0.03 0.43-0.03 3.17 0 5.75 2.58 5.75 5.75s-2.59 5.74-5.76 5.74z"/>
</svg>
