<?xml version="1.0" encoding="UTF-8"?>
<svg width="24" height="24" viewBox="0 0 24 24" xmlns="http://www.w3.org/2000/svg">
 <path d="m12 2c-5.52 0-10 4.48-10 10s4.48 10 10 10 10-4.48 10-10-4.48-10-10-10zm5.19 13.94c-0.04 0.09-0.09 0.17-0.16 0.24l-1.69 1.69c-0.15 0.15-0.34 0.22-0.53 0.22s-0.38-0.07-0.53-0.22c-0.29-0.29-0.29-0.77 0-1.06l0.41-0.41h-5.59c-1.3 0-2.35-1.06-2.35-2.35v-1.77c0-0.41 0.34-0.75 0.75-0.75s0.75 0.34 0.75 0.75v1.77c0 0.47 0.38 0.85 0.85 0.85h5.59l-0.41-0.41c-0.29-0.29-0.29-0.77 0-1.06s0.77-0.29 1.06 0l1.69 1.69c0.07 0.07 0.12 0.15 0.16 0.24 0.08 0.19 0.08 0.4 0 0.58zm0.06-4.22c0 0.41-0.34 0.75-0.75 0.75s-0.75-0.34-0.75-0.75v-1.77c0-0.47-0.38-0.85-0.85-0.85h-5.59l0.41 0.4c0.29 0.29 0.29 0.77 0 1.06-0.15 0.15-0.34 0.22-0.53 0.22s-0.38-0.07-0.53-0.22l-1.69-1.69c-0.07-0.07-0.12-0.15-0.16-0.24-0.08-0.18-0.08-0.39 0-0.57 0.04-0.09 0.09-0.18 0.16-0.25l1.69-1.69c0.29-0.29 0.77-0.29 1.06 0s0.29 0.77 0 1.06l-0.41 0.41h5.59c1.3 0 2.35 1.06 2.35 2.35v1.78z"/>
</svg>
