<?xml version="1.0" encoding="UTF-8"?>
<svg width="24" height="24" viewBox="0 0 24 24" xmlns="http://www.w3.org/2000/svg">
 <path d="m3.91 17.18c-0.19 0-0.38-0.07-0.53-0.22-1.37-1.38-2.13-3.2-2.13-5.13 0-4.01 3.25-7.27 7.25-7.27l6.07 0.02-1.09-1.04c-0.3-0.29-0.31-0.76-0.02-1.06s0.76-0.31 1.06-0.02l2.44 2.34c0.22 0.21 0.29 0.54 0.18 0.82s-0.39 0.47-0.7 0.47l-7.94-0.02c-3.17 0-5.75 2.59-5.75 5.77 0 1.53 0.6 2.98 1.69 4.07 0.29 0.29 0.29 0.77 0 1.06-0.15 0.14-0.34 0.21-0.53 0.21z"/>
 <path d="m9.9999 21.75c-0.19 0-0.37-0.07-0.52-0.21l-2.44-2.34c-0.22-0.21-0.29-0.54-0.18-0.82 0.12-0.28 0.4-0.43 0.7-0.47l7.95 0.02c3.17 0 5.75-2.59 5.75-5.77 0-1.53-0.6-2.98-1.69-4.07-0.29-0.29-0.29-0.77 0-1.06s0.77-0.29 1.06 0c1.37 1.38 2.13 3.2 2.13 5.13 0 4.01-3.25 7.27-7.25 7.27l-6.07-0.02 1.09 1.04c0.3 0.29 0.31 0.76 0.02 1.06-0.16 0.16-0.35 0.24-0.55 0.24z"/>
 <path d="m12.25 15.42c-0.41 0-0.75-0.34-0.75-0.75v-3.39l-0.19 0.21c-0.28 0.31-0.75 0.33-1.06 0.06s-0.33-0.75-0.06-1.06l1.5-1.67c0.21-0.23 0.54-0.31 0.83-0.2 0.29 0.12 0.48 0.39 0.48 0.71v5.35c0 0.41-0.34 0.74-0.75 0.74z"/>
</svg>
