<?xml version="1.0" encoding="UTF-8"?>
<svg width="24" height="24" viewBox="0 0 24 24" xmlns="http://www.w3.org/2000/svg">
 <path d="m21.97 18v1c0 1.65 0 3-3 3h-14c-3 0-3-1.35-3-3v-1c0-0.55 0.45-1 1-1h18c0.55 0 1 0.45 1 1z"/>
 <path d="m14.41 5.1798c0.05-0.2 0.08-0.39 0.09-0.6 0.03-1.16-0.68-2.18-1.8-2.48-1.68-0.46-3.2 0.8-3.2 2.4 0 0.24 0.03 0.46 0.09 0.68-3.61 0.77-6.32 3.98-6.32 7.82v1.5c0 0.55 0.45 1 1 1h15.45c0.55 0 1-0.45 1-1v-1.5c0-3.84-2.7-7.04-6.31-7.82zm0.59 6.57h-6c-0.41 0-0.75-0.34-0.75-0.75s0.34-0.75 0.75-0.75h6c0.41 0 0.75 0.34 0.75 0.75s-0.34 0.75-0.75 0.75z"/>
</svg>
