<?xml version="1.0" encoding="UTF-8"?>
<svg width="24" height="24" viewBox="0 0 24 24" xmlns="http://www.w3.org/2000/svg">
 <path d="m15 22.75c-0.27 0-0.52-0.15-0.65-0.38-0.13-0.24-0.13-0.52 0.01-0.76l1.05-1.75c0.21-0.35 0.67-0.47 1.03-0.26s0.47 0.67 0.26 1.03l-0.27 0.45c2.76-0.65 4.83-3.13 4.83-6.09 0-0.41 0.34-0.75 0.75-0.75s0.75 0.34 0.75 0.75c-0.01 4.28-3.49 7.76-7.76 7.76z"/>
 <path d="M2 9.75C1.59 9.75 1.25 9.41 1.25 9C1.25 4.73 4.73 1.25 9 1.25C9.27 1.25 9.52 1.4 9.65 1.63C9.78 1.87 9.78 2.15 9.64 2.39L8.59 4.14C8.38 4.49 7.92 4.61 7.56 4.39C7.21 4.18 7.09 3.72 7.31 3.36L7.58 2.91C4.81 3.56 2.75 6.04 2.75 9C2.75 9.41 2.41 9.75 2 9.75Z"/>
 <path d="m16.4 8.21-3.76-2.03c-0.4-0.21-0.87-0.21-1.27 0l-3.77 2.03c-0.27 0.15-0.44 0.44-0.44 0.76 0 0.33 0.17 0.62 0.44 0.77l3.76 2.03c0.2 0.11 0.42 0.16 0.64 0.16s0.44-0.05 0.64-0.16l3.76-2.03c0.27-0.15 0.44-0.44 0.44-0.77 0-0.32-0.17-0.61-0.44-0.76z"/>
 <path d="m10.74 12.47-3.5-1.75c-0.27-0.13-0.58-0.12-0.84 0.04-0.25 0.16-0.4 0.43-0.4 0.73v3.31c0 0.57 0.32 1.09 0.83 1.34l3.5 1.75c0.12 0.06 0.25 0.09 0.39 0.09 0.16 0 0.31-0.04 0.45-0.13 0.26-0.16 0.41-0.43 0.41-0.73v-3.31c-0.01-0.57-0.32-1.08-0.84-1.34z"/>
 <path d="m17.59 10.76c-0.26-0.16-0.57-0.17-0.84-0.04l-3.5 1.75c-0.51 0.26-0.83 0.77-0.83 1.34v3.31c0 0.3 0.15 0.57 0.41 0.73 0.14 0.09 0.29 0.13 0.45 0.13 0.13 0 0.26-0.03 0.39-0.09l3.5-1.75c0.51-0.26 0.83-0.77 0.83-1.34v-3.31c0-0.3-0.15-0.57-0.41-0.73z"/>
</svg>
