<?xml version="1.0" encoding="UTF-8"?>
<svg width="24" height="24" viewBox="0 0 24 24" xmlns="http://www.w3.org/2000/svg">
 <path d="M7.25 22H11.75C15.5 22 17 20.5 17 16.75V12.25C17 8.5 15.5 7 11.75 7H7.25C3.5 7 2 8.5 2 12.25V16.75C2 20.5 3.5 22 7.25 22Z"/>
 <path d="m21.25 10.5c-0.41 0-0.75-0.34-0.75-0.75 0-2.96-2.06-5.44-4.83-6.09l0.27 0.45c0.21 0.36 0.1 0.82-0.26 1.03s-0.82 0.1-1.03-0.26l-1.05-1.75c-0.14-0.23-0.14-0.52-0.01-0.75 0.14-0.23 0.39-0.38 0.66-0.38 4.27 0 7.75 3.48 7.75 7.75 0 0.41-0.34 0.75-0.75 0.75z"/>
</svg>
