<?xml version="1.0" encoding="UTF-8"?>
<svg width="24" height="24" viewBox="0 0 24 24" xmlns="http://www.w3.org/2000/svg">
 <path d="m8.88 4.6002c-0.8-3.46-6.01-3.47-6.81 0-0.47 2.03 0.82001 3.75 1.94 4.82 0.82 0.76998 2.11 0.76998 2.93 0 1.12-1.07 2.4-2.79 1.94-4.82zm-3.37 1.6c-0.55 0-1-0.45-1-1s0.44-1 0.99-1h0.01c0.56 0 1 0.45 1 1s-0.44 1-1 1z"/>
 <path d="m21.91 16.6c-0.8-3.46-6.03-3.47-6.84 0-0.47 2.03 0.82 3.75 1.95 4.82 0.82 0.77 2.12 0.77 2.94 0 1.13-1.07 2.42-2.79 1.95-4.82zm-3.38 1.6c-0.55 0-1-0.45-1-1s0.44-1 0.99-1h0.01c0.55 0 1 0.45 1 1s-0.45 1-1 1z"/>
 <path d="m12 19.75h-2.68c-1.16 0-2.17-0.7-2.57-1.78-0.41-1.08-0.11-2.27 0.76-3.04l7.99-6.99c0.48-0.42 0.49-0.99 0.35-1.38-0.15-0.39-0.53-0.81-1.17-0.81h-2.68c-0.41 0-0.75-0.34-0.75-0.75s0.34-0.75 0.75-0.75h2.68c1.16 0 2.17 0.7 2.57 1.78 0.41 1.08 0.11 2.27-0.76 3.04l-7.99 6.99c-0.48 0.42-0.49 0.99-0.35 1.38 0.15 0.39 0.53 0.81 1.17 0.81h2.68c0.41 0 0.75 0.34 0.75 0.75s-0.34 0.75-0.75 0.75z"/>
</svg>
