<?xml version="1.0" encoding="UTF-8"?>
<svg width="24" height="24" viewBox="0 0 24 24" xmlns="http://www.w3.org/2000/svg">
 <path d="m19 7c-0.14 0-0.25 0.11-0.25 0.25v4.75c0 0.41-0.34 0.75-0.75 0.75s-0.75-0.34-0.75-0.75v-4.75c0-0.14-0.11-0.25-0.25-0.25h-2c-0.14 0-0.25 0.11-0.25 0.25v2.35c0 0.41-0.34 0.75-0.75 0.75s-0.75-0.34-0.75-0.75v-2.35c0-0.14-0.11-0.25-0.25-0.25h-1.96c-0.14 0-0.25 0.11-0.25 0.25l-0.04 4.76c0 0.41-0.34 0.74-0.75 0.74h-0.01c-0.41 0-0.74-0.34-0.74-0.76l0.04-4.74c0-0.14-0.11-0.25-0.25-0.25h-2.04c-0.14 0-0.25 0.11-0.25 0.25v3.55c0 0.41-0.34 0.75-0.75 0.75s-0.75-0.34-0.75-0.75v-3.55c0-0.14-0.11-0.25-0.25-0.25-1.66 0-3 1.34-3 3v4c0 1.66 1.34 3 3 3h14c1.66 0 3-1.34 3-3v-4c0-1.66-1.34-3-3-3z"/>
</svg>
