<?xml version="1.0" encoding="UTF-8"?>
<svg width="24" height="24" viewBox="0 0 24 24" xmlns="http://www.w3.org/2000/svg">
 <path d="m18.47 2h-4c-1.4928 0-2.7268 1.2858-2.9603 2.752-0.0434 0.27271 0.1841 0.49796 0.4603 0.49796h4.5c0.41 0 0.75 0.34 0.75 0.75s-0.34 0.75-0.75 0.75h-4.5c-0.2762 0-0.5 0.22386-0.5 0.5v1.5c0 0.27614 0.2238 0.5 0.5 0.5h2.31c0.41 0 0.75 0.34 0.75 0.75s-0.34 0.75-0.75 0.75h-2.31c-0.2762 0-0.5 0.2239-0.5 0.5v1.455c0 0.2742 0.2208 0.4972 0.495 0.4999l4.505 0.0451c0.42 0 0.75 0.34 0.75 0.76-0.01 0.41-0.34 0.74-0.75 0.74h-0.01l-4.485-0.0449c-0.2781-0.0028-0.505 0.2218-0.505 0.4999v1.545c0 0.2761 0.2238 0.5 0.5 0.5h3.4c0.42 0 0.75 0.34 0.75 0.75s-0.33 0.75-0.75 0.75h-3.4c-0.2762 0-0.5037 0.2253-0.4603 0.498 0.2335 1.4662 1.4675 2.752 2.9603 2.752h4c1.65 0 3-1.34 3-3v-14c0-1.66-1.35-3-3-3z"/>
 <path d="m8.44 4.95v0.8c0 0.27614-0.22386 0.5-0.5 0.5h-4.91c-0.27614 0-0.5-0.22386-0.5-0.5v-0.8c0-1.62 1.33-2.95 2.96-2.95 1.62 0 2.95 1.33 2.95 2.95z"/>
 <path d="m2.53 17.91c0 0.45 0.19 1.14 0.43 1.52l0.81 1.36c0.95 1.58 2.49 1.58 3.43 0l0.82-1.36c0.23-0.38 0.42-1.07 0.42-1.52v-9.66c0-0.27614-0.22386-0.5-0.5-0.5h-4.91c-0.27614 0-0.5 0.22386-0.5 0.5v9.66z"/>
</svg>
