<?xml version="1.0" encoding="UTF-8"?>
<svg width="24" height="24" viewBox="0 0 24 24" xmlns="http://www.w3.org/2000/svg">
 <path d="m23 15.37v2.19c0 2.44-1.78 4.74-4.2 5.41-0.17 0.04-0.35 0.04-0.51 0-1.18-0.32-2.22-1.04-2.95-1.97-0.79-0.98-1.25-2.19-1.25-3.44v-2.19c0-0.42 0.31-0.88 0.69-1.04l2.78-1.14c0.63-0.25 1.33-0.25 1.96 0l1 0.41 1.79 0.73c0.38 0.16 0.69 0.62 0.69 1.04z"/>
 <path d="m20.95 11.01-0.18 1.07-0.7-0.28c-0.99-0.4-2.07-0.4-3.08 0l-2.79 1.15c-0.95 0.4-1.61 1.39-1.61 2.42v2.19c0 1.19 0.33 2.38 0.94 3.44h-7.35c-1.37 0-2.66-1.09-2.89-2.44l-1.26-7.55c-0.16-0.93 0.31-2.18 1.05-2.77l6.58-5.26c1.01-0.81 2.65-0.81 3.66 0.01l6.58 5.25c0.73 0.59 1.21 1.84 1.05 2.77z"/>
</svg>
