<?xml version="1.0" encoding="UTF-8"?>
<svg width="24" height="24" viewBox="0 0 24 24" xmlns="http://www.w3.org/2000/svg">
 <path d="m21.69 2.71c-0.08-0.18-0.22-0.33-0.41-0.41-0.09-0.03-0.18-0.05-0.28-0.05h-9c-0.41 0-0.75 0.34-0.75 0.75s0.34 0.75 0.75 0.75h7.19l-16.72 16.72c-0.29 0.29-0.29 0.77 0 1.06 0.15 0.15 0.34 0.22 0.53 0.22s0.38-0.07 0.53-0.22l16.72-16.72v7.19c0 0.41 0.34 0.75 0.75 0.75s0.75-0.34 0.75-0.75v-9c0-0.1-0.02-0.19-0.06-0.29z"/>
 <path d="m17.4 18.149c-0.19 0-0.38-0.07-0.53-0.22l-10.8-10.8c-0.29-0.29-0.29-0.77 0-1.06s0.77-0.29 1.06 0l10.8 10.8c0.29 0.29 0.29 0.77 0 1.06-0.15 0.15-0.34 0.22-0.53 0.22z"/>
</svg>
