<svg width="24" height="24" viewBox="0 0 24 24"  xmlns="http://www.w3.org/2000/svg">
<path d="M21.6899 2.71C21.6099 2.53 21.4699 2.38 21.2799 2.3C21.1899 2.27 21.0999 2.25 20.9999 2.25H11.9999C11.5899 2.25 11.2499 2.59 11.2499 3C11.2499 3.41 11.5899 3.75 11.9999 3.75H19.1899L2.46994 20.47C2.17994 20.76 2.17994 21.24 2.46994 21.53C2.61994 21.68 2.80994 21.75 2.99994 21.75C3.18994 21.75 3.37994 21.68 3.52994 21.53L20.2499 4.81V12C20.2499 12.41 20.5899 12.75 20.9999 12.75C21.4099 12.75 21.7499 12.41 21.7499 12V3C21.7499 2.9 21.7299 2.81 21.6899 2.71Z" />
<path d="M17.4 18.1491C17.21 18.1491 17.02 18.0791 16.87 17.9291L6.07004 7.12906C5.78004 6.83906 5.78004 6.35906 6.07004 6.06906C6.36004 5.77906 6.84004 5.77906 7.13004 6.06906L17.93 16.8691C18.22 17.1591 18.22 17.6391 17.93 17.9291C17.78 18.0791 17.59 18.1491 17.4 18.1491Z" />
</svg>
