<?xml version="1.0" encoding="UTF-8"?>
<svg width="24" height="24" viewBox="0 0 24 24" xmlns="http://www.w3.org/2000/svg">
 <path d="m22 5.11v11.36c0 1.45-1.04 2.06-2.31 1.36l-1.93-1.08c-0.16-0.09-0.26-0.26-0.26-0.44v-7.32c0-2.54-2.07-4.61-4.61-4.61h-4.07c-0.37 0-0.63-0.39-0.46-0.71 0.52-0.99 1.56-1.67 2.75-1.67h7.78c1.71 0 3.11 1.4 3.11 3.11z"/>
 <path d="m12.89 5.8799h-7.78c-1.71 0-3.11 1.4-3.11 3.11v11.36c0 1.45 1.04 2.06 2.31 1.36l3.93-2.19c0.42-0.23 1.1-0.23 1.52 0l3.93 2.19c1.27 0.7 2.31 0.09 2.31-1.36v-11.36c0-1.71-1.4-3.11-3.11-3.11zm-1.95 7c0.29 0.29 0.29 0.77 0 1.06-0.15 0.15-0.34 0.22-0.53 0.22s-0.38-0.07-0.53-0.22l-0.88-0.88-0.88 0.88c-0.15 0.15-0.34 0.22-0.53 0.22s-0.38-0.07-0.53-0.22c-0.29-0.29-0.29-0.77 0-1.06l0.88-0.88-0.88-0.88c-0.29-0.29-0.29-0.77 0-1.06 0.29-0.29002 0.77-0.29002 1.06 0l0.88 0.88 0.88-0.88c0.29-0.29002 0.77-0.29002 1.06 0 0.29 0.29 0.29 0.77 0 1.06l-0.88 0.88 0.88 0.88z"/>
</svg>
