<?xml version="1.0" encoding="UTF-8"?>
<svg width="24" height="24" viewBox="0 0 24 24" xmlns="http://www.w3.org/2000/svg">
 <path d="m12.89 5.8799h-7.78c-1.71 0-3.11 1.4-3.11 3.11v11.36c0 1.45 1.04 2.07 2.31 1.36l3.93-2.19c0.42-0.23 1.1-0.23 1.51 0l3.93 2.19c1.28 0.7 2.32 0.09 2.32-1.36v-11.36c0-1.71-1.4-3.11-3.11-3.11z"/>
 <path d="m22 5.11v11.36c0 1.45-1.04 2.06-2.31 1.36l-1.93-1.08c-0.16-0.09-0.26-0.26-0.26-0.44v-7.32c0-2.54-2.07-4.61-4.61-4.61h-4.07c-0.37 0-0.63-0.39-0.46-0.71 0.52-0.99 1.56-1.67 2.75-1.67h7.78c1.71 0 3.11 1.4 3.11 3.11z"/>
</svg>
