<?xml version="1.0" encoding="UTF-8"?>
<svg width="24" height="24" viewBox="0 0 24 24" xmlns="http://www.w3.org/2000/svg">
 <path d="M2.77 10C2.34 10 2 9.66 2 9.23V6.92C2 4.21 4.21 2 6.92 2H9.23C9.66 2 10 2.34 10 2.77C10 3.2 9.66 3.54 9.23 3.54H6.92C5.05 3.54 3.54 5.06 3.54 6.92V9.23C3.54 9.66 3.19 10 2.77 10Z"/>
 <path d="m21.23 10c-0.42 0-0.77-0.34-0.77-0.77v-2.31c0-1.87-1.52-3.38-3.38-3.38h-2.31c-0.43 0-0.77-0.35-0.77-0.77s0.34-0.77 0.77-0.77h2.31c2.71 0 4.92 2.21 4.92 4.92v2.31c0 0.43-0.34 0.77-0.77 0.77z"/>
 <path d="m17.08 22h-1.39c-0.42 0-0.77-0.34-0.77-0.77 0-0.42 0.34-0.77 0.77-0.77h1.39c1.87 0 3.38-1.52 3.38-3.38v-1.38c0-0.42 0.34-0.77 0.77-0.77 0.42 0 0.77 0.34 0.77 0.77v1.38c0 2.71-2.21 4.92-4.92 4.92z"/>
 <path d="m9.23 22h-2.31c-2.71 0-4.92-2.21-4.92-4.92v-2.31c0-0.43 0.34-0.77 0.77-0.77s0.77 0.34 0.77 0.77v2.31c0 1.87 1.52 3.38 3.38 3.38h2.31c0.42 0 0.77 0.34 0.77 0.77s-0.34 0.77-0.77 0.77z"/>
 <path d="m18.46 11.23h-12.92c-0.43 0-0.77 0.35-0.77 0.77s0.34 0.77 0.77 0.77h12.92c0.43 0 0.77-0.35 0.77-0.77s-0.34-0.77-0.77-0.77z"/>
 <path d="m6.8999 13.94v0.33c0 1.66 1.34 3 3 3h4.2c1.66 0 3-1.34 3-3v-0.33c0-0.12-0.09-0.21-0.21-0.21h-9.78c-0.12 0-0.21 0.09-0.21 0.21z"/>
 <path d="m6.8999 10.06v-0.33002c0-1.66 1.34-3 3-3h4.2c1.66 0 3 1.34 3 3v0.33002c0 0.12-0.09 0.21-0.21 0.21h-9.78c-0.12 0-0.21-0.09-0.21-0.21z"/>
</svg>
