<?xml version="1.0" encoding="UTF-8"?>
<svg width="24" height="24" viewBox="0 0 24 24" xmlns="http://www.w3.org/2000/svg">
 <path d="m16.19 2h-8.38c-3.64 0-5.81 2.17-5.81 5.81v8.37c0 3.65 2.17 5.82 5.81 5.82h8.37c3.64 0 5.81-2.17 5.81-5.81v-8.38c0.01-3.64-2.16-5.81-5.8-5.81zm1.57 12.68c0.33 0.25 0.4 0.72 0.15 1.05-0.15 0.2-0.37 0.3-0.6 0.3-0.16 0-0.31-0.05-0.45-0.15l-3.95-2.95-2.41 1.8c0.01 0.1 0.03 0.2 0.03 0.3 0 1.27-1.03 2.3-2.3 2.3s-2.3-1.03-2.3-2.3 1.03-2.3 2.3-2.3c0.62 0 1.17 0.25 1.58 0.64l1.84-1.38-1.83-1.37c-0.41 0.4-0.98 0.65-1.6 0.65-1.27 0-2.3-1.03-2.3-2.3s1.03-2.3 2.3-2.3 2.3 1.03 2.3 2.3c0 0.1-0.02 0.19-0.03 0.28l2.4 1.8 3.95-2.95c0.33-0.25 0.8-0.18 1.05 0.15s0.18 0.8-0.15 1.05l-3.6 2.69 3.62 2.69z"/>
</svg>
