<?xml version="1.0" encoding="UTF-8"?>
<svg width="24" height="24" viewBox="0 0 24 24" xmlns="http://www.w3.org/2000/svg">
 <path d="m16.19 2h-8.38c-3.64 0-5.81 2.17-5.81 5.81v8.37c0 3.65 2.17 5.82 5.81 5.82h8.37c3.64 0 5.81-2.17 5.81-5.81v-8.38c0.01-3.64-2.16-5.81-5.8-5.81zm-6.06 12.5c0.29 0.29 0.29 0.77 0 1.06-0.15 0.15-0.34 0.22-0.53 0.22s-0.38-0.07-0.53-0.22l-2.49-2.49c-0.59-0.59-0.59-1.54 0-2.13l2.49-2.49c0.29-0.29 0.77-0.29 1.06 0s0.29 0.77 0 1.06l-2.49 2.49 2.49 2.5zm7.29-1.44-2.49 2.49c-0.15 0.15-0.34 0.22-0.53 0.22s-0.38-0.07-0.53-0.22c-0.29-0.29-0.29-0.77 0-1.06l2.49-2.49-2.49-2.5c-0.29-0.29-0.29-0.77 0-1.06s0.77-0.29 1.06 0l2.49 2.49c0.59 0.59 0.59 1.55 0 2.13z"/>
</svg>
