<?xml version="1.0" encoding="UTF-8"?>
<svg width="24" height="24" viewBox="0 0 24 24" xmlns="http://www.w3.org/2000/svg">
 <path d="m21.3 22c-0.18 0-0.36-0.07-0.49-0.2l-1.86-1.86c-0.27-0.27-0.27-0.71 0-0.99 0.27-0.27 0.71-0.27 0.99 0l1.86 1.86c0.27 0.27 0.27 0.71 0 0.99-0.14 0.13-0.32 0.2-0.5 0.2z"/>
 <path d="m11.5 2c-5.24 0-9.5 4.26-9.5 9.5s4.26 9.5 9.5 9.5 9.5-4.26 9.5-9.5-4.26-9.5-9.5-9.5zm3.18 10.06c-0.56 1.78-2.51 2.75-3.18 2.75-0.69 0-2.6-0.93-3.18-2.75-0.38-1.19 0.05-2.74 1.41-3.17 0.62-0.2 1.28-0.08 1.77 0.29 0.48-0.37 1.15-0.49 1.78-0.29 1.35 0.44 1.78 1.99 1.4 3.17z"/>
</svg>
