<?xml version="1.0" encoding="UTF-8"?>
<svg width="24" height="24" viewBox="0 0 24 24" xmlns="http://www.w3.org/2000/svg">
 <path d="m11 1.9902c-4.97 0-9.01 4.04-9.01 9.01 0 4.97 4.04 9.01 9.01 9.01 4.97 0 9.01-4.04 9.01-9.01 0-4.97-4.04-9.01-9.01-9.01zm3.18 9.57c-0.56 1.78-2.51 2.75-3.18 2.75-0.69 0-2.6-0.93-3.18-2.75-0.38-1.19 0.05-2.74 1.41-3.17 0.62-0.19999 1.28-0.07999 1.77 0.29 0.48-0.36999 1.15-0.48999 1.78-0.29 1.35 0.44001 1.78 1.99 1.4 3.17z"/>
 <path d="m21.99 18.95c-0.33-0.61-1.03-0.95-1.97-0.95-0.71 0-1.32 0.29-1.68 0.79s-0.44 1.17-0.22 1.84c0.43 1.3 1.18 1.59 1.59 1.64 0.06 0.01 0.12 0.01 0.19 0.01 0.44 0 1.12-0.19 1.78-1.18 0.53-0.77 0.63-1.54 0.31-2.15z"/>
</svg>
