<?xml version="1.0" encoding="UTF-8"?>
<svg width="24" height="24" viewBox="0 0 24 24" xmlns="http://www.w3.org/2000/svg">
 <path d="m18.5 4.1098-4.99-1.87c-0.83-0.31-2.19-0.31-3.02 0l-4.99 1.87c-1.15 0.43-2.09 1.79-2.09 3.01v7.43c0 1.18 0.78 2.73 1.73 3.44l4.3 3.21c1.41 1.06 3.73 1.06 5.14 0l4.3-3.21c0.95-0.71 1.73-2.26 1.73-3.44v-7.43c-0.02-1.22-0.96-2.58-2.11-3.01zm-6.57 2.92c1.18 0 2.14 0.96 2.14 2.14 0 1.16-0.91 2.09-2.06 2.13h-0.04-0.06c-1.2-0.04-2.1-0.97-2.1-2.13-0.01-1.18 0.94999-2.14 2.12-2.14zm2.26 9.33c-0.61 0.4-1.4 0.61-2.19 0.61s-1.59-0.2-2.19-0.61c-0.57-0.38-0.88-0.9-0.89-1.47 0-0.56 0.32-1.1 0.89-1.48 1.21-0.8 3.18-0.8 4.39 0 0.57 0.38 0.89 0.9 0.89 1.47-0.01 0.56-0.33 1.1-0.9 1.48z"/>
</svg>
