<?xml version="1.0" encoding="UTF-8"?>
<svg width="24" height="24" viewBox="0 0 24 24" xmlns="http://www.w3.org/2000/svg">
 <path d="m13.49 13.38h-2.49c-0.3 0-0.54 0.24-0.54 0.54s0.24 0.54 0.54 0.54h2.49c0.3 0 0.54-0.24 0.54-0.54s-0.24-0.54-0.54-0.54z"/>
 <path d="m9.4399 13.38h-1.25c-0.3 0-0.54 0.24-0.54 0.54s0.24 0.54 0.54 0.54h1.25c0.3 0 0.54-0.24 0.54-0.54s-0.24-0.54-0.54-0.54z"/>
 <path d="m18.54 4.22-5.5-2.06c-0.57-0.21-1.5-0.21-2.07 0l-5.5 2.06c-1.06 0.4-1.92 1.64-1.92 2.77v8.1c0 0.81 0.53 1.88 1.18 2.36l5.5 4.11c0.97 0.73 2.56 0.73 3.53 0l5.5-4.11c0.65-0.49 1.1801-1.55 1.1801-2.36v-8.1c0.01-1.13-0.8501-2.37-1.9001-2.77zm-0.37 9.43c-0.02 2.07-0.59 2.59-2.74 2.59h-6.85c-2.19 0-2.74-0.54-2.74-2.71v-2.33c0-0.28 0.22-0.5 0.5-0.5h11.33c0.28 0 0.5 0.22 0.5 0.5v2.45zm0-4.54c0 0.28-0.22 0.5-0.5 0.5h-11.33c-0.28 0-0.5-0.22-0.5-0.5v-0.64c0-1.96 0.46-2.59 2.17-2.7 0.18 0 0.37-0.01 0.57-0.01h6.85c2.19 0 2.74 0.54 2.74 2.71v0.64z"/>
</svg>
