<?xml version="1.0" encoding="UTF-8"?>
<svg width="24" height="24" viewBox="0 0 24 24" xmlns="http://www.w3.org/2000/svg">
 <path d="m12 8.25c-1.79 0-3.25 1.46-3.25 3.25s1.46 3.25 3.25 3.25 3.25-1.46 3.25-3.25-1.46-3.25-3.25-3.25zm1 2.93c0 0.61-0.33 1.19-0.85 1.5l-0.77 0.46c-0.12 0.07-0.25 0.11-0.39 0.11-0.25 0-0.5-0.13-0.64-0.36-0.21-0.36-0.1-0.82 0.26-1.03l0.76-0.46c0.08-0.05 0.12-0.13 0.12-0.21v-0.93c0-0.41 0.34-0.75 0.75-0.75s0.76 0.33 0.76 0.74v0.93z"/>
 <path d="m18.54 4.1696-5.5-2.06c-0.57-0.21-1.5-0.21-2.07 0l-5.5 2.06c-1.06 0.4-1.92 1.64-1.92 2.77v8.1c0 0.81 0.53 1.88 1.18 2.36l5.5 4.11c0.97 0.73 2.56 0.73 3.53 0l5.5-4.11c0.65-0.49 1.1801-1.55 1.1801-2.36v-8.1c0.01-1.13-0.8501-2.37-1.9001-2.77zm-6.54 12.08c-2.62 0-4.75-2.13-4.75-4.75 0-2.62 2.13-4.75 4.75-4.75 2.62 0 4.75 2.13 4.75 4.75 0 2.62-2.13 4.75-4.75 4.75z"/>
</svg>
