<?xml version="1.0" encoding="UTF-8"?>
<svg width="24" height="24" viewBox="0 0 24 24" xmlns="http://www.w3.org/2000/svg">
 <path d="m20.91 11.12v-4.39c0-0.82-0.62-1.75-1.39-2.06l-5.57-2.28c-1.25-0.51-2.66-0.51-3.91 0l-5.57 2.28c-0.76 0.31-1.38 1.24-1.38 2.06v4.39c0 4.89 3.55 9.47 8.4 10.81 0.33 0.09 0.69 0.09 1.02 0 4.85-1.34 8.4-5.92 8.4-10.81zm-8.16 1.75v2.63c0 0.41-0.34 0.75-0.75 0.75s-0.75-0.34-0.75-0.75v-2.63c-1.01-0.32-1.75-1.26-1.75-2.37 0-1.38 1.12-2.5 2.5-2.5s2.5 1.12 2.5 2.5c0 1.12-0.74 2.05-1.75 2.37z"/>
</svg>
