<?xml version="1.0" encoding="UTF-8"?>
<svg width="24" height="24" viewBox="0 0 24 24" xmlns="http://www.w3.org/2000/svg">
 <path d="m20.5 21.25h-17c-0.41 0-0.75 0.34-0.75 0.75s0.34 0.75 0.75 0.75h17c0.41 0 0.75-0.34 0.75-0.75s-0.34-0.75-0.75-0.75z"/>
 <path d="m5 14.52c0.41 0 0.75-0.34 0.75-0.75v-8.46l12.72 12.72c0.15 0.15 0.34 0.22 0.53 0.22s0.38-0.07 0.53-0.22c0.29-0.29 0.29-0.77 0-1.06l-12.72-12.72h8.46c0.41 0 0.75-0.34 0.75-0.75s-0.34-0.75-0.75-0.75h-10.27c-0.1 0-0.19 0.02-0.29 0.06-0.18 0.07-0.33 0.22-0.4 0.4-0.04 0.1-0.06 0.19-0.06 0.29v10.27c0 0.41 0.34 0.75 0.75 0.75z"/>
</svg>
