<?xml version="1.0" encoding="UTF-8"?>
<svg width="24" height="24" viewBox="0 0 24 24" xmlns="http://www.w3.org/2000/svg">
 <path d="m21.3 7.5797h-5.58c-0.39 0-0.7-0.31-0.7-0.7s0.31-0.7 0.7-0.7h5.58c0.39 0 0.7 0.31 0.7 0.7s-0.31 0.7-0.7 0.7z"/>
 <path d="m6.42 7.5797h-3.72c-0.39 0-0.7-0.31-0.7-0.7s0.31-0.7 0.7-0.7h3.72c0.39 0 0.7 0.31 0.7 0.7s-0.32 0.7-0.7 0.7z"/>
 <path d="m10.14 10.83c2.1816 0 3.95-1.7685 3.95-3.95 0-2.1815-1.7684-3.95-3.95-3.95-2.1815 0-3.95 1.7685-3.95 3.95 0 2.1815 1.7685 3.95 3.95 3.95z"/>
 <path d="m21.3 17.81h-3.72c-0.39 0-0.7-0.31-0.7-0.7s0.31-0.7 0.7-0.7h3.72c0.39 0 0.7 0.31 0.7 0.7s-0.31 0.7-0.7 0.7z"/>
 <path d="m8.28 17.81h-5.58c-0.39 0-0.7-0.31-0.7-0.7s0.31-0.7 0.7-0.7h5.58c0.39 0 0.7 0.31 0.7 0.7s-0.32 0.7-0.7 0.7z"/>
 <path d="m13.86 21.07c2.1815 0 3.95-1.7685 3.95-3.95s-1.7685-3.95-3.95-3.95-3.95 1.7685-3.95 3.95 1.7685 3.95 3.95 3.95z"/>
</svg>
