<?xml version="1.0" encoding="UTF-8"?>
<svg width="24" height="24" viewBox="0 0 24 24" xmlns="http://www.w3.org/2000/svg">
 <path d="m18.51 8.2498c0.5 0 0.9-0.4 0.9-0.9v-4.65c0-0.5-0.4-0.9-0.9-0.9s-0.9 0.4-0.9 0.9v4.65c0 0.49 0.41 0.9 0.9 0.9z"/>
 <path d="m12 15.75c-0.5 0-0.9 0.4-0.9 0.9v4.65c0 0.5 0.4 0.9 0.9 0.9s0.9-0.4 0.9-0.9v-4.65c0-0.49-0.4-0.9-0.9-0.9z"/>
 <path d="m5.4901 8.2498c0.5 0 0.9-0.4 0.9-0.9v-4.65c0-0.5-0.4-0.9-0.9-0.9s-0.9 0.4-0.9 0.9v4.65c0 0.49 0.4 0.9 0.9 0.9z"/>
 <path d="m7.35 10.17h-3.72c-0.5 0-0.9 0.4-0.9 0.9s0.4 0.9 0.9 0.9h0.96v9.33c0 0.5 0.4 0.9 0.9 0.9s0.9-0.4 0.9-0.9v-9.33h0.96c0.5 0 0.9-0.4 0.9-0.9s-0.41-0.9-0.9-0.9z"/>
 <path d="m20.37 10.17h-3.72c-0.5 0-0.9 0.4-0.9 0.9s0.4 0.9 0.9 0.9h0.96v9.33c0 0.5 0.4 0.9 0.9 0.9s0.9-0.4 0.9-0.9v-9.33h0.96c0.5 0 0.9-0.4 0.9-0.9s-0.4-0.9-0.9-0.9z"/>
 <path d="m13.86 12.03h-0.96v-9.33c0-0.5-0.4-0.9-0.9-0.9s-0.9 0.4-0.9 0.9v9.33h-0.96c-0.50001 0-0.90001 0.4-0.90001 0.9s0.4 0.9 0.90001 0.9h3.72c0.5 0 0.9-0.4 0.9-0.9s-0.4-0.9-0.9-0.9z"/>
</svg>
