<?xml version="1.0" encoding="UTF-8"?>
<svg width="24" height="24" viewBox="0 0 24 24" xmlns="http://www.w3.org/2000/svg">
 <path d="m16.19 2h-8.38c-3.64 0-5.81 2.17-5.81 5.81v8.37c0 3.65 2.17 5.82 5.81 5.82h8.37c3.64 0 5.81-2.17 5.81-5.81v-8.38c0.01-3.64-2.16-5.81-5.8-5.81zm-8.52 3.5c0-0.41 0.34-0.75 0.75-0.75s0.75 0.34 0.75 0.75v3.9c0 0.41-0.34 0.75-0.75 0.75s-0.75-0.34-0.75-0.75v-3.9zm1.8528 10.931c-0.20344 0.0903-0.35282 0.2819-0.35282 0.5045v1.5642c0 0.41-0.34 0.75-0.75 0.75s-0.75-0.34-0.75-0.75v-1.5642c0-0.2226-0.1494-0.4142-0.35277-0.5047-0.95448-0.4247-1.6172-1.3731-1.6172-2.4811 0-1.5 1.22-2.73 2.72-2.73s2.73 1.22 2.73 2.73c0 1.1082-0.6709 2.0566-1.6272 2.4813zm6.8072 2.0687c0 0.41-0.34 0.75-0.75 0.75s-0.75-0.34-0.75-0.75v-3.9c0-0.41 0.34-0.75 0.75-0.75s0.75 0.34 0.75 0.75v3.9zm-0.75-5.73c-1.5 0-2.73-1.22-2.73-2.73 0-1.1082 0.6709-2.0566 1.6272-2.4813 0.2034-0.09034 0.3528-0.28192 0.3528-0.50452v-1.5542c0-0.41 0.34-0.75 0.75-0.75s0.75 0.34 0.75 0.75v1.5642c0 0.2226 0.1494 0.41414 0.3528 0.50464 0.9544 0.42475 1.6172 1.3731 1.6172 2.4812 0 1.5-1.22 2.72-2.72 2.72z"/>
</svg>
