<?xml version="1.0" encoding="UTF-8"?>
<svg width="24" height="24" viewBox="0 0 24 24" xmlns="http://www.w3.org/2000/svg">
 <path d="m12 16.5c2.4853 0 4.5-2.0147 4.5-4.5 0-2.4853-2.0147-4.5-4.5-4.5-2.4853 0-4.5 2.0147-4.5 4.5 0 2.4853 2.0147 4.5 4.5 4.5z"/>
 <path d="m10 12.75h-8c-0.41 0-0.75-0.34-0.75-0.75s0.34-0.75 0.75-0.75h8c0.41 0 0.75 0.34 0.75 0.75s-0.34 0.75-0.75 0.75z"/>
 <path d="m22 12.75h-8c-0.41 0-0.75-0.34-0.75-0.75s0.34-0.75 0.75-0.75h8c0.41 0 0.75 0.34 0.75 0.75s-0.34 0.75-0.75 0.75z"/>
</svg>
