<?xml version="1.0" encoding="UTF-8"?>
<svg width="24" height="24" viewBox="0 0 24 24" xmlns="http://www.w3.org/2000/svg">
 <path d="m13.43 15h-9.03c-1.82 0-2.98-1.95-2.1-3.55l2.33-4.24 2.18-3.97c0.91-1.65 3.29-1.65 4.2 0l2.19 3.97 1.05 1.91 1.28 2.33c0.88 1.6-0.28 3.55-2.1 3.55z"/>
 <path d="m22.65 16c0 3.59-2.91 6.5-6.5 6.5-3.05 0-5.6-2.09-6.31-4.93-0.07-0.3 0.15998-0.57 0.46998-0.57h3.77c1.39 0 2.65-0.72 3.36-1.91 0.7-1.2 0.73-2.64 0.05-3.86l-0.5-0.92c-0.19-0.34005 0.08-0.75005 0.46-0.68005 2.96 0.60005 5.2 3.22 5.2 6.37z"/>
</svg>
