<?xml version="1.0" encoding="UTF-8"?>
<svg width="24" height="24" viewBox="0 0 24 24" xmlns="http://www.w3.org/2000/svg">
 <path d="m11.75 7h-4.75c-2.76 0-5 2.24-5 5v5c0 2.76 2.24 5 5 5h5c2.76 0 5-2.24 5-5v-4.75c0-2.9-2.35-5.25-5.25-5.25z"/>
 <path d="m21.88 6.3298c0.5246 2.5596-0.7178 4.882-2.7209 5.9757-0.3076 0.168-0.6591-0.0717-0.6591-0.4221v-0.1336c0-3.44-2.81-6.25-6.25-6.25h-0.1335c-0.3505 0-0.5901-0.35154-0.4222-0.65914 1.0937-2.0031 3.4161-3.2454 5.9757-2.7209 2.09 0.43 3.78 2.12 4.21 4.21z"/>
</svg>
