<?xml version="1.0" encoding="UTF-8"?>
<svg width="24" height="24" viewBox="0 0 24 24" xmlns="http://www.w3.org/2000/svg">
 <path d="m20.36 12.73c-0.37 0-0.68-0.28-0.72-0.65-0.24-2.2-1.42-4.18-3.24-5.44-0.33-0.23-0.41-0.68-0.18-1.01s0.68-0.41 1.01-0.18c2.17 1.51 3.57 3.87 3.86 6.48 0.04 0.4-0.25 0.76-0.65 0.8h-0.08z"/>
 <path d="m3.74 12.78h-0.07c-0.4-0.04-0.69-0.4-0.65-0.8 0.27-2.61 1.65-4.97 3.8-6.49 0.32-0.23 0.78-0.15 1.01 0.17 0.23 0.33 0.15 0.78-0.17 1.01-1.8 1.28-2.97 3.26-3.19 5.45-0.04 0.38-0.36 0.66-0.73 0.66z"/>
 <path d="m15.99 21.1c-1.23 0.59-2.55 0.89-3.93 0.89-1.44 0-2.81-0.32-4.09-0.97-0.36-0.17-0.5-0.61-0.32-0.97 0.17-0.36 0.61-0.5 0.97-0.33 0.63 0.32 1.3 0.54 1.98 0.67 0.92 0.18 1.86 0.19 2.78 0.03 0.68-0.12 1.35-0.33 1.97-0.63 0.37-0.17 0.81-0.03 0.97 0.34 0.18 0.36 0.04 0.8-0.33 0.97z"/>
 <path d="m12.05 2.0098c-1.55 0-2.82 1.26-2.82 2.82s1.26 2.82 2.82 2.82 2.82-1.26 2.82-2.82-1.26-2.82-2.82-2.82z"/>
 <path d="m5.05 13.87c-1.55 0-2.82 1.26-2.82 2.82s1.26 2.82 2.82 2.82 2.82-1.26 2.82-2.82-1.27-2.82-2.82-2.82z"/>
 <path d="m18.95 13.87c-1.55 0-2.82 1.26-2.82 2.82s1.26 2.82 2.82 2.82 2.82-1.26 2.82-2.82-1.26-2.82-2.82-2.82z"/>
</svg>
