<?xml version="1.0" encoding="UTF-8"?>
<svg width="24" height="24" viewBox="0 0 24 24" xmlns="http://www.w3.org/2000/svg">
 <path d="m18.54 4.1198-5.5-2.06c-0.57-0.21-1.5-0.21-2.07 0l-5.5 2.06c-1.06 0.4-1.92 1.64-1.92 2.77v8.1c0 0.81 0.53 1.88 1.18 2.36l5.5 4.11c0.97 0.73 2.56 0.73 3.53 0l5.5-4.11c0.65-0.49 1.1801-1.55 1.1801-2.36v-8.1c0.01-1.13-0.8501-2.37-1.9001-2.77zm-3.86 9.85c-0.15 0.15-0.34 0.22-0.53 0.22s-0.38-0.07-0.53-0.22l-1.59-1.59-1.64 1.64c-0.15 0.15-0.34 0.22-0.52995 0.22-0.19 0-0.38-0.07-0.53-0.22-0.29-0.29-0.29-0.77 0-1.06l1.64-1.64-1.6-1.6c-0.29-0.29-0.29-0.77 0-1.06s0.76995-0.29 1.06 0l1.59 1.59 1.55-1.55c0.29-0.29 0.77-0.29 1.06 0s0.29 0.77 0 1.06l-1.55 1.55 1.59 1.59c0.3 0.3 0.3 0.77 0.01 1.07z"/>
</svg>
