<?xml version="1.0" encoding="UTF-8"?>
<svg width="24" height="24" viewBox="0 0 24 24" xmlns="http://www.w3.org/2000/svg">
 <path d="m21.63 14.66-0.41 1.86c-0.71 3.2-3.22 5.48-6.84 5.48h-4.76c-3.62 0-6.13-2.28-6.84-5.48l-0.41-1.86c-0.2-0.91 0.34-1.94 1.21-2.29l1.42-0.57 5.51-2.21c0.48-0.19 0.99-0.29 1.49-0.29s1.01 0.1 1.49 0.29l5.51 2.21 1.42 0.57c0.87 0.35 1.41 1.38 1.21 2.29z"/>
 <path d="M19 8V9.44C19 9.79 18.64 10.04 18.31 9.9L14.04 8.19C12.73 7.68 11.27 7.68 9.95 8.2L5.69 9.91C5.36 10.05 5 9.8 5 9.45V8C5 6.35 6.35 5 8 5H16C17.65 5 19 6.35 19 8Z"/>
 <path d="m14.5 5h-5v-2c0-0.55 0.45-1 1-1h3c0.55 0 1 0.45 1 1v2z"/>
</svg>
