<?xml version="1.0" encoding="UTF-8"?>
<svg width="24" height="24" viewBox="0 0 24 24" xmlns="http://www.w3.org/2000/svg">
 <path d="m22.36 8.27-0.29-2.77c-0.42-3.02-1.79-4.25-4.72-4.25h-10.76c-2.94 0-4.3 1.23-4.73 4.28l-0.27 2.75c-0.1 1.07 0.19 2.11 0.82 2.92 0.76 0.99 1.93 1.55 3.23 1.55 1.26 0 2.47-0.63 3.23-1.64 0.68 1.01 1.84 1.64 3.13 1.64s2.42-0.6 3.11-1.6c0.77 0.99 1.96 1.6 3.2 1.6 1.33 0 2.53-0.59 3.28-1.63 0.6-0.8 0.87-1.81 0.77-2.85z"/>
 <path d="m11.35 16.66c-1.27 0.13-2.23 1.21-2.23 2.49v2.74c0 0.27 0.22 0.49 0.49 0.49h4.77c0.27 0 0.49-0.22 0.49-0.49v-2.39c0.01-2.09-1.22-3.08-3.52-2.84z"/>
 <path d="m21.37 14.4v2.98c0 2.76-2.24 5-5 5-0.27 0-0.49-0.22-0.49-0.49v-2.39c0-1.28-0.39-2.28-1.15-2.96-0.67-0.61-1.58-0.91-2.71-0.91-0.25 0-0.5 0.01-0.77 0.04-1.78 0.18-3.13 1.68-3.13 3.48v2.74c0 0.27-0.22 0.49-0.49 0.49-2.76 0-5-2.24-5-5v-2.96c0-0.7 0.69-1.17 1.34-0.94 0.27 0.09 0.54 0.16 0.82 0.2 0.12 0.02 0.25 0.04 0.37 0.04 0.16 0.02 0.32 0.03 0.48 0.03 1.16 0 2.3-0.43 3.2-1.17 0.86 0.74 1.98 1.17 3.16 1.17 1.19 0 2.29-0.41 3.15-1.15 0.9 0.73 2.02 1.15 3.16 1.15 0.18 0 0.36-0.01 0.53-0.03 0.12-0.01 0.23-0.02 0.34-0.04 0.31-0.04 0.59-0.13 0.87-0.22 0.65-0.22 1.32 0.26 1.32 0.94z"/>
</svg>
