<?xml version="1.0" encoding="UTF-8"?>
<svg width="24" height="24" viewBox="0 0 24 24" xmlns="http://www.w3.org/2000/svg">
 <path d="m16.25 22.5c0.9665 0 1.75-0.7835 1.75-1.75s-0.7835-1.75-1.75-1.75-1.75 0.7835-1.75 1.75 0.7835 1.75 1.75 1.75z"/>
 <path d="m8.25 22.5c0.9665 0 1.75-0.7835 1.75-1.75s-0.7835-1.75-1.75-1.75-1.75 0.7835-1.75 1.75 0.7835 1.75 1.75 1.75z"/>
 <path d="m4.84 3.94-0.2 2.45c-0.04 0.47 0.33 0.86 0.8 0.86h15.31c0.42 0 0.77-0.32 0.8-0.74 0.13-1.77-1.22-3.21-2.99-3.21h-12.29c-0.1-0.44-0.3-0.86-0.61-1.21-0.5-0.53-1.2-0.84-1.92-0.84h-1.74c-0.41 0-0.75 0.34-0.75 0.75s0.34 0.75 0.75 0.75h1.74c0.31 0 0.6 0.13 0.81 0.35 0.21 0.23 0.31 0.53 0.29 0.84z"/>
 <path d="m20.51 8.75h-15.34c-0.42 0-0.76 0.32-0.8 0.73l-0.36 4.35c-0.14 1.71 1.2 3.17 2.91 3.17h11.12c1.5 0 2.82-1.23 2.93-2.73l0.33-4.67c0.04-0.46-0.32-0.85-0.79-0.85z"/>
</svg>
