<?xml version="1.0" encoding="UTF-8"?>
<svg width="24" height="24" viewBox="0 0 24 24" xmlns="http://www.w3.org/2000/svg">
 <path d="m16 8.75c-0.41 0-0.75-0.34-0.75-0.75v-3.5c0-1.08-0.67-1.75-1.75-1.75h-3c-1.08 0-1.75 0.67-1.75 1.75v3.5c0 0.41-0.34 0.75-0.75 0.75s-0.75-0.34-0.75-0.75v-3.5c0-1.91 1.34-3.25 3.25-3.25h3c1.91 0 3.25 1.34 3.25 3.25v3.5c0 0.41-0.34 0.75-0.75 0.75z"/>
 <path d="m8.0001 17.78c-0.41 0-0.75-0.34-0.75-0.75 0-0.42 0.34-0.75 0.75-0.75h11.76c0.3 0 0.53-0.26 0.5-0.56l-0.68-5.69c-0.24-1.94-0.58-3.53-3.98-3.53h-7.2c-3.4 0-3.74 1.59-3.97 3.53l-0.9 7.5c-0.29 2.46 0.47 4.47 3.98 4.47h8.98c3.16 0 4.09-1.63 4.04-3.75-0.01-0.27-0.23-0.47-0.5-0.47h-12.03z"/>
</svg>
