<?xml version="1.0" encoding="UTF-8"?>
<svg width="24" height="24" viewBox="0 0 24 24" xmlns="http://www.w3.org/2000/svg">
 <path d="m7.8 22.15c-2.65 0-4.81-2.15-4.81-4.81v-2.84c0-0.67 0.66-1.12 1.29-0.9 0.26 0.09 0.52 0.15 0.79 0.19 0.12 0.02 0.24 0.04 0.36 0.04 0.15 0.02 0.31 0.03 0.46 0.03 1.11 0 2.21-0.41 3.08-1.12 0.83 0.71 1.9 1.12 3.04 1.12s2.2-0.39 3.03-1.11c0.86 0.7 1.94 1.11 3.04 1.11 0.17 0 0.35-0.01 0.51-0.03 0.12-0.01 0.22-0.02 0.33-0.04 0.3-0.04 0.57-0.12 0.84-0.21 0.62-0.21 1.27 0.25 1.27 0.9v2.86c0 2.65-2.15 4.81-4.81 4.81h-8.42z"/>
 <path d="m21.98 8.5896-0.28-2.66c-0.4-2.9-1.72-4.08-4.54-4.08h-10.34c-2.82 0-4.13 1.18-4.54 4.11l-0.26 2.64c-0.1 1.03 0.18 2.03 0.79 2.81 0.73 0.95 1.85 1.49 3.1 1.49 1.21 0 2.37-0.61 3.1-1.58 0.65 0.97 1.77 1.58 3.01 1.58s2.33-0.58 2.99-1.54c0.74 0.95 1.88 1.54 3.08 1.54 1.28 0 2.43-0.57 3.15-1.57 0.58-0.77 0.84-1.74 0.74-2.74zm-8.48-0.86h-0.75v0.78c0 0.42-0.34 0.75-0.75 0.75s-0.75-0.33-0.75-0.75v-0.78h-0.75c-0.41 0-0.75-0.33-0.75-0.75 0-0.41 0.34-0.75 0.75-0.75h0.75v-0.71c0-0.41 0.34-0.75 0.75-0.75s0.75 0.34 0.75 0.75v0.71h0.75c0.41 0 0.75 0.34 0.75 0.75 0 0.42-0.34 0.75-0.75 0.75z"/>
</svg>
