<svg width="24" height="24" viewBox="0 0 24 24"  xmlns="http://www.w3.org/2000/svg">
<path d="M20.95 4.13C20.66 3.71 20.29 3.34 19.87 3.05C18.92 2.36 17.68 2 16.19 2H7.81003C4.37003 2 2.24003 3.94 2.03003 7.22H21.98C21.9 5.99 21.55 4.95 20.95 4.13Z" />
<path d="M2 16.1897C2 17.6797 2.36 18.9197 3.05 19.8697C3.34 20.2897 3.71 20.6597 4.13 20.9497C5.08 21.6397 6.32 21.9997 7.81 21.9997H16.19C19.83 21.9997 22 19.8297 22 16.1897V8.71973H2V16.1897ZM8.91 14.4397L11.47 11.8797C11.76 11.5897 12.24 11.5897 12.53 11.8797L15.09 14.4397C15.24 14.5897 15.31 14.7797 15.31 14.9697C15.31 15.1597 15.24 15.3497 15.09 15.4997C14.8 15.7897 14.32 15.7897 14.03 15.4997L12 13.4797L9.97 15.4997C9.68 15.7897 9.2 15.7897 8.91 15.4997C8.62 15.2097 8.62 14.7397 8.91 14.4397Z" />
</svg>
