<?xml version="1.0" encoding="UTF-8"?>
<svg width="24" height="24" viewBox="0 0 24 24" xmlns="http://www.w3.org/2000/svg">
 <path d="m3.05 19.87c0.29 0.42 0.66 0.79 1.08 1.08 0.95 0.69 2.19 1.05 3.68 1.05h8.38c3.44 0 5.57-1.94 5.78-5.22h-19.95c0.08 1.23 0.43 2.27 1.03 3.09z"/>
 <path d="m20.95 4.13c-0.29-0.42-0.66-0.79-1.08-1.08-0.95-0.69-2.19-1.05-3.68-1.05h-8.38c-3.64 0-5.81 2.17-5.81 5.81v7.47h20v-7.47c0-1.49-0.36-2.73-1.05-3.68zm-5.86 5.43-2.56 2.56c-0.29 0.29-0.77 0.29-1.06 0l-2.56-2.56c-0.15-0.15-0.22-0.34-0.22-0.53s0.07-0.39 0.22-0.53c0.29-0.3 0.77-0.3 1.06 0l2.03 2.02 2.03-2.03c0.29-0.29 0.77-0.29 1.06 0s0.29 0.77 0 1.07z"/>
</svg>
