<?xml version="1.0" encoding="UTF-8"?>
<svg width="24" height="24" viewBox="0 0 24 24" xmlns="http://www.w3.org/2000/svg">
 <path d="m20.95 4.13c-0.29-0.42-0.66-0.79-1.08-1.08-0.95-0.69-2.19-1.05-3.68-1.05h-8.38c-3.44 0-5.57 1.94-5.78 5.22h19.95c-0.08-1.23-0.43-2.27-1.03-3.09z"/>
 <path d="m2 16.19c0 1.49 0.36 2.73 1.05 3.68 0.29 0.42 0.66 0.79 1.08 1.08 0.95 0.69 2.19 1.05 3.68 1.05h8.38c3.64 0 5.81-2.17 5.81-5.81v-7.47h-20v7.47zm6.91-1.75 2.56-2.56c0.29-0.29 0.77-0.29 1.06 0l2.56 2.56c0.15 0.15 0.22 0.34 0.22 0.53s-0.07 0.38-0.22 0.53c-0.29 0.29-0.77 0.29-1.06 0l-2.03-2.02-2.03 2.02c-0.29 0.29-0.77 0.29-1.06 0s-0.29-0.76 0-1.06z"/>
</svg>
