<?xml version="1.0" encoding="UTF-8"?>
<svg width="24" height="24" viewBox="0 0 24 24" xmlns="http://www.w3.org/2000/svg">
 <path d="m7.81 2c-1.49 0-2.73 0.36-3.68 1.05-0.42 0.29-0.79 0.66-1.08 1.08-0.69 0.95-1.05 2.19-1.05 3.68v8.38c0 3.64 2.17 5.81 5.81 5.81h7.47v-20h-7.47zm4.31 10.53-2.56 2.56c-0.15 0.15-0.34 0.22-0.53 0.22s-0.38-0.07-0.53-0.22c-0.29-0.29-0.29-0.77 0-1.06l2.02-2.03-2.02-2.03c-0.3-0.29-0.3-0.77 0-1.06s0.77-0.29 1.06 0l2.56 2.56c0.29 0.29 0.29 0.77 0 1.06z"/>
 <path d="m16.78 2.0303v19.95c1.23-0.08 2.27-0.43 3.09-1.03 0.42-0.29 0.79-0.66 1.08-1.08 0.69-0.95 1.05-2.19 1.05-3.68v-8.38c0-3.44-1.94-5.57-5.22-5.78z"/>
</svg>
