<?xml version="1.0" encoding="UTF-8"?>
<svg width="24" height="24" viewBox="0 0 24 24" xmlns="http://www.w3.org/2000/svg">
 <path d="m18.34 14.13-2.18-1.75c-0.31-0.24-0.7-0.38-1.1-0.38h-2.31v-3h4.47c0.97 0 1.75-0.78 1.75-1.75v-3.5c0-0.97-0.78-1.75-1.75-1.75h-8.26c-0.39 0-0.78 0.14-1.09 0.38l-2.19 1.75c-0.87 0.7-0.87 2.04 0 2.74l2.19 1.75c0.31 0.24 0.7 0.38 1.09 0.38h2.29v3h-4.45c-0.97 0-1.75 0.78-1.75 1.75v3.5c0 0.97 0.78 1.75 1.75 1.75h4.45v2.25h-2.25c-0.41 0-0.75 0.34-0.75 0.75s0.34 0.75 0.75 0.75h6c0.41 0 0.75-0.34 0.75-0.75s-0.34-0.75-0.75-0.75h-2.25v-2.25h2.31c0.4 0 0.79-0.14 1.1-0.38l2.18-1.75c0.88-0.7 0.88-2.04 0-2.74z"/>
</svg>
