<svg width="24" height="24" viewBox="0 0 24 24"  xmlns="http://www.w3.org/2000/svg">
<path d="M18.3401 14.13L16.1601 12.38C15.8501 12.14 15.4601 12 15.0601 12H12.7501V9H17.2201C18.1901 9 18.9701 8.22 18.9701 7.25V3.75C18.9701 2.78 18.1901 2 17.2201 2H8.96009C8.57009 2 8.18009 2.14 7.87009 2.38L5.68009 4.13C4.81009 4.83 4.81009 6.17 5.68009 6.87L7.87009 8.62C8.18009 8.86 8.57009 9 8.96009 9H11.2501V12H6.80009C5.83009 12 5.05009 12.78 5.05009 13.75V17.25C5.05009 18.22 5.83009 19 6.80009 19H11.2501V21.25H9.00009C8.59009 21.25 8.25009 21.59 8.25009 22C8.25009 22.41 8.59009 22.75 9.00009 22.75H15.0001C15.4101 22.75 15.7501 22.41 15.7501 22C15.7501 21.59 15.4101 21.25 15.0001 21.25H12.7501V19H15.0601C15.4601 19 15.8501 18.86 16.1601 18.62L18.3401 16.87C19.2201 16.17 19.2201 14.83 18.3401 14.13Z" />
</svg>
