<?xml version="1.0" encoding="UTF-8"?>
<svg width="24" height="24" viewBox="0 0 24 24" xmlns="http://www.w3.org/2000/svg">
 <path d="m19.54 6.54-3.07-3.07c-0.94-0.94-2.21-1.47-3.54-1.47h-4.93c-3 0-5 2-5 5v10c0 3 2 5 5 5h8c3 0 5-2 5-5v-6.93c0-1.33-0.53-2.6-1.46-3.53zm-8.04 11.46c0 0.2761-0.2239 0.5-0.5 0.5h-1c-1.65 0-3-1.35-3-3v-0.5c0-0.2761 0.22386-0.5 0.5-0.5h3.75c0.14 0 0.25 0.11 0.25 0.25v3.25zm0-4.75c0 0.14-0.11 0.25-0.25 0.25h-3.75c-0.27614 0-0.5-0.2239-0.5-0.5v-0.5c0-1.65 1.35-3 3-3h1c0.2761 0 0.5 0.22386 0.5 0.5v3.25zm5.5 2.25c0 1.65-1.35 3-3 3h-1c-0.2761 0-0.5-0.2239-0.5-0.5v-3.25c0-0.14 0.11-0.25 0.25-0.25h3.75c0.2761 0 0.5 0.2239 0.5 0.5v0.5zm0-2.5c0 0.2761-0.2239 0.5-0.5 0.5h-3.75c-0.14 0-0.25-0.11-0.25-0.25v-3.25c0-0.27614 0.2239-0.5 0.5-0.5h1c1.65 0 3 1.35 3 3v0.5z"/>
</svg>
