<?xml version="1.0" encoding="UTF-8"?>
<svg width="24" height="24" viewBox="0 0 24 24" xmlns="http://www.w3.org/2000/svg">
 <path d="m16 12.69v5.39c0 2.34-1.56 3.89-3.89 3.89h-6.22c-2.33 0-3.89-1.55-3.89-3.89v-7.77c0-2.34 1.56-3.89 3.89-3.89h3.83c1.03 0 2.02 0.41 2.75 1.14l2.39 2.38c0.73 0.72998 1.14 1.72 1.14 2.75z"/>
 <path d="m22 8.2497v5.39c0 2.33-1.56 3.89-3.89 3.89h-1.11v-4.84c0-1.29-0.52-2.55-1.43-3.46l-2.39-2.38c-0.91-0.91-2.17-1.43-3.46-1.43h-1.7c0.18-2.08 1.69-3.45 3.87-3.45h3.83c1.03 0 2.02 0.41 2.75 1.14l2.39 2.39c0.73 0.73 1.14 1.72 1.14 2.75z"/>
</svg>
