<?xml version="1.0" encoding="UTF-8"?>
<svg width="24" height="24" viewBox="0 0 24 24" xmlns="http://www.w3.org/2000/svg">
 <path d="m21.97 5.5v4c0 1.7615-1.2996 3.2232-3.0015 3.4649-0.2734 0.0389-0.4985-0.1888-0.4985-0.4649v-0.25c0-3.72-3.02-6.75-6.75-6.75h-0.25c-0.2762 0-0.5038-0.22514-0.4646-0.4985 0.2426-1.6947 1.7038-3.0015 3.4646-3.0015h4c1.94 0 3.5 1.57 3.5 3.5z"/>
 <path d="m11.72 7h-4.75c-2.76 0-5 2.24-5 5v5c0 2.76 2.24 5 5 5h5c2.76 0 5-2.24 5-5v-4.75c0-2.9-2.35-5.25-5.25-5.25z"/>
</svg>
