<svg width="24" height="24" viewBox="0 0 24 24"  xmlns="http://www.w3.org/2000/svg">
<path d="M14.5401 1.87988C13.3101 1.87988 12.3101 2.87986 12.3101 4.10986V8.74988C12.3101 9.97988 13.3101 10.9799 14.5401 10.9799C15.7701 10.9799 16.7701 9.97988 16.7701 8.74988V4.10986C16.7701 2.88986 15.7701 1.87988 14.5401 1.87988Z" />
<path d="M20.18 7.11035C19.11 7.11035 18.24 7.98035 18.24 9.05035V10.6204C18.24 10.8304 18.41 11.0004 18.62 11.0004H20.19C21.26 11.0004 22.13 10.1304 22.13 9.06036C22.13 7.99036 21.25 7.11035 20.18 7.11035Z" />
<path d="M8.49988 6.99023H3.85988C2.62988 6.99023 1.62988 7.99025 1.62988 9.22025C1.62988 10.4502 2.62988 11.4503 3.85988 11.4503H8.49988C9.72988 11.4503 10.7299 10.4502 10.7299 9.22025C10.7299 7.99025 9.72988 6.99023 8.49988 6.99023Z" />
<path d="M8.79008 1.62012C7.72008 1.62012 6.8501 2.49012 6.8501 3.56012C6.8501 4.63012 7.72008 5.50012 8.79008 5.50012H10.3601C10.5701 5.50012 10.7401 5.33012 10.7401 5.12012V3.55011C10.7301 2.50011 9.86008 1.62012 8.79008 1.62012Z" />
<path d="M9.42995 13.0303C8.19995 13.0303 7.19995 14.0303 7.19995 15.2603V19.9003C7.19995 21.1303 8.19995 22.1303 9.42995 22.1303C10.6599 22.1303 11.66 21.1303 11.66 19.9003V15.2603C11.66 14.0303 10.6599 13.0303 9.42995 13.0303Z" />
<path d="M5.36009 13.0303H3.79008C2.72008 13.0303 1.8501 13.9003 1.8501 14.9703C1.8501 16.0403 2.72008 16.9103 3.79008 16.9103C4.86008 16.9103 5.73009 16.0403 5.73009 14.9703V13.4003C5.73009 13.2003 5.56009 13.0303 5.36009 13.0303Z" />
<path d="M20.11 12.5703H15.47C14.24 12.5703 13.24 13.5703 13.24 14.8003C13.24 16.0303 14.24 17.0303 15.47 17.0303H20.11C21.34 17.0303 22.34 16.0303 22.34 14.8003C22.34 13.5703 21.34 12.5703 20.11 12.5703Z" />
<path d="M15.18 18.4697H13.61C13.4 18.4697 13.23 18.6397 13.23 18.8497V20.4197C13.23 21.4897 14.1 22.3597 15.17 22.3597C16.24 22.3597 17.11 21.4897 17.11 20.4197C17.12 19.3397 16.25 18.4697 15.18 18.4697Z" />
</svg>
