<?xml version="1.0" encoding="UTF-8"?>
<svg width="24" height="24" viewBox="0 0 24 24" xmlns="http://www.w3.org/2000/svg">
 <path d="m14.54 1.8809c-1.23 0-2.23 0.99998-2.23 2.23v4.64c0 1.23 1 2.23 2.23 2.23s2.23-1 2.23-2.23v-4.64c0-1.22-1-2.23-2.23-2.23z"/>
 <path d="m20.18 7.1094c-1.07 0-1.94 0.87-1.94 1.94v1.57c0 0.21 0.17 0.38 0.38 0.38h1.57c1.07 0 1.94-0.87 1.94-1.94 0-1.07-0.88-1.95-1.95-1.95z"/>
 <path d="m8.4999 6.9902h-4.64c-1.23 0-2.23 1-2.23 2.23 0 1.23 1 2.23 2.23 2.23h4.64c1.23 0 2.23-1.0001 2.23-2.23 0-1.23-1-2.23-2.23-2.23z"/>
 <path d="m8.7901 1.6191c-1.07 0-1.94 0.87-1.94 1.94s0.86998 1.94 1.94 1.94h1.57c0.21 0 0.38-0.17001 0.38-0.38001v-1.57c-0.01-1.05-0.88001-1.93-1.95-1.93z"/>
 <path d="m9.43 13.029c-1.23 0-2.23 1-2.23 2.23v4.64c0 1.23 1 2.23 2.23 2.23 1.23 0 2.23-1 2.23-2.23v-4.64c0-1.23-1.0001-2.23-2.23-2.23z"/>
 <path d="m5.3601 13.029h-1.57c-1.07 0-1.94 0.87-1.94 1.94s0.86998 1.94 1.94 1.94c1.07 0 1.94-0.87 1.94-1.94v-1.57c0-0.2-0.17-0.37-0.37-0.37z"/>
 <path d="m20.11 12.57h-4.64c-1.23 0-2.23 1-2.23 2.23s1 2.23 2.23 2.23h4.64c1.23 0 2.23-1 2.23-2.23s-1-2.23-2.23-2.23z"/>
 <path d="m15.18 18.471h-1.57c-0.21 0-0.38 0.17-0.38 0.38v1.57c0 1.07 0.87 1.94 1.94 1.94s1.94-0.87 1.94-1.94c0.01-1.08-0.86-1.95-1.93-1.95z"/>
</svg>
