<svg width="24" height="24" viewBox="0 0 24 24"  xmlns="http://www.w3.org/2000/svg">
<path d="M14.5401 1.88086C13.3101 1.88086 12.3101 2.88084 12.3101 4.11084V8.75085C12.3101 9.98085 13.3101 10.9809 14.5401 10.9809C15.7701 10.9809 16.7701 9.98085 16.7701 8.75085V4.11084C16.7701 2.89084 15.7701 1.88086 14.5401 1.88086Z" />
<path d="M20.18 7.10938C19.11 7.10938 18.24 7.97938 18.24 9.04938V10.6194C18.24 10.8294 18.41 10.9994 18.62 10.9994H20.19C21.26 10.9994 22.13 10.1294 22.13 9.05939C22.13 7.98939 21.25 7.10938 20.18 7.10938Z" />
<path d="M8.49988 6.99023H3.85988C2.62988 6.99023 1.62988 7.99025 1.62988 9.22025C1.62988 10.4502 2.62988 11.4503 3.85988 11.4503H8.49988C9.72988 11.4503 10.7299 10.4502 10.7299 9.22025C10.7299 7.99025 9.72988 6.99023 8.49988 6.99023Z" />
<path d="M8.79008 1.61914C7.72008 1.61914 6.8501 2.48914 6.8501 3.55914C6.8501 4.62914 7.72008 5.49915 8.79008 5.49915H10.3601C10.5701 5.49915 10.7401 5.32914 10.7401 5.11914V3.54913C10.7301 2.49913 9.86009 1.61914 8.79008 1.61914Z" />
<path d="M9.42995 13.0293C8.19995 13.0293 7.19995 14.0293 7.19995 15.2593V19.8993C7.19995 21.1293 8.19995 22.1293 9.42995 22.1293C10.6599 22.1293 11.66 21.1293 11.66 19.8993V15.2593C11.66 14.0293 10.6599 13.0293 9.42995 13.0293Z" />
<path d="M5.36009 13.0293H3.79008C2.72008 13.0293 1.8501 13.8993 1.8501 14.9693C1.8501 16.0393 2.72008 16.9093 3.79008 16.9093C4.86009 16.9093 5.73009 16.0393 5.73009 14.9693V13.3993C5.73009 13.1993 5.56009 13.0293 5.36009 13.0293Z" />
<path d="M20.11 12.5703H15.47C14.24 12.5703 13.24 13.5703 13.24 14.8003C13.24 16.0303 14.24 17.0303 15.47 17.0303H20.11C21.34 17.0303 22.34 16.0303 22.34 14.8003C22.34 13.5703 21.34 12.5703 20.11 12.5703Z" />
<path d="M15.18 18.4707H13.61C13.4 18.4707 13.23 18.6407 13.23 18.8507V20.4207C13.23 21.4907 14.1 22.3607 15.17 22.3607C16.24 22.3607 17.11 21.4907 17.11 20.4207C17.12 19.3407 16.25 18.4707 15.18 18.4707Z" />
</svg>
