<?xml version="1.0" encoding="UTF-8"?>
<svg width="24" height="24" viewBox="0 0 24 24" xmlns="http://www.w3.org/2000/svg">
 <path d="m22 15v-6c0-1.66-1.34-3-3-3h-14c-1.66 0-3 1.34-3 3v6c0 1.66 1.34 3 3 3h14c1.66 0 3-1.34 3-3z"/>
 <path d="m5.93 19.5h12.14c0.32 0 0.55 0.29 0.49 0.6-0.27 1.48-1.14 1.9-3.23 1.9h-6.66c-2.1 0-2.96-0.42-3.23-1.9-0.06-0.31 0.17-0.6 0.49-0.6z"/>
 <path d="m8.67 2h6.66c2.1 0 2.96 0.42 3.23 1.9 0.06 0.31-0.18 0.6-0.49 0.6h-12.14c-0.32 0-0.55-0.29-0.49-0.6 0.27-1.48 1.13-1.9 3.23-1.9z"/>
</svg>
