<?xml version="1.0" encoding="UTF-8"?>
<svg width="24" height="24" viewBox="0 0 24 24" xmlns="http://www.w3.org/2000/svg">
 <path d="m9 22h6c1.66 0 3-1.34 3-3v-14c0-1.66-1.34-3-3-3h-6c-1.66 0-3 1.34-3 3v14c0 1.66 1.34 3 3 3z"/>
 <path d="m4.5 5.9302v12.14c0 0.32-0.29 0.55-0.6 0.49-1.48-0.27-1.9-1.13-1.9-3.23v-6.66c0-2.1 0.42-2.96 1.9-3.23 0.31-0.06 0.6 0.17 0.6 0.49z"/>
 <path d="m22 8.6702v6.66c0 2.1-0.42 2.96-1.9 3.23-0.31 0.06-0.6-0.18-0.6-0.49v-12.14c0-0.32 0.29-0.55 0.6-0.49 1.48 0.27 1.9 1.13 1.9 3.23z"/>
</svg>
