<?xml version="1.0" encoding="UTF-8"?>
<svg width="24" height="24" viewBox="0 0 24 24" xmlns="http://www.w3.org/2000/svg">
 <path d="m18 16.01c0.55 0 1 0.45 1 1v0.99c0 2.2-1.5 4-4 4h-6c-2.5 0-4-1.8-4-4v-0.99c0-0.55 0.45-1 1-1h12z"/>
 <path d="m19 6v7.5c0 0.55-0.45 1-1 1h-12c-0.55 0-1-0.45-1-1v-7.5c0-2.2 1.5-4 4-4h6c2.5 0 4 1.8 4 4z"/>
 <path d="m3 20.75c-0.41 0-0.75-0.34-0.75-0.75v-16c0-0.41 0.34-0.75 0.75-0.75s0.75 0.34 0.75 0.75v16c0 0.41-0.34 0.75-0.75 0.75z"/>
 <path d="m21 20.75c-0.41 0-0.75-0.34-0.75-0.75v-16c0-0.41 0.34-0.75 0.75-0.75s0.75 0.34 0.75 0.75v16c0 0.41-0.34 0.75-0.75 0.75z"/>
</svg>
