<?xml version="1.0" encoding="UTF-8"?>
<svg width="24" height="24" viewBox="0 0 24 24" xmlns="http://www.w3.org/2000/svg">
 <path d="m3.5 5.0596v13.88c0 0.41-0.34 0.75-0.75 0.75s-0.75-0.34-0.75-0.75v-13.88c0-0.41 0.34-0.75 0.75-0.75s0.75 0.34 0.75 0.75z"/>
 <path d="m22 5.0596v13.88c0 0.41-0.34 0.75-0.75 0.75s-0.75-0.34-0.75-0.75v-13.88c0-0.41 0.34-0.75 0.75-0.75s0.75 0.34 0.75 0.75z"/>
 <path d="m8 21.25h8c1.66 0 3-1.34 3-3v-12.5c0-1.66-1.34-3-3-3h-8c-1.66 0-3 1.34-3 3v12.5c0 1.66 1.34 3 3 3z"/>
</svg>
