<svg width="24" height="24" viewBox="0 0 24 24"  xmlns="http://www.w3.org/2000/svg">
<path d="M3.5 5.05957V18.9396C3.5 19.3496 3.16 19.6896 2.75 19.6896C2.34 19.6896 2 19.3496 2 18.9396V5.05957C2 4.64957 2.34 4.30957 2.75 4.30957C3.16 4.30957 3.5 4.64957 3.5 5.05957Z" />
<path d="M22 5.05957V18.9396C22 19.3496 21.66 19.6896 21.25 19.6896C20.84 19.6896 20.5 19.3496 20.5 18.9396V5.05957C20.5 4.64957 20.84 4.30957 21.25 4.30957C21.66 4.30957 22 4.64957 22 5.05957Z" />
<path d="M8 21.25H16C17.66 21.25 19 19.91 19 18.25V5.75C19 4.09 17.66 2.75 16 2.75H8C6.34 2.75 5 4.09 5 5.75V18.25C5 19.91 6.34 21.25 8 21.25Z" />
</svg>
