<?xml version="1.0" encoding="UTF-8"?>
<svg width="24" height="24" viewBox="0 0 24 24" xmlns="http://www.w3.org/2000/svg">
 <path d="m20.95 4.13c-0.29-0.42-0.66-0.79-1.08-1.08-0.95-0.69-2.19-1.05-3.68-1.05h-8.38c-0.2 0-0.4 0.01-0.59 0.03-3.28 0.21-5.22 2.34-5.22 5.78v8.38c0 1.49 0.36 2.73 1.05 3.68 0.29 0.42 0.66 0.79 1.08 1.08 0.82 0.6 1.86 0.95 3.09 1.03 0.19 0.01 0.39 0.02 0.59 0.02h8.38c3.64 0 5.81-2.17 5.81-5.81v-8.38c0-1.49-0.36-2.73-1.05-3.68zm-9.56 11.75h-2.87c-0.41 0-0.75-0.34-0.75-0.75s0.34-0.75 0.75-0.75h1v-6.47h-2.57c-0.11 0-0.2 0.09-0.2 0.2v0.78c0 0.41-0.34 0.74-0.75 0.74s-0.75-0.33-0.75-0.75v-0.78c0-0.94 0.76-1.7 1.7-1.7h6.64c0.94 0 1.7 0.76 1.7 1.7v0.78c0 0.41-0.34 0.75-0.75 0.75s-0.75-0.34-0.75-0.75v-0.78c0-0.11-0.09-0.2-0.2-0.2h-2.57v6.48h0.37c0.41 0 0.75 0.34 0.75 0.75s-0.34 0.75-0.75 0.75zm7.36-3.65c0 0.41-0.34 0.75-0.75 0.75s-0.75-0.34-0.75-0.75v-0.33h-1.55v4.2h0.35c0.41 0 0.75 0.34 0.75 0.75s-0.34 0.75-0.75 0.75h-2.2c-0.41 0-0.75-0.34-0.75-0.75s0.34-0.75 0.75-0.75h0.35v-4.2h-0.48c-0.41 0-0.75-0.34-0.75-0.75s0.34-0.75 0.75-0.75h3.6c0.79 0 1.43 0.64 1.43 1.43v0.4z"/>
</svg>
