<?xml version="1.0" encoding="UTF-8"?>
<svg width="24" height="24" viewBox="0 0 24 24" xmlns="http://www.w3.org/2000/svg">
 <path d="m18.71 9.49c-0.1 0-0.2-0.01999-0.3-0.05999-0.38-0.17001-0.55-0.61001-0.39-0.99001 0.19-0.43 0.08-1.06-0.27-1.58-0.35-0.53-0.88-0.89-1.36-0.86-0.44 0-0.75-0.33-0.76-0.74 0-0.42 0.33-0.75 0.74-0.76 1.03-0.02 2 0.57 2.63 1.52 0.64 0.96 0.79 2.11 0.4 3.01-0.12 0.29-0.4 0.46-0.69 0.46z"/>
 <path d="m21.82 10.48c-0.07 0-0.13-0.01-0.2-0.03-0.4-0.11-0.63-0.52004-0.52-0.92004 0.38-1.36 0.06-2.98-0.85-4.34s-2.29-2.27-3.7-2.44c-0.41-0.05-0.7-0.42-0.65-0.83s0.43-0.71 0.83-0.65c1.83 0.22 3.61 1.38 4.76 3.1s1.54 3.8 1.05 5.58c-0.09 0.31004-0.39 0.53004-0.72 0.53004z"/>
 <path d="m17.12 11.78c0 0.3-0.25 0.55-0.55 0.55h-13.14c-0.3 0-0.55-0.25-0.55-0.55s0.25-0.55 0.55-0.55h0.74l0.28-1.32c0.26-1.28 0.81-2.45 2.99-2.45h5.13c2.18 0 2.72 1.18 2.99 2.45l0.28 1.32h0.74c0.29 0 0.54 0.25 0.54 0.55z"/>
 <path d="m17.43 15.91c-0.11-1.2-0.43-2.49-2.77-2.49h-9.32c-2.34 0-2.66 1.29-2.77 2.49l-0.41 4.45c-0.05 0.55 0.13 1.11 0.51 1.53 0.39 0.42 0.93 0.66 1.52 0.66h1.37c1.18 0 1.41-0.68 1.56-1.12l0.15-0.44c0.17-0.5 0.21-0.63 0.87-0.63h3.74c0.66 0 0.68 0.07 0.87 0.63l0.15 0.44c0.15 0.45 0.37 1.12 1.56 1.12h1.37c0.58 0 1.13-0.24 1.52-0.66 0.38-0.42 0.56-0.97 0.51-1.53l-0.43-4.45zm-9.62 1.52h-2.19c-0.3 0-0.55-0.25-0.55-0.55s0.25-0.55 0.55-0.55h2.19c0.3 0 0.55 0.25 0.55 0.55s-0.25 0.55-0.55 0.55zm6.57 0h-2.19c-0.3 0-0.55-0.25-0.55-0.55s0.25-0.55 0.55-0.55h2.19c0.3 0 0.55 0.25 0.55 0.55s-0.25 0.55-0.55 0.55z"/>
</svg>
