<?xml version="1.0" encoding="UTF-8"?>
<svg width="24" height="24" viewBox="0 0 24 24" xmlns="http://www.w3.org/2000/svg">
 <path d="m20.86 8.5603-6.93-5.54c-1.07-0.86-2.8-0.86-3.86-0.01l-6.93 5.55c-0.78 0.62-1.28 1.93-1.11 2.91l1.33 7.96c0.24 1.42 1.6 2.57 3.04 2.57h11.2c1.43 0 2.8-1.16 3.04-2.57l1.33-7.96c0.16-0.98-0.34-2.29-1.11-2.91zm-11.48 8.82c-0.56 0-1-0.45-1-1s0.45-1 1-1 0.99998 0.45 0.99998 1-0.44998 1-0.99998 1zm3.01-0.26h-0.02c-0.41 0-0.74-0.33-0.75-0.73-0.03-1.35-0.92-2.24-2.27-2.27-0.41-0.01-0.74-0.35-0.73-0.77 0.01-0.41 0.34-0.73 0.75-0.73h0.02c2.15 0.05 3.69 1.58 3.73 3.73 0.01 0.42-0.31 0.77-0.73 0.77zm2.99 0c-0.42 0-0.75-0.33-0.76-0.74-0.01-0.66-0.12-1.29-0.32-1.88-0.51-1.46-1.6-2.54-3.06-3.06-0.59-0.21-1.22-0.32-1.88-0.32-0.41 0-0.75-0.34-0.74-0.76 0-0.41002 0.34-0.74002 0.75-0.74002h0.01c0.82998 0.01 1.62 0.15 2.36 0.41002 1.89 0.67 3.3 2.08 3.97 3.97 0.26 0.74 0.4 1.54 0.41 2.36 0.01 0.42-0.32 0.76-0.74 0.76z"/>
</svg>
