<?xml version="1.0" encoding="UTF-8"?>
<svg width="24" height="24" viewBox="0 0 24 24" xmlns="http://www.w3.org/2000/svg">
 <path d="m10 1h-6c-1.66 0-3 1.34-3 3v6c0 1.66 1.34 3 3 3h4.5c0-2.48 2.02-4.5 4.5-4.5v-4.5c0-1.66-1.34-3-3-3zm-6.23 3.27c0.77-0.55 1.82-0.56 2.61-0.02 0.34 0.23 0.43 0.7 0.2 1.04s-0.7 0.43-1.04 0.2c-0.27-0.19-0.64-0.19-0.91 0.01-0.13 0.09-0.28 0.13-0.43 0.13-0.23 0-0.47-0.11-0.61-0.31-0.24-0.34-0.16-0.81 0.18-1.05zm5.5 3.97c-0.26 0.33-0.73 0.38-1.05 0.12-0.35-0.28-0.77-0.43-1.22-0.43-1 0-1.83 0.76-1.94 1.74h2.1c0.41 0 0.75 0.34 0.75 0.75s-0.34 0.75-0.75 0.75h-2.32c-0.71 0-1.29-0.58-1.29-1.29 0-1.9 1.55-3.45 3.45-3.45 0.78 0 1.55 0.27 2.16 0.76 0.32 0.26 0.37 0.73 0.11 1.05zm1.31-2.95c-0.23 0.34-0.7 0.43-1.04 0.2-0.27-0.19-0.64-0.19-0.91 0.01-0.13 0.09-0.28 0.13-0.43 0.13-0.23 0-0.47-0.11-0.61-0.31-0.24-0.34-0.16-0.81 0.18-1.05 0.77-0.55 1.82-0.56 2.61-0.02 0.34 0.23 0.43 0.7 0.2 1.04z"/>
 <path d="m18.22 16.68c-0.07-0.08-0.17-0.12-0.28-0.12h-3.88c-0.11 0-0.21 0.04-0.28 0.12s-0.11 0.19-0.09 0.29c0.13 1.18 1.12 2.08 2.31 2.08s2.18-0.89 2.31-2.08c0.01-0.11-0.02-0.21-0.09-0.29z"/>
 <path d="m19 10h-6c-1.65 0-3 1.35-3 3v6c0 1.65 1.35 3 3 3h6c1.65 0 3-1.35 3-3v-6c0-1.65-1.35-3-3-3zm-6.41 3.17c0.24-0.34 0.71-0.42 1.05-0.18 0.27 0.19 0.63 0.19 0.9 0.01 0.34-0.24 0.81-0.15 1.04 0.2 0.23 0.34 0.15 0.81-0.2 1.04-0.39 0.26-0.84 0.4-1.29 0.4-0.47 0-0.93-0.14-1.32-0.42-0.34-0.25-0.42-0.72-0.18-1.05zm3.41 7c-1.9 0-3.45-1.55-3.45-3.45 0-0.71 0.58-1.29 1.29-1.29h4.32c0.71 0 1.29 0.58 1.29 1.29 0 1.9-1.55 3.45-3.45 3.45zm3.38-5.94c-0.39 0.26-0.84 0.4-1.29 0.4-0.47 0-0.93-0.14-1.32-0.42-0.34-0.24-0.42-0.71-0.18-1.05s0.71-0.42 1.05-0.18c0.27 0.19 0.63 0.19 0.9 0.01 0.34-0.24 0.81-0.15 1.04 0.2s0.14 0.81-0.2 1.04z"/>
</svg>
