<?xml version="1.0" encoding="UTF-8"?>
<svg width="24" height="24" viewBox="0 0 24 24" xmlns="http://www.w3.org/2000/svg">
 <path d="m17 3h-10c-3 0-5 1.5-5 5v7c0 3.5 2 5 5 5h3.57c0.59 0 1.07-0.52 0.99-1.11-0.1-0.71-0.08-1.45 0.07-2.21 0.53-2.6 2.67-4.67 5.29-5.1 1.31-0.21 2.56-0.03 3.66 0.45 0.67 0.29 1.42-0.17 1.42-0.9v-3.13c0-3.5-2-5-5-5zm0.47 5.59-3.13 2.5c-0.66 0.53-1.5 0.79-2.34 0.79s-1.69-0.26-2.34-0.79l-3.13-2.5c-0.32-0.26-0.37-0.73-0.12-1.06 0.26-0.32 0.73-0.38 1.05-0.12l3.13 2.5c0.76 0.61 2.05 0.61 2.81 0l3.13-2.5c0.32-0.26 0.8-0.21 1.05 0.12 0.26 0.33 0.21 0.8-0.11 1.06z"/>
 <path d="m18 13c-2.76 0-5 2.23-5 5 0 2.76 2.24 5 5 5 2.77 0 5-2.24 5-5 0-2.77-2.23-5-5-5zm2.05 4.55-0.37 0.36-2.18 2.19c-0.1 0.09-0.29 0.19-0.43 0.21l-0.98 0.14c-0.35 0.05-0.6-0.2-0.55-0.55l0.14-0.98c0.02-0.14 0.11-0.33 0.21-0.43l2.18-2.17 0.36-0.37c0.24-0.24 0.51-0.4 0.79-0.4 0.24 0 0.51 0.11 0.81 0.4 0.67 0.65 0.46 1.16 0.02 1.6z"/>
</svg>
