<?xml version="1.0" encoding="UTF-8"?>
<svg width="24" height="24" viewBox="0 0 24 24" xmlns="http://www.w3.org/2000/svg">
 <path d="m19.5 8c1.3807 0 2.5-1.1193 2.5-2.5s-1.1193-2.5-2.5-2.5-2.5 1.1193-2.5 2.5 1.1193 2.5 2.5 2.5z"/>
 <path d="m19.5 8c1.3807 0 2.5-1.1193 2.5-2.5s-1.1193-2.5-2.5-2.5-2.5 1.1193-2.5 2.5 1.1193 2.5 2.5 2.5z"/>
 <path d="m20.72 9.31c-0.7 0.22-1.47 0.26-2.27 0.06-1.34-0.35-2.43-1.42-2.8-2.76-0.18-0.65-0.19-1.29-0.08-1.87 0.13-0.64-0.32-1.24-0.96-1.24h-7.61c-3 0-5 1.5-5 5v7c0 3.5 2 5 5 5h10c3 0 5-1.5 5-5v-5.24c0-0.66-0.64-1.16-1.28-0.95zm-5.2 1.84-1.18 0.94c-0.66 0.53-1.5 0.79-2.34 0.79s-1.69-0.26-2.34-0.79l-3.13-2.5c-0.32-0.26-0.37-0.74-0.12-1.06 0.26-0.32 0.73-0.38 1.05-0.12l3.13 2.5c0.76 0.61 2.05 0.61 2.81 0l1.18-0.94c0.32-0.26 0.8-0.21 1.05 0.12 0.26 0.32 0.21 0.8-0.11 1.06z"/>
</svg>
