<?xml version="1.0" encoding="UTF-8"?>
<svg width="24" height="24" viewBox="0 0 24 24" xmlns="http://www.w3.org/2000/svg">
 <path d="m19.48 2.8202 0.28 0.57c0.14 0.28 0.49 0.54 0.8 0.6l0.38 0.06c1.14 0.19 1.41 1.03 0.59 1.86l-0.35 0.35c-0.23 0.24-0.36 0.7-0.29 1.02l0.05 0.21c0.31 1.38-0.42 1.91-1.62 1.19l-0.26-0.15c-0.31-0.18-0.81-0.18-1.12 0l-0.26 0.15c-1.21 0.73-1.94 0.19-1.62-1.19l0.05-0.21c0.07-0.32-0.06-0.78-0.29-1.02l-0.35-0.36c-0.82-0.83-0.55-1.67 0.59-1.86l0.38-0.06c0.3-0.05 0.66-0.32 0.8-0.6l0.28-0.57c0.54-1.08 1.42-1.08 1.96 0.01z"/>
 <path d="m21.57 10.09c-0.36 0.26-1.37 0.74-2.81 0-0.16-0.08-0.36-0.09-0.52 0-0.57 0.29-1.09 0.41-1.5 0.41-0.64 0-1.09-0.25-1.31-0.41-0.37-0.27-1.15-1.04-0.88-2.67 0.03-0.17-0.02-0.34-0.13-0.47-0.69-0.79-1.07-1.85-0.8-2.68 0.1-0.33-0.11-0.77-0.45-0.77h-6.17c-3 0-5 1.5-5 5v7c0 3.5 2 5 5 5h10c3 0 5-1.5 5-5v-5.23c0-0.19-0.27-0.29-0.43-0.18zm-7.23 2c-0.66 0.53-1.5 0.79-2.34 0.79s-1.69-0.26-2.34-0.79l-3.13-2.5c-0.32-0.26-0.37-0.74-0.12-1.06 0.26-0.32 0.73-0.38 1.05-0.12l3.13 2.5c0.76 0.61 2.05 0.61 2.81 0 0.32-0.26 0.79-0.21 1.05 0.12 0.27 0.32 0.22 0.8-0.11 1.06z"/>
</svg>
