<?xml version="1.0" encoding="UTF-8"?>
<svg width="24" height="24" viewBox="0 0 24 24" xmlns="http://www.w3.org/2000/svg">
 <path d="m17 3h-10c-3 0-5 1.5-5 5v7.96c0 2.29 1.85 4.14 4.14 4.14h6.26c0.58 0 1.08-0.49 1.02-1.07-0.14-1.53 0.36-3.18 1.72-4.51 0.56-0.55 1.25-0.97 2-1.21 1.25-0.4 2.46-0.35 3.53 0.02 0.65 0.22 1.33-0.25 1.33-0.94v-4.39c0-3.5-2-5-5-5zm0.47 5.59-3.13 2.5c-0.66 0.53-1.5 0.79-2.34 0.79s-1.69-0.26-2.34-0.79l-3.13-2.5c-0.32-0.26-0.37-0.73-0.12-1.06 0.26-0.32 0.73-0.38 1.05-0.12l3.13 2.5c0.76 0.61 2.05 0.61 2.81 0l3.13-2.5c0.32-0.26 0.8-0.21 1.05 0.12 0.26 0.33 0.21 0.8-0.11 1.06z"/>
 <path d="m22.65 21.45-0.75-0.75c0.39-0.59 0.62-1.3 0.62-2.06 0-2.08-1.68-3.76-3.76-3.76s-3.76 1.68-3.76 3.75 1.68 3.76 3.76 3.76c0.76 0 1.47-0.23 2.06-0.62l0.75 0.75c0.15 0.15 0.34 0.22 0.54 0.22s0.39-0.07 0.54-0.22c0.3-0.29 0.3-0.77 0-1.07z"/>
</svg>
