<?xml version="1.0" encoding="UTF-8"?>
<svg width="24" height="24" viewBox="0 0 24 24" xmlns="http://www.w3.org/2000/svg">
 <path d="m6 13c-2.76 0-5 2.23-5 5s2.24 5 5 5 5-2.24 5-5-2.23-5-5-5zm-2.04 2.96h2.04c0.38 0 0.68 0.31 0.68 0.68s-0.3 0.68-0.68 0.68h-2.04c-0.38 0-0.68-0.31-0.68-0.68s0.3-0.68 0.68-0.68zm4.08 4.08h-4.08c-0.38 0-0.68-0.31-0.68-0.68s0.31-0.68 0.68-0.68h4.09c0.38 0 0.68 0.31 0.68 0.68s-0.31 0.68-0.69 0.68z"/>
 <path d="m17 3h-10c-3 0-5 1.5-5 5v3.14c0 0.73 0.75 1.19 1.42 0.9 1.1-0.48 2.35-0.66 3.66-0.45 2.62 0.43 4.76 2.5 5.29 5.1 0.15 0.76 0.17 1.5 0.07 2.21-0.08 0.59 0.4 1.11 0.99 1.11h3.57c3 0 5-1.5 5-5v-7.01c0-3.5-2-5-5-5zm0.47 5.59-3.13 2.5c-0.66 0.53-1.5 0.79-2.34 0.79s-1.69-0.26-2.34-0.79l-3.13-2.5c-0.32-0.26-0.37-0.74-0.12-1.06 0.26-0.32 0.73-0.38 1.05-0.12l3.13 2.5c0.76 0.61 2.05 0.61 2.81 0l3.13-2.5c0.32-0.26 0.8-0.21 1.05 0.12 0.26 0.32 0.21 0.8-0.11 1.06z"/>
</svg>
