<?xml version="1.0" encoding="UTF-8"?>
<svg width="24" height="24" viewBox="0 0 24 24" xmlns="http://www.w3.org/2000/svg">
 <path d="m12 2c-5.52 0-10 4.48-10 10s4.48 10 10 10 10-4.48 10-10-4.48-10-10-10zm5.31 13.31c-0.29 0.16-0.53 0.23-0.73 0.28-0.17 0.04-0.31 0.08-0.43 0.16-0.13 0.08-0.14 0.21-0.16 0.33-0.02 0.11-0.03 0.2-0.11 0.26-0.09 0.06-0.26 0.07-0.49 0.08-0.3 0.02-0.68 0.03-1.14 0.17-0.22 0.08-0.42 0.2-0.62 0.32-0.4 0.25-0.85 0.52-1.64 0.52-0.78 0-1.23-0.27-1.63-0.52-0.2-0.13-0.39999-0.25-0.62999-0.33-0.45-0.14-0.84001-0.16-1.14-0.17-0.23-0.01-0.38999-0.02-0.48999-0.08-0.08-0.05-0.09002-0.15-0.11002-0.26-0.02-0.12-0.03-0.25-0.16-0.33-0.12-0.08-0.27-0.12-0.43-0.17-0.2-0.05-0.43998-0.11-0.72998-0.27-0.34-0.19-0.14-0.3-0.03-0.36 1.93-0.93 2.23-2.37 2.24-2.48v-0.02c0.02-0.12 0.02999-0.22-0.11001-0.35-0.09-0.09-0.39999-0.29-0.64999-0.45-0.11001-0.08-0.20999-0.14-0.26999-0.17-0.28-0.2-0.4-0.39-0.31-0.64 0.06-0.17 0.22-0.23 0.38-0.23 0.05 0 0.11 0.01 0.15 0.02 0.18 0.04 0.35999 0.11 0.51999 0.17 0.11 0.05 0.19999 0.08 0.26999 0.1 0.02 0.01 0.05002 0.01 0.06002 0.01 0.1 0 0.13-0.05 0.12-0.15 0-0.03-1e-5 -0.06-0.01001-0.09-0.02-0.35-0.05001-0.95999-0.01001-1.52 0.08-0.84 0.35001-1.27 0.67001-1.63 0.16-0.18 0.89-0.95001 2.28-0.95001 1.4 0 2.12 0.77 2.28 0.94 0.32 0.37 0.59 0.79001 0.67 1.64 0.05 0.59 0.01 1.22-0.02 1.57v0.03c-0.01 0.11 0.02 0.15 0.12 0.15 0.02 0 0.04 0 0.06-0.01 0.07-0.02 0.16-0.05 0.27-0.09 0.15-0.06 0.33-0.13 0.52-0.17 0.05-0.02 0.1-0.02 0.15-0.02 0.17 0 0.32 0.07 0.38 0.24 0.09 0.24-0.03 0.43-0.31 0.63-0.05 0.04-0.15 0.11-0.27 0.17-0.24 0.16-0.56 0.36-0.65 0.45-0.14 0.13-0.13 0.23-0.11 0.35v0.02c0.02 0.11 0.32 1.55 2.24 2.48 0.15 0.06 0.35 0.18 0.01 0.37z" clip-rule="evenodd" fill-rule="evenodd"/>
</svg>
