<?xml version="1.0" encoding="UTF-8"?>
<svg width="24" height="24" viewBox="0 0 24 24" xmlns="http://www.w3.org/2000/svg">
 <path d="m19.14 20.25c-0.19 0-0.38-0.07-0.53-0.21-0.3-0.29-0.3-0.76-0.01-1.06 1.71-1.74 2.65-4.04 2.65-6.48 0-5.1-4.15-9.25-9.25-9.25s-9.25 4.15-9.25 9.25c0 2.43 0.93 4.72 2.63 6.46 0.29 0.3 0.28 0.77-0.01 1.06-0.3 0.29-0.77 0.28-1.06-0.01-1.97-2.02-3.06-4.69-3.06-7.51 0-5.93 4.82-10.75 10.75-10.75s10.75 4.82 10.75 10.75c0 2.83-1.09 5.51-3.08 7.53-0.14 0.15-0.34 0.22-0.53 0.22z"/>
 <path d="m12 22c2.1429 0 3.88-1.7371 3.88-3.88 0-2.1428-1.7371-3.88-3.88-3.88-2.1428 0-3.88 1.7372-3.88 3.88 0 2.1429 1.7371 3.88 3.88 3.88z"/>
 <path d="m16 8.5c-1.1 0-2 0.9-2 2v0.75c0 0.69 0.56 1.25 1.25 1.25h0.75c1.1 0 2-0.9 2-2s-0.9-2-2-2z"/>
</svg>
