<?xml version="1.0" encoding="UTF-8"?>
<svg width="24" height="24" viewBox="0 0 24 24" xmlns="http://www.w3.org/2000/svg">
 <path d="m12 2c-5.52 0-10 4.48-10 10s4.48 10 10 10 10-4.48 10-10-4.48-10-10-10zm3.42 14.58c-0.15 0.21-0.38 0.31-0.61 0.31-0.15 0-0.3-0.05-0.44-0.14-1.54-1.1-3.51-1.34-5.27-0.65-0.38 0.15-0.82001-0.04-0.97001-0.42-0.15-0.39 0.04-0.82 0.42-0.97 2.24-0.89 4.74-0.58 6.69 0.82 0.35 0.25 0.42 0.72 0.18 1.05zm1.1-2.79c-0.15 0.21-0.38 0.31-0.61 0.31-0.15 0-0.3-0.05-0.44-0.14-2.12-1.52-4.83-1.85-7.26-0.89-0.38 0.15-0.82-0.04-0.97-0.42-0.15-0.39 0.03999-0.82 0.41999-0.97 2.9-1.15 6.15-0.75 8.68 1.07 0.34 0.24 0.42 0.71 0.18 1.04zm1.57-2.68c-0.15 0.21-0.38 0.31-0.61 0.31-0.15 0-0.3-0.05-0.44-0.14-2.98-2.14-6.8-2.61-10.2-1.25-0.39 0.15-0.82-0.04001-0.97-0.42001s0.03999-0.81998 0.41999-0.96998c3.88-1.54 8.23-1.01 11.63 1.43 0.34 0.23 0.42 0.7 0.17 1.04z"/>
</svg>
