<?xml version="1.0" encoding="UTF-8"?>
<svg width="24" height="24" viewBox="0 0 24 24" xmlns="http://www.w3.org/2000/svg">
 <path d="m12 18.5v0.88c0 1.87-0.75 2.62-2.63 2.62h-4.75c-1.45 0-2.62-1.17-2.62-2.62v-4.75c0-1.88 0.75-2.63 2.62-2.63h0.88v3.5c0 1.66 1.34 3 3 3h3.5z"/>
 <path d="m17 13.5v0.87c0 1.45-1.18 2.63-2.63 2.63h-4.75c-1.87 0-2.62-0.75-2.62-2.63v-4.75c0-1.45 1.17-2.62 2.62-2.62h0.88v3.5c0 1.66 1.34 3 3 3h3.5z"/>
 <path d="M22 4.62V9.37C22 11.25 21.25 12 19.37 12H14.62C12.75 12 12 11.25 12 9.37V4.62C12 2.75 12.75 2 14.62 2H19.37C21.25 2 22 2.75 22 4.62Z"/>
</svg>
