<?xml version="1.0" encoding="UTF-8"?>
<svg width="24" height="24" viewBox="0 0 24 24" xmlns="http://www.w3.org/2000/svg">
 <path d="m16.19 2.3301h-8.38c-3.64 0-5.81 2.18-5.81 5.82v8.37c0 3.64 2.17 5.81 5.81 5.81h8.37c3.64 0 5.81-2.17 5.81-5.81v-8.37c0.01-3.64-2.16-5.82-5.8-5.82zm-4.62 14.79c0 0.3-0.15 0.57-0.41 0.73-0.14 0.09-0.29 0.13-0.45 0.13-0.13 0-0.26-0.03-0.39-0.09l-3.5-1.75c-0.5-0.26-0.82-0.77-0.82-1.34v-3.31c0-0.3 0.15-0.57 0.41-0.73s0.57-0.17 0.84-0.04l3.5 1.75c0.51 0.26 0.83 0.77 0.83 1.34v3.31h-0.01zm-0.21-5.35-3.76-2.03c-0.27-0.15-0.44-0.44-0.44-0.77 0-0.32 0.17-0.62 0.44-0.77l3.76-2.03c0.4-0.21 0.87-0.21 1.27 0l3.76 2.03c0.27 0.15 0.44 0.44 0.44 0.77s-0.17 0.62-0.44 0.77l-3.76 2.03c-0.2 0.11-0.42 0.16-0.64 0.16s-0.43-0.05-0.63-0.16zm6.64 3.03c0 0.57-0.32 1.09-0.83 1.34l-3.5 1.75c-0.12 0.06-0.25 0.09-0.39 0.09-0.16 0-0.31-0.04-0.45-0.13-0.26-0.16-0.41-0.43-0.41-0.73v-3.31c0-0.57 0.32-1.09 0.83-1.34l3.5-1.75c0.27-0.13 0.58-0.12 0.84 0.04s0.41 0.43 0.41 0.73v3.31z"/>
</svg>
