<?xml version="1.0" encoding="UTF-8"?>
<svg width="24" height="24" viewBox="0 0 24 24" xmlns="http://www.w3.org/2000/svg">
 <path d="m12 2c-5.52 0-10 4.48-10 10s4.48 10 10 10 10-4.48 10-10-4.48-10-10-10zm4.5 12.25h-3.05l1.99 2.82c0.24 0.34 0.16 0.81-0.18 1.04-0.13 0.09-0.28 0.14-0.43 0.14-0.24 0-0.47-0.11-0.61-0.32l-2.3-3.26-2.3 3.26c-0.15 0.21-0.37999 0.32-0.60999 0.32-0.15 0-0.30002-0.04-0.43002-0.14-0.34-0.24-0.42-0.71-0.18-1.04l1.99-2.82h-2.87c-0.41 0-0.75-0.34-0.75-0.75s0.34-0.75 0.75-0.75h9c0.41 0 0.75 0.34 0.75 0.75s-0.36 0.75-0.77 0.75zm0-3h-9c-0.41 0-0.75-0.34-0.75-0.75s0.34-0.75 0.75-0.75h2.87l-1.99-2.82c-0.23999-0.34-0.16-0.80999 0.18-1.04 0.34-0.24 0.81001-0.15999 1.04 0.18001l2.3 3.26 2.3-3.26c0.24-0.34 0.71-0.42001 1.04-0.18001 0.34 0.24 0.42 0.70999 0.18 1.04l-1.99 2.82h3.05c0.41 0 0.75 0.34 0.75 0.75s-0.32 0.75-0.73 0.75z"/>
</svg>
