<?xml version="1.0" encoding="UTF-8"?>
<svg width="24" height="24" viewBox="0 0 24 24" xmlns="http://www.w3.org/2000/svg">
 <path d="m18.7 14.46c-0.35 0.35-0.55 1.05-0.44 1.53l0.69 3.02c0.29 1.25 0.11 2.19-0.51 2.64-0.25 0.18-0.55 0.27-0.9 0.27-0.51 0-1.11-0.19-1.77-0.58l-2.93-1.74c-0.46-0.27-1.22-0.27-1.68 0l-2.93 1.74c-1.11 0.65-2.06 0.76-2.67 0.31-0.04-0.03-0.08-0.06-0.11-0.1l12.62-12.62c0.46-0.46 1.11-0.67 1.75-0.56l0.15 0.03c1.06 0.18 1.77 0.66 2 1.36 0.22 0.69995-0.0801 1.51-0.84 2.27l-2.43 2.43z"/>
 <path d="m5.7401 16c0.11-0.48-0.09-1.19-0.44-1.54l-2.43-2.43c-0.76-0.76-1.06-1.57-0.84-2.27 0.23-0.7 0.94-1.18 2-1.36l3.12-0.52c0.45-0.08 1-0.48 1.21-0.89l1.72-3.45c0.5-0.99 1.18-1.54 1.92-1.54s1.42 0.55 1.92 1.54l1.72 3.45c0.13 0.26 0.4 0.51 0.69 0.68l-11.26 11.26 0.67-2.93z"/>
 <path d="m21.77 2.2299c-0.3-0.3-0.79-0.3-1.09 0l-18.45 18.46c-0.3 0.3-0.3 0.79 0 1.09 0.15 0.14 0.34 0.22 0.54 0.22s0.39-0.08 0.54-0.23l18.46-18.46c0.31-0.3 0.31-0.78 0-1.08z"/>
</svg>
