<?xml version="1.0" encoding="UTF-8"?>
<svg width="24" height="24" viewBox="0 0 24 24" xmlns="http://www.w3.org/2000/svg">
 <path d="m16.19 2h-8.38c-3.64 0-5.81 2.17-5.81 5.81v8.37c0 3.65 2.17 5.82 5.81 5.82h8.37c3.64 0 5.81-2.17 5.81-5.81v-8.38c0.01-3.64-2.16-5.81-5.8-5.81zm-8.56 16.15c0 0.41-0.34 0.75-0.75 0.75s-0.75-0.34-0.75-0.75v-2.07c0-0.41 0.34-0.75 0.75-0.75s0.75 0.34 0.75 0.75v2.07zm5.12 0c0 0.41-0.34 0.75-0.75 0.75s-0.75-0.34-0.75-0.75v-4.15c0-0.41 0.34-0.75 0.75-0.75s0.75 0.34 0.75 0.75v4.15zm5.12 0c0 0.41-0.34 0.75-0.75 0.75s-0.75-0.34-0.75-0.75v-6.22c0-0.41 0.34-0.75 0.75-0.75s0.75 0.34 0.75 0.75v6.22zm0-9.38c0 0.41-0.34 0.75-0.75 0.75s-0.75-0.34-0.75-0.75v-0.97c-2.55 2.62-5.74 4.47-9.31 5.36-0.06 0.02-0.12 0.02-0.18 0.02-0.34 0-0.64-0.23-0.73-0.57-0.1-0.4 0.14-0.81 0.55-0.91 3.37-0.84 6.37-2.61 8.75-5.11h-1.25c-0.41 0-0.75-0.34-0.75-0.75s0.34-0.75 0.75-0.75h2.93c0.04 0 0.07 0.02 0.11 0.02 0.05 0.01 0.1 0.01 0.15 0.03s0.09 0.05 0.14 0.08c0.03 0.02 0.06 0.03 0.09 0.05 0.01 0.01 0.01 0.02 0.02 0.02 0.04 0.04 0.07 0.08 0.1 0.12s0.06 0.07 0.07 0.11c0.02 0.04 0.02 0.08 0.03 0.13s0.03 0.1 0.03 0.16c0 0.01 0.01 0.02 0.01 0.03v2.93h-0.01z"/>
</svg>
