<?xml version="1.0" encoding="UTF-8"?>
<svg width="24" height="24" viewBox="0 0 24 24" xmlns="http://www.w3.org/2000/svg">
 <path d="m22.66 4.64c-0.2-0.36-0.6599-0.5-1.0199-0.3l-16.94 9.32c-0.12-0.54-0.20001-1.1-0.20001-1.66 0-4.14 3.36-7.5 7.5-7.5 1.41 0 2.78 0.39 3.96 1.13 0.35 0.22 0.81 0.11 1.03-0.24s0.11-0.81-0.24-1.03c-1.42-0.89-3.06-1.36-4.75-1.36-4.96 0-9 4.04-9 9 0 0.81 0.11 1.61 0.32 2.39 0 0.01 0.01001 0.01 0.01001 0.02l-1.69 0.93c-0.36 0.2-0.49999 0.66-0.29999 1.02 0.14 0.25 0.38998 0.39 0.65998 0.39 0.12 0 0.24998-0.03 0.35998-0.09l20-11c0.36-0.2 0.4999-0.66 0.2999-1.02z"/>
 <path d="m22.66 8.1396c-0.2-0.36-0.6599-0.5-1.0199-0.3l-2.11 1.16c-0.03 0.02-0.07 0.03-0.1 0.06l-17.79 9.78c-0.36 0.2-0.49999 0.66-0.29999 1.02 0.14 0.25 0.38998 0.39 0.65998 0.39 0.12 0 0.24998-0.03 0.35998-0.09l17.03-9.37c0.06 0.4 0.11 0.8 0.11 1.21 0 4.14-3.36 7.5-7.5 7.5-1.42 0-2.79-0.4-3.98-1.14-0.35-0.22-0.81002-0.11-1.03 0.24s-0.12001 0.81 0.23999 1.03c1.43 0.9 3.08 1.37 4.78 1.37 4.96 0 9-4.04 9-9 0-0.67-0.1-1.32-0.24-1.96l1.6-0.87999c0.35-0.2 0.4899-0.66001 0.2899-1.02z"/>
</svg>
