<?xml version="1.0" encoding="UTF-8"?>
<svg width="24" height="24" viewBox="0 0 24 24" xmlns="http://www.w3.org/2000/svg">
 <path d="m8.29 6.29c-0.42 0-0.75-0.34-0.75-0.75v-2.79c0-0.41 0.33-0.75 0.75-0.75s0.75 0.34 0.75 0.75v2.78c0 0.42-0.33 0.76-0.75 0.76z"/>
 <path d="m15.71 6.29c-0.42 0-0.75-0.34-0.75-0.75v-2.79c0-0.42 0.34-0.75 0.75-0.75 0.42 0 0.75 0.34 0.75 0.75v2.78c0 0.42-0.33 0.76-0.75 0.76z"/>
 <path d="m21.5 15.82c0 0.15-0.05 0.3-0.18 0.43-1.45 1.46-4.03 4.06-5.51 5.55-0.13 0.14-0.3 0.2-0.47 0.2-0.33 0-0.65-0.26-0.65-0.64v-3.5c0-1.46 1.24-2.67 2.76-2.67 0.95-0.01 2.27-0.01 3.4-0.01 0.39 0 0.65 0.31 0.65 0.64z"/>
 <path d="m21.5 15.82c0 0.15-0.05 0.3-0.18 0.43-1.45 1.46-4.03 4.06-5.51 5.55-0.13 0.14-0.3 0.2-0.47 0.2-0.33 0-0.65-0.26-0.65-0.64v-3.5c0-1.46 1.24-2.67 2.76-2.67 0.95-0.01 2.27-0.01 3.4-0.01 0.39 0 0.65 0.31 0.65 0.64z"/>
 <path d="m19.57 4.5c-0.66-0.49-1.61-0.02-1.61 0.81v0.1c0 1.17-0.84 2.25-2.01 2.37-1.35 0.14-2.49-0.92-2.49-2.24v-1.04c0-0.55-0.45-1-1-1h-0.92c-0.55 0-1 0.45-1 1v0.91c0 0.88-0.47 1.7-1.2 2.1-0.04 0.03-0.08 0.05-0.12 0.07-0.01 0-0.01 0.01-0.02 0.01-0.07 0.03-0.14 0.06-0.22 0.09-0.02 0.01-0.04 0.01-0.06 0.02-0.12 0.04-0.25 0.07-0.39 0.08h-0.01c-0.15 0.02-0.31 0.02-0.46 0h-0.01c-0.14-0.01-0.27-0.04-0.39-0.08-0.1-0.03-0.2-0.07-0.3-0.12-0.78-0.35-1.32-1.13-1.32-2.04v-0.23c0-0.77-0.82-1.23-1.47-0.9-0.01 0.01-0.02 0.01-0.03 0.02h-0.01c-0.07 0.05-0.13 0.1-0.2 0.15-0.11 0.09-0.22 0.18-0.32 0.28-0.07 0.07-0.14 0.14-0.2 0.21-0.08 0.08-0.15 0.16-0.22 0.25-0.05 0.06-0.11 0.12-0.15 0.19-0.05 0.06-0.09 0.13-0.13 0.19-0.01 0.01-0.02 0.02-0.03 0.04-0.09 0.13-0.17 0.28-0.24 0.42-0.02 0.02-0.03 0.03-0.03 0.05-0.06 0.12-0.12 0.24-0.16 0.37-0.03 0.05-0.04 0.09-0.06 0.14-0.02 0.04-0.03 0.09-0.05 0.13-0.03 0.1-0.06 0.21-0.09 0.32-0.04 0.14-0.07 0.29-0.09 0.44-0.02 0.11-0.03 0.22-0.04 0.34-0.01 0.14-0.02 0.28-0.02 0.42v8.76c0 2.69 2.18 4.87 4.87 4.87h4.82c0.55 0 1-0.45 1-1v-3.14c0-2.3 1.91-4.17 4.26-4.17 0.53-0.01 1.82-0.01 3.05-0.01 0.55 0 1-0.45 1-1v-4.31c0-1.59-0.76-2.98-1.93-3.87zm-8.44 11.41c-0.09 0.3-0.37 0.51-0.7 0.51h-3.64c-0.05 0-0.09 0-0.13-0.02-0.36-0.05-0.62-0.36-0.62-0.73 0-0.42 0.33-0.76 0.75-0.76h3.64c0.41 0 0.75 0.34 0.75 0.76 0 0.08-0.01 0.17-0.05 0.24zm2.78-3.71c-0.09 0.3-0.37 0.51-0.7 0.51h-6.42c-0.05 0-0.09 0-0.13-0.02-0.36-0.05-0.62-0.36-0.62-0.73 0-0.42 0.33-0.76 0.75-0.76h6.42c0.42 0 0.75 0.34 0.75 0.76 0 0.08-0.01 0.17-0.05 0.24z"/>
</svg>
