<?xml version="1.0" encoding="UTF-8"?>
<svg width="24" height="24" viewBox="0 0 24 24" xmlns="http://www.w3.org/2000/svg">
 <path d="m16.42 7.9501c2.44 2.44 2.44 6.4 0 8.84s-6.4 2.44-8.84 0-2.44-6.4 0-8.84c2.44-2.44 6.4-2.44 8.84 0z"/>
 <path d="m8.25 22.39c-0.09 0-0.19-0.02-0.28-0.05-2.25-0.9-4.07-2.49-5.29-4.59-1.18-2.05-1.65-4.37-1.34-6.73 0.05-0.41 0.44-0.7 0.84-0.65 0.41 0.05 0.7 0.43 0.65 0.84-0.26 2.03 0.14 4.03 1.15 5.79 1.04 1.8 2.61 3.17 4.54 3.94 0.38 0.16 0.57 0.59 0.42 0.98-0.11 0.29-0.4 0.47-0.69 0.47z"/>
 <path d="m5.8501 5.2304c-0.22 0-0.43999-0.1-0.58999-0.29-0.26-0.32-0.20001-0.79 0.12999-1.05 1.9-1.49 4.19-2.28 6.61-2.28 2.36 0 4.61 0.76 6.5 2.2 0.33 0.25 0.39 0.72 0.14 1.05s-0.72 0.39-1.05 0.14c-1.63-1.24-3.56-1.89-5.59-1.89-2.08 0-4.05 0.68-5.69 1.96-0.14 0.11-0.3 0.16-0.46 0.16z"/>
 <path d="m15.75 22.39c-0.3 0-0.58-0.18-0.7-0.47-0.15-0.38 0.03-0.82 0.42-0.98 1.93-0.78 3.5-2.14 4.54-3.94 1.02-1.76 1.42-3.76 1.15-5.78-0.05-0.41 0.24-0.79 0.65-0.84 0.4-0.05 0.79 0.24 0.84 0.65 0.3 2.35-0.16 4.68-1.34 6.73-1.21 2.1-3.04 3.68-5.29 4.59-0.08 0.02-0.17 0.04-0.27 0.04z"/>
</svg>
