<svg width="24" height="24" viewBox="0 0 24 24"  xmlns="http://www.w3.org/2000/svg">
<path d="M16.42 7.95012C18.86 10.3901 18.86 14.3501 16.42 16.7901C13.98 19.2301 10.02 19.2301 7.58 16.7901C5.14 14.3501 5.14 10.3901 7.58 7.95012C10.02 5.51012 13.98 5.51012 16.42 7.95012Z" />
<path d="M8.25003 22.3899C8.16003 22.3899 8.06003 22.3699 7.97003 22.3399C5.72003 21.4399 3.90003 19.8499 2.68003 17.7499C1.50003 15.6999 1.03003 13.3799 1.34003 11.0199C1.39003 10.6099 1.78003 10.3199 2.18003 10.3699C2.59003 10.4199 2.88003 10.7999 2.83003 11.2099C2.57003 13.2399 2.97003 15.2399 3.98003 16.9999C5.02003 18.7999 6.59003 20.1699 8.52003 20.9399C8.90003 21.0999 9.09003 21.5299 8.94003 21.9199C8.83003 22.2099 8.54003 22.3899 8.25003 22.3899Z" />
<path d="M5.8501 5.23035C5.6301 5.23035 5.41011 5.13035 5.26011 4.94035C5.00011 4.62035 5.0601 4.15035 5.3901 3.89035C7.2901 2.40035 9.5801 1.61035 12.0001 1.61035C14.3601 1.61035 16.6101 2.37035 18.5001 3.81035C18.8301 4.06035 18.8901 4.53035 18.6401 4.86035C18.3901 5.19035 17.9201 5.25035 17.5901 5.00035C15.9601 3.76035 14.0301 3.11035 12.0001 3.11035C9.9201 3.11035 7.9501 3.79035 6.3101 5.07035C6.1701 5.18035 6.0101 5.23035 5.8501 5.23035Z" />
<path d="M15.75 22.3896C15.45 22.3896 15.17 22.2096 15.05 21.9196C14.9 21.5396 15.08 21.0996 15.47 20.9396C17.4 20.1596 18.97 18.7996 20.01 16.9996C21.03 15.2396 21.43 13.2396 21.16 11.2196C21.11 10.8096 21.4 10.4296 21.81 10.3796C22.21 10.3296 22.6 10.6196 22.65 11.0296C22.95 13.3796 22.49 15.7096 21.31 17.7596C20.1 19.8596 18.27 21.4396 16.02 22.3496C15.94 22.3696 15.85 22.3896 15.75 22.3896Z" />
</svg>
