<?xml version="1.0" encoding="UTF-8"?>
<svg width="24" height="24" viewBox="0 0 24 24" xmlns="http://www.w3.org/2000/svg">
 <path d="m13.25 12.58v1.98c0 0.69-0.56 1.25-1.25 1.25s-1.25-0.56-1.25-1.25v-1.98c-0.36-0.22-0.64-0.54-0.84-0.92h-6.91c-0.55 0-1 0.45-1 1v3.53c0 3.21 2.6 5.81 5.81 5.81h8.37c3.22 0 5.82-2.6 5.82-5.81v-3.53c0-0.55-0.45-1-1-1h-6.91c-0.2 0.38-0.48 0.7-0.84 0.92z"/>
 <path d="m16.19 2h-8.38c-3.21 0-5.81 2.6-5.81 5.81v1.35c0 0.55 0.45 1 1 1h6.67c0.23-1.32 1.54-2.26 2.97-1.88 0.8 0.21 1.45 0.86 1.66 1.66 0.02 0.07 0.02 0.15 0.03 0.22h6.67c0.55 0 1-0.45 1-1v-1.35c0-3.21-2.6-5.81-5.81-5.81z"/>
</svg>
