<?xml version="1.0" encoding="UTF-8"?>
<svg width="24" height="24" viewBox="0 0 24 24" xmlns="http://www.w3.org/2000/svg">
 <path d="m16.19 2h-8.38c-3.64 0-5.81 2.17-5.81 5.81v8.37c0 3.65 2.17 5.82 5.81 5.82h8.37c3.64 0 5.81-2.17 5.81-5.81v-8.38c0.01-3.64-2.16-5.81-5.8-5.81zm2.81 6.24c0 0.55-0.45 1-1 1h-2c-0.41 0-0.75 0.34-0.75 0.75 0 0.42 0.34 0.75 0.75 0.75h2c0.55 0 1 0.45 1 1v0.51c0 0.55-0.45 1-1 1h-2c-0.41 0-0.75 0.34-0.75 0.75s0.34 0.75 0.75 0.75h2c0.55 0 1 0.45 1 1v0.25c0 1.66-1.34 3-3 3h-8c-1.66 0-3-1.34-3-3v-0.5c0-0.55 0.45-1 1-1h1.48c1.47 0 2.64-1.26 2.49-2.76-0.13-1.3-1.32-2.24-2.63-2.24h-1.34c-0.55 0-1-0.45-1-1v-0.5c0-1.66 1.34-3 3-3h8c1.66 0 3 1.34 3 3v0.24zm-14 3.76c0-0.55 0.45-1 1-1h1c0.55 0 1 0.45 1 1s-0.45 1-1 1h-1c-0.55 0-1-0.45-1-1z"/>
</svg>
