<svg width="24" height="24" viewBox="0 0 24 24"  xmlns="http://www.w3.org/2000/svg">
<path d="M10 3.75H11.25V8.5C11.25 8.91 11.59 9.25 12 9.25C12.41 9.25 12.75 8.91 12.75 8.5V3.75H14C14.41 3.75 14.75 3.41 14.75 3C14.75 2.59 14.41 2.25 14 2.25H10C9.59 2.25 9.25 2.59 9.25 3C9.25 3.41 9.59 3.75 10 3.75Z" />
<path d="M14 20.25H12.75V15.5C12.75 15.09 12.41 14.75 12 14.75C11.59 14.75 11.25 15.09 11.25 15.5V20.25H10C9.59 20.25 9.25 20.59 9.25 21C9.25 21.41 9.59 21.75 10 21.75H14C14.41 21.75 14.75 21.41 14.75 21C14.75 20.59 14.41 20.25 14 20.25Z" />
<path d="M2.83012 9.87994C2.95012 9.94994 3.08012 9.97993 3.20012 9.97993C3.46012 9.97993 3.71012 9.84994 3.85012 9.59994L4.48012 8.51994L8.60012 10.8999C8.71012 10.9699 8.84012 10.9999 8.97012 10.9999C9.23012 10.9999 9.48012 10.8699 9.62012 10.6199C9.83012 10.2699 9.70012 9.80994 9.35012 9.59994L5.23012 7.21993L5.85012 6.13993C6.06012 5.77993 5.93012 5.31993 5.58012 5.11993C5.22012 4.90993 4.76012 5.02993 4.56012 5.38993L2.56012 8.84994C2.35012 9.21994 2.47012 9.66994 2.83012 9.87994Z" />
<path d="M21.1699 14.1202C20.8099 13.9102 20.3499 14.0302 20.1499 14.3902L19.5199 15.4702L15.3999 13.1002C15.0399 12.8902 14.5799 13.0202 14.3799 13.3702C14.1699 13.7302 14.2999 14.1902 14.6499 14.3902L18.7599 16.7702L18.1399 17.8502C17.9299 18.2102 18.0599 18.6702 18.4099 18.8702C18.5299 18.9402 18.6599 18.9702 18.7799 18.9702C19.0399 18.9702 19.2899 18.8402 19.4299 18.5902L21.4299 15.1302C21.6499 14.7802 21.5299 14.3302 21.1699 14.1202Z" />
<path d="M18.7699 7.2197L14.6499 9.5997C14.2899 9.8097 14.1699 10.2697 14.3799 10.6197C14.5199 10.8597 14.7699 10.9997 15.0299 10.9997C15.1599 10.9997 15.2899 10.9697 15.3999 10.8997L19.5099 8.5197L20.1399 9.5997C20.2799 9.8397 20.5299 9.9797 20.7899 9.9797C20.9199 9.9797 21.0499 9.9497 21.1599 9.8797C21.5199 9.6697 21.6399 9.2097 21.4299 8.8597L19.4299 5.3997C19.2199 5.0397 18.7599 4.9197 18.4099 5.1297C18.0499 5.3397 17.9299 5.7997 18.1399 6.1497L18.7699 7.2197Z" />
<path d="M5.23012 16.7802L9.34012 14.4002C9.70012 14.1902 9.82012 13.7302 9.61012 13.3802C9.40012 13.0202 8.94012 12.9002 8.59012 13.1102L4.48012 15.4902L3.85012 14.4102C3.64012 14.0502 3.18012 13.9302 2.83012 14.1402C2.47012 14.3502 2.35012 14.8102 2.56012 15.1602L4.56012 18.6202C4.70012 18.8602 4.95012 19.0002 5.21012 19.0002C5.34012 19.0002 5.47012 18.9702 5.58012 18.9002C5.94012 18.6902 6.06012 18.2302 5.85012 17.8802L5.23012 16.7802Z" />
<path d="M15.5 12C15.5 12.64 15.33 13.23 15.03 13.75C14.42 14.8 13.29 15.5 12 15.5C10.71 15.5 9.58 14.8 8.97 13.75C8.67 13.23 8.5 12.64 8.5 12C8.5 11.36 8.67 10.77 8.97 10.25C9.58 9.2 10.71 8.5 12 8.5C13.29 8.5 14.42 9.2 15.03 10.25C15.33 10.77 15.5 11.36 15.5 12Z" />
</svg>
