<?xml version="1.0" encoding="UTF-8"?>
<svg width="24" height="24" viewBox="0 0 24 24" xmlns="http://www.w3.org/2000/svg">
 <path d="m18 2h-12c-1.66 0-3 1.33-3 2.97v10.91c0 1.64 1.34 2.97 3 2.97h0.76c0.8 0 1.56 0.31 2.12 0.87l1.71 1.69c0.78 0.77 2.05 0.77 2.83 0l1.71-1.69c0.56-0.56 1.33-0.87 2.12-0.87h0.75c1.66 0 3-1.33 3-2.97v-10.91c0-1.64-1.34-2.97-3-2.97zm-7.62 11.01c0.41 0 0.75 0.34 0.75 0.75s-0.34 0.75-0.75 0.75h-2.68c-0.44 0-0.85-0.21-1.11-0.57-0.25-0.34-0.31-0.76-0.19-1.16 0.35-1.07 1.21-1.65 1.97-2.17 0.8-0.54 1.25-0.88 1.25-1.46 0-0.52-0.42-0.94-0.94-0.94s-0.93 0.43-0.93 0.95c0 0.41-0.34 0.75-0.75 0.75s-0.75-0.34-0.75-0.75c0-1.34 1.09-2.44 2.44-2.44s2.44 1.09 2.44 2.44c0 1.41-1.06 2.13-1.91 2.71-0.53 0.36-1.03 0.7-1.28 1.15h2.44v-0.01zm6.62 0.07h-0.21v0.69c0 0.41-0.34 0.75-0.75 0.75s-0.75-0.34-0.75-0.75v-0.69h-1.96-0.01c-0.49 0-0.94-0.26-1.19-0.68-0.25-0.43-0.25-0.96 0-1.38 0.68-1.17 1.47-2.5 2.19-3.66 0.32-0.51 0.93-0.74 1.5-0.58 0.57 0.17 0.97 0.69 0.96 1.29v3.52h0.22c0.41 0 0.75 0.34 0.75 0.75s-0.34 0.74-0.75 0.74z"/>
 <path d="m15.29 11.58v-2.94c-0.59 0.96-1.2 1.99-1.75 2.93h1.75v0.01z"/>
</svg>
