<svg width="24" height="24" viewBox="0 0 24 24"  xmlns="http://www.w3.org/2000/svg">
<path d="M17.8801 6.11961L3.92009 20.0796C3.49009 20.5096 2.77009 20.4696 2.42009 19.9796C1.92009 19.2896 1.82009 18.3296 2.34009 17.4996L5.10009 13.0696C5.47009 12.4796 5.47009 11.5196 5.10009 10.9296L2.34009 6.49961C1.41009 5.01961 2.48009 3.09961 4.22009 3.09961H15.6701C16.3501 3.09961 17.1901 3.56961 17.5501 4.13961L18.0201 4.87961C18.2601 5.27961 18.2101 5.78961 17.8801 6.11961Z" />
<path d="M21.6301 13.11L16.4501 20.01C16.0901 20.5 15.2901 20.9 14.6701 20.9H7.51012C6.62012 20.9 6.17012 19.82 6.80012 19.19L18.3201 7.67999C18.7701 7.22999 19.5401 7.30999 19.8801 7.85999L21.7301 10.83C22.1301 11.47 22.0901 12.5 21.6301 13.11Z" />
</svg>
