<?xml version="1.0" encoding="UTF-8"?>
<svg width="24" height="24" viewBox="0 0 24 24" xmlns="http://www.w3.org/2000/svg">
 <path d="m19.83 8.7-4.53-4.53c-0.95-0.95-2.26-1.46-3.6-1.39l-5 0.24c-2 0.09-3.59 1.68-3.69 3.67l-0.24 5c-0.06 1.34 0.44 2.65 1.39 3.6l4.53 4.53c1.86 1.86 4.88 1.86 6.75 0l4.39-4.39c1.87-1.85 1.87-4.87 0-6.73zm-10.33 3.68c-1.58 0-2.88-1.29-2.88-2.88 0-1.59 1.3-2.88 2.88-2.88 1.58 0 2.88 1.29 2.88 2.88 0 1.59-1.3 2.88-2.88 2.88zm8.03 1.15-4 4c-0.15 0.15-0.34 0.22-0.53 0.22s-0.38-0.07-0.53-0.22c-0.29-0.29-0.29-0.77 0-1.06l4-4c0.29-0.29 0.77-0.29 1.06 0s0.29 0.77 0 1.06z"/>
</svg>
