<?xml version="1.0" encoding="UTF-8"?>
<svg width="24" height="24" viewBox="0 0 24 24" xmlns="http://www.w3.org/2000/svg">
 <path d="m17 3.75h-6.72c-1.41 0-2.75 0.59-3.7 1.64l-3.53 3.88c-1.41 1.55-1.41 3.91 0 5.46l3.53 3.88c0.95 1.04 2.29 1.64 3.7 1.64h6.72c2.76 0 5-2.24 5-5v-6.5c0-2.76-2.24-5-5-5zm-0.47 10.19c0.29 0.29 0.29 0.77 0 1.06-0.15 0.15-0.34 0.22-0.53 0.22s-0.38-0.07-0.53-0.22l-1.94-1.94-1.94 1.94c-0.15 0.15-0.34 0.22-0.53 0.22s-0.38-0.07-0.53-0.22c-0.29-0.29-0.29-0.77 0-1.06l1.94-1.94-1.94-1.94c-0.29-0.29-0.29-0.77 0-1.06s0.77-0.29 1.06 0l1.94 1.94 1.94-1.94c0.29-0.29 0.77-0.29 1.06 0s0.29 0.77 0 1.06l-1.94 1.94 1.94 1.94z"/>
</svg>
