<svg width="24" height="24" viewBox="0 0 24 24"  xmlns="http://www.w3.org/2000/svg">
<path d="M16.9999 3.75H10.2799C8.86993 3.75 7.52993 4.34 6.57993 5.39L3.04993 9.27C1.63993 10.82 1.63993 13.18 3.04993 14.73L6.57993 18.61C7.52993 19.65 8.86993 20.25 10.2799 20.25H16.9999C19.7599 20.25 21.9999 18.01 21.9999 15.25V8.75C21.9999 5.99 19.7599 3.75 16.9999 3.75ZM16.5299 13.94C16.8199 14.23 16.8199 14.71 16.5299 15C16.3799 15.15 16.1899 15.22 15.9999 15.22C15.8099 15.22 15.6199 15.15 15.4699 15L13.5299 13.06L11.5899 15C11.4399 15.15 11.2499 15.22 11.0599 15.22C10.8699 15.22 10.6799 15.15 10.5299 15C10.2399 14.71 10.2399 14.23 10.5299 13.94L12.4699 12L10.5299 10.06C10.2399 9.77 10.2399 9.29 10.5299 9C10.8199 8.71 11.2999 8.71 11.5899 9L13.5299 10.94L15.4699 9C15.7599 8.71 16.2399 8.71 16.5299 9C16.8199 9.29 16.8199 9.77 16.5299 10.06L14.5899 12L16.5299 13.94Z" />
</svg>
