<?xml version="1.0" encoding="UTF-8"?>
<svg width="24" height="24" viewBox="0 0 24 24" xmlns="http://www.w3.org/2000/svg">
 <path d="m18 2h-12c-1.66 0-3 1.33-3 2.97v10.91c0 1.64 1.34 2.98 3 2.98h0.76c0.79 0 1.56 0.31 2.12 0.87l1.71 1.69c0.78 0.77 2.04 0.77 2.82 0l1.71-1.69c0.56-0.56 1.33-0.87 2.12-0.87h0.76c1.66 0 3-1.34 3-2.98v-10.91c0-1.64-1.34-2.97-3-2.97zm-6 3.55c1.08 0 1.95 0.88 1.95 1.95 0 1.06-0.84 1.91-1.88 1.95h-0.15c-1.05-0.04-1.88-0.89-1.88-1.95 0.01-1.07 0.88-1.95 1.96-1.95zm2.75 9.14c-1.51 1.01-3.99 1.01-5.5 0-1.33-0.88-1.33-2.34 0-3.23 1.52-1.01 4-1.01 5.5 0 1.33 0.89 1.33 2.34 0 3.23z"/>
</svg>
