<?xml version="1.0" encoding="UTF-8"?>
<svg width="24" height="24" viewBox="0 0 24 24" xmlns="http://www.w3.org/2000/svg">
 <path d="m16.19 2h-8.38c-3.64 0-5.81 2.17-5.81 5.81v8.38c0 3.64 2.17 5.81 5.81 5.81h8.38c3.64 0 5.81-2.17 5.81-5.81v-8.38c0-3.64-2.17-5.81-5.81-5.81zm-6.22 12.9-2.25 2.25c-0.15 0.15-0.34 0.22-0.53 0.22s-0.39-0.07-0.53-0.22l-0.75-0.75c-0.3-0.29-0.3-0.77 0-1.06 0.29-0.29 0.76-0.29 1.06 0l0.22 0.22 1.72-1.72c0.29-0.29 0.76-0.29 1.06 0 0.29 0.29 0.29 0.77 0 1.06zm0-7-2.25 2.25c-0.15 0.15-0.34 0.22-0.53 0.22s-0.39-0.07-0.53-0.22l-0.75-0.75c-0.3-0.29-0.3-0.77 0-1.06 0.29-0.29 0.76-0.29 1.06 0l0.22 0.22 1.72-1.72c0.29-0.29 0.76-0.29 1.06 0 0.29 0.29 0.29 0.77 0 1.06zm7.59 8.72h-5.25c-0.41 0-0.75-0.34-0.75-0.75s0.34-0.75 0.75-0.75h5.25c0.42 0 0.75 0.34 0.75 0.75s-0.33 0.75-0.75 0.75zm0-7h-5.25c-0.41 0-0.75-0.34-0.75-0.75s0.34-0.75 0.75-0.75h5.25c0.42 0 0.75 0.34 0.75 0.75s-0.33 0.75-0.75 0.75z"/>
</svg>
