<svg width="24" height="24" viewBox="0 0 24 24"  xmlns="http://www.w3.org/2000/svg">
<path d="M16.8301 15.6402C17.5001 15.2002 18.3801 15.6802 18.3801 16.4802V17.7702C18.3801 19.0402 17.3901 20.4002 16.2001 20.8002L13.0101 21.8602C12.4501 22.0502 11.5401 22.0502 10.9901 21.8602L7.80012 20.8002C6.60012 20.4002 5.62012 19.0402 5.62012 17.7702V16.4702C5.62012 15.6802 6.50012 15.2002 7.16012 15.6302L9.22012 16.9702C10.0101 17.5002 11.0101 17.7602 12.0101 17.7602C13.0101 17.7602 14.0101 17.5002 14.8001 16.9702L16.8301 15.6402Z" />
<path d="M19.98 6.45957L13.99 2.52957C12.91 1.81957 11.13 1.81957 10.05 2.52957L4.03002 6.45957C2.10002 7.70957 2.10002 10.5396 4.03002 11.7996L5.63002 12.8396L10.05 15.7196C11.13 16.4296 12.91 16.4296 13.99 15.7196L18.38 12.8396L19.75 11.9396V14.9996C19.75 15.4096 20.09 15.7496 20.5 15.7496C20.91 15.7496 21.25 15.4096 21.25 14.9996V10.0796C21.65 8.78957 21.24 7.28957 19.98 6.45957Z" />
</svg>
