<svg width="24" height="24" viewBox="0 0 24 24"  xmlns="http://www.w3.org/2000/svg">
<path d="M21.7101 9.90035L19.3101 5.08035C18.8401 4.13035 17.5901 3.36035 16.5301 3.36035H7.4701C6.4101 3.36035 5.1601 4.13035 4.6901 5.08035L2.29009 9.90035C1.71009 11.0604 2.03009 12.7104 2.98009 13.5804L9.9101 19.8704C11.0601 20.9104 12.9301 20.9104 14.0801 19.8704L21.0101 13.5804C21.9701 12.7104 22.2901 11.0504 21.7101 9.90035ZM16.0001 9.25035H12.7501V14.5004C12.7501 14.9104 12.4101 15.2504 12.0001 15.2504C11.5901 15.2504 11.2501 14.9104 11.2501 14.5004V9.25035H8.0001C7.5901 9.25035 7.2501 8.91035 7.2501 8.50035C7.2501 8.09035 7.5901 7.75035 8.0001 7.75035H16.0001C16.4101 7.75035 16.7501 8.09035 16.7501 8.50035C16.7501 8.91035 16.4101 9.25035 16.0001 9.25035Z" />
</svg>
