<?xml version="1.0" encoding="UTF-8"?>
<svg width="24" height="24" viewBox="0 0 24 24" xmlns="http://www.w3.org/2000/svg">
 <path d="m21.71 9.8994-2.4-4.82c-0.47-0.95-1.72-1.72-2.78-1.72h-9.06c-1.06 0-2.31 0.77-2.78 1.72l-2.4 4.82c-0.58 1.16-0.26 2.81 0.69 3.68l6.93 6.29c1.15 1.04 3.02 1.04 4.17 0l6.93-6.29c0.96-0.87 1.28-2.53 0.7-3.68zm-5.71-0.64999h-3.25v5.25c0 0.41-0.34 0.75-0.75 0.75s-0.75-0.34-0.75-0.75v-5.25h-3.25c-0.41 0-0.75-0.34-0.75-0.75s0.34-0.75 0.75-0.75h8c0.41 0 0.75 0.34 0.75 0.75s-0.34 0.75-0.75 0.75z"/>
</svg>
