<?xml version="1.0" encoding="UTF-8"?>
<svg width="24" height="24" viewBox="0 0 24 24" xmlns="http://www.w3.org/2000/svg">
 <path d="m16.19 2h-8.38c-3.64 0-5.81 2.17-5.81 5.81v8.37c0 3.65 2.17 5.82 5.81 5.82h8.37c3.64 0 5.81-2.17 5.81-5.81v-8.38c0.01-3.64-2.16-5.81-5.8-5.81zm1.48 7.22c-0.19 0.37-0.63 0.52-1.01 0.34-1.23-0.62-2.56-0.96-3.91-1.06v7.79c0 0.41-0.34 0.75-0.75 0.75s-0.75-0.34-0.75-0.75v-7.79c-1.35 0.1-2.68 0.44-3.91 1.06-0.11 0.05-0.23 0.07-0.34 0.07-0.27 0-0.54-0.15-0.67-0.41-0.19-0.37-0.04-0.82 0.33-1.01 3.34-1.67 7.33-1.67 10.67 0 0.38 0.19 0.53 0.64 0.34 1.01z"/>
</svg>
