<?xml version="1.0" encoding="UTF-8"?>
<svg width="24" height="24" viewBox="0 0 24 24" xmlns="http://www.w3.org/2000/svg">
 <path d="m20.95 4.13c-0.29-0.42-0.66-0.79-1.08-1.08-0.95-0.69-2.19-1.05-3.68-1.05h-8.38c-0.2 0-0.4 0.01-0.59 0.03-3.28 0.21-5.22 2.34-5.22 5.78v8.38c0 1.49 0.36 2.73 1.05 3.68 0.29 0.42 0.66 0.79 1.08 1.08 0.82 0.6 1.86 0.95 3.09 1.03 0.19 0.01 0.39 0.02 0.59 0.02h8.38c3.64 0 5.81-2.17 5.81-5.81v-8.38c0-1.49-0.36-2.73-1.05-3.68zm-2.2 4.77c0 0.41-0.34 0.75-0.75 0.75s-0.75-0.34-0.75-0.75v-1.18c0-0.32-0.26-0.58-0.58-0.58h-3.92v9.72h1.78c0.41 0 0.75 0.34 0.75 0.75s-0.34 0.75-0.75 0.75h-5.06c-0.41 0-0.75-0.34-0.75-0.75s0.34-0.75 0.75-0.75h1.78v-9.72h-3.92c-0.32 0-0.58 0.26-0.58 0.58v1.18c0 0.41-0.34 0.75-0.75 0.75s-0.75-0.34-0.75-0.75v-1.18c0-1.15 0.93-2.08 2.08-2.08h9.33c1.15 0 2.08 0.93 2.08 2.08v1.18h0.01z"/>
</svg>
