<?xml version="1.0" encoding="UTF-8"?>
<svg width="24" height="24" viewBox="0 0 24 24" xmlns="http://www.w3.org/2000/svg">
 <path d="m13.75 12.75h-5.25v3.99c0 0.28 0.23 0.51 0.51 0.51h4.74c1.24 0 2.25-1.01 2.25-2.25s-1.01-2.25-2.25-2.25z"/>
 <path d="m14.5 9c0-1.24-1.01-2.25-2.25-2.25h-3.24c-0.28 0-0.51 0.23-0.51 0.51v3.99h3.75c1.24 0 2.25-1.01 2.25-2.25z"/>
 <path d="m20.95 4.13c-0.29-0.42-0.66-0.79-1.08-1.08-0.95-0.69-2.19-1.05-3.68-1.05h-8.38c-0.2 0-0.4 0.01-0.59 0.03-3.28 0.21-5.22 2.34-5.22 5.78v8.38c0 1.49 0.36 2.73 1.05 3.68 0.29 0.42 0.66 0.79 1.08 1.08 0.82 0.6 1.86 0.95 3.09 1.03 0.19 0.01 0.39 0.02 0.59 0.02h8.38c3.64 0 5.81-2.17 5.81-5.81v-8.38c0-1.49-0.36-2.73-1.05-3.68zm-7.2 14.62h-4.74c-1.11 0-2.01-0.9-2.01-2.01v-9.48c0-1.11 0.9-2.01 2.01-2.01h3.24c2.07 0 3.75 1.68 3.75 3.75 0 0.96-0.37 1.83-0.97 2.49 1.43 0.53 2.47 1.89 2.47 3.51 0 2.07-1.68 3.75-3.75 3.75z"/>
</svg>
