<?xml version="1.0" encoding="UTF-8"?>
<svg width="24" height="24" viewBox="0 0 24 24" xmlns="http://www.w3.org/2000/svg">
 <path d="m12 2c-5.52 0-10 4.48-10 10s4.48 10 10 10 10-4.48 10-10-4.48-10-10-10zm-4.06 8.56c0-1.86 1.51-3.38 3.38-3.38 1.87 0 3.38 1.51 3.38 3.38s-1.51 3.38-3.38 3.38c-1.87 0-3.38-1.51-3.38-3.38zm7.65 4.78-3 3c-0.15 0.15-0.34 0.22-0.53 0.22s-0.38-0.07-0.53-0.22c-0.29-0.29-0.29-0.77 0-1.06l3-3c0.29-0.29 0.77-0.29 1.06 0s0.3 0.77 0 1.06zm0.92-7.03c-0.55 0-1-0.45-1-1s0.44-1 1-1h0.01c0.55 0 1 0.45 1 1s-0.46 1-1.01 1z"/>
</svg>
