<?xml version="1.0" encoding="UTF-8"?>
<svg width="24" height="24" viewBox="0 0 24 24" xmlns="http://www.w3.org/2000/svg">
 <path d="m14 9.75h-1.25v-1.25c0-0.41-0.34-0.75-0.75-0.75s-0.75 0.34-0.75 0.75v1.25h-1.25c-0.41 0-0.75 0.34-0.75 0.75s0.34 0.75 0.75 0.75h4c0.41 0 0.75-0.34 0.75-0.75s-0.34-0.75-0.75-0.75z"/>
 <path d="m14 12.75h-4c-0.41 0-0.75 0.34-0.75 0.75s0.34 0.75 0.75 0.75h1.25v1.25c0 0.41 0.34 0.75 0.75 0.75s0.75-0.34 0.75-0.75v-1.25h1.25c0.41 0 0.75-0.34 0.75-0.75s-0.34-0.75-0.75-0.75z"/>
 <path d="m16.19 2h-8.37c-3.64 0-5.81 2.17-5.81 5.81v8.37c0 3.64 2.17 5.81 5.81 5.81h8.37c3.64 0 5.81-2.17 5.81-5.81v-8.37c0-3.64-2.17-5.81-5.81-5.81zm0.81 14.15c0 1.02-0.83 1.85-1.85 1.85h-6.3c-1.02 0-1.85-0.83-1.85-1.85v-8.3c0-1.02 0.82998-1.85 1.85-1.85h6.3c1.02 0 1.85 0.83 1.85 1.85v8.3z"/>
</svg>
