<svg width="24" height="24" viewBox="0 0 24 24"  xmlns="http://www.w3.org/2000/svg">
<path d="M16.6501 3.86035H9.91012V6.88035C9.91012 7.27035 9.59012 7.58035 9.21012 7.58035C8.83012 7.58035 8.51012 7.27035 8.51012 6.88035V3.86035H7.35012C3.40012 3.86035 2.10012 5.04035 2.01012 8.73035C2.00012 8.91035 2.08012 9.10035 2.21012 9.23035C2.34012 9.37035 2.51012 9.44035 2.71012 9.44035C4.11012 9.44035 5.26012 10.6004 5.26012 12.0004C5.26012 13.4004 4.11012 14.5604 2.71012 14.5604C2.52012 14.5604 2.34012 14.6304 2.21012 14.7704C2.08012 14.9004 2.00012 15.0904 2.01012 15.2704C2.10012 18.9604 3.40012 20.1404 7.35012 20.1404H8.51012V17.1204C8.51012 16.7304 8.83012 16.4204 9.21012 16.4204C9.59012 16.4204 9.91012 16.7304 9.91012 17.1204V20.1404H16.6501C20.7501 20.1404 22.0001 18.8904 22.0001 14.7904V9.21035C22.0001 5.11035 20.7501 3.86035 16.6501 3.86035ZM18.4701 11.9004L17.5401 12.8004C17.5001 12.8304 17.4901 12.8904 17.5001 12.9404L17.7201 14.2104C17.7601 14.4404 17.6701 14.6804 17.4701 14.8204C17.2801 14.9604 17.0301 14.9804 16.8201 14.8704L15.6701 14.2704C15.6301 14.2504 15.5701 14.2504 15.5301 14.2704L14.3801 14.8704C14.2901 14.9204 14.1901 14.9404 14.0901 14.9404C13.9601 14.9404 13.8401 14.9004 13.7301 14.8204C13.5401 14.6804 13.4401 14.4504 13.4801 14.2104L13.7001 12.9404C13.7101 12.8904 13.6901 12.8404 13.6601 12.8004L12.7301 11.9004C12.5601 11.7404 12.5001 11.4904 12.5701 11.2704C12.6401 11.0404 12.8301 10.8804 13.0701 10.8504L14.3501 10.6604C14.4001 10.6504 14.4401 10.6204 14.4701 10.5804L15.0401 9.42035C15.1501 9.21035 15.3601 9.08035 15.6001 9.08035C15.8401 9.08035 16.0501 9.21035 16.1501 9.42035L16.7201 10.5804C16.7401 10.6304 16.7801 10.6604 16.8301 10.6604L18.1101 10.8504C18.3501 10.8804 18.5401 11.0504 18.6101 11.2704C18.7001 11.4904 18.6401 11.7304 18.4701 11.9004Z" />
</svg>
