<?xml version="1.0" encoding="UTF-8"?>
<svg width="24" height="24" viewBox="0 0 24 24" xmlns="http://www.w3.org/2000/svg">
 <path d="m17.19 4.96v0.02c-0.25-0.01-0.5-0.02-0.77-0.02h-7.7l1.07-1.06c0.98003-0.99 2.06-1.9 3.31-1.9 1.26 0 2.34 0.91 3.32 1.9l0.56 0.56c0.14 0.13 0.21 0.31 0.21 0.5z"/>
 <path d="m20.84 13.17c0.39 0 0.7-0.32 0.7-0.72v-0.88c0-3.93-1.2-5.12-5.12-5.12h-8.84c-3.92 0-5.12 1.2-5.12 5.12v0.43c0 0.4 0.31 0.71 0.7 0.71 0.84 0 1.51 0.68 1.51 1.51s-0.67 1.52-1.51 1.52c-0.39 0-0.7 0.31-0.7 0.71v0.43c0 3.93 1.2 5.12 5.12 5.12h8.83c3.92 0 5.12-1.2 5.12-5.12 0-0.39-0.31-0.71-0.7-0.71-0.84 0-1.51-0.67-1.51-1.5 0.01-0.83 0.68-1.5 1.52-1.5zm-10.02 5.69c0 0.39-0.32 0.71-0.71 0.71-0.39004 0-0.71004-0.32-0.71004-0.71v-2.68c0-0.39 0.32-0.71 0.71004-0.71 0.39 0 0.71 0.32 0.71 0.71v2.68zm0-6.59c0 0.39-0.32 0.71-0.71 0.71-0.39004 0-0.71004-0.32-0.71004-0.71v-2.68c0-0.39 0.32-0.71 0.71004-0.71 0.39 0 0.71 0.32 0.71 0.71v2.68z"/>
</svg>
