<?xml version="1.0" encoding="UTF-8"?>
<svg width="24" height="24" viewBox="0 0 24 24" xmlns="http://www.w3.org/2000/svg">
 <path d="m19.85 12.94c0 0.8 0.65 1.46 1.45 1.46 0.38 0 0.7 0.31 0.7 0.69 0 3.84-1.16 5-5 5h-5.25v-1.59c0-0.39-0.3-0.71-0.68-0.74-0.02-0.01-0.05-0.01-0.07-0.01-0.41 0-0.75 0.34-0.75 0.75v1.59h-1.76c-1.88 0-2.85-1.41-3.73-3.54l-0.17-0.42c-0.14-0.36 0.03-0.77 0.39-0.91 0.37-0.14 0.66-0.43 0.81-0.81 0.16-0.37 0.16-0.78 0.01-1.15-0.32-0.77-1.2-1.14-1.98-0.83-0.17 0.08-0.37 0.08-0.54 0-0.17-0.07-0.3-0.21-0.38-0.39l-0.15-0.4c-1.49-3.62-0.84-5.17 2.78-6.67l2.45-1.01c0.36-0.15 0.77 0.02 0.91 0.38l2.18 4.75c-0.41 0-0.82 0.33-0.82 0.74v4.34c0 0.41 0.34 0.75 0.75 0.75 0.02 0 0.05 0 0.07-0.01 0.38-0.03 0.68-0.35 0.68-0.74v-4.34c0-0.39-0.3-0.71-0.68-0.74v-4.16h5.93c3.84 0 5 1.16 5 5v0.85c0 0.39-0.32 0.7-0.7 0.7-0.8 0-1.45 0.65-1.45 1.46z"/>
</svg>
