<?xml version="1.0" encoding="UTF-8"?>
<svg width="24" height="24" viewBox="0 0 24 24" xmlns="http://www.w3.org/2000/svg">
 <path d="m16.65 3.86h-6.74v3.02c0 0.39-0.32 0.7-0.7 0.7s-0.7-0.31-0.7-0.7v-3.02h-1.16c-3.95 0-5.25 1.18-5.34 4.87-0.01 0.18 0.07 0.37 0.2 0.5 0.13 0.14 0.3 0.21 0.5 0.21 1.4 0 2.55 1.16 2.55 2.56s-1.15 2.56-2.55 2.56c-0.19 0-0.37 0.07-0.5 0.21-0.13 0.13-0.21 0.32-0.2 0.5 0.09 3.69 1.39 4.87 5.34 4.87h1.16v-3.02c0-0.39 0.32-0.7 0.7-0.7s0.7 0.31 0.7 0.7v3.02h6.74c4.1 0 5.35-1.25 5.35-5.35v-5.58c0-4.1-1.25-5.35-5.35-5.35zm1.82 8.04-0.93 0.9c-0.04 0.03-0.05 0.09-0.04 0.14l0.22 1.27c0.04 0.23-0.05 0.47-0.25 0.61-0.19 0.14-0.44 0.16-0.65 0.05l-1.15-0.6c-0.04-0.02-0.1-0.02-0.14 0l-1.15 0.6c-0.09 0.05-0.19 0.07-0.29 0.07-0.13 0-0.25-0.04-0.36-0.12-0.19-0.14-0.29-0.37-0.25-0.61l0.22-1.27c0.01-0.05-0.01-0.1-0.04-0.14l-0.93-0.9c-0.17-0.16-0.23-0.41-0.16-0.63 0.07-0.23 0.26-0.39 0.5-0.42l1.28-0.19c0.05-0.01 0.09-0.04 0.12-0.08l0.57-1.16c0.11-0.21 0.32-0.34 0.56-0.34s0.45 0.13 0.55 0.34l0.57 1.16c0.02 0.05 0.06 0.08 0.11 0.08l1.28 0.19c0.24 0.03 0.43 0.2 0.5 0.42 0.09 0.22 0.03 0.46-0.14 0.63z"/>
</svg>
