<?xml version="1.0" encoding="UTF-8"?>
<svg width="24" height="24" viewBox="0 0 24 24" xmlns="http://www.w3.org/2000/svg">
 <path d="m17.39 15.67-4.04-3.67h-2.71l-4.04 3.67c-1.13 1.02-1.5 2.59-0.95 4.01 0.55 1.41 1.89 2.32 3.4 2.32h5.89c1.52 0 2.85-0.91 3.4-2.32 0.55-1.42 0.18-2.99-0.95-4.01zm-3.57 2.47h-3.64c-0.38002 0-0.68002-0.31-0.68002-0.68s0.31-0.68 0.68002-0.68h3.64c0.38 0 0.68 0.31 0.68 0.68s-0.31 0.68-0.68 0.68z"/>
 <path d="m18.35 4.32c-0.55-1.41-1.89-2.32-3.4-2.32h-5.9c-1.51 0-2.85 0.91-3.4 2.32-0.54 1.42-0.17 2.99 0.96 4.01l4.04 3.67h2.71l4.04-3.67c1.12-1.02 1.49-2.59 0.95-4.01zm-4.53 2.91h-3.64c-0.37998 0-0.67998-0.31-0.67998-0.68s0.31-0.68 0.67998-0.68h3.64c0.38 0 0.68 0.31 0.68 0.68s-0.31 0.68-0.68 0.68z"/>
</svg>
