<?xml version="1.0" encoding="UTF-8"?>
<svg width="24" height="24" viewBox="0 0 24 24" xmlns="http://www.w3.org/2000/svg">
 <path d="m14.89 3.45h-5.78c-0.4 0-0.72-0.32-0.72-0.72s0.32-0.73 0.72-0.73h5.78c0.4 0 0.72 0.32 0.72 0.72s-0.32 0.73-0.72 0.73z"/>
 <path d="m19.97 15h-2.94c-1.27 0-2.03 0.76-2.03 2.03v2.94c0 1.27 0.76 2.03 2.03 2.03h2.94c1.27 0 2.03-0.76 2.03-2.03v-2.94c0-1.27-0.76-2.03-2.03-2.03zm-0.28 4.46-1.18 0.68c-0.24 0.14-0.48 0.21-0.7 0.21-0.17 0-0.32-0.04-0.46-0.12-0.32-0.19-0.5-0.56-0.5-1.05v-1.36c0-0.49 0.18-0.86 0.5-1.05s0.73-0.15 1.16 0.09l1.18 0.68c0.42 0.25 0.66 0.59 0.66 0.96s-0.23 0.71-0.66 0.96z"/>
 <path d="m14 19.97v-2.94c0-1.81 1.22-3.03 3.03-3.03h2.94c0.23 0 0.45 0.02 0.66 0.06 0.02-0.24 0.04-0.48 0.04-0.73 0-4.79-3.89-8.68-8.67-8.68-4.78 0-8.67 3.89-8.67 8.68 0 4.78 3.89 8.67 8.67 8.67 0.85 0 1.66-0.14 2.44-0.36-0.28-0.47-0.44-1.03-0.44-1.67zm-1.25-6.97c0 0.41-0.34 0.75-0.75 0.75s-0.75-0.34-0.75-0.75v-5c0-0.41 0.34-0.75 0.75-0.75s0.75 0.34 0.75 0.75v5z"/>
</svg>
