<?xml version="1.0" encoding="UTF-8"?>
<svg width="24" height="24" viewBox="0 0 24 24" xmlns="http://www.w3.org/2000/svg">
 <path d="m15 15.5c0 3.59-2.91 6.5-6.5 6.5s-6.5-2.91-6.5-6.5 2.91-6.5 6.5-6.5c0.17 0 0.35 0.01 0.52 0.02 3.17 0.25 5.71 2.79 5.96 5.96 0.01 0.17 0.02 0.35 0.02 0.52z"/>
 <path d="m22 8.5c0 3.26-2.4 5.95-5.52 6.42v-0.06c-0.31-3.88-3.46-7.03-7.37-7.34h-0.03c0.47-3.12 3.16-5.52 6.42-5.52 3.59 0 6.5 2.91 6.5 6.5z"/>
 <path d="M5.59 2H3C2.45 2 2 2.45 2 3V5.59C2 6.48 3.08 6.93 3.71 6.3L6.3 3.71C6.92 3.08 6.48 2 5.59 2Z"/>
 <path d="m18.41 22h2.59c0.55 0 1-0.45 1-1v-2.59c0-0.89-1.08-1.34-1.71-0.71l-2.59 2.59c-0.62 0.63-0.18 1.71 0.71 1.71z"/>
</svg>
