<?xml version="1.0" encoding="UTF-8"?>
<svg width="24" height="24" viewBox="0 0 24 24" xmlns="http://www.w3.org/2000/svg">
 <path d="m8.93 2h-3.91c-2.02 0-3.02 1-3.02 3.02v3.92c0 2.06 1 3.06 3.02 3.01h3.92c2.06 0.05 3.06-0.95 3.01-3.02v-3.91c0.05-2.02-0.95-3.02-3.02-3.02zm0.08 7.76c-0.68 0-1.34-0.26-1.89-0.72-0.62 0.45-1.37 0.72-2.18 0.72-0.41 0-0.75-0.34-0.75-0.75s0.34-0.75 0.75-0.75c1.02 0 1.87-0.7 2.18-1.66h-2.18c-0.41 0-0.75-0.34-0.75-0.75s0.34-0.75 0.75-0.75h1.29c0.04-0.38 0.35-0.68 0.74-0.68s0.7 0.3 0.74 0.68h0.26 0.02 1.01c0.41 0 0.75 0.34 0.75 0.75s-0.33 0.75-0.75 0.75h-0.33c-0.09 0.48-0.28 0.93-0.53 1.34 0.27 0.2 0.56 0.32 0.87 0.32 0.41 0 0.75 0.34 0.75 0.75s-0.34 0.75-0.75 0.75z"/>
 <path d="m9 22.75c-4.27 0-7.75-3.48-7.75-7.75 0-0.41 0.34-0.75 0.75-0.75s0.75 0.34 0.75 0.75c0 2.96 2.06 5.44 4.83 6.09l-0.27-0.45c-0.21-0.36-0.1-0.82 0.26-1.03 0.35-0.21 0.82-0.1 1.03 0.26l1.05 1.75c0.14 0.23 0.14 0.52 0.01 0.75-0.14 0.23-0.39 0.38-0.66 0.38z"/>
 <path d="m22 9.75c-0.41 0-0.75-0.34-0.75-0.75 0-2.96-2.06-5.44-4.83-6.09l0.27 0.45c0.21 0.36 0.1 0.82-0.26 1.03-0.35 0.21-0.82 0.1-1.03-0.26l-1.05-1.75c-0.14-0.23-0.14-0.52-0.01-0.75 0.14-0.23 0.39-0.38 0.66-0.38 4.27 0 7.75 3.48 7.75 7.75 0 0.41-0.34 0.75-0.75 0.75z"/>
 <path d="m16.92 11.85c-2.8 0-5.08 2.27-5.08 5.08 0 2.8 2.27 5.08 5.08 5.08 2.8 0 5.08-2.27 5.08-5.08s-2.27-5.08-5.08-5.08zm2.48 7.49c-0.37 0.18-0.82 0.04-1.01-0.34l-0.17-0.34h-2.59l-0.17 0.34c-0.13 0.26-0.4 0.41-0.67 0.41-0.11 0-0.23-0.03-0.33-0.08-0.37-0.19-0.52-0.64-0.34-1.01l2.14-4.27c0.13-0.25 0.39-0.41 0.67-0.41s0.54 0.16 0.67 0.42l2.14 4.27c0.18 0.37 0.03 0.82-0.34 1.01z"/>
 <path d="m16.38 17.16h1.09l-0.55-1.09-0.54 1.09z"/>
</svg>
