<?xml version="1.0" encoding="UTF-8"?>
<svg width="24" height="24" viewBox="0 0 24 24" xmlns="http://www.w3.org/2000/svg">
 <path d="m21.07 5.23c-1.61-0.16-3.22-0.28-4.84-0.37v-0.01l-0.22-1.3c-0.15-0.92-0.37-2.3-2.71-2.3h-2.62c-2.33 0-2.55 1.32-2.71 2.29l-0.21 1.28c-0.93 0.06-1.86 0.12-2.79 0.21l-2.04 0.2c-0.42 0.04-0.72 0.41-0.68 0.82s0.4 0.71 0.82 0.67l2.04-0.2c5.24-0.52 10.52-0.32 15.82 0.21h0.08c0.38 0 0.71-0.29 0.75-0.68 0.03-0.41-0.27-0.78-0.69-0.82z"/>
 <path d="m19.23 8.14c-0.24-0.25-0.57-0.39-0.91-0.39h-12.64c-0.34 0-0.68 0.14-0.91 0.39s-0.36 0.59-0.34 0.94l0.62 10.26c0.11 1.52 0.25 3.42 3.74 3.42h6.42c3.49 0 3.63-1.89 3.74-3.42l0.62-10.25c0.02-0.36-0.11-0.7-0.34-0.95zm-5.57 9.61h-3.33c-0.41001 0-0.75001-0.34-0.75001-0.75s0.34-0.75 0.75001-0.75h3.33c0.41 0 0.75 0.34 0.75 0.75s-0.34 0.75-0.75 0.75zm0.84-4h-5c-0.41 0-0.75-0.34-0.75-0.75s0.34-0.75 0.75-0.75h5c0.41 0 0.75 0.34 0.75 0.75s-0.34 0.75-0.75 0.75z"/>
</svg>
