<?xml version="1.0" encoding="UTF-8"?>
<svg width="24" height="24" viewBox="0 0 24 24" xmlns="http://www.w3.org/2000/svg">
 <path d="m16.19 2h-8.37c-3.64 0-5.81 2.17-5.81 5.81v8.37c0 3.64 2.17 5.81 5.81 5.81h8.37c3.64 0 5.81-2.17 5.81-5.81v-8.37c0-3.64-2.17-5.81-5.81-5.81zm-5.42 14.49c0 0.67-0.55 1.22-1.22 1.22h-2.45c-0.67 0-1.22-0.55-1.22-1.22v-8.98c0-0.67 0.54998-1.22 1.22-1.22h2.45c0.67001 0 1.22 0.55 1.22 1.22v8.98zm7.35-3.84c0 0.54-0.44 0.98-0.98 0.98h-2.94c-0.54 0-0.98-0.44-0.98-0.98v-5.39c0-0.54 0.44-0.98001 0.98-0.98001h2.94c0.54 0 0.98 0.44001 0.98 0.98001v5.39z"/>
</svg>
