<?xml version="1.0" encoding="UTF-8"?>
<svg width="24" height="24" viewBox="0 0 24 24" xmlns="http://www.w3.org/2000/svg">
 <path d="m16.19 2h-8.38c-3.64 0-5.81 2.17-5.81 5.81v8.37c0 3.65 2.17 5.82 5.81 5.82h8.37c3.64 0 5.81-2.17 5.81-5.81v-8.38c0.01-3.64-2.16-5.81-5.8-5.81zm0.69 12.33c0 0.09-0.02 0.18-0.05 0.27-0.07 0.17-0.21 0.31-0.38 0.38-0.09 0.04-0.18 0.05-0.27 0.05h-1.86c-0.39 0-0.7-0.31-0.7-0.7s0.31-0.7 0.7-0.7h0.18l-2.11-2.11-1.02 1.52c-0.12 0.17-0.3 0.29-0.51 0.31s-0.41-0.05-0.56-0.2l-2.98-2.98c-0.27-0.27-0.27-0.71 0-0.99s0.71-0.27 0.99 0l2.38 2.38 1.02-1.52c0.12-0.17 0.3-0.29 0.51-0.31 0.22-0.02 0.41 0.05 0.56 0.2l2.72 2.72v-0.18c0-0.39 0.31-0.7 0.7-0.7s0.7 0.31 0.7 0.7v1.86h-0.02z"/>
</svg>
