<?xml version="1.0" encoding="UTF-8"?>
<svg width="24" height="24" viewBox="0 0 24 24" xmlns="http://www.w3.org/2000/svg">
 <path d="m16.19 2h-8.38c-3.64 0-5.81 2.17-5.81 5.81v8.37c0 3.65 2.17 5.82 5.81 5.82h8.37c3.64 0 5.81-2.17 5.81-5.81v-8.38c0.01-3.64-2.16-5.81-5.8-5.81zm0.69 9.53c0 0.39-0.31 0.7-0.7 0.7s-0.7-0.31-0.7-0.7v-0.18l-2.72 2.72c-0.15 0.15-0.35 0.22-0.56 0.2s-0.4-0.13-0.51-0.31l-1.02-1.52-2.38 2.38c-0.14 0.14-0.31 0.2-0.49 0.2s-0.36-0.07-0.49-0.2c-0.27-0.27-0.27-0.71 0-0.99l2.98-2.98c0.15-0.15 0.35-0.22 0.56-0.2s0.4 0.13 0.51 0.31l1.02 1.52 2.11-2.11h-0.18c-0.39 0-0.7-0.31-0.7-0.7s0.31-0.7 0.7-0.7h1.86c0.09 0 0.18 0.02 0.27 0.05 0.17 0.07 0.31 0.21 0.38 0.38 0.04 0.09 0.05 0.18 0.05 0.27v1.86h0.01z"/>
</svg>
