<svg width="24" height="24" viewBox="0 0 24 24"  xmlns="http://www.w3.org/2000/svg">
<path d="M11.2499 3.89961V12.9196C11.2499 13.2496 11.0899 13.5496 10.8199 13.7396L3.60993 18.7896C3.01993 19.1996 2.17993 18.8796 2.04993 18.1696C1.89993 17.3096 2.09993 16.2996 2.69993 15.2096L5.81993 9.59961L8.75993 4.30961C8.98993 3.89961 9.23993 3.53961 9.49993 3.22961C10.0999 2.52961 11.2499 2.97961 11.2499 3.89961Z" />
<path d="M20.39 18.7896L13.18 13.7396C12.91 13.5496 12.75 13.2496 12.75 12.9196V3.89961C12.75 2.97961 13.9 2.52961 14.5 3.22961C14.76 3.53961 15.01 3.89961 15.24 4.30961L18.18 9.59961L21.3 15.2096C21.9 16.2996 22.1 17.3096 21.95 18.1696C21.82 18.8796 20.98 19.1996 20.39 18.7896Z" />
<path d="M5.25994 19.14L11.4099 15.04C11.7399 14.82 12.2799 14.82 12.6099 15.04L18.7599 19.14C20.3899 20.23 20.1199 21.12 18.1599 21.12H5.84994C3.89994 21.11 3.62994 20.22 5.25994 19.14Z" />
</svg>
