<?xml version="1.0" encoding="UTF-8"?>
<svg width="24" height="24" viewBox="0 0 24 24" xmlns="http://www.w3.org/2000/svg">
 <path d="m11.25 3.8996v9.02c0 0.33-0.16 0.63-0.43 0.82l-7.21 5.05c-0.59 0.41-1.43 0.09-1.56-0.62-0.15-0.86 0.05-1.87 0.65-2.96l3.12-5.61 2.94-5.29c0.23-0.41 0.48-0.77 0.74-1.08 0.59997-0.7 1.75-0.25 1.75 0.67z"/>
 <path d="m20.39 18.79-7.21-5.05c-0.27-0.19-0.43-0.49-0.43-0.82v-9.02c0-0.92 1.15-1.37 1.75-0.67 0.26 0.31 0.51 0.67 0.74 1.08l2.94 5.29 3.12 5.61c0.6 1.09 0.8 2.1 0.65 2.96-0.13 0.71-0.97 1.03-1.56 0.62z"/>
 <path d="m5.2599 19.14 6.15-4.1c0.33-0.22 0.87-0.22 1.2 0l6.15 4.1c1.63 1.09 1.36 1.98-0.6 1.98h-12.31c-1.95-0.01-2.22-0.9-0.59-1.98z"/>
</svg>
