<?xml version="1.0" encoding="UTF-8"?>
<svg width="24" height="24" viewBox="0 0 24 24" xmlns="http://www.w3.org/2000/svg">
 <path d="m19.4 10.529c0.52-0.1 0.88 0.49 0.56 0.91l-6.95 8.85c-0.35 0.45-1.07 0.16-1.01-0.4l0.7-7.6c0.02-0.25 0.21-0.46 0.46-0.51l6.24-1.25z"/>
 <path d="m21.64 7.6892c0.22 0.24 0.0999 0.63-0.2101 0.7l-8.44 1.69c-0.55 0.11-0.91-0.55998-0.51-0.95998l5.0201-5.02c0.23-0.23 0.6-0.22 0.82 0.01l3.32 3.58z"/>
 <path d="m14.69 3.1891c0.47 0.06 0.6601 0.63 0.3301 0.97l-3.56 3.56c-0.21 0.21-0.5501 0.22-0.7801 0.02l-5.3399-4.75c-0.42-0.37-0.10005-1.06 0.44995-0.99l8.9 1.19z"/>
 <path d="m10.72 10.069c0.27 0.24 0.4 0.59 0.38 0.94l-0.86 10.46c-0.05 0.6-0.87997 0.72-1.1 0.16l-6.85-17.67c-0.22-0.56 0.46004-1.03 0.91004-0.63l7.52 6.74z"/>
</svg>
