<svg width="24" height="24" viewBox="0 0 24 24"  xmlns="http://www.w3.org/2000/svg">
<path d="M19.4001 10.5288C19.9201 10.4288 20.2801 11.0188 19.9601 11.4388L13.0101 20.2888C12.6601 20.7388 11.9401 20.4488 12.0001 19.8888L12.7001 12.2888C12.7201 12.0388 12.9101 11.8288 13.1601 11.7788L19.4001 10.5288Z" />
<path d="M21.6401 7.68922C21.8601 7.92922 21.74 8.31922 21.43 8.38922L12.99 10.0792C12.44 10.1892 12.08 9.51922 12.48 9.11922L17.5001 4.09922C17.7301 3.86922 18.1001 3.87922 18.3201 4.10922L21.6401 7.68922Z" />
<path d="M14.69 3.18909C15.16 3.24909 15.3501 3.81909 15.0201 4.15909L11.4601 7.71909C11.2501 7.92909 10.91 7.93909 10.68 7.73909L5.34006 2.98909C4.92006 2.61909 5.24001 1.92909 5.79001 1.99909L14.69 3.18909Z" />
<path d="M10.72 10.069C10.99 10.309 11.12 10.659 11.1 11.009L10.24 21.469C10.19 22.069 9.36003 22.189 9.14003 21.629L2.28999 3.95896C2.06999 3.39896 2.75003 2.92896 3.20003 3.32896L10.72 10.069Z" />
</svg>
