<?xml version="1.0" encoding="UTF-8"?>
<svg width="24" height="24" viewBox="0 0 24 24" xmlns="http://www.w3.org/2000/svg">
 <path d="m14 2.92v8.31c0 1.02-0.83 1.85-1.85 1.85h-9.15c-0.55 0-1-0.45-1-1v-6.39c0-2.04 1.65-3.69 3.69-3.69h7.38c0.52 0 0.93 0.41 0.93 0.92z"/>
 <path d="m21.5 15.5c0.28 0 0.5 0.22 0.5 0.5v1c0 1.66-1.34 3-3 3 0-1.65-1.35-3-3-3s-3 1.35-3 3h-2c0-1.65-1.35-3-3-3s-3 1.35-3 3c-1.66 0-3-1.34-3-3v-2c0-0.55 0.45-1 1-1h9.5c1.38 0 2.5-1.12 2.5-2.5v-5.5c0-0.55 0.45-1 1-1h0.84c0.72 0 1.38 0.39 1.74 1.01l0.64 1.12c0.09 0.16-0.03 0.37-0.22 0.37-1.38 0-2.5 1.12-2.5 2.5v3c0 1.38 1.12 2.5 2.5 2.5h2.5z"/>
 <path d="m8 22c1.1046 0 2-0.8954 2-2s-0.89543-2-2-2-2 0.8954-2 2 0.89543 2 2 2z"/>
 <path d="m16 22c1.1046 0 2-0.8954 2-2s-0.8954-2-2-2-2 0.8954-2 2 0.8954 2 2 2z"/>
 <path d="m22 12.53v1.47h-3c-0.55 0-1-0.45-1-1v-3c0-0.55 0.45-1 1-1h1.29l1.45 2.54c0.17 0.3 0.26 0.64 0.26 0.99z"/>
</svg>
