<?xml version="1.0" encoding="UTF-8"?>
<svg width="24" height="24" viewBox="0 0 24 24" xmlns="http://www.w3.org/2000/svg">
 <path d="m21.5 15.5c0.28 0 0.5 0.22 0.5 0.5v1c0 1.66-1.34 3-3 3 0-1.65-1.35-3-3-3s-3 1.35-3 3h-2c0-1.65-1.35-3-3-3s-3 1.35-3 3c-1.66 0-3-1.34-3-3v-2c0-0.55 0.45-1 1-1h9.5c1.38 0 2.5-1.12 2.5-2.5v-5.5c0-0.55 0.45-1 1-1h0.84c0.72 0 1.38 0.39 1.74 1.01l0.64 1.12c0.09 0.16-0.03 0.37-0.22 0.37-1.38 0-2.5 1.12-2.5 2.5v3c0 1.38 1.12 2.5 2.5 2.5h2.5z"/>
 <path d="m8 22c1.1046 0 2-0.8954 2-2s-0.89543-2-2-2-2 0.8954-2 2 0.89543 2 2 2z"/>
 <path d="m16 22c1.1046 0 2-0.8954 2-2s-0.8954-2-2-2-2 0.8954-2 2 0.8954 2 2 2z"/>
 <path d="m22 12.53v1.47h-3c-0.55 0-1-0.45-1-1v-3c0-0.55 0.45-1 1-1h1.29l1.45 2.54c0.17 0.3 0.26 0.64 0.26 0.99z"/>
 <path d="m13.08 2h-7.39c-1.79 0-3.29 1.28-3.62 2.98h4.37c0.38 0 0.68 0.31 0.68 0.69s-0.3 0.68-0.68 0.68h-4.44v1.38h2.6c0.38 0 0.69 0.31 0.69 0.69s-0.31 0.68-0.69 0.68h-2.6v1.38h0.77c0.38 0 0.69 0.31 0.69 0.69s-0.31 0.68-0.69 0.68h-0.77v0.23c0 0.55 0.45 1 1 1h9.15c1.02 0 1.85-0.83 1.85-1.85v-8.31c0-0.51-0.41-0.92-0.92-0.92z"/>
 <path d="m2.07 4.98h-1.13c-0.38 0-0.69 0.31-0.69 0.69s0.31 0.68 0.69 0.68h1.06v-0.66c0-0.24 0.03-0.48 0.07-0.71z"/>
 <path d="m1.85 7.73h-0.91c-0.38 0-0.69 0.31-0.69 0.69s0.31 0.68 0.69 0.68h1.06v-1.37h-0.15z"/>
 <path d="m1.85 10.48h-0.91c-0.38 0-0.69 0.31-0.69 0.69s0.31 0.68 0.69 0.68h1.06v-1.37h-0.15z"/>
</svg>
