<svg width="20" height="20" viewBox="0 0 20 20"  xmlns="http://www.w3.org/2000/svg">
<path d="M18.1248 4.9668C17.5271 5.22462 16.8767 5.41016 16.2068 5.48243C16.9023 5.06922 17.4232 4.41641 17.6716 3.64649C17.019 4.03475 16.304 4.30701 15.5583 4.45118C15.2467 4.11803 14.8698 3.85262 14.4511 3.67151C14.0324 3.49039 13.5809 3.39744 13.1248 3.39845C11.2791 3.39845 9.79468 4.89454 9.79468 6.73048C9.79468 6.98829 9.82593 7.2461 9.87671 7.49415C7.11304 7.34962 4.64819 6.0293 3.00952 4.00782C2.71094 4.51781 2.55447 5.0985 2.5564 5.68946C2.5564 6.84571 3.14429 7.86524 4.04077 8.46485C3.51246 8.44405 2.99652 8.29883 2.53491 8.04102V8.08204C2.53491 9.70118 3.67944 11.043 5.20483 11.3516C4.91842 11.426 4.62379 11.464 4.32788 11.4649C4.11108 11.4649 3.90601 11.4434 3.69897 11.4141C4.12085 12.7344 5.34936 13.6934 6.81226 13.7246C5.66772 14.6211 4.23413 15.1484 2.67749 15.1484C2.39819 15.1484 2.14038 15.1387 1.8728 15.1074C3.34937 16.0547 5.10132 16.6016 6.98804 16.6016C13.113 16.6016 16.4646 11.5274 16.4646 7.12305C16.4646 6.97852 16.4646 6.83399 16.4548 6.68946C17.1033 6.21485 17.6716 5.62696 18.1248 4.9668Z" />
</svg>
