<?xml version="1.0" encoding="UTF-8"?>
<svg width="24" height="24" viewBox="0 0 24 24" xmlns="http://www.w3.org/2000/svg">
 <path d="m20.5 2h-15.46c-0.33 0-0.64998 0.17001-0.82998 0.45001l-1.54 2.3c-0.11 0.16-0.17 0.35999-0.17 0.54999v12.7c0 0.55 0.45 1 1 1h2c0.55 0 1 0.45 1 1v1c0 0.55 0.45 1 1 1h1.46c0.33 0 0.64998-0.17 0.82998-0.45l1.41-2.11c0.19-0.28 0.5-0.45 0.83-0.45h4.05c0.27 0 0.52-0.11 0.71-0.29l4.41-4.41c0.19-0.19 0.29-0.44 0.29-0.71v-10.58c0.01-0.55-0.44-1-0.99-1zm-9.71 10.86c0 0.32-0.26 0.57-0.57 0.57h-1.14c-0.32 0-0.57001-0.26-0.57001-0.57v-5.71c0-0.32 0.26001-0.57 0.57001-0.57h1.14c0.32 0 0.57 0.26 0.57 0.57v5.71zm5.71 0c0 0.32-0.26 0.57-0.57 0.57h-1.14c-0.32 0-0.57-0.26-0.57-0.57v-5.71c0-0.32 0.26-0.57 0.57-0.57h1.14c0.32 0 0.57 0.26 0.57 0.57v5.71z" clip-rule="evenodd" fill-rule="evenodd"/>
</svg>
