<?xml version="1.0" encoding="UTF-8"?>
<svg width="24" height="24" viewBox="0 0 24 24" xmlns="http://www.w3.org/2000/svg">
 <path d="m18 6.3398c-0.14 0-0.58 0.03002-0.58 0.45002 0 0.29 0.22 0.45999 0.58 0.45999s0.58-0.16999 0.58-0.45999c0-0.33-0.3-0.45002-0.58-0.45002z"/>
 <path d="m18 5.5098c0.27 0 0.44-0.15001 0.44-0.38001 0-0.28-0.23-0.36999-0.44-0.36999s-0.44 0.09999-0.44 0.36999c0 0.23 0.17 0.38001 0.44 0.38001z"/>
 <path d="m18 2c-2.1 0-3.81 1.61-3.98 3.66-0.02 0.11-0.02 0.23-0.02 0.34 0 2.21 1.79 4 4 4 0.35 0 0.68-0.04 1-0.13 1.73-0.44 3-2.01 3-3.87 0-2.21-1.79-4-4-4zm0 6.2c-0.99 0-1.6-0.5-1.6-1.31 0-0.39 0.18-0.74001 0.5-0.98001-0.24-0.21-0.37-0.50001-0.37-0.83001 0-0.77 0.59-1.28 1.46-1.28s1.46 0.52 1.46 1.28c0 0.33-0.12 0.62001-0.37 0.83001 0.33 0.23 0.51 0.58001 0.51 0.98001 0.01 0.81-0.6 1.31-1.59 1.31z"/>
 <path d="m18 11.5c-1.15 0-2.22-0.35-3.1-0.96-0.07-0.05-0.16 0-0.16 0.08l0.01 4.82c0 0.42-0.34 0.75-0.75 0.75s-0.75-0.33-0.75-0.75v-4.94c0-0.33 0.22-0.60999 0.52-0.70999 0.08-0.03 0.13-0.14002 0.07-0.20002-0.83-0.96-1.34-2.21-1.34-3.58 0-0.17 0.01-0.35002 0.03-0.52002 0-0.04 0.01-0.06999 0.01-0.10999 0.03-0.23-0.09-0.45002-0.29-0.55002l-0.9-0.42999c-0.54-0.25-1.16-0.25-1.7 0l-6.5 3.06c-0.7 0.33-1.15 1.03-1.15 1.81v7.46c0 0.78 0.44999 1.48 1.15 1.81l6.5 3.06c0.54001 0.25 1.16 0.25 1.7 0l6.5-3.06c0.7-0.33 1.15-1.03 1.15-1.81v-4.71c0-0.31-0.29-0.55-0.6-0.53-0.13 0.01-0.26 0.01-0.4 0.01zm-6.25 2c0 1.52-1.23 2.75-2.75 2.75s-2.75-1.23-2.75-2.75v-3c0-0.41 0.34-0.75 0.75-0.75s0.75 0.34 0.75 0.75v3c0 0.69 0.56 1.25 1.25 1.25s1.25-0.56 1.25-1.25v-3c0-0.41 0.34-0.75 0.75-0.75s0.75 0.34 0.75 0.75v3z"/>
</svg>
