<?xml version="1.0" encoding="UTF-8"?>
<svg width="24" height="24" viewBox="0 0 24 24" xmlns="http://www.w3.org/2000/svg">
 <path d="m17.45 17.3c-1.68 0-3.23-0.79-4.24-2.18-0.24-0.33-0.17-0.8 0.16-1.05s0.8-0.17 1.05 0.16c0.73 0.99 1.83 1.56 3.03 1.56 2.09 0 3.8-1.7 3.8-3.8 0-2.1-1.7-3.8-3.8-3.8-1.42 0-2.76 0.76-3.49 1.97l-2.65 4.41c-1 1.67-2.83 2.7-4.77 2.7-2.92 0-5.3-2.38-5.3-5.3 0-2.92 2.38-5.3 5.3-5.3 1.68 0 3.23 0.79 4.24 2.18 0.24 0.33 0.17 0.8-0.16 1.05-0.34 0.24998-0.80001 0.16998-1.05-0.16-0.72-0.97-1.82-1.54-3.02-1.54-2.09 0-3.8 1.7-3.8 3.8 0 2.1 1.7 3.8 3.8 3.8 1.42 0 2.76-0.76 3.49-1.97l2.65-4.41c1-1.67 2.83-2.7 4.77-2.7 2.92 0 5.3 2.38 5.3 5.3 0 2.92-2.39 5.28-5.31 5.28z"/>
 <path d="m6.5 14c1.1046 0 2-0.8954 2-2s-0.89543-2-2-2-2 0.8954-2 2 0.89543 2 2 2z"/>
 <path d="m17.5 14c1.1046 0 2-0.8954 2-2s-0.8954-2-2-2-2 0.8954-2 2 0.8954 2 2 2z"/>
</svg>
