<?xml version="1.0" encoding="UTF-8"?>
<svg width="24" height="24" viewBox="0 0 24 24" xmlns="http://www.w3.org/2000/svg">
 <path d="m12.75 14.52h0.23c0.33 0 0.61-0.3 0.61-0.67 0-0.47-0.11-0.53-0.43-0.64l-0.41-0.14v1.45z"/>
 <path d="m12 2c-5.52 0-10 4.48-10 10s4.48 10 10 10 10-4.48 10-10-4.48-10-10-10zm-4.42 14.42c0.29 0.29 0.29 0.77 0 1.06-0.15 0.15-0.34 0.22-0.53 0.22s-0.38-0.07-0.53-0.22c-1.46-1.46-2.27-3.41-2.27-5.48s0.80999-4.02 2.27-5.48c0.29-0.29 0.77-0.29 1.06 0s0.29 0.77 0 1.06c-1.18 1.18-1.83 2.75-1.83 4.42s0.64999 3.24 1.83 4.42zm6.07-4.64c0.96 0.34 1.43 1.01 1.43 2.06 0 1.2-0.94 2.17-2.11 2.17h-0.23v0.18c0 0.41-0.34 0.75-0.75 0.75s-0.75-0.34-0.75-0.75v-0.18h-0.03c-1.27 0-2.31-1.07-2.31-2.38 0-0.41 0.34-0.75 0.75-0.75 0.41001 0 0.75001 0.34 0.75001 0.75 0 0.49 0.36 0.88 0.81 0.88h0.03v-1.98l-0.9-0.32c-0.96-0.34-1.43-1.01-1.43-2.06 0-1.2 0.93999-2.17 2.11-2.17h0.23v-0.18c0-0.41 0.34-0.75 0.75-0.75s0.75 0.34 0.75 0.75v0.18h0.03c1.27 0 2.31 1.07 2.31 2.38 0 0.41-0.34 0.75-0.75 0.75s-0.75-0.34-0.75-0.75c0-0.49-0.36-0.88-0.81-0.88h-0.03v1.98l0.9 0.32zm3.83 5.7c-0.15 0.15-0.34 0.22-0.53 0.22s-0.38-0.07-0.53-0.22c-0.29-0.29-0.29-0.77 0-1.06 1.18-1.18 1.83-2.75 1.83-4.42s-0.65-3.24-1.83-4.42c-0.29-0.29-0.29-0.77 0-1.06s0.77-0.29 1.06 0c1.46 1.46 2.27 3.41 2.27 5.48s-0.81 4.02-2.27 5.48z"/>
 <path d="m10.42 10.16c0 0.47 0.11 0.53 0.43 0.64l0.41 0.14v-1.46h-0.23c-0.34 0-0.61 0.31-0.61 0.68003z"/>
</svg>
