<?xml version="1.0" encoding="UTF-8"?>
<svg width="24" height="24" viewBox="0 0 24 24" xmlns="http://www.w3.org/2000/svg">
 <path d="m19.51 5.85-5.94-3.43c-0.97-0.56-2.17-0.56-3.15 0l-5.93 3.43c-0.97 0.56-1.57 1.6-1.57 2.73v6.84c0 1.12 0.6 2.16 1.57 2.73l5.94 3.43c0.97 0.56 2.17 0.56 3.15 0l5.94-3.43c0.97-0.56 1.57-1.6 1.57-2.73v-6.84c-0.01-1.13-0.61-2.16-1.58-2.73zm-7.51 1.49c1.29 0 2.33 1.04 2.33 2.33s-1.04 2.33-2.33 2.33-2.33-1.04-2.33-2.33c0-1.28 1.04-2.33 2.33-2.33zm2.68 9.32h-5.36c-0.81 0-1.28-0.9-0.83-1.57 0.68-1.01 2-1.69 3.51-1.69s2.83 0.68 3.51 1.69c0.45 0.66-0.03 1.57-0.83 1.57z"/>
</svg>
