<?xml version="1.0" encoding="UTF-8"?>
<svg width="24" height="24" viewBox="0 0 24 24" xmlns="http://www.w3.org/2000/svg">
 <path d="m12 14c-5.01 0-9.09 3.36-9.09 7.5 0 0.28 0.22 0.5 0.5 0.5h17.18c0.28 0 0.5-0.22 0.5-0.5 0-4.14-4.08-7.5-9.09-7.5z"/>
 <path d="m15.71 3.66c-0.9-1.02-2.24-1.66-3.71-1.66-1.4 0-2.68 0.57-3.59 1.51-0.87 0.9-1.41 2.14-1.41 3.49 0 0.94 0.26 1.82 0.73 2.57 0.25 0.43 0.57 0.82 0.95 1.14 0.87 0.8 2.03 1.29 3.32 1.29 1.83 0 3.41-0.98 4.28-2.43 0.26-0.43 0.46-0.91 0.57-1.41 0.1-0.37 0.15-0.76 0.15-1.16 0-1.28-0.49-2.45-1.29-3.34zm-1.84 4.26h-3.74c-0.52 0-0.94-0.42-0.94-0.94s0.42-0.94 0.94-0.94h3.74c0.52 0 0.94 0.42 0.94 0.94s-0.42 0.94-0.94 0.94z"/>
</svg>
