<?xml version="1.0" encoding="UTF-8"?>
<svg width="24" height="24" viewBox="0 0 24 24" xmlns="http://www.w3.org/2000/svg">
 <path d="m12 14c-5.01 0-9.09 3.36-9.09 7.5 0 0.28 0.22 0.5 0.5 0.5h17.18c0.28 0 0.5-0.22 0.5-0.5 0-4.14-4.08-7.5-9.09-7.5z"/>
 <path d="m16.72 10.35-0.96-0.96c0.5-0.75 0.79-1.65 0.79-2.62 0-2.64-2.14-4.77-4.77-4.77s-4.78 2.14-4.78 4.77 2.14 4.77 4.77 4.77c0.97 0 1.87-0.29 2.62-0.79l0.96 0.96c0.19 0.19 0.44 0.28 0.68 0.28 0.25 0 0.5-0.09 0.68-0.28 0.38-0.37 0.38-0.98 0.01-1.36z"/>
</svg>
