<?xml version="1.0" encoding="UTF-8"?>
<svg width="24" height="24" viewBox="0 0 24 24" xmlns="http://www.w3.org/2000/svg">
 <path d="m12 14c-5.01 0-9.09 3.36-9.09 7.5 0 0.28 0.22 0.5 0.5 0.5h17.18c0.28 0 0.5-0.22 0.5-0.5 0-4.14-4.08-7.5-9.09-7.5z"/>
 <path d="m16.85 5.8001c-0.12-0.49-0.32-0.97-0.6-1.41-0.19-0.32-0.44-0.64-0.71-0.92-0.9-0.9-2.07-1.39-3.27-1.45-1.36-0.09-2.75 0.41-3.8 1.45-0.99 0.98-1.49 2.29-1.47 3.61 0.01 1.25 0.51 2.5 1.46 3.46 0.66 0.66 1.47 1.1 2.34 1.3 0.47 0.12 0.97 0.18 1.47 0.14 1.19-0.05 2.35-0.52 3.26-1.44 1.29-1.29 1.73-3.1 1.32-4.74zm-2.85 3.2c-0.36 0.36-0.96 0.36-1.32 0l-0.69-0.69-0.66 0.66c-0.36 0.36-0.96 0.36-1.32 0-0.37001-0.37-0.37001-0.96-0.01-1.32l0.66-0.66-0.64-0.62c-0.36001-0.37-0.36001-0.96 0-1.34 0.37-0.36 0.96-0.36 1.34 0l0.62 0.64 0.67-0.67c0.36-0.36 0.95-0.36 1.32 0 0.36 0.36 0.36 0.96 0 1.32l-0.66 0.66 0.69 0.7c0.36 0.36 0.36 0.96 0 1.32z"/>
</svg>
