<?xml version="1.0" encoding="UTF-8"?>
<svg width="24" height="24" viewBox="0 0 24 24" xmlns="http://www.w3.org/2000/svg">
 <path d="m12 2c-2.76 0-5 2.24-5 5s2.24 5 5 5 5-2.24 5-5-2.24-5-5-5zm2.17 4.51-2.7 2.7c-0.1 0.1-0.31 0.2-0.45 0.23l-1.03 0.14c-0.38 0.05-0.64-0.21-0.58-0.58l0.15-1.03c0.02-0.14 0.12-0.35 0.23-0.45l2.7-2.7c0.46-0.46 1.01-0.68 1.69 0 0.67 0.69 0.45 1.23-0.01 1.69z"/>
 <path d="m12 14c-5.01 0-9.09 3.36-9.09 7.5 0 0.28 0.22 0.5 0.5 0.5h17.18c0.28 0 0.5-0.22 0.5-0.5 0-4.14-4.08-7.5-9.09-7.5z"/>
</svg>
