<?xml version="1.0" encoding="UTF-8"?>
<svg width="24" height="24" viewBox="0 0 24 24" xmlns="http://www.w3.org/2000/svg">
 <path d="m18 2h-12c-1.66 0-3 1.33-3 2.97v10.91c0 1.64 1.34 2.97 3 2.97h0.76c0.8 0 1.56 0.31 2.12 0.87l1.71 1.69c0.78 0.77 2.05 0.77 2.83 0l1.71-1.69c0.56-0.56 1.33-0.87 2.12-0.87h0.75c1.66 0 3-1.33 3-2.97v-10.91c0-1.64-1.34-2.97-3-2.97zm-6 3.75c1.29 0 2.33 1.04 2.33 2.33s-1.04 2.33-2.33 2.33-2.33-1.05-2.33-2.33c0-1.29 1.04-2.33 2.33-2.33zm2.68 9.31h-5.36c-0.81 0-1.28-0.9-0.83-1.57 0.68-1.01 2-1.69 3.51-1.69s2.83 0.68 3.51 1.69c0.45 0.67-0.03 1.57-0.83 1.57z"/>
</svg>
