<?xml version="1.0" encoding="UTF-8"?>
<svg width="24" height="24" viewBox="0 0 24 24" xmlns="http://www.w3.org/2000/svg">
 <path d="m16.19 2h-8.38c-3.64 0-5.81 2.17-5.81 5.81v8.38c0 2.81 1.29 4.74 3.56 5.47 0.66 0.23 1.42 0.34 2.25 0.34h8.38c0.83 0 1.59-0.11 2.25-0.34 2.27-0.73 3.56-2.66 3.56-5.47v-8.38c0-3.64-2.17-5.81-5.81-5.81zm4.31 14.19c0 2.14-0.84 3.49-2.53 4.05-0.97-1.91-3.27-3.27-5.97-3.27s-4.99 1.35-5.97 3.27h-0.01c-1.67-0.54-2.52-1.9-2.52-4.04v-8.39c0-2.82 1.49-4.31 4.31-4.31h8.38c2.82 0 4.31 1.49 4.31 4.31v8.38z"/>
 <path d="m12 8c-1.98 0-3.58 1.6-3.58 3.58s1.6 3.59 3.58 3.59 3.58-1.61 3.58-3.59-1.6-3.58-3.58-3.58z"/>
</svg>
