<?xml version="1.0" encoding="UTF-8"?>
<svg width="24" height="24" viewBox="0 0 24 24" xmlns="http://www.w3.org/2000/svg">
 <path d="m12 14c-5.01 0-9.09 3.36-9.09 7.5 0 0.28 0.22 0.5 0.5 0.5h17.18c0.28 0 0.5-0.22 0.5-0.5 0-4.14-4.08-7.5-9.09-7.5z"/>
 <path d="m12 2c-1.18 0-2.26 0.41-3.12 1.1-1.15 0.91-1.88 2.32-1.88 3.9 0 0.94 0.26 1.82 0.73 2.57 0.86 1.45 2.44 2.43 4.27 2.43 1.26 0 2.41-0.46 3.29-1.25 0.39-0.33 0.73-0.73 0.99-1.18 0.46-0.75 0.72-1.63 0.72-2.57 0-2.76-2.24-5-5-5zm2.59 4.46-2.67 2.46c-0.18 0.17-0.41 0.25-0.64 0.25-0.24 0-0.48-0.09-0.66-0.27l-1.23-1.24c-0.37-0.37-0.37-0.96 0-1.33s0.96-0.37 1.33 0l0.59 0.59 2.01-1.85c0.38-0.35 0.97-0.33 1.32 0.05 0.35 0.39 0.33 0.99-0.05 1.34z"/>
</svg>
