<?xml version="1.0" encoding="UTF-8"?>
<svg width="24" height="24" viewBox="0 0 24 24" xmlns="http://www.w3.org/2000/svg">
 <path d="m12 2c-5.52 0-10 4.48-10 10s4.48 10 10 10 10-4.48 10-10-4.48-10-10-10zm-2.95 6.29c0.08-0.17 0.26001-0.28 0.45001-0.28h5c0.19 0 0.36 0.11 0.45 0.28s0.07 0.37001-0.05 0.52001l-2.5 3.33c-0.09 0.13-0.24 0.2-0.4 0.2s-0.31-0.07-0.4-0.2l-2.5-3.33c-0.11-0.14-0.12999-0.35001-0.04999-0.52001zm8.56 2.15-5 7c-0.14 0.2-0.37 0.31-0.61 0.31s-0.47-0.12-0.61-0.31l-5-7c-0.24-0.34-0.16001-0.81 0.16999-1.05 0.34-0.24 0.80999-0.16 1.05 0.17l4.39 6.15 4.39-6.15c0.24-0.34 0.71-0.42 1.05-0.17 0.33 0.24 0.41 0.71 0.17 1.05z"/>
</svg>
