<?xml version="1.0" encoding="UTF-8"?>
<svg width="24" height="24" viewBox="0 0 24 24" xmlns="http://www.w3.org/2000/svg">
 <path d="m21.98 15.67c-0.04-0.06-0.09-0.12-0.14-0.17-0.81-0.93-2.01-1.5-3.34-1.5-1.26 0-2.41 0.52-3.23 1.36-0.79 0.81-1.27 1.92-1.27 3.14 0 0.84 0.24 1.64 0.65 2.32 0.23 0.38 0.52 0.73 0.86 1.02 0.05 0.05 0.1 0.09 0.16 0.14h0.01c0.76 0.64 1.74 1.02 2.82 1.02 1.64 0 3.07-0.88 3.85-2.18 0.23-0.39 0.41-0.82 0.52-1.27 0.09-0.34 0.13-0.69 0.13-1.05 0-1.07-0.38-2.06-1.02-2.83zm-1.75 4.54c-0.15 0.15-0.34 0.22-0.53 0.22s-0.38-0.07-0.53-0.22l-0.66-0.66-0.69 0.69c-0.15 0.15-0.34 0.22-0.53 0.22s-0.38-0.07-0.53-0.22c-0.29-0.29-0.29-0.77 0-1.06l0.69-0.69-0.66-0.66c-0.29-0.29-0.29-0.77 0-1.06s0.77-0.29 1.06 0l0.66 0.66 0.63-0.63c0.29-0.29 0.77-0.29 1.06 0s0.29 0.77 0 1.06l-0.63 0.63 0.66 0.66c0.3 0.29 0.3 0.76 0 1.06z"/>
 <path d="m14.73 5.86v-3.36c0-0.28-0.22-0.5-0.5-0.5h-4.46c-0.28 0-0.5 0.22-0.5 0.5v3.36c0 0.28 0.22 0.5 0.5 0.5h4.46c0.28 0 0.5-0.22 0.5-0.5z"/>
 <path d="m7.25 2.02c-2.56 0.16-4.31 1.48-4.96 3.68-0.1 0.33 0.14 0.66 0.48 0.66h4.5c0.28 0 0.5-0.22 0.5-0.5v-3.34c0-0.28-0.24-0.52-0.52-0.5z"/>
 <path d="m16.75 2.01c2.56 0.16 4.31 1.48 4.96 3.68 0.1 0.33-0.14 0.66-0.48 0.66h-4.5c-0.28 0-0.5-0.22-0.5-0.5v-3.34c0-0.28 0.24-0.52 0.52-0.5z"/>
 <path d="m22 8.3601v4.38c0 0.37-0.39 0.61-0.72 0.44-0.84-0.44-1.8-0.68-2.78-0.68-1.61 0-3.18 0.66-4.3 1.81-1.1 1.12-1.7 2.61-1.7 4.19 0 0.81 0.32 1.85 0.72 2.72 0.16 0.35-0.08 0.78-0.47 0.78h-4.94c-3.21 0-5.81-2.6-5.81-5.81v-7.83c0-0.28 0.22-0.5 0.5-0.5h19c0.28 0 0.5 0.22 0.5 0.5z"/>
</svg>
