<?xml version="1.0" encoding="UTF-8"?>
<svg width="24" height="24" viewBox="0 0 24 24" xmlns="http://www.w3.org/2000/svg">
 <path d="M14.73 2H9.27002V6.36H14.73V2Z"/>
 <path d="m16.23 2v4.36h5.64c-0.51-2.75-2.54-4.35-5.64-4.36z"/>
 <path d="m2 7.8601v8.33c0 3.64 2.17 5.81 5.81 5.81h8.38c3.64 0 5.81-2.17 5.81-5.81v-8.33h-20zm12.44 8.32-2.08 1.2c-0.44 0.25-0.87 0.38-1.27 0.38-0.3 0-0.57-0.07-0.82-0.21-0.58-0.33-0.9-1.01-0.9-1.89v-2.4c0-0.88 0.32-1.56 0.9-1.89 0.58-0.34 1.32-0.28 2.09 0.17l2.08 1.2c0.77 0.44 1.19 1.06 1.19 1.73s-0.43 1.26-1.19 1.71z"/>
 <path d="m7.7699 2c-3.1 0.01-5.13 1.61-5.64 4.36h5.64v-4.36z"/>
</svg>
