<?xml version="1.0" encoding="UTF-8"?>
<svg width="24" height="24" viewBox="0 0 24 24" xmlns="http://www.w3.org/2000/svg">
 <path d="m21.15 6.17c-0.41-0.22-1.27-0.45-2.44 0.37l-1.47 1.04c-0.11-3.11-1.46-4.33-4.74-4.33h-6c-3.42 0-4.75 1.33-4.75 4.75v8c0 2.3 1.25 4.75 4.75 4.75h6c3.28 0 4.63-1.22 4.74-4.33l1.47 1.04c0.62 0.44 1.16 0.58 1.59 0.58 0.37 0 0.66-0.11 0.85-0.21 0.41-0.21 1.1-0.78 1.1-2.21v-7.24c0-1.43-0.69-2-1.1-2.21zm-10.15 5.21c-1.03 0-1.88-0.84-1.88-1.88s0.85-1.88 1.88-1.88 1.88 0.84 1.88 1.88-0.85 1.88-1.88 1.88z"/>
</svg>
