<?xml version="1.0" encoding="UTF-8"?>
<svg width="24" height="24" viewBox="0 0 24 24" xmlns="http://www.w3.org/2000/svg">
 <path d="m6.36 7.78h-4.36v3.47h4.36v-3.47z"/>
 <path d="m6.3599 6.2899v-4.16c-2.28 0.42-3.77 1.89-4.21 4.15h4.18c0.01 0 0.02 0.01 0.03 0.01z"/>
 <path d="m6.36 16.31v-3.56h-4.36v3.53h4.24c0.04 0 0.08 0.02 0.12 0.03z"/>
 <path d="m21.85 6.2799c-0.43-2.19-1.83-3.63-3.99-4.1v4.1h3.99z"/>
 <path d="m16.36 11.25v-9.24c-0.05-0.01-0.11-0.01-0.17-0.01h-8.33v9.25h8.5z"/>
 <path d="m22 12.75h-4.14v3.53h4.14v-3.53z"/>
 <path d="m17.86 21.82c2.14-0.47 3.54-1.89 3.98-4.04h-3.98v4.04z"/>
 <path d="m6.2399 17.78h-4.08c0.46 2.22 1.94 3.67 4.2 4.09v-4.11c-0.04 0.01-0.08 0.02-0.12 0.02z"/>
 <path d="m22 7.78h-4.14v3.47h4.14v-3.47z"/>
 <path d="m7.8601 12.75v9.25h8.33c0.06 0 0.12 0 0.17-0.01v-9.24h-8.5z"/>
</svg>
