<?xml version="1.0" encoding="UTF-8"?>
<svg width="24" height="24" viewBox="0 0 24 24" xmlns="http://www.w3.org/2000/svg">
 <path d="m17.74 7.5701c0.01 0.07 0.01 0.15 0 0.22 0-0.07-0.01-0.14-0.01-0.21l0.01-0.01z" opacity=".4"/>
 <path d="m17.28 6.56-13.45 13.45c-1.4-0.89-1.95-2.48-1.95-4.01v-8c0-3.42 1.33-4.75 4.75-4.75h6c2.89 0 4.28 0.95 4.65 3.31z"/>
 <path d="m21.4 2.2299c-0.3-0.3-0.79-0.3-1.09 0l-18.46 18.46c-0.3 0.3-0.3 0.79 0 1.09 0.15 0.14 0.35 0.22 0.54 0.22 0.2 0 0.39-0.08 0.54-0.23l18.47-18.46c0.3-0.3 0.3-0.78 0-1.08z"/>
 <path d="m22.38 8.38v7.24c0 1.43-0.7 2-1.1 2.21-0.19 0.1-0.49 0.21-0.86 0.21-0.43 0-0.96-0.14-1.58-0.58l-1.48-1.04c-0.07 2.21-0.77 3.47-2.36 4-0.64 0.23-1.43 0.33-2.38 0.33h-6c-0.24 0-0.47-0.01-0.71-0.04l9.09-9.08 5.65-5.65c0.26 0.02 0.47 0.1 0.63 0.19 0.4 0.21 1.1 0.78 1.1 2.21z"/>
</svg>
