<?xml version="1.0" encoding="UTF-8"?>
<svg width="24" height="24" viewBox="0 0 24 24" xmlns="http://www.w3.org/2000/svg">
 <path d="m16.19 2h-8.38c-3.64 0-5.81 2.17-5.81 5.81v8.37c0 3.65 2.17 5.82 5.81 5.82h8.37c3.64 0 5.81-2.17 5.81-5.81v-8.38c0.01-3.64-2.16-5.81-5.8-5.81zm-9.44 12.14c0 0.41-0.34 0.75-0.75 0.75s-0.75-0.34-0.75-0.75v-4.28c0-0.41 0.34-0.75 0.75-0.75s0.75 0.34 0.75 0.75v4.28zm3 1.43c0 0.41-0.34 0.75-0.75 0.75s-0.75-0.34-0.75-0.75v-7.14c0-0.41 0.34-0.75 0.75-0.75s0.75 0.34 0.75 0.75v7.14zm3 1.43c0 0.41-0.34 0.75-0.75 0.75s-0.75-0.34-0.75-0.75v-10c0-0.41 0.34-0.75 0.75-0.75s0.75 0.34 0.75 0.75v10zm3-1.43c0 0.41-0.34 0.75-0.75 0.75s-0.75-0.34-0.75-0.75v-7.14c0-0.41 0.34-0.75 0.75-0.75s0.75 0.34 0.75 0.75v7.14zm3-1.43c0 0.41-0.34 0.75-0.75 0.75s-0.75-0.34-0.75-0.75v-4.28c0-0.41 0.34-0.75 0.75-0.75s0.75 0.34 0.75 0.75v4.28z"/>
</svg>
