<?xml version="1.0" encoding="UTF-8"?>
<svg width="24" height="24" viewBox="0 0 24 24" xmlns="http://www.w3.org/2000/svg">
 <path d="m12 2c-5.52 0-10 4.48-10 10s4.48 10 10 10 10-4.48 10-10-4.48-10-10-10zm-5.25 12.14c0 0.41-0.34 0.75-0.75 0.75s-0.75-0.34-0.75-0.75v-4.28c0-0.41 0.34-0.75 0.75-0.75s0.75 0.34 0.75 0.75v4.28zm3 1.43c0 0.41-0.34 0.75-0.75 0.75s-0.75-0.34-0.75-0.75v-7.14c0-0.41 0.34-0.75 0.75-0.75s0.75 0.34 0.75 0.75v7.14zm3 1.43c0 0.41-0.34 0.75-0.75 0.75s-0.75-0.34-0.75-0.75v-10c0-0.41 0.34-0.75 0.75-0.75s0.75 0.34 0.75 0.75v10zm3-1.43c0 0.41-0.34 0.75-0.75 0.75s-0.75-0.34-0.75-0.75v-7.14c0-0.41 0.34-0.75 0.75-0.75s0.75 0.34 0.75 0.75v7.14zm3-1.43c0 0.41-0.34 0.75-0.75 0.75s-0.75-0.34-0.75-0.75v-4.28c0-0.41 0.34-0.75 0.75-0.75s0.75 0.34 0.75 0.75v4.28z"/>
</svg>
