<?xml version="1.0" encoding="UTF-8"?>
<svg width="24" height="24" viewBox="0 0 24 24" xmlns="http://www.w3.org/2000/svg">
 <path d="m22.53 13.42-1.45-1.45 1.4-1.4c0.29-0.29 0.29-0.76997 0-1.06s-0.77-0.29-1.06 0l-1.4 1.4-1.45-1.45c-0.29-0.29-0.77-0.29-1.06 0s-0.29 0.76997 0 1.06l1.45 1.45-1.49 1.49c-0.29 0.29-0.29 0.77 0 1.06 0.15 0.15 0.34 0.22 0.53 0.22s0.38-0.07 0.53-0.22l1.49-1.49 1.45 1.45c0.15 0.15 0.34 0.22 0.53 0.22s0.38-0.07 0.53-0.22c0.29-0.29 0.29-0.76 0-1.06z"/>
 <path d="m14.02 3.78c-1.12-0.62-2.55-0.46-4.01 0.45l-2.92 1.83c-0.2 0.12-0.43 0.19-0.66 0.19h-1.43c-2.42 0-3.75 1.33-3.75 3.75v4c0 2.42 1.33 3.75 3.75 3.75h1.43c0.23 0 0.46 0.07 0.66 0.19l2.92 1.83c0.88 0.55 1.74 0.82 2.54 0.82 0.52 0 1.02-0.12 1.47-0.37 1.11-0.62 1.73-1.91 1.73-3.63v-9.18c0-1.72-0.62-3.01-1.73-3.63z"/>
</svg>
