<?xml version="1.0" encoding="UTF-8"?>
<svg width="24" height="24" viewBox="0 0 24 24" xmlns="http://www.w3.org/2000/svg">
 <path d="m12 22.751c-0.25 0-0.49-0.13-0.63-0.34l-9.04-14c-0.22-0.35-0.12-0.81001 0.22-1.04 0.35-0.22 0.81001-0.13 1.04 0.22l8.4 13.02 8.37-13.02c0.2199-0.35 0.69-0.45001 1.04-0.23001s0.45 0.69001 0.23 1.04l-9 14c-0.14 0.22-0.37 0.35-0.63 0.35z"/>
 <path d="m3.92 4h1.82c0.17 0 0.32001 0.08 0.42001 0.22l5.44 8.15c0.2 0.3 0.63 0.3 0.83 0l5.44-8.15c0.09-0.14 0.25-0.22 0.42-0.22h1.82c0.4 0 0.63 0.43999 0.42 0.76999l-8.08 12.58c-0.2 0.31-0.64 0.31-0.84 0l-8.08-12.58c-0.25-0.33-0.00999-0.76999 0.39001-0.76999z"/>
 <path d="m9.42 3.5c-0.45-0.16-0.85001 0.35-0.58001 0.75l2.75 4.13c0.2 0.30001 0.63 0.30001 0.83 0l2.75-4.12c0.27-0.4-0.13-0.91-0.58-0.75l-1.38 0.48999v-1.5c0-0.28-0.22-0.5-0.5-0.5h-1.4c-0.28 0-0.5 0.22-0.5 0.5v1.5l-1.39-0.5z"/>
</svg>
