<svg width="24" height="24" viewBox="0 0 24 24"  xmlns="http://www.w3.org/2000/svg">
<path d="M11.94 2.20983L9.52995 7.81983H7.11995C6.71995 7.81983 6.32995 7.84983 5.94995 7.92983L6.94995 5.52983L6.98995 5.43983L7.04995 5.27983C7.07995 5.20983 7.09995 5.14983 7.12995 5.09983C8.28995 2.40983 9.58995 1.56983 11.94 2.20983Z" />
<path d="M18.7301 8.08953L18.7101 8.07953C18.1101 7.90953 17.5001 7.81953 16.8801 7.81953H10.6201L12.8701 2.58953L12.9001 2.51953C13.0401 2.56953 13.1901 2.63953 13.3401 2.68953L15.5501 3.61953C16.7801 4.12953 17.6401 4.65953 18.1701 5.29953C18.2601 5.41953 18.3401 5.52953 18.4201 5.65953C18.5101 5.79953 18.5801 5.93953 18.6201 6.08953C18.6601 6.17953 18.6901 6.25953 18.7101 6.34953C18.8601 6.85953 18.8701 7.43953 18.7301 8.08953Z" />
<path d="M18.29 9.52031C17.84 9.39031 17.37 9.32031 16.88 9.32031H7.11999C6.43999 9.32031 5.79999 9.45031 5.19999 9.71031C3.45999 10.4603 2.23999 12.1903 2.23999 14.2003V16.1503C2.23999 16.3903 2.25999 16.6203 2.28999 16.8603C2.50999 20.0403 4.20999 21.7403 7.38999 21.9503C7.61999 21.9803 7.84999 22.0003 8.09999 22.0003H15.9C19.6 22.0003 21.55 20.2403 21.74 16.7403C21.75 16.5503 21.76 16.3503 21.76 16.1503V14.2003C21.76 11.9903 20.29 10.1303 18.29 9.52031ZM14.5 16.1903H12.75V18.0003C12.75 18.4103 12.41 18.7503 12 18.7503C11.59 18.7503 11.25 18.4103 11.25 18.0003V16.1903H9.49999C9.08999 16.1903 8.74999 15.8603 8.74999 15.4403C8.74999 15.0303 9.08999 14.6903 9.49999 14.6903H11.25V13.0003C11.25 12.5903 11.59 12.2503 12 12.2503C12.41 12.2503 12.75 12.5903 12.75 13.0003V14.6903H14.5C14.91 14.6903 15.25 15.0303 15.25 15.4403C15.25 15.8603 14.91 16.1903 14.5 16.1903Z" />
</svg>
