<?xml version="1.0" encoding="UTF-8"?>
<svg width="24" height="24" viewBox="0 0 24 24" xmlns="http://www.w3.org/2000/svg">
 <path d="m21.45 13.64v1c0 0.27-0.21 0.49-0.49 0.5h-1.46c-0.53 0-1.01-0.39-1.05-0.91-0.03-0.31 0.09-0.6 0.29-0.8 0.18-0.19 0.43-0.29 0.7-0.29h1.51c0.29 0.01 0.5 0.23 0.5 0.5z"/>
 <path d="m17.99 12.69c-0.5 0.49-0.74 1.22-0.54 1.98 0.26 0.93 1.17 1.52 2.13 1.52h0.87c0.55 0 1 0.45 1 1v0.19c0 2.07-1.69 3.76-3.76 3.76h-11.48c-2.07 0-3.76-1.69-3.76-3.76v-6.73c0-1.23 0.59-2.32 1.5-3 0.63-0.48 1.41-0.76 2.26-0.76h11.48c2.07 0 3.76 1.69 3.76 3.76v0.44c0 0.55-0.45 1-1 1h-1.02c-0.56 0-1.07 0.22-1.44 0.6z"/>
 <path d="m16.2 4.82c0.27 0.27 0.04 0.69-0.34 0.69l-7.68-0.01c-0.44 0-0.67-0.54-0.35-0.85l1.62-1.63c1.37-1.36 3.59-1.36 4.96 0l1.75 1.77c0.01 0.01 0.03 0.02 0.04 0.03z"/>
</svg>
