<?xml version="1.0" encoding="UTF-8"?>
<svg width="24" height="24" viewBox="0 0 24 24" xmlns="http://www.w3.org/2000/svg">
 <path d="m22 12.62v2.06c0 0.56-0.46 1.02-1.03 1.02h-1.93c-1.08 0-2.07-0.79-2.16-1.87-0.06-0.63 0.18-1.22 0.6-1.63 0.37-0.38 0.88-0.6 1.44-0.6h2.05c0.57 0 1.03 0.46 1.03 1.02z"/>
 <path d="m15.38 13.96c-0.09-1.05 0.29-2.08 1.05-2.83 0.64-0.65 1.53-1.03 2.49-1.03h0.57c0.28 0 0.51-0.22998 0.47-0.50998-0.27-1.94-1.95-3.44-3.96-3.44h-10c-2.21 0-4 1.79-4 4v7c0 2.21 1.79 4 4 4h10c2.02 0 3.69-1.5 3.96-3.44 0.04-0.28-0.19-0.51-0.47-0.51h-0.45c-1.9 0-3.5-1.42-3.66-3.24zm-2.38-2.06h-6c-0.41 0-0.75-0.33-0.75-0.75s0.34-0.75 0.75-0.75h6c0.41 0 0.75 0.34 0.75 0.75s-0.34 0.75-0.75 0.75z"/>
 <path d="m14.21 3.98c0.26 0.27 0.03 0.67-0.35 0.67h-7.83c-1.09 0-2.11 0.32-2.96 0.87-0.39 0.25-0.92-0.02-0.73-0.45 0.56-1.31 1.87-2.22 3.38-2.22h5.62c1.16 0 2.19 0.41 2.87 1.13z"/>
</svg>
