<?xml version="1.0" encoding="UTF-8"?>
<svg width="24" height="24" viewBox="0 0 24 24" xmlns="http://www.w3.org/2000/svg">
 <path d="m11.94 2.21-2.41 5.61h-2.41c-0.4 0-0.79 0.03-1.17 0.11l1-2.4 0.04-0.09 0.06-0.16c0.03-0.07 0.05-0.13 0.08-0.18 1.16-2.69 2.46-3.53 4.81-2.89z"/>
 <path d="m18.73 8.09-0.02-0.01c-0.6-0.17-1.21-0.26-1.83-0.26h-6.26l2.25-5.23 0.03-0.07c0.14 0.05 0.29 0.12 0.44 0.17l2.21 0.93c1.23 0.51 2.09 1.04 2.62 1.68 0.09 0.12 0.17 0.23 0.25 0.36 0.09 0.14 0.16 0.28 0.2 0.43 0.04 0.09 0.07 0.17 0.09 0.26 0.15 0.51 0.16 1.09 0.02 1.74z"/>
 <path d="m12.52 17.66h0.25c0.3 0 0.55-0.27 0.55-0.6 0-0.42-0.12-0.48-0.38-0.58l-0.42-0.15v1.33z"/>
 <path d="m18.29 9.52c-0.45-0.13-0.92-0.2-1.41-0.2h-9.76c-0.68 0-1.32 0.13-1.92 0.39-1.74 0.74999-2.96 2.48-2.96 4.49v1.95c0 0.24 0.02 0.47 0.05 0.71 0.22 3.18 1.92 4.88 5.1 5.09 0.23 0.03 0.46 0.05 0.71 0.05h7.8c3.7 0 5.65-1.76 5.84-5.26 0.01-0.19 0.02-0.39 0.02-0.59v-1.95c0-2.21-1.47-4.07-3.47-4.68zm-5.01 5.98c0.46 0.16 1.08 0.5 1.08 1.56 0 0.91-0.71 1.64-1.59 1.64h-0.25v0.22c0 0.29-0.23 0.52-0.52 0.52s-0.52-0.23-0.52-0.52v-0.22h-0.09c-0.96 0-1.75-0.81-1.75-1.81 0-0.29 0.23-0.52 0.52001-0.52 0.29 0 0.52 0.23 0.52 0.52 0 0.42 0.32 0.77 0.71 0.77h0.09v-1.69l-0.76-0.27c-0.46-0.16-1.08-0.5-1.08-1.56 0-0.91 0.71001-1.64 1.59-1.64h0.25v-0.22c0-0.29 0.23-0.52 0.52-0.52s0.52 0.23 0.52 0.52v0.22h0.09c0.96 0 1.75 0.81 1.75 1.81 0 0.29-0.23 0.52-0.52 0.52s-0.52-0.23-0.52-0.52c0-0.42-0.32-0.77-0.71-0.77h-0.09v1.69l0.76 0.27z"/>
 <path d="m10.68 14.14c0 0.42 0.12 0.48 0.38 0.58l0.42 0.15v-1.33h-0.25c-0.31 0-0.55 0.27-0.55 0.6z"/>
</svg>
