<?xml version="1.0" encoding="UTF-8"?>
<svg width="24" height="24" viewBox="0 0 24 24" xmlns="http://www.w3.org/2000/svg">
 <path d="m21.5 12.5h-2.5c-1.1 0-2 0.9-2 2s0.9 2 2 2h2.5c0.28 0 0.5-0.22 0.5-0.5v-3c0-0.28-0.22-0.5-0.5-0.5z"/>
 <path d="m5 15c-1.2 0-2.27 0.53-3 1.36-0.62 0.71-1 1.63-1 2.64 0 0.75 0.21 1.46 0.58 2.06 0.69 1.16 1.96 1.94 3.42 1.94 1.01 0 1.93-0.37 2.63-1 0.31-0.26 0.58-0.58 0.79-0.94 0.37-0.6 0.58-1.31 0.58-2.06 0-2.21-1.79-4-4-4zm1.6 5.58c-0.15 0.15-0.34 0.22-0.53 0.22s-0.38-0.07-0.53-0.22l-0.53-0.53-0.55 0.55c-0.15 0.15-0.34 0.22-0.53 0.22s-0.38-0.07-0.53-0.22c-0.29-0.29-0.29-0.77 0-1.06l0.55-0.55-0.53-0.53c-0.29-0.29-0.29-0.77 0-1.06s0.77-0.29 1.06 0l0.53 0.53 0.5-0.5c0.29-0.29 0.77-0.29 1.06 0s0.29 0.77 0 1.06l-0.5 0.5 0.53 0.53c0.29 0.29 0.29 0.76 0 1.06z"/>
 <path d="m16.53 5.4c0.3 0.29 0.05 0.74-0.37 0.74l-8.28-0.01c-0.48 0-0.72-0.58-0.38-0.92l1.75-1.76c1.48-1.47 3.87-1.47 5.35 0l1.89 1.91 0.04 0.04z"/>
 <path d="m21.87 18.66c-0.61 2.06-2.37 3.34-4.77 3.34h-6.5c-0.39 0-0.63999-0.43-0.48-0.79 0.3-0.7 0.49-1.49 0.49-2.21 0-3.03-2.47-5.5-5.5-5.5-0.76 0-1.5 0.16-2.18 0.46-0.37 0.16-0.82-0.09-0.82-0.49v-1.47c0-2.72 1.64-4.62 4.19-4.94 0.25-0.04 0.52-0.06 0.8-0.06h10c0.26 0 0.51 0.01 0.75 0.05 2.02 0.23 3.48 1.46 4.02 3.29 0.1 0.33-0.14 0.66-0.48 0.66h-2.29c-2.17 0-3.89 1.98-3.42 4.23 0.33 1.64 1.85 2.77 3.52 2.77h2.19c0.35 0 0.58 0.34 0.48 0.66z"/>
</svg>
