<?xml version="1.0" encoding="UTF-8"?>
<svg width="24" height="24" viewBox="0 0 24 24" xmlns="http://www.w3.org/2000/svg">
 <path d="m20.97 16.08c-0.24 2.67-2.17 4.42-4.97 4.42h-9c-2.76 0-5-2.24-5-5v-7c0-2.72 1.64-4.62 4.19-4.94 0.26-0.04 0.53-0.06 0.81-0.06h9c0.26 0 0.51 0.01 0.75 0.05 2.39 0.28 4.01 1.95 4.22 4.37 0.03 0.29-0.21 0.53-0.5 0.53h-1.55c-0.96 0-1.85 0.37-2.49 1.03-0.76 0.74-1.14 1.78-1.05 2.82 0.16 1.82 1.76 3.25 3.66 3.25h1.43c0.29 0 0.53 0.24 0.5 0.53z"/>
 <path d="m22 10.97v2.06c0 0.55-0.44 1-1 1.02h-1.96c-1.08 0-2.07-0.79-2.16-1.87-0.06-0.63 0.18-1.22 0.6-1.63 0.37-0.38 0.88-0.59999 1.44-0.59999h2.08c0.56 0.02 1 0.46999 1 1.02z"/>
</svg>
