<?xml version="1.0" encoding="UTF-8"?>
<svg width="24" height="24" viewBox="0 0 24 24" xmlns="http://www.w3.org/2000/svg">
 <path d="m11.94 2.21-2.41 5.61h-2.41c-0.4 0-0.79 0.03-1.17 0.11l1-2.4 0.04-0.09 0.06-0.16c0.03-0.07 0.05-0.13 0.08-0.18 1.16-2.69 2.46-3.53 4.81-2.89z"/>
 <path d="m18.73 8.09-0.02-0.01c-0.6-0.17-1.21-0.26-1.83-0.26h-6.26l2.25-5.23 0.03-0.07c0.14 0.05 0.29 0.12 0.44 0.17l2.21 0.93c1.23 0.51 2.09 1.04 2.62 1.68 0.09 0.12 0.17 0.23 0.25 0.36 0.09 0.14 0.16 0.28 0.2 0.43 0.04 0.09 0.07 0.17 0.09 0.26 0.15 0.51 0.16 1.09 0.02 1.74z"/>
 <path d="m18.29 9.52c-0.45-0.13-0.92-0.2-1.41-0.2h-9.76c-0.68 0-1.32 0.13-1.92 0.39-1.74 0.74999-2.96 2.48-2.96 4.49v1.95c0 0.24 0.02 0.47 0.05 0.71 0.22 3.18 1.92 4.88 5.1 5.09 0.23 0.03 0.46 0.05 0.71 0.05h7.8c3.7 0 5.65-1.76 5.84-5.26 0.01-0.19 0.02-0.39 0.02-0.59v-1.95c0-2.21-1.47-4.07-3.47-4.68zm-3.79 6.67h-1.75v1.81c0 0.41-0.34 0.75-0.75 0.75s-0.75-0.34-0.75-0.75v-1.81h-1.75c-0.41 0-0.75-0.33-0.75-0.75 0-0.41 0.34-0.75 0.75-0.75h1.75v-1.69c0-0.41 0.34-0.75 0.75-0.75s0.75 0.34 0.75 0.75v1.69h1.75c0.41 0 0.75 0.34 0.75 0.75 0 0.42-0.34 0.75-0.75 0.75z"/>
</svg>
