<?xml version="1.0" encoding="UTF-8"?>
<svg width="24" height="24" viewBox="0 0 24 24" xmlns="http://www.w3.org/2000/svg">
 <path d="m22 10.97v2.06c0 0.55-0.44 1-1 1.02h-1.96c-1.08 0-2.07-0.79-2.16-1.87-0.06-0.63 0.18-1.22 0.6-1.63 0.37-0.38 0.88-0.59999 1.44-0.59999h2.08c0.56 0.02 1 0.46999 1 1.02z"/>
 <path d="m20.47 15.55h-1.43c-1.9 0-3.5-1.43-3.66-3.25-0.09-1.04 0.29-2.08 1.05-2.82 0.64-0.66 1.53-1.03 2.49-1.03h1.55c0.29 0 0.53-0.24 0.5-0.53-0.22-2.43-1.83-4.09-4.22-4.37-0.24-0.04-0.49-0.05-0.75-0.05h-9c-0.28 0-0.55 0.02-0.81 0.06-2.55 0.32-4.19 2.22-4.19 4.94v7c0 2.76 2.24 5 5 5h9c2.8 0 4.73-1.75 4.97-4.42 0.03-0.29-0.21-0.53-0.5-0.53zm-7.47-5.8h-6c-0.41 0-0.75-0.34-0.75-0.75s0.34-0.75 0.75-0.75h6c0.41 0 0.75 0.34 0.75 0.75s-0.34 0.75-0.75 0.75z"/>
</svg>
