<?xml version="1.0" encoding="UTF-8"?>
<svg width="24" height="24" viewBox="0 0 24 24" xmlns="http://www.w3.org/2000/svg">
 <path d="m12 2c-5.52 0-10 4.48-10 10s4.48 10 10 10 10-4.48 10-10-4.48-10-10-10zm2.67 14.43-2.25 1.5c-0.13 0.08-0.27 0.13-0.42 0.13s-0.29-0.04-0.42-0.13l-2.25-1.5c-0.34-0.23-0.44-0.7-0.21-1.04 0.23-0.35 0.7-0.44 1.04-0.21l1.83 1.22 1.83-1.22c0.34-0.23 0.81-0.14 1.04 0.21 0.24 0.35 0.15 0.81-0.19 1.04zm1.83-3.44c0 0.78-0.85 1.26-1.51 0.86l-2.47-1.48c-0.32-0.19-0.71-0.19-1.03 0l-2.47 1.48c-0.67 0.4-1.51-0.08-1.51-0.86v-3.83c0-0.34 0.18001-0.65999 0.46001-0.83999l3.5-2.22c0.33-0.21 0.74-0.21 1.07 0l3.5 2.22c0.29 0.18 0.46 0.49999 0.46 0.83999v3.83z"/>
</svg>
