<?xml version="1.0" encoding="UTF-8"?>
<svg width="24" height="24" viewBox="0 0 24 24" xmlns="http://www.w3.org/2000/svg">
 <path d="m21.98 11.41c-0.34-5.8-5.61-10.27-11.68-9.27-4.18 0.69-7.53 4.08-8.18 8.26-0.38 2.42 0.12002 4.71 1.21 6.6l-0.89001 3.31c-0.2 0.75 0.48998 1.43 1.23 1.22l3.26-0.9c1.48 0.87 3.21 1.37 5.06 1.37 5.64 0 10.32-4.97 9.99-10.59zm-5.0999 4.31c-0.09 0.18-0.2001 0.35-0.3401 0.51-0.25 0.27-0.52 0.47-0.82 0.59-0.3 0.13-0.63 0.19-0.98 0.19-0.51 0-1.06-0.1199-1.63-0.3699-0.58-0.25-1.1499-0.5801-1.7199-0.9901-0.58-0.42-1.12-0.89-1.64-1.4-0.52-0.52-0.98002-1.07-1.4-1.64-0.41-0.57-0.73998-1.14-0.97998-1.71s-0.35999-1.12-0.35999-1.64c0-0.34001 0.06-0.67001 0.18-0.97001 0.12-0.31 0.31001-0.58999 0.58001-0.83999 0.32-0.32 0.66998-0.47 1.04-0.47 0.14 0 0.27997 0.02999 0.40997 0.08999s0.25003 0.15 0.34003 0.28l1.16 1.64c0.09 0.13 0.16 0.24 0.2 0.35 0.05 0.11 0.07 0.21 0.07 0.31 0 0.12-0.0399 0.24002-0.1099 0.35997-0.07 0.12-0.1601 0.24-0.2801 0.36l-0.38 0.4c-0.06 0.06-0.0799 0.12-0.0799 0.2 0 0.04 0.0099 0.08 0.0199 0.12 0.02 0.04 0.0301 0.07 0.0401 0.1 0.09 0.17 0.2499 0.38 0.4699 0.64 0.23 0.26 0.4701 0.53 0.7301 0.79 0.27 0.27 0.53 0.51 0.8 0.74 0.26 0.22 0.4799 0.37 0.6499 0.46 0.03 0.01 0.0601 0.03 0.0901 0.04 0.04 0.02 0.08 0.02 0.13 0.02 0.09 0 0.15-0.03 0.21-0.09l0.3799-0.38c0.13-0.13 0.2501-0.22 0.3601-0.28 0.12-0.07 0.23-0.11 0.36-0.11 0.1 0 0.2 0.02 0.31 0.07s0.2299 0.11 0.3499 0.2l1.6601 1.18c0.13 0.09 0.2199 0.2 0.2799 0.32 0.05 0.13 0.0801 0.25 0.0801 0.39-0.06 0.17-0.1 0.36-0.18 0.54z"/>
</svg>
