<?xml version="1.0" encoding="UTF-8"?>
<svg width="24" height="24" viewBox="0 0 24 24" xmlns="http://www.w3.org/2000/svg">
 <path d="m16.19 2h-8.38c-3.64 0-5.81 2.17-5.81 5.81v8.37c0 3.65 2.17 5.82 5.81 5.82h8.37c3.64 0 5.81-2.17 5.81-5.81v-8.38c0.01-3.64-2.16-5.81-5.8-5.81zm-1.4 14.6c-0.15 0.19-0.37 0.29-0.59 0.29-0.16 0-0.32-0.05-0.46-0.16-1.06-0.82-2.43-0.82-3.49 0-0.33 0.25-0.8 0.19-1.05-0.13-0.25-0.33-0.19-0.8 0.13-1.05 1.59-1.23 3.73-1.23 5.32 0 0.34 0.25 0.4 0.72 0.14 1.05zm2.21-3.09c-0.15 0.19-0.37 0.29-0.59 0.29-0.16 0-0.32-0.05-0.46-0.16-2.4-1.85-5.49-1.85-7.89 0-0.33 0.26-0.8 0.2-1.06-0.13s-0.19-0.8 0.13-1.05c2.95-2.28 6.77-2.28 9.72 0 0.34 0.25 0.4 0.72 0.15 1.05zm1.59-3.09c-0.15 0.19-0.37 0.29-0.59 0.29-0.16 0-0.32-0.05-0.46-0.16-3.37-2.6-7.72-2.6-11.08 0-0.33 0.25-0.8 0.19-1.05-0.13-0.25-0.33-0.19-0.8 0.13-1.05 3.92-3.03 8.99-3.03 12.92 0 0.33 0.25 0.39 0.72 0.13 1.05z"/>
</svg>
