<svg width="24" height="24" viewBox="0 0 24 24"  xmlns="http://www.w3.org/2000/svg">
<path d="M19.0899 12.5904C18.9299 12.5904 18.7699 12.5404 18.6299 12.4304C14.5999 9.32039 9.38993 9.32039 5.35993 12.4304C5.02993 12.6804 4.55993 12.6204 4.30993 12.3004C4.05993 11.9704 4.11993 11.5004 4.43993 11.2504C9.02993 7.70039 14.9599 7.70039 19.5399 11.2504C19.8699 11.5004 19.9299 11.9704 19.6699 12.3004C19.5399 12.4904 19.3199 12.5904 19.0899 12.5904Z" />
<path d="M22 9.11039C21.84 9.11039 21.68 9.06039 21.54 8.95039C15.74 4.47039 8.25001 4.47039 2.46001 8.95039C2.13001 9.20039 1.66001 9.14039 1.41001 8.82039C1.15001 8.50039 1.21001 8.02039 1.54001 7.77039C7.89001 2.86039 16.1 2.86039 22.46 7.77039C22.79 8.02039 22.85 8.49039 22.59 8.82039C22.45 9.01039 22.22 9.11039 22 9.11039Z" />
<path d="M17.2101 16.2403C17.0501 16.2403 16.8901 16.1903 16.7501 16.0803C13.8701 13.8503 10.1401 13.8503 7.25007 16.0803C6.92007 16.3303 6.45007 16.2703 6.20007 15.9503C5.95007 15.6203 6.01007 15.1503 6.33007 14.9003C9.77007 12.2403 14.2201 12.2403 17.6601 14.9003C17.9901 15.1503 18.0501 15.6203 17.7901 15.9503C17.6501 16.1403 17.4301 16.2403 17.2101 16.2403Z" />
<path d="M14.5999 19.9005C14.4399 19.9005 14.2799 19.8505 14.1399 19.7405C12.8399 18.7305 11.1499 18.7305 9.84992 19.7405C9.51992 19.9905 9.04992 19.9305 8.79992 19.6105C8.54992 19.2805 8.60992 18.8105 8.92992 18.5605C10.7899 17.1205 13.1899 17.1205 15.0499 18.5605C15.3799 18.8105 15.4399 19.2805 15.1799 19.6105C15.0499 19.7905 14.8299 19.9005 14.5999 19.9005Z" />
</svg>
