<svg width="24" height="24" viewBox="0 0 24 24"  xmlns="http://www.w3.org/2000/svg">
<path fill-rule="evenodd" clip-rule="evenodd" d="M20.8 2.23949L12.8 3.83949C12.33 3.92949 12 4.3395 12 4.8195V9.9995C12 10.5495 12.45 10.9995 13 10.9995H21C21.55 10.9995 22 10.5495 22 9.9995V3.2195C22 2.5895 21.42 2.11949 20.8 2.23949Z" />
<path fill-rule="evenodd" clip-rule="evenodd" d="M20.8 21.76L12.8 20.16C12.33 20.07 12 19.66 12 19.18V14C12 13.45 12.45 13 13 13H21C21.55 13 22 13.45 22 14V20.78C22 21.41 21.42 21.88 20.8 21.76Z" />
<path fill-rule="evenodd" clip-rule="evenodd" d="M8.78998 4.55959L2.78998 5.82958C2.32998 5.92958 2 6.33959 2 6.80959V9.99959C2 10.5496 2.45 10.9996 3 10.9996H9C9.55 10.9996 10 10.5496 10 9.99959V5.52959C10 4.89959 9.40998 4.41959 8.78998 4.55959Z" />
<path fill-rule="evenodd" clip-rule="evenodd" d="M8.78998 19.44L2.78998 18.17C2.32998 18.07 2 17.66 2 17.19V14C2 13.45 2.45 13 3 13H9C9.55 13 10 13.45 10 14V18.47C10 19.1 9.40998 19.58 8.78998 19.44Z" />
</svg>
