<?xml version="1.0" encoding="UTF-8"?>
<svg width="24" height="24" viewBox="0 0 24 24" xmlns="http://www.w3.org/2000/svg">
 <path d="m15.17 13.77c0 0.56 0.46 1.02 1.02 1.02h1.02v-2.03h-1.02c-0.56-0.01-1.02 0.45-1.02 1.01z"/>
 <path d="m16.19 2h-8.37c-3.64 0-5.81 2.17-5.81 5.81v8.37c0 3.64 2.17 5.81 5.81 5.81h8.37c3.64 0 5.81-2.17 5.81-5.81v-8.37c0-3.64-2.17-5.81-5.81-5.81zm-3.91 13.06c0.26 0.32 0.21 0.8-0.12 1.05-0.14 0.11-0.3 0.16-0.47 0.16-0.22 0-0.44-0.1-0.59-0.28l-2.24-2.8-2.24 2.8c-0.15 0.18-0.37 0.28-0.59 0.28-0.16 0-0.33-0.05-0.47-0.16-0.32-0.26-0.37999-0.73-0.11999-1.05l2.45-3.06-2.45-3.06c-0.26-0.32-0.21001-0.79999 0.11999-1.05 0.32-0.26 0.80001-0.21 1.05 0.12l2.24 2.8 2.24-2.8c0.26-0.32 0.73-0.38 1.05-0.12s0.38 0.72999 0.12 1.05l-2.45 3.06 2.47 3.06zm6.43 0.47c0 0.41-0.34 0.75-0.75 0.75h-1.77c-1.39 0-2.52-1.13-2.52-2.52s1.13-2.52 2.52-2.52h1.02v-2.78c0-0.41 0.34-0.75 0.75-0.75s0.75 0.34 0.75 0.75v7.07z"/>
</svg>
