<?xml version="1.0" encoding="UTF-8"?>
<svg width="24" height="24" viewBox="0 0 24 24" xmlns="http://www.w3.org/2000/svg">
 <path d="m5.4599 2h-1.41c-0.93 0-1.4 1.13-0.73999 1.79l5.73 5.73c1.64 1.64 4.29 1.64 5.93 0l5.73-5.73c0.66-0.66 0.19-1.79-0.74-1.79h-1.41c-0.83 0-1.63 0.33-2.22 0.92l-3.58 3.58c-0.41 0.41-1.07 0.41-1.48 0l-3.58-3.58c-0.6-0.59-1.4-0.92-2.23-0.92z"/>
 <path d="m5.4599 21.971h-1.41c-0.93 0-1.4-1.13-0.73999-1.79l5.73-5.73c1.64-1.64 4.29-1.64 5.93 0l5.73 5.73c0.66 0.66 0.19 1.79-0.74 1.79h-1.41c-0.83 0-1.63-0.33-2.22-0.92l-3.58-3.58c-0.41-0.41-1.07-0.41-1.48 0l-3.58 3.58c-0.6 0.59-1.4 0.92-2.23 0.92z"/>
</svg>
