<svg width="24" height="24" viewBox="0 0 24 24"  xmlns="http://www.w3.org/2000/svg">
<path d="M5.45993 2H4.0499C3.1199 2 2.64991 3.13 3.30991 3.79L9.03989 9.52C10.6799 11.16 13.3299 11.16 14.9699 9.52L20.6999 3.79C21.3599 3.13 20.8899 2 19.9599 2H18.5499C17.7199 2 16.9199 2.33 16.3299 2.92L12.7499 6.5C12.3399 6.91 11.6799 6.91 11.2699 6.5L7.68991 2.92C7.08991 2.33 6.28993 2 5.45993 2Z" />
<path d="M5.45993 21.9697H4.0499C3.1199 21.9697 2.64991 20.8397 3.30991 20.1797L9.03989 14.4497C10.6799 12.8097 13.3299 12.8097 14.9699 14.4497L20.6999 20.1797C21.3599 20.8397 20.8899 21.9697 19.9599 21.9697H18.5499C17.7199 21.9697 16.9199 21.6397 16.3299 21.0497L12.7499 17.4697C12.3399 17.0597 11.6799 17.0597 11.2699 17.4697L7.68991 21.0497C7.08991 21.6397 6.28993 21.9697 5.45993 21.9697Z" />
</svg>
