<?xml version="1.0" encoding="UTF-8"?>
<svg width="24" height="24" viewBox="0 0 24 24" xmlns="http://www.w3.org/2000/svg">
 <path d="m12 2c-5.52 0-10 4.48-10 10s4.48 10 10 10 10-4.48 10-10-4.48-10-10-10zm6.5 12.02c0 0.18-0.1 0.34-0.25 0.43l-2 1.15c-0.15 0.09-0.34 0.09-0.5 0l-2-1.15c-0.16-0.09-0.25-0.25-0.25-0.43v-0.83l-1.25 0.72c-0.15 0.09-0.34 0.09-0.5 0l-1.25-0.72v0.83c0 0.18-0.1 0.34-0.25 0.43l-2 1.15c-0.15 0.09-0.34 0.09-0.5 0l-2-1.15c-0.16-0.09-0.25-0.25-0.25-0.43v-2.28c0-0.18 0.1-0.34 0.25-0.43l2-1.15c0.15-0.09 0.35-0.09 0.5 0l1 0.58v-1.13c0-0.18 0.1-0.34001 0.25-0.43001l2.25-1.29c0.15-0.09 0.34-0.09 0.5 0l2.25 1.29c0.16 0.09 0.25 0.25001 0.25 0.43001v1.13l1-0.58c0.15-0.09 0.34-0.09 0.5 0l2 1.15c0.16 0.09 0.25 0.25 0.25 0.43v2.28z"/>
</svg>
