<?xml version="1.0" encoding="UTF-8"?>
<svg width="24" height="24" viewBox="0 0 24 24" xmlns="http://www.w3.org/2000/svg">
 <path d="m12 2c-5.52 0-10 4.48-10 10s4.48 10 10 10 10-4.48 10-10-4.48-10-10-10zm1.63 12.29c0 0.51-0.41 0.92-0.92 0.92l-3.68 0.03c-1.54 0.01-2.79-1.23-2.79-2.77v-2.8c0-0.51 0.41001-0.92001 0.92001-0.92001h3.69c1.53 0 2.77 1.24 2.77 2.77v2.77h0.01zm4.12-0.29c0 0.43-0.48 0.69-0.84 0.45l-1.92-1.28c-0.15-0.1-0.24-0.27-0.24-0.45v-1.42c0-0.18 0.09-0.35 0.24-0.45l1.92-1.28c0.36-0.24 0.84 0.01998 0.84 0.44999v3.98z"/>
</svg>
