<svg width="24" height="24" viewBox="0 0 24 24"  xmlns="http://www.w3.org/2000/svg">
<path d="M19.3302 5.68027L13.0602 2.30027C12.4002 1.94027 11.6002 1.94027 10.9402 2.30027L4.67018 5.68027C4.21018 5.93027 3.93018 6.41027 3.93018 6.96027C3.93018 7.50027 4.21018 7.99027 4.67018 8.24027L10.9402 11.6203C11.2702 11.8003 11.6402 11.8903 12.0002 11.8903C12.3602 11.8903 12.7302 11.8003 13.0602 11.6203L19.3302 8.24027C19.7902 7.99027 20.0702 7.51027 20.0702 6.96027C20.0702 6.41027 19.7902 5.93027 19.3302 5.68027Z" />
<path opacity="0.4" d="M9.91 12.79L4.07 9.87C3.62 9.65 3.1 9.67 2.68 9.93C2.25 10.2 2 10.65 2 11.15V16.66C2 17.61 2.53 18.47 3.38 18.9L9.21 21.82C9.41 21.92 9.63 21.97 9.85 21.97C10.11 21.97 10.37 21.9 10.6 21.76C11.03 21.5 11.28 21.04 11.28 20.54V15.03C11.29 14.07 10.76 13.21 9.91 12.79Z" />
<path opacity="0.4" d="M21.3202 9.93014C20.8902 9.67014 20.3702 9.64014 19.9302 9.87014L14.1002 12.7901C13.2502 13.2201 12.7202 14.0701 12.7202 15.0301V20.5401C12.7202 21.0401 12.9702 21.5001 13.4002 21.7601C13.6302 21.9001 13.8902 21.9701 14.1502 21.9701C14.3702 21.9701 14.5902 21.9201 14.7902 21.8201L20.6202 18.9001C21.4702 18.4701 22.0002 17.6201 22.0002 16.6601V11.1501C22.0002 10.6501 21.7502 10.2001 21.3202 9.93014Z" />
</svg>
