<?xml version="1.0" encoding="UTF-8"?>
<svg width="24" height="24" viewBox="0 0 24 24" xmlns="http://www.w3.org/2000/svg">
 <path d="m12 22c5.5228 0 10-4.4772 10-10 0-5.5228-4.4772-10-10-10-5.5228 0-10 4.4772-10 10 0 5.5228 4.4772 10 10 10z" opacity=".4"/>
 <path d="m16.69 15.7-4-9c-0.24-0.54-1.13-0.54-1.37 0l-2.02 4.55h-1.3c-0.41 0-0.75 0.34-0.75 0.75s0.34 0.75 0.75 0.75h0.62l-1.31 2.95c-0.17 0.38 1e-5 0.82 0.38001 0.99s0.81999 0 0.98999-0.38l1.58-3.55h1.74c0.41 0 0.75-0.34 0.75-0.75s-0.34-0.75-0.75-0.75h-1.07l1.07-2.4 3.31 7.46c0.12 0.28 0.4 0.45 0.69 0.45 0.1 0 0.21-0.02 0.3-0.06 0.38-0.19 0.55-0.64 0.39-1.01z"/>
</svg>
