<?xml version="1.0" encoding="UTF-8"?>
<svg width="24" height="24" viewBox="0 0 24 24" xmlns="http://www.w3.org/2000/svg">
 <path d="M16.19 2H7.81C4.17 2 2 4.17 2 7.81V16.18C2 19.83 4.17 22 7.81 22H16.18C19.82 22 21.99 19.83 21.99 16.19V7.81C22 4.17 19.83 2 16.19 2Z" opacity=".4"/>
 <path d="m7.3301 15.24c-0.16 0-0.32-0.05-0.46-0.16-0.33-0.25-0.39-0.72-0.14-1.05l2.38-3.09c0.29-0.37 0.7-0.61 1.17-0.67 0.46-0.06 0.93 0.07 1.3 0.36l1.83 1.44c0.07 0.06 0.14 0.06 0.19 0.05 0.04 0 0.11-0.02 0.17-0.1l2.31-2.98c0.25-0.33 0.73-0.39 1.05-0.13 0.33 0.25 0.39 0.72 0.13 1.05l-2.31 2.98c-0.29 0.37-0.7 0.61-1.17 0.66-0.47 0.06-0.93-0.07-1.3-0.36l-1.83-1.44c-0.07-0.06-0.15-0.06-0.19-0.05-0.04 0-0.11 0.02-0.17 0.1l-2.38 3.09c-0.13 0.2-0.35 0.3-0.58 0.3z"/>
</svg>
