<?xml version="1.0" encoding="UTF-8"?>
<svg width="24" height="24" viewBox="0 0 24 24" xmlns="http://www.w3.org/2000/svg">
 <path d="m12 22c5.5228 0 10-4.4772 10-10 0-5.5228-4.4772-10-10-10-5.5228 0-10 4.4772-10 10 0 5.5228 4.4772 10 10 10z" opacity=".4"/>
 <path d="m16 11.25h-3.25v-3.25c0-0.41-0.34-0.75-0.75-0.75s-0.75 0.34-0.75 0.75v3.25h-3.25c-0.41 0-0.75 0.34-0.75 0.75s0.34 0.75 0.75 0.75h3.25v3.25c0 0.41 0.34 0.75 0.75 0.75s0.75-0.34 0.75-0.75v-3.25h3.25c0.41 0 0.75-0.34 0.75-0.75s-0.34-0.75-0.75-0.75z"/>
</svg>
