<?xml version="1.0" encoding="UTF-8"?>
<svg width="24" height="24" viewBox="0 0 24 24" xmlns="http://www.w3.org/2000/svg">
 <path d="m9.9601 14.04v-1.11c0-0.43-0.32-0.64-0.71-0.47l-5.01 2.16c-0.79 0.34-1.43-0.08-1.43-0.93v-1.32c0-0.68 0.51-1.47 1.14-1.73l5.7-2.45c0.16-0.08 0.3-0.29 0.3-0.47v-3.06c0-0.96 0.71004-2.11 1.56-2.55 0.3-0.15 0.66-0.15 0.96 0 0.86 0.44 1.57 1.58 1.57 2.54v3.06c0 0.18 0.14 0.39 0.3 0.47l1.04 0.44-5.42 5.42z"/>
 <path d="m21.19 12.37v1.32c0 0.85-0.64 1.27-1.43 0.93l-5.01-2.16c-0.4-0.16-0.71 0.04-0.71 0.47v2.91c0 0.23 0.13 0.56 0.3 0.72l2.32 2.33c0.24 0.24 0.35 0.72 0.24 1.05l-0.45 1.36c-0.2 0.59-0.87 0.86-1.42 0.59l-2.38-2c-0.36-0.31-0.95-0.31-1.31 0l-2.38 2c-0.55 0.28-1.22 0-1.4-0.59l-0.45-1.36c-0.11-0.34 0-0.81 0.24-1.05l2.32-2.33c0.16-0.16 0.29-0.49 0.29-0.72v-1.8l5.42-5.42 4.67 2.01c0.63 0.27 1.14 1.06 1.14 1.74z" opacity=".4"/>
</svg>
