<?xml version="1.0" encoding="UTF-8"?>
<svg width="24" height="24" viewBox="0 0 24 24" xmlns="http://www.w3.org/2000/svg">
 <path d="m21.5 6.5v11c0 2.49-2.01 4.5-4.5 4.5h-10c-2.49 0-4.5-2.01-4.5-4.5v-11c0-2.49 2.01-4.5 4.5-4.5h10c2.49 0 4.5 2.01 4.5 4.5z" opacity=".4"/>
 <path d="m21.5 8.17v1.5h-4.13c-0.31 0.97-1.22 1.67-2.29 1.67h-6.16c-0.64 0-1.27-0.26-1.72-0.72-0.27-0.26-0.46-0.59-0.58-0.95h-4.12v-1.5h4.13c0.31-0.97 1.22-1.67 2.29-1.67h6.15c0.65 0 1.27 0.26 1.72 0.72 0.27 0.27 0.47 0.59 0.58 0.95h4.13z"/>
</svg>
