<?xml version="1.0" encoding="UTF-8"?>
<svg width="24" height="24" viewBox="0 0 24 24" xmlns="http://www.w3.org/2000/svg">
 <path d="M16.19 2H7.81C4.17 2 2 4.17 2 7.81V16.18C2 19.83 4.17 22 7.81 22H16.18C19.82 22 21.99 19.83 21.99 16.19V7.81C22 4.17 19.83 2 16.19 2Z" opacity=".4"/>
 <path d="m9.86 19 1.68-1.42c0.25-0.21 0.67-0.21 0.93 0l1.67 1.42c0.39 0.2 0.87 0 1.01-0.42l0.32-0.96c0.08-0.23 0-0.57-0.17-0.74l-1.64-1.65c-0.12-0.12-0.21-0.35-0.21-0.51v-1.85c0-0.42 0.31-0.62 0.7-0.46l3.35 1.44c0.55 0.24 1.01-0.06 1.01-0.66v-0.93c0-0.48-0.36-1.04-0.81-1.23l-3.94-1.7c-0.17-0.07-0.3-0.28-0.3-0.46v-2.07c0-0.68-0.5-1.48-1.1-1.79-0.22-0.11-0.47-0.11-0.69 0-0.61 0.3-1.1 1.11-1.1 1.79v2.07c0 0.18-0.14 0.39-0.3 0.46l-3.94 1.7c-0.44 0.19-0.81 0.75-0.81 1.23v0.93c0 0.6 0.45 0.9 1.01 0.66l3.35-1.44c0.37998-0.17 0.69998 0.04 0.69998 0.46v1.85c0 0.17-0.1 0.4-0.21 0.51l-1.67 1.64c-0.17 0.17-0.25 0.51-0.17 0.74l0.32 0.96c0.14 0.43 0.61 0.63 1.01 0.43z"/>
</svg>
