<svg width="24" height="24" viewBox="0 0 24 24"  xmlns="http://www.w3.org/2000/svg">
<path d="M8.61023 19.7502C7.15023 19.7502 5.97025 18.5702 5.97025 17.1102V10.3002H5.77023C3.27023 10.3002 1.24023 8.27026 1.24023 5.77026C1.24023 3.27026 3.27023 1.24023 5.77023 1.24023H7.66025C9.64025 1.24023 11.2402 2.85025 11.2402 4.82025V17.1002C11.2502 18.5702 10.0702 19.7502 8.61023 19.7502ZM5.78024 2.75024C4.11024 2.75024 2.75024 4.11027 2.75024 5.78027C2.75024 7.45027 4.11024 8.81024 5.78024 8.81024H6.73026C7.14026 8.81024 7.48026 9.15024 7.48026 9.56024V17.1202C7.48026 17.7502 7.99024 18.2603 8.62024 18.2603C9.25024 18.2603 9.76025 17.7502 9.76025 17.1202V4.84027C9.76025 3.69027 8.83024 2.76025 7.68024 2.76025H5.78024V2.75024Z" />
<path d="M5.77985 7.47028C4.84985 7.47028 4.08984 6.71032 4.08984 5.77032C4.08984 4.83032 4.84985 4.08032 5.77985 4.08032C6.18985 4.08032 6.52985 4.42032 6.52985 4.83032C6.52985 5.24032 6.18985 5.58032 5.77985 5.58032C5.66985 5.58032 5.58984 5.67032 5.58984 5.77032C5.58984 5.87032 5.67985 5.97028 5.77985 5.97028C6.18985 5.97028 6.52985 6.31028 6.52985 6.72028C6.52985 7.13028 6.18985 7.47028 5.77985 7.47028Z" />
<path d="M15.39 19.7502C13.93 19.7502 12.75 18.5702 12.75 17.1102V4.83026C12.75 2.85026 14.36 1.25024 16.33 1.25024H18.22C20.72 1.25024 22.75 3.28027 22.75 5.78027C22.75 8.28027 20.72 10.3102 18.22 10.3102H18.02V17.1202C18.03 18.5702 16.84 19.7502 15.39 19.7502ZM16.33 2.75024C15.18 2.75024 14.25 3.68026 14.25 4.83026V17.1102C14.25 17.7402 14.76 18.2502 15.39 18.2502C16.02 18.2502 16.53 17.7402 16.53 17.1102V9.55023C16.53 9.14023 16.87 8.80023 17.28 8.80023H18.23C19.9 8.80023 21.26 7.44026 21.26 5.77026C21.26 4.10026 19.9 2.74023 18.23 2.74023H16.33V2.75024Z" />
<path d="M18.2197 7.47028C17.8097 7.47028 17.4697 7.13028 17.4697 6.72028C17.4697 6.31028 17.8097 5.97028 18.2197 5.97028C18.3297 5.97028 18.4097 5.88032 18.4097 5.77032C18.4097 5.66032 18.3197 5.58032 18.2197 5.58032C17.8097 5.58032 17.4697 5.24032 17.4697 4.83032C17.4697 4.42032 17.8097 4.08032 18.2197 4.08032C19.1497 4.08032 19.9097 4.84032 19.9097 5.77032C19.9097 6.70032 19.1597 7.47028 18.2197 7.47028Z" />
<path d="M8.5 22.7502C8.09 22.7502 7.75 22.4102 7.75 22.0002V19.0002C7.75 18.5902 8.09 18.2502 8.5 18.2502C8.91 18.2502 9.25 18.5902 9.25 19.0002V22.0002C9.25 22.4102 8.91 22.7502 8.5 22.7502Z" />
<path d="M15.5 22.7502C15.09 22.7502 14.75 22.4102 14.75 22.0002V19.0002C14.75 18.5902 15.09 18.2502 15.5 18.2502C15.91 18.2502 16.25 18.5902 16.25 19.0002V22.0002C16.25 22.4102 15.91 22.7502 15.5 22.7502Z" />
</svg>
