<?xml version="1.0" encoding="UTF-8"?>
<svg width="24" height="24" viewBox="0 0 24 24" xmlns="http://www.w3.org/2000/svg">
 <path d="m22.75 22c0 0.41-0.34 0.75-0.75 0.75h-20c-0.41 0-0.75-0.34-0.75-0.75s0.34-0.75 0.75-0.75h20c0.41 0 0.75 0.34 0.75 0.75z" opacity=".4"/>
 <path d="m21 15v6.25h-18v-6.25c0-4.97 4.03-9 9-9s9 4.03 9 9z"/>
 <path d="m12 3.75c-0.41 0-0.75-0.34-0.75-0.75v-1c0-0.41 0.34-0.75 0.75-0.75s0.75 0.34 0.75 0.75v1c0 0.41-0.34 0.75-0.75 0.75z" opacity=".4"/>
 <path d="m4.9999 5.7499c-0.19 0-0.38-0.07-0.53-0.22l-1-1c-0.29-0.29-0.29-0.77 0-1.06s0.77-0.29 1.06 0l1 1c0.29 0.29 0.29 0.77 0 1.06-0.15 0.15-0.34 0.22-0.53 0.22z" opacity=".4"/>
 <path d="m19 5.7499c-0.19 0-0.38-0.07-0.53-0.22-0.29-0.29-0.29-0.77 0-1.06l1-1c0.29-0.29 0.77-0.29 1.06 0s0.29 0.77 0 1.06l-1 1c-0.15 0.15-0.34 0.22-0.53 0.22z" opacity=".4"/>
</svg>
