<?xml version="1.0" encoding="UTF-8"?>
<svg width="24" height="24" viewBox="0 0 24 24" xmlns="http://www.w3.org/2000/svg">
 <path d="m17.4 19.25h-10.8c-1.5 0-2.1-0.64-2.1-2.23v-1.04c0-1.59 0.6-2.23 2.1-2.23h10.8c1.5 0 2.1 0.64 2.1 2.23v1.04c0 1.59-0.6 2.23-2.1 2.23z"/>
 <path d="m12.75 19.25v2c0 0.41-0.34 0.75-0.75 0.75s-0.75-0.34-0.75-0.75v-2h1.5z"/>
 <path d="m12.75 10.75h-1.5v3h1.5v-3z"/>
 <path d="m12.75 2.75v2.5h-1.5v-2.5c0-0.41 0.34-0.75 0.75-0.75s0.75 0.34 0.75 0.75z"/>
 <path d="m15.4 10.75h-6.8c-1.5 0-2.1-0.64-2.1-2.23v-1.04c0-1.59 0.6-2.23 2.1-2.23h6.8c1.5 0 2.1 0.64 2.1 2.23v1.04c0 1.59-0.6 2.23-2.1 2.23z" opacity=".4"/>
</svg>
