<?xml version="1.0" encoding="UTF-8"?>
<svg width="24" height="24" viewBox="0 0 24 24" xmlns="http://www.w3.org/2000/svg">
 <path d="m11 18v3c0 0.55-0.45 1-1 1s-1-0.45-1-1v-3h2z"/>
 <path d="m15 18v3c0 0.55-0.45 1-1 1s-1-0.45-1-1v-3h2z"/>
 <path d="m17 11v5c0 1.1-0.9 2-2 2h-6c-1.1 0-2-0.9-2-2v-5c0-1.1 0.9-2 2-2h6c1.1 0 2 0.9 2 2z" opacity=".4"/>
 <path d="m5 11v4c0 0.55-0.45 1-1 1s-1-0.45-1-1v-4c0-0.55 0.45-1 1-1s1 0.45 1 1z"/>
 <path d="m21 11v4c0 0.55-0.45 1-1 1s-1-0.45-1-1v-4c0-0.55 0.45-1 1-1s1 0.45 1 1z"/>
 <path d="m9.6 7.6h4.8c0.88 0 1.6-0.72 1.6-1.6 0-2.21-1.79-4-4-4s-4 1.79-4 4c0 0.88 0.71998 1.6 1.6 1.6z" opacity=".4"/>
</svg>
