<svg width="24" height="24" viewBox="0 0 24 24"  xmlns="http://www.w3.org/2000/svg">
<path d="M20.8899 10.5303C20.4799 10.5303 20.1399 10.1903 20.1399 9.78032V6.91032L11.9999 2.84031L3.85986 6.91032V9.78032C3.85986 10.1903 3.51986 10.5303 3.10986 10.5303C2.69986 10.5303 2.35986 10.1903 2.35986 9.78032V6.45031C2.35986 6.17031 2.51991 5.91031 2.77991 5.78031L11.6699 1.34031C11.8799 1.23031 12.1299 1.23031 12.3399 1.34031L21.2299 5.78031C21.4799 5.91031 21.6499 6.17031 21.6499 6.45031V9.78032C21.6399 10.1903 21.2999 10.5303 20.8899 10.5303Z" />
<path d="M11.9999 22.7503C11.8799 22.7503 11.7699 22.7203 11.6699 22.6703L2.77991 18.2303C2.52991 18.1003 2.35986 17.8403 2.35986 17.5603V14.2303C2.35986 13.8203 2.69986 13.4803 3.10986 13.4803C3.51986 13.4803 3.85986 13.8203 3.85986 14.2303V17.1003L11.9999 21.1703L20.1399 17.1003V14.2303C20.1399 13.8203 20.4799 13.4803 20.8899 13.4803C21.2999 13.4803 21.6399 13.8203 21.6399 14.2303V17.5603C21.6399 17.8403 21.4798 18.1003 21.2198 18.2303L12.3299 22.6703C12.2299 22.7203 12.1199 22.7503 11.9999 22.7503Z" />
<path d="M11.9999 22.7503C11.5899 22.7503 11.2499 22.4103 11.2499 22.0003V16.4403C11.2499 16.0303 11.5899 15.6903 11.9999 15.6903C12.4099 15.6903 12.7499 16.0303 12.7499 16.4403V22.0003C12.7499 22.4103 12.4099 22.7503 11.9999 22.7503Z" />
<path d="M11.9999 17.1903C9.13988 17.1903 6.80988 14.8603 6.80988 12.0003C6.80988 9.14032 9.13988 6.81032 11.9999 6.81032C14.8599 6.81032 17.1899 9.14032 17.1899 12.0003C17.1899 14.8603 14.8599 17.1903 11.9999 17.1903ZM11.9999 8.31032C9.95988 8.31032 8.30988 9.97032 8.30988 12.0003C8.30988 14.0303 9.96988 15.6903 11.9999 15.6903C14.0299 15.6903 15.6899 14.0303 15.6899 12.0003C15.6899 9.97032 14.0399 8.31032 11.9999 8.31032Z" />
</svg>
