<?xml version="1.0" encoding="UTF-8"?>
<svg width="24" height="24" viewBox="0 0 24 24" xmlns="http://www.w3.org/2000/svg">
 <path d="m19.1 19.16c0.59-0.9 0.81-1.36 1.26-2.37-3.32-1.26-3.85-5.99-0.57-7.8-1-1.26-2.41-1.99-3.74-1.99-0.96 0-1.62 0.25-2.21 0.48-0.5 0.19-0.95 0.36-1.51 0.36-0.6 0-1.13-0.19-1.69-0.39-0.6-0.22-1.24-0.45-2.04-0.45-1.49 0-3.08 0.91-4.09 2.47-1.42 2.2-1.17 6.32 1.12 9.84 0.82 1.26 1.92 2.67 3.35 2.69 0.6 0.01 0.98999-0.17 1.42-0.36 0.49-0.22 1.02-0.46 1.95-0.46 0.93-0.01 1.45 0.24 1.94 0.46 0.42 0.19 0.8 0.37 1.39 0.36 1.44-0.02 2.6-1.58 3.42-2.84z" clip-rule="evenodd" fill-rule="evenodd"/>
 <path d="m15.84 2c0.16 1.1-0.29 2.19-0.88 2.95-0.63 0.82-1.73 1.46-2.79 1.42-0.19-1.06 0.3-2.15 0.9-2.88 0.67-0.8 1.8-1.42 2.77-1.49z" clip-rule="evenodd" fill-rule="evenodd" opacity=".4"/>
</svg>
