<?xml version="1.0" encoding="UTF-8"?>
<svg width="24" height="24" viewBox="0 0 24 24" xmlns="http://www.w3.org/2000/svg">
 <path d="m20.68 6.3203v13.63c0 1.8-1.29 2.56-2.86 1.69l-4.88-2.72c-0.52-0.28-1.36-0.28-1.88 0l-4.88 2.72c-0.42 0.23-0.82 0.35-1.18 0.36l15.68-15.68z" opacity=".4"/>
 <path d="m20.12 3.88-16.73 16.73c-0.05-0.2-0.07-0.42-0.07-0.66v-14.09c0-2.12 1.73-3.86 3.86-3.86h9.64c1.4 0 2.63 0.75 3.3 1.88z"/>
 <path d="m21.77 2.2299c-0.3-0.3-0.79-0.3-1.09 0l-18.45 18.46c-0.3 0.3-0.3 0.79 0 1.09 0.15 0.14 0.34 0.22 0.54 0.22s0.39-0.08 0.54-0.23l18.46-18.46c0.31-0.3 0.31-0.78 0-1.08z"/>
</svg>
