<svg width="24" height="24" viewBox="0 0 24 24"  xmlns="http://www.w3.org/2000/svg">
<path d="M11.9998 10.28C10.9798 10.28 9.95982 10.1 8.98982 9.75C8.59982 9.61 8.39982 9.18 8.53982 8.79C8.68982 8.4 9.11982 8.2 9.50982 8.34C11.1198 8.92 12.8898 8.92 14.4998 8.34C14.8898 8.2 15.3198 8.4 15.4598 8.79C15.5998 9.18 15.3998 9.61 15.0098 9.75C14.0398 10.1 13.0198 10.28 11.9998 10.28Z" />
<path d="M19.0698 22.75C18.5598 22.75 17.9998 22.6 17.4598 22.29L12.5798 19.58C12.2898 19.42 11.7198 19.42 11.4298 19.58L6.54982 22.29C5.55982 22.84 4.54982 22.9 3.77982 22.44C3.00982 21.99 2.56982 21.08 2.56982 19.95V5.86C2.56982 3.32 4.63982 1.25 7.17982 1.25H16.8298C19.3698 1.25 21.4398 3.32 21.4398 5.86V19.95C21.4398 21.08 20.9998 21.99 20.2298 22.44C19.8798 22.65 19.4798 22.75 19.0698 22.75ZM11.9998 17.96C12.4698 17.96 12.9298 18.06 13.2998 18.27L18.1798 20.98C18.6898 21.27 19.1598 21.33 19.4598 21.15C19.7598 20.97 19.9298 20.54 19.9298 19.95V5.86C19.9298 4.15 18.5298 2.75 16.8198 2.75H7.17982C5.46982 2.75 4.06982 4.15 4.06982 5.86V19.95C4.06982 20.54 4.23982 20.98 4.53982 21.15C4.83982 21.32 5.29982 21.27 5.81982 20.98L10.6998 18.27C11.0698 18.06 11.5298 17.96 11.9998 17.96Z" />
<path d="M19.0698 22.75C18.5598 22.75 17.9998 22.6 17.4598 22.29L12.5798 19.58C12.2898 19.42 11.7198 19.42 11.4298 19.58L6.54982 22.29C5.55982 22.84 4.54982 22.9 3.77982 22.44C3.00982 21.99 2.56982 21.08 2.56982 19.95V5.86C2.56982 3.32 4.63982 1.25 7.17982 1.25H16.8298C19.3698 1.25 21.4398 3.32 21.4398 5.86V19.95C21.4398 21.08 20.9998 21.99 20.2298 22.44C19.8798 22.65 19.4798 22.75 19.0698 22.75ZM11.9998 17.96C12.4698 17.96 12.9298 18.06 13.2998 18.27L18.1798 20.98C18.6898 21.27 19.1598 21.33 19.4598 21.15C19.7598 20.97 19.9298 20.54 19.9298 19.95V5.86C19.9298 4.15 18.5298 2.75 16.8198 2.75H7.17982C5.46982 2.75 4.06982 4.15 4.06982 5.86V19.95C4.06982 20.54 4.23982 20.98 4.53982 21.15C4.83982 21.32 5.29982 21.27 5.81982 20.98L10.6998 18.27C11.0698 18.06 11.5298 17.96 11.9998 17.96Z" />
</svg>
