<svg width="24" height="24" viewBox="0 0 24 24"  xmlns="http://www.w3.org/2000/svg">
<path opacity="0.4" d="M19.5 9.96973V18.9997C19.5 20.9997 19 21.9997 16.5 21.9997H7.5C5 21.9997 4.5 20.9997 4.5 18.9997V9.96973C4.66 9.98973 4.83 9.99973 5 9.99973H19C19.17 9.99973 19.34 9.98973 19.5 9.96973Z" />
<path d="M22 5V7C22 8.83 21.17 9.82 19.5 9.97C19.34 9.99 19.17 10 19 10H5C4.83 10 4.66 9.99 4.5 9.97C2.83 9.82 2 8.83 2 7V5C2 3 3 2 5 2H19C21 2 22 3 22 5Z" />
<path d="M13.8202 14.75H10.1802C9.77018 14.75 9.43018 14.41 9.43018 14C9.43018 13.59 9.77018 13.25 10.1802 13.25H13.8202C14.2302 13.25 14.5702 13.59 14.5702 14C14.5702 14.41 14.2302 14.75 13.8202 14.75Z" />
</svg>
