<?xml version="1.0" encoding="UTF-8"?>
<svg width="24" height="24" viewBox="0 0 24 24" xmlns="http://www.w3.org/2000/svg">
 <path d="m16.19 2h-8.37c-3.64 0-5.81 2.17-5.81 5.81v8.37c0 3.64 2.17 5.81 5.81 5.81h8.37c3.64 0 5.81-2.17 5.81-5.81v-8.37c0-3.64-2.17-5.81-5.81-5.81z" opacity=".4"/>
 <path d="m19 15h-0.25v-7.25c0-1.52-1.23-2.75-2.75-2.75h-8c-1.52 0-2.75 1.23-2.75 2.75v7.25h-0.25c-0.41 0-0.75 0.34-0.75 0.75s0.34 0.75 0.75 0.75h3.84c0.34 1.43 1.63 2.5 3.16 2.5s2.82-1.07 3.16-2.5h3.84c0.41 0 0.75-0.34 0.75-0.75s-0.34-0.75-0.75-0.75zm-2.21-3.12c-0.06-0.02-0.12-0.04-0.19-0.06-0.2-0.04-0.4-0.07-0.61-0.07h-8c-0.21 0-0.40999 0.03-0.60999 0.07-0.06 0.01-0.12 0.04-0.19 0.06-0.13 0.04-0.26 0.08-0.38 0.14-0.03 0.01-0.06002 0.02-0.08002 0.03v-1.05c0-0.69 0.56-1.25 1.25-1.25h8c0.69 0 1.25 0.56 1.25 1.25v1.05c-0.03-0.01-0.05-0.02-0.08-0.03-0.1-0.06-0.23-0.1-0.36-0.14zm-8.79-5.38h8c0.69 0 1.25 0.56 1.25 1.25v0.81c-0.38-0.19-0.8-0.31-1.25-0.31h-8c-0.45 0-0.87 0.12-1.25 0.31v-0.81c0-0.69 0.56-1.25 1.25-1.25zm6.5 8.5c-0.41 0-0.75 0.34-0.75 0.75 0 0.96-0.79 1.75-1.75 1.75s-1.75-0.79-1.75-1.75c0-0.41-0.34-0.75-0.75-0.75h-2.75v-0.5c0-0.69 0.56-1.25 1.25-1.25h8c0.69 0 1.25 0.56 1.25 1.25v0.5h-2.75z"/>
</svg>
