<?xml version="1.0" encoding="UTF-8"?>
<svg width="24" height="24" viewBox="0 0 24 24" xmlns="http://www.w3.org/2000/svg">
 <path d="m21 7v10c0 3-1.5 5-5 5h-8c-3.5 0-5-2-5-5v-10c0-3 1.5-5 5-5h8c3.5 0 5 2 5 5z" opacity=".4"/>
 <path d="m15.5 2v7.86c0 0.44001-0.52 0.66001-0.84 0.37001l-2.32-2.14c-0.19-0.18-0.49-0.18-0.68 0l-2.32 2.14c-0.32 0.3-0.84003 0.07-0.84003-0.37001v-7.86h7z"/>
 <path d="m17.5 14.75h-4.25c-0.41 0-0.75-0.34-0.75-0.75s0.34-0.75 0.75-0.75h4.25c0.41 0 0.75 0.34 0.75 0.75s-0.34 0.75-0.75 0.75z"/>
 <path d="m17.5 18.75h-8.5c-0.41 0-0.75-0.34-0.75-0.75s0.34-0.75 0.75-0.75h8.5c0.41 0 0.75 0.34 0.75 0.75s-0.34 0.75-0.75 0.75z"/>
</svg>
