<svg width="24" height="24" viewBox="0 0 24 24"  xmlns="http://www.w3.org/2000/svg">
<path d="M1.99994 22.75C1.80994 22.75 1.61994 22.68 1.46994 22.53C1.17994 22.24 1.17994 21.76 1.46994 21.47L21.4699 1.47C21.7599 1.18 22.2399 1.18 22.5299 1.47C22.8199 1.76 22.8199 2.24 22.5299 2.53L2.52994 22.53C2.37994 22.68 2.18994 22.75 1.99994 22.75Z" />
<path d="M18.8799 22.75C18.3199 22.75 17.7199 22.58 17.1199 22.25L10.5999 18.18C10.2499 17.96 10.1399 17.5 10.3599 17.15C10.5799 16.8 11.0399 16.69 11.3899 16.91L17.8799 20.96C18.4399 21.27 18.9999 21.34 19.3599 21.13C19.7199 20.92 19.9299 20.4 19.9299 19.71V8.71C19.9299 8.3 20.2699 7.96 20.6799 7.96C21.0899 7.96 21.4299 8.3 21.4299 8.71V19.71C21.4299 20.94 20.9499 21.93 20.1199 22.42C19.7499 22.64 19.3299 22.75 18.8799 22.75Z" />
<path d="M3.31994 20.7C2.90994 20.7 2.56994 20.36 2.56994 19.95V5.86C2.56994 3.32 4.63994 1.25 7.17994 1.25H16.8299C18.2199 1.25 19.5299 1.87 20.4099 2.96C20.6699 3.28 20.6199 3.75 20.2999 4.02C19.9799 4.28 19.5099 4.23 19.2499 3.91C18.6499 3.17 17.7699 2.75 16.8299 2.75H7.17994C5.46994 2.75 4.06994 4.15 4.06994 5.86V19.95C4.06994 20.36 3.72994 20.7 3.31994 20.7Z" />
</svg>
