<?xml version="1.0" encoding="UTF-8"?>
<svg width="24" height="24" viewBox="0 0 24 24" xmlns="http://www.w3.org/2000/svg">
 <path d="M16.19 2H7.81C4.17 2 2 4.17 2 7.81V16.18C2 19.83 4.17 22 7.81 22H16.18C19.82 22 21.99 19.83 21.99 16.19V7.81C22 4.17 19.83 2 16.19 2Z" opacity=".4"/>
 <path d="m17.85 13.53c-0.08-0.18-0.22-0.33-0.41-0.41-0.09-0.04-0.19-0.06-0.29-0.06h-10.3c-0.41 0-0.75 0.34-0.75 0.75s0.34 0.75 0.75 0.75h8.5l-1.76 1.76c-0.29 0.29-0.29 0.77 0 1.06 0.15 0.15 0.34 0.22 0.53 0.22s0.38-0.07 0.53-0.22l3.04-3.04c0.07-0.07 0.12-0.15 0.16-0.24 0.07-0.18 0.07-0.39 0-0.57z"/>
 <path d="m6.1502 10.47c0.08 0.18 0.22 0.33 0.41 0.41 0.09 0.04 0.19 0.06 0.29 0.06h10.31c0.41 0 0.75-0.34 0.75-0.75 0-0.41001-0.34-0.75001-0.75-0.75001h-8.5l1.76-1.76c0.29-0.29 0.29-0.77 0-1.06s-0.77004-0.29-1.06 0l-3.04 3.03c-0.07 0.07-0.13 0.16-0.17 0.25-0.07 0.18001-0.07 0.39001 0 0.57001z"/>
</svg>
