<svg width="24" height="24" viewBox="0 0 24 24"  xmlns="http://www.w3.org/2000/svg">
<path opacity="0.4" d="M16.19 2H7.82C4.17 2 2 4.17 2 7.81V16.18C2 19.82 4.17 21.99 7.81 21.99H16.18C19.82 21.99 21.99 19.82 21.99 16.18V7.81C22 4.17 19.83 2 16.19 2Z" />
<path d="M10.1801 6.1001C9.77008 6.1001 9.43008 6.4401 9.43008 6.8501V15.3501L7.67008 13.5901C7.38008 13.3001 6.90008 13.3001 6.61008 13.5901C6.32008 13.8801 6.32008 14.3601 6.61008 14.6501L9.65008 17.6901C9.72008 17.7601 9.80008 17.8101 9.89008 17.8501C9.98008 17.8901 10.0801 17.9101 10.1801 17.9101C10.2801 17.9101 10.3701 17.8901 10.4701 17.8501C10.6501 17.7701 10.8001 17.6301 10.8801 17.4401C10.9201 17.3501 10.9401 17.2501 10.9401 17.1501V6.8501C10.9301 6.4301 10.6001 6.1001 10.1801 6.1001Z" />
<path d="M17.3901 9.3601L14.3501 6.3201C14.2801 6.2501 14.2001 6.2001 14.1101 6.1601C13.9301 6.0801 13.7201 6.0801 13.5401 6.1601C13.3601 6.2401 13.2101 6.3801 13.1301 6.5701C13.0901 6.6601 13.0701 6.7601 13.0701 6.8601V17.1701C13.0701 17.5801 13.4101 17.9201 13.8201 17.9201C14.2301 17.9201 14.5701 17.5801 14.5701 17.1701V8.6701L16.3301 10.4301C16.4801 10.5801 16.6701 10.6501 16.8601 10.6501C17.0501 10.6501 17.2401 10.5801 17.3901 10.4301C17.6801 10.1201 17.6801 9.6501 17.3901 9.3601Z" />
</svg>
