<?xml version="1.0" encoding="UTF-8"?>
<svg width="24" height="24" viewBox="0 0 24 24" xmlns="http://www.w3.org/2000/svg">
 <path d="m12 22c5.5228 0 10-4.4772 10-10 0-5.5228-4.4772-10-10-10-5.5228 0-10 4.4772-10 10 0 5.5228 4.4772 10 10 10z" opacity=".4"/>
 <path d="m17.39 9.26-3.04-3.04c-0.07-0.07-0.15-0.12-0.24-0.16-0.18-0.08-0.39-0.08-0.57 0s-0.33 0.22-0.41 0.41c-0.04 0.09-0.06 0.18998-0.06 0.28998v10.31c0 0.41 0.34 0.75 0.75 0.75s0.75-0.34 0.75-0.75v-8.5l1.76 1.76c0.15 0.15 0.34 0.22 0.53 0.22s0.38-0.07 0.53-0.22c0.29-0.31 0.29-0.78002 0-1.07z"/>
 <path d="m10.93 6.75c0-0.41-0.34-0.75-0.75-0.75-0.41001 0-0.75001 0.34-0.75001 0.75v8.5l-1.76-1.76c-0.29-0.29-0.77003-0.29-1.06 0s-0.29 0.77 0 1.06l3.04 3.04c0.07 0.07 0.15002 0.12 0.24002 0.16s0.18999 0.06 0.28999 0.06 0.19-0.02 0.29-0.06c0.18-0.08 0.33-0.22 0.41-0.41 0.04-0.09 0.06-0.19 0.06-0.29v-10.3h-0.01z"/>
</svg>
