<?xml version="1.0" encoding="UTF-8"?>
<svg width="24" height="24" viewBox="0 0 24 24" xmlns="http://www.w3.org/2000/svg">
 <path d="m12 22c5.5228 0 10-4.4772 10-10 0-5.5228-4.4772-10-10-10-5.5228 0-10 4.4772-10 10 0 5.5228 4.4772 10 10 10z" opacity=".4"/>
 <path d="m17.85 13.53c-0.08-0.18-0.2201-0.33-0.4101-0.41-0.09-0.04-0.19-0.06-0.29-0.06h-10.31c-0.41 0-0.75 0.34-0.75 0.75s0.34 0.75 0.75 0.75h8.5l-1.76 1.76c-0.29 0.29-0.29 0.77 0 1.06 0.15 0.15 0.34 0.22 0.53 0.22s0.3801-0.07 0.5301-0.22l3.0399-3.04c0.07-0.07 0.12-0.15 0.16-0.24 0.08-0.18 0.0801-0.39 0.0101-0.57z"/>
 <path d="m17.15 9.4301h-8.5l1.7601-1.76c0.29-0.29 0.29-0.77003 0-1.06s-0.77004-0.29-1.06 0l-3.04 3.04c-0.07 0.07-0.12001 0.15002-0.16001 0.24002-0.08 0.17999-0.08 0.38999 0 0.56999s0.22001 0.33 0.41001 0.41c0.09 0.04 0.19001 0.06 0.29001 0.06h10.31c0.41 0 0.75-0.34 0.75-0.75 0-0.41001-0.3401-0.75001-0.7601-0.75001z"/>
</svg>
