<?xml version="1.0" encoding="UTF-8"?>
<svg width="24" height="24" viewBox="0 0 24 24" xmlns="http://www.w3.org/2000/svg">
 <path d="m16.19 2h-8.37c-3.65 0-5.82 2.17-5.82 5.81v8.37c0 3.64 2.17 5.81 5.81 5.81h8.37c3.64 0 5.81-2.17 5.81-5.81v-8.37c0.01-3.64-2.16-5.81-5.8-5.81z" opacity=".4"/>
 <path d="m10.18 6.1001c-0.41002 0-0.75002 0.34-0.75002 0.75v8.5l-1.76-1.76c-0.29-0.29-0.77-0.29-1.06 0s-0.29 0.77 0 1.06l3.04 3.04c0.07 0.07 0.15 0.12 0.24 0.16s0.19002 0.06 0.29002 0.06 0.19-0.02 0.29-0.06c0.18-0.08 0.33-0.22 0.41-0.41 0.04-0.09 0.06-0.19 0.06-0.29v-10.3c-0.01-0.42-0.34-0.75-0.76-0.75z"/>
 <path d="m17.39 9.3601-3.04-3.04c-0.07-0.07-0.15-0.12-0.24-0.16-0.18-0.08-0.39-0.08-0.57 0s-0.33 0.22-0.41 0.41c-0.04 0.09-0.06 0.19-0.06 0.29v10.31c0 0.41 0.34 0.75 0.75 0.75s0.75-0.34 0.75-0.75v-8.5l1.76 1.76c0.15 0.15 0.34 0.22 0.53 0.22s0.38-0.07 0.53-0.22c0.29-0.31 0.29-0.78 0-1.07z"/>
</svg>
