<svg width="24" height="24" viewBox="0 0 24 24"  xmlns="http://www.w3.org/2000/svg">
<path opacity="0.4" d="M12 22C17.5228 22 22 17.5228 22 12C22 6.47715 17.5228 2 12 2C6.47715 2 2 6.47715 2 12C2 17.5228 6.47715 22 12 22Z" />
<path d="M11.9999 15.0099C11.8099 15.0099 11.6199 14.9399 11.4699 14.7899L7.93991 11.2599C7.64991 10.9699 7.64991 10.4899 7.93991 10.1999C8.22991 9.90992 8.70991 9.90992 8.99991 10.1999L11.9999 13.1999L14.9999 10.1999C15.2899 9.90992 15.7699 9.90992 16.0599 10.1999C16.3499 10.4899 16.3499 10.9699 16.0599 11.2599L12.5299 14.7899C12.3799 14.9399 12.1899 15.0099 11.9999 15.0099Z" />
</svg>
