<svg width="24" height="24" viewBox="0 0 24 24"  xmlns="http://www.w3.org/2000/svg">
<path d="M12 22.7499C11.59 22.7499 11.25 22.4099 11.25 21.9999V19.9999C11.25 19.5899 11.59 19.2499 12 19.2499C12.41 19.2499 12.75 19.5899 12.75 19.9999V21.9999C12.75 22.4099 12.41 22.7499 12 22.7499Z" />
<path d="M12 18.7499C11.59 18.7499 11.25 18.4099 11.25 17.9999V15.9999C11.25 15.5899 11.59 15.2499 12 15.2499C12.41 15.2499 12.75 15.5899 12.75 15.9999V17.9999C12.75 18.4099 12.41 18.7499 12 18.7499Z" />
<path d="M12 14.7499C11.59 14.7499 11.25 14.4099 11.25 13.9999V10.9999C11.25 6.72994 14.73 3.24994 19 3.24994H22C22.41 3.24994 22.75 3.58994 22.75 3.99994C22.75 4.40994 22.41 4.74994 22 4.74994H19C15.55 4.74994 12.75 7.54994 12.75 10.9999V13.9999C12.75 14.4099 12.41 14.7499 12 14.7499Z" />
<path d="M12 14.7499C11.59 14.7499 11.25 14.4099 11.25 13.9999V10.9999C11.25 7.54994 8.45 4.74994 5 4.74994H2C1.59 4.74994 1.25 4.40994 1.25 3.99994C1.25 3.58994 1.59 3.24994 2 3.24994H5C9.27 3.24994 12.75 6.72994 12.75 10.9999V13.9999C12.75 14.4099 12.41 14.7499 12 14.7499Z" />
<path d="M3.99997 6.74994C3.80997 6.74994 3.61994 6.67994 3.46994 6.52994L1.46994 4.52994C1.17994 4.23994 1.17994 3.75994 1.46994 3.46994L3.46994 1.46994C3.75994 1.17994 4.24 1.17994 4.53 1.46994C4.82 1.75994 4.82 2.23994 4.53 2.52994L3.05997 3.99994L4.53 5.46994C4.82 5.75994 4.82 6.23994 4.53 6.52994C4.38 6.67994 4.18997 6.74994 3.99997 6.74994Z" />
<path d="M20 6.74994C19.81 6.74994 19.6199 6.67994 19.4699 6.52994C19.1799 6.23994 19.1799 5.75994 19.4699 5.46994L20.94 3.99994L19.4699 2.52994C19.1799 2.23994 19.1799 1.75994 19.4699 1.46994C19.7599 1.17994 20.24 1.17994 20.53 1.46994L22.53 3.46994C22.82 3.75994 22.82 4.23994 22.53 4.52994L20.53 6.52994C20.38 6.67994 20.19 6.74994 20 6.74994Z" />
</svg>
