<?xml version="1.0" encoding="UTF-8"?>
<svg width="24" height="24" viewBox="0 0 24 24" xmlns="http://www.w3.org/2000/svg">
 <path d="m12 22c5.5228 0 10-4.4772 10-10 0-5.5228-4.4772-10-10-10-5.5228 0-10 4.4772-10 10 0 5.5228 4.4772 10 10 10z" opacity=".4"/>
 <path d="m15.53 10.97-3-3c-0.29-0.29-0.77-0.29-1.06 0l-3 3c-0.29 0.29-0.29 0.77 0 1.06s0.77 0.29 1.06 0l1.72-1.72v5.19c0 0.41 0.34 0.75 0.75 0.75s0.75-0.34 0.75-0.75v-5.19l1.72 1.72c0.15 0.15 0.34 0.22 0.53 0.22s0.38-0.07 0.53-0.22c0.29-0.29 0.29-0.77 0-1.06z"/>
</svg>
