<?xml version="1.0" encoding="UTF-8"?>
<svg width="24" height="24" viewBox="0 0 24 24" xmlns="http://www.w3.org/2000/svg">
 <path d="M7.81 2H16.18C19.83 2 22 4.17 22 7.81V16.18C22 19.82 19.83 21.99 16.19 21.99H7.81C4.17 22 2 19.83 2 16.19V7.81C2 4.17 4.17 2 7.81 2Z" opacity=".4"/>
 <path d="m10.24 6.25c-0.42002 0-0.75002 0.34-0.75002 0.75v8.19l-1.67-1.67c-0.29-0.29-0.77-0.29-1.06 0s-0.29 0.77 0 1.06l2.95 2.95c0.07 0.07 0.15 0.12 0.24 0.16 0.09002 0.04 0.19002 0.06 0.29002 0.06s0.19-0.02 0.29-0.06c0.18-0.08 0.33-0.22 0.41-0.41 0.04-0.09 0.06-0.19 0.06-0.29v-9.99c-0.01-0.41-0.35-0.75-0.76-0.75z"/>
 <path d="m17.24 9.42-2.95-2.95c-0.07-0.07-0.15-0.12-0.24-0.16-0.18-0.08-0.39-0.08-0.57 0s-0.33 0.22-0.41 0.41c-0.04 0.09-0.06 0.18-0.06 0.28v10c0 0.41 0.34 0.75 0.75 0.75s0.75-0.34 0.75-0.75v-8.19l1.67 1.67c0.15 0.15 0.34 0.22 0.53 0.22s0.38-0.07 0.53-0.22c0.29-0.29 0.29-0.77 0-1.06z"/>
</svg>
