<?xml version="1.0" encoding="UTF-8"?>
<svg width="24" height="24" viewBox="0 0 24 24" xmlns="http://www.w3.org/2000/svg">
 <path d="M16.19 2H7.81C4.17 2 2 4.17 2 7.81V16.18C2 19.83 4.17 22 7.81 22H16.18C19.82 22 21.99 19.83 21.99 16.19V7.81C22 4.17 19.83 2 16.19 2Z" opacity=".4"/>
 <path d="m18.53 11.47-4.29-4.29c-0.29-0.29-0.77-0.29-1.06 0s-0.29 0.77 0 1.06l3.01 3.01h-10.19c-0.41 0-0.75 0.34-0.75 0.75s0.34 0.75 0.75 0.75h10.19l-3.01 3.01c-0.29 0.29-0.29 0.77 0 1.06 0.15 0.15 0.34 0.22 0.53 0.22s0.38-0.07 0.53-0.22l4.29-4.29c0.14-0.14 0.22-0.33 0.22-0.53s-0.08-0.39-0.22-0.53z"/>
</svg>
