<svg width="24" height="24" viewBox="0 0 24 24"  xmlns="http://www.w3.org/2000/svg">
<path d="M18.0701 10.3199C17.8801 10.3199 17.6901 10.2499 17.5401 10.0999L12.0001 4.55994L6.46012 10.0999C6.17012 10.3899 5.69012 10.3899 5.40012 10.0999C5.11012 9.80994 5.11012 9.32994 5.40012 9.03994L11.4701 2.96994C11.7601 2.67994 12.2401 2.67994 12.5301 2.96994L18.6001 9.03994C18.8901 9.32994 18.8901 9.80994 18.6001 10.0999C18.4601 10.2499 18.2601 10.3199 18.0701 10.3199Z" />
<path d="M12.0001 21.2499C11.5901 21.2499 11.2501 20.9099 11.2501 20.4999V3.66994C11.2501 3.25994 11.5901 2.91994 12.0001 2.91994C12.4101 2.91994 12.7501 3.25994 12.7501 3.66994V20.4999C12.7501 20.9099 12.4101 21.2499 12.0001 21.2499Z" />
</svg>
