<svg width="24" height="24" viewBox="0 0 24 24"  xmlns="http://www.w3.org/2000/svg">
<path opacity="0.4" d="M12 22C17.5228 22 22 17.5228 22 12C22 6.47715 17.5228 2 12 2C6.47715 2 2 6.47715 2 12C2 17.5228 6.47715 22 12 22Z" />
<path d="M15.5299 14.0099C15.3399 14.0099 15.1499 13.9399 14.9999 13.7899L11.9999 10.7899L8.99991 13.7899C8.70991 14.0799 8.22991 14.0799 7.93991 13.7899C7.64991 13.4999 7.64991 13.0199 7.93991 12.7299L11.4699 9.19992C11.7599 8.90992 12.2399 8.90992 12.5299 9.19992L16.0599 12.7299C16.3499 13.0199 16.3499 13.4999 16.0599 13.7899C15.9099 13.9399 15.7199 14.0099 15.5299 14.0099Z" />
</svg>
