<?xml version="1.0" encoding="UTF-8"?>
<svg width="24" height="24" viewBox="0 0 24 24" xmlns="http://www.w3.org/2000/svg">
 <path d="m21.75 6.73c0-0.2-0.08-0.38997-0.22-0.52997l-3.72-3.72c-0.29-0.29-0.77-0.29-1.06 0s-0.29 0.77 0 1.06l2.45 2.45h-16.2c-0.41 0-0.75 0.34-0.75 0.75s0.34 0.75 0.75 0.75h16.19l-2.44 2.44c-0.29 0.29004-0.29 0.77004 0 1.06 0.15 0.15 0.34 0.22 0.53 0.22s0.38-0.07 0.53-0.22l3.71-3.71c0.07-0.07 0.13-0.16001 0.17-0.26001 0-0.01 0-0.02003 0.01-0.03003 0.03-0.09 0.05-0.17001 0.05-0.26001z" opacity=".4"/>
 <path d="m21 16.52h-16.19l2.44-2.44c0.29-0.29 0.29-0.77 0-1.06s-0.77-0.29-1.06 0l-3.71 3.71c-0.07 0.07-0.12998 0.16-0.16998 0.26 0 0.01-1e-5 0.02-0.01001 0.03-0.03 0.08-0.04999 0.17-0.04999 0.26 0 0.2 0.07997 0.39 0.21997 0.53l3.72 3.72c0.15 0.15 0.33997 0.22 0.52997 0.22s0.38003-0.07 0.53003-0.22c0.29-0.29 0.29-0.7701 0-1.0601l-2.45-2.4499h16.2c0.41 0 0.75-0.34 0.75-0.75s-0.34-0.75-0.75-0.75z"/>
</svg>
