<svg width="24" height="24" viewBox="0 0 24 24"  xmlns="http://www.w3.org/2000/svg">
<path opacity="0.4" d="M12 22C17.5228 22 22 17.5228 22 12C22 6.47715 17.5228 2 12 2C6.47715 2 2 6.47715 2 12C2 17.5228 6.47715 22 12 22Z" />
<path d="M10.7402 16.2799C10.5502 16.2799 10.3602 16.2099 10.2102 16.0599C9.92018 15.7699 9.92018 15.2899 10.2102 14.9999L13.2102 11.9999L10.2102 8.99991C9.92018 8.70991 9.92018 8.22991 10.2102 7.93991C10.5002 7.64991 10.9802 7.64991 11.2702 7.93991L14.8002 11.4699C15.0902 11.7599 15.0902 12.2399 14.8002 12.5299L11.2702 16.0599C11.1202 16.2099 10.9302 16.2799 10.7402 16.2799Z" />
</svg>
