<?xml version="1.0" encoding="UTF-8"?>
<svg width="24" height="24" viewBox="0 0 24 24" xmlns="http://www.w3.org/2000/svg">
 <path d="m10.98 6.19-3.71-3.71c-0.07-0.07-0.16001-0.12998-0.26001-0.16998-0.01 0-0.02003-1e-5 -0.03003-0.01001-0.08-0.03-0.17001-0.04999-0.26001-0.04999-0.2 0-0.38997 0.07997-0.52997 0.21997l-3.72 3.72c-0.29 0.29-0.29 0.77 0 1.06s0.77006 0.29 1.0601 0l2.45-2.45v16.2c0 0.41 0.34 0.75 0.75 0.75s0.75-0.34 0.75-0.75v-16.19l2.44 2.44c0.15005 0.15 0.34005 0.21997 0.53005 0.21997s0.38-0.06997 0.53-0.21997c0.29-0.29 0.29-0.76 0-1.06z"/>
 <path d="m21.53 16.75c-0.29-0.29-0.77-0.29-1.06 0l-2.45 2.45v-16.2c0-0.41-0.34-0.75-0.75-0.75s-0.75 0.34-0.75 0.75v16.19l-2.44-2.44c-0.29-0.29-0.77-0.29-1.06 0s-0.29 0.77 0 1.06l3.71 3.71c0.07 0.07 0.16 0.13 0.26 0.17 0.01 0 0.02 0 0.03 0.01 0.08 0.03 0.17 0.05 0.26 0.05 0.2 0 0.39-0.08 0.53-0.22l3.72-3.72c0.29-0.3 0.29-0.77 0-1.06z" opacity=".4"/>
</svg>
