<?xml version="1.0" encoding="UTF-8"?>
<svg width="24" height="24" viewBox="0 0 24 24" xmlns="http://www.w3.org/2000/svg">
 <path d="M2 16.19V7.81C2 4.17 4.17 2 7.81 2H16.18C19.83 2 22 4.17 22 7.81V16.18C22 19.82 19.83 21.99 16.19 21.99H7.81C4.17 22 2 19.83 2 16.19Z" opacity=".4"/>
 <path d="m11.47 18.53-4.29-4.29c-0.29-0.29-0.29-0.77 0-1.06s0.77-0.29 1.06 0l3.01 3.01v-10.19c0-0.41 0.34-0.75 0.75-0.75s0.75 0.34 0.75 0.75v10.19l3.01-3.01c0.29-0.29 0.77-0.29 1.06 0 0.15 0.15 0.22 0.34 0.22 0.53s-0.07 0.38-0.22 0.53l-4.29 4.29c-0.14 0.14-0.33 0.22-0.53 0.22s-0.39-0.08-0.53-0.22z"/>
</svg>
