<?xml version="1.0" encoding="UTF-8"?>
<svg width="24" height="24" viewBox="0 0 24 24" xmlns="http://www.w3.org/2000/svg">
 <path d="M7.81 2H16.18C19.83 2 22 4.17 22 7.81V16.18C22 19.82 19.83 21.99 16.19 21.99H7.81C4.17 22 2 19.83 2 16.19V7.81C2 4.17 4.17 2 7.81 2Z" opacity=".4"/>
 <path d="m17.69 13.48c-0.08-0.18-0.22-0.33-0.41-0.41-0.09-0.04-0.19-0.06-0.29-0.06h-9.99c-0.41 0-0.75 0.34-0.75 0.75s0.34 0.75 0.75 0.75h8.19l-1.67 1.67c-0.29 0.29-0.29 0.77 0 1.06 0.15 0.15 0.34 0.22 0.53 0.22s0.38-0.07 0.53-0.22l2.95-2.95c0.07-0.07 0.12-0.15 0.16-0.24 0.08-0.19 0.08-0.39 0-0.57z"/>
 <path d="m6.31 10.52c0.08 0.18 0.22 0.33 0.41 0.41 0.09 0.04 0.18 0.06 0.28 0.06h10c0.41 0 0.75-0.34 0.75-0.75 0-0.41002-0.34-0.75002-0.75-0.75002h-8.19l1.67-1.67c0.29-0.29 0.29-0.77 0-1.06s-0.77-0.29-1.06 0l-2.95 2.95c-0.07 0.07-0.12 0.15-0.16 0.24-0.08 0.19002-0.08 0.39002 0 0.57002z"/>
</svg>
