<?xml version="1.0" encoding="UTF-8"?>
<svg width="24" height="24" viewBox="0 0 24 24" xmlns="http://www.w3.org/2000/svg">
 <path d="m16.19 2h-8.37c-3.64 0-5.81 2.17-5.81 5.81v8.37c0 3.64 2.17 5.81 5.81 5.81h8.37c3.64 0 5.81-2.17 5.81-5.81v-8.37c0-3.64-2.17-5.81-5.81-5.81z" opacity=".4"/>
 <path d="m19.35 8.2702c-0.04-0.09-0.09-0.17-0.16-0.24l-1.8-1.8c-0.29-0.29-0.77-0.29-1.06 0s-0.29 0.76999 0 1.06l0.52 0.52001h-0.15c-1.95 0-3.64 1.07-4.57 2.64-0.92-1.57-2.61-2.64-4.56-2.64h-0.42999l0.51995-0.52001c0.29-0.29 0.29-0.76999 0-1.06s-0.76999-0.29-1.06 0l-1.8 1.8c-0.29 0.29-0.29 0.77 0 1.06l1.8 1.8c0.15 0.15 0.34003 0.22 0.53003 0.22s0.37996-0.07 0.52996-0.22c0.29-0.29 0.29-0.77 0-1.06l-0.51995-0.52h0.41998c2.1 0 3.81 1.71 3.81 3.81v4.13c0 0.41 0.34 0.75 0.75 0.75s0.75-0.34 0.75-0.75v-4.13c0-2.1 1.71-3.81 3.82-3.81h0.1501l-0.5201 0.52c-0.29 0.29-0.29 0.77 0 1.06 0.15 0.15 0.34 0.22 0.53 0.22s0.38-0.07 0.53-0.22l1.8-1.8c0.07-0.07 0.1201-0.14999 0.1601-0.23999 0.09-0.19 0.0899-0.40001 0.0099-0.58001z"/>
</svg>
