<?xml version="1.0" encoding="UTF-8"?>
<svg width="24" height="24" viewBox="0 0 24 24" xmlns="http://www.w3.org/2000/svg">
 <path d="m12 22.75c-0.41 0-0.75-0.34-0.75-0.75v-2c0-0.41 0.34-0.75 0.75-0.75s0.75 0.34 0.75 0.75v2c0 0.41-0.34 0.75-0.75 0.75z" opacity=".4"/>
 <path d="m12 18.75c-0.41 0-0.75-0.34-0.75-0.75v-2c0-0.41 0.34-0.75 0.75-0.75s0.75 0.34 0.75 0.75v2c0 0.41-0.34 0.75-0.75 0.75z" opacity=".4"/>
 <path d="m12 14.75c-0.41 0-0.75-0.34-0.75-0.75v-3c0-4.27 3.48-7.75 7.75-7.75h3c0.41 0 0.75 0.34 0.75 0.75s-0.34 0.75-0.75 0.75h-3c-3.45 0-6.25 2.8-6.25 6.25v3c0 0.41-0.34 0.75-0.75 0.75z"/>
 <path d="m12 14.75c-0.41 0-0.75-0.34-0.75-0.75v-3c0-3.45-2.8-6.25-6.25-6.25h-3c-0.41 0-0.75-0.34-0.75-0.75s0.34-0.75 0.75-0.75h3c4.27 0 7.75 3.48 7.75 7.75v3c0 0.41-0.34 0.75-0.75 0.75z"/>
 <path d="m4 6.7499c-0.19 0-0.38003-0.07-0.53003-0.22l-2-2c-0.29-0.29-0.29-0.77 0-1.06l2-2c0.29-0.29 0.77006-0.29 1.0601 0s0.29 0.77 0 1.06l-1.47 1.47 1.47 1.47c0.29 0.29 0.29 0.77 0 1.06-0.15 0.15-0.34003 0.22-0.53003 0.22z"/>
 <path d="m20 6.7499c-0.19 0-0.3801-0.07-0.5301-0.22-0.29-0.29-0.29-0.77 0-1.06l1.4701-1.47-1.4701-1.47c-0.29-0.29-0.29-0.77 0-1.06s0.7701-0.29 1.0601 0l2 2c0.29 0.29 0.29 0.77 0 1.06l-2 2c-0.15 0.15-0.34 0.22-0.53 0.22z"/>
</svg>
