<?xml version="1.0" encoding="UTF-8"?>
<svg width="24" height="24" viewBox="0 0 24 24" xmlns="http://www.w3.org/2000/svg">
 <path d="m12 22c5.5228 0 10-4.4772 10-10 0-5.5228-4.4772-10-10-10-5.5228 0-10 4.4772-10 10 0 5.5228 4.4772 10 10 10z" opacity=".4"/>
 <path d="m16.03 11.47-3-3c-0.29-0.29-0.77-0.29-1.06 0s-0.29 0.77 0 1.06l1.72 1.72h-5.19c-0.41 0-0.75 0.34-0.75 0.75s0.34 0.75 0.75 0.75h5.19l-1.72 1.72c-0.29 0.29-0.29 0.77 0 1.06 0.15 0.15 0.34 0.22 0.53 0.22s0.38-0.07 0.53-0.22l3-3c0.29-0.29 0.29-0.77 0-1.06z"/>
</svg>
