<svg width="24" height="24" viewBox="0 0 24 24"  xmlns="http://www.w3.org/2000/svg">
<path opacity="0.4" d="M16.19 2H7.82001C4.18001 2 2.01001 4.17 2.01001 7.81V16.18C2.01001 19.82 4.18001 21.99 7.82001 21.99H16.19C19.83 21.99 22 19.82 22 16.18V7.81C22 4.17 19.83 2 16.19 2Z" />
<path d="M12.2 17.3799C11.5 17.3799 10.79 17.1099 10.26 16.5799C9.74001 16.0599 9.45001 15.3699 9.45001 14.6399C9.45001 13.9099 9.74001 13.2099 10.26 12.6999L11.67 11.2899C11.96 10.9999 12.44 10.9999 12.73 11.2899C13.02 11.5799 13.02 12.0599 12.73 12.3499L11.32 13.7599C11.08 13.9999 10.95 14.3099 10.95 14.6399C10.95 14.9699 11.08 15.2899 11.32 15.5199C11.81 16.0099 12.6 16.0099 13.09 15.5199L15.31 13.2999C16.58 12.0299 16.58 9.96994 15.31 8.69994C14.04 7.42994 11.98 7.42994 10.71 8.69994L8.28998 11.1199C7.77998 11.6299 7.5 12.2999 7.5 13.0099C7.5 13.7199 7.77998 14.3999 8.28998 14.8999C8.57998 15.1899 8.57998 15.6699 8.28998 15.9599C7.99998 16.2499 7.51998 16.2499 7.22998 15.9599C6.43998 15.1699 6.01001 14.1199 6.01001 12.9999C6.01001 11.8799 6.43998 10.8299 7.22998 10.0399L9.65002 7.61992C11.5 5.76992 14.52 5.76992 16.37 7.61992C18.22 9.46992 18.22 12.4899 16.37 14.3399L14.15 16.5599C13.61 17.1099 12.91 17.3799 12.2 17.3799Z" />
</svg>
