<?xml version="1.0" encoding="UTF-8"?>
<svg width="24" height="24" viewBox="0 0 24 24" xmlns="http://www.w3.org/2000/svg">
 <path d="m12 22c5.5228 0 10-4.4772 10-10 0-5.5228-4.4772-10-10-10-5.5228 0-10 4.4772-10 10 0 5.5228 4.4772 10 10 10z" opacity=".4"/>
 <path d="m12.2 17.38c-0.7 0-1.41-0.27-1.94-0.8-0.52003-0.52-0.81003-1.21-0.81003-1.94s0.29-1.43 0.81003-1.94l1.4099-1.41c0.29-0.29 0.77-0.29 1.06 0s0.29 0.77 0 1.06l-1.4099 1.41c-0.24 0.24-0.37 0.55-0.37 0.88s0.13 0.65 0.37 0.88c0.49 0.49 1.28 0.49 1.77 0l2.22-2.22c1.27-1.27 1.27-3.33 0-4.6s-3.33-1.27-4.6 0l-2.4201 2.42c-0.51 0.51-0.78997 1.18-0.78997 1.89s0.27997 1.39 0.78997 1.89c0.29 0.29 0.29 0.77 0 1.06s-0.76999 0.29-1.06 0c-0.79-0.79-1.22-1.84-1.22-2.96s0.42997-2.17 1.22-2.96l2.42-2.42c1.85-1.85 4.87-1.85 6.72 0s1.85 4.87 0 6.72l-2.22 2.22c-0.54 0.55-1.24 0.82-1.95 0.82z"/>
</svg>
