<?xml version="1.0" encoding="UTF-8"?>
<svg width="24" height="24" viewBox="0 0 24 24" xmlns="http://www.w3.org/2000/svg">
 <path d="m16.19 2h-8.37c-3.64 0-5.81 2.17-5.81 5.81v8.37c0 3.64 2.17 5.81 5.81 5.81h8.37c3.64 0 5.81-2.17 5.81-5.81v-8.37c0-3.64-2.17-5.81-5.81-5.81z" opacity=".4"/>
 <path d="m15.62 7.1-2.29-0.75995c-0.58-0.2-1.17-0.12005-1.62 0.19995s-0.7 0.86003-0.7 1.47v4.79c-0.4-0.22-0.85-0.35-1.34-0.35-1.54 0-2.8 1.26-2.8 2.8s1.26 2.8 2.8 2.8c1.54 0 2.8-1.26 2.8-2.8v-4.55c0.01 0.01 0.03 0.01 0.04 0.02l2.29 0.76c0.21 0.07 0.43 0.11 0.64 0.11 0.36 0 0.7-0.1 0.98-0.31 0.45-0.32 0.7-0.86 0.7-1.47v-0.60998c0-0.91-0.64-1.81-1.5-2.1zm-5.95 9.49c-0.74 0-1.33-0.6-1.33-1.33 0-0.74 0.59995-1.34 1.33-1.34 0.74 0 1.34 0.6 1.34 1.34 0 0.73-0.6 1.33-1.34 1.33z"/>
</svg>
