<?xml version="1.0" encoding="UTF-8"?>
<svg width="24" height="24" viewBox="0 0 24 24" xmlns="http://www.w3.org/2000/svg">
 <path d="m10.75 2.4503c0.7-0.59 1.83-0.59 2.51 0l1.58 1.35c0.3 0.25 0.87 0.46 1.27 0.46h1.7c1.06 0 1.93 0.87 1.93 1.93v1.7c0 0.4 0.21 0.96 0.46 1.26l1.35 1.58c0.59 0.7 0.59 1.83 0 2.51l-1.35 1.58c-0.25 0.3-0.46 0.86-0.46 1.26v1.7c0 1.06-0.87 1.93-1.93 1.93h-1.7c-0.4 0-0.96 0.21-1.26 0.46l-1.58 1.35c-0.7 0.59-1.83 0.59-2.51 0l-1.58-1.35c-0.3-0.25-0.87-0.46-1.26-0.46h-1.75c-1.06 0-1.93-0.87-1.93-1.93v-1.71c0-0.39-0.2-0.96-0.45-1.25l-1.35-1.59c-0.58-0.69-0.58-1.81 0-2.5l1.35-1.59c0.25-0.3 0.45-0.86 0.45-1.25v-1.69c0-1.06 0.87-1.93 1.93-1.93h1.73c0.4 0 0.96-0.21 1.26-0.46l1.59-1.36z" opacity=".4"/>
 <path d="m14.81 16.24-2.81-6.33-2.81 6.33-1.38-0.61 3.5-7.87h1.38l3.5 7.87-1.38 0.61z"/>
 <path d="m13.75 14.06h-3.5c-0.41 0-0.75-0.34-0.75-0.75s0.34-0.75 0.75-0.75h3.5c0.41 0 0.75 0.34 0.75 0.75s-0.34 0.75-0.75 0.75z"/>
</svg>
