<?xml version="1.0" encoding="UTF-8"?>
<svg width="24" height="24" viewBox="0 0 24 24" xmlns="http://www.w3.org/2000/svg">
 <path d="m12 22c5.5228 0 10-4.4772 10-10 0-5.5228-4.4772-10-10-10-5.5228 0-10 4.4772-10 10 0 5.5228 4.4772 10 10 10z" opacity=".4"/>
 <path d="m11.79 6.2098-2.13 3.55c-0.1 0.17 0.02002 0.37996 0.21002 0.37996h4.26c0.19 0 0.3101-0.20996 0.2101-0.37996l-2.13-3.55c-0.09-0.16-0.3301-0.16-0.4201 0z"/>
 <path d="m8.3599 12.21-2.13 3.55c-0.1 0.17 0.02002 0.38 0.21002 0.38h4.26c0.19 0 0.3099-0.21 0.2099-0.38l-2.1299-3.55c-0.09-0.16-0.33005-0.16-0.42005 0z"/>
 <path d="m15.21 12.21-2.1301 3.55c-0.1 0.17 0.02 0.38 0.21 0.38h4.26c0.19 0 0.31-0.21 0.21-0.38l-2.13-3.55c-0.08-0.16-0.3199-0.16-0.4199 0z"/>
</svg>
