<?xml version="1.0" encoding="UTF-8"?>
<svg width="24" height="24" viewBox="0 0 24 24" xmlns="http://www.w3.org/2000/svg">
 <path d="m6.0603 15.579 5.61-9.61c0.16-0.28 0.56-0.3 0.75-0.04l1.56 2.09c0.45 0.6 0.48 1.41 0.09 2.05l-3.34 5.35c-0.33 0.53-0.90996 0.85-1.54 0.85h-2.74c-0.35-0.01-0.57002-0.39-0.39002-0.69z"/>
 <path d="m15.24 12.37-1.92 3.2c-0.18 0.3 0.04 0.69 0.39 0.69h3.84c0.35 0 0.57-0.38 0.39-0.69l-1.92-3.2c-0.17-0.29-0.6-0.29-0.78 0z"/>
 <path d="m12 22c5.5228 0 10-4.4772 10-10 0-5.5228-4.4772-10-10-10-5.5228 0-10 4.4772-10 10 0 5.5228 4.4772 10 10 10z" opacity=".4"/>
</svg>
