<svg width="24" height="24" viewBox="0 0 24 24"  xmlns="http://www.w3.org/2000/svg">
<path d="M9.19003 17.01H6.45004C6.02004 17.01 5.62 16.78 5.41 16.41C5.2 16.04 5.2 15.58 5.41 15.2L11.01 5.59C11.21 5.24 11.58 5.02 11.98 4.99C12.38 4.96 12.77 5.15 13.01 5.47L14.58 7.56C15.21 8.4 15.26 9.56 14.7 10.46L11.36 15.81C10.89 16.56 10.08 17.01 9.19003 17.01ZM6.96005 15.51H9.18002C9.55002 15.51 9.89005 15.32 10.08 15.01L13.42 9.66C13.65 9.29 13.63 8.81 13.37 8.46L12.07 6.73L6.96005 15.51Z" />
<path d="M17.55 17.01H13.71C13.28 17.01 12.88 16.78 12.66 16.4C12.45 16.02 12.45 15.56 12.67 15.19L14.59 11.99C15.03 11.26 16.21 11.26 16.65 11.99L18.57 15.19C18.79 15.56 18.8 16.03 18.58 16.4C18.39 16.77 17.98 17.01 17.55 17.01ZM14.24 15.51H17.03L15.63 13.18L14.24 15.51Z" />
<path d="M12 22.75C6.07 22.75 1.25 17.93 1.25 12C1.25 6.07 6.07 1.25 12 1.25C17.93 1.25 22.75 6.07 22.75 12C22.75 17.93 17.93 22.75 12 22.75ZM12 2.75C6.9 2.75 2.75 6.9 2.75 12C2.75 17.1 6.9 21.25 12 21.25C17.1 21.25 21.25 17.1 21.25 12C21.25 6.9 17.1 2.75 12 2.75Z" />
</svg>
