<svg width="24" height="24" viewBox="0 0 24 24"  xmlns="http://www.w3.org/2000/svg">
<path opacity="0.4" d="M17.9501 7.70961L17.8101 7.62961L16.4201 6.82961L13.5501 5.16961C12.6701 4.65961 11.3301 4.65961 10.4501 5.16961L7.5801 6.82961L6.1901 7.63961L6.0101 7.73961C4.2201 8.93961 4.1001 9.15961 4.1001 11.0896V15.6996C4.1001 17.6296 4.2201 17.8496 6.0501 19.0796L10.4501 21.6196C10.8901 21.8796 11.4401 21.9996 12.0001 21.9996C12.5501 21.9996 13.1101 21.8796 13.5501 21.6196L17.9901 19.0496C19.7801 17.8496 19.9001 17.6296 19.9001 15.6996V11.0896C19.9001 9.15961 19.7801 8.93961 17.9501 7.70961Z" />
<path d="M6.18994 7.64L7.57994 6.83L10.3199 5.25L10.4499 5.17C11.3299 4.66 12.6699 4.66 13.5499 5.17L13.6799 5.25L16.4199 6.83L17.8099 7.63V5.49C17.8099 3.24 16.5699 2 14.3199 2H9.66994C7.41994 2 6.18994 3.24 6.18994 5.49V7.64Z" />
<path d="M14.84 13.3403L14.22 14.1003C14.12 14.2103 14.05 14.4303 14.06 14.5803L14.12 15.5603C14.16 16.1603 13.73 16.4703 13.17 16.2503L12.26 15.8903C12.12 15.8403 11.88 15.8403 11.74 15.8903L10.83 16.2503C10.27 16.4703 9.83999 16.1603 9.87999 15.5603L9.93999 14.5803C9.94999 14.4303 9.87999 14.2103 9.77999 14.1003L9.15999 13.3403C8.76999 12.8803 8.93999 12.3703 9.51999 12.2203L10.47 11.9803C10.62 11.9403 10.8 11.8003 10.88 11.6703L11.41 10.8503C11.74 10.3403 12.26 10.3403 12.59 10.8503L13.12 11.6703C13.2 11.8003 13.38 11.9403 13.53 11.9803L14.48 12.2203C15.06 12.3703 15.23 12.8803 14.84 13.3403Z" />
</svg>
