<svg width="24" height="24" viewBox="0 0 24 24"  xmlns="http://www.w3.org/2000/svg">
<path d="M11.9998 22.75C11.3998 22.75 10.8098 22.61 10.3298 22.34L5.59977 19.61C3.63977 18.29 3.50977 18.05 3.50977 15.98V11.02C3.50977 8.95 3.63977 8.71 5.55977 7.42L10.3398 4.66C11.2898 4.11 12.7198 4.11 13.6698 4.66L18.3998 7.39C20.3598 8.71 20.4898 8.95 20.4898 11.02V15.98C20.4898 18.05 20.3598 18.29 18.4398 19.58L13.6598 22.34C13.1898 22.62 12.5898 22.75 11.9998 22.75ZM11.9998 5.75C11.6598 5.75 11.3198 5.82 11.0798 5.96L6.34977 8.69C5.00977 9.6 5.00977 9.6 5.00977 11.02V15.98C5.00977 17.4 5.00977 17.4 6.39977 18.34L11.0898 21.04C11.5698 21.32 12.4398 21.32 12.9198 21.04L17.6498 18.31C18.9898 17.4 18.9898 17.4 18.9898 15.98V11.02C18.9898 9.6 18.9898 9.6 17.5998 8.66L12.9098 5.96C12.6798 5.82 12.3398 5.75 11.9998 5.75Z" />
<path d="M17.4998 8.38C17.0898 8.38 16.7498 8.04 16.7498 7.63V5C16.7498 3.42 16.0798 2.75 14.4998 2.75H9.49977C7.91977 2.75 7.24977 3.42 7.24977 5V7.56C7.24977 7.97 6.90977 8.31 6.49977 8.31C6.08977 8.31 5.74977 7.98 5.74977 7.56V5C5.74977 2.58 7.07977 1.25 9.49977 1.25H14.4998C16.9198 1.25 18.2498 2.58 18.2498 5V7.63C18.2498 8.04 17.9098 8.38 17.4998 8.38Z" />
<path d="M13.6298 17.63C13.4198 17.63 13.1998 17.59 12.9798 17.5L11.9998 17.12L11.0198 17.51C10.4898 17.72 9.94977 17.67 9.54977 17.38C9.14977 17.09 8.93977 16.59 8.96977 16.02L9.02977 14.97L8.35977 14.16C7.99977 13.71 7.87977 13.19 8.03977 12.71C8.18977 12.24 8.59977 11.88 9.14977 11.74L10.1698 11.48L10.7398 10.59C11.3498 9.63 12.6598 9.63 13.2698 10.59L13.8398 11.48L14.8598 11.74C15.4098 11.88 15.8198 12.24 15.9698 12.71C16.1198 13.18 15.9998 13.71 15.6398 14.15L14.9698 14.96L15.0298 16.01C15.0598 16.58 14.8498 17.07 14.4498 17.37C14.2098 17.54 13.9298 17.63 13.6298 17.63ZM9.51977 13.2L10.1898 14.01C10.4198 14.28 10.5498 14.71 10.5298 15.06L10.4698 16.11L11.4498 15.72C11.7798 15.59 12.2198 15.59 12.5498 15.72L13.5298 16.11L13.4698 15.06C13.4498 14.71 13.5798 14.29 13.8098 14.01L14.4798 13.2L13.4598 12.94C13.1198 12.85 12.7598 12.59 12.5698 12.3L12.0098 11.42L11.4398 12.3C11.2498 12.6 10.8898 12.86 10.5498 12.95L9.51977 13.2Z" />
</svg>
