<?xml version="1.0" encoding="UTF-8"?>
<svg width="24" height="24" viewBox="0 0 24 24" xmlns="http://www.w3.org/2000/svg">
 <path d="m17.95 7.7101-0.14-0.08-1.39-0.8-2.87-1.66c-0.88-0.51-2.22-0.51-3.1 0l-2.87 1.66-1.39 0.81-0.18 0.1c-1.79 1.2-1.91 1.42-1.91 3.35v4.61c0 1.93 0.12 2.15 1.95 3.38l4.4 2.54c0.44 0.26 0.99 0.38 1.55 0.38 0.55 0 1.11-0.12 1.55-0.38l4.44-2.57c1.79-1.2 1.91-1.42 1.91-3.35v-4.61c0-1.93-0.12-2.15-1.95-3.38z" opacity=".4"/>
 <path d="m6.1899 7.64 1.39-0.81 2.74-1.58 0.13-0.08c0.88-0.51 2.22-0.51 3.1 0l0.13 0.08 2.74 1.58 1.39 0.8v-2.14c0-2.25-1.24-3.49-3.49-3.49h-4.65c-2.25 0-3.48 1.24-3.48 3.49v2.15z"/>
 <path d="m14.84 13.34-0.62 0.76c-0.1 0.11-0.17 0.33-0.16 0.48l0.06 0.98c0.04 0.6-0.39 0.91-0.95 0.69l-0.91-0.36c-0.14-0.05-0.38-0.05-0.52 0l-0.91 0.36c-0.56 0.22-0.98996-0.09-0.94996-0.69l0.05999-0.98c0.01-0.15-0.06-0.37-0.16-0.48l-0.62-0.76c-0.38999-0.46-0.21999-0.97 0.36001-1.12l0.94996-0.24c0.15-0.04 0.33-0.18 0.41-0.31l0.53-0.82c0.33-0.51 0.85-0.51 1.18 0l0.53 0.82c0.08 0.13 0.26 0.27 0.41 0.31l0.95 0.24c0.58 0.15 0.75 0.66 0.36 1.12z"/>
</svg>
