<?xml version="1.0" encoding="UTF-8"?>
<svg width="24" height="24" viewBox="0 0 24 24" xmlns="http://www.w3.org/2000/svg">
 <path d="m16.19 2h-8.37c-3.65 0-5.82 2.17-5.82 5.81v8.37c0 3.64 2.17 5.81 5.81 5.81h8.37c3.64 0 5.81-2.17 5.81-5.81v-8.37c0.01-3.64-2.16-5.81-5.8-5.81z" opacity=".4"/>
 <path d="m13.92 8.4801h-5.15l0.33-0.33c0.29-0.29 0.29-0.77 0-1.06s-0.77-0.29-1.06 0l-1.57 1.57c-0.29 0.29-0.29 0.77 0 1.06l1.57 1.57c0.15 0.15 0.34 0.22 0.53 0.22s0.38-0.07 0.53-0.22c0.29-0.29 0.29-0.77 0-1.06l-0.26-0.26004h5.08c1.28 0 2.33 1.04 2.33 2.33s-1.04 2.33-2.33 2.33h-4.92c-0.41 0-0.75 0.34-0.75 0.75s0.34 0.75 0.75 0.75h4.92c2.11 0 3.83-1.72 3.83-3.83s-1.72-3.82-3.83-3.82z"/>
</svg>
