<?xml version="1.0" encoding="UTF-8"?>
<svg width="24" height="24" viewBox="0 0 24 24" xmlns="http://www.w3.org/2000/svg">
 <path d="m21.25 5.15v2.7c0 1.84-0.56 2.4-2.4 2.4h-2.7c-1.84 0-2.4-0.55999-2.4-2.4v-2.7c0-1.84 0.56-2.4 2.4-2.4h2.7c1.84 0 2.4 0.55999 2.4 2.4z" opacity=".4"/>
 <path d="m10.25 16.15v2.7c0 1.84-0.56 2.4-2.4 2.4h-2.7c-1.84 0-2.4-0.56-2.4-2.4v-2.7c0-1.84 0.56-2.4 2.4-2.4h2.7c1.84 0 2.4 0.56 2.4 2.4z" opacity=".4"/>
 <path d="m16.63 11.75v1.87c0 2.28-0.73 3.01-3.01 3.01h-1.87v-0.48c0-2.66-1.24-3.9-3.9-3.9h-0.47999v-1.87c0-2.28 0.72999-3.01 3.01-3.01h1.87v0.48001c0 2.66 1.24 3.9 3.9 3.9h0.48z"/>
</svg>
