<?xml version="1.0" encoding="UTF-8"?>
<svg width="24" height="24" viewBox="0 0 24 24" xmlns="http://www.w3.org/2000/svg">
 <path d="m14.43 16.92h-2.29c-0.41 0-0.75-0.34-0.75-0.75s0.34-0.75 0.75-0.75h2.29c0.43 0 0.7801-0.3499 0.7801-0.7799s-0.3501-0.7801-0.7801-0.7801h-2.29c-0.24 0-0.4699-0.12-0.6099-0.31s-0.1801-0.4499-0.1001-0.6799l0.76-2.29c0.1-0.31 0.3901-0.51 0.7101-0.51h3.06c0.41 0 0.75 0.34 0.75 0.75s-0.34 0.75-0.75 0.75h-2.5201l-0.26 0.7899h1.25c1.26 0 2.2801 1.0201 2.2801 2.2801s-1.0301 2.2799-2.2801 2.2799z"/>
 <path d="m9.54 16.92c-0.41 0-0.75-0.34-0.75-0.75v-3.39l-0.19001 0.22c-0.28 0.31-0.74999 0.33-1.06 0.06-0.31-0.28-0.33-0.75-0.06-1.06l1.5-1.67c0.21-0.23 0.54002-0.31 0.83002-0.2 0.29004 0.11 0.47994 0.39 0.47994 0.7v5.35c0 0.41-0.32996 0.74-0.74996 0.74z"/>
 <path d="m12 3.4799c-0.08 0-0.16 0.01001-0.24 0.01001l0.82-1.02c0.26-0.32 0.21-0.79999-0.12-1.05s-0.79-0.21-1.05 0.12l-1.98 2.47c-0.01 0.01-0.01002 0.02998-0.02002 0.03998-0.03 0.04-0.04995 0.09001-0.06995 0.14001-0.02 0.04-0.04004 0.08001-0.05005 0.13001-0.01 0.05-0.00994 0.09001-0.00994 0.14001v0.14996 0.04999c0.01 0.03 0.02997 0.06003 0.03997 0.09003 0.02 0.05 0.04 0.09001 0.06 0.14001 0.03 0.04 0.05998 0.07999 0.09998 0.10999 0.02 0.02 0.03999 0.05001 0.05999 0.08001 0.01001 0.01 0.03004 0.00996 0.04004 0.01996 0.03 0.02 0.05997 0.03005 0.08997 0.05005 0.05 0.03 0.11003 0.05 0.16003 0.06 0.03 0.01 0.05998 0.00996 0.09998 0.01996 0.03 0 0.05002 0.01001 0.07999 0.01001 0.03 0 0.05-0.01002 0.07-0.02002 0.03 0 0.06 0.01 0.09 0 0.64-0.15 1.24-0.21997 1.81-0.21997 4.49 0 8.14 3.65 8.14 8.14 0 4.49-3.65 8.14-8.14 8.14s-8.14-3.65-8.14-8.14c0-1.74 0.56997-3.42 1.65-4.86 0.25-0.33 0.18003-0.80005-0.14997-1.05s-0.80005-0.17998-1.05 0.15002c-1.28 1.7-1.95 3.69-1.95 5.76 0 5.31 4.32 9.64 9.64 9.64s9.64-4.32 9.64-9.64c0-5.32-4.31-9.6601-9.62-9.6601z" opacity=".4"/>
</svg>
