<svg width="24" height="24" viewBox="0 0 24 24"  xmlns="http://www.w3.org/2000/svg">
<path d="M14.4299 16.9198H12.1399C11.7299 16.9198 11.3899 16.5798 11.3899 16.1698C11.3899 15.7598 11.7299 15.4198 12.1399 15.4198H14.4299C14.8599 15.4198 15.21 15.0698 15.21 14.6398C15.21 14.2098 14.8599 13.8598 14.4299 13.8598H12.1399C11.8999 13.8598 11.67 13.7398 11.53 13.5498C11.39 13.3598 11.3499 13.0998 11.4299 12.8698L12.1899 10.5798C12.2899 10.2698 12.58 10.0698 12.9 10.0698H15.96C16.37 10.0698 16.71 10.4098 16.71 10.8198C16.71 11.2298 16.37 11.5698 15.96 11.5698H13.4399L13.1799 12.3598H14.4299C15.6899 12.3598 16.71 13.3798 16.71 14.6398C16.71 15.8998 15.6799 16.9198 14.4299 16.9198Z" />
<path d="M9.54004 16.9198C9.13004 16.9198 8.79004 16.5798 8.79004 16.1698V12.7799L8.60003 12.9998C8.32003 13.3098 7.85004 13.3298 7.54004 13.0598C7.23004 12.7798 7.21004 12.3098 7.48004 11.9998L8.98004 10.3298C9.19004 10.0998 9.52006 10.0198 9.81006 10.1298C10.1001 10.2398 10.29 10.5198 10.29 10.8298V16.1798C10.29 16.5898 9.96004 16.9198 9.54004 16.9198Z" />
<path opacity="0.4" d="M12.0001 3.47994C11.9201 3.47994 11.8401 3.48995 11.7601 3.48995L12.5801 2.46993C12.8401 2.14993 12.7901 1.66994 12.4601 1.41994C12.1301 1.16994 11.67 1.20994 11.41 1.53994L9.43005 4.00997C9.42005 4.01997 9.42003 4.03995 9.41003 4.04995C9.38003 4.08995 9.36009 4.13996 9.34009 4.18996C9.32009 4.22996 9.30004 4.26997 9.29004 4.31997C9.28004 4.36997 9.28009 4.40998 9.28009 4.45998C9.28009 4.50998 9.28009 4.55994 9.28009 4.60994C9.28009 4.62994 9.28009 4.63993 9.28009 4.65993C9.29009 4.68993 9.31007 4.71996 9.32007 4.74996C9.34007 4.79996 9.36007 4.83997 9.38007 4.88997C9.41007 4.92997 9.44004 4.96996 9.48004 4.99996C9.50004 5.01996 9.52004 5.04997 9.54004 5.07997C9.55004 5.08997 9.57008 5.08993 9.58008 5.09993C9.61008 5.11993 9.64004 5.12998 9.67004 5.14998C9.72004 5.17998 9.78008 5.19998 9.83008 5.20998C9.86008 5.21998 9.89005 5.21994 9.93005 5.22994C9.96005 5.22994 9.98007 5.23995 10.0101 5.23995C10.0401 5.23995 10.0601 5.22993 10.0801 5.21993C10.1101 5.21993 10.14 5.22993 10.17 5.21993C10.81 5.06993 11.41 4.99996 11.98 4.99996C16.47 4.99996 20.1201 8.64997 20.1201 13.14C20.1201 17.63 16.47 21.28 11.98 21.28C7.49004 21.28 3.84009 17.63 3.84009 13.14C3.84009 11.4 4.41005 9.71999 5.49005 8.27999C5.74005 7.94999 5.67009 7.47994 5.34009 7.22994C5.01009 6.97994 4.54004 7.04996 4.29004 7.37996C3.01004 9.07996 2.34009 11.07 2.34009 13.14C2.34009 18.45 6.66004 22.78 11.98 22.78C17.3 22.78 21.6201 18.46 21.6201 13.14C21.6201 7.81997 17.3101 3.47994 12.0001 3.47994Z" />
</svg>
