<?xml version="1.0" encoding="UTF-8"?>
<svg width="24" height="24" viewBox="0 0 24 24" xmlns="http://www.w3.org/2000/svg">
 <path d="m12.38 16.92h-2.29c-0.40998 0-0.74998-0.34-0.74998-0.75s0.34-0.75 0.74998-0.75h2.29c0.43 0 0.78-0.3499 0.78-0.7799s-0.35-0.7801-0.78-0.7801h-2.29c-0.23998 0-0.46997-0.12-0.60997-0.31s-0.18-0.4499-0.1-0.6799l0.75997-2.29c0.1-0.31 0.39-0.51 0.71-0.51h3.06c0.41 0 0.75 0.34 0.75 0.75s-0.34 0.75-0.75 0.75h-2.52l-0.26 0.7899h1.25c1.26 0 2.28 1.0201 2.28 2.2801s-1.02 2.2799-2.28 2.2799z"/>
 <path d="m12 3.4799c-0.08 0-0.1599 0.01001-0.2399 0.01001l0.8199-1.02c0.26-0.32 0.21-0.79999-0.12-1.05s-0.7899-0.21-1.0499 0.12l-1.9801 2.47c-0.01 0.01-0.00999 0.02998-0.01999 0.03998-0.03 0.04-0.05001 0.09001-0.07001 0.14001-0.02 0.04-0.03998 0.08001-0.04998 0.13001s-0.01001 0.09001-0.01001 0.14001v0.14996 0.04999c0.01 0.03 0.03 0.06003 0.04 0.09003 0.02 0.05 0.04 0.09001 0.06 0.14001 0.03 0.04 0.06 0.07999 0.09 0.10999 0.02 0.03 0.04001 0.06001 0.07001 0.08001 0.01 0.01 0.02998 0.01997 0.04998 0.02997 0.03 0.02 0.06002 0.02999 0.08002 0.04999 0.05 0.03 0.10998 0.05 0.16998 0.06 0.03 0.01 0.06 0.01002 0.09 0.02002 0.03 0 0.05002 0.01001 0.08006 0.01001 0.03 0 0.0499-0.01002 0.0699-0.02002 0.03 0 0.0601 0.01 0.0901 0 0.64-0.15 1.24-0.21997 1.81-0.21997 4.49 0 8.1399 3.65 8.1399 8.14 0 4.49-3.6499 8.1399-8.1399 8.1399-4.49 0-8.1401-3.6499-8.1401-8.1399 0-1.74 0.57-3.4201 1.65-4.8601 0.25-0.33 0.18-0.79999-0.15-1.05s-0.79998-0.17998-1.05 0.15002c-1.28 1.7-1.95 3.69-1.95 5.76 0 5.31 4.32 9.6399 9.6401 9.6399 5.32 0 9.6399-4.3199 9.6399-9.6399 0-5.32-4.31-9.6701-9.62-9.6701z" opacity=".4"/>
</svg>
