<svg width="24" height="24" viewBox="0 0 24 24"  xmlns="http://www.w3.org/2000/svg">
<path d="M5.19 6.38043C5 6.38043 4.8 6.30043 4.66 6.16043C4.37 5.87043 4.37 5.39043 4.66 5.10043L8.29 1.47043C8.58 1.18043 9.06 1.18043 9.35 1.47043C9.64 1.76043 9.64 2.24043 9.35 2.53043L5.72 6.16043C5.57 6.30043 5.38 6.38043 5.19 6.38043Z" />
<path d="M18.81 6.38043C18.62 6.38043 18.43 6.31043 18.28 6.16043L14.65 2.53043C14.36 2.24043 14.36 1.76043 14.65 1.47043C14.94 1.18043 15.42 1.18043 15.71 1.47043L19.34 5.10043C19.63 5.39043 19.63 5.87043 19.34 6.16043C19.2 6.30043 19 6.38043 18.81 6.38043Z" />
<path d="M20.21 10.6004C20.14 10.6004 20.07 10.6004 20 10.6004H4C3.3 10.6104 2.5 10.6104 1.92 10.0304C1.46 9.58043 1.25 8.88043 1.25 7.85043C1.25 5.10043 3.26 5.10043 4.22 5.10043H19.78C20.74 5.10043 22.75 5.10043 22.75 7.85043C22.75 8.89043 22.54 9.58043 22.08 10.0304C21.56 10.5504 20.86 10.6004 20.21 10.6004ZM20.01 9.10043C20.46 9.11043 20.88 9.11043 21.02 8.97043C21.09 8.90043 21.24 8.66043 21.24 7.85043C21.24 6.72043 20.96 6.60043 19.77 6.60043H4.22C3.03 6.60043 2.75 6.72043 2.75 7.85043C2.75 8.66043 2.91 8.90043 2.97 8.97043C3.11 9.10043 3.54 9.10043 3.98 9.10043H20.01Z" />
<path d="M9.76 18.3004C9.35 18.3004 9.01 17.9604 9.01 17.5504V14.0004C9.01 13.5904 9.35 13.2504 9.76 13.2504C10.17 13.2504 10.51 13.5904 10.51 14.0004V17.5504C10.51 17.9704 10.17 18.3004 9.76 18.3004Z" />
<path d="M14.36 18.3004C13.95 18.3004 13.61 17.9604 13.61 17.5504V14.0004C13.61 13.5904 13.95 13.2504 14.36 13.2504C14.77 13.2504 15.11 13.5904 15.11 14.0004V17.5504C15.11 17.9704 14.77 18.3004 14.36 18.3004Z" />
<path d="M14.89 22.7504H8.86C5.28 22.7504 4.48 20.6204 4.17 18.7704L2.76 10.1204C2.69 9.71043 2.97 9.33043 3.38 9.26043C3.79 9.19043 4.17 9.47043 4.24 9.88043L5.65 18.5204C5.94 20.2904 6.54 21.2504 8.86 21.2504H14.89C17.46 21.2504 17.75 20.3504 18.08 18.6104L19.76 9.86043C19.84 9.45043 20.23 9.18043 20.64 9.27043C21.05 9.35043 21.31 9.74043 21.23 10.1504L19.55 18.9004C19.16 20.9304 18.51 22.7504 14.89 22.7504Z" />
</svg>
