<?xml version="1.0" encoding="UTF-8"?>
<svg width="24" height="24" viewBox="0 0 24 24" xmlns="http://www.w3.org/2000/svg">
 <path d="m19.24 5.5796h-0.4l-3.38-3.38c-0.27-0.27-0.71-0.27-0.99 0-0.27 0.27-0.27 0.71 0 0.99l2.39 2.39h-9.72l2.39-2.39c0.27-0.27 0.27-0.71 0-0.99-0.27-0.27-0.71-0.27-0.99 0l-3.37 3.38h-0.4c-0.9 0-2.77 0-2.77 2.56 0 0.97 0.2 1.61 0.62 2.03 0.24 0.25 0.53 0.38 0.84 0.45 0.29 0.07 0.6 0.08 0.9 0.08h15.28c0.31 0 0.6-0.02 0.88-0.08 0.84-0.2 1.48-0.80003 1.48-2.48 0-2.56-1.87-2.56-2.76-2.56z" opacity=".4"/>
 <path d="m19.66 10.7h-15.3c-0.29 0-0.61-0.01-0.9-0.09l1.26 7.69c0.29 1.72 1.04 3.7 4.37 3.7h5.61c3.37 0 3.97-1.69 4.33-3.58l1.51-7.81c-0.28 0.07-0.58 0.09-0.88 0.09zm-5.74 7.19c-0.15 0.15-0.34 0.22-0.53 0.22s-0.38-0.07-0.53-0.22l-0.85-0.85-0.88 0.88c-0.15 0.15-0.34 0.22-0.53 0.22s-0.38-0.07-0.53-0.22c-0.29004-0.29-0.29004-0.77 0-1.06l0.88-0.88-0.85-0.85c-0.29004-0.29-0.29004-0.77 0-1.06 0.29-0.29 0.77-0.29 1.06 0l0.85 0.85 0.82-0.82c0.29-0.29 0.77-0.29 1.06 0s0.29 0.77 0 1.06l-0.82 0.82 0.85 0.85c0.3 0.3 0.3 0.77 0 1.06z"/>
</svg>
