<svg width="24" height="24" viewBox="0 0 24 24"  xmlns="http://www.w3.org/2000/svg">
<path d="M11.9998 19.7503C9.37982 19.7503 7.24982 17.6203 7.24982 15.0003C7.24982 12.3803 9.37982 10.2503 11.9998 10.2503C14.6198 10.2503 16.7498 12.3803 16.7498 15.0003C16.7498 17.6203 14.6198 19.7503 11.9998 19.7503ZM11.9998 11.7503C10.2098 11.7503 8.74982 13.2103 8.74982 15.0003C8.74982 16.7903 10.2098 18.2503 11.9998 18.2503C13.7898 18.2503 15.2498 16.7903 15.2498 15.0003C15.2498 13.2103 13.7898 11.7503 11.9998 11.7503Z" />
<path d="M13.0698 16.8603C12.8798 16.8603 12.6898 16.7903 12.5398 16.6403L10.4298 14.5303C10.1398 14.2403 10.1398 13.7603 10.4298 13.4703C10.7198 13.1803 11.1998 13.1803 11.4898 13.4703L13.5998 15.5803C13.8898 15.8703 13.8898 16.3503 13.5998 16.6403C13.4498 16.7903 13.2598 16.8603 13.0698 16.8603Z" />
<path d="M10.9298 16.8903C10.7398 16.8903 10.5498 16.8203 10.3998 16.6703C10.1098 16.3803 10.1098 15.9003 10.3998 15.6103L12.5098 13.5003C12.7998 13.2103 13.2798 13.2103 13.5698 13.5003C13.8598 13.7903 13.8598 14.2703 13.5698 14.5603L11.4598 16.6703C11.3098 16.8103 11.1198 16.8903 10.9298 16.8903Z" />
<path d="M14.9998 22.7503H8.99982C4.37982 22.7503 3.51982 20.6003 3.29982 18.5103L2.54982 12.5203C2.43982 11.4403 2.39982 9.8903 3.44982 8.7303C4.34982 7.7303 5.83982 7.2503 7.99982 7.2503H15.9998C18.1698 7.2503 19.6598 7.7403 20.5498 8.7303C21.5898 9.8903 21.5598 11.4403 21.4498 12.5003L20.6998 18.5103C20.4798 20.6003 19.6198 22.7503 14.9998 22.7503ZM7.99982 8.7503C6.30982 8.7503 5.14982 9.0803 4.55982 9.7403C4.06982 10.2803 3.90982 11.1103 4.03982 12.3503L4.78982 18.3403C4.95982 19.9403 5.39982 21.2603 8.99982 21.2603H14.9998C18.5998 21.2603 19.0398 19.9503 19.2098 18.3603L19.9598 12.3503C20.0898 11.1303 19.9298 10.3003 19.4398 9.7503C18.8498 9.0803 17.6898 8.7503 15.9998 8.7503H7.99982Z" />
<path d="M16.4998 8.6303C16.0898 8.6303 15.7498 8.2903 15.7498 7.8803V6.5003C15.7498 5.4503 15.2998 4.4303 14.5198 3.7203C13.7298 3.0003 12.6998 2.6703 11.6298 2.7703C9.82982 2.9403 8.24982 4.7803 8.24982 6.7003V7.6703C8.24982 8.0803 7.90982 8.4203 7.49982 8.4203C7.08982 8.4203 6.74982 8.0803 6.74982 7.6703V6.6903C6.74982 4.0003 8.91982 1.5203 11.4898 1.2703C12.9898 1.1303 14.4298 1.6003 15.5298 2.6103C16.6198 3.6003 17.2498 5.0203 17.2498 6.5003V7.8803C17.2498 8.2903 16.9098 8.6303 16.4998 8.6303Z" />
</svg>
