<svg width="24" height="24" viewBox="0 0 24 24"  xmlns="http://www.w3.org/2000/svg">
<path opacity="0.4" d="M16.1899 8.86039C15.7999 8.86039 15.4899 8.55039 15.4899 8.16039V6.88039C15.4899 5.90039 15.0699 4.96039 14.3499 4.30039C13.6099 3.63039 12.6599 3.32039 11.6599 3.41039C9.97986 3.57039 8.50986 5.28039 8.50986 7.06039V7.96039C8.50986 8.35039 8.19986 8.66039 7.80986 8.66039C7.41986 8.66039 7.10986 8.35039 7.10986 7.96039V7.06039C7.10986 4.56039 9.12986 2.25039 11.5199 2.02039C12.9099 1.89039 14.2499 2.33039 15.2799 3.27039C16.2999 4.19039 16.8799 5.51039 16.8799 6.88039V8.16039C16.8799 8.55039 16.5699 8.86039 16.1899 8.86039Z" />
<path d="M19.9602 8.96008C19.1202 8.03008 17.7402 7.58008 15.7202 7.58008H8.28023C6.26023 7.58008 4.88023 8.03008 4.04023 8.96008C3.07023 10.0401 3.10023 11.4801 3.21023 12.4801L3.91023 18.0501C4.12023 20.0001 4.91023 22.0001 9.21023 22.0001H14.7902C19.0902 22.0001 19.8802 20.0001 20.0902 18.0601L20.7902 12.4701C20.9002 11.4801 20.9302 10.0401 19.9602 8.96008ZM12.0002 18.5801C9.91023 18.5801 8.21023 16.8801 8.21023 14.7901C8.21023 12.7001 9.91023 11.0001 12.0002 11.0001C14.0902 11.0001 15.7902 12.7001 15.7902 14.7901C15.7902 16.8801 14.0902 18.5801 12.0002 18.5801Z" />
<path opacity="0.4" d="M12 18.58C14.0931 18.58 15.79 16.8832 15.79 14.79C15.79 12.6968 14.0931 11 12 11C9.9068 11 8.20996 12.6968 8.20996 14.79C8.20996 16.8832 9.9068 18.58 12 18.58Z" />
<path d="M13.6001 15.3102L13.0701 14.7802L13.5701 14.2802C13.8601 13.9902 13.8601 13.5102 13.5701 13.2202C13.2801 12.9302 12.8001 12.9302 12.5101 13.2202L12.0101 13.7202L11.4801 13.1902C11.1901 12.9002 10.7101 12.9002 10.4201 13.1902C10.1301 13.4802 10.1301 13.9602 10.4201 14.2502L10.9501 14.7802L10.4001 15.3302C10.1101 15.6202 10.1101 16.1002 10.4001 16.3902C10.5501 16.5402 10.7401 16.6102 10.9301 16.6102C11.1201 16.6102 11.3101 16.5402 11.4601 16.3902L12.0101 15.8402L12.5401 16.3702C12.6901 16.5202 12.8801 16.5902 13.0701 16.5902C13.2601 16.5902 13.4501 16.5202 13.6001 16.3702C13.8901 16.0802 13.8901 15.6102 13.6001 15.3102Z" />
</svg>
