<?xml version="1.0" encoding="UTF-8"?>
<svg width="24" height="24" viewBox="0 0 24 24" xmlns="http://www.w3.org/2000/svg">
 <path d="m16.19 8.8604c-0.39 0-0.7-0.31-0.7-0.7v-1.28c0-0.98-0.42-1.92-1.14-2.58-0.74-0.67-1.69-0.98-2.69-0.89-1.68 0.16-3.15 1.87-3.15 3.65v0.9c0 0.39-0.31 0.7-0.7 0.7s-0.7-0.31-0.7-0.7v-0.9c0-2.5 2.02-4.81 4.41-5.04 1.39-0.13 2.73 0.31 3.76 1.25 1.02 0.92 1.6 2.24 1.6 3.61v1.28c0 0.39-0.31 0.7-0.69 0.7z" opacity=".4"/>
 <path d="m19.96 8.9601c-0.84-0.93-2.22-1.38-4.24-1.38h-7.44c-2.02 0-3.4 0.45-4.24 1.38-0.97 1.08-0.94 2.52-0.83 3.52l0.7 5.57c0.21 1.95 1 3.95 5.3 3.95h5.58c4.3 0 5.09-2 5.3-3.94l0.7-5.59c0.11-0.99 0.14-2.43-0.83-3.51zm-7.96 9.62c-2.09 0-3.79-1.7-3.79-3.79s1.7-3.79 3.79-3.79c2.09 0 3.79 1.7 3.79 3.79s-1.7 3.79-3.79 3.79z"/>
 <path d="m12 18.58c2.0931 0 3.79-1.6968 3.79-3.79s-1.6969-3.79-3.79-3.79c-2.0932 0-3.79 1.6968-3.79 3.79s1.6968 3.79 3.79 3.79z" opacity=".4"/>
 <path d="m13.6 15.31-0.53-0.53 0.5-0.5c0.29-0.29 0.29-0.77 0-1.06s-0.77-0.29-1.06 0l-0.5 0.5-0.53-0.53c-0.29-0.29-0.77-0.29-1.06 0s-0.29 0.77 0 1.06l0.53 0.53-0.55 0.55c-0.29 0.29-0.29 0.77 0 1.06 0.15 0.15 0.34 0.22 0.53 0.22s0.38-0.07 0.53-0.22l0.55-0.55 0.53 0.53c0.15 0.15 0.34 0.22 0.53 0.22s0.38-0.07 0.53-0.22c0.29-0.29 0.29-0.76 0-1.06z"/>
</svg>
