<?xml version="1.0" encoding="UTF-8"?>
<svg width="24" height="24" viewBox="0 0 24 24" xmlns="http://www.w3.org/2000/svg">
 <path d="m12.93 4.79h-5.58c-4.1 0-5.35 1.25-5.35 5.35v3.72c0 4.1 1.25 5.35 5.35 5.35h5.58c4.1 0 5.35-1.25 5.35-5.35v-3.72c0-4.1-1.25-5.35-5.35-5.35z" opacity=".4"/>
 <path d="m20.42 9.0005c-0.14-0.01-0.32-0.02-0.52-0.02-0.39 0-0.7 0.31-0.7 0.7v4.65c0 0.39 0.31 0.7 0.7 0.7 0.2 0 0.37-0.01 0.54-0.02 1.56-0.18 1.56-1.28 1.56-2.08v-1.86c0-0.8 0-1.9-1.58-2.07z"/>
 <path d="m10.01 16.24c-0.17002 0-0.35002-0.06-0.49002-0.18-0.31-0.27-0.35-0.74-0.08-1.06l1.8-2.11c0.01-0.03 0-0.06-0.02-0.09-0.02-0.04-0.06-0.06-0.11-0.06h-1.99c-0.59 0-1.11-0.3-1.41-0.81-0.29-0.51-0.29-1.11 0-1.62l1.71-2.26c0.25-0.33 0.72002-0.4 1.05-0.15s0.4 0.72 0.15 1.05l-1.65 2.19c0.03-0.04 0.03 0 0.05 0.05 0.02 0.04 0.06 0.06 0.11 0.06h2.01c0.59 0 1.11 0.3 1.41 0.81 0.29 0.51 0.29 1.11 0 1.62-0.02 0.04-0.05 0.08-0.08 0.11l-1.87 2.19c-0.16 0.18-0.37 0.26-0.59 0.26z"/>
</svg>
