<?xml version="1.0" encoding="UTF-8"?>
<svg width="24" height="24" viewBox="0 0 24 24" xmlns="http://www.w3.org/2000/svg">
 <path d="m20.42 9.0005c-0.14-0.01-0.32-0.02-0.52-0.02-0.39 0-0.7 0.31-0.7 0.7v4.65c0 0.39 0.31 0.7 0.7 0.7 0.2 0 0.37-0.01 0.54-0.02 1.56-0.18 1.56-1.28 1.56-2.08v-1.86c0-0.8 0-1.9-1.58-2.07z"/>
 <path d="m14.5 4.87-8.98 14.22c-2.65-0.38-3.52-1.82-3.52-5.23v-3.72c0-4.1 1.25-5.35 5.35-5.35h5.58c0.58 0 1.1 0.02 1.57 0.08z" opacity=".4"/>
 <path d="m18.28 10.14v3.72c0 2.95-2.4 5.35-5.35 5.35h-5.48l8.78-13.9c1.52 0.69 2.05 2.15 2.05 4.83z" opacity=".4"/>
 <path d="m3.9999 22.25c-0.14 0-0.28-0.04-0.4-0.12-0.35-0.22-0.46-0.68-0.23-1.03l12-19c0.22-0.35 0.69-0.45 1.03-0.23 0.35 0.22 0.46 0.68 0.23 1.03l-12 19c-0.14 0.23-0.38 0.35-0.63 0.35z"/>
</svg>
