<svg width="24" height="24" viewBox="0 0 24 24"  xmlns="http://www.w3.org/2000/svg">
<path d="M11.7192 9.74997C12.3905 9.74997 13.0344 10.0166 13.5091 10.4913C13.9838 10.966 14.2504 11.6099 14.2504 12.2812C14.2504 12.5795 14.369 12.8657 14.5799 13.0767C14.7909 13.2876 15.0771 13.4062 15.3754 13.4062C15.6738 13.4062 15.9599 13.2876 16.1709 13.0767C16.3819 12.8657 16.5004 12.5795 16.5004 12.2812C16.5004 11.0131 15.9967 9.79702 15.1 8.90037C14.2034 8.00373 12.9873 7.5 11.7192 7.5C11.4209 7.5 11.1347 7.61852 10.9237 7.8295C10.7128 8.04048 10.5942 8.32662 10.5942 8.62498C10.5942 8.92335 10.7128 9.20949 10.9237 9.42047C11.1347 9.63144 11.4209 9.74997 11.7192 9.74997V9.74997Z" />
<path d="M10.8755 14.25C11.4968 14.25 12.0005 13.7463 12.0005 13.125C12.0005 12.5037 11.4968 12 10.8755 12C10.2542 12 9.75049 12.5037 9.75049 13.125C9.75049 13.7463 10.2542 14.25 10.8755 14.25Z" />
<path d="M21.0001 12.0617C21.0001 12.042 21.0001 12.0224 21.0001 11.9999C21.0001 9.61295 20.0519 7.3238 18.3641 5.636C16.6763 3.9482 14.3872 3 12.0003 3H11.9384C11.6532 3.00518 11.3815 3.1227 11.1825 3.32702C10.9834 3.53135 10.873 3.80598 10.8753 4.09123V4.16154C10.8764 4.30727 10.9065 4.45132 10.9638 4.58529C11.0212 4.71925 11.1047 4.84044 11.2094 4.94177C11.3142 5.0431 11.438 5.12254 11.5738 5.17546C11.7096 5.22838 11.8546 5.25371 12.0003 5.24996V5.24996C13.7904 5.24996 15.5073 5.96111 16.7732 7.22696C18.039 8.49281 18.7502 10.2097 18.7502 11.9999V11.9999C18.7502 12.2982 18.8687 12.5844 19.0797 12.7953C19.2906 13.0063 19.5768 13.1248 19.8751 13.1248H19.923C20.2058 13.1234 20.4768 13.0114 20.6781 12.8127C20.8794 12.6141 20.995 12.3445 21.0001 12.0617V12.0617Z" />
<path d="M3.34068 19.939C3.59937 20.3544 3.98644 20.6741 4.44321 20.8497C4.89999 21.0253 5.40156 21.0472 5.8719 20.9121L8.32999 20.209C10.3703 21.1258 12.6794 21.2478 14.805 20.5513C16.9307 19.8547 18.7197 18.3897 19.8217 16.4431C19.9162 16.2772 19.9655 16.0893 19.9647 15.8984C19.9638 15.7074 19.9129 15.52 19.817 15.3549C19.721 15.1898 19.5834 15.0527 19.4179 14.9575C19.2525 14.8622 19.0649 14.812 18.8739 14.8119H18.798C18.6032 14.8133 18.4123 14.8661 18.2444 14.9649C18.0765 15.0636 17.9376 15.2049 17.8417 15.3744C16.9894 16.8543 15.6066 17.9551 13.9732 18.4537C12.3398 18.9524 10.5779 18.8118 9.04435 18.0603C8.71809 17.8981 8.34318 17.863 7.99249 17.9618L5.25034 18.7493L6.04627 15.9622C6.13822 15.6398 6.10611 15.2946 5.95627 14.9947C5.19077 13.4587 5.04073 11.6883 5.53681 10.0453C6.03289 8.40239 7.13763 7.01088 8.62529 6.15517C8.79482 6.05927 8.93607 5.92039 9.03482 5.75251C9.13358 5.58463 9.18633 5.39369 9.18779 5.19893V5.123C9.1877 4.93203 9.13751 4.74444 9.04222 4.57895C8.94694 4.41346 8.80989 4.27587 8.64477 4.17993C8.47966 4.084 8.29226 4.03307 8.1013 4.03224C7.91034 4.03141 7.7225 4.0807 7.55656 4.1752C5.60864 5.27732 4.14265 7.0673 3.44599 9.19421C2.74934 11.3211 2.87226 13.6315 3.79068 15.6725L3.10725 18.0659C3.01308 18.3771 2.98521 18.7046 3.02541 19.0272C3.06562 19.3498 3.17302 19.6604 3.34068 19.939V19.939Z" />
</svg>
