<?xml version="1.0" encoding="UTF-8"?>
<svg width="24" height="24" viewBox="0 0 24 24" xmlns="http://www.w3.org/2000/svg">
 <path d="m3 9c1.1046 0 2-0.89543 2-2s-0.89543-2-2-2-2 0.89543-2 2 0.89543 2 2 2z"/>
 <path d="m21 9c1.1046 0 2-0.89543 2-2s-0.8954-2-2-2-2 0.89543-2 2 0.8954 2 2 2z"/>
 <path d="m7.5 16.5v2c0 0.61-0.37 1.14-0.89 1.36-0.19 0.09-0.39 0.14-0.61 0.14h-2c-0.83 0-1.5-0.67-1.5-1.5v-2c0-0.83 0.67-1.5 1.5-1.5h2c0.83 0 1.5 0.67 1.5 1.5z"/>
 <path d="m21.5 16.5v2c0 0.83-0.67 1.5-1.5 1.5h-2c-0.22 0-0.42-0.05-0.61-0.14-0.52-0.22-0.89-0.75-0.89-1.36v-2c0-0.83 0.67-1.5 1.5-1.5h2c0.83 0 1.5 0.67 1.5 1.5z"/>
 <path d="m15 5.5v3c0 0.82-0.68 1.5-1.5 1.5h-3c-0.82 0-1.5-0.68-1.5-1.5v-3c0-0.82 0.68-1.5 1.5-1.5h3c0.82 0 1.5 0.68 1.5 1.5z"/>
 <g opacity=".4">
  <path d="m9 6.25h-4c-0.41 0-0.75 0.34-0.75 0.75s0.34 0.75 0.75 0.75h2.57c-2.05 1.52-3.32 4.04-3.32 6.75 0 0.2 0.01 0.39 0.04 0.59 0.04 0.38 0.37 0.66 0.74 0.66h0.09c0.41-0.05 0.71-0.42 0.66-0.83-0.02-0.14-0.02-0.27-0.02-0.41 0-2.6 1.41-5 3.59-6.1 0.37-0.19 0.52-0.63995 0.33-1.01-0.01-0.01-0.02-0.02002-0.02-0.03002 0.06-0.11 0.11-0.22999 0.11-0.35999-0.02-0.42-0.36-0.76001-0.77-0.76001z" opacity=".4"/>
  <path d="m16.43 7.75h2.57c0.41 0 0.75-0.34 0.75-0.75s-0.34-0.75-0.75-0.75h-4c-0.41 0-0.75 0.34-0.75 0.75 0 0.13 0.04 0.24999 0.11 0.35999-0.01 0.01-0.02 0.02002-0.02 0.03002-0.19 0.37-0.04 0.82001 0.33 1.01 2.18 1.1 3.59 3.5 3.59 6.1 0 0.14-0.01 0.27-0.02 0.41-0.05 0.41 0.25 0.78 0.66 0.83h0.09c0.38 0 0.7-0.28 0.74-0.66 0.02-0.2 0.04-0.39 0.04-0.59-0.02-2.7-1.29-5.22-3.34-6.74z" opacity=".4"/>
 </g>
</svg>
