<svg width="24" height="24" viewBox="0 0 24 24"  xmlns="http://www.w3.org/2000/svg">
<path d="M11.3999 2.34953L6.25986 7.49953C6.05986 7.69953 6.05986 8.00953 6.25986 8.20953L7.98986 9.93953C8.18986 10.1395 8.49986 10.1395 8.69986 9.93953L13.8499 4.78953C14.0499 4.58953 14.0499 4.27953 13.8499 4.07953L12.1199 2.34953C11.9099 2.15953 11.5999 2.15953 11.3999 2.34953Z" />
<path opacity="0.4" d="M15.2999 6.26065L6.25986 15.3006C6.05986 15.5006 6.05986 15.8106 6.25986 16.0106L7.98986 17.7406C8.18986 17.9406 8.49986 17.9406 8.69986 17.7406L17.7499 8.69065C17.9499 8.49065 17.9499 8.18065 17.7499 7.98065L16.0199 6.25065C15.8199 6.06065 15.4999 6.06065 15.2999 6.26065Z" />
<path d="M19.2098 10.1598L10.1598 19.2098C9.95977 19.4098 9.95977 19.7198 10.1598 19.9198L11.8898 21.6498C12.0898 21.8498 12.3998 21.8498 12.5998 21.6498L21.6498 12.5998C21.8498 12.3998 21.8498 12.0898 21.6498 11.8898L19.9198 10.1598C19.7198 9.95977 19.3998 9.95977 19.2098 10.1598Z" />
<path opacity="0.4" d="M4.08996 13.8395L2.35996 12.1095C2.15996 11.9095 2.15996 11.5995 2.35996 11.3995L4.08996 9.66953C4.28996 9.46953 4.59996 9.46953 4.79996 9.66953L6.52996 11.3995C6.72996 11.5995 6.72996 11.9095 6.52996 12.1095L4.79996 13.8395C4.59996 14.0395 4.27996 14.0395 4.08996 13.8395Z" />
</svg>
