<?xml version="1.0" encoding="UTF-8"?>
<svg width="24" height="24" viewBox="0 0 24 24" xmlns="http://www.w3.org/2000/svg">
 <path d="m11.4 2.3495-5.14 5.15c-0.2 0.2-0.2 0.51 0 0.71l1.73 1.73c0.2 0.19997 0.51 0.19997 0.71 0l5.15-5.15c0.2-0.2 0.2-0.51 0-0.71l-1.73-1.73c-0.21-0.19-0.52-0.19-0.72 0z"/>
 <path d="m15.3 6.2606-9.04 9.04c-0.2 0.2-0.2 0.51 0 0.71l1.73 1.73c0.2 0.2 0.51 0.2 0.71 0l9.05-9.05c0.2-0.2 0.2-0.51 0-0.71l-1.73-1.73c-0.2-0.19-0.52-0.19-0.72 0.01z" opacity=".4"/>
 <path d="m19.21 10.16-9.05 9.05c-0.20003 0.2-0.20003 0.51 0 0.71l1.73 1.73c0.2 0.2 0.51 0.2 0.71 0l9.05-9.05c0.2-0.2 0.2-0.51 0-0.71l-1.73-1.73c-0.2-0.20003-0.52-0.20003-0.71 0z"/>
 <path d="m4.09 13.84-1.73-1.73c-0.2-0.2-0.2-0.51 0-0.71l1.73-1.73c0.2-0.2 0.51-0.2 0.71 0l1.73 1.73c0.2 0.2 0.2 0.51 0 0.71l-1.73 1.73c-0.2 0.2-0.52 0.2-0.71 0z" opacity=".4"/>
</svg>
