<?xml version="1.0" encoding="UTF-8"?>
<svg width="24" height="24" viewBox="0 0 24 24" xmlns="http://www.w3.org/2000/svg">
 <path d="m11.65 2.3503-5.3 5.3c-0.2 0.2-0.2 0.51 0 0.71l1.29 1.29c0.2 0.2 0.51 0.2 0.71 0l3.29-3.29c0.2-0.2 0.51-0.2 0.71 0l3.29 3.29c0.2 0.2 0.51 0.2 0.71 0l1.29-1.29c0.2-0.2 0.2-0.51 0-0.71l-5.29-5.29c-0.19-0.2-0.51-0.2-0.7-0.01z"/>
 <path d="m11.65 21.651-5.29-5.29c-0.2-0.2-0.2-0.51 0-0.71l1.29-1.29c0.2-0.2 0.51-0.2 0.71 0l3.29 3.29c0.2 0.2 0.51 0.2 0.71 0l3.29-3.29c0.2-0.2 0.51-0.2 0.71 0l1.29 1.29c0.2 0.2 0.2 0.51 0 0.71l-5.29 5.29c-0.2 0.19-0.52 0.19-0.71 0z"/>
 <path d="m20.1 10.1 1.54 1.54c0.2 0.2 0.2 0.51 0 0.71l-1.54 1.55c-0.2 0.2-0.51 0.2-0.71 0l-1.54-1.54c-0.2-0.2-0.2-0.51 0-0.71l1.54-1.54c0.2-0.20004 0.52-0.20004 0.71-0.01z" opacity=".4"/>
 <path d="m4.6002 10.1 1.54 1.54c0.2 0.2 0.2 0.51 0 0.71l-1.54 1.55c-0.2 0.2-0.51 0.2-0.71 0l-1.54-1.54c-0.2-0.2-0.2-0.51 0-0.71l1.55-1.55c0.19-0.18997 0.51-0.18997 0.7 0z" opacity=".4"/>
 <path d="m12.35 9.8805 1.77 1.77c0.2 0.2 0.2 0.51 0 0.71l-1.77 1.77c-0.2 0.2-0.51 0.2-0.71 0l-1.77-1.77c-0.2-0.2-0.2-0.51 0-0.71l1.77-1.77c0.2-0.2 0.52-0.2 0.71 0z" opacity=".4"/>
</svg>
