<svg width="24" height="24" viewBox="0 0 24 24"  xmlns="http://www.w3.org/2000/svg">
<path d="M15.9999 10.7504C15.8099 10.7504 15.6199 10.6804 15.4699 10.5304L11.9999 7.06043L8.52994 10.5304C8.23994 10.8204 7.75994 10.8204 7.46994 10.5304L5.46994 8.53043C5.17994 8.24043 5.17994 7.76043 5.46994 7.47043L11.4699 1.47043C11.7599 1.18043 12.2399 1.18043 12.5299 1.47043L18.5299 7.47043C18.8199 7.76043 18.8199 8.24043 18.5299 8.53043L16.5299 10.5304C16.3799 10.6804 16.1899 10.7504 15.9999 10.7504ZM11.9999 5.25043C12.1899 5.25043 12.3799 5.32043 12.5299 5.47043L15.9999 8.94043L16.9399 8.00043L11.9999 3.06043L7.05994 8.00043L7.99994 8.94043L11.4699 5.47043C11.6199 5.32043 11.8099 5.25043 11.9999 5.25043Z" />
<path d="M11.9999 22.7504C11.8099 22.7504 11.6199 22.6804 11.4699 22.5304L5.46994 16.5304C5.17994 16.2404 5.17994 15.7604 5.46994 15.4704L7.46994 13.4704C7.75994 13.1804 8.23994 13.1804 8.52994 13.4704L11.9999 16.9404L15.4699 13.4704C15.7599 13.1804 16.2399 13.1804 16.5299 13.4704L18.5299 15.4704C18.8199 15.7604 18.8199 16.2404 18.5299 16.5304L12.5299 22.5304C12.3799 22.6804 12.1899 22.7504 11.9999 22.7504ZM7.05994 16.0004L11.9999 20.9404L16.9399 16.0004L15.9999 15.0604L12.5299 18.5304C12.2399 18.8204 11.7599 18.8204 11.4699 18.5304L7.99994 15.0604L7.05994 16.0004Z" />
<path d="M19.7499 15.0004C19.5599 15.0004 19.3699 14.9304 19.2199 14.7804L16.9699 12.5304C16.6799 12.2404 16.6799 11.7604 16.9699 11.4704L19.2199 9.22043C19.5099 8.93043 19.9899 8.93043 20.2799 9.22043L22.5299 11.4704C22.8199 11.7604 22.8199 12.2404 22.5299 12.5304L20.2799 14.7804C20.1299 14.9304 19.9399 15.0004 19.7499 15.0004ZM18.5599 12.0004L19.7499 13.1904L20.9399 12.0004L19.7499 10.8104L18.5599 12.0004Z" />
<path d="M4.24994 15.0004C4.05994 15.0004 3.86994 14.9304 3.71994 14.7804L1.46994 12.5304C1.17994 12.2404 1.17994 11.7604 1.46994 11.4704L3.71994 9.22043C4.00994 8.93043 4.48994 8.93043 4.77994 9.22043L7.02994 11.4704C7.31994 11.7604 7.31994 12.2404 7.02994 12.5304L4.77994 14.7804C4.62994 14.9304 4.43994 15.0004 4.24994 15.0004ZM3.05994 12.0004L4.24994 13.1904L5.43994 12.0004L4.24994 10.8104L3.05994 12.0004Z" />
<path d="M11.9999 15.2304C11.8099 15.2304 11.6199 15.1604 11.4699 15.0104L8.98995 12.5304C8.69995 12.2404 8.69995 11.7604 8.98995 11.4704L11.4699 8.99043C11.7599 8.70043 12.2399 8.70043 12.5299 8.99043L15.0099 11.4704C15.2999 11.7604 15.2999 12.2404 15.0099 12.5304L12.5299 15.0104C12.3799 15.1504 12.1899 15.2304 11.9999 15.2304ZM10.5799 12.0004L11.9999 13.4204L13.4199 12.0004L11.9999 10.5804L10.5799 12.0004Z" />
</svg>
