<?xml version="1.0" encoding="UTF-8"?>
<svg width="24" height="24" viewBox="0 0 24 24" xmlns="http://www.w3.org/2000/svg">
 <path d="m23.53 12.05c-0.29-0.29-0.77-0.29-1.06 0l-0.46 0.4601v-0.5101c0-5.52-4.49-10.01-10.01-10.01-3.05 0-5.9 1.37-7.81 3.75-0.26 0.32-0.21001 0.79999 0.11999 1.05 0.32 0.26 0.80001 0.21001 1.05-0.11999 1.63-2.03 4.05-3.19 6.64-3.19 4.69 0 8.51 3.82 8.51 8.51v0.5l-0.46-0.4599c-0.29-0.29-0.77-0.29-1.06 0s-0.29 0.77 0 1.06l1.74 1.74c0.07 0.07 0.15 0.1199 0.24 0.1599s0.19 0.06 0.29 0.06 0.19-0.02 0.29-0.06c0.09-0.04 0.17-0.0899 0.24-0.1599l1.74-1.74c0.29-0.27 0.29-0.7501 0-1.0401z" opacity=".4"/>
 <path d="m19.69 17.2c-0.32-0.26-0.8-0.21-1.05 0.12-1.63 2.03-4.05 3.19-6.64 3.19-4.69 0-8.51-3.82-8.51-8.51v-0.5l0.46 0.4601c0.15 0.15 0.34001 0.2199 0.53001 0.2199s0.37999-0.0699 0.52999-0.2199c0.29-0.29 0.29-0.77 0-1.06l-1.74-1.7401c-0.07-0.07-0.15-0.11997-0.24-0.15997-0.18-0.08-0.39-0.08-0.57 0-0.09 0.04-0.17 0.08997-0.24 0.15997l-1.74 1.7401c-0.29 0.29-0.29 0.77 0 1.06s0.77 0.29 1.06 0l0.46-0.4601v0.5c0 5.52 4.49 10.01 10.01 10.01 3.05 0 5.9-1.37 7.81-3.75 0.25-0.32 0.2-0.8-0.13-1.06z" opacity=".4"/>
 <path d="m15.45 11.64c0.27-0.4 0.42-0.87 0.42-1.39 0-1.33-1.17-2.5-2.5-2.5h-0.82v-1c0-0.41-0.34-0.75-0.75-0.75s-0.75 0.34-0.75 0.75v1h-2.05c-0.41 0-0.75 0.34-0.75 0.75v7c0 0.41 0.34 0.75 0.75 0.75h2.05v1c0 0.41 0.34 0.75 0.75 0.75s0.75-0.34 0.75-0.75v-1h1.45c1.52 0 2.75-1.12 2.75-2.5 0-0.89-0.52-1.67-1.3-2.11zm-5.7-2.39h3.62c0.55 0 1 0.55 1 1 0 0.55-0.45 1-1 1h-3.62v-2zm4.25 5.5h-4.25v-2h4.25c0.69 0 1.25 0.45 1.25 1s-0.56 1-1.25 1z"/>
</svg>
