<?xml version="1.0" encoding="UTF-8"?>
<svg width="24" height="24" viewBox="0 0 24 24" xmlns="http://www.w3.org/2000/svg">
 <path d="m23 15.22c0.4142 0 0.75 0.3358 0.75 0.75 0 4.2842-3.4658 7.75-7.75 7.75-0.2702 0-0.5195-0.1453-0.6526-0.3804-0.1332-0.2352-0.1295-0.5237 0.0095-0.7554l1.05-1.75c0.2131-0.3552 0.6738-0.4704 1.029-0.2573s0.4703 0.6738 0.2572 1.029l-0.2713 0.4522c2.7691-0.6424 4.8282-3.1215 4.8282-6.0881 0-0.4142 0.3358-0.75 0.75-0.75z" clip-rule="evenodd" fill-rule="evenodd" opacity=".4"/>
 <path d="m6.5782 1.8817c-2.7691 0.64244-4.8282 3.1215-4.8282 6.0881 0 0.41421-0.33579 0.75-0.75 0.75-0.41421 0-0.75-0.33579-0.75-0.75 0-4.2842 3.4658-7.75 7.75-7.75 0.2702 0 0.51952 0.14534 0.65265 0.38048 0.13313 0.23513 0.12949 0.5237-0.00953 0.7554l-1.05 1.75c-0.21311 0.35518-0.67381 0.47036-1.029 0.25725-0.35519-0.21311-0.47036-0.67381-0.25725-1.029l0.27132-0.45219z" clip-rule="evenodd" fill-rule="evenodd" opacity=".4"/>
 <path d="m14.85 15.33c0 3.41-2.76 6.17-6.17 6.17-3.41 0-6.17-2.76-6.17-6.17s2.76-6.17 6.17-6.17c0.16 0 0.31 0.01002 0.48 0.02002 3.03 0.23 5.45 2.65 5.68 5.68 0 0.15 0.01 0.3 0.01 0.47z" opacity=".4"/>
 <path d="m21.5 8.67c0 3.41-2.76 6.17-6.17 6.17h-0.49c-0.23-3.03-2.65-5.45-5.68-5.68v-0.48999c0-3.41 2.76-6.17 6.17-6.17s6.17 2.76 6.17 6.17z"/>
 <path d="m11.12 15.01c0.12-0.25 0.19-0.52 0.19-0.81 0-1-0.88-1.88-1.88-1.88h-0.26v-0.38c0-0.41-0.34-0.75-0.75-0.75s-0.75 0.34-0.75 0.75v0.38h-1.05c-0.41 0-0.75 0.34-0.75 0.75v4.5c0 0.41 0.34 0.75 0.75 0.75h1.05v0.38c0 0.41 0.34 0.75 0.75 0.75s0.75-0.34 0.75-0.75v-0.38h0.66c1.12 0 2.04-0.84 2.04-1.88 0-0.57-0.3-1.09-0.75-1.43zm-3.75-1.19h2.06c0.21 0 0.38 0.23 0.38 0.38 0 0.21-0.17 0.38-0.38 0.38h-2.06v-0.76zm2.46 3.01h-2.47v-0.75h2.46c0.31998 0 0.53998 0.2 0.53998 0.38s-0.21 0.37-0.52998 0.37z"/>
</svg>
