<?xml version="1.0" encoding="UTF-8"?>
<svg width="24" height="24" viewBox="0 0 24 24" xmlns="http://www.w3.org/2000/svg">
 <path d="m12 22c5.5228 0 10-4.4772 10-10 0-5.5228-4.4772-10-10-10-5.5228 0-10 4.4772-10 10 0 5.5228 4.4772 10 10 10z" opacity=".4"/>
 <path d="m16.49 11.61c0.38-0.49 0.62-1.11 0.62-1.78 0-1.55-1.36-2.92-2.92-2.92h-0.88v-1.41c0-0.41-0.34-0.75-0.75-0.75s-0.75 0.34-0.75 0.75v1.42h-1.21v-1.42c0-0.41-0.34-0.75-0.75-0.75s-0.73 0.34-0.73 0.75v1.42h-2.07c-0.41 0-0.75 0.34-0.75 0.75s0.34 0.75 0.75 0.75h0.98v7.16h-0.98c-0.41 0-0.75 0.34-0.75 0.75s0.34 0.75 0.75 0.75h2.06v1.42c0 0.41 0.34 0.75 0.75 0.75s0.75-0.34 0.75-0.75v-1.42h1.21v1.42c0 0.41 0.34 0.75 0.75 0.75s0.75-0.34 0.75-0.75v-1.42h1.65c1.78 0 3.23-1.31 3.23-2.92 0-1.1-0.7-2.06-1.71-2.55zm-5.65-3.19h3.36c0.8 0 1.42 0.76 1.42 1.42 0 0.78-0.64 1.42-1.42 1.42h-4.67v-2.84h1.31zm4.13 7.16h-5.44v-2.83h5.44c0.95 0 1.73 0.64 1.73 1.42s-0.78 1.41-1.73 1.41z"/>
</svg>
