<?xml version="1.0" encoding="UTF-8"?>
<svg width="24" height="24" viewBox="0 0 24 24" xmlns="http://www.w3.org/2000/svg">
 <path d="m22 7.5403v8.9201c0 2.29-1.86 4.1399-4.15 4.1399h-11.7c-2.29 0-4.15-1.8499-4.15-4.1399v-8.9201c0-2.29 1.86-4.14 4.15-4.14h11.7c2.29 0 4.15 1.85 4.15 4.14z" opacity=".4"/>
 <path d="m9.25 12.75h-4c-0.41 0-0.75-0.34-0.75-0.75s0.34-0.75 0.75-0.75h4c0.41 0 0.75 0.34 0.75 0.75s-0.34 0.75-0.75 0.75z"/>
 <path d="m18.64 11.67c0.14-0.28 0.23-0.59 0.23-0.92 0-1.07-0.93-2-2-2h-0.61v-0.5c0-0.41-0.34-0.75-0.75-0.75s-0.75 0.34-0.75 0.75v0.5h-2.01c-0.41 0-0.75 0.34-0.75 0.75s0.34 0.75 0.75 0.75h0.25v3.5h-0.25c-0.41 0-0.75 0.34-0.75 0.75s0.34 0.75 0.75 0.75h2.01v0.5c0 0.41 0.34 0.75 0.75 0.75s0.75-0.34 0.75-0.75v-0.5h1.06c1.2 0 2.18-0.9 2.18-2 0-0.65-0.34-1.21-0.86-1.58zm-3.7-1.42h1.94c0.26 0 0.5 0.28 0.5 0.5 0 0.28-0.22 0.5-0.5 0.5h-2.38v-1h0.44zm2.38 3.5h-2.82v-1h2.83c0.37 0 0.68 0.23 0.68 0.5s-0.32 0.5-0.69 0.5z"/>
</svg>
