<?xml version="1.0" encoding="UTF-8"?>
<svg width="24" height="24" viewBox="0 0 24 24" xmlns="http://www.w3.org/2000/svg">
 <path d="m12.5 17.53c-0.14 0.15-0.33 0.22-0.53 0.22-0.19 0-0.38-0.07-0.53-0.22l-1.59-1.59c0.59-0.07 1.16-0.21 1.69-0.43l0.96 0.96c0.3 0.29 0.3 0.77 0 1.06z"/>
 <path d="m15.96 15.93c-0.14 0.15-0.34 0.23-0.53 0.23s-0.38-0.08-0.53-0.22l-1.53-1.5c0.39-0.31 0.75-0.67 1.06-1.07l1.52 1.5c0.3 0.29 0.3 0.77 0.01 1.06z"/>
 <path d="m17.5 12.53c-0.14 0.15-0.33 0.22-0.53 0.22-0.19 0-0.38-0.07-0.53-0.22l-0.96-0.96c0.22-0.53 0.36-1.1 0.43-1.69l1.59 1.59c0.3 0.29 0.3 0.77 0 1.06z"/>
 <path d="m15.9 8.07c-0.45-3.43-3.38-6.07-6.93-6.07-3.87 0-7 3.13-7 7 0 3.55 2.64 6.48 6.07 6.93 0.3 0.05 0.61 0.07 0.93 0.07 0.30001 0 0.59-0.02 0.88-0.06l-0.38-0.38c-0.29-0.3-0.29-0.77 0-1.06 0.29-0.3 0.76999-0.3 1.06 0l1.01 1.01c0.67-0.26 1.28-0.62 1.83-1.07l-0.9-0.89c-0.29-0.29-0.3-0.76 0-1.06 0.29-0.29 0.76-0.3 1.06-0.01l0.9 0.89c0.44-0.54 0.8-1.14 1.05-1.8l-1.01-1.01c-0.29-0.3-0.29-0.77 0-1.06 0.29-0.3 0.77-0.3 1.06 0l0.38 0.38c0.04-0.29 0.06-0.58 0.06-0.88 0-0.32-0.02-0.63-0.07-0.93z"/>
 <path d="m21.97 15c0 3.87-3.13 7-7 7-3.55 0-6.48-2.64-6.93-6.07 0.3 0.05 0.61 0.07 0.93 0.07 0.3 0 0.59-0.02 0.88-0.06l1.59 1.59c0.15 0.15 0.34 0.22 0.53 0.22 0.2 0 0.39-0.07 0.53-0.22 0.3-0.29 0.3-0.77 0-1.06l-0.96-0.96c0.67-0.26 1.28-0.62 1.83-1.07l1.53 1.5c0.15 0.14 0.34 0.22 0.53 0.22s0.39-0.08 0.53-0.23c0.29-0.29 0.29-0.77-0.01-1.06l-1.52-1.5c0.44-0.54 0.8-1.14 1.05-1.8l0.96 0.96c0.15 0.15 0.34 0.22 0.53 0.22 0.2 0 0.39-0.07 0.53-0.22 0.3-0.29 0.3-0.77 0-1.06l-1.59-1.59c0.04-0.29 0.06-0.58 0.06-0.88 0-0.32-0.02-0.63-0.07-0.93 3.43 0.45 6.07 3.38 6.07 6.93z" opacity=".4"/>
</svg>
