<?xml version="1.0" encoding="UTF-8"?>
<svg width="24" height="24" viewBox="0 0 24 24" xmlns="http://www.w3.org/2000/svg">
 <path d="m16.19 2h-8.37c-3.64 0-5.81 2.17-5.81 5.81v8.37c0 3.64 2.17 5.81 5.81 5.81h8.37c3.64 0 5.81-2.17 5.81-5.81v-8.37c0-3.64-2.17-5.81-5.81-5.81z" opacity=".4"/>
 <path d="m12.08 19c-0.23 0-0.41-0.06-0.51-0.11-0.23-0.11-0.77-0.46-0.77-1.44v-3.39l-2.9 2.65c-0.3 0.28-0.77999 0.26-1.06-0.05s-0.25999-0.78 0.05001-1.06l3.91-3.58v-0.08l-3.91-3.54c-0.31-0.28-0.33001-0.75-0.05001-1.06s0.74999-0.33 1.06-0.05l2.9 2.65v-3.39c0-0.98 0.54-1.34 0.77-1.44 0.23-0.11 0.85-0.29 1.6 0.34l2.41 2.01c0.33 0.27 0.52 0.65999 0.53 1.07s-0.16 0.81001-0.47 1.1l-2.59 2.37 2.59 2.37c0.31 0.29 0.49 0.69 0.48 1.1s-0.2 0.8-0.53 1.07l-2.41 2.01c-0.43 0.35-0.81 0.45-1.1 0.45zm0.22-5.7v4.02l2.31-1.93-2.31-2.09zm0-6.62v3.96l2.31-2.12-2.31-1.84z"/>
 <path d="m6.6202 13.38c-0.76 0-1.38-0.62-1.38-1.38s0.62001-1.38 1.38-1.38 1.38 0.62 1.38 1.38-0.62 1.38-1.38 1.38zm0-1.5c-0.07 0-0.12 0.06-0.12 0.12 0 0.14 0.25 0.14 0.25 0 0-0.07-0.06-0.12-0.13-0.12z"/>
 <path d="m17.38 13.38c-0.76 0-1.38-0.62-1.38-1.38s0.62-1.38 1.38-1.38 1.38 0.62 1.38 1.38-0.63 1.38-1.38 1.38zm0-1.5c-0.07 0-0.12 0.06-0.12 0.12 0 0.14 0.25 0.14 0.25 0-0.01-0.07-0.07-0.12-0.13-0.12z"/>
</svg>
