<?xml version="1.0" encoding="UTF-8"?>
<svg width="24" height="24" viewBox="0 0 24 24" xmlns="http://www.w3.org/2000/svg">
 <path d="m16.19 2h-8.37c-3.64 0-5.81 2.17-5.81 5.81v8.37c0 3.64 2.17 5.81 5.81 5.81h8.37c3.64 0 5.81-2.17 5.81-5.81v-8.37c0-3.64-2.17-5.81-5.81-5.81z" opacity=".4"/>
 <path d="m12.71 19.03c-0.23 0-0.4099-0.06-0.5099-0.11-0.23-0.11-0.7701-0.47-0.7701-1.45v-3.4199l-2.9199 2.6799c-0.3 0.28-0.78 0.26-1.06-0.05s-0.26001-0.78 0.04999-1.06l3.93-3.5999v-0.0801l-3.93-3.56c-0.31-0.28-0.32999-0.75-0.04999-1.06 0.28-0.3 0.76-0.33 1.06-0.05l2.9199 2.68v-3.42c0-0.98 0.5401-1.34 0.7701-1.45s0.8499-0.29 1.5999 0.34l2.4201 2.02c0.33 0.27 0.52 0.67 0.53 1.08s-0.1601 0.80999-0.4801 1.1l-2.6099 2.39 2.6099 2.39c0.31 0.29 0.4901 0.69 0.4801 1.1s-0.2 0.8-0.53 1.08l-2.4201 2.0201c-0.42 0.34-0.8 0.4299-1.09 0.4299zm0.22-5.7299v4.0599l2.3301-1.9499-2.3301-2.11zm0-6.66v4l2.3301-2.14-2.3301-1.86z"/>
</svg>
