<?xml version="1.0" encoding="UTF-8"?>
<svg width="24" height="24" viewBox="0 0 24 24" xmlns="http://www.w3.org/2000/svg">
 <path d="m12 22c5.5228 0 10-4.4772 10-10 0-5.5228-4.4772-10-10-10-5.5228 0-10 4.4772-10 10 0 5.5228 4.4772 10 10 10z" opacity=".4"/>
 <path d="m12.119 6.0024c0.5807-0.27789 1.1481 0.01554 1.4914 0.30161l2.058 1.7184c5e-4 4.3e-4 1e-3 8.5e-4 0.0016 0.00127 0.6353 0.52729 0.6666 1.4618 0.0441 2.022l-2.137 1.9595 2.137 1.9594c0.6225 0.5603 0.5912 1.4948-0.0441 2.0221-5e-4 4e-4 -0.0011 8e-4 -0.0016 0.0013l-2.0575 1.7179-0.0016 0.0013c-0.3433 0.285-0.9053 0.5691-1.4807 0.2998-0.5769-0.27-0.7183-0.8858-0.7183-1.3368v-2.6782l-2.3132 2.121c-0.3053 0.2799-0.77973 0.2593-1.0597-0.046-0.27993-0.3053-0.25937-0.7797 0.04593-1.0596l3.2742-3.0022-3.2742-3.0022c-0.3053-0.27993-0.32586-0.75436-0.04593-1.0597 0.27994-0.3053 0.75437-0.32587 1.0597-0.04593l2.3132 2.1209v-2.6781c0-0.44294 0.134-1.0627 0.7087-1.3378zm0.7913 7.4264 1.6599 1.522-1.6599 1.386v-2.908zm0-2.8473v-2.908l1.6599 1.386-1.6599 1.522z" clip-rule="evenodd" fill-rule="evenodd"/>
</svg>
