<?xml version="1.0" encoding="UTF-8"?>
<svg width="24" height="24" viewBox="0 0 24 24" xmlns="http://www.w3.org/2000/svg">
 <path d="m12.61 2.21c-0.36-0.28-0.86-0.28-1.22 0-1.9 1.45-7.51 6.18-7.48 11.69 0 4.46 3.63 8.1 8.1 8.1 4.47 0 8.1-3.63 8.1-8.09 0.01-5.43-5.61-10.24-7.5-11.7z" opacity=".4"/>
 <path d="m20.09 14.2c-0.02 0.61-0.11 1.21-0.27 1.79l-7.07 3.44v2.54c-0.25 0.02-0.5 0.03-0.75 0.03s-0.5-0.01-0.75-0.03v-19.66c0.05-0.04 0.09-0.07 0.13-0.1 0.37-0.28 0.87-0.28 1.23 0 0.04 0.03 0.09 0.07 0.14 0.11v5.44l3.78-1.84c0.33 0.38 0.64 0.77 0.95 1.18-0.04 0.04-0.08 0.07-0.13 0.09l-4.6 2.24v3.33l6.29-3.06c0.01 0 0.01-0.01 0.02-0.01 0.22 0.45 0.41 0.91 0.56 1.39l-6.87 3.35v3.33l6.62-3.22 0.72-0.34z"/>
</svg>
