<?xml version="1.0" encoding="UTF-8"?>
<svg width="24" height="24" viewBox="0 0 24 24" xmlns="http://www.w3.org/2000/svg">
 <path d="m12 5.2997v16.03c0.17 0 0.35-0.03 0.49-0.11l0.04-0.02c1.92-1.05 5.27-2.15 7.44-2.44l0.29-0.04c0.96-0.12 1.74-1.02 1.74-1.98v-12.08c0-1.19-0.97-2.09-2.16-1.99-2.1 0.17-5.28 1.23-7.06 2.34l-0.25 0.14996c-0.15 0.09-0.34 0.14002-0.53 0.14002z" opacity=".4"/>
 <path d="m2 4.6695v12.07c0 0.96 0.77999 1.86 1.74 1.98l0.33002 0.0401c2.18 0.29 5.54 1.3999 7.46 2.4599 0.13 0.08 0.29 0.1101 0.47 0.1101v-16.03c-0.19 0-0.38-0.05002-0.53-0.14002l-0.17-0.10998c-1.78-1.12-4.97-2.19-7.07-2.37h-0.06c-1.19-0.1-2.17 0.78999-2.17 1.99z"/>
 <path d="m19 2.7803v4.29c0 0.4-0.44 0.63998-0.78 0.41998l-1.22-0.80999-1.22 0.80999c-0.33 0.22-0.78-0.01998-0.78-0.41998v-3.15c1.31-0.52 2.77-0.93996 4-1.14z"/>
</svg>
