<?xml version="1.0" encoding="UTF-8"?>
<svg width="24" height="24" viewBox="0 0 24 24" xmlns="http://www.w3.org/2000/svg">
 <path d="m12 5.3002v16.03c-0.17 0-0.35-0.03-0.49-0.11l-0.04-0.02c-1.92-1.05-5.27-2.15-7.44-2.44l-0.29-0.04c-0.96-0.12-1.74-1.02-1.74-1.98v-12.08c0-1.19 0.97-2.09 2.16-1.99 2.1 0.17 5.28 1.23 7.06 2.34l0.25 0.15c0.15 0.09 0.34 0.14 0.53 0.14z" opacity=".4"/>
 <path d="m22 4.67v12.07c0 0.96-0.78 1.86-1.74 1.98l-0.33 0.04c-2.18 0.29-5.54 1.4-7.46 2.46-0.13 0.08-0.29 0.11-0.47 0.11v-16.03c0.19 0 0.38-0.05 0.53-0.14l0.17-0.11c1.78-1.12 4.97-2.19 7.07-2.37h0.06c1.19-0.1 2.17 0.79 2.17 1.99z"/>
 <path d="m7.75 9.2402h-2.25c-0.41 0-0.75-0.34-0.75-0.75s0.34-0.75 0.75-0.75h2.25c0.41 0 0.75 0.34 0.75 0.75s-0.34 0.75-0.75 0.75z"/>
 <path d="m8.5 12.24h-3c-0.41 0-0.75-0.34-0.75-0.75s0.34-0.75 0.75-0.75h3c0.41 0 0.75 0.34 0.75 0.75s-0.34 0.75-0.75 0.75z"/>
</svg>
