<?xml version="1.0" encoding="UTF-8"?>
<svg width="24" height="24" viewBox="0 0 24 24" xmlns="http://www.w3.org/2000/svg">
 <path d="m17 4.96v7.12c0 1.99-1.41 2.76-3.14 1.72l-1.32-0.8c-0.3-0.18-0.78-0.18-1.08 0l-1.32 0.8c-1.73 1.04-3.14 0.27-3.14-1.72v-7.09c0.01-1.99 1.01-2.99 3-2.99h4c1.98 0 2.98 0.99 3 2.96z"/>
 <path d="m22 11.9v3.03c0 5.05-2 7.07-7 7.07h-6c-5 0-7-2.02-7-7.07v-3.03c0-4.24 1.41-6.34 4.82-6.91h0.18v7.09c0 1.99 1.41 2.76 3.14 1.72l1.32-0.8c0.3-0.18 0.78-0.18 1.08 0l1.32 0.8c1.73 1.04 3.14 0.27 3.14-1.72v-7.12c3.54 0.52 5 2.63 5 6.94z" opacity=".4"/>
</svg>
