<?xml version="1.0" encoding="UTF-8"?>
<svg width="24" height="24" viewBox="0 0 24 24" xmlns="http://www.w3.org/2000/svg">
 <path d="m20.5 7v8h-14.15c-1.57 0-2.85 1.28-2.85 2.85v-10.85c0-4 1-5 5-5h7c4 0 5 1 5 5z" opacity=".4"/>
 <path d="m20.5 15v3.5c0 1.93-1.57 3.5-3.5 3.5h-10c-1.93 0-3.5-1.57-3.5-3.5v-0.65c0-1.57 1.28-2.85 2.85-2.85h14.15z"/>
 <path d="m16 7.75h-8c-0.41 0-0.75-0.34-0.75-0.75s0.34-0.75 0.75-0.75h8c0.41 0 0.75 0.34 0.75 0.75s-0.34 0.75-0.75 0.75z"/>
 <path d="m13 11.25h-5c-0.41 0-0.75-0.34-0.75-0.75s0.34-0.75 0.75-0.75h5c0.41 0 0.75 0.34 0.75 0.75s-0.34 0.75-0.75 0.75z"/>
</svg>
