<?xml version="1.0" encoding="UTF-8"?>
<svg width="24" height="24" viewBox="0 0 24 24" xmlns="http://www.w3.org/2000/svg">
 <path d="m16.19 2h-8.37c-3.64 0-5.81 2.17-5.81 5.81v8.37c0 3.64 2.17 5.81 5.81 5.81h8.37c3.64 0 5.81-2.17 5.81-5.81v-8.37c0-3.64-2.17-5.81-5.81-5.81z" opacity=".4"/>
 <path d="m11.5 8.09v9.16c0 0.36-0.36 0.6-0.69 0.46-1.21-0.52-2.79-1-3.89-1.14l-0.19-0.02c-0.61-0.08-1.11-0.65-1.11-1.27v-7.7c0-0.76 0.62-1.33 1.38-1.27 1.25 0.1 3.1 0.70001 4.26 1.36 0.15 0.07 0.24 0.23999 0.24 0.41999z"/>
 <path d="m18.38 7.6998v7.57c0 0.62-0.5 1.19-1.11 1.27l-0.21 0.02c-1.09 0.15-2.66 0.62-3.87 1.13-0.33 0.14-0.69-0.1-0.69-0.46v-9.15c0-0.18 0.09-0.34997 0.25-0.43997 1.16-0.65 2.97-1.23 4.2-1.34h0.04c0.77 0.01 1.39 0.63003 1.39 1.4z"/>
</svg>
