<?xml version="1.0" encoding="UTF-8"?>
<svg width="24" height="24" viewBox="0 0 24 24" xmlns="http://www.w3.org/2000/svg">
 <path d="m17 3h-10c-1.66 0-3 1.34-3 3v0.84c0 0.77-0.12 1.53-0.37 2.26-0.38 1.13-1.44 1.9-2.63 1.9v2c1.19 0 2.25 0.76 2.63 1.9 0.24 0.73 0.37 1.5 0.37 2.26v0.84c0 1.66 1.34 3 3 3h10c1.66 0 3-1.34 3-3v-0.84c0-0.77 0.12-1.53 0.37-2.26 0.38-1.13 1.44-1.9 2.63-1.9v-2c-1.19 0-2.25-0.76-2.63-1.9-0.24-0.73-0.37-1.5-0.37-2.26v-0.84c0-1.66-1.34-3-3-3z" opacity=".4"/>
 <path d="m12.67 16.92h-2.92c-0.41 0-0.75-0.34-0.75-0.75v-8.33c0-0.41 0.34-0.75 0.75-0.75h2.92c1.56 0 2.83 1.27 2.83 2.83 0 0.81995-0.35 1.57-0.92 2.08 0.56 0.52 0.92 1.26 0.92 2.08 0 1.57-1.27 2.84-2.83 2.84zm-2.17-1.5h2.17c0.74 0 1.33-0.6 1.33-1.33s-0.6-1.33-1.33-1.33h-2.17v2.66zm0-4.17h2.17c0.74 0 1.33-0.6 1.33-1.33 0-0.73-0.6-1.33-1.33-1.33h-2.17v2.66z"/>
</svg>
