<svg width="24" height="24" viewBox="0 0 24 24"  xmlns="http://www.w3.org/2000/svg">
<path opacity="0.4" d="M20.0999 6.93998C20.0999 7.47998 19.8099 7.96995 19.3499 8.21995L17.6099 9.15995L16.1299 9.94999L13.0599 11.61C12.7299 11.79 12.3699 11.88 11.9999 11.88C11.6299 11.88 11.2699 11.79 10.9399 11.61L4.6499 8.21995C4.1899 7.96995 3.8999 7.47998 3.8999 6.93998C3.8999 6.39998 4.1899 5.90995 4.6499 5.65995L6.6199 4.59996L8.18991 3.74998L10.9399 2.27C11.5999 1.91 12.3999 1.91 13.0599 2.27L19.3499 5.65995C19.8099 5.90995 20.0999 6.39998 20.0999 6.93998Z" />
<path opacity="0.4" d="M9.89996 12.7904L4.04996 9.86038C3.59996 9.63038 3.07996 9.66037 2.64996 9.92037C2.21996 10.1804 1.96997 10.6404 1.96997 11.1404V16.6704C1.96997 17.6304 2.49995 18.4904 3.35995 18.9204L9.20996 21.8404C9.40996 21.9404 9.62998 21.9904 9.84998 21.9904C10.11 21.9904 10.37 21.9204 10.6 21.7704C11.03 21.5104 11.28 21.0504 11.28 20.5504V15.0204C11.29 14.0804 10.76 13.2204 9.89996 12.7904Z" />
<path opacity="0.4" d="M22.03 11.1497V16.6796C22.03 17.6296 21.5 18.4896 20.64 18.9196L14.79 21.8496C14.59 21.9496 14.37 21.9996 14.15 21.9996C13.89 21.9996 13.63 21.9297 13.39 21.7797C12.97 21.5197 12.71 21.0596 12.71 20.5596V15.0396C12.71 14.0796 13.24 13.2196 14.1 12.7896L16.25 11.7196L17.75 10.9696L19.95 9.86964C20.4 9.63964 20.92 9.65964 21.35 9.92964C21.77 10.1896 22.03 10.6497 22.03 11.1497Z" />
<path d="M17.6101 9.15997L16.1301 9.95001L6.62012 4.59998L8.19012 3.75L17.3701 8.92999C17.4701 8.98999 17.5501 9.06997 17.6101 9.15997Z" />
<path d="M17.75 10.9697V13.2397C17.75 13.6497 17.41 13.9897 17 13.9897C16.59 13.9897 16.25 13.6497 16.25 13.2397V11.7197L17.75 10.9697Z" />
</svg>
