<?xml version="1.0" encoding="UTF-8"?>
<svg width="24" height="24" viewBox="0 0 24 24" xmlns="http://www.w3.org/2000/svg">
 <path d="m21.04 7.19-9.0401 5.23-9.04-5.23c0.4-0.74 0.98-1.39 1.63-1.75l5.34-2.96c1.14-0.64 3-0.64 4.14 0l5.34 2.96c0.65 0.36 1.2301 1.01 1.6301 1.75z" opacity=".4"/>
 <path d="m12.001 12.42v9.58c-0.75 0-1.5-0.16-2.07-0.48l-5.34-2.96c-1.21-0.67-2.2-2.35-2.2-3.73v-5.66c0-0.64 0.22-1.34 0.57-1.98l9.04 5.23z" opacity=".6"/>
 <path d="m21.61 9.1699v5.66c0 1.38-0.99 3.06-2.2 3.73l-5.34 2.96c-0.57 0.32-1.32 0.48-2.07 0.48v-9.58l9.04-5.23c0.35 0.64 0.57 1.34 0.57 1.98z"/>
</svg>
