<?xml version="1.0" encoding="UTF-8"?>
<svg width="24" height="24" viewBox="0 0 24 24" xmlns="http://www.w3.org/2000/svg">
 <path d="m22 15.7c0-0.01-0.01-0.02-0.02-0.03-0.04-0.06-0.09-0.12-0.14-0.17-0.01-0.01-0.02-0.03-0.03-0.04-0.81-0.9-2-1.46-3.31-1.46-1.26 0-2.41 0.52-3.23 1.36-0.79 0.81-1.27 1.92-1.27 3.14 0 0.84 0.24 1.64 0.65 2.32 0.22 0.37 0.5 0.71 0.82 0.99 0.02 0.01 0.03 0.02 0.04 0.03 0.05 0.05 0.1 0.09 0.16 0.14h0.01c0.01 0.01 0.02 0.02 0.03 0.02 0.75 0.63 1.72 1 2.79 1 1.64 0 3.07-0.88 3.85-2.18 0.23-0.39 0.41-0.82 0.52-1.27 0.09-0.34 0.13-0.69 0.13-1.05 0-1.06-0.37-2.04-1-2.8zm-1.82 3.53h-0.93v0.97c0 0.41-0.34 0.75-0.75 0.75s-0.75-0.34-0.75-0.75v-0.97h-0.93c-0.41 0-0.75-0.34-0.75-0.75s0.34-0.75 0.75-0.75h0.93v-0.89c0-0.41 0.34-0.75 0.75-0.75s0.75 0.34 0.75 0.75v0.89h0.93c0.41 0 0.75 0.34 0.75 0.75s-0.33 0.75-0.75 0.75z"/>
 <path d="m19.35 5.66-6.29-3.39c-0.66-0.36-1.46-0.36-2.13 0l-6.29 3.39c-0.46 0.25-0.74001 0.74003-0.74001 1.28s0.28001 1.03 0.74001 1.28l6.29 3.39c0.33 0.18 0.7 0.27 1.06 0.27s0.73-0.09 1.06-0.27l6.29-3.39c0.46-0.25 0.74-0.73997 0.74-1.28 0.02-0.54-0.27-1.03-0.73-1.28z" opacity=".4"/>
 <path d="m9.9002 12.79-5.85-2.93c-0.45-0.23-0.97001-0.2-1.4 0.06-0.43 0.26001-0.68 0.72001-0.68 1.22v5.53c0 0.96 0.53 1.82 1.39 2.25l5.85 2.92c0.2 0.1 0.42 0.15 0.64 0.15 0.25998 0 0.51998-0.07 0.74998-0.22 0.43-0.26 0.68-0.72 0.68-1.22v-5.53c0.01-0.94-0.52-1.8-1.38-2.23z" opacity=".4"/>
 <path d="m22.03 11.15v4.5899c-0.01-0.01-0.02-0.03-0.03-0.04 0-0.01-0.01-0.02-0.0201-0.03-0.04-0.06-0.0899-0.12-0.1399-0.17-0.01-0.01-0.02-0.0299-0.03-0.0399-0.81-0.9-2-1.4601-3.31-1.4601-1.26 0-2.41 0.52-3.23 1.36-0.79 0.81-1.27 1.92-1.27 3.14 0 0.84 0.2399 1.64 0.6499 2.32 0.17 0.29 0.38 0.55 0.61 0.79l-0.47 0.24c-0.2 0.1-0.42 0.15-0.64 0.15-0.26 0-0.5199-0.0699-0.7599-0.2199-0.42-0.26-0.68-0.7201-0.68-1.2201v-5.52c0-0.96 0.53-1.82 1.39-2.25l5.85-2.92c0.45-0.23 0.97-0.21001 1.4 0.05999 0.42 0.25998 0.68 0.72008 0.68 1.2201z" opacity=".4"/>
</svg>
