<svg width="24" height="24" viewBox="0 0 24 24"  xmlns="http://www.w3.org/2000/svg">
<path d="M21.6799 15.3197C20.7899 14.4297 19.6099 13.9797 18.4399 13.9997C17.3099 14.0097 16.1799 14.4597 15.3199 15.3197C14.7199 15.9097 14.3299 16.6496 14.1399 17.4196C14.0299 17.8396 13.9899 18.2697 14.0199 18.6997V18.7497C14.0199 18.8197 14.0299 18.8797 14.0399 18.9597C14.0399 18.9597 14.0399 18.9596 14.0499 18.9696V18.9997C14.1399 19.9797 14.5599 20.9297 15.3199 21.6797C16.4799 22.8397 18.1099 23.2296 19.5799 22.8596C20.0199 22.7496 20.4499 22.5697 20.8499 22.3297C21.1499 22.1597 21.4299 21.9397 21.6799 21.6797C22.4299 20.9297 22.8599 19.9797 22.9499 18.9897C22.9599 18.9897 22.9599 18.9697 22.9599 18.9597C22.9799 18.8897 22.9799 18.8097 22.9799 18.7397C22.9799 18.7297 22.9899 18.7097 22.9899 18.6897C23.0499 17.4797 22.6099 16.2397 21.6799 15.3197ZM20.2299 20.2097C19.9399 20.4997 19.4699 20.4997 19.1699 20.2097L18.5099 19.5496L17.8299 20.2296C17.5299 20.5296 17.0599 20.5296 16.7699 20.2296C16.4699 19.9396 16.4699 19.4696 16.7699 19.1696L17.4499 18.4897L16.7899 17.8297C16.4999 17.5297 16.4999 17.0597 16.7899 16.7697C17.0899 16.4697 17.5599 16.4697 17.8599 16.7697L18.5099 17.4297L19.1399 16.7896C19.4399 16.4996 19.9099 16.4996 20.2099 16.7896C20.4999 17.0896 20.4999 17.5596 20.2099 17.8596L19.5699 18.4897L20.2299 19.1397C20.5299 19.4397 20.5299 19.9097 20.2299 20.2097Z" />
<path opacity="0.4" d="M19.3499 5.65995L13.0599 2.27C12.3999 1.91 11.5999 1.91 10.9299 2.27L4.63992 5.65995C4.17992 5.90995 3.8999 6.39998 3.8999 6.93998C3.8999 7.47998 4.17992 7.96995 4.63992 8.21995L10.9299 11.61C11.2599 11.79 11.6299 11.88 11.9899 11.88C12.3499 11.88 12.7199 11.79 13.0499 11.61L19.3399 8.21995C19.7999 7.96995 20.0799 7.47998 20.0799 6.93998C20.0999 6.39998 19.8099 5.90995 19.3499 5.65995Z" />
<path opacity="0.4" d="M9.89996 12.7904L4.04996 9.86038C3.59996 9.63038 3.07996 9.66037 2.64996 9.92037C2.21996 10.1804 1.96997 10.6404 1.96997 11.1404V16.6704C1.96997 17.6304 2.49995 18.4904 3.35995 18.9204L9.20996 21.8404C9.40996 21.9404 9.62998 21.9904 9.84998 21.9904C10.11 21.9904 10.37 21.9204 10.6 21.7704C11.03 21.5104 11.28 21.0504 11.28 20.5504V15.0204C11.29 14.0804 10.76 13.2204 9.89996 12.7904Z" />
<path opacity="0.4" d="M22.03 11.1497V15.7396C22.02 15.7296 22.01 15.7097 22 15.6997C22 15.6897 21.99 15.6796 21.98 15.6696C21.94 15.6096 21.89 15.5496 21.84 15.4996C21.83 15.4896 21.82 15.4697 21.81 15.4597C21 14.5597 19.81 13.9996 18.5 13.9996C17.24 13.9996 16.09 14.5196 15.27 15.3596C14.48 16.1696 14 17.2796 14 18.4996C14 19.3396 14.24 20.1397 14.65 20.8197C14.82 21.1097 15.03 21.3696 15.26 21.6096L14.79 21.8496C14.59 21.9496 14.37 21.9996 14.15 21.9996C13.89 21.9996 13.63 21.9297 13.39 21.7797C12.97 21.5197 12.71 21.0596 12.71 20.5596V15.0396C12.71 14.0796 13.24 13.2196 14.1 12.7896L19.95 9.86964C20.4 9.63964 20.92 9.65964 21.35 9.92964C21.77 10.1896 22.03 10.6497 22.03 11.1497Z" />
</svg>
