<?xml version="1.0" encoding="UTF-8"?>
<svg width="24" height="24" viewBox="0 0 24 24" xmlns="http://www.w3.org/2000/svg">
 <path d="m20.1 6.94c0 0.54-0.29 1.03-0.75 1.28l-1.74 0.94-1.48 0.79004-3.07 1.66c-0.33 0.18-0.69 0.27-1.06 0.27s-0.73-0.09-1.06-0.27l-6.29-3.39c-0.46-0.25-0.75-0.73997-0.75-1.28s0.29-1.03 0.75-1.28l1.97-1.06 1.57-0.84998 2.75-1.48c0.66-0.36 1.46-0.36 2.12 0l6.29 3.39c0.46 0.25 0.75 0.74003 0.75 1.28z" opacity=".4"/>
 <path d="m9.9002 12.79-5.85-2.93c-0.45-0.23-0.96999-0.2-1.4 0.06-0.43 0.26001-0.68 0.72001-0.68 1.22v5.53c0 0.96 0.52999 1.82 1.39 2.25l5.85 2.92c0.19999 0.1 0.42001 0.15 0.64001 0.15 0.25998 0 0.51998-0.07 0.74998-0.22 0.43-0.26 0.68-0.72 0.68-1.22v-5.53c0.01-0.94-0.52-1.8-1.38-2.23z" opacity=".4"/>
 <path d="m22.03 11.15v5.5299c0 0.95-0.53 1.81-1.39 2.24l-5.85 2.93c-0.2 0.1-0.42 0.15-0.64 0.15-0.26 0-0.52-0.0699-0.76-0.2199-0.42-0.26-0.68-0.7201-0.68-1.2201v-5.52c0-0.96 0.53-1.82 1.39-2.25l2.15-1.07 1.5-0.75 2.2-1.1c0.45-0.23 0.97-0.21001 1.4 0.05999 0.42 0.25998 0.68 0.72008 0.68 1.2201z" opacity=".4"/>
 <path d="m22.6 21.64-0.76-0.76c0.4-0.6 0.63-1.3201 0.63-2.0901 0-2.11-1.71-3.82-3.82-3.82s-3.82 1.71-3.82 3.82 1.71 3.82 3.82 3.82c0.77 0 1.49-0.23 2.09-0.63l0.76 0.76c0.15 0.15 0.35 0.23 0.55 0.23s0.4-0.08 0.55-0.23c0.3-0.31 0.3-0.7999 0-1.0999z"/>
</svg>
