<svg width="24" height="24" viewBox="0 0 24 24"  xmlns="http://www.w3.org/2000/svg">
<path d="M11.9998 13.3002C11.8698 13.3002 11.7398 13.2703 11.6198 13.2003L2.78985 8.09027C2.42985 7.88027 2.30983 7.42024 2.51983 7.06024C2.72983 6.70024 3.17983 6.58022 3.54983 6.79022L11.9998 11.6802L20.3998 6.82025C20.7598 6.61025 21.2198 6.74027 21.4298 7.09027C21.6398 7.45027 21.5098 7.91023 21.1598 8.12023L12.3899 13.2003C12.2599 13.2603 12.1298 13.3002 11.9998 13.3002Z" />
<path d="M12 22.3603C11.59 22.3603 11.25 22.0203 11.25 21.6103V12.5403C11.25 12.1303 11.59 11.7903 12 11.7903C12.41 11.7903 12.75 12.1303 12.75 12.5403V21.6103C12.75 22.0203 12.41 22.3603 12 22.3603Z" />
<path d="M11.9999 22.7502C11.0899 22.7502 10.2199 22.5402 9.55988 22.1702L4.21988 19.2103C2.76988 18.4103 1.62988 16.4802 1.62988 14.8202V9.16021C1.62988 7.50021 2.76988 5.58026 4.21988 4.77026L9.55988 1.81023C10.9199 1.05023 13.0599 1.05023 14.4299 1.81023L19.7699 4.77026C21.2199 5.57026 22.3599 7.50021 22.3599 9.16021V12.8202C22.3599 13.2302 22.0199 13.5702 21.6099 13.5702C21.1999 13.5702 20.8599 13.2302 20.8599 12.8202V9.16021C20.8599 8.06021 20.0099 6.62026 19.0499 6.09026L13.7099 3.13024C12.7999 2.62024 11.2099 2.62024 10.2999 3.13024L4.95987 6.09026C3.98987 6.63026 3.14987 8.06021 3.14987 9.16021V14.8202C3.14987 15.9202 3.99987 17.3603 4.95987 17.8903L10.2999 20.8502C11.1799 21.3402 12.8399 21.3402 13.7099 20.8502C14.0699 20.6502 14.5299 20.7803 14.7299 21.1403C14.9299 21.5003 14.7999 21.9602 14.4399 22.1602C13.7799 22.5402 12.9099 22.7502 11.9999 22.7502Z" />
<path d="M19.2 22.1503C17.02 22.1503 15.25 20.3803 15.25 18.2003C15.25 16.0203 17.02 14.2502 19.2 14.2502C21.38 14.2502 23.15 16.0203 23.15 18.2003C23.15 20.3803 21.38 22.1503 19.2 22.1503ZM19.2 15.7502C17.85 15.7502 16.75 16.8503 16.75 18.2003C16.75 19.5503 17.85 20.6503 19.2 20.6503C20.55 20.6503 21.65 19.5503 21.65 18.2003C21.65 16.8503 20.55 15.7502 19.2 15.7502Z" />
<path d="M22.9999 22.7502C22.8099 22.7502 22.6199 22.6802 22.4699 22.5302L21.4699 21.5302C21.1799 21.2402 21.1799 20.7602 21.4699 20.4702C21.7599 20.1802 22.2399 20.1802 22.5299 20.4702L23.5299 21.4702C23.8199 21.7602 23.8199 22.2402 23.5299 22.5302C23.3799 22.6802 23.1899 22.7502 22.9999 22.7502Z" />
</svg>
