<svg width="24" height="24" viewBox="0 0 24 24"  xmlns="http://www.w3.org/2000/svg">
<path opacity="0.4" d="M19.3499 5.65995L13.0599 2.27C12.3999 1.91 11.5999 1.91 10.9299 2.27L4.63992 5.65995C4.17992 5.90995 3.8999 6.39998 3.8999 6.93998C3.8999 7.47998 4.17992 7.96995 4.63992 8.21995L10.9299 11.61C11.2599 11.79 11.6299 11.88 11.9899 11.88C12.3499 11.88 12.7199 11.79 13.0499 11.61L19.3399 8.21995C19.7999 7.96995 20.0799 7.47998 20.0799 6.93998C20.0999 6.39998 19.8099 5.90995 19.3499 5.65995Z" />
<path opacity="0.4" d="M9.89996 12.7904L4.04996 9.86038C3.59996 9.63038 3.07996 9.66037 2.64996 9.92037C2.21996 10.1804 1.96997 10.6404 1.96997 11.1404V16.6704C1.96997 17.6304 2.49995 18.4904 3.35995 18.9204L9.20996 21.8404C9.40996 21.9404 9.62998 21.9904 9.84998 21.9904C10.11 21.9904 10.37 21.9204 10.6 21.7704C11.03 21.5104 11.28 21.0504 11.28 20.5504V15.0204C11.29 14.0804 10.76 13.2204 9.89996 12.7904Z" />
<path opacity="0.4" d="M22.03 11.1497V15.7396C22.02 15.7296 22.01 15.7097 22 15.6997C22 15.6897 21.99 15.6796 21.98 15.6696C21.94 15.6096 21.89 15.5496 21.84 15.4996C21.83 15.4896 21.82 15.4697 21.81 15.4597C21 14.5597 19.81 13.9996 18.5 13.9996C17.24 13.9996 16.09 14.5196 15.27 15.3596C14.48 16.1696 14 17.2796 14 18.4996C14 19.3396 14.24 20.1397 14.65 20.8197C14.82 21.1097 15.03 21.3696 15.26 21.6096L14.79 21.8496C14.59 21.9496 14.37 21.9996 14.15 21.9996C13.89 21.9996 13.63 21.9297 13.39 21.7797C12.97 21.5197 12.71 21.0596 12.71 20.5596V15.0396C12.71 14.0796 13.24 13.2196 14.1 12.7896L19.95 9.86964C20.4 9.63964 20.92 9.65964 21.35 9.92964C21.77 10.1896 22.03 10.6497 22.03 11.1497Z" />
<path d="M21.98 15.6695C21.16 14.6595 19.91 14.0195 18.5 14.0195C17.44 14.0195 16.46 14.3895 15.69 15.0095C14.65 15.8295 14 17.0995 14 18.5195C14 19.3595 14.24 20.1595 14.65 20.8395C14.92 21.2895 15.26 21.6795 15.66 21.9995H15.67C16.44 22.6395 17.43 23.0195 18.5 23.0195C19.64 23.0195 20.67 22.5995 21.46 21.8995C21.81 21.5995 22.11 21.2395 22.35 20.8395C22.76 20.1595 23 19.3595 23 18.5195C23 17.4395 22.62 16.4395 21.98 15.6695ZM20.76 17.9595L18.36 20.1795C18.22 20.3095 18.03 20.3795 17.85 20.3795C17.66 20.3795 17.47 20.3095 17.32 20.1595L16.21 19.0495C15.92 18.7595 15.92 18.2795 16.21 17.9895C16.5 17.6995 16.98 17.6995 17.27 17.9895L17.87 18.5895L19.74 16.8595C20.04 16.5795 20.52 16.5995 20.8 16.8995C21.09 17.2095 21.07 17.6795 20.76 17.9595Z" />
</svg>
