<svg width="24" height="24" viewBox="0 0 24 24"  xmlns="http://www.w3.org/2000/svg">
<path d="M11.9998 13.3002C11.8698 13.3002 11.7398 13.2703 11.6198 13.2003L2.78985 8.09027C2.42985 7.88027 2.30983 7.42024 2.51983 7.06024C2.72983 6.70024 3.17983 6.58022 3.54983 6.79022L11.9998 11.6802L20.3998 6.82025C20.7598 6.61025 21.2198 6.74027 21.4298 7.09027C21.6398 7.45027 21.5098 7.91023 21.1598 8.12023L12.3899 13.2003C12.2599 13.2603 12.1298 13.3002 11.9998 13.3002Z" />
<path d="M12 22.3603C11.59 22.3603 11.25 22.0203 11.25 21.6103V12.5403C11.25 12.1303 11.59 11.7903 12 11.7903C12.41 11.7903 12.75 12.1303 12.75 12.5403V21.6103C12.75 22.0203 12.41 22.3603 12 22.3603Z" />
<path d="M11.9999 22.7502C11.1199 22.7502 10.2399 22.5602 9.55988 22.1702L4.21988 19.2103C2.76988 18.4103 1.62988 16.4802 1.62988 14.8202V9.16021C1.62988 7.50021 2.76988 5.58026 4.21988 4.77026L9.55988 1.81023C10.9199 1.05023 13.0599 1.05023 14.4299 1.81023L19.7699 4.77026C21.2199 5.57026 22.3599 7.50021 22.3599 9.16021V14.8202C22.3599 14.8902 22.3599 14.9902 22.3299 15.1202C22.2699 15.3802 22.0799 15.5902 21.8299 15.6702C21.5799 15.7502 21.2999 15.7003 21.0999 15.5203C19.9599 14.5203 18.1799 14.4802 16.9599 15.4502C16.1899 16.0602 15.7399 16.9902 15.7399 17.9802C15.7399 18.5702 15.8999 19.1503 16.2099 19.6503C16.2899 19.7903 16.3699 19.9002 16.4599 20.0002C16.6099 20.1702 16.6699 20.4002 16.6299 20.6202C16.5899 20.8402 16.4499 21.0403 16.2499 21.1403L14.4199 22.1503C13.7499 22.5603 12.8799 22.7502 11.9999 22.7502ZM11.9999 2.75024C11.3799 2.75024 10.7499 2.88024 10.2999 3.13024L4.95987 6.09026C3.98987 6.63026 3.14987 8.06021 3.14987 9.16021V14.8202C3.14987 15.9202 3.99987 17.3603 4.95987 17.8903L10.2999 20.8502C11.2099 21.3602 12.7999 21.3602 13.7099 20.8502L14.8299 20.2302C14.4599 19.5602 14.2599 18.7802 14.2599 17.9802C14.2599 16.5202 14.9099 15.1703 16.0399 14.2703C17.4099 13.1803 19.3499 12.9502 20.8699 13.6102V9.15026C20.8699 8.05026 20.0199 6.61025 19.0599 6.08025L13.7199 3.12023C13.2499 2.88023 12.6199 2.75024 11.9999 2.75024Z" />
<path d="M19 22.7502C16.38 22.7502 14.25 20.6202 14.25 18.0002C14.25 16.5402 14.9 15.1902 16.03 14.2902C16.87 13.6202 17.93 13.2502 19 13.2502C21.62 13.2502 23.75 15.3802 23.75 18.0002C23.75 19.3602 23.16 20.6602 22.13 21.5602C21.26 22.3302 20.15 22.7502 19 22.7502ZM19 14.7502C18.26 14.7502 17.56 15.0002 16.97 15.4702C16.2 16.0802 15.75 17.0102 15.75 18.0002C15.75 19.7902 17.21 21.2502 19 21.2502C19.78 21.2502 20.54 20.9602 21.15 20.4402C21.85 19.8202 22.25 18.9402 22.25 18.0002C22.25 16.2102 20.79 14.7502 19 14.7502Z" />
<path d="M17.9999 19.7502C17.7499 19.7502 17.4999 19.6203 17.3599 19.3903C17.1499 19.0303 17.2599 18.5702 17.6199 18.3602L18.5099 17.8303V16.7502C18.5099 16.3402 18.8499 16.0002 19.2599 16.0002C19.6699 16.0002 20.0099 16.3402 20.0099 16.7502V18.2502C20.0099 18.5102 19.8699 18.7603 19.6499 18.8903L18.3999 19.6403C18.2599 19.7203 18.1299 19.7502 17.9999 19.7502Z" />
</svg>
