<?xml version="1.0" encoding="UTF-8"?>
<svg width="24" height="24" viewBox="0 0 24 24" xmlns="http://www.w3.org/2000/svg">
 <path d="m19.35 5.66-6.29-3.39c-0.66-0.36-1.46-0.36-2.13 0l-6.29 3.39c-0.46 0.25-0.74002 0.74003-0.74002 1.28s0.28002 1.03 0.74002 1.28l6.29 3.39c0.33 0.18 0.7 0.27 1.06 0.27 0.37 0 0.73-0.09 1.06-0.27l6.29-3.39c0.46-0.25 0.74-0.73997 0.74-1.28 0.01-0.54-0.27-1.03-0.73-1.28z" opacity=".4"/>
 <path d="m9.9002 12.79-5.85-2.93c-0.45-0.23-0.96999-0.2-1.4 0.06-0.43 0.26001-0.68 0.72001-0.68 1.22v5.53c0 0.96 0.52999 1.82 1.39 2.25l5.85 2.92c0.19999 0.1 0.42001 0.15 0.64001 0.15 0.25998 0 0.51998-0.07 0.74998-0.22 0.43-0.26 0.68-0.72 0.68-1.22v-5.53c0.01-0.94-0.52-1.8-1.38-2.23z" opacity=".4"/>
 <path d="m22.03 11.15v4.5899c-0.01-0.01-0.02-0.03-0.03-0.04 0-0.01-0.01-0.02-0.02-0.03-0.04-0.06-0.09-0.12-0.14-0.17-0.01-0.01-0.02-0.0299-0.03-0.0399-0.81-0.9-2-1.4601-3.31-1.4601-1.26 0-2.41 0.52-3.23 1.36-0.79 0.81-1.27 1.92-1.27 3.14 0 0.84 0.24 1.64 0.65 2.32 0.17 0.29 0.38 0.55 0.61 0.79l-0.47 0.24c-0.2 0.1-0.42 0.15-0.64 0.15-0.26 0-0.52-0.0699-0.76-0.2199-0.42-0.26-0.68-0.7201-0.68-1.2201v-5.52c0-0.96 0.53-1.82 1.39-2.25l5.85-2.92c0.45-0.23 0.97-0.21001 1.4 0.05999 0.42 0.25998 0.68 0.72008 0.68 1.2201z" opacity=".4"/>
 <path d="m21.98 15.65c-0.82-1.01-2.07-1.65-3.48-1.65-1.06 0-2.04 0.37-2.81 0.99-1.04 0.82-1.69 2.09-1.69 3.51 0 1.41 0.64 2.66 1.65 3.48 0.77 0.64 1.77 1.02 2.85 1.02 1.14 0 2.17-0.43 2.97-1.12 0.93-0.83 1.53-2.03 1.53-3.38 0-1.08-0.38-2.08-1.02-2.85zm-2.45 3.13c0 0.26-0.14 0.51-0.36 0.64l-1.41 0.84c-0.12 0.07-0.25 0.11-0.39 0.11-0.25 0-0.5-0.13-0.64-0.36-0.21-0.36-0.1-0.82 0.26-1.03l1.04-0.62v-1.26c0-0.41 0.34-0.75 0.75-0.75s0.75 0.34 0.75 0.75v1.68z"/>
</svg>
