<?xml version="1.0" encoding="UTF-8"?>
<svg width="24" height="24" viewBox="0 0 24 24" xmlns="http://www.w3.org/2000/svg">
 <path d="m21.09 6.98c-0.85-0.94-2.27-1.41-4.33-1.41h-0.24v-0.04c0-1.68 0-3.76-3.76-3.76h-1.52c-3.76 0-3.76 2.09-3.76 3.76v0.05h-0.24c-2.07 0-3.48 0.47-4.33 1.41-0.99 1.1-0.96 2.58-0.86 3.59l0.01 0.07 0.1 1.05c0.01 0.01 0.03 0.03 0.05 0.04 0.33 0.22 0.67 0.44 1.03 0.64 0.14 0.09 0.29 0.17 0.44 0.25 1.71 0.94 3.59 1.57 5.5 1.88 0.09 0.94 0.5 2.04 2.69 2.04 2.19 0 2.62-1.09 2.69-2.06 2.04-0.33 4.01-1.04 5.79-2.08 0.06-0.03 0.1-0.06 0.15-0.09 0.46-0.26 0.89-0.54 1.31-0.85 0.02-0.01 0.04-0.03 0.05-0.05l0.04-0.36 0.05-0.47c0.01-0.06 0.01-0.11 0.02-0.18 0.08-1.01 0.06-2.39-0.88-3.43zm-8 6.85c0 1.06 0 1.22-1.23 1.22s-1.23-0.19-1.23-1.21v-1.26h2.46v1.25zm-4.18-8.26v-0.04c0-1.7 0-2.33 2.33-2.33h1.52c2.33 0 2.33 0.64 2.33 2.33v0.05h-6.18v-0.01z"/>
 <path d="m20.5 12.3-0.15 0.09c-1.78 1.04-3.75 1.74-5.79 2.08-0.08 0.96-0.5 2.06-2.69 2.06-2.19 0-2.61-1.09-2.69-2.04-1.91-0.3-3.79-0.93-5.5-1.88-0.15-0.08-0.3-0.16-0.44-0.25-0.36-0.2-0.7-0.42-1.03-0.64-0.02-0.01-0.04-0.03-0.05-0.04l0.61 6.51c0.21 1.99 1.03 4.04 5.43 4.04h7.62c4.4 0 5.22-2.05 5.43-4.05l0.63-6.78c-0.01 0.02-0.03 0.04-0.05 0.05-0.43 0.31-0.87 0.6-1.33 0.85z" opacity=".4"/>
</svg>
