<?xml version="1.0" encoding="UTF-8"?>
<svg width="24" height="24" viewBox="0 0 24 24" xmlns="http://www.w3.org/2000/svg">
 <path d="m11.13 15.88c-0.25 0-0.5-0.13-0.64-0.36-0.21-0.35-0.1-0.82 0.26-1.03l0.89-0.53v-1.08c0-0.41 0.34-0.75 0.75-0.75s0.75 0.34 0.75 0.75v1.5c0 0.26-0.14 0.51-0.36 0.64l-1.25 0.75c-0.14 0.07-0.27 0.11-0.4 0.11z"/>
 <path d="m21.85 11.41-0.62 6.78c-0.21 2-1.03 4.04-5.43 4.04h-7.62c-4.4 0-5.22-2.04-5.42-4.03l-0.61-6.51c0.01 0.01 0.02 0.02 0.04 0.03 0.34 0.22 0.67 0.44 1.03 0.64 0.14 0.09 0.29 0.17 0.44 0.25 1.13 0.62 2.34 1.11 3.59 1.45 0.5 0.15 1.01 0.26 1.53 0.35 0.2 1.6 1.57 2.84 3.22 2.84 1.67 0 3.05-1.27 3.23-2.9v-0.01c0.51-0.1 1.02-0.23 1.52-0.38 1.25-0.39 2.46-0.91 3.59-1.57 0.06-0.03 0.11-0.06 0.15-0.09 0.46-0.25 0.9-0.54 1.32-0.84 0.02-0.01 0.03-0.03 0.04-0.05z" opacity=".4"/>
 <path d="m21.09 6.98c-0.85-0.94-2.26-1.41-4.33-1.41h-0.24v-0.04c0-1.68 0-3.76-3.76-3.76h-1.52c-3.76 0-3.76 2.08-3.76 3.76v0.04h-0.24c-2.07 0-3.49 0.47-4.33 1.41-0.99 1.11-0.96 2.58-0.86 3.59l0.01 0.07 0.09 1.05c0.01 0.01 0.03 0.02 0.05 0.03 0.34 0.22 0.67 0.44 1.03 0.64 0.14 0.09 0.29 0.17 0.44 0.25 1.13 0.62 2.34 1.11 3.58 1.45 0.03 2.59 2.15 4.69 4.75 4.69 2.62 0 4.75-2.13 4.75-4.75v-0.04c1.26-0.38 2.47-0.91 3.6-1.57 0.06-0.03 0.1-0.06 0.15-0.09 0.46-0.25 0.9-0.54 1.32-0.84 0.01-0.01 0.03-0.03 0.04-0.05l0.04-0.36 0.05-0.47c0.01-0.06 0.01-0.11 0.02-0.18 0.08-0.99998 0.06-2.38-0.88-3.42zm-12.18-1.45c0-1.7 0-2.34 2.33-2.34h1.52c2.33 0 2.33 0.64 2.33 2.34v0.04h-6.18v-0.04zm3.09 11.72c-1.65 0-3.02-1.24-3.22-2.84-0.02-0.13-0.03-0.27-0.03-0.41 0-1.79 1.46-3.25 3.25-3.25s3.25 1.46 3.25 3.25c0 0.12-0.01 0.23-0.02 0.34v0.01c-0.18 1.63-1.56 2.9-3.23 2.9z"/>
</svg>
