<svg width="24" height="24" viewBox="0 0 24 24"  xmlns="http://www.w3.org/2000/svg">
<path opacity="0.4" d="M9.82997 5.57001L6.35997 7.68L4.77997 5.08002C4.19997 4.13002 4.49998 2.86998 5.45998 2.28998C6.40998 1.70998 7.66997 2.00998 8.24997 2.96998L9.82997 5.57001Z" />
<path opacity="0.4" d="M19.2699 17.64L19.2599 17.65L17.9599 18.44L16.6599 19.23L15.3599 20.02L14.0599 20.81L12.7599 21.6H12.7499C11.4399 22.4 9.8199 21.92 9.1499 20.55L7.06992 16.31C6.33992 14.83 6.56991 13.03 7.68991 11.8C7.94991 11.52 8.24992 11.26 8.59992 11.05L11.8099 9.1C12.1699 8.89 12.5299 8.73004 12.8999 8.64004C14.4999 8.20004 16.1999 8.82005 17.1799 10.15L19.9899 13.95C20.8999 15.2 20.5799 16.85 19.2699 17.64Z" />
<path d="M12.9 8.66C12.53 8.75 12.17 8.90002 11.81 9.12002L8.60005 11.07C8.24005 11.28 7.95005 11.54 7.69005 11.82C7.68005 11.82 7.68004 11.81 7.68004 11.81L6.03005 9.08005C5.74005 8.60005 5.89005 7.97003 6.36005 7.69003L9.83005 5.58005C10.31 5.29005 10.93 5.44 11.22 5.91L12.8801 8.64004C12.8901 8.65004 12.9 8.65 12.9 8.66Z" />
<path d="M16.6601 19.23L15.3601 20.02L13.6901 17.27C13.4801 16.91 13.5901 16.45 13.9401 16.22C14.3101 16.01 14.7701 16.12 14.9901 16.47L16.6601 19.23Z" />
<path d="M14.06 20.82L12.76 21.61L11.09 18.86C10.87 18.5 10.98 18.04 11.34 17.81C11.7 17.6 12.16 17.71 12.39 18.06L14.06 20.82Z" />
<path d="M19.26 17.65L17.96 18.44L16.29 15.69C16.08 15.33 16.19 14.87 16.54 14.64C16.91 14.43 17.37 14.54 17.59 14.89L19.26 17.65Z" />
</svg>
