<?xml version="1.0" encoding="UTF-8"?>
<svg width="24" height="24" viewBox="0 0 24 24" xmlns="http://www.w3.org/2000/svg">
 <path d="m9.83 5.5703-3.47 2.11-1.58-2.6c-0.58-0.95-0.27999-2.21 0.68001-2.79 0.95-0.58 2.21-0.28001 2.79 0.67999l1.58 2.6z" opacity=".4"/>
 <path d="m19.27 17.64-0.0101 0.01-1.2999 0.79-1.3 0.7899-1.3 0.7901-1.3 0.79-1.3001 0.7899h-0.0099c-1.31 0.8-2.93 0.3201-3.6-1.0499l-2.08-4.24c-0.73-1.48-0.5-3.28 0.62-4.51 0.26-0.28 0.56-0.54 0.91-0.75l3.21-1.9501c0.36-0.21 0.7199-0.36996 1.0899-0.45996 1.6-0.44 3.3 0.18001 4.28 1.51l2.8101 3.8c0.91 1.25 0.59 2.9-0.72 3.69z" opacity=".4"/>
 <path d="m12.9 8.6596c-0.37 0.09-0.73 0.24003-1.09 0.46003l-3.21 1.95c-0.36 0.21-0.65001 0.47-0.91001 0.75-0.01 0-0.01001-0.01-0.01001-0.01l-1.65-2.73c-0.29-0.48-0.14-1.11 0.33-1.39l3.47-2.11c0.48-0.29 1.1-0.14005 1.39 0.32995l1.66 2.73c0.01 0.01 0.02 0.00995 0.02 0.01995z"/>
 <path d="m16.66 19.23-1.3 0.79-1.67-2.75c-0.21-0.36-0.1-0.82 0.25-1.05 0.37-0.21 0.83-0.1 1.05 0.25l1.67 2.76z"/>
 <path d="m14.06 20.82-1.3 0.79-1.67-2.75c-0.22-0.36-0.11-0.82 0.25-1.05 0.36-0.21 0.82-0.1 1.05 0.25l1.67 2.76z"/>
 <path d="m19.26 17.65-1.3 0.79-1.67-2.75c-0.21-0.36-0.1-0.82 0.25-1.05 0.37-0.21 0.83-0.1 1.05 0.25l1.67 2.76z"/>
</svg>
