<svg width="24" height="24" viewBox="0 0 24 24"  xmlns="http://www.w3.org/2000/svg">
<path d="M14.9702 22.75H8.97021C3.54022 22.75 1.22021 20.43 1.22021 15V9C1.22021 3.57 3.54022 1.25 8.97021 1.25H10.9702C11.3802 1.25 11.7202 1.59 11.7202 2C11.7202 2.41 11.3802 2.75 10.9702 2.75H8.97021C4.36021 2.75 2.72021 4.39 2.72021 9V15C2.72021 19.61 4.36021 21.25 8.97021 21.25H14.9702C19.5802 21.25 21.2202 19.61 21.2202 15V13C21.2202 12.59 21.5602 12.25 21.9702 12.25C22.3802 12.25 22.7202 12.59 22.7202 13V15C22.7202 20.43 20.4102 22.75 14.9702 22.75Z" />
<path d="M12.7802 15.24C12.6302 15.24 12.4902 15.2 12.3602 15.11C12.1502 14.97 12.0302 14.74 12.0302 14.49C12.0302 14.38 12.0202 14.26 12.0002 14.14C11.9302 13.61 11.6902 13.14 11.2902 12.73C10.8802 12.32 10.3802 12.06 9.83021 11.99C9.75021 11.98 9.62021 11.97 9.50021 11.98C9.25021 12 9.00021 11.89 8.85021 11.69C8.70021 11.49 8.66021 11.22 8.74021 10.98C8.86021 10.64 9.05022 10.32 9.27022 10.07L10.5002 8.53C12.6402 5.86 16.9502 2.66 20.1302 1.39C20.8602 1.11 21.6302 1.27 22.1602 1.8C22.7102 2.35 22.8702 3.13 22.5802 3.84C21.3102 7.01 18.1102 11.33 15.4502 13.46L13.8802 14.72C13.5702 14.94 13.3202 15.09 13.0602 15.19C12.9702 15.22 12.8702 15.24 12.7802 15.24ZM10.7202 10.67C11.3302 10.87 11.8802 11.21 12.3502 11.67C12.8102 12.13 13.1402 12.66 13.3302 13.23L14.5102 12.28C17.0002 10.28 20.0002 6.24 21.1902 3.27C21.2702 3.08 21.1802 2.94 21.1002 2.85C21.0502 2.8 20.9102 2.69 20.6802 2.78C17.7202 3.97 13.6802 6.97 11.6802 9.46L10.7202 10.67Z" />
<path d="M7.70022 18.75C7.06022 18.75 6.45021 18.5 5.99021 18.04C5.46021 17.51 5.20022 16.78 5.29022 16.03L5.50022 14.07C5.72022 12.04 7.37021 10.54 9.44021 10.5C9.60021 10.49 9.80022 10.5 9.99022 10.51C10.9002 10.63 11.7102 11.03 12.3502 11.68C12.9902 12.32 13.3802 13.08 13.4902 13.94C13.5202 14.13 13.5302 14.32 13.5302 14.5C13.5302 15.59 13.1102 16.62 12.3402 17.39C11.7102 18.02 10.8902 18.41 9.96021 18.53L7.98022 18.74C7.88022 18.75 7.79022 18.75 7.70022 18.75ZM9.60022 11.99C9.57022 11.99 9.53022 11.99 9.50022 11.99C8.35022 12.02 7.14021 12.79 6.99021 14.23L6.78022 16.2C6.75022 16.49 6.85022 16.78 7.05022 16.98C7.25022 17.18 7.53021 17.28 7.81021 17.25L9.78021 17.04C10.3602 16.97 10.8802 16.72 11.2702 16.33C11.7502 15.84 12.0202 15.2 12.0202 14.5C12.0202 14.39 12.0102 14.27 11.9902 14.15C11.9202 13.62 11.6802 13.15 11.2802 12.74C10.8702 12.33 10.3702 12.07 9.82022 12C9.77022 11.99 9.69022 11.99 9.60022 11.99Z" />
<path d="M15.8202 12.73C15.4102 12.73 15.0702 12.39 15.0702 11.98C15.0702 10.31 13.7102 8.94 12.0302 8.94C11.6202 8.94 11.2802 8.6 11.2802 8.19C11.2802 7.78 11.6202 7.44 12.0302 7.44C14.5302 7.44 16.5702 9.47 16.5702 11.98C16.5702 12.39 16.2402 12.73 15.8202 12.73Z" />
</svg>
