<svg width="20" height="20" viewBox="0 0 20 20"  xmlns="http://www.w3.org/2000/svg">
<path opacity="0.4" d="M14.19 0H5.81C2.17 0 0 2.17 0 5.81V14.18C0 17.83 2.17 20 5.81 20H14.18C17.82 20 19.99 17.83 19.99 14.19V5.81C20 2.17 17.83 0 14.19 0Z" />
<path d="M19.8301 1.55022C18.7801 4.16022 16.4001 7.57022 14.1201 9.80022C13.7901 7.74022 12.1501 6.13022 10.0701 5.84022C12.3101 3.56022 15.7401 1.14022 18.3601 0.0802204C18.8201 -0.0997796 19.2901 0.0402204 19.5701 0.33022C19.8801 0.63022 20.0201 1.09022 19.8301 1.55022Z" />
<path opacity="0.4" d="M14.1199 9.79008C13.7199 10.1801 13.3199 10.5401 12.9399 10.8401L11.3699 12.1001C11.1699 12.2401 10.9699 12.3601 10.7499 12.4601C10.7499 12.3101 10.7299 12.1601 10.7199 12.0001C10.6299 11.3401 10.3299 10.7101 9.78993 10.1701C9.23993 9.63008 8.57993 9.32008 7.90993 9.23008C7.74993 9.21008 7.57993 9.21008 7.42993 9.21008C7.51993 8.96008 7.64993 8.73008 7.81993 8.54008L9.06993 6.97008C9.36993 6.59008 9.70993 6.21008 10.0799 5.83008C12.1499 6.12008 13.7999 7.74008 14.1199 9.79008Z" />
<path d="M10.7501 12.47C10.7501 13.35 10.4101 14.19 9.78007 14.82C9.29007 15.31 8.64007 15.65 7.84007 15.75L5.88007 15.97C4.81007 16.09 3.89007 15.17 4.01007 14.09L4.23007 12.13C4.42007 10.38 5.88007 9.26 7.43007 9.23C7.58007 9.22 7.75007 9.23 7.91007 9.25C8.59007 9.34 9.24007 9.65 9.79007 10.19C10.3201 10.72 10.6301 11.36 10.7201 12.02C10.7301 12.17 10.7501 12.32 10.7501 12.47Z" />
</svg>
