<?xml version="1.0" encoding="UTF-8"?>
<svg width="24" height="24" viewBox="0 0 24 24" xmlns="http://www.w3.org/2000/svg">
 <path d="m15.52 2.9c-0.6-0.6-1.47-0.9-2.59-0.9h-5.58c-2.25 0-3.49 1.24-3.49 3.49 0 1.12 0.3 1.99 0.9 2.59s1.47 0.9 2.59 0.9h5.58c2.25 0 3.49-1.24 3.49-3.49 0-1.12-0.3-1.99-0.9-2.59z"/>
 <path d="m10.6 15.02h-0.93002c-0.95 0-2.09 0.36-2.09 2.09v2.79c0 1.73 1.14 2.09 2.09 2.09h0.93002c0.95 0 2.09-0.36 2.09-2.09v-2.79c0.01-1.72-1.13-2.09-2.09-2.09z" opacity=".4"/>
 <path d="m16.65 4.79h-0.28c0.03 0.22 0.05 0.45 0.05 0.7s-0.02 0.48-0.05 0.7h0.28c2.09 0 2.09 0.28 2.09 2.09v1.86c0 1.81 0 2.09-2.09 2.09h-3.72c-2.99 0-3.42 1.42-3.48 2.8 0.07 0 0.15-0.01 0.22-0.01h0.93c0.08 0 0.16 0.01 0.25 0.01 0.05-1.01 0.34-1.41 2.08-1.41h3.72c3.25 0 3.49-1.32 3.49-3.49v-1.85c0-2.17-0.24-3.49-3.49-3.49z" opacity=".4"/>
</svg>
