<?xml version="1.0" encoding="UTF-8"?>
<svg width="20" height="20" viewBox="0 0 20 20" xmlns="http://www.w3.org/2000/svg">
 <path d="M14.19 0H5.81C2.17 0 0 2.17 0 5.81V14.18C0 17.83 2.17 20 5.81 20H14.18C17.82 20 19.99 17.83 19.99 14.19V5.81C20 2.17 17.83 0 14.19 0Z" opacity=".4"/>
 <path d="m19.83 1.5502c-1.05 2.61-3.43 6.02-5.71 8.25-0.33-2.06-1.97-3.67-4.05-3.96 2.24-2.28 5.67-4.7 8.29-5.76 0.46-0.18 0.93-0.04 1.21 0.25 0.31 0.3 0.45 0.76 0.26 1.22z"/>
 <path d="m14.12 9.7901c-0.4 0.39002-0.8 0.75002-1.18 1.05l-1.57 1.26c-0.2 0.14-0.4 0.26-0.62 0.36 0-0.15-0.02-0.3-0.03-0.46-0.09-0.66-0.39-1.29-0.93002-1.83-0.55-0.54002-1.21-0.85002-1.88-0.94002-0.16-0.02-0.33-0.02-0.48-0.02 0.09-0.25 0.22-0.48 0.39-0.67l1.25-1.57c0.3-0.38 0.64-0.76 1.01-1.14 2.07 0.29 3.72 1.91 4.04 3.96z" opacity=".4"/>
 <path d="m10.75 12.47c0 0.88-0.34 1.72-0.97003 2.35-0.49 0.49-1.14 0.83-1.94 0.93l-1.96 0.22c-1.07 0.12-1.99-0.8-1.87-1.88l0.22-1.96c0.19-1.75 1.65-2.87 3.2-2.9 0.15-0.01 0.32 0 0.48 0.02 0.68 0.09 1.33 0.4 1.88 0.94 0.53003 0.53 0.84003 1.17 0.93003 1.83 0.01 0.15 0.03 0.3 0.03 0.45z"/>
</svg>
