<?xml version="1.0" encoding="UTF-8"?>
<svg width="24" height="24" viewBox="0 0 24 24" xmlns="http://www.w3.org/2000/svg">
 <path d="m15.59 1.75c-2.97 0-5.38 2.41-5.38 5.38s2.41 5.38 5.38 5.38 5.38-2.41 5.38-5.38-2.41-5.38-5.38-5.38z"/>
 <path d="m6.3598 13.03c-1.83 0-3.33 1.49-3.33 3.33s1.49 3.33 3.33 3.33c1.83 0 3.33-1.49 3.33-3.33s-1.5-3.33-3.33-3.33z" opacity=".4"/>
 <path d="m16.62 16.62c-1.55 0-2.81 1.26-2.81 2.81s1.26 2.81 2.81 2.81 2.81-1.26 2.81-2.81-1.26-2.81-2.81-2.81z" opacity=".4"/>
</svg>
