<?xml version="1.0" encoding="UTF-8"?>
<svg width="24" height="24" viewBox="0 0 24 24" xmlns="http://www.w3.org/2000/svg">
 <path d="m16.19 2h-8.37c-3.64 0-5.81 2.17-5.81 5.81v8.37c0 3.64 2.17 5.81 5.81 5.81h8.37c3.64 0 5.81-2.17 5.81-5.81v-8.37c0-3.64-2.17-5.81-5.81-5.81z" opacity=".4"/>
 <path d="m15.66 11.93c-0.01-0.14-0.07-0.29-0.17-0.39l-4.7-4.7-0.55-0.55005c-0.19-0.19-0.49003-0.19-0.68003 0s-0.19 0.48999 0 0.67999l0.55003 0.55005-3.6 3.6c-0.41 0.41-0.63001 0.83-0.64001 1.24-0.01 0.44 0.20001 0.88 0.64001 1.33l2.57 2.57c0.86 0.85 1.72 0.85 2.57 0l3.85-3.85c0.11-0.14 0.17-0.32 0.16-0.48z"/>
 <path d="m16.96 14.19c-0.16-0.18-0.47-0.18-0.64 0-0.2 0.21-1.19 1.33-1.19 2.17 0 0.83 0.67 1.5 1.5 1.5s1.5-0.67 1.5-1.5c0.01-0.84-0.97-1.95-1.17-2.17z"/>
</svg>
