<?xml version="1.0" encoding="UTF-8"?>
<svg width="24" height="24" viewBox="0 0 24 24" xmlns="http://www.w3.org/2000/svg">
 <path d="m17.31 11.25c0.02 0.26-0.07 0.53-0.27 0.73l-6.02 6.02c-1.33 1.33-2.67 1.33-4.01 0l-4.01-4.01c-0.68-0.69-1.02-1.38-1-2.07h0.07l15.12-0.66 0.12-0.01z"/>
 <path d="m17.04 10.64-8.22-8.2201c-0.29-0.29-0.77-0.29-1.06 0s-0.29 0.76999 0 1.06l0.87 0.87-5.63 5.63c-0.64 0.63997-0.98 1.29-1 1.94h0.07l15.12-0.6599 0.12-0.01c-0.01-0.22-0.11-0.45-0.27-0.61z" opacity=".4"/>
 <path d="m16 22.75h-13c-0.41 0-0.75-0.34-0.75-0.75s0.34-0.75 0.75-0.75h13c0.41 0 0.75 0.34 0.75 0.75s-0.34 0.75-0.75 0.75z"/>
 <path d="m19.35 14.78c-0.26-0.28-0.74-0.28-1 0-0.31 0.34-1.85 2.08-1.85 3.39 0 1.3 1.05 2.35 2.35 2.35s2.35-1.05 2.35-2.35c0-1.31-1.54-3.05-1.85-3.39z"/>
</svg>
