<svg width="24" height="24" viewBox="0 0 24 24"  xmlns="http://www.w3.org/2000/svg">
<path d="M12.5002 22.7497H4.08021C2.51021 22.7497 1.22021 21.4897 1.22021 19.9297V5.0897C1.22021 3.5597 1.79021 2.3697 2.83021 1.7197C3.88021 1.0597 5.24022 1.0797 6.65022 1.7797L11.0902 3.9597C12.3002 4.5597 13.2502 6.0697 13.2502 7.4097V21.9997C13.2502 22.4097 12.9102 22.7497 12.5002 22.7497ZM4.56021 2.7497C4.21021 2.7497 3.89021 2.8297 3.62021 2.9997C3.04021 3.3597 2.72021 4.1097 2.72021 5.0897V19.9297C2.72021 20.6597 3.33021 21.2497 4.08021 21.2497H11.7502V7.4097C11.7502 6.6397 11.1302 5.6497 10.4202 5.3097L5.98022 3.1297C5.47022 2.8797 4.99021 2.7497 4.56021 2.7497Z" />
<path d="M18.8102 22.7497H12.5002C12.0902 22.7497 11.7502 22.4097 11.7502 21.9997V10.4197C11.7502 10.1897 11.8502 9.9797 12.0302 9.8397C12.2102 9.6997 12.4302 9.6397 12.6602 9.6897L13.1302 9.7897L19.6702 11.2497C21.6602 11.6897 22.6602 12.8597 22.7202 14.8497C22.7302 14.8497 22.7302 14.9497 22.7302 15.0597V18.8397C22.7202 21.3997 21.3702 22.7497 18.8102 22.7497ZM13.2502 21.2497H18.8102C20.5702 21.2497 21.2202 20.5997 21.2202 18.8397V14.9797C21.1702 13.6097 20.6502 12.9997 19.3402 12.7097L13.2502 11.3497V21.2497Z" />
<path d="M8.97021 9.7497H5.50021C5.09021 9.7497 4.75021 9.4097 4.75021 8.9997C4.75021 8.5897 5.09021 8.2497 5.50021 8.2497H8.97021C9.38021 8.2497 9.72021 8.5897 9.72021 8.9997C9.72021 9.4097 9.39021 9.7497 8.97021 9.7497Z" />
<path d="M8.97021 13.7497H5.50021C5.09021 13.7497 4.75021 13.4097 4.75021 12.9997C4.75021 12.5897 5.09021 12.2497 5.50021 12.2497H8.97021C9.38021 12.2497 9.72021 12.5897 9.72021 12.9997C9.72021 13.4097 9.39021 13.7497 8.97021 13.7497Z" />
<path d="M15.2202 17.7497C13.5702 17.7497 12.2202 16.3997 12.2202 14.7497V10.5197C12.2202 10.2897 12.3202 10.0797 12.5002 9.9297C12.6802 9.7797 12.9102 9.7297 13.1302 9.7797L17.6302 10.7897C17.9702 10.8697 18.2202 11.1697 18.2202 11.5197V14.7397C18.2202 16.3997 16.8802 17.7497 15.2202 17.7497ZM13.7202 11.4597V14.7497C13.7202 15.5797 14.3902 16.2497 15.2202 16.2497C16.0502 16.2497 16.7202 15.5797 16.7202 14.7497V12.1297L13.7202 11.4597Z" />
<path d="M19.7202 17.7497C18.0702 17.7497 16.7202 16.3997 16.7202 14.7497V11.5297C16.7202 11.2997 16.8202 11.0897 17.0002 10.9497C17.1802 10.8097 17.4102 10.7497 17.6302 10.7997L19.6602 11.2497C21.6502 11.6897 22.6502 12.8597 22.7102 14.8497C22.7102 14.8697 22.7102 14.8897 22.7102 14.9097C22.6302 16.4997 21.3202 17.7497 19.7202 17.7497ZM18.2202 12.4597V14.7497C18.2202 15.5797 18.8902 16.2497 19.7202 16.2497C20.5102 16.2497 21.1602 15.6397 21.2102 14.8597C21.1602 13.5997 20.6402 12.9997 19.3402 12.7097L18.2202 12.4597Z" />
</svg>
