<?xml version="1.0" encoding="UTF-8"?>
<svg width="24" height="24" viewBox="0 0 24 24" xmlns="http://www.w3.org/2000/svg">
 <path d="m15.01 14.75v7.2399l-12 0.0201v-7.26l-0.01001-1.5v-6.18c0-0.67 0.34001-1.29 0.89001-1.66l4-2.67c0.67-0.45 1.55-0.45 2.22 0l4 2.67c0.56 0.37 0.89 0.99003 0.89 1.66v6.18l0.01 1.5z" opacity=".4"/>
 <path d="m22 21.25h-1.27v-3c0.95-0.31 1.64-1.2 1.64-2.25v-2c0-1.31-1.07-2.38-2.38-2.38s-2.38 1.07-2.38 2.38v2c0 1.04 0.68 1.92 1.61 2.24v3.01h-17.22c-0.41 0-0.75 0.34-0.75 0.75s0.34 0.75 0.75 0.75h17.93c0.02 0 0.03 0.01 0.05 0.01s0.03-0.01 0.05-0.01h1.97c0.41 0 0.75-0.34 0.75-0.75s-0.34-0.75-0.75-0.75z"/>
 <path d="m15.01 14.75h-12l-0.01001-1.5h12l0.01 1.5z"/>
 <path d="m9 22.75c-0.41 0-0.75-0.34-0.75-0.75v-3.75c0-0.41 0.34-0.75 0.75-0.75s0.75 0.34 0.75 0.75v3.75c0 0.41-0.34 0.75-0.75 0.75z"/>
 <path d="m9 10.75c0.9665 0 1.75-0.7835 1.75-1.75s-0.7835-1.75-1.75-1.75-1.75 0.7835-1.75 1.75 0.7835 1.75 1.75 1.75z"/>
</svg>
