<?xml version="1.0" encoding="UTF-8"?>
<svg width="24" height="24" viewBox="0 0 24 24" xmlns="http://www.w3.org/2000/svg">
 <path d="m10.6 4.15v1.85h-1.48c-1.61 0-2.42 0.80998-2.42 2.42v9.58h-2.55c-1.43 0-2.15-0.72-2.15-2.15v-11.7c0-1.43 0.72002-2.15 2.15-2.15h4.3c1.43 0 2.15 0.72002 2.15 2.15z"/>
 <path d="m17.37 8.42v11.16c0 1.61-0.8 2.42-2.41 2.42h-5.84c-1.61 0-2.42-0.81-2.42-2.42v-11.16c0-1.61 0.80998-2.42 2.42-2.42h5.84c1.61 0 2.41 0.80998 2.41 2.42z" opacity=".4"/>
 <path d="m22 4.15v11.7c0 1.43-0.72 2.15-2.15 2.15h-2.48v-9.58c0-1.61-0.8-2.42-2.41-2.42h-1.56v-1.85c0-1.43 0.72-2.15 2.15-2.15h4.3c1.43 0 2.15 0.72002 2.15 2.15z"/>
 <path d="m14 11.75h-4c-0.41 0-0.75-0.34-0.75-0.75s0.34-0.75 0.75-0.75h4c0.41 0 0.75 0.34 0.75 0.75s-0.34 0.75-0.75 0.75z"/>
 <path d="m14 14.75h-4c-0.41 0-0.75-0.34-0.75-0.75s0.34-0.75 0.75-0.75h4c0.41 0 0.75 0.34 0.75 0.75s-0.34 0.75-0.75 0.75z"/>
 <path d="m12.75 19v3h-1.5v-3c0-0.41 0.34-0.75 0.75-0.75s0.75 0.34 0.75 0.75z"/>
</svg>
