<?xml version="1.0" encoding="UTF-8"?>
<svg width="24" height="24" viewBox="0 0 24 24" xmlns="http://www.w3.org/2000/svg">
 <path d="M10.11 4C10.03 4.3 10 4.63 10 5V8H5V6C5 4.9 5.9 4 7 4H10.11Z" opacity=".6"/>
 <path d="m10 19v-11h-5c-2 0-3 1-3 3v8c0 2 1 3 3 3h8c-2 0-3-1-3-3zm-3.25-2c0 0.41-0.34 0.75-0.75 0.75s-0.75-0.34-0.75-0.75v-4c0-0.41 0.34-0.75 0.75-0.75s0.75 0.34 0.75 0.75v4z"/>
 <path d="m14 22h-1c-2 0-3-1-3-3v-14c0-2 1-3 3-3h6c2 0 3 1 3 3v14c0 2-1 3-3 3h-1" opacity=".4"/>
 <path d="m18 18v4h-4v-4c0-0.55 0.45-1 1-1h2c0.55 0 1 0.45 1 1z"/>
 <path d="m14 13.75c-0.41 0-0.75-0.34-0.75-0.75v-5c0-0.41 0.34-0.75 0.75-0.75s0.75 0.34 0.75 0.75v5c0 0.41-0.34 0.75-0.75 0.75z"/>
 <path d="m18 13.75c-0.41 0-0.75-0.34-0.75-0.75v-5c0-0.41 0.34-0.75 0.75-0.75s0.75 0.34 0.75 0.75v5c0 0.41-0.34 0.75-0.75 0.75z"/>
</svg>
