<?xml version="1.0" encoding="UTF-8"?>
<svg width="24" height="24" viewBox="0 0 24 24" xmlns="http://www.w3.org/2000/svg">
 <path d="m12.5 7.4104v14.59h-8.42c-1.16 0-2.11-0.93-2.11-2.07v-14.84c0-2.62 1.96-3.81 4.35-2.64l4.43 2.19c0.96 0.47 1.75 1.72 1.75 2.77z" opacity=".4"/>
 <path d="m8.97 9.75h-3.47c-0.41 0-0.75-0.34-0.75-0.75s0.34-0.75 0.75-0.75h3.47c0.41 0 0.75 0.34 0.75 0.75s-0.33 0.75-0.75 0.75z"/>
 <path d="m8.97 13.75h-3.47c-0.41 0-0.75-0.34-0.75-0.75s0.34-0.75 0.75-0.75h3.47c0.41 0 0.75 0.34 0.75 0.75s-0.33 0.75-0.75 0.75z"/>
 <path d="m22 15.05v4.45c0 1.38-1.12 2.5-2.5 2.5h-7v-11.58l0.47 0.1 4.04 0.9 0.48 0.11 2.04 0.46c0.49 0.1 0.94 0.27 1.33 0.52 0 0.01 0.01 0.01 0.01 0.01 0.1 0.07 0.2 0.15 0.29 0.24 0.46 0.46 0.76 1.13 0.83 2.11 0 0.06 0.01 0.12 0.01 0.18z" opacity=".6"/>
 <path d="m12.5 10.42v6c0.46 0.61 1.18 1 2 1 1.39 0 2.51-1.12 2.51-2.5v-3.49l-4.04-0.9-0.47-0.11z"/>
 <path d="m21.99 14.87c-0.07-0.98-0.37-1.65-0.83-2.11-0.09-0.09-0.19-0.17-0.29-0.24 0 0-0.01 0-0.01-0.01-0.39-0.25-0.84-0.42-1.33-0.52l-2.04-0.46-0.48-0.11v3.5c0 1.37 1.11 2.5 2.5 2.5 1.34 0 2.41-1.05 2.49-2.36v-0.01c0-0.06-0.01-0.12-0.01-0.18z"/>
</svg>
