<svg width="24" height="24" viewBox="0 0 24 24"  xmlns="http://www.w3.org/2000/svg">
<path d="M22 22.7502H2C1.59 22.7502 1.25 22.4102 1.25 22.0002C1.25 21.5902 1.59 21.2502 2 21.2502H22C22.41 21.2502 22.75 21.5902 22.75 22.0002C22.75 22.4102 22.41 22.7502 22 22.7502Z" />
<path d="M3.01001 22.7603C2.81001 22.7603 2.61998 22.6803 2.47998 22.5403C2.33998 22.4003 2.26001 22.2103 2.26001 22.0103L2.25 7.07029C2.25 6.16029 2.70997 5.30026 3.46997 4.79026L7.46997 2.12027C8.39997 1.50027 9.60002 1.50027 10.52 2.12027L14.52 4.79026C15.29 5.30026 15.74 6.15029 15.74 7.07029L15.75 21.9903C15.75 22.4003 15.42 22.7403 15 22.7403L3.01001 22.7603ZM9 3.1503C8.76 3.1503 8.52 3.22026 8.31 3.36026L4.31 6.03031C3.96 6.26031 3.75 6.65029 3.75 7.07029L3.76001 21.2603L14.26 21.2403L14.25 7.07029C14.25 6.65029 14.04 6.26026 13.7 6.04026L9.70001 3.37027C9.49001 3.22027 9.24 3.1503 9 3.1503Z" />
<path d="M19.98 22.7603C19.57 22.7603 19.23 22.4203 19.23 22.0103V18.0002C19.23 17.5902 19.57 17.2502 19.98 17.2502C20.39 17.2502 20.73 17.5902 20.73 18.0002V22.0103C20.73 22.4203 20.4 22.7603 19.98 22.7603Z" />
<path d="M20 18.7502C18.48 18.7502 17.25 17.5202 17.25 16.0002V14.0002C17.25 12.4802 18.48 11.2502 20 11.2502C21.52 11.2502 22.75 12.4802 22.75 14.0002V16.0002C22.75 17.5202 21.52 18.7502 20 18.7502ZM20 12.7502C19.31 12.7502 18.75 13.3102 18.75 14.0002V16.0002C18.75 16.6902 19.31 17.2502 20 17.2502C20.69 17.2502 21.25 16.6902 21.25 16.0002V14.0002C21.25 13.3102 20.69 12.7502 20 12.7502Z" />
<path d="M15 14.7502H3C2.59 14.7502 2.25 14.4102 2.25 14.0002C2.25 13.5902 2.59 13.2502 3 13.2502H15C15.41 13.2502 15.75 13.5902 15.75 14.0002C15.75 14.4102 15.41 14.7502 15 14.7502Z" />
<path d="M9 22.7502C8.59 22.7502 8.25 22.4102 8.25 22.0002V18.2502C8.25 17.8402 8.59 17.5002 9 17.5002C9.41 17.5002 9.75 17.8402 9.75 18.2502V22.0002C9.75 22.4102 9.41 22.7502 9 22.7502Z" />
<path d="M9 11.2502C7.76 11.2502 6.75 10.2402 6.75 9.00024C6.75 7.76024 7.76 6.75024 9 6.75024C10.24 6.75024 11.25 7.76024 11.25 9.00024C11.25 10.2402 10.24 11.2502 9 11.2502ZM9 8.25024C8.59 8.25024 8.25 8.59024 8.25 9.00024C8.25 9.41024 8.59 9.75024 9 9.75024C9.41 9.75024 9.75 9.41024 9.75 9.00024C9.75 8.59024 9.41 8.25024 9 8.25024Z" />
</svg>
