<svg width="24" height="24" viewBox="0 0 24 24"  xmlns="http://www.w3.org/2000/svg">
<path opacity="0.4" d="M16.9 22H7.10001C5.40001 22 4 20.61 4 18.9V5.10001C4 3.40001 5.39001 2 7.10001 2H16.9C18.6 2 20 3.39001 20 5.10001V18.9C20 20.61 18.61 22 16.9 22Z" />
<path d="M20 8H4V13H20V8Z" />
<path d="M8 18.7503C7.92 18.7503 7.83999 18.7403 7.75999 18.7303C7.67999 18.7103 7.6 18.6903 7.52 18.6503C7.45 18.6203 7.37 18.5803 7.31 18.5403C7.24 18.4903 7.17 18.4403 7.12 18.3803C6.88 18.1503 6.75 17.8303 6.75 17.5003C6.75 17.1703 6.88 16.8503 7.12 16.6203C7.17 16.5603 7.24 16.5103 7.31 16.4603C7.37 16.4203 7.45 16.3803 7.52 16.3503C7.6 16.3103 7.67999 16.2903 7.75999 16.2703C8.15999 16.1903 8.59 16.3303 8.88 16.6203C9.12 16.8503 9.25 17.1703 9.25 17.5003C9.25 17.8303 9.12 18.1503 8.88 18.3803C8.65 18.6203 8.33 18.7503 8 18.7503Z" />
<path d="M16 18.7496C15.92 18.7496 15.84 18.7396 15.76 18.7296C15.68 18.7096 15.6 18.6896 15.52 18.6496C15.45 18.6196 15.37 18.5796 15.31 18.5396C15.24 18.4896 15.17 18.4396 15.12 18.3796C14.88 18.1496 14.75 17.8296 14.75 17.4996C14.75 17.1696 14.88 16.8496 15.12 16.6196C15.17 16.5596 15.24 16.5096 15.31 16.4596C15.37 16.4196 15.45 16.3796 15.52 16.3496C15.6 16.3096 15.68 16.2896 15.76 16.2696C15.92 16.2396 16.08 16.2396 16.25 16.2696C16.32 16.2896 16.4 16.3096 16.48 16.3496C16.55 16.3796 16.63 16.4196 16.69 16.4596C16.76 16.5096 16.83 16.5596 16.88 16.6196C17.12 16.8496 17.25 17.1696 17.25 17.4996C17.25 17.8296 17.12 18.1496 16.88 18.3796C16.83 18.4396 16.76 18.4896 16.69 18.5396C16.63 18.5796 16.55 18.6196 16.48 18.6496C16.4 18.6896 16.32 18.7096 16.25 18.7296C16.16 18.7396 16.08 18.7496 16 18.7496Z" />
<path d="M14.5 5.75H9.5C9.09 5.75 8.75 5.41 8.75 5C8.75 4.59 9.09 4.25 9.5 4.25H14.5C14.91 4.25 15.25 4.59 15.25 5C15.25 5.41 14.91 5.75 14.5 5.75Z" />
</svg>
