<?xml version="1.0" encoding="UTF-8"?>
<svg width="24" height="24" viewBox="0 0 24 24" xmlns="http://www.w3.org/2000/svg">
 <path d="m16.9 22h-9.8c-1.7 0-3.1-1.39-3.1-3.1v-13.8c0-1.7 1.39-3.1 3.1-3.1h9.8c1.7 0 3.1 1.39 3.1 3.1v13.8c0 1.71-1.39 3.1-3.1 3.1z" opacity=".4"/>
 <path d="M20 8H4V13H20V8Z"/>
 <path d="m8 18.75c-0.08 0-0.16001-0.01-0.24001-0.02-0.08-0.02-0.15999-0.04-0.23999-0.08-0.07-0.03-0.15-0.07-0.21-0.11-0.07-0.05-0.14-0.1-0.19-0.16-0.24-0.23-0.37-0.55-0.37-0.88s0.13-0.65 0.37-0.88c0.05-0.06 0.12-0.11 0.19-0.16 0.06-0.04 0.14-0.08 0.21-0.11 0.08-0.04 0.15999-0.06 0.23999-0.08 0.4-0.08 0.83001 0.06 1.12 0.35 0.24 0.23 0.37 0.55 0.37 0.88s-0.13 0.65-0.37 0.88c-0.23 0.24-0.55 0.37-0.88 0.37z"/>
 <path d="m16 18.75c-0.08 0-0.16-0.01-0.24-0.02-0.08-0.02-0.16-0.04-0.24-0.08-0.07-0.03-0.15-0.07-0.21-0.11-0.07-0.05-0.14-0.1-0.19-0.16-0.24-0.23-0.37-0.55-0.37-0.88s0.13-0.65 0.37-0.88c0.05-0.06 0.12-0.11 0.19-0.16 0.06-0.04 0.14-0.08 0.21-0.11 0.08-0.04 0.16-0.06 0.24-0.08 0.16-0.03 0.32-0.03 0.49 0 0.07 0.02 0.15 0.04 0.23 0.08 0.07 0.03 0.15 0.07 0.21 0.11 0.07 0.05 0.14 0.1 0.19 0.16 0.24 0.23 0.37 0.55 0.37 0.88s-0.13 0.65-0.37 0.88c-0.05 0.06-0.12 0.11-0.19 0.16-0.06 0.04-0.14 0.08-0.21 0.11-0.08 0.04-0.16 0.06-0.23 0.08-0.09 0.01-0.17 0.02-0.25 0.02z"/>
 <path d="m14.5 5.75h-5c-0.41 0-0.75-0.34-0.75-0.75s0.34-0.75 0.75-0.75h5c0.41 0 0.75 0.34 0.75 0.75s-0.34 0.75-0.75 0.75z"/>
</svg>
