<?xml version="1.0" encoding="UTF-8"?>
<svg width="24" height="24" viewBox="0 0 24 24" xmlns="http://www.w3.org/2000/svg">
 <path d="m22 8.5c0 3.59-2.91 6.5-6.5 6.5-0.17 0-0.35-0.01-0.52-0.02-0.25-3.17-2.79-5.71-5.96-5.96-0.01-0.17-0.01999-0.35-0.01999-0.52 0-3.59 2.91-6.5 6.5-6.5s6.5 2.91 6.5 6.5z"/>
 <path d="m15 15.5c0 3.59-2.91 6.5-6.5 6.5s-6.5-2.91-6.5-6.5 2.91-6.5 6.5-6.5c0.17 0 0.34999 0.01 0.51999 0.02 3.17 0.25 5.71 2.79 5.96 5.96 0.01 0.17 0.02 0.35 0.02 0.52z" opacity=".4"/>
 <path d="M7.62 14.62L8.5 13L9.38 14.62L11 15.5L9.38 16.38L8.5 18L7.62 16.38L6 15.5L7.62 14.62Z"/>
</svg>
