<svg width="24" height="24" viewBox="0 0 24 24"  xmlns="http://www.w3.org/2000/svg">
<path d="M15.4998 15.7498C15.3198 15.7498 15.1198 15.7398 14.9398 15.7298C14.5698 15.7098 14.2697 15.4098 14.2397 15.0398C14.0197 12.2498 11.7498 9.98974 8.96976 9.76974C8.59976 9.73974 8.29975 9.43976 8.27975 9.06976C8.26975 8.88976 8.25977 8.68977 8.25977 8.50977C8.25977 4.50977 11.5098 1.25977 15.5098 1.25977C19.5098 1.25977 22.7598 4.50977 22.7598 8.50977C22.7598 12.5098 19.4998 15.7498 15.4998 15.7498ZM9.74976 8.35974C12.7298 8.88974 15.1198 11.2698 15.6398 14.2498C18.7498 14.1698 21.2498 11.6298 21.2498 8.49976C21.2498 5.32976 18.6698 2.74976 15.4998 2.74976C12.3798 2.74976 9.82976 5.24974 9.74976 8.35974Z" />
<path d="M8.5 22.7498C4.5 22.7498 1.25 19.4998 1.25 15.4998C1.25 11.4998 4.5 8.24976 8.5 8.24976C8.68 8.24976 8.88 8.25974 9.06 8.26974C12.59 8.54974 15.45 11.4098 15.72 14.9198C15.73 15.1198 15.74 15.3198 15.74 15.4998C15.75 19.4998 12.5 22.7498 8.5 22.7498ZM8.5 9.74976C5.33 9.74976 2.75 12.3298 2.75 15.4998C2.75 18.6698 5.33 21.2498 8.5 21.2498C11.67 21.2498 14.25 18.6698 14.25 15.4998C14.25 15.3398 14.24 15.1797 14.23 15.0197C14.01 12.2497 11.74 9.97977 8.95999 9.75977C8.81999 9.75977 8.66 9.74976 8.5 9.74976Z" />
<path d="M8.5 18.7498C8.23 18.7498 7.97 18.5998 7.84 18.3598L7.06 16.9398L5.64001 16.1598C5.40001 16.0298 5.25 15.7798 5.25 15.4998C5.25 15.2198 5.40001 14.9698 5.64001 14.8398L7.06 14.0598L7.84 12.6398C8.1 12.1598 8.89 12.1598 9.16 12.6398L9.94 14.0598L11.36 14.8398C11.6 14.9698 11.75 15.2198 11.75 15.4998C11.75 15.7798 11.6 16.0298 11.36 16.1598L9.94 16.9398L9.16 18.3598C9.03 18.5998 8.77 18.7498 8.5 18.7498ZM7.56 15.4998L7.97 15.7298C8.1 15.7998 8.19999 15.8998 8.26999 16.0298L8.5 16.4398L8.73001 16.0298C8.80001 15.8998 8.9 15.7998 9.03 15.7298L9.44 15.4998L9.03 15.2698C8.9 15.1998 8.80001 15.0998 8.73001 14.9698L8.5 14.5598L8.26999 14.9698C8.19999 15.0998 8.1 15.1998 7.97 15.2698L7.56 15.4998Z" />
</svg>
