<?xml version="1.0" encoding="UTF-8"?>
<svg width="24" height="24" viewBox="0 0 24 24" xmlns="http://www.w3.org/2000/svg">
 <path d="m20.89 13v1h-0.87c-0.74 0-1.34 0.6-1.34 1.35v0.3c0 0.75-0.6 1.35-1.35 1.35-0.74 0-1.34-0.6-1.34-1.35v-0.3c0-0.75-0.61-1.35-1.35-1.35s-1.34 0.6-1.34 1.35v0.3c0 0.75-0.61 1.35-1.35 1.35s-1.35-0.6-1.35-1.35v-0.3c0-0.75-0.60004-1.35-1.34-1.35s-1.35 0.6-1.35 1.35v0.3c0 0.75-0.6 1.35-1.34 1.35-0.75 0-1.35-0.6-1.35-1.35v-0.32c0-0.74-0.59-1.34-1.32-1.35h-0.79v-0.98c0-1.38 1.04-2.55 2.45-2.89 0.28-0.07 0.57-0.11 0.88-0.11h11.12c0.31 0 0.6 0.04 0.88 0.11 1.41 0.34 2.45 1.51 2.45 2.89z"/>
 <path d="m18.44 7.17v2.94c-0.28-0.07-0.57-0.11-0.88-0.11h-11.12c-0.31 0-0.6 0.04-0.88 0.11v-2.94c0-1.2 1.08-2.17 2.42-2.17h8.04c1.34 0 2.42 0.97 2.42 2.17z" opacity=".4"/>
 <path d="m8.75 3.5504v1.46h-0.77c-0.26 0-0.5 0.03-0.73 0.09v-1.55c0-0.35 0.34-0.65 0.75-0.65s0.75 0.3 0.75 0.65z"/>
 <path d="m16.75 3.3301v1.77c-0.23-0.07-0.47-0.1-0.73-0.1h-0.77v-1.67c0-0.41 0.34-0.75 0.75-0.75s0.75 0.34 0.75 0.75z"/>
 <path d="m12.75 2.82v2.18h-1.5v-2.18c0-0.45 0.34-0.82 0.75-0.82s0.75 0.37 0.75 0.82z"/>
 <path d="m21.25 20.5h-0.36v-6.5h-0.87c-0.74 0-1.34 0.6-1.34 1.35v0.3c0 0.75-0.6 1.35-1.35 1.35-0.74 0-1.34-0.6-1.34-1.35v-0.3c0-0.75-0.61-1.35-1.35-1.35s-1.34 0.6-1.34 1.35v0.3c0 0.75-0.61 1.35-1.35 1.35s-1.35-0.6-1.35-1.35v-0.3c0-0.75-0.6-1.35-1.34-1.35s-1.35 0.6-1.35 1.35v0.3c0 0.75-0.6 1.35-1.34 1.35-0.75 0-1.35-0.6-1.35-1.35v-0.32c0-0.74-0.59-1.34-1.32-1.35h-0.79v6.52h-0.36c-0.41 0-0.75 0.34-0.75 0.75s0.34 0.75 0.75 0.75h18.5c0.41 0 0.75-0.34 0.75-0.75s-0.34-0.75-0.75-0.75z" opacity=".4"/>
</svg>
