<?xml version="1.0" encoding="UTF-8"?>
<svg width="24" height="24" viewBox="0 0 24 24" xmlns="http://www.w3.org/2000/svg">
 <path d="m8 1.25c0.41421 0 0.75 0.33579 0.75 0.75v3c0 0.41421-0.33579 0.75-0.75 0.75s-0.75-0.33579-0.75-0.75v-3c0-0.41421 0.33579-0.75 0.75-0.75z" clip-rule="evenodd" fill-rule="evenodd"/>
 <path d="m16 1.25c0.4142 0 0.75 0.33579 0.75 0.75v3c0 0.41421-0.3358 0.75-0.75 0.75s-0.75-0.33579-0.75-0.75v-3c0-0.41421 0.3358-0.75 0.75-0.75z" clip-rule="evenodd" fill-rule="evenodd"/>
 <path d="m21.5 8.37v8.76c0 0.16-0.01 0.32-0.02 0.47h-18.96c-0.01-0.15-0.02-0.31-0.02-0.47v-8.76c0-2.69 2.18-4.87 4.87-4.87h9.26c2.69 0 4.87 2.18 4.87 4.87z" opacity=".4"/>
 <path d="m21.48 17.6c-0.24 2.47-2.32 4.4-4.85 4.4h-9.26c-2.53 0-4.61-1.93-4.85-4.4h18.96z"/>
 <path d="m13.53 11.62c0.45-0.31 0.73-0.77 0.73-1.39 0-1.3-1.04-1.97-2.26-1.97s-2.27 0.66999-2.27 1.97c0 0.62 0.29 1.09 0.73 1.39-0.61 0.36-0.96 0.94-0.96 1.62 0 1.24 0.95 2.01 2.5 2.01 1.54 0 2.5-0.77 2.5-2.01 0-0.68-0.35-1.27-0.97-1.62zm-1.53-2.12c0.52 0 0.9 0.29 0.9 0.79003 0 0.49-0.38 0.8-0.9 0.8s-0.9-0.31-0.9-0.8c0-0.50003 0.38-0.79003 0.9-0.79003zm0 4.5c-0.66 0-1.14-0.33-1.14-0.93s0.48-0.92 1.14-0.92 1.14 0.33 1.14 0.92c0 0.6-0.48 0.93-1.14 0.93z"/>
</svg>
