<?xml version="1.0" encoding="UTF-8"?>
<svg width="24" height="24" viewBox="0 0 24 24" xmlns="http://www.w3.org/2000/svg">
 <path d="m16.75 3.56v-1.56c0-0.41-0.34-0.75-0.75-0.75s-0.75 0.34-0.75 0.75v1.5h-6.5v-1.5c0-0.41-0.34-0.75-0.75-0.75s-0.75 0.34-0.75 0.75v1.56c-2.7 0.25-4.01 1.86-4.21 4.25-0.02 0.29 0.22 0.53 0.5 0.53h16.92c0.29 0 0.53-0.25 0.5-0.53-0.2-2.39-1.51-4-4.21-4.25z"/>
 <path d="m20 9.8398c0.55 0 1 0.44996 1 0.99996v6.16c0 3-1.5 5-5 5h-8c-3.5 0-5-2-5-5v-6.16c0-0.55 0.45-0.99996 1-0.99996h16z" opacity=".4"/>
 <path d="m8.5 15c-0.13 0-0.26-0.03-0.38-0.08s-0.22999-0.12-0.32999-0.21c-0.09-0.1-0.16002-0.21-0.21002-0.33s-0.07999-0.25-0.07999-0.38 0.02999-0.26 0.07999-0.38 0.12002-0.23 0.21002-0.33c0.1-0.09 0.20999-0.16 0.32999-0.21 0.24-0.1 0.52-0.1 0.76 0 0.12 0.05 0.22999 0.12 0.32999 0.21 0.09 0.1 0.16002 0.21 0.21002 0.33s0.07999 0.25 0.07999 0.38-0.02999 0.26-0.07999 0.38-0.12002 0.23-0.21002 0.33c-0.1 0.09-0.20999 0.16-0.32999 0.21s-0.25 0.08-0.38 0.08z"/>
 <path d="m12 15c-0.13 0-0.26-0.03-0.38-0.08s-0.23-0.12-0.33-0.21c-0.18-0.19-0.29-0.45-0.29-0.71s0.11-0.52 0.29-0.71c0.1-0.09 0.21-0.16 0.33-0.21 0.24-0.11 0.52-0.11 0.76 0 0.12 0.05 0.23 0.12 0.33 0.21 0.18 0.19 0.29 0.45 0.29 0.71s-0.11 0.52-0.29 0.71c-0.1 0.09-0.21 0.16-0.33 0.21s-0.25 0.08-0.38 0.08z"/>
 <path d="m8.5 18.5c-0.13 0-0.26-0.03-0.38-0.08s-0.22999-0.12-0.32999-0.21c-0.18-0.19-0.29001-0.45-0.29001-0.71s0.11001-0.52 0.29001-0.71c0.1-0.09 0.20999-0.16 0.32999-0.21 0.24-0.1 0.52-0.1 0.76 0 0.12 0.05 0.22999 0.12 0.32999 0.21 0.18 0.19 0.29001 0.45 0.29001 0.71s-0.11001 0.52-0.29001 0.71c-0.1 0.09-0.20999 0.16-0.32999 0.21s-0.25 0.08-0.38 0.08z"/>
</svg>
