<?xml version="1.0" encoding="UTF-8"?>
<svg width="24" height="24" viewBox="0 0 24 24" xmlns="http://www.w3.org/2000/svg">
 <path d="m12 22c5.5228 0 10-4.4772 10-10 0-5.5228-4.4772-10-10-10-5.5228 0-10 4.4772-10 10 0 5.5228 4.4772 10 10 10z" opacity=".4"/>
 <path d="m17.15 9.4398c-0.42-0.97-1.21-1.72-2.3-2.06v-0.79001c0-0.41-0.34-0.75-0.75-0.75s-0.75 0.34-0.75 0.75v0.59h-2.71v-0.59c0-0.41-0.34-0.75-0.74998-0.75-0.41 0-0.75 0.34-0.75 0.75v0.79001c-1.09 0.34-1.88 1.09-2.3 2.06-0.14 0.33 0.09999 0.70995 0.45999 0.70995h9.37c0.38-0.01 0.62-0.37995 0.48-0.70995z"/>
 <path d="m17 11.14c0.28 0 0.5 0.22 0.5 0.5v2.53c0 2.2-1.5 4-4 4h-3c-2.5 0-4-1.8-4-4v-2.53c0-0.28 0.22-0.5 0.5-0.5h10z"/>
</svg>
