<?xml version="1.0" encoding="UTF-8"?>
<svg width="24" height="24" viewBox="0 0 24 24" xmlns="http://www.w3.org/2000/svg">
 <path d="m21.77 2.2299c-0.3-0.3-0.79-0.3-1.09 0l-18.45 18.46c-0.3 0.3-0.3 0.79 0 1.09 0.15 0.14 0.34 0.22 0.54 0.22s0.39-0.08 0.54-0.23l18.46-18.46c0.31-0.3 0.31-0.78 0-1.08z"/>
 <path d="m21.75 9.99-0.52 8.26c-0.13 2.06-1.23 3.75-3.99 3.75h-10.48c-0.59 0-1.1-0.08-1.54-0.22l15.03-15.03c0.98 0.73 1.59 1.92 1.5 3.24z" opacity=".4"/>
 <path d="m18 6-14.52 14.52c-0.45-0.63-0.66-1.42-0.71-2.27l-0.52-8.26c-0.14-2.16 1.58-3.99 3.75-3.99 0.61 0 1.17-0.35 1.45-0.89l0.72-1.45c0.46-0.91 1.66-1.66 2.69-1.66h2.29c1.02 0 2.22 0.75 2.68 1.66l0.72 1.45c0.28 0.54 0.84 0.89 1.45 0.89z" opacity=".4"/>
 <path d="m9.5 10.75h-3c-0.41 0-0.75-0.34-0.75-0.75s0.34-0.75 0.75-0.75h3c0.41 0 0.75 0.34 0.75 0.75s-0.34 0.75-0.75 0.75z"/>
 <path d="m12.57 11.43-3.89 3.89c-0.03-0.18-0.05-0.38-0.05-0.57 0-1.86 1.51-3.37 3.37-3.37 0.19 0 0.39 0.02 0.57 0.05z"/>
 <path d="m15.38 14.75c0 1.86-1.52 3.37-3.38 3.37-0.87 0-1.66-0.33-2.25-0.87l4.75-4.75c0.55 0.59 0.88 1.38 0.88 2.25z"/>
</svg>
