<svg width="24" height="24" viewBox="0 0 24 24"  xmlns="http://www.w3.org/2000/svg">
<path d="M8.99994 10.75H5.99994C5.58994 10.75 5.24994 10.41 5.24994 10C5.24994 9.59 5.58994 9.25 5.99994 9.25H8.99994C9.40994 9.25 9.74994 9.59 9.74994 10C9.74994 10.41 9.40994 10.75 8.99994 10.75Z" />
<path d="M17.2399 22.75H6.75994C6.34994 22.75 6.00994 22.41 6.00994 22C6.00994 21.59 6.34994 21.25 6.75994 21.25H17.2399C19.2599 21.25 20.3499 20.22 20.4799 18.2L20.9999 9.94C21.0499 9.23 20.8399 8.53 20.4099 7.96C20.1599 7.63 20.2299 7.16 20.5599 6.91C20.8899 6.66 21.3599 6.73 21.6099 7.06C22.2499 7.92 22.5699 8.97 22.4999 10.04L21.9799 18.3C21.7999 21.13 20.0699 22.75 17.2399 22.75Z" />
<path d="M3.43994 21.21C3.19994 21.21 2.95994 21.09 2.80994 20.87C2.34994 20.17 2.07994 19.3 2.01994 18.29L1.49994 10.04C1.41994 8.79 1.84994 7.59 2.70994 6.68C3.55994 5.77 4.75994 5.25 5.99994 5.25C6.31994 5.25 6.62994 5.06 6.77994 4.76L7.49994 3.33C8.08994 2.16 9.56994 1.25 10.8599 1.25H13.1499C14.4399 1.25 15.9099 2.16 16.4999 3.32L17.2199 4.78C17.3699 5.06 17.6699 5.25 17.9999 5.25C18.4099 5.25 18.7499 5.59 18.7499 6C18.7499 6.41 18.4099 6.75 17.9999 6.75C17.1099 6.75 16.2999 6.25 15.8799 5.46L15.1499 4C14.8199 3.34 13.8799 2.76 13.1399 2.76H10.8499C10.1099 2.76 9.16994 3.34 8.82994 4.01L8.11994 5.44C7.69994 6.25 6.88994 6.75 5.99994 6.75C5.15994 6.75 4.37994 7.09 3.79994 7.7C3.22994 8.31 2.93994 9.11 2.99994 9.94L3.51994 18.2C3.55994 18.93 3.74994 19.57 4.06994 20.04C4.29994 20.39 4.19994 20.85 3.85994 21.08C3.72994 21.17 3.57994 21.21 3.43994 21.21Z" />
<path d="M11.9999 18.75C11.1099 18.75 10.2399 18.45 9.53994 17.9C9.20994 17.64 9.15994 17.17 9.40994 16.85C9.66994 16.52 10.1399 16.47 10.4599 16.72C10.8999 17.06 11.4399 17.25 11.9999 17.25C13.3799 17.25 14.4999 16.13 14.4999 14.75C14.4999 14.27 14.3699 13.81 14.1199 13.42C13.8999 13.07 13.9999 12.61 14.3499 12.38C14.6999 12.16 15.1599 12.26 15.3899 12.61C15.7899 13.24 16.0099 13.98 16.0099 14.74C15.9999 16.96 14.2099 18.75 11.9999 18.75Z" />
<path d="M1.99994 22.75C1.80994 22.75 1.61994 22.68 1.46994 22.53C1.17994 22.24 1.17994 21.76 1.46994 21.47L21.4699 1.47C21.7599 1.18 22.2399 1.18 22.5299 1.47C22.8199 1.76 22.8199 2.24 22.5299 2.53L2.52994 22.53C2.37994 22.68 2.18994 22.75 1.99994 22.75Z" />
</svg>
