<?xml version="1.0" encoding="UTF-8"?>
<svg width="24" height="24" viewBox="0 0 24 24" xmlns="http://www.w3.org/2000/svg">
 <path d="m7.5 4.5h-0.25v-2.5c0-0.41-0.34-0.75-0.75-0.75s-0.75 0.34-0.75 0.75v2.5h-0.25c-1.59 0-2.5 0.91-2.5 2.5v6c0 1.59 0.91 2.5 2.5 2.5h0.25v6.5c0 0.41 0.34 0.75 0.75 0.75s0.75-0.34 0.75-0.75v-6.5h0.25c1.59 0 2.5-0.91 2.5-2.5v-6c0-1.59-0.91-2.5-2.5-2.5z" opacity=".4"/>
 <path d="m18.5 8.5h-0.25v-6.5c0-0.41-0.34-0.75-0.75-0.75s-0.75 0.34-0.75 0.75v6.5h-0.25c-1.59 0-2.5 0.91-2.5 2.5v6c0 1.59 0.91 2.5 2.5 2.5h0.25v2.5c0 0.41 0.34 0.75 0.75 0.75s0.75-0.34 0.75-0.75v-2.5h0.25c1.59 0 2.5-0.91 2.5-2.5v-6c0-1.59-0.91-2.5-2.5-2.5z"/>
</svg>
