<?xml version="1.0" encoding="UTF-8"?>
<svg width="24" height="24" viewBox="0 0 24 24" xmlns="http://www.w3.org/2000/svg">
 <path d="m22.75 17.5c0 0.41-0.34 0.75-0.75 0.75h-7v0.25c0 1.5-0.9 2-2 2h-6c-1.1 0-2-0.5-2-2v-0.25h-3c-0.41 0-0.75-0.34-0.75-0.75s0.34-0.75 0.75-0.75h3v-0.25c0-1.5 0.9-2 2-2h6c1.1 0 2 0.5 2 2v0.25h7c0.41 0 0.75 0.34 0.75 0.75z"/>
 <path d="m22.75 6.5c0 0.41-0.34 0.75-0.75 0.75h-3v0.25c0 1.5-0.9 2-2 2h-6c-1.1 0-2-0.5-2-2v-0.25h-7c-0.41 0-0.75-0.34-0.75-0.75s0.34-0.75 0.75-0.75h7v-0.25c0-1.5 0.9-2 2-2h6c1.1 0 2 0.5 2 2v0.25h3c0.41 0 0.75 0.34 0.75 0.75z" opacity=".4"/>
</svg>
