<?xml version="1.0" encoding="UTF-8"?>
<svg width="24" height="24" viewBox="0 0 24 24" xmlns="http://www.w3.org/2000/svg">
 <path d="m19 10.28v7.15c-0.03 2.85-0.81 3.57-3.78 3.57h-9.44c-3.02 0-3.78-0.75-3.78-3.73v-6.99c0-2.7 0.63-3.57 3-3.71 0.24-0.01 0.50003-0.02 0.78003-0.02h9.44c3.02 0 3.78 0.75 3.78 3.73z" opacity=".4"/>
 <path d="m22 6.73v6.99c0 2.7-0.63 3.57-3 3.71v-7.15c0-2.98-0.76-3.73-3.78-3.73h-9.44c-0.28 0-0.54003 0.01-0.78003 0.02 0.03-2.85 0.81003-3.57 3.78-3.57h9.44c3.02 0 3.78 0.75 3.78 3.73z"/>
 <path d="m6.9603 18.56h-1.72c-0.41 0-0.75-0.34-0.75-0.75s0.34-0.75 0.75-0.75h1.72c0.41 0 0.75 0.34 0.75 0.75s-0.33 0.75-0.75 0.75z"/>
 <path d="m12.55 18.56h-3.44c-0.41 0-0.75-0.34-0.75-0.75s0.34-0.75 0.75-0.75h3.44c0.41 0 0.75 0.34 0.75 0.75s-0.33 0.75-0.75 0.75z"/>
 <path d="m19 11.86h-17v1.5h17v-1.5z"/>
</svg>
