<?xml version="1.0" encoding="UTF-8"?>
<svg width="24" height="24" viewBox="0 0 24 24" xmlns="http://www.w3.org/2000/svg">
 <path d="m12 15.7v0.61h-10v-0.61c0-1.76 0.43997-2.2 2.22-2.2h5.5601c1.78 0 2.22 0.44 2.22 2.2z" opacity=".4"/>
 <path d="m2 16.31v3.49c0 1.76 0.43997 2.2 2.22 2.2h5.5601c1.78 0 2.22-0.44 2.22-2.2v-3.49h-10z"/>
 <g clip-rule="evenodd" fill-rule="evenodd" opacity=".4">
  <path d="m22 14.25c0.4142 0 0.75 0.3358 0.75 0.75 0 4.2842-3.4658 7.75-7.75 7.75-0.2702 0-0.5195-0.1453-0.6526-0.3805-0.1332-0.2351-0.1295-0.5237 0.0095-0.7554l1.05-1.75c0.2131-0.3552 0.6738-0.4703 1.029-0.2572 0.3551 0.2131 0.4703 0.6738 0.2572 1.029l-0.2713 0.4522c2.7691-0.6425 4.8282-3.1215 4.8282-6.0881 0-0.4142 0.3358-0.75 0.75-0.75z"/>
  <path d="m7.5782 2.9119c-2.7691 0.64242-4.8282 3.1215-4.8282 6.0881 0 0.41421-0.33579 0.75-0.75 0.75s-0.75-0.33579-0.75-0.75c0-4.2842 3.4658-7.75 7.75-7.75 0.2702 0 0.51952 0.14534 0.65265 0.38047s0.12949 0.5237-0.00953 0.7554l-1.05 1.75c-0.21311 0.35518-0.6738 0.47036-1.029 0.25725-0.35518-0.21311-0.47036-0.6738-0.25725-1.029l0.27132-0.45219z"/>
 </g>
 <path d="m23 6.5h-9c0 2.48 2.02 4.5 4.5 4.5 2.49 0 4.5-2.02 4.5-4.5z" opacity=".4"/>
 <path d="M23 6.5C23 4.01 20.99 2 18.5 2C16.02 2 14 4.01 14 6.5H23Z"/>
</svg>
