<svg width="24" height="24" viewBox="0 0 24 24"  xmlns="http://www.w3.org/2000/svg">
<path d="M21.8999 10.7801H1.8999C1.4899 10.7801 1.1499 10.4401 1.1499 10.0301C1.1499 9.62009 1.4899 9.28009 1.8999 9.28009H21.8999C22.3099 9.28009 22.6499 9.62009 22.6499 10.0301C22.6499 10.4401 22.3199 10.7801 21.8999 10.7801Z" />
<path d="M11.4599 21.28H6.34985C2.36985 21.28 1.1499 20.08 1.1499 16.14V7.92004C1.1499 4.77004 1.81989 3.02004 5.38989 2.81004C5.69989 2.80004 6.00985 2.79004 6.34985 2.79004H17.4599C21.4399 2.79004 22.6599 3.99004 22.6599 7.93004V12.34C22.6599 12.75 22.3199 13.09 21.9099 13.09C21.4999 13.09 21.1599 12.75 21.1599 12.34V7.93004C21.1599 4.84004 20.6099 4.29004 17.4599 4.29004H6.34985C6.02985 4.29004 5.7399 4.30004 5.4599 4.31004C3.2899 4.44004 2.6499 4.93004 2.6499 7.93004V16.15C2.6499 19.24 3.19985 19.79 6.34985 19.79H11.4599C11.8699 19.79 12.2099 20.13 12.2099 20.54C12.2099 20.95 11.8699 21.28 11.4599 21.28Z" />
<path d="M17.8999 22.7801C15.2799 22.7801 13.1499 20.6501 13.1499 18.0301C13.1499 15.4101 15.2799 13.2801 17.8999 13.2801C20.5199 13.2801 22.6499 15.4101 22.6499 18.0301C22.6499 20.6501 20.5199 22.7801 17.8999 22.7801ZM17.8999 14.7801C16.1099 14.7801 14.6499 16.2401 14.6499 18.0301C14.6499 19.8201 16.1099 21.2801 17.8999 21.2801C19.6899 21.2801 21.1499 19.8201 21.1499 18.0301C21.1499 16.2401 19.6899 14.7801 17.8999 14.7801Z" />
<path d="M18.9698 19.9C18.7798 19.9 18.5898 19.83 18.4398 19.68L16.3298 17.5701C16.0398 17.2801 16.0398 16.8 16.3298 16.51C16.6198 16.22 17.0998 16.22 17.3898 16.51L19.4998 18.62C19.7898 18.91 19.7898 19.39 19.4998 19.68C19.3598 19.82 19.1598 19.9 18.9698 19.9Z" />
<path d="M16.83 19.9201C16.64 19.9201 16.45 19.8501 16.3 19.7001C16.01 19.4101 16.01 18.9301 16.3 18.6401L18.41 16.5301C18.7 16.2401 19.18 16.2401 19.47 16.5301C19.76 16.8201 19.76 17.3001 19.47 17.5901L17.36 19.7001C17.22 19.8501 17.03 19.9201 16.83 19.9201Z" />
<path d="M9.8999 16.7801H5.8999C5.4899 16.7801 5.1499 16.4401 5.1499 16.0301C5.1499 15.6201 5.4899 15.2801 5.8999 15.2801H9.8999C10.3099 15.2801 10.6499 15.6201 10.6499 16.0301C10.6499 16.4401 10.3199 16.7801 9.8999 16.7801Z" />
</svg>
