<?xml version="1.0" encoding="UTF-8"?>
<svg width="24" height="24" viewBox="0 0 24 24" xmlns="http://www.w3.org/2000/svg">
 <path d="m21.25 22h-18.5c-0.41 0-0.75-0.34-0.75-0.75s0.34-0.75 0.75-0.75h18.5c0.41 0 0.75 0.34 0.75 0.75s-0.34 0.75-0.75 0.75z"/>
 <path d="m20.59 13.7-7.23 7.23c-1.42 1.42-3.71 1.42-5.12 0.01l-4.61-4.61 12.36-12.36 4.61 4.61c1.41 1.41 1.41 3.7-0.01 5.12z" opacity=".4"/>
 <path d="m15.99 3.97-12.37 12.36-0.91-0.91c-1.41-1.41-1.41-3.7 0.01-5.12l7.23-7.23c1.42-1.42 3.71-1.42 5.12-0.01l0.92 0.91z"/>
 <path d="m12.89 17.6-1.35 1.35c-0.28 0.28-0.73 0.28-1.01 0s-0.28-0.73 0-1.01l1.35-1.35c0.28-0.28 0.73-0.28 1.01 0s0.28 0.73 0 1.01z"/>
 <path d="m17.27 13.22-2.69 2.69c-0.28 0.28-0.73 0.28-1.01 0s-0.28-0.73 0-1.01l2.69-2.69c0.28-0.28 0.73-0.28 1.01 0 0.27 0.28 0.27 0.73 0 1.01z"/>
</svg>
