<svg width="24" height="24" viewBox="0 0 24 24"  xmlns="http://www.w3.org/2000/svg">
<path d="M3.93 16.6299C3.74 16.6299 3.55 16.5599 3.4 16.4099C3.11 16.1199 3.11 15.6399 3.4 15.3499L15.35 3.39991C15.64 3.10991 16.12 3.10991 16.41 3.39991C16.7 3.68991 16.7 4.16991 16.41 4.45991L4.46 16.4199C4.32 16.5599 4.12 16.6299 3.93 16.6299Z" />
<path d="M11.1 19.0299C10.91 19.0299 10.72 18.9599 10.57 18.8099C10.28 18.5199 10.28 18.0399 10.57 17.7499L11.77 16.5499C12.06 16.2599 12.54 16.2599 12.83 16.5499C13.12 16.8399 13.12 17.3199 12.83 17.6099L11.63 18.8099C11.49 18.9499 11.3 19.0299 11.1 19.0299Z" />
<path d="M13.79 16.3399C13.6 16.3399 13.41 16.2699 13.26 16.1199C12.97 15.8299 12.97 15.3499 13.26 15.0599L15.65 12.6699C15.94 12.3799 16.42 12.3799 16.71 12.6699C17 12.9599 17 13.4399 16.71 13.7299L14.32 16.1199C14.18 16.2599 13.98 16.3399 13.79 16.3399Z" />
<path d="M11.1 22.7499C10.12 22.7499 9.14 22.1499 7.95 20.9599L3.04 16.0499C0.65 13.6599 0.66 12.1199 3.07 9.70991L9.71 3.06991C12.12 0.659914 13.66 0.649914 16.05 3.03991L20.96 7.94991C23.35 10.3399 23.34 11.8799 20.93 14.2899L14.29 20.9299C13.08 22.1399 12.09 22.7499 11.1 22.7499ZM12.9 2.74991C12.38 2.74991 11.72 3.17991 10.77 4.12991L4.13 10.7699C3.18 11.7199 2.75 12.3799 2.75 12.8899C2.75 13.4099 3.15 14.0399 4.1 14.9899L9.01 19.8999C9.96 20.8499 10.58 21.2499 11.1 21.2499C11.1 21.2499 11.1 21.2499 11.11 21.2499C11.63 21.2499 12.28 20.8199 13.23 19.8699L19.87 13.2299C20.82 12.2799 21.25 11.6199 21.25 11.1099C21.25 10.5899 20.85 9.95991 19.9 9.00991L14.99 4.09991C14.05 3.14991 13.42 2.74991 12.9 2.74991Z" />
<path d="M22 22.7499H2C1.59 22.7499 1.25 22.4099 1.25 21.9999C1.25 21.5899 1.59 21.2499 2 21.2499H22C22.41 21.2499 22.75 21.5899 22.75 21.9999C22.75 22.4099 22.41 22.7499 22 22.7499Z" />
</svg>
