<?xml version="1.0" encoding="UTF-8"?>
<svg width="24" height="24" viewBox="0 0 24 24" xmlns="http://www.w3.org/2000/svg">
 <path d="m22 7.77v1.23h-20v-1.46c0-2.29 1.86-4.14 4.15-4.14h9.85v2.57c0 1.27 0.76 2.03 2.03 2.03h2.94c0.4 0 0.74-0.07 1.03-0.23z" opacity=".4"/>
 <path d="m2 9v7.46c0 2.29 1.86 4.14 4.15 4.14h11.7c2.29 0 4.15-1.85 4.15-4.14v-7.46h-20zm6 8.25h-2c-0.41 0-0.75-0.34-0.75-0.75s0.34-0.75 0.75-0.75h2c0.41 0 0.75 0.34 0.75 0.75s-0.34 0.75-0.75 0.75zm6.5 0h-4c-0.41 0-0.75-0.34-0.75-0.75s0.34-0.75 0.75-0.75h4c0.41 0 0.75 0.34 0.75 0.75s-0.34 0.75-0.75 0.75z"/>
 <path d="m20.97 1h-2.94c-1.27 0-2.03 0.76-2.03 2.03v2.94c0 1.27 0.76 2.03 2.03 2.03h2.94c1.27 0 2.03-0.76 2.03-2.03v-2.94c0-1.27-0.76-2.03-2.03-2.03zm0.37 4.49c0.11 0.13 0.17 0.27 0.17 0.44 0 0.14-0.06 0.3-0.17 0.41-0.23 0.23-0.62 0.23-0.85 0l-0.99-0.99-0.98 1c-0.23 0.23-0.62 0.23-0.86-0.01-0.23-0.23-0.23-0.62 0-0.85l1-0.98-0.99-0.99c-0.23-0.23-0.24-0.62-0.01-0.86s0.62-0.23 0.86 0.01l0.98 0.99 1-1c0.23-0.23 0.62-0.23 0.85 0 0.11 0.13 0.16 0.28 0.17 0.44 0 0.14-0.06 0.3-0.16 0.42l-1 1 0.98 0.97z"/>
</svg>
