<?xml version="1.0" encoding="UTF-8"?>
<svg width="24" height="24" viewBox="0 0 24 24" xmlns="http://www.w3.org/2000/svg">
 <path d="m22 9v7.46c0 2.29-1.86 4.14-4.15 4.14h-11.45l11.6-11.6h4z" opacity=".4"/>
 <path d="M15 9L4 20C2.8 19.28 2 17.96 2 16.46V9H15Z" opacity=".4"/>
 <path d="m22 7.54v1.46h-4l3.47-3.47c0.34 0.59 0.53 1.28 0.53 2.01z"/>
 <path d="m20 4-5 5h-13v-1.46c0-2.29 1.86-4.14 4.15-4.14h11.7c0.79 0 1.52 0.22 2.15 0.6z"/>
 <path d="m8.21 15.79-1.46 1.46h-0.75c-0.41 0-0.75-0.34-0.75-0.75s0.34-0.75 0.75-0.75h2c0.07 0 0.14 0.01 0.21 0.04z"/>
 <path d="m15.25 16.5c0 0.41-0.34 0.75-0.75 0.75h-4c-0.2 0-0.39-0.09-0.52999-0.22l1.28-1.28h3.25c0.41 0 0.75 0.34 0.75 0.75z"/>
 <path d="m21.77 2.23c-0.3-0.3-0.79-0.3-1.09 0l-18.45 18.46c-0.3 0.3-0.3 0.79 0 1.09 0.15 0.14 0.34 0.22 0.54 0.22s0.39-0.08 0.54-0.23l18.46-18.46c0.31-0.3 0.31-0.78 0-1.08z"/>
</svg>
