<?xml version="1.0" encoding="UTF-8"?>
<svg width="24" height="24" viewBox="0 0 24 24" xmlns="http://www.w3.org/2000/svg">
 <path d="m18.9 15.03c-2.21 0-4 1.79-4 4s1.79 4 4 4 4-1.79 4-4-1.79-4-4-4zm1.6 5.65c-0.15 0.15-0.3401 0.22-0.5301 0.22s-0.3799-0.07-0.5299-0.22l-0.53-0.53-0.55 0.55c-0.15 0.15-0.34 0.22-0.53 0.22s-0.38-0.07-0.53-0.22c-0.29-0.29-0.29-0.77 0-1.06l0.55-0.55-0.53-0.53c-0.29-0.29-0.29-0.77 0-1.06s0.77-0.29 1.06 0l0.53 0.53 0.5-0.5c0.29-0.29 0.7699-0.29 1.0599 0s0.29 0.77 0 1.06l-0.5 0.5 0.5301 0.53c0.29 0.29 0.29 0.77 0 1.06z"/>
 <path d="m22 7.54v1.46h-20v-1.46c0-2.29 1.86-4.14 4.15-4.14h11.7c2.29 0 4.15 1.85 4.15 4.14z"/>
 <path d="m2 9v7.46c0 2.29 1.85 4.14 4.14 4.14h6.26c0.58 0 1.08-0.49 1.03-1.07-0.14-1.53 0.35-3.19 1.71-4.51 0.56-0.55 1.25-0.97 2-1.21 1.25-0.4 2.46-0.35 3.53 0.01 0.65 0.22 1.33-0.25 1.33-0.94v-3.88h-20zm6 8.25h-2c-0.41 0-0.75-0.34-0.75-0.75s0.34-0.75 0.75-0.75h2c0.41 0 0.75 0.34 0.75 0.75s-0.34 0.75-0.75 0.75z" opacity=".4"/>
 <path d="m8.75 16.5c0 0.41-0.34 0.75-0.75 0.75h-2c-0.41 0-0.75-0.34-0.75-0.75s0.34-0.75 0.75-0.75h2c0.41 0 0.75 0.34 0.75 0.75z"/>
</svg>
