<?xml version="1.0" encoding="UTF-8"?>
<svg width="24" height="24" viewBox="0 0 24 24" xmlns="http://www.w3.org/2000/svg">
 <path d="m19 15c-2.21 0-4 1.79-4 4 0 0.75 0.21 1.46 0.58 2.06 0.69 1.16 1.96 1.94 3.42 1.94s2.73-0.78 3.42-1.94c0.37-0.6 0.58-1.31 0.58-2.06 0-2.21-1.79-4-4-4zm2.07 3.57-2.13 1.97c-0.14 0.13-0.33 0.2-0.51 0.2-0.19 0-0.38-0.07-0.53-0.22l-0.99-0.99c-0.29-0.29-0.29-0.77 0-1.06s0.77-0.29 1.06 0l0.48 0.48 1.6-1.48c0.3-0.28 0.78-0.26 1.06 0.04s0.26 0.77-0.04 1.06z"/>
 <path d="m22 7.54v1.46h-20v-1.46c0-2.29 1.86-4.14 4.15-4.14h11.7c2.29 0 4.15 1.85 4.15 4.14z"/>
 <path d="m2 9v7.46c0 2.29 1.85 4.14 4.14 4.14h6.26c0.58 0 1.08-0.49 1.03-1.07-0.14-1.53 0.35-3.19 1.71-4.51 0.56-0.55 1.25-0.97 2-1.21 1.25-0.4 2.46-0.35 3.53 0.01 0.65 0.22 1.33-0.25 1.33-0.94v-3.88h-20zm6 8.25h-2c-0.41 0-0.75-0.34-0.75-0.75s0.34-0.75 0.75-0.75h2c0.41 0 0.75 0.34 0.75 0.75s-0.34 0.75-0.75 0.75z" opacity=".4"/>
 <path d="m8.75 16.5c0 0.41-0.34 0.75-0.75 0.75h-2c-0.41 0-0.75-0.34-0.75-0.75s0.34-0.75 0.75-0.75h2c0.41 0 0.75 0.34 0.75 0.75z"/>
</svg>
