<svg width="24" height="24" viewBox="0 0 24 24"  xmlns="http://www.w3.org/2000/svg">
<path d="M22 10.7498H2C1.59 10.7498 1.25 10.4098 1.25 9.99976C1.25 9.58976 1.59 9.24976 2 9.24976H22C22.41 9.24976 22.75 9.58976 22.75 9.99976C22.75 10.4098 22.41 10.7498 22 10.7498Z" />
<path d="M11.5502 21.2498H6.44025C2.46025 21.2498 1.24023 20.0498 1.24023 16.1098V7.88977C1.24023 4.73977 1.91022 2.98977 5.48022 2.77977C5.78022 2.76977 6.10025 2.75977 6.44025 2.75977H17.5502C21.5302 2.75977 22.7502 3.95976 22.7502 7.89977V12.3098C22.7502 12.7198 22.4102 13.0598 22.0002 13.0598C21.5902 13.0598 21.2502 12.7198 21.2502 12.3098V7.89977C21.2502 4.80977 20.7002 4.25977 17.5502 4.25977H6.44025C6.12025 4.25977 5.83023 4.26977 5.55023 4.27977C3.38023 4.40977 2.74023 4.89977 2.74023 7.89977V16.1198C2.74023 19.2098 3.29025 19.7598 6.44025 19.7598H11.5502C11.9602 19.7598 12.3002 20.0998 12.3002 20.5098C12.3002 20.9198 11.9702 21.2498 11.5502 21.2498Z" />
<path d="M10 16.7498H6C5.59 16.7498 5.25 16.4098 5.25 15.9998C5.25 15.5898 5.59 15.2498 6 15.2498H10C10.41 15.2498 10.75 15.5898 10.75 15.9998C10.75 16.4098 10.41 16.7498 10 16.7498Z" />
<path d="M18 22.7498C16.34 22.7498 14.78 21.8698 13.94 20.4398C13.49 19.7198 13.25 18.8698 13.25 17.9998C13.25 15.3798 15.38 13.2498 18 13.2498C20.62 13.2498 22.75 15.3798 22.75 17.9998C22.75 18.8698 22.51 19.7198 22.06 20.4498C21.22 21.8698 19.66 22.7498 18 22.7498ZM18 14.7498C16.21 14.7498 14.75 16.2098 14.75 17.9998C14.75 18.5898 14.91 19.1698 15.22 19.6698C15.8 20.6498 16.87 21.2498 18 21.2498C19.13 21.2498 20.2 20.6497 20.78 19.6797C21.09 19.1697 21.25 18.5998 21.25 17.9998C21.25 16.2098 19.79 14.7498 18 14.7498Z" />
<path d="M17.4299 19.7398C17.2399 19.7398 17.0499 19.6698 16.8999 19.5198L15.9099 18.5297C15.6199 18.2397 15.6199 17.7598 15.9099 17.4698C16.1999 17.1798 16.6799 17.1798 16.9699 17.4698L17.4499 17.9497L19.0499 16.4698C19.3499 16.1898 19.8299 16.2097 20.1099 16.5097C20.3899 16.8097 20.3699 17.2898 20.0699 17.5698L17.9399 19.5397C17.7899 19.6697 17.6099 19.7398 17.4299 19.7398Z" />
</svg>
