<?xml version="1.0" encoding="UTF-8"?>
<svg width="24" height="24" viewBox="0 0 24 24" xmlns="http://www.w3.org/2000/svg">
 <path d="m18.67 2h-1.9c-2.18 0-3.33 1.15-3.33 3.33v1.9c0 2.18 1.15 3.33 3.33 3.33h1.9c2.18 0 3.33-1.15 3.33-3.33v-1.9c0-2.18-1.15-3.33-3.33-3.33z" opacity=".4"/>
 <path d="m7.24 13.43h-1.9c-2.19 0-3.34 1.15-3.34 3.33v1.9c0 2.19 1.15 3.34 3.33 3.34h1.9c2.18 0 3.33-1.15 3.33-3.33v-1.9c0.01-2.19-1.14-3.34-3.32-3.34z" opacity=".4"/>
 <path d="m6.29 10.58c2.3693 0 4.29-1.9207 4.29-4.29s-1.9207-4.29-4.29-4.29-4.29 1.9207-4.29 4.29 1.9207 4.29 4.29 4.29z"/>
 <path d="m17.71 22c2.3693 0 4.29-1.9207 4.29-4.29s-1.9207-4.29-4.29-4.29-4.29 1.9207-4.29 4.29 1.9207 4.29 4.29 4.29z"/>
</svg>
