<?xml version="1.0" encoding="UTF-8"?>
<svg width="24" height="24" viewBox="0 0 24 24" xmlns="http://www.w3.org/2000/svg">
 <path d="m12 22c5.5228 0 10-4.4772 10-10 0-5.5228-4.4772-10-10-10-5.5228 0-10 4.4772-10 10 0 5.5228 4.4772 10 10 10z" opacity=".4"/>
 <path d="m12 18.19c-3.41 0-6.19-2.78-6.19-6.19 0-3.41 2.78-6.19 6.19-6.19 1.35 0 2.64 0.43 3.72 1.24 0.33 0.25 0.4 0.72 0.15 1.05s-0.72 0.4-1.05 0.15c-0.82-0.61-1.79-0.94-2.82-0.94-2.58 0-4.69 2.1-4.69 4.69 0 2.59 2.1 4.69 4.69 4.69 1.48 0 2.84-0.68 3.74-1.86 0.25-0.33 0.72-0.39 1.05-0.14s0.39 0.72 0.14 1.05c-1.18 1.55-2.98 2.45-4.93 2.45z"/>
 <path d="m17.42 11.34c0.6462 0 1.17-0.5238 1.17-1.17 0-0.64617-0.5238-1.17-1.17-1.17s-1.17 0.52383-1.17 1.17c0 0.6462 0.5238 1.17 1.17 1.17z"/>
</svg>
