<?xml version="1.0" encoding="UTF-8"?>
<svg width="24" height="24" viewBox="0 0 24 24" xmlns="http://www.w3.org/2000/svg">
 <path d="m16.19 2h-8.37c-3.64 0-5.81 2.17-5.81 5.81v8.37c0 3.64 2.17 5.81 5.81 5.81h8.37c3.64 0 5.81-2.17 5.81-5.81v-8.37c0-3.64-2.17-5.81-5.81-5.81z" opacity=".4"/>
 <path d="m10.11 11.15h-2.65c-0.63 0-1.14 0.51-1.14 1.14v5.12h3.79v-6.26z"/>
 <path d="m12.76 6.6h-1.52c-0.63 0-1.14 0.51001-1.14 1.14v9.66h3.79v-9.66c0-0.63-0.5-1.14-1.13-1.14z" opacity=".4"/>
 <path d="m16.55 12.85h-2.65v4.55h3.79v-3.41c-0.01-0.63-0.52-1.14-1.14-1.14z"/>
</svg>
