<?xml version="1.0" encoding="UTF-8"?>
<svg width="24" height="24" viewBox="0 0 24 24" xmlns="http://www.w3.org/2000/svg">
 <path d="m21 22.75h-18c-0.41 0-0.75-0.34-0.75-0.75s0.34-0.75 0.75-0.75h18c0.41 0 0.75 0.34 0.75 0.75s-0.34 0.75-0.75 0.75z" opacity=".4"/>
 <path d="m5.6 8.3799h-1.6c-0.55 0-1 0.45-1 1v8.62c0 0.55 0.45 1 1 1h1.6c0.55 0 1-0.45 1-1v-8.62c0-0.56-0.45-1-1-1z"/>
 <path d="m12.8 5.1904h-1.6c-0.55 0-1 0.45-1 1v11.81c0 0.55 0.45 1 1 1h1.6c0.55 0 1-0.45 1-1v-11.81c0-0.55-0.45-1-1-1z"/>
 <path d="m20 2h-1.6c-0.55 0-1 0.45-1 1v15c0 0.55 0.45 1 1 1h1.6c0.55 0 1-0.45 1-1v-15c0-0.55-0.45-1-1-1z"/>
</svg>
