<?xml version="1.0" encoding="UTF-8"?>
<svg width="24" height="24" viewBox="0 0 24 24" xmlns="http://www.w3.org/2000/svg">
 <path d="m12 22c5.5228 0 10-4.4772 10-10 0-5.5228-4.4772-10-10-10-5.5228 0-10 4.4772-10 10 0 5.5228 4.4772 10 10 10z" opacity=".4"/>
 <path d="m12 19.75c-4.27 0-7.75-3.48-7.75-7.75 0-0.41 0.34-0.75 0.75-0.75s0.75 0.34 0.75 0.75c0 3.45 2.8 6.25 6.25 6.25s6.25-2.8 6.25-6.25-2.8-6.25-6.25-6.25c-0.41 0-0.75-0.34-0.75-0.75s0.34-0.75 0.75-0.75c4.27 0 7.75 3.48 7.75 7.75s-3.48 7.75-7.75 7.75z"/>
 <path d="m12 16.75c-0.41 0-0.75-0.34-0.75-0.75s0.34-0.75 0.75-0.75c1.79 0 3.25-1.46 3.25-3.25s-1.46-3.25-3.25-3.25c-0.41 0-0.75-0.34-0.75-0.75s0.34-0.75 0.75-0.75c2.62 0 4.75 2.13 4.75 4.75s-2.13 4.75-4.75 4.75z"/>
</svg>
