<?xml version="1.0" encoding="UTF-8"?>
<svg width="24" height="24" viewBox="0 0 24 24" xmlns="http://www.w3.org/2000/svg">
 <path d="M16.19 2H7.81C4.17 2 2 4.17 2 7.81V16.18C2 19.83 4.17 22 7.81 22H16.18C19.82 22 21.99 19.83 21.99 16.19V7.81C22 4.17 19.83 2 16.19 2Z" opacity=".4"/>
 <path d="m7 14.35c-0.41 0-0.75-0.34-0.75-0.75v-3.2c0-0.41001 0.34-0.75001 0.75-0.75001s0.75 0.34 0.75 0.75001v3.21c0 0.41-0.34 0.74-0.75 0.74z"/>
 <path d="m12 16.09c-0.41 0-0.75-0.34-0.75-0.75v-6.68c0-0.41 0.34-0.75 0.75-0.75s0.75 0.34 0.75 0.75v6.68c0 0.41-0.34 0.75-0.75 0.75z"/>
 <path d="m17 14.35c-0.41 0-0.75-0.34-0.75-0.75v-3.2c0-0.41001 0.34-0.75001 0.75-0.75001s0.75 0.34 0.75 0.75001v3.21c0 0.41-0.34 0.74-0.75 0.74z"/>
</svg>
