<?xml version="1.0" encoding="UTF-8"?>
<svg width="24" height="24" viewBox="0 0 24 24" xmlns="http://www.w3.org/2000/svg">
 <path d="M16.19 2H7.81C4.17 2 2 4.17 2 7.81V16.18C2 19.83 4.17 22 7.81 22H16.18C19.82 22 21.99 19.83 21.99 16.19V7.81C22 4.17 19.83 2 16.19 2Z" opacity=".4"/>
 <path d="m16.42 7.8104v8.38c0 0.64-0.52 1.16-1.16 1.16-0.65 0-1.17-0.52-1.17-1.16v-8.38c0-0.64 0.52-1.16 1.17-1.16 0.64 0 1.16 0.52 1.16 1.16z"/>
 <path d="m9.9101 12.93v3.26c0 0.64-0.52 1.16-1.17 1.16-0.64 0-1.16-0.52-1.16-1.16v-3.26c0-0.64 0.52-1.16 1.16-1.16 0.65 0 1.17 0.52 1.17 1.16z"/>
</svg>
