<?xml version="1.0" encoding="UTF-8"?>
<svg width="24" height="24" viewBox="0 0 24 24" xmlns="http://www.w3.org/2000/svg">
 <path d="M22 12C22 17.47 17.61 21.91 12.16 22H12C11.39 22 10.79 21.94 10.21 21.84C5.54 20.99 2 16.91 2 12C2 10.29 2.43 8.68 3.19 7.27C3.5 6.7 3.86 6.15 4.27 5.65C6.11 3.42 8.89 2 12 2C15.56 2 18.68 3.86 20.45 6.66C20.8 7.21 21.1 7.8 21.34 8.42C21.77 9.53 22 10.74 22 12Z" opacity=".4"/>
 <path d="m15.1 8.0204c2.08-0.17 4.17-0.04 6.24 0.4-0.24-0.62-0.54-1.21-0.89-1.76-2.87-0.47-5.77-0.38-8.63 0.24-2.43 0.08-4.41 1.88-4.78 4.23-1.16-1.68-2.1-3.51-2.77-5.48-0.41 0.5-0.77 1.05-1.08 1.62 1.06 2.69 2.55 5.09 4.46 7.2 0.02 0.02 0.05 0.03 0.07 0.05 0.91 1.47 2.52 2.38 4.25 2.38 0.61 0 1.2-0.12 1.75-0.33-0.91 1.91-2.07 3.68-3.51 5.27 0.58 0.1 1.18 0.16 1.79 0.16h0.16c1.85-2.26 3.25-4.82 4.19-7.7 0.41-0.74 0.63-1.57 0.63-2.41 0-1.57-0.74-2.95-1.88-3.87zm-0.17 5.59c-0.6 1.05-1.74 1.71-2.96 1.71s-2.35-0.66-2.96-1.71c-0.31-0.54-0.46-1.11-0.46-1.72 0-1.89 1.53-3.42 3.42-3.42s3.43 1.53 3.43 3.42c0 0.61-0.16 1.18-0.47 1.72z"/>
</svg>
