<svg width="24" height="24" viewBox="0 0 24 24"  xmlns="http://www.w3.org/2000/svg">
<path d="M12 16.75C10.9 16.75 10 15.85 10 14.75V13.15C9.29 12.56 8.87 11.69 8.87 10.75C8.87 9.77999 9.31 8.87999 10.09 8.27999C10.87 7.67999 11.87 7.48 12.84 7.74C13.9 8.02 14.76 8.88 15.03 9.94C15.34 11.15 14.93 12.39 14 13.15V14.75C14 15.85 13.1 16.75 12 16.75ZM12 9.13C11.64 9.13 11.3 9.25 11.01 9.47C10.61 9.78 10.38 10.25 10.38 10.75C10.38 11.32 10.67 11.83 11.15 12.13L11.51 12.35V14.75C11.51 15.03 11.73 15.25 12.01 15.25C12.29 15.25 12.51 15.03 12.51 14.75V12.35L12.87 12.13C13.49 11.75 13.77 11.03 13.59 10.31C13.45 9.77999 13 9.33 12.47 9.19C12.3 9.15 12.15 9.13 12 9.13Z" />
<path d="M12 22.75C6.07 22.75 1.25 17.93 1.25 12C1.25 6.07 6.07 1.25 12 1.25C16.74 1.25 20.86 4.29 22.27 8.8C22.39 9.2 22.17 9.62001 21.78 9.74001C21.38 9.86001 20.96 9.64 20.84 9.25C19.63 5.36 16.08 2.75 12.01 2.75C6.90999 2.75 2.75999 6.9 2.75999 12C2.75999 17.1 6.90999 21.25 12.01 21.25C16.07 21.25 19.62 18.65 20.83 14.78C20.95 14.38 21.37 14.17 21.77 14.29C22.17 14.41 22.38 14.84 22.26 15.23C20.84 19.73 16.72 22.75 12 22.75Z" />
</svg>
