<?xml version="1.0" encoding="UTF-8"?>
<svg width="24" height="24" viewBox="0 0 24 24" xmlns="http://www.w3.org/2000/svg">
 <path d="m16.24 3.6504h-8.48c-2.47 0-4.47 2.01-4.47 4.47v9.41c0 2.46 2.01 4.47 4.47 4.47h8.47c2.47 0 4.47-2.01 4.47-4.47v-9.41c0.01-2.47-2-4.47-4.46-4.47z" opacity=".4"/>
 <path d="m14.35 2h-4.7c-1.04 0-1.89 0.84-1.89 1.88v0.94c0 1.04 0.84 1.88 1.88 1.88h4.71c1.04 0 1.88-0.84 1.88-1.88v-0.94c0.01-1.04-0.84-1.88-1.88-1.88z"/>
 <path d="m10.81 16.95c-0.19 0-0.38-0.07-0.53-0.22l-1.5-1.5c-0.29-0.29-0.29-0.77 0-1.06s0.77-0.29 1.06 0l0.97 0.97 3.47-3.47c0.29-0.29 0.77-0.29 1.06 0s0.29 0.77 0 1.06l-4 4c-0.14 0.15-0.34 0.22-0.53 0.22z"/>
</svg>
