<?xml version="1.0" encoding="UTF-8"?>
<svg width="24" height="24" viewBox="0 0 24 24" xmlns="http://www.w3.org/2000/svg">
 <path d="m13.89 2.8801-4.69-0.74c-3.91-0.61-5.72 0.71-6.34 4.62l-0.74 4.69c-0.4 2.56 0.02 4.22 1.47 5.23 0.76 0.54 1.8 0.9 3.15 1.11l4.69 0.74c3.91 0.61 5.72-0.71 6.34-4.62l0.73-4.69c0.12-0.77 0.17-1.46 0.13-2.07-0.13-2.5-1.6-3.78-4.74-4.27zm-5.65 6.47c-1.17 0-2.12-0.95-2.12-2.11 0-1.17 0.95-2.12 2.12-2.12 1.16 0 2.11 0.95 2.11 2.12 0 1.16-0.95001 2.11-2.11 2.11z" opacity=".4"/>
 <path d="m20.5 13.47-1.5 4.51c-1.25 3.76-3.25 4.76-7.01 3.51l-4.51-1.5c-2.27-0.75-3.53-1.79-3.89-3.31 0.76 0.54 1.8 0.9 3.15 1.11l4.69 0.74c3.91 0.61 5.72-0.71 6.34-4.62l0.73-4.69c0.12-0.77 0.17-1.46 0.13-2.07 2.39 1.27 2.91 3.19 1.87 6.32z"/>
 <path d="m10.35 7.2401c0 1.16-0.94998 2.11-2.11 2.11-1.17 0-2.12-0.95-2.12-2.11 0-1.17 0.95-2.12 2.12-2.12 1.16 0 2.11 0.95 2.11 2.12z"/>
</svg>
