<svg width="24" height="24" viewBox="0 0 24 24"  xmlns="http://www.w3.org/2000/svg">
<path opacity="0.4" d="M16.24 3.65039H7.76004C5.29004 3.65039 3.29004 5.66039 3.29004 8.12039V17.5304C3.29004 19.9904 5.30004 22.0004 7.76004 22.0004H16.23C18.7 22.0004 20.7 19.9904 20.7 17.5304V8.12039C20.71 5.65039 18.7 3.65039 16.24 3.65039Z" />
<path d="M14.3498 2H9.64977C8.60977 2 7.75977 2.84 7.75977 3.88V4.82C7.75977 5.86 8.59977 6.7 9.63977 6.7H14.3498C15.3898 6.7 16.2298 5.86 16.2298 4.82V3.88C16.2398 2.84 15.3898 2 14.3498 2Z" />
<path d="M14.9999 13.2504C14.5899 13.2504 14.2499 13.5904 14.2499 14.0004V15.1904L9.52994 10.4704C9.23994 10.1804 8.75994 10.1804 8.46994 10.4704C8.17994 10.7604 8.17994 11.2404 8.46994 11.5304L13.1899 16.2504H11.9999C11.5899 16.2504 11.2499 16.5904 11.2499 17.0004C11.2499 17.4104 11.5899 17.7504 11.9999 17.7504H14.9999C15.4099 17.7504 15.7499 17.4104 15.7499 17.0004V14.0004C15.7499 13.5904 15.4099 13.2504 14.9999 13.2504Z" />
</svg>
