<svg width="24" height="24" viewBox="0 0 24 24"  xmlns="http://www.w3.org/2000/svg">
<path d="M14 16.91C13.81 16.91 13.62 16.84 13.47 16.69L9.51 12.73C9.22 12.44 9.22 11.96 9.51 11.67C9.8 11.38 10.28 11.38 10.57 11.67L14.53 15.63C14.82 15.92 14.82 16.4 14.53 16.69C14.38 16.83 14.19 16.91 14 16.91Z" />
<path d="M10 16.95C9.81 16.95 9.62 16.88 9.47 16.73C9.18 16.44 9.18 15.96 9.47 15.67L13.43 11.71C13.72 11.42 14.2 11.42 14.49 11.71C14.78 12 14.78 12.48 14.49 12.77L10.53 16.73C10.38 16.88 10.19 16.95 10 16.95Z" />
<path d="M14 6.75H10C9.04 6.75 7.25 6.75 7.25 4C7.25 1.25 9.04 1.25 10 1.25H14C14.96 1.25 16.75 1.25 16.75 4C16.75 4.96 16.75 6.75 14 6.75ZM10 2.75C9.01 2.75 8.75 2.75 8.75 4C8.75 5.25 9.01 5.25 10 5.25H14C15.25 5.25 15.25 4.99 15.25 4C15.25 2.75 14.99 2.75 14 2.75H10Z" />
<path d="M15 22.75H9C3.38 22.75 2.25 20.17 2.25 16V10C2.25 5.44 3.9 3.49 7.96 3.28C8.38 3.26 8.73 3.57 8.75 3.99C8.77 4.41 8.45 4.75 8.04 4.77C5.2 4.93 3.75 5.78 3.75 10V16C3.75 19.7 4.48 21.25 9 21.25H15C19.52 21.25 20.25 19.7 20.25 16V10C20.25 5.78 18.8 4.93 15.96 4.77C15.55 4.75 15.23 4.39 15.25 3.98C15.27 3.57 15.63 3.25 16.04 3.27C20.1 3.49 21.75 5.44 21.75 9.99V15.99C21.75 20.17 20.62 22.75 15 22.75Z" />
</svg>
