<svg width="24" height="24" viewBox="0 0 24 24"  xmlns="http://www.w3.org/2000/svg">
<path opacity="0.4" d="M13.89 2.88014L9.19999 2.14014C5.28999 1.53014 3.47999 2.85014 2.85999 6.76014L2.11999 11.4501C1.71999 14.0101 2.13999 15.6701 3.58999 16.6801C4.34999 17.2201 5.38999 17.5801 6.73999 17.7901L11.43 18.5301C15.34 19.1401 17.15 17.8201 17.77 13.9101L18.5 9.22014C18.62 8.45014 18.67 7.76014 18.63 7.15014C18.5 4.65014 17.03 3.37014 13.89 2.88014ZM8.23999 9.35014C7.06999 9.35014 6.11999 8.40014 6.11999 7.24014C6.11999 6.07014 7.06999 5.12014 8.23999 5.12014C9.39999 5.12014 10.35 6.07014 10.35 7.24014C10.35 8.40014 9.39999 9.35014 8.23999 9.35014Z" />
<path d="M20.5001 13.4704L19.0001 17.9804C17.7501 21.7404 15.7501 22.7404 11.9901 21.4904L7.48009 19.9904C5.21009 19.2404 3.95009 18.2004 3.59009 16.6804C4.35009 17.2204 5.39009 17.5804 6.74009 17.7904L11.4301 18.5304C15.3401 19.1404 17.1501 17.8204 17.7701 13.9104L18.5001 9.22039C18.6201 8.45039 18.6701 7.76039 18.6301 7.15039C21.0201 8.42039 21.5401 10.3404 20.5001 13.4704Z" />
<path d="M10.3501 7.24012C10.3501 8.40012 9.40012 9.35012 8.24012 9.35012C7.07012 9.35012 6.12012 8.40012 6.12012 7.24012C6.12012 6.07012 7.07012 5.12012 8.24012 5.12012C9.40012 5.12012 10.3501 6.07012 10.3501 7.24012Z" />
</svg>
