<svg width="24" height="24" viewBox="0 0 24 24"  xmlns="http://www.w3.org/2000/svg">
<path d="M13.05 19.4203C12.51 19.4203 11.94 19.3703 11.32 19.2703L6.62999 18.5303C5.14999 18.3003 4.00999 17.8903 3.15999 17.2903C0.969987 15.7703 1.09999 13.1603 1.37999 11.3303L2.11999 6.6403C2.79999 2.34029 5.01999 0.730295 9.31999 1.4003L14.01 2.1403C16.22 2.4903 19.19 3.3803 19.38 7.1103C19.42 7.7503 19.38 8.4803 19.24 9.3403L18.51 14.0303C17.93 17.7003 16.22 19.4203 13.05 19.4203ZM7.52999 2.7503C5.14999 2.7503 4.06999 3.9603 3.59999 6.8803L2.85999 11.5703C2.39999 14.5203 3.23999 15.5203 4.01999 16.0703C4.67999 16.5403 5.60999 16.8603 6.85999 17.0503L11.55 17.7903C15.04 18.3403 16.48 17.2903 17.03 13.7903L17.76 9.1003C17.88 8.3503 17.92 7.7203 17.88 7.1903V7.18029C17.77 5.0803 16.58 4.0503 13.77 3.6103L9.08999 2.8803C8.50999 2.7903 7.99999 2.7503 7.52999 2.7503Z" />
<path d="M14.68 22.7503C13.83 22.7503 12.87 22.5703 11.76 22.2003L7.24999 20.7003C4.67999 19.8503 3.28999 18.6303 2.86999 16.8503C2.79999 16.5503 2.91999 16.2303 3.17999 16.0603C3.43999 15.8903 3.77999 15.8903 4.02999 16.0703C4.68999 16.5403 5.60999 16.8603 6.85999 17.0503L11.55 17.7903C15.04 18.3403 16.48 17.2903 17.03 13.7903L17.76 9.1003C17.88 8.3503 17.92 7.7203 17.88 7.1903C17.87 6.9303 18 6.6703 18.23 6.5203C18.46 6.3703 18.75 6.36029 18.99 6.49029C21.67 7.92029 22.38 10.2103 21.22 13.7103L19.72 18.2203C19.01 20.3403 18.08 21.6403 16.78 22.2903C16.15 22.6003 15.46 22.7503 14.68 22.7503ZM5.72999 18.3603C6.20999 18.6803 6.84999 18.9903 7.71999 19.2803L12.23 20.7803C13.95 21.3503 15.18 21.4003 16.1 20.9503C17.02 20.4903 17.72 19.4703 18.29 17.7503L19.79 13.2403C20.61 10.7603 20.29 9.4403 19.34 8.5503C19.32 8.8003 19.28 9.0603 19.24 9.3403L18.51 14.0303C17.83 18.3303 15.61 19.9403 11.31 19.2803L6.61999 18.5403C6.30999 18.4803 6.00999 18.4203 5.72999 18.3603Z" />
<path d="M8.23999 9.7203C6.86999 9.7203 5.74999 8.6003 5.74999 7.2303C5.74999 5.8603 6.86999 4.7403 8.23999 4.7403C9.60999 4.7403 10.73 5.8603 10.73 7.2303C10.73 8.6003 9.60999 9.7203 8.23999 9.7203ZM8.23999 6.2503C7.69999 6.2503 7.24999 6.6903 7.24999 7.2403C7.24999 7.7903 7.68999 8.2303 8.23999 8.2303C8.77999 8.2303 9.22999 7.7903 9.22999 7.2403C9.22999 6.6903 8.77999 6.2503 8.23999 6.2503Z" />
</svg>
