<?xml version="1.0" encoding="UTF-8"?>
<svg width="24" height="24" viewBox="0 0 24 24" xmlns="http://www.w3.org/2000/svg">
 <path d="m5.5 12c0-3.59 2.91-6.5 6.5-6.5s6.5 2.91 6.5 6.5c0 2.08-0.98 3.94-2.5 5.13h-0.01c-1.1 0.86-2.48 1.37-3.99 1.37-1.49 0-2.86-0.5-3.96-1.35h-0.01c-1.54-1.19-2.53-3.05-2.53-5.15z" opacity=".4"/>
 <path d="m8.0298 17.15h0.01c1.1 0.85 2.47 1.35 3.96 1.35 1.51 0 2.89-0.51 3.99-1.37h0.01l-0.51 2.47c-0.49 1.9-1.59 2.4-2.94 2.4h-1.09c-1.35 0-2.46-0.5-2.94-2.41l-0.49-2.44z"/>
 <path d="m8.0298 6.85h0.01c1.1-0.85 2.47-1.35 3.96-1.35 1.51 0 2.89 0.51 3.99 1.37h0.01l-0.51-2.47c-0.49-1.9-1.59-2.4-2.94-2.4h-1.09c-1.35 0-2.46 0.5-2.94 2.41l-0.49 2.44z"/>
 <path d="m13.4 14.6c-0.19 0-0.38-0.07-0.53-0.22l-1.4-1.4c-0.14-0.14-0.22-0.33-0.22-0.53v-2.79c0-0.41 0.34-0.75 0.75-0.75s0.75 0.34 0.75 0.75v2.48l1.18 1.18c0.29 0.29 0.29 0.77 0 1.06-0.15 0.15-0.34 0.22-0.53 0.22z"/>
</svg>
