<svg width="24" height="24" viewBox="0 0 24 24"  xmlns="http://www.w3.org/2000/svg">
<path d="M17.2764 5.29477C17.6707 4.90199 18.31 4.90199 18.7043 5.29477C19.0986 5.68756 19.0986 6.32439 18.7043 6.71717L6.80557 18.5705C6.41129 18.9633 5.77202 18.9633 5.37773 18.5705C4.98344 18.1777 4.98344 17.5409 5.37773 17.1481L17.2764 5.29477Z" />
<path d="M18.6223 17.2832C19.0166 17.676 19.0166 18.3128 18.6223 18.7056C18.228 19.0984 17.5887 19.0984 17.1944 18.7056L5.29572 6.85225C4.90143 6.45946 4.90143 5.82263 5.29572 5.42985C5.69 5.03706 6.32927 5.03706 6.72356 5.42985L18.6223 17.2832Z" />
</svg>
