<svg width="24" height="24" viewBox="0 0 24 24"  xmlns="http://www.w3.org/2000/svg">
<path d="M12.9701 20.7498H8.97008C8.56008 20.7498 8.22008 20.4098 8.22008 19.9998C8.22008 19.5898 8.56008 19.2498 8.97008 19.2498H12.9701C13.3801 19.2498 13.7201 19.5898 13.7201 19.9998C13.7201 20.4098 13.3901 20.7498 12.9701 20.7498Z" />
<path d="M16.6501 20.7498C16.6401 20.7498 16.6201 20.7498 16.6101 20.7498C16.2001 20.7498 15.8601 20.4098 15.8701 19.9898C15.8701 19.5798 16.2101 19.2498 16.6201 19.2498C16.6301 19.2498 16.6501 19.2498 16.6601 19.2498C17.8001 19.2498 18.8901 18.8298 19.7301 18.0498C21.2801 16.6898 21.3901 14.7498 20.9701 13.3798C20.5501 12.0098 19.3901 10.4598 17.3601 10.1998C17.0301 10.1598 16.7701 9.90977 16.7101 9.57977C16.3101 7.18977 15.0201 5.53977 13.0801 4.93977C11.0601 4.31977 8.73008 4.92977 7.27008 6.45977C5.85008 7.94977 5.52008 10.0198 6.34008 12.3098C6.48008 12.6998 6.28008 13.1298 5.89008 13.2698C5.50008 13.4098 5.07008 13.2098 4.93008 12.8198C3.92008 10.0098 4.38008 7.31977 6.19008 5.42977C8.04008 3.49977 10.9901 2.72977 13.5301 3.51977C15.8601 4.23977 17.5101 6.15977 18.1001 8.81977C20.1401 9.27977 21.7701 10.8198 22.4201 12.9498C23.1301 15.2698 22.4801 17.6498 20.7501 19.1698C19.6101 20.1898 18.1601 20.7498 16.6501 20.7498Z" />
<path d="M5.57008 20.7498C5.55008 20.7498 5.53008 20.7498 5.52008 20.7498C2.64008 20.5498 1.33008 18.2898 1.33008 16.2798C1.33008 14.2698 2.64008 12.0198 5.52008 11.8098C6.26008 11.7998 6.99008 11.9698 7.63008 12.2898C8.00008 12.4798 8.14008 12.9298 7.96008 13.2998C7.77008 13.6698 7.32008 13.8098 6.95008 13.6298C6.53008 13.4098 6.05008 13.3198 5.59008 13.3098C3.70008 13.4498 2.84008 14.8998 2.84008 16.2798C2.84008 17.6598 3.70008 19.1098 5.64008 19.2498C6.05008 19.2798 6.36008 19.6398 6.33008 20.0498C6.29008 20.4498 5.96008 20.7498 5.57008 20.7498Z" />
<path d="M15.8201 10.6398C15.5501 10.6398 15.2801 10.4898 15.1501 10.2198C14.9601 9.84977 15.1101 9.39977 15.4901 9.20977C16.1001 8.89977 16.7901 8.72977 17.4701 8.71977C17.8601 8.73977 18.2301 9.03977 18.2301 9.45977C18.2401 9.86977 17.9101 10.2198 17.4901 10.2198C17.0301 10.2298 16.5701 10.3398 16.1501 10.5498C16.0501 10.6198 15.9301 10.6398 15.8201 10.6398Z" />
</svg>
