<svg width="24" height="24" viewBox="0 0 24 24"  xmlns="http://www.w3.org/2000/svg">
<path d="M8.10979 11.8498C5.28979 12.0498 5.29979 16.1498 8.10979 16.3498H14.7798C15.5898 16.3598 16.3698 16.0498 16.9698 15.5098C18.9498 13.7798 17.8898 10.3098 15.2898 9.97976C14.3598 4.33976 6.20982 6.47976 8.13982 11.8498" />
<path opacity="0.4" d="M9 22.75C4.73 22.75 1.25 19.27 1.25 15C1.25 14.59 1.59 14.25 2 14.25C2.41 14.25 2.75 14.59 2.75 15C2.75 17.96 4.80999 20.44 7.57999 21.09L7.31 20.64C7.1 20.28 7.21001 19.82 7.57001 19.61C7.92001 19.4 8.39001 19.51 8.60001 19.87L9.64999 21.62C9.78999 21.85 9.79 22.14 9.66 22.37C9.52 22.6 9.27 22.75 9 22.75Z" />
<path opacity="0.4" d="M21.9999 9.75C21.5899 9.75 21.2499 9.41 21.2499 9C21.2499 6.04 19.1899 3.55997 16.4199 2.90997L16.6899 3.35999C16.8999 3.71999 16.7899 4.18001 16.4299 4.39001C16.0799 4.60001 15.6099 4.49001 15.3999 4.13L14.3499 2.38C14.2099 2.15 14.2099 1.86 14.3399 1.63C14.4699 1.39 14.7199 1.25 14.9899 1.25C19.2599 1.25 22.7399 4.73 22.7399 9C22.7499 9.41 22.4099 9.75 21.9999 9.75Z" />
</svg>
