<svg width="24" height="24" viewBox="0 0 24 24"  xmlns="http://www.w3.org/2000/svg">
<path opacity="0.4" d="M21.74 11.7396C21.13 9.73956 19.61 8.29956 17.7 7.86956C17.14 5.36956 15.6 3.57956 13.42 2.89956C11.04 2.16956 8.28 2.87956 6.55 4.68956C5.02 6.27956 4.52 8.46956 5.11 10.7996C2.98 11.3196 2 13.1796 2 14.8596C2 16.7396 3.23 18.8496 5.97 19.0396H8.5V16.4096C8.5 15.1396 9.26 14.3796 10.53 14.3796H13.47C14.74 14.3796 15.5 15.1396 15.5 16.4096V19.0396H16.31C16.32 19.0396 16.34 19.0396 16.35 19.0396C17.77 19.0396 19.13 18.5096 20.17 17.5596C21.8 16.1396 22.4 13.9096 21.74 11.7396Z" />
<path d="M13.47 14.3896H10.53C9.26 14.3896 8.5 15.1496 8.5 16.4196V19.3596C8.5 20.6296 9.26 21.3896 10.53 21.3896H13.47C14.74 21.3896 15.5 20.6296 15.5 19.3596V16.4196C15.5 15.1496 14.74 14.3896 13.47 14.3896ZM13.71 18.4596H10.3C9.94 18.4596 9.65 18.1696 9.65 17.8096C9.65 17.4596 9.94 17.1696 10.3 17.1696H13.72C14.07 17.1696 14.36 17.4596 14.36 17.8096C14.35 18.1796 14.06 18.4596 13.71 18.4596Z" />
</svg>
