<svg width="24" height="24" viewBox="0 0 24 24"  xmlns="http://www.w3.org/2000/svg">
<path d="M16.6501 20.7498C16.6401 20.7498 16.6201 20.7498 16.6101 20.7498C16.2001 20.7498 15.8601 20.4098 15.8701 19.9898C15.8701 19.5798 16.2201 19.2098 16.6301 19.2498C17.7901 19.2498 18.8901 18.8298 19.7401 18.0498C21.2901 16.6898 21.4001 14.7498 20.9801 13.3798C20.5601 12.0098 19.3901 10.4598 17.3701 10.1998C17.0401 10.1598 16.7801 9.90977 16.7201 9.57977C16.3301 7.18977 15.0301 5.53977 13.0901 4.93977C11.0701 4.31977 8.74008 4.92977 7.28008 6.45977C5.86008 7.94977 5.53008 10.0198 6.35008 12.3098C6.49008 12.6998 6.29008 13.1298 5.90008 13.2698C5.51008 13.4098 5.08008 13.2098 4.94008 12.8198C3.93008 10.0098 4.39008 7.31977 6.20008 5.42977C8.05008 3.49977 10.9901 2.72977 13.5401 3.51977C15.8701 4.23977 17.5201 6.15977 18.1101 8.81977C20.1501 9.27977 21.7801 10.8198 22.4301 12.9498C23.1401 15.2698 22.5001 17.6498 20.7601 19.1698C19.6101 20.1898 18.1601 20.7498 16.6501 20.7498Z" />
<path d="M5.57008 20.7498C5.55008 20.7498 5.53008 20.7498 5.52008 20.7498C2.64008 20.5498 1.33008 18.2898 1.33008 16.2798C1.33008 14.2698 2.64008 12.0198 5.52008 11.8098C6.28008 11.8198 6.99008 11.9698 7.63008 12.2898C8.00008 12.4798 8.14008 12.9298 7.96008 13.2998C7.77008 13.6698 7.32008 13.8098 6.95008 13.6298C6.53008 13.4098 6.05008 13.3098 5.59008 13.3098C3.70008 13.4498 2.84008 14.8998 2.84008 16.2798C2.84008 17.6598 3.70008 19.1098 5.63008 19.2498C6.04008 19.2798 6.35008 19.6398 6.33008 20.0498C6.29008 20.4498 5.96008 20.7498 5.57008 20.7498Z" />
<path d="M15.8201 10.6398C15.5401 10.6398 15.2801 10.4898 15.1501 10.2198C14.9601 9.84977 15.1101 9.39977 15.4901 9.20977C16.1001 8.89977 16.7901 8.72977 17.4701 8.71977H17.4801C17.8901 8.71977 18.2201 9.04977 18.2301 9.45977C18.2401 9.86977 17.9101 10.2198 17.4901 10.2198C17.0301 10.2298 16.5701 10.3398 16.1501 10.5498C16.0401 10.6198 15.9301 10.6398 15.8201 10.6398Z" />
<path d="M10.6101 22.6198C10.4801 22.6198 10.3401 22.5998 10.2101 22.5498C9.77008 22.3798 9.48008 21.9698 9.48008 21.4998V19.9198H9.23008C8.48008 19.9198 8.21008 19.4798 8.12008 19.2998C8.04008 19.0998 7.90008 18.5998 8.39008 18.0498L10.8401 15.2598C11.1501 14.9098 11.6401 14.7798 12.0801 14.9498C12.5201 15.1198 12.8101 15.5298 12.8101 15.9998V17.5798H13.0601C13.8001 17.5798 14.0801 18.0198 14.1701 18.1998C14.2601 18.3798 14.4001 18.8798 13.9101 19.4398L11.4601 22.2298C11.2301 22.4798 10.9201 22.6198 10.6101 22.6198ZM10.0601 18.4098H10.2301C10.6401 18.4098 10.9801 18.7498 10.9801 19.1598V20.4898L12.2201 19.0798H12.0501C11.6401 19.0798 11.3001 18.7398 11.3001 18.3298V16.9998L10.0601 18.4098Z" />
</svg>
