<svg width="24" height="24" viewBox="0 0 24 24"  xmlns="http://www.w3.org/2000/svg">
<path opacity="0.4" d="M21.74 11.7396C21.13 9.73956 19.61 8.29956 17.7 7.86956C17.14 5.36956 15.6 3.57956 13.42 2.89956C11.04 2.16956 8.28 2.87956 6.55 4.68956C5.02 6.27956 4.52 8.46956 5.11 10.7996C2.98 11.3196 2 13.1796 2 14.8596C2 16.7396 3.23 18.8496 5.97 19.0396H8.5V16.4096C8.5 15.1396 9.26 14.3796 10.53 14.3796H13.47C14.74 14.3796 15.5 15.1396 15.5 16.4096V19.0396H16.31C16.32 19.0396 16.34 19.0396 16.35 19.0396C17.77 19.0396 19.13 18.5096 20.17 17.5596C21.8 16.1396 22.4 13.9096 21.74 11.7396Z" />
<path d="M13.47 14.3896H10.53C9.26 14.3896 8.5 15.1496 8.5 16.4196V19.3596C8.5 20.6296 9.26 21.3896 10.53 21.3896H13.47C14.74 21.3896 15.5 20.6296 15.5 19.3596V16.4196C15.5 15.1496 14.74 14.3896 13.47 14.3896ZM11.71 18.8396L10.47 20.0696C10.38 20.1596 10.26 20.2096 10.15 20.2096C10.02 20.2096 9.91 20.1596 9.82 20.0696C9.64 19.8896 9.64 19.5996 9.82 19.4196L11.05 18.1796C11.24 17.9996 11.53 17.9996 11.71 18.1796C11.89 18.3596 11.89 18.6596 11.71 18.8396ZM11.71 16.3596L10.47 17.5996C10.38 17.6896 10.26 17.7396 10.15 17.7396C10.02 17.7396 9.91 17.6896 9.82 17.5996C9.64 17.4196 9.64 17.1196 9.82 16.9396L11.05 15.7096C11.24 15.5296 11.53 15.5296 11.71 15.7096C11.89 15.8896 11.89 16.1796 11.71 16.3596ZM14.18 18.8396L12.95 20.0696C12.85 20.1596 12.74 20.2096 12.62 20.2096C12.5 20.2096 12.38 20.1596 12.29 20.0696C12.11 19.8896 12.11 19.5996 12.29 19.4196L13.53 18.1796C13.71 17.9996 14 17.9996 14.18 18.1796C14.36 18.3596 14.36 18.6596 14.18 18.8396ZM14.18 16.3596L12.95 17.5996C12.85 17.6896 12.74 17.7396 12.62 17.7396C12.5 17.7396 12.38 17.6896 12.29 17.5996C12.11 17.4196 12.11 17.1196 12.29 16.9396L13.53 15.7096C13.71 15.5296 14 15.5296 14.18 15.7096C14.36 15.8896 14.36 16.1796 14.18 16.3596Z" />
</svg>
