<svg width="24" height="24" viewBox="0 0 24 24"  xmlns="http://www.w3.org/2000/svg">
<path d="M13.47 14.39H10.53C9.26 14.39 8.5 15.15 8.5 16.42V19.36C8.5 20.63 9.26 21.39 10.53 21.39H13.47C14.74 21.39 15.5 20.63 15.5 19.36V16.42C15.5 15.15 14.74 14.39 13.47 14.39ZM13.97 18.94C14.22 19.19 14.22 19.6 13.97 19.85C13.84 19.97 13.68 20.03 13.51 20.03C13.35 20.03 13.19 19.97 13.06 19.85L12 18.79L10.95 19.85C10.82 19.97 10.66 20.03 10.49 20.03C10.33 20.03 10.17 19.97 10.04 19.85C9.79 19.6 9.79 19.19 10.04 18.94L11.1 17.88L10.04 16.83C9.79 16.58 9.79 16.17 10.04 15.92C10.29 15.67 10.7 15.67 10.95 15.92L12 16.98L13.06 15.92C13.31 15.67 13.72 15.67 13.97 15.92C14.22 16.17 14.22 16.58 13.97 16.83L12.91 17.88L13.97 18.94Z" />
<path opacity="0.4" d="M21.74 11.7401C21.13 9.74005 19.61 8.30005 17.7 7.87005C17.14 5.37005 15.6 3.58005 13.42 2.90005C11.04 2.17005 8.28 2.88005 6.55 4.69005C5.02 6.28005 4.52 8.47005 5.11 10.8001C2.98 11.3201 2 13.1801 2 14.8601C2 16.7401 3.23 18.8501 5.97 19.0401H8.5V16.4101C8.5 15.1401 9.26 14.3801 10.53 14.3801H13.47C14.74 14.3801 15.5 15.1401 15.5 16.4101V19.0401H16.31C16.32 19.0401 16.34 19.0401 16.35 19.0401C17.77 19.0401 19.13 18.5101 20.17 17.5601C21.8 16.1401 22.4 13.9101 21.74 11.7401Z" />
</svg>
