<?xml version="1.0" encoding="UTF-8"?>
<svg width="24" height="24" viewBox="0 0 24 24" xmlns="http://www.w3.org/2000/svg">
 <path d="m13.47 14.39h-2.94c-1.27 0-2.03 0.76-2.03 2.03v2.94c0 1.27 0.76 2.03 2.03 2.03h2.94c1.27 0 2.03-0.76 2.03-2.03v-2.94c0-1.27-0.76-2.03-2.03-2.03zm0.94 3.93c-0.1 0.1-0.25 0.17-0.41 0.18h-1.41l0.01 1.39c-0.01 0.17-0.07 0.31-0.19 0.43-0.1 0.1-0.25 0.17-0.41 0.17-0.33 0-0.6-0.27-0.6-0.6v-1.4l-1.4 0.01c-0.33 0-0.6-0.28-0.6-0.61s0.27-0.6 0.6-0.6l1.4 0.01v-1.4c0-0.33 0.27-0.61 0.6-0.61s0.6 0.28 0.6 0.61l-0.01 1.39h1.41c0.33 0 0.6 0.27 0.6 0.6-0.01 0.17-0.08 0.31-0.19 0.43z"/>
 <path d="m21.74 11.74c-0.61-2-2.13-3.44-4.04-3.87-0.56-2.5-2.1-4.29-4.28-4.97-2.38-0.73-5.14-0.02-6.87 1.79-1.53 1.59-2.03 3.78-1.44 6.11-2.13 0.52-3.11 2.38-3.11 4.06 0 1.88 1.23 3.99 3.97 4.18h2.53v-2.63c0-1.27 0.76-2.03 2.03-2.03h2.94c1.27 0 2.03 0.76 2.03 2.03v2.63h0.81 0.04c1.42 0 2.78-0.53 3.82-1.48 1.63-1.42 2.23-3.65 1.57-5.82z" opacity=".4"/>
</svg>
