<svg width="24" height="24" viewBox="0 0 24 24"  xmlns="http://www.w3.org/2000/svg">
<path opacity="0.4" d="M20.27 17.1897C19.27 18.0997 17.98 18.5997 16.63 18.5897H16.54C16.84 17.9697 17 17.2697 17 16.5297C17 13.7697 14.76 11.5297 12 11.5297C9.24003 11.5297 7.00003 13.7697 7.00003 16.5297C7.00003 17.2697 7.16003 17.9697 7.46003 18.5897H5.54003C0.860029 18.2597 0.860029 11.4497 5.54003 11.1197H5.59003C2.38003 2.18966 15.92 -1.38035 17.47 7.99965C21.8 8.54965 23.55 14.3197 20.27 17.1897Z" />
<path d="M12 11.5303C9.24 11.5303 7 13.7703 7 16.5303C7 17.2703 7.16 17.9703 7.46 18.5903C7.54 18.7703 7.63 18.9403 7.73 19.1003C8.59 20.5503 10.18 21.5303 12 21.5303C13.82 21.5303 15.41 20.5503 16.27 19.1003C16.37 18.9403 16.46 18.7703 16.54 18.5903C16.84 17.9703 17 17.2703 17 16.5303C17 13.7703 14.76 11.5303 12 11.5303ZM13.5 18.1403C13.35 18.2903 13.16 18.3603 12.97 18.3603C12.78 18.3603 12.59 18.2903 12.44 18.1403L11.91 17.6103L11.36 18.1603C11.21 18.3103 11.02 18.3803 10.83 18.3803C10.64 18.3803 10.45 18.3103 10.3 18.1603C10.01 17.8703 10.01 17.3903 10.3 17.1003L10.85 16.5503L10.32 16.0203C10.03 15.7303 10.03 15.2503 10.32 14.9603C10.61 14.6703 11.09 14.6703 11.38 14.9603L11.91 15.4903L12.41 14.9903C12.7 14.7003 13.18 14.7003 13.47 14.9903C13.76 15.2803 13.76 15.7603 13.47 16.0503L12.97 16.5503L13.5 17.0803C13.79 17.3803 13.79 17.8503 13.5 18.1403Z" />
</svg>
