<svg width="24" height="24" viewBox="0 0 24 24"  xmlns="http://www.w3.org/2000/svg">
<path d="M20.4798 10.69L2.00977 15.72C2.11977 14.13 3.10977 12.46 5.10977 11.97C4.51977 9.63998 5.01977 7.44998 6.53977 5.85998C8.26977 4.04998 11.0298 3.32998 13.4098 4.06998C15.5998 4.73998 17.1398 6.53998 17.6898 9.03998C18.7798 9.28998 19.7498 9.85998 20.4798 10.69Z" />
<path opacity="0.4" d="M20.17 18.7399C19.13 19.6899 17.77 20.2199 16.35 20.2199H5.97C3.23 20.0199 2 17.9099 2 16.0299C2 15.9299 2 15.8299 2.01 15.7199L20.48 10.6899C21.05 11.2999 21.48 12.0499 21.74 12.9099C22.4 15.0799 21.8 17.3099 20.17 18.7399Z" />
</svg>
