<?xml version="1.0" encoding="UTF-8"?>
<svg width="24" height="24" viewBox="0 0 24 24" xmlns="http://www.w3.org/2000/svg">
 <path d="m20.57 11.01c-0.76-0.91-1.76-1.52-2.9-1.77-0.25-1.15-0.71-2.15-1.36-2.97-0.02-0.03-0.04-0.06-0.06-0.08-2.19-2.65-5.78-2.64-8.2-1.27-2.07 1.18-3.83 3.67-2.91 7.24-2.12 0.52-3.1 2.37-3.1 4.04 0 1.87 1.22 3.98 3.95 4.17h10.3 0.04c1.42 0 2.77-0.52 3.81-1.48 2.52-2.2 2.19-5.81 0.43-7.88z" opacity=".4"/>
 <path d="m21.27 8.76c0 1.02-0.47 1.94-1.23 2.54-0.55 0.45-1.26 0.72-2.03 0.72-1.79 0-3.25-1.46-3.25-3.25 0-0.89 0.36-1.7 0.96-2.29v-0.01c0.59-0.59 1.4-0.96 2.29-0.96 1.8 0 3.26 1.46 3.26 3.25z"/>
</svg>
