<svg width="24" height="24" viewBox="0 0 24 24"  xmlns="http://www.w3.org/2000/svg">
<path d="M16.68 20.8296C16.67 20.8296 16.65 20.8296 16.64 20.8296H5.55004C2.61004 20.6196 1.29004 18.3596 1.29004 16.3396C1.29004 14.5396 2.34004 12.5396 4.63004 11.9896C3.99004 9.48959 4.53004 7.13959 6.16004 5.43959C8.01004 3.49959 10.98 2.72959 13.53 3.51959C15.87 4.23959 17.52 6.16959 18.12 8.84959C20.17 9.30959 21.8 10.8596 22.46 12.9996C23.17 15.3296 22.53 17.7196 20.78 19.2496C19.66 20.2596 18.2 20.8296 16.68 20.8296ZM5.57004 13.3496C5.56004 13.3496 5.56004 13.3496 5.55004 13.3496C3.65004 13.4896 2.78004 14.9496 2.78004 16.3396C2.78004 17.7296 3.65004 19.1896 5.59004 19.3296H16.63C17.79 19.3096 18.9 18.9096 19.76 18.1296C21.32 16.7596 21.43 14.8096 21.01 13.4396C20.59 12.0596 19.42 10.4996 17.38 10.2396C17.05 10.1996 16.79 9.94959 16.73 9.61959C16.33 7.21959 15.03 5.55959 13.08 4.95959C11.05 4.33959 8.71004 4.94959 7.24004 6.47959C5.91004 7.86959 5.53004 9.78959 6.15004 11.8996C6.66004 11.9696 7.15004 12.1196 7.60004 12.3496C7.97004 12.5396 8.12004 12.9896 7.93004 13.3596C7.74004 13.7296 7.29004 13.8796 6.92004 13.6896C6.51004 13.4796 6.06004 13.3696 5.61004 13.3696C5.60004 13.3496 5.59004 13.3496 5.57004 13.3496Z" />
<path d="M15.85 10.6696C15.57 10.6696 15.31 10.5196 15.18 10.2496C14.99 9.87959 15.15 9.42959 15.52 9.23959C16.14 8.92959 16.83 8.75959 17.51 8.74959C17.91 8.73959 18.27 9.06959 18.27 9.48959C18.28 9.89959 17.95 10.2496 17.53 10.2496C17.07 10.2596 16.6 10.3696 16.18 10.5796C16.07 10.6396 15.96 10.6696 15.85 10.6696Z" />
</svg>
