<?xml version="1.0" encoding="UTF-8"?>
<svg width="24" height="24" viewBox="0 0 24 24" xmlns="http://www.w3.org/2000/svg">
 <path d="m20.27 17.19c-1 0.91-2.29 1.41-3.64 1.4h-0.09c0.3-0.62 0.46-1.32 0.46-2.06 0-2.76-2.24-5-5-5-2.76 0-5 2.24-5 5 0 0.74 0.16002 1.44 0.46002 2.06h-1.92c-4.68-0.33-4.68-7.14 0-7.47h0.05005c-3.21-8.93 10.33-12.5 11.88-3.12 4.33 0.55 6.08 6.32 2.8 9.19z" opacity=".4"/>
 <path d="m12 11.53c-2.76 0-5 2.24-5 5 0 0.74 0.16002 1.44 0.46002 2.06 0.08 0.18 0.16996 0.35 0.26996 0.51 0.86 1.45 2.45 2.43 4.27 2.43s3.41-0.98 4.27-2.43c0.1-0.16 0.19-0.33 0.27-0.51 0.3-0.62 0.46-1.32 0.46-2.06 0-2.76-2.24-5-5-5zm2.07 4.57-2.13 1.97c-0.14 0.13-0.33 0.2-0.51 0.2-0.19 0-0.38-0.07-0.53-0.22l-0.99003-0.99c-0.29-0.29-0.29-0.77 0-1.06 0.29003-0.29 0.77003-0.29 1.06 0l0.48 0.48 1.6-1.48c0.31-0.28 0.78-0.26 1.06 0.04s0.26 0.77-0.04 1.06z"/>
</svg>
