<?xml version="1.0" encoding="UTF-8"?>
<svg width="24" height="24" viewBox="0 0 24 24" xmlns="http://www.w3.org/2000/svg">
 <path d="m20.27 17.19c-1 0.91-2.29 1.41-3.64 1.4h-0.09c0.3-0.62 0.46-1.32 0.46-2.06 0-2.76-2.24-5-5-5-2.76 0-5 2.24-5 5 0 0.74 0.16 1.44 0.46 2.06h-1.92c-4.68-0.33-4.68-7.14 0-7.47h0.05001c-3.21-8.93 10.33-12.5 11.88-3.12 4.33 0.55 6.08 6.32 2.8 9.19z" opacity=".4"/>
 <path d="m12 11.53c-2.76 0-5 2.24-5 5 0 0.74 0.16 1.44 0.46 2.06 0.08 0.18 0.17 0.35 0.27 0.51 0.86 1.45 2.45 2.43 4.27 2.43s3.41-0.98 4.27-2.43c0.1-0.16 0.19-0.33 0.27-0.51 0.3-0.62 0.46-1.32 0.46-2.06 0-2.76-2.24-5-5-5zm1.5 6.61c-0.15 0.15-0.34 0.22-0.53 0.22s-0.38-0.07-0.53-0.22l-0.53-0.53-0.55 0.55c-0.15 0.15-0.34 0.22-0.53 0.22s-0.38-0.07-0.53-0.22c-0.29-0.29-0.29-0.77 0-1.06l0.55-0.55-0.53-0.53c-0.29-0.29-0.29-0.77 0-1.06s0.77-0.29 1.06 0l0.53 0.53 0.5-0.5c0.29-0.29 0.77-0.29 1.06 0s0.29 0.77 0 1.06l-0.5 0.5 0.53 0.53c0.29 0.3 0.29 0.77 0 1.06z"/>
</svg>
