<svg width="24" height="24" viewBox="0 0 24 24"  xmlns="http://www.w3.org/2000/svg">
<path d="M16.6698 20.8295C16.6498 20.8295 16.6398 20.8295 16.6298 20.8295H5.53979C2.59979 20.6195 1.27979 18.3495 1.27979 16.3395C1.27979 14.5395 2.32979 12.5395 4.60979 11.9895C3.97979 9.46952 4.52979 7.10952 6.18979 5.39952C8.06978 3.45952 11.0598 2.70952 13.6098 3.53952C13.9998 3.66952 14.2198 4.08952 14.0898 4.47952C13.9598 4.86952 13.5398 5.08952 13.1498 4.95952C11.1198 4.30952 8.74979 4.89952 7.25979 6.44952C5.80979 7.94952 5.46979 10.0395 6.29979 12.3495C6.37979 12.5795 6.34979 12.8395 6.20979 13.0295C6.06979 13.2195 5.83978 13.3495 5.59978 13.3495C3.65978 13.4895 2.78979 14.9495 2.78979 16.3395C2.78979 17.7295 3.65978 19.1895 5.59978 19.3395H16.6398C17.7798 19.3495 18.9198 18.9195 19.7698 18.1395C20.9198 17.1295 21.4198 15.6595 21.1698 14.0995C21.0998 13.6895 21.3798 13.3095 21.7898 13.2395C22.1998 13.1695 22.5798 13.4495 22.6498 13.8595C22.9898 15.9195 22.2798 17.9395 20.7798 19.2595C19.6598 20.2595 18.1998 20.8295 16.6698 20.8295Z" />
<path d="M7.25979 13.7595C7.14979 13.7595 7.02978 13.7295 6.92978 13.6795C6.50978 13.4695 6.04979 13.3595 5.57979 13.3495C5.16979 13.3395 4.83979 12.9995 4.83979 12.5895C4.84979 12.1795 5.23978 11.8395 5.59978 11.8495C6.28978 11.8595 6.97979 12.0295 7.58979 12.3395C7.95979 12.5195 8.10978 12.9795 7.92978 13.3495C7.79978 13.6095 7.53979 13.7595 7.25979 13.7595Z" />
<path d="M18.4698 12.7495C16.1298 12.7495 14.2198 10.8395 14.2198 8.49952C14.2198 7.39952 14.6398 6.35952 15.3998 5.57952C15.4198 5.54952 15.4398 5.52952 15.4598 5.50952C16.2598 4.69952 17.3198 4.25952 18.4598 4.25952C20.7998 4.25952 22.7098 6.16952 22.7098 8.50952C22.7098 9.80952 22.1298 11.0195 21.1098 11.8295C20.3798 12.4195 19.4398 12.7495 18.4698 12.7495ZM16.5998 6.49952C16.5798 6.52952 16.5598 6.54952 16.5298 6.57952C16.0098 7.08952 15.7198 7.77952 15.7198 8.50952C15.7198 10.0295 16.9498 11.2595 18.4698 11.2595C19.0898 11.2595 19.6998 11.0495 20.1798 10.6595C20.8498 10.1295 21.2198 9.34952 21.2198 8.50952C21.2198 6.98952 19.9898 5.75952 18.4698 5.75952C17.7598 5.74952 17.0998 6.01952 16.5998 6.49952Z" />
</svg>
