<svg width="24" height="24" viewBox="0 0 24 24"  xmlns="http://www.w3.org/2000/svg">
<path d="M16.6698 20.8299C16.6498 20.8299 16.6398 20.8299 16.6298 20.8299H5.53979C2.59979 20.6199 1.27979 18.3499 1.27979 16.3399C1.27979 14.5399 2.32979 12.5399 4.60979 11.9899C3.60979 8.14995 5.50979 5.45995 7.74979 4.18995C10.3498 2.70995 14.2198 2.69995 16.5698 5.54995C16.5898 5.57995 16.6098 5.60995 16.6298 5.63995C17.3298 6.52995 17.8198 7.59995 18.0998 8.83995C19.3298 9.10995 20.3898 9.76995 21.2198 10.7499C23.1098 12.9799 23.4698 16.8599 20.7698 19.2399C19.6498 20.2699 18.1998 20.8299 16.6698 20.8299ZM11.4898 4.69995C10.4298 4.69995 9.37979 4.98995 8.49979 5.48995C6.07979 6.86995 5.25979 9.42995 6.29979 12.3499C6.37979 12.5799 6.34979 12.8399 6.20979 13.0299C6.06979 13.2199 5.83978 13.3499 5.59978 13.3499C3.65978 13.4899 2.78979 14.9499 2.78979 16.3399C2.78979 17.7299 3.65978 19.1899 5.59978 19.3399H16.6398C17.7998 19.3499 18.9198 18.9199 19.7698 18.1399L19.7798 18.1299C21.8098 16.3499 21.5098 13.4199 20.0798 11.7299C19.3798 10.8999 18.4498 10.3899 17.3798 10.2499C17.0498 10.2099 16.7898 9.95995 16.7398 9.62995C16.5298 8.38995 16.0898 7.34995 15.4298 6.52995C15.4098 6.50995 15.3998 6.47995 15.3798 6.45995C14.3198 5.21995 12.8998 4.69995 11.4898 4.69995Z" />
<path d="M7.25979 13.7599C7.14979 13.7599 7.02978 13.7299 6.92978 13.6799C6.50978 13.4699 6.04979 13.3599 5.57979 13.3499C5.16979 13.3399 4.83979 12.9999 4.83979 12.5899C4.84979 12.1799 5.23978 11.8399 5.59978 11.8499C6.28978 11.8599 6.97979 12.0299 7.58979 12.3399C7.95979 12.5199 8.10978 12.9799 7.92978 13.3499C7.79978 13.6099 7.53979 13.7599 7.25979 13.7599Z" />
<path d="M15.8498 10.6699C15.5698 10.6699 15.3098 10.5199 15.1798 10.2499C14.9898 9.87995 15.1498 9.42995 15.5198 9.23995C16.1398 8.92995 16.8298 8.75995 17.5098 8.74995C17.9098 8.73995 18.2698 9.06995 18.2698 9.48995C18.2798 9.89995 17.9498 10.2499 17.5298 10.2499C17.0698 10.2599 16.5998 10.3699 16.1798 10.5799C16.0698 10.6399 15.9598 10.6699 15.8498 10.6699Z" />
<path d="M20.6498 11.9799C20.4398 11.9799 20.2198 11.8899 20.0698 11.7099C19.3798 10.8799 18.4398 10.3699 17.3698 10.2299C17.0398 10.1899 16.7798 9.93995 16.7298 9.60995C16.5198 8.36995 16.0798 7.32995 15.4198 6.50995C15.3098 6.37995 15.2498 6.20995 15.2498 6.03995C15.2498 5.83995 15.3298 5.63995 15.4698 5.49995C16.2698 4.68995 17.3298 4.24995 18.4698 4.24995C20.8098 4.24995 22.7198 6.15995 22.7198 8.49995C22.7198 9.79995 22.1398 11.0099 21.1198 11.8199C20.9798 11.9299 20.8198 11.9799 20.6498 11.9799ZM18.1098 8.83995C19.0698 9.04995 19.9398 9.49995 20.6598 10.1599C21.0198 9.68995 21.2198 9.10995 21.2198 8.49995C21.2198 6.97995 19.9898 5.74995 18.4698 5.74995C17.9498 5.74995 17.4498 5.88995 17.0198 6.16995C17.5298 6.93995 17.8898 7.83995 18.1098 8.83995Z" />
</svg>
