<?xml version="1.0" encoding="UTF-8"?>
<svg width="24" height="24" viewBox="0 0 24 24" xmlns="http://www.w3.org/2000/svg">
 <path d="m20.48 10.69-18.47 5.03c0.11-1.59 1.1-3.26 3.1-3.75-0.59-2.33-0.09-4.52 1.43-6.11 1.73-1.81 4.49-2.53 6.87-1.79 2.19 0.67 3.73 2.47 4.28 4.97 1.09 0.25 2.06 0.82 2.79 1.65z"/>
 <path d="m20.17 18.74c-1.04 0.95-2.4 1.48-3.82 1.48h-10.38c-2.74-0.2-3.97-2.31-3.97-4.19 0-0.1 0-0.2 0.01-0.31l18.47-5.03c0.57 0.61 1 1.36 1.26 2.22 0.66 2.17 0.06 4.4-1.57 5.83z" opacity=".4"/>
</svg>
