<svg width="24" height="24" viewBox="0 0 24 24"  xmlns="http://www.w3.org/2000/svg">
<path opacity="0.4" d="M22 8V16.19C22 19.83 19.83 22 16.19 22H7.81C4.17 22 2 19.83 2 16.19V8.01L22 8Z" />
<path d="M8.99996 17.7504C8.88996 17.7504 8.76996 17.7204 8.66996 17.6704C7.89996 17.2804 7.23996 16.7004 6.75996 15.9804C6.35996 15.3804 6.35996 14.6104 6.75996 14.0104C7.23996 13.2904 7.89996 12.7104 8.66996 12.3304C9.03996 12.1404 9.48996 12.3004 9.67996 12.6704C9.86996 13.0404 9.71996 13.4904 9.33996 13.6804C8.79996 13.9504 8.33996 14.3604 8.00996 14.8604C7.94996 14.9504 7.94996 15.0704 8.00996 15.1704C8.33996 15.6704 8.79996 16.0804 9.33996 16.3504C9.70996 16.5404 9.85996 16.9904 9.67996 17.3604C9.53996 17.6004 9.26996 17.7504 8.99996 17.7504Z" />
<path d="M15.21 17.7504C14.93 17.7504 14.67 17.6004 14.54 17.3404C14.35 16.9704 14.5 16.5204 14.88 16.3304C15.42 16.0604 15.88 15.6504 16.21 15.1504C16.27 15.0604 16.27 14.9404 16.21 14.8404C15.88 14.3404 15.42 13.9304 14.88 13.6604C14.51 13.4704 14.36 13.0204 14.54 12.6504C14.73 12.2804 15.18 12.1304 15.55 12.3104C16.32 12.7004 16.98 13.2804 17.46 14.0004C17.86 14.6004 17.86 15.3704 17.46 15.9704C16.98 16.6904 16.32 17.2704 15.55 17.6504C15.43 17.7204 15.32 17.7504 15.21 17.7504Z" />
<path d="M22 7.81V8L2 8.01V7.81C2 4.17 4.17 2 7.81 2H16.19C19.83 2 22 4.17 22 7.81Z" />
</svg>
