<?xml version="1.0" encoding="UTF-8"?>
<svg width="24" height="24" viewBox="0 0 24 24" xmlns="http://www.w3.org/2000/svg">
 <path d="M22 8V16.19C22 19.83 19.83 22 16.19 22H7.81C4.17 22 2 19.83 2 16.19V8.01L22 8Z" opacity=".4"/>
 <path d="m9 17.75c-0.11 0-0.23-0.03-0.33-0.08-0.77-0.39-1.43-0.97-1.91-1.69-0.4-0.6-0.4-1.37 0-1.97 0.48-0.72 1.14-1.3 1.91-1.68 0.37-0.19 0.82-0.03 1.01 0.34s0.04 0.82-0.34 1.01c-0.54 0.27-1 0.68-1.33 1.18-0.06 0.09-0.06 0.21 0 0.31 0.33 0.5 0.79 0.91 1.33 1.18 0.37 0.19 0.52 0.64 0.34 1.01-0.14 0.24-0.41 0.39-0.68 0.39z"/>
 <path d="m15.21 17.75c-0.28 0-0.54-0.15-0.67-0.41-0.19-0.37-0.04-0.82 0.34-1.01 0.54-0.27 1-0.68 1.33-1.18 0.06-0.09 0.06-0.21 0-0.31-0.33-0.5-0.79-0.91-1.33-1.18-0.37-0.19-0.52-0.64-0.34-1.01 0.19-0.37 0.64-0.52 1.01-0.34 0.77 0.39 1.43 0.97 1.91 1.69 0.4 0.6 0.4 1.37 0 1.97-0.48 0.72-1.14 1.3-1.91 1.68-0.12 0.07-0.23 0.1-0.34 0.1z"/>
 <path d="M22 7.81V8L2 8.01V7.81C2 4.17 4.17 2 7.81 2H16.19C19.83 2 22 4.17 22 7.81Z"/>
</svg>
