<?xml version="1.0" encoding="UTF-8"?>
<svg width="24" height="24" viewBox="0 0 24 24" xmlns="http://www.w3.org/2000/svg">
 <path d="m17.79 10.47v1.53h-15.79v-1.53c0-2.32 1.89-4.21 4.21-4.21h7.37c2.32 0 4.21 1.89 4.21 4.21z" opacity=".6"/>
 <path d="M17.79 12V17.79C17.79 20.11 15.9 22 13.58 22H6.21C3.89 22 2 20.11 2 17.79V12H17.79Z" opacity=".4"/>
 <path d="m5.5 5.1201c-0.41 0-0.75-0.34-0.75-0.75v-1.75c0-0.41 0.34-0.75 0.75-0.75s0.75 0.34 0.75 0.75v1.75c0 0.42-0.34 0.75-0.75 0.75z"/>
 <path d="m9.5 5.1201c-0.41 0-0.75-0.34-0.75-0.75v-1.75c0-0.41 0.34-0.75 0.75-0.75s0.75 0.34 0.75 0.75v1.75c0 0.42-0.34 0.75-0.75 0.75z"/>
 <path d="m13.5 5.1201c-0.41 0-0.75-0.34-0.75-0.75v-1.75c0-0.41 0.34-0.75 0.75-0.75s0.75 0.34 0.75 0.75v1.75c0 0.42-0.34 0.75-0.75 0.75z"/>
 <path d="m21.65 14.32c0 2.15-1.74 3.89-3.89 3.89v-7.79c2.14 0 3.89 1.75 3.89 3.9z"/>
</svg>
