<?xml version="1.0" encoding="UTF-8"?>
<svg width="24" height="24" viewBox="0 0 24 24" xmlns="http://www.w3.org/2000/svg">
 <path d="m18.5 12.65v3.7c0 3.12-2.91 5.65-6.5 5.65s-6.5-2.53-6.5-5.65v-3.7c0 3.12 2.91 5.35 6.5 5.35s6.5-2.23 6.5-5.35z"/>
 <path d="m18.5 7.65v5c0 3.12-2.91 5.35-6.5 5.35s-6.5-2.23-6.5-5.35v-5c0 0.91 0.25 1.75 0.69 2.47 1.07 1.76 3.27 2.88 5.81 2.88s4.74-1.12 5.81-2.88c0.44-0.71998 0.69-1.56 0.69-2.47z" opacity=".4"/>
 <path d="m18.5 7.65c0 0.91-0.25 1.75-0.69 2.47-1.07 1.76-3.27 2.88-5.81 2.88s-4.74-1.12-5.81-2.88c-0.44-0.72-0.69-1.56-0.69-2.47 0-3.12 2.91-5.65 6.5-5.65 1.8 0 3.42 0.63 4.6 1.65 1.17 1.03 1.9 2.44 1.9 4z"/>
</svg>
