<?xml version="1.0" encoding="UTF-8"?>
<svg width="24" height="24" viewBox="0 0 24 24" xmlns="http://www.w3.org/2000/svg">
 <path d="m9.99 17.98c4.4128 0 7.99-3.5772 7.99-7.99 0-4.4128-3.5772-7.99-7.99-7.99-4.4128 0-7.99 3.5772-7.99 7.99 0 4.4128 3.5772 7.99 7.99 7.99z" opacity=".4"/>
 <path d="m21.97 15.99c0 3.3-2.68 5.98-5.98 5.98-2.04 0-3.83-1.02-4.91-2.57 4.36-0.49 7.83-3.96 8.32-8.32 1.55 1.08 2.57 2.87 2.57 4.91z"/>
 <path d="m11.45 9.71-2.4-0.84c-0.24-0.08-0.29-0.1-0.29-0.45 0-0.26 0.18-0.47 0.41-0.47h1.5c0.32 0 0.58 0.29 0.58 0.65 0 0.41 0.34 0.75 0.75 0.75s0.75-0.34 0.75-0.75c0-1.15-0.89-2.09-2-2.14v-0.05c0-0.41-0.34-0.75-0.75-0.75s-0.75 0.33-0.75 0.75v0.05h-0.09c-1.05 0-1.91 0.88-1.91 1.97 0 0.95 0.42 1.56 1.29 1.86l2.41 0.84c0.24 0.08 0.29 0.1 0.29 0.45 0 0.26-0.18 0.47-0.41 0.47h-1.5c-0.32 0-0.58-0.29-0.58-0.65 0-0.41-0.34-0.75-0.75-0.75s-0.75 0.34-0.75 0.75c0 1.15 0.89 2.09 2 2.14v0.06c0 0.41 0.34 0.75 0.75 0.75s0.75-0.34 0.75-0.75v-0.05h0.09c1.05 0 1.91-0.88 1.91-1.97 0-0.95-0.43-1.56-1.3-1.87z"/>
</svg>
