<?xml version="1.0" encoding="UTF-8"?>
<svg width="24" height="24" viewBox="0 0 24 24" xmlns="http://www.w3.org/2000/svg">
 <path d="m22 16.5v3c0 1.5-1 2.5-2.5 2.5h-13.5c0.41 0 0.83-0.06 1.22-0.19 0.11-0.04 0.21999-0.08 0.32999-0.13 0.35-0.14 0.69002-0.34 0.99002-0.6 0.09-0.07 0.19-0.16 0.28-0.25l0.03998-0.04 6.8-6.79h3.84c1.5 0 2.5 1 2.5 2.5z" opacity=".4"/>
 <path d="m18.37 11.29-2.71 2.71-6.8 6.79c0.7-0.72 1.14-1.71 1.14-2.79v-9.66l2.71-2.71c1.06-1.06 2.48-1.06 3.54 0l2.12 2.12c1.06 1.06 1.06 2.48 0 3.54z" opacity=".6"/>
 <path d="m7.5 2h-3c-1.5 0-2.5 1-2.5 2.5v13.5c0 0.27 0.02999 0.54 0.07999 0.8 0.03 0.13 0.06 0.26 0.1 0.39 0.05 0.15 0.10001 0.3 0.16001 0.44 0.01 0.01 0.01001 0.02 0.01001 0.02 0.01 0 0.01 0 0 0.01 0.14 0.28 0.29999 0.55 0.48999 0.8 0.11 0.13 0.22001 0.25 0.33001 0.37s0.22999 0.22 0.35999 0.32l0.01001 0.01c0.25 0.19 0.51999 0.35 0.79999 0.49 0.01-0.01 0.01001-0.01 0.01001 0 0.15 0.07 0.29999 0.12 0.45999 0.17 0.13 0.04 0.26001 0.07 0.39001 0.1 0.26 0.05 0.52999 0.08 0.79999 0.08 0.41 0 0.83-0.06 1.22-0.19 0.11-0.04 0.21999-0.08 0.32999-0.13 0.35-0.14 0.69002-0.34 0.99002-0.6 0.09-0.07 0.19-0.16 0.28-0.25l0.03998-0.04c0.7-0.72 1.14-1.71 1.14-2.79v-13.5c0-1.5-1-2.5-2.5-2.5zm-1.5 17.5c-0.83 0-1.5-0.67-1.5-1.5s0.67-1.5 1.5-1.5 1.5 0.67 1.5 1.5-0.67 1.5-1.5 1.5z"/>
</svg>
