<?xml version="1.0" encoding="UTF-8"?>
<svg width="24" height="24" viewBox="0 0 24 24" xmlns="http://www.w3.org/2000/svg">
 <path d="m14 16c0 1.77-0.77 3.37-2 4.46-1.06 0.96-2.46 1.54-4 1.54-3.31 0-6-2.69-6-6 0-2.76 1.88-5.1 4.42-5.79 0.69 1.74 2.17 3.08 4 3.58 0.5 0.14 1.03 0.21 1.58 0.21s1.08-0.07 1.58-0.21c0.27 0.68 0.42 1.43 0.42 2.21z" opacity=".6"/>
 <path d="m18 8c0 0.78-0.15 1.53-0.42 2.21-0.69 1.74-2.17 3.08-4 3.58-0.5 0.14-1.03 0.21-1.58 0.21s-1.08-0.07-1.58-0.21c-1.83-0.5-3.31-1.84-4-3.58-0.27-0.68-0.42-1.43-0.42-2.21 0-3.31 2.69-6 6-6s6 2.69 6 6z"/>
 <path d="m22 16c0 3.31-2.69 6-6 6-1.54 0-2.94-0.58-4-1.54 1.23-1.09 2-2.69 2-4.46 0-0.78-0.15-1.53-0.42-2.21 1.83-0.5 3.31-1.84 4-3.58 2.54 0.69 4.42 3.03 4.42 5.79z" opacity=".4"/>
</svg>
