<svg width="24" height="24" viewBox="0 0 24 24"  xmlns="http://www.w3.org/2000/svg">
<path opacity="0.4" d="M16.19 2H7.82001C4.18001 2 2.01001 4.17 2.01001 7.81V16.18C2.01001 19.82 4.18001 21.99 7.82001 21.99H16.19C19.83 21.99 22 19.82 22 16.18V7.81C22 4.17 19.83 2 16.19 2Z" />
<path d="M10.7501 14.1498H13.2601C13.7501 14.1498 14.1601 13.7498 14.1601 13.2498V10.7398C14.1601 10.2498 13.7601 9.83984 13.2601 9.83984H10.7501C10.2601 9.83984 9.8501 10.2398 9.8501 10.7398V13.2498C9.8501 13.7498 10.2501 14.1498 10.7501 14.1498Z" />
<path d="M7.79999 18.0004C8.78999 18.0004 9.59998 17.1904 9.59998 16.2004V15.4004C9.59998 14.8504 9.14998 14.4004 8.59998 14.4004H7.79999C6.80999 14.4004 6 15.2104 6 16.2004C6 17.1904 6.80999 18.0004 7.79999 18.0004Z" />
<path d="M7.79999 9.60001H8.59998C9.14998 9.60001 9.59998 9.15001 9.59998 8.60001V7.79999C9.59998 6.80999 8.78999 6 7.79999 6C6.80999 6 6 6.80999 6 7.79999C6 8.78999 6.80999 9.60001 7.79999 9.60001Z" />
<path d="M15.3999 9.60001H16.1999C17.1899 9.60001 17.9999 8.78999 17.9999 7.79999C17.9999 6.80999 17.1899 6 16.1999 6C15.2099 6 14.3999 6.80999 14.3999 7.79999V8.60001C14.3999 9.15001 14.8499 9.60001 15.3999 9.60001Z" />
<path d="M16.1999 18.0004C17.1899 18.0004 17.9999 17.1904 17.9999 16.2004C17.9999 15.2104 17.1899 14.4004 16.1999 14.4004H15.3999C14.8499 14.4004 14.3999 14.8504 14.3999 15.4004V16.2004C14.3999 17.1904 15.2099 18.0004 16.1999 18.0004Z" />
</svg>
