<?xml version="1.0" encoding="UTF-8"?>
<svg width="24" height="24" viewBox="0 0 24 24" xmlns="http://www.w3.org/2000/svg">
 <path d="m16.19 2h-8.37c-3.64 0-5.81 2.17-5.81 5.81v8.37c0 3.64 2.17 5.81 5.81 5.81h8.37c3.64 0 5.81-2.17 5.81-5.81v-8.37c0-3.64-2.17-5.81-5.81-5.81z" opacity=".4"/>
 <path d="m10.75 14.15h2.51c0.49 0 0.9-0.4 0.9-0.9v-2.51c0-0.49-0.4-0.89996-0.9-0.89996h-2.51c-0.49 0-0.9 0.39996-0.9 0.89996v2.51c0 0.5 0.4 0.9 0.9 0.9z"/>
 <path d="m7.8 18c0.99 0 1.8-0.81 1.8-1.8v-0.8c0-0.55-0.45-1-1-1h-0.79999c-0.99 0-1.8 0.81-1.8 1.8s0.80999 1.8 1.8 1.8z"/>
 <path d="m7.8 9.6h0.79999c0.55 0 1-0.45 1-1v-0.80002c0-0.99-0.80999-1.8-1.8-1.8s-1.8 0.80999-1.8 1.8 0.80999 1.8 1.8 1.8z"/>
 <path d="m15.4 9.6h0.8c0.99 0 1.8-0.81002 1.8-1.8s-0.81-1.8-1.8-1.8-1.8 0.80999-1.8 1.8v0.80002c0 0.55 0.45 1 1 1z"/>
 <path d="m16.2 18c0.99 0 1.8-0.81 1.8-1.8s-0.81-1.8-1.8-1.8h-0.8c-0.55 0-1 0.45-1 1v0.8c0 0.99 0.81 1.8 1.8 1.8z"/>
</svg>
