<svg width="24" height="24" viewBox="0 0 24 24"  xmlns="http://www.w3.org/2000/svg">
<path d="M14.9702 22.75H8.97021C3.54022 22.75 1.22021 20.43 1.22021 15V9C1.22021 3.57 3.54022 1.25 8.97021 1.25H14.9702C20.4002 1.25 22.7202 3.57 22.7202 9V15C22.7202 20.43 20.4102 22.75 14.9702 22.75ZM8.97021 2.75C4.36021 2.75 2.72021 4.39 2.72021 9V15C2.72021 19.61 4.36021 21.25 8.97021 21.25H14.9702C19.5802 21.25 21.2202 19.61 21.2202 15V9C21.2202 4.39 19.5802 2.75 14.9702 2.75H8.97021Z" />
<path d="M3.27021 20.45C3.08021 20.45 2.89021 20.38 2.74021 20.23C2.45021 19.94 2.45021 19.46 2.74021 19.17L19.1902 2.72C19.4802 2.43 19.9602 2.43 20.2502 2.72C20.5402 3.01 20.5402 3.49 20.2502 3.78L3.80021 20.23C3.66021 20.38 3.47021 20.45 3.27021 20.45Z" />
<path d="M16.0602 18.75C15.6502 18.75 15.3102 18.41 15.3102 18V13C15.3102 12.59 15.6502 12.25 16.0602 12.25C16.4702 12.25 16.8102 12.59 16.8102 13V18C16.8102 18.41 16.4702 18.75 16.0602 18.75Z" />
<path d="M18.5002 16.25H13.5002C13.0902 16.25 12.7502 15.91 12.7502 15.5C12.7502 15.09 13.0902 14.75 13.5002 14.75H18.5002C18.9102 14.75 19.2502 15.09 19.2502 15.5C19.2502 15.91 18.9102 16.25 18.5002 16.25Z" />
<path d="M10.5002 8.25H5.50021C5.09021 8.25 4.75021 7.91 4.75021 7.5C4.75021 7.09 5.09021 6.75 5.50021 6.75H10.5002C10.9102 6.75 11.2502 7.09 11.2502 7.5C11.2502 7.91 10.9102 8.25 10.5002 8.25Z" />
</svg>
