<?xml version="1.0" encoding="UTF-8"?>
<svg width="24" height="24" viewBox="0 0 24 24" xmlns="http://www.w3.org/2000/svg">
 <path d="M22 7.81V16.19C22 19.83 19.83 22 16.19 22H7.81C6.32 22 5.08 21.64 4.13 20.95C3.71 20.66 3.34 20.29 3.05 19.87C2.36 18.92 2 17.68 2 16.19V7.81C2 4.17 4.17 2 7.81 2H16.19C17.68 2 18.92 2.36 19.87 3.05C20.29 3.34 20.66 3.71 20.95 4.13C21.64 5.08 22 6.32 22 7.81Z" opacity=".4"/>
 <path d="m20.95 4.1298-16.82 16.82c-0.42-0.29-0.79-0.66-1.08-1.08l16.82-16.82c0.42 0.29 0.79 0.66 1.08 1.08z"/>
 <path d="m18.5 14.75h-1.69v-1.75c0-0.41-0.34-0.75-0.75-0.75s-0.75 0.34-0.75 0.75v1.75h-1.81c-0.41 0-0.75 0.34-0.75 0.75s0.34 0.75 0.75 0.75h1.81v1.75c0 0.41 0.34 0.75 0.75 0.75s0.75-0.34 0.75-0.75v-1.75h1.69c0.41 0 0.75-0.34 0.75-0.75s-0.34-0.75-0.75-0.75z"/>
 <path d="m10.5 8.25h-5c-0.41 0-0.75-0.34-0.75-0.75s0.34-0.75 0.75-0.75h5c0.41 0 0.75 0.34 0.75 0.75s-0.34 0.75-0.75 0.75z"/>
</svg>
