<?xml version="1.0" encoding="UTF-8"?>
<svg width="24" height="24" viewBox="0 0 24 24" xmlns="http://www.w3.org/2000/svg">
 <path d="m15 22.75c-0.27 0-0.52-0.15-0.65-0.38s-0.13-0.52 0.01-0.75l1.05-1.75c0.21-0.36 0.67-0.47 1.03-0.26s0.47 0.67 0.26 1.03l-0.27 0.45c2.76-0.65 4.83-3.13 4.83-6.09 0-0.41 0.34-0.75 0.75-0.75s0.75 0.34 0.75 0.75c-0.01 4.27-3.49 7.75-7.76 7.75z" opacity=".4"/>
 <path d="m2 9.75c-0.41 0-0.75-0.34-0.75-0.75 0-4.27 3.48-7.75 7.75-7.75 0.27 0 0.51999 0.15 0.64999 0.38s0.13001 0.52-0.00999 0.75l-1.05 1.75c-0.21 0.36001-0.67 0.47001-1.03 0.26001s-0.47-0.67002-0.26-1.03l0.27001-0.45002c-2.76 0.65-4.83 3.13-4.83 6.09 0.01 0.41-0.33001 0.75-0.74001 0.75z" opacity=".4"/>
 <path d="m10.67 13.85-3.14-1.69c-0.33-0.18-0.73-0.18-1.06 0l-3.14 1.69c-0.23 0.12-0.36999 0.37-0.36999 0.64s0.13999 0.52 0.36999 0.64l3.14 1.69c0.17 0.09 0.35 0.13 0.53 0.13s0.36-0.04 0.53-0.13l3.14-1.69c0.23-0.12 0.37-0.37 0.37-0.64s-0.15-0.51-0.37-0.64z"/>
 <path d="m5.9502 17.41-2.92-1.4599c-0.22-0.11-0.48-0.1001-0.7 0.0299-0.21 0.13-0.34 0.3601-0.34 0.6101v2.7599c0 0.48 0.25999 0.91 0.68999 1.12l2.92 1.46c0.1 0.05 0.21 0.08 0.32 0.08 0.13 0 0.26-0.0399 0.38-0.1099 0.21-0.13 0.34-0.3601 0.34-0.6101v-2.7599c0.01-0.48-0.26-0.9101-0.69-1.1201z"/>
 <path d="m11.66 15.98c-0.21-0.13-0.47-0.1399-0.7-0.0299l-2.92 1.4599c-0.43 0.21-0.68998 0.6401-0.68998 1.1201v2.7599c0 0.25 0.12999 0.4801 0.33999 0.6101 0.12 0.07 0.25001 0.1099 0.38001 0.1099 0.11 0 0.21999-0.03 0.31999-0.08l2.92-1.46c0.43-0.21 0.69-0.64 0.69-1.12v-2.7599c0-0.25-0.13-0.4801-0.34-0.6101z"/>
 <path d="m20.67 3.8299-3.14-1.69c-0.33-0.18-0.73-0.18-1.06 0l-3.14 1.69c-0.23 0.12-0.37 0.36995-0.37 0.63995s0.14 0.52001 0.37 0.64001l3.14 1.69c0.17 0.09 0.35 0.13 0.53 0.13s0.36-0.04 0.53-0.13l3.14-1.69c0.23-0.12 0.37-0.37001 0.37-0.64001 0-0.28-0.15-0.51995-0.37-0.63995z"/>
 <path d="m15.95 7.3799-2.92-1.46c-0.22-0.11-0.48-0.09997-0.7 0.03003-0.21 0.13-0.34 0.35999-0.34 0.60999v2.76c0 0.48 0.26 0.91003 0.69 1.12l2.92 1.46c0.1 0.05 0.21 0.0799 0.32 0.0799 0.13 0 0.26-0.0399 0.38-0.1099 0.21-0.13 0.34-0.36 0.34-0.61v-2.76c0.01-0.48-0.26-0.91-0.69-1.12z"/>
 <path d="m21.66 5.9499c-0.21-0.13-0.47-0.14003-0.7-0.03003l-2.92 1.46c-0.43 0.21-0.69 0.64-0.69 1.12v2.76c0 0.25 0.13 0.48 0.34 0.61 0.12 0.07 0.25 0.1099 0.38 0.1099 0.11 0 0.22-0.0299 0.32-0.0799l2.92-1.46c0.43-0.21 0.69-0.64003 0.69-1.12v-2.76c0-0.25-0.13-0.47999-0.34-0.60999z"/>
</svg>
