<?xml version="1.0" encoding="UTF-8"?>
<svg width="24" height="24" viewBox="0 0 24 24" xmlns="http://www.w3.org/2000/svg">
 <path d="m22.03 12.03c0 3.03-1.35 5.75-3.49 7.59-0.38 0.32-0.78 0.62-1.21 0.89-1.53 0.96-3.35 1.52-5.3 1.52-5.52 0-10-4.48-10-10 0-3.03 1.35-5.75 3.49-7.59 0.38-0.32 0.78-0.62 1.21-0.89 1.53-0.96 3.35-1.52 5.3-1.52 5.52 0 10 4.48 10 10z" opacity=".4"/>
 <path d="m15.1 7.68-0.01 4.55c0 0.31-0.19 0.58-0.47 0.69-0.09 0.04-0.19 0.06-0.28 0.06-0.2 0-0.39-0.08-0.53-0.22l-8.19-8.2c-0.04-0.04-0.07-0.08-0.1-0.12 0.38-0.32 0.78-0.62 1.21-0.89l6.86 6.87 0.01-2.74c0-0.41 0.34-0.75 0.75-0.75 0.42 0 0.75 0.34 0.75 0.75z"/>
 <path d="m18.54 19.62c-0.38 0.32-0.78 0.62-1.21 0.89l-6.86-6.87-0.01 2.74c0 0.41-0.34 0.75-0.75004 0.75-0.42 0-0.75-0.34-0.75-0.75l0.01-4.55c0-0.31 0.19-0.58 0.47-0.69 0.27-0.12 0.60004-0.06 0.81004 0.16l8.19 8.2c0.04 0.04 0.07 0.08 0.1 0.12z"/>
</svg>
