<?xml version="1.0" encoding="UTF-8"?>
<svg width="24" height="24" viewBox="0 0 24 24" xmlns="http://www.w3.org/2000/svg">
 <path d="m12 22c-5.52 0-10-4.48-10-10s4.48-10 10-10 10 4.48 10 10-4.48 10-10 10z" opacity=".4"/>
 <path d="m12.24 16.75c-2.62 0-4.75-2.13-4.75-4.75s2.13-4.75 4.75-4.75c1.15 0 2.27 0.42 3.13 1.19 0.31 0.27 0.34 0.75 0.07 1.06-0.28 0.31-0.75 0.34001-1.06 0.07001-0.59-0.52-1.35-0.81-2.14-0.81-1.79 0-3.25 1.46-3.25 3.25s1.46 3.25 3.25 3.25c0.78 0 1.55-0.29 2.14-0.81 0.31-0.27 0.79-0.24 1.06 0.07s0.24 0.79-0.07 1.06c-0.87 0.75-1.98 1.17-3.13 1.17z"/>
</svg>
