<svg width="24" height="24" viewBox="0 0 24 24"  xmlns="http://www.w3.org/2000/svg">
<path d="M22 22.7495H2C1.59 22.7495 1.25 22.4095 1.25 21.9995C1.25 21.5895 1.59 21.2495 2 21.2495H22C22.41 21.2495 22.75 21.5895 22.75 21.9995C22.75 22.4095 22.41 22.7495 22 22.7495Z" />
<path d="M14.5 6.22944C13.56 6.22944 12.62 6.04947 11.72 5.68947C11.44 5.57947 11.25 5.29945 11.25 4.98945V1.98945C11.25 1.73945 11.37 1.50946 11.58 1.36946C11.79 1.22946 12.05 1.19944 12.28 1.28944C13.71 1.85944 15.29 1.85944 16.72 1.28944C16.95 1.19944 17.21 1.22946 17.42 1.36946C17.63 1.50946 17.75 1.73945 17.75 1.98945V4.98945C17.75 5.29945 17.56 5.56947 17.28 5.68947C16.38 6.04947 15.44 6.22944 14.5 6.22944ZM12.75 4.46943C13.89 4.81943 15.11 4.81943 16.25 4.46943V3.01948C15.1 3.29948 13.9 3.29948 12.75 3.01948V4.46943Z" />
<path d="M12 8.74951C11.59 8.74951 11.25 8.40951 11.25 7.99951V4.99951C11.25 4.58951 11.59 4.24951 12 4.24951C12.41 4.24951 12.75 4.58951 12.75 4.99951V7.99951C12.75 8.40951 12.41 8.74951 12 8.74951Z" />
<path d="M20 22.7495H4C3.59 22.7495 3.25 22.4095 3.25 21.9995V10.9995C3.25 8.57951 4.58 7.24951 7 7.24951H17C19.42 7.24951 20.75 8.57951 20.75 10.9995V21.9995C20.75 22.4095 20.41 22.7495 20 22.7495ZM4.75 21.2495H19.25V10.9995C19.25 9.41951 18.58 8.74951 17 8.74951H7C5.42 8.74951 4.75 9.41951 4.75 10.9995V21.2495Z" />
<path d="M19.4201 12.7495H4.58008C4.17008 12.7495 3.83008 12.4095 3.83008 11.9995C3.83008 11.5895 4.17008 11.2495 4.58008 11.2495H19.4201C19.8301 11.2495 20.1701 11.5895 20.1701 11.9995C20.1701 12.4095 19.8301 12.7495 19.4201 12.7495Z" />
<path d="M8.74023 11.9995H7.24023V21.9995H8.74023V11.9995Z" />
<path d="M12.7402 11.9995H11.2402V21.9995H12.7402V11.9995Z" />
<path d="M16.7402 11.9995H15.2402V21.9995H16.7402V11.9995Z" />
</svg>
