<?xml version="1.0" encoding="UTF-8"?>
<svg width="24" height="24" viewBox="0 0 24 24" xmlns="http://www.w3.org/2000/svg">
 <path d="m17.42 1.3802c-0.21-0.14-0.47-0.17002-0.7-0.08002-1.43 0.57-3.01 0.57-4.44 0-0.23-0.09-0.49-0.05998-0.7 0.08002s-0.33 0.37-0.33 0.62v6c0 0.40999 0.34 0.75 0.75 0.75s0.75-0.34001 0.75-0.75v-1.98c0.58 0.14 1.16 0.21998 1.75 0.21998 0.94 0 1.88-0.17998 2.78-0.53998 0.28-0.11 0.47-0.39001 0.47-0.70001v-3c0-0.25-0.12-0.48-0.33-0.62z" opacity=".4"/>
 <path d="m22 21.25h-1.25v-10.25c0-2.42-1.33-3.75-3.75-3.75h-10c-2.42 0-3.75 1.33-3.75 3.75v10.25h-1.25c-0.41 0-0.75 0.34-0.75 0.75s0.34 0.75 0.75 0.75h20c0.41 0 0.75-0.34 0.75-0.75s-0.34-0.75-0.75-0.75zm-2.75-8.5v8.5h-2.51v-8.5h2.51zm-8.01 8.5h-2.5v-8.5h2.5v8.5zm1.5-8.5h2.5v8.5h-2.5v-8.5zm-7.99 0h2.49v8.5h-2.49v-8.5z"/>
</svg>
