<?xml version="1.0" encoding="UTF-8"?>
<svg width="24" height="24" viewBox="0 0 24 24" xmlns="http://www.w3.org/2000/svg">
 <path d="m15 4h-6c-2.76 0-5 2.24-5 5v6c0 2.76 2.24 5 5 5h6c2.76 0 5-2.24 5-5v-6c0-2.76-2.24-5-5-5zm2.26 10.26c0 1.66-1.34 3-3 3h-4.52c-1.66 0-3-1.34-3-3v-4.52c0-1.66 1.34-3 3-3h4.51c1.66 0 3 1.34 3 3v4.52h0.01z" opacity=".4"/>
 <path d="m9.0601 2.75v1.25h-0.06c-0.5 0-0.98 0.07-1.44 0.21v-1.46c0-0.41 0.33-0.75 0.75-0.75 0.41 0 0.75 0.34 0.75 0.75z"/>
 <path d="m12.75 2.75v1.25h-1.5v-1.25c0-0.41 0.34-0.75 0.75-0.75s0.75 0.34 0.75 0.75z"/>
 <path d="m16.45 2.75v1.46c-0.46-0.14-0.95-0.21-1.45-0.21h-0.05v-1.25c0-0.41 0.34-0.75 0.75-0.75s0.75 0.34 0.75 0.75z"/>
 <path d="m22 8.2998c0 0.42-0.33 0.75-0.75 0.75h-1.25v-0.05c0-0.5-0.07-0.99-0.21-1.45h1.46c0.42 0 0.75 0.34 0.75 0.75z"/>
 <path d="m22 12c0 0.41-0.33 0.75-0.75 0.75h-1.25v-1.5h1.25c0.42 0 0.75 0.33 0.75 0.75z"/>
 <path d="m22 15.7c0 0.41-0.33 0.75-0.75 0.75h-1.46c0.14-0.46 0.21-0.95 0.21-1.45v-0.05h1.25c0.42 0 0.75 0.33 0.75 0.75z"/>
 <path d="m16.45 19.79v1.46c0 0.41-0.34 0.75-0.75 0.75s-0.75-0.34-0.75-0.75v-1.25h0.05c0.5 0 0.99-0.07 1.45-0.21z"/>
 <path d="m12.76 20v1.25c0 0.41-0.34 0.75-0.75 0.75-0.42 0-0.75-0.34-0.75-0.75v-1.25h1.5z"/>
 <path d="m9.0601 20v1.25c0 0.41-0.34 0.75-0.75 0.75-0.42 0-0.75-0.34-0.75-0.75v-1.46c0.46 0.14 0.94 0.21 1.44 0.21h0.06z"/>
 <path d="m4.21 7.5498c-0.14 0.46-0.21 0.95-0.21 1.45v0.05h-1.25c-0.41 0-0.75-0.33-0.75-0.75 0-0.41 0.34-0.75 0.75-0.75h1.46z"/>
 <path d="M4 11.25V12.75H2.75C2.34 12.75 2 12.41 2 12C2 11.58 2.34 11.25 2.75 11.25H4Z"/>
 <path d="m4.21 16.45h-1.46c-0.41 0-0.75-0.34-0.75-0.75 0-0.42 0.34-0.75 0.75-0.75h1.25v0.05c0 0.5 0.07 0.99 0.21 1.45z"/>
 <path d="m17.26 9.7402v4.51c0 1.66-1.34 3-3 3h-4.52c-1.66 0-3-1.34-3-3v-4.51c0-1.66 1.34-3 3-3h4.51c1.66 0 3.01 1.35 3.01 3z"/>
</svg>
