<?xml version="1.0" encoding="UTF-8"?>
<svg width="24" height="24" viewBox="0 0 24 24" xmlns="http://www.w3.org/2000/svg">
 <path d="m20 9v2.92l-0.78-0.45c-0.64-0.37-1.44-0.26-1.96 0.24-0.11 0.1-0.2 0.22-0.28 0.35l-0.06 0.11c-0.11 0.19-0.2 0.24-0.21 0.25-0.02-0.01-0.12-0.06-0.23-0.26l-0.06-0.1c-0.22-0.38-0.57-0.64-0.99-0.75-0.43-0.12-0.87-0.06-1.24 0.16l-0.91 0.53c-0.41 0.23-0.7 0.61-0.82 1.06-0.12 0.46-0.06 0.93 0.17 1.34 0.11 0.18 0.11 0.29 0.11 0.31-0.01 0.01-0.11 0.07-0.33 0.07-0.97 0-1.76 0.79-1.76 1.75v0.94c0 0.96 0.79 1.75 1.76 1.75 0.22 0 0.32 0.06 0.32 0.07 0.01 0.01 0.01 0.13-0.1 0.31-0.07 0.13-0.13 0.26-0.16 0.4h-3.47c-2.76 0-5-2.24-5-5v-6c0-2.76 2.24-5 5-5h6c2.76 0 5 2.24 5 5z" opacity=".4"/>
 <path d="m17.26 9.7402v1.97c-0.11 0.1-0.2 0.22-0.28 0.35l-0.06 0.11c-0.11 0.19-0.2 0.24-0.21 0.25-0.02-0.01-0.12-0.06-0.23-0.26l-0.06-0.1c-0.22-0.38-0.57-0.64-0.99-0.75-0.43-0.12-0.87-0.06-1.24 0.16l-0.91 0.53c-0.41 0.23-0.7 0.61-0.82 1.06-0.12 0.46-0.06 0.93 0.17 1.34 0.11 0.18 0.11 0.29 0.11 0.31-0.01 0.01-0.11 0.07-0.33 0.07-0.97 0-1.76 0.79-1.76 1.75v0.73h-0.90997c-1.65 0-3-1.35-3-3v-4.52c0-1.65 1.35-3 3-3h4.52c1.65 0 3 1.35 3 3z"/>
 <path d="m9.0601 2.75v1.25h-0.06c-0.5 0-0.98 0.07-1.44 0.21v-1.46c0-0.41 0.33-0.75 0.75-0.75 0.41 0 0.75 0.34 0.75 0.75z"/>
 <path d="m12.75 2.75v1.25h-1.5v-1.25c0-0.41 0.34-0.75 0.75-0.75s0.75 0.34 0.75 0.75z"/>
 <path d="m16.45 2.75v1.46c-0.46-0.14-0.95-0.21-1.45-0.21h-0.05v-1.25c0-0.41 0.34-0.75 0.75-0.75s0.75 0.34 0.75 0.75z"/>
 <path d="m22 8.2998c0 0.42-0.33 0.75-0.75 0.75h-1.25v-0.05c0-0.5-0.07-0.99-0.21-1.45h1.46c0.42 0 0.75 0.34 0.75 0.75z"/>
 <path d="m9.0601 20v1.25c0 0.41-0.34 0.75-0.75 0.75-0.42 0-0.75-0.34-0.75-0.75v-1.46c0.46 0.14 0.94 0.21 1.44 0.21h0.06z"/>
 <path d="m4.21 7.5498c-0.14 0.46-0.21 0.95-0.21 1.45v0.05h-1.25c-0.41 0-0.75-0.33-0.75-0.75 0-0.41 0.34-0.75 0.75-0.75h1.46z"/>
 <path d="M4 11.25V12.75H2.75C2.34 12.75 2 12.41 2 12C2 11.58 2.34 11.25 2.75 11.25H4Z"/>
 <path d="m4.21 16.45h-1.46c-0.41 0-0.75-0.34-0.75-0.75 0-0.42 0.34-0.75 0.75-0.75h1.25v0.05c0 0.5 0.07 0.99 0.21 1.45z"/>
 <path d="m20.99 15.53c-0.68 0-1.07-0.34-1.07-0.84 0-0.2 0.06-0.43 0.2-0.67 0.28-0.48 0.11-1.1-0.37-1.37l-0.91-0.53c-0.42-0.25-0.96-0.1-1.21 0.32l-0.06 0.1c-0.48 0.83-1.26 0.83-1.74 0l-0.06-0.1c-0.24-0.42-0.79-0.57-1.2-0.32l-0.92 0.53c-0.32 0.18-0.51 0.52-0.51 0.87 0 0.17 0.05 0.34 0.14 0.5 0.14 0.24 0.21 0.47 0.21 0.67 0 0.5-0.4 0.84-1.08 0.84-0.55 0-1.01 0.45-1.01 1v0.94c0 0.55 0.46 1 1.01 1 0.68 0 1.08 0.34 1.08 0.84 0 0.2-0.07 0.43-0.21 0.67-0.28 0.48-0.11 1.1 0.37 1.37l0.92 0.53c0.41 0.25 0.96 0.1 1.2-0.32l0.06-0.1c0.48-0.83 1.26-0.83 1.74 0l0.06 0.1c0.25 0.42 0.79 0.57 1.21 0.32l0.91-0.53c0.32-0.18 0.51-0.52 0.51-0.87 0-0.17-0.05-0.34-0.14-0.5-0.14-0.24-0.2-0.47-0.2-0.67 0-0.5 0.39-0.84 1.07-0.84 0.56 0 1.01-0.45 1.01-1v-0.94c0-0.55-0.45-1-1.01-1zm-4.29 3.19c-0.95 0-1.72-0.77-1.72-1.72s0.77-1.72 1.72-1.72 1.72 0.77 1.72 1.72-0.77 1.72-1.72 1.72z" opacity=".4"/>
 <path d="m18.42 17c0 0.95-0.77 1.72-1.72 1.72s-1.72-0.77-1.72-1.72 0.77-1.72 1.72-1.72 1.72 0.77 1.72 1.72z"/>
</svg>
