<?xml version="1.0" encoding="UTF-8"?>
<svg width="24" height="24" viewBox="0 0 24 24" xmlns="http://www.w3.org/2000/svg">
 <path d="m12 22c-5.52 0-10-4.48-10-10s4.48-10 10-10 10 4.48 10 10-4.48 10-10 10z" opacity=".4"/>
 <path d="m8.9901 15.62c-2 0-3.62-1.62-3.62-3.62 0-2 1.62-3.62 3.62-3.62 0.88 0 1.72 0.32003 2.39 0.90003 0.31 0.27 0.34 0.74999 0.07 1.06s-0.75 0.34-1.06 0.07c-0.39-0.34-0.87999-0.53002-1.4-0.53002-1.17 0-2.12 0.95002-2.12 2.12s0.94999 2.12 2.12 2.12c0.51 0 1.01-0.19 1.4-0.53 0.31-0.27 0.79-0.24 1.06 0.07s0.24 0.7899-0.07 1.0599c-0.67 0.58-1.52 0.9001-2.39 0.9001z"/>
 <path d="m15.99 15.62c-2 0-3.62-1.62-3.62-3.62 0-2 1.62-3.62 3.62-3.62 0.88 0 1.72 0.32003 2.39 0.90003 0.31 0.27 0.34 0.74999 0.07 1.06s-0.75 0.34-1.06 0.07c-0.39-0.34-0.88-0.53002-1.4-0.53002-1.17 0-2.12 0.95002-2.12 2.12s0.95 2.12 2.12 2.12c0.51 0 1.01-0.19 1.4-0.53 0.31-0.27 0.79-0.24 1.06 0.07s0.24 0.7899-0.07 1.0599c-0.67 0.58-1.52 0.9001-2.39 0.9001z"/>
</svg>
