<?xml version="1.0" encoding="UTF-8"?>
<svg width="24" height="24" viewBox="0 0 24 24" xmlns="http://www.w3.org/2000/svg">
 <path d="m13.94 4.8301h-7.11c-1.1 0-2 0.9-2 2v7.11c0 2.89 2.34 5.23 5.23 5.23h7.11c1.1 0 2-0.9 2-2v-7.11c0-2.89-2.34-5.23-5.23-5.23z" opacity=".4"/>
 <path d="m5.53 2c-0.42 0-0.75 0.34-0.75 0.75v2.03h-2.03c-0.41 0-0.75 0.33-0.75 0.75s0.34 0.75 0.75 0.75h2.78c0.41 0 0.75-0.34 0.75-0.75v-2.78c0-0.41-0.34-0.75-0.75-0.75z"/>
 <path d="m21.25 17.72h-2.78c-0.41 0-0.75 0.34-0.75 0.75v2.78c0 0.41 0.34 0.75 0.75 0.75s0.75-0.34 0.75-0.75v-2.03h2.03c0.41 0 0.75-0.34 0.75-0.75s-0.34-0.75-0.75-0.75z"/>
</svg>
