<svg width="24" height="24" viewBox="0 0 24 24"  xmlns="http://www.w3.org/2000/svg">
<path d="M21.9998 5.71048V15.2905C21.9998 18.0505 19.7598 20.2905 16.9998 20.2905H6.99983C6.53983 20.2905 6.09983 20.2305 5.66983 20.1105C5.04983 19.9405 4.84983 19.1505 5.30983 18.6905L15.9398 8.06048C16.1598 7.84048 16.4898 7.79048 16.7998 7.85048C17.1198 7.91048 17.4698 7.82048 17.7198 7.58048L20.2898 5.00048C21.2298 4.06048 21.9998 4.37048 21.9998 5.71048Z" />
<path opacity="0.4" d="M14.64 7.35953L4.17 17.8295C3.69 18.3095 2.89 18.1895 2.57 17.5895C2.2 16.9095 2 16.1195 2 15.2895V5.70953C2 4.36953 2.77 4.05953 3.71 4.99953L6.29 7.58953C6.68 7.96953 7.32 7.96953 7.71 7.58953L11.29 3.99953C11.68 3.60953 12.32 3.60953 12.71 3.99953L14.65 5.93953C15.03 6.32953 15.03 6.96953 14.64 7.35953Z" />
</svg>
