<svg width="24" height="24" viewBox="0 0 24 24"  xmlns="http://www.w3.org/2000/svg">
<path opacity="0.4" d="M16.77 18.98H7.23C6.81 18.98 6.43 18.71 6.29 18.32L2.13 6.66998C1.8 5.73998 2.86 4.94998 3.65 5.51998L7.65 8.37998C8.18 8.75998 8.94 8.52998 9.17 7.91998L11.06 2.87998C11.38 2.00998 12.61 2.00998 12.93 2.87998L14.82 7.91998C15.05 8.53998 15.8 8.75998 16.34 8.37998L20.34 5.51998C21.14 4.94998 22.19 5.74998 21.86 6.66998L17.7 18.32C17.57 18.71 17.19 18.98 16.77 18.98Z" />
<path d="M17 22H7C6.59 22 6.25 21.66 6.25 21.25C6.25 20.84 6.59 20.5 7 20.5H17C17.41 20.5 17.75 20.84 17.75 21.25C17.75 21.66 17.41 22 17 22Z" />
<path d="M14.5 14.75H9.5C9.09 14.75 8.75 14.41 8.75 14C8.75 13.59 9.09 13.25 9.5 13.25H14.5C14.91 13.25 15.25 13.59 15.25 14C15.25 14.41 14.91 14.75 14.5 14.75Z" />
</svg>
