<?xml version="1.0" encoding="UTF-8"?>
<svg width="24" height="24" viewBox="0 0 24 24" xmlns="http://www.w3.org/2000/svg">
 <path d="m16.77 18.98h-9.54c-0.42 0-0.8-0.27-0.94-0.66l-4.16-11.65c-0.33-0.93 0.73-1.72 1.52-1.15l4 2.86c0.53 0.38 1.29 0.15 1.52-0.46l1.89-5.04c0.32-0.87 1.55-0.87 1.87 0l1.89 5.04c0.23 0.62 0.98 0.84 1.52 0.46l4-2.86c0.8-0.57 1.85 0.23 1.52 1.15l-4.16 11.65c-0.13 0.39-0.51 0.66-0.93 0.66z" opacity=".4"/>
 <path d="m17 22h-10c-0.41 0-0.75-0.34-0.75-0.75s0.34-0.75 0.75-0.75h10c0.41 0 0.75 0.34 0.75 0.75s-0.34 0.75-0.75 0.75z"/>
 <path d="m14.5 14.75h-5c-0.41 0-0.75-0.34-0.75-0.75s0.34-0.75 0.75-0.75h5c0.41 0 0.75 0.34 0.75 0.75s-0.34 0.75-0.75 0.75z"/>
</svg>
