<?xml version="1.0" encoding="UTF-8"?>
<svg width="24" height="24" viewBox="0 0 24 24" xmlns="http://www.w3.org/2000/svg">
 <path d="m22 9.75c-0.41 0-0.75-0.34-0.75-0.75v-2c0-2.58-1.67-4.25-4.25-4.25h-10c-2.58 0-4.25 1.67-4.25 4.25v2c0 0.41-0.34 0.75-0.75 0.75s-0.75-0.34-0.75-0.75v-2c0-3.44 2.31-5.75 5.75-5.75h10c3.44 0 5.75 2.31 5.75 5.75v2c0 0.41-0.34 0.75-0.75 0.75z" opacity=".4"/>
 <path d="m17 22.75h-10c-3.44 0-5.75-2.31-5.75-5.75v-2c0-0.41 0.34-0.75 0.75-0.75s0.75 0.34 0.75 0.75v2c0 2.58 1.67 4.25 4.25 4.25h10c2.58 0 4.25-1.67 4.25-4.25v-2c0-0.41 0.34-0.75 0.75-0.75s0.75 0.34 0.75 0.75v2c0 3.44-2.31 5.75-5.75 5.75z" opacity=".4"/>
 <path d="m16.4 8.21-3.76-2.03c-0.4-0.21-0.87-0.21-1.27 0l-3.76 2.03c-0.27 0.15-0.44 0.43996-0.44 0.76996s0.17 0.62002 0.44 0.77002l3.76 2.03c0.2 0.11 0.42 0.16 0.64 0.16s0.44-0.05 0.64-0.16l3.76-2.03c0.27-0.15 0.44-0.44002 0.44-0.77002-0.01-0.33-0.18-0.61996-0.45-0.76996z"/>
 <path d="m10.74 12.47-3.5-1.75c-0.27-0.13-0.58001-0.1199-0.84001 0.0401s-0.40999 0.4299-0.40999 0.7299v3.31c0 0.57 0.32001 1.0901 0.83001 1.3401l3.5 1.75c0.12 0.06 0.25 0.0899 0.39 0.0899 0.16 0 0.31-0.04 0.45-0.13 0.26-0.16 0.41-0.43 0.41-0.73v-3.31c0-0.57-0.31-1.08-0.83-1.34z"/>
 <path d="m17.59 10.76c-0.26-0.16-0.57-0.1701-0.84-0.0401l-3.5 1.75c-0.51 0.26-0.83 0.77-0.83 1.34v3.31c0 0.3 0.15 0.57 0.41 0.73 0.14 0.09 0.29 0.13 0.45 0.13 0.13 0 0.26-0.0299 0.39-0.0899l3.5-1.75c0.51-0.26 0.83-0.7701 0.83-1.3401v-3.31c0-0.3-0.15-0.5699-0.41-0.7299z"/>
</svg>
