<svg width="24" height="24" viewBox="0 0 24 24"  xmlns="http://www.w3.org/2000/svg">
<path d="M12.1499 19.35C11.7399 19.35 11.3999 19.01 11.3999 18.6V16.5C11.3999 16.09 11.7399 15.75 12.1499 15.75C12.5599 15.75 12.8999 16.09 12.8999 16.5V18.6C12.8999 19.01 12.5599 19.35 12.1499 19.35Z" />
<path d="M17.8999 22.75H6.3999V21C6.3999 19.48 7.6299 18.25 9.1499 18.25H15.1499C16.6699 18.25 17.8999 19.48 17.8999 21V22.75ZM7.8999 21.25H16.3999V21C16.3999 20.31 15.8399 19.75 15.1499 19.75H9.1499C8.4599 19.75 7.8999 20.31 7.8999 21V21.25Z" />
<path d="M18.1499 22.75H6.1499C5.7399 22.75 5.3999 22.41 5.3999 22C5.3999 21.59 5.7399 21.25 6.1499 21.25H18.1499C18.5599 21.25 18.8999 21.59 18.8999 22C18.8999 22.41 18.5599 22.75 18.1499 22.75Z" />
<path d="M18.4299 12.44C18.2199 12.44 18.0099 12.35 17.8599 12.18C17.6699 11.96 17.6199 11.65 17.7399 11.39C18.0799 10.61 18.2499 9.78 18.2499 8.91V5.91C18.2499 5.56 18.1899 5.22 18.0699 4.86C18.0599 4.83 18.0499 4.79 18.0399 4.75C18.0099 4.6 17.9999 4.45 17.9999 4.31C17.9999 3.9 18.3399 3.56 18.7499 3.56H19.3499C21.1399 3.56 22.5999 5.06 22.5999 6.91C22.5999 8.44 21.9699 9.95 20.8799 11.04C20.8599 11.06 20.7999 11.11 20.7899 11.12C20.1999 11.61 19.5299 12.16 18.6299 12.41C18.5599 12.43 18.4999 12.44 18.4299 12.44ZM19.6799 5.09C19.7299 5.36 19.7499 5.64 19.7499 5.91V8.91C19.7499 9.32 19.7199 9.71 19.6599 10.11C19.7199 10.06 19.7699 10.02 19.8299 9.97C20.6299 9.17 21.0999 8.05 21.0999 6.91C21.0999 6.01 20.4899 5.25 19.6799 5.09Z" />
<path d="M5.5799 12.4C5.4999 12.4 5.4299 12.39 5.3499 12.36C4.5299 12.1 3.7599 11.62 3.1199 10.98C1.9699 9.71 1.3999 8.32 1.3999 6.85C1.3999 5.03 2.8299 3.6 4.6499 3.6H5.2999C5.5499 3.6 5.7899 3.73 5.9299 3.94C6.0699 4.15 6.0899 4.42 5.9899 4.65C5.8299 5.01 5.7499 5.42 5.7499 5.85V8.85C5.7499 9.71 5.9199 10.55 6.2699 11.35C6.3899 11.62 6.3299 11.93 6.1399 12.15C5.9899 12.31 5.7899 12.4 5.5799 12.4ZM4.2999 5.13C3.4899 5.29 2.8999 5.99 2.8999 6.85C2.8999 7.94 3.3399 8.99 4.2099 9.95C4.2499 10 4.2999 10.04 4.3499 10.08C4.2799 9.67 4.2499 9.26 4.2499 8.85V5.85C4.2499 5.61 4.2699 5.37 4.2999 5.13Z" />
<path d="M11.9999 16.75C7.7299 16.75 4.2499 13.27 4.2499 9V6C4.2499 3.38 6.3799 1.25 8.9999 1.25H14.9999C17.6199 1.25 19.7499 3.38 19.7499 6V9C19.7499 13.27 16.2699 16.75 11.9999 16.75ZM8.9999 2.75C7.2099 2.75 5.7499 4.21 5.7499 6V9C5.7499 12.45 8.5499 15.25 11.9999 15.25C15.4499 15.25 18.2499 12.45 18.2499 9V6C18.2499 4.21 16.7899 2.75 14.9999 2.75H8.9999Z" />
</svg>
