<svg width="24" height="24" viewBox="0 0 24 24"  xmlns="http://www.w3.org/2000/svg">
<path d="M13.4999 21.25H3.93989C3.70989 21.25 3.48989 21.14 3.34989 20.96C3.20989 20.78 3.15989 20.54 3.20989 20.32L4.26989 16.07C4.34989 15.74 4.64989 15.5 4.99989 15.5H12.4399C15.3399 15.5 16.9999 13.84 16.9999 10.94V10.75C16.9999 9.15 16.3499 8.5 14.7499 8.5H6.05989C5.82989 8.5 5.60989 8.39001 5.46989 8.21001C5.32989 8.03001 5.27989 7.79001 5.32989 7.57001L6.38989 3.32001C6.46989 2.99001 6.76989 2.75 7.11989 2.75H15.9999C20.1599 2.75 22.7499 5.34 22.7499 9.5V12C22.7499 17.71 19.2099 21.25 13.4999 21.25ZM4.89989 19.75H13.4999C18.3499 19.75 21.2499 16.85 21.2499 12V9.5C21.2499 6.16 19.3399 4.25 15.9999 4.25H7.70989L7.01989 7H14.7499C17.1699 7 18.4999 8.33 18.4999 10.75V10.94C18.4999 14.68 16.1799 17 12.4399 17H5.58989L4.89989 19.75Z" />
<path d="M9.18989 14.25H1.99989C1.76989 14.25 1.54989 14.14 1.40989 13.96C1.26989 13.78 1.21989 13.54 1.26989 13.32L1.63989 11.84C1.94989 10.61 3.03989 9.75999 4.30989 9.75999H11.4999C11.7299 9.75999 11.9499 9.87 12.0899 10.05C12.2299 10.23 12.2799 10.47 12.2299 10.69L11.8599 12.17C11.5499 13.39 10.4499 14.25 9.18989 14.25ZM2.95989 12.75H9.18989C9.75989 12.75 10.2599 12.36 10.3999 11.8L10.5399 11.25H4.30989C3.73989 11.25 3.23989 11.64 3.09989 12.2L2.95989 12.75Z" />
</svg>
