<?xml version="1.0" encoding="UTF-8"?>
<svg width="24" height="24" viewBox="0 0 24 24" xmlns="http://www.w3.org/2000/svg">
 <path d="m20 14.25c1.2426 0 2.25-1.0074 2.25-2.25s-1.0074-2.25-2.25-2.25-2.25 1.0074-2.25 2.25 1.0074 2.25 2.25 2.25z"/>
 <path d="m20 6.25c1.2426 0 2.25-1.0074 2.25-2.25s-1.0074-2.25-2.25-2.25-2.25 1.0074-2.25 2.25 1.0074 2.25 2.25 2.25z"/>
 <path d="m20 22.25c1.2426 0 2.25-1.0074 2.25-2.25s-1.0074-2.25-2.25-2.25-2.25 1.0074-2.25 2.25 1.0074 2.25 2.25 2.25z"/>
 <path d="m4 14.25c1.2426 0 2.25-1.0074 2.25-2.25s-1.0074-2.25-2.25-2.25-2.25 1.0074-2.25 2.25 1.0074 2.25 2.25 2.25z"/>
 <path d="m19 12.75c0.41 0 0.75-0.34 0.75-0.75s-0.34-0.75-0.75-0.75h-7.25v-4.25c0-1.58 0.67-2.25 2.25-2.25h5c0.41 0 0.75-0.34 0.75-0.75s-0.34-0.75-0.75-0.75h-5c-2.42 0-3.75 1.33-3.75 3.75v4.25h-5.25c-0.41 0-0.75 0.34-0.75 0.75s0.34 0.75 0.75 0.75h5.25v4.25c0 2.42 1.33 3.75 3.75 3.75h5c0.41 0 0.75-0.34 0.75-0.75s-0.34-0.75-0.75-0.75h-5c-1.58 0-2.25-0.67-2.25-2.25v-4.25h7.25z" opacity=".4"/>
</svg>
