<?xml version="1.0" encoding="UTF-8"?>
<svg width="24" height="24" viewBox="0 0 24 24" xmlns="http://www.w3.org/2000/svg">
 <path d="m21.04 13.28-0.92-0.9-7.75 7.74 0.93 0.93c0.78 0.78 1.59 1.17 2.39 1.17s1.61-0.39 2.39-1.17l2.96-2.96c1.59-1.6 1.59-3.21 0-4.81z"/>
 <path d="m10.69 2.9299c-1.57-1.57-3.22-1.57-4.79 0l-2.97 2.96c-1.56 1.57-1.56 3.22 0 4.79l0.92 0.92 7.75-7.75-0.91-0.92z"/>
 <path d="m21.81 3.9401c-1.31 3.27-4.3 7.54-7.15 10.33-0.41-2.58-2.47-4.6-5.07-4.96 2.8-2.86 7.1-5.89 10.38-7.21 0.58-0.22 1.16-0.05 1.52 0.31 0.38 0.38 0.56 0.95 0.32 1.53z" opacity=".4"/>
 <path d="m14.66 14.27c-0.5 0.49-1 0.94-1.48 1.32l-1.97 1.58c-0.25 0.18-0.5 0.33-0.78 0.45 0-0.19-0.02-0.38-0.04-0.58-0.11-0.83-0.48998-1.62-1.16-2.29-0.69-0.68-1.51-1.07-2.36-1.18-0.2-0.02-0.41-0.03-0.6-0.02 0.11-0.31 0.28-0.6 0.49-0.84l1.56-1.97c0.37-0.47 0.8-0.95004 1.27-1.43 2.6 0.36 4.66 2.38 5.07 4.96z"/>
 <path d="m10.43 17.62c0 1.1-0.42 2.15-1.22 2.94-0.61 0.62-1.43 1.04-2.43 1.16l-2.45 0.27c-1.34 0.15-2.49-1-2.34-2.35l0.27-2.46c0.24-2.19 2.07-3.59 4.01-3.63 0.19-0.01 0.4 0 0.6 0.02 0.85 0.11 1.67 0.5 2.36 1.18 0.67 0.67 1.05 1.46 1.16 2.29 0.02 0.2 0.04 0.39 0.04 0.58z" opacity=".4"/>
</svg>
