<svg width="24" height="24" viewBox="0 0 24 24"  xmlns="http://www.w3.org/2000/svg">
<path d="M10.4299 18.3699C10.2799 18.3699 10.1399 18.3299 10.0099 18.2399C9.79987 18.0999 9.67987 17.8699 9.67987 17.6199C9.67987 17.4699 9.66987 17.3099 9.64987 17.1499C9.55987 16.4399 9.23987 15.8199 8.69987 15.2799C8.15987 14.7399 7.48987 14.3999 6.76987 14.3099C6.64987 14.2999 6.47987 14.2899 6.31987 14.2999C6.05987 14.3199 5.81987 14.2099 5.66987 13.9999C5.51987 13.7999 5.47987 13.5299 5.55987 13.2899C5.70987 12.8799 5.92987 12.5099 6.18987 12.2099L7.72987 10.2699C10.3799 6.95992 15.7499 2.97992 19.6799 1.39992C20.5199 1.07992 21.3999 1.26992 22.0099 1.86992C22.6399 2.49992 22.8299 3.39992 22.4999 4.21992C20.9199 8.15992 16.9499 13.5199 13.6399 16.1699L11.6699 17.7499C11.2999 18.0199 10.9999 18.1899 10.6999 18.3099C10.6199 18.3499 10.5199 18.3699 10.4299 18.3699ZM7.53987 12.9399C8.37987 13.1599 9.12987 13.5999 9.75987 14.2299C10.3899 14.8499 10.8099 15.5699 11.0199 16.3699L12.7099 15.0099C15.8499 12.4999 19.6199 7.40992 21.1099 3.66992C21.2599 3.29992 21.0499 3.03992 20.9499 2.94992C20.8799 2.87992 20.6199 2.65992 20.2199 2.80992C16.4999 4.30992 11.4099 8.07992 8.88987 11.2199L7.53987 12.9399Z" />
<path d="M4.07987 22.7499C3.32987 22.7499 2.60987 22.4499 2.06987 21.9099C1.44987 21.2899 1.14987 20.4299 1.24987 19.5499L1.51987 17.0899C1.77987 14.6499 3.77987 12.8399 6.25987 12.7899C6.44987 12.7799 6.69987 12.7899 6.92987 12.8099C8.01987 12.9499 8.98987 13.4399 9.76987 14.2199C10.5399 14.9899 10.9999 15.9099 11.1399 16.9399C11.1699 17.1599 11.1899 17.3999 11.1899 17.6099C11.1899 18.9299 10.6799 20.1599 9.75987 21.0899C8.98987 21.8499 7.99987 22.3199 6.87987 22.4599L4.40987 22.7299C4.29987 22.7399 4.18987 22.7499 4.07987 22.7499ZM6.44987 14.2999C6.40987 14.2999 6.35987 14.2999 6.31987 14.2999C4.80987 14.3299 3.20987 15.3599 3.00987 17.2599L2.73987 19.7199C2.68987 20.1399 2.83987 20.5499 3.12987 20.8499C3.41987 21.1399 3.82987 21.2899 4.23987 21.2399L6.69987 20.9699C7.46987 20.8699 8.15987 20.5499 8.67987 20.0299C9.31987 19.3899 9.67987 18.5299 9.67987 17.6099C9.67987 17.4599 9.66987 17.2999 9.64987 17.1399C9.55987 16.4299 9.23987 15.8099 8.69987 15.2699C8.15987 14.7299 7.48987 14.3899 6.76987 14.2999C6.68987 14.2999 6.56987 14.2999 6.44987 14.2999Z" />
<path d="M14.2399 15.2199C13.8299 15.2199 13.4899 14.8799 13.4899 14.4699C13.4899 12.2699 11.6999 10.4899 9.50987 10.4899C9.09987 10.4899 8.75987 10.1499 8.75987 9.73992C8.75987 9.32992 9.08987 8.98992 9.49987 8.98992C12.5199 8.98992 14.9799 11.4499 14.9799 14.4699C14.9899 14.8899 14.6499 15.2199 14.2399 15.2199Z" />
<path d="M15.6799 22.7299C14.7499 22.7299 13.8199 22.2899 12.9299 21.3999C12.6399 21.1099 12.6399 20.6299 12.9299 20.3399C13.2199 20.0499 13.6999 20.0499 13.9899 20.3399C15.1699 21.5199 16.1799 21.5199 17.3599 20.3399L20.3199 17.3799C21.5099 16.1899 21.5099 15.1799 20.3199 13.9999L19.5799 13.2699C19.2899 12.9799 19.2799 12.4999 19.5699 12.2099C19.8599 11.9099 20.3399 11.9099 20.6299 12.1999L21.3699 12.9299C23.1499 14.7099 23.1499 16.6599 21.3699 18.4399L18.4099 21.3999C17.5399 22.2799 16.6099 22.7299 15.6799 22.7299Z" />
<path d="M3.10987 11.2599C2.91987 11.2599 2.71987 11.1899 2.57987 11.0399C0.819866 9.26992 0.819866 7.30992 2.57987 5.53992L5.53987 2.57992C7.29987 0.819921 9.27987 0.819921 11.0399 2.57992L11.7799 3.31992C12.0699 3.60992 12.0699 4.08992 11.7799 4.37992C11.4899 4.66992 11.0099 4.66992 10.7199 4.37992L9.96987 3.63992C8.78987 2.45992 7.76987 2.45992 6.59987 3.63992L3.63987 6.59992C2.45987 7.78992 2.45987 8.79992 3.63987 9.98992C3.92987 10.2799 3.92987 10.7599 3.63987 11.0499C3.48987 11.1899 3.29987 11.2599 3.10987 11.2599Z" />
<path d="M7.54987 8.29992C7.35987 8.29992 7.16987 8.22992 7.01987 8.07992C6.72987 7.78992 6.72987 7.30992 7.01987 7.01992L10.7199 3.31992C11.0099 3.02992 11.4899 3.02992 11.7799 3.31992C12.0699 3.60992 12.0699 4.08992 11.7799 4.37992L8.07987 8.07992C7.92987 8.22992 7.73987 8.29992 7.54987 8.29992Z" />
<path d="M17.1599 16.4299C16.9699 16.4299 16.7799 16.3599 16.6299 16.2099C16.3399 15.9199 16.3399 15.4399 16.6299 15.1499L19.5899 12.1899C19.8799 11.8999 20.3599 11.8999 20.6499 12.1899C20.9399 12.4799 20.9399 12.9599 20.6499 13.2499L17.6899 16.2099C17.5499 16.3599 17.3599 16.4299 17.1599 16.4299Z" />
</svg>
