<svg width="24" height="24" viewBox="0 0 24 24"  xmlns="http://www.w3.org/2000/svg">
<path d="M11.9998 19.4199C10.4598 19.4199 8.9198 18.8299 7.7498 17.6599C5.3998 15.3099 5.3998 11.4999 7.7498 9.1499C8.8898 8.0099 10.3998 7.38989 11.9998 7.38989C13.5998 7.38989 15.1198 8.0199 16.2498 9.1499C18.5998 11.4999 18.5998 15.3099 16.2498 17.6599C15.0798 18.8299 13.5398 19.4199 11.9998 19.4199ZM11.9998 8.8999C10.7998 8.8999 9.6598 9.36985 8.8098 10.2198C7.0498 11.9798 7.0498 14.8399 8.8098 16.5999C10.5698 18.3599 13.4298 18.3499 15.1898 16.5999C16.9498 14.8399 16.9498 11.9798 15.1898 10.2198C14.3398 9.36985 13.1998 8.8999 11.9998 8.8999Z" />
<path d="M10.4101 15.7498C10.2201 15.7498 10.0201 15.6799 9.8801 15.5299C9.5901 15.2399 9.5901 14.7599 9.8801 14.4599L11.4701 12.8698C11.7601 12.5798 12.2401 12.5798 12.5401 12.8698C12.8301 13.1598 12.8301 13.6399 12.5401 13.9399L10.9501 15.5299C10.7901 15.6799 10.6001 15.7498 10.4101 15.7498Z" />
<path d="M18.79 7.50989C18.55 7.50989 18.33 7.41988 18.16 7.24988C17.81 6.89988 17.81 6.32987 18.16 5.98987C18.33 5.81987 18.55 5.72986 18.79 5.72986C19.03 5.72986 19.25 5.81987 19.42 5.98987C19.59 6.15987 19.68 6.37987 19.68 6.61987C19.68 6.85987 19.59 7.07988 19.42 7.24988C19.26 7.41988 19.03 7.50989 18.79 7.50989ZM18.72 6.53986V6.68988C18.74 6.70988 18.7699 6.71985 18.7999 6.71985C18.9199 6.64985 18.92 6.57986 18.87 6.53986H18.72Z" />
<path d="M18.7899 7.75989C18.4799 7.75989 18.1999 7.63986 17.9799 7.41986C17.5399 6.97986 17.5399 6.24987 17.9799 5.79987C18.1999 5.57987 18.4799 5.46985 18.7899 5.46985C19.0999 5.46985 19.3799 5.58988 19.5999 5.80988C19.8199 6.02988 19.9299 6.30987 19.9299 6.61987C19.9299 6.92987 19.8099 7.20987 19.5899 7.42987C19.3899 7.63987 19.0999 7.75989 18.7899 7.75989ZM18.5399 6.86987C18.6099 6.93987 18.6999 6.96985 18.7899 6.96985C18.8799 6.96985 18.9699 6.92987 19.0399 6.86987C19.1799 6.72987 19.1799 6.50987 19.0399 6.36987C18.9099 6.23987 18.6699 6.23987 18.5399 6.36987C18.4799 6.42987 18.4399 6.51987 18.4399 6.61987C18.4399 6.70987 18.4699 6.79987 18.5399 6.86987Z" />
<path d="M5.20981 21.09C4.97981 21.09 4.7498 21 4.5798 20.83C4.4098 20.66 4.31982 20.43 4.31982 20.2C4.31982 19.96 4.4098 19.7399 4.5798 19.5699C4.7498 19.3999 4.96981 19.3099 5.20981 19.3099C5.44981 19.3099 5.66981 19.3999 5.83981 19.5699C6.18981 19.9199 6.18981 20.49 5.83981 20.83C5.66981 21 5.43981 21.09 5.20981 21.09ZM5.18982 20.0999C5.16982 20.0999 5.14982 20.1099 5.12982 20.1299C5.08982 20.1699 5.08982 20.24 5.12982 20.28C5.14982 20.3 5.17983 20.3099 5.19983 20.3099L5.2998 20.21C5.2698 20.12 5.22982 20.0999 5.18982 20.0999Z" />
<path d="M5.21005 21.34C4.92005 21.34 4.62005 21.2299 4.40005 21.0099C4.18005 20.7899 4.06006 20.5 4.06006 20.2C4.06006 19.89 4.18005 19.61 4.40005 19.39C4.61005 19.18 4.90005 19.0599 5.21005 19.0599C5.52005 19.0599 5.80005 19.18 6.02005 19.4C6.47005 19.85 6.47005 20.57 6.02005 21.02C5.80005 21.23 5.50005 21.34 5.21005 21.34ZM5.21005 19.84C5.12005 19.84 5.03005 19.8699 4.96005 19.9399C4.82005 20.0799 4.82005 20.2999 4.96005 20.4399C5.03005 20.5099 5.12005 20.5399 5.21005 20.5399C5.30005 20.5399 5.40005 20.4999 5.46005 20.4299C5.52005 20.3699 5.56006 20.2799 5.56006 20.1799C5.56006 20.0899 5.52005 19.9899 5.46005 19.9299C5.39005 19.8799 5.30005 19.84 5.21005 19.84Z" />
<path d="M21.6 14.2999C21.37 14.2999 21.14 14.2099 20.97 14.0399C20.62 13.6899 20.62 13.1199 20.97 12.7699C21.14 12.5999 21.37 12.5599 21.6 12.5099C21.84 12.5099 22.06 12.5999 22.23 12.7699C22.58 13.1199 22.58 13.6899 22.23 14.0399C22.06 14.2099 21.83 14.2999 21.6 14.2999ZM21.53 13.4799C21.55 13.4999 21.58 13.5099 21.61 13.5099C21.72 13.4399 21.72 13.3699 21.68 13.3299C21.64 13.2899 21.57 13.2899 21.53 13.3299C21.49 13.3699 21.49 13.4399 21.53 13.4799Z" />
<path d="M21.6001 14.5499C21.3101 14.5499 21.0101 14.4398 20.7901 14.2198C20.3401 13.7698 20.3401 13.0499 20.7901 12.5999C21.0101 12.3799 21.2901 12.2599 21.6001 12.2599C21.9101 12.2599 22.1901 12.3799 22.4101 12.5999C22.8601 13.0499 22.8601 13.7698 22.4101 14.2198C22.1901 14.4398 21.9001 14.5499 21.6001 14.5499ZM21.3501 13.6599C21.4201 13.7299 21.5101 13.7599 21.6001 13.7599C21.6901 13.7599 21.7801 13.7199 21.8501 13.6599C21.9901 13.5199 21.9901 13.2999 21.8501 13.1599C21.7101 13.0199 21.4901 13.0199 21.3501 13.1599C21.2201 13.2899 21.2101 13.5199 21.3501 13.6599Z" />
<path d="M2.39983 14.2999C2.16983 14.2999 1.93982 14.2099 1.76982 14.0399C1.41982 13.6899 1.41982 13.1199 1.76982 12.7699C2.11982 12.4199 2.68984 12.4199 3.03984 12.7699C3.38984 13.1199 3.38984 13.6899 3.03984 14.0399C2.84984 14.2099 2.61983 14.2999 2.39983 14.2999ZM2.31984 13.4799C2.35984 13.5199 2.42984 13.5199 2.46984 13.4799C2.50984 13.4399 2.50984 13.3699 2.46984 13.3299C2.42984 13.2899 2.35984 13.2899 2.31984 13.3299C2.27984 13.3699 2.27984 13.4399 2.31984 13.4799Z" />
<path d="M2.39994 14.5499C2.10994 14.5499 1.80994 14.4399 1.58994 14.2199C1.13994 13.7699 1.13994 13.0499 1.58994 12.5999C2.03994 12.1499 2.76994 12.1599 3.20994 12.5999C3.65994 13.0499 3.65994 13.7699 3.20994 14.2199C2.97994 14.4399 2.68994 14.5499 2.39994 14.5499ZM2.13996 13.6599C2.27996 13.7999 2.49996 13.7999 2.63996 13.6599C2.77996 13.5199 2.77996 13.2899 2.63996 13.1599C2.49996 13.0199 2.27996 13.0199 2.13996 13.1599C2.00996 13.2899 2.00996 13.5199 2.13996 13.6599Z" />
<path d="M18.79 21.0899C18.56 21.0899 18.33 20.9999 18.16 20.8299C17.81 20.4799 17.81 19.9099 18.16 19.5599C18.51 19.2099 19.08 19.2099 19.43 19.5599C19.6 19.7299 19.69 19.9499 19.69 20.1899C19.69 20.4299 19.6 20.6499 19.43 20.8199C19.25 20.9999 19.02 21.0899 18.79 21.0899ZM18.79 20.0899C18.76 20.0899 18.74 20.0999 18.72 20.1199V20.2699C18.76 20.3099 18.83 20.3099 18.87 20.2699C18.91 20.2299 18.91 20.1599 18.87 20.1199C18.84 20.0999 18.82 20.0899 18.79 20.0899Z" />
<path d="M18.7901 21.3399C18.5001 21.3399 18.2001 21.2299 17.9801 21.0099C17.5301 20.5599 17.5301 19.8399 17.9801 19.3899C18.4301 18.9399 19.1501 18.9399 19.6001 19.3899C19.8201 19.6099 19.9401 19.8899 19.9401 20.1999C19.9401 20.5099 19.8201 20.7899 19.6001 21.0099C19.3801 21.2299 19.0801 21.3399 18.7901 21.3399ZM18.5401 20.4499C18.6801 20.5899 18.9001 20.5899 19.0401 20.4499C19.1801 20.3099 19.1801 20.0899 19.0401 19.9499C18.9001 19.8099 18.6801 19.8099 18.5401 19.9499C18.4701 20.0199 18.4401 20.1099 18.4401 20.1999C18.4401 20.2899 18.4701 20.3799 18.5401 20.4499Z" />
<path d="M5.20981 7.50989C4.96981 7.50989 4.7498 7.41988 4.5798 7.24988C4.4098 7.07988 4.31982 6.85987 4.31982 6.61987C4.31982 6.37987 4.4098 6.15987 4.5798 5.98987C4.7498 5.81987 4.96981 5.72986 5.20981 5.72986C5.44981 5.72986 5.66981 5.81987 5.83981 5.98987C6.18981 6.33987 6.18981 6.90989 5.83981 7.25989C5.66981 7.41989 5.44981 7.50989 5.20981 7.50989ZM5.12982 6.68988C5.14982 6.70988 5.17983 6.71985 5.19983 6.71985L5.2998 6.61987L5.19983 6.5199C5.08983 6.5799 5.08982 6.64988 5.12982 6.68988Z" />
<path d="M5.20981 7.75989C4.89981 7.75989 4.61981 7.63986 4.39981 7.41986C4.18981 7.20986 4.06982 6.91986 4.06982 6.60986C4.06982 6.29986 4.18982 6.01987 4.40982 5.79987C4.61982 5.58987 4.90982 5.46985 5.21982 5.46985C5.52982 5.46985 5.80982 5.58988 6.02982 5.80988C6.46982 6.25988 6.46982 6.97987 6.02982 7.42987C5.79982 7.63987 5.51981 7.75989 5.20981 7.75989ZM4.95981 6.86987C5.02981 6.93987 5.11981 6.97986 5.20981 6.97986C5.29981 6.97986 5.38981 6.93988 5.45981 6.87988C5.52981 6.81988 5.55981 6.71988 5.55981 6.62988C5.55981 6.53988 5.51983 6.43988 5.44983 6.37988C5.32983 6.24988 5.07983 6.24988 4.94983 6.37988C4.81983 6.49988 4.81981 6.72987 4.95981 6.86987Z" />
<path d="M11.9999 4.69988C11.7599 4.69988 11.5399 4.60987 11.3699 4.43987C11.1999 4.26987 11.1099 4.04986 11.1099 3.80986C11.1099 3.56986 11.1999 3.34986 11.3699 3.17986C11.7199 2.82986 12.2899 2.82986 12.6399 3.17986C12.9899 3.52986 12.9899 4.09987 12.6399 4.43987C12.4699 4.59987 12.2399 4.69988 11.9999 4.69988ZM12.0699 3.72985L11.9199 3.87987C11.9599 3.91987 12.0299 3.91987 12.0699 3.87987V3.72985ZM11.9299 3.72985C11.8899 3.76985 11.8899 3.83987 11.9299 3.87987L12.0799 3.72985H11.9299Z" />
<path d="M11.9999 4.94987C11.6899 4.94987 11.4099 4.82984 11.1899 4.60984C10.9799 4.39984 10.8599 4.10984 10.8599 3.79984C10.8599 3.48984 10.9799 3.20984 11.1999 2.98984C11.6499 2.53984 12.3699 2.53984 12.8199 2.98984C13.2599 3.43984 13.2599 4.15984 12.8199 4.60984C12.5999 4.82984 12.3099 4.94987 11.9999 4.94987ZM12.2499 3.54984L11.7499 4.04984C11.8899 4.18984 12.1099 4.18984 12.2499 4.04984C12.3199 3.97984 12.3499 3.88984 12.3499 3.79984C12.3499 3.70984 12.3199 3.61984 12.2499 3.54984ZM11.9999 3.44987C11.9099 3.44987 11.8099 3.48985 11.7499 3.55985C11.6099 3.69985 11.6099 3.91985 11.7499 4.05985L12.2499 3.55985C12.1899 3.48985 12.0999 3.44987 11.9999 3.44987Z" />
</svg>
