<?xml version="1.0" encoding="UTF-8"?>
<svg width="24" height="24" viewBox="0 0 24 24" xmlns="http://www.w3.org/2000/svg">
 <path d="m16 2h-10c-3.2 0-4 0.8-4 4v5.9c0.03 3.03 0.87 3.8 4 3.8h2.25v3.55h-3.3c-0.41 0-0.75 0.34-0.75 0.75s0.34 0.75 0.75 0.75h7.3c-0.15-0.39-0.22-0.88-0.23-1.5h-2.27v-3.55h2.27v-5.11c0-2.14 0.71-2.85 2.85-2.85h4.28c0.31 0 0.6 0.01999 0.85 0.04999v-1.79c0-3.2-0.8-4-4-4z" opacity=".4"/>
 <path d="m20 7.7902c-0.25-0.03-0.54-0.04999-0.85-0.04999h-4.28c-2.14 0-2.85 0.71004-2.85 2.8501v8.6599c0.01 0.62 0.08 1.11 0.23 1.5 0.35 0.91 1.14 1.25 2.62 1.25h4.28c2.14 0 2.85-0.7099 2.85-2.8499v-8.56c0-1.83-0.52-2.6101-2-2.8001zm-2.99 2.3001c0.87 0 1.57 0.6999 1.57 1.5699s-0.7 1.57-1.57 1.57-1.57-0.7-1.57-1.57 0.7-1.5699 1.57-1.5699zm0 9.06c-1.18 0-2.14-0.96-2.14-2.14 0-0.49 0.17-0.95 0.45-1.31 0.39-0.5 1-0.8301 1.69-0.8301 0.54 0 1.03 0.2001 1.4 0.5201 0.45 0.4 0.74 0.98 0.74 1.62 0 1.18-0.96 2.14-2.14 2.14z"/>
 <path d="m19.15 17.01c0 1.18-0.96 2.14-2.14 2.14s-2.14-0.96-2.14-2.14c0-0.49 0.17-0.95 0.45-1.31 0.39-0.5 1-0.83 1.69-0.83 0.54 0 1.03 0.2 1.4 0.52 0.45 0.4 0.74 0.98 0.74 1.62z" opacity=".4"/>
 <path d="m17.01 13.23c0.8671 0 1.57-0.7029 1.57-1.57s-0.7029-1.57-1.57-1.57c-0.867 0-1.57 0.7029-1.57 1.57s0.703 1.57 1.57 1.57z" opacity=".4"/>
</svg>
