<?xml version="1.0" encoding="UTF-8"?>
<svg width="24" height="24" viewBox="0 0 24 24" xmlns="http://www.w3.org/2000/svg">
 <path d="m20 12.2v1.7c0 3.15-1.8 4.5-4.5 4.5h-9c-2.7 0-4.5-1.35-4.5-4.5v-5.4c0-3.15 1.8-4.5 4.5-4.5h2.7c-0.13 0.38-0.2 0.8-0.2 1.25v3.9c0 0.96998 0.32 1.79 0.89 2.36s1.39 0.89 2.36 0.89v1.39c0 0.51 0.58 0.82 1.01 0.54l2.89-1.93h2.6c0.45 0 0.87-0.07 1.25-0.2z"/>
 <path d="m22 5.25v3.9c0 1.49-0.76 2.61-2 3.05-0.38 0.13-0.8 0.2-1.25 0.2h-2.6l-2.89 1.93c-0.43 0.28-1.01-0.03-1.01-0.54v-1.39c-0.97 0-1.79-0.32-2.36-0.89s-0.89-1.39-0.89-2.36v-3.9c0-0.45 0.07-0.87 0.2-1.25 0.44-1.24 1.56-2 3.05-2h6.5c1.95 0 3.25 1.3 3.25 3.25z" opacity=".4"/>
 <path d="m14.6 21.25h-2.85v-2.85c0-0.41-0.34-0.75-0.75-0.75s-0.75 0.34-0.75 0.75v2.85h-2.85c-0.41 0-0.75 0.34-0.75 0.75s0.34 0.75 0.75 0.75h7.2c0.41 0 0.75-0.34 0.75-0.75s-0.34-0.75-0.75-0.75z" opacity=".4"/>
 <path d="m15.44 8c-0.42 0-0.75-0.34-0.75-0.75s0.34-0.75 0.75-0.75 0.75 0.34 0.75 0.75-0.34 0.75-0.75 0.75z"/>
 <path d="m18.25 8c-0.42 0-0.75-0.34-0.75-0.75s0.34-0.75 0.75-0.75 0.75 0.34 0.75 0.75-0.34 0.75-0.75 0.75z"/>
 <path d="m12.62 8c-0.42 0-0.75-0.34-0.75-0.75s0.34-0.75 0.75-0.75 0.75 0.34 0.75 0.75-0.33 0.75-0.75 0.75z"/>
</svg>
