<?xml version="1.0" encoding="UTF-8"?>
<svg width="24" height="24" viewBox="0 0 24 24" xmlns="http://www.w3.org/2000/svg">
 <path d="m18.69 11.53c-0.57-0.15-1.24-0.23-2.04-0.23-1.11 0-1.52 0.27-2.09 0.7-0.03 0.02-0.06 0.05-0.09 0.08l-0.95 1.01c-0.79 0.85-2.24 0.85-3.04 0l-0.95002-1c-0.03001-0.04-0.06-0.07-0.09-0.09-0.58-0.43-0.99-0.7-2.09-0.7-0.8 0-1.47 0.07-2.04 0.23-2.38 0.64-2.38 2.53-2.38 4.19v0.93c0 2.51 0 5.35 5.35 5.35h7.44c3.55 0 5.35-1.8 5.35-5.35v-0.93c0-1.66 0-3.55-2.38-4.19z"/>
 <path d="m14.79 2h-5.58c-4.42 0-4.42 2.35-4.42 4.42v5.79c0 0.22 0.1 0.42 0.27 0.55s0.4 0.18 0.61 0.12c0.45-0.12 1.01-0.18 1.68-0.18s0.81 0.08 1.21 0.38l0.91 0.96c0.64996 0.7 1.58 1.1 2.54 1.1s1.88-0.4 2.54-1.1l0.91-0.96c0.4-0.3 0.54-0.38 1.21-0.38s1.23 0.06 1.68 0.18c0.21 0.06 0.43 0.01 0.61-0.12 0.17-0.13 0.27-0.34 0.27-0.55v-5.79c-0.02-2.07-0.02-4.42-4.44-4.42z" opacity=".4"/>
 <path d="m13.55 9.9098h-3.1c-0.39 0-0.7-0.31-0.7-0.7s0.31-0.7 0.7-0.7h3.1c0.39 0 0.7 0.31 0.7 0.7 0 0.38-0.32 0.7-0.7 0.7z"/>
 <path d="m14.33 7.1202h-4.66c-0.39 0-0.7-0.30999-0.7-0.69999s0.31-0.70001 0.7-0.70001h4.65c0.39 0 0.7 0.31001 0.7 0.70001 0 0.38-0.31 0.69999-0.69 0.69999z"/>
</svg>
