<?xml version="1.0" encoding="UTF-8"?>
<svg width="24" height="24" viewBox="0 0 24 24" xmlns="http://www.w3.org/2000/svg">
 <path d="m14.79 4h-5.58c-4.42 0-4.42 2.35-4.42 4.42v3.79c0 0.22 0.1 0.42 0.27 0.55s0.4 0.18 0.61 0.12c0.45-0.12 1.01-0.18 1.68-0.18s0.81 0.08 1.21 0.38l0.91 0.96c0.64996 0.7 1.58 1.1 2.54 1.1s1.88-0.4 2.54-1.1l0.91-0.96c0.4-0.3 0.54-0.38 1.21-0.38s1.23 0.06 1.68 0.18c0.21 0.06 0.43 0.01 0.61-0.12 0.17-0.13 0.27-0.34 0.27-0.55v-3.79c-0.02-2.07-0.02-4.42-4.44-4.42z" opacity=".4"/>
 <path d="m14.275 6.8c-0.26-0.26-0.69-0.26-0.95 0l-0.65 0.65v-4.78c0-0.37-0.31-0.67-0.68-0.67s-0.68 0.3-0.68 0.67v4.77l-0.64-0.64c-0.26-0.26-0.69001-0.26-0.95001 0s-0.26 0.69 0 0.95l1.8 1.8c0.01 0.01 0.01 0.01 0.02 0.01 0.06 0.05 0.12 0.1 0.2 0.13s0.17 0.05 0.26 0.05 0.17-0.02 0.26-0.05c0.08-0.03 0.16-0.08 0.22-0.15l1.8-1.8c0.25-0.25 0.25-0.68-0.01-0.94z"/>
 <path d="m18.69 11.53c-0.57-0.15-1.24-0.23-2.04-0.23-1.11 0-1.52 0.27-2.09 0.7-0.03 0.02-0.06 0.05-0.09 0.08l-0.95 1.01c-0.8 0.84-2.24 0.85-3.04-0.01l-0.95002-1c-0.03001-0.03-0.06-0.06-0.09-0.08-0.57001-0.43-0.98-0.7-2.09-0.7-0.8 0-1.47 0.08-2.04 0.23-2.38 0.64-2.38 2.53-2.38 4.19v0.93c0 2.51 0 5.35 5.35 5.35h7.44c3.55 0 5.35-1.8 5.35-5.35v-0.93c0-1.66 0-3.55-2.38-4.19zm-4.36 6.87h-4.66c-0.38 0-0.69-0.31-0.69-0.7s0.31-0.7 0.69-0.7h4.66c0.38 0 0.69 0.31 0.69 0.7s-0.31 0.7-0.69 0.7z"/>
 <path d="m15.02 17.7c0 0.39-0.31 0.7-0.69 0.7h-4.66c-0.38 0-0.69-0.31-0.69-0.7s0.31-0.7 0.69-0.7h4.66c0.38 0 0.69 0.31 0.69 0.7z" opacity=".4"/>
</svg>
