<?xml version="1.0" encoding="UTF-8"?>
<svg width="24" height="24" viewBox="0 0 24 24" xmlns="http://www.w3.org/2000/svg">
 <path d="m19 8c1.6569 0 3-1.3432 3-3s-1.3431-3-3-3-3 1.3432-3 3 1.3431 3 3 3z"/>
 <path d="m20.34 12.72h-3.31c-0.93 0-1.76 0.52-2.18 1.34l-0.8 1.58c-0.19 0.38-0.57 0.61-0.99 0.61h-3.11c-0.29 0-0.72-0.06-0.99-0.62l-0.79-1.57c-0.42-0.83-1.25-1.35-2.18-1.35h-3.33c-0.36 0.01-0.66 0.31-0.66 0.67v3.09c0 3.47 2.07 5.53 5.53 5.53h7.96c3.26 0 5.27-1.79 5.51-4.96v-3.66c0-0.36-0.3-0.66-0.66-0.66z"/>
 <path d="m19 9.5c-2.48 0-4.5-2.02-4.5-4.5 0-0.72 0.19-1.39 0.49-2h-7.47c-3.45 0-5.52 2.06-5.52 5.52v7.95c0 3.47 2.07 5.53 5.52 5.53h7.95c3.46 0 5.52-2.06 5.52-5.52v-7.47c-0.6 0.3-1.27 0.49-1.99 0.49z" opacity=".4"/>
</svg>
