<?xml version="1.0" encoding="UTF-8"?>
<svg width="24" height="24" viewBox="0 0 24 24" xmlns="http://www.w3.org/2000/svg">
 <path d="M16.19 4H7.81C4.17 4 2 6.17 2 9.81V16.18C2 19.83 4.17 22 7.81 22H16.18C19.82 22 21.99 19.83 21.99 16.19V9.81C22 6.17 19.83 4 16.19 4Z" opacity=".4"/>
 <path d="m21.3 12.23h-3.48c-0.98 0-1.85 0.54-2.29 1.42l-0.84 1.66c-0.2 0.4-0.6 0.65-1.04 0.65h-3.28c-0.31 0-0.75-0.07-1.04-0.65l-0.84-1.65c-0.44-0.87-1.32-1.42-2.29-1.42h-3.5c-0.39 0-0.7 0.31-0.7 0.7v3.26c0 3.63 2.18 5.8 5.82 5.8h8.38c3.43 0 5.54-1.88 5.8-5.22v-3.85c0-0.38-0.31-0.7-0.7-0.7z"/>
 <path d="m14.53 6.47c-0.29-0.29-0.77-0.29-1.06 0l-0.72 0.72v-5.19c0-0.41-0.34-0.75-0.75-0.75s-0.75 0.34-0.75 0.75v5.19l-0.72-0.72c-0.29-0.29-0.76996-0.29-1.06 0s-0.29 0.77 0 1.06l2 2c0.01 0.01 0.02 0.01 0.02 0.02 0.06 0.06 0.14 0.11 0.22 0.15 0.1 0.03 0.19 0.05 0.29 0.05s0.19-0.02 0.28-0.06 0.17-0.09 0.25-0.16l2-2c0.29-0.29 0.29-0.77 0-1.06z"/>
</svg>
