<svg width="24" height="24" viewBox="0 0 24 24"  xmlns="http://www.w3.org/2000/svg">
<path d="M12 9.75C11.9 9.75 11.81 9.73 11.71 9.69C11.43 9.58 11.25 9.3 11.25 9V2C11.25 1.59 11.59 1.25 12 1.25C12.41 1.25 12.75 1.59 12.75 2V7.19L13.47 6.47C13.76 6.18 14.24 6.18 14.53 6.47C14.82 6.76 14.82 7.24 14.53 7.53L12.53 9.53C12.39 9.67 12.2 9.75 12 9.75Z" />
<path d="M12 9.75C11.81 9.75 11.62 9.68 11.47 9.53L9.46998 7.53C9.17998 7.24 9.17998 6.76 9.46998 6.47C9.75998 6.18 10.24 6.18 10.53 6.47L12.53 8.47C12.82 8.76 12.82 9.24 12.53 9.53C12.38 9.68 12.19 9.75 12 9.75Z" />
<path d="M13.76 17.75H10.23C9.17998 17.75 8.23998 17.17 7.76998 16.23L6.59998 13.89C6.55998 13.8 6.46998 13.75 6.37998 13.75H1.97998C1.56998 13.75 1.22998 13.41 1.22998 13C1.22998 12.59 1.56998 12.25 1.97998 12.25H6.38998C7.05998 12.25 7.65998 12.62 7.95998 13.22L9.12998 15.56C9.33998 15.99 9.76998 16.25 10.25 16.25H13.78C14.26 16.25 14.69 15.99 14.9 15.56L16.07 13.22C16.37 12.62 16.97 12.25 17.64 12.25H22C22.41 12.25 22.75 12.59 22.75 13C22.75 13.41 22.41 13.75 22 13.75H17.64C17.54 13.75 17.46 13.8 17.42 13.89L16.25 16.23C15.75 17.17 14.81 17.75 13.76 17.75Z" />
<path d="M15 22.75H8.99998C3.56998 22.75 1.24998 20.43 1.24998 15V11C1.24998 6.31 2.98998 3.96 6.88998 3.39C7.30998 3.33 7.67998 3.61 7.73998 4.02C7.79998 4.43 7.51998 4.81 7.10998 4.87C3.96998 5.33 2.74998 7.05 2.74998 11V15C2.74998 19.61 4.38998 21.25 8.99998 21.25H15C19.61 21.25 21.25 19.61 21.25 15V11C21.25 7.05 20.03 5.33 16.89 4.87C16.48 4.81 16.2 4.43 16.26 4.02C16.32 3.61 16.7 3.33 17.11 3.39C21.01 3.96 22.75 6.31 22.75 11V15C22.75 20.43 20.43 22.75 15 22.75Z" />
</svg>
