<svg width="24" height="24" viewBox="0 0 24 24"  xmlns="http://www.w3.org/2000/svg">
<path d="M15.0002 22.75H9.00023C3.57023 22.75 1.25023 20.43 1.25023 15V9C1.25023 3.57 3.57023 1.25 9.00023 1.25H15.0002C20.4302 1.25 22.7502 3.57 22.7502 9V15C22.7502 20.43 20.4302 22.75 15.0002 22.75ZM9.00023 2.75C4.39023 2.75 2.75023 4.39 2.75023 9V15C2.75023 19.61 4.39023 21.25 9.00023 21.25H15.0002C19.6102 21.25 21.2502 19.61 21.2502 15V9C21.2502 4.39 19.6102 2.75 15.0002 2.75H9.00023Z" />
<path d="M13.7602 17.75H10.2302C9.13023 17.75 8.26023 17.21 7.77023 16.23L6.88023 14.44C6.67023 14.01 6.24023 13.75 5.76023 13.75H1.99023C1.58023 13.75 1.24023 13.41 1.24023 13C1.24023 12.59 1.59023 12.25 2.00023 12.25H5.76023C6.81023 12.25 7.75023 12.83 8.22023 13.77L9.11023 15.56C9.34023 16.02 9.71023 16.25 10.2302 16.25H13.7602C14.2402 16.25 14.6702 15.99 14.8802 15.56L15.7702 13.77C16.2402 12.83 17.1802 12.25 18.2302 12.25H21.9702C22.3802 12.25 22.7202 12.59 22.7202 13C22.7202 13.41 22.3802 13.75 21.9702 13.75H18.2302C17.7502 13.75 17.3202 14.01 17.1102 14.44L16.2202 16.23C15.7502 17.17 14.8102 17.75 13.7602 17.75Z" />
<path d="M13.6702 7.75H10.3402C9.92023 7.75 9.58023 7.41 9.58023 7C9.58023 6.59 9.92023 6.25 10.3302 6.25H13.6602C14.0702 6.25 14.4102 6.59 14.4102 7C14.4102 7.41 14.0802 7.75 13.6702 7.75Z" />
<path d="M14.5002 10.75H9.50023C9.09023 10.75 8.75023 10.41 8.75023 10C8.75023 9.59 9.09023 9.25 9.50023 9.25H14.5002C14.9102 9.25 15.2502 9.59 15.2502 10C15.2502 10.41 14.9102 10.75 14.5002 10.75Z" />
</svg>
