<?xml version="1.0" encoding="UTF-8"?>
<svg width="24" height="24" viewBox="0 0 24 24" xmlns="http://www.w3.org/2000/svg">
 <path d="M16.19 2H7.81C4.17 2 2 4.17 2 7.81V16.18C2 19.83 4.17 22 7.81 22H16.18C19.82 22 21.99 19.83 21.99 16.19V7.81C22 4.17 19.83 2 16.19 2Z" opacity=".4"/>
 <path d="m21.3 12.23h-3.48c-0.98 0-1.85 0.54-2.29 1.42l-0.84 1.66c-0.2 0.4-0.6 0.65-1.04 0.65h-3.28c-0.31 0-0.75-0.07-1.04-0.65l-0.84-1.65c-0.44-0.87-1.32-1.42-2.29-1.42h-3.5c-0.39 0-0.7 0.31-0.7 0.7v3.26c0 3.63 2.18 5.8 5.82 5.8h8.38c3.43 0 5.54-1.88 5.8-5.22v-3.85c0-0.38-0.31-0.7-0.7-0.7z"/>
 <path d="m13.55 7.7999h-3.1c-0.39 0-0.7-0.31-0.7-0.7s0.31-0.7 0.7-0.7h3.1c0.39 0 0.7 0.31 0.7 0.7s-0.32 0.7-0.7 0.7z"/>
 <path d="m14.33 10.59h-4.66c-0.39 0-0.7-0.31-0.7-0.69996 0-0.39 0.31-0.7 0.7-0.7h4.65c0.39 0 0.7 0.31 0.7 0.7 0 0.38996-0.31 0.69996-0.69 0.69996z"/>
</svg>
