<svg width="24" height="24" viewBox="0 0 24 24"  xmlns="http://www.w3.org/2000/svg">
<path opacity="0.4" d="M3.98987 14.6599L2.46988 13.1399C1.84988 12.5199 1.84988 11.4999 2.46988 10.8799L3.98987 9.3599C4.24987 9.0999 4.45987 8.58989 4.45987 8.22989V6.07993C4.45987 5.19993 5.17988 4.47989 6.05988 4.47989H8.20987C8.56987 4.47989 9.07988 4.26992 9.33988 4.00992L10.8599 2.4899C11.4799 1.8699 12.4999 1.8699 13.1199 2.4899L14.6399 4.00992C14.8999 4.26992 15.4099 4.47989 15.7699 4.47989H17.9199C18.7999 4.47989 19.5199 5.19993 19.5199 6.07993V8.22989C19.5199 8.58989 19.7299 9.0999 19.9899 9.3599L21.5099 10.8799C22.1299 11.4999 22.1299 12.5199 21.5099 13.1399L19.9899 14.6599C19.7299 14.9199 19.5199 15.4299 19.5199 15.7899V17.9399C19.5199 18.8199 18.7999 19.5399 17.9199 19.5399H15.7699C15.4099 19.5399 14.8999 19.7499 14.6399 20.0099L13.1199 21.5299C12.4999 22.1499 11.4799 22.1499 10.8599 21.5299L9.33988 20.0099C9.07988 19.7499 8.56987 19.5399 8.20987 19.5399H6.05988C5.17988 19.5399 4.45987 18.8199 4.45987 17.9399V15.7899C4.45987 15.4199 4.24987 14.9099 3.98987 14.6599Z" />
<path d="M15 16C14.44 16 13.99 15.55 13.99 15C13.99 14.45 14.44 14 14.99 14C15.54 14 15.99 14.45 15.99 15C15.99 15.55 15.55 16 15 16Z" />
<path d="M9.01001 10C8.45001 10 8 9.55 8 9C8 8.45 8.45 8 9 8C9.55 8 10 8.45 10 9C10 9.55 9.56001 10 9.01001 10Z" />
<path d="M8.99994 15.75C8.80994 15.75 8.61994 15.68 8.46994 15.53C8.17994 15.24 8.17994 14.7599 8.46994 14.4699L14.4699 8.46994C14.7599 8.17994 15.2399 8.17994 15.5299 8.46994C15.8199 8.75994 15.8199 9.24 15.5299 9.53L9.52994 15.53C9.37994 15.68 9.18994 15.75 8.99994 15.75Z" />
</svg>
