<?xml version="1.0" encoding="UTF-8"?>
<svg width="24" height="24" viewBox="0 0 24 24" xmlns="http://www.w3.org/2000/svg">
 <path d="m3.9899 14.66-1.52-1.5199c-0.62-0.62-0.62-1.64 0-2.26l1.52-1.52c0.26-0.26 0.47-0.77001 0.47-1.13v-2.15c0-0.88 0.72001-1.6 1.6-1.6h2.15c0.36 0 0.87001-0.20997 1.13-0.46997l1.52-1.52c0.62-0.62 1.64-0.62 2.26 0l1.52 1.52c0.26 0.26 0.77 0.46997 1.13 0.46997h2.15c0.88 0 1.6 0.72004 1.6 1.6v2.15c0 0.36 0.21 0.87001 0.47 1.13l1.52 1.52c0.62 0.62 0.62 1.64 0 2.26l-1.52 1.5199c-0.26 0.26-0.47 0.7701-0.47 1.1301v2.15c0 0.88-0.72 1.6-1.6 1.6h-2.15c-0.36 0-0.87 0.21-1.13 0.47l-1.52 1.52c-0.62 0.62-1.64 0.62-2.26 0l-1.52-1.52c-0.26-0.26-0.77001-0.47-1.13-0.47h-2.15c-0.88 0-1.6-0.72-1.6-1.6v-2.15c0-0.37-0.21-0.8801-0.47-1.1301z" opacity=".4"/>
 <path d="m15 16c-0.56 0-1.01-0.45-1.01-1s0.45-1 1-1 1 0.45 1 1-0.44 1-0.99 1z"/>
 <path d="m9.01 10c-0.56 0-1.01-0.45-1.01-1s0.45-1 1-1 1 0.45 1 1-0.43999 1-0.98999 1z"/>
 <path d="m8.9999 15.75c-0.19 0-0.38-0.07-0.53-0.22-0.29-0.29-0.29-0.7701 0-1.0601l6-6c0.29-0.29 0.77-0.29 1.06 0s0.29 0.77006 0 1.0601l-6 6c-0.15 0.15-0.34 0.22-0.53 0.22z"/>
</svg>
