<?xml version="1.0" encoding="UTF-8"?>
<svg width="24" height="24" viewBox="0 0 24 24" xmlns="http://www.w3.org/2000/svg">
 <path d="m2.35 13.96c0.39 0.56 1.08 0.88 1.87 0.88h4.1c0.27 0 0.52 0.11 0.69 0.31 0.18 0.2 0.25 0.48 0.21 0.77l-0.51 3.28c-0.22 0.98 0.43 2.08 1.41 2.41 0.91 0.34 1.98-0.12 2.41-0.77l4.21-6.27 0.12-0.2v-8.84l-0.15-0.15-3.17-2.45c-0.42-0.42-1.37-0.65-2.04-0.65h-3.9c-1.34 0-2.69 1.01-2.99 2.24l-2.46 7.49c-0.25 0.71-0.18 1.41 0.2 1.95z" opacity=".4"/>
 <path d="m18.79 17.61h1.03c1.55 0 2.18-0.6 2.18-2.08v-10.05c0-1.48-0.63-2.08-2.18-2.08h-1.03c-1.55 0-2.18 0.6-2.18 2.08v10.06c0 1.47 0.63 2.07 2.18 2.07z"/>
</svg>
