<?xml version="1.0" encoding="UTF-8"?>
<svg width="24" height="24" viewBox="0 0 24 24" xmlns="http://www.w3.org/2000/svg">
 <path d="m20.5 10.19h-2.89c-2.37 0-4.3-1.93-4.3-4.3v-2.89c0-0.55-0.45-1-1-1h-4.24c-3.08 0-5.57 2-5.57 5.57v8.86c0 3.57 2.49 5.57 5.57 5.57h7.86c3.08 0 5.57-2 5.57-5.57v-5.24c0-0.55-0.45-1-1-1z" opacity=".4"/>
 <path d="m15.8 2.2105c-0.41-0.41-1.12-0.13001-1.12 0.43999v3.49c0 1.46 1.24 2.67 2.75 2.67 0.95 0.01 2.27 0.01001 3.4 0.01001 0.57 0 0.87-0.67001 0.47-1.07-1.44-1.45-4.02-4.06-5.5-5.54z"/>
 <path d="m14.76 19.26c-2.35 0.17-2.35 3.57 0 3.74h5.56c0.67 0 1.33-0.25 1.82-0.7 1.65-1.44 0.77-4.32-1.4-4.59-0.78-4.69-7.56-2.91-5.96 1.56"/>
</svg>
