<?xml version="1.0" encoding="UTF-8"?>
<svg width="24" height="24" viewBox="0 0 24 24" xmlns="http://www.w3.org/2000/svg">
 <path d="m20.5 10.19h-2.89c-2.37 0-4.3-1.93-4.3-4.3v-2.89c0-0.55-0.45-1-1-1h-4.24c-3.08 0-5.57 2-5.57 5.57v8.86c0 3.57 2.49 5.57 5.57 5.57h7.86c3.08 0 5.57-2 5.57-5.57v-5.24c0-0.55-0.45-1-1-1z" opacity=".4"/>
 <path d="m15.8 2.2105c-0.41-0.41-1.12-0.13-1.12 0.44v3.49c0 1.46 1.24 2.67 2.75 2.67 0.95 0.01 2.27 0.01 3.4 0.01 0.57 0 0.87-0.67 0.47-1.07-1.44-1.45-4.02-4.06-5.5-5.54z"/>
 <path d="m11.53 12.47-2-2c-0.01-0.01-0.02-0.01-0.02-0.02-0.06-0.06-0.14-0.11-0.22-0.15h-0.02c-0.08-0.03-0.16-0.04-0.24-0.05h-0.08c-0.06 0-0.13 0.02-0.19 0.04-0.03 0.01-0.05 0.02-0.07 0.03-0.08 0.04-0.16 0.08-0.22 0.15l-2 2c-0.29 0.29-0.29 0.77 0 1.06s0.77 0.29 1.06 0l0.72-0.72v4.19c0 0.41 0.34 0.75 0.75 0.75s0.75-0.34 0.75-0.75v-4.19l0.71996 0.72c0.15 0.15 0.34 0.22 0.53 0.22s0.38-0.07 0.53-0.22c0.29-0.29 0.29-0.77 0-1.06z"/>
</svg>
