<?xml version="1.0" encoding="UTF-8"?>
<svg width="24" height="24" viewBox="0 0 24 24" xmlns="http://www.w3.org/2000/svg">
 <path d="m21 7v10c0 3-1.5 5-5 5h-8c-3.5 0-5-2-5-5v-10c0-3 1.5-5 5-5h8c3.5 0 5 2 5 5z" opacity=".4"/>
 <path d="m18.5 9.25h-2c-1.52 0-2.75-1.23-2.75-2.75v-2c0-0.41 0.34-0.75 0.75-0.75s0.75 0.34 0.75 0.75v2c0 0.69 0.56 1.25 1.25 1.25h2c0.41 0 0.75 0.34 0.75 0.75s-0.34 0.75-0.75 0.75z"/>
 <path d="m12 13.75h-4c-0.41 0-0.75-0.34-0.75-0.75s0.34-0.75 0.75-0.75h4c0.41 0 0.75 0.34 0.75 0.75s-0.34 0.75-0.75 0.75z"/>
 <path d="m16 17.75h-8c-0.41 0-0.75-0.34-0.75-0.75s0.34-0.75 0.75-0.75h8c0.41 0 0.75 0.34 0.75 0.75s-0.34 0.75-0.75 0.75z"/>
</svg>
