<svg width="24" height="24" viewBox="0 0 24 24"  xmlns="http://www.w3.org/2000/svg">
<path d="M7.08002 16.1003C6.72002 16.1003 6.36003 16.0103 6.03003 15.8203C5.36003 15.4403 4.96002 14.7602 4.96002 14.0002V10.4302C4.96002 10.1702 4.79002 9.73026 4.58002 9.48026L2.06 6.83023C1.59 6.37023 1.25 5.57024 1.25 4.96024V3.41025C1.25 2.20025 2.16998 1.24023 3.34998 1.24023H12.25C13.41 1.24023 14.35 2.18024 14.35 3.34024V4.82025C14.35 5.60025 13.9 6.46024 13.46 6.90024L10.53 9.49023C10.3 9.68023 10.11 10.1403 10.11 10.4803V13.3802C10.11 14.0702 9.69001 14.8403 9.14001 15.1703L8.21997 15.7702C7.85997 15.9902 7.47002 16.1003 7.08002 16.1003ZM3.34998 2.75024C3.00998 2.75024 2.75 3.04026 2.75 3.42026V4.97025C2.75 5.14025 2.92001 5.57025 3.14001 5.79025L5.71997 8.50024C6.09997 8.97024 6.46997 9.74024 6.46997 10.4302V14.0002C6.46997 14.3002 6.66003 14.4503 6.78003 14.5103C6.94003 14.6003 7.19998 14.6503 7.41998 14.5103L8.34998 13.9102C8.46998 13.8402 8.60999 13.5603 8.60999 13.3903V10.4902C8.60999 9.70023 8.99999 8.83023 9.54999 8.36023L12.43 5.81024C12.61 5.63024 12.85 5.14025 12.85 4.82025V3.34024C12.85 3.01024 12.58 2.74023 12.25 2.74023H3.34998V2.75024Z" />
<path d="M15 22.7502H9C3.57 22.7502 1.25 20.4302 1.25 15.0002V12.0002C1.25 11.5902 1.59 11.2502 2 11.2502C2.41 11.2502 2.75 11.5902 2.75 12.0002V15.0002C2.75 19.6102 4.39 21.2502 9 21.2502H15C19.61 21.2502 21.25 19.6102 21.25 15.0002V9.00023C21.25 6.10023 20.57 4.42022 19.04 3.55022C18.88 3.46022 18.35 3.22024 16.83 2.98024C16.42 2.92024 16.14 2.53023 16.21 2.12023C16.28 1.71023 16.67 1.43023 17.07 1.50023C18.38 1.71023 19.27 1.95022 19.78 2.24022C21.8 3.39022 22.75 5.54023 22.75 9.00023V15.0002C22.75 20.4302 20.43 22.7502 15 22.7502Z" />
<path d="M18 13.7502H13C12.59 13.7502 12.25 13.4102 12.25 13.0002C12.25 12.5902 12.59 12.2502 13 12.2502H18C18.41 12.2502 18.75 12.5902 18.75 13.0002C18.75 13.4102 18.41 13.7502 18 13.7502Z" />
<path d="M18 17.7502H11C10.59 17.7502 10.25 17.4102 10.25 17.0002C10.25 16.5902 10.59 16.2502 11 16.2502H18C18.41 16.2502 18.75 16.5902 18.75 17.0002C18.75 17.4102 18.41 17.7502 18 17.7502Z" />
</svg>
