<svg width="24" height="24" viewBox="0 0 24 24"  xmlns="http://www.w3.org/2000/svg">
<path opacity="0.4" d="M20.5 10.19H17.61C15.24 10.19 13.31 8.26 13.31 5.89V3C13.31 2.45 12.86 2 12.31 2H8.07C4.99 2 2.5 4.00001 2.5 7.57001V16.43C2.5 20 4.99 22 8.07 22H15.93C19.01 22 21.5 20 21.5 16.43V11.19C21.5 10.64 21.05 10.19 20.5 10.19Z" />
<path d="M15.8002 2.21048C15.3902 1.80048 14.6802 2.08047 14.6802 2.65047V6.14048C14.6802 7.60048 15.9202 8.81048 17.4302 8.81048C18.3802 8.82048 19.7002 8.82049 20.8302 8.82049C21.4002 8.82049 21.7002 8.15048 21.3002 7.75048C19.8602 6.30048 17.2802 3.69048 15.8002 2.21048Z" />
<path d="M14.7601 19.2598C12.4101 19.4298 12.4101 22.8298 14.7601 22.9998H20.3201C20.9901 22.9998 21.6501 22.7498 22.1401 22.2998C23.7901 20.8598 22.9101 17.9798 20.7401 17.7098C19.9601 13.0198 13.1801 14.7998 14.7801 19.2698" />
</svg>
