<?xml version="1.0" encoding="UTF-8"?>
<svg width="24" height="24" viewBox="0 0 24 24" xmlns="http://www.w3.org/2000/svg">
 <path d="m21 7v10c0 3-1.5 5-5 5h-7c1.21-0.91 2-2.37 2-4 0-2.76-2.24-5-5-5-1.13 0-2.17 0.37-3 1v-7c0-3 1.5-5 5-5h8c3.5 0 5 2 5 5z" opacity=".4"/>
 <path d="m14.5 3.75c0.4142 0 0.75 0.33579 0.75 0.75v2c0 0.68579 0.5642 1.25 1.25 1.25h2c0.4142 0 0.75 0.33579 0.75 0.75s-0.3358 0.75-0.75 0.75h-2c-1.5142 0-2.75-1.2358-2.75-2.75v-2c0-0.41421 0.3358-0.75 0.75-0.75z" clip-rule="evenodd" fill-rule="evenodd"/>
 <path d="m6 13c-2.76 0-5 2.24-5 5s2.24 5 5 5 5-2.24 5-5-2.24-5-5-5zm-0.84 6.27c0.25 0.25 0.25 0.66 0 0.92-0.13 0.13-0.28999 0.19-0.45999 0.19s-0.33002-0.06-0.46002-0.19l-1.73-1.73c-0.25-0.25-0.25-0.66 0-0.92l1.73-1.73c0.25-0.25 0.66001-0.25 0.92001 0 0.25 0.25 0.25 0.66 0 0.92l-1.27 1.27 1.27 1.27zm4.32-0.81-1.73 1.73c-0.13 0.13-0.28999 0.19-0.45999 0.19s-0.33002-0.06-0.46002-0.19c-0.25-0.25-0.25-0.66 0-0.92l1.27-1.27-1.27-1.27c-0.25-0.25-0.25-0.66 0-0.92 0.25-0.25 0.66001-0.25 0.92001 0l1.73 1.73c0.25 0.26 0.25 0.66 0 0.92z"/>
</svg>
