<?xml version="1.0" encoding="UTF-8"?>
<svg width="24" height="24" viewBox="0 0 24 24" xmlns="http://www.w3.org/2000/svg">
 <path d="m3.23 1h8.13c0.68 0 1.23 0.56 1.23 1.25v1.37c0 0.5-0.31 1.12-0.62 1.43l-2.65 2.37c-0.37 0.31-0.62 0.94-0.62 1.43v2.68c0 0.37-0.24999 0.87-0.54999 1.06l-0.86004 0.56c-0.8 0.5-1.91-0.06-1.91-1.06v-3.31c0-0.44-0.24999-1-0.48999-1.31l-2.34-2.5c-0.31-0.31-0.54999-0.87-0.54999-1.25v-1.43c0-0.73 0.54998-1.29 1.23-1.29z"/>
 <path d="m17 2h-2.4c-0.28 0-0.5 0.22-0.5 0.5v1.12c0 0.99-0.53 1.96-1.05 2.49l-2.72 2.43c-0.03 0.07-0.08 0.17-0.11 0.25v2.75c0 0.91-0.54 1.9-1.28 2.35l-0.82 0.53c-0.46 0.29-0.96999 0.43-1.48 0.43-0.46 0-0.92002-0.12-1.34-0.35-0.65-0.36-1.1-0.95-1.3-1.63v-2.66c0-0.13-0.05002-0.26001-0.15002-0.35001l-1-1c-0.32-0.31-0.84998-0.09-0.84998 0.35v7.79c0 2.76 2.24 5 5 5h10c2.76 0 5-2.24 5-5v-10c0-2.76-2.24-5-5-5z" opacity=".4"/>
 <path d="m18 13.75h-5c-0.41 0-0.75-0.34-0.75-0.75s0.34-0.75 0.75-0.75h5c0.41 0 0.75 0.34 0.75 0.75s-0.34 0.75-0.75 0.75z"/>
 <path d="m18 17.75h-7c-0.41 0-0.75-0.34-0.75-0.75s0.34-0.75 0.75-0.75h7c0.41 0 0.75 0.34 0.75 0.75s-0.34 0.75-0.75 0.75z"/>
</svg>
