<svg width="24" height="24" viewBox="0 0 24 24"  xmlns="http://www.w3.org/2000/svg">
<path opacity="0.4" d="M20.5 10.19H17.61C15.24 10.19 13.31 8.26 13.31 5.89V3C13.31 2.45 12.86 2 12.31 2H8.07C4.99 2 2.5 4 2.5 7.57V16.43C2.5 20 4.99 22 8.07 22H15.93C19.01 22 21.5 20 21.5 16.43V11.19C21.5 10.64 21.05 10.19 20.5 10.19Z" />
<path d="M15.8002 2.21048C15.3902 1.80048 14.6802 2.08048 14.6802 2.65048V6.14048C14.6802 7.60048 15.9202 8.81048 17.4302 8.81048C18.3802 8.82048 19.7002 8.82048 20.8302 8.82048C21.4002 8.82048 21.7002 8.15048 21.3002 7.75048C19.8602 6.30048 17.2802 3.69048 15.8002 2.21048Z" />
<path d="M11.1602 12.7299C10.5702 12.5399 9.9402 12.6499 9.5002 12.9999C9.0402 12.6499 8.4302 12.5399 7.8502 12.7299C6.5802 13.1399 6.1802 14.5899 6.5302 15.6999C7.0702 17.3999 8.8602 18.2699 9.5102 18.2699C10.1402 18.2699 11.9602 17.3699 12.4902 15.6999C12.8302 14.5899 12.4302 13.1399 11.1602 12.7299Z" />
</svg>
