<?xml version="1.0" encoding="UTF-8"?>
<svg width="24" height="24" viewBox="0 0 24 24" xmlns="http://www.w3.org/2000/svg">
 <path d="m15.5 13.15h-2.17c-1.78 0-3.23-1.44-3.23-3.23v-2.17c0-0.41-0.33-0.75-0.75-0.75h-3.17c-2.31 0-4.18 1.5-4.18 4.18v6.64c0 2.68 1.87 4.18 4.18 4.18h5.89c2.31 0 4.18-1.5 4.18-4.18v-3.92c0-0.42-0.34-0.75-0.75-0.75z" opacity=".4"/>
 <path d="m17.82 2h-5.89c-2.26 0-4.09 1.44-4.17 4.01 0.06 0 0.11-0.01 0.17-0.01h5.89c2.31 0 4.18 1.5 4.18 4.18v6.65c0 0.06-0.01 0.11-0.01 0.16 2.23-0.07 4.01-1.55 4.01-4.16v-6.65c0-2.68-1.87-4.18-4.18-4.18z"/>
 <path d="m11.98 7.1498c-0.31-0.31-0.84-0.1-0.84 0.33v2.62c0 1.1 0.93 2 2.07 2 0.71 0.01 1.7 0.01 2.55 0.01 0.43 0 0.65-0.5 0.35-0.8-1.09-1.09-3.03-3.04-4.13-4.16z"/>
</svg>
