<?xml version="1.0" encoding="UTF-8"?>
<svg width="24" height="24" viewBox="0 0 24 24" xmlns="http://www.w3.org/2000/svg">
 <path d="m12 21.9c5.5228 0 10-4.4771 10-10 0-5.5228-4.4772-10-10-10-5.5228 0-10 4.4772-10 10 0 5.5229 4.4772 10 10 10z" opacity=".4"/>
 <path d="m14.26 12-1.51-0.53v-3.39h0.36c0.81 0 1.47 0.71 1.47 1.58 0 0.41 0.34 0.75 0.75 0.75s0.75-0.34 0.75-0.75c0-1.7-1.33-3.08-2.97-3.08h-0.36v-0.58c0-0.41-0.34-0.75-0.75-0.75s-0.75 0.34-0.75 0.75v0.58h-0.65c-1.48 0-2.69 1.25-2.69 2.78 0 1.79 1.04 2.36 1.83 2.64l1.51 0.53v3.38h-0.36c-0.81 0-1.47-0.71-1.47-1.58 0-0.41-0.34-0.75-0.75-0.75s-0.75 0.34-0.75 0.75c0 1.7 1.33 3.08 2.97 3.08h0.36v0.59c0 0.41 0.34 0.75 0.75 0.75s0.75-0.34 0.75-0.75v-0.58h0.65c1.48 0 2.69-1.25 2.69-2.78-0.01-1.8-1.05-2.37-1.83-2.64zm-4.02-1.41c-0.51004-0.18-0.82004-0.35-0.82004-1.22 0-0.71 0.53-1.28 1.19-1.28h0.65v2.86l-1.02-0.36zm3.16 5.33h-0.65v-2.86l1.01 0.35c0.51 0.18 0.82 0.35 0.82 1.22 0 0.71-0.53 1.29-1.18 1.29z"/>
</svg>
