<svg width="24" height="24" viewBox="0 0 24 24"  xmlns="http://www.w3.org/2000/svg">
<path d="M6.86999 12.28C6.44999 12.28 6.01997 12.26 5.59997 12.22L2.42999 11.93C2.01999 11.89 1.71 11.53 1.75 11.11C1.79 10.7 2.14001 10.39 2.57001 10.43L5.73999 10.72C10.64 11.17 15.4 8.69001 17.85 4.41001C18.06 4.05001 18.51 3.93001 18.87 4.13001C19.23 4.34001 19.35 4.79 19.15 5.15C16.63 9.58 11.9 12.28 6.86999 12.28Z" />
<path d="M5.50003 20.12C5.37003 20.12 5.25003 20.09 5.13003 20.02C4.77003 19.81 4.65 19.36 4.85 19C7.59 14.21 12.9101 11.43 18.4001 11.94L21.57 12.23C21.98 12.27 22.29 12.63 22.25 13.05C22.21 13.46 21.86 13.76 21.43 13.73L18.26 13.44C13.36 12.99 8.60005 15.47 6.15005 19.75C6.01005 19.99 5.76003 20.12 5.50003 20.12Z" />
<path d="M12 22.75C6.07 22.75 1.25 17.93 1.25 12C1.25 6.07 6.07 1.25 12 1.25C17.93 1.25 22.75 6.07 22.75 12C22.75 17.93 17.93 22.75 12 22.75ZM12 2.75C6.9 2.75 2.75 6.9 2.75 12C2.75 17.1 6.9 21.25 12 21.25C17.1 21.25 21.25 17.1 21.25 12C21.25 6.9 17.1 2.75 12 2.75Z" />
<path d="M16.47 21.7C16.13 21.7 15.83 21.47 15.74 21.13L14.53 16.14C13.76 12.98 12.28 9.96999 10.23 7.42999L7.04999 3.48C6.78999 3.16 6.83998 2.68999 7.15998 2.42999C7.47998 2.16999 7.95003 2.22 8.21003 2.54L11.39 6.48998C13.57 9.19998 15.16 12.41 15.98 15.78L17.19 20.77C17.29 21.17 17.04 21.58 16.64 21.68C16.59 21.69 16.53 21.7 16.47 21.7Z" />
</svg>
