<svg width="24" height="24" viewBox="0 0 24 24"  xmlns="http://www.w3.org/2000/svg">
<path d="M19.3198 10.7498H4.68977C2.79977 10.7498 1.25977 9.20978 1.25977 7.31978V4.68977C1.25977 2.79977 2.79977 1.25977 4.68977 1.25977H19.3198C21.2098 1.25977 22.7498 2.79977 22.7498 4.68977V7.31978C22.7498 9.20978 21.2098 10.7498 19.3198 10.7498ZM4.67976 2.74977C3.60976 2.74977 2.74977 3.61976 2.74977 4.67976V7.30977C2.74977 8.37977 3.61976 9.23978 4.67976 9.23978H19.3098C20.3798 9.23978 21.2398 8.36977 21.2398 7.30977V4.67976C21.2398 3.60976 20.3698 2.74977 19.3098 2.74977H4.67976Z" />
<path d="M19.3198 22.7498H4.68977C2.79977 22.7498 1.25977 21.2098 1.25977 19.3198V16.6898C1.25977 14.7998 2.79977 13.2598 4.68977 13.2598H19.3198C21.2098 13.2598 22.7498 14.7998 22.7498 16.6898V19.3198C22.7498 21.2098 21.2098 22.7498 19.3198 22.7498ZM4.67976 14.7498C3.60976 14.7498 2.74977 15.6198 2.74977 16.6798V19.3098C2.74977 20.3798 3.61976 21.2398 4.67976 21.2398H19.3098C20.3798 21.2398 21.2398 20.3698 21.2398 19.3098V16.6798C21.2398 15.6098 20.3698 14.7498 19.3098 14.7498H4.67976Z" />
<path d="M6 7.74976C5.59 7.74976 5.25 7.40976 5.25 6.99976V4.99976C5.25 4.58976 5.59 4.24976 6 4.24976C6.41 4.24976 6.75 4.58976 6.75 4.99976V6.99976C6.75 7.40976 6.41 7.74976 6 7.74976Z" />
<path d="M10 7.74976C9.59 7.74976 9.25 7.40976 9.25 6.99976V4.99976C9.25 4.58976 9.59 4.24976 10 4.24976C10.41 4.24976 10.75 4.58976 10.75 4.99976V6.99976C10.75 7.40976 10.41 7.74976 10 7.74976Z" />
<path d="M6 19.7498C5.59 19.7498 5.25 19.4098 5.25 18.9998V16.9998C5.25 16.5898 5.59 16.2498 6 16.2498C6.41 16.2498 6.75 16.5898 6.75 16.9998V18.9998C6.75 19.4098 6.41 19.7498 6 19.7498Z" />
<path d="M10 19.7498C9.59 19.7498 9.25 19.4098 9.25 18.9998V16.9998C9.25 16.5898 9.59 16.2498 10 16.2498C10.41 16.2498 10.75 16.5898 10.75 16.9998V18.9998C10.75 19.4098 10.41 19.7498 10 19.7498Z" />
<path d="M18 6.74976H14C13.59 6.74976 13.25 6.40976 13.25 5.99976C13.25 5.58976 13.59 5.24976 14 5.24976H18C18.41 5.24976 18.75 5.58976 18.75 5.99976C18.75 6.40976 18.41 6.74976 18 6.74976Z" />
<path d="M18 18.7498H14C13.59 18.7498 13.25 18.4098 13.25 17.9998C13.25 17.5898 13.59 17.2498 14 17.2498H18C18.41 17.2498 18.75 17.5898 18.75 17.9998C18.75 18.4098 18.41 18.7498 18 18.7498Z" />
</svg>
