<?xml version="1.0" encoding="UTF-8"?>
<svg width="24" height="24" viewBox="0 0 24 24" xmlns="http://www.w3.org/2000/svg">
 <path d="m12 18.75c-0.41 0-0.75-0.34-0.75-0.75v-1c0-0.41 0.34-0.75 0.75-0.75s0.75 0.34 0.75 0.75v1c0 0.41-0.34 0.75-0.75 0.75z"/>
 <path d="m12 22.75c-0.41 0-0.75-0.34-0.75-0.75v-1c0-0.41 0.34-0.75 0.75-0.75s0.75 0.34 0.75 0.75v1c0 0.41-0.34 0.75-0.75 0.75z"/>
 <path d="m2.0001 22.75c-0.06 0-0.11999-0.01-0.17999-0.02-0.4-0.1-0.65-0.51-0.55-0.91l1-4c0.1-0.4 0.49999-0.65 0.90999-0.55 0.4 0.1 0.65 0.51 0.55 0.91l-1 4c-0.09 0.34-0.39 0.57-0.73 0.57z"/>
 <path d="m22 22.75c-0.34 0-0.64-0.23-0.73-0.57l-1-4c-0.1-0.4 0.14-0.81 0.55-0.91 0.4-0.1 0.81 0.14 0.91 0.55l1 4c0.1 0.4-0.14 0.81-0.55 0.91-0.06 0.01-0.12 0.02-0.18 0.02z"/>
 <path d="m19.26 9.5198c-0.11-1.18-0.42-2.43-2.71-2.43h-9.1c-2.29 0-2.6 1.26-2.71 2.43l-0.4 4.34c-0.05 0.54 0.13 1.08 0.5 1.49 0.38 0.41 0.92001 0.65 1.48 0.65h1.34c1.15 0 1.37-0.66 1.52-1.1l0.14002-0.43c0.16-0.49 0.19999-0.61 0.84995-0.61h3.65c0.64 0 0.66 0.07 0.85 0.61l0.14 0.43c0.15 0.44 0.37 1.1 1.52 1.1h1.34c0.56 0 1.1-0.24 1.48-0.65 0.37-0.4 0.55-0.95 0.5-1.49l-0.39-4.34z" opacity=".4"/>
 <path d="m18.42 4.94h-0.71-0.01l-0.27-1.29c-0.26-1.25-0.79-2.4-2.92-2.4h-5.01c-2.13 0-2.66 1.15-2.92 2.4l-0.27 1.29h-0.01-0.71c-0.3 0-0.54 0.23998-0.54 0.53998s0.24 0.54004 0.54 0.54004h0.51001l-0.30001 1.43c0.39-0.22 0.92001-0.35998 1.66-0.35998h9.1c0.74 0 1.28 0.13998 1.66 0.35998l-0.3-1.43h0.51c0.3 0 0.54-0.24004 0.54-0.54004-0.01-0.3-0.25-0.53998-0.55-0.53998z"/>
 <path d="m9.8602 11.01h-2.14c-0.3 0-0.54-0.24-0.54-0.54s0.24-0.54002 0.54-0.54002h2.14c0.30002 0 0.54002 0.24002 0.54002 0.54002-0.01 0.3-0.25 0.54-0.54002 0.54z"/>
 <path d="m16.28 11.01h-2.14c-0.3 0-0.54-0.24-0.54-0.54s0.24-0.54002 0.54-0.54002h2.14c0.3 0 0.54 0.24002 0.54 0.54002s-0.24 0.54-0.54 0.54z"/>
</svg>
