<svg width="24" height="24" viewBox="0 0 24 24"  xmlns="http://www.w3.org/2000/svg">
<path opacity="0.4" d="M11.9999 5.99932L6.43985 9.99932L3.18985 7.79932C2.60985 7.40932 2.59986 6.56932 3.16986 6.15932L6.99985 3.39932C7.33985 3.15932 7.79986 3.14932 8.13986 3.37932L11.9999 5.99932Z" />
<path opacity="0.4" d="M20.81 7.79883L17.56 9.99883L12 5.99883L15.86 3.38883C16.21 3.15883 16.66 3.15883 17 3.40883L20.83 6.16882C21.4 6.56883 21.39 7.40883 20.81 7.79883Z" />
<path opacity="0.4" d="M11.9999 14L7.55992 17L4.99992 15.16L3.15992 13.84C2.59992 13.43 2.60991 12.59 3.17991 12.2L6.42991 10L11.9999 14Z" />
<path opacity="0.4" d="M20.81 12.2C21.39 12.59 21.4 13.43 20.83 13.84L19 15.16L16.44 17L12 14L17.56 10L20.81 12.2Z" />
<path d="M19 15.16V18.13C19 18.52 18.77 18.87 18.42 19.04L12.42 21.81C12.15 21.93 11.85 21.93 11.58 21.81L5.57999 19.04C5.22999 18.88 5 18.52 5 18.13V15.16L7.56 17L12 14L16.44 17L19 15.16Z" />
</svg>
