<svg width="24" height="24" viewBox="0 0 24 24"  xmlns="http://www.w3.org/2000/svg">
<path d="M16.59 7.41L6.30996 17.69C5.82996 18.17 5.00996 18.06 4.71996 17.45C4.19996 16.38 3.89996 15.17 3.89996 13.9C3.87996 8.38 9.47996 3.66 11.38 2.21C11.75 1.93 12.25 1.93 12.61 2.21C13.48 2.87 15.11 4.24 16.64 6.04C16.98 6.44 16.96 7.04 16.59 7.41Z" />
<path d="M20.1 13.9103C20.1 18.3703 16.47 22.0003 12 22.0003C10.21 22.0003 8.53996 21.4203 7.18996 20.4203C6.69996 20.0603 6.65996 19.3403 7.08996 18.9103L17.16 8.84026C17.63 8.37026 18.42 8.47026 18.74 9.05026C19.56 10.5603 20.11 12.2003 20.1 13.9103Z" />
</svg>
