<svg width="24" height="24" viewBox="0 0 24 24"  xmlns="http://www.w3.org/2000/svg">
<path d="M6.44009 9.75009C6.29009 9.75009 6.15008 9.71009 6.02008 9.62009L1.58008 6.62009C1.38008 6.48009 1.25009 6.2501 1.25009 6.0101C1.25009 5.7601 1.36009 5.53011 1.56009 5.39011L7.12009 1.39011C7.38009 1.21011 7.7201 1.2001 7.9801 1.3801L12.4201 4.3801C12.6201 4.5201 12.7501 4.75008 12.7501 4.99008C12.7501 5.24008 12.6401 5.47008 12.4401 5.61008L6.8801 9.61008C6.7501 9.70008 6.60009 9.75009 6.44009 9.75009ZM3.31009 5.98011L6.43008 8.09009L10.6901 5.02008L7.5701 2.9101L3.31009 5.98011Z" />
<path d="M17.5601 9.75008C17.4101 9.75008 17.2501 9.70007 17.1201 9.61007L11.5601 5.61007C11.3601 5.47007 11.2401 5.23007 11.2501 4.99007C11.2501 4.74007 11.3801 4.52009 11.5801 4.38009L16.0201 1.38009C16.2801 1.21009 16.6201 1.2101 16.8801 1.3901L22.4401 5.3901C22.6401 5.5301 22.7601 5.77009 22.7501 6.01009C22.7501 6.26009 22.6201 6.48008 22.4201 6.62008L17.9801 9.62008C17.8501 9.71008 17.7001 9.75008 17.5601 9.75008ZM13.3101 5.02007L17.5701 8.09008L20.6901 5.98009L16.4301 2.91009L13.3101 5.02007Z" />
<path d="M7.56009 17.7501C7.41009 17.7501 7.25009 17.7001 7.12009 17.6101L1.56009 13.6101C1.36009 13.4701 1.24009 13.2301 1.25009 12.9901C1.25009 12.7401 1.38008 12.5201 1.58008 12.3801L6.02008 9.38009C6.28008 9.21009 6.6201 9.2101 6.8801 9.3901L12.4401 13.3901C12.6401 13.5301 12.7601 13.7701 12.7501 14.0101C12.7501 14.2601 12.6201 14.4801 12.4201 14.6201L7.9801 17.6201C7.8501 17.7101 7.70009 17.7501 7.56009 17.7501ZM3.31009 13.0201L7.5701 16.0901L10.6901 13.9801L6.43008 10.9101L3.31009 13.0201Z" />
<path d="M16.4401 17.7501C16.2901 17.7501 16.1501 17.7101 16.0201 17.6201L11.5801 14.6201C11.3801 14.4801 11.2501 14.2501 11.2501 14.0101C11.2501 13.7601 11.3601 13.5301 11.5601 13.3901L17.1201 9.39011C17.3701 9.21011 17.7201 9.2001 17.9801 9.3801L22.4201 12.3801C22.6201 12.5201 22.7501 12.7501 22.7501 12.9901C22.7501 13.2401 22.6401 13.4701 22.4401 13.6101L16.8801 17.6101C16.7501 17.7001 16.6001 17.7501 16.4401 17.7501ZM13.3101 13.9801L16.4301 16.0901L20.6901 13.0201L17.5701 10.9101L13.3101 13.9801Z" />
<path d="M12.0001 22.6501C11.7501 22.6501 11.5001 22.6001 11.2701 22.4901L4.69009 19.4501C4.42009 19.3301 4.25009 19.0601 4.25009 18.7701V15.5001C4.25009 15.0901 4.59009 14.7501 5.00009 14.7501C5.41009 14.7501 5.75009 15.0901 5.75009 15.5001V18.2901L11.9001 21.1301C11.9701 21.1601 12.0401 21.1601 12.1101 21.1301L18.2601 18.2901V15.5001C18.2601 15.0901 18.6001 14.7501 19.0101 14.7501C19.4201 14.7501 19.7601 15.0901 19.7601 15.5001V18.7701C19.7601 19.0601 19.5901 19.3301 19.3201 19.4501L12.7401 22.4901C12.5001 22.6001 12.2501 22.6501 12.0001 22.6501Z" />
</svg>
