<?xml version="1.0" encoding="UTF-8"?>
<svg width="24" height="24" viewBox="0 0 24 24" xmlns="http://www.w3.org/2000/svg">
 <path d="m12 5.9993-5.56 4-3.25-2.2c-0.58-0.39-0.58999-1.23-0.01999-1.64l3.83-2.76c0.34-0.24 0.80001-0.25 1.14-0.02l3.86 2.62z" opacity=".4"/>
 <path d="m20.81 7.7988-3.25 2.2-5.56-4 3.86-2.61c0.35-0.23 0.8-0.23 1.14 0.02l3.83 2.76c0.57 0.40001 0.56 1.24-0.02 1.63z" opacity=".4"/>
 <path d="m12 14-4.44 3-2.56-1.84-1.84-1.32c-0.56-0.41-0.55001-1.25 0.01999-1.64l3.25-2.2 5.57 4z" opacity=".4"/>
 <path d="m20.81 12.2c0.58 0.39 0.59 1.23 0.02 1.64l-1.83 1.32-2.56 1.84-4.44-3 5.56-4 3.25 2.2z" opacity=".4"/>
 <path d="m19 15.16v2.97c0 0.39-0.23 0.74-0.58 0.91l-6 2.77c-0.27 0.12-0.57 0.12-0.84 0l-6-2.77c-0.35-0.16-0.57999-0.52-0.57999-0.91v-2.97l2.56 1.84 4.44-3 4.44 3 2.56-1.84z"/>
</svg>
