<?xml version="1.0" encoding="UTF-8"?>
<svg width="24" height="24" viewBox="0 0 24 24" xmlns="http://www.w3.org/2000/svg">
 <path d="m21 22h-18c-0.41 0-0.75-0.34-0.75-0.75s0.34-0.75 0.75-0.75h18c0.41 0 0.75 0.34 0.75 0.75s-0.34 0.75-0.75 0.75z" opacity=".4"/>
 <path d="m19.02 3.4797c-1.94-1.94-3.84-1.99-5.83 0l-1.21 1.21c-0.1 0.1-0.14 0.26-0.1 0.4 0.76 2.65 2.88 4.77 5.53 5.53 0.04 0.01 0.08 0.02 0.12 0.02 0.11 0 0.21-0.04 0.29-0.12l1.2-1.21c0.99-0.98 1.47-1.93 1.47-2.89 0.01-0.99-0.47-1.95-1.47-2.94z" opacity=".4"/>
 <path d="m15.61 11.53c-0.29-0.14-0.57-0.28-0.84-0.44-0.22-0.13-0.43-0.27-0.64-0.42-0.17-0.11-0.37-0.27-0.56-0.43-0.02-0.01-0.09-0.07-0.17-0.15-0.33-0.28-0.7-0.64-1.03-1.04-0.03-0.02-0.08-0.09-0.15-0.18-0.1-0.12-0.27-0.32-0.42-0.55-0.12-0.15-0.26-0.37-0.39-0.59-0.16-0.27-0.3-0.54-0.44-0.82-0.14-0.3-0.25-0.59-0.35-0.86l-6.28 6.28c-0.13 0.13-0.25 0.38-0.28 0.55l-0.54 3.83c-0.1 0.68 0.09 1.32 0.51 1.75 0.36 0.35 0.86 0.54 1.4 0.54 0.12 0 0.24-0.01 0.36-0.03l3.84-0.54c0.18-0.03 0.42997-0.15 0.54997-0.28l6.28-6.28c-0.28-0.1-0.55-0.21-0.85-0.34z"/>
</svg>
