<svg width="24" height="24" viewBox="0 0 24 24"  xmlns="http://www.w3.org/2000/svg">
<path d="M15 22.7501H9C3.57 22.7501 1.25 20.4301 1.25 15.0001V9.00006C1.25 3.57006 3.57 1.25006 9 1.25006H11C11.41 1.25006 11.75 1.59006 11.75 2.00006C11.75 2.41006 11.41 2.75006 11 2.75006H9C4.39 2.75006 2.75 4.39006 2.75 9.00006V15.0001C2.75 19.6101 4.39 21.2501 9 21.2501H15C19.61 21.2501 21.25 19.6101 21.25 15.0001V13.0001C21.25 12.5901 21.59 12.2501 22 12.2501C22.41 12.2501 22.75 12.5901 22.75 13.0001V15.0001C22.75 20.4301 20.43 22.7501 15 22.7501Z" />
<path d="M8.5 17.6901C7.89 17.6901 7.33 17.4701 6.92 17.0701C6.43 16.5801 6.22 15.8701 6.33 15.1201L6.76 12.1101C6.84 11.5301 7.22 10.7801 7.63 10.3701L15.51 2.49006C17.5 0.500059 19.52 0.500059 21.51 2.49006C22.6 3.58006 23.09 4.69006 22.99 5.80006C22.9 6.70006 22.42 7.58006 21.51 8.48006L13.63 16.3601C13.22 16.7701 12.47 17.1501 11.89 17.2301L8.88 17.6601C8.75 17.6901 8.62 17.6901 8.5 17.6901ZM16.57 3.55006L8.69 11.4301C8.5 11.6201 8.28 12.0601 8.24 12.3201L7.81 15.3301C7.77 15.6201 7.83 15.8601 7.98 16.0101C8.13 16.1601 8.37 16.2201 8.66 16.1801L11.67 15.7501C11.93 15.7101 12.38 15.4901 12.56 15.3001L20.44 7.42006C21.09 6.77006 21.43 6.19006 21.48 5.65006C21.54 5.00006 21.2 4.31006 20.44 3.54006C18.84 1.94006 17.74 2.39006 16.57 3.55006Z" />
<path d="M19.85 9.83006C19.78 9.83006 19.71 9.82006 19.65 9.80006C17.02 9.06006 14.93 6.97006 14.19 4.34006C14.08 3.94006 14.31 3.53006 14.71 3.41006C15.11 3.30006 15.52 3.53006 15.63 3.93006C16.23 6.06006 17.92 7.75006 20.05 8.35006C20.45 8.46006 20.68 8.88006 20.57 9.28006C20.48 9.62006 20.18 9.83006 19.85 9.83006Z" />
</svg>
