<?xml version="1.0" encoding="UTF-8"?>
<svg width="24" height="24" viewBox="0 0 24 24" xmlns="http://www.w3.org/2000/svg">
 <path d="m10.5 16h3c2.5 0 4-1.8 4-4v-5.09c0-1.05-0.86-1.91-1.91-1.91h-7.17c-1.05 0-1.91 0.86-1.91 1.91v5.09c-0.01 2.2 1.49 4 3.99 4z" opacity=".4"/>
 <path d="m10.25 2v3h-1.5v-3c0-0.41 0.34-0.75 0.75-0.75s0.75 0.34 0.75 0.75z"/>
 <path d="m15.25 2v3h-1.5v-3c0-0.41 0.34-0.75 0.75-0.75s0.75 0.34 0.75 0.75z"/>
 <path d="m12.75 16v6c0 0.41-0.34 0.75-0.75 0.75s-0.75-0.34-0.75-0.75v-6h1.5z"/>
</svg>
