<?xml version="1.0" encoding="UTF-8"?>
<svg width="24" height="24" viewBox="0 0 24 24" xmlns="http://www.w3.org/2000/svg">
 <path d="m12 22c5.5228 0 10-4.4772 10-10 0-5.5228-4.4772-10-10-10-5.5228 0-10 4.4772-10 10 0 5.5228 4.4772 10 10 10z" opacity=".4"/>
 <path d="m16.5 7.25h-9c-0.41 0-0.75 0.34-0.75 0.75s0.34 0.75 0.75 0.75h4.25v2.5h-4.25c-0.41 0-0.75 0.34-0.75 0.75s0.34 0.75 0.75 0.75h5c0.41 0 0.75-0.34 0.75-0.75v-3.25h2.5v6.5h-8.25c-0.41 0-0.75 0.34-0.75 0.75s0.34 0.75 0.75 0.75h9c0.41 0 0.75-0.34 0.75-0.75v-8c0-0.41-0.34-0.75-0.75-0.75z"/>
</svg>
