<svg width="24" height="24" viewBox="0 0 24 24"  xmlns="http://www.w3.org/2000/svg">
<path opacity="0.4" d="M16.19 2H7.81C4.17 2 2 4.17 2 7.81V16.18C2 19.83 4.17 22 7.81 22H16.18C19.82 22 21.99 19.83 21.99 16.19V7.81C22 4.17 19.83 2 16.19 2Z" />
<path d="M10.6399 9.50043C10.4499 9.50043 10.2599 9.43043 10.1099 9.28043C9.39994 8.57043 8.23994 8.57043 7.52994 9.28043C7.23994 9.57043 6.75994 9.57043 6.46994 9.28043C6.17994 8.99043 6.17994 8.51043 6.46994 8.22043C7.75994 6.93043 9.86994 6.93043 11.1699 8.22043C11.4599 8.51043 11.4599 8.99043 11.1699 9.28043C11.0199 9.43043 10.8299 9.50043 10.6399 9.50043Z" />
<path d="M13.3598 9.50043C13.1698 9.50043 12.9798 9.43043 12.8298 9.28043C12.5398 8.99043 12.5398 8.51043 12.8298 8.22043C14.1198 6.93043 16.2298 6.93043 17.5298 8.22043C17.8198 8.51043 17.8198 8.99043 17.5298 9.28043C17.2398 9.57043 16.7598 9.57043 16.4698 9.28043C15.7598 8.57043 14.5998 8.57043 13.8898 9.28043C13.7498 9.43043 13.5598 9.50043 13.3598 9.50043Z" />
<path d="M12.0001 11.9199C9.31012 11.9199 7.12012 14.1099 7.12012 16.7999C7.12012 17.4999 7.69012 18.0799 8.39012 18.0799H15.5901C16.2901 18.0799 16.8601 17.5099 16.8601 16.7999C16.8801 14.1099 14.6901 11.9199 12.0001 11.9199Z" />
</svg>
