<?xml version="1.0" encoding="UTF-8"?>
<svg width="24" height="24" viewBox="0 0 24 24" xmlns="http://www.w3.org/2000/svg">
 <path d="M16.19 2H7.81C4.17 2 2 4.17 2 7.81V16.18C2 19.83 4.17 22 7.81 22H16.18C19.82 22 21.99 19.83 21.99 16.19V7.81C22 4.17 19.83 2 16.19 2Z" opacity=".4"/>
 <path d="m15.5 10.13c1.0383 0 1.88-0.84169 1.88-1.88 0-1.0383-0.8417-1.88-1.88-1.88s-1.88 0.8417-1.88 1.88c0 1.0383 0.8417 1.88 1.88 1.88z"/>
 <path d="m8.5001 10.13c1.0383 0 1.88-0.84169 1.88-1.88 0-1.0383-0.84169-1.88-1.88-1.88-1.0383 0-1.88 0.8417-1.88 1.88 0 1.0383 0.8417 1.88 1.88 1.88z"/>
 <path d="m15.6 12.92h-7.2c-0.7 0-1.27 0.57-1.27 1.28 0 2.69 2.19 4.88 4.88 4.88 2.69 0 4.88-2.19 4.88-4.88-0.01-0.7-0.59-1.28-1.29-1.28z"/>
</svg>
