<?xml version="1.0" encoding="UTF-8"?>
<svg width="24" height="24" viewBox="0 0 24 24" xmlns="http://www.w3.org/2000/svg">
 <path d="M16.19 2H7.81C4.17 2 2 4.17 2 7.81V16.18C2 19.83 4.17 22 7.81 22H16.18C19.82 22 21.99 19.83 21.99 16.19V7.81C22 4.17 19.83 2 16.19 2Z" opacity=".4"/>
 <path d="m10.64 9.5004c-0.19 0-0.38-0.07-0.53-0.22-0.70996-0.71-1.87-0.71-2.58 0-0.29 0.29-0.77 0.29-1.06 0s-0.29-0.77 0-1.06c1.29-1.29 3.4-1.29 4.7 0 0.29 0.29 0.29 0.77 0 1.06-0.15 0.15-0.34 0.22-0.53 0.22z"/>
 <path d="m13.36 9.5004c-0.19 0-0.38-0.07-0.53-0.22-0.29-0.29-0.29-0.77 0-1.06 1.29-1.29 3.4-1.29 4.7 0 0.29 0.29 0.29 0.77 0 1.06s-0.77 0.29-1.06 0c-0.71-0.71-1.87-0.71-2.58 0-0.14 0.15-0.33 0.22-0.53 0.22z"/>
 <path d="m12 11.92c-2.69 0-4.88 2.19-4.88 4.88 0 0.7 0.57 1.28 1.27 1.28h7.2c0.7 0 1.27-0.57 1.27-1.28 0.02-2.69-2.17-4.88-4.86-4.88z"/>
</svg>
