<?xml version="1.0" encoding="UTF-8"?>
<svg width="24" height="24" viewBox="0 0 24 24" xmlns="http://www.w3.org/2000/svg">
 <path d="m19.48 12.95h2.02v-1.44c0-2.07-1.69-3.76-3.76-3.76h-11.48c-2.07 0-3.76 1.69-3.76 3.76v6.73c0 2.07 1.69 3.76 3.76 3.76h11.48c2.07 0 3.76-1.69 3.76-3.76v-1.19h-1.9c-1.08 0-2.07-0.79-2.16-1.87-0.06-0.63 0.18-1.22 0.6-1.63 0.37-0.38 0.88-0.6 1.44-0.6zm-12.88 7.63c-0.15 0.14-0.34 0.21-0.53 0.21s-0.38-0.07-0.53-0.21l-0.53-0.53-0.55 0.55c-0.15 0.15-0.34 0.22-0.53 0.22s-0.38-0.07-0.53-0.22c-0.29-0.29-0.29-0.77 0-1.06l0.55-0.55-0.53-0.53c-0.29-0.29-0.29-0.77 0-1.06 0.3-0.29 0.77-0.29 1.07 0l0.52 0.53 0.5-0.51c0.3-0.29 0.77-0.29 1.07 0 0.29 0.3 0.29 0.77 0 1.07l-0.51 0.5 0.53 0.52c0.29 0.3 0.29 0.77 0 1.07z" opacity=".4"/>
 <path d="m14.85 3.95v3.8h-8.59c-2.07 0-3.76 1.69-3.76 3.76v-3.67c0-1.19 0.73-2.25 1.84-2.67l7.94-3c1.24-0.46 2.57 0.45003 2.57 1.78z"/>
 <path d="m22.56 13.97v2.06c0 0.55-0.44 1-1 1.02h-1.96c-1.08 0-2.07-0.79-2.16-1.87-0.06-0.63 0.18-1.22 0.6-1.63 0.37-0.38 0.88-0.6 1.44-0.6h2.08c0.56 0.02 1 0.47 1 1.02z"/>
 <path d="m14 12.75h-7c-0.41 0-0.75-0.34-0.75-0.75s0.34-0.75 0.75-0.75h7c0.41 0 0.75 0.34 0.75 0.75s-0.34 0.75-0.75 0.75z"/>
 <path d="m5 15c-0.94 0-1.81 0.33-2.5 0.88-0.92 0.73-1.5 1.86-1.5 3.12 0 0.75 0.21 1.46 0.58 2.06 0.69 1.16 1.96 1.94 3.42 1.94 1.01 0 1.93-0.37 2.63-1 0.31-0.26 0.58-0.58 0.79-0.94 0.37-0.6 0.58-1.31 0.58-2.06 0-2.21-1.79-4-4-4zm-1.58 3.46c-0.29-0.29-0.29-0.77 0-1.06 0.3-0.29 0.77-0.29 1.07 0l0.52 0.53 0.5-0.51c0.3-0.29 0.77-0.29 1.07 0 0.29 0.3 0.29 0.77 0 1.07l-0.51 0.5 0.53 0.52c0.29 0.3 0.29 0.77 0 1.07-0.15 0.14-0.34 0.21-0.53 0.21s-0.38-0.07-0.53-0.21l-0.53-0.53-0.55 0.55c-0.15 0.15-0.34 0.22-0.53 0.22s-0.38-0.07-0.53-0.22c-0.29-0.29-0.29-0.77 0-1.06l0.55-0.55-0.53-0.53z"/>
</svg>
