<?xml version="1.0" encoding="UTF-8"?>
<svg width="24" height="24" viewBox="0 0 24 24" xmlns="http://www.w3.org/2000/svg">
 <path d="m19.48 12.95h2.02v-1.44c0-2.07-1.69-3.76-3.76-3.76h-11.48c-2.07 0-3.76 1.69-3.76 3.76v3.65c0.79-0.72 1.85-1.16 3-1.16 2.49 0 4.5 2.02 4.5 4.5 0 0.53-0.08999 1.03-0.25999 1.5-0.27 0.79-0.77001 1.47-1.4 2h9.4c2.07 0 3.76-1.69 3.76-3.76v-1.19h-1.9c-1.08 0-2.07-0.79-2.16-1.87-0.06-0.63 0.18-1.22 0.6-1.63 0.37-0.38 0.88-0.6 1.44-0.6z" opacity=".4"/>
 <path d="m5.5 14c-1.15 0-2.21 0.44-3 1.16-0.18 0.16-0.35 0.33-0.5 0.52-0.63 0.77-1 1.75-1 2.82 0 2.49 2.02 4.5 4.5 4.5 1.08 0 2.06-0.38 2.84-1 0.63-0.53 1.13-1.21 1.4-2 0.17-0.47 0.25999-0.97 0.25999-1.5 0-2.48-2.01-4.5-4.5-4.5zm2.7 3.63c0 0.31-0.25001 0.55-0.55001 0.55s-0.54998-0.24-0.54998-0.55v-0.11c0-0.12-0.09001-0.22-0.21001-0.22h-2.26c0.11 0.21 0.08999 0.47-0.09001 0.65-0.1 0.1-0.24 0.16-0.39 0.16-0.14 0-0.27999-0.06-0.37999-0.16l-0.80999-0.81c-0.05-0.05-0.09001-0.11-0.12001-0.18-0.05-0.13-0.05-0.28 0-0.42 0.03-0.06 0.07001-0.13 0.12001-0.18l0.80999-0.8c0.21-0.22 0.55999-0.22 0.76999 0 0.18 0.17 0.20001 0.44 0.09001 0.64h2.26c0.72 0 1.31 0.59 1.31 1.32v0.11zm-1.35 3.97c-0.15 0-0.29-0.05-0.39-0.16-0.18-0.17-0.20002-0.44-0.09001-0.64h-2.26c-0.72 0-1.31-0.59-1.31-1.32v-0.11c0-0.31 0.25001-0.55 0.55001-0.55s0.54998 0.24 0.54998 0.55v0.11c0 0.12 0.09001 0.22 0.21001 0.22h2.26c-0.11001-0.21-0.08999-0.47 0.09001-0.65 0.21-0.21 0.55999-0.21 0.76999 0l0.80999 0.81c0.05 0.05 0.09001 0.11 0.12001 0.18 0.05 0.13 0.05 0.28 0 0.42-0.03 0.06-0.07001 0.13-0.12001 0.18l-0.80999 0.8c-0.1 0.11-0.23999 0.16-0.37999 0.16z"/>
 <path d="m14.85 3.95v3.8h-8.59c-2.07 0-3.76 1.69-3.76 3.76v-3.67c0-1.19 0.73-2.25 1.84-2.67l7.94-3c1.24-0.46 2.57 0.45003 2.57 1.78z"/>
 <path d="m22.56 13.97v2.06c0 0.55-0.44 1-1 1.02h-1.96c-1.08 0-2.07-0.79-2.16-1.87-0.06-0.63 0.18-1.22 0.6-1.63 0.37-0.38 0.88-0.6 1.44-0.6h2.08c0.56 0.02 1 0.47 1 1.02z"/>
 <path d="m14 12.75h-7c-0.41 0-0.75-0.34-0.75-0.75s0.34-0.75 0.75-0.75h7c0.41 0 0.75 0.34 0.75 0.75s-0.34 0.75-0.75 0.75z"/>
</svg>
