<?xml version="1.0" encoding="UTF-8"?>
<svg width="25" height="24" viewBox="0 0 25 24" xmlns="http://www.w3.org/2000/svg">
 <path d="m19.944 12.605h1.9662v-1.4016c0-2.0149-1.645-3.6598-3.6598-3.6598h-11.174c-2.0148 0-3.6598 1.645-3.6598 3.6598v4.2535c0.67162-0.5353 1.5184-0.8565 2.4334-0.8565 2.1511 0 3.8934 1.7422 3.8934 3.8934 0 0.73-0.20441 1.421-0.56455 2.0051-0.2044 0.3504-0.46721 0.6618-0.76895 0.9149h9.8406c2.0148 0 3.6598-1.645 3.6598-3.6598v-1.1583h-1.8494c-1.0512 0-2.0148-0.7689-2.1024-1.8202-0.0584-0.6132 0.1752-1.1874 0.584-1.5865 0.3601-0.3699 0.8565-0.584 1.4016-0.584z" opacity=".4"/>
 <path d="m15.437 3.8448v3.6987h-8.3611c-2.0148 0-3.6598 1.645-3.6598 3.6598v-3.5722c0-1.1583 0.71055-2.1901 1.791-2.5989l7.7284-2.92c1.2069-0.44774 2.5015 0.43804 2.5015 1.7326z"/>
 <path d="m22.943 13.598v2.0051c0 0.5354-0.4282 0.9734-0.9733 0.9928h-1.9078c-1.0512 0-2.0148-0.7689-2.1024-1.8201-0.0584-0.6133 0.1752-1.1875 0.584-1.5866 0.3601-0.3699 0.8565-0.584 1.4016-0.584h2.0246c0.5451 0.0195 0.9733 0.4574 0.9733 0.9928z"/>
 <path d="m14.61 12.41h-6.8135c-0.39907 0-0.73001-0.3309-0.73001-0.73s0.33094-0.73 0.73001-0.73h6.8135c0.399 0 0.73 0.3309 0.73 0.73s-0.331 0.73-0.73 0.73z"/>
 <path d="m8.6032 15.741c-0.64697-0.6469-1.4729-1.0186-2.3263-1.115-1.1356-0.1307-2.3126 0.2478-3.1798 1.115-0.5162 0.5162-0.86033 1.1494-1.0186 1.817-0.32348 1.2733 0.01376 2.6843 1.0186 3.6891 0.69514 0.6952 1.583 1.0737 2.4984 1.1219 0.39231 0.0344 0.79839 0 1.1907-0.1032 0.66761-0.1583 1.3008-0.5025 1.817-1.0187 1.521-1.521 1.521-3.985 0-5.5061zm-3.4689 1.294c0-0.3992 0.33036-0.7296 0.72955-0.7296 0.40608 0.0069 0.72956 0.3304 0.73645 0.7365l-0.00686 0.7226 0.69515-0.0069c0.40608 0.0069 0.72956 0.3304 0.73644 0.7365-0.00688 0.406-0.33037 0.7295-0.73644 0.7364l-0.69515-0.0069 0.00687 0.7227c-0.00689 0.4061-0.33037 0.7296-0.73645 0.7365-0.1996-0.0069-0.37852-0.0895-0.50929-0.2203s-0.21338-0.3097-0.22027-0.5093l2e-5 -0.7296h-0.75708c-0.20648 0-0.38545-0.0826-0.51622-0.2133-0.13077-0.1308-0.21334-0.3098-0.21334-0.5162 0-0.3992 0.33037-0.7296 0.72956-0.7296h0.75708l-2e-5 -0.7295z"/>
</svg>
