<svg width="24" height="24" viewBox="0 0 24 24"  xmlns="http://www.w3.org/2000/svg">
<path d="M17.74 22.7502H7.64001C7.33001 22.7502 7.05002 22.5603 6.94002 22.2603C6.83002 21.9603 6.91001 21.6402 7.15001 21.4302C7.85001 20.8102 8.26001 19.9202 8.26001 18.9902C8.26001 17.2002 6.80001 15.7402 5.01001 15.7402C4.27001 15.7402 3.57001 15.9903 2.98001 16.4603C2.75001 16.6403 2.45002 16.6702 2.19002 16.5502C1.93002 16.4302 1.77002 16.1602 1.77002 15.8702V11.5002C1.77002 9.01024 3.79001 6.99023 6.28001 6.99023H17.76C20.25 6.99023 22.27 9.01024 22.27 11.5002V12.9402C22.27 13.3502 21.93 13.6902 21.52 13.6902H19.5C19.15 13.6902 18.83 13.8202 18.6 14.0602L18.59 14.0703C18.31 14.3403 18.18 14.7103 18.21 15.0903C18.27 15.7503 18.9 16.2803 19.62 16.2803H21.52C21.93 16.2803 22.27 16.6203 22.27 17.0303V18.2202C22.25 20.7302 20.23 22.7502 17.74 22.7502ZM9.18001 21.2502H17.74C19.4 21.2502 20.75 19.9002 20.75 18.2402V17.8002H19.6C18.09 17.8002 16.81 16.6802 16.69 15.2402C16.61 14.4202 16.91 13.6103 17.51 13.0203C18.03 12.4903 18.73 12.2003 19.48 12.2003H20.75V11.5103C20.75 9.85025 19.4 8.50024 17.74 8.50024H6.26001C4.60001 8.50024 3.25002 9.85025 3.25002 11.5103V14.5903C3.81002 14.3703 4.40002 14.2502 5.00002 14.2502C7.62002 14.2502 9.75002 16.3802 9.75002 19.0002C9.75002 19.7902 9.55001 20.5702 9.18001 21.2502Z" />
<path d="M2.5 12.2603C2.09 12.2603 1.75 11.9203 1.75 11.5103V7.84035C1.75 6.35035 2.68001 4.9903 4.07001 4.4703L12.01 1.4703C12.83 1.1703 13.75 1.28035 14.46 1.78035C15.17 2.28035 15.6 3.09034 15.6 3.95034V7.75033C15.6 8.16033 15.26 8.50033 14.85 8.50033C14.44 8.50033 14.1 8.16033 14.1 7.75033V3.95034C14.1 3.57034 13.92 3.23034 13.61 3.01034C13.29 2.79034 12.9 2.74032 12.54 2.87032L4.60001 5.87032C3.78001 6.18032 3.25 6.95035 3.25 7.84035L3.25002 11.5103C3.25002 11.9203 2.91 12.2603 2.5 12.2603Z" />
<path d="M19.6 17.8002C18.09 17.8002 16.81 16.6802 16.69 15.2402C16.61 14.4102 16.91 13.6002 17.51 13.0102C18.02 12.4902 18.72 12.2002 19.47 12.2002H21.55C22.54 12.2302 23.3 13.0102 23.3 13.9702V16.0302C23.3 16.9902 22.54 17.7702 21.58 17.8002L19.6 17.8002ZM21.53 13.7002H19.48C19.13 13.7002 18.81 13.8302 18.58 14.0702C18.29 14.3502 18.15 14.7302 18.19 15.1102C18.25 15.7702 18.88 16.3002 19.6 16.3002H21.56C21.69 16.3002 21.81 16.1802 21.81 16.0302V13.9702C21.81 13.8202 21.69 13.7102 21.53 13.7002Z" />
<path d="M14 12.7502H7C6.59 12.7502 6.25 12.4102 6.25 12.0002C6.25 11.5902 6.59 11.2502 7 11.2502H14C14.41 11.2502 14.75 11.5902 14.75 12.0002C14.75 12.4102 14.41 12.7502 14 12.7502Z" />
<path d="M5 23.7502C2.38 23.7502 0.25 21.6202 0.25 19.0002C0.25 17.5402 0.899999 16.1902 2.03 15.2902C2.87 14.6202 3.93002 14.2502 5.00002 14.2502C7.62002 14.2502 9.75002 16.3802 9.75002 19.0002C9.75002 20.3602 9.16 21.6602 8.14 22.5602C7.26 23.3302 6.15 23.7502 5 23.7502ZM5 15.7502C4.26 15.7502 3.56 16.0002 2.97 16.4702C2.2 17.0802 1.75 18.0102 1.75 19.0002C1.75 20.7902 3.21 22.2502 5 22.2502C5.78 22.2502 6.53999 21.9602 7.14999 21.4402C7.84999 20.8202 8.25 19.9402 8.25 19.0002C8.25 17.2102 6.79 15.7502 5 15.7502Z" />
<path d="M3.99988 20.7502C3.74988 20.7502 3.49988 20.6203 3.35988 20.3903C3.14988 20.0303 3.25988 19.5702 3.61988 19.3602L4.50988 18.8303V17.7502C4.50988 17.3402 4.84988 17.0002 5.25988 17.0002C5.66988 17.0002 6.00988 17.3402 6.00988 17.7502V19.2502C6.00988 19.5102 5.86988 19.7603 5.64988 19.8903L4.39988 20.6403C4.26988 20.7203 4.12988 20.7502 3.99988 20.7502Z" />
</svg>
