<?xml version="1.0" encoding="UTF-8"?>
<svg width="24" height="24" viewBox="0 0 24 24" xmlns="http://www.w3.org/2000/svg">
 <path d="m12 22c5.5228 0 10-4.4772 10-10 0-5.5228-4.4772-10-10-10-5.5228 0-10 4.4772-10 10 0 5.5228 4.4772 10 10 10z" opacity=".4"/>
 <path d="m15.75 12.75c0.41 0 0.75-0.34 0.75-0.75s-0.34-0.75-0.75-0.75h-7.25v-0.25c0-1.24 1.01-2.25 2.25-2.25h5c0.41 0 0.75-0.34 0.75-0.75s-0.34-0.75-0.75-0.75h-5c-2.07 0-3.75 1.68-3.75 3.75v2c0 2.07 1.68 3.75 3.75 3.75h5c0.41 0 0.75-0.34 0.75-0.75s-0.34-0.75-0.75-0.75h-5c-1.24 0-2.25-1.01-2.25-2.25v-0.25h7.25z"/>
</svg>
