<svg width="24" height="24" viewBox="0 0 24 24"  xmlns="http://www.w3.org/2000/svg">
<path d="M16.98 8.09055L16.81 8.52055L12.09 21.7505H11.91L7.18002 8.50055L7.02002 8.10055C7.08002 7.95055 7.16002 7.81055 7.24002 7.71055L10.85 3.38055C11.48 2.62055 12.52 2.62055 13.15 3.38055L16.76 7.71055C16.84 7.80055 16.92 7.95055 16.98 8.09055Z" />
<path opacity="0.4" d="M11.9101 21.7496C11.6701 21.7396 11.4401 21.6796 11.2601 21.5696L5.94009 18.5396C5.42009 18.2396 5.10009 17.5196 5.21009 16.9396L6.93009 8.36961C6.95009 8.28961 6.98009 8.19961 7.02009 8.09961L7.18009 8.49961L11.9101 21.7496Z" />
<path opacity="0.4" d="M18.0598 18.5398L12.7398 21.5698C12.5598 21.6798 12.3298 21.7398 12.0898 21.7498L16.8098 8.51984L16.9798 8.08984C17.0198 8.18984 17.0498 8.28984 17.0698 8.36984L18.7898 16.9398C18.8998 17.5198 18.5798 18.2398 18.0598 18.5398Z" />
</svg>
