<svg width="24" height="24" viewBox="0 0 24 24"  xmlns="http://www.w3.org/2000/svg">
<path d="M16.98 8.08957L16.81 8.51957L12.09 21.7496H11.91L7.18002 8.49957L7.02002 8.09957C7.08002 7.94957 7.16002 7.80957 7.24002 7.70957L10.85 3.37957C11.48 2.61957 12.52 2.61957 13.15 3.37957L16.76 7.70957C16.84 7.79957 16.92 7.94957 16.98 8.08957Z" />
<path opacity="0.4" d="M11.9101 21.7496C11.6701 21.7396 11.4401 21.6796 11.2601 21.5696L5.94009 18.5396C5.42009 18.2396 5.10009 17.5196 5.21009 16.9396L6.93009 8.36961C6.95009 8.28961 6.98009 8.19961 7.02009 8.09961L7.18009 8.49961L11.9101 21.7496Z" />
<path opacity="0.4" d="M18.0601 18.5398L12.7401 21.5698C12.5601 21.6798 12.3301 21.7398 12.0901 21.7498L16.8101 8.51984L16.9801 8.08984C17.0201 8.18984 17.0501 8.28984 17.0701 8.36984L18.7901 16.9398C18.9001 17.5198 18.5801 18.2398 18.0601 18.5398Z" />
</svg>
