<?xml version="1.0" encoding="UTF-8"?>
<svg width="24" height="24" viewBox="0 0 24 24" xmlns="http://www.w3.org/2000/svg">
 <path d="m16.98 8.0906-0.17 0.43-4.72 13.23h-0.18l-4.73-13.25-0.16-0.4c0.06-0.15 0.14-0.29 0.22-0.39l3.61-4.33c0.63-0.76 1.67-0.76 2.3 0l3.61 4.33c0.08 0.09 0.16 0.24 0.22 0.38z"/>
 <path d="m11.91 21.75c-0.24-0.01-0.47-0.07-0.65-0.18l-5.32-3.03c-0.52-0.3-0.84-1.02-0.73-1.6l1.72-8.57c0.02-0.08 0.05-0.17 0.09-0.27l0.16 0.4 4.73 13.25z" opacity=".4"/>
 <path d="m18.06 18.54-5.32 3.03c-0.18 0.11-0.41 0.17-0.65 0.18l4.72-13.23 0.17-0.43c0.04 0.1 0.07 0.2 0.09 0.28l1.72 8.57c0.11 0.58-0.21 1.3-0.73 1.6z" opacity=".4"/>
</svg>
