<?xml version="1.0" encoding="UTF-8"?>
<svg width="24" height="24" viewBox="0 0 24 24" xmlns="http://www.w3.org/2000/svg">
 <path d="m16.19 2h-8.37c-3.64 0-5.81 2.17-5.81 5.81v8.37c0 3.64 2.17 5.81 5.81 5.81h8.37c3.64 0 5.81-2.17 5.81-5.81v-8.37c0-3.64-2.17-5.81-5.81-5.81z" opacity=".4"/>
 <path d="m13.58 14.69-2.32 2.32c-0.64 0.65-1.69 0.65-2.34 0l-1.93-1.93c-0.65-0.65-0.65-1.7 0-2.34l2.32-2.32 4.27 4.27z"/>
 <path d="m17.01 11.26-3.43 3.43-4.27-4.27 3.43-3.43c0.64-0.65 1.69-0.65 2.34 0l1.93 1.93c0.65 0.65 0.65 1.7 0 2.34z" opacity=".6"/>
</svg>
