<svg width="24" height="24" viewBox="0 0 24 24"  xmlns="http://www.w3.org/2000/svg">
<path opacity="0.4" d="M16.1898 2H7.81978C4.17978 2 2.00977 4.17 2.00977 7.81V16.18C2.00977 19.82 4.17978 21.99 7.81978 21.99H16.1898C19.8298 21.99 21.9998 19.82 21.9998 16.18V7.81C21.9998 4.17 19.8298 2 16.1898 2Z" />
<path d="M13.5799 14.69L11.2599 17.01C10.6199 17.66 9.56993 17.66 8.91993 17.01L6.98994 15.08C6.33994 14.43 6.33994 13.38 6.98994 12.74L9.30993 10.42L13.5799 14.69Z" />
<path opacity="0.6" d="M17.0101 11.2599L13.5801 14.6899L9.31006 10.4199L12.7401 6.98994C13.3801 6.33994 14.4301 6.33994 15.0801 6.98994L17.0101 8.91994C17.6601 9.56994 17.6601 10.6199 17.0101 11.2599Z" />
</svg>
