<?xml version="1.0" encoding="UTF-8"?>
<svg width="24" height="24" viewBox="0 0 24 24" xmlns="http://www.w3.org/2000/svg">
 <path d="m21.03 22h-7.0401c-0.42 0-0.75-0.34-0.75-0.75s0.34-0.75 0.75-0.75h7.0401c0.42 0 0.75 0.34 0.75 0.75s-0.33 0.75-0.75 0.75z"/>
 <path d="m15.41 16.34-4.75 4.75c-1.11 1.11-2.89 1.17-4.07 0.18-0.07-0.06-0.13-0.12-0.19-0.18l-2.66-2.66-0.85999-0.86c-0.07-0.07-0.13-0.14-0.19-0.21-0.98-1.18-0.91-2.94 0.19-4.04l3.69-3.68 1.06-1.06 7.78 7.76z" opacity=".4"/>
 <path d="m21.12 10.64-5.71 5.7-7.78-7.76 5.71-5.7c1.17-1.17 3.09-1.17 4.26 0l3.52 3.51c1.17 1.17 1.17 3.08 0 4.25z"/>
</svg>
