<svg width="24" height="24" viewBox="0 0 24 24"  xmlns="http://www.w3.org/2000/svg">
<path d="M17.2802 9.88961C17.1202 9.88961 16.9501 9.85961 16.7901 9.78961L12.0202 7.66961L7.20018 9.78961C6.70018 10.0096 6.11019 9.86961 5.77019 9.42961C5.43019 8.98961 5.44016 8.37961 5.80016 7.95961L10.8002 1.84961C11.4102 1.09961 12.5902 1.09961 13.2102 1.84961L18.2102 7.95961C18.5602 8.38961 18.5702 8.98961 18.2402 9.42961C17.9902 9.71961 17.6402 9.88961 17.2802 9.88961ZM12.0002 6.15961C12.2102 6.15961 12.4302 6.19961 12.6302 6.28961L16.2102 7.87961L12.0401 2.78961L7.81017 7.86961L11.3702 6.28961C11.5702 6.19961 11.7802 6.15961 12.0002 6.15961Z" />
<path d="M12.0002 22.7496C11.5402 22.7496 11.1002 22.5396 10.8002 22.1596L5.80017 16.0496C5.45017 15.6196 5.4402 15.0196 5.7702 14.5796C6.1102 14.1396 6.6902 13.9896 7.2002 14.2096L11.9802 16.3296L16.8002 14.2096C17.3102 13.9896 17.8902 14.1396 18.2302 14.5796C18.5602 15.0196 18.5502 15.6196 18.2002 16.0496L13.2002 22.1596C12.9002 22.5396 12.4602 22.7496 12.0002 22.7496ZM7.79016 16.1196L11.9502 21.2096L16.1802 16.1296L12.6302 17.7096C12.2302 17.8896 11.7702 17.8896 11.3702 17.7096L7.79016 16.1196Z" />
<path d="M12.0002 15.3696C11.8802 15.3696 11.7702 15.3396 11.6702 15.2896L6.42017 12.6696C6.17017 12.5396 6.00018 12.2796 6.00018 11.9996C6.00018 11.7196 6.16017 11.4596 6.42017 11.3296L11.6702 8.70961C11.8802 8.59961 12.1302 8.59961 12.3402 8.70961L17.5902 11.3296C17.8402 11.4596 18.0102 11.7196 18.0102 11.9996C18.0102 12.2796 17.8502 12.5396 17.5902 12.6696L12.3402 15.2896C12.2302 15.3496 12.1202 15.3696 12.0002 15.3696ZM8.43018 11.9996L12.0002 13.7796L15.5702 11.9996L12.0002 10.2196L8.43018 11.9996Z" />
</svg>
