<svg width="24" height="24" viewBox="0 0 24 24"  xmlns="http://www.w3.org/2000/svg">
<path d="M11.9999 13.53C11.5599 13.53 11.1199 13.44 10.7699 13.27L7.03992 11.4C6.25992 11.01 5.70992 10.33 5.53992 9.55C5.36992 8.76 5.57991 7.92 6.12991 7.24L9.85992 2.58C10.4099 1.89 11.1899 1.5 11.9999 1.5C12.8099 1.5 13.5899 1.89 14.1399 2.58L17.8699 7.25C18.4199 7.93 18.6299 8.77 18.4599 9.56C18.2899 10.35 17.7399 11.02 16.9599 11.41L13.2299 13.28C12.8799 13.45 12.4399 13.53 11.9999 13.53ZM11.0299 3.52L7.29992 8.18C7.03992 8.51 6.92992 8.88 7.00992 9.23C7.08992 9.58 7.33992 9.87 7.71992 10.06L11.4499 11.93C11.7299 12.07 12.2799 12.07 12.5599 11.93L16.2899 10.06C16.6699 9.87 16.9199 9.57 16.9999 9.23C17.0799 8.89 16.9699 8.51 16.7099 8.18L12.9799 3.52C12.4299 2.85 11.5699 2.85 11.0299 3.52Z" />
<path d="M11.9999 8.31C11.5899 8.31 11.2499 7.97 11.2499 7.56V2.3C11.2499 1.89 11.5899 1.55 11.9999 1.55C12.4099 1.55 12.7499 1.89 12.7499 2.3V7.56C12.7499 7.97 12.4099 8.31 11.9999 8.31Z" />
<path d="M16.1999 11.46C16.0399 11.46 15.8899 11.41 15.7499 11.31L11.9999 8.49L8.24992 11.31C7.91992 11.56 7.44992 11.49 7.19992 11.16C6.94992 10.83 7.01992 10.36 7.34992 10.11L11.5499 6.96C11.8199 6.76 12.1799 6.76 12.4499 6.96L16.6499 10.11C16.9799 10.36 17.0499 10.83 16.7999 11.16C16.6599 11.36 16.4299 11.46 16.1999 11.46Z" />
<path d="M11.9999 22.5C11.1999 22.5 10.4199 22.12 9.86992 21.44L6.40992 17.21C5.73992 16.39 5.71992 15.27 6.35992 14.42C6.99992 13.57 8.08991 13.3 9.05991 13.73L10.6699 14.45C11.5099 14.82 12.4699 14.82 13.3099 14.45L14.9199 13.73C15.8899 13.3 16.9799 13.58 17.6199 14.42C18.2699 15.27 18.2499 16.39 17.5699 17.21L14.1099 21.44C13.5799 22.12 12.7999 22.5 11.9999 22.5ZM8.13992 15.04C7.82992 15.04 7.62991 15.26 7.55991 15.34C7.47991 15.45 7.22992 15.84 7.57992 16.27L11.0399 20.5C11.5699 21.15 12.4399 21.15 12.9699 20.5L16.4299 16.27C16.7799 15.84 16.5299 15.45 16.4499 15.34C16.3699 15.23 16.0499 14.89 15.5499 15.11L13.9399 15.83C12.7099 16.37 11.3099 16.37 10.0799 15.83L8.46992 15.11C8.33992 15.06 8.22992 15.04 8.13992 15.04Z" />
</svg>
