<svg width="24" height="24" viewBox="0 0 24 24"  xmlns="http://www.w3.org/2000/svg">
<path opacity="0.4" d="M6.90007 9.10012L11.6701 6.98012C11.8801 6.89012 12.1201 6.89012 12.3201 6.98012L17.1001 9.10012C17.5201 9.29012 17.9101 8.78012 17.6201 8.42012L12.6201 2.31012C12.2801 1.89012 11.7201 1.89012 11.3801 2.31012L6.38007 8.42012C6.09007 8.78012 6.48007 9.29012 6.90007 9.10012Z" />
<path opacity="0.4" d="M6.90006 14.8995L11.6801 17.0195C11.8901 17.1095 12.1301 17.1095 12.3301 17.0195L17.1101 14.8995C17.5301 14.7095 17.9201 15.2195 17.6301 15.5795L12.6301 21.6895C12.2901 22.1095 11.7301 22.1095 11.3901 21.6895L6.39006 15.5795C6.09006 15.2195 6.47006 14.7095 6.90006 14.8995Z" />
<path d="M11.7801 9.49L7.65006 11.55C7.28006 11.73 7.28006 12.26 7.65006 12.44L11.7801 14.5C11.9201 14.57 12.0901 14.57 12.2301 14.5L16.3601 12.44C16.7301 12.26 16.7301 11.73 16.3601 11.55L12.2301 9.49C12.0801 9.42 11.9201 9.42 11.7801 9.49Z" />
</svg>
