<?xml version="1.0" encoding="UTF-8"?>
<svg width="24" height="24" viewBox="0 0 24 24" xmlns="http://www.w3.org/2000/svg">
 <path d="m17.5 11.489c-0.11 0.09-0.22 0.16-0.35 0.22l-1.09 0.55-3.07 1.53c-0.55 0.28-1.44 0.28-1.98 0l-3.07-1.53-1.09-0.55c-0.12-0.07-0.23-0.13-0.35-0.22-1.06-0.74-1.25-2.09-0.4-3.16l4.17-5.2c0.26-0.32 0.57-0.56001 0.89-0.70001 0.54-0.25999 1.14-0.25999 1.67 0 0.32 0.14 0.64 0.38001 0.89 0.70001l4.17 5.2c0.86 1.08 0.67 2.43-0.39 3.16z" opacity=".4"/>
 <path d="m17.5 11.489c-0.11 0.09-0.22 0.16-0.35 0.22l-1.09 0.55-4.06-3.05-4.06 3.06-1.09-0.55c-0.12-0.07-0.23-0.13-0.35-0.22 0.04-0.19 0.14-0.36 0.31-0.48l4.35-3.27v-5.31c0.54-0.26 1.14-0.26 1.67 0v5.31l4.35 3.27c0.17 0.12 0.27 0.28 0.32 0.47z"/>
 <path d="m8.7701 14.43 1.61 0.72c1.03 0.46 2.21 0.46 3.25 0l1.61-0.72c1.44-0.64 2.77 1.1 1.77 2.32l-3.46 4.23c-0.85 1.04-2.24 1.04-3.1 0l-3.45-4.23c-1.01-1.22 0.32-2.96 1.77-2.32z"/>
</svg>
