<svg width="24" height="24" viewBox="0 0 24 24"  xmlns="http://www.w3.org/2000/svg">
<path d="M14.44 7.24988C14.25 7.24988 14.06 7.17988 13.91 7.02988L11.88 4.99988L9.85 7.02988C9.56 7.31988 9.08 7.31988 8.79 7.02988C8.5 6.73988 8.5 6.25988 8.79 5.96988L11.35 3.40988C11.64 3.11988 12.12 3.11988 12.41 3.40988L14.97 5.96988C15.26 6.25988 15.26 6.73988 14.97 7.02988C14.82 7.17988 14.63 7.24988 14.44 7.24988Z" />
<path d="M11.88 14.9299C11.47 14.9299 11.13 14.5899 11.13 14.1799V4.00988C11.13 3.59988 11.47 3.25988 11.88 3.25988C12.29 3.25988 12.63 3.59988 12.63 4.00988V14.1799C12.63 14.5999 12.29 14.9299 11.88 14.9299Z" />
<path d="M12 20.7499C6.85 20.7499 3.25 17.1499 3.25 11.9999C3.25 11.5899 3.59 11.2499 4 11.2499C4.41 11.2499 4.75 11.5899 4.75 11.9999C4.75 16.2699 7.73 19.2499 12 19.2499C16.27 19.2499 19.25 16.2699 19.25 11.9999C19.25 11.5899 19.59 11.2499 20 11.2499C20.41 11.2499 20.75 11.5899 20.75 11.9999C20.75 17.1499 17.15 20.7499 12 20.7499Z" />
</svg>
