<?xml version="1.0" encoding="UTF-8"?>
<svg width="24" height="24" viewBox="0 0 24 24" xmlns="http://www.w3.org/2000/svg">
 <path d="m12 22c5.5228 0 10-4.4772 10-10 0-5.5228-4.4772-10-10-10-5.5228 0-10 4.4772-10 10 0 5.5228 4.4772 10 10 10z" opacity=".4"/>
 <path d="m16.748 7h-4.83c-0.41 0-0.75 0.34-0.75 0.75s0.34 0.75 0.75 0.75h3.02l-7.72 7.72c-0.29 0.29-0.29 0.77 0 1.06 0.15 0.15 0.34 0.22 0.53 0.22s0.38-0.07 0.53-0.22l7.72-7.72v3.02c0 0.41 0.34 0.75 0.75 0.75s0.75-0.34 0.75-0.75v-4.83c0-0.41-0.34-0.75-0.75-0.75z"/>
</svg>
