<?xml version="1.0" encoding="UTF-8"?>
<svg width="24" height="24" viewBox="0 0 24 24" xmlns="http://www.w3.org/2000/svg">
 <path d="m16.19 2h-8.37c-3.64 0-5.81 2.17-5.81 5.81v8.37c0 3.64 2.17 5.81 5.81 5.81h8.37c3.64 0 5.81-2.17 5.81-5.81v-8.37c0-3.64-2.17-5.81-5.81-5.81z" opacity=".4"/>
 <path d="m13.92 9.2792 0.05 2.95 2.63-0.04c0.19 0 0.33 0.17 0.3 0.35l-0.35 1.91c-0.03 0.14-0.15 0.24-0.29 0.25l-2.25 0.04 0.12 7.25-3 0.05-0.12-7.25-1.7 0.03c-0.17 0-0.29999-0.13-0.29999-0.3l-0.03-1.9c0-0.17 0.12999-0.3 0.29999-0.3l1.7-0.03-0.05-3.25c-0.03-1.66 1.29-3.02 2.95-3.05l2.7-0.04c0.17 0 0.3 0.13 0.3 0.3l0.04 2.4c0 0.17-0.13 0.3-0.3 0.3l-2.4 0.04c-0.17-0.01-0.3 0.13-0.3 0.29z"/>
</svg>
