<?xml version="1.0" encoding="UTF-8"?>
<svg width="24" height="24" viewBox="0 0 24 24" xmlns="http://www.w3.org/2000/svg">
 <path d="m22 7.81v7.35c-0.29-0.14-0.61-0.24-0.97-0.3l-0.31-0.05-0.26-0.54c-0.55-1.12-1.45-1.77-2.46-1.77s-1.91 0.65-2.46 1.77l-0.27 0.54-0.3 0.05c-1.19 0.2-2.05 0.86-2.36 1.8-0.3 0.95 0.01 1.99 0.86 2.85l0.31 0.31-0.03 0.12c-0.2 0.89-0.12 1.57 0.07 2.06h-6.01c-3.64 0-5.81-2.17-5.81-5.81v-8.38c0-3.64 2.17-5.81 5.81-5.81h8.38c3.64 0 5.81 2.17 5.81 5.81z" opacity=".4"/>
 <path d="m19.12 14.94 0.32 0.65c0.16 0.32 0.57 0.62 0.91 0.68l0.43 0.07c1.31 0.22 1.61 1.18 0.68 2.12l-0.4 0.4c-0.27 0.27-0.41 0.79-0.33 1.17l0.05 0.24c0.36 1.58-0.48 2.19-1.85 1.36l-0.29-0.18c-0.35-0.21-0.93-0.21-1.28 0l-0.29 0.18c-1.38 0.83-2.21 0.22-1.85-1.36l0.05-0.24c0.08-0.37-0.06-0.9-0.33-1.17l-0.4-0.4c-0.93-0.95-0.63-1.9 0.68-2.12l0.43-0.07c0.35-0.06 0.75-0.36 0.91-0.68l0.32-0.65c0.62-1.25 1.62-1.25 2.24 0z"/>
 <path d="m16.13 7.917c0.3274 0.25377 0.3871 0.72488 0.1333 1.0523l-2.3144 2.9857c-0.5949 0.7523-1.6918 0.8895-2.4569 0.2983l-0.0053-0.0041-1.8265-1.4373c-0.11285-0.0857-0.27024-0.0644-0.35594 0.0462-8e-5 1e-4 8e-5 -1e-4 0 0l-2.3795 3.0894c-0.25276 0.3281-0.72368 0.3892-1.0518 0.1365-0.32816-0.2528-0.38928-0.7237-0.13653-1.0519l2.3807-3.0909c0.59391-0.76859 1.6951-0.90751 2.462-0.31488l0.0052 0.00404 1.8266 1.4373c0.114 0.0866 0.2747 0.0643 0.3598-0.0412l2.3071-2.9762c0.2538-0.32738 0.7249-0.38704 1.0522-0.13327z" clip-rule="evenodd" fill-rule="evenodd"/>
</svg>
