<?xml version="1.0" encoding="UTF-8"?>
<svg width="24" height="24" viewBox="0 0 24 24" xmlns="http://www.w3.org/2000/svg">
 <path d="m12 22c5.5228 0 10-4.4772 10-10 0-5.5228-4.4772-10-10-10-5.5228 0-10 4.4772-10 10 0 5.5228 4.4772 10 10 10z" opacity=".4"/>
 <path d="m12 6h-2c-1.1 0-2 0.9-2 2s0.9 2 2 2h2v-4z"/>
 <path d="m12 10h-2c-1.1 0-2 0.9-2 2s0.9 2 2 2h2v-4z" opacity=".4"/>
 <path d="m12 14h-2c-1.1 0-2 0.9-2 2s0.9 2 2 2 2-0.9 2-2v-2z"/>
 <path d="m12 6h2c1.1 0 2 0.9 2 2s-0.9 2-2 2h-2v-4z" opacity=".4"/>
 <path d="m14 10c1.1 0 2 0.9 2 2s-0.9 2-2 2-2-0.9-2-2 0.9-2 2-2z"/>
</svg>
