<svg width="24" height="24" viewBox="0 0 24 24"  xmlns="http://www.w3.org/2000/svg">
<path d="M12.7498 9.42001H8.6698C6.4198 9.42001 4.58984 7.59 4.58984 5.34C4.58984 3.09 6.4198 1.26001 8.6698 1.26001H12.7498V9.42001ZM8.6698 2.75C7.2498 2.75 6.08984 3.90999 6.08984 5.32999C6.08984 6.74999 7.2498 7.91 8.6698 7.91H11.2498V2.73999H8.6698V2.75Z" />
<path d="M12.7498 16.08H8.6698C6.4198 16.08 4.58984 14.25 4.58984 12C4.58984 9.75 6.4198 7.92001 8.6698 7.92001H12.7498V16.08ZM8.6698 9.42001C7.2498 9.42001 6.08984 10.58 6.08984 12C6.08984 13.42 7.2498 14.58 8.6698 14.58H11.2498V9.41H8.6698V9.42001Z" />
<path d="M8.6698 22.75C6.4198 22.75 4.58984 20.92 4.58984 18.67C4.58984 16.42 6.4198 14.59 8.6698 14.59H12.7498V18.67C12.7498 20.92 10.9198 22.75 8.6698 22.75ZM8.6698 16.08C7.2498 16.08 6.08984 17.24 6.08984 18.66C6.08984 20.08 7.2498 21.24 8.6698 21.24C10.0898 21.24 11.2498 20.08 11.2498 18.66V16.08H8.6698Z" />
<path d="M15.3298 9.42001H11.2498V1.25H15.3298C17.5798 1.25 19.4098 3.07999 19.4098 5.32999C19.4198 7.57999 17.5798 9.42001 15.3298 9.42001ZM12.7498 7.92001H15.3298C16.7498 7.92001 17.9098 6.76 17.9098 5.34C17.9098 3.92 16.7498 2.76001 15.3298 2.76001H12.7498V7.92001Z" />
<path d="M15.3298 16.08C13.0798 16.08 11.2498 14.25 11.2498 12C11.2498 9.75 13.0798 7.92001 15.3298 7.92001C17.5798 7.92001 19.4098 9.75 19.4098 12C19.4098 14.25 17.5798 16.08 15.3298 16.08ZM15.3298 9.42001C13.9098 9.42001 12.7498 10.58 12.7498 12C12.7498 13.42 13.9098 14.58 15.3298 14.58C16.7498 14.58 17.9098 13.42 17.9098 12C17.9098 10.58 16.7598 9.42001 15.3298 9.42001Z" />
</svg>
