<?xml version="1.0" encoding="UTF-8"?>
<svg width="24" height="24" viewBox="0 0 24 24" xmlns="http://www.w3.org/2000/svg">
 <path d="m20.58 4.02v1.95c-0.68-0.5-1.46-0.87-2.31-1.06-0.44-0.11-0.9101-0.16-1.3901-0.16-3.45 0-6.25 2.8-6.25 6.25 0 1.14 0.3101 2.26 0.9001 3.22 0.5 0.84 1.1999 1.54 1.9599 2.01 0.26 0.17 0.53 0.32 0.81 0.45v2.39c0 0.61-0.3999 1.42-0.8999 1.72l-1.4001 0.91c-1.3 0.81-3.09-0.1-3.09-1.72v-5.35c0-0.71-0.39999-1.62-0.79999-2.12l-3.79-4.04c-0.5-0.51-0.90003-1.42-0.90003-2.02v-2.33c0-1.21 0.89999-2.12 1.99-2.12h13.18c1.09 0 1.99 0.90999 1.99 2.02z" opacity=".4"/>
 <path d="m17.92 6.37c-0.33-0.08-0.68-0.12-1.04-0.12-2.62 0-4.75 2.13-4.75 4.75 0 0.89 0.25 1.73 0.69 2.45 0.37 0.62 0.88 1.15 1.5 1.53 0.74 0.49 1.62 0.77 2.56 0.77 1.74 0 3.25-0.93 4.07-2.3 0.44-0.72 0.68-1.56 0.68-2.45 0-2.26-1.58-4.16-3.71-4.63zm0.91 4.2-2.43 2.43c-0.09 0.09-0.28 0.18-0.41 0.2l-0.93 0.13c-0.34 0.05-0.57-0.19-0.52-0.52l0.13-0.93c0.02-0.13 0.11-0.31 0.2-0.41l2.43-2.43c0.42-0.42 0.91-0.62 1.52 0s0.43 1.11 0.01 1.53z"/>
</svg>
