<?xml version="1.0" encoding="UTF-8"?>
<svg width="24" height="24" viewBox="0 0 24 24" xmlns="http://www.w3.org/2000/svg">
 <path d="m22 7.81v8.38c0 3.64-2.17 5.81-5.81 5.81h-8.38c-0.2 0-0.4-0.01-0.59-0.02-1.23-0.08-2.27-0.43-3.09-1.03-0.42-0.29-0.79-0.66-1.08-1.08-0.69-0.95-1.05-2.19-1.05-3.68v-8.38c0-3.44 1.94-5.57 5.22-5.78 0.19-0.02 0.39-0.03 0.59-0.03h8.38c1.49 0 2.73 0.36 3.68 1.05 0.42 0.29 0.79 0.66 1.08 1.08 0.69 0.95 1.05 2.19 1.05 3.68z" opacity=".4"/>
 <path d="m8.16 6.6504h7.67c0.64 0 1.16 0.52 1.16 1.16v1.28c0 0.47-0.29 1.05-0.58 1.34l-2.5 2.21c-0.35 0.29-0.58 0.87-0.58 1.34v2.5c0 0.35-0.23 0.81-0.52 0.99l-0.81 0.51c-0.76 0.47-1.8-0.06-1.8-0.99v-3.08c0-0.41-0.23-0.93-0.47-1.22l-2.21-2.33c-0.29-0.28-0.52-0.81001-0.52-1.16v-1.33c0-0.7 0.52-1.22 1.16-1.22z"/>
</svg>
