<svg width="24" height="24" viewBox="0 0 24 24"  xmlns="http://www.w3.org/2000/svg">
<path d="M10.9399 22.65C10.4599 22.65 9.9899 22.53 9.5499 22.29C8.6699 21.8 8.1399 20.91 8.1399 19.91V14.61C8.1399 14.11 7.8099 13.36 7.4999 12.98L3.7599 9.02002C3.1299 8.39002 2.6499 7.31002 2.6499 6.50002V4.20002C2.6499 2.60002 3.8599 1.35002 5.3999 1.35002H18.5999C20.1199 1.35002 21.3499 2.58002 21.3499 4.10002V6.30002C21.3499 7.35002 20.7199 8.54002 20.1299 9.13002L15.7999 12.96C15.3799 13.31 15.0499 14.08 15.0499 14.7V19C15.0499 19.89 14.4899 20.92 13.7899 21.34L12.4099 22.23C11.9599 22.51 11.4499 22.65 10.9399 22.65ZM5.3999 2.85002C4.6999 2.85002 4.1499 3.44002 4.1499 4.20002V6.50002C4.1499 6.87002 4.4499 7.59002 4.8299 7.97002L8.6399 11.98C9.1499 12.61 9.6499 13.66 9.6499 14.6V19.9C9.6499 20.55 10.0999 20.87 10.2899 20.97C10.7099 21.2 11.2199 21.2 11.6099 20.96L12.9999 20.07C13.2799 19.9 13.5599 19.36 13.5599 19V14.7C13.5599 13.63 14.0799 12.45 14.8299 11.82L19.1099 8.03002C19.4499 7.69002 19.8599 6.88002 19.8599 6.29002V4.10002C19.8599 3.41002 19.2999 2.85002 18.6099 2.85002H5.3999Z" />
<path d="M5.9999 10.75C5.8599 10.75 5.7299 10.71 5.5999 10.64C5.2499 10.42 5.1399 9.95002 5.3599 9.60002L10.2899 1.70002C10.5099 1.35002 10.9699 1.24002 11.3199 1.46002C11.6699 1.68002 11.7799 2.14002 11.5599 2.49002L6.6299 10.39C6.4899 10.62 6.2499 10.75 5.9999 10.75Z" />
</svg>
