<?xml version="1.0" encoding="UTF-8"?>
<svg width="24" height="24" viewBox="0 0 24 24" xmlns="http://www.w3.org/2000/svg">
 <path d="m17.92 10.12c-0.33-0.08-0.68-0.12-1.04-0.12-2.62 0-4.75 2.13-4.75 4.75 0 0.89 0.25 1.73 0.69 2.45 0.37 0.62 0.88 1.15 1.5 1.53 0.74 0.49 1.62 0.77 2.56 0.77 1.74 0 3.25-0.93 4.07-2.3 0.44-0.72 0.68-1.56 0.68-2.45 0-2.26-1.58-4.16-3.71-4.63zm1.33 4.01-2.54 2.34c-0.14 0.13-0.33 0.2-0.51 0.2-0.19 0-0.38-0.07-0.53-0.22l-1.17-1.17c-0.29-0.29-0.29-0.77 0-1.06s0.77-0.29 1.06 0l0.6599 0.66 2.0101-1.85c0.31-0.28 0.78-0.26 1.06 0.04 0.28 0.31 0.26 0.78-0.04 1.06z"/>
 <path d="m5.4102 2h13.17c1.1 0 2 0.90999 2 2.02v2.22c0 0.81-0.5 1.82-1 2.32l-4.29 3.84c-0.6 0.51-1 1.52-1 2.32v4.34c0 0.61-0.4 1.41-0.9 1.72l-1.4 0.91c-1.3 0.81-3.09-0.1-3.09-1.72v-5.35c0-0.71-0.40005-1.62-0.80005-2.12l-3.79-4.04c-0.5-0.51-0.90002-1.41-0.90002-2.02v-2.32c0.01-1.21 0.91-2.12 2-2.12z" opacity=".4"/>
</svg>
