<?xml version="1.0" encoding="UTF-8"?>
<svg width="24" height="24" viewBox="0 0 24 24" xmlns="http://www.w3.org/2000/svg">
 <path d="m19.75 15.41-0.85-0.85c0.44-0.67 0.7-1.46 0.7-2.32 0-2.34-1.9-4.24-4.24-4.24s-4.24 1.9-4.24 4.24c0 2.34 1.9 4.24 4.24 4.24 0.86 0 1.66-0.26 2.32-0.7l0.8501 0.85c0.17 0.17 0.3899 0.25 0.6099 0.25s0.44-0.08 0.61-0.25c0.33-0.34 0.33-0.89 0-1.22z"/>
 <path d="m5.4102 2h13.17c1.1 0 2 0.90999 2 2.02v2.22c0 0.81-0.5 1.82-1 2.32l-4.29 3.84c-0.6 0.51-1 1.52-1 2.32v4.34c0 0.61-0.4 1.41-0.9 1.72l-1.4 0.91c-1.3 0.81-3.09-0.1-3.09-1.72v-5.35c0-0.71-0.40005-1.62-0.80005-2.12l-3.79-4.04c-0.5-0.51-0.90002-1.41-0.90002-2.02v-2.32c0.01-1.21 0.91-2.12 2-2.12z" opacity=".4"/>
</svg>
