<?xml version="1.0" encoding="UTF-8"?>
<svg width="24" height="24" viewBox="0 0 24 24" xmlns="http://www.w3.org/2000/svg">
 <path d="m5.4099 2h13.17c1.1 0 2 0.90999 2 2.02v2.22c0 0.81-0.5 1.82-1 2.32l-4.29 3.84c-0.6 0.51-1 1.52-1 2.32v4.34c0 0.61-0.4 1.41-0.9 1.72l-1.39 0.92c-1.3 0.81-3.09-0.1-3.09-1.72v-5.35c0-0.71-0.4-1.62-0.8-2.12l-3.79-4.04c-0.5-0.51-0.9-1.41-0.9-2.02v-2.32c0-1.22 0.9-2.13 1.99-2.13z" opacity=".4"/>
 <path d="m16.88 10c-2.62 0-4.75 2.13-4.75 4.75 0 0.89 0.25 1.73 0.69 2.45 0.82 1.38 2.33 2.3 4.06 2.3s3.24-0.93 4.06-2.3c0.44-0.71 0.69-1.56 0.69-2.45 0-2.62-2.12-4.75-4.75-4.75zm1.78 5.48h-1.03v1.07c0 0.41-0.34 0.75-0.75 0.75s-0.75-0.34-0.75-0.75v-1.07h-1.02c-0.41 0-0.75-0.34-0.75-0.75s0.34-0.75 0.75-0.75h1.02v-0.98c0-0.41 0.34-0.75 0.75-0.75s0.75 0.34 0.75 0.75v0.98h1.03c0.41 0 0.75 0.34 0.75 0.75s-0.34 0.75-0.75 0.75z"/>
</svg>
