<?xml version="1.0" encoding="UTF-8"?>
<svg width="24" height="24" viewBox="0 0 24 24" xmlns="http://www.w3.org/2000/svg">
 <path d="m16.99 10.93v2.14c0 1.88-1.04 3.53-2.58 4.38-0.17 0.09-0.35 0.18-0.54 0.26-0.28 0.11-0.57 0.2-0.87 0.26-0.32 0.06-0.65 0.1-0.99 0.1h-0.02c-0.34 0-0.67-0.04-0.99-0.1-0.29-0.06-0.58-0.15-0.86-0.26l-0.55004-0.26c-0.13-0.08-0.26-0.15-0.38-0.24-1.32-0.89-2.2-2.41-2.2-4.14v-2.14c0-0.86 0.21999-1.67 0.59999-2.38 0.08-0.14 0.16-0.27997 0.25-0.40997 0.09-0.14 0.19-0.26002 0.29001-0.39002 0.1-0.12 0.20999-0.24 0.31999-0.35 0.23-0.23 0.48-0.42999 0.74-0.60999 0.14-0.09 0.27-0.18001 0.42-0.26001 0.12-0.06 0.25001-0.13 0.38004-0.19 0.17-0.07 0.34-0.13999 0.51-0.17999 0.14-0.05 0.28-0.08002 0.42-0.11002 0.03-0.02 0.07-0.02 0.11-0.03 0.31-0.06 0.62-0.08999 0.94-0.08999h0.02c0.32 0 0.64 0.02999 0.95 0.08999 0.01 0.01 0.03 0.01001 0.04 0.01001 0.16 0.04 0.32 0.08001 0.48 0.13001 0.16 0.04 0.31 0.1 0.46 0.16 0.15 0.07 0.3 0.13999 0.44 0.20999 0.42 0.24 0.81 0.53 1.15 0.87 0.9 0.9 1.46 2.15 1.46 3.53z" opacity=".4"/>
 <path d="m22 9.75c-0.41 0-0.75-0.34-0.75-0.75v-2c0-2.58-1.67-4.25-4.25-4.25h-2c-0.41 0-0.75-0.34-0.75-0.75s0.34-0.75 0.75-0.75h2c3.44 0 5.75 2.31 5.75 5.75v2c0 0.41-0.34 0.75-0.75 0.75z"/>
 <path d="m2 9.75c-0.41 0-0.75-0.34-0.75-0.75v-2c0-3.44 2.31-5.75 5.75-5.75h2c0.41 0 0.75 0.34 0.75 0.75s-0.34 0.75-0.75 0.75h-2c-2.58 0-4.25 1.67-4.25 4.25v2c0 0.41-0.34 0.75-0.75 0.75z"/>
 <path d="m17 22.75h-2c-0.41 0-0.75-0.34-0.75-0.75s0.34-0.75 0.75-0.75h2c2.58 0 4.25-1.67 4.25-4.25v-2c0-0.41 0.34-0.75 0.75-0.75s0.75 0.34 0.75 0.75v2c0 3.44-2.31 5.75-5.75 5.75z"/>
 <path d="m9 22.75h-2c-3.44 0-5.75-2.31-5.75-5.75v-2c0-0.41 0.34-0.75 0.75-0.75s0.75 0.34 0.75 0.75v2c0 2.58 1.67 4.25 4.25 4.25h2c0.41 0 0.75 0.34 0.75 0.75s-0.34 0.75-0.75 0.75z"/>
 <path d="m12 15.63c-1.32 0-2.4-1.08-2.4-2.4v-2.47c0-1.32 1.08-2.4 2.4-2.4s2.4 1.08 2.4 2.4v2.47c0 1.33-1.08 2.4-2.4 2.4zm0-5.76c-0.49 0-0.9 0.40003-0.9 0.90003v2.47c0 0.5 0.4 0.9 0.9 0.9s0.9-0.4 0.9-0.9v-2.47c0-0.5-0.41-0.90003-0.9-0.90003z"/>
</svg>
