<svg width="24" height="24" viewBox="0 0 24 24"  xmlns="http://www.w3.org/2000/svg">
<path d="M6.4502 22.75C6.0402 22.75 5.7002 22.41 5.7002 22V2C5.7002 1.59 6.0402 1.25 6.4502 1.25C6.8602 1.25 7.2002 1.59 7.2002 2V22C7.2002 22.41 6.8602 22.75 6.4502 22.75Z" />
<path d="M6.9502 17.75C6.6702 17.75 6.4102 17.6 6.2802 17.33C6.1002 16.96 6.2502 16.51 6.6202 16.33L14.9202 12.23C16.1402 11.6 16.8302 10.84 16.8002 10.13C16.7702 9.44 16.0302 8.73 14.7602 8.19L6.6602 4.69C6.2702 4.52 6.1002 4.08 6.2602 3.7C6.4202 3.32 6.8702 3.14 7.2502 3.31L15.3502 6.81C17.8502 7.87 18.2702 9.31 18.3002 10.07C18.3502 11.4 17.3902 12.64 15.6002 13.56L7.2902 17.67C7.1802 17.73 7.0602 17.75 6.9502 17.75Z" />
</svg>
