<?xml version="1.0" encoding="UTF-8"?>
<svg width="24" height="24" viewBox="0 0 24 24" xmlns="http://www.w3.org/2000/svg">
 <path d="m5.1499 22c-0.41 0-0.75-0.34-0.75-0.75v-18.5c0-0.41 0.34-0.75 0.75-0.75s0.75 0.34 0.75 0.75v18.5c0 0.41-0.34 0.75-0.75 0.75z"/>
 <path d="m18.02 12.33-1.22-1.22c-0.29-0.25-0.46-0.62-0.47-1.03-0.02-0.45005 0.16-0.90005 0.49-1.23l1.2-1.2c1.04-1.04 1.43-2.04 1.1-2.83-0.32-0.78-1.31-1.21-2.77-1.21h-11.2c-0.21 0.01-0.38 0.18-0.38 0.39v12c0 0.21 0.17 0.38 0.38 0.38h11.2c1.44 0 2.41-0.44 2.74-1.23 0.33-0.8-0.05-1.79-1.07-2.82z" opacity=".4"/>
</svg>
