<svg width="24" height="24" viewBox="0 0 24 24"  xmlns="http://www.w3.org/2000/svg">
<path d="M6.4502 22C6.0402 22 5.7002 21.66 5.7002 21.25V2.75C5.7002 2.34 6.0402 2 6.4502 2C6.8602 2 7.2002 2.34 7.2002 2.75V21.25C7.2002 21.66 6.8602 22 6.4502 22Z" />
<path opacity="0.4" d="M15.2001 7.15955L7.10008 3.65955C6.98008 3.59955 6.85008 3.61955 6.74008 3.68955C6.64008 3.75955 6.58008 3.86955 6.58008 3.99955V16.9996C6.58008 17.1296 6.65008 17.2496 6.76008 17.3196C6.82008 17.3596 6.89008 17.3795 6.96008 17.3795C7.02008 17.3795 7.07008 17.3696 7.13008 17.3396L15.4301 13.2396C15.4301 13.2396 15.4301 13.2396 15.4401 13.2396C17.1001 12.3796 17.9901 11.2696 17.9401 10.0996C17.8801 8.91955 16.9101 7.87955 15.2001 7.15955Z" />
</svg>
