<?xml version="1.0" encoding="UTF-8"?>
<svg width="24" height="24" viewBox="0 0 24 24" xmlns="http://www.w3.org/2000/svg">
 <path d="m6.4502 22c-0.41 0-0.75-0.34-0.75-0.75v-18.5c0-0.41 0.34-0.75 0.75-0.75s0.75 0.34 0.75 0.75v18.5c0 0.41-0.34 0.75-0.75 0.75z"/>
 <path d="m15.2 7.1596-8.1-3.5c-0.12-0.06-0.25-0.04-0.36 0.03-0.1 0.07-0.16 0.18-0.16 0.31v13c0 0.13 0.07 0.25 0.18 0.32 0.06 0.04 0.13 0.0599 0.2 0.0599 0.06 0 0.11-0.0099 0.17-0.0399l8.3-4.1h0.01c1.66-0.86 2.55-1.97 2.5-3.14-0.06-1.18-1.03-2.22-2.74-2.94z" opacity=".4"/>
</svg>
