<?xml version="1.0" encoding="UTF-8"?>
<svg width="24" height="24" viewBox="0 0 24 24" xmlns="http://www.w3.org/2000/svg">
 <path d="m21.77 2.2299c-0.3-0.3-0.79-0.3-1.09 0l-18.45 18.46c-0.3 0.3-0.3 0.79 0 1.09 0.15 0.14 0.34 0.22 0.54 0.22s0.39-0.08 0.54-0.23l18.46-18.46c0.31-0.3 0.31-0.78 0-1.08z"/>
 <path d="m14.82 3.5199v5.66l-5.64 5.64v-1.54h-3.09c-1.4 0-1.79-0.86-0.86-1.91l6.77-7.7 0.8-0.91c1.11-1.26 2.02-0.92 2.02 0.76z" opacity=".4"/>
 <path d="m18.77 12.63-6.77 7.7-0.8 0.91c-1.11 1.26-2.02 0.92-2.02-0.76v-2.66l7.1-7.1h1.63c1.4 0 1.79 0.86 0.86 1.91z" opacity=".4"/>
</svg>
