<?xml version="1.0" encoding="UTF-8"?>
<svg width="24" height="24" viewBox="0 0 24 24" xmlns="http://www.w3.org/2000/svg">
 <path d="m12 22c5.5228 0 10-4.4772 10-10 0-5.5228-4.4772-10-10-10-5.5228 0-10 4.4772-10 10 0 5.5228 4.4772 10 10 10z" opacity=".4"/>
 <path d="m8.6799 11.91 1.65 0.41-0.95002 3.84c-0.22 0.9 0.21998 1.2001 0.98002 0.6701l5.18-3.5901c0.63-0.44 0.54-0.95-0.21-1.14l-1.65-0.41 0.95-3.84c0.22-0.9-0.22-1.2-0.98-0.66998l-5.18 3.5901c-0.63 0.44-0.54001 0.9499 0.20999 1.1399z"/>
</svg>
