<svg width="24" height="24" viewBox="0 0 24 24"  xmlns="http://www.w3.org/2000/svg">
<path d="M11.0702 18.17C10.9002 18.17 10.7402 18.14 10.5702 18.08C10.0202 17.87 9.66021 17.36 9.66021 16.77V13.47H8.68021C8.12021 13.47 7.63021 13.15 7.40021 12.65C7.17021 12.14 7.26021 11.57 7.63021 11.15L11.8902 6.31C12.2802 5.87 12.8802 5.72 13.4302 5.93C13.9802 6.14 14.3402 6.65 14.3402 7.24V10.54H15.3302C15.8902 10.54 16.3802 10.86 16.6102 11.36C16.8402 11.87 16.7502 12.44 16.3802 12.86L12.1202 17.7C11.8402 18 11.4602 18.17 11.0702 18.17ZM8.90021 11.97H10.4102C10.8202 11.97 11.1602 12.31 11.1602 12.72V16.5L15.1002 12.03H13.5902C13.1802 12.03 12.8402 11.69 12.8402 11.28V7.5L8.90021 11.97Z" />
<path d="M11.9702 22.75C6.05021 22.75 1.22021 17.93 1.22021 12C1.22021 6.07 6.05021 1.25 11.9702 1.25C17.8902 1.25 22.7202 6.07 22.7202 12C22.7202 17.93 17.9002 22.75 11.9702 22.75ZM11.9702 2.75C6.87021 2.75 2.72021 6.9 2.72021 12C2.72021 17.1 6.87021 21.25 11.9702 21.25C17.0702 21.25 21.2202 17.1 21.2202 12C21.2202 6.9 17.0702 2.75 11.9702 2.75Z" />
</svg>
