<?xml version="1.0" encoding="UTF-8"?>
<svg width="24" height="24" viewBox="0 0 24 24" xmlns="http://www.w3.org/2000/svg">
 <path d="m21.99 10.84c-0.02-0.48-0.1-0.95001-0.25-1.4-0.69-2.16-2.7099-3.72-5.0899-3.72h-2.7901c-0.58 0-0.62-0.06001-0.93-0.47001l-1.3999-1.86c-0.65-0.87-1.1601-1.4-2.7901-1.4h-2.33c-2.44 0-4.42 1.98-4.42 4.42v10.23c0 2.95 2.4 5.35 5.35 5.35h9.3c2.95 0 5.3499-2.4 5.3499-5.35v-5.58c0.01-0.06 0.01-0.15 0-0.22z" opacity=".4"/>
 <path d="m15.58 19.7c-2.11 0.15-2.11 3.21 0 3.36h5.01c0.61 0 1.1899-0.22 1.6399-0.63 1.48-1.29 0.69-3.89-1.26-4.13-0.7-4.22-6.81-2.62-5.36 1.4"/>
</svg>
