<svg width="24" height="24" viewBox="0 0 24 24"  xmlns="http://www.w3.org/2000/svg">
<path opacity="0.4" d="M21.9902 10.84C21.9702 10.36 21.8902 9.88999 21.7402 9.43999C21.0502 7.27999 19.0303 5.71999 16.6503 5.71999H13.8602C13.2802 5.71999 13.2402 5.65998 12.9302 5.24998L11.5303 3.38998C10.8803 2.51998 10.3702 1.98999 8.74023 1.98999H6.41022C3.97022 1.98999 1.99023 3.96999 1.99023 6.40999V9.42998V16.64C1.99023 19.59 4.39027 21.99 7.34027 21.99H16.6403C19.5903 21.99 21.9902 19.59 21.9902 16.64V11.06C22.0002 11 22.0002 10.91 21.9902 10.84Z" />
<path d="M15.5801 19.7C13.4701 19.85 13.4701 22.91 15.5801 23.06H20.5901C21.2001 23.06 21.78 22.84 22.23 22.43C23.71 21.14 22.92 18.54 20.97 18.3C20.27 14.08 14.16 15.68 15.61 19.7" />
</svg>
