<?xml version="1.0" encoding="UTF-8"?>
<svg width="24" height="24" viewBox="0 0 24 24" xmlns="http://www.w3.org/2000/svg">
 <path d="m21.74 9.44h-19.74v-3.02c0-2.44 1.98-4.42 4.42-4.42h2.33c1.63 0 2.14 0.53 2.79 1.4l1.4 1.86c0.31 0.41 0.35 0.47 0.93 0.47h2.79c2.37-0.01 4.39 1.55 5.08 3.71z" opacity=".4"/>
 <path d="m21.99 10.84c-0.02-0.49-0.1-0.94996-0.25-1.4h-19.74v7.21c0 2.95 2.4 5.35 5.35 5.35h9.3c2.95 0 5.35-2.4 5.35-5.35v-5.58c0-0.07 0-0.16-0.01-0.23zm-7.56 5.46h-5c-0.41 0-0.75-0.34-0.75-0.75s0.34-0.75 0.75-0.75h5c0.41 0 0.75 0.34 0.75 0.75s-0.34 0.75-0.75 0.75z"/>
</svg>
