<?xml version="1.0" encoding="UTF-8"?>
<svg width="24" height="24" viewBox="0 0 24 24" xmlns="http://www.w3.org/2000/svg">
 <path d="m15.72 2h-7.44c-0.38 0-0.7 0.32-0.7 0.7s0.32 0.7 0.7 0.7h3.26l1.4 1.86c0.31 0.41 0.35 0.47 0.93 0.47h3.72c0.38 0 0.75 0.05 1.11 0.15 0.04 0.18 0.06 0.36 0.06 0.55v0.35c0 0.38 0.32 0.7 0.7 0.7s0.7-0.32 0.7-0.7v-0.36c-0.02-2.44-2-4.42-4.44-4.42z" opacity=".4"/>
 <path d="m20.14 6.54c-0.43-0.31-0.92-0.54-1.45-0.67-0.35-0.1-0.73-0.15-1.11-0.15h-3.72c-0.58 0-0.62-0.06-0.93-0.47l-1.4-1.86c-0.65-0.86-1.16-1.39-2.79-1.39h-2.32c-2.44 0-4.42 1.98-4.42 4.42v11.16c0 2.44 1.98 4.42 4.42 4.42h11.16c2.44 0 4.42-1.98 4.42-4.42v-7.44c0-1.49-0.73-2.8-1.86-3.6zm-5.81 9.46h-4.66c-0.39 0-0.7-0.31-0.7-0.7 0-0.38 0.31-0.7 0.7-0.7h4.65c0.38 0 0.7 0.32 0.7 0.7 0 0.39-0.31 0.7-0.69 0.7z"/>
</svg>
