<?xml version="1.0" encoding="UTF-8"?>
<svg width="24" height="24" viewBox="0 0 24 24" xmlns="http://www.w3.org/2000/svg">
 <path d="m21.06 11.82-0.16-0.22c-0.28-0.34-0.61-0.61-0.99-0.81-0.51-0.29-1.09-0.44-1.69-0.44h-12.45c-0.6 0-1.17 0.15-1.69 0.44-0.39 0.21-0.74 0.5-1.03 0.86-0.57 0.73-0.84 1.63-0.75 2.53l0.37 4.67c0.13 1.41 0.3 3.15 3.47 3.15h11.72c3.17 0 3.33-1.74 3.47-3.16l0.37-4.65c0.09-0.84-0.13-1.68-0.64-2.37zm-6.67 5.52h-4.79c-0.39 0-0.7-0.32-0.7-0.7s0.31-0.7 0.7-0.7h4.79c0.39 0 0.7 0.32 0.7 0.7 0 0.39-0.31 0.7-0.7 0.7z"/>
 <path d="m3.3799 11.31c0.22-0.2 0.44-0.38 0.7-0.52 0.51-0.29 1.09-0.44 1.69-0.44h12.46c0.6 0 1.17 0.15 1.69 0.44 0.26 0.14 0.49 0.32 0.7 0.53v-1.5c0-3.57-1.09-4.66-4.66-4.66h-2.38c-0.44 0-0.45-0.01-0.71-0.35l-1.2-1.61c-0.57-0.74-1.02-1.2-2.45-1.2h-1.18c-3.57 0-4.66 1.09-4.66 4.66v4.65z" opacity=".4"/>
</svg>
