<?xml version="1.0" encoding="UTF-8"?>
<svg width="24" height="24" viewBox="0 0 24 24" xmlns="http://www.w3.org/2000/svg">
 <path d="m18.75 21c0 0.41-0.34 0.75-0.75 0.75h-4c-0.05 0-0.09-0.02-0.14-0.03-0.29 0.75-1.01 1.28-1.86 1.28s-1.57-0.53-1.86-1.28c-0.05 0.01-0.09 0.03-0.14 0.03h-4c-0.41 0-0.75-0.34-0.75-0.75s0.34-0.75 0.75-0.75h4c0.05 0 0.09 0.02 0.14 0.03 0.2-0.52 0.62-0.94 1.14-1.14-0.01-0.05-0.03-0.09-0.03-0.14v-3h1.5v3c0 0.05-0.02 0.09-0.03 0.14 0.52 0.2 0.94 0.62 1.14 1.14 0.05-0.01 0.09-0.03 0.14-0.03h4c0.41 0 0.75 0.34 0.75 0.75z" opacity=".4"/>
 <path d="m19 8.3v4.2c0 2.8-0.7 3.5-3.5 3.5h-7c-2.8 0-3.5-0.7-3.5-3.5v-7c0-2.8 0.7-3.5 3.5-3.5h1.05c1.05 0 1.28 0.31003 1.68 0.84003l1.05 1.4c0.27 0.35 0.42 0.56 1.12 0.56h2.1c2.8 0 3.5 0.7 3.5 3.5z"/>
</svg>
