<?xml version="1.0" encoding="UTF-8"?>
<svg width="24" height="24" viewBox="0 0 24 24" xmlns="http://www.w3.org/2000/svg">
 <path d="m14.9 2h-5.8c-0.68 0-1.64 0.4-2.12 0.88l-4.1 4.1c-0.48 0.48-0.88 1.44-0.88 2.12v5.8c0 0.68 0.4 1.64 0.88 2.12l4.1 4.1c0.48 0.48 1.44 0.88 2.12 0.88h5.8c0.68 0 1.64-0.4 2.12-0.88l4.1-4.1c0.48-0.48 0.88-1.44 0.88-2.12v-5.8c0-0.68-0.4-1.64-0.88-2.12l-4.1-4.1c-0.48-0.48-1.44-0.88-2.12-0.88z" opacity=".4"/>
 <path d="m13.06 12 2.97-2.97c0.29-0.29 0.29-0.77 0-1.06s-0.77-0.29-1.06 0l-2.97 2.97-2.97-2.97c-0.29-0.29-0.77-0.29-1.06 0s-0.29 0.77 0 1.06l2.97 2.97-2.97 2.97c-0.29 0.29-0.29 0.77 0 1.06 0.15 0.15 0.34 0.22 0.53 0.22s0.38-0.07 0.53-0.22l2.97-2.97 2.97 2.97c0.15 0.15 0.34 0.22 0.53 0.22s0.38-0.07 0.53-0.22c0.29-0.29 0.29-0.77 0-1.06l-2.97-2.97z"/>
</svg>
