<?xml version="1.0" encoding="UTF-8"?>
<svg width="24" height="24" viewBox="0 0 24 24" xmlns="http://www.w3.org/2000/svg">
 <path d="m14.9 2h-5.8c-0.68 0-1.64 0.4-2.12 0.88l-4.1 4.1c-0.48 0.48-0.88 1.44-0.88 2.12v5.8c0 0.68 0.4 1.64 0.88 2.12l4.1 4.1c0.48 0.48 1.44 0.88 2.12 0.88h5.8c0.68 0 1.64-0.4 2.12-0.88l4.1-4.1c0.48-0.48 0.88-1.44 0.88-2.12v-5.8c0-0.68-0.4-1.64-0.88-2.12l-4.1-4.1c-0.48-0.48-1.44-0.88-2.12-0.88z" opacity=".4"/>
 <path d="m3.02 21.75c-0.19 0-0.38-0.07-0.53-0.22-0.29-0.29-0.29-0.77 0-1.06l17.98-17.98c0.29-0.29 0.77-0.29 1.06 0s0.29 0.77 0 1.06l-17.98 17.98c-0.14 0.15-0.33 0.22-0.53 0.22z"/>
</svg>
