<?xml version="1.0" encoding="UTF-8"?>
<svg width="24" height="24" viewBox="0 0 24 24" xmlns="http://www.w3.org/2000/svg">
 <path d="M9.03 5.17C9.02 5.08 9.01 5 8.99 4.91C8.98 4.84 8.97 4.77 8.95 4.69C8.92 4.57 8.88 4.44 8.83 4.32C8.71 3.97 8.53 3.65 8.3 3.35C8.17 3.19 8.03 3.03 7.87 2.9C7.23 2.32 6.4 2 5.53 2C3.58 2 2 3.58 2 5.53C2 6.4 2.32 7.23 2.9 7.87C3.03 8.03 3.19 8.17 3.35 8.3C3.65 8.53 3.97 8.71 4.32 8.83C4.44 8.88 4.57 8.92 4.69 8.95C4.77 8.97 4.84 8.98 4.91 8.99C5 9.01 5.08 9.02 5.17 9.03C5.29 9.04 5.41 9.05 5.53 9.05C7.47 9.05 9.05 7.47 9.05 5.53C9.05 5.41 9.04 5.29 9.03 5.17Z"/>
 <path d="m21.1 16.14c-0.1-0.13-0.23-0.26-0.37-0.37-0.02-0.02-0.05-0.05-0.08-0.07-0.27-0.21-0.57-0.38-0.88-0.5-0.03-0.02-0.06-0.03-0.09-0.03-0.11-0.04-0.22-0.08-0.33-0.11-0.17-0.04-0.35-0.07-0.52-0.09-0.12-0.01-0.24-0.02-0.36-0.02-1.94 0-3.52 1.58-3.52 3.52 0 0.12 0.01 0.24 0.02 0.36 0.02 0.17 0.05 0.35 0.09 0.52 0.03 0.11 0.07 0.22 0.11 0.33 0 0.03 0.01 0.06 0.03 0.09 0.12 0.31 0.29 0.61 0.5 0.88 0.02 0.03 0.05 0.05 0.07 0.08 0.11 0.14 0.24 0.27 0.37 0.37 0.64 0.58 1.46 0.9 2.33 0.9 1.95 0 3.53-1.58 3.53-3.53 0-0.87-0.32-1.69-0.9-2.33z"/>
 <path d="m5.53 14.95c-0.12 0-0.24 0.01-0.36 0.02-0.17 0.02-0.35 0.05-0.52 0.09-0.11 0.03-0.22 0.07-0.33 0.11-0.03 0-0.06 0.01-0.09 0.03-0.31 0.12-0.61 0.29-0.88 0.5-0.03 0.02-0.05 0.05-0.08 0.07-0.14 0.11-0.27 0.24-0.37 0.37-0.58 0.64-0.9 1.46-0.9 2.33 0 1.95 1.58 3.53 3.53 3.53 0.87 0 1.7-0.32 2.34-0.9 0.16-0.13 0.3-0.29 0.43-0.45 0.21-0.27 0.38-0.57 0.5-0.88 0.02-0.03 0.03-0.06 0.03-0.09 0.04-0.11 0.08-0.22 0.11-0.33 0.04-0.17 0.07-0.35 0.09-0.52 0.01-0.12 0.02-0.24 0.02-0.36 0-1.94-1.58-3.52-3.52-3.52z"/>
 <path d="m18.47 2c-0.87 0-1.69 0.32-2.33 0.9-0.13 0.1-0.26 0.23-0.37 0.37-0.02 0.02-0.05 0.05-0.07 0.08-0.21 0.27-0.38 0.57-0.5 0.88-0.02 0.03-0.03 0.06-0.03 0.09-0.04 0.11-0.08 0.22-0.11 0.33-0.04 0.17-0.07 0.35-0.09 0.52-0.01 0.12-0.02 0.24-0.02 0.36 0 1.94 1.58 3.52 3.52 3.52 0.12 0 0.24-0.01 0.36-0.02 0.17-0.02 0.35-0.05 0.52-0.09 0.11-0.03 0.22-0.07 0.33-0.11 0.03 0 0.06-0.01 0.09-0.03 0.31-0.12 0.61-0.29 0.88-0.5 0.16-0.13 0.32-0.27 0.45-0.43 0.58-0.64 0.9-1.47 0.9-2.34 0-1.95-1.58-3.53-3.53-3.53z"/>
 <path d="m15.77 20.73c-0.02-0.03-0.05-0.05-0.07-0.08-0.21-0.27-0.38-0.57-0.5-0.88l0.03 0.09c-2.01 0.84-4.41 0.85-6.46 0l0.03-0.09c-0.12 0.31-0.29 0.61-0.5 0.88-0.13 0.16-0.27 0.32-0.43 0.45 1.28 0.59 2.7 0.9 4.13 0.9 1.46 0 2.85-0.3 4.14-0.9-0.13-0.1-0.26-0.23-0.37-0.37zm-12.27-8.73c0-1.11 0.22-2.22 0.64-3.23 0.01 0 0.03 0.01 0.04 0.01-0.12-0.05-0.25-0.11-0.36-0.17-0.16-0.09-0.32-0.19-0.47-0.31-0.16-0.13-0.32-0.27-0.45-0.43-0.59 1.28-0.9 2.7-0.9 4.13 0 1.46 0.3 2.85 0.9 4.14 0.1-0.13 0.23-0.26 0.37-0.37 0.03-0.02 0.05-0.05 0.08-0.07 0.27-0.21 0.57-0.38 0.88-0.5-0.03 0.01-0.06 0.02-0.09 0.03-0.43-1.01-0.64-2.1-0.64-3.23zm17.6-4.13c-0.13 0.16-0.29 0.3-0.45 0.43-0.27 0.21-0.57 0.38-0.88 0.5 0.03-0.01 0.06-0.02 0.09-0.03 0.42 1.01 0.64 2.12 0.64 3.23 0 1.13-0.21 2.22-0.64 3.23-0.03-0.01-0.06-0.02-0.09-0.03 0.31 0.12 0.61 0.29 0.88 0.5 0.03 0.02 0.06 0.05 0.08 0.07 0.14 0.11 0.27 0.24 0.37 0.37 0.6-1.29 0.9-2.68 0.9-4.14 0-1.43-0.31-2.85-0.9-4.13zm-9.1-5.87c-1.43 0-2.85 0.31-4.13 0.9 0.16 0.13 0.3 0.29 0.43 0.45 0.12 0.15 0.22 0.31 0.31 0.47 0.06 0.11 0.12 0.24 0.17 0.36 0-0.01-0.01-0.03-0.01-0.04 2.04-0.85 4.45-0.84 6.46 0l-0.03 0.09c0.12-0.31 0.29-0.61 0.5-0.88 0.02-0.03 0.05-0.06 0.07-0.08 0.11-0.14 0.24-0.27 0.37-0.37-1.29-0.6-2.68-0.9-4.14-0.9z" opacity=".4"/>
</svg>
