<svg width="24" height="24" viewBox="0 0 24 24"  xmlns="http://www.w3.org/2000/svg">
<path d="M9.03 5.17C9.02 5.08 9.01 5 8.99 4.91C8.98 4.84 8.97 4.77 8.95 4.69C8.92 4.57 8.88 4.44 8.83 4.32C8.71 3.97 8.53 3.65 8.3 3.35C8.17 3.19 8.03 3.03 7.87 2.9C7.23 2.32 6.4 2 5.53 2C3.58 2 2 3.58 2 5.53C2 6.4 2.32 7.23 2.9 7.87C3.03 8.03 3.19 8.17 3.35 8.3C3.65 8.53 3.97 8.71 4.32 8.83C4.44 8.88 4.57 8.92 4.69 8.95C4.77 8.97 4.84 8.98 4.91 8.99C5 9.01 5.08 9.02 5.17 9.03C5.29 9.04 5.41 9.05 5.53 9.05C7.47 9.05 9.05 7.47 9.05 5.53C9.05 5.41 9.04 5.29 9.03 5.17Z" />
<path d="M21.1 16.1402C21 16.0102 20.87 15.8802 20.73 15.7702C20.71 15.7502 20.68 15.7202 20.65 15.7002C20.38 15.4902 20.08 15.3202 19.77 15.2002C19.74 15.1802 19.71 15.1702 19.68 15.1702C19.57 15.1302 19.46 15.0902 19.35 15.0602C19.18 15.0202 19 14.9902 18.83 14.9702C18.71 14.9602 18.59 14.9502 18.47 14.9502C16.53 14.9502 14.95 16.5302 14.95 18.4702C14.95 18.5902 14.96 18.7102 14.97 18.8302C14.99 19.0002 15.02 19.1802 15.06 19.3502C15.09 19.4602 15.13 19.5702 15.17 19.6802C15.17 19.7102 15.18 19.7402 15.2 19.7702C15.32 20.0802 15.49 20.3802 15.7 20.6502C15.72 20.6802 15.75 20.7002 15.77 20.7302C15.88 20.8702 16.01 21.0002 16.14 21.1002C16.78 21.6802 17.6 22.0002 18.47 22.0002C20.42 22.0002 22 20.4202 22 18.4702C22 17.6002 21.68 16.7802 21.1 16.1402Z" />
<path d="M5.53 14.9502C5.41 14.9502 5.29 14.9602 5.17 14.9702C5 14.9902 4.82 15.0202 4.65 15.0602C4.54 15.0902 4.43 15.1302 4.32 15.1702C4.29 15.1702 4.26 15.1802 4.23 15.2002C3.92 15.3202 3.62 15.4902 3.35 15.7002C3.32 15.7202 3.3 15.7502 3.27 15.7702C3.13 15.8802 3 16.0102 2.9 16.1402C2.32 16.7802 2 17.6002 2 18.4702C2 20.4202 3.58 22.0002 5.53 22.0002C6.4 22.0002 7.23 21.6802 7.87 21.1002C8.03 20.9702 8.17 20.8102 8.3 20.6502C8.51 20.3802 8.68 20.0802 8.8 19.7702C8.82 19.7402 8.83 19.7102 8.83 19.6802C8.87 19.5702 8.91 19.4602 8.94 19.3502C8.98 19.1802 9.01 19.0002 9.03 18.8302C9.04 18.7102 9.05 18.5902 9.05 18.4702C9.05 16.5302 7.47 14.9502 5.53 14.9502Z" />
<path d="M18.47 2C17.6 2 16.78 2.32 16.14 2.9C16.01 3 15.88 3.13 15.77 3.27C15.75 3.29 15.72 3.32 15.7 3.35C15.49 3.62 15.32 3.92 15.2 4.23C15.18 4.26 15.17 4.29 15.17 4.32C15.13 4.43 15.09 4.54 15.06 4.65C15.02 4.82 14.99 5 14.97 5.17C14.96 5.29 14.95 5.41 14.95 5.53C14.95 7.47 16.53 9.05 18.47 9.05C18.59 9.05 18.71 9.04 18.83 9.03C19 9.01 19.18 8.98 19.35 8.94C19.46 8.91 19.57 8.87 19.68 8.83C19.71 8.83 19.74 8.82 19.77 8.8C20.08 8.68 20.38 8.51 20.65 8.3C20.81 8.17 20.97 8.03 21.1 7.87C21.68 7.23 22 6.4 22 5.53C22 3.58 20.42 2 18.47 2Z" />
<path opacity="0.4" d="M15.77 20.73C15.75 20.7 15.72 20.68 15.7 20.65C15.49 20.38 15.32 20.08 15.2 19.77C15.21 19.8 15.22 19.83 15.23 19.86C13.22 20.7 10.82 20.71 8.77 19.86C8.78 19.83 8.79 19.8 8.8 19.77C8.68 20.08 8.51 20.38 8.3 20.65C8.17 20.81 8.03 20.97 7.87 21.1C9.15 21.69 10.57 22 12 22C13.46 22 14.85 21.7 16.14 21.1C16.01 21 15.88 20.87 15.77 20.73ZM3.5 12C3.5 10.89 3.72 9.78 4.14 8.77C4.15 8.77 4.17 8.78 4.18 8.78C4.06 8.73 3.93 8.67 3.82 8.61C3.66 8.52 3.5 8.42 3.35 8.3C3.19 8.17 3.03 8.03 2.9 7.87C2.31 9.15 2 10.57 2 12C2 13.46 2.3 14.85 2.9 16.14C3 16.01 3.13 15.88 3.27 15.77C3.3 15.75 3.32 15.72 3.35 15.7C3.62 15.49 3.92 15.32 4.23 15.2C4.2 15.21 4.17 15.22 4.14 15.23C3.71 14.22 3.5 13.13 3.5 12ZM21.1 7.87C20.97 8.03 20.81 8.17 20.65 8.3C20.38 8.51 20.08 8.68 19.77 8.8C19.8 8.79 19.83 8.78 19.86 8.77C20.28 9.78 20.5 10.89 20.5 12C20.5 13.13 20.29 14.22 19.86 15.23C19.83 15.22 19.8 15.21 19.77 15.2C20.08 15.32 20.38 15.49 20.65 15.7C20.68 15.72 20.71 15.75 20.73 15.77C20.87 15.88 21 16.01 21.1 16.14C21.7 14.85 22 13.46 22 12C22 10.57 21.69 9.15 21.1 7.87ZM12 2C10.57 2 9.15 2.31 7.87 2.9C8.03 3.03 8.17 3.19 8.3 3.35C8.42 3.5 8.52 3.66 8.61 3.82C8.67 3.93 8.73 4.06 8.78 4.18C8.78 4.17 8.77 4.15 8.77 4.14C10.81 3.29 13.22 3.3 15.23 4.14C15.22 4.17 15.21 4.2 15.2 4.23C15.32 3.92 15.49 3.62 15.7 3.35C15.72 3.32 15.75 3.29 15.77 3.27C15.88 3.13 16.01 3 16.14 2.9C14.85 2.3 13.46 2 12 2Z" />
</svg>
