<?xml version="1.0" encoding="UTF-8"?>
<svg width="24" height="24" viewBox="0 0 24 24" xmlns="http://www.w3.org/2000/svg">
 <path d="m16.31 20.15c-0.04-0.22-0.06-0.43-0.06-0.65 0-0.09 0-0.17 0.01-0.25h-8.52c0.01 0.08 0.01 0.16 0.01 0.25 0 0.22-0.02 0.43-0.06 0.64s-0.11 0.42-0.19 0.61h9c-0.09-0.19-0.15-0.39-0.19-0.6zm-12.45-12.46c-0.21-0.04-0.42-0.11-0.61-0.19v9c0.19-0.09 0.39-0.15 0.6-0.19 0.22-0.04 0.43-0.06 0.65-0.06 0.09 0 0.17 0 0.25 0.01v-8.52c-0.08 0.01-0.16 0.01-0.25 0.01-0.22 0-0.43-0.02-0.64-0.06zm16.29 0c-0.22 0.04-0.43 0.06-0.65 0.06-0.09 0-0.17 0-0.25-0.01v8.52c0.08-0.01 0.16-0.01 0.25-0.01 0.22 0 0.43 0.02 0.64 0.06s0.42 0.11 0.61 0.19v-9c-0.19 0.09-0.39 0.15-0.6 0.19zm-3.65-4.44h-9c0.09 0.19 0.15 0.39 0.19 0.6 0.04 0.22 0.06 0.43 0.06 0.65 0 0.09 0 0.17-0.01 0.25h8.52c-0.01-0.08-0.01-0.16-0.01-0.25 0-0.22 0.02-0.43 0.06-0.64s0.11-0.42 0.19-0.61z" opacity=".4"/>
 <path d="m7.75 4.5c0 0.09 0 0.17-0.01 0.25-0.02 0.26-0.07 0.5-0.15 0.74-0.02 0.09-0.06 0.19-0.1 0.28-0.02 0.05-0.05 0.11-0.08 0.17s-0.06 0.12-0.1 0.18c-0.28 0.5-0.69 0.91-1.19 1.19-0.06 0.04-0.12 0.07-0.18 0.1s-0.12 0.06-0.17 0.08c-0.09 0.04-0.19 0.08-0.28 0.1-0.24 0.08-0.48 0.13-0.74 0.15-0.08 0.01-0.16 0.01-0.25 0.01-0.22 0-0.43-0.02-0.64-0.06s-0.42-0.11-0.61-0.19c-1.19-0.5-2-1.68-2-3 0-1.79 1.46-3.25 3.25-3.25 1.33 0 2.5 0.81 3 2 0.09 0.19 0.15 0.39 0.19 0.6 0.04 0.22 0.06 0.43 0.06 0.65z"/>
 <path d="m22.75 4.5c0 1.33-0.81 2.5-2 3-0.19 0.09-0.39 0.15-0.6 0.19-0.22 0.04-0.43 0.06-0.65 0.06-0.09 0-0.17 0-0.25-0.01-0.27-0.02-0.52-0.07-0.77-0.16-0.08-0.02-0.17-0.05-0.25-0.09-0.06-0.02-0.11-0.05-0.17-0.08s-0.12-0.06-0.18-0.1c-0.5-0.28-0.91-0.69-1.19-1.19-0.04-0.06-0.07-0.12-0.1-0.18s-0.06-0.11-0.08-0.17c-0.04-0.08-0.07-0.17-0.09-0.25-0.09-0.25-0.14-0.5-0.16-0.77-0.01-0.08-0.01-0.16-0.01-0.25 0-0.22 0.02-0.43 0.06-0.64s0.11-0.42 0.19-0.61c0.5-1.19 1.68-2 3-2 1.79 0 3.25 1.46 3.25 3.25z"/>
 <path d="m7.75 19.5c0 0.22-0.02 0.43-0.06 0.64s-0.11 0.42-0.19 0.61c-0.5 1.19-1.68 2-3 2-1.79 0-3.25-1.46-3.25-3.25 0-1.33 0.81-2.5 2-3 0.19-0.09 0.39-0.15 0.6-0.19 0.22-0.04 0.43-0.06 0.65-0.06 0.09 0 0.17 0 0.25 0.01 0.25 0.02 0.49 0.07 0.72 0.14 0.08 0.02 0.17 0.05 0.25 0.09 0.07 0.03 0.14 0.06 0.22 0.1 0.06 0.03 0.12 0.06 0.18 0.1 0.5 0.28 0.91 0.69 1.19 1.19 0.04 0.06 0.07 0.12 0.1 0.18 0.04 0.08 0.07 0.15 0.1 0.22 0.04 0.08 0.07 0.17 0.09 0.25 0.07 0.23 0.12 0.47 0.14 0.72 0.01 0.08 0.01 0.16 0.01 0.25z"/>
 <path d="m22.75 19.5c0 1.79-1.46 3.25-3.25 3.25-1.33 0-2.5-0.81-3-2-0.09-0.19-0.15-0.39-0.19-0.6-0.04-0.22-0.06-0.43-0.06-0.65 0-0.09 0-0.17 0.01-0.25 0-0.03 0-0.06 0.01-0.09 0.01-0.11 0.03-0.21 0.05-0.32 0.05-0.27 0.14-0.53 0.27-0.78 0.03-0.06 0.06-0.12 0.1-0.18 0.28-0.5 0.69-0.91 1.19-1.19 0.06-0.04 0.12-0.07 0.18-0.1 0.25-0.13 0.51-0.22 0.78-0.27 0.11-0.02 0.21-0.04 0.32-0.05 0.03-0.01 0.06-0.01 0.09-0.01 0.08-0.01 0.16-0.01 0.25-0.01 0.22 0 0.43 0.02 0.64 0.06s0.42 0.11 0.61 0.19c1.19 0.5 2 1.68 2 3z"/>
</svg>
