<?xml version="1.0" encoding="UTF-8"?>
<svg width="24" height="24" viewBox="0 0 24 24" xmlns="http://www.w3.org/2000/svg">
 <path d="m19.48 7.0901c-0.26-0.32-0.73-0.37005-1.05-0.11005s-0.37 0.73005-0.11 1.05c1.13 1.4 1.76 3.0599 1.82 4.7999 0.16 4.48-3.36 8.26-7.85 8.41-4.48 0.16-8.26-3.36-8.41-7.85-0.15-4.49 3.36-8.26 7.85-8.41 0.57-0.02 1.17 0.03003 1.82 0.16003 0.04 0.01 0.08 0 0.12 0 0.1 0.05 0.22 0.07996 0.33 0.07996 0.17 0 0.3299-0.04998 0.4699-0.16998 0.32-0.26 0.3701-0.72999 0.1201-1.05l-1.98-2.47c-0.26-0.32-0.73-0.38006-1.05-0.12006s-0.37 0.73005-0.12 1.05l0.83 1.03c-0.19-0.01-0.39-0.02001-0.58-0.01001-5.31 0.18-9.48 4.66-9.29 9.97 0.19 5.31 4.66 9.48 9.97 9.29 5.31-0.19 9.4799-4.66 9.2899-9.97-0.1-2.06-0.8399-4.0299-2.1799-5.6799z" opacity=".4"/>
 <path d="m12.38 16.92h-2.2899c-0.41004 0-0.75004-0.34-0.75004-0.75s0.34-0.75 0.75004-0.75h2.2899c0.43 0 0.78-0.3499 0.78-0.7799s-0.35-0.7801-0.78-0.7801h-2.2899c-0.24004 0-0.47009-0.12-0.61009-0.31s-0.17997-0.4499-0.09997-0.6799l0.75996-2.29c0.1-0.31 0.39-0.51 0.71-0.51h3.06c0.41 0 0.75 0.34 0.75 0.75s-0.34 0.75-0.75 0.75h-2.52l-0.26 0.7899h1.25c1.26 0 2.28 1.0201 2.28 2.2801s-1.02 2.2799-2.28 2.2799z"/>
</svg>
