<svg width="24" height="24" viewBox="0 0 24 24"  xmlns="http://www.w3.org/2000/svg">
<path opacity="0.4" d="M19.48 7.08981C19.22 6.76981 18.75 6.71977 18.43 6.97977C18.11 7.23977 18.06 7.70981 18.32 8.02981C19.45 9.42981 20.08 11.0898 20.14 12.8298C20.3 17.3098 16.78 21.0898 12.29 21.2398C7.81 21.3998 4.03002 17.8798 3.88002 13.3898C3.73002 8.8998 7.24 5.12977 11.73 4.97977C12.3 4.95977 12.9 5.0098 13.55 5.1398C13.59 5.1498 13.63 5.1398 13.67 5.1398C13.77 5.1898 13.89 5.21976 14 5.21976C14.17 5.21976 14.33 5.16977 14.47 5.04977C14.79 4.78977 14.84 4.31978 14.59 3.99978L12.61 1.52981C12.35 1.20981 11.88 1.14976 11.56 1.40976C11.24 1.66976 11.19 2.13981 11.44 2.45981L12.27 3.48978C12.08 3.47978 11.88 3.46977 11.69 3.47977C6.38002 3.65977 2.21004 8.1398 2.40004 13.4498C2.59004 18.7598 7.06001 22.9298 12.37 22.7398C17.68 22.5498 21.85 18.0798 21.66 12.7698C21.56 10.7098 20.82 8.73981 19.48 7.08981Z" />
<path d="M12.3801 16.9198H10.0902C9.68016 16.9198 9.34016 16.5798 9.34016 16.1698C9.34016 15.7598 9.68016 15.4198 10.0902 15.4198H12.3801C12.8101 15.4198 13.1601 15.0698 13.1601 14.6398C13.1601 14.2098 12.8101 13.8598 12.3801 13.8598H10.0902C9.85016 13.8598 9.62011 13.7398 9.48011 13.5498C9.34011 13.3598 9.30014 13.0998 9.38014 12.8698L10.1401 10.5798C10.2401 10.2698 10.5301 10.0698 10.8501 10.0698H13.9101C14.3201 10.0698 14.6601 10.4098 14.6601 10.8198C14.6601 11.2298 14.3201 11.5698 13.9101 11.5698H11.3901L11.1301 12.3598H12.3801C13.6401 12.3598 14.6601 13.3798 14.6601 14.6398C14.6601 15.8998 13.6401 16.9198 12.3801 16.9198Z" />
</svg>
