<?xml version="1.0" encoding="UTF-8"?>
<svg width="24" height="24" viewBox="0 0 24 24" xmlns="http://www.w3.org/2000/svg">
 <path d="m16.19 2h-8.37c-3.65 0-5.82 2.17-5.82 5.81v8.37c0 3.64 2.17 5.81 5.81 5.81h8.37c3.64 0 5.81-2.17 5.81-5.81v-8.37c0.01-3.64-2.16-5.81-5.8-5.81z" opacity=".4"/>
 <path d="m17.53 8.6601-1.57-1.57c-0.29-0.29-0.77-0.29-1.06 0s-0.29 0.77 0 1.06l0.33 0.33h-5.15c-2.11 0-3.83 1.72-3.83 3.83s1.72 3.83 3.83 3.83h4.92c0.41 0 0.75-0.34 0.75-0.75s-0.34-0.75-0.75-0.75h-4.92c-1.28 0-2.33-1.04-2.33-2.33s1.04-2.33 2.33-2.33h5.08l-0.26 0.26004c-0.29 0.29-0.29 0.77 0 1.06 0.15 0.15 0.34 0.22 0.53 0.22s0.38-0.07 0.53-0.22l1.57-1.57c0.29-0.3 0.29-0.77 0-1.07z"/>
</svg>
