<?xml version="1.0" encoding="UTF-8"?>
<svg width="24" height="24" viewBox="0 0 24 24" xmlns="http://www.w3.org/2000/svg">
 <path d="m21.25 5.77v3.23c0 2.29-0.73 3.02-3.02 3.02h-0.1v-1.64c0-3.12-1.39-4.51-4.51-4.51h-1.64v-0.1c0-2.29 0.73-3.02 3.02-3.02h3.23c2.29 0 3.02 0.73 3.02 3.02z" opacity=".4"/>
 <path d="m16.63 10.38v3.24c0 2.28-0.73 3.01-3.01 3.01h-3.24c-2.28 0-3.01-0.73-3.01-3.01v-3.24c0-2.28 0.73-3.01 3.01-3.01h3.24c2.28 0 3.01 0.73001 3.01 3.01z"/>
 <path d="m12.02 18.13v0.1c0 2.29-0.73 3.02-3.02 3.02h-3.23c-2.29 0-3.02-0.73-3.02-3.02v-3.23c0-2.29 0.73-3.02 3.02-3.02h0.1v1.64c0 3.12 1.39 4.51 4.51 4.51h1.64z" opacity=".4"/>
</svg>
