<?xml version="1.0" encoding="UTF-8"?>
<svg width="24" height="24" viewBox="0 0 24 24" xmlns="http://www.w3.org/2000/svg">
 <path d="m19.69 7.3499c-0.25-0.33-0.72-0.39996-1.05-0.14996s-0.4 0.71998-0.15 1.05c1.08 1.44 1.65 3.12 1.65 4.86 0 4.49-3.65 8.14-8.14 8.14-4.49 0-8.14-3.65-8.14-8.14 0-4.49 3.65-8.14 8.14-8.14 0.58 0 1.17 0.07004 1.81 0.22004 0.03 0.01 0.06 0 0.1 0 0.02 0 0.05 0.02002 0.07 0.02002 0.03 0 0.05-0.01001 0.08-0.01001 0.04 0 0.07-0.01002 0.1-0.02002 0.05-0.01 0.1-0.03 0.15-0.06 0.03-0.02 0.07-0.02999 0.1-0.04999 0.01-0.01 0.03-0.01002 0.04-0.02002 0.03-0.02 0.04-0.05001 0.06-0.07001 0.04-0.04 0.07-0.06999 0.1-0.11999 0.03-0.04 0.04-0.09001 0.06-0.13001 0.01-0.03 0.03-0.05996 0.04-0.08996v-0.04999c0.01-0.05 0.01-0.10002 0-0.15002 0-0.05 0-0.09002-0.01-0.14002-0.01-0.04-0.03-0.08-0.05-0.13s-0.04-0.09996-0.07-0.13996c-0.01-0.01-0.01-0.03004-0.02-0.04004l-1.98-2.47c-0.26-0.32-0.73-0.36999-1.05-0.11999-0.32 0.26-0.37 0.72999-0.12 1.05l0.82 1.02c-0.08 0-0.16-0.00994-0.24-0.00994-5.31 0-9.64 4.32-9.64 9.64s4.32 9.64 9.64 9.64c5.32 0 9.64-4.32 9.64-9.64 0.01-2.06-0.67-4.05-1.94-5.75z" opacity=".4"/>
 <path d="m9.54 16.67c-0.41 0-0.75-0.34-0.75-0.75v-3.39l-0.19001 0.21c-0.28 0.31-0.74999 0.33-1.06 0.06-0.31-0.28-0.33-0.75-0.06-1.06l1.5-1.67c0.21-0.23002 0.53999-0.31003 0.82999-0.20003 0.28997 0.11 0.47997 0.39003 0.47997 0.70003v5.35c0 0.42-0.32996 0.75-0.74996 0.75z"/>
 <path d="m14 16.67c-1.52 0-2.75-1.23-2.75-2.75v-1.3499c0-1.52 1.23-2.75 2.75-2.75s2.75 1.23 2.75 2.75v1.3499c0 1.52-1.23 2.75-2.75 2.75zm0-5.3399c-0.69 0-1.25 0.56-1.25 1.25v1.35c0 0.69 0.56 1.25 1.25 1.25s1.25-0.56 1.25-1.25v-1.35c0-0.69-0.56-1.25-1.25-1.25z"/>
</svg>
