<?xml version="1.0" encoding="UTF-8"?>
<svg width="24" height="24" viewBox="0 0 24 24" xmlns="http://www.w3.org/2000/svg">
 <path d="m14.43 16.92h-2.29c-0.41 0-0.75-0.34-0.75-0.75s0.34-0.75 0.75-0.75h2.29c0.43 0 0.7801-0.3499 0.7801-0.7799s-0.3501-0.7801-0.7801-0.7801h-2.29c-0.24 0-0.4699-0.12-0.6099-0.31s-0.1801-0.4499-0.1001-0.6799l0.76-2.29c0.1-0.31 0.3901-0.51 0.7101-0.51h3.06c0.41 0 0.75 0.34 0.75 0.75s-0.34 0.75-0.75 0.75h-2.5201l-0.26 0.7899h1.25c1.26 0 2.2801 1.0201 2.2801 2.2801s-1.0301 2.2799-2.2801 2.2799z"/>
 <path d="m9.54 16.92c-0.41 0-0.75-0.34-0.75-0.75v-3.39l-0.19001 0.22c-0.28 0.31-0.74999 0.33-1.06 0.06-0.31-0.28-0.33-0.75-0.06-1.06l1.5-1.67c0.21-0.23 0.54002-0.31 0.83002-0.2 0.29004 0.11 0.47994 0.39 0.47994 0.7v5.35c0 0.41-0.32996 0.74-0.74996 0.74z"/>
 <path d="m19.69 7.35c-0.25-0.33-0.72-0.39997-1.05-0.14997s-0.4 0.71999-0.15 1.05c1.08 1.44 1.65 3.12 1.65 4.86 0 4.49-3.65 8.14-8.14 8.14-4.49 0-8.14-3.65-8.14-8.14 0-4.49 3.65-8.14 8.14-8.14 0.58 0 1.17 0.07003 1.81 0.22003 0.03 0.01 0.06 0 0.09 0s0.05 0.02002 0.07 0.02002c0.03 0 0.05-0.01001 0.08-0.01001s0.06-0.01002 0.1-0.02002c0.06-0.01 0.11-0.03999 0.16-0.05999 0.03-0.02 0.06-0.02999 0.09-0.04999 0.01-0.01 0.03-0.01002 0.04-0.02002 0.03-0.02 0.04-0.05001 0.06-0.07001 0.04-0.04 0.07-0.06999 0.1-0.11999 0.03-0.04 0.04-0.09002 0.06-0.14002 0.01-0.03 0.03-0.05996 0.04-0.08996v-0.04999c0.01-0.05 0.01-0.10003 0-0.15003 0-0.05 0-0.09001-0.01-0.14001-0.01-0.04-0.03-0.08001-0.05-0.13001s-0.04-0.09995-0.07-0.13995c-0.01-0.01-0.01-0.03004-0.02-0.04004l-1.98-2.47c-0.26-0.32-0.73-0.37999-1.05-0.11999s-0.37 0.72998-0.12 1.05l0.82 1.02c-0.08 0-0.16-0.01001-0.24-0.01001-5.31 0-9.64 4.32-9.64 9.64 0 5.32 4.32 9.64 9.64 9.64s9.64-4.32 9.64-9.64c0.02-2.05-0.66-4.04-1.93-5.74z" opacity=".4"/>
</svg>
