<?xml version="1.0" encoding="UTF-8"?>
<svg width="24" height="24" viewBox="0 0 24 24" xmlns="http://www.w3.org/2000/svg">
 <path d="m21.54 14.999c-1.28 4.06-5.07 7-9.54 7-4.46 0-8.24-2.92-9.53-6.96h0.58l3.95-0.04v-3.24c0-0.92 1.15-1.35 1.75-0.65l3.25 3.89 3.25-3.89c0.6-0.7 1.75-0.27 1.75 0.65v3.24h4.54z"/>
 <path d="m22 12c0 1.05-0.16 2.05-0.46 3h-4.54v-3.24c0-0.92-1.15-1.35-1.75-0.65l-3.25 3.89-3.25-3.89c-0.6-0.7-1.75-0.27-1.75 0.65v3.24l-3.95 0.04h-0.58c-0.3-0.96-0.47-1.98-0.47-3.04 0-5.52 4.48-10 10-10s10 4.48 10 10z" opacity=".4"/>
</svg>
