<svg width="24" height="24" viewBox="0 0 24 24"  xmlns="http://www.w3.org/2000/svg">
<path opacity="0.4" d="M12 22C17.5228 22 22 17.5228 22 12C22 6.47715 17.5228 2 12 2C6.47715 2 2 6.47715 2 12C2 17.5228 6.47715 22 12 22Z" />
<path d="M12.0001 11.8792C13.3146 11.8792 14.3801 10.8136 14.3801 9.49915C14.3801 8.18471 13.3146 7.11914 12.0001 7.11914C10.6857 7.11914 9.62012 8.18471 9.62012 9.49915C9.62012 10.8136 10.6857 11.8792 12.0001 11.8792Z" />
<path d="M14.5898 16.0303L13.3898 14.5203C13.7198 14.4303 14.0498 14.3103 14.3598 14.1603C14.7198 13.9603 14.8498 13.5203 14.6598 13.1603C14.4698 12.8003 14.0198 12.6603 13.6598 12.8403C12.6198 13.3603 11.3798 13.3603 10.3398 12.8403C9.96981 12.6503 9.5198 12.8003 9.3298 13.1703C9.1398 13.5403 9.28976 13.9903 9.65976 14.1803C9.95976 14.3303 10.2798 14.4503 10.5998 14.5303L9.40976 16.0403C9.14976 16.3703 9.20981 16.8403 9.52981 17.0903C9.85981 17.3503 10.3298 17.2903 10.5798 16.9703L11.9898 15.1903L13.3998 16.9703C13.5498 17.1603 13.7698 17.2503 13.9898 17.2503C14.1498 17.2503 14.3198 17.2003 14.4498 17.0903C14.7898 16.8303 14.8398 16.3603 14.5898 16.0303Z" />
</svg>
