<?xml version="1.0" encoding="UTF-8"?>
<svg width="24" height="24" viewBox="0 0 24 24" xmlns="http://www.w3.org/2000/svg">
 <path d="m16 20.97v-2.94c0-1.27 0.76-2.03 2.03-2.03h2.94c0.4 0 0.74 0.08 1.03 0.22v-0.04-8.37c0-3.64-2.17-5.81-5.81-5.81h-8.38c-3.64 0-5.81 2.17-5.81 5.81v8.37c0 3.65 2.17 5.82 5.81 5.82h8.37 0.04c-0.14-0.29-0.22-0.63-0.22-1.03z" opacity=".4"/>
 <path d="m7 14.25c-0.41 0-0.75-0.34-0.75-0.75v-3c0-0.41 0.34-0.75 0.75-0.75s0.75 0.34 0.75 0.75v3c0 0.41-0.34 0.75-0.75 0.75z"/>
 <path d="m12 14.25c-0.41 0-0.75-0.34-0.75-0.75v-3c0-0.41 0.34-0.75 0.75-0.75s0.75 0.34 0.75 0.75v3c0 0.41-0.34 0.75-0.75 0.75z"/>
 <path d="m17 14.25c-0.41 0-0.75-0.34-0.75-0.75v-3c0-0.41 0.34-0.75 0.75-0.75s0.75 0.34 0.75 0.75v3c0 0.41-0.34 0.75-0.75 0.75z"/>
 <path d="m20.97 16h-2.94c-1.27 0-2.03 0.76-2.03 2.03v2.94c0 1.27 0.76 2.03 2.03 2.03h2.94c1.27 0 2.03-0.76 2.03-2.03v-2.94c0-1.27-0.76-2.03-2.03-2.03zm0.5 4.56c0.25 0.25 0.25 0.66 0 0.91-0.13 0.12-0.29 0.18-0.46 0.18-0.16 0-0.32-0.06-0.45-0.18l-1.06-1.06-1.05 1.06c-0.13 0.12-0.29 0.18-0.46 0.18-0.16 0-0.32-0.06-0.45-0.18-0.25-0.25-0.25-0.66 0-0.91l1.06-1.06-1.06-1.05c-0.25-0.25-0.25-0.66 0-0.91s0.66-0.25 0.91 0l1.05 1.06 1.06-1.06c0.25-0.25 0.66-0.25 0.91 0s0.25 0.66 0 0.91l-1.06 1.05 1.06 1.06z"/>
</svg>
