<svg width="24" height="24" viewBox="0 0 24 24"  xmlns="http://www.w3.org/2000/svg">
<path d="M19.0002 16.75H5.00015C4.59015 16.75 4.25015 16.41 4.25015 16V9C4.25015 8.59 4.59015 8.25 5.00015 8.25H10.1902L4.47015 2.53C4.26015 2.32 4.19015 1.98999 4.31015 1.70999C4.43015 1.42999 4.70015 1.25 5.00015 1.25H19.0002C19.4102 1.25 19.7502 1.59 19.7502 2V9C19.7502 9.41 19.4102 9.75 19.0002 9.75H13.8102L19.5302 15.47C19.7402 15.68 19.8102 16.01 19.6902 16.29C19.5702 16.57 19.3002 16.75 19.0002 16.75ZM5.75015 15.25H17.1902L11.6902 9.75H5.75015V15.25ZM12.3102 8.25H18.2502V2.75H6.81015L12.3102 8.25Z" />
<path d="M12.0001 22.75C11.8201 22.75 11.6502 22.69 11.5102 22.57L4.51015 16.57C4.27015 16.37 4.19015 16.03 4.29015 15.74C4.40015 15.45 4.68013 15.25 4.99013 15.25H11.9901C12.4001 15.25 12.7401 15.59 12.7401 16V22C12.7401 22.29 12.5701 22.56 12.3001 22.68C12.2101 22.73 12.1101 22.75 12.0001 22.75ZM7.03014 16.75L11.2501 20.37V16.75H7.03014Z" />
</svg>
