<?xml version="1.0" encoding="UTF-8"?>
<svg width="24" height="24" viewBox="0 0 24 24" xmlns="http://www.w3.org/2000/svg">
 <path d="M16.8 9H7.2C4 9 2 11 2 14.2V16.79C2 20 4 22 7.2 22H16.79C19.99 22 21.99 20 21.99 16.8V14.2C22 11 20 9 16.8 9Z" opacity=".4"/>
 <path d="m15.88 12.43-3.35 3.35c-0.29 0.29-0.77 0.29-1.06 0l-3.35-3.35c-0.29-0.29-0.29-0.77 0-1.06s0.77-0.29 1.06 0l2.07 2.07v-10.69c0-0.41 0.34-0.75 0.75-0.75s0.75 0.34 0.75 0.75v10.69l2.07-2.07c0.15-0.15 0.34-0.22 0.53-0.22s0.38 0.07 0.53 0.22c0.3 0.29 0.3 0.76 0 1.06z"/>
</svg>
