<?xml version="1.0" encoding="UTF-8"?>
<svg width="24" height="24" viewBox="0 0 24 24" xmlns="http://www.w3.org/2000/svg">
 <path d="m12 22c5.5228 0 10-4.4772 10-10 0-5.5228-4.4772-10-10-10-5.5228 0-10 4.4772-10 10 0 5.5228 4.4772 10 10 10z" opacity=".4"/>
 <path d="m12 11.879c1.3145 0 2.38-1.0656 2.38-2.38 0-1.3144-1.0655-2.38-2.38-2.38-1.3144 0-2.38 1.0656-2.38 2.38 0 1.3144 1.0656 2.38 2.38 2.38z"/>
 <path d="m14.59 16.03-1.2-1.51c0.33-0.09 0.66-0.21 0.97-0.36 0.36-0.2 0.49-0.64 0.3-1s-0.64-0.5-1-0.32c-1.04 0.52-2.28 0.52-3.32 0-0.36999-0.19-0.82-0.04-1.01 0.33s-0.04004 0.82 0.32996 1.01c0.3 0.15 0.62004 0.27 0.94004 0.35l-1.19 1.51c-0.26 0.33-0.19995 0.8 0.12005 1.05 0.33 0.26 0.79999 0.2 1.05-0.12l1.41-1.78 1.41 1.78c0.15 0.19 0.37 0.28 0.59 0.28 0.16 0 0.33-0.05 0.46-0.16 0.34-0.26 0.39-0.73 0.14-1.06z"/>
</svg>
