<?xml version="1.0" encoding="UTF-8"?>
<svg width="24" height="24" viewBox="0 0 24 24" xmlns="http://www.w3.org/2000/svg">
 <path d="m21 2h-12c-0.55 0-1 0.45-1 1v3c0 0.55 0.45 1 1 1h12c0.55 0 1-0.45 1-1v-3c0-0.55-0.45-1-1-1z"/>
 <path d="m11 17h-3c-0.55 0-1 0.45-1 1v3c0 0.55 0.45 1 1 1h3c0.55 0 1-0.45 1-1v-3c0-0.55-0.45-1-1-1z"/>
 <path d="m6 9.5h-3c-0.55 0-1 0.45-1 1v3c0 0.55 0.45 1 1 1h3c0.55 0 1-0.45 1-1v-3c0-0.55-0.45-1-1-1z" opacity=".4"/>
 <path d="m17 9.6406h-6.5c-0.55 0-1 0.44998-1 0.99998v2.72c0 0.55 0.45 1 1 1h6.5c0.55 0 1-0.45 1-1v-2.72c0-0.55-0.45-0.99998-1-0.99998z" opacity=".4"/>
</svg>
