<?xml version="1.0" encoding="UTF-8"?>
<svg width="24" height="24" viewBox="0 0 24 24" xmlns="http://www.w3.org/2000/svg">
 <path d="m22 13.9v2.29c0 3.64-2.17 5.81-5.81 5.81h-8.38c-2.55 0-4.39-1.07-5.25-2.97l0.11-0.08 4.92-3.3c0.8-0.54 1.93-0.48 2.64 0.14l0.34 0.28c0.78 0.67 2.04 0.67 2.82 0l4.16-3.57c0.78-0.67 2.04-0.67 2.82 0l1.63 1.4z"/>
 <path d="m20.97 8h-2.94c-1.27 0-2.03-0.76-2.03-2.03v-2.94c0-0.4 0.08-0.74 0.22-1.03h-0.03-8.38c-3.64 0-5.81 2.17-5.81 5.81v8.38c0 1.09 0.19 2.04 0.56 2.84l0.11-0.08 4.92-3.3c0.8-0.54 1.93-0.48 2.64 0.14l0.34 0.28c0.78 0.67 2.04 0.67 2.82 0l4.16-3.57c0.78-0.67 2.04-0.67 2.82 0l1.63 1.4v-6.09-0.03c-0.29 0.14-0.63 0.22-1.03 0.22z" opacity=".4"/>
 <path d="m9.0001 10.38c1.3145 0 2.38-1.0655 2.38-2.38s-1.0655-2.38-2.38-2.38c-1.3144 0-2.38 1.0656-2.38 2.38s1.0656 2.38 2.38 2.38z"/>
 <path d="m20.97 1h-2.94c-1.27 0-2.03 0.76-2.03 2.03v2.94c0 1.27 0.76 2.03 2.03 2.03h2.94c1.27 0 2.03-0.76 2.03-2.03v-2.94c0-1.27-0.76-2.03-2.03-2.03zm0.66 2.45-2.37 2.77c-0.09 0.11-0.23 0.18-0.37 0.18h-0.02c-0.14 0-0.27-0.05-0.37-0.15l-1.1-1.08c-0.2-0.2-0.2-0.53 0-0.73s0.53-0.21 0.73 0l0.7 0.69 2-2.34c0.19-0.22 0.51-0.24 0.73-0.06 0.23 0.18 0.25 0.51 0.07 0.72z"/>
</svg>
