<svg width="24" height="24" viewBox="0 0 24 24"  xmlns="http://www.w3.org/2000/svg">
<path d="M9 10.7499C7.48 10.7499 6.25 9.51994 6.25 7.99994C6.25 6.47994 7.48 5.24994 9 5.24994C10.52 5.24994 11.75 6.47994 11.75 7.99994C11.75 9.51994 10.52 10.7499 9 10.7499ZM9 6.74994C8.31 6.74994 7.75 7.30994 7.75 7.99994C7.75 8.68994 8.31 9.24994 9 9.24994C9.69 9.24994 10.25 8.68994 10.25 7.99994C10.25 7.30994 9.69 6.74994 9 6.74994Z" />
<path d="M15 22.7499H9C3.57 22.7499 1.25 20.4299 1.25 14.9999V8.99994C1.25 3.56994 3.57 1.24994 9 1.24994H13C13.41 1.24994 13.75 1.58994 13.75 1.99994C13.75 2.40994 13.41 2.74994 13 2.74994H9C4.39 2.74994 2.75 4.38994 2.75 8.99994V14.9999C2.75 19.6099 4.39 21.2499 9 21.2499H15C19.61 21.2499 21.25 19.6099 21.25 14.9999V9.99994C21.25 9.58994 21.59 9.24994 22 9.24994C22.41 9.24994 22.75 9.58994 22.75 9.99994V14.9999C22.75 20.4299 20.43 22.7499 15 22.7499Z" />
<path d="M15.67 9.74994C15.28 9.74994 14.92 9.60994 14.66 9.33994C14.35 9.02994 14.2 8.56994 14.27 8.09994L14.47 6.70994C14.52 6.35994 14.73 5.92994 14.99 5.67994L18.62 2.04994C20.07 0.599939 21.33 1.42994 21.95 2.04994C22.54 2.63994 22.81 3.25994 22.75 3.89994C22.7 4.40994 22.44 4.89994 21.95 5.37994L18.32 9.00994C18.07 9.25994 17.64 9.46994 17.29 9.52994L15.9 9.72994C15.82 9.74994 15.74 9.74994 15.67 9.74994ZM19.67 3.11994L16.04 6.74994C16.01 6.77994 15.96 6.88994 15.95 6.93994L15.76 8.23994L17.07 8.05994C17.11 8.04994 17.22 7.99994 17.26 7.95994L20.89 4.32994C21.11 4.10994 21.24 3.90994 21.25 3.75994C21.27 3.54994 21.06 3.28994 20.89 3.11994C20.37 2.59994 20.13 2.65994 19.67 3.11994Z" />
<path d="M20.9 6.12994C20.83 6.12994 20.76 6.11994 20.7 6.09994C19.36 5.71994 18.29 4.64994 17.91 3.30994C17.8 2.90994 18.03 2.49994 18.43 2.38994C18.83 2.27994 19.24 2.50994 19.35 2.90994C19.59 3.74994 20.26 4.42994 21.11 4.66994C21.51 4.77994 21.74 5.19994 21.63 5.58994C21.52 5.90994 21.22 6.12994 20.9 6.12994Z" />
<path d="M2.67 19.6999C2.43 19.6999 2.19 19.5799 2.05 19.3699C1.82 19.0299 1.91 18.5599 2.25 18.3299L7.18 15.0199C8.26 14.2999 9.75 14.3799 10.73 15.2099L11.06 15.4999C11.56 15.9299 12.41 15.9299 12.9 15.4999L17.06 11.9299C18.12 11.0199 19.79 11.0199 20.86 11.9299L22.49 13.3299C22.8 13.5999 22.84 14.0699 22.57 14.3899C22.3 14.6999 21.83 14.7399 21.51 14.4699L19.88 13.0699C19.38 12.6399 18.53 12.6399 18.04 13.0699L13.88 16.6399C12.82 17.5499 11.15 17.5499 10.08 16.6399L9.75 16.3499C9.29 15.9599 8.53 15.9199 8.02 16.2699L3.1 19.5799C2.96 19.6599 2.81 19.6999 2.67 19.6999Z" />
</svg>
