<?xml version="1.0" encoding="UTF-8"?>
<svg width="24" height="24" viewBox="0 0 24 24" xmlns="http://www.w3.org/2000/svg">
 <path d="M20.46 3.54L3.54 20.46C2.54 19.46 2 18.01 2 16.19V7.81C2 4.17 4.17 2 7.81 2H16.19C18.01 2 19.46 2.54 20.46 3.54Z" opacity=".4"/>
 <path d="m22 7.8099v6.09l-1.63-1.4c-0.78-0.67-2.04-0.67-2.82 0l-4.16 3.57c-0.71 0.61-1.83 0.67-2.61 0.15l10.83-10.83c0.14 0.38 0.24 0.78 0.3 1.21 0.06 0.38 0.09 0.79 0.09 1.21z" opacity=".4"/>
 <path d="m22 13.9v2.29c0 3.64-2.17 5.81-5.81 5.81h-8.38c-0.42 0-0.83-0.03-1.21-0.09-0.43-0.06-0.83-0.16-1.21-0.3l5.39-5.39c0.78 0.52 1.9 0.46 2.61-0.15l4.16-3.57c0.78-0.67 2.04-0.67 2.82 0l1.63 1.4z"/>
 <path d="m21.77 2.2299c-0.3-0.3-0.79-0.3-1.09 0l-18.45 18.46c-0.3 0.3-0.3 0.79 0 1.09 0.15 0.14 0.34 0.22 0.54 0.22s0.39-0.08 0.54-0.23l18.46-18.46c0.31-0.3 0.31-0.78 0-1.08z"/>
 <path d="m8.0001 10.38c1.3144 0 2.38-1.0655 2.38-2.38s-1.0655-2.38-2.38-2.38-2.38 1.0656-2.38 2.38 1.0656 2.38 2.38 2.38z"/>
</svg>
