<?xml version="1.0" encoding="UTF-8"?>
<svg width="24" height="24" viewBox="0 0 24 24" xmlns="http://www.w3.org/2000/svg">
 <path d="m10.13 15.01-1.03-1.03 0.99004-0.99c0.29-0.29 0.29-0.77 0-1.06-0.29004-0.29-0.77004-0.29-1.06 0l-0.99 0.99-0.96-0.96c-0.29-0.29-0.77-0.29-1.06 0s-0.29 0.77 0 1.06l0.96 0.96-0.99 0.99c-0.29 0.29-0.29 0.77 0 1.06 0.15 0.15 0.34 0.22 0.53 0.22s0.38-0.07 0.53-0.22l0.99-0.99 1.03 1.03c0.15 0.15 0.34 0.22 0.53 0.22s0.38-0.07 0.53004-0.22c0.29-0.29 0.29-0.77 0-1.06z"/>
 <path d="m13.54 15c-0.55 0-1.01-0.45-1.01-1s0.44-1 0.99-1h0.02c0.55 0 1 0.45 1 1s-0.44 1-1 1z"/>
 <path d="m17.48 15c-0.55 0-1.01-0.45-1.01-1s0.44-1 0.99-1h0.02c0.55 0 1 0.45 1 1s-0.44 1-1 1z"/>
 <path d="m15.5 16.97c-0.55 0-1-0.44-1-0.99v-0.02c0-0.55 0.45-1 1-1s1 0.45 1 1-0.44 1.01-1 1.01z"/>
 <path d="m15.5 13.03c-0.55 0-1-0.44-1-0.99v-0.02c0-0.55 0.45-1 1-1s1 0.45 1 1-0.44 1.01-1 1.01z"/>
 <path d="m22 11.07v5.58c0 2.95-2.4 5.35-5.35 5.35h-9.3c-2.95 0-5.35-2.4-5.35-5.35v-5.58c0-2.95 2.4-5.35 5.35-5.35h9.3c2.95 0 5.35 2.4 5.35 5.35z" opacity=".4"/>
 <path d="m13.64 2.71-0.01 0.94c-0.01 0.88-0.74 1.61-1.63 1.61-0.15 0-0.24 0.1-0.24 0.23s0.1 0.23 0.23 0.23h-1.61c-0.01-0.07-0.02-0.15-0.02-0.23 0-0.9 0.73-1.63 1.62-1.63 0.15 0 0.25-0.1 0.25-0.23l0.01-0.94c0.01-0.38 0.32-0.69 0.7-0.69h0.01c0.39 0 0.69 0.32 0.69 0.71z"/>
</svg>
