<?xml version="1.0" encoding="UTF-8"?>
<svg width="24" height="24" viewBox="0 0 24 24" xmlns="http://www.w3.org/2000/svg">
 <path d="m17 22h-10c-2.2 0-4-1.8-4-4v-12c0-2.2 1.8-4 4-4h10c2.2 0 4 1.8 4 4v12c0 2.2-1.8 4-4 4z" opacity=".4"/>
 <path d="M16.25 11H7.75C6.79 11 6 10.21 6 9.25V6.75C6 5.79 6.79 5 7.75 5H16.25C17.21 5 18 5.79 18 6.75V9.25C18 10.21 17.21 11 16.25 11Z"/>
 <path d="m10.86 17.08-0.65-0.65 0.62-0.62c0.29-0.29 0.29-0.77 0-1.06s-0.77-0.29-1.06 0l-0.62 0.62-0.58999-0.5899c-0.29-0.29-0.77-0.29-1.06 0s-0.29 0.77 0 1.06l0.59 0.5899-0.62 0.62c-0.29 0.29-0.29 0.77 0 1.06 0.15 0.15 0.34 0.22 0.53 0.22s0.38-0.07 0.53-0.22l0.61999-0.62 0.65 0.65c0.15 0.15 0.33997 0.22 0.52997 0.22s0.38-0.07 0.53-0.22c0.29-0.29 0.29-0.77 0-1.06z"/>
 <path d="m16.51 16.33c-0.55 0-1.01-0.45-1.01-1s0.44-1 0.99-1h0.02c0.55 0 1 0.45 1 1s-0.45 1-1 1z"/>
 <path d="m14.49 18.49c-0.55 0-1-0.44-1-0.99v-0.02c0-0.55 0.45-1 1-1s1 0.45 1 1-0.45 1.01-1 1.01z"/>
</svg>
