<?xml version="1.0" encoding="UTF-8"?>
<svg width="24" height="24" viewBox="0 0 24 24" xmlns="http://www.w3.org/2000/svg">
 <path d="m3.5 22v-17c0-2 1.34-3 3-3h8c1.66 0 3 1 3 3v17h-14z" opacity=".4"/>
 <path d="m19 22.75h-17c-0.41 0-0.75-0.34-0.75-0.75s0.34-0.75 0.75-0.75h17c0.41 0 0.75 0.34 0.75 0.75s-0.34 0.75-0.75 0.75z"/>
 <path d="M7.89 10H13.12C14.16 10 15.01 9.5 15.01 8.11V6.88C15 5.5 14.15 5 13.11 5H7.88C6.85 5 6 5.5 6 6.89V8.12C6 9.5 6.85 10 7.89 10Z"/>
 <path d="m9.5 13.75h-3c-0.41 0-0.75-0.34-0.75-0.75s0.34-0.75 0.75-0.75h3c0.41 0 0.75 0.34 0.75 0.75s-0.34 0.75-0.75 0.75z"/>
 <path d="m22.75 10v6c0 0.41-0.33 0.75-0.75 0.75l-4.5 0.01v-1.5l3.75-0.01v-4.79l-1.59-0.78998c-0.37-0.18-0.52-0.63-0.33-1.01 0.18-0.37 0.64-0.51 1.01-0.33l2 1c0.25 0.13 0.41 0.39 0.41 0.66998z"/>
</svg>
