<?xml version="1.0" encoding="UTF-8"?>
<svg width="24" height="24" viewBox="0 0 24 24" xmlns="http://www.w3.org/2000/svg">
 <path d="m22 20.07v-7.89c0-5.6-4.5-10.18-10-10.18s-10 4.58-10 10.18v7.89c0 1.26 0.74998 1.6 1.67 0.76l1-0.91c0.37-0.34 0.97003-0.34 1.34 0l2 1.83c0.37 0.34 0.96997 0.34 1.34 0l2-1.83c0.37-0.34 0.97-0.34 1.34 0l2 1.83c0.37 0.34 0.97 0.34 1.34 0l2-1.83c0.37-0.34 0.97-0.34 1.34 0l1 0.91c0.88 0.84 1.63 0.5 1.63-0.76z" opacity=".4"/>
 <path d="m12 16.07c-1.57 0-3.14-0.49-4.45-1.47-0.33-0.25-0.39996-0.72-0.14996-1.05s0.71998-0.4 1.05-0.15c2.09 1.57 5.0099 1.57 7.0999 0 0.33-0.25 0.8-0.18 1.05 0.15s0.1801 0.8-0.1499 1.05c-1.31 0.98-2.88 1.47-4.45 1.47z"/>
 <path d="m12 11.38c1.3145 0 2.38-1.0655 2.38-2.38 0-1.3144-1.0655-2.38-2.38-2.38-1.3144 0-2.38 1.0656-2.38 2.38 0 1.3145 1.0656 2.38 2.38 2.38z"/>
</svg>
