<?xml version="1.0" encoding="UTF-8"?>
<svg width="24" height="24" viewBox="0 0 24 24" xmlns="http://www.w3.org/2000/svg">
 <path d="m19.97 10v8c0 3-1 4-4 4h-8c-3 0-4-1-4-4v-8h16z" opacity=".4"/>
 <path d="m21.5 7v1c0 1.1-0.53 2-2 2h-15c-1.53 0-2-0.9-2-2v-1c0-1.1 0.47-2 2-2h15c1.47 0 2 0.9 2 2z"/>
 <path d="m11.64 4.9999h-5.52c-0.34-0.37-0.33-0.94 0.03-1.3l1.42-1.42c0.37-0.37 0.98-0.37 1.35 0l2.72 2.72z" opacity=".4"/>
 <path d="m17.87 4.9999h-5.52l2.72-2.72c0.37-0.37 0.98-0.37 1.35 0l1.42 1.42c0.36 0.36 0.37 0.93 0.03 1.3z" opacity=".4"/>
 <path d="m8.9399 10v5.14c0 0.8 0.88 1.27 1.55 0.84l0.94-0.62c0.34-0.22 0.77-0.22 1.1 0l0.89 0.6c0.66 0.44 1.55-0.03 1.55-0.83v-5.13h-6.03z" opacity=".6"/>
</svg>
