<?xml version="1.0" encoding="UTF-8"?>
<svg width="24" height="24" viewBox="0 0 24 24" xmlns="http://www.w3.org/2000/svg">
 <path d="m13.19 16.29h-2.38v1.42h2.38v-1.42z"/>
 <path d="m7.9498 2.71c0 0.4-0.32 0.72-0.71 0.72h-0.95c-1.71 0-3.1 1.39-3.1 3.09v5.88c-0.85 0.43-1.43 1.31-1.43 2.33v-8.21c0-2.49 2.03-4.52 4.53-4.52h0.95c0.39 0 0.71 0.32 0.71 0.71z"/>
 <path d="m22.24 6.52v8.21c0-1.02-0.58-1.9-1.43-2.33v-5.88c0-1.7-1.39-3.09-3.1-3.09h-0.95c-0.39 0-0.71-0.32-0.71-0.72 0-0.39 0.32-0.71 0.71-0.71h0.95c2.5 0 4.53 2.03 4.53 4.52z"/>
 <path d="m10.81 14.73v4.65c0 1.45-1.18 2.62-2.62 2.62h-3.81c-1.44 0-2.62-1.17-2.62-2.62v-4.65c0-1.02 0.58-1.9 1.43-2.33 0.36-0.19 0.76-0.29 1.19-0.29h3.81c1.44 0 2.62 1.17 2.62 2.62z" opacity=".4"/>
 <path d="m22.24 14.73v4.65c0 1.45-1.18 2.62-2.62 2.62h-3.81c-1.44 0-2.62-1.17-2.62-2.62v-4.65c0-1.45 1.18-2.62 2.62-2.62h3.81c0.43 0 0.83 0.1 1.19 0.29 0.85 0.43 1.43 1.31 1.43 2.33z" opacity=".4"/>
</svg>
