<svg width="24" height="24" viewBox="0 0 24 24"  xmlns="http://www.w3.org/2000/svg">
<path d="M13.1901 16.29H10.8101V17.71H13.1901V16.29Z" />
<path d="M7.94977 2.71C7.94977 3.11 7.62977 3.43 7.23977 3.43H6.28977C4.57977 3.43 3.18977 4.82 3.18977 6.52V12.4C2.33977 12.83 1.75977 13.71 1.75977 14.73V6.52C1.75977 4.03 3.78977 2 6.28977 2H7.23977C7.62977 2 7.94977 2.32 7.94977 2.71Z" />
<path d="M22.2398 6.52V14.73C22.2398 13.71 21.6598 12.83 20.8098 12.4V6.52C20.8098 4.82 19.4198 3.43 17.7098 3.43H16.7598C16.3698 3.43 16.0498 3.11 16.0498 2.71C16.0498 2.32 16.3698 2 16.7598 2H17.7098C20.2098 2 22.2398 4.03 22.2398 6.52Z" />
<path opacity="0.4" d="M10.8098 14.7304V19.3804C10.8098 20.8304 9.62977 22.0004 8.18976 22.0004H4.37977C2.93977 22.0004 1.75977 20.8304 1.75977 19.3804V14.7304C1.75977 13.7104 2.33977 12.8304 3.18977 12.4004C3.54977 12.2104 3.94977 12.1104 4.37977 12.1104H8.18976C9.62977 12.1104 10.8098 13.2804 10.8098 14.7304Z" />
<path opacity="0.4" d="M22.2399 14.7304V19.3804C22.2399 20.8304 21.0599 22.0004 19.6199 22.0004H15.8099C14.3699 22.0004 13.1899 20.8304 13.1899 19.3804V14.7304C13.1899 13.2804 14.3699 12.1104 15.8099 12.1104H19.6199C20.0499 12.1104 20.4499 12.2104 20.8099 12.4004C21.6599 12.8304 22.2399 13.7104 22.2399 14.7304Z" />
</svg>
