<?xml version="1.0" encoding="UTF-8"?>
<svg width="24" height="24" viewBox="0 0 24 24" xmlns="http://www.w3.org/2000/svg">
 <path d="m22.65 18.13c-0.1-0.4001-0.5-0.6501-0.9-0.5501s-0.65 0.5001-0.56 0.9001c0.04 0.17 0.06 0.3399 0.06 0.5199 0 1.24-1.01 2.25-2.25 2.25s-2.25-1.01-2.25-2.25c0-1.1 0.79-2.0099 1.84-2.2099-0.1 0.23-0.09 0.5099 0.07 0.7299 0.15 0.2 0.38 0.31 0.61 0.31 0.15 0 0.31-0.05 0.44-0.14l1.17-0.85c0.01-0.01 0.01-0.0199 0.02-0.0199 0.01-0.01 0.02-0.0101 0.03-0.0201 0.03-0.03 0.05-0.0599 0.07-0.0999 0.03-0.04 0.07-0.0701 0.09-0.1201 0.02-0.04 0.03-0.0899 0.05-0.1299 0.01-0.05 0.03-0.0901 0.04-0.1401s0-0.0899-0.01-0.1399c0-0.05 0-0.1001-0.02-0.1501-0.01-0.05-0.04-0.0899-0.06-0.1299s-0.03-0.0801-0.05-0.1101c-0.01-0.01-0.02-0.0099-0.03-0.0199s-0.01-0.02-0.02-0.03l-1-1.1501c-0.27-0.31-0.75-0.3499-1.06-0.0699-0.22 0.2-0.3 0.4899-0.22 0.7599-1.93 0.15-3.46 1.75-3.46 3.72 0 2.07 1.68 3.75 3.75 3.75s3.75-1.68 3.75-3.75c0-0.28-0.03-0.5799-0.1-0.8599z"/>
 <path d="m2.0298 14.63c0 0.03-0.01998 0.07-0.01998 0.1 0.92 1.84 2.42 3.35 4.26 4.26 0.03001 0 0.07001-0.02 0.10001-0.02-0.34-1.16-0.60001-2.35-0.79001-3.54-1.2-0.2-2.39-0.46-3.55-0.8z" opacity=".4"/>
 <path d="m19.07 6.4299c-0.94-1.97-2.53-3.56-4.49-4.49 0.36 1.19 0.66 2.41 0.86 3.63 1.22 0.2 2.44 0.48998 3.63 0.85998z" opacity=".4"/>
 <path d="m1.9302 6.43c1.2-0.36 2.42-0.65998 3.64-0.85998 0.2-1.19 0.44998-2.37 0.78998-3.53-0.03 0-0.06998-0.02002-0.09998-0.02002-1.88 0.93-3.41 2.5-4.33 4.41z" opacity=".4"/>
 <path d="m13.82 5.3602c-0.24-1.3-0.54-2.6-0.97-3.86-0.02-0.07-0.02-0.12999-0.03-0.20999-0.74-0.18-1.52-0.30002-2.32-0.30002-0.81002 0-1.58 0.11002-2.33 0.30002-0.01 0.07-2e-5 0.12999-0.02002 0.20999-0.42 1.26-0.73 2.56-0.97 3.86 2.21-0.24 4.43-0.24 6.64 0z" opacity=".4"/>
 <path d="m5.3602 7.1802c-1.31 0.24-2.6 0.54-3.86 0.97-0.07 0.02-0.12999 0.02-0.20999 0.03-0.18 0.74-0.30002 1.52-0.30002 2.32 0 0.81 0.11002 1.58 0.30002 2.33 0.07 0.01 0.12999 0 0.20999 0.02 1.26 0.42 2.55 0.73 3.86 0.97-0.24-2.21-0.24-4.43 0-6.64z" opacity=".4"/>
 <path d="m19.7 8.1802c-0.07 0-0.13-0.01-0.21-0.03-1.26-0.42-2.56-0.73-3.86-0.97 0.25 2.21 0.25 4.43 0 6.63 1.3-0.24 2.6-0.54 3.86-0.97 0.07-0.02 0.13-0.01 0.21-0.02 0.18-0.75 0.3-1.52 0.3-2.33 0-0.79003-0.11-1.56-0.3-2.31z" opacity=".4"/>
 <path d="m7.1802 15.64c0.24 1.31 0.54 2.6 0.97 3.86 0.02 0.07 0.01002 0.13 0.02002 0.21 0.75 0.18 1.52 0.3 2.33 0.3 0.8 0 1.58-0.11 2.32-0.3 0.01-0.07 0.01-0.13 0.03-0.21 0.42-1.26 0.73-2.55 0.97-3.86-1.1 0.12-2.21 0.21-3.32 0.21-1.11-0.01-2.22-0.09-3.32-0.21z" opacity=".4"/>
 <path d="m6.9501 6.9501c-0.3 2.36-0.3 4.74 0 7.11 2.36 0.3 4.74 0.3 7.11 0 0.3-2.36 0.3-4.74 0-7.11-2.37-0.3-4.75-0.3-7.11 0z" opacity=".4"/>
</svg>
