<svg width="24" height="24" viewBox="0 0 24 24"  xmlns="http://www.w3.org/2000/svg">
<path d="M12 22.75C6.07 22.75 1.25 17.93 1.25 12C1.25 6.07 6.07 1.25 12 1.25C17.93 1.25 22.75 6.07 22.75 12C22.75 12.41 22.41 12.75 22 12.75C21.59 12.75 21.25 12.41 21.25 12C21.25 6.9 17.1 2.75 12 2.75C6.9 2.75 2.75 6.9 2.75 12C2.75 17.1 6.9 21.25 12 21.25C12.41 21.25 12.75 21.59 12.75 22C12.75 22.41 12.41 22.75 12 22.75Z" />
<path d="M9.00022 21.75H8.00022C7.59022 21.75 7.25022 21.41 7.25022 21C7.25022 20.59 7.57023 20.26 7.98023 20.25C6.41023 14.89 6.41023 9.11 7.98023 3.75C7.58023 3.74 7.25022 3.41 7.25022 3C7.25022 2.59 7.59022 2.25 8.00022 2.25H9.00022C9.24022 2.25 9.47021 2.37 9.61021 2.56C9.75021 2.76 9.79021 3.00999 9.71021 3.23999C7.83021 8.88999 7.83021 15.12 9.71021 20.77C9.79021 21 9.75021 21.25 9.61021 21.45C9.47021 21.65 9.24022 21.75 9.00022 21.75Z" />
<path d="M16.4599 12.75C16.0499 12.75 15.7099 12.41 15.7099 12C15.7099 9.02002 15.2299 6.07002 14.2899 3.24002C14.1599 2.85002 14.3699 2.42 14.7599 2.29C15.1499 2.16 15.5799 2.37003 15.7099 2.76003C16.6999 5.74003 17.2099 8.85002 17.2099 12C17.2099 12.41 16.8699 12.75 16.4599 12.75Z" />
<path d="M12 17.21C9.2 17.21 6.43 16.81 3.75 16.02C3.74 16.42 3.41 16.75 3 16.75C2.59 16.75 2.25 16.41 2.25 16V15C2.25 14.76 2.37 14.53 2.56 14.39C2.75 14.25 3.00999 14.21 3.23999 14.29C6.06999 15.23 9.02 15.71 12 15.71C12.41 15.71 12.75 16.05 12.75 16.46C12.75 16.87 12.41 17.21 12 17.21Z" />
<path d="M21.0002 9.75001C20.9202 9.75001 20.8402 9.74003 20.7602 9.71003C15.1102 7.83003 8.88019 7.83003 3.23019 9.71003C2.84019 9.84003 2.41018 9.63 2.28018 9.24C2.15018 8.85 2.36018 8.41999 2.75018 8.28999C8.71018 6.29999 15.2702 6.29999 21.2202 8.28999C21.6102 8.41999 21.8202 8.85 21.6902 9.24C21.6102 9.55 21.3102 9.75001 21.0002 9.75001Z" />
<path d="M18.26 22.75C15.78 22.75 13.77 20.73 13.77 18.26C13.77 15.79 15.79 13.76 18.26 13.76C18.76 13.76 19.26 13.83 19.73 13.98C20.13 14.1 20.35 14.52 20.23 14.92C20.11 15.32 19.69 15.54 19.29 15.42C18.96 15.32 18.61 15.27 18.26 15.27C16.61 15.27 15.27 16.61 15.27 18.27C15.27 19.93 16.61 21.26 18.26 21.26C19.91 21.26 21.25 19.92 21.25 18.27C21.25 17.67 21.08 17.1 20.75 16.61C20.52 16.27 20.61 15.8 20.96 15.57C21.3 15.34 21.77 15.43 22 15.78C22.5 16.52 22.76 17.39 22.76 18.28C22.75 20.73 20.73 22.75 18.26 22.75Z" />
<path d="M20.0403 15.55C19.8303 15.55 19.6202 15.46 19.4702 15.29L18.2202 13.86C17.9502 13.55 17.9803 13.07 18.2903 12.8C18.6003 12.53 19.0703 12.56 19.3503 12.87L20.6003 14.3C20.8703 14.61 20.8402 15.09 20.5302 15.36C20.3902 15.49 20.2203 15.55 20.0403 15.55Z" />
<path d="M18.58 16.61C18.35 16.61 18.12 16.5 17.97 16.3C17.73 15.97 17.8 15.5 18.13 15.25L19.59 14.19C19.92 13.94 20.39 14.02 20.64 14.35C20.88 14.68 20.81 15.15 20.48 15.4L19.02 16.46C18.89 16.56 18.74 16.61 18.58 16.61Z" />
</svg>
