<?xml version="1.0" encoding="UTF-8"?>
<svg width="24" height="24" viewBox="0 0 24 24" xmlns="http://www.w3.org/2000/svg">
 <path d="m18.73 14.67-4.15 4.15c-0.16 0.16-0.31 0.47-0.35 0.69l-0.23 1.59c-0.08 0.57 0.32 0.98 0.89 0.89l1.59-0.23c0.22-0.03 0.53-0.19 0.69-0.35l4.15-4.15c0.71-0.71 1.05-1.55 0-2.6-1.04-1.04-1.87-0.71-2.59 0.01z"/>
 <path d="m18.14 15.26c0.35 1.26 1.34 2.2399 2.6 2.5999l-2.6-2.5999z"/>
 <path d="m2.0298 14.63c0 0.03-0.02 0.07-0.02 0.1 0.92 1.84 2.42 3.35 4.26 4.26 0.03 0 0.06999-0.02 0.09999-0.02-0.34-1.16-0.6-2.35-0.79-3.54-1.2-0.2-2.39-0.46-3.55-0.8z" opacity=".4"/>
 <path d="m19.07 6.4299c-0.94-1.97-2.53-3.56-4.49-4.49 0.36 1.19 0.66 2.41 0.86 3.63 1.22 0.2 2.44 0.48998 3.63 0.85998z" opacity=".4"/>
 <path d="m1.9302 6.43c1.2-0.36 2.42-0.65998 3.64-0.85998 0.2-1.19 0.44999-2.37 0.78999-3.53-0.03 0-0.07-0.02002-0.1-0.02002-1.88 0.93-3.41 2.5-4.33 4.41z" opacity=".4"/>
 <path d="m13.82 5.3602c-0.24-1.3-0.54-2.6-0.97-3.86-0.02-0.07-0.02-0.12999-0.03-0.20999-0.74-0.18-1.52-0.30002-2.32-0.30002-0.81002 0-1.58 0.11002-2.33 0.30002-0.01 0.07 0 0.12999-0.02 0.20999-0.42 1.26-0.73 2.56-0.97 3.86 2.21-0.24 4.43-0.24 6.64 0z" opacity=".4"/>
 <path d="m5.3602 7.1802c-1.31 0.24-2.6 0.54-3.86 0.97-0.07 0.02-0.13001 0.02-0.21001 0.03-0.18 0.74-0.29999 1.52-0.29999 2.32 0 0.81 0.10999 1.58 0.29999 2.33 0.07 0.01 0.13001 0 0.21001 0.02 1.26 0.42 2.55 0.73 3.86 0.97-0.24-2.21-0.24-4.43 0-6.64z" opacity=".4"/>
 <path d="m19.7 8.1802c-0.07 0-0.13-0.01-0.21-0.03-1.26-0.42-2.56-0.73-3.86-0.97 0.25 2.21 0.25 4.43 0 6.63 1.3-0.24 2.6-0.54 3.86-0.97 0.07-0.02 0.13-0.01 0.21-0.02 0.18-0.75 0.3-1.52 0.3-2.33 0-0.79003-0.11-1.56-0.3-2.31z" opacity=".4"/>
 <path d="m7.1802 15.64c0.24 1.31 0.54 2.6 0.97 3.86 0.02 0.07 0.01 0.13 0.02 0.21 0.75 0.18 1.52 0.3 2.33 0.3 0.8 0 1.58-0.11 2.32-0.3 0.01-0.07 0.01-0.13 0.03-0.21 0.42-1.26 0.73-2.55 0.97-3.86-1.1 0.12-2.21 0.21-3.32 0.21-1.11-0.01-2.22-0.09-3.32-0.21z" opacity=".4"/>
 <path d="m6.9501 6.9501c-0.3 2.36-0.3 4.74 0 7.11 2.36 0.3 4.74 0.3 7.11 0 0.3-2.36 0.3-4.74 0-7.11-2.37-0.3-4.75-0.3-7.11 0z" opacity=".4"/>
</svg>
