<?xml version="1.0" encoding="UTF-8"?>
<svg width="24" height="24" viewBox="0 0 24 24" xmlns="http://www.w3.org/2000/svg">
 <path d="m7.6501 20.91c-0.03 0-0.07 0.02-0.1 0.02-1.94-0.96-3.52-2.55-4.49-4.49 0-0.03 0.02-0.07 0.02-0.1 1.22 0.36 2.48 0.63 3.73 0.84 0.22 1.26 0.48 2.51 0.84 3.73z" opacity=".4"/>
 <path d="m20.94 16.45c-0.99 1.99-2.64 3.6-4.65 4.57 0.38-1.27 0.7-2.55 0.91-3.84 1.26-0.21 2.5-0.48 3.72-0.84-0.01 0.04 0.02 0.08 0.02 0.11z" opacity=".4"/>
 <path d="m21.02 7.71c-1.26-0.38-2.53-0.69-3.82-0.91-0.21-1.29-0.52-2.57-0.91-3.82 2.07 0.99 3.74 2.66 4.73 4.73z" opacity=".4"/>
 <path d="m7.65 3.0901c-0.36 1.22-0.62 2.46-0.83 3.72-1.29 0.2-2.57 0.52-3.84 0.9 0.97-2.01 2.58-3.66 4.57-4.65 0.03 0 0.07 0.03 0.1 0.03z" opacity=".4"/>
 <path d="m15.49 6.59c-2.32-0.26-4.66-0.26-6.98 0 0.25-1.37 0.57-2.74 1.02-4.06 0.02-0.08 0.01-0.14 0.02-0.22 0.79003-0.19 1.6-0.31 2.45-0.31 0.84 0 1.66 0.12 2.44 0.31 0.01 0.08 0.01 0.14 0.03 0.22 0.45 1.33 0.77 2.69 1.02 4.06z"/>
 <path d="m6.59 15.49c-1.38-0.25-2.74-0.57-4.06-1.02-0.08-0.02-0.14-0.01-0.22-0.02-0.19-0.79-0.31-1.6-0.31-2.45 0-0.84 0.12-1.66 0.31-2.44 0.08-0.01 0.14-0.01 0.22-0.03 1.33-0.44 2.68-0.77 4.06-1.02-0.25 2.32-0.25 4.66 0 6.98z"/>
 <path d="m22 12c0 0.85-0.12 1.66-0.31 2.45-0.08 0.01-0.14 0-0.22 0.02-1.33 0.44-2.69 0.77-4.06 1.02 0.26-2.32 0.26-4.66 0-6.98 1.37 0.25 2.74 0.57 4.06 1.02 0.08 0.02 0.14 0.03 0.22 0.03 0.19 0.79003 0.31 1.6 0.31 2.44z"/>
 <path d="m15.49 17.41c-0.25 1.38-0.57 2.74-1.02 4.06-0.02 0.08-0.02 0.14-0.03 0.22-0.78 0.19-1.6 0.31-2.44 0.31-0.85 0-1.66-0.12-2.45-0.31-0.01-0.08 0-0.14-0.02-0.22-0.44-1.33-0.77-2.68-1.02-4.06 1.16 0.13 2.32 0.22 3.49 0.22s2.34-0.09 3.49-0.22z"/>
 <path d="m15.763 15.763c-2.5011 0.3156-5.0255 0.3156-7.5266 0-0.31556-2.5011-0.31556-5.0255 0-7.5266 2.5011-0.31556 5.0255-0.31556 7.5266 0 0.3156 2.5011 0.3156 5.0255 0 7.5266z"/>
</svg>
