<?xml version="1.0" encoding="UTF-8"?>
<svg width="24" height="24" viewBox="0 0 24 24" xmlns="http://www.w3.org/2000/svg">
 <path d="m12.2 5.87c-0.07 0-0.14 0-0.2 0.01v-3.87c0.07-0.01 0.13-0.00999 0.2-0.00999 2.26 0 4.2 0.69 5.79 1.86 0.5 0.36 0.54 1.09 0.1 1.52l-1.39 1.36c-0.34 0.33-0.86 0.38999-1.25 0.11999-0.75-0.52-1.82-0.99-3.25-0.99z"/>
 <path d="m21.8 12.22c0 3.05-1.09 5.61-2.98 7.36-1.65 1.53-3.92 2.42-6.62 2.42-0.07 0-0.13 0-0.2-0.01v-3.87c0.07 0.01 0.13 0.01 0.2 0.01 1.49 0 2.62-0.41 3.47-1 1.33-0.93 1.93-2.32 2.04-3.24h-4.51c-0.55 0-1-0.45-1-1v-1.71c0-0.55 0.45-1 1-1h7.55c0.51 0 0.94 0.38 0.99 0.89 0.04 0.35 0.06 0.72 0.06 1.15z"/>
 <path d="m6.5002 10.02c-0.2 0.62-0.32 1.29-0.32 1.98s0.12 1.35 0.33 1.98c0.78 2.35 2.94 4.06 5.49 4.14v3.87c-3.82-0.07-7.11-2.29-8.72-5.5h-0.01c-0.68-1.36-1.07-2.88-1.07-4.49s0.39-3.13 1.07-4.49c1.61-3.21 4.9-5.43 8.73-5.5v3.87c-2.36 0.07-4.37 1.53-5.29 3.6-0.08 0.18-0.15 0.36001-0.21 0.54003z" opacity=".4"/>
</svg>
