<?xml version="1.0" encoding="UTF-8"?>
<svg width="24" height="24" viewBox="0 0 24 24" xmlns="http://www.w3.org/2000/svg">
 <path d="m7.7002 15.711-3.11 5.29-3.18-5.29h6.29z" opacity=".4"/>
 <path d="m12 8.41-4.3 7.3h-6.29l7.41-12.71 3.18 5.41z"/>
 <path d="m15.18 3-3.18 5.41-3.18-5.41h6.36z" opacity=".4"/>
 <path d="m22.59 15.63s-0.02 0.03-0.06 0.08h-6.23l-4.3-7.3 3.18-5.41s7.36 12.63 7.41 12.63z"/>
 <path d="m22.53 15.711c-0.42 0.66-3.12 5.29-3.12 5.29l-3.11-5.29h6.23z" opacity=".4"/>
 <path d="m19.41 21.001h-14.82l3.11-5.29h8.6l3.11 5.29z"/>
 <path d="m16.3 15.71h-8.6l4.3-7.3 4.3 7.3z" opacity=".4"/>
</svg>
