<svg width="24" height="24" viewBox="0 0 24 24"  xmlns="http://www.w3.org/2000/svg">
<path d="M19.41 21.7504H4.59005C4.33005 21.7504 4.08003 21.6104 3.95003 21.3904L0.770039 16.1004C0.630039 15.8704 0.630039 15.5704 0.770039 15.3404L8.18001 2.6304C8.31001 2.4004 8.56004 2.26041 8.83004 2.26041H15.18C15.45 2.26041 15.69 2.4004 15.83 2.6304C18.62 7.4104 22.83 14.6204 23.19 15.1804C23.29 15.3104 23.34 15.4604 23.34 15.6304C23.34 15.8104 23.28 15.9704 23.17 16.1004C22.91 16.4904 21.15 19.5204 20.06 21.3804C19.93 21.6104 19.68 21.7504 19.41 21.7504ZM5.01003 20.2504H18.98C20.47 17.6904 21.27 16.3304 21.76 15.6104C21.19 14.7704 20.19 13.0704 18.22 9.70041L14.75 3.7504H9.26003L2.29 15.7004L5.01003 20.2504Z" />
<path d="M19.41 21.7504C19.15 21.7504 18.9 21.6204 18.76 21.3804L8.16998 3.38041C7.95998 3.02041 8.08 2.56041 8.44 2.35041C8.8 2.14041 9.25997 2.2604 9.46997 2.6204L20.06 20.6204C20.27 20.9804 20.15 21.4404 19.79 21.6504C19.67 21.7204 19.54 21.7504 19.41 21.7504Z" />
<path d="M4.59005 21.7504C4.46005 21.7504 4.33002 21.7204 4.21002 21.6504C3.85002 21.4404 3.73 20.9804 3.94 20.6204L14.53 2.6204C14.74 2.2604 15.2 2.14041 15.56 2.35041C15.92 2.56041 16.04 3.02041 15.83 3.38041L5.23999 21.3804C5.08999 21.6204 4.84005 21.7504 4.59005 21.7504Z" />
<path d="M22 16.4604H1.5C1.09 16.4604 0.75 16.1204 0.75 15.7104C0.75 15.3004 1.09 14.9604 1.5 14.9604H22C22.41 14.9604 22.75 15.3004 22.75 15.7104C22.75 16.1204 22.41 16.4604 22 16.4604Z" />
</svg>
