<?xml version="1.0" encoding="UTF-8"?>
<svg width="24" height="24" viewBox="0 0 24 24" xmlns="http://www.w3.org/2000/svg">
 <path d="m12 20c4.4183 0 8-3.5817 8-8 0-4.4183-3.5817-8-8-8-4.4183 0-8 3.5817-8 8 0 4.4183 3.5817 8 8 8z" opacity=".4"/>
 <path d="m12 15.12c1.7231 0 3.12-1.3969 3.12-3.12s-1.3969-3.12-3.12-3.12-3.12 1.3969-3.12 3.12 1.3969 3.12 3.12 3.12z"/>
 <path d="m12.75 2v2.04h-0.01c-0.24-0.03-0.49-0.04-0.74-0.04s-0.5 0.01-0.74 0.04h-0.01v-2.04c0-0.41 0.34-0.75 0.75-0.75s0.75 0.34 0.75 0.75z"/>
 <path d="m4 12c0 0.25 0.01 0.51 0.04 0.75h-2.04c-0.41 0-0.75-0.34-0.75-0.75s0.34-0.75 0.75-0.75h2.04c-0.03 0.24-0.04 0.5-0.04 0.75z"/>
 <path d="m12.75 19.96v2.04c0 0.41-0.34 0.75-0.75 0.75s-0.75-0.34-0.75-0.75v-2.04h0.01c0.24 0.03 0.49 0.04 0.74 0.04s0.5-0.01 0.74-0.04h0.01z"/>
 <path d="m22.75 12c0 0.41-0.34 0.75-0.75 0.75h-2.04c0.03-0.24 0.04-0.5 0.04-0.75s-0.01-0.51-0.04-0.75h2.04c0.41 0 0.75 0.34 0.75 0.75z"/>
</svg>
