<?xml version="1.0" encoding="UTF-8"?>
<svg width="24" height="24" viewBox="0 0 24 24" xmlns="http://www.w3.org/2000/svg">
 <path d="m18.94 8.0601-3.83 3.83c0.01 0.04 0.01 0.07 0.01 0.11 0 1.72-1.4 3.12-3.12 3.12-0.04 0-0.07 0-0.11-0.01l-3.83 3.83c1.16 0.68 2.51 1.06 3.94 1.06 4.41 0 8-3.59 8-8 0-1.43-0.38-2.78-1.06-3.94z" opacity=".4"/>
 <path d="m17.65 6.35-3.45 3.45c-0.56-0.57-1.34-0.92-2.2-0.92-1.72 0-3.12 1.4-3.12 3.12 0 0.86 0.35 1.64 0.92 2.2l-3.45 3.45c-1.45-1.45-2.35-3.45-2.35-5.65 0-4.41 3.59-8 8-8 2.2 0 4.2 0.9 5.65 2.35z" opacity=".4"/>
 <path d="m14.2 9.7999-4.4 4.4c-0.57-0.56-0.92-1.34-0.92-2.2 0-1.72 1.4-3.12 3.12-3.12 0.86 0 1.64 0.35 2.2 0.92z"/>
 <path d="m12.75 2v2.04h-0.01c-0.24-0.03-0.49-0.04-0.74-0.04s-0.5 0.01-0.74 0.04h-0.01v-2.04c0-0.41 0.34-0.75 0.75-0.75s0.75 0.34 0.75 0.75z"/>
 <path d="m4 12c0 0.25 0.01 0.51 0.04 0.75h-2.04c-0.41 0-0.75-0.34-0.75-0.75s0.34-0.75 0.75-0.75h2.04c-0.03 0.24-0.04 0.5-0.04 0.75z"/>
 <path d="m12.75 19.96v2.04c0 0.41-0.34 0.75-0.75 0.75s-0.75-0.34-0.75-0.75v-2.04h0.01c0.24 0.03 0.49 0.04 0.74 0.04s0.5-0.01 0.74-0.04h0.01z"/>
 <path d="m22.75 12c0 0.41-0.34 0.75-0.75 0.75h-2.04c0.03-0.24 0.04-0.5 0.04-0.75s-0.01-0.51-0.04-0.75h2.04c0.41 0 0.75 0.34 0.75 0.75z"/>
 <path d="m21.77 2.2299c-0.3-0.3-0.79-0.3-1.09 0l-18.45 18.46c-0.3 0.3-0.3 0.79 0 1.09 0.15 0.14 0.34 0.22 0.54 0.22s0.39-0.08 0.54-0.23l18.46-18.46c0.31-0.3 0.31-0.78 0-1.08z"/>
</svg>
