<?xml version="1.0" encoding="UTF-8"?>
<svg width="24" height="24" viewBox="0 0 24 24" xmlns="http://www.w3.org/2000/svg">
 <path d="m19.07 4.9501c3.97 3.97 3.9 10.45-0.2 14.34-3.79 3.59-9.94 3.59-13.74 0-4.11-3.89-4.18-10.37-0.20002-14.34 3.9-3.91 10.24-3.91 14.14 0z" opacity=".4"/>
 <path d="m12 18.32c-1.58 0-3.15-0.57-4.35-1.7-0.3-0.29-0.31-0.76-0.03-1.06 0.29-0.3 0.76-0.31 1.06-0.03 1.83 1.73 4.81 1.73 6.64 0 0.3-0.28 0.78-0.27 1.06 0.03s0.27 0.78-0.03 1.06c-1.2 1.13-2.77 1.7-4.35 1.7z"/>
</svg>
