<?xml version="1.0" encoding="UTF-8"?>
<svg width="24" height="24" viewBox="0 0 24 24" xmlns="http://www.w3.org/2000/svg">
 <path d="m21.67 6.9504c-0.64-2.17-2.45-3.98-4.62-4.62-1.65-0.48-2.79-0.44-3.58 0.15-0.95 0.71-1.06 1.99-1.06 2.9v2.49c0 2.46 1.12 3.71 3.32 3.71h2.87c0.9 0 2.19-0.11 2.9-1.06 0.61-0.78001 0.66-1.92 0.17-3.57z"/>
 <path d="m18.91 13.36c-0.26-0.3-0.64-0.4699-1.03-0.4699h-3.58c-1.76 0-3.19-1.4301-3.19-3.19v-3.58c0-0.39-0.17-0.77-0.47-1.03-0.29-0.26-0.69-0.38-1.07-0.33-2.35 0.3-4.51 1.59-5.92 3.53-1.42 1.95-1.94 4.33-1.49 6.71 0.65 3.44 3.4 6.1901 6.85 6.8401 0.55 0.11 1.1 0.16 1.65 0.16 1.81 0 3.56-0.5601 5.05-1.65 1.94-1.41 3.23-3.5701 3.53-5.92 0.05-0.3901-0.07-0.7801-0.33-1.0701z" opacity=".4"/>
</svg>
