<svg width="24" height="24" viewBox="0 0 24 24"  xmlns="http://www.w3.org/2000/svg">
<path d="M18.3199 12.7504H14.9999C12.5099 12.7504 11.2499 11.3404 11.2499 8.55045V5.68045C11.2499 4.66045 11.3699 3.20045 12.4299 2.40045C13.3199 1.74045 14.5999 1.69045 16.4899 2.24045C18.9699 2.96045 21.0399 5.03045 21.7599 7.51045C22.3099 9.39045 22.2599 10.6804 21.5999 11.5604C20.7999 12.6304 19.3399 12.7504 18.3199 12.7504ZM14.2799 3.36045C13.8699 3.36045 13.5499 3.44045 13.3399 3.60045C12.9499 3.89045 12.7599 4.57045 12.7599 5.68045V8.56045C12.7599 10.8004 13.6199 11.2604 15.0099 11.2604H18.3299C19.4299 11.2604 20.1099 11.0704 20.4099 10.6804C20.7599 10.2204 20.7299 9.30045 20.3399 7.95045C19.7599 5.98045 18.0599 4.27045 16.0899 3.70045C15.3499 3.47045 14.7499 3.36045 14.2799 3.36045Z" />
<path d="M11.0699 22.7504C10.5399 22.7504 9.99988 22.7104 9.45988 22.6204C5.36988 21.9604 2.03988 18.6404 1.37988 14.5504C0.529883 9.29045 3.91988 4.33045 9.10988 3.27045C9.51988 3.19045 9.90988 3.45045 9.99988 3.85045C10.0799 4.26045 9.81988 4.65045 9.41988 4.74045C5.02988 5.64045 2.14988 9.84045 2.87988 14.3104C3.43988 17.7704 6.24988 20.5804 9.70988 21.1404C14.1999 21.8604 18.3899 18.9704 19.2799 14.5604C19.3599 14.1504 19.7599 13.8904 20.1599 13.9704C20.5699 14.0504 20.8299 14.4504 20.7499 14.8504C19.7999 19.5204 15.7199 22.7504 11.0699 22.7504Z" />
</svg>
