<svg width="24" height="24" viewBox="0 0 24 24"  xmlns="http://www.w3.org/2000/svg">
<path d="M8.38995 2.16992V8.61993H1.92993V7.93994C1.92993 4.32994 4.07994 2.17993 7.68994 2.17993H8.38995V2.16992Z" />
<path d="M21.7698 7.93018C21.7698 8.31018 21.4598 8.61017 21.0898 8.61017H15.3398V2.16016H16.0099C19.1899 2.17016 21.7698 4.75018 21.7698 7.93018Z" />
<path d="M8.38995 15.5503V21.3103C8.38995 21.6903 8.07993 21.9903 7.70993 21.9903H7.69995C4.51995 21.9903 1.93994 19.4103 1.93994 16.2303V15.5503H8.38995Z" />
<path opacity="0.4" d="M8.39993 8.61035H1.93994V15.5504H8.39993V8.61035Z" />
<path d="M15.3299 8.61035V14.8704C15.3299 15.2504 15.0199 15.5504 14.6499 15.5504H8.38989V8.61035H15.3299V8.61035Z" />
<path opacity="0.4" d="M15.3299 2.16992H8.38989V8.61993H15.3299V2.16992Z" />
<path opacity="0.4" d="M19.8 20.7L17.9 22.6099C17.38 23.1299 16.52 23.1299 15.98 22.6099L14.4 21.02C13.88 20.49 13.88 19.6399 14.4 19.0999L16.31 17.21L19.8 20.7Z" />
<path d="M22.61 17.9L19.8 20.7L16.3101 17.21L19.11 14.39C19.64 13.87 20.5001 13.87 21.0301 14.39L22.61 15.98C23.13 16.51 23.13 17.38 22.61 17.9Z" />
</svg>
