<?xml version="1.0" encoding="UTF-8"?>
<svg width="24" height="24" viewBox="0 0 24 24" xmlns="http://www.w3.org/2000/svg">
 <path d="m21.33 14.67c-1.0499-1.05-1.88-0.71-2.6 0l-4.15 4.15c-0.16 0.16-0.31 0.47-0.35 0.69l-0.23 1.5899c-0.08 0.57 0.32 0.9801 0.89 0.8901l1.59-0.23c0.22-0.03 0.53-0.1901 0.69-0.3501l4.15-4.1499c0.73-0.71 1.06-1.54 0.01-2.59z"/>
 <path d="m8.3902 2.1699v6.45h-6.46v-0.67999c0-3.61 2.15-5.76 5.76-5.76h0.70001v-0.01001z"/>
 <path d="m21.77 7.9302c0 0.38-0.31 0.67999-0.68 0.67999h-5.75v-6.45h0.67c3.18 0.01 5.76 2.59 5.76 5.77z"/>
 <path d="m8.3904 15.55v5.76c0 0.38-0.30999 0.68-0.67999 0.68h-0.01001c-3.18 0-5.76-2.58-5.76-5.76v-0.68h6.45z"/>
 <path d="m8.4004 8.6104h-6.46v6.94h6.46v-6.94z" opacity=".4"/>
 <path d="m15.33 8.6104v5.94c0 0.55-0.45 1-1 1h-5.94v-6.94h6.94z"/>
 <path d="m15.33 2.1699h-6.94v6.45h6.94v-6.45z" opacity=".4"/>
</svg>
