<?xml version="1.0" encoding="UTF-8"?>
<svg width="24" height="24" viewBox="0 0 24 24" xmlns="http://www.w3.org/2000/svg">
 <path d="m21.53 17.31v-0.16c0-1.93-0.98-2.9-2.9-2.9s-2.9 0.98-2.9 2.9v0.16c-1.05 0.26-1.47 0.98-1.47 2.42v0.74c0 1.85 0.69 2.53 2.53 2.53h3.68c1.85 0 2.53-0.69 2.53-2.53v-0.74c0-1.43-0.42-2.16-1.47-2.42zm-2.91-1.68c1.29 0 1.52 0.49 1.52 1.52v0.05h-3.04v-0.05c0-1.03 0.23-1.52 1.52-1.52z"/>
 <path d="m8.3902 2.1699v6.45h-6.46v-0.67999c0-3.61 2.15-5.76 5.76-5.76h0.70001v-0.01001z"/>
 <path d="m21.77 7.9302c0 0.38-0.31 0.67999-0.68 0.67999h-5.75v-6.45h0.67c3.18 0.01 5.76 2.59 5.76 5.77z"/>
 <path d="m8.3904 15.55v5.76c0 0.38-0.31002 0.68-0.68002 0.68h-0.00998c-3.18 0-5.76-2.58-5.76-5.76v-0.68h6.45z"/>
 <path d="m8.4004 8.6104h-6.46v6.94h6.46v-6.94z" opacity=".4"/>
 <path d="m15.33 8.6104v5.94c0 0.55-0.45 1-1 1h-5.94v-6.94h6.94z"/>
 <path d="m15.33 2.1699h-6.94v6.45h6.94v-6.45z" opacity=".4"/>
</svg>
