<?xml version="1.0" encoding="UTF-8"?>
<svg width="24" height="24" viewBox="0 0 24 24" xmlns="http://www.w3.org/2000/svg">
 <path d="M8.51 2V8.5H2V7.81C2 4.17 4.17 2 7.81 2H8.51Z"/>
 <path d="m22 7.81v0.69h-6.49v-6.5h0.68c3.64 0 5.81 2.17 5.81 5.81z"/>
 <path d="m22 15.5v0.69c0 3.64-2.17 5.81-5.81 5.81h-0.68v-6.5h6.49z"/>
 <path d="M8.51 15.5V22H7.81C4.17 22 2 19.83 2 16.19V15.5H8.51Z"/>
 <path d="m8.51 8.5h-6.51v7h6.51v-7z" opacity=".4"/>
 <path d="m22 8.5h-6.49v7h6.49v-7z" opacity=".4"/>
 <path d="m15.51 8.5h-7v7h7v-7z"/>
 <path d="m15.51 2h-7v6.5h7v-6.5z" opacity=".4"/>
 <path d="m15.51 15.5h-7v6.5h7v-6.5z" opacity=".4"/>
</svg>
