<?xml version="1.0" encoding="UTF-8"?>
<svg width="24" height="24" viewBox="0 0 24 24" xmlns="http://www.w3.org/2000/svg">
 <path d="m8.3902 2.1699v6.45h-6.46v-0.67999c0-3.61 2.15-5.76 5.76-5.76h0.70001v-0.01001z"/>
 <path d="m21.77 7.9302c0 0.38-0.31 0.67999-0.68 0.67999h-5.75v-6.45h0.67c3.18 0.01 5.76 2.59 5.76 5.77z"/>
 <path d="m8.3904 15.55v5.76c0 0.38-0.31002 0.68-0.68002 0.68h-0.00998c-3.18 0-5.76-2.58-5.76-5.76v-0.68h6.45z"/>
 <path d="m8.4004 8.6104h-6.46v6.94h6.46v-6.94z" opacity=".4"/>
 <path d="m15.33 8.6104v6.26c0 0.38-0.31 0.68-0.68 0.68h-6.26v-6.94h6.94z"/>
 <path d="m15.33 2.1699h-6.94v6.45h6.94v-6.45z" opacity=".4"/>
 <path d="m19.8 20.7-1.9 1.9099c-0.52 0.52-1.38 0.52-1.92 0l-1.58-1.5899c-0.52-0.53-0.52-1.3801 0-1.9201l1.91-1.8899 3.49 3.49z" opacity=".4"/>
 <path d="m22.61 17.9-2.81 2.8-3.4899-3.49 2.7999-2.82c0.53-0.52 1.3901-0.52 1.9201 0l1.5799 1.59c0.52 0.53 0.52 1.4 0 1.92z"/>
</svg>
