<?xml version="1.0" encoding="UTF-8"?>
<svg width="24" height="24" viewBox="0 0 24 24" xmlns="http://www.w3.org/2000/svg">
 <path d="m22 14v3c0 1.66-1.34 3-3 3h-1c0-1.1-0.9-2-2-2s-2 0.9-2 2h-4c0-1.1-0.9-2-2-2s-2 0.9-2 2h-1c-1.66 0-3-1.34-3-3v-3h11c1.1 0 2-0.9 2-2v-7h1.84c0.72 0 1.38 0.39001 1.74 1.01l1.71 2.99h-1.29c-0.55 0-1 0.45-1 1v3c0 0.55 0.45 1 1 1h3z" opacity=".4"/>
 <path d="m8 22c1.1046 0 2-0.8954 2-2s-0.89543-2-2-2-2 0.8954-2 2 0.89543 2 2 2z"/>
 <path d="m16 22c1.1046 0 2-0.8954 2-2s-0.8954-2-2-2-2 0.8954-2 2 0.8954 2 2 2z"/>
 <path d="m22 12.53v1.47h-3c-0.55 0-1-0.45-1-1v-3c0-0.55 0.45-1 1-1h1.29l1.45 2.54c0.17 0.3 0.26 0.64 0.26 0.99z"/>
 <path d="m14 2h-8c-1.95 0-3.57 1.4-3.92 3.25h4.92c0.41 0 0.75 0.34 0.75 0.75s-0.34 0.75-0.75 0.75h-5v1.5h3c0.41 0 0.75 0.34 0.75 0.75s-0.34 0.75-0.75 0.75h-3v1.5h1c0.41 0 0.75 0.34 0.75 0.75s-0.34 0.75-0.75 0.75h-1v1.25h11c1.1 0 2-0.9 2-2v-9c0-0.55-0.45-1-1-1z"/>
 <path d="m2.08 5.25h-1.08c-0.41 0-0.75 0.34-0.75 0.75s0.34 0.75 0.75 0.75h1v-0.75c0-0.26 0.03002-0.51 0.08002-0.75z"/>
 <path d="m1 8.25c-0.41 0-0.75 0.34-0.75 0.75s0.34 0.75 0.75 0.75h1v-1.5h-1z"/>
 <path d="m1 11.25c-0.41 0-0.75 0.34-0.75 0.75s0.34 0.75 0.75 0.75h1v-1.5h-1z"/>
</svg>
