<?xml version="1.0" encoding="UTF-8"?>
<svg width="24" height="24" viewBox="0 0 24 24" xmlns="http://www.w3.org/2000/svg">
 <path d="m11.97 22c5.5229 0 10-4.4772 10-10 0-5.5228-4.4771-10-10-10-5.5228 0-10 4.4772-10 10 0 5.5228 4.4772 10 10 10z" opacity=".4"/>
 <path d="m12 19.25c-2.15 0-4.17-1.05-5.4-2.82-0.24-0.34-0.15-0.81 0.19-1.04 0.34-0.24 0.81-0.15 1.04 0.19 0.95 1.36 2.51 2.18 4.17 2.18s3.22-0.81 4.17-2.18c0.24-0.34 0.7-0.42 1.04-0.19 0.34 0.24 0.42 0.7 0.19 1.04-1.23 1.77-3.25 2.82-5.4 2.82z"/>
</svg>
