<svg width="24" height="24" viewBox="0 0 24 24"  xmlns="http://www.w3.org/2000/svg">
<path d="M11.9702 22.75C6.05021 22.75 1.22021 17.93 1.22021 12C1.22021 6.07 6.05021 1.25 11.9702 1.25C17.8902 1.25 22.7202 6.07 22.7202 12C22.7202 17.93 17.9002 22.75 11.9702 22.75ZM11.9702 2.75C6.87021 2.75 2.72021 6.9 2.72021 12C2.72021 17.1 6.87021 21.25 11.9702 21.25C17.0702 21.25 21.2202 17.1 21.2202 12C21.2202 6.9 17.0702 2.75 11.9702 2.75Z" />
<path d="M12.0002 19.25C9.85021 19.25 7.83021 18.2 6.60021 16.43C6.36021 16.09 6.45021 15.62 6.79021 15.39C7.13021 15.15 7.60021 15.24 7.83021 15.58C8.78021 16.94 10.3402 17.76 12.0002 17.76C13.6602 17.76 15.2202 16.95 16.1702 15.58C16.4102 15.24 16.8702 15.16 17.2102 15.39C17.5502 15.63 17.6302 16.09 17.4002 16.43C16.1702 18.2 14.1502 19.25 12.0002 19.25Z" />
</svg>
