<?xml version="1.0" encoding="UTF-8"?>
<svg width="24" height="24" viewBox="0 0 24 24" xmlns="http://www.w3.org/2000/svg">
 <path d="m22 5.7402v12.52c0 2.06-1.68 3.74-3.74 3.74h-0.52c-2.06 0-3.74-1.68-3.74-3.74v-6.38c0.35-0.04 0.69-0.09 1.01-0.16 2.04-0.37 3.59-1.07 4.71-1.78 1.44-0.9 2.28-2.5 2.28-4.2z"/>
 <path d="m22 5.74c0 1.7-0.84 3.3-2.28 4.2-1.12 0.71-2.67 1.41-4.71 1.78-0.32 0.07-0.66 0.12-1.01 0.16v0.75c-1.19 0.15-2.46 0.07-3.93 0.22l-0.07 0.01v5.4c0 2.06-1.68 3.74-3.74 3.74h-0.52002c-2.06 0-3.74-1.68-3.74-3.74 0-0.09 2e-5 -0.19 0.02002-0.28 0.08-1.6 0.90001-3.07 2.26-3.92 1.12-0.71 2.67-1.41 4.7-1.78 0.32-0.07 0.67002-0.12 1.02-0.16v-0.77c1.56-0.14 2.75-0.06 3.91-0.21l0.09-0.01v-5.39c0-2.06 1.68-3.74 3.74-3.74h0.52c1.83 0 3.37 1.33 3.68 3.08 0.04 0.21 0.06 0.43 0.06 0.66z" opacity=".4"/>
 <path d="m10 5.74v6.38c-0.35 0.04-0.70002 0.09-1.02 0.16-2.03 0.37-3.58 1.07-4.7 1.78-1.36 0.85-2.18 2.32-2.26 3.92-0.01 0.01-0.02002 0.02-0.02002 0.02v-12.26c0-2.06 1.68-3.74 3.74-3.74h0.52002c2.06 0 3.74 1.68 3.74 3.74z"/>
</svg>
