<?xml version="1.0" encoding="UTF-8"?>
<svg width="24" height="24" viewBox="0 0 24 24" xmlns="http://www.w3.org/2000/svg">
 <path d="M16.19 2H7.81C4.17 2 2 4.17 2 7.81V16.18C2 19.83 4.17 22 7.81 22H16.18C19.82 22 21.99 19.83 21.99 16.19V7.81C22 4.17 19.83 2 16.19 2Z" opacity=".4"/>
 <path d="m13.86 6.6504h-3.72c-1.92 0-3.49 1.56-3.49 3.49v3.72c0 1.92 1.57 3.49 3.49 3.49h3.72c1.92 0 3.49-1.56 3.49-3.49v-3.72c0-1.92-1.57-3.49-3.49-3.49zm2.09 3.49v1.16h-3.25v-3.25h1.16c1.15 0 2.09 0.94 2.09 2.09zm-5.81-2.09h1.16v3.26h-3.25v-1.16c0-1.16 0.94-2.1 2.09-2.1zm-2.09 5.81v-1.16h3.26v3.26h-1.16c-1.16-0.01-2.1-0.95-2.1-2.1zm5.81 2.09h-1.16v-3.25h3.26v1.16c-0.01 1.15-0.95 2.09-2.1 2.09z"/>
</svg>
