<?xml version="1.0" encoding="UTF-8"?>
<svg width="24" height="24" viewBox="0 0 24 24" xmlns="http://www.w3.org/2000/svg">
 <path d="M16.19 2H7.81C4.17 2 2 4.17 2 7.81V16.18C2 19.83 4.17 22 7.81 22H16.18C19.82 22 21.99 19.83 21.99 16.19V7.81C22 4.17 19.83 2 16.19 2Z" opacity=".4"/>
 <path d="m18.82 10.58c0.4 0 0.73-0.33 0.73-0.72996 0-0.4-0.33-0.73-0.73-0.73h-3.61l0.39-3.5c0.04-0.4-0.24-0.76-0.65-0.81-0.4-0.04-0.76 0.24-0.81 0.65l-0.41 3.66h-2.83l0.39-3.5c0.04-0.4-0.24-0.76-0.65-0.81-0.4-0.04-0.76 0.24-0.81 0.65l-0.4 3.66h-3.53c-0.4 0-0.73 0.33-0.73 0.73 0 0.39996 0.33 0.72996 0.73 0.72996h3.37l-0.32 2.85h-3.77c-0.4 0-0.73 0.33-0.73 0.73s0.33 0.73 0.73 0.73h3.61l-0.39 3.5c-0.04 0.4 0.24 0.76 0.65 0.81h0.08c0.37 0 0.67999-0.28 0.73-0.65l0.41-3.66h2.84l-0.39 3.5c-0.04 0.4 0.24 0.76 0.65 0.81h0.08c0.37 0 0.68-0.28 0.73-0.65l0.41-3.66h3.53c0.4 0 0.73-0.33 0.73-0.73s-0.33-0.73-0.73-0.73h-3.37l0.32-2.85h3.75zm-5.56 2.84h-2.84l0.32-2.85h2.84l-0.32 2.85z"/>
</svg>
