<?xml version="1.0" encoding="UTF-8"?>
<svg width="24" height="24" viewBox="0 0 24 24" xmlns="http://www.w3.org/2000/svg">
 <path d="m20.97 16h-2.94c-1.27 0-2.03 0.76-2.03 2.03v2.94c0 1.27 0.76 2.03 2.03 2.03h2.94c1.27 0 2.03-0.76 2.03-2.03v-2.94c0-1.27-0.76-2.03-2.03-2.03zm0.22 3.31c-0.12 0.12-0.28 0.18-0.44 0.18s-0.32-0.06-0.44-0.18l-0.18-0.18v2.24c0 0.35-0.28 0.63-0.63 0.63s-0.63-0.28-0.63-0.63v-2.24l-0.18 0.18c-0.24 0.24-0.64 0.24-0.88 0s-0.24-0.64 0-0.88l1.25-1.25c0.05-0.05 0.12-0.09 0.19-0.12 0.02-0.01 0.04-0.01 0.06-0.02 0.05-0.02 0.1-0.03 0.16-0.03h0.06c0.07 0 0.13 0.01 0.2 0.04h0.02c0.07 0.03 0.13 0.07 0.18 0.12 0.01 0.01 0.01 0.01 0.02 0.01l1.25 1.25c0.24 0.24 0.24 0.64-0.01 0.88z"/>
 <path d="m16 20.97v-2.94c0-1.27 0.76-2.03 2.03-2.03h2.94c0.4 0 0.74 0.08 1.03 0.22v-0.04-8.37c0-3.64-2.17-5.81-5.81-5.81h-8.38c-3.64 0-5.81 2.17-5.81 5.81v8.37c0 3.65 2.17 5.82 5.81 5.82h8.37 0.04c-0.14-0.29-0.22-0.63-0.22-1.03z" opacity=".4"/>
 <path d="m16 10.17c0.41 0 0.75-0.34 0.75-0.75s-0.34-0.75-0.75-0.75h-2.41l0.26-2.32c0.05-0.41-0.25-0.78-0.66-0.83-0.41-0.04-0.78 0.25-0.83 0.66l-0.28 2.49h-1.65l0.26-2.32c0.05-0.41-0.25-0.78-0.66-0.83s-0.78 0.25-0.83 0.66l-0.28 2.49h-2.4c-0.41 0-0.75 0.34-0.75 0.75s0.34 0.75 0.75 0.75h2.23l-0.18 1.66h-2.57c-0.41 0-0.75 0.34-0.75 0.75s0.34 0.75 0.75 0.75h2.41l-0.26 2.32c-0.05 0.41 0.25 0.78 0.66 0.83h0.08c0.38 0 0.7-0.28 0.74-0.67l0.28-2.49h1.65l-0.26 2.32c-0.05 0.41 0.25 0.78 0.66 0.83h0.08c0.38 0 0.7-0.28 0.74-0.67l0.28-2.49h2.4c0.41 0 0.75-0.34 0.75-0.75s-0.34-0.75-0.75-0.75h-2.23l0.18-1.66h2.59v0.02zm-4.27 1.66h-1.65l0.18-1.66h1.65l-0.18 1.66z"/>
</svg>
