<svg width="24" height="24" viewBox="0 0 24 24"  xmlns="http://www.w3.org/2000/svg">
<path opacity="0.4" d="M8.5 12.75C8.09 12.75 7.75 12.41 7.75 12V6C7.75 5.59 8.09 5.25 8.5 5.25C8.91 5.25 9.25 5.59 9.25 6V12C9.25 12.41 8.91 12.75 8.5 12.75Z" />
<path opacity="0.4" d="M8.5 22.75C8.09 22.75 7.75 22.41 7.75 22V18C7.75 17.59 8.09 17.25 8.5 17.25C8.91 17.25 9.25 17.59 9.25 18V22C9.25 22.41 8.91 22.75 8.5 22.75Z" />
<path d="M15.5 22.75C15.09 22.75 14.75 22.41 14.75 22V6C14.75 5.59 15.09 5.25 15.5 5.25C15.91 5.25 16.25 5.59 16.25 6V22C16.25 22.41 15.91 22.75 15.5 22.75Z" />
<path d="M10.1001 5.29999C10.1001 5.78999 9.90007 6.25001 9.57007 6.57001C9.25007 6.90001 8.80005 7.09998 8.30005 7.09998H6.05005C6.33005 6.72998 6.50006 6.25 6.50006 5.75V4.84998C6.50006 4.34998 6.33005 3.87 6.05005 3.5H8.30005C9.29005 3.5 10.1001 4.30999 10.1001 5.29999Z" />
<path d="M6.5 4.84953V5.74956C6.5 6.24956 6.32999 6.72953 6.04999 7.09953C5.28999 8.10953 3.73 8.44953 2.28 7.15953C2.12 7.01953 2 6.71956 2 6.49956V4.15953C2 3.96953 2.10001 3.68955 2.23001 3.54955C3.49001 2.22955 5.01 2.41956 5.84 3.24956C5.91 3.31956 5.97999 3.39955 6.04999 3.48955C6.32999 3.86955 6.5 4.34953 6.5 4.84953Z" />
<path d="M13.8999 5.29999C13.8999 5.78999 14.0999 6.25001 14.4299 6.57001C14.7499 6.90001 15.1999 7.09998 15.6999 7.09998H17.9499C17.6699 6.72998 17.4999 6.25 17.4999 5.75V4.84998C17.4999 4.34998 17.6699 3.87 17.9499 3.5H15.6999C14.7099 3.5 13.8999 4.30999 13.8999 5.29999Z" />
<path d="M17.5 4.84953V5.74956C17.5 6.24956 17.67 6.72953 17.95 7.09953C18.71 8.10953 20.27 8.44953 21.72 7.15953C21.88 7.01953 22 6.71956 22 6.49956V4.15953C22 3.96953 21.9 3.68955 21.77 3.54955C20.51 2.22955 18.99 2.41956 18.16 3.24956C18.09 3.31956 18.02 3.39955 17.95 3.48955C17.67 3.86955 17.5 4.34953 17.5 4.84953Z" />
<path d="M10 13.5V17.5C10 18.33 9.33 19 8.5 19C7.67 19 7 18.33 7 17.5V13.5C7 12.67 7.67 12 8.5 12C9.33 12 10 12.67 10 13.5Z" />
</svg>
