<?xml version="1.0" encoding="UTF-8"?>
<svg width="24" height="24" viewBox="0 0 24 24" xmlns="http://www.w3.org/2000/svg">
 <path d="m2.7498 18.65c-0.41 0-0.75-0.34-0.75-0.75v-5.7c-0.05-2.71 0.96-5.27 2.84-7.19 1.88-1.91 4.4-2.96 7.11-2.96 5.54 0 10.05 4.51 10.05 10.05v5.7c0 0.41-0.34 0.75-0.75 0.75s-0.75-0.34-0.75-0.75v-5.7c0-4.71-3.83-8.55-8.55-8.55-2.31 0-4.45 0.89001-6.04 2.51-1.6 1.63-2.45 3.8-2.41 6.12v5.71c0 0.42-0.33 0.76-0.75 0.76z" opacity=".4"/>
 <path d="m5.94 12.45h-0.13c-2.1 0-3.81 1.71-3.81 3.81v1.88c0 2.1 1.71 3.81 3.81 3.81h0.13c2.1 0 3.81-1.71 3.81-3.81v-1.88c0-2.1-1.71-3.81-3.81-3.81z"/>
 <path d="m18.19 12.45h-0.13c-2.1 0-3.81 1.71-3.81 3.81v1.88c0 2.1 1.71 3.81 3.81 3.81h0.13c2.1 0 3.81-1.71 3.81-3.81v-1.88c0-2.1-1.71-3.81-3.81-3.81z"/>
</svg>
