<svg width="24" height="24" viewBox="0 0 24 24"  xmlns="http://www.w3.org/2000/svg">
<path d="M8.5 12.7496C8.09 12.7496 7.75 12.4096 7.75 11.9996V7.2196C7.75 6.8096 8.09 6.4696 8.5 6.4696C8.91 6.4696 9.25 6.8096 9.25 7.2196V11.9996C9.25 12.4096 8.91 12.7496 8.5 12.7496Z" />
<path d="M8.5 22.7496C8.09 22.7496 7.75 22.4096 7.75 21.9996V18.9996C7.75 18.5896 8.09 18.2496 8.5 18.2496C8.91 18.2496 9.25 18.5896 9.25 18.9996V21.9996C9.25 22.4096 8.91 22.7496 8.5 22.7496Z" />
<path d="M15.5 22.7496C15.09 22.7496 14.75 22.4096 14.75 21.9996V7.2196C14.75 6.8096 15.09 6.4696 15.5 6.4696C15.91 6.4696 16.25 6.8096 16.25 7.2196V21.9996C16.25 22.4096 15.91 22.7496 15.5 22.7496Z" />
<path d="M8.29991 7.84961H6.04991C5.75991 7.84961 5.50993 7.68963 5.37993 7.42963C5.24993 7.16963 5.27993 6.86965 5.44993 6.63965C5.63993 6.38965 5.74992 6.06962 5.74992 5.73962V4.83966C5.74992 4.51966 5.63993 4.19964 5.44993 3.93964C5.27993 3.70964 5.24993 3.40966 5.37993 3.14966C5.50993 2.89966 5.76991 2.72961 6.04991 2.72961H8.29991C9.70991 2.72961 10.8499 3.86966 10.8499 5.27966C10.8499 5.96966 10.5799 6.60966 10.0899 7.08966C9.62992 7.57966 8.98991 7.84961 8.29991 7.84961ZM7.18992 6.34961H8.29991C8.57991 6.34961 8.83992 6.23962 9.02992 6.04962C9.23992 5.84962 9.34993 5.58962 9.34993 5.29962C9.34993 4.71962 8.87991 4.24963 8.29991 4.24963H7.18992C7.22992 4.44963 7.24992 4.64961 7.24992 4.84961V5.74963C7.24992 5.94963 7.22992 6.14961 7.18992 6.34961Z" />
<path d="M4.24976 8.74963C3.58976 8.74963 2.70976 8.5396 1.78976 7.7196C1.47976 7.4396 1.25977 6.93963 1.25977 6.49963V4.15961C1.25977 3.76961 1.43977 3.30961 1.69977 3.03961C2.62977 2.06961 3.58977 1.85961 4.22977 1.84961C4.23977 1.84961 4.24977 1.84961 4.25977 1.84961C5.04977 1.84961 5.82976 2.16961 6.37976 2.72961C6.47976 2.82961 6.57977 2.94964 6.66977 3.06964C7.03977 3.55964 7.24992 4.19961 7.24992 4.84961V5.74963C7.24992 6.39963 7.03975 7.03962 6.64975 7.54962C6.14975 8.21962 5.37974 8.64961 4.54974 8.72961C4.45974 8.73961 4.34976 8.74963 4.24976 8.74963ZM4.24976 3.34961C4.23976 3.34961 4.23977 3.34961 4.22977 3.34961C3.71977 3.35961 3.21974 3.60965 2.76974 4.07965C2.76974 4.07965 2.74976 4.14963 2.74976 4.17963V6.50964C2.74976 6.52964 2.77974 6.59964 2.79974 6.62964C3.30974 7.07964 3.86975 7.30963 4.39975 7.24963C4.81975 7.20963 5.18977 6.99961 5.44977 6.65961C5.63977 6.40961 5.74976 6.08964 5.74976 5.75964V4.85962C5.74976 4.53962 5.63977 4.21966 5.44977 3.95966C5.39977 3.87966 5.34975 3.83961 5.30975 3.78961C5.02975 3.50961 4.64976 3.34961 4.24976 3.34961Z" />
<path d="M17.9499 7.84961H15.6999C15.0099 7.84961 14.3699 7.57966 13.8899 7.08966C13.4199 6.62966 13.1499 5.98962 13.1499 5.29962C13.1499 3.88962 14.2899 2.74963 15.6999 2.74963H17.9499C18.2299 2.74963 18.4899 2.90962 18.6199 3.16962C18.7499 3.41962 18.7199 3.72966 18.5499 3.95966C18.3599 4.20966 18.2499 4.52962 18.2499 4.85962V5.75964C18.2499 6.08964 18.3599 6.39961 18.5499 6.65961C18.7199 6.88961 18.7499 7.18965 18.6199 7.44965C18.4999 7.68965 18.2399 7.84961 17.9499 7.84961ZM15.6999 4.24963C15.1199 4.24963 14.6499 4.71962 14.6499 5.29962C14.6499 5.57962 14.7599 5.83966 14.9499 6.02966C15.1499 6.23966 15.4099 6.34961 15.6999 6.34961H16.8099C16.7699 6.14961 16.7499 5.94963 16.7499 5.74963V4.84961C16.7499 4.64961 16.7699 4.44963 16.8099 4.24963H15.6999Z" />
<path d="M19.7502 8.74963C19.6402 8.74963 19.5402 8.73962 19.4402 8.73962C18.6102 8.65962 17.8502 8.22963 17.3402 7.55963C16.9502 7.04963 16.7402 6.40964 16.7402 5.75964V4.85962C16.7402 4.20962 16.9502 3.56963 17.3402 3.05963C17.4102 2.95963 17.5102 2.83962 17.6102 2.73962C18.1702 2.17962 18.9403 1.85962 19.7303 1.85962C19.7403 1.85962 19.7503 1.85962 19.7603 1.85962C20.4003 1.86962 21.3603 2.07962 22.2903 3.04962C22.5503 3.31962 22.7303 3.77962 22.7303 4.16962V6.50964C22.7303 6.94964 22.5103 7.4496 22.2003 7.7196C21.2903 8.5396 20.4102 8.74963 19.7502 8.74963ZM19.7502 3.34961C19.3502 3.34961 18.9602 3.50961 18.6902 3.78961C18.6502 3.82961 18.6103 3.87963 18.5703 3.92963C18.3603 4.20963 18.2502 4.52961 18.2502 4.84961V5.74963C18.2502 6.07963 18.3602 6.38966 18.5502 6.64966C18.8102 6.98966 19.1803 7.19963 19.6003 7.24963C20.1303 7.30963 20.6903 7.07962 21.2303 6.60962C21.2303 6.60962 21.2503 6.53964 21.2603 6.50964V4.17963C21.2603 4.15963 21.2302 4.08964 21.2202 4.06964C20.7902 3.61964 20.2902 3.36963 19.7802 3.36963C19.7602 3.34963 19.7602 3.34961 19.7502 3.34961Z" />
<path d="M8.5 19.7496C7.26 19.7496 6.25 18.7396 6.25 17.4996V13.4996C6.25 12.2596 7.26 11.2496 8.5 11.2496C9.74 11.2496 10.75 12.2596 10.75 13.4996V17.4996C10.75 18.7396 9.74 19.7496 8.5 19.7496ZM8.5 12.7496C8.09 12.7496 7.75 13.0896 7.75 13.4996V17.4996C7.75 17.9096 8.09 18.2496 8.5 18.2496C8.91 18.2496 9.25 17.9096 9.25 17.4996V13.4996C9.25 13.0896 8.91 12.7496 8.5 12.7496Z" />
</svg>
