<svg width="24" height="24" viewBox="0 0 24 24"  xmlns="http://www.w3.org/2000/svg">
<path opacity="0.4" d="M22 7.81V14H17.92C17.25 14 16.46 13.52 16.15 12.93L15.11 10.96C14.83 10.43 14.43 10.46 14.21 11.01L11.91 16.82C11.66 17.47 11.24 17.47 10.98 16.82L9.84 13.94C9.57 13.24 8.73 12.67 7.98 12.67L2 12.7V7.81C2 4.17 4.17 2 7.81 2H16.19C19.83 2 22 4.17 22 7.81Z" />
<path d="M22 16.1897V13.9997H17.92C17.25 13.9997 16.46 13.5197 16.15 12.9297L15.11 10.9597C14.83 10.4297 14.43 10.4597 14.21 11.0097L11.91 16.8197C11.66 17.4697 11.24 17.4697 10.98 16.8197L9.84 13.9397C9.57 13.2397 8.73 12.6697 7.98 12.6697L2 12.6997V16.1897C2 19.7697 4.1 21.9297 7.63 21.9897C7.74 21.9997 7.86 21.9997 7.97 21.9997H15.97C16.12 21.9997 16.27 21.9997 16.41 21.9897C19.92 21.9097 22 19.7597 22 16.1897Z" />
<path d="M1.99997 12.7002V16.0102C1.97997 15.6902 1.96997 15.3502 1.96997 15.0002V12.7002H1.99997Z" />
</svg>
