<?xml version="1.0" encoding="UTF-8"?>
<svg width="24" height="24" viewBox="0 0 24 24" xmlns="http://www.w3.org/2000/svg">
 <path d="m22 7.81v6.19h-4.08c-0.67 0-1.46-0.48-1.77-1.07l-1.04-1.97c-0.28-0.53-0.68-0.5-0.9 0.05l-2.3 5.81c-0.25 0.65-0.67 0.65-0.93 0l-1.14-2.88c-0.27-0.7-1.11-1.27-1.86-1.27l-5.98 0.03v-4.89c0-3.64 2.17-5.81 5.81-5.81h8.38c3.64 0 5.81 2.17 5.81 5.81z" opacity=".4"/>
 <path d="m22 16.19v-2.19h-4.08c-0.67 0-1.46-0.48-1.77-1.07l-1.04-1.97c-0.28-0.53-0.68-0.5-0.9 0.05l-2.3 5.81c-0.25 0.65-0.67 0.65-0.93 0l-1.14-2.88c-0.27-0.7-1.11-1.27-1.86-1.27l-5.98 0.03v3.49c0 3.58 2.1 5.74 5.63 5.8 0.11 0.01 0.23 0.01 0.34 0.01h8c0.15 0 0.3 0 0.44-0.01 3.51-0.08 5.59-2.23 5.59-5.8z"/>
 <path d="m2.0002 12.7v3.31c-0.02-0.32-0.03-0.66-0.03-1.01v-2.3h0.03z"/>
</svg>
