<?xml version="1.0" encoding="UTF-8"?>
<svg width="24" height="24" viewBox="0 0 24 24" xmlns="http://www.w3.org/2000/svg">
 <path d="m16.44 3.0996c-1.81 0-3.43 0.87998-4.44 2.23-1.01-1.35-2.63-2.23-4.44-2.23-3.07 0-5.56 2.5-5.56 5.59 0 1.19 0.19 2.29 0.52 3.31 1.58 5 6.45 7.99 8.86 8.81 0.34 0.12 0.9 0.12 1.24 0 2.41-0.82 7.28-3.81 8.86-8.81 0.33-1.02 0.52-2.12 0.52-3.31 0-3.09-2.49-5.59-5.56-5.59z" opacity=".4"/>
 <path d="m21.77 20.68-0.76-0.7599c0.4-0.6 0.63-1.3201 0.63-2.0901 0-2.11-1.71-3.8199-3.82-3.8199s-3.82 1.7099-3.82 3.8199 1.71 3.82 3.82 3.82c0.77 0 1.49-0.23 2.09-0.63l0.76 0.7601c0.15 0.15 0.35 0.23 0.55 0.23s0.4-0.08 0.55-0.23c0.31-0.31 0.31-0.8001 0-1.1001z"/>
</svg>
