<?xml version="1.0" encoding="UTF-8"?>
<svg width="24" height="24" viewBox="0 0 24 24" xmlns="http://www.w3.org/2000/svg">
 <path d="m16.44 3.0996c-1.81 0-3.43 0.87998-4.44 2.23-1.01-1.35-2.63-2.23-4.44-2.23-3.07 0-5.56 2.5-5.56 5.59 0 1.19 0.19 2.29 0.52 3.31 1.58 5 6.45 7.99 8.86 8.81 0.34 0.12 0.9 0.12 1.24 0 2.41-0.82 7.28-3.81 8.86-8.81 0.33-1.02 0.52-2.12 0.52-3.31 0-3.09-2.49-5.59-5.56-5.59z" opacity=".4"/>
 <path d="m14.84 9.1602c-0.9-0.9-1.61-0.61-2.22 0l-3.54 3.54c-0.14 0.14-0.27 0.4-0.3 0.59l-0.19 1.35c-0.07 0.49 0.27 0.8299 0.76 0.7599l1.35-0.19c0.19-0.03 0.46-0.16 0.59-0.3l3.54-3.54c0.62-0.6 0.91-1.31 0.01-2.21z"/>
</svg>
