<svg width="24" height="24" viewBox="0 0 24 24"  xmlns="http://www.w3.org/2000/svg">
<path opacity="0.4" d="M16.44 3.09961C14.63 3.09961 13.01 3.97959 12 5.32959C10.99 3.97959 9.37 3.09961 7.56 3.09961C4.49 3.09961 2 5.59961 2 8.68961C2 9.87961 2.19 10.9796 2.52 11.9996C4.1 16.9996 8.97 19.9896 11.38 20.8096C11.72 20.9296 12.28 20.9296 12.62 20.8096C15.03 19.9896 19.9 16.9996 21.48 11.9996C21.81 10.9796 22 9.87961 22 8.68961C22 5.59961 19.51 3.09961 16.44 3.09961Z" />
<path d="M14.8402 9.16025C13.9402 8.26025 13.2302 8.55025 12.6202 9.16025L9.08019 12.7003C8.94019 12.8403 8.81019 13.1003 8.78019 13.2903L8.59019 14.6403C8.52019 15.1303 8.86019 15.4702 9.35019 15.4002L10.7002 15.2102C10.8902 15.1802 11.1602 15.0502 11.2902 14.9102L14.8302 11.3702C15.4502 10.7702 15.7402 10.0602 14.8402 9.16025Z" />
</svg>
