<svg width="24" height="24" viewBox="0 0 24 24"  xmlns="http://www.w3.org/2000/svg">
<path d="M17.4299 21.4099H6.55988L1.12988 11.9998L6.55988 2.58984H17.4299L22.8599 11.9998L17.4299 21.4099ZM7.42987 19.9099H16.5599L21.1299 11.9998L16.5599 4.08984H7.42987L2.86987 11.9998L7.42987 19.9099Z" />
<path d="M11.3099 21.4099H6.59988L4.23987 17.3298L6.59988 13.2498H11.3099L13.6699 17.3298L11.3099 21.4099ZM7.45987 19.9099H10.4399L11.9299 17.3298L10.4399 14.7498H7.45987L5.96988 17.3298L7.45987 19.9099Z" />
<path d="M14.7799 21.4099H6.59988L2.50989 14.3298L6.59988 7.24985H14.7799L18.8699 14.3298L14.7799 21.4099ZM7.46988 19.9099H13.9099L17.1299 14.3298L13.9099 8.74985H7.46988L4.24988 14.3298L7.46988 19.9099Z" />
</svg>
