<?xml version="1.0" encoding="UTF-8"?>
<svg width="24" height="24" viewBox="0 0 24 24" xmlns="http://www.w3.org/2000/svg">
 <path d="m16.19 22h-8.37c-3.64 0-5.81-2.17-5.81-5.81v-8.37c0-3.64 2.17-5.81 5.81-5.81h8.37c3.64 0 5.81 2.17 5.81 5.81v8.37c0 3.64-2.17 5.81-5.81 5.81z" opacity=".4"/>
 <path d="m16.41 9.8295c-0.61 1.74-2.25 2.91-4.09 2.91h-0.02l-2.06-0.0099h-0.01c-0.76002 0-1.42 0.5099-1.62 1.2399 0.89 0.28 1.54 1.11 1.54 2.09 0 1.21-0.98999 2.2001-2.2 2.2001s-2.2-0.9901-2.2-2.2001c0-0.89 0.53999-1.66 1.3-2v-4.34c-0.76-0.3-1.3-1.04-1.3-1.9 0-1.13 0.91999-2.05 2.05-2.05s2.05 0.92002 2.05 2.05c0 0.87-0.53999 1.6-1.3 1.9v2.02c0.49-0.31 1.07-0.49 1.68-0.49h0.01l2.06 0.0101c1.18 0.04 2.23-0.7201 2.65-1.8201-0.49-0.38-0.81-0.95999-0.81-1.62 0-1.13 0.92-2.05 2.05-2.05s2.05 0.92002 2.05 2.05c0.01 1.04-0.8 1.9-1.83 2.01z"/>
</svg>
