<?xml version="1.0" encoding="UTF-8"?>
<svg width="24" height="24" viewBox="0 0 24 24" xmlns="http://www.w3.org/2000/svg">
 <path d="m5 8c1.6568 0 3-1.3432 3-3s-1.3432-3-3-3-3 1.3432-3 3 1.3432 3 3 3z"/>
 <path d="m19 15c1.6569 0 3-1.3431 3-3s-1.3431-3-3-3-3 1.3431-3 3 1.3431 3 3 3z"/>
 <path d="m5 22c1.6568 0 3-1.3431 3-3s-1.3432-3-3-3-3 1.3431-3 3 1.3432 3 3 3z"/>
 <path d="m5 16.75c-0.41 0-0.75-0.34-0.75-0.75v-8c0-0.41 0.34-0.75 0.75-0.75s0.75 0.34 0.75 0.75c0 2.19 1.06 3.25 3.25 3.25h7c0.41 0 0.75 0.34 0.75 0.75s-0.34 0.75-0.75 0.75h-7c-1.36 0-2.45-0.35-3.25-1.01v4.26c0 0.41-0.34 0.75-0.75 0.75z" opacity=".4"/>
</svg>
