<?xml version="1.0" encoding="UTF-8"?>
<svg width="24" height="24" viewBox="0 0 24 24" xmlns="http://www.w3.org/2000/svg">
 <path d="m16.19 2h-8.37c-3.64 0-5.81 2.17-5.81 5.81v8.37c0 3.64 2.17 5.81 5.81 5.81h8.37c3.64 0 5.81-2.17 5.81-5.81v-8.37c0-3.64-2.17-5.81-5.81-5.81z" opacity=".4"/>
 <path d="m8.5501 14.55v-4.29c0.84-0.30999 1.45-1.11 1.45-2.06 0-1.21-0.98999-2.2-2.2-2.2s-2.2 0.99001-2.2 2.2c0 0.95 0.61001 1.75 1.45 2.06v4.29c-0.76 0.3-1.3 1.04-1.3 1.9 0 1.13 0.91999 2.05 2.05 2.05s2.05-0.92 2.05-2.05c0-0.86-0.53999-1.6-1.3-1.9z"/>
 <path d="m17.5 14.55v-5.8c0-0.96-0.79-1.75-1.75-1.75h-1.13l0.21-0.17001c0.32-0.27 0.36-0.74 0.1-1.06-0.27-0.32-0.74-0.35997-1.06-0.09997l-1.8 1.5c-0.17 0.14-0.27 0.34998-0.27 0.57998s0.1 0.42999 0.27 0.57999l1.8 1.5c0.14 0.12 0.31 0.17001 0.48 0.17001 0.21 0 0.43-0.08999 0.58-0.26999 0.27-0.32 0.22-0.78999-0.1-1.06l-0.21-0.17002h1.13c0.14 0 0.25 0.11 0.25 0.25v5.8c-0.76 0.3-1.3 1.04-1.3 1.9 0 1.13 0.92 2.05 2.05 2.05s2.05-0.92 2.05-2.05c0-0.86-0.54-1.6-1.3-1.9z"/>
</svg>
