<svg width="24" height="24" viewBox="0 0 24 24"  xmlns="http://www.w3.org/2000/svg">
<path opacity="0.4" d="M20.03 6.81969L14.28 2.78969C12.71 1.68969 10.31 1.74969 8.8 2.91969L3.79 6.82969C2.78 7.60969 2 9.20969 2 10.4697V17.3697C2 19.9197 4.07 21.9997 6.61 21.9997H17.38C19.92 21.9997 21.99 19.9297 21.99 17.3797V10.5997C22 9.24969 21.13 7.58969 20.03 6.81969Z" />
<path d="M13.3999 8.50977H10.5999C8.67986 8.50977 7.10986 10.0698 7.10986 11.9998V14.7898C7.10986 16.7098 8.67986 18.2798 10.5999 18.2798H13.3899C15.3099 18.2798 16.8799 16.7198 16.8799 14.7898V11.9998C16.8799 10.0798 15.3199 8.50977 13.3999 8.50977ZM15.4899 11.9998V12.6998H12.6999V9.90977H13.3999C14.5499 9.90977 15.4899 10.8498 15.4899 11.9998ZM10.5999 9.90977H11.2999V12.6998H8.50986V11.9998C8.50986 10.8498 9.44986 9.90977 10.5999 9.90977ZM8.50986 14.7898V14.0898H11.2999V16.8798H10.5999C9.44986 16.8798 8.50986 15.9398 8.50986 14.7898ZM13.3999 16.8798H12.6999V14.0898H15.4899V14.7898C15.4899 15.9398 14.5499 16.8798 13.3999 16.8798Z" />
</svg>
