<svg width="24" height="24" viewBox="0 0 24 24"  xmlns="http://www.w3.org/2000/svg">
<path d="M17.79 22.7402H6.21C3.47 22.7402 1.25 20.5102 1.25 17.7702V10.3602C1.25 9.00021 2.09 7.29021 3.17 6.45021L8.56 2.25021C10.18 0.990208 12.77 0.930208 14.45 2.11021L20.63 6.44021C21.82 7.27021 22.75 9.05021 22.75 10.5002V17.7802C22.75 20.5102 20.53 22.7402 17.79 22.7402ZM9.48 3.43021L4.09 7.63021C3.38 8.19021 2.75 9.46021 2.75 10.3602V17.7702C2.75 19.6802 4.3 21.2402 6.21 21.2402H17.79C19.7 21.2402 21.25 19.6902 21.25 17.7802V10.5002C21.25 9.54021 20.56 8.21021 19.77 7.67021L13.59 3.34021C12.45 2.54021 10.57 2.58021 9.48 3.43021Z" />
<path d="M13.5 18.7502H10.5C8.43 18.7502 6.75 17.0702 6.75 15.0002V12.0002C6.75 9.93021 8.43 8.25021 10.5 8.25021H13.5C15.57 8.25021 17.25 9.93021 17.25 12.0002V15.0002C17.25 17.0702 15.57 18.7502 13.5 18.7502ZM10.5 9.75021C9.26 9.75021 8.25 10.7602 8.25 12.0002V15.0002C8.25 16.2402 9.26 17.2502 10.5 17.2502H13.5C14.74 17.2502 15.75 16.2402 15.75 15.0002V12.0002C15.75 10.7602 14.74 9.75021 13.5 9.75021H10.5Z" />
<path d="M12 18.7502C11.59 18.7502 11.25 18.4102 11.25 18.0002V9.00021C11.25 8.59021 11.59 8.25021 12 8.25021C12.41 8.25021 12.75 8.59021 12.75 9.00021V18.0002C12.75 18.4102 12.41 18.7502 12 18.7502Z" />
<path d="M16.5 14.2502H7.5C7.09 14.2502 6.75 13.9102 6.75 13.5002C6.75 13.0902 7.09 12.7502 7.5 12.7502H16.5C16.91 12.7502 17.25 13.0902 17.25 13.5002C17.25 13.9102 16.91 14.2502 16.5 14.2502Z" />
</svg>
