<?xml version="1.0" encoding="UTF-8"?>
<svg width="24" height="24" viewBox="0 0 24 24" xmlns="http://www.w3.org/2000/svg">
 <path d="m20.03 6.8197-5.75-4.03c-1.57-1.1-3.97-1.04-5.48 0.13l-5.01 3.91c-1.01 0.78-1.79 2.38-1.79 3.64v6.9c0 2.55 2.07 4.63 4.61 4.63h10.77c2.54 0 4.61-2.07 4.61-4.62v-6.78c0.01-1.35-0.86-3.01-1.96-3.78z" opacity=".4"/>
 <path d="m13.4 8.5098h-2.8c-1.92 0-3.49 1.56-3.49 3.49v2.79c0 1.92 1.57 3.49 3.49 3.49h2.79c1.92 0 3.49-1.56 3.49-3.49v-2.79c0-1.92-1.56-3.49-3.48-3.49zm2.09 3.49v0.7h-2.79v-2.79h0.7c1.15 0 2.09 0.94003 2.09 2.09zm-4.89-2.09h0.7v2.79h-2.79v-0.7c0-1.15 0.94-2.09 2.09-2.09zm-2.09 4.88v-0.7h2.79v2.79h-0.7c-1.15 0-2.09-0.94-2.09-2.09zm4.89 2.09h-0.7v-2.79h2.79v0.7c0 1.15-0.94 2.09-2.09 2.09z"/>
</svg>
