<svg width="24" height="24" viewBox="0 0 24 24"  xmlns="http://www.w3.org/2000/svg">
<path d="M17.79 22.7402H6.21C3.47 22.7402 1.25 20.5102 1.25 17.7702V10.3602C1.25 9.00021 2.09 7.29021 3.17 6.45021L8.56 2.25021C10.18 0.990208 12.77 0.930208 14.45 2.11021L20.63 6.44021C21.82 7.27021 22.75 9.05021 22.75 10.5002V17.7802C22.75 20.5102 20.53 22.7402 17.79 22.7402ZM9.48 3.43021L4.09 7.63021C3.38 8.19021 2.75 9.46021 2.75 10.3602V17.7702C2.75 19.6802 4.3 21.2402 6.21 21.2402H17.79C19.7 21.2402 21.25 19.6902 21.25 17.7802V10.5002C21.25 9.54021 20.56 8.21021 19.77 7.67021L13.59 3.34021C12.45 2.54021 10.57 2.58021 9.48 3.43021Z" />
<path d="M16.5 17.2502C16.31 17.2502 16.12 17.1802 15.97 17.0302L12.42 13.4802L11.33 15.1202C11.21 15.3102 11 15.4302 10.78 15.4502C10.55 15.4702 10.33 15.3902 10.18 15.2302L6.98 12.0302C6.69 11.7402 6.69 11.2602 6.98 10.9702C7.27 10.6802 7.75 10.6802 8.04 10.9702L10.59 13.5202L11.68 11.8802C11.8 11.6902 12.01 11.5702 12.23 11.5502C12.46 11.5302 12.68 11.6102 12.83 11.7702L17.03 15.9702C17.32 16.2602 17.32 16.7402 17.03 17.0302C16.88 17.1802 16.69 17.2502 16.5 17.2502Z" />
<path d="M16.5 17.2502L14.5 17.2502C14.09 17.2502 13.75 16.9102 13.75 16.5002C13.75 16.0902 14.09 15.7502 14.5 15.7502H15.75V14.5002C15.75 14.0902 16.09 13.7502 16.5 13.7502C16.91 13.7502 17.25 14.0902 17.25 14.5002V16.5002C17.25 16.9102 16.91 17.2502 16.5 17.2502Z" />
</svg>
