<?xml version="1.0" encoding="UTF-8"?>
<svg width="24" height="24" viewBox="0 0 24 24" xmlns="http://www.w3.org/2000/svg">
 <path d="m20.04 6.8197-5.76-4.03c-1.57-1.1-3.98-1.04-5.49 0.13l-5.01 3.91c-1 0.78-1.79 2.38-1.79 3.64v6.9c0 2.55 2.07 4.63 4.62 4.63h10.78c2.55 0 4.62-2.07 4.62-4.62v-6.78c0-1.35-0.87-3.01-1.97-3.78z" opacity=".4"/>
 <path d="m16.88 14.329c0-0.39-0.31-0.7-0.7-0.7s-0.7 0.31-0.7 0.7v0.18l-2.72-2.72c-0.15-0.15-0.35-0.22-0.56-0.2s-0.4 0.13-0.51 0.31l-1.02 1.52-2.38-2.38c-0.27-0.27-0.71-0.27-0.99 0-0.27 0.27-0.27 0.71 0 0.99l2.98 2.98c0.15 0.15 0.35 0.22 0.56 0.2s0.4-0.13 0.51-0.31l1.02-1.52 2.11 2.11h-0.18c-0.39 0-0.7 0.31-0.7 0.7s0.31 0.7 0.7 0.7h1.86c0.09 0 0.18-0.02 0.27-0.05 0.17-0.07 0.31-0.21 0.38-0.38 0.04-0.09 0.05-0.18 0.05-0.27v-1.86h0.02z"/>
</svg>
