<svg width="24" height="24" viewBox="0 0 24 24"  xmlns="http://www.w3.org/2000/svg">
<path opacity="0.4" d="M20.0402 6.81969L14.2802 2.78969C12.7102 1.68969 10.3002 1.74969 8.79023 2.91969L3.78023 6.82969C2.78023 7.60969 1.99023 9.20969 1.99023 10.4697V17.3697C1.99023 19.9197 4.06023 21.9997 6.61023 21.9997H17.3902C19.9402 21.9997 22.0102 19.9297 22.0102 17.3797V10.5997C22.0102 9.24969 21.1402 7.58969 20.0402 6.81969Z" />
<path d="M16.8302 11.2698C16.7602 11.0998 16.6202 10.9598 16.4502 10.8898C16.3602 10.8498 16.2702 10.8398 16.1802 10.8398H14.3202C13.9302 10.8398 13.6202 11.1498 13.6202 11.5398C13.6202 11.9298 13.9302 12.2398 14.3202 12.2398H14.5002L12.3902 14.3498L11.3702 12.8298C11.2502 12.6598 11.0702 12.5398 10.8602 12.5198C10.6402 12.4998 10.4502 12.5698 10.3002 12.7198L7.32018 15.6998C7.05018 15.9698 7.05018 16.4098 7.32018 16.6898C7.46018 16.8298 7.63018 16.8898 7.81018 16.8898C7.99018 16.8898 8.17018 16.8198 8.30018 16.6898L10.6802 14.3098L11.7002 15.8298C11.8202 15.9998 12.0002 16.1198 12.2102 16.1398C12.4302 16.1598 12.6202 16.0898 12.7702 15.9398L15.4902 13.2198V13.3998C15.4902 13.7898 15.8002 14.0998 16.1902 14.0998C16.5802 14.0998 16.8902 13.7898 16.8902 13.3998V11.5398C16.8802 11.4398 16.8702 11.3498 16.8302 11.2698Z" />
</svg>
