<?xml version="1.0" encoding="UTF-8"?>
<svg width="24" height="24" viewBox="0 0 24 24" xmlns="http://www.w3.org/2000/svg">
 <path d="m20.04 6.8197-5.76-4.03c-1.57-1.1-3.98-1.04-5.49 0.13l-5.01 3.91c-1 0.78-1.79 2.38-1.79 3.64v6.9c0 2.55 2.07 4.63 4.62 4.63h10.78c2.55 0 4.62-2.07 4.62-4.62v-6.78c0-1.35-0.87-3.01-1.97-3.78z" opacity=".4"/>
 <path d="m16.83 11.27c-0.07-0.17-0.21-0.31-0.38-0.38-0.09-0.04-0.18-0.05-0.27-0.05h-1.86c-0.39 0-0.7 0.31-0.7 0.7s0.31 0.7 0.7 0.7h0.18l-2.11 2.11-1.02-1.52c-0.12-0.17-0.3-0.29-0.51-0.31-0.22-0.02-0.41 0.05-0.56 0.2l-2.98 2.98c-0.27 0.27-0.27 0.71 0 0.99 0.14 0.14 0.31 0.2 0.49 0.2s0.36-0.07 0.49-0.2l2.38-2.38 1.02 1.52c0.12 0.17 0.3 0.29 0.51 0.31 0.22 0.02 0.41-0.05 0.56-0.2l2.72-2.72v0.18c0 0.39 0.31 0.7 0.7 0.7s0.7-0.31 0.7-0.7v-1.86c-0.01-0.1-0.02-0.19-0.06-0.27z"/>
</svg>
