<svg width="24" height="24" viewBox="0 0 24 24"  xmlns="http://www.w3.org/2000/svg">
<path opacity="0.4" d="M20.04 6.81969L14.28 2.78969C12.71 1.68969 10.3 1.74969 8.78999 2.91969L3.77999 6.82969C2.77999 7.60969 1.98999 9.20969 1.98999 10.4697V17.3697C1.98999 19.9197 4.05999 21.9997 6.60999 21.9997H17.39C19.94 21.9997 22.01 19.9297 22.01 17.3797V10.5997C22.01 9.24969 21.14 7.58969 20.04 6.81969Z" />
<path d="M16.8799 14.3294C16.8799 13.9394 16.5699 13.6294 16.1799 13.6294C15.7899 13.6294 15.4799 13.9394 15.4799 14.3294V14.5094L12.7599 11.7894C12.6099 11.6394 12.4099 11.5694 12.1999 11.5894C11.9899 11.6094 11.7999 11.7194 11.6899 11.8994L10.6699 13.4194L8.28991 11.0394C8.01991 10.7694 7.57991 10.7694 7.29991 11.0394C7.02991 11.3094 7.02991 11.7494 7.29991 12.0294L10.2799 15.0094C10.4299 15.1594 10.6299 15.2294 10.8399 15.2094C11.0499 15.1894 11.2399 15.0794 11.3499 14.8994L12.3699 13.3794L14.4799 15.4894H14.2999C13.9099 15.4894 13.5999 15.7994 13.5999 16.1894C13.5999 16.5794 13.9099 16.8894 14.2999 16.8894H16.1599C16.2499 16.8894 16.3399 16.8694 16.4299 16.8394C16.5999 16.7694 16.7399 16.6294 16.8099 16.4594C16.8499 16.3694 16.8599 16.2794 16.8599 16.1894V14.3294H16.8799Z" />
</svg>
