<?xml version="1.0" encoding="UTF-8"?>
<svg width="24" height="24" viewBox="0 0 24 24" xmlns="http://www.w3.org/2000/svg">
 <path d="m10.07 2.8198-6.93 5.55c-0.78 0.62-1.28 1.9301-1.11 2.9101l1.33 7.9599c0.24 1.42 1.6 2.57 3.04 2.57h11.2c1.43 0 2.8-1.16 3.04-2.57l1.33-7.9599c0.16-0.98-0.34-2.2901-1.11-2.9101l-6.93-5.54c-1.07-0.86-2.8-0.86001-3.86-0.01001z" opacity=".4"/>
 <path d="m14.12 15.13c-0.19 0-0.3699-0.07-0.5199-0.21-0.97-0.93-2.23-0.93-3.21 0-0.3 0.29-0.77006 0.2801-1.0601-0.0199s-0.27998-0.77 0.02002-1.06c1.55-1.49 3.72-1.49 5.28 0 0.3 0.29 0.3099 0.76 0.0199 1.06-0.13 0.15-0.33 0.2299-0.53 0.2299z"/>
 <path d="m16.24 13.01c-0.19 0-0.38-0.07-0.52-0.21-0.47-0.46-1-0.83-1.56-1.1-1.4-0.67-2.93-0.67-4.32 0-0.56 0.27-1.08 0.64-1.56 1.1-0.29 0.29-0.77 0.29-1.06-0.01s-0.27999-0.77 0.01001-1.06c0.59-0.58 1.25-1.04 1.96-1.38 1.81-0.87003 3.81-0.87003 5.61 0 0.71 0.34 1.37 0.8 1.96 1.38 0.3 0.29 0.3 0.76 0.01 1.06-0.14 0.14-0.33 0.22-0.53 0.22z"/>
 <path d="m12 17.5c-0.26 0-0.51-0.1-0.71-0.29-0.39-0.39-0.39-1.02 0-1.41s1.0299-0.39 1.4199 0 0.39 1.02 0 1.41c-0.2 0.19-0.4499 0.29-0.7099 0.29z"/>
</svg>
