<?xml version="1.0" encoding="UTF-8"?>
<svg width="24" height="24" viewBox="0 0 24 24" xmlns="http://www.w3.org/2000/svg">
 <path d="m22 21.25h-20c-0.41 0-0.75 0.34-0.75 0.75s0.34 0.75 0.75 0.75h20c0.41 0 0.75-0.34 0.75-0.75s-0.34-0.75-0.75-0.75z"/>
 <path d="M17 2H7C4 2 3 3.79 3 6V22H21V6C21 3.79 20 2 17 2Z" opacity=".4"/>
 <path d="m14.06 15h-4.13c-0.51 0-0.93999 0.42-0.93999 0.94v6.06h6v-6.06c0.01-0.52-0.41-0.94-0.93-0.94z"/>
 <path d="m14.5 7.75h-1.75v-1.75c0-0.41-0.34-0.75-0.75-0.75s-0.75 0.34-0.75 0.75v1.75h-1.75c-0.41 0-0.75 0.34-0.75 0.75s0.34 0.75 0.75 0.75h1.75v1.75c0 0.41 0.34 0.75 0.75 0.75s0.75-0.34 0.75-0.75v-1.75h1.75c0.41 0 0.75-0.34 0.75-0.75s-0.34-0.75-0.75-0.75z"/>
</svg>
