<svg width="24" height="24" viewBox="0 0 24 24"  xmlns="http://www.w3.org/2000/svg">
<path d="M22 22.7498H2C1.59 22.7498 1.25 22.4098 1.25 21.9998C1.25 21.5898 1.59 21.2498 2 21.2498H22C22.41 21.2498 22.75 21.5898 22.75 21.9998C22.75 22.4098 22.41 22.7498 22 22.7498Z" />
<path d="M3.7002 21.9997H2.2002L2.25019 9.96971C2.25019 9.11971 2.6402 8.32974 3.3102 7.80974L10.3102 2.35973C11.3002 1.58973 12.6902 1.58973 13.6902 2.35973L20.6902 7.79973C21.3502 8.31973 21.7502 9.12971 21.7502 9.96971V21.9997H20.2502V9.97972C20.2502 9.59972 20.0702 9.22973 19.7702 8.98973L12.7702 3.54973C12.3202 3.19973 11.6902 3.19973 11.2302 3.54973L4.23019 8.99974C3.93019 9.22974 3.75019 9.59972 3.75019 9.97972L3.7002 21.9997Z" />
<path d="M14.5 22.7498H9.5C9.09 22.7498 8.75 22.4098 8.75 21.9998V18.4998C8.75 17.2598 9.76 16.2498 11 16.2498H13C14.24 16.2498 15.25 17.2598 15.25 18.4998V21.9998C15.25 22.4098 14.91 22.7498 14.5 22.7498ZM10.25 21.2498H13.75V18.4998C13.75 18.0898 13.41 17.7498 13 17.7498H11C10.59 17.7498 10.25 18.0898 10.25 18.4998V21.2498Z" />
<path d="M9.5 14.4998H7.5C6.54 14.4998 5.75 13.7098 5.75 12.7498V11.2498C5.75 10.2898 6.54 9.49976 7.5 9.49976H9.5C10.46 9.49976 11.25 10.2898 11.25 11.2498V12.7498C11.25 13.7098 10.46 14.4998 9.5 14.4998ZM7.5 10.9998C7.36 10.9998 7.25 11.1098 7.25 11.2498V12.7498C7.25 12.8898 7.36 12.9998 7.5 12.9998H9.5C9.64 12.9998 9.75 12.8898 9.75 12.7498V11.2498C9.75 11.1098 9.64 10.9998 9.5 10.9998H7.5Z" />
<path d="M16.5 14.4998H14.5C13.54 14.4998 12.75 13.7098 12.75 12.7498V11.2498C12.75 10.2898 13.54 9.49976 14.5 9.49976H16.5C17.46 9.49976 18.25 10.2898 18.25 11.2498V12.7498C18.25 13.7098 17.46 14.4998 16.5 14.4998ZM14.5 10.9998C14.36 10.9998 14.25 11.1098 14.25 11.2498V12.7498C14.25 12.8898 14.36 12.9998 14.5 12.9998H16.5C16.64 12.9998 16.75 12.8898 16.75 12.7498V11.2498C16.75 11.1098 16.64 10.9998 16.5 10.9998H14.5Z" />
<path d="M19.0001 7.74976C18.5901 7.74976 18.2501 7.41977 18.2501 7.00977L18.2301 4.74976H14.5801C14.1701 4.74976 13.8301 4.40976 13.8301 3.99976C13.8301 3.58976 14.1701 3.24976 14.5801 3.24976H18.9801C19.3901 3.24976 19.7301 3.57975 19.7301 3.98975L19.7601 6.98975C19.7501 7.40975 19.4201 7.74976 19.0001 7.74976Z" />
</svg>
