<?xml version="1.0" encoding="UTF-8"?>
<svg width="24" height="24" viewBox="0 0 24 24" xmlns="http://www.w3.org/2000/svg">
 <path d="m22 22.75h-20c-0.41 0-0.75-0.34-0.75-0.75s0.34-0.75 0.75-0.75h20c0.41 0 0.75 0.34 0.75 0.75s-0.34 0.75-0.75 0.75z"/>
 <path d="m21 9.9797v12.02h-18.05l0.04999-12.03c0-0.61001 0.28-1.19 0.77001-1.57l7-5.44c0.72-0.57 1.74-0.57 2.46 0l1.34 1.04 4.43 3.44 1.23 0.96002c0.49 0.38 0.77 0.95995 0.77 1.58z" opacity=".4"/>
 <path d="m13 17h-2c-0.83 0-1.5 0.67-1.5 1.5v3.5h5v-3.5c0-0.83-0.67-1.5-1.5-1.5z"/>
 <path d="m9.5 13.75h-2c-0.55 0-1-0.45-1-1v-1.5c0-0.55 0.45-1 1-1h2c0.55 0 1 0.45 1 1v1.5c0 0.55-0.45 1-1 1z"/>
 <path d="m16.5 13.75h-2c-0.55 0-1-0.45-1-1v-1.5c0-0.55 0.45-1 1-1h2c0.55 0 1 0.45 1 1v1.5c0 0.55-0.45 1-1 1z"/>
 <path d="m19 7.44-4.43-3.44h3.41c0.55 0 1 0.43999 1 0.98999l0.02 2.45z"/>
</svg>
