<svg width="24" height="24" viewBox="0 0 24 24"  xmlns="http://www.w3.org/2000/svg">
<path d="M22 22.75H2C1.59 22.75 1.25 22.41 1.25 22C1.25 21.59 1.59 21.25 2 21.25H22C22.41 21.25 22.75 21.59 22.75 22C22.75 22.41 22.41 22.75 22 22.75Z" />
<path opacity="0.4" d="M21.0002 9.97968V21.9997H2.9502L3.00019 9.96968C3.00019 9.35967 3.28019 8.77973 3.7702 8.39973L10.7702 2.95973C11.4902 2.38973 12.5102 2.38973 13.2302 2.95973L14.5702 3.9997L19.0002 7.43971L20.2302 8.39973C20.7202 8.77973 21.0002 9.35968 21.0002 9.97968Z" />
<path d="M13 17H11C10.17 17 9.5 17.67 9.5 18.5V22H14.5V18.5C14.5 17.67 13.83 17 13 17Z" />
<path d="M9.5 13.75H7.5C6.95 13.75 6.5 13.3 6.5 12.75V11.25C6.5 10.7 6.95 10.25 7.5 10.25H9.5C10.05 10.25 10.5 10.7 10.5 11.25V12.75C10.5 13.3 10.05 13.75 9.5 13.75Z" />
<path d="M16.5 13.75H14.5C13.95 13.75 13.5 13.3 13.5 12.75V11.25C13.5 10.7 13.95 10.25 14.5 10.25H16.5C17.05 10.25 17.5 10.7 17.5 11.25V12.75C17.5 13.3 17.05 13.75 16.5 13.75Z" />
<path d="M18.9998 7.44L14.5698 4H17.9798C18.5298 4 18.9798 4.43999 18.9798 4.98999L18.9998 7.44Z" />
</svg>
