<svg width="24" height="24" viewBox="0 0 24 24"  xmlns="http://www.w3.org/2000/svg">
<path d="M22 22.7498H2C1.59 22.7498 1.25 22.4098 1.25 21.9998C1.25 21.5898 1.59 21.2498 2 21.2498H22C22.41 21.2498 22.75 21.5898 22.75 21.9998C22.75 22.4098 22.41 22.7498 22 22.7498Z" />
<path d="M3.7002 21.9997H2.2002L2.2502 9.96971C2.2502 9.11971 2.6402 8.32974 3.3102 7.80974L10.3102 2.35973C11.3002 1.58973 12.6902 1.58973 13.6902 2.35973L20.6902 7.79973C21.3502 8.31973 21.7502 9.12971 21.7502 9.96971V21.9997H20.2502V9.97972C20.2502 9.59972 20.0702 9.22973 19.7702 8.98973L12.7702 3.54973C12.3202 3.19973 11.6902 3.19973 11.2302 3.54973L4.2302 8.99974C3.9302 9.22974 3.7502 9.59972 3.7502 9.97972L3.7002 21.9997Z" />
<path d="M17 22.7498H7C6.59 22.7498 6.25 22.4098 6.25 21.9998V12.4998C6.25 11.2598 7.26 10.2498 8.5 10.2498H15.5C16.74 10.2498 17.75 11.2598 17.75 12.4998V21.9998C17.75 22.4098 17.41 22.7498 17 22.7498ZM7.75 21.2498H16.25V12.4998C16.25 12.0898 15.91 11.7498 15.5 11.7498H8.5C8.09 11.7498 7.75 12.0898 7.75 12.4998V21.2498Z" />
<path d="M10 18.4998C9.59 18.4998 9.25 18.1598 9.25 17.7498V16.2498C9.25 15.8398 9.59 15.4998 10 15.4998C10.41 15.4998 10.75 15.8398 10.75 16.2498V17.7498C10.75 18.1598 10.41 18.4998 10 18.4998Z" />
<path d="M13.5 8.24976H10.5C10.09 8.24976 9.75 7.90976 9.75 7.49976C9.75 7.08976 10.09 6.74976 10.5 6.74976H13.5C13.91 6.74976 14.25 7.08976 14.25 7.49976C14.25 7.90976 13.91 8.24976 13.5 8.24976Z" />
</svg>
