<?xml version="1.0" encoding="UTF-8"?>
<svg width="24" height="24" viewBox="0 0 24 24" xmlns="http://www.w3.org/2000/svg">
 <path d="m22.75 22c0 0.41-0.34 0.75-0.75 0.75h-20c-0.41 0-0.75-0.34-0.75-0.75 0-0.42 0.34-0.75 0.75-0.75h20c0.41 0 0.75 0.33 0.75 0.75z"/>
 <path d="m21 9.9797v11.27h-18.05l0.05-11.28c0-0.61001 0.27999-1.19 0.77-1.57l7-5.44c0.72-0.57 1.74-0.57 2.46 0l7 5.44c0.49 0.38 0.77 0.95995 0.77 1.58z" opacity=".4"/>
 <path d="m13.5 8.25h-3c-0.41 0-0.75-0.34-0.75-0.75s0.34-0.75 0.75-0.75h3c0.41 0 0.75 0.34 0.75 0.75s-0.34 0.75-0.75 0.75z"/>
 <path d="m15.5 11h-7c-0.83 0-1.5 0.67-1.5 1.5v9.5h10v-9.5c0-0.83-0.67-1.5-1.5-1.5zm-4.75 6.75c0 0.41-0.34 0.75-0.75 0.75s-0.75-0.34-0.75-0.75v-1.5c0-0.41 0.34-0.75 0.75-0.75s0.75 0.34 0.75 0.75v1.5z"/>
</svg>
