<?xml version="1.0" encoding="UTF-8"?>
<svg width="24" height="24" viewBox="0 0 24 24" xmlns="http://www.w3.org/2000/svg">
 <path d="m4.1201 2h15.77c0.6 0 1.06 0.52 0.99 1.11l-1.8 16.22c-0.04 0.4-0.33 0.74-0.72 0.85l-6.08 1.74c-0.18 0.05-0.37 0.05-0.55 0l-6.08-1.74c-0.39-0.11-0.67-0.45-0.72-0.85l-1.8-16.22c-0.07-0.59 0.39-1.11 0.99-1.11z" opacity=".4"/>
 <path d="m17.06 6.5005c-0.14-0.16-0.34-0.25-0.56-0.25l-9-0.02c-0.41 0-0.75 0.33-0.75 0.75 0 0.41 0.33 0.75 0.75 0.75l8.16 0.02-0.28 2.5h-7.38c-0.41 0-0.75 0.34-0.75 0.75s0.34 0.75 0.75 0.75h7.22l-0.41 3.67-2.81 0.8-2.88-0.82-0.4-1.58c-0.1-0.4-0.51-0.65-0.91-0.55s-0.65 0.51-0.55 0.91l0.5 2c0.06 0.26 0.26 0.47 0.52 0.54l3.5 1c0.07 0.02 0.14 0.03 0.21 0.03s0.14-0.01 0.21-0.03l3.5-1c0.29-0.08 0.51-0.33 0.54-0.64l1-9c0.03-0.21-0.04-0.42-0.18-0.58z"/>
</svg>
