<?xml version="1.0" encoding="UTF-8"?>
<svg width="24" height="24" viewBox="0 0 24 24" xmlns="http://www.w3.org/2000/svg">
 <path d="M24 0H0V24H24V0Z" opacity=".58"/>
 <path d="m4.1201 2h15.77c0.6 0 1.06 0.52 0.99 1.11l-1.8 16.22c-0.04 0.4-0.33 0.74-0.72 0.85l-6.08 1.74c-0.18 0.05-0.37 0.05-0.55 0l-6.08-1.74c-0.39-0.11-0.67003-0.45-0.72003-0.85l-1.8-16.22c-0.07-0.59 0.38999-1.11 0.98999-1.11z" opacity=".4"/>
 <path d="m11.75 18c-0.07 0-0.14-0.01-0.21-0.03l-3.5-1c-0.32-0.09-0.53998-0.39-0.53998-0.72v-2c0-0.41 0.34-0.75 0.75-0.75s0.75 0.34 0.75 0.75v1.43l2.75 0.79 2.8-0.8 0.37-3.67h-6.67c-0.38 0-0.7-0.29-0.75-0.67l-0.5-4.5c-0.02-0.21 0.04001-0.42 0.19001-0.58 0.14-0.16 0.34999-0.25 0.55999-0.25h8.5c0.41 0 0.75 0.34 0.75 0.75s-0.34 0.75-0.75 0.75h-7.66l0.32996 3h6.83c0.21 0 0.41 0.09 0.56 0.25 0.14 0.16 0.21 0.37 0.19 0.58l-0.5 5c-0.03 0.31-0.24 0.56-0.54 0.65l-3.5 1c-0.07 0.01-0.14 0.02-0.21 0.02z"/>
</svg>
