<svg width="24" height="24" viewBox="0 0 24 24"  xmlns="http://www.w3.org/2000/svg">
<path d="M14.7601 22.7204C14.5901 22.7204 14.4301 22.6804 14.3001 22.6004C13.8501 22.3104 11.6101 20.7604 11.2001 18.4004C10.9801 17.0904 11.3501 15.7904 12.3101 14.5504C15.1001 10.9404 15.41 9.89037 15.42 9.85037C15.46 9.57037 15.65 9.37037 15.92 9.28037C16.19 9.19037 16.4701 9.28037 16.6801 9.48037C18.9601 11.6904 20.0001 13.9704 19.7601 16.2604C19.3801 19.8504 15.9001 22.2004 15.2101 22.6304C15.0901 22.6804 14.9201 22.7204 14.7601 22.7204ZM16.3801 11.3104C15.9201 12.1204 15.0801 13.4204 13.5001 15.4504C12.7901 16.3604 12.5301 17.2404 12.6801 18.1304C12.9201 19.5204 14.1401 20.6104 14.7701 21.0804C15.7601 20.3904 18.0001 18.5704 18.2601 16.0604C18.4301 14.5204 17.8001 12.9304 16.3801 11.3104Z" />
<path d="M10.2801 22.7304C10.0201 22.7304 9.76008 22.6604 9.57008 22.6104C7.36008 21.9804 5.36009 19.9604 4.58009 17.5904C3.78009 15.1604 4.27004 12.6204 5.97004 10.4304C9.07004 6.37037 10.1001 3.10037 10.3401 2.20037C10.4501 1.77037 10.7701 1.44037 11.2101 1.31037C11.6601 1.19037 12.1501 1.32037 12.4901 1.66037C12.5201 1.68037 12.5401 1.71037 12.5601 1.74037C13.5001 3.00037 14.5101 5.25037 14.5101 7.79037C14.5101 9.53037 13.2901 11.1104 12.1101 12.6304C10.8601 14.2504 9.5701 15.9204 9.7101 17.7304C9.8401 19.0704 10.4201 20.0904 10.8101 20.7704C11.1401 21.3404 11.4501 21.8804 11.0601 22.3904C10.8501 22.6504 10.5701 22.7304 10.2801 22.7304ZM11.6501 3.06037C11.1901 4.57037 9.99005 7.63037 7.16005 11.3504C5.39005 13.6404 5.56008 15.7604 6.01008 17.1304C6.54008 18.7404 7.74009 20.1404 9.14009 20.8404C8.76009 20.1004 8.34004 19.1004 8.22004 17.8604C8.04004 15.4604 9.57007 13.4704 10.9301 11.7104C12.0001 10.3204 13.0101 9.01037 13.0101 7.78037C13.0101 5.88037 12.3301 4.14037 11.6501 3.06037Z" />
</svg>
