<svg width="24" height="24" viewBox="0 0 24 24"  xmlns="http://www.w3.org/2000/svg">
<path d="M20.2598 5.25C19.4298 5.25 18.7598 4.58 18.7598 3.75C18.7598 2.92 19.4298 2.25 20.2598 2.25H20.2697C21.0997 2.25 21.7697 2.92 21.7697 3.75C21.7697 4.58 21.0898 5.25 20.2598 5.25Z" />
<path d="M3.75977 21.75C2.92977 21.75 2.25977 21.08 2.25977 20.25C2.25977 19.42 2.92977 18.75 3.75977 18.75H3.76974C4.59974 18.75 5.26974 19.42 5.26974 20.25C5.26974 21.08 4.58977 21.75 3.75977 21.75Z" />
<path d="M6.02975 16.4C5.77975 16.4 5.52977 16.27 5.38977 16.04C4.64977 14.83 4.24976 13.43 4.24976 12C4.24976 7.73 7.72976 4.25 11.9998 4.25C13.4098 4.25 14.7897 4.63001 15.9897 5.35001C16.3397 5.56001 16.4598 6.02 16.2498 6.38C16.0398 6.73 15.5798 6.85 15.2198 6.64C14.2498 6.06 13.1398 5.75 12.0098 5.75C8.55977 5.75 5.75977 8.55 5.75977 12C5.75977 13.15 6.07975 14.28 6.67975 15.26C6.89975 15.61 6.78975 16.07 6.42975 16.29C6.29975 16.37 6.15975 16.4 6.02975 16.4Z" />
<path d="M11.9997 19.75C10.5597 19.75 9.15976 19.35 7.94976 18.61C7.59976 18.39 7.48976 17.93 7.69976 17.58C7.91976 17.23 8.37976 17.12 8.72976 17.33C9.70976 17.93 10.8397 18.25 11.9997 18.25C15.4497 18.25 18.2497 15.45 18.2497 12C18.2497 10.85 17.9297 9.72001 17.3297 8.74001C17.1097 8.39001 17.2197 7.93001 17.5797 7.71001C17.9297 7.50001 18.3897 7.60001 18.6097 7.96001C19.3497 9.18001 19.7497 10.57 19.7497 12.01C19.7497 16.27 16.2697 19.75 11.9997 19.75Z" />
</svg>
