<?xml version="1.0" encoding="UTF-8"?>
<svg width="24" height="24" viewBox="0 0 24 24" xmlns="http://www.w3.org/2000/svg">
 <path d="m16.19 2h-8.38c-3.64 0-5.81 2.17-5.81 5.81v8.37c0 3.64 2.17 5.81 5.81 5.81h8.37c3.64 0 5.81-2.17 5.81-5.81v-8.37c0.01-3.64-2.16-5.81-5.8-5.81z" opacity=".4"/>
 <path d="m10.89 7.8006c-0.1-0.29-0.37-0.5-0.68-0.51-0.32001-0.02-0.60001 0.16-0.72001 0.44l-3.53 7.93c-0.17 0.38 0 0.82 0.38 0.99s0.82 0 0.99-0.38l0.98-2.2h3.08l0.71 2.13c0.1 0.31 0.4 0.51 0.71 0.51 0.08 0 0.16-0.01 0.24-0.04 0.39-0.13 0.6-0.56 0.47-0.95l-2.63-7.92zm-1.91 4.77 1.1-2.47 0.82 2.47h-1.92z"/>
 <path d="m16.35 9.9316c-0.41 0-0.75 0.33996-0.75 0.74996v5.29c0 0.41 0.34 0.75 0.75 0.75s0.75-0.34 0.75-0.75v-5.29c0-0.42-0.34-0.74996-0.75-0.74996z"/>
 <path d="m17.27 7.651c-0.05-0.12-0.12-0.22999-0.22-0.31999-0.27-0.28-0.72-0.37-1.09-0.22-0.12 0.05-0.23 0.12-0.32 0.22-0.09 0.09-0.16 0.19999-0.22 0.31999-0.05 0.12-0.07 0.25001-0.07 0.38001 0 0.14 0.02 0.26 0.07 0.39 0.05 0.12 0.13 0.23001 0.22 0.32001 0.19 0.19 0.44 0.28999 0.71 0.28999 0.13 0 0.26-0.01999 0.38-0.06999s0.23-0.13 0.32-0.22c0.1-0.09 0.17-0.20001 0.22-0.32001s0.08-0.25 0.08-0.39c0-0.13-0.03-0.26001-0.08-0.38001z"/>
</svg>
