<?xml version="1.0" encoding="UTF-8"?>
<svg width="24" height="24" viewBox="0 0 24 24" xmlns="http://www.w3.org/2000/svg">
 <path d="m22 10.76c0-0.47-0.38-0.86-0.86-0.86h-18.28c-0.48 0-0.86 0.38-0.86 0.86 0 5.89 4.11 10 10 10s10-4.12 10-10z" opacity=".4"/>
 <path d="m12.46 15.9 2.85-2.84c0.29-0.29 0.29-0.77 0-1.06s-0.77-0.29-1.06 0l-1.56 1.56v-9.57c0-0.41-0.34-0.75-0.75-0.75s-0.75 0.34-0.75 0.75v9.57l-1.57-1.56c-0.29-0.29-0.77-0.29-1.06 0-0.15 0.15-0.22 0.34-0.22 0.53s0.07 0.38 0.22 0.53l2.85 2.84c0.29 0.3 0.76 0.3 1.05 0z"/>
</svg>
