<?xml version="1.0" encoding="UTF-8"?>
<svg width="24" height="24" viewBox="0 0 24 24" xmlns="http://www.w3.org/2000/svg">
 <path d="m12 22c5.5228 0 10-4.4772 10-10 0-5.5228-4.4772-10-10-10-5.5228 0-10 4.4772-10 10 0 5.5228 4.4772 10 10 10z" opacity=".4"/>
 <path d="m7.75 17.5h4.83c0.41 0 0.75-0.34 0.75-0.75s-0.34-0.75-0.75-0.75h-3.02l7.72-7.72c0.29-0.29 0.29-0.77 0-1.06-0.15-0.15-0.34-0.22-0.53-0.22s-0.38 0.07-0.53 0.22l-7.72 7.72v-3.02c0-0.41-0.34-0.75-0.75-0.75s-0.75 0.34-0.75 0.75v4.83c0 0.41 0.34 0.75 0.75 0.75z"/>
</svg>
