<?xml version="1.0" encoding="UTF-8"?>
<svg width="24" height="24" viewBox="0 0 24 24" xmlns="http://www.w3.org/2000/svg">
 <path d="M16.19 2H7.81C4.17 2 2 4.17 2 7.81V16.18C2 19.83 4.17 22 7.81 22H16.18C19.82 22 21.99 19.83 21.99 16.19V7.81C22 4.17 19.83 2 16.19 2Z" opacity=".4"/>
 <path d="m7.75 17.5h4.83c0.41 0 0.75-0.34 0.75-0.75s-0.34-0.75-0.75-0.75h-3.02l7.72-7.72c0.29-0.29 0.29-0.77 0-1.06-0.15-0.15-0.34-0.22-0.53-0.22s-0.38 0.07-0.53 0.22l-7.72 7.72v-3.02c0-0.41-0.34-0.75-0.75-0.75s-0.75 0.34-0.75 0.75v4.83c0 0.41 0.34 0.75 0.75 0.75z"/>
</svg>
