<svg width="24" height="24" viewBox="0 0 24 24"  xmlns="http://www.w3.org/2000/svg">
<path d="M12.0101 22.74C11.3801 22.74 10.7601 22.53 10.2701 22.11L8.69012 20.76C8.53012 20.62 8.13012 20.48 7.92012 20.48H6.17012C4.69012 20.48 3.49012 19.28 3.49012 17.8V16.09C3.49012 15.88 3.35012 15.48 3.22012 15.33L1.86012 13.73C1.04012 12.76 1.04012 11.24 1.86012 10.26L3.22012 8.66001C3.35012 8.51001 3.49012 8.11001 3.49012 7.90001V6.20001C3.49012 4.72001 4.69012 3.52001 6.17012 3.52001H7.90012C8.11012 3.52001 8.50012 3.37001 8.67012 3.23001L10.2501 1.88001C11.2301 1.05001 12.7601 1.05001 13.7401 1.88001L15.3201 3.23001C15.4801 3.37001 15.8901 3.51001 16.1001 3.51001H17.8001C19.2801 3.51001 20.4801 4.71001 20.4801 6.19001V7.89001C20.4801 8.10001 20.6301 8.49001 20.7701 8.66001L22.1201 10.24C22.9601 11.23 22.9501 12.76 22.1201 13.73L20.7701 15.31C20.6301 15.48 20.4901 15.87 20.4901 16.08V17.78C20.4901 19.26 19.2901 20.46 17.8101 20.46H16.1101C15.9001 20.46 15.5101 20.61 15.3301 20.75L13.7501 22.1C13.2601 22.53 12.6301 22.74 12.0101 22.74ZM6.17012 5.02001C5.52012 5.02001 4.99012 5.55001 4.99012 6.20001V7.90001C4.99012 8.47001 4.73012 9.19001 4.36012 9.63001L3.00012 11.23C2.66012 11.64 2.66012 12.36 3.00012 12.76L4.35012 14.35C4.71012 14.76 4.98012 15.51 4.98012 16.08V17.79C4.98012 18.44 5.51012 18.97 6.16012 18.97H7.90012C8.46012 18.97 9.20012 19.24 9.64012 19.61L11.2301 20.97C11.6401 21.32 12.3601 21.32 12.7701 20.97L14.3501 19.62C14.8001 19.24 15.5301 18.98 16.0901 18.98H17.7901C18.4401 18.98 18.9701 18.45 18.9701 17.8V16.1C18.9701 15.54 19.2401 14.81 19.6101 14.36L20.9701 12.77C21.3201 12.36 21.3201 11.64 20.9701 11.23L19.6201 9.65001C19.2401 9.20001 18.9801 8.47001 18.9801 7.91001V6.20001C18.9801 5.55001 18.4501 5.02001 17.8001 5.02001H16.1001C15.5301 5.02001 14.7901 4.75001 14.3501 4.38001L12.7601 3.02001C12.3501 2.67001 11.6401 2.67001 11.2201 3.02001L9.65012 4.38001C9.20012 4.75001 8.47012 5.02001 7.90012 5.02001H6.17012Z" />
<path d="M12.0001 16.87C11.4501 16.87 11.0001 16.42 11.0001 15.87C11.0001 15.32 11.4401 14.87 12.0001 14.87C12.5501 14.87 13.0001 15.32 13.0001 15.87C13.0001 16.42 12.5601 16.87 12.0001 16.87Z" />
<path d="M12.0001 13.72C11.5901 13.72 11.2501 13.38 11.2501 12.97V8.13001C11.2501 7.72001 11.5901 7.38001 12.0001 7.38001C12.4101 7.38001 12.7501 7.72001 12.7501 8.13001V12.96C12.7501 13.38 12.4201 13.72 12.0001 13.72Z" />
</svg>
