<svg width="24" height="24" viewBox="0 0 24 24"  xmlns="http://www.w3.org/2000/svg">
<path d="M12 1.25C17.93 1.25 22.75 6.07 22.75 12C22.75 17.93 17.93 22.75 12 22.75C6.07 22.75 1.25 17.93 1.25 12C1.25 6.07 6.07 1.25 12 1.25ZM12 21.25C17.1 21.25 21.25 17.1 21.25 12C21.25 6.9 17.1 2.75 12 2.75C6.9 2.75 2.75 6.9 2.75 12C2.75 17.1 6.9 21.25 12 21.25Z" />
<path d="M12 10.25C12.41 10.25 12.75 10.59 12.75 11V16C12.75 16.41 12.41 16.75 12 16.75C11.59 16.75 11.25 16.41 11.25 16V11C11.25 10.59 11.59 10.25 12 10.25Z" />
<path d="M12 7C12.13 7 12.26 7.03 12.38 7.08C12.5 7.13 12.61 7.2 12.71 7.29C12.8 7.39 12.87 7.49 12.92 7.62C12.97 7.74 13 7.87 13 8C13 8.13 12.97 8.26 12.92 8.38C12.87 8.5 12.8 8.61 12.71 8.71C12.61 8.8 12.5 8.87 12.38 8.92C12.14 9.02 11.86 9.02 11.62 8.92C11.5 8.87 11.39 8.8 11.29 8.71C11.2 8.61 11.13 8.5 11.08 8.38C11.03 8.26 11 8.13 11 8C11 7.87 11.03 7.74 11.08 7.62C11.13 7.49 11.2 7.39 11.29 7.29C11.39 7.2 11.5 7.13 11.62 7.08C11.74 7.03 11.87 7 12 7Z" />
</svg>
