<?xml version="1.0" encoding="UTF-8"?>
<svg width="24" height="24" viewBox="0 0 24 24" xmlns="http://www.w3.org/2000/svg">
 <path d="m12 22c5.5228 0 10-4.4772 10-10 0-5.5228-4.4772-10-10-10-5.5228 0-10 4.4772-10 10 0 5.5228 4.4772 10 10 10z" opacity=".4"/>
 <path d="m12 13.75c0.41 0 0.75-0.34 0.75-0.75v-5c0-0.41-0.34-0.75-0.75-0.75s-0.75 0.34-0.75 0.75v5c0 0.41 0.34 0.75 0.75 0.75z"/>
 <path d="m12.92 15.62c-0.05-0.12-0.12-0.23-0.21-0.33-0.1-0.09-0.21-0.16-0.33-0.21-0.24-0.1-0.52-0.1-0.76 0-0.12 0.05-0.23 0.12-0.33 0.21-0.09 0.1-0.16 0.21-0.21 0.33s-0.08 0.25-0.08 0.38 0.03 0.26 0.08 0.38c0.05 0.13 0.12 0.23 0.21 0.33 0.1 0.09 0.21 0.16 0.33 0.21s0.25 0.08 0.38 0.08 0.26-0.03 0.38-0.08 0.23-0.12 0.33-0.21c0.09-0.1 0.16-0.2 0.21-0.33 0.05-0.12 0.08-0.25 0.08-0.38s-0.03-0.26-0.08-0.38z"/>
</svg>
