<?xml version="1.0" encoding="UTF-8"?>
<svg width="24" height="24" viewBox="0 0 24 24" xmlns="http://www.w3.org/2000/svg">
 <path d="m10.99 2.5998-6.5 3.82c-0.61 0.36-0.98999 1.02-0.98999 1.72v7.71c0 0.71 0.37999 1.36 0.98999 1.72l6.5 3.82c0.63 0.37 1.4 0.37 2.03 0l6.5-3.82c0.61-0.36 0.99-1.02 0.99-1.72v-7.71c0-0.71-0.38-1.36-0.99-1.72l-6.5-3.82c-0.63-0.37-1.41-0.37-2.03 0z" opacity=".4"/>
 <path d="m17.39 14.359-2.61-1.57 0.26-0.26c0.29-0.29 0.29-0.77 0-1.06s-0.77-0.29-1.06 0l-0.52 0.52-1.8-1.08 0.38-0.38c0.29-0.29 0.29-0.76996 0-1.06s-0.77-0.29-1.06 0l-0.65 0.64996-1.87-1.12 3.54-2.13 4.61 2.77c0.36 0.21 0.82 0.1 1.03-0.26 0.21-0.35 0.1-0.82-0.26-1.03l-5-3c-0.24-0.14-0.54-0.14-0.77 0l-5 3c-0.23 0.14-0.35999 0.38-0.35999 0.64s0.13999 0.51 0.35999 0.64l2.61 1.57-0.25995 0.26c-0.29 0.29-0.29 0.77 0 1.06 0.15 0.15 0.33997 0.22 0.52997 0.22s0.38003-0.07 0.53001-0.22l0.52-0.52 1.8 1.08-0.38 0.38c-0.29 0.29-0.29 0.77 0 1.06 0.15 0.15 0.34 0.22 0.53 0.22s0.38-0.07 0.53-0.22l0.65-0.65 1.86 1.12-3.53 2.14-4.61-2.77c-0.36-0.21-0.82002-0.1-1.03 0.26s-0.09999 0.82 0.26001 1.03l5 3c0.12 0.07 0.25 0.11 0.39 0.11s0.27-0.04 0.39-0.11l5-3c0.23-0.14 0.36-0.38 0.36-0.64s-0.15-0.52-0.37-0.65z"/>
</svg>
