<svg width="24" height="24" viewBox="0 0 24 24"  xmlns="http://www.w3.org/2000/svg">
<path d="M12 22.4296C11.52 22.4296 11.04 22.2996 10.61 22.0496L4.10999 18.2296C3.26999 17.7396 2.75 16.8296 2.75 15.8596V8.14964C2.75 7.17964 3.26999 6.26964 4.10999 5.77964L10.61 1.95965C11.47 1.44965 12.54 1.44965 13.4 1.95965L19.9 5.77964C20.74 6.26964 21.26 7.17964 21.26 8.14964V15.8596C21.26 16.8296 20.74 17.7396 19.9 18.2296L13.4 22.0496C12.96 22.2996 12.48 22.4296 12 22.4296ZM11.37 3.23965L4.87 7.05964C4.49 7.27964 4.25 7.69964 4.25 8.13964V15.8496C4.25 16.2896 4.49 16.6996 4.87 16.9296L11.37 20.7496C11.76 20.9796 12.25 20.9796 12.64 20.7496L19.14 16.9296C19.52 16.7096 19.76 16.2896 19.76 15.8496V8.13964C19.76 7.69964 19.52 7.28964 19.14 7.05964L12.64 3.23965C12.24 3.00965 11.76 3.00965 11.37 3.23965Z" />
<path d="M12 18.7497C11.87 18.7497 11.73 18.7097 11.61 18.6397L6.60999 15.6397C6.24999 15.4297 6.13998 14.9697 6.34998 14.6097C6.55998 14.2497 7.02 14.1397 7.38 14.3497L11.99 17.1196L15.53 14.9897L6.59998 9.62966C6.36998 9.48966 6.23999 9.24966 6.23999 8.98966C6.23999 8.72966 6.37998 8.47966 6.59998 8.34966L11.6 5.34966C11.84 5.20966 12.14 5.20966 12.37 5.34966L17.37 8.34966C17.73 8.55966 17.84 9.01966 17.63 9.37966C17.42 9.72966 16.96 9.84965 16.6 9.63965L11.99 6.86965L8.45001 8.99965L17.38 14.3597C17.61 14.4997 17.74 14.7397 17.74 14.9997C17.74 15.2597 17.6 15.5097 17.38 15.6397L12.38 18.6397C12.27 18.7097 12.13 18.7497 12 18.7497Z" />
<path d="M9.49997 12.7497C9.30997 12.7497 9.11994 12.6796 8.96994 12.5296C8.67994 12.2396 8.67994 11.7597 8.96994 11.4697L10.9699 9.46965C11.2599 9.17965 11.74 9.17965 12.03 9.46965C12.32 9.75965 12.32 10.2396 12.03 10.5296L10.03 12.5296C9.88 12.6796 9.68997 12.7497 9.49997 12.7497Z" />
<path d="M12.5 14.7497C12.31 14.7497 12.1199 14.6796 11.9699 14.5296C11.6799 14.2396 11.6799 13.7597 11.9699 13.4697L13.9699 11.4697C14.2599 11.1797 14.74 11.1797 15.03 11.4697C15.32 11.7597 15.32 12.2396 15.03 12.5296L13.03 14.5296C12.88 14.6796 12.69 14.7497 12.5 14.7497Z" />
</svg>
