<svg width="24" height="24" viewBox="0 0 24 24"  xmlns="http://www.w3.org/2000/svg">
<path d="M12 22.71C11.84 22.71 11.68 22.69 11.52 22.64L5.44 20.9C4.75 20.7 4.25999 20.12 4.17999 19.41L2.38 3.19C2.33 2.7 2.48 2.2 2.82 1.83C3.15 1.46 3.62999 1.25 4.11999 1.25H19.89C20.39 1.25 20.86 1.46 21.19 1.83C21.52 2.2 21.68 2.7 21.63 3.19L19.83 19.41C19.75 20.12 19.26 20.7 18.57 20.9L12.49 22.64C12.32 22.69 12.16 22.71 12 22.71ZM4.11999 2.75C4.01999 2.75 3.95999 2.8 3.92999 2.83C3.89999 2.86 3.85999 2.93 3.86999 3.02L5.66998 19.24C5.67998 19.34 5.74997 19.43 5.84997 19.45L11.93 21.19C11.98 21.2 12.02 21.2 12.07 21.19L18.15 19.45C18.25 19.42 18.32 19.34 18.33 19.24L20.13 3.02C20.14 2.92 20.09 2.86 20.07 2.83C20.04 2.8 19.98 2.75 19.88 2.75H4.11999Z" />
<path d="M10.62 16.74C10.55 16.74 10.4799 16.73 10.4099 16.71L7.28995 15.81C6.88995 15.69 6.66 15.28 6.78 14.88C6.89 14.48 7.31 14.26 7.71 14.37L9.86997 14.99V7.00999C9.86997 6.59999 10.21 6.25999 10.62 6.25999C11.03 6.25999 11.37 6.59999 11.37 7.00999V15.98C11.37 16.22 11.26 16.44 11.07 16.58C10.94 16.68 10.78 16.74 10.62 16.74Z" />
<path d="M12.9 16.75C12.56 16.75 12.26 16.52 12.17 16.18C12.07 15.78 12.31 15.37 12.72 15.27L15.75 14.51V12.81L13.46 13.14C13.24 13.17 13.03 13.11 12.86 12.96C12.7 12.82 12.6 12.61 12.6 12.39V7.44001C12.6 7.07001 12.87 6.75 13.24 6.7L16.39 6.25001C16.8 6.19001 17.18 6.48001 17.24 6.89001C17.3 7.30001 17.01 7.68001 16.6 7.74001L14.09 8.10001V11.53L16.38 11.2C16.6 11.17 16.81 11.23 16.98 11.38C17.14 11.52 17.24 11.73 17.24 11.95V15.1C17.24 15.44 17.01 15.74 16.67 15.83L13.07 16.73C13.02 16.74 12.96 16.75 12.9 16.75Z" />
</svg>
