<?xml version="1.0" encoding="UTF-8"?>
<svg width="24" height="24" viewBox="0 0 24 24" xmlns="http://www.w3.org/2000/svg">
 <path d="m4.1201 2h15.77c0.6 0 1.06 0.52 0.99 1.11l-1.8 16.22c-0.04 0.4-0.33 0.74-0.72 0.85l-6.08 1.74c-0.18 0.05-0.37 0.05-0.55 0l-6.08-1.74c-0.39-0.11-0.67003-0.45-0.72003-0.85l-1.8-16.22c-0.07-0.59 0.38999-1.11 0.98999-1.11z" opacity=".4"/>
 <path d="m10.62 16.74c-0.07 0-0.14-0.01-0.21-0.03l-3.12-0.9c-0.4-0.12-0.62995-0.53-0.50995-0.93 0.11-0.4 0.52999-0.62 0.92999-0.51l2.16 0.62v-7.98c0-0.41 0.33995-0.75 0.74995-0.75s0.75 0.34 0.75 0.75v8.97c0 0.24-0.1099 0.46-0.2999 0.6-0.13 0.1-0.2901 0.16-0.4501 0.16z"/>
 <path d="m12.9 16.75c-0.34 0-0.64-0.23-0.73-0.57-0.1-0.4 0.14-0.81 0.55-0.91l3.03-0.76v-1.7l-2.29 0.33c-0.22 0.03-0.43-0.03-0.6-0.18-0.16-0.14-0.26-0.35-0.26-0.57v-4.94c0-0.37 0.27-0.69 0.64-0.74l3.15-0.45c0.41-0.06 0.79 0.23 0.85 0.64s-0.23 0.79-0.64 0.85l-2.5 0.35v3.43l2.29-0.33c0.22-0.03 0.43 0.03 0.6 0.18 0.16 0.14 0.26 0.35 0.26 0.57v3.15c0 0.34-0.23 0.64-0.57 0.73l-3.6 0.9c-0.06 0.01-0.12 0.02-0.18 0.02z"/>
</svg>
