<svg width="24" height="24" viewBox="0 0 24 24"  xmlns="http://www.w3.org/2000/svg">
<path d="M20.5398 19.0403C20.3898 19.1903 20.1998 19.2603 20.0098 19.2603C19.8198 19.2603 19.6298 19.1903 19.4798 19.0403L14.5298 14.0903L15.0598 13.5603L15.5898 13.0303L20.5398 17.9803C20.8298 18.2703 20.8298 18.7503 20.5398 19.0403Z" />
<path opacity="0.4" d="M6.46987 9.28009L12.2699 15.0801C12.6599 15.4701 12.6599 16.1001 12.2699 16.4901L11.3699 17.4001C10.5599 18.2001 9.27986 18.2001 8.47986 17.4001L4.13986 13.0601C3.34986 12.2701 3.34986 10.9801 4.13986 10.1801L5.04987 9.27009C5.43987 8.89009 6.07986 8.89009 6.46987 9.28009Z" />
<path d="M18.59 10.1904L14.78 13.9904C14.38 14.3904 13.74 14.3904 13.34 13.9904L7.57002 8.22043C7.17002 7.82043 7.17002 7.18043 7.57002 6.78043L11.38 2.97043C12.17 2.18043 13.46 2.18043 14.26 2.97043L18.6 7.31043C19.38 8.10043 19.38 9.38043 18.59 10.1904Z" />
<path d="M8 21.75H2C1.59 21.75 1.25 21.41 1.25 21C1.25 20.59 1.59 20.25 2 20.25H8C8.41 20.25 8.75 20.59 8.75 21C8.75 21.41 8.41 21.75 8 21.75Z" />
</svg>
