<?xml version="1.0" encoding="UTF-8"?>
<svg width="24" height="24" viewBox="0 0 24 24" xmlns="http://www.w3.org/2000/svg">
 <path d="m20.54 19.04c-0.15 0.15-0.34 0.22-0.53 0.22s-0.38-0.07-0.53-0.22l-4.95-4.95 1.06-1.06 4.95 4.95c0.29 0.29 0.29 0.77 0 1.06z"/>
 <path d="m6.4699 9.2801 5.8 5.8c0.39 0.39 0.39 1.02 0 1.41l-0.9 0.91c-0.81 0.8-2.09 0.8-2.89 0l-4.34-4.34c-0.79-0.79-0.79-2.08 0-2.88l0.91001-0.91001c0.39-0.38 1.03-0.38 1.42 0.01z" opacity=".4"/>
 <path d="m18.59 10.19-3.81 3.8c-0.4 0.4-1.04 0.4-1.44 0l-5.77-5.77c-0.4-0.4-0.4-1.04 0-1.44l3.81-3.81c0.79-0.79 2.08-0.79 2.88 0l4.34 4.34c0.78 0.79 0.78 2.07-0.01 2.88z"/>
 <path d="m8 21.75h-6c-0.41 0-0.75-0.34-0.75-0.75s0.34-0.75 0.75-0.75h6c0.41 0 0.75 0.34 0.75 0.75s-0.34 0.75-0.75 0.75z"/>
</svg>
