<?xml version="1.0" encoding="UTF-8"?>
<svg width="24" height="24" viewBox="0 0 24 24" xmlns="http://www.w3.org/2000/svg">
 <path d="m19.79 4.2198c-2.96-2.95-7.76-2.95-10.7 0-2.07 2.05-2.69 5-1.89 7.6l-4.7 4.7c-0.33 0.34-0.56 1.01-0.49 1.49l0.3 2.18c0.11 0.72 0.78 1.4 1.5 1.5l2.18 0.3c0.48 0.07 1.15-0.15 1.49-0.5l0.82-0.82c0.2-0.19 0.2-0.51 0-0.71l-1.94-1.94c-0.29-0.29-0.29-0.77 0-1.06s0.77-0.29 1.06 0l1.95 1.95c0.19 0.19 0.51 0.19 0.69995 0l2.12-2.11c2.59 0.81 5.54 0.18 7.6-1.87 2.95-2.95 2.95-7.76 0-10.71zm-5.29 7.78c-1.38 0-2.5-1.12-2.5-2.5 0-1.38 1.12-2.5 2.5-2.5s2.5 1.12 2.5 2.5c0 1.38-1.12 2.5-2.5 2.5z" opacity=".4"/>
 <path d="m14.5 12c1.3807 0 2.5-1.1193 2.5-2.5 0-1.3807-1.1193-2.5-2.5-2.5s-2.5 1.1193-2.5 2.5c0 1.3807 1.1193 2.5 2.5 2.5z"/>
</svg>
