<svg width="24" height="24" viewBox="0 0 24 24"  xmlns="http://www.w3.org/2000/svg">
<path d="M6.18014 22.7499C6.08014 22.7499 5.97014 22.7399 5.88014 22.7299L3.71014 22.4299C2.67014 22.2899 1.73014 21.3599 1.57014 20.2999L1.27014 18.1099C1.17014 17.4099 1.47014 16.4999 1.97014 15.9899L6.36014 11.5999C5.65014 8.75992 6.47014 5.75992 8.56014 3.68992C11.8001 0.459923 17.0701 0.449923 20.3201 3.68992C21.8901 5.25992 22.7501 7.34992 22.7501 9.56992C22.7501 11.7899 21.8901 13.8799 20.3201 15.4499C18.2201 17.5299 15.2301 18.3499 12.4101 17.6299L8.01014 22.0199C7.59014 22.4599 6.84014 22.7499 6.18014 22.7499ZM14.4301 2.75992C12.6801 2.75992 10.9401 3.41992 9.61014 4.74992C7.81014 6.53992 7.16014 9.15992 7.91014 11.5999C7.99014 11.8699 7.92014 12.1499 7.72014 12.3499L3.02014 17.0499C2.85014 17.2199 2.71014 17.6599 2.74014 17.8899L3.04014 20.0799C3.10014 20.4599 3.51014 20.8899 3.89014 20.9399L6.07014 21.2399C6.31014 21.2799 6.75014 21.1399 6.92014 20.9699L11.6401 16.2599C11.8401 16.0599 12.1301 15.9999 12.3901 16.0799C14.8001 16.8399 17.4301 16.1899 19.2301 14.3899C20.5101 13.1099 21.2201 11.3899 21.2201 9.56992C21.2201 7.73992 20.5101 6.02992 19.2301 4.74992C17.9301 3.42992 16.1801 2.75992 14.4301 2.75992Z" />
<path d="M9.19014 20.5399C9.00014 20.5399 8.81014 20.4699 8.66014 20.3199L6.36014 18.0199C6.07014 17.7299 6.07014 17.2499 6.36014 16.9599C6.65014 16.6699 7.13014 16.6699 7.42014 16.9599L9.72014 19.2599C10.0101 19.5499 10.0101 20.0299 9.72014 20.3199C9.57014 20.4699 9.38014 20.5399 9.19014 20.5399Z" />
<path d="M14.5001 11.7499C13.2601 11.7499 12.2501 10.7399 12.2501 9.49992C12.2501 8.25992 13.2601 7.24992 14.5001 7.24992C15.7401 7.24992 16.7501 8.25992 16.7501 9.49992C16.7501 10.7399 15.7401 11.7499 14.5001 11.7499ZM14.5001 8.74992C14.0901 8.74992 13.7501 9.08992 13.7501 9.49992C13.7501 9.90992 14.0901 10.2499 14.5001 10.2499C14.9101 10.2499 15.2501 9.90992 15.2501 9.49992C15.2501 9.08992 14.9101 8.74992 14.5001 8.74992Z" />
</svg>
