<?xml version="1.0" encoding="UTF-8"?>
<svg width="24" height="24" viewBox="0 0 24 24" xmlns="http://www.w3.org/2000/svg">
 <path d="m17 22.75h-10c-0.41 0-0.75-0.34-0.75-0.75s0.34-0.75 0.75-0.75h10c0.41 0 0.75 0.34 0.75 0.75s-0.34 0.75-0.75 0.75z"/>
 <path d="m18 19h-12c-2.21 0-4-1.79-4-4v-9c0-2.21 1.79-4 4-4h12c2.21 0 4 1.79 4 4v9c0 2.21-1.79 4-4 4z" opacity=".4"/>
 <path d="m17.26 9.0703h-3.68c-0.41 0-0.75-0.34-0.75-0.75s0.34-0.75 0.75-0.75h3.68c0.41 0 0.75 0.34 0.75 0.75s-0.33 0.75-0.75 0.75z"/>
 <path d="m10 9.3203c-0.55 0-1-0.45-1-1s0.44-1 1-1c0.55 0 1 0.45 1 1s-0.44 1-1 1z"/>
 <path d="m6.8501 9.3203c-0.55 0-1-0.45-1-1s0.44-1 1-1h0.00999c0.55 0 1 0.45 1 1s-0.45999 1-1.01 1z"/>
 <path d="m17.26 14.86h-10.51c-0.41 0-0.76-0.34-0.76-0.75s0.32999-0.75 0.73999-0.75h10.53c0.41 0 0.75 0.34 0.75 0.75s-0.33 0.75-0.75 0.75z"/>
</svg>
