<?xml version="1.0" encoding="UTF-8"?>
<svg width="24" height="24" viewBox="0 0 24 24" xmlns="http://www.w3.org/2000/svg">
 <path d="M16.19 2H7.81C4.17 2 2 4.17 2 7.81V16.18C2 19.83 4.17 22 7.81 22H16.18C19.82 22 21.99 19.83 21.99 16.19V7.81C22 4.17 19.83 2 16.19 2Z" opacity=".4"/>
 <path d="m15.89 8.1098c-1.48-1.47-3.88-1.47-5.35 0-1.03 1.02-1.34 2.5-0.94001 3.8l-2.35 2.35c-0.16 0.17-0.28 0.5-0.24 0.74l0.15 1.09c0.05 0.36 0.39 0.7 0.75 0.75l1.09 0.16c0.24 0.03 0.57-0.07 0.74-0.25l0.41001-0.41c0.1-0.09 0.1-0.25 0-0.35l-0.97001-0.97c-0.14-0.14-0.14-0.38 0-0.53 0.14-0.14 0.38-0.14 0.53 0l0.97001 0.97c0.09 0.09 0.25 0.09 0.35 0l1.06-1.05c1.29 0.4 2.77 0.09 3.8-0.93 1.48-1.49 1.48-3.89 0-5.37zm-2.64 3.89c-0.69 0-1.25-0.56-1.25-1.25s0.56-1.25 1.25-1.25 1.25 0.55998 1.25 1.25-0.56 1.25-1.25 1.25z"/>
</svg>
