<?xml version="1.0" encoding="UTF-8"?>
<svg width="24" height="24" viewBox="0 0 24 24" xmlns="http://www.w3.org/2000/svg">
 <path d="m19 7.1593v8.81c0 0.43-0.14 0.84-0.38 1.18l-0.46-0.24-8.16-4.91 8.54-4.74 0.45-0.23c0.01 0.04 0.01 0.09 0.01 0.13z" opacity=".6"/>
 <path d="m18.99 7.0303-0.45 0.23-8.54 4.74 2-9 0.14-0.68c0.29 0.02 0.58 0.1 0.85 0.25l5 2.85c0.59 0.34 0.96 0.94 1 1.61z"/>
 <path d="m12 2.9998-2 9 1.85 9.23 0.05 0.3c-0.38-0.01-0.75-0.13-1.06-0.36l-5-3.57c-0.53-0.38-0.84003-0.98-0.84003-1.63v-8.81c0-0.72 0.38001-1.38 1.01-1.74l5-2.85c0.35-0.2 0.74-0.29 1.13-0.25l-0.14 0.68z" opacity=".4"/>
 <path d="m18.62 17.15c-0.13 0.17-0.28 0.32-0.46 0.45l-5 3.57c-0.37 0.27-0.82 0.39-1.26 0.36l-0.05-0.3-1.85-9.23 8.16 4.91 0.46 0.24z"/>
</svg>
