<?xml version="1.0" encoding="UTF-8"?>
<svg width="24" height="24" viewBox="0 0 24 24" xmlns="http://www.w3.org/2000/svg">
 <path d="m15.26 22c-0.06 0-0.13-0.01-0.19-0.03-2.01-0.57-4.12-0.57-6.13 0-0.37 0.1-0.76-0.11-0.86-0.48-0.11-0.37 0.11-0.76 0.48-0.86 2.26-0.64 4.64-0.64 6.9 0 0.37 0.11 0.59 0.49 0.48 0.86-0.1 0.31-0.38 0.51-0.68 0.51z"/>
 <path d="m4.1801 19.08c-0.19 0-0.38-0.07-0.53-0.22-0.29-0.29-0.29-0.77 0-1.06l15.85-15.85c0.29-0.29 0.77-0.29 1.06 0s0.29 0.77 0 1.06l-15.85 15.85c-0.15 0.15-0.34 0.22-0.53 0.22z"/>
 <path d="m16.63 3.4201-11.14 11.14c-0.96-1.36-1.52-2.96-1.52-4.51 0-2.45 1.09-4.74 3-6.28s4.41-2.11 6.86-1.57c1.01 0.22 1.96 0.64 2.8 1.22z" opacity=".4"/>
 <path d="m16.17 16.92v0.7c0.01 0.26 0.03 0.76-0.36 1.16-0.28 0.28-0.69 0.43-1.23 0.43h-5.13c-0.41 0-0.93-0.05-1.28-0.4-0.33-0.35-0.32-0.78-0.31-1.06v-0.83c-0.45-0.3-0.87-0.64-1.25-1.02l11.34-11.34c0.5 0.53 0.93 1.14 1.26 1.8 2.02 4.06 0.07 8.47-3.04 10.56z" opacity=".4"/>
</svg>
