<?xml version="1.0" encoding="UTF-8"?>
<svg width="24" height="24" viewBox="0 0 24 24" xmlns="http://www.w3.org/2000/svg">
 <path d="m19.21 6.3595c-1.04-2.1-3.05-3.65-5.38-4.16-2.44-0.54-4.94 0.04-6.85 1.58-1.92 1.53-3.01 3.82-3.01 6.27 0 2.59 1.55 5.3 3.89 6.87v0.83c-0.01 0.28-0.02 0.71 0.32 1.06 0.35 0.36 0.87 0.4 1.28 0.4h5.13c0.54 0 0.95-0.15 1.23-0.43 0.38-0.39 0.37-0.89 0.36-1.16v-0.7c3.1-2.09 5.05-6.5 3.03-10.56z" opacity=".4"/>
 <path d="m15.26 22c-0.06 0-0.13-0.01-0.19-0.03-2.01-0.57-4.12-0.57-6.13 0-0.37 0.1-0.76-0.11-0.86-0.48-0.11-0.37 0.11-0.76 0.48-0.86 2.26-0.64 4.64-0.64 6.9 0 0.37 0.11 0.59 0.49 0.48 0.86-0.1 0.31-0.38 0.51-0.68 0.51z"/>
</svg>
