<svg width="24" height="24" viewBox="0 0 24 24"  xmlns="http://www.w3.org/2000/svg">
<path opacity="0.4" d="M19.2102 6.35952C18.1702 4.25952 16.1602 2.70952 13.8302 2.19952C11.3902 1.65952 8.89021 2.23952 6.98021 3.77952C5.06021 5.30952 3.97021 7.59952 3.97021 10.0495C3.97021 12.6395 5.52022 15.3495 7.86021 16.9195V17.7495C7.85021 18.0295 7.84021 18.4595 8.18021 18.8095C8.53021 19.1695 9.05021 19.2095 9.46021 19.2095H14.5902C15.1302 19.2095 15.5402 19.0595 15.8202 18.7795C16.2002 18.3895 16.1902 17.8895 16.1802 17.6195V16.9195C19.2802 14.8295 21.2302 10.4195 19.2102 6.35952Z" />
<path d="M15.2602 22.0004C15.2002 22.0004 15.1302 21.9904 15.0702 21.9704C13.0602 21.4004 10.9502 21.4004 8.94015 21.9704C8.57015 22.0704 8.18015 21.8604 8.08015 21.4904C7.97015 21.1204 8.19015 20.7304 8.56015 20.6304C10.8202 19.9904 13.2002 19.9904 15.4602 20.6304C15.8302 20.7404 16.0502 21.1204 15.9402 21.4904C15.8402 21.8004 15.5602 22.0004 15.2602 22.0004Z" />
</svg>
