<?xml version="1.0" encoding="UTF-8"?>
<svg width="24" height="24" viewBox="0 0 24 24" xmlns="http://www.w3.org/2000/svg">
 <path d="m20.78 14.18v2.94c0 1.1-0.9 2-2 2h-13.56c-1.1 0-2-0.9-2-2v-2.94c0-4.82 3.9-8.72 8.72-8.72h0.12c4.82-0.01 8.72 3.9 8.72 8.72z" opacity=".4"/>
 <path d="m12.75 2.5303v2.96c-0.23-0.02-0.46-0.03-0.69-0.03h-0.12c-0.23 0-0.46 0.01-0.69 0.03v-2.96c0-0.41 0.34-0.75 0.75-0.75s0.75 0.34 0.75 0.75z"/>
 <path d="m15.32 19.11c-0.12 1.74-1.56 3.11-3.32 3.11s-3.21-1.37-3.32-3.11h6.64z"/>
</svg>
