<svg width="24" height="24" viewBox="0 0 24 24"  xmlns="http://www.w3.org/2000/svg">
<path opacity="0.4" d="M12 22C17.5228 22 22 17.5228 22 12C22 6.47715 17.5228 2 12 2C6.47715 2 2 6.47715 2 12C2 17.5228 6.47715 22 12 22Z" />
<path d="M17 15.97C15.69 15.97 14.44 15.37 13.44 14.26C14.43 12.99 15.07 11.42 15.21 9.70004H16.99C17.4 9.70004 17.74 9.36004 17.74 8.95004C17.74 8.54004 17.4 8.20004 16.99 8.20004H14.56C14.54 8.20004 14.52 8.19003 14.5 8.19003C14.48 8.19003 14.46 8.20004 14.44 8.20004H12.75V7.27002C12.75 6.86002 12.41 6.52002 12 6.52002C11.59 6.52002 11.25 6.86002 11.25 7.27002V8.20004H7.01001C6.60001 8.20004 6.26001 8.54004 6.26001 8.95004C6.26001 9.36004 6.60001 9.70004 7.01001 9.70004H12H13.7C13.33 13.22 10.47 15.97 6.98999 15.97C6.57999 15.97 6.23999 16.31 6.23999 16.72C6.23999 17.13 6.57999 17.47 6.98999 17.47C9.05999 17.47 10.95 16.67 12.4 15.36C13.67 16.72 15.28 17.47 16.99 17.47C17.4 17.47 17.74 17.13 17.74 16.72C17.74 16.31 17.41 15.97 17 15.97Z" />
</svg>
