<?xml version="1.0" encoding="UTF-8"?>
<svg width="24" height="24" viewBox="0 0 24 24" xmlns="http://www.w3.org/2000/svg">
 <path d="m16.19 2h-8.37c-3.64 0-5.81 2.17-5.81 5.81v8.37c0 3.64 2.17 5.81 5.81 5.81h8.37c3.64 0 5.81-2.17 5.81-5.81v-8.37c0-3.64-2.17-5.81-5.81-5.81z" opacity=".4"/>
 <path d="m17 15.97c-1.31 0-2.56-0.6-3.56-1.71 0.99-1.27 1.63-2.84 1.77-4.56h1.78c0.41 0 0.75-0.34 0.75-0.75s-0.34-0.75-0.75-0.75h-2.43c-0.02 0-0.04-0.01001-0.06-0.01001s-0.04 0.01001-0.06 0.01001h-1.69v-0.93002c0-0.41-0.34-0.75-0.75-0.75s-0.75 0.34-0.75 0.75v0.93002h-4.24c-0.41 0-0.75 0.34-0.75 0.75s0.34 0.75 0.75 0.75h6.69c-0.37 3.52-3.2301 6.27-6.7101 6.27-0.41 0-0.75 0.34-0.75 0.75s0.34 0.75 0.75 0.75c2.07 0 3.96-0.8 5.41-2.11 1.27 1.36 2.88 2.11 4.59 2.11 0.41 0 0.75-0.34 0.75-0.75s-0.33-0.75-0.74-0.75z"/>
</svg>
