<?xml version="1.0" encoding="UTF-8"?>
<svg width="24" height="24" viewBox="0 0 24 24" xmlns="http://www.w3.org/2000/svg">
 <path d="m19.37 4.8901-5.86-2.61c-0.86-0.38-2.16-0.38-3.02 0l-5.86 2.61c-1.48 0.66-1.7 1.56-1.7 2.04s0.22 1.38 1.7 2.04l5.86 2.61c0.43 0.19 0.97 0.29 1.51 0.29s1.08-0.1 1.51-0.29l5.86-2.61c1.48-0.66 1.7-1.56 1.7-2.04s-0.21-1.38-1.7-2.04z"/>
 <path d="m12 17.04c-0.38 0-0.76-0.08-1.11-0.23l-6.74-3c-1.03-0.46-1.83-1.69-1.83-2.82 0-0.41 0.33-0.74 0.74-0.74s0.74 0.33 0.74 0.74c0 0.54 0.45 1.24 0.95 1.46l6.74 3c0.32 0.14 0.69 0.14 1.01 0l6.74-3c0.5-0.22 0.95-0.91 0.95-1.46 0-0.41 0.33-0.74 0.74-0.74s0.74 0.33 0.74 0.74c0 1.12-0.8 2.36-1.83 2.82l-6.74 3c-0.34 0.15-0.72 0.23-1.1 0.23z" opacity=".4"/>
 <path d="m12 22c-0.38 0-0.76-0.08-1.11-0.23l-6.74-3c-1.11-0.49-1.83-1.6-1.83-2.82 0-0.41 0.33-0.74 0.74-0.74s0.74 0.33 0.74 0.74c0 0.63 0.37 1.2 0.95 1.46l6.74 3c0.32 0.14 0.69 0.14 1.01 0l6.74-3c0.57-0.25 0.95-0.83 0.95-1.46 0-0.41 0.33-0.74 0.74-0.74s0.74 0.33 0.74 0.74c0 1.22-0.72 2.32-1.83 2.82l-6.74 3c-0.34 0.15-0.72 0.23-1.1 0.23z" opacity=".4"/>
</svg>
