<svg width="24" height="24" viewBox="0 0 24 24"  xmlns="http://www.w3.org/2000/svg">
<path d="M11.9702 22.75C6.05021 22.75 1.22021 17.93 1.22021 12C1.22021 6.07 6.05021 1.25 11.9702 1.25C17.8902 1.25 22.7202 6.07 22.7202 12C22.7202 17.93 17.9002 22.75 11.9702 22.75ZM11.9702 2.75C6.87021 2.75 2.72021 6.9 2.72021 12C2.72021 17.1 6.87021 21.25 11.9702 21.25C17.0702 21.25 21.2202 17.1 21.2202 12C21.2202 6.9 17.0702 2.75 11.9702 2.75Z" />
<path d="M12.0002 17.25C9.10021 17.25 6.75021 14.89 6.75021 12C6.75021 9.11 9.10021 6.75 12.0002 6.75C14.9002 6.75 17.2502 9.11 17.2502 12C17.2502 14.89 14.9002 17.25 12.0002 17.25ZM12.0002 8.25C9.93021 8.25 8.25021 9.93 8.25021 12C8.25021 14.07 9.93021 15.75 12.0002 15.75C14.0702 15.75 15.7502 14.07 15.7502 12C15.7502 9.93 14.0702 8.25 12.0002 8.25Z" />
<path d="M8.44021 9.21C8.25021 9.21 8.05021 9.14 7.91021 9L4.37021 5.46C4.08021 5.17 4.08021 4.69 4.37021 4.4C4.66021 4.11 5.14021 4.11 5.43021 4.4L8.97021 7.94C9.26021 8.23 9.26021 8.7 8.97021 9C8.82021 9.14 8.63021 9.21 8.44021 9.21Z" />
<path d="M4.90021 19.82C4.71021 19.82 4.52021 19.75 4.37021 19.6C4.08021 19.31 4.08021 18.83 4.37021 18.54L7.91021 15C8.20021 14.71 8.68021 14.71 8.97021 15C9.26021 15.29 9.26021 15.77 8.97021 16.06L5.43021 19.6C5.29021 19.75 5.09021 19.82 4.90021 19.82Z" />
<path d="M19.0402 19.82C18.8502 19.82 18.6602 19.75 18.5102 19.6L14.9702 16.06C14.6802 15.77 14.6802 15.29 14.9702 15C15.2602 14.71 15.7402 14.71 16.0302 15L19.5702 18.54C19.8602 18.83 19.8602 19.31 19.5702 19.6C19.4302 19.75 19.2402 19.82 19.0402 19.82Z" />
<path d="M15.5102 9.21C15.3202 9.21 15.1302 9.14 14.9802 8.99C14.6902 8.7 14.6902 8.22 14.9802 7.93L18.5202 4.39C18.8102 4.1 19.2902 4.1 19.5802 4.39C19.8702 4.68 19.8702 5.16 19.5802 5.45L16.0402 9C15.8902 9.14 15.7002 9.21 15.5102 9.21Z" />
</svg>
