<?xml version="1.0" encoding="UTF-8"?>
<svg width="24" height="24" viewBox="0 0 24 24" xmlns="http://www.w3.org/2000/svg">
 <path d="m21.97 12c0 2.49-0.91 4.77-2.42 6.52-0.33 0.38-0.68 0.74-1.06 1.05-1.74 1.52-4.02 2.43-6.52 2.43-2.49 0-4.77-0.91-6.52-2.42-0.38-0.33-0.73-0.68-1.06-1.06-1.51-1.75-2.42-4.03-2.42-6.52s0.91-4.77 2.43-6.52c0.32-0.38 0.68-0.74 1.06-1.06 1.75-1.51 4.02-2.42 6.51-2.42 2.5 0 4.78 0.91 6.52 2.43 0.38 0.32 0.74 0.67 1.06 1.06 1.51 1.75 2.42 4.02 2.42 6.51z" opacity=".4"/>
 <path d="m15.65 14.62 3.9 3.9c-0.33 0.38-0.68 0.74-1.06 1.05l-3.9-3.9c-0.74 0.52-1.63 0.83-2.59 0.83-0.98 0-1.88-0.32-2.62-0.85l-3.93 3.93c-0.38-0.33-0.73-0.68-1.06-1.06l3.94-3.93c-0.52-0.74-0.83-1.63-0.83-2.59s0.31-1.85 0.83-2.59l-3.93-3.93c0.32-0.38 0.68-0.74 1.06-1.06l3.92 3.93c0.73996-0.53 1.64-0.85 2.62-0.85 0.96 0 1.85 0.31 2.59 0.83l3.9-3.9c0.38 0.32 0.74 0.67 1.06 1.06l-3.9 3.89c0.53 0.73998 0.85 1.64 0.85 2.62s-0.32 1.88-0.85 2.62z"/>
</svg>
