<?xml version="1.0" encoding="UTF-8"?>
<svg width="24" height="24" viewBox="0 0 24 24" xmlns="http://www.w3.org/2000/svg">
 <path d="m18 18.86h-0.76c-0.8 0-1.56 0.3101-2.12 0.8701l-1.71 1.69c-0.78 0.77-2.05 0.77-2.83 0l-1.71-1.69c-0.56-0.56-1.33-0.8701-2.12-0.8701h-0.75c-1.66 0-3-1.3299-3-2.9699v-10.91c0-1.64 1.34-2.97 3-2.97h12c1.66 0 3 1.33 3 2.97v10.91c0 1.63-1.34 2.9699-3 2.9699z" opacity=".4"/>
 <path d="m12.28 14.96c-0.15 0.05-0.4 0.05-0.56 0-1.3-0.45-4.22-2.3-4.22-5.45 0-1.39 1.12-2.51 2.5-2.51 0.82 0 1.54 0.39 2 1 0.46-0.61 1.18-1 2-1 1.38 0 2.5 1.12 2.5 2.51-0.01 3.15-2.92 5-4.22 5.45z"/>
</svg>
