<?xml version="1.0" encoding="UTF-8"?>
<svg width="24" height="24" viewBox="0 0 24 24" xmlns="http://www.w3.org/2000/svg">
 <path d="m18 18.86h-0.76c-0.8 0-1.56 0.31-2.12 0.87l-1.71 1.69c-0.78 0.77-2.05 0.77-2.83 0l-1.71-1.69c-0.56-0.56-1.33-0.87-2.12-0.87h-0.75c-1.66 0-3-1.3299-3-2.9699v-10.91c0-1.64 1.34-2.97 3-2.97h12c1.66 0 3 1.33 3 2.97v10.91c0 1.63-1.34 2.9699-3 2.9699z" opacity=".4"/>
 <path d="m16.58 9.5697c-0.19-0.27-0.51-0.41998-0.89-0.41998h-1.95c-0.13 0-0.25-0.05003-0.33-0.15003s-0.12-0.22999-0.1-0.36999l0.24-1.56c0.1-0.46-0.21-0.99001-0.67-1.14-0.43-0.16-0.94 0.05998-1.14 0.35998l-1.94 2.88v-0.35999c0-0.7-0.30001-0.98999-1.04-0.98999h-0.48999c-0.74 0-1.04 0.28999-1.04 0.98999v4.7801c0 0.7 0.30001 0.99 1.04 0.99h0.48999c0.7 0 1-0.2701 1.03-0.9101l1.47 1.13c0.2 0.2 0.65 0.31 0.97 0.31h1.85c0.64 0 1.28-0.48 1.42-1.07l1.17-3.56c0.13-0.32 0.1-0.64996-0.09-0.90996z"/>
</svg>
