<?xml version="1.0" encoding="UTF-8"?>
<svg width="24" height="24" viewBox="0 0 24 24" xmlns="http://www.w3.org/2000/svg">
 <path d="m21.65 10.03c-0.39-0.55997-1.08-0.87997-1.87-0.87997h-4.1c-0.27 0-0.52-0.11-0.69-0.31-0.18-0.2-0.25-0.48-0.21-0.77l0.51-3.28c0.22-0.98-0.43-2.08-1.41-2.41-0.91-0.34-1.98 0.12-2.41 0.77l-4.22 6.27-0.12 0.2v8.84l0.15 0.15 3.17 2.45c0.42 0.42 1.37 0.65 2.04 0.65h3.9c1.34 0 2.69-1.01 2.99-2.24l2.46-7.49c0.26-0.71 0.19-1.4-0.19-1.95z" opacity=".4"/>
 <path d="m5.21 6.3799h-1.03c-1.55 0-2.18 0.6-2.18 2.08v10.06c0 1.48 0.63 2.08 2.18 2.08h1.03c1.55 0 2.18-0.6 2.18-2.08v-10.06c0-1.48-0.63-2.08-2.18-2.08z"/>
</svg>
