<svg width="24" height="24" viewBox="0 0 24 24"  xmlns="http://www.w3.org/2000/svg">
<path opacity="0.4" d="M21.6499 10.0297C21.2599 9.46973 20.5699 9.14973 19.7799 9.14973H15.6799C15.4099 9.14973 15.1599 9.03973 14.9899 8.83973C14.8099 8.63973 14.7399 8.35973 14.7799 8.06973L15.2899 4.78973C15.5099 3.80973 14.8599 2.70973 13.8799 2.37973C12.9699 2.03973 11.8999 2.49973 11.4699 3.14973L7.24988 9.41973L7.12988 9.61973V18.4597L7.27988 18.6097L10.4499 21.0597C10.8699 21.4797 11.8199 21.7097 12.4899 21.7097H16.3899C17.7299 21.7097 19.0799 20.6997 19.3799 19.4697L21.8399 11.9797C22.0999 11.2697 22.0299 10.5797 21.6499 10.0297Z" />
<path d="M5.21 6.37988H4.18C2.63 6.37988 2 6.97988 2 8.45988V18.5199C2 19.9999 2.63 20.5999 4.18 20.5999H5.21C6.76 20.5999 7.39 19.9999 7.39 18.5199V8.45988C7.39 6.97988 6.76 6.37988 5.21 6.37988Z" />
</svg>
