<?xml version="1.0" encoding="UTF-8"?>
<svg width="24" height="24" viewBox="0 0 24 24" xmlns="http://www.w3.org/2000/svg">
 <path d="m13.15 15.37c-0.22-0.32-0.6101-0.5-1.0601-0.5h-2.33c-0.15 0-0.29999-0.06-0.38999-0.18-0.1-0.12-0.14001-0.27-0.12001-0.44l0.29-1.86c0.12-0.55-0.25-1.18-0.8-1.37-0.52-0.19-1.12 0.07-1.37 0.44l-2.39 3.55-0.07 0.12v5.02l0.08999 0.0899 1.8 1.3901c0.24 0.24 0.77999 0.37 1.16 0.37h2.21c0.76 0 1.52-0.5701 1.7-1.2701l1.3999-4.25c0.14-0.41 0.1001-0.7999-0.1199-1.1099z" opacity=".4"/>
 <path d="m3.82 13.3h-0.58c-0.88 0-1.24 0.34-1.24 1.18v5.71c0 0.84 0.36 1.18 1.24 1.18h0.58c0.88 0 1.24-0.34 1.24-1.18v-5.71c0-0.84-0.36-1.18-1.24-1.18z"/>
 <path d="m11.2 8.5997c0.22 0.32 0.61 0.5 1.06 0.5h2.33c0.15 0 0.3 0.06006 0.39 0.18006 0.1 0.12 0.14 0.26994 0.12 0.43994l-0.29 1.8601c-0.12 0.55 0.25 1.18 0.8 1.37 0.52 0.19 1.12-0.07 1.37-0.44l2.39-3.55 0.07-0.12v-5.02l-0.09-0.09002-1.8-1.39c-0.24-0.24-0.78-0.37005-1.16-0.37005h-2.21c-0.76 0-1.52 0.57002-1.7 1.27l-1.4 4.25c-0.14 0.4-0.1 0.79998 0.12 1.11z" opacity=".4"/>
 <path d="m20.53 10.67h0.58c0.88 0 1.24-0.34 1.24-1.18v-5.71c0-0.84-0.36-1.18-1.24-1.18h-0.58c-0.88 0-1.24 0.34005-1.24 1.18v5.71c0 0.83998 0.36 1.18 1.24 1.18z"/>
</svg>
