<?xml version="1.0" encoding="UTF-8"?>
<svg width="24" height="24" viewBox="0 0 24 24" xmlns="http://www.w3.org/2000/svg">
 <path d="m10.75 2.4503c0.69-0.59 1.82-0.59 2.52 0l1.58 1.36c0.3 0.26 0.86 0.47003 1.26 0.47003h1.7c1.06 0 1.93 0.86999 1.93 1.93v1.7c0 0.39 0.21 0.96001 0.47 1.26l1.36 1.58c0.59 0.69 0.59 1.82 0 2.52l-1.36 1.58c-0.26 0.3-0.47 0.86-0.47 1.26v1.7c0 1.06-0.87 1.93-1.93 1.93h-1.7c-0.39 0-0.96 0.21-1.26 0.47l-1.58 1.36c-0.69 0.59-1.82 0.59-2.52 0l-1.58-1.36c-0.3-0.26-0.86001-0.47-1.26-0.47h-1.73c-1.06 0-1.93-0.87-1.93-1.93v-1.71c0-0.39-0.20999-0.95-0.45999-1.25l-1.35-1.59c-0.58-0.69-0.58-1.81 0-2.5l1.35-1.59c0.25-0.3 0.45999-0.86 0.45999-1.25v-1.71c0-1.06 0.86999-1.93 1.93-1.93h1.73c0.39 0 0.96001-0.21003 1.26-0.47003l1.58-1.36z" opacity=".4"/>
 <path d="m16.58 11.07c-0.19-0.27-0.51-0.4199-0.89-0.4199h-1.95c-0.13 0-0.25-0.0501-0.33-0.1501s-0.12-0.23-0.1-0.37l0.24-1.56c0.1-0.46-0.21-0.99001-0.67-1.14-0.43-0.16-0.94 0.05998-1.14 0.35998l-1.94 2.88v-0.36c0-0.69997-0.29998-0.98996-1.04-0.98996h-0.49002c-0.74 0-1.04 0.28999-1.04 0.98996v4.7801c0 0.7 0.29998 0.99 1.04 0.99h0.49002c0.7 0 1-0.2701 1.03-0.9101l1.47 1.13c0.2 0.2 0.65 0.31 0.97 0.31h1.85c0.64 0 1.28-0.48 1.42-1.07l1.17-3.56c0.13-0.32 0.1-0.65-0.09-0.91z"/>
</svg>
