<svg width="24" height="24" viewBox="0 0 24 24"  xmlns="http://www.w3.org/2000/svg">
<path opacity="0.4" d="M10.7499 2.45007C11.4399 1.86007 12.5699 1.86007 13.2699 2.45007L14.8499 3.81005C15.1499 4.07005 15.7099 4.28009 16.1099 4.28009H17.8099C18.8699 4.28009 19.7399 5.15008 19.7399 6.21008V7.91003C19.7399 8.30003 19.9499 8.87004 20.2099 9.17004L21.5699 10.7501C22.1599 11.4401 22.1599 12.5701 21.5699 13.2701L20.2099 14.85C19.9499 15.15 19.7399 15.71 19.7399 16.11V17.8101C19.7399 18.8701 18.8699 19.74 17.8099 19.74H16.1099C15.7199 19.74 15.1499 19.9501 14.8499 20.2101L13.2699 21.5701C12.5799 22.1601 11.4499 22.1601 10.7499 21.5701L9.16989 20.2101C8.86989 19.9501 8.30988 19.74 7.90988 19.74H6.17987C5.11987 19.74 4.24988 18.8701 4.24988 17.8101V16.1C4.24988 15.71 4.03989 15.15 3.78989 14.85L2.43988 13.2601C1.85988 12.5701 1.85988 11.4501 2.43988 10.7601L3.78989 9.17004C4.03989 8.87004 4.24988 8.31004 4.24988 7.92004V6.21008C4.24988 5.15008 5.11987 4.28009 6.17987 4.28009H7.90988C8.29988 4.28009 8.86989 4.07005 9.16989 3.81005L10.7499 2.45007Z" />
<path d="M16.58 11.07C16.39 10.8 16.07 10.65 15.69 10.65H13.74C13.61 10.65 13.49 10.6 13.41 10.5C13.33 10.4 13.29 10.27 13.31 10.13L13.55 8.56998C13.65 8.10998 13.34 7.57997 12.88 7.42997C12.45 7.26997 11.94 7.48995 11.74 7.78995L9.79996 10.67V10.31C9.79996 9.60997 9.49998 9.31998 8.75998 9.31998H8.26996C7.52996 9.31998 7.22998 9.60997 7.22998 10.31V15.09C7.22998 15.79 7.52996 16.08 8.26996 16.08H8.75998C9.45998 16.08 9.75998 15.81 9.78998 15.17L11.26 16.3C11.46 16.5 11.91 16.61 12.23 16.61H14.08C14.72 16.61 15.36 16.13 15.5 15.54L16.67 11.98C16.8 11.66 16.77 11.33 16.58 11.07Z" />
</svg>
