<?xml version="1.0" encoding="UTF-8"?>
<svg width="24" height="24" viewBox="0 0 24 24" xmlns="http://www.w3.org/2000/svg">
 <path d="m19.07 14.24c-0.29 0.29-0.75 0.29-1.03 0-0.29-0.29-0.29-0.75 0-1.03 2-2 2-5.25 0-7.24s-5.25-2-7.24 0c-1.99 2-2 5.25 0 7.24 0.29 0.29 0.29 0.75 0 1.03-0.29 0.29-0.75 0.29-1.03 0-2.57-2.57-2.57-6.75 0-9.31 2.57-2.56 6.75-2.57 9.31 0s2.56 6.74-0.01 9.31z"/>
 <path d="m19.07 4.9299c2.57 2.57 2.57 6.74 0 9.31-0.88 0.88-1.96 1.46-3.09 1.74 0.53-2.16-0.05-4.53-1.74-6.22-1.69-1.69-4.06-2.27-6.22-1.74 0.28-1.13 0.85-2.21 1.74-3.09 2.57-2.57 6.74-2.57 9.31 0z" opacity=".4"/>
 <path d="m4.9302 9.76c0.29-0.29 0.75-0.29 1.03 0 0.29 0.29002 0.29 0.75002 0 1.03-2 2-2 5.25 0 7.24s5.25 2 7.24 0 2-5.25 0-7.24c-0.29-0.29-0.29-0.75 0-1.03 0.29-0.29 0.75-0.29 1.03 0 2.57 2.57 2.57 6.75 0 9.31s-6.75 2.57-9.31 0-2.56-6.74 0.01-9.31z"/>
 <path d="m14.24 9.76c1.69 1.69 2.27 4.06 1.74 6.22-0.28 1.13-0.86 2.21-1.74 3.09-2.57 2.57-6.74 2.57-9.31 0s-2.57-6.74 0-9.31c0.88-0.89 1.96-1.46 3.09-1.74 2.16-0.53 4.53 0.05 6.22 1.74z" opacity=".5"/>
</svg>
