<?xml version="1.0" encoding="UTF-8"?>
<svg width="24" height="24" viewBox="0 0 24 24" xmlns="http://www.w3.org/2000/svg">
 <path d="m11 7.5v9c0 0.55-0.45 1-1 1h-2.5c-1.52 0-2.89-0.62-3.89-1.61-0.94-0.95-1.55-2.24-1.61-3.67-0.12-3.14 2.62-5.72 5.77-5.72h2.23c0.55001 0 1 0.45 1 1z" opacity=".4"/>
 <path d="m22 11.78c0.13 3.15-2.61 5.72-5.76 5.72h-2.23c-0.55 0-1-0.45-1-1v-9c0-0.55 0.45-1 1-1h2.5c1.52 0 2.89 0.62 3.89 1.61 0.93 0.95 1.54 2.24 1.6 3.67z" opacity=".4"/>
 <path d="m16 12.75h-8c-0.41 0-0.75-0.34-0.75-0.75s0.34-0.75 0.75-0.75h8c0.41 0 0.75 0.34 0.75 0.75s-0.34 0.75-0.75 0.75z"/>
</svg>
