<?xml version="1.0" encoding="UTF-8"?>
<svg width="24" height="24" viewBox="0 0 24 24" xmlns="http://www.w3.org/2000/svg">
 <path d="m16.19 2h-8.37c-3.64 0-5.81 2.17-5.81 5.81v8.37c0 3.64 2.17 5.81 5.81 5.81h8.37c3.64 0 5.81-2.17 5.81-5.81v-8.37c0-3.64-2.17-5.81-5.81-5.81z" opacity=".4"/>
 <path d="m8.1801 16.77h-0.06999c-0.97-0.09-1.88-0.54-2.56-1.26-1.6-1.68-1.6-4.41 0-6.09l2.19-2.3c0.78-0.82 1.83-1.28 2.95-1.28s2.17 0.44999 2.95 1.28c1.6 1.68 1.6 4.41 0 6.09l-1.09 1.15c-0.29 0.3-0.76 0.31-1.06 0.03-0.3-0.29-0.31-0.76-0.03-1.06l1.09-1.15c1.06-1.11 1.06-2.92 0-4.02-0.99-1.04-2.73-1.04-3.73 0l-2.19 2.3c-1.06 1.11-1.06 2.92 0 4.02 0.43 0.46 1.01 0.74 1.62 0.8 0.41 0.04 0.71 0.41 0.67 0.82-0.03 0.38-0.36 0.67-0.74 0.67z"/>
 <path d="m13.31 18.16c-1.12 0-2.17-0.45-2.95-1.28-1.6-1.68-1.6-4.41 0-6.09l1.09-1.15c0.29-0.3 0.76-0.31003 1.06-0.03003 0.3 0.29 0.3099 0.76002 0.0299 1.06l-1.0899 1.15c-1.06 1.11-1.06 2.92 0 4.02 0.99 1.04 2.7299 1.05 3.7299 0l2.1901-2.3c1.06-1.11 1.06-2.92 0-4.02-0.43-0.46-1.01-0.73999-1.62-0.79999-0.41-0.04-0.71-0.41001-0.67-0.82001s0.3999-0.71998 0.8199-0.66998c0.97 0.1 1.8801 0.53998 2.5601 1.26 1.6 1.68 1.6 4.41 0 6.09l-2.19 2.3c-0.79 0.83-1.84 1.28-2.96 1.28z"/>
</svg>
