<svg width="24" height="24" viewBox="0 0 24 24"  xmlns="http://www.w3.org/2000/svg">
<path d="M12.5 14.75H9.99999C9.58999 14.75 9.24999 14.41 9.24999 14C9.24999 13.59 9.58999 13.25 9.99999 13.25H12.5C15.12 13.25 17.25 11.12 17.25 8.5C17.25 5.88 15.12 3.75 12.5 3.75H7.49999C4.87999 3.75 2.74999 5.88 2.74999 8.5C2.74999 9.6 3.13999 10.67 3.83999 11.52C4.09999 11.84 4.05999 12.31 3.73999 12.58C3.41999 12.84 2.94999 12.8 2.67999 12.48C1.74999 11.36 1.23999 9.95 1.23999 8.5C1.23999 5.05 4.03999 2.25 7.48999 2.25H12.49C15.94 2.25 18.74 5.05 18.74 8.5C18.74 11.95 15.95 14.75 12.5 14.75Z" />
<path opacity="0.4" d="M16.5 21.75H11.5C8.05 21.75 5.25 18.95 5.25 15.5C5.25 12.05 8.05 9.25 11.5 9.25H14C14.41 9.25 14.75 9.59 14.75 10C14.75 10.41 14.41 10.75 14 10.75H11.5C8.88 10.75 6.75 12.88 6.75 15.5C6.75 18.12 8.88 20.25 11.5 20.25H16.5C19.12 20.25 21.25 18.12 21.25 15.5C21.25 14.4 20.86 13.33 20.16 12.48C19.9 12.16 19.94 11.69 20.26 11.42C20.58 11.15 21.05 11.2 21.32 11.52C22.25 12.64 22.76 14.05 22.76 15.5C22.75 18.95 19.95 21.75 16.5 21.75Z" />
</svg>
