<svg width="20" height="20" viewBox="0 0 20 20"  xmlns="http://www.w3.org/2000/svg">
<path d="M11.2114 12.9966C11.1821 12.9675 11.1424 12.9512 11.1011 12.9512C11.0597 12.9512 11.0201 12.9675 10.9907 12.9966L8.72119 15.2661C7.67041 16.3169 5.89697 16.4282 4.73682 15.2661C3.57471 14.104 3.68604 12.3325 4.73682 11.2817L7.00635 9.01221C7.0669 8.95166 7.0669 8.85205 7.00635 8.7915L6.229 8.01416C6.19964 7.98508 6.15998 7.96877 6.11865 7.96877C6.07732 7.96877 6.03767 7.98508 6.0083 8.01416L3.73877 10.2837C2.08643 11.936 2.08643 14.6099 3.73877 16.2603C5.39111 17.9106 8.06494 17.9126 9.71533 16.2603L11.9849 13.9907C12.0454 13.9302 12.0454 13.8306 11.9849 13.77L11.2114 12.9966ZM16.2622 3.73877C14.6099 2.08643 11.936 2.08643 10.2856 3.73877L8.01416 6.0083C7.98508 6.03767 7.96877 6.07733 7.96877 6.11865C7.96877 6.15998 7.98508 6.19964 8.01416 6.229L8.78955 7.0044C8.8501 7.06494 8.94971 7.06494 9.01025 7.0044L11.2798 4.73486C12.3306 3.68408 14.104 3.57275 15.2642 4.73486C16.4263 5.89697 16.3149 7.66846 15.2642 8.71924L12.9946 10.9888C12.9656 11.0181 12.9492 11.0578 12.9492 11.0991C12.9492 11.1404 12.9656 11.1801 12.9946 11.2095L13.772 11.9868C13.8325 12.0474 13.9321 12.0474 13.9927 11.9868L16.2622 9.71729C17.9126 8.06494 17.9126 5.39111 16.2622 3.73877ZM11.9165 7.27197C11.8871 7.24289 11.8475 7.22658 11.8062 7.22658C11.7648 7.22658 11.7252 7.24289 11.6958 7.27197L7.27197 11.6938C7.24289 11.7232 7.22658 11.7629 7.22658 11.8042C7.22658 11.8455 7.24289 11.8852 7.27197 11.9146L8.04541 12.688C8.10596 12.7485 8.20557 12.7485 8.26611 12.688L12.688 8.26611C12.7485 8.20557 12.7485 8.10596 12.688 8.04541L11.9165 7.27197Z" />
</svg>
