<?xml version="1.0" encoding="UTF-8"?>
<svg width="24" height="24" viewBox="0 0 24 24" xmlns="http://www.w3.org/2000/svg">
 <path d="m15.41 18.59c-0.4 0-0.73-0.33-0.73-0.73s0.33-0.73 0.73-0.73c2.82 0 5.12-2.3 5.12-5.12 0-2.82-2.3-5.12-5.12-5.12s-5.12 2.3-5.12 5.12c0 0.4-0.33002 0.73-0.73002 0.73s-0.73-0.33-0.73-0.73c0-3.63 2.95-6.59 6.59-6.59s6.58 2.95 6.58 6.58c0 3.63-2.95 6.59-6.59 6.59z"/>
 <path d="m22 12c0 3.64-2.95 6.59-6.59 6.59-1.25 0-2.42-0.35-3.41-0.96 1.9-1.15 3.17-3.24 3.17-5.63 0-2.39-1.27-4.48-3.17-5.63 1-0.6 2.17-0.96 3.41-0.96 3.64 0 6.59 2.95 6.59 6.59z" opacity=".4"/>
 <path d="m8.59 5.41c0.4 0 0.73 0.33 0.73 0.73s-0.33 0.73-0.73 0.73c-2.82 0-5.12 2.3-5.12 5.12 0 2.82 2.3 5.12 5.12 5.12s5.12-2.3 5.12-5.12c0-0.4 0.33-0.73 0.73-0.73s0.73 0.33 0.73 0.73c0 3.63-2.95 6.59-6.59 6.59s-6.58-2.95-6.58-6.58c0-3.63 2.95-6.59 6.59-6.59z"/>
 <path d="m15.17 12c0 2.39-1.27 4.48-3.17 5.63-1 0.6-2.17 0.96-3.41 0.96-3.64 0-6.59-2.95-6.59-6.59 0-3.64 2.95-6.59 6.59-6.59 1.24 0 2.41 0.36 3.41 0.96 1.9 1.15 3.17 3.24 3.17 5.63z" opacity=".5"/>
</svg>
