<svg width="24" height="24" viewBox="0 0 24 24"  xmlns="http://www.w3.org/2000/svg">
<path d="M15.4101 18.59C15.0101 18.59 14.6801 18.26 14.6801 17.86C14.6801 17.46 15.0101 17.13 15.4101 17.13C18.2301 17.13 20.5301 14.83 20.5301 12.01C20.5301 9.19004 18.2301 6.89004 15.4101 6.89004C12.5901 6.89004 10.2901 9.19004 10.2901 12.01C10.2901 12.41 9.96008 12.74 9.56008 12.74C9.16008 12.74 8.83008 12.41 8.83008 12.01C8.83008 8.38004 11.7801 5.42004 15.4201 5.42004C19.0601 5.42004 22.0001 8.37004 22.0001 12C22.0001 15.63 19.0501 18.59 15.4101 18.59Z" />
<path opacity="0.4" d="M22 12C22 15.64 19.05 18.59 15.41 18.59C14.16 18.59 12.99 18.24 12 17.63C13.9 16.48 15.17 14.39 15.17 12C15.17 9.61003 13.9 7.52003 12 6.37003C13 5.77003 14.17 5.41003 15.41 5.41003C19.05 5.41003 22 8.36003 22 12Z" />
<path d="M8.59 5.41003C8.99 5.41003 9.32 5.74003 9.32 6.14003C9.32 6.54003 8.99 6.87003 8.59 6.87003C5.77 6.87003 3.47 9.17003 3.47 11.99C3.47 14.81 5.77 17.11 8.59 17.11C11.41 17.11 13.71 14.81 13.71 11.99C13.71 11.59 14.04 11.26 14.44 11.26C14.84 11.26 15.17 11.59 15.17 11.99C15.17 15.62 12.22 18.58 8.58 18.58C4.94 18.58 2 15.63 2 12C2 8.37003 4.95 5.41003 8.59 5.41003Z" />
<path opacity="0.5" d="M15.17 12C15.17 14.39 13.9 16.48 12 17.63C11 18.23 9.83 18.59 8.59 18.59C4.95 18.59 2 15.64 2 12C2 8.36003 4.95 5.41003 8.59 5.41003C9.83 5.41003 11 5.77003 12 6.37003C13.9 7.52003 15.17 9.61003 15.17 12Z" />
</svg>
