<?xml version="1.0" encoding="UTF-8"?>
<svg width="24" height="24" viewBox="0 0 24 24" xmlns="http://www.w3.org/2000/svg">
 <path d="m12 22c5.5228 0 10-4.4772 10-10 0-5.5228-4.4772-10-10-10-5.5228 0-10 4.4772-10 10 0 5.5228 4.4772 10 10 10z" opacity=".4"/>
 <path d="m12.78 6.3594c0.66 0 1.14 0.61999 0.97 1.26l-1.79 6.68h3.03c0.62 0 1.1 0.56 0.98 1.18l-0.15 0.84c-0.09 0.48-0.5 0.82-0.98 0.82h-5.54c-0.66 0-1.14-0.64-0.96-1.27l2.61-9.14c0.06-0.21 0.26-0.36 0.48-0.36h1.35v-0.00999z"/>
 <path d="m7.3201 13.271c-0.35 0-0.66001-0.25-0.73001-0.6-0.08-0.41 0.17999-0.8 0.58999-0.88l7.7-1.54c0.4-0.08 0.8 0.18 0.88 0.59s-0.18 0.8-0.59 0.88l-7.7 1.54c-0.05 0.01-0.09999 0.01-0.14999 0.01z"/>
</svg>
