<svg width="24" height="24" viewBox="0 0 24 24"  xmlns="http://www.w3.org/2000/svg">
<path opacity="0.4" d="M12 22C17.5228 22 22 17.5228 22 12C22 6.47715 17.5228 2 12 2C6.47715 2 2 6.47715 2 12C2 17.5228 6.47715 22 12 22Z" />
<path d="M12.7799 6.35938C13.4399 6.35938 13.9199 6.97937 13.7499 7.61937L11.9599 14.2994H14.9899C15.6099 14.2994 16.0899 14.8594 15.9699 15.4794L15.8199 16.3194C15.7299 16.7994 15.3199 17.1394 14.8399 17.1394H9.29989C8.63989 17.1394 8.15989 16.4994 8.33989 15.8694L10.9499 6.72937C11.0099 6.51937 11.2099 6.36937 11.4299 6.36937H12.7799V6.35938Z" />
<path d="M7.32014 13.2708C6.97014 13.2708 6.66013 13.0208 6.59013 12.6708C6.51013 12.2608 6.77012 11.8708 7.18012 11.7908L14.8801 10.2508C15.2801 10.1708 15.6801 10.4308 15.7601 10.8408C15.8401 11.2508 15.5801 11.6408 15.1701 11.7208L7.47013 13.2608C7.42013 13.2708 7.37014 13.2708 7.32014 13.2708Z" />
</svg>
