<svg width="24" height="24" viewBox="0 0 24 24"  xmlns="http://www.w3.org/2000/svg">
<path d="M10.4199 13.7501C10.2899 13.7501 10.1599 13.7201 10.0399 13.6501C8.85994 12.9601 8.12994 11.6801 8.12994 10.3201C8.12994 8.19007 9.85994 6.45007 11.9999 6.45007C13.3699 6.45007 14.6499 7.18007 15.3399 8.37007C15.5499 8.73007 15.4299 9.19007 15.0699 9.40007C14.7099 9.61007 14.2499 9.49007 14.0399 9.13007C13.6199 8.39007 12.8399 7.94007 11.9999 7.94007C10.6999 7.94007 9.62994 9.00007 9.62994 10.3101C9.62994 11.1501 10.0799 11.9301 10.7999 12.3501C11.1599 12.5601 11.2799 13.0201 11.0699 13.3801C10.9299 13.6101 10.6799 13.7501 10.4199 13.7501Z" />
<path d="M5.98994 18.5601C5.75994 18.5601 5.52994 18.4501 5.37994 18.2501C2.97994 14.9601 2.13994 11.6201 2.88994 8.32007C3.66994 4.89007 6.18994 2.35007 9.62994 1.52007C13.2299 0.650071 17.0099 1.82007 19.2399 4.49007C19.5099 4.81007 19.4599 5.28007 19.1499 5.55007C18.8299 5.82007 18.3599 5.77007 18.0899 5.45007C16.2199 3.21007 13.0399 2.24007 9.97994 2.97007C7.05994 3.67007 5.00994 5.74007 4.34994 8.64007C3.69994 11.5001 4.44994 14.4301 6.58994 17.3501C6.82994 17.6801 6.75994 18.1501 6.42994 18.4001C6.29994 18.5101 6.13994 18.5601 5.98994 18.5601Z" />
<path d="M11.9999 22.7601C10.5199 22.7601 9.02994 22.2001 7.86994 21.0901C7.56994 20.8001 7.55994 20.3301 7.84994 20.0301C8.13994 19.7301 8.60994 19.7201 8.90994 20.0101C10.6399 21.6801 13.3499 21.6801 15.0799 20.0101C17.7499 17.4401 20.7099 13.3801 19.6499 8.67007C19.5599 8.27007 19.8099 7.86007 20.2199 7.77007C20.6199 7.68007 21.0299 7.93007 21.1199 8.34007C22.3399 13.7301 19.0799 18.2501 16.1299 21.0901C14.9699 22.2001 13.4799 22.7601 11.9999 22.7601Z" />
<path d="M1.99994 22.7501C1.80994 22.7501 1.61994 22.6801 1.46994 22.5301C1.17994 22.2401 1.17994 21.7601 1.46994 21.4701L21.4699 1.47007C21.7599 1.18007 22.2399 1.18007 22.5299 1.47007C22.8199 1.76007 22.8199 2.24007 22.5299 2.53007L2.52994 22.5301C2.37994 22.6801 2.18994 22.7501 1.99994 22.7501Z" />
</svg>
