<svg width="24" height="24" viewBox="0 0 24 24"  xmlns="http://www.w3.org/2000/svg">
<path d="M12.0002 22.76C10.5202 22.76 9.03018 22.2 7.87018 21.09C4.92018 18.25 1.66018 13.72 2.89018 8.33C4.00018 3.44 8.27018 1.25 12.0002 1.25C12.0002 1.25 12.0002 1.25 12.0102 1.25C15.7402 1.25 20.0102 3.44 21.1202 8.34C22.3402 13.73 19.0802 18.25 16.1302 21.09C14.9702 22.2 13.4802 22.76 12.0002 22.76ZM12.0002 2.75C9.09018 2.75 5.35018 4.3 4.36018 8.66C3.28018 13.37 6.24018 17.43 8.92018 20C10.6502 21.67 13.3602 21.67 15.0902 20C17.7602 17.43 20.7202 13.37 19.6602 8.66C18.6602 4.3 14.9102 2.75 12.0002 2.75Z" />
<path d="M10.7502 13.75C10.5602 13.75 10.3702 13.68 10.2202 13.53L8.72018 12.03C8.43018 11.74 8.43018 11.26 8.72018 10.97C9.01018 10.68 9.49018 10.68 9.78018 10.97L10.7502 11.94L14.2202 8.47C14.5102 8.18 14.9902 8.18 15.2802 8.47C15.5702 8.76 15.5702 9.24 15.2802 9.53L11.2802 13.53C11.1302 13.68 10.9402 13.75 10.7502 13.75Z" />
</svg>
