<?xml version="1.0" encoding="UTF-8"?>
<svg width="24" height="24" viewBox="0 0 24 24" xmlns="http://www.w3.org/2000/svg">
 <path d="m18.89 5.11-13.1 13.1c-1.89-2.57-3.25-5.85-2.41-9.52 0.52-2.31 1.8-3.98 3.38-5.08 1.58-1.09 3.47-1.61 5.24-1.61 2.44 0 5.12 0.98 6.89 3.11z" opacity=".4"/>
 <path d="m15.78 20.98c-1.06 1.02-2.42 1.53-3.78 1.53s-2.72-0.52-3.78-1.54c-0.36-0.34-0.72-0.72-1.08-1.11l12.9-12.9c0.25 0.54 0.44 1.11 0.58 1.74 1.17 5.16-1.99 9.52-4.84 12.28z" opacity=".4"/>
 <path d="m21.77 2.2301c-0.3-0.31-0.78-0.31-1.08 0l-6.39 6.39c-0.54-0.74-1.39-1.18-2.3-1.18-1.58 0-2.87 1.29-2.87 2.87 0 0.9 0.44 1.75 1.18 2.3l-8.08 8.08c-0.31 0.3-0.31 0.78 0 1.08 0.15 0.15 0.34 0.23 0.54 0.23s0.39-0.08 0.54-0.23l18.46-18.46c0.31-0.3 0.31-0.78 0-1.08z"/>
</svg>
