<?xml version="1.0" encoding="UTF-8"?>
<svg width="24" height="24" viewBox="0 0 24 24" xmlns="http://www.w3.org/2000/svg">
 <path d="m14.53 12.42-1.45-1.45 1.4-1.4c0.29-0.29 0.29-0.77 0-1.06s-0.77-0.29-1.06 0l-1.4 1.4-1.45-1.45c-0.29-0.29-0.76996-0.29-1.06 0s-0.29 0.77 0 1.06l1.45 1.45-1.49 1.49c-0.29 0.29-0.29 0.77 0 1.06 0.15 0.15 0.34 0.22 0.53 0.22 0.18996 0 0.37996-0.07 0.52996-0.22l1.49-1.49 1.45 1.45c0.15 0.15 0.34 0.22 0.53 0.22s0.38-0.07 0.53-0.22c0.29-0.29 0.29-0.76 0-1.06z"/>
 <path d="m20.62 8.7c-1.04-4.63-5.08-6.7-8.62-6.7h-0.01c-3.53 0-7.56 2.07-8.61 6.69-1.18 5.16 1.98 9.53 4.84 12.29 1.06 1.02 2.42 1.53 3.78 1.53s2.72-0.51 3.77-1.53c2.86-2.76 6.02-7.12 4.85-12.28z" opacity=".4"/>
</svg>
