<svg width="24" height="24" viewBox="0 0 24 24"  xmlns="http://www.w3.org/2000/svg">
<path d="M12.0002 22.76C10.5202 22.76 9.03018 22.2 7.87018 21.09C4.92018 18.25 1.66018 13.72 2.89018 8.33C4.00018 3.44 8.27018 1.25 12.0002 1.25C12.0002 1.25 12.0002 1.25 12.0102 1.25C15.7402 1.25 20.0102 3.44 21.1202 8.34C22.3402 13.73 19.0802 18.25 16.1302 21.09C14.9702 22.2 13.4802 22.76 12.0002 22.76ZM12.0002 2.75C9.09018 2.75 5.35018 4.3 4.36018 8.66C3.28018 13.37 6.24018 17.43 8.92018 20C10.6502 21.67 13.3602 21.67 15.0902 20C17.7602 17.43 20.7202 13.37 19.6602 8.66C18.6602 4.3 14.9102 2.75 12.0002 2.75Z" />
<path d="M14.0002 13.71C13.8102 13.71 13.6202 13.64 13.4702 13.49L9.51018 9.53C9.22018 9.24 9.22018 8.76 9.51018 8.47C9.80018 8.18 10.2802 8.18 10.5702 8.47L14.5302 12.43C14.8202 12.72 14.8202 13.2 14.5302 13.49C14.3802 13.63 14.1902 13.71 14.0002 13.71Z" />
<path d="M10.0002 13.75C9.81018 13.75 9.62018 13.68 9.47018 13.53C9.18018 13.24 9.18018 12.76 9.47018 12.47L13.4302 8.51C13.7202 8.22 14.2002 8.22 14.4902 8.51C14.7802 8.8 14.7802 9.28 14.4902 9.57L10.5302 13.53C10.3802 13.68 10.1902 13.75 10.0002 13.75Z" />
</svg>
