<?xml version="1.0" encoding="UTF-8"?>
<svg width="24" height="24" viewBox="0 0 24 24" xmlns="http://www.w3.org/2000/svg">
 <path d="m13.63 15.72c0 0.9-0.73 1.63-1.63 1.63-0.64 0-1.19-0.37-1.45-0.9l2.18-2.18c0.53 0.26 0.9 0.81 0.9 1.45z"/>
 <path d="m7.35 9.4399c-4.1 0-5.35 1.25-5.35 5.35v1.86c0 2.05 0.31 3.39 1.14 4.21l5.96-5.96c0.28-1.01 1.07-1.8 2.08-2.08l3.38-3.38h-7.21z" opacity=".4"/>
 <path d="m18.13 5.87-1.26 1.26c-0.04-1.78-0.71-3.73-4.87-3.73-4.05 0-4.88 1.95-4.88 4.88v1.17c-0.51 0-0.98 0.03-1.4 0.08v-1.25c0-2.7 0.65-6.28 6.28-6.28 3.54 0 5.6 1.3 6.13 3.87z"/>
 <path d="m22 14.79v1.86c0 4.1-1.25 5.35-5.35 5.35h-9.3c-0.84 0-1.57-0.05-2.18-0.17l4.36-4.36c0.55998 0.77 1.45 1.27 2.47 1.27 1.67 0 3.02-1.35 3.02-3.02 0-1.02-0.5-1.91-1.27-2.47l3.79-3.79c3.39 0.19 4.46 1.54 4.46 5.33z" opacity=".4"/>
 <path d="m21.77 2.2299c-0.3-0.3-0.79-0.3-1.09 0l-18.45 18.46c-0.3 0.3-0.3 0.79 0 1.09 0.15 0.14 0.34 0.22 0.54 0.22s0.39-0.08 0.54-0.23l18.46-18.46c0.31-0.3 0.31-0.78 0-1.08z"/>
</svg>
