<?xml version="1.0" encoding="UTF-8"?>
<svg width="24" height="24" viewBox="0 0 24 24" xmlns="http://www.w3.org/2000/svg">
 <path d="m12 17.35c0.9002 0 1.63-0.7297 1.63-1.63 0-0.9002-0.7298-1.63-1.63-1.63s-1.63 0.7298-1.63 1.63c0 0.9003 0.7298 1.63 1.63 1.63z" opacity=".4"/>
 <path d="m16.65 9.4399h-9.3c-4.1 0-5.35 1.25-5.35 5.35v1.86c0 4.1 1.25 5.35 5.35 5.35h9.3c4.1 0 5.35-1.25 5.35-5.35v-1.86c0-4.1-1.25-5.35-5.35-5.35zm-4.65 9.3c-1.67 0-3.02-1.36-3.02-3.02s1.35-3.02 3.02-3.02 3.02 1.36 3.02 3.02-1.35 3.02-3.02 3.02z"/>
 <path d="m7.1202 9.45v-1.17c0-2.93 0.83-4.88 4.88-4.88 4.05 0 4.88 1.95 4.88 4.88v1.17c0.51 0.01 0.97 0.03 1.4 0.09v-1.26c0-2.7-0.65-6.28-6.28-6.28-5.63 0-6.28 3.58-6.28 6.28v1.25c0.42-0.05 0.89-0.08 1.4-0.08z" opacity=".4"/>
</svg>
