<?xml version="1.0" encoding="UTF-8"?>
<svg width="24" height="24" viewBox="0 0 24 24" xmlns="http://www.w3.org/2000/svg">
 <path d="m12 22c5.5228 0 10-4.4772 10-10 0-5.5228-4.4772-10-10-10-5.5228 0-10 4.4772-10 10 0 5.5228 4.4772 10 10 10z" opacity=".4"/>
 <path d="m15.75 10.73v-0.73c0-0.93 0-3.75-3.75-3.75-3.75 0-3.75 2.82-3.75 3.75v0.73c-1.22 0.27-1.63 1.06-1.63 2.77v1c0 2.2 0.68 2.88 2.88 2.88h5c2.2 0 2.88-0.68 2.88-2.88v-1c0-1.71-0.41-2.5-1.63-2.77zm-3.75 4.37c-0.61 0-1.1-0.49-1.1-1.1s0.49-1.1 1.1-1.1 1.1 0.49 1.1 1.1-0.49 1.1-1.1 1.1zm2.25-4.48h-4.5v-0.62c0-1.46 0.35998-2.25 2.25-2.25s2.25 0.79 2.25 2.25v0.62z"/>
</svg>
