<?xml version="1.0" encoding="UTF-8"?>
<svg width="24" height="24" viewBox="0 0 24 24" xmlns="http://www.w3.org/2000/svg">
 <path d="M9 7.2V16.79C9 20 11 22 14.2 22H16.79C19.99 22 21.99 20 21.99 16.8V7.2C22 4 20 2 16.8 2H14.2C11 2 9 4 9 7.2Z" opacity=".4"/>
 <path d="m5.5699 8.12-3.35 3.35c-0.29 0.29-0.29 0.77 0 1.06l3.35 3.35c0.29 0.29 0.77 0.29 1.06 0s0.29-0.77 0-1.06l-2.07-2.07h10.69c0.41 0 0.75-0.34 0.75-0.75s-0.34-0.75-0.75-0.75h-10.69l2.07-2.07c0.15-0.15 0.22-0.34 0.22-0.53s-0.07-0.39-0.22-0.53c-0.29-0.3-0.76-0.3-1.06 0z"/>
</svg>
