<svg width="24" height="24" viewBox="0 0 24 24"  xmlns="http://www.w3.org/2000/svg">
<path d="M8.7625 1.73002L8.8925 1.73002C13.3325 1.73002 15.4725 3.48002 15.8425 7.40002C15.8825 7.81002 15.5825 8.18002 15.1625 8.22002C14.7625 8.26002 14.3825 7.95002 14.3425 7.54002C14.0525 4.40002 12.5725 3.23002 8.8825 3.23002L8.7525 3.23002C4.6825 3.23002 3.2425 4.67002 3.2425 8.74002L3.2425 15.26C3.2425 19.33 4.6825 20.77 8.7525 20.77L8.8825 20.77C12.5925 20.77 14.0725 19.58 14.3425 16.38C14.3925 15.97 14.7425 15.66 15.1625 15.7C15.5825 15.73 15.8825 16.1 15.8525 16.51C15.5125 20.49 13.3625 22.27 8.8925 22.27L8.7625 22.27C3.8525 22.27 1.7525 20.17 1.7525 15.26L1.7525 8.74002C1.7525 3.83002 3.8525 1.73002 8.7625 1.73002Z" />
<path d="M9.0025 11.25L20.3825 11.25C20.7925 11.25 21.1325 11.59 21.1325 12C21.1325 12.41 20.7925 12.75 20.3825 12.75L9.0025 12.75C8.5925 12.75 8.2525 12.41 8.2525 12C8.2525 11.59 8.5925 11.25 9.0025 11.25Z" />
<path d="M18.1525 7.90002C18.3425 7.90002 18.5325 7.97002 18.6825 8.12002L22.0325 11.47C22.3225 11.76 22.3225 12.24 22.0325 12.53L18.6825 15.88C18.3925 16.17 17.9125 16.17 17.6225 15.88C17.3325 15.59 17.3325 15.11 17.6225 14.82L20.4425 12L17.6225 9.18002C17.3325 8.89002 17.3325 8.41002 17.6225 8.12002C17.7625 7.97002 17.9625 7.90002 18.1525 7.90002Z" />
</svg>
