<?xml version="1.0" encoding="UTF-8"?>
<svg width="24" height="24" viewBox="0 0 24 24" xmlns="http://www.w3.org/2000/svg">
 <path d="m13.24 2c0.47 0 0.86 0.38 0.86 0.86v18.29c0 0.47-0.38 0.86-0.86 0.86-5.89 0-10-4.11-10-10s4.12-10.01 10-10.01z" opacity=".4"/>
 <path d="m20.54 11.54-2.84-2.85c-0.29-0.29-0.77-0.29-1.06 0s-0.29 0.77 0 1.06l1.56 1.56h-9.57c-0.41 0-0.75 0.34-0.75 0.75s0.34 0.75 0.75 0.75h9.57l-1.56 1.56c-0.29 0.29-0.29 0.77 0 1.06 0.15 0.15 0.34 0.22 0.53 0.22s0.38-0.07 0.53-0.22l2.84-2.85c0.29-0.28 0.29-0.75 0-1.04z"/>
</svg>
