<?xml version="1.0" encoding="UTF-8"?>
<svg width="24" height="24" viewBox="0 0 24 24" xmlns="http://www.w3.org/2000/svg">
 <path d="m19.86 8.0896c0 0.15 0 0.3-0.01 0.44-1.53-0.57-3.33-0.22-4.53 0.86-0.81-0.73-1.86-1.14-2.98-1.14-2.46 0-4.46 2.01-4.46 4.49 0 2.83 1.42 4.9 2.78 6.24-0.11-0.01-0.2-0.03-0.28-0.06-2.59-0.89-8.38-4.57-8.38-10.83 0-2.76 2.22-4.99 4.96-4.99 1.63 0 3.07 0.77999 3.97 1.99 0.91-1.21 2.35-1.99 3.97-1.99 2.74 0 4.96 2.23 4.96 4.99z" opacity=".4"/>
 <path d="m18 9.5898c-1.07 0-2.04 0.52006-2.64 1.3201-0.6-0.8-1.56-1.3201-2.64-1.3201-1.82 0-3.3 1.4801-3.3 3.3201 0 0.71 0.11 1.3599 0.31 1.9599 0.93998 2.97 3.83 4.7401 5.26 5.2301 0.2 0.07 0.53 0.07 0.74 0 1.43-0.49 4.32-2.2601 5.26-5.2301 0.2-0.61 0.31-1.2599 0.31-1.9599 0-1.84-1.48-3.3201-3.3-3.3201z"/>
</svg>
