<?xml version="1.0" encoding="UTF-8"?>
<svg width="24" height="24" viewBox="0 0 24 24" xmlns="http://www.w3.org/2000/svg">
 <path d="m18 13.75c0 4.28-3.47 7.75-7.75 7.75s-7.75-3.47-7.75-7.75 3.47-7.75 7.75-7.75c1.87 0 3.58 0.66 4.92 1.77h0.01c0.39 0.32 0.74 0.67 1.05 1.06 1.11 1.34 1.77 3.05 1.77 4.92z" opacity=".4"/>
 <path d="m22.25 2.5v6.5c0 0.41-0.34 0.75-0.75 0.75s-0.75-0.34-0.75-0.75v-4.69l-4.52 4.52c-0.31-0.39-0.66-0.74-1.05-1.06l4.51-4.52h-4.69c-0.41 0-0.75-0.34-0.75-0.75s0.34-0.75 0.75-0.75h6.5c0.1 0 0.19 0.02 0.29 0.06 0.18 0.07 0.33 0.22 0.4 0.4 0.04 0.1 0.06 0.19 0.06 0.29z"/>
</svg>
