<?xml version="1.0" encoding="UTF-8"?>
<svg width="24" height="24" viewBox="0 0 24 24" xmlns="http://www.w3.org/2000/svg">
 <path d="m19.88 20.94c-0.95 0.7-2.2 1.06-3.69 1.06h-8.38c-0.24 0-0.47999-0.01-0.70999-0.04l6.9-6.9 5.88 5.88z" opacity=".4"/>
 <path d="m22 7.8101v8.38c0 1.49-0.36 2.74-1.06 3.69l-5.88-5.88 6.9-6.9c0.03 0.23 0.04 0.47 0.04 0.71z" opacity=".4"/>
 <path d="m15.06 14 5.88 5.88c-0.29 0.42-0.64 0.77-1.06 1.06l-5.88-5.88-6.9 6.9c-0.64-0.04-1.22-0.17-1.75-0.37-2.14-0.78-3.35-2.68-3.35-5.4v-8.38c0-3.64 2.17-5.81 5.81-5.81h8.38c2.72 0 4.62 1.21 5.4 3.35 0.2 0.53 0.33 1.11 0.37 1.75l-6.9 6.9z" opacity=".4"/>
 <path d="m15.06 14 5.88 5.88c-0.29 0.42-0.64 0.77-1.06 1.06l-5.88-5.88-6.9 6.9c-0.64-0.04-1.22-0.17-1.75-0.37l0.38998-0.39 15.85-15.85c0.2 0.53 0.33 1.11 0.37 1.75l-6.9 6.9z"/>
 <path d="m12.24 7.9298c-0.38-1.65-1.84-2.39-3.12-2.4-1.28 0-2.74 0.73999-3.12 2.39-0.42 1.83 0.69999 3.36 1.71 4.32 0.4 0.38 0.90001 0.56 1.41 0.56s1.01-0.19 1.41-0.56c1.01-0.96 2.13-2.49 1.71-4.31zm-3.09 1.56c-0.55 0-1-0.45-1-1s0.44-1 1-1h0.01001c0.55 0 0.99998 0.45 0.99998 1s-0.45999 1-1.01 1z"/>
</svg>
