<?xml version="1.0" encoding="UTF-8"?>
<svg width="24" height="24" viewBox="0 0 24 24" xmlns="http://www.w3.org/2000/svg">
 <path d="m8.56 3.3398v14.33c-0.34 0.01-0.68 0.09-0.93 0.24l-2.35 1.34c-1.64 0.94-2.99 0.16-2.99-1.74v-9.73c0-0.63 0.45-1.41 1.01-1.73l4.33-2.48c0.25-0.14 0.59-0.22 0.93-0.23z" opacity=".4"/>
 <path d="m15.73 6.3299v14.33c-0.35 0.01-0.69-0.05-0.96-0.18l-5.25-2.63c-0.27-0.13-0.61-0.19-0.96-0.18v-14.33c0.35-0.01 0.69 0.05 0.96 0.18l5.25 2.63c0.27 0.13 0.61 0.19 0.96 0.18z"/>
 <path d="m22 6.4901v9.73c0 0.63-0.45 1.41-1.01 1.73l-4.33 2.48c-0.25 0.14-0.59 0.22-0.93 0.23v-14.33c0.34-0.01 0.68-0.09 0.93-0.24l2.35-1.34c1.64-0.94 2.99-0.16 2.99 1.74z" opacity=".4"/>
</svg>
