<?xml version="1.0" encoding="UTF-8"?>
<svg width="24" height="24" viewBox="0 0 24 24" xmlns="http://www.w3.org/2000/svg">
 <path d="m22 12c0 5.04-3.74 9.21-8.59 9.9-0.46 0.07-0.93 0.1-1.41 0.1-2.76 0-5.26-1.12-7.07-2.93s-2.93-4.31-2.93-7.07c0-5.52 4.48-10 10-10 2.76 0 5.26 1.12 7.07 2.93s2.93 4.31 2.93 7.07z" opacity=".4"/>
 <path d="m14.83 10.23-2.4801 2.48 6.53 6.53c-0.36 0.35-0.75 0.67-1.16 0.96l-6.43-6.43-2.47 2.47 5.12 5.13c0.11 0.11 0.1801 0.25 0.2101 0.39v0.01c-0.24 0.05-0.4901 0.1-0.7401 0.13-0.32 0.05-0.64 0.08-0.97 0.09l-4.68-4.69-2.28 2.28c-0.19-0.16-0.36999-0.33-0.54999-0.51s-0.35001-0.36-0.51001-0.55l14.1-14.1c0.19 0.16 0.3699 0.33 0.5499 0.51s0.3501 0.36 0.5101 0.55l-3.69 3.69 5.69 5.69c-0.16 0.53-0.3601 1.03-0.6001 1.52l-6.1499-6.15z"/>
</svg>
