<svg width="24" height="24" viewBox="0 0 24 24"  xmlns="http://www.w3.org/2000/svg">
<path opacity="0.4" d="M21.97 11.9998C21.97 14.9398 20.69 17.5998 18.65 19.4098C16.89 21.0098 14.56 21.9698 12 21.9698C6.50003 21.9698 2.03003 17.4998 2.03003 11.9998C2.03003 6.49979 6.50003 2.02979 12 2.02979C14.56 2.02979 16.89 2.98979 18.65 4.58979C20.69 6.39979 21.97 9.05979 21.97 11.9998Z" />
<path d="M11.97 16.3902C11.95 18.0402 10.72 18.4402 9.57003 17.9802C7.20003 17.0302 5.53003 14.7102 5.53003 12.0002C5.53003 9.29024 7.20003 6.97024 9.57003 6.01024C10.72 5.55024 11.95 5.96024 11.97 7.60024V16.3902Z" />
</svg>
