<svg width="24" height="24" viewBox="0 0 24 24"  xmlns="http://www.w3.org/2000/svg">
<path d="M11.9998 22.7198C6.08979 22.7198 1.27979 17.9098 1.27979 11.9998C1.27979 6.08979 6.08979 1.27979 11.9998 1.27979C14.6498 1.27979 17.1898 2.25979 19.1498 4.02979C21.4198 6.03979 22.7198 8.94979 22.7198 11.9998C22.7198 15.0498 21.4198 17.9598 19.1398 19.9798C17.1898 21.7498 14.6498 22.7198 11.9998 22.7198ZM11.9998 2.77979C6.90979 2.77979 2.77979 6.91979 2.77979 11.9998C2.77979 17.0798 6.91979 21.2198 11.9998 21.2198C14.2798 21.2198 16.4598 20.3798 18.1498 18.8498C20.1098 17.1098 21.2298 14.6198 21.2298 11.9898C21.2298 9.35979 20.1098 6.86979 18.1598 5.13979C16.4598 3.61979 14.2798 2.77979 11.9998 2.77979Z" />
<path d="M10.4398 18.9098C10.0698 18.9098 9.67979 18.8298 9.29979 18.6798C6.55979 17.5798 4.77979 14.9498 4.77979 11.9998C4.77979 9.04979 6.54979 6.41979 9.29979 5.31979C10.1698 4.96979 11.0498 5.01979 11.7098 5.45979C12.3498 5.88979 12.7098 6.64979 12.7298 7.59979V16.3998C12.7198 17.3498 12.3598 18.1198 11.7098 18.5398C11.3398 18.7898 10.8998 18.9098 10.4398 18.9098ZM10.4398 6.58979C10.2598 6.58979 10.0598 6.62979 9.85979 6.70979C7.67979 7.57979 6.27979 9.65979 6.27979 11.9998C6.27979 14.3398 7.67979 16.4198 9.85979 17.2898C10.2598 17.4498 10.6398 17.4498 10.8798 17.2998C11.1598 17.1098 11.2198 16.6998 11.2298 16.3898V7.60979C11.2298 7.30979 11.1598 6.88979 10.8798 6.69979C10.7598 6.62979 10.6098 6.58979 10.4398 6.58979Z" />
</svg>
