<svg width="24" height="24" viewBox="0 0 24 24"  xmlns="http://www.w3.org/2000/svg">
<path d="M21.6998 6.39H14.4298C14.0198 6.39 13.6798 6.05 13.6798 5.64C13.6798 5.23 14.0198 4.89 14.4298 4.89H21.6998C22.1098 4.89 22.4498 5.23 22.4498 5.64C22.4498 6.05 22.1098 6.39 21.6998 6.39Z" />
<path d="M9.5798 6.39H2.2998C1.8898 6.39 1.5498 6.05 1.5498 5.64C1.5498 5.23 1.8898 4.89 2.2998 4.89H9.5698C9.9798 4.89 10.3198 5.23 10.3198 5.64C10.3198 6.05 9.9898 6.39 9.5798 6.39Z" />
<path d="M21.6998 16.08H14.4298C14.0198 16.08 13.6798 15.74 13.6798 15.33C13.6798 14.92 14.0198 14.58 14.4298 14.58H21.6998C22.1098 14.58 22.4498 14.92 22.4498 15.33C22.4498 15.74 22.1098 16.08 21.6998 16.08Z" />
<path d="M21.6998 22.14H14.4298C14.0198 22.14 13.6798 21.8 13.6798 21.39C13.6798 20.98 14.0198 20.64 14.4298 20.64H21.6998C22.1098 20.64 22.4498 20.98 22.4498 21.39C22.4498 21.8 22.1098 22.14 21.6998 22.14Z" />
<path d="M18.0898 10.02C17.6798 10.02 17.3398 9.68 17.3398 9.27V2C17.3398 1.59 17.6798 1.25 18.0898 1.25C18.4998 1.25 18.8398 1.59 18.8398 2V9.27C18.8398 9.69 18.5098 10.02 18.0898 10.02Z" />
<path d="M2.2998 22.75C2.1098 22.75 1.9198 22.68 1.7698 22.53C1.4798 22.24 1.4798 21.76 1.7698 21.47L9.0398 14.2C9.3298 13.91 9.80981 13.91 10.0998 14.2C10.3898 14.49 10.3898 14.97 10.0998 15.26L2.8298 22.53C2.6898 22.68 2.4998 22.75 2.2998 22.75Z" />
<path d="M9.5798 22.75C9.3898 22.75 9.19981 22.68 9.04981 22.53L1.7798 15.26C1.4898 14.97 1.4898 14.49 1.7798 14.2C2.0698 13.91 2.5498 13.91 2.8398 14.2L10.1098 21.47C10.3998 21.76 10.3998 22.24 10.1098 22.53C9.9598 22.68 9.7698 22.75 9.5798 22.75Z" />
</svg>
