<svg width="24" height="24" viewBox="0 0 24 24"  xmlns="http://www.w3.org/2000/svg">
<path opacity="0.4" d="M16.19 2H7.81C4.17 2 2 4.17 2 7.81V16.18C2 19.83 4.17 22 7.81 22H16.18C19.82 22 21.99 19.83 21.99 16.19V7.81C22 4.17 19.83 2 16.19 2Z" />
<path d="M10.5 8.80957H6C5.59 8.80957 5.25 8.46957 5.25 8.05957C5.25 7.64957 5.59 7.30957 6 7.30957H10.5C10.91 7.30957 11.25 7.64957 11.25 8.05957C11.25 8.46957 10.91 8.80957 10.5 8.80957Z" />
<path d="M18 14.8096H13.5C13.09 14.8096 12.75 14.4696 12.75 14.0596C12.75 13.6496 13.09 13.3096 13.5 13.3096H18C18.41 13.3096 18.75 13.6496 18.75 14.0596C18.75 14.4696 18.41 14.8096 18 14.8096Z" />
<path d="M18 18.5596H13.5C13.09 18.5596 12.75 18.2196 12.75 17.8096C12.75 17.3996 13.09 17.0596 13.5 17.0596H18C18.41 17.0596 18.75 17.3996 18.75 17.8096C18.75 18.2196 18.41 18.5596 18 18.5596Z" />
<path d="M18 7.30957H16.52V5.80957C16.52 5.39957 16.18 5.05957 15.77 5.05957C15.36 5.05957 15.02 5.39957 15.02 5.80957V7.30957H13.5C13.09 7.30957 12.75 7.64957 12.75 8.05957C12.75 8.46957 13.09 8.80957 13.5 8.80957H15.02V10.3096C15.02 10.7196 15.36 11.0596 15.77 11.0596C16.18 11.0596 16.52 10.7196 16.52 10.3096V8.80957H18C18.41 8.80957 18.75 8.46957 18.75 8.05957C18.75 7.64957 18.41 7.30957 18 7.30957Z" />
<path d="M9.30994 15.9399L11.0299 14.2199C11.3199 13.9299 11.3199 13.4499 11.0299 13.1599C10.7399 12.8699 10.2599 12.8699 9.96994 13.1599L8.24994 14.8799L6.52994 13.1599C6.23994 12.8699 5.75994 12.8699 5.46994 13.1599C5.17994 13.4499 5.17994 13.9299 5.46994 14.2199L7.18994 15.9399L5.46994 17.6599C5.17994 17.9499 5.17994 18.4299 5.46994 18.7199C5.61994 18.8699 5.80994 18.9399 5.99994 18.9399C6.18994 18.9399 6.37994 18.8699 6.52994 18.7199L8.24994 16.9999L9.96994 18.7199C10.1199 18.8699 10.3099 18.9399 10.4999 18.9399C10.6899 18.9399 10.8799 18.8699 11.0299 18.7199C11.3199 18.4299 11.3199 17.9499 11.0299 17.6599L9.30994 15.9399Z" />
</svg>
