<?xml version="1.0" encoding="UTF-8"?>
<svg width="24" height="24" viewBox="0 0 24 24" xmlns="http://www.w3.org/2000/svg">
 <path d="M16.19 2H7.81C4.17 2 2 4.17 2 7.81V16.18C2 19.83 4.17 22 7.81 22H16.18C19.82 22 21.99 19.83 21.99 16.19V7.81C22 4.17 19.83 2 16.19 2Z" opacity=".4"/>
 <path d="m10.5 8.81h-4.5c-0.41 0-0.75-0.34-0.75-0.75s0.34-0.75 0.75-0.75h4.5c0.41 0 0.75 0.34 0.75 0.75s-0.34 0.75-0.75 0.75z"/>
 <path d="m18 14.81h-4.5c-0.41 0-0.75-0.34-0.75-0.75s0.34-0.75 0.75-0.75h4.5c0.41 0 0.75 0.34 0.75 0.75s-0.34 0.75-0.75 0.75z"/>
 <path d="m18 18.56h-4.5c-0.41 0-0.75-0.34-0.75-0.75s0.34-0.75 0.75-0.75h4.5c0.41 0 0.75 0.34 0.75 0.75s-0.34 0.75-0.75 0.75z"/>
 <path d="m18 7.31h-1.48v-1.5c0-0.41-0.34-0.75-0.75-0.75s-0.75 0.34-0.75 0.75v1.5h-1.52c-0.41 0-0.75 0.34-0.75 0.75s0.34 0.75 0.75 0.75h1.52v1.5c0 0.41 0.34 0.75 0.75 0.75s0.75-0.34 0.75-0.75v-1.5h1.48c0.41 0 0.75-0.34 0.75-0.75s-0.34-0.75-0.75-0.75z"/>
 <path d="m9.3099 15.94 1.72-1.72c0.29-0.29 0.29-0.77 0-1.06s-0.77-0.29-1.06 0l-1.72 1.72-1.72-1.72c-0.29-0.29-0.77-0.29-1.06 0s-0.29 0.77 0 1.06l1.72 1.72-1.72 1.72c-0.29 0.29-0.29 0.77 0 1.06 0.15 0.15 0.34 0.22 0.53 0.22s0.38-0.07 0.53-0.22l1.72-1.72 1.72 1.72c0.14996 0.15 0.33996 0.22 0.52996 0.22s0.38-0.07 0.53-0.22c0.29-0.29 0.29-0.77 0-1.06l-1.72-1.72z"/>
</svg>
