<svg width="24" height="24" viewBox="0 0 24 24"  xmlns="http://www.w3.org/2000/svg">
<path opacity="0.4" d="M16.19 2H7.81C4.17 2 2 4.17 2 7.81V16.18C2 19.83 4.17 22 7.81 22H16.18C19.82 22 21.99 19.83 21.99 16.19V7.81C22 4.17 19.83 2 16.19 2Z" />
<path d="M10.5 8.81H6C5.59 8.81 5.25 8.47 5.25 8.06C5.25 7.65 5.59 7.31 6 7.31H10.5C10.91 7.31 11.25 7.65 11.25 8.06C11.25 8.47 10.91 8.81 10.5 8.81Z" />
<path d="M18 14.81H13.5C13.09 14.81 12.75 14.47 12.75 14.06C12.75 13.65 13.09 13.31 13.5 13.31H18C18.41 13.31 18.75 13.65 18.75 14.06C18.75 14.47 18.41 14.81 18 14.81Z" />
<path d="M18 18.56H13.5C13.09 18.56 12.75 18.22 12.75 17.81C12.75 17.4 13.09 17.06 13.5 17.06H18C18.41 17.06 18.75 17.4 18.75 17.81C18.75 18.22 18.41 18.56 18 18.56Z" />
<path d="M18 7.31H16.52V5.81C16.52 5.4 16.18 5.06 15.77 5.06C15.36 5.06 15.02 5.4 15.02 5.81V7.31H13.5C13.09 7.31 12.75 7.65 12.75 8.06C12.75 8.47 13.09 8.81 13.5 8.81H15.02V10.31C15.02 10.72 15.36 11.06 15.77 11.06C16.18 11.06 16.52 10.72 16.52 10.31V8.81H18C18.41 8.81 18.75 8.47 18.75 8.06C18.75 7.65 18.41 7.31 18 7.31Z" />
<path d="M9.30994 15.94L11.0299 14.22C11.3199 13.93 11.3199 13.45 11.0299 13.16C10.7399 12.87 10.2599 12.87 9.96994 13.16L8.24994 14.88L6.52994 13.16C6.23994 12.87 5.75994 12.87 5.46994 13.16C5.17994 13.45 5.17994 13.93 5.46994 14.22L7.18994 15.94L5.46994 17.66C5.17994 17.95 5.17994 18.43 5.46994 18.72C5.61994 18.87 5.80994 18.94 5.99994 18.94C6.18994 18.94 6.37994 18.87 6.52994 18.72L8.24994 17L9.96994 18.72C10.1199 18.87 10.3099 18.94 10.4999 18.94C10.6899 18.94 10.8799 18.87 11.0299 18.72C11.3199 18.43 11.3199 17.95 11.0299 17.66L9.30994 15.94Z" />
</svg>
