<?xml version="1.0" encoding="UTF-8"?>
<svg width="24" height="24" viewBox="0 0 24 24" xmlns="http://www.w3.org/2000/svg">
 <path d="M16.48 2H8.52C5.07 2 3 4.06 3 7.52V15.47C3 18.94 5.07 21 8.52 21H16.47C19.93 21 21.99 18.94 21.99 15.48V7.52C22 4.06 19.93 2 16.48 2Z" opacity=".4"/>
 <path d="M11 16.15V18.85C11 21.1 10.1 22 7.85 22H5.15C2.9 22 2 21.1 2 18.85V16.15C2 13.9 2.9 13 5.15 13H7.85C10.1 13 11 13.9 11 16.15Z"/>
 <path d="m18.75 5.95c0-0.09-0.02-0.17-0.05-0.26 0-0.01-0.01-0.02-0.01-0.02-0.03-0.07-0.08-0.14-0.13-0.19-0.02-0.02-0.04-0.04-0.06-0.05-0.05-0.04-0.1-0.08-0.15-0.1-0.02-0.01-0.05-0.02-0.07-0.03-0.08-0.03-0.17-0.05-0.26-0.05h-4.02c-0.41 0-0.75 0.34-0.75 0.75s0.33 0.72 0.75 0.72h2.21l-3.74 3.75c-0.29 0.29-0.29 0.77 0 1.06 0.15 0.15 0.34 0.22 0.53 0.22s0.38-0.07 0.53-0.22l3.73-3.74v2.2c0 0.41 0.34 0.75 0.75 0.75s0.75-0.34 0.75-0.75v-4.02c0-0.01 0-0.01-0.01-0.02z"/>
</svg>
