<?xml version="1.0" encoding="UTF-8"?>
<svg width="24" height="24" viewBox="0 0 24 24" xmlns="http://www.w3.org/2000/svg">
 <path d="M16.19 2H7.81C4.17 2 2 4.17 2 7.81V16.18C2 19.83 4.17 22 7.81 22H16.18C19.82 22 21.99 19.83 21.99 16.19V7.81C22 4.17 19.83 2 16.19 2Z" opacity=".4"/>
 <path d="m18.69 5.71c-0.08-0.18-0.22-0.33-0.41-0.41-0.09-0.03-0.18-0.05-0.28-0.05h-4c-0.41 0-0.75 0.34-0.75 0.75s0.34 0.75 0.75 0.75h2.19l-3.72 3.72c-0.29 0.29-0.29 0.77 0 1.06 0.15 0.15 0.34 0.22 0.53 0.22s0.38-0.07 0.53-0.22l3.72-3.72v2.19c0 0.41 0.34 0.75 0.75 0.75s0.75-0.34 0.75-0.75v-4c0-0.1-0.02-0.19-0.06-0.29z"/>
 <path d="m11.53 12.47c-0.29-0.29-0.77-0.29-1.06 0l-3.72 3.72v-2.19c0-0.41-0.34-0.75-0.75-0.75s-0.75 0.34-0.75 0.75v4c0 0.1 0.02 0.19 0.06 0.29 0.08 0.18 0.22 0.33 0.41 0.41 0.08 0.03 0.18 0.05 0.28 0.05h4c0.41 0 0.75-0.34 0.75-0.75s-0.34-0.75-0.75-0.75h-2.19l3.72-3.72c0.29-0.29 0.29-0.77 0-1.06z"/>
</svg>
