<?xml version="1.0" encoding="UTF-8"?>
<svg width="24" height="24" viewBox="0 0 24 24" xmlns="http://www.w3.org/2000/svg">
 <path d="M16.19 2H7.81C4.17 2 2 4.17 2 7.81V16.18C2 19.83 4.17 22 7.81 22H16.18C19.82 22 21.99 19.83 21.99 16.19V7.81C22 4.17 19.83 2 16.19 2Z" opacity=".4"/>
 <path d="M2.75 9.97C2.34 9.97 2 9.64 2 9.22V6.91C2 4.2 4.2 2 6.91 2H9.22C9.63 2 9.97 2.34 9.97 2.75C9.97 3.16 9.64 3.5 9.22 3.5H6.91C5.03 3.5 3.5 5.03 3.5 6.91V9.22C3.5 9.64 3.16 9.97 2.75 9.97Z"/>
 <path d="m21.25 9.97c-0.41 0-0.75-0.34-0.75-0.75v-2.31c0-1.88-1.53-3.41-3.41-3.41h-2.31c-0.41 0-0.75-0.34-0.75-0.75s0.33-0.75 0.75-0.75h2.31c2.71 0 4.91 2.2 4.91 4.91v2.31c0 0.42-0.34 0.75-0.75 0.75z"/>
 <path d="m17.09 22h-1.39c-0.41 0-0.75-0.34-0.75-0.75s0.34-0.75 0.75-0.75h1.39c1.88 0 3.41-1.53 3.41-3.41v-1.39c0-0.41 0.34-0.75 0.75-0.75s0.75 0.34 0.75 0.75v1.39c0 2.71-2.2 4.91-4.91 4.91z"/>
 <path d="m9.22 22h-2.31c-2.71 0-4.91-2.2-4.91-4.91v-2.31c0-0.41 0.34-0.75 0.75-0.75s0.75 0.34 0.75 0.75v2.31c0 1.88 1.53 3.41 3.41 3.41h2.31c0.41 0 0.75 0.34 0.75 0.75s-0.33 0.75-0.75 0.75z"/>
</svg>
