<?xml version="1.0" encoding="UTF-8"?>
<svg width="24" height="24" viewBox="0 0 24 24" xmlns="http://www.w3.org/2000/svg">
 <g clip-rule="evenodd" fill-rule="evenodd" opacity=".4">
  <path d="m16.25 3c0-0.41421 0.3358-0.75 0.75-0.75h4c0.4142 0 0.75 0.33579 0.75 0.75v4c0 0.41421-0.3358 0.75-0.75 0.75s-0.75-0.33579-0.75-0.75v-3.25h-3.25c-0.4142 0-0.75-0.33579-0.75-0.75z"/>
  <path d="m21.53 2.4697c0.2929 0.29289 0.2929 0.76777 0 1.0607l-6 6c-0.2929 0.29289-0.7677 0.29289-1.0606 0s-0.2929-0.76777 0-1.0607l6-6c0.2929-0.29289 0.7677-0.29289 1.0606 0z"/>
  <path d="m3 16.25c0.41421 0 0.75 0.3358 0.75 0.75v3.25h3.25c0.41421 0 0.75 0.3358 0.75 0.75s-0.33579 0.75-0.75 0.75h-4c-0.41421 0-0.75-0.3358-0.75-0.75v-4c0-0.4142 0.33579-0.75 0.75-0.75z"/>
  <path d="m9.5303 14.47c0.29289 0.2929 0.29289 0.7677 0 1.0606l-6 6c-0.29289 0.2929-0.76777 0.2929-1.0607 0s-0.29289-0.7677 0-1.0606l6-6c0.29289-0.2929 0.76777-0.2929 1.0607 0z"/>
 </g>
 <path d="m1.25 12c0-5.9342 4.8158-10.75 10.75-10.75 0.7404 0 1.4696 0.07508 2.1671 0.21458 0.4062 0.08123 0.6696 0.47635 0.5884 0.88252-0.0813 0.40617-0.4764 0.66958-0.8826 0.58835-0.6025-0.12051-1.2333-0.18545-1.8729-0.18545-5.1058 0-9.25 4.1442-9.25 9.25 0 0.6393 0.06487 1.2593 0.185 1.8507 0.08246 0.4059-0.17977 0.8018-0.58569 0.8843-0.40593 0.0824-0.80183-0.1798-0.88429-0.5857-0.13986-0.6886-0.21502-1.4086-0.21502-2.1493z" clip-rule="evenodd" fill-rule="evenodd"/>
 <path d="m21.653 9.2645c0.4062-0.08123 0.8013 0.18218 0.8826 0.58835 0.1392 0.69639 0.2145 1.4156 0.2145 2.1471 0 5.9342-4.8157 10.75-10.75 10.75-0.7403 0-1.4696-0.0751-2.1671-0.2146-0.40617-0.0812-0.66958-0.4763-0.58835-0.8825s0.47635-0.6696 0.88251-0.5883c0.6026 0.1205 1.2333 0.1854 1.8729 0.1854 5.1058 0 9.25-4.1442 9.25-9.25 0-0.6285-0.0647-1.2493-0.1854-1.8529-0.0812-0.40618 0.1822-0.8013 0.5883-0.88254z" clip-rule="evenodd" fill-rule="evenodd"/>
</svg>
