<svg width="24" height="24" viewBox="0 0 24 24"  xmlns="http://www.w3.org/2000/svg">
<path opacity="0.4" d="M16.19 2H7.81C4.17 2 2 4.17 2 7.81V16.18C2 19.83 4.17 22 7.81 22H16.18C19.82 22 21.99 19.83 21.99 16.19V7.81C22 4.17 19.83 2 16.19 2Z" />
<path d="M18.6899 5.71C18.6099 5.53 18.4699 5.38 18.2799 5.3C18.1899 5.27 18.0999 5.25 17.9999 5.25H13.9999C13.5899 5.25 13.2499 5.59 13.2499 6C13.2499 6.41 13.5899 6.75 13.9999 6.75H16.1899L12.4699 10.47C12.1799 10.76 12.1799 11.24 12.4699 11.53C12.6199 11.68 12.8099 11.75 12.9999 11.75C13.1899 11.75 13.3799 11.68 13.5299 11.53L17.2499 7.81V10C17.2499 10.41 17.5899 10.75 17.9999 10.75C18.4099 10.75 18.7499 10.41 18.7499 10V6C18.7499 5.9 18.7299 5.81 18.6899 5.71Z" />
<path d="M11.53 12.4704C11.24 12.1804 10.76 12.1804 10.47 12.4704L6.75 16.1904V14.0004C6.75 13.5904 6.41 13.2504 6 13.2504C5.59 13.2504 5.25 13.5904 5.25 14.0004V18.0004C5.25 18.1004 5.27 18.1904 5.31 18.2904C5.39 18.4704 5.53 18.6204 5.72 18.7004C5.8 18.7304 5.9 18.7504 6 18.7504H10C10.41 18.7504 10.75 18.4104 10.75 18.0004C10.75 17.5904 10.41 17.2504 10 17.2504H7.81L11.53 13.5304C11.82 13.2404 11.82 12.7604 11.53 12.4704Z" />
</svg>
