<?xml version="1.0" encoding="UTF-8"?>
<svg width="24" height="24" viewBox="0 0 24 24" xmlns="http://www.w3.org/2000/svg">
 <path d="m19 9c0 1.45-0.43 2.78-1.17 3.89-1.08 1.6-2.79 2.73-4.78 3.02-0.34 0.06-0.69 0.09-1.05 0.09s-0.71-0.03-1.05-0.09c-1.99-0.29-3.7-1.42-4.78-3.02-0.74-1.11-1.17-2.44-1.17-3.89 0-3.87 3.13-7 7-7s7 3.13 7 7z" opacity=".4"/>
 <path d="m21.25 18.47-1.65 0.39c-0.37 0.09-0.66 0.37-0.74 0.74l-0.35 1.47c-0.19 0.8-1.21 1.04-1.74 0.41l-4.77-5.48-4.77 5.49c-0.53 0.63-1.55 0.39-1.74-0.41l-0.35-1.47c-0.09-0.37-0.38-0.66-0.74-0.74l-1.65-0.39c-0.76-0.18-1.03-1.13-0.48-1.68l3.9-3.9c1.08 1.6 2.79 2.73 4.78 3.02 0.34 0.06 0.69 0.09 1.05 0.09s0.71-0.03 1.05-0.09c1.99-0.29 3.7-1.42 4.78-3.02l3.9 3.9c0.55 0.54 0.28 1.49-0.48 1.67z"/>
 <path d="m12.58 5.98 0.59 1.18c0.08 0.16 0.29 0.32001 0.48 0.35001l1.07 0.17999c0.68 0.11 0.84 0.61001 0.35 1.1l-0.83 0.82998c-0.14 0.14-0.22 0.41002-0.17 0.61002l0.24 1.03c0.19 0.81-0.24 1.13-0.96 0.7l-1-0.59c-0.18-0.11-0.48-0.11-0.66 0l-1 0.59c-0.72003 0.42-1.15 0.11-0.96003-0.7l0.24-1.03c0.04003-0.19-0.03-0.47002-0.17-0.61002l-0.83-0.82998c-0.49-0.49-0.33-0.98001 0.35-1.1l1.07-0.17999c0.18-0.03 0.39-0.19001 0.47-0.35001l0.59-1.18c0.29-0.64 0.81-0.64 1.13 0z"/>
</svg>
