<svg width="24" height="24" viewBox="0 0 24 24"  xmlns="http://www.w3.org/2000/svg">
<path d="M16.3799 22.7498H3.23993C2.28993 22.7498 1.40993 22.3098 0.839932 21.5398C0.259932 20.7598 0.0899403 19.7797 0.37994 18.8497L4.58993 5.3197C4.96993 4.0597 6.12995 3.19971 7.44995 3.19971H19.7499C20.9599 3.19971 22.0499 3.91979 22.5099 5.03979C22.7599 5.61979 22.8099 6.27981 22.6599 6.92981L19.2899 20.4597C18.9699 21.8097 17.7699 22.7498 16.3799 22.7498ZM7.45993 4.70972C6.80993 4.70972 6.21993 5.13978 6.02993 5.76978L1.81994 19.2998C1.67994 19.7698 1.75993 20.2598 2.05993 20.6598C2.33993 21.0398 2.77994 21.2598 3.24994 21.2598H16.3899C17.0799 21.2598 17.6799 20.7898 17.8399 20.1198L21.2099 6.57971C21.2899 6.24971 21.2699 5.91976 21.1399 5.62976C20.8999 5.05976 20.3699 4.69971 19.7599 4.69971H7.45993V4.70972Z" />
<path d="M20.78 22.7497H16C15.59 22.7497 15.25 22.4097 15.25 21.9997C15.25 21.5897 15.59 21.2497 16 21.2497H20.78C21.19 21.2497 21.57 21.0798 21.85 20.7798C22.13 20.4798 22.27 20.0798 22.24 19.6698L21.25 6.04977C21.22 5.63977 21.53 5.27972 21.94 5.24972C22.35 5.22972 22.71 5.52966 22.74 5.93966L23.73 19.5598C23.79 20.3798 23.5 21.1998 22.94 21.7998C22.39 22.4098 21.6 22.7497 20.78 22.7497Z" />
<path d="M9.67977 7.12971C9.61977 7.12971 9.55977 7.11969 9.49977 7.10969C9.09977 7.00969 8.84979 6.60966 8.94979 6.19966L9.98976 1.87971C10.0898 1.47971 10.4898 1.22966 10.8998 1.32966C11.2998 1.42966 11.5498 1.8297 11.4498 2.2397L10.4098 6.55977C10.3298 6.89977 10.0198 7.12971 9.67977 7.12971Z" />
<path d="M16.3799 7.13974C16.3299 7.13974 16.2699 7.13972 16.2199 7.11972C15.8199 7.02972 15.56 6.62971 15.64 6.22971L16.5799 1.88974C16.6699 1.47974 17.0699 1.22979 17.4699 1.30979C17.8699 1.38979 18.1299 1.79968 18.0499 2.19968L17.1099 6.53977C17.0399 6.89977 16.7299 7.13974 16.3799 7.13974Z" />
<path d="M15.7002 12.7498H7.7002C7.2902 12.7498 6.9502 12.4098 6.9502 11.9998C6.9502 11.5898 7.2902 11.2498 7.7002 11.2498H15.7002C16.1102 11.2498 16.4502 11.5898 16.4502 11.9998C16.4502 12.4098 16.1102 12.7498 15.7002 12.7498Z" />
<path d="M14.7002 16.7498H6.7002C6.2902 16.7498 5.9502 16.4098 5.9502 15.9998C5.9502 15.5898 6.2902 15.2498 6.7002 15.2498H14.7002C15.1102 15.2498 15.4502 15.5898 15.4502 15.9998C15.4502 16.4098 15.1102 16.7498 14.7002 16.7498Z" />
</svg>
