<?xml version="1.0" encoding="UTF-8"?>
<svg width="24" height="24" viewBox="0 0 24 24" xmlns="http://www.w3.org/2000/svg">
 <path d="m17.54 8.8096c1.6347 0 2.96-1.3252 2.96-2.96s-1.3253-2.96-2.96-2.96c-1.6348 0-2.96 1.3252-2.96 2.96s1.3252 2.96 2.96 2.96z" opacity=".4"/>
 <path d="m6.46 8.8096c1.6348 0 2.96-1.3252 2.96-2.96s-1.3252-2.96-2.96-2.96-2.96 1.3252-2.96 2.96 1.3252 2.96 2.96 2.96z"/>
 <path d="m17.54 21.11c1.6347 0 2.96-1.3252 2.96-2.96 0-1.6347-1.3253-2.96-2.96-2.96-1.6348 0-2.96 1.3253-2.96 2.96 0 1.6348 1.3252 2.96 2.96 2.96z"/>
 <path d="m6.46 21.11c1.6348 0 2.96-1.3252 2.96-2.96 0-1.6347-1.3252-2.96-2.96-2.96s-2.96 1.3253-2.96 2.96c0 1.6348 1.3252 2.96 2.96 2.96z" opacity=".4"/>
</svg>
