<?xml version="1.0" encoding="UTF-8"?>
<svg width="24" height="24" viewBox="0 0 24 24" xmlns="http://www.w3.org/2000/svg">
 <path d="m21.99 6.02c0.02 0.24 0 0.48999-0.06 0.73999l-3.37 13.53c-0.24 1.01-1.1399 1.71-2.1799 1.71h-13.14c-1.51 0-2.58-1.48-2.14-2.93l4.21-13.53c0.29-0.94 1.16-1.58 2.14-1.58h12.3c0.9599 0 1.74 0.57 2.07 1.37 0.1 0.21 0.1499 0.45 0.1699 0.69z" opacity=".4"/>
 <path d="m22.99 19.62c0.1 1.29-0.92 2.38-2.21 2.38h-4.4c1.04 0 1.94-0.7 2.18-1.71l3.37-13.53c0.06-0.25 0.08-0.49999 0.06-0.73999l0.01-0.02002 0.99 13.62z"/>
 <path d="m9.6798 7.1304c-0.06 0-0.12-0.01002-0.18-0.02002-0.4-0.1-0.64998-0.49998-0.54998-0.90998l1.04-4.32c0.10004-0.4 0.50004-0.63999 0.91004-0.54999 0.4 0.1 0.65 0.49997 0.55 0.90997l-1.04 4.32c-0.08 0.34-0.39 0.57001-0.73003 0.57001z"/>
 <path d="m16.38 7.1398c-0.05 0-0.11-2e-5 -0.16-0.02002-0.4-0.09-0.6599-0.49001-0.5799-0.89001l0.9399-4.34c0.09-0.41 0.49-0.66002 0.89-0.58002 0.4 0.09 0.66 0.49002 0.58 0.89002l-0.94 4.34c-0.07 0.36001-0.38 0.60004-0.73 0.60004z"/>
 <path d="m15.7 12.75h-8c-0.41 0-0.75-0.34-0.75-0.75s0.34-0.75 0.75-0.75h8c0.41 0 0.75 0.34 0.75 0.75s-0.34 0.75-0.75 0.75z"/>
 <path d="m14.7 16.75h-8c-0.41 0-0.75-0.34-0.75-0.75s0.34-0.75 0.75-0.75h8c0.41 0 0.75 0.34 0.75 0.75s-0.34 0.75-0.75 0.75z"/>
</svg>
