<?xml version="1.0" encoding="UTF-8"?>
<svg width="24" height="24" viewBox="0 0 24 24" xmlns="http://www.w3.org/2000/svg">
 <path d="m16 2h-8c-4 0-6 2-6 6v13c0 0.55 0.45 1 1 1h13c4 0 6-2 6-6v-8c0-4-2-6-6-6z" opacity=".4"/>
 <path d="m16.55 7.4602c-1.26-1.26-2.48-1.29-3.77 0l-0.79 0.79c-0.07 0.07-0.0899 0.17-0.0699 0.26 0.49 1.72 1.8599 3.09 3.5799 3.58 0.02 0.01 0.05 0.01 0.08 0.01 0.07 0 0.14-0.03 0.19-0.08l0.78-0.78c0.64-0.64 0.95-1.25 0.95-1.87 0-0.65-0.31-1.27-0.95-1.91z"/>
 <path d="m14.34 12.67c-0.19-0.09-0.37-0.18-0.54-0.29-0.14-0.08-0.2799-0.17-0.4099-0.27-0.11-0.07-0.2401-0.17-0.3701-0.28-0.02-0.01-0.06-0.04-0.11-0.1-0.21-0.18-0.45-0.42-0.67-0.67-0.02-0.01-0.05-0.06-0.09-0.12-0.07-0.08-0.17-0.21-0.27-0.35-0.08-0.1-0.17-0.24-0.25-0.38-0.1-0.17-0.2-0.34998-0.28-0.52998-0.09-0.2-0.16-0.38-0.23-0.56l-3.77 3.77c-0.25 0.25-0.48 0.71-0.53 1.05l-0.29001 2.08c-0.07 0.44 0.05999 0.85 0.32999 1.13 0.23 0.23 0.55002 0.35 0.90002 0.35 0.08 0 0.14998-0.01 0.22998-0.02l2.0801-0.29c0.34-0.05 0.7999-0.28 1.0499-0.53l3.7701-3.77c-0.18-0.07-0.3601-0.14-0.5501-0.22z"/>
</svg>
