<?xml version="1.0" encoding="UTF-8"?>
<svg width="24" height="24" viewBox="0 0 24 24" xmlns="http://www.w3.org/2000/svg">
 <path d="m17 18.43h-4l-4.45 2.96c-0.66 0.44-1.55-0.03-1.55-0.83v-2.13c-3 0-5-2-5-5v-6c0-3 2-5 5-5h10c3 0 5 2 5 5v6c0 3-2 5-5 5z" opacity=".4"/>
 <path d="m12 12.11c-0.41 0-0.75-0.34-0.75-0.75v-0.21c0-1.16 0.85-1.73 1.17-1.95 0.37-0.25 0.49-0.41999 0.49-0.67999 0-0.5-0.41-0.91004-0.91-0.91004s-0.91 0.41004-0.91 0.91004c0 0.41-0.34 0.75-0.75 0.75-0.40996 0-0.74996-0.34-0.74996-0.75 0-1.33 1.08-2.41 2.41-2.41s2.41 1.08 2.41 2.41c0 1.14-0.84 1.71-1.15 1.92-0.39 0.26-0.51 0.43-0.51 0.71v0.21c0 0.42-0.34 0.75-0.75 0.75z"/>
 <path d="m12 14.6c-0.42 0-0.75-0.34-0.75-0.75s0.34-0.75 0.75-0.75 0.75 0.34 0.75 0.75-0.33 0.75-0.75 0.75z"/>
</svg>
