<?xml version="1.0" encoding="UTF-8"?>
<svg width="24" height="24" viewBox="0 0 24 24" xmlns="http://www.w3.org/2000/svg">
 <path d="m22 7.4302v6c0 1.5-0.5 2.75-1.38 3.63-0.87 0.87-2.12 1.37-3.62 1.37v2.13c0 0.8-0.89 1.28-1.55 0.84l-4.45-2.97h-2.12c0.08-0.3 0.12-0.61 0.12-0.93 0-1.02-0.39-1.96-1.03-2.67-0.72-0.82-1.79-1.33-2.97-1.33-1.12 0-2.14 0.46-2.87 1.21-0.09-0.4-0.13-0.83-0.13-1.28v-6c0-3 2-5 5-5h10c3 0 5 2 5 5z" opacity=".4"/>
 <path d="m15.5 11.25h-7c-0.41 0-0.75-0.34-0.75-0.75s0.34-0.75 0.75-0.75h7c0.41 0 0.75 0.34 0.75 0.75s-0.34 0.75-0.75 0.75z"/>
 <path d="m5 13.5c-0.94 0-1.81 0.33-2.5 0.88-0.92 0.73-1.5 1.86-1.5 3.12 0 2.21 1.79 4 4 4 1.01 0 1.93-0.38 2.64-1 0.83-0.73 1.36-1.8 1.36-3 0-2.21-1.79-4-4-4zm1 4.25c0 0.26-0.13999 0.51-0.35999 0.64l-1.25 0.75c-0.12 0.07-0.25001 0.11-0.39001 0.11-0.25 0-0.50001-0.13-0.64001-0.36-0.21-0.36-0.1-0.82 0.26001-1.03l0.89001-0.53v-1.08c0-0.41 0.34-0.75 0.75-0.75s0.75 0.34 0.75 0.75v1.5h-0.01001z"/>
</svg>
