<?xml version="1.0" encoding="UTF-8"?>
<svg width="24" height="24" viewBox="0 0 24 24" xmlns="http://www.w3.org/2000/svg">
 <path d="m20 6.75c1.5188 0 2.75-1.2312 2.75-2.75s-1.2312-2.75-2.75-2.75-2.75 1.2312-2.75 2.75 1.2312 2.75 2.75 2.75z"/>
 <path d="m20 8c-2.21 0-4-1.79-4-4 0-0.73 0.21-1.41 0.56-2h-9.56c-2.76 0-5 2.23-5 4.98v6.98c0 2.75 2.24 4.98 5 4.98h1.5c0.27 0 0.63 0.18 0.8 0.4l1.5 1.99c0.66 0.88 1.74 0.88 2.4 0l1.5-1.99c0.19-0.25 0.49-0.4 0.8-0.4h1.5c2.76 0 5-2.23 5-4.98v-6.52c-0.59 0.35-1.27 0.56-2 0.56z" opacity=".4"/>
 <path d="m12 12c-0.56 0-1-0.45-1-1s0.45-1 1-1 1 0.45 1 1-0.44 1-1 1z"/>
 <path d="m16 12c-0.56 0-1-0.45-1-1s0.45-1 1-1 1 0.45 1 1-0.44 1-1 1z"/>
 <path d="m8 12c-0.56 0-1-0.45-1-1s0.45-1 1-1 1 0.45 1 1-0.44 1-1 1z"/>
</svg>
