<?xml version="1.0" encoding="UTF-8"?>
<svg width="24" height="24" viewBox="0 0 24 24" xmlns="http://www.w3.org/2000/svg">
 <path d="m22.53 21.47-0.74-0.74c0.38-0.58 0.61-1.28 0.61-2.03 0-2.04-1.66-3.7-3.7-3.7s-3.7 1.66-3.7 3.7 1.66 3.7 3.7 3.7c0.75 0 1.45-0.23 2.03-0.61l0.74 0.74c0.15 0.15 0.34 0.22 0.53 0.22s0.38-0.07 0.53-0.22c0.29-0.29 0.29-0.77 0-1.06z"/>
 <path d="m2 12.97v-5.98c0-2.75 2.24-4.98 5-4.98h10c2.76 0 5 2.23 5 4.99v6.98c0 2.75-2.24 4.98-5 4.98h-1.5c-0.31 0-0.61 0.15-0.8 0.4l-1.5 1.99c-0.66 0.88-1.74 0.88-2.4 0l-1.5-1.99c-0.17-0.22-0.51999-0.4-0.79999-0.4h-1.5c-2.76 0-5-2.23-5-4.98v-1.01z" opacity=".4"/>
 <path d="m12 12c-0.56 0-1.01-0.45-1.01-1s0.45-1 1-1 1 0.45 1 1-0.43 1-0.99 1z"/>
 <path d="m16 12c-0.56 0-1.01-0.45-1.01-1s0.45-1 1-1 1 0.45 1 1-0.43 1-0.99 1z"/>
 <path d="m8.0002 12c-0.56 0-1.01-0.45-1.01-1s0.45-1 1-1 1 0.45 1 1-0.42999 1-0.98999 1z"/>
</svg>
