<?xml version="1.0" encoding="UTF-8"?>
<svg width="24" height="24" viewBox="0 0 24 24" xmlns="http://www.w3.org/2000/svg">
 <path d="m17 9c0 3.87-3.36 7-7.5 7l-0.92999 1.12-0.55001 0.66c-0.47 0.56-1.37 0.44-1.68-0.23l-1.34-2.95c-1.82-1.28-3-3.31-3-5.6 0-3.87 3.36-7 7.5-7 3.02 0 5.63 1.67 6.8 4.07 0.45 0.89 0.7 1.88 0.7 2.93z" opacity=".4"/>
 <path d="m22 12.86c0 2.29-1.18 4.32-3 5.6l-1.34 2.95c-0.31 0.67-1.21 0.8-1.68 0.23l-1.48-1.78c-2.42 0-4.58-1.07-5.93-2.74l0.93-1.12c4.14 0 7.5-3.13 7.5-7 0-1.05-0.25-2.04-0.7-2.93 3.27 0.75 5.7 3.51 5.7 6.79z"/>
 <path d="m12 9.75h-5c-0.41 0-0.75-0.34-0.75-0.75s0.34-0.75 0.75-0.75h5c0.41 0 0.75 0.34 0.75 0.75s-0.34 0.75-0.75 0.75z"/>
</svg>
