<?xml version="1.0" encoding="UTF-8"?>
<svg width="24" height="24" viewBox="0 0 24 24" xmlns="http://www.w3.org/2000/svg">
 <path d="m17.98 10.79v4c0 0.26-0.01 0.51-0.04 0.75-0.23 2.7-1.82 4.04-4.75 4.04h-0.4c-0.25 0-0.49 0.12-0.64 0.32l-1.2 1.6c-0.53 0.71-1.39 0.71-1.92 0l-1.2-1.6c-0.13-0.17-0.41999-0.32-0.63999-0.32h-0.39999c-3.19 0-4.79-0.79-4.79-4.79v-4c0-2.93 1.35-4.52 4.04-4.75 0.24-0.03 0.49-0.04001 0.75-0.04001h6.4c3.19 0 4.79 1.6 4.79 4.79z" opacity=".4"/>
 <path d="m9.9902 14c-0.56 0-1-0.45-1-1s0.45-1 1-1c0.54997 0 0.99997 0.45 0.99997 1s-0.44 1-0.99997 1z"/>
 <path d="m13.49 14c-0.56 0-1-0.45-1-1s0.45-1 1-1 1 0.45 1 1-0.45 1-1 1z"/>
 <path d="m6.5 14c-0.56 0-1-0.45-1-1s0.45-1 1-1 1 0.45 1 1-0.45 1-1 1z"/>
 <path d="m21.98 6.79v4c0 2.94-1.35 4.52-4.04 4.75 0.03-0.24 0.04-0.49 0.04-0.75v-4c0-3.19-1.6-4.79-4.79-4.79h-6.4c-0.26 0-0.51 0.01001-0.75 0.04001 0.23-2.69 1.82-4.04 4.75-4.04h6.4c3.19 0 4.79 1.6 4.79 4.79z"/>
</svg>
