<?xml version="1.0" encoding="UTF-8"?>
<svg width="24" height="24" viewBox="0 0 24 24" xmlns="http://www.w3.org/2000/svg">
 <path d="m5.6802 18.44v1.85c0 0.77 0.81999 1.25 1.49 0.87l1.86-1.05c0.94 0.27 1.9299 0.41 2.9599 0.41 5.52 0 10-4.15 10-9.26 0-5.11-4.48-9.26-10-9.26-5.52 0-10 4.15-10 9.26 0.01 2.89 1.45 5.48 3.69 7.18z" opacity=".4"/>
 <path d="m11.021 9.5602-2.5401 3.02c-0.31 0.37 0.03 0.92 0.5 0.81l2.01-0.49c0.13-0.03 0.26-0.01 0.37 0.05l1.01 0.59c0.21 0.12 0.48 0.08 0.63-0.11l2.5-2.99c0.31-0.37-0.04-0.93002-0.51-0.80002l-1.82 0.47002c-0.12 0.03-0.25 0.02-0.36-0.04l-1.18-0.62003c-0.2-0.12-0.4599-0.07-0.6099 0.11z"/>
</svg>
