<?xml version="1.0" encoding="UTF-8"?>
<svg width="24" height="24" viewBox="0 0 24 24" xmlns="http://www.w3.org/2000/svg">
 <path d="m22 7.4302v6c0 1.5-0.5 2.75-1.38 3.63-0.87 0.87-2.12 1.37-3.62 1.37v2.13c0 0.8-0.89 1.28-1.55 0.84l-4.45-2.97h-2.12c0.08-0.3 0.12-0.61 0.12-0.93 0-1.02-0.39-1.96-1.03-2.67-0.72-0.82-1.79-1.33-2.97-1.33-1.12 0-2.14 0.46-2.87 1.21-0.09-0.4-0.13-0.83-0.13-1.28v-6c0-3 2-5 5-5h10c3 0 5 2 5 5z" opacity=".4"/>
 <path d="m15.5 11.25h-7c-0.41 0-0.75-0.34-0.75-0.75s0.34-0.75 0.75-0.75h7c0.41 0 0.75 0.34 0.75 0.75s-0.34 0.75-0.75 0.75z"/>
 <path d="m7.97 14.83c-0.72-0.82-1.79-1.33-2.97-1.33-2.21 0-4 1.79-4 4 0 0.75 0.20999 1.46 0.57999 2.06 0.2 0.34 0.46001 0.65 0.76001 0.91 0.7 0.64 1.63 1.03 2.66 1.03 1.46 0 2.73-0.78 3.42-1.94 0.37-0.6 0.57999-1.31 0.57999-2.06 0-1.02-0.39-1.96-1.03-2.67zm-1.37 4.25c-0.15 0.15-0.34 0.22-0.53 0.22s-0.38-0.07-0.53-0.22l-0.53-0.53-0.55002 0.55c-0.15 0.15-0.34 0.22-0.53 0.22s-0.38-0.07-0.53-0.22c-0.29-0.29-0.29-0.77 0-1.06l0.55002-0.55-0.53-0.53c-0.29-0.29-0.29-0.77 0-1.06s0.77-0.29 1.06 0l0.53 0.53 0.5-0.5c0.29-0.29 0.77-0.29 1.06 0s0.29 0.77 0 1.06l-0.5 0.5 0.53 0.53c0.29 0.29 0.29 0.76 0 1.06z"/>
</svg>
