<?xml version="1.0" encoding="UTF-8"?>
<svg width="24" height="24" viewBox="0 0 24 24" xmlns="http://www.w3.org/2000/svg">
 <path d="m22 6.25v5.1c0 1.27-0.42 2.34-1.17 3.08-0.74 0.75-1.81 1.17-3.08 1.17v1.81c0 0.68-0.76 1.09-1.32 0.71l-0.97-0.64c0.09-0.31 0.13-0.65 0.13-1.01v-4.07c0-2.04-1.36-3.4-3.4-3.4h-6.79c-0.14 0-0.26999 0.01002-0.39999 0.02002v-2.77c0-2.55 1.7-4.25 4.25-4.25h8.5c2.55 0 4.25 1.7 4.25 4.25z" opacity=".4"/>
 <path d="m15.59 12.4v4.07c0 0.36-0.04 0.7-0.13 1.01-0.37 1.47-1.59 2.39-3.27 2.39h-2.72l-3.02 2.01c-0.45 0.31-1.05-0.02-1.05-0.56v-1.45c-1.02 0-1.87-0.34-2.46-0.93-0.6-0.6-0.94-1.45-0.94-2.47v-4.07c0-1.9 1.18-3.21 3-3.38 0.13-0.01 0.25999-0.02002 0.39999-0.02002h6.79c2.04 0 3.4 1.36 3.4 3.4z"/>
</svg>
