<?xml version="1.0" encoding="UTF-8"?>
<svg width="24" height="24" viewBox="0 0 24 24" xmlns="http://www.w3.org/2000/svg">
 <path d="m2 12.97v-5.98c0-2.76 2.24-4.99 5-4.99h10c2.76 0 5 2.23 5 4.99v6.98c0 2.75-2.24 4.98-5 4.98h-1.5c-0.31 0-0.61 0.15-0.8 0.4l-1.5 1.99c-0.66 0.88-1.74 0.88-2.4 0l-1.5-1.99c-0.16-0.22-0.52-0.4-0.8-0.4h-1.5c-2.76 0-5-2.23-5-4.98v-1z" opacity=".4"/>
 <path d="m17 8.75h-10c-0.41 0-0.75-0.34-0.75-0.75s0.34-0.75 0.75-0.75h10c0.41 0 0.75 0.34 0.75 0.75s-0.34 0.75-0.75 0.75z"/>
 <path d="m13 13.75h-6c-0.41 0-0.75-0.34-0.75-0.75s0.34-0.75 0.75-0.75h6c0.41 0 0.75 0.34 0.75 0.75s-0.34 0.75-0.75 0.75z"/>
</svg>
