<?xml version="1.0" encoding="UTF-8"?>
<svg width="24" height="24" viewBox="0 0 24 24" xmlns="http://www.w3.org/2000/svg">
 <path d="m12 22c5.5228 0 10-4.4772 10-10 0-5.5228-4.4772-10-10-10-5.5228 0-10 4.4772-10 10 0 5.5228 4.4772 10 10 10z" opacity=".4"/>
 <path d="m17.25 10.18v2.63c0 0.17-0.01 0.33-0.03 0.49-0.15 1.77-1.2 2.65-3.12 2.65h-0.26c-0.16 0-0.32 0.08-0.42 0.21l-0.79 1.05c-0.35 0.47-0.91 0.47-1.26 0l-0.79-1.05c-0.09-0.11-0.28-0.21-0.42-0.21h-0.26001c-2.1 0-3.15-0.52-3.15-3.15v-2.63c0-1.92 0.88999-2.97 2.65-3.12 0.16-0.02 0.32002-0.03 0.49002-0.03h4.2c2.11 0.02 3.16 1.07 3.16 3.16z"/>
</svg>
