<?xml version="1.0" encoding="UTF-8"?>
<svg width="24" height="24" viewBox="0 0 24 24" xmlns="http://www.w3.org/2000/svg">
 <path d="m8.5 18.97h-0.5c-4 0-6-1-6-6v-5c0-4 2-6 6-6h8c4 0 6 2 6 6v5c0 4-2 6-6 6h-0.5c-0.31 0-0.61 0.1501-0.8 0.4001l-1.5 2c-0.66 0.88-1.74 0.88-2.4 0l-1.5-2c-0.16-0.22-0.51999-0.4001-0.79999-0.4001z" opacity=".4"/>
 <path d="m7.9999 13.45c-0.19 0-0.38-0.0701-0.53-0.2201l-2-2c-0.29-0.29-0.29-0.77 0-1.06l2-2c0.29-0.29 0.77-0.29 1.06 0s0.29 0.77 0 1.06l-1.47 1.47 1.47 1.4699c0.29 0.29 0.29 0.77 0 1.06-0.15 0.15-0.34 0.2201-0.53 0.2201z"/>
 <path d="m16 13.45c-0.19 0-0.38-0.0701-0.53-0.2201-0.29-0.29-0.29-0.77 0-1.06l1.47-1.4699-1.47-1.47c-0.29-0.29-0.29-0.77 0-1.06s0.77-0.29 1.06 0l2 2c0.29 0.29 0.29 0.77 0 1.06l-2 2c-0.15 0.15-0.34 0.2201-0.53 0.2201z"/>
 <path d="m11 13.78c-0.1 0-0.2-0.0201-0.3-0.0601-0.38-0.16-0.56-0.6-0.39-0.99l2-4.67c0.16-0.38 0.6-0.56002 0.99-0.39002 0.38 0.16 0.56 0.59999 0.39 0.98999l-2 4.6701c-0.12 0.28-0.4 0.45-0.69 0.45z"/>
</svg>
