<?xml version="1.0" encoding="UTF-8"?>
<svg width="24" height="24" viewBox="0 0 24 24" xmlns="http://www.w3.org/2000/svg">
 <path d="m22 7.4302v6c0 1.5-0.5 2.75-1.38 3.63-0.87 0.87-2.12 1.37-3.62 1.37v2.13c0 0.8-0.89 1.28-1.55 0.84l-4.45-2.97h-2.12c0.08-0.3 0.12-0.61 0.12-0.93 0-1.02-0.39-1.96-1.03-2.67-0.72-0.82-1.79-1.33-2.97-1.33-1.12 0-2.14 0.46-2.87 1.21-0.09-0.4-0.13-0.83-0.13-1.28v-6c0-3 2-5 5-5h10c3 0 5 2 5 5z" opacity=".4"/>
 <path d="m15.5 11.25h-7c-0.41 0-0.75-0.34-0.75-0.75s0.34-0.75 0.75-0.75h7c0.41 0 0.75 0.34 0.75 0.75s-0.34 0.75-0.75 0.75z"/>
 <path d="m5 13.5c-2.21 0-4 1.79-4 4 0 0.75 0.20999 1.46 0.57999 2.06 0.69 1.16 1.96 1.94 3.42 1.94s2.73-0.78 3.42-1.94c0.37-0.6 0.57999-1.31 0.57999-2.06 0-2.21-1.79-4-4-4zm1.97 3.67-2.13 1.97c-0.14 0.13-0.33001 0.2-0.51001 0.2-0.19 0-0.38-0.07-0.53-0.22l-0.98999-0.99c-0.29-0.29-0.29-0.77 0-1.06s0.77-0.29 1.06 0l0.48001 0.48 1.6-1.48c0.3-0.28 0.78-0.26 1.06 0.04s0.25999 0.78-0.04001 1.06z"/>
</svg>
