<?xml version="1.0" encoding="UTF-8"?>
<svg width="24" height="24" viewBox="0 0 24 24" xmlns="http://www.w3.org/2000/svg">
 <path d="m18.47 16.83 0.39 3.16c0.1 0.83-0.79 1.41-1.5 0.98l-4.19-2.49c-0.46 0-0.9099-0.03-1.3499-0.09 0.74-0.87 1.1799-1.97 1.1799-3.16 0-2.84-2.46-5.14-5.5-5.14-1.16 0-2.23 0.33-3.12 0.91-0.03-0.25-0.04001-0.5-0.04001-0.76 0-4.55 3.95-8.24 8.83-8.24 4.88 0 8.83 3.69 8.83 8.24 0 2.7-1.39 5.09-3.53 6.59z" opacity=".4"/>
 <path d="m13 15.23c0 1.19-0.44 2.29-1.18 3.16-0.99 1.2-2.56 1.97-4.32 1.97l-2.61 1.55c-0.44 0.27-1-0.1-0.94-0.61l0.25-1.97c-1.34-0.93-2.2-2.42-2.2-4.1 0-1.76 0.94-3.31 2.38-4.23 0.89-0.58 1.96-0.91 3.12-0.91 3.04 0 5.5 2.3 5.5 5.14z"/>
</svg>
