<?xml version="1.0" encoding="UTF-8"?>
<svg width="24" height="24" viewBox="0 0 24 24" xmlns="http://www.w3.org/2000/svg">
 <path d="m16.42 6.4199v1.16l-7.28 7.28c-0.96-0.87-1.56-2.15-1.56-3.52v-4.92c0-2.06 1.4-3.77 3.3-4.26 0.19-0.05 0.37 0.11 0.37 0.3v1.54c0 0.41 0.34 0.75 0.75 0.75s0.75-0.34 0.75-0.75v-1.54c0-0.19 0.18-0.35 0.37-0.3 1.9 0.49 3.3 2.2 3.3 4.26z"/>
 <path d="m7.7799 16.22-0.99 0.99c-1.59-1.43-2.6-3.5-2.6-5.81v-1.59c0-0.38 0.31-0.69 0.69-0.69 0.39 0 0.7 0.31 0.7 0.69v1.59c0 1.92 0.85 3.65 2.2 4.82z" opacity=".4"/>
 <path d="m19.81 9.8101v1.59c0 4.07-3.13 7.42-7.11 7.77v2.13c0 0.39-0.31 0.7-0.7 0.7s-0.7-0.31-0.7-0.7v-2.13c-1.09-0.1-2.12-0.42-3.04-0.93l1.03-1.03c0.82003 0.38 1.74 0.6 2.71 0.6 3.54 0 6.42-2.88 6.42-6.41v-1.59c0-0.38 0.31-0.69 0.7-0.69 0.38 0 0.69 0.31 0.69 0.69z" opacity=".4"/>
 <path d="m16.42 10.08v1.45c0 2.58-2.22 4.65-4.86 4.4-0.28-0.03-0.56-0.08-0.82-0.17l5.68-5.68z" opacity=".4"/>
 <path d="m21.77 2.2299c-0.3-0.3-0.79-0.3-1.09 0l-18.45 18.46c-0.3 0.3-0.3 0.79 0 1.09 0.15 0.14 0.34 0.22 0.54 0.22s0.39-0.08 0.54-0.23l18.46-18.46c0.31-0.3 0.31-0.78 0-1.08z"/>
</svg>
