<?xml version="1.0" encoding="UTF-8"?>
<svg width="24" height="24" viewBox="0 0 24 24" xmlns="http://www.w3.org/2000/svg">
 <path d="m12 21.93c-5.04 0-9.15-4.1-9.15-9.15v-1.88c0-0.39 0.32-0.7 0.7-0.7s0.7 0.32 0.7 0.7v1.88c0 4.27 3.47 7.74 7.74 7.74s7.74-3.47 7.74-7.74v-1.88c0-0.39 0.32-0.7 0.7-0.7s0.7 0.32 0.7 0.7v1.88c0.02 5.05-4.09 9.15-9.13 9.15z" opacity=".4"/>
 <path d="m12 2c-3.36 0-6.1 2.74-6.1 6.1v4.69c0 3.36 2.74 6.1 6.1 6.1s6.1-2.74 6.1-6.1v-4.69c0-3.36-2.74-6.1-6.1-6.1zm2.18 8.59c-0.07 0.27-0.32 0.45-0.59 0.45-0.05 0-0.11-0.01-0.16-0.02-1.02-0.28-2.1-0.28-3.12 0-0.33 0.09-0.66-0.1-0.75-0.43-0.09-0.32 0.1-0.66 0.43-0.75 1.23-0.34 2.53-0.34 3.76 0 0.33 0.09 0.52 0.42 0.43 0.75zm0.85-2.77c-0.09 0.25-0.32 0.4-0.57 0.4-0.07 0-0.14-0.01-0.21-0.04-1.53-0.56-3.21-0.56-4.74 0-0.32 0.12-0.67-0.04-0.79-0.36-0.11-0.31 0.05-0.66 0.37-0.78 1.8-0.65 3.78-0.65 5.57 0 0.32 0.12 0.48 0.47 0.37 0.78z"/>
</svg>
