<?xml version="1.0" encoding="UTF-8"?>
<svg width="24" height="24" viewBox="0 0 24 24" xmlns="http://www.w3.org/2000/svg">
 <path d="m14.84 10.9 5.66-3.79c0.57-0.38 0.72-1.16 0.34-1.72l-1.82-2.71c-0.38-0.57-1.16-0.71999-1.72-0.33999l-5.66 3.79 3.2 4.77z"/>
 <path d="m14.52 10.42-1.76 1.18-2.67 1.79-0.35003 0.23-0.15999-0.24-2.24-3.34-0.15999-0.24001 4.78-3.2 2.56 3.82z"/>
 <path d="m5.6401 16.02 3.95-2.64-2.24-3.34-3.95 2.64c-0.46 0.31-0.58 0.93-0.27 1.39l1.13 1.68c0.3 0.46 0.92 0.58 1.38 0.27z"/>
 <path d="m16.56 21.81c-0.1 0.04-0.21 0.07-0.31 0.07-0.29 0-0.56-0.17-0.69-0.45l-3.73-8.24-3.78 8.25c-0.13 0.27-0.4 0.44-0.69 0.44-0.1 0-0.21-0.03-0.31-0.07-0.37-0.18-0.54-0.62-0.37-1l3.41-7.42 2.67-1.79 4.17 9.22c0.17 0.37 0 0.82-0.37 0.99z" opacity=".4"/>
</svg>
