<?xml version="1.0" encoding="UTF-8"?>
<svg width="24" height="24" viewBox="0 0 24 24" xmlns="http://www.w3.org/2000/svg">
 <path d="m17.62 5.72-10.61 10.61c-0.73-0.99-1.13-2.2-1.13-3.51v-4.71c0-1.84 0.82-3.49 2.12-4.61v4.14c0 0.39 0.32 0.71 0.7 0.71 0.39 0 0.71-0.32 0.71-0.71v-5.07c0.46-0.23 0.95002-0.39 1.46-0.48v3.66c0 0.4 0.32 0.71 0.71 0.71s0.71-0.31 0.71-0.71v-3.75c2.39 0.11 4.45 1.61 5.33 3.72z" opacity=".4"/>
 <path d="m18.12 8.8799v3.94c0 3.37-2.75 6.12-6.12 6.12-0.18 0-0.36-0.01-0.54-0.03-0.08 0-0.16-0.01-0.23-0.02-0.13-0.02-0.26-0.04-0.38-0.06-0.05 0-0.09-0.02-0.15-0.03-0.14-0.03-0.28-0.07-0.41-0.11-0.22-0.06-0.43004-0.14-0.63004-0.22-0.13-0.05-0.25-0.1-0.37-0.17-0.03-0.01-0.05-0.03-0.08-0.04-0.1-0.05-0.2-0.1-0.3-0.17l9.21-9.21z"/>
 <path d="m21.75 11v2c0 5.38-4.37 9.75-9.75 9.75-2.12 0-4.15-0.68-5.82-1.93l1.08-1.08c1.38 0.98 3.02 1.51 4.74 1.51 4.55 0 8.25-3.7 8.25-8.25v-2c0-0.41 0.34-0.75 0.75-0.75s0.75 0.34 0.75 0.75z"/>
 <path d="m21.77 2.2299c-0.3-0.3-0.79-0.3-1.09 0l-18.45 18.46c-0.3 0.3-0.3 0.79 0 1.09 0.15 0.14 0.34 0.22 0.54 0.22s0.39-0.08 0.54-0.23l18.46-18.46c0.31-0.3 0.31-0.78 0-1.08z"/>
</svg>
