<?xml version="1.0" encoding="UTF-8"?>
<svg width="24" height="24" viewBox="0 0 24 24" xmlns="http://www.w3.org/2000/svg">
 <path d="m19.12 9.1201c-0.39 0-0.7 0.31-0.7 0.7v1.58c0 3.54-2.88 6.42-6.42 6.42-3.54 0-6.42-2.88-6.42-6.42v-1.59c0-0.39-0.31-0.7-0.7-0.7s-0.7 0.31-0.7 0.7v1.58c0 4.07 3.13 7.42 7.12 7.78v2.13c0 0.39 0.31 0.7 0.7 0.7s0.7-0.31 0.7-0.7v-2.13c3.98-0.35 7.12-3.71 7.12-7.78v-1.58c-0.01-0.38-0.32-0.69-0.7-0.69z" opacity=".4"/>
 <path d="m12 2c-2.44 0-4.42 1.98-4.42 4.42v5.12c0 2.44 1.98 4.42 4.42 4.42 2.44 0 4.42-1.98 4.42-4.42v-5.12c0-2.44-1.98-4.42-4.42-4.42zm1.31 6.95c-0.07 0.26-0.3 0.43-0.56 0.43-0.05 0-0.1-0.01-0.15-0.02-0.39-0.11-0.8-0.11-1.19 0-0.32 0.09-0.63-0.1-0.71-0.41-0.09-0.31 0.1-0.63 0.41-0.71 0.59-0.16 1.21-0.16 1.8 0 0.3 0.08 0.48 0.4 0.4 0.71zm0.53-1.94c-0.09 0.24-0.31 0.38-0.55 0.38-0.07 0-0.13-0.01-0.2-0.03-0.7-0.26-1.48-0.26-2.18 0-0.3 0.11-0.64-0.05-0.75-0.35s0.05-0.64 0.35-0.74c0.96-0.35 2.02-0.35 2.98 0 0.3 0.11 0.46 0.44 0.35 0.74z"/>
</svg>
