<svg width="24" height="24" viewBox="0 0 24 24"  xmlns="http://www.w3.org/2000/svg">
<path d="M7.99986 11.75C7.58986 11.75 7.24986 11.41 7.24986 11V6C7.24986 3.38 9.37986 1.25 11.9999 1.25C14.6199 1.25 16.7499 3.38 16.7499 6V6.3C16.7499 6.71 16.4099 7.05 15.9999 7.05C15.5899 7.05 15.2499 6.71 15.2499 6.3V6C15.2499 4.21 13.7899 2.75 11.9999 2.75C10.2099 2.75 8.74986 4.21 8.74986 6V11C8.74986 11.41 8.40986 11.75 7.99986 11.75Z" />
<path d="M11.9999 16.25C10.6599 16.25 9.37986 15.68 8.47986 14.69C8.19986 14.38 8.22986 13.91 8.52986 13.63C8.83986 13.35 9.30986 13.38 9.58986 13.68C10.1999 14.36 11.0799 14.75 11.9999 14.75C13.7899 14.75 15.2499 13.29 15.2499 11.5V11C15.2499 10.59 15.5899 10.25 15.9999 10.25C16.4099 10.25 16.7499 10.59 16.7499 11V11.5C16.7499 14.12 14.6199 16.25 11.9999 16.25Z" />
<path d="M11.9999 19.75C9.86986 19.75 7.82986 18.95 6.26986 17.5C5.96986 17.22 5.94986 16.74 6.22986 16.44C6.51986 16.13 6.99986 16.12 7.29986 16.4C8.57986 17.59 10.2499 18.25 11.9999 18.25C15.7999 18.25 18.8999 15.15 18.8999 11.35V9.65C18.8999 9.24 19.2399 8.9 19.6499 8.9C20.0599 8.9 20.3999 9.24 20.3999 9.65V11.35C20.3999 15.98 16.6299 19.75 11.9999 19.75Z" />
<path d="M4.94986 15.08C4.65986 15.08 4.37986 14.91 4.25986 14.62C3.81986 13.58 3.59986 12.49 3.59986 11.35V9.65C3.59986 9.24 3.93986 8.9 4.34986 8.9C4.75986 8.9 5.09986 9.24 5.09986 9.65V11.35C5.09986 12.28 5.27986 13.18 5.63986 14.03C5.79986 14.41 5.61986 14.85 5.23986 15.01C5.14986 15.06 5.04986 15.08 4.94986 15.08Z" />
<path d="M3.91986 19.74C3.72986 19.74 3.53986 19.67 3.38986 19.52C3.09986 19.23 3.09986 18.75 3.38986 18.46L19.5399 2.31C19.8299 2.02 20.3099 2.02 20.5999 2.31C20.8899 2.6 20.8899 3.08 20.5999 3.37L4.45986 19.52C4.30986 19.67 4.11986 19.74 3.91986 19.74Z" />
<path d="M10.9999 6.75C10.5899 6.75 10.2499 6.41 10.2499 6V3C10.2499 2.59 10.5899 2.25 10.9999 2.25C11.4099 2.25 11.7499 2.59 11.7499 3V6C11.7499 6.41 11.4099 6.75 10.9999 6.75Z" />
<path d="M11.9999 22.75C11.5899 22.75 11.2499 22.41 11.2499 22V19C11.2499 18.59 11.5899 18.25 11.9999 18.25C12.4099 18.25 12.7499 18.59 12.7499 19V22C12.7499 22.41 12.4099 22.75 11.9999 22.75Z" />
</svg>
