<svg width="24" height="24" viewBox="0 0 24 24"  xmlns="http://www.w3.org/2000/svg">
<path d="M15.0301 11.5197C14.7901 11.5197 14.5501 11.3997 14.4101 11.1897L11.2101 6.40969C11.1001 6.23969 11.0601 6.0397 11.1001 5.8497C11.1401 5.6597 11.2501 5.47969 11.4201 5.36969L17.0801 1.57968C17.5201 1.27968 18.0501 1.17969 18.5701 1.27969C19.0901 1.37969 19.5401 1.67969 19.8401 2.11969L21.6601 4.82968C22.2701 5.73968 22.0301 6.97969 21.1101 7.58969L15.4601 11.3797C15.3201 11.4797 15.1801 11.5197 15.0301 11.5197ZM12.8801 6.1997L15.2401 9.7297L20.2701 6.35968C20.5001 6.20968 20.5601 5.89968 20.4001 5.67968L18.5801 2.96969C18.5101 2.85969 18.4001 2.7897 18.2701 2.7597C18.1401 2.7297 18.0101 2.75968 17.9001 2.82968L12.8801 6.1997Z" />
<path d="M9.94022 14.2397C9.70022 14.2397 9.46022 14.1197 9.32022 13.9097L6.76022 10.0897C6.53022 9.74971 6.62022 9.2797 6.97022 9.0497L11.7502 5.84972C11.9202 5.73972 12.1202 5.69971 12.3102 5.73971C12.5102 5.77971 12.6802 5.88971 12.7902 6.05971L15.3502 9.87972C15.5802 10.2197 15.4902 10.6897 15.1402 10.9197L10.3602 14.1197C10.2302 14.1997 10.0802 14.2397 9.94022 14.2397ZM8.42022 9.87972L10.1402 12.4497L13.6702 10.0897L11.9502 7.50973L8.42022 9.87972Z" />
<path d="M5.2799 16.8197C4.7199 16.8197 4.1599 16.5497 3.8199 16.0397L2.68991 14.3597C2.42991 13.9697 2.3399 13.5097 2.4299 13.0497C2.5199 12.5897 2.7799 12.1997 3.1699 11.9397L7.11991 9.2997C7.45991 9.0697 7.92991 9.15973 8.15991 9.50973L10.3999 12.8497C10.6299 13.1897 10.5399 13.6597 10.1899 13.8897L6.2399 16.5297C5.9499 16.7197 5.6099 16.8197 5.2799 16.8197ZM7.32991 10.9497L4.00991 13.1697C3.89991 13.2497 3.85991 13.3997 3.93991 13.5197L5.0699 15.1997C5.1499 15.3097 5.2999 15.3497 5.4199 15.2697L8.7399 13.0497L7.32991 10.9497Z" />
<path d="M7.56019 22.7497C7.46019 22.7497 7.3502 22.7297 7.2502 22.6797C6.8702 22.5097 6.71019 22.0597 6.88019 21.6897L11.3702 11.8897C11.5402 11.5097 11.9902 11.3497 12.3602 11.5197C12.7402 11.6897 12.9002 12.1397 12.7302 12.5097L8.24019 22.3097C8.11019 22.5897 7.84019 22.7497 7.56019 22.7497Z" />
<path d="M16.44 22.7497C16.15 22.7497 15.88 22.5897 15.76 22.3097L11.32 12.5097C11.15 12.1297 11.32 11.6897 11.69 11.5197C12.06 11.3497 12.51 11.5197 12.68 11.8897L17.12 21.6897C17.29 22.0697 17.12 22.5097 16.75 22.6797C16.65 22.7297 16.55 22.7497 16.44 22.7497Z" />
</svg>
