<?xml version="1.0" encoding="UTF-8"?>
<svg width="24" height="24" viewBox="0 0 24 24" xmlns="http://www.w3.org/2000/svg">
 <path d="m18 15v4c0 1.65-1.35 3-3 3h-6c-1.65 0-3-1.35-3-3v-5.02l3.89 0.02c0.72999 0 1.45 0.17 2.11 0.5s1.38 0.5 2.12 0.5h3.88z"/>
 <path d="m18 10.83v4.17h-3.88c-0.74 0-1.46-0.17-2.12-0.5s-1.38-0.5-2.11-0.5l-3.89-0.02v-3.15c0-0.46 0.26003-1.09 0.59003-1.42l2.12-2.12c0.18-0.18 0.28998-0.44 0.28998-0.7v-1.68c0.16 0.06 0.32 0.08999 0.5 0.08999h5c0.18 0 0.34-0.02999 0.5-0.08999v1.68c0 0.26 0.11 0.52 0.29 0.7l2.12 2.12c0.33 0.33 0.59 0.96004 0.59 1.42z" opacity=".4"/>
 <path d="M14.5 2H9.5C8.67 2 8 2.67 8 3.5C8 4.15 8.42 4.71 9 4.91C9.16 4.97 9.32 5 9.5 5H14.5C14.68 5 14.84 4.97 15 4.91C15.58 4.71 16 4.15 16 3.5C16 2.67 15.33 2 14.5 2Z"/>
</svg>
