<?xml version="1.0" encoding="UTF-8"?>
<svg width="24" height="24" viewBox="0 0 24 24" xmlns="http://www.w3.org/2000/svg">
 <path d="m2 9v-1c0-2.76 2.24-5 5-5h10c2.76 0 5 2.24 5 5v8c0 2.76-2.24 5-5 5h-10c-2.76 0-5-2.24-5-5v-7z" opacity=".4"/>
 <path d="m16.14 15.44c-0.37 0-0.69-0.28-0.74-0.65-0.43-3.38-2.89-5.84-6.27-6.27-0.41-0.05-0.70001-0.43002-0.65001-0.84002s0.43002-0.69999 0.84002-0.64999c4.07 0.52 7.04 3.49 7.57 7.57 0.05 0.41-0.24 0.79-0.65 0.84h-0.1z"/>
 <path d="m13.44 16.3c-0.37 0-0.69-0.28-0.74-0.65-0.31-2.38-2.04-4.12-4.43-4.43-0.41-0.05-0.70001-0.43-0.65001-0.84 0.05-0.40998 0.43001-0.69999 0.84001-0.64999 3.08 0.39999 5.33 2.64 5.73 5.73 0.05 0.41-0.24 0.79-0.65 0.84h-0.1z"/>
 <path d="m10.39 16.81c-0.37 0-0.69001-0.28-0.74001-0.65-0.13-1.02-0.87-1.76-1.89-1.89-0.41-0.05-0.69999-0.43-0.64999-0.84s0.42999-0.7 0.83999-0.65c1.69 0.22 2.97 1.5 3.19 3.19 0.05 0.41-0.24 0.79-0.65 0.84h-0.1z"/>
</svg>
