<?xml version="1.0" encoding="UTF-8"?>
<svg width="24" height="24" viewBox="0 0 24 24" xmlns="http://www.w3.org/2000/svg">
 <path d="m18 13c-2.76 0-5 2.24-5 5s2.24 5 5 5 5-2.24 5-5-2.24-5-5-5zm-0.84 6.27c0.25 0.25 0.25 0.66 0 0.92-0.13 0.13-0.29 0.19-0.46 0.19s-0.33-0.06-0.46-0.19l-1.73-1.73c-0.25-0.25-0.25-0.66 0-0.92l1.73-1.73c0.25-0.25 0.66-0.25 0.92 0 0.25 0.25 0.25 0.66 0 0.92l-1.27 1.27 1.27 1.27zm4.32-0.81-1.73 1.73c-0.13 0.13-0.29 0.19-0.46 0.19s-0.33-0.06-0.46-0.19c-0.25-0.25-0.25-0.66 0-0.92l1.27-1.27-1.27-1.27c-0.25-0.25-0.25-0.66 0-0.92 0.25-0.25 0.66-0.25 0.92 0l1.73 1.73c0.25 0.26 0.25 0.66 0 0.92z"/>
 <path d="m21 7v7c-0.83-0.63-1.87-1-3-1-2.76 0-5 2.24-5 5 0 1.63 0.79 3.09 2 4h-7c-3.5 0-5-2-5-5v-10c0-3 1.5-5 5-5h0.92999l0.04001 1.53c0.02 0.81 0.69 1.47 1.5 1.47h3.03c0.82 0 1.5-0.68 1.5-1.5v-1.5h1c3.5 0 5 2 5 5z" opacity=".4"/>
 <path d="m15 2v1.5c0 0.82-0.68 1.5-1.5 1.5h-3.03c-0.81002 0-1.48-0.65997-1.5-1.47l-0.04-1.53h6.07z"/>
</svg>
