<?xml version="1.0" encoding="UTF-8"?>
<svg width="24" height="24" viewBox="0 0 24 24" xmlns="http://www.w3.org/2000/svg">
 <path d="m19.3 7.92v5.15c0 3.08-1.76 4.4-4.4 4.4h-8.79c-0.45 0-0.87999-0.04-1.28-0.13-0.25-0.04-0.49-0.11-0.71-0.19-1.5-0.56-2.41-1.86-2.41-4.08v-5.15c0-3.08 1.76-4.4 4.4-4.4h8.79c2.24 0 3.85 0.94999 4.28 3.12 0.07 0.4 0.12 0.80997 0.12 1.28z" opacity=".4"/>
 <path d="m22.3 10.92v5.15c0 3.08-1.76 4.4-4.4 4.4h-8.79c-0.74 0-1.41-0.1-1.99-0.32-1.19-0.44-2-1.35-2.29-2.81 0.4 0.09 0.83 0.13 1.28 0.13h8.79c2.64 0 4.4-1.32 4.4-4.4v-5.15c0-0.47-0.04-0.88997-0.12-1.28 1.9 0.4 3.12 1.74 3.12 4.28z"/>
 <path d="m10.5 13.14c1.458 0 2.64-1.182 2.64-2.64 0-1.458-1.182-2.64-2.64-2.64-1.458 0-2.64 1.182-2.64 2.64 0 1.458 1.182 2.64 2.64 2.64z"/>
 <path d="m4.7798 8.25c-0.41 0-0.75 0.34-0.75 0.75v3c0 0.41 0.34 0.75 0.75 0.75s0.75-0.34 0.75-0.75v-3c0-0.41-0.33-0.75-0.75-0.75z"/>
 <path d="m16.21 8.25c-0.41 0-0.75 0.34-0.75 0.75v3c0 0.41 0.34 0.75 0.75 0.75s0.75-0.34 0.75-0.75v-3c0-0.41-0.33-0.75-0.75-0.75z"/>
</svg>
