<?xml version="1.0" encoding="UTF-8"?>
<svg width="24" height="24" viewBox="0 0 24 24" xmlns="http://www.w3.org/2000/svg">
 <path d="m22 9v6h-1c-3 0-4 1-4 4v1.5h-10v-1.5c0-3-1-4-4-4h-1v-6h1c3 0 4-1 4-4v-1.5h10v1.5c0 3 1 4 4 4h1z" opacity=".4"/>
 <path d="m12 15c1.6569 0 3-1.3431 3-3s-1.3431-3-3-3-3 1.3431-3 3 1.3431 3 3 3z"/>
 <path d="M7 3.5V5C7 8 6 9 3 9H2V8.5C2 5 4 3.5 7 3.5Z"/>
 <path d="m22 8.5v0.5h-1c-3 0-4-1-4-4v-1.5c3 0 5 1.5 5 5z"/>
 <path d="m7 19v1.5c-3 0-5-1.5-5-5v-0.5h1c3 0 4 1 4 4z"/>
 <path d="m22 15v0.5c0 3.5-2 5-5 5v-1.5c0-3 1-4 4-4h1z"/>
</svg>
