<?xml version="1.0" encoding="UTF-8"?>
<svg width="24" height="24" viewBox="0 0 24 24" xmlns="http://www.w3.org/2000/svg">
 <path d="m17 7.75c-0.19 0-0.38-0.07-0.53-0.22-0.29-0.29-0.29-0.77 0-1.06l2.05-2.05c-1.76-1.5-4.03-2.42-6.52-2.42-5.52 0-10 4.48-10 10s4.48 10 10 10 10-4.48 10-10c0-2.49-0.92-4.76-2.42-6.52l-2.05 2.05c-0.15 0.15-0.34 0.22-0.53 0.22z" opacity=".4"/>
 <path d="m13.75 11.82-1-0.35v-2.22h0.08c0.51 0 0.92 0.45 0.92 1 0 0.41 0.34 0.75 0.75 0.75s0.75-0.34 0.75-0.75c0-1.38-1.08-2.5-2.42-2.5h-0.08v-0.25c0-0.41-0.34-0.75-0.75-0.75s-0.75 0.34-0.75 0.75v0.25h-0.3c-1.21 0-2.2 1.02-2.2 2.28 0 1.46 0.85 1.93 1.5 2.16l1 0.35v2.22h-0.08c-0.51 0-0.92-0.45-0.92-1 0-0.41-0.34-0.75-0.75-0.75s-0.75 0.34-0.75 0.75c0 1.38 1.08 2.5 2.42 2.5h0.08v0.25c0 0.41 0.34 0.75 0.75 0.75s0.75-0.34 0.75-0.75v-0.25h0.3c1.21 0 2.2-1.02 2.2-2.28 0-1.47-0.85-1.94-1.5-2.16zm-3.01-1.06c-0.34-0.12-0.49-0.19-0.49-0.74 0-0.43 0.32-0.78 0.7-0.78h0.3v1.69l-0.51-0.17zm2.31 3.99h-0.3v-1.69l0.51 0.18c0.34 0.12 0.49 0.19 0.49 0.74 0 0.42-0.32 0.77-0.7 0.77z"/>
 <path d="m22.69 1.71c-0.08-0.18-0.22-0.32999-0.41-0.40999-0.09-0.04-0.19-0.06001-0.29-0.06001h-4c-0.41 0-0.75 0.34-0.75 0.75s0.34 0.75 0.75 0.75h2.19l-1.6699 1.67c0.38 0.33 0.73 0.67999 1.06 1.06l1.6699-1.67v2.2c0 0.41 0.34 0.75 0.75 0.75s0.75-0.34 0.75-0.75v-4c0.01-0.1-0.01-0.19-0.05-0.29z"/>
</svg>
