<?xml version="1.0" encoding="UTF-8"?>
<svg width="24" height="24" viewBox="0 0 24 24" xmlns="http://www.w3.org/2000/svg">
 <path d="m1.7003 20.24c0.01-0.01 0.01001-0.02 0.01001-0.02l5.5-5.5c0.01-0.01 0.01996-0.01 0.02996-0.02-0.64-0.44-1.42-0.7-2.25-0.7-2.21 0-4 1.79-4 4 0 0.75 0.21002 1.46 0.58002 2.06 0.05 0.06 0.09001 0.12 0.13001 0.18z"/>
 <path d="m8.3 15.75c-0.01 0.01-0.00996 0.02-0.01996 0.03l-5.5 5.5c-0.01 0.01-0.02003 0.01-0.03003 0.02 0.64 0.44 1.41 0.7 2.25 0.7 1.46 0 2.73-0.78 3.42-1.94 0.37-0.6 0.58002-1.31 0.58002-2.06 0-0.84-0.26001-1.61-0.70001-2.25z"/>
 <path d="m22 9v6c0 3.5-2 5-5 5h-8.55c0.35-0.59 0.54999-1.27 0.54999-2 0-2.21-1.79-4-4-4-1.2 0-2.27 0.53-3 1.36v-6.36c0-3.5 2-5 5-5h10c3 0 5 1.5 5 5z" opacity=".4"/>
 <path d="m12 14.5c1.3807 0 2.5-1.1193 2.5-2.5s-1.1193-2.5-2.5-2.5-2.5 1.1193-2.5 2.5 1.1193 2.5 2.5 2.5z"/>
 <path d="m18.5 14.75c-0.41 0-0.75-0.34-0.75-0.75v-4c0-0.41 0.34-0.75 0.75-0.75s0.75 0.34 0.75 0.75v4c0 0.41-0.34 0.75-0.75 0.75z"/>
</svg>
