<svg width="24" height="24" viewBox="0 0 24 24"  xmlns="http://www.w3.org/2000/svg">
<path d="M14.8902 18.2197H6.10019C5.58019 18.2197 5.09018 18.1698 4.65018 18.0698C4.42018 18.0398 4.14019 17.9597 3.85019 17.8497C2.52019 17.3497 0.950195 16.1198 0.950195 13.0598V7.90973C0.950195 4.63973 2.83019 2.75977 6.10019 2.75977H14.8902C17.6502 2.75977 19.4302 4.07974 19.9102 6.47974C20.0002 6.91974 20.0402 7.38973 20.0402 7.90973V13.0598C20.0402 16.3498 18.1702 18.2197 14.8902 18.2197ZM6.11017 4.27979C3.65017 4.27979 2.46017 5.46975 2.46017 7.92975V13.0798C2.46017 14.8698 3.09019 15.9698 4.38019 16.4598C4.58019 16.5298 4.7702 16.5797 4.9502 16.6097C5.3302 16.6897 5.70017 16.7297 6.11017 16.7297H14.9002C17.3602 16.7297 18.5502 15.5398 18.5502 13.0798V7.92975C18.5502 7.50975 18.5202 7.13974 18.4502 6.79974C18.1102 5.09974 16.9502 4.27979 14.9002 4.27979H6.11017Z" />
<path d="M17.8901 21.2197H9.10009C8.25009 21.2197 7.49008 21.0997 6.84008 20.8497C5.37008 20.2997 4.41007 19.1397 4.08007 17.4797C4.03007 17.2297 4.11009 16.9697 4.29009 16.7997C4.47009 16.6197 4.7301 16.5497 4.9801 16.6097C5.3101 16.6797 5.68009 16.7197 6.10009 16.7197H14.8901C17.3501 16.7197 18.5401 15.5297 18.5401 13.0697V7.91972C18.5401 7.49972 18.5101 7.12972 18.4401 6.78972C18.3901 6.53972 18.4701 6.28972 18.6401 6.10972C18.8201 5.92972 19.0701 5.84971 19.3201 5.90971C21.7201 6.39971 23.0401 8.17972 23.0401 10.9197V16.0697C23.0401 19.3497 21.1701 21.2197 17.8901 21.2197ZM5.9201 18.2197C6.2401 18.7997 6.72009 19.2098 7.38009 19.4498C7.86009 19.6298 8.44007 19.7197 9.11007 19.7197H17.9001C20.3601 19.7197 21.5501 18.5297 21.5501 16.0697V10.9197C21.5501 9.33972 21.0601 8.28973 20.0501 7.73973C20.0501 7.79973 20.0501 7.85972 20.0501 7.91972V13.0697C20.0501 16.3397 18.1701 18.2197 14.9001 18.2197H6.11007C6.04007 18.2197 5.9801 18.2197 5.9201 18.2197Z" />
<path d="M10.4999 13.8898C8.62988 13.8898 7.10986 12.3698 7.10986 10.4998C7.10986 8.62976 8.62988 7.10974 10.4999 7.10974C12.3699 7.10974 13.8899 8.62976 13.8899 10.4998C13.8899 12.3698 12.3699 13.8898 10.4999 13.8898ZM10.4999 8.60974C9.45988 8.60974 8.60986 9.45976 8.60986 10.4998C8.60986 11.5398 9.45988 12.3898 10.4999 12.3898C11.5399 12.3898 12.3899 11.5398 12.3899 10.4998C12.3899 9.45976 11.5399 8.60974 10.4999 8.60974Z" />
<path d="M4.78027 13.4498C4.37027 13.4498 4.03027 13.1098 4.03027 12.6998V8.2998C4.03027 7.8898 4.37027 7.5498 4.78027 7.5498C5.19027 7.5498 5.53027 7.8898 5.53027 8.2998V12.6998C5.53027 13.1098 5.20027 13.4498 4.78027 13.4498Z" />
<path d="M16.21 13.4498C15.8 13.4498 15.46 13.1098 15.46 12.6998V8.2998C15.46 7.8898 15.8 7.5498 16.21 7.5498C16.62 7.5498 16.96 7.8898 16.96 8.2998V12.6998C16.96 13.1098 16.63 13.4498 16.21 13.4498Z" />
</svg>
