<?xml version="1.0" encoding="UTF-8"?>
<svg width="24" height="24" viewBox="0 0 24 24" xmlns="http://www.w3.org/2000/svg">
 <path d="m22 9v6c0 3.5-2 5-5 5h-7.26c0.17-0.47 0.26001-0.97 0.26001-1.5 0-2.48-2.01-4.5-4.5-4.5-1.41 0-2.68 0.66-3.5 1.68v-6.68c0-3.5 2-5 5-5h10c3 0 5 1.5 5 5z" opacity=".4"/>
 <path d="m12 14.5c1.3807 0 2.5-1.1193 2.5-2.5s-1.1193-2.5-2.5-2.5-2.5 1.1193-2.5 2.5 1.1193 2.5 2.5 2.5z"/>
 <path d="m18.5 14.75c-0.41 0-0.75-0.34-0.75-0.75v-4c0-0.41 0.34-0.75 0.75-0.75s0.75 0.34 0.75 0.75v4c0 0.41-0.34 0.75-0.75 0.75z"/>
 <path d="m5.5 14c-1.41 0-2.68 0.66-3.5 1.68-0.63 0.77-1 1.75-1 2.82 0 2.49 2.02 4.5 4.5 4.5 1.96 0 3.63-1.25 4.24-3 0.17-0.47 0.26001-0.97 0.26001-1.5 0-2.48-2.01-4.5-4.5-4.5zm2.66 6.46c-0.03 0.06-0.06999 0.13-0.11999 0.18l-0.81 0.8c-0.1 0.11-0.24 0.16-0.38 0.16-0.15 0-0.28996-0.05-0.38996-0.16-0.18-0.17-0.20003-0.44-0.09002-0.64h-2.26c-0.72 0-1.31-0.59-1.31-1.32v-0.11c0-0.31 0.24999-0.55 0.54999-0.55s0.55004 0.24 0.55004 0.55v0.11c0 0.12 0.08997 0.22 0.20997 0.22h2.26c-0.11001-0.21-0.08998-0.47 0.09002-0.65 0.21-0.21 0.55996-0.21 0.76996 0l0.81 0.81c0.05 0.05 0.08999 0.11 0.11999 0.18 0.05 0.13 0.05 0.28 0 0.42zm0.04004-2.83c0 0.31-0.24999 0.55-0.54999 0.55s-0.55004-0.24-0.55004-0.55v-0.11c0-0.12-0.08997-0.22-0.20997-0.22h-2.26c0.11 0.21 0.08998 0.47-0.09002 0.65-0.1 0.1-0.23996 0.16-0.38996 0.16-0.14 0-0.28-0.06-0.38-0.16l-0.81-0.81c-0.05-0.05-0.08999-0.11-0.11999-0.18-0.05-0.13-0.05-0.28 0-0.42 0.03-0.06 0.06999-0.13 0.11999-0.18l0.81-0.8c0.21-0.22 0.55996-0.22 0.76996 0 0.18 0.17 0.20002 0.44 0.09002 0.64h2.26c0.72 0 1.31 0.59 1.31 1.32v0.11z"/>
</svg>
