<?xml version="1.0" encoding="UTF-8"?>
<svg width="24" height="24" viewBox="0 0 24 24" xmlns="http://www.w3.org/2000/svg">
 <path d="m16.8 2h-10.59c-2.32 0-4.2 1.88-4.2 4.19v6.37c0 2.32 1.88 4.19 4.19 4.19h3.6c0.55003 0 1 0.45 1 1v0.82c0 0.55-0.45 1-1 1h-2.25c-0.39 0-0.71 0.32-0.71 0.71s0.32 0.71 0.71 0.71h7.93c0.39 0 0.71-0.32 0.71-0.71s-0.32-0.71-0.71-0.71h-2.25c-0.55 0-1-0.45-1-1v-0.82c0-0.55 0.45-1 1-1h3.57c2.32 0 4.19-1.88 4.19-4.19v-6.37c0-2.31-1.88-4.19-4.19-4.19z" opacity=".4"/>
 <path d="m19.64 9.5h-5.29c-1.73 0-2.36 0.63-2.36 2.38v7.73c0 1.76 0.62 2.38 2.36 2.38h5.29c1.73 0 2.36-0.63 2.36-2.38v-7.73c0-1.76-0.62-2.38-2.36-2.38zm-2.64 10.82c-0.61 0-1.1-0.49-1.1-1.1s0.49-1.1 1.1-1.1 1.1 0.49 1.1 1.1-0.49 1.1-1.1 1.1z"/>
 <path d="m18.1 19.22c0 0.61-0.49 1.1-1.1 1.1s-1.1-0.49-1.1-1.1 0.49-1.1 1.1-1.1 1.1 0.5 1.1 1.1z" opacity=".4"/>
</svg>
