<?xml version="1.0" encoding="UTF-8"?>
<svg width="24" height="24" viewBox="0 0 24 24" xmlns="http://www.w3.org/2000/svg">
 <path d="M20.97 7.19V13.37H2V7.19C2 4.88 3.88 3 6.19 3H16.78C19.09 3 20.97 4.88 20.97 7.19Z" opacity=".4"/>
 <path d="m2 13.37v0.19c0 2.32 1.88 4.19 4.19 4.19h3.6c0.55 0 1 0.45 1 1v0.82c0 0.55-0.45 1-1 1h-2.26c-0.39 0-0.71 0.32-0.71 0.71s0.32 0.71 0.71 0.71h7.93c0.39 0 0.71-0.32 0.71-0.71s-0.32-0.71-0.71-0.71h-2.25c-0.55 0-1-0.45-1-1v-0.82c0-0.55 0.45-1 1-1h3.57c2.32 0 4.19-1.88 4.19-4.19v-0.19h-18.97z"/>
 <path d="m21.99 2.3596-1.13 0.79v-0.42c0-0.95-0.77-1.71-1.71-1.71h-4.28c-1.03-0.01-1.87 0.83-1.87 1.86v3.28c0 0.86 0.43 1.71 1.71 1.71h4.43c0.95 0 1.71-0.77 1.71-1.71v-0.43l1.13 0.79c0.57 0.39 1.02 0.15 1.02-0.53v-3.1c0-0.68-0.45-0.91-1.01-0.53z"/>
</svg>
