<?xml version="1.0" encoding="UTF-8"?>
<svg width="24" height="24" viewBox="0 0 24 24" xmlns="http://www.w3.org/2000/svg">
 <path d="M21.97 6.41V12.91H2V6.41C2 3.98 3.98 2 6.41 2H17.56C19.99 2 21.97 3.98 21.97 6.41Z" opacity=".4"/>
 <path d="m2 12.92v0.2c0 2.44 1.98 4.41 4.41 4.41h3.84c0.55 0 1 0.45 1 1v0.97c0 0.55-0.45 1-1 1h-2.42c-0.41 0-0.75 0.34-0.75 0.75s0.33 0.75 0.75 0.75h8.35c0.41 0 0.75-0.34 0.75-0.75s-0.34-0.75-0.75-0.75h-2.42c-0.55 0-1-0.45-1-1v-0.97c0-0.55 0.45-1 1-1h3.81c2.44 0 4.41-1.98 4.41-4.41v-0.2h-19.98z"/>
</svg>
