<?xml version="1.0" encoding="UTF-8"?>
<svg width="24" height="24" viewBox="0 0 24 24" xmlns="http://www.w3.org/2000/svg">
 <path d="M16.19 2H7.81C4.17 2 2 4.17 2 7.81V16.18C2 19.83 4.17 22 7.81 22H16.18C19.82 22 21.99 19.83 21.99 16.19V7.81C22 4.17 19.83 2 16.19 2Z" opacity=".4"/>
 <path d="m12 10.31c0.7235 0 1.31-0.58648 1.31-1.31s-0.5865-1.31-1.31-1.31-1.31 0.58651-1.31 1.31 0.5865 1.31 1.31 1.31z" opacity=".97"/>
 <path d="m8.31 13.69c-0.72 0-1.31 0.59-1.31 1.31s0.59 1.31 1.31 1.31 1.31-0.59 1.31-1.31-0.59-1.31-1.31-1.31z" opacity=".97"/>
 <path d="m15.69 13.69c-0.72 0-1.31 0.59-1.31 1.31s0.59 1.31 1.31 1.31 1.31-0.59 1.31-1.31-0.59-1.31-1.31-1.31z" opacity=".97"/>
</svg>
