<svg width="24" height="24" viewBox="0 0 24 24"  xmlns="http://www.w3.org/2000/svg">
<path opacity="0.4" d="M16.19 2H7.81C4.17 2 2 4.17 2 7.81V16.18C2 19.83 4.17 22 7.81 22H16.18C19.82 22 21.99 19.83 21.99 16.19V7.81C22 4.17 19.83 2 16.19 2Z" />
<path opacity="0.97" d="M11.9999 10.3104C12.7234 10.3104 13.3099 9.72392 13.3099 9.00043C13.3099 8.27694 12.7234 7.69043 11.9999 7.69043C11.2764 7.69043 10.6899 8.27694 10.6899 9.00043C10.6899 9.72392 11.2764 10.3104 11.9999 10.3104Z" />
<path opacity="0.97" d="M8.31 13.6904C7.59 13.6904 7 14.2804 7 15.0004C7 15.7204 7.59 16.3104 8.31 16.3104C9.03 16.3104 9.62 15.7204 9.62 15.0004C9.62 14.2804 9.03 13.6904 8.31 13.6904Z" />
<path opacity="0.97" d="M15.6899 13.6904C14.9699 13.6904 14.3799 14.2804 14.3799 15.0004C14.3799 15.7204 14.9699 16.3104 15.6899 16.3104C16.4099 16.3104 16.9999 15.7204 16.9999 15.0004C16.9999 14.2804 16.4099 13.6904 15.6899 13.6904Z" />
</svg>
