<svg width="24" height="24" viewBox="0 0 24 24"  xmlns="http://www.w3.org/2000/svg">
<path d="M20.9602 17.8405L19.3302 18.3905C18.8802 18.5405 18.5202 18.8905 18.3702 19.3505L17.8202 20.9805C17.3502 22.3905 15.3702 22.3605 14.9302 20.9505L13.0802 15.0005C12.7202 13.8205 13.8102 12.7205 14.9802 13.0905L20.9402 14.9405C22.3402 15.3805 22.3602 17.3705 20.9602 17.8405Z" />
<path opacity="0.4" d="M11.5 21C16.7467 21 21 16.7467 21 11.5C21 6.25329 16.7467 2 11.5 2C6.25329 2 2 6.25329 2 11.5C2 16.7467 6.25329 21 11.5 21Z" />
</svg>
