<svg width="24" height="24" viewBox="0 0 24 24"  xmlns="http://www.w3.org/2000/svg">
<path opacity="0.4" d="M15.4798 2H7.52977C4.06977 2 2.00977 4.05999 2.00977 7.51999V15.47C2.00977 18.93 4.07977 20.99 7.52977 20.99H15.4798C18.9398 20.99 20.9998 18.93 20.9998 15.47V7.51999C20.9998 4.05999 18.9298 2 15.4798 2Z" />
<path d="M21.9602 18.8405L20.3302 19.3905C19.8802 19.5405 19.5202 19.8905 19.3702 20.3505L18.8202 21.9805C18.3502 23.3905 16.3702 23.3605 15.9302 21.9505L14.0802 16.0005C13.7202 14.8205 14.8102 13.7205 15.9802 14.0905L21.9402 15.9405C23.3402 16.3805 23.3602 18.3705 21.9602 18.8405Z" />
</svg>
