<?xml version="1.0" encoding="UTF-8"?>
<svg width="24" height="24" viewBox="0 0 24 24" xmlns="http://www.w3.org/2000/svg">
 <path d="m19.5 9.5v5c0 4.13-3.37 7.5-7.5 7.5s-7.5-3.37-7.5-7.5v-5c0-2.06 0.84-3.94 2.2-5.3 1.19-1.19 2.78-1.98 4.55-2.16 0.24-0.03 0.5-0.04 0.75-0.04s0.51 0.01 0.75 0.04c3.78 0.38 6.75 3.58 6.75 7.46z" opacity=".4"/>
 <path d="m13.87 7.5v2c0 1.03-0.84 1.88-1.87 1.88-1.04 0-1.88-0.85-1.88-1.88v-2c0-0.77 0.47-1.43 1.13-1.72v-3.74c0.24-0.03 0.5-0.04 0.75-0.04s0.51 0.01 0.75 0.04v3.74c0.66 0.29 1.12 0.95 1.12 1.72z"/>
</svg>
