<svg width="24" height="24" viewBox="0 0 24 24"  xmlns="http://www.w3.org/2000/svg">
<path d="M7.97021 22.7499C5.35021 22.7499 3.22021 20.6199 3.22021 17.9999C3.22021 15.3799 5.35021 13.2499 7.97021 13.2499C10.5902 13.2499 12.7202 15.3799 12.7202 17.9999C12.7202 20.6199 10.5902 22.7499 7.97021 22.7499ZM7.97021 14.7499C6.18021 14.7499 4.72021 16.2099 4.72021 17.9999C4.72021 19.7899 6.18021 21.2499 7.97021 21.2499C9.76021 21.2499 11.2202 19.7899 11.2202 17.9999C11.2202 16.2099 9.77021 14.7499 7.97021 14.7499Z" />
<path d="M11.9702 18.7499C11.5602 18.7499 11.2202 18.4099 11.2202 17.9999V3.99994C11.2202 3.58994 11.5602 3.24994 11.9702 3.24994C12.3802 3.24994 12.7202 3.58994 12.7202 3.99994V17.9999C12.7202 18.4099 12.3902 18.7499 11.9702 18.7499Z" />
<path d="M19.1302 10.2299C18.8002 10.2299 18.4502 10.1699 18.1102 10.0599L13.6902 8.58994C12.3102 8.12994 11.2302 6.62994 11.2302 5.17994V3.99994C11.2302 3.02994 11.6302 2.18994 12.3102 1.68994C13.0002 1.18994 13.9202 1.08994 14.8402 1.38994L19.2602 2.85994C20.6402 3.31994 21.7202 4.81994 21.7202 6.26994V7.43994C21.7202 8.40994 21.3202 9.24994 20.6402 9.74994C20.2102 10.0799 19.6802 10.2299 19.1302 10.2299ZM13.8202 2.71994C13.5802 2.71994 13.3602 2.77994 13.1902 2.90994C12.8902 3.11994 12.7302 3.50994 12.7302 3.99994V5.16994C12.7302 5.96994 13.4002 6.89994 14.1602 7.15994L18.5802 8.62994C19.0402 8.78994 19.4702 8.74994 19.7602 8.53994C20.0602 8.32994 20.2202 7.93994 20.2202 7.44994V6.27994C20.2202 5.47994 19.5502 4.54994 18.7902 4.28994L14.3702 2.81994C14.1802 2.74994 13.9902 2.71994 13.8202 2.71994Z" />
</svg>
