<svg width="24" height="24" viewBox="0 0 24 24"  xmlns="http://www.w3.org/2000/svg">
<path opacity="0.4" d="M22 3.75H2C1.59 3.75 1.25 3.41 1.25 3C1.25 2.59 1.59 2.25 2 2.25H22C22.41 2.25 22.75 2.59 22.75 3C22.75 3.41 22.41 3.75 22 3.75Z" />
<path opacity="0.4" d="M11 9.75H2C1.59 9.75 1.25 9.41 1.25 9C1.25 8.59 1.59 8.25 2 8.25H11C11.41 8.25 11.75 8.59 11.75 9C11.75 9.41 11.41 9.75 11 9.75Z" />
<path opacity="0.4" d="M8 15.75H2C1.59 15.75 1.25 15.41 1.25 15C1.25 14.59 1.59 14.25 2 14.25H8C8.41 14.25 8.75 14.59 8.75 15C8.75 15.41 8.41 15.75 8 15.75Z" />
<path opacity="0.4" d="M6 21.75H2C1.59 21.75 1.25 21.41 1.25 21C1.25 20.59 1.59 20.25 2 20.25H6C6.41 20.25 6.75 20.59 6.75 21C6.75 21.41 6.41 21.75 6 21.75Z" />
<path d="M21.8602 7.67994C21.2702 7.22994 20.4602 7.13997 19.5102 7.39997L15.1602 8.57997C13.9902 8.89997 13.2702 9.84994 13.2702 11.0499V13.5999V17.28C12.8502 17.04 12.3602 16.89 11.8402 16.89C10.2302 16.89 8.91016 18.2 8.91016 19.82C8.91016 21.43 10.2202 22.7499 11.8402 22.7499C13.4602 22.7499 14.7702 21.44 14.7702 19.82V14.1699L21.2502 12.4V15.83C20.8302 15.59 20.3402 15.44 19.8202 15.44C18.2102 15.44 16.8902 16.7499 16.8902 18.3699C16.8902 19.9799 18.2002 21.2999 19.8202 21.2999C21.4402 21.2999 22.7502 19.9899 22.7502 18.3699V11.4199V9.86994C22.7502 8.85994 22.4502 8.11994 21.8602 7.67994ZM11.8402 21.2499C11.0502 21.2499 10.4102 20.61 10.4102 19.82C10.4102 19.03 11.0502 18.39 11.8402 18.39C12.6302 18.39 13.2702 19.03 13.2702 19.82C13.2702 20.61 12.6302 21.2499 11.8402 21.2499ZM19.8202 19.7999C19.0302 19.7999 18.3902 19.1599 18.3902 18.3699C18.3902 17.5799 19.0302 16.94 19.8202 16.94C20.6102 16.94 21.2502 17.5799 21.2502 18.3699C21.2502 19.1599 20.6102 19.7999 19.8202 19.7999Z" />
</svg>
