<svg width="24" height="24" viewBox="0 0 24 24"  xmlns="http://www.w3.org/2000/svg">
<path d="M5.58994 22.6998C3.24994 22.6998 1.26993 20.7198 1.26993 18.3798V12.2198C1.20993 9.30979 2.29995 6.55981 4.31995 4.48981C6.33995 2.42981 9.05994 1.2998 11.9699 1.2998C17.9299 1.2998 22.7699 6.1498 22.7699 12.1098V18.2698C22.7699 20.6498 20.83 22.5898 18.45 22.5898C16.07 22.5898 14.1299 20.6498 14.1299 18.2698V15.4598C14.1299 14.0298 15.2899 12.8698 16.7199 12.8698C18.1499 12.8698 19.3099 14.0298 19.3099 15.4598V18.4898C19.3099 18.8998 18.9699 19.2398 18.5599 19.2398C18.1499 19.2398 17.8099 18.8998 17.8099 18.4898V15.4598C17.8099 14.7798 17.2599 14.3698 16.7199 14.3698C16.0399 14.3698 15.6299 14.9198 15.6299 15.4598V18.2698C15.6299 19.7998 16.92 21.0898 18.45 21.0898C19.98 21.0898 21.2699 19.7998 21.2699 18.2698V12.1098C21.2699 6.9798 17.0999 2.7998 11.9699 2.7998C9.45994 2.7998 7.12996 3.76979 5.38996 5.53979C3.64996 7.30979 2.71993 9.67983 2.76993 12.1998V18.3698C2.76993 19.8998 4.05994 21.1898 5.58994 21.1898C7.11994 21.1898 8.40994 19.8998 8.40994 18.3698V15.5598C8.40994 14.8798 7.85995 14.4698 7.31995 14.4698C6.63995 14.4698 6.22995 15.0198 6.22995 15.5598V18.4798C6.22995 18.8898 5.88995 19.2298 5.47995 19.2298C5.06995 19.2298 4.72995 18.8898 4.72995 18.4798V15.5598C4.72995 14.1098 5.86995 12.9698 7.31995 12.9698C8.74995 12.9698 9.90994 14.1298 9.90994 15.5598V18.3698C9.90994 20.7598 7.96994 22.6998 5.58994 22.6998Z" />
<path d="M13.1797 11.8597C12.7797 11.8597 12.4197 11.6398 12.2497 11.2798L10.7997 8.38977L10.3797 9.16974C10.1497 9.59974 9.68974 9.86975 9.19974 9.86975H8.46973C8.05973 9.86975 7.71973 9.52975 7.71973 9.11975C7.71973 8.70975 8.05973 8.36975 8.46973 8.36975H9.10971L9.89972 6.90973C10.0897 6.56973 10.4397 6.38974 10.8297 6.35974C11.2197 6.35974 11.5697 6.58975 11.7497 6.92975L13.1797 9.78973L13.5197 9.09973C13.7497 8.63973 14.1997 8.35974 14.7197 8.35974H15.5297C15.9397 8.35974 16.2797 8.69974 16.2797 9.10974C16.2797 9.51974 15.9397 9.85974 15.5297 9.85974H14.8197L14.1097 11.2698C13.9297 11.6398 13.5797 11.8597 13.1797 11.8597Z" />
</svg>
