<?xml version="1.0" encoding="UTF-8"?>
<svg width="24" height="24" viewBox="0 0 24 24" xmlns="http://www.w3.org/2000/svg">
 <path d="m18 5.25h-12c-0.41 0-0.75-0.34-0.75-0.75s0.34-0.75 0.75-0.75h12c0.41 0 0.75 0.34 0.75 0.75s-0.34 0.75-0.75 0.75z"/>
 <path d="m15 2.75h-6c-0.41 0-0.75-0.34-0.75-0.75s0.34-0.75 0.75-0.75h6c0.41 0 0.75 0.34 0.75 0.75s-0.34 0.75-0.75 0.75z"/>
 <path d="m18 7h-12c-2.2 0-4 1.8-4 4v7c0 2.2 1.8 4 4 4h12c2.2 0 4-1.8 4-4v-7c0-2.2-1.8-4-4-4z" opacity=".4"/>
 <path d="m15.37 9.8899c-0.3-0.24-0.85-0.46999-1.73-0.23999l-2.73 0.75005c-0.85 0.22-1.4 0.9399-1.4 1.8299v3.5c-0.2-0.06-0.4-0.1-0.62-0.1-1.17 0-2.12 0.95-2.12 2.12s0.94999 2.12 2.12 2.12c1.17 0 2.12-0.95 2.12-2.12v-3.34l3.52-0.96v1.37c-0.2-0.06-0.4-0.1-0.62-0.1-1.17 0-2.12 0.9501-2.12 2.1201s0.95 2.12 2.12 2.12c1.15 0 2.09-0.9201 2.11-2.0701 0-0.02 0.01-0.0299 0.01-0.0499v-5.3501c0-0.9-0.36-1.37-0.66-1.6zm-6.48 8.47c-0.34 0-0.61999-0.28-0.61999-0.62s0.27999-0.62 0.61999-0.62 0.61 0.27 0.62 0.61c0 0.35-0.28 0.63-0.62 0.63zm5.02-0.91c-0.34 0-0.62-0.28-0.62-0.62s0.28-0.6199 0.62-0.6199 0.62 0.2799 0.62 0.6199-0.28 0.62-0.62 0.62z"/>
</svg>
