<?xml version="1.0" encoding="UTF-8"?>
<svg width="24" height="24" viewBox="0 0 24 24" xmlns="http://www.w3.org/2000/svg">
 <path d="m22.79 21.76-0.72-0.72c0.37-0.56 0.59-1.24 0.59-1.96 0-1.98-1.6-3.58-3.58-3.58s-3.58 1.6-3.58 3.58 1.6 3.58 3.58 3.58c0.73 0 1.4-0.22 1.96-0.59l0.72 0.72c0.14 0.14 0.33 0.21 0.51 0.21 0.19 0 0.37-0.07 0.51-0.21 0.29-0.29 0.29-0.75 0.01-1.03z"/>
 <path d="m16.19 2h-8.37c-3.64 0-5.81 2.17-5.81 5.81v8.37c0 3.64 2.17 5.81 5.81 5.81h8.37c3.64 0 5.81-2.17 5.81-5.81v-8.37c0-3.64-2.17-5.81-5.81-5.81z" opacity=".4"/>
 <path d="m13.78 5.3c-0.32-0.25-0.9-0.48999-1.82-0.23999l-2.98 0.82001c-0.89 0.23-1.47 0.97998-1.47 1.92v3.91c-0.23-0.08-0.47999-0.14-0.73999-0.14-1.24 0-2.24 1.01-2.24 2.24s1.01 2.24 2.24 2.24c1.22 0 2.22-0.99 2.24-2.2 0-0.01 0.01001-0.02 0.01001-0.03v-3.7l3.97-1.08v1.68c-0.23-0.08-0.48-0.14-0.75-0.14-1.24 0-2.24 1.01-2.24 2.24 0 1.24 1.01 2.24 2.24 2.24 1.22 0 2.22-0.99 2.24-2.21 0-0.01 0.01-0.02 0.01-0.04v-5.83c-0.01-0.76-0.25-1.33-0.71-1.68zm-7.02 9.25c-0.41 0-0.73999-0.33-0.73999-0.74s0.32999-0.74 0.73999-0.74 0.74001 0.33 0.74001 0.74-0.33001 0.74-0.74001 0.74zm5.47-1c-0.41 0-0.74-0.33-0.74-0.74s0.33-0.74 0.74-0.74 0.74 0.33 0.74 0.74-0.33 0.74-0.74 0.74z"/>
</svg>
