<?xml version="1.0" encoding="UTF-8"?>
<svg width="24" height="24" viewBox="0 0 24 24" xmlns="http://www.w3.org/2000/svg">
 <path d="m7 2.05v19.9c-3.15-0.29-5-2.4-5-5.76v-8.38c0-3.36 1.85-5.47 5-5.76z"/>
 <path d="M22 7.81V16.19C22 19.83 19.83 22 16.19 22H7.81C7.53 22 7.26 21.99 7 21.95V2.04999C7.26 2.00999 7.53 2 7.81 2H16.19C19.83 2 22 4.17 22 7.81Z" opacity=".4"/>
 <path d="m18.49 6.8c-0.32-0.25-0.9-0.48999-1.82-0.23999l-2.98 0.82001c-0.89 0.23-1.47 0.97998-1.47 1.92v3.91c-0.23-0.08-0.48-0.14-0.74-0.14-1.24 0-2.24 1.01-2.24 2.24s1.01 2.24 2.24 2.24c1.22 0 2.22-0.99 2.24-2.2 0-0.01 0.01-0.02 0.01-0.03v-3.7l3.97-1.08v1.68c-0.23-0.08-0.48-0.14-0.75-0.14-1.24 0-2.24 1.01-2.24 2.24 0 1.24 1.01 2.24 2.24 2.24 1.22 0 2.22-0.99 2.24-2.21 0-0.01 0.01-0.02 0.01-0.04v-5.83c-0.02-0.76-0.25-1.32-0.71-1.68zm-7.02 9.25c-0.41 0-0.74-0.33-0.74-0.74s0.33-0.74 0.74-0.74 0.74 0.33 0.74 0.74-0.34 0.74-0.74 0.74zm5.46-1c-0.41 0-0.74-0.33-0.74-0.74s0.33-0.74 0.74-0.74 0.74 0.33 0.74 0.74-0.33 0.74-0.74 0.74z"/>
</svg>
