<?xml version="1.0" encoding="UTF-8"?>
<svg width="24" height="24" viewBox="0 0 24 24" xmlns="http://www.w3.org/2000/svg">
 <path d="m19.26 2.87-4.42-1.47c-0.92-0.31-1.85-0.2-2.53 0.3-0.69 0.5-1.08 1.34-1.08 2.31v3.77l6.88 2.29c0.34 0.12 0.69 0.17 1.02 0.17 0.56 0 1.08-0.16 1.51-0.47005 0.69-0.5 1.08-1.34 1.08-2.31v-1.18c0-1.43-1.1-2.96-2.46-3.41z" opacity=".4"/>
 <path d="m12.72 8.27v9.73c0 2.62-2.13 4.75-4.75 4.75-2.62 0-4.75-2.13-4.75-4.75s2.13-4.75 4.75-4.75c1.26 0 2.4 0.5 3.25 1.3v-6.78l1.5 0.5z"/>
</svg>
