<?xml version="1.0" encoding="UTF-8"?>
<svg width="24" height="24" viewBox="0 0 24 24" xmlns="http://www.w3.org/2000/svg">
 <path d="m16.19 2h-8.37c-3.64 0-5.81 2.17-5.81 5.81v8.37c0 3.64 2.17 5.81 5.81 5.81h8.37c3.64 0 5.81-2.17 5.81-5.81v-8.37c0-3.64-2.17-5.81-5.81-5.81z" opacity=".4"/>
 <path d="m16.14 6.7099c-0.34-0.26-0.9401-0.51-1.9001-0.25l-2.9899 0.82001c-0.93 0.25-1.54 1.04-1.54 2.01v3.78c-0.21-0.06-0.42003-0.1001-0.65003-0.1001-1.29 0-2.34 1.0501-2.34 2.3401s1.05 2.34 2.34 2.34c1.28 0 2.32-1.04 2.34-2.31 0-0.01 0.0099-0.02 0.0099-0.03v-3.62l3.7801-1.03v1.42c-0.21-0.06-0.4201-0.1-0.6501-0.1-1.29 0-2.3399 1.05-2.3399 2.34s1.0499 2.34 2.3399 2.34 2.3401-1.05 2.3401-2.34v-5.83c0-1-0.41-1.52-0.74-1.78zm-7.08 9.25c-0.36 0-0.65002-0.29-0.65002-0.65s0.29002-0.65 0.65002-0.65 0.65003 0.29 0.65003 0.65-0.29003 0.65-0.65003 0.65zm5.48-1c-0.36 0-0.6499-0.29-0.6499-0.65s0.2899-0.65 0.6499-0.65 0.6501 0.29 0.6501 0.65c-0.01 0.36-0.3001 0.65-0.6501 0.65z"/>
</svg>
