<svg width="24" height="24" viewBox="0 0 24 24"  xmlns="http://www.w3.org/2000/svg">
<path opacity="0.4" d="M16.19 2H7.82001C4.18001 2 2.01001 4.17 2.01001 7.81V16.18C2.01001 19.82 4.18001 21.99 7.82001 21.99H16.19C19.83 21.99 22 19.82 22 16.18V7.81C22 4.17 19.83 2 16.19 2Z" />
<path d="M16.14 6.7099C15.8 6.4499 15.2 6.1999 14.24 6.4599L11.25 7.27991C10.32 7.52991 9.71002 8.31986 9.71002 9.28986V11.0399V13.0699C9.50002 13.0099 9.29 12.9698 9.06 12.9698C7.77 12.9698 6.71997 14.0199 6.71997 15.3099C6.71997 16.5999 7.77 17.6499 9.06 17.6499C10.34 17.6499 11.38 16.6099 11.4 15.3399C11.4 15.3299 11.41 15.3199 11.41 15.3099V11.6899L15.19 10.6599V12.0799C14.98 12.0199 14.77 11.9799 14.54 11.9799C13.25 11.9799 12.2 13.0299 12.2 14.3199C12.2 15.6099 13.25 16.6599 14.54 16.6599C15.83 16.6599 16.88 15.6099 16.88 14.3199V9.55988V8.48987C16.88 7.48987 16.47 6.9699 16.14 6.7099ZM9.06 15.9599C8.7 15.9599 8.40997 15.6699 8.40997 15.3099C8.40997 14.9499 8.7 14.6599 9.06 14.6599C9.42 14.6599 9.71002 14.9499 9.71002 15.3099C9.71002 15.6699 9.42 15.9599 9.06 15.9599ZM14.54 14.9599C14.18 14.9599 13.89 14.6699 13.89 14.3099C13.89 13.9499 14.18 13.6599 14.54 13.6599C14.9 13.6599 15.19 13.9499 15.19 14.3099C15.18 14.6699 14.89 14.9599 14.54 14.9599Z" />
</svg>
