<?xml version="1.0" encoding="UTF-8"?>
<svg width="24" height="24" viewBox="0 0 24 24" xmlns="http://www.w3.org/2000/svg">
 <path d="m2.5801 9.42c-0.08 0-0.17-0.00998-0.25-0.03998-0.39-0.14-0.58999-0.57002-0.45999-0.96002 0.67-1.88 1.83-3.53 3.38-4.78 0.32-0.26 0.78999-0.21002 1.05 0.10998s0.21002 0.79-0.10998 1.06c-1.33 1.07-2.33 2.49-2.9 4.11-0.11 0.31-0.40002 0.5-0.71002 0.5z" opacity=".4"/>
 <path d="m2.58 16.08c-0.31 0-0.59999-0.19-0.70999-0.5-0.41-1.17-0.62-2.37-0.62-3.58 0-0.41 0.34-0.75 0.75-0.75s0.75 0.34 0.75 0.75c0 1.04 0.18001 2.08 0.54001 3.08 0.14 0.39-0.07002 0.82-0.46002 0.96-0.08 0.03-0.17 0.04-0.25 0.04z" opacity=".4"/>
 <path d="m12 22.75c-1.06 0-2.11-0.16-3.13-0.47-0.4-0.12-0.62-0.54-0.5-0.94s0.54-0.62 0.94-0.5c0.86999 0.27 1.78 0.3999 2.69 0.3999 5.1 0 9.25-4.15 9.25-9.25 0-0.52-0.05-1.06-0.15-1.63-0.07-0.40996 0.2-0.79996 0.61-0.86996 0.4-0.07 0.8 0.19999 0.87 0.60996 0.12 0.66 0.18 1.2801 0.18 1.9001-0.01 5.93-4.83 10.75-10.76 10.75z" opacity=".4"/>
 <path d="m5.7202 20.5c-0.17 0-0.33-0.05-0.47-0.17-0.57-0.46-1.03-0.9001-1.42-1.3501-0.27-0.31-0.22999-0.79 0.08001-1.06 0.32-0.27 0.79-0.2299 1.06 0.0801 0.33 0.38 0.73 0.7599 1.22 1.1599 0.32 0.26 0.36999 0.7301 0.10999 1.0501-0.14 0.19-0.35999 0.29-0.57999 0.29z" opacity=".4"/>
 <path d="m20.24 7.09c-0.24 0-0.47-0.11002-0.62-0.33002-1.73-2.52-4.58-4.02-7.62-4.02-0.91 0-1.82 0.13002-2.69 0.40002-0.39 0.12-0.81-0.1-0.94-0.5s0.1-0.82 0.5-0.94c1.02-0.31 2.07-0.47003 3.13-0.47003 3.54 0 6.85 1.75 8.86 4.67 0.23 0.34 0.15 0.80998-0.19 1.04-0.13 0.11-0.28 0.15003-0.43 0.15003z" opacity=".4"/>
 <path d="m16.03 6.5c-0.33-0.25-0.93-0.49999-1.89-0.23999l-3.19 0.85999c-0.92 0.26-1.52 1.04-1.52 2v4.22c-0.26-0.1-0.53999-0.16-0.83999-0.16-1.29 0-2.34 1.05-2.34 2.34s1.05 2.34 2.34 2.34c1.28 0 2.31-1.03 2.33-2.3 0-0.01 0.01-0.02 0.01-0.04v-4.19l4.32-1.18v2.13c-0.26-0.1-0.54-0.16-0.84-0.16-1.29 0-2.34 1.05-2.34 2.34s1.05 2.34 2.34 2.34 2.34-1.05 2.34-2.34v-6.21c0-0.8-0.24-1.39-0.72-1.75zm-7.44 9.86c-0.46 0-0.84-0.38-0.84-0.84s0.38-0.84 0.84-0.84 0.83999 0.38 0.83999 0.84-0.37999 0.84-0.83999 0.84zm5.82-1.06c-0.46 0-0.84-0.38-0.84-0.84s0.38-0.84 0.84-0.84 0.84 0.38 0.84 0.84-0.38 0.84-0.84 0.84z"/>
</svg>
