<svg width="24" height="24" viewBox="0 0 24 24"  xmlns="http://www.w3.org/2000/svg">
<path d="M6.28016 22.7501C4.15016 22.7501 2.41016 21.0101 2.41016 18.8801C2.41016 16.7501 4.15016 15.0101 6.28016 15.0101C8.41016 15.0101 10.1502 16.7501 10.1502 18.8801C10.1502 21.0101 8.41016 22.7501 6.28016 22.7501ZM6.28016 16.5101C4.97016 16.5101 3.91016 17.5701 3.91016 18.8801C3.91016 20.1901 4.97016 21.2501 6.28016 21.2501C7.59016 21.2501 8.65016 20.1901 8.65016 18.8801C8.65016 17.5701 7.59016 16.5101 6.28016 16.5101Z" />
<path d="M9.40016 19.6301C8.99016 19.6301 8.65016 19.2901 8.65016 18.8801V6.30013C8.65016 4.72013 9.60016 3.48013 11.1202 3.07013L17.3602 1.37013C18.6302 1.02013 19.7002 1.15013 20.4502 1.73013C21.2102 2.31013 21.5902 3.28013 21.5902 4.61013V16.8101C21.5902 17.2201 21.2502 17.5601 20.8402 17.5601C20.4302 17.5601 20.0902 17.2201 20.0902 16.8101V4.60013C20.0902 4.02013 19.9902 3.26013 19.5402 2.92013C19.0502 2.54013 18.2102 2.69013 17.7502 2.82013L11.5102 4.52013C10.6402 4.76013 10.1502 5.41013 10.1502 6.31013V18.8901C10.1502 19.2901 9.81016 19.6301 9.40016 19.6301Z" />
<path d="M17.7202 20.6701C15.5902 20.6701 13.8502 18.9301 13.8502 16.8001C13.8502 14.6701 15.5902 12.9301 17.7202 12.9301C19.8502 12.9301 21.5902 14.6701 21.5902 16.8001C21.5902 18.9301 19.8502 20.6701 17.7202 20.6701ZM17.7202 14.4301C16.4102 14.4301 15.3502 15.4901 15.3502 16.8001C15.3502 18.1101 16.4102 19.1701 17.7202 19.1701C19.0302 19.1701 20.0902 18.1101 20.0902 16.8001C20.0902 15.4901 19.0302 14.4301 17.7202 14.4301Z" />
<path d="M9.40016 10.2701C9.07016 10.2701 8.77016 10.0501 8.68016 9.72013C8.57016 9.32013 8.80016 8.90013 9.20016 8.79013L20.6402 5.67013C21.0402 5.56013 21.4502 5.80013 21.5602 6.20013C21.6702 6.60013 21.4302 7.01013 21.0302 7.12013L9.60016 10.2401C9.53016 10.2601 9.46016 10.2701 9.40016 10.2701Z" />
</svg>
