<?xml version="1.0" encoding="UTF-8"?>
<svg width="24" height="24" viewBox="0 0 24 24" xmlns="http://www.w3.org/2000/svg">
 <path d="m13.18 11.86c-0.4 0-0.76-0.2199-0.93-0.5799l-1.45-2.8901-0.42 0.77997c-0.23 0.43-0.68997 0.70001-1.18 0.70001h-0.73002c-0.41 0-0.75-0.34-0.75-0.75s0.34-0.75 0.75-0.75h0.63999l0.79001-1.46c0.18999-0.34 0.56999-0.56999 0.92999-0.54999 0.39 0 0.74 0.23 0.92 0.57l1.43 2.86 0.34-0.69c0.23-0.46 0.68-0.73999 1.2-0.73999h0.81c0.41 0 0.75 0.34 0.75 0.75s-0.34 0.75-0.75 0.75h-0.71l-0.71 1.41c-0.18 0.37-0.53 0.59-0.93 0.59z"/>
 <path d="m2.7498 18.65c-0.41 0-0.75-0.34-0.75-0.75v-5.7c-0.05-2.71 0.95999-5.27 2.84-7.19 1.88-1.91 4.4-2.96 7.11-2.96 5.54 0 10.05 4.51 10.05 10.05v5.7c0 0.41-0.34 0.75-0.75 0.75s-0.75-0.34-0.75-0.75v-5.7c0-4.71-3.83-8.55-8.55-8.55-2.31 0-4.45 0.89001-6.04 2.51-1.6 1.63-2.45 3.8-2.41 6.12v5.71c0 0.42-0.33 0.76-0.75 0.76z" opacity=".4"/>
 <path d="m5.94 12.45h-0.13c-2.1 0-3.81 1.71-3.81 3.81v1.88c0 2.1 1.71 3.81 3.81 3.81h0.13c2.1 0 3.81-1.71 3.81-3.81v-1.88c0-2.1-1.71-3.81-3.81-3.81z"/>
 <path d="m18.19 12.45h-0.13c-2.1 0-3.81 1.71-3.81 3.81v1.88c0 2.1 1.71 3.81 3.81 3.81h0.13c2.1 0 3.81-1.71 3.81-3.81v-1.88c0-2.1-1.71-3.81-3.81-3.81z"/>
</svg>
