<?xml version="1.0" encoding="UTF-8"?>
<svg width="24" height="24" viewBox="0 0 24 24" xmlns="http://www.w3.org/2000/svg">
 <path d="m19.21 15.01c-1.09-0.07-2.21 0.33-3.04 1.16-1.56 1.56-1.56 4.09 0 5.66 0.53 0.53 1.18 0.88 1.87 1.05 0.38 0.1 0.78 0.13 1.18 0.11 0.95-0.04 1.88-0.4199 2.61-1.1499 1.03-1.03 1.38-2.4801 1.05-3.7901-0.16-0.69-0.52-1.34-1.05-1.87-0.72-0.73-1.66-1.12-2.62-1.17zm2.03 3.97c0 0.21-0.08 0.39-0.22 0.53s-0.32 0.22-0.53 0.22h-0.74v0.78c0 0.21-0.08 0.39-0.22 0.53s-0.32 0.22-0.53 0.22c-0.41 0-0.75-0.34-0.75-0.75v-0.78h-0.75c-0.41 0-0.75-0.34-0.75-0.75s0.34-0.75 0.75-0.75h0.75v-0.71c0-0.41 0.34-0.75 0.75-0.75s0.75 0.34 0.75 0.75v0.71h0.74c0.42 0 0.75 0.34 0.75 0.75z"/>
 <path d="m16.34 21.97c-0.3-0.26-0.56-0.57-0.76-0.91-0.37-0.6-0.58-1.31-0.58-2.06 0-2.21 1.79-4 4-4 1.18 0 2.25 0.51 2.97 1.33 0.01 0.01 0.01 0.02 0.02 0.02 0-0.06 0.01-0.11 0.01-0.16v-8.38c0-3.64-2.17-5.81-5.81-5.81h-8.38c-0.28 0-0.55 0.00999-0.81 0.04999-3.15 0.29-5 2.4-5 5.76v8.38c0 3.36 1.85 5.47 5 5.76 0.26 0.04 0.53 0.05 0.81 0.05h8.38c0.06 0 0.11-0.01 0.17-0.01 0-0.01-0.01-0.01-0.02-0.02z" opacity=".4"/>
 <path d="m13.78 5.3c-0.32-0.25-0.9-0.48999-1.82-0.23999l-2.98 0.82001c-0.89 0.23-1.47 0.97998-1.47 1.92v3.91c-0.23-0.08-0.47999-0.14-0.73999-0.14-1.24 0-2.24 1.01-2.24 2.24s1.01 2.24 2.24 2.24c1.22 0 2.22-0.99 2.24-2.2 0-0.01 0.01001-0.02 0.01001-0.03v-3.7l3.97-1.08v1.68c-0.23-0.08-0.48-0.14-0.75-0.14-1.24 0-2.24 1.01-2.24 2.24 0 1.24 1.01 2.24 2.24 2.24 1.22 0 2.22-0.99 2.24-2.21 0-0.01 0.01-0.02 0.01-0.04v-5.83c-0.01-0.76-0.25-1.33-0.71-1.68zm-7.02 9.25c-0.41 0-0.73999-0.33-0.73999-0.74s0.32999-0.74 0.73999-0.74 0.74001 0.33 0.74001 0.74-0.33001 0.74-0.74001 0.74zm5.47-1c-0.41 0-0.74-0.33-0.74-0.74s0.33-0.74 0.74-0.74 0.74 0.33 0.74 0.74-0.33 0.74-0.74 0.74z"/>
</svg>
