<?xml version="1.0" encoding="UTF-8"?>
<svg width="24" height="24" viewBox="0 0 24 24" xmlns="http://www.w3.org/2000/svg">
 <path d="M19 7V8.13C18.68 8.04 18.35 8 18 8H6C5.65 8 5.32 8.04 5 8.13V7C5 5.9 5.9 5 7 5H17C18.1 5 19 5.9 19 7Z"/>
 <path d="m16 3.51v1.49h-8v-1.49c0-0.83 0.68001-1.51 1.51-1.51h4.98c0.83 0 1.51 0.68001 1.51 1.51z" opacity=".4"/>
 <path d="m22 12v6c0 2.2-1.8 4-4 4h-12c-2.2 0-4-1.8-4-4v-6c0-1.85 1.28-3.42 3-3.87 0.32-0.09 0.65-0.13 1-0.13h12c0.35 0 0.68 0.04 1 0.13 1.72 0.45 3 2.02 3 3.87z" opacity=".4"/>
 <path d="m15.35 10.51c-0.3-0.23-0.84-0.45-1.69-0.22l-2.65 0.73c-0.83 0.22-1.36 0.92-1.36 1.78v3.35c-0.18-0.05-0.38001-0.09-0.58001-0.09-1.14 0-2.07 0.93-2.07 2.07s0.93001 2.07 2.07 2.07c1.14 0 2.06-0.92 2.07-2.05 0-0.01 0.01-0.02 0.01-0.03v-3.21l3.35-0.91v1.26c-0.18-0.05-0.37-0.09-0.57-0.09-1.14 0-2.07 0.93-2.07 2.07s0.93 2.07 2.07 2.07 2.07-0.93 2.07-2.07v-5.17c0-0.87-0.36-1.33-0.65-1.56zm-6.28 8.2c-0.32 0-0.57001-0.26-0.57001-0.57s0.26001-0.57 0.57001-0.57 0.57 0.26 0.57 0.57-0.25 0.57-0.57 0.57zm4.86-0.89c-0.32 0-0.57-0.26-0.57-0.57s0.26-0.57 0.57-0.57 0.57 0.26 0.57 0.57-0.26 0.57-0.57 0.57z"/>
</svg>
