<svg width="24" height="24" viewBox="0 0 24 24"  xmlns="http://www.w3.org/2000/svg">
<path d="M10.2901 10.3398V18.4098C10.2901 20.3898 8.67011 21.9998 6.70011 21.9998C4.72011 21.9998 3.11011 20.3898 3.11011 18.4098C3.11011 16.4398 4.72011 14.8298 6.70011 14.8298C7.53011 14.8298 8.28011 15.1198 8.89011 15.5898V10.7398L10.2901 10.3398Z" />
<path d="M20.89 7.31982V16.4798C20.89 18.4598 19.28 20.0698 17.3 20.0698C15.33 20.0698 13.71 18.4598 13.71 16.4798C13.71 14.5098 15.33 12.8998 17.3 12.8998C18.14 12.8998 18.89 13.1898 19.5 13.6698V7.71982L20.89 7.31982Z" />
<path opacity="0.4" d="M20.8899 5.18007V7.32007L8.88989 10.7401V6.75007C8.88989 5.28007 9.77989 4.14007 11.1899 3.76007L16.9699 2.18007C18.1399 1.86007 19.1299 1.97007 19.8299 2.51007C20.5399 3.04007 20.8899 3.94007 20.8899 5.18007Z" />
</svg>
