<?xml version="1.0" encoding="UTF-8"?>
<svg width="24" height="24" viewBox="0 0 24 24" xmlns="http://www.w3.org/2000/svg">
 <path d="m12 22c5.5228 0 10-4.4772 10-10 0-5.5228-4.4772-10-10-10-5.5228 0-10 4.4772-10 10 0 5.5228 4.4772 10 10 10z" opacity=".4"/>
 <path d="m14.5 10.75-0.41 0.21h-0.01l-4.68 2.42 1.07-3.34 3.08-1.39 0.95 2.1z"/>
 <path d="m13.55 8.65-3.08 1.39 1.53-4.79 1.55 3.4z"/>
 <path d="m10.47 10.039-1.07 3.34-3.4-1.13 2.18-1.09 1.82-0.91 0.47-0.21z"/>
 <path d="m18 12.251-4.5 2.5-0.31-0.1-0.09-0.03-3.7-1.24 4.68-2.42h0.01l3.91 1.29z"/>
 <path d="m13.19 14.651-0.19 0.6-1 3-2.5-4.68-0.10001-0.19 3.7 1.24 0.09 0.03z"/>
</svg>
