<?xml version="1.0" encoding="UTF-8"?>
<svg width="24" height="24" viewBox="0 0 24 24" xmlns="http://www.w3.org/2000/svg">
 <path d="m16.36 18.49c-0.01 0.01-0.01 0.02-0.01 0.02-1.19 1.26-2.62 2.45-4.35 3.49 0 0-8.84-4.42-9.9-14.92 3.11 10.07 9.9 2.92 9.9 2.92 6.76 2.9 4.52 8.14 4.36 8.49z" opacity=".6"/>
 <path d="m16.36 18.49c0.16-0.35 2.4001-5.59-4.3599-8.49-1-6 4.07-7.06 4.07-7.06l0.5899-0.12h0.01c1.74 0.41 3.5301 1.1 5.3301 2.18 0 0-1e-4 7.5-5.6401 13.49z" opacity=".4"/>
 <path d="m16.66 2.8198-0.59 0.12s-5.07 1.06-4.07 7.06c0 0-6.79 7.15-9.9-2.92v-0.01c-0.06-0.66-0.09998-1.36-0.09998-2.07 0 0 6.72-4.03 14.66-2.18z"/>
</svg>
