<svg width="24" height="24" viewBox="0 0 24 24"  xmlns="http://www.w3.org/2000/svg">
<path d="M12.0303 22.8496L11.6602 22.6696C11.5602 22.6196 1.24023 17.3196 1.24023 4.99956V4.57956L1.60022 4.35956C1.70022 4.29956 12.1102 -1.80044 22.3702 4.35956L22.7302 4.57956V4.99956C22.7302 5.46956 22.6102 16.4996 12.3702 22.6396L12.0303 22.8496ZM2.75024 5.43956C2.96024 15.2796 10.2702 20.1296 11.9802 21.1296C20.0602 16.0496 21.1002 7.41956 21.2302 5.41956C12.9202 0.699556 4.59024 4.48956 2.75024 5.43956Z" />
<path d="M7.10021 13.2096C6.76021 13.2096 6.42024 13.1696 6.07024 13.0896C3.99024 12.5996 2.42024 10.6496 1.38024 7.28956C1.26024 6.88956 1.48024 6.46956 1.88024 6.34956C2.28024 6.22956 2.70024 6.44956 2.82024 6.84956C3.69024 9.65956 4.90022 11.2696 6.42022 11.6296C8.23022 12.0496 10.2902 10.5796 11.2002 9.72956C10.3802 3.43956 15.8602 2.20956 15.9202 2.19956L16.5203 2.07956C16.9203 1.99956 17.3203 2.26956 17.4003 2.66956C17.4803 3.06956 17.2102 3.46956 16.8102 3.54956L16.2202 3.65956C16.0602 3.69956 11.8802 4.66956 12.7402 9.85956C12.7802 10.0896 12.7102 10.3296 12.5402 10.4996C12.4302 10.6396 9.95021 13.2096 7.10021 13.2096Z" />
<path d="M16.3502 19.2596C16.2402 19.2596 16.1303 19.2396 16.0303 19.1896C15.6603 19.0096 15.5002 18.5696 15.6802 18.1896C15.6902 18.1696 16.5402 16.3296 15.7902 14.3596C15.2102 12.8396 13.8403 11.6096 11.7103 10.6896C11.3303 10.5296 11.1502 10.0896 11.3202 9.70956C11.4902 9.32956 11.9202 9.14956 12.3102 9.31956C14.8402 10.3996 16.4803 11.9296 17.2103 13.8596C18.1803 16.4396 17.0902 18.7496 17.0402 18.8496C16.9002 19.0996 16.6302 19.2596 16.3502 19.2596Z" />
</svg>
