<svg width="24" height="24" viewBox="0 0 24 24"  xmlns="http://www.w3.org/2000/svg">
<path opacity="0.6" d="M16.3601 18.4901C16.3501 18.5001 16.3501 18.5101 16.3501 18.5101C15.1601 19.7701 13.7301 20.9601 12.0001 22.0001C12.0001 22.0001 3.1601 17.5801 2.1001 7.08008C5.2101 17.1501 12.0001 10.0001 12.0001 10.0001C18.7601 12.9001 16.5201 18.1401 16.3601 18.4901Z" />
<path opacity="0.4" d="M16.36 18.4903C16.52 18.1403 18.76 12.9003 12 10.0003C11 4.00031 16.07 2.94031 16.07 2.94031L16.66 2.82031H16.67C18.41 3.23031 20.2 3.92031 22 5.00031C22 5.00031 22 12.5003 16.36 18.4903Z" />
<path d="M16.66 2.81979L16.07 2.93979C16.07 2.93979 11 3.99979 12 9.99979C12 9.99979 5.20998 17.1498 2.09998 7.07979V7.06979C2.03998 6.40979 2 5.70979 2 4.99979C2 4.99979 8.71997 0.969786 16.66 2.81979Z" />
</svg>
