<?xml version="1.0" encoding="UTF-8"?>
<svg width="24" height="24" viewBox="0 0 24 24" xmlns="http://www.w3.org/2000/svg">
 <path d="m7.37 22h9.25c2.69 0 4.87-2.18 4.87-4.87v-8.76c0-2.69-2.18-4.87-4.87-4.87h-9.25c-2.69 0-4.87 2.18-4.87 4.87v8.75c0 2.7 2.18 4.88 4.87 4.88z" opacity=".4"/>
 <path d="m8.29 6.29c-0.42 0-0.75-0.34-0.75-0.75v-2.79c0-0.41 0.33-0.75 0.75-0.75s0.75 0.34 0.75 0.75v2.78c0 0.42-0.33 0.76-0.75 0.76z"/>
 <path d="m15.71 6.29c-0.42 0-0.75-0.34-0.75-0.75v-2.79c0-0.42 0.34-0.75 0.75-0.75 0.42 0 0.75 0.34 0.75 0.75v2.78c0 0.42-0.33 0.76-0.75 0.76z"/>
 <path d="m12 14.75h-1.69v-1.75c0-0.41-0.34-0.75-0.75-0.75s-0.75 0.34-0.75 0.75v1.75h-1.81c-0.41 0-0.75 0.34-0.75 0.75s0.34 0.75 0.75 0.75h1.81v1.75c0 0.41 0.34 0.75 0.75 0.75s0.75-0.34 0.75-0.75v-1.75h1.69c0.41 0 0.75-0.34 0.75-0.75s-0.34-0.75-0.75-0.75z"/>
</svg>
