<?xml version="1.0" encoding="UTF-8"?>
<svg width="24" height="24" viewBox="0 0 24 24" xmlns="http://www.w3.org/2000/svg">
 <path d="m21.66 10.44-0.98 4.18c-0.84 3.61-2.5 5.07-5.62 4.77-0.5-0.04-1.04-0.13-1.62-0.27l-1.68-0.4c-4.17-0.99-5.46-3.05-4.48-7.23l0.98-4.19c0.2-0.85 0.44-1.59 0.74-2.2 1.17-2.42 3.16-3.07 6.5-2.28l1.67 0.39c4.19 0.98 5.47 3.05 4.49 7.23z" opacity=".4"/>
 <path d="m15.06 19.39c-0.62 0.42-1.4 0.77-2.35 1.08l-1.58 0.52c-3.97 1.28-6.06 0.21-7.35-3.76l-1.28-3.95c-1.28-3.97-0.22-6.07 3.75-7.35l1.58-0.52c0.41-0.13 0.8-0.24 1.17-0.31-0.3 0.61-0.54 1.35-0.74 2.2l-0.98 4.19c-0.98 4.18 0.31 6.24 4.48 7.23l1.68 0.4c0.58 0.14 1.12 0.23 1.62 0.27z"/>
</svg>
