<?xml version="1.0" encoding="UTF-8"?>
<svg width="24" height="24" viewBox="0 0 24 24" xmlns="http://www.w3.org/2000/svg">
 <path d="m20 8.25v9.75c0 3-1.79 4-4 4h-8c-2.21 0-4-1-4-4v-9.75c0-3.25 1.79-4 4-4 0 0.62 0.24997 1.18 0.65997 1.59s0.97003 0.66 1.59 0.66h3.5c1.24 0 2.25-1.01 2.25-2.25 2.21 0 4 0.75 4 4z" opacity=".4"/>
 <path d="m16 4.25c0 1.24-1.01 2.25-2.25 2.25h-3.5c-0.62 0-1.18-0.25-1.59-0.66s-0.65997-0.97-0.65997-1.59c0-1.24 1.01-2.25 2.25-2.25h3.5c0.62 0 1.18 0.25 1.59 0.66s0.66 0.97 0.66 1.59z"/>
 <path d="m12 13.75h-4c-0.41 0-0.75-0.34-0.75-0.75s0.34-0.75 0.75-0.75h4c0.41 0 0.75 0.34 0.75 0.75s-0.34 0.75-0.75 0.75z"/>
 <path d="m16 17.75h-8c-0.41 0-0.75-0.34-0.75-0.75s0.34-0.75 0.75-0.75h8c0.41 0 0.75 0.34 0.75 0.75s-0.34 0.75-0.75 0.75z"/>
</svg>
