<svg width="24" height="24" viewBox="0 0 24 24"  xmlns="http://www.w3.org/2000/svg">
<path d="M15.8101 20.1795C15.5501 20.1795 15.2801 20.1695 14.9901 20.1395C14.4701 20.0995 13.8801 19.9995 13.2701 19.8495L11.5901 19.4495C6.98005 18.3595 5.47005 15.9195 6.55005 11.3195L7.53005 7.12953C7.75005 6.17953 8.01005 5.40953 8.33005 4.76953C10.0501 1.21953 13.3401 1.53953 15.6801 2.08953L17.3501 2.47953C19.6901 3.02953 21.1701 3.89953 22.0001 5.22953C22.8201 6.55953 22.9501 8.26953 22.4001 10.6095L21.4201 14.7895C20.5601 18.4495 18.7701 20.1795 15.8101 20.1795ZM13.1201 3.24953C11.4501 3.24953 10.3901 3.93953 9.68005 5.41953C9.42005 5.95953 9.19005 6.62953 8.99005 7.46953L8.01005 11.6595C7.12005 15.4395 8.15005 17.0895 11.9301 17.9895L13.6101 18.3895C14.1501 18.5195 14.6601 18.5995 15.1201 18.6395C17.8401 18.9095 19.1901 17.7195 19.9501 14.4495L20.9301 10.2695C21.3801 8.33953 21.3201 6.98953 20.7201 6.01953C20.1201 5.04953 18.9401 4.38953 17.0001 3.93953L15.3301 3.54953C14.5001 3.34953 13.7601 3.24953 13.1201 3.24953Z" />
<path d="M8.33005 22.2495C5.76005 22.2495 4.12005 20.7095 3.07005 17.4595L1.79005 13.5095C0.370052 9.10953 1.64005 6.62953 6.02005 5.20953L7.60005 4.69953C8.12005 4.53953 8.51005 4.42953 8.86005 4.36953C9.15005 4.30953 9.43005 4.41953 9.60005 4.64953C9.77005 4.87953 9.80005 5.17953 9.68005 5.43953C9.42005 5.96953 9.19005 6.63953 9.00005 7.47953L8.02005 11.6695C7.13005 15.4495 8.16005 17.0995 11.9401 17.9995L13.6201 18.3995C14.1601 18.5295 14.6701 18.6095 15.1301 18.6495C15.4501 18.6795 15.7101 18.8995 15.8001 19.2095C15.8801 19.5195 15.7601 19.8395 15.5001 20.0195C14.8401 20.4695 14.0101 20.8495 12.9601 21.1895L11.3801 21.7095C10.2301 22.0695 9.23005 22.2495 8.33005 22.2495ZM7.78005 6.21953L6.49005 6.63953C2.92005 7.78953 2.07005 9.46953 3.22005 13.0495L4.50005 16.9995C5.66005 20.5695 7.34005 21.4295 10.9101 20.2795L12.4901 19.7595C12.5501 19.7395 12.6001 19.7195 12.6601 19.6995L11.6001 19.4495C6.99005 18.3595 5.48005 15.9195 6.56005 11.3195L7.54005 7.12953C7.61005 6.80953 7.69005 6.49953 7.78005 6.21953Z" />
<path d="M17.4901 10.5095C17.4301 10.5095 17.3701 10.4995 17.3001 10.4895L12.4501 9.25953C12.0501 9.15953 11.8101 8.74953 11.9101 8.34953C12.0101 7.94953 12.4201 7.70953 12.8201 7.80953L17.6701 9.03953C18.0701 9.13953 18.3101 9.54953 18.2101 9.94953C18.1301 10.2795 17.8201 10.5095 17.4901 10.5095Z" />
<path d="M14.5601 13.8895C14.5001 13.8895 14.4401 13.8795 14.3701 13.8695L11.4601 13.1295C11.0601 13.0295 10.8201 12.6195 10.9201 12.2195C11.0201 11.8195 11.4301 11.5795 11.8301 11.6795L14.7401 12.4195C15.1401 12.5195 15.3801 12.9295 15.2801 13.3295C15.2001 13.6695 14.9001 13.8895 14.5601 13.8895Z" />
</svg>
