<svg width="24" height="24" viewBox="0 0 24 24"  xmlns="http://www.w3.org/2000/svg">
<path d="M9.56002 18.75C9.15002 18.75 8.81002 18.41 8.81002 18V13C8.81002 12.59 9.15002 12.25 9.56002 12.25C9.97002 12.25 10.31 12.59 10.31 13V18C10.31 18.41 9.97002 18.75 9.56002 18.75Z" />
<path d="M12 16.25H7.00002C6.59002 16.25 6.25002 15.91 6.25002 15.5C6.25002 15.09 6.59002 14.75 7.00002 14.75H12C12.41 14.75 12.75 15.09 12.75 15.5C12.75 15.91 12.41 16.25 12 16.25Z" />
<path d="M8.00002 5.75C7.59002 5.75 7.25002 5.41 7.25002 5V2C7.25002 1.59 7.59002 1.25 8.00002 1.25C8.41002 1.25 8.75002 1.59 8.75002 2V5C8.75002 5.41 8.41002 5.75 8.00002 5.75Z" />
<path d="M16 5.75C15.59 5.75 15.25 5.41 15.25 5V2C15.25 1.59 15.59 1.25 16 1.25C16.41 1.25 16.75 1.59 16.75 2V5C16.75 5.41 16.41 5.75 16 5.75Z" />
<path d="M8.85002 22.81C6.38002 22.81 4.75002 22.27 3.73002 21.11C2.55002 19.78 2.36001 17.79 2.32001 16.02L2.19002 9.85C2.09002 5.12 3.66002 3.15 7.76002 2.84L15.8 2.68C15.82 2.68 15.83 2.68 15.84 2.68C19.95 2.82 21.59 4.72 21.69 9.46L21.81 15.63C21.85 17.4 21.73 19.4 20.61 20.77C19.59 22.02 17.87 22.63 15.2 22.69L9.20001 22.81C9.08001 22.81 8.96002 22.81 8.85002 22.81ZM15.8 4.17L7.83001 4.33C5.03001 4.55 3.60002 5.45 3.69002 9.82L3.82001 15.99C3.86001 18.11 4.17001 19.35 4.85001 20.12C5.61001 20.98 6.98002 21.36 9.18002 21.31L15.18 21.19C17.37 21.15 18.73 20.71 19.46 19.82C20.11 19.03 20.37 17.78 20.32 15.66L20.2 9.49C20.1 5.13 18.64 4.27 15.8 4.17Z" />
</svg>
