<?xml version="1.0" encoding="UTF-8"?>
<svg width="24" height="24" viewBox="0 0 24 24" xmlns="http://www.w3.org/2000/svg">
 <path d="m21 7.52v7.96c0 0.36-0.02 0.71-0.07 1.03-0.04 0-0.09-0.02-0.13-0.03l-2.28-0.76c-0.02-0.01-0.03-0.02-0.05-0.02v4.61c-0.48 0.27-1.02 0.46-1.62 0.56 0.1-0.18 0.16-0.39 0.16-0.62 0-0.73-0.6-1.33-1.34-1.33-0.73 0-1.33 0.6-1.33 1.33 0 0.28 0.08 0.54 0.23 0.75h-7.05c-3.45 0-5.52-2.06-5.52-5.52v-7.96c0-3.46 2.07-5.52 5.52-5.52h7.96c3.45 0 5.52 2.06 5.52 5.52z" opacity=".4"/>
 <path d="m21.62 12.1-0.62-0.2099-1.67-0.55c-0.58-0.19-1.17-0.1201-1.62 0.1999-0.44 0.33-0.7 0.8601-0.7 1.4801v4.79c-0.4-0.22-0.85-0.36-1.34-0.36-1.54 0-2.79 1.26-2.79 2.8 0 0.26 0.04 0.51 0.1 0.75 0.33 1.19 1.41 2.05 2.69 2.05 1.53 0 2.7699-1.22 2.7999-2.74v-4.61c0.02 0 0.0301 0.0099 0.0501 0.0199l2.28 0.76c0.04 0.01 0.09 0.0301 0.13 0.0301 0.18 0.05 0.34 0.07 0.51 0.07 0.36 0 0.7-0.1 0.98-0.31 0.45-0.32 0.7-0.85 0.7-1.47v-0.6c0-0.91-0.64-1.8101-1.5-2.1001zm-5.95 9.4901c-0.46 0-0.86-0.23-1.1-0.59-0.15-0.21-0.23-0.47-0.23-0.75 0-0.73 0.6-1.33 1.33-1.33 0.74 0 1.34 0.6 1.34 1.33 0 0.23-0.06 0.44-0.16 0.62-0.22 0.43-0.67 0.72-1.18 0.72z"/>
</svg>
