<?xml version="1.0" encoding="UTF-8"?>
<svg width="24" height="24" viewBox="0 0 24 24" xmlns="http://www.w3.org/2000/svg">
 <path d="m5.97 1h-2.94c-1.27 0-2.03 0.76-2.03 2.03v2.94c0 1.27 0.76 2.03 2.03 2.03h2.94c1.27 0 2.03-0.76 2.03-2.03v-2.94c0-1.27-0.76-2.03-2.03-2.03zm0.5 4.56c0.25 0.25 0.25 0.66 0 0.91-0.13 0.12-0.3 0.18-0.46 0.18s-0.32-0.06-0.45-0.18l-1.07-1.06-1.04 1.06c-0.13 0.12-0.29 0.18-0.47 0.18-0.16 0-0.32-0.06-0.45-0.18-0.25-0.25-0.25-0.66 0-0.91l1.07-1.06-1.06-1.05c-0.25-0.25-0.25-0.66 0-0.91s0.66-0.25 0.91 0l1.04 1.06 1.06-1.06c0.25-0.25 0.66-0.25 0.91 0s0.25 0.66 0 0.91l-1.05 1.05 1.06 1.06z"/>
 <path d="M16.63 2H7.78C7.92 2.29 8 2.63 8 3.03V5.97C8 7.24 7.24 8 5.97 8H3.03C2.84 8 2.67 7.98 2.5 7.94V17.13C2.5 19.82 4.68 22 7.37 22H15.34C15.51 22 15.68 21.94 15.81 21.8C17.29 20.31 19.87 17.71 21.32 16.25C21.45 16.12 21.5 15.97 21.5 15.82V6.87C21.5 4.18 19.32 2 16.63 2Z" opacity=".4"/>
 <path d="m21.5 15.82c0 0.15-0.05 0.3-0.18 0.43-1.45 1.46-4.03 4.06-5.51 5.55-0.13 0.14-0.3 0.2-0.47 0.2-0.33 0-0.65-0.26-0.65-0.64v-3.5c0-1.46 1.24-2.67 2.76-2.67 0.95-0.01 2.27-0.01 3.4-0.01 0.39 0 0.65 0.31 0.65 0.64z"/>
 <path d="m14.78 12.71h-7.42c-0.42 0-0.75-0.34-0.75-0.75s0.34-0.75 0.75-0.75h7.42c0.42 0 0.75 0.34 0.75 0.75s-0.33 0.75-0.75 0.75z"/>
 <path d="m12 16.42h-4.64c-0.42 0-0.75-0.34-0.75-0.75 0-0.42 0.34-0.75 0.75-0.75h4.64c0.42 0 0.75 0.34 0.75 0.75s-0.33 0.75-0.75 0.75z"/>
</svg>
