<?xml version="1.0" encoding="UTF-8"?>
<svg width="24" height="24" viewBox="0 0 24 24" xmlns="http://www.w3.org/2000/svg">
 <path d="m20.4 16.33c-0.28 0.75-0.87 1.32-1.64 1.58-1.08 0.36-2.19 0.63-3.31 0.82-0.11 0.02-0.22 0.04-0.33 0.05-0.18 0.03-0.36 0.05-0.54 0.07-0.22 0.03-0.45 0.05-0.68 0.07-0.63 0.05-1.25 0.08-1.88 0.08-0.64 0-1.28-0.03-1.91-0.09-0.27-0.02-0.53-0.05-0.79-0.09-0.15-0.02-0.3-0.04-0.44-0.06-0.11-0.02-0.22-0.03-0.33-0.05-1.11-0.18-2.21-0.45-3.28-0.81-0.8-0.27-1.41-0.84-1.68-1.57-0.27-0.72-0.17-1.56 0.26-2.28l1.13-1.88c0.24-0.41 0.46-1.2 0.46-1.68v-1.86c0-3.63 2.95-6.58 6.58-6.58 3.62 0 6.57 2.95 6.57 6.58v1.86c0 0.48 0.22 1.27 0.47 1.68l1.13 1.88c0.41 0.7 0.49 1.52 0.21 2.28z" opacity=".4"/>
 <path d="m12 10.76c-0.42 0-0.76-0.34-0.76-0.75995v-3.1c0-0.42 0.34-0.76 0.76-0.76s0.76 0.34 0.76 0.76v3.1c-0.01 0.41995-0.35 0.75995-0.76 0.75995z"/>
 <path d="m14.83 20.01c-0.42 1.16-1.53 1.99-2.83 1.99-0.79 0-1.57-0.32-2.12-0.89-0.32-0.3-0.56-0.7-0.7-1.11 0.13 0.02 0.26 0.03 0.4 0.05 0.23 0.03 0.47002 0.06 0.71002 0.08 0.57 0.05 1.15 0.08 1.73 0.08 0.57 0 1.14-0.03 1.7-0.08 0.21-0.02 0.42-0.03 0.62-0.06 0.16-0.02 0.32-0.04 0.49-0.06z"/>
</svg>
