<svg width="24" height="24" viewBox="0 0 24 24"  xmlns="http://www.w3.org/2000/svg">
<path d="M12.0199 20.5299C9.68987 20.5299 7.35987 20.1599 5.14987 19.4199C4.30987 19.1299 3.66987 18.5399 3.38987 17.7699C3.09987 16.9999 3.19987 16.1499 3.65987 15.3899L4.80987 13.4799C5.04987 13.0799 5.26987 12.2799 5.26987 11.8099V8.91993C5.26987 5.19993 8.29987 2.16993 12.0199 2.16993C15.7399 2.16993 18.7699 5.19993 18.7699 8.91993V11.8099C18.7699 12.2699 18.9899 13.0799 19.2299 13.4899L20.3699 15.3899C20.7999 16.1099 20.8799 16.9799 20.5899 17.7699C20.2999 18.5599 19.6699 19.1599 18.8799 19.4199C16.6799 20.1599 14.3499 20.5299 12.0199 20.5299ZM12.0199 3.66993C9.12987 3.66993 6.76987 6.01993 6.76987 8.91993V11.8099C6.76987 12.5399 6.46987 13.6199 6.09987 14.2499L4.94987 16.1599C4.72987 16.5299 4.66987 16.9199 4.79987 17.2499C4.91987 17.5899 5.21987 17.8499 5.62987 17.9899C9.80987 19.3899 14.2399 19.3899 18.4199 17.9899C18.7799 17.8699 19.0599 17.5999 19.1899 17.2399C19.3199 16.8799 19.2899 16.4899 19.0899 16.1599L17.9399 14.2499C17.5599 13.5999 17.2699 12.5299 17.2699 11.7999V8.91993C17.2699 6.01993 14.9199 3.66993 12.0199 3.66993Z" />
<path d="M13.8799 3.93993C13.8099 3.93993 13.7399 3.92993 13.6699 3.90993C13.3799 3.82993 13.0999 3.76993 12.8299 3.72993C11.9799 3.61993 11.1599 3.67993 10.3899 3.90993C10.1099 3.99993 9.80987 3.90993 9.61987 3.69993C9.42987 3.48993 9.36987 3.18993 9.47987 2.91993C9.88987 1.86993 10.8899 1.17993 12.0299 1.17993C13.1699 1.17993 14.1699 1.85993 14.5799 2.91993C14.6799 3.18993 14.6299 3.48993 14.4399 3.69993C14.2899 3.85993 14.0799 3.93993 13.8799 3.93993Z" />
<path d="M12.0199 22.8099C11.0299 22.8099 10.0699 22.4099 9.36987 21.7099C8.66987 21.0099 8.26987 20.0499 8.26987 19.0599H9.76987C9.76987 19.6499 10.0099 20.2299 10.4299 20.6499C10.8499 21.0699 11.4299 21.3099 12.0199 21.3099C13.2599 21.3099 14.2699 20.2999 14.2699 19.0599H15.7699C15.7699 21.1299 14.0899 22.8099 12.0199 22.8099Z" />
</svg>
