<?xml version="1.0" encoding="UTF-8"?>
<svg width="24" height="24" viewBox="0 0 24 24" xmlns="http://www.w3.org/2000/svg">
 <path d="m19.34 14.49-1-1.66c-0.21-0.37-0.4-1.07-0.4-1.48v-2.53c0-3.26-2.65-5.92-5.92-5.92-3.27 0-5.92 2.66-5.92 5.92v2.53c0 0.41-0.19 1.11-0.4 1.47l-1.01 1.67c-0.4 0.67-0.49 1.41-0.24 2.09 0.24 0.67 0.81 1.19 1.55 1.44 1.94 0.66 3.98 0.98 6.02 0.98 2.04 0 4.08-0.32 6.02-0.97 0.7-0.23 1.24-0.76 1.5-1.45s0.19-1.45-0.2-2.09z" opacity=".4"/>
 <path d="m14.25 3.32c-0.69-0.27-1.44-0.42-2.23-0.42-0.78 0-1.53 0.14-2.22 0.42 0.43-0.81 1.28-1.32 2.22-1.32 0.95 0 1.79 0.51 2.23 1.32z"/>
 <path d="m14.83 20.01c-0.42 1.16-1.53 1.99-2.83 1.99-0.79 0-1.57-0.32-2.12-0.89-0.32-0.3-0.56-0.7-0.7-1.11 0.13 0.02 0.26 0.03 0.4 0.05 0.23 0.03 0.47002 0.06 0.71002 0.08 0.57 0.05 1.15 0.08 1.73 0.08 0.57 0 1.14-0.03 1.7-0.08 0.21-0.02 0.42-0.03 0.62-0.06 0.16-0.02 0.32-0.04 0.49-0.06z"/>
</svg>
