<?xml version="1.0" encoding="UTF-8"?>
<svg width="24" height="24" viewBox="0 0 24 24" xmlns="http://www.w3.org/2000/svg">
 <path d="m19 8c1.6569 0 3-1.3432 3-3s-1.3431-3-3-3-3 1.3432-3 3 1.3431 3 3 3z"/>
 <path d="m19 9.5c-2.48 0-4.5-2.02-4.5-4.5 0-0.72 0.19-1.39 0.49-2h-7.47c-3.45 0-5.52 2.06-5.52 5.52v7.95c0 3.47 2.07 5.53 5.52 5.53h7.95c3.46 0 5.52-2.06 5.52-5.52v-7.47c-0.6 0.3-1.27 0.49-1.99 0.49z" opacity=".4"/>
 <path d="m10.9 12.36c-0.57-0.18-1.18-0.08-1.61 0.26-0.44-0.34-1.04-0.44-1.6-0.26-1.23 0.4-1.62 1.8-1.27 2.88 0.53 1.64 2.26 2.49 2.88 2.49 0.61 0 2.37-0.87 2.88-2.49 0.35-1.08-0.05-2.48-1.28-2.88z"/>
</svg>
