<svg width="24" height="24" viewBox="0 0 24 24"  xmlns="http://www.w3.org/2000/svg">
<path d="M12 4.75034C11.9 4.75034 11.8 4.74034 11.71 4.72034C11.61 4.70034 11.52 4.67034 11.43 4.64034C11.34 4.60034 11.25 4.55034 11.17 4.50034C11.09 4.44034 11.01 4.38034 10.94 4.31034C10.66 4.03034 10.5 3.65034 10.5 3.25034C10.5 2.85034 10.66 2.47034 10.94 2.19034C11.01 2.12034 11.09 2.06034 11.17 2.00034C11.25 1.95034 11.34 1.90034 11.43 1.87034C11.52 1.83034 11.61 1.80034 11.71 1.78034C12.19 1.68034 12.71 1.84034 13.06 2.19034C13.34 2.47034 13.5 2.85034 13.5 3.25034C13.5 3.65034 13.34 4.03034 13.06 4.31034C12.78 4.59034 12.39 4.75034 12 4.75034Z" />
<path d="M12 9.25034C11.9 9.25034 11.8 9.24034 11.71 9.22034C11.61 9.20034 11.52 9.17034 11.43 9.14034C11.34 9.10034 11.25 9.05034 11.17 9.00034C11.09 8.94034 11.01 8.88033 10.94 8.81033C10.66 8.53033 10.5 8.15034 10.5 7.75034C10.5 7.35034 10.66 6.97034 10.94 6.69034C11.01 6.62034 11.09 6.56034 11.17 6.50034C11.25 6.45034 11.34 6.40033 11.43 6.37033C11.52 6.33033 11.61 6.30034 11.71 6.28034C11.9 6.24034 12.1 6.24034 12.29 6.28034C12.39 6.30034 12.48 6.33033 12.57 6.37033C12.66 6.40033 12.75 6.45034 12.83 6.50034C12.91 6.56034 12.99 6.62034 13.06 6.69034C13.34 6.97034 13.5 7.35034 13.5 7.75034C13.5 8.15034 13.34 8.53033 13.06 8.81033C12.99 8.88033 12.91 8.94034 12.83 9.00034C12.75 9.05034 12.66 9.10034 12.57 9.14034C12.48 9.17034 12.39 9.20034 12.29 9.22034C12.2 9.24034 12.1 9.25034 12 9.25034Z" />
<path d="M12 13.2503C11.9 13.2503 11.8 13.2403 11.71 13.2203C11.61 13.2003 11.52 13.1703 11.43 13.1403C11.34 13.1003 11.25 13.0503 11.17 13.0003C11.09 12.9403 11.01 12.8803 10.94 12.8103C10.87 12.7403 10.81 12.6703 10.75 12.5803C10.7 12.5003 10.65 12.4103 10.61 12.3203C10.58 12.2303 10.55 12.1403 10.53 12.0403C10.51 11.9503 10.5 11.8503 10.5 11.7503C10.5 11.3503 10.66 10.9703 10.94 10.6903C11.01 10.6203 11.09 10.5603 11.17 10.5003C11.25 10.4503 11.34 10.4003 11.43 10.3603C11.52 10.3303 11.61 10.3003 11.71 10.2803C12.19 10.1803 12.71 10.3403 13.06 10.6903C13.34 10.9703 13.5 11.3503 13.5 11.7503C13.5 11.8503 13.49 11.9503 13.47 12.0403C13.45 12.1403 13.42 12.2303 13.38 12.3203C13.35 12.4103 13.3 12.5003 13.25 12.5803C13.19 12.6703 13.13 12.7403 13.06 12.8103C12.99 12.8803 12.91 12.9403 12.83 13.0003C12.75 13.0503 12.66 13.1003 12.57 13.1403C12.48 13.1703 12.39 13.2003 12.29 13.2203C12.2 13.2403 12.1 13.2503 12 13.2503Z" />
<path d="M12 16.7503C11.74 16.7503 11.48 16.6403 11.29 16.4603C11.11 16.2703 11 16.0103 11 15.7503C11 15.4903 11.11 15.2303 11.29 15.0403C11.52 14.8103 11.87 14.7103 12.19 14.7703C12.26 14.7803 12.32 14.8003 12.38 14.8303C12.44 14.8503 12.5 14.8803 12.55 14.9203C12.61 14.9603 12.66 15.0003 12.71 15.0403C12.89 15.2303 13 15.4903 13 15.7503C13 16.0103 12.89 16.2703 12.71 16.4603C12.66 16.5003 12.61 16.5403 12.55 16.5803C12.5 16.6203 12.44 16.6503 12.38 16.6703C12.32 16.7003 12.26 16.7203 12.19 16.7303C12.13 16.7403 12.06 16.7503 12 16.7503Z" />
<path d="M12 20.0003C11.9 20.0003 11.8 19.9803 11.71 19.9403C11.62 19.9003 11.54 19.8503 11.47 19.7803C11.4 19.7103 11.34 19.6303 11.31 19.5403C11.27 19.4503 11.25 19.3503 11.25 19.2503C11.25 19.0503 11.33 18.8603 11.47 18.7203C11.54 18.6503 11.62 18.6003 11.71 18.5603C11.9 18.4803 12.1 18.4803 12.29 18.5603C12.38 18.6003 12.46 18.6503 12.53 18.7203C12.6 18.7903 12.65 18.8703 12.69 18.9603C12.73 19.0503 12.75 19.1503 12.75 19.2503C12.75 19.3503 12.73 19.4503 12.69 19.5403C12.65 19.6303 12.6 19.7103 12.53 19.7803C12.46 19.8503 12.38 19.9003 12.29 19.9403C12.19 19.9803 12.1 20.0003 12 20.0003Z" />
<path d="M12 22.0703C11.87 22.0703 11.74 22.0203 11.65 21.9203C11.55 21.8303 11.5 21.7003 11.5 21.5703C11.5 21.4403 11.55 21.3103 11.65 21.2203C11.83 21.0303 12.17 21.0303 12.35 21.2203C12.45 21.3103 12.5 21.4403 12.5 21.5703C12.5 21.7003 12.45 21.8303 12.35 21.9203C12.26 22.0203 12.13 22.0703 12 22.0703Z" />
<path d="M3.5 9.25034C3.1 9.25034 2.72 9.09034 2.44 8.81034C2.16 8.53034 2 8.15034 2 7.75034C2 7.36034 2.16 6.97034 2.44 6.69034C2.99 6.13034 4 6.13034 4.56 6.69034C4.84 6.97034 5 7.36034 5 7.75034C5 8.15034 4.84 8.53034 4.56 8.81034C4.49 8.88034 4.41002 8.94034 4.33002 9.00034C4.25002 9.05034 4.16001 9.10034 4.07001 9.13034C3.98001 9.17034 3.88998 9.20034 3.78998 9.22034C3.69998 9.24034 3.6 9.25034 3.5 9.25034Z" />
<path d="M20.5 9.25034C20.11 9.25034 19.72 9.09033 19.44 8.81033C19.16 8.53033 19 8.14034 19 7.75034C19 7.65034 19.01 7.55034 19.03 7.46034C19.05 7.36034 19.08 7.27033 19.11 7.18033C19.15 7.09033 19.2 7.00034 19.25 6.92034C19.31 6.84034 19.37 6.76034 19.44 6.69034C19.51 6.62034 19.59 6.56034 19.67 6.50034C19.75 6.45034 19.84 6.40033 19.93 6.37033C20.02 6.33033 20.11 6.30034 20.21 6.28034C20.4 6.24034 20.6 6.24034 20.79 6.28034C20.89 6.30034 20.98 6.33033 21.07 6.37033C21.16 6.40033 21.25 6.45034 21.33 6.50034C21.41 6.56034 21.49 6.62034 21.56 6.69034C21.63 6.76034 21.69 6.84034 21.75 6.92034C21.8 7.00034 21.85 7.09033 21.88 7.18033C21.92 7.27033 21.95 7.36034 21.97 7.46034C21.99 7.55034 22 7.65034 22 7.75034C22 8.15034 21.84 8.53033 21.56 8.81033C21.49 8.88033 21.41 8.94034 21.33 9.00034C21.25 9.05034 21.16 9.10034 21.07 9.14034C20.98 9.17034 20.89 9.20034 20.79 9.22034C20.69 9.24034 20.6 9.25034 20.5 9.25034Z" />
<path d="M20.5 12.7503C20.44 12.7503 20.37 12.7403 20.31 12.7303C20.24 12.7203 20.18 12.7003 20.12 12.6703C20.06 12.6503 20 12.6203 19.94 12.5803C19.89 12.5503 19.84 12.5003 19.79 12.4603C19.75 12.4103 19.7 12.3603 19.67 12.3103C19.63 12.2503 19.6 12.1903 19.58 12.1303C19.55 12.0703 19.53 12.0103 19.52 11.9503C19.51 11.8803 19.5 11.8203 19.5 11.7503C19.5 11.4903 19.61 11.2303 19.79 11.0403C19.84 11.0003 19.89 10.9603 19.94 10.9203C20 10.8803 20.06 10.8503 20.12 10.8303C20.18 10.8003 20.24 10.7803 20.31 10.7703C20.43 10.7403 20.56 10.7403 20.69 10.7703C20.76 10.7803 20.82 10.8003 20.88 10.8303C20.94 10.8503 21 10.8803 21.05 10.9203C21.11 10.9603 21.16 11.0003 21.21 11.0403C21.39 11.2303 21.5 11.4903 21.5 11.7503C21.5 11.8203 21.49 11.8803 21.48 11.9503C21.47 12.0103 21.45 12.0703 21.42 12.1303C21.4 12.1903 21.37 12.2503 21.33 12.3103C21.29 12.3603 21.25 12.4103 21.21 12.4603C21.16 12.5003 21.11 12.5503 21.05 12.5803C21 12.6203 20.94 12.6503 20.88 12.6703C20.82 12.7003 20.76 12.7203 20.69 12.7303C20.63 12.7403 20.56 12.7503 20.5 12.7503Z" />
<path d="M3.5 12.7503C3.24 12.7503 2.97998 12.6403 2.78998 12.4603C2.60998 12.2703 2.5 12.0103 2.5 11.7503C2.5 11.4903 2.60998 11.2303 2.78998 11.0403C3.06998 10.7603 3.51 10.6703 3.88 10.8303C4.01 10.8803 4.11002 10.9503 4.21002 11.0403C4.39002 11.2303 4.5 11.4903 4.5 11.7503C4.5 12.0103 4.39002 12.2703 4.21002 12.4603C4.02002 12.6403 3.76 12.7503 3.5 12.7503Z" />
<path d="M20.5 15.5003C20.3 15.5003 20.11 15.4203 19.97 15.2803C19.83 15.1403 19.75 14.9503 19.75 14.7503C19.75 14.6503 19.77 14.5603 19.81 14.4603C19.85 14.3703 19.9 14.2903 19.97 14.2203C20.18 14.0103 20.51 13.9403 20.79 14.0603C20.88 14.1003 20.96 14.1503 21.03 14.2203C21.1 14.2903 21.15 14.3703 21.19 14.4603C21.23 14.5603 21.25 14.6503 21.25 14.7503C21.25 14.9503 21.17 15.1403 21.03 15.2803C20.96 15.3503 20.88 15.4003 20.79 15.4403C20.69 15.4803 20.6 15.5003 20.5 15.5003Z" />
<path d="M3.5 15.5003C3.3 15.5003 3.10997 15.4203 2.96997 15.2803C2.89997 15.2103 2.84 15.1303 2.81 15.0403C2.77 14.9503 2.75 14.8503 2.75 14.7503C2.75 14.6503 2.77 14.5603 2.81 14.4603C2.84 14.3703 2.89997 14.2903 2.96997 14.2203C3.23997 13.9403 3.75003 13.9403 4.03003 14.2203C4.10003 14.2903 4.15 14.3703 4.19 14.4603C4.23 14.5603 4.25 14.6503 4.25 14.7503C4.25 14.8503 4.23 14.9503 4.19 15.0403C4.15 15.1303 4.10003 15.2103 4.03003 15.2803C3.89003 15.4203 3.7 15.5003 3.5 15.5003Z" />
<path d="M20.5 18.0003C20.43 18.0003 20.37 17.9903 20.31 17.9603C20.25 17.9403 20.19 17.9003 20.15 17.8503C20.05 17.7603 20 17.6303 20 17.5003C20 17.3703 20.05 17.2403 20.15 17.1503C20.33 16.9603 20.67 16.9603 20.85 17.1503C20.95 17.2403 21 17.3703 21 17.5003C21 17.6303 20.95 17.7603 20.85 17.8503C20.76 17.9503 20.63 18.0003 20.5 18.0003Z" />
<path d="M3.5 18.0003C3.37 18.0003 3.24002 17.9503 3.15002 17.8503C3.05002 17.7603 3 17.6303 3 17.5003C3 17.3703 3.05002 17.2403 3.15002 17.1503C3.33002 16.9603 3.66998 16.9603 3.84998 17.1503C3.94998 17.2403 4 17.3703 4 17.5003C4 17.6303 3.94998 17.7603 3.84998 17.8503C3.75998 17.9503 3.63 18.0003 3.5 18.0003Z" />
<path d="M7.75 7.00034C7.65 7.00034 7.55002 6.99034 7.46002 6.97034C7.36002 6.95034 7.26999 6.92034 7.17999 6.88034C7.07999 6.85034 6.99998 6.80034 6.91998 6.75034C6.82998 6.69034 6.76 6.63034 6.69 6.56034C6.41 6.28034 6.25 5.89034 6.25 5.50034C6.25 5.11034 6.41 4.72034 6.69 4.44034C7.25 3.88034 8.25 3.88034 8.81 4.44034C9.09 4.72034 9.25 5.10034 9.25 5.50034C9.25 5.90034 9.09 6.28034 8.81 6.56034C8.74 6.63034 8.66002 6.69034 8.58002 6.75034C8.50002 6.80034 8.41001 6.85034 8.32001 6.88034C8.23001 6.92034 8.13998 6.95034 8.03998 6.97034C7.94998 6.99034 7.85 7.00034 7.75 7.00034Z" />
<path d="M16.25 7.00034C16.15 7.00034 16.05 6.99034 15.96 6.97034C15.86 6.95034 15.77 6.92034 15.68 6.88034C15.59 6.85034 15.5 6.80034 15.42 6.75034C15.34 6.69034 15.26 6.63033 15.19 6.56033C15.12 6.49033 15.06 6.41034 15 6.33034C14.95 6.25034 14.9 6.16034 14.86 6.07034C14.83 5.98034 14.8 5.89033 14.78 5.79033C14.76 5.70033 14.75 5.60034 14.75 5.50034C14.75 5.11034 14.91 4.72034 15.19 4.44034C15.26 4.37034 15.34 4.31034 15.42 4.25034C15.5 4.20034 15.59 4.15033 15.68 4.12033C15.77 4.08033 15.86 4.05034 15.96 4.03034C16.15 3.99034 16.35 3.99034 16.54 4.03034C16.64 4.05034 16.73 4.08033 16.82 4.12033C16.91 4.15033 17 4.20034 17.08 4.25034C17.16 4.31034 17.24 4.37034 17.31 4.44034C17.59 4.72034 17.75 5.11034 17.75 5.50034C17.75 5.60034 17.74 5.70033 17.72 5.79033C17.7 5.89033 17.67 5.98034 17.64 6.07034C17.6 6.16034 17.55 6.25034 17.5 6.33034C17.44 6.41034 17.38 6.49033 17.31 6.56033C17.24 6.63033 17.16 6.69034 17.08 6.75034C17 6.80034 16.91 6.85034 16.82 6.88034C16.73 6.92034 16.64 6.95034 16.54 6.97034C16.45 6.99034 16.35 7.00034 16.25 7.00034Z" />
<path d="M7.75 11.2503C7.65 11.2503 7.55002 11.2403 7.46002 11.2203C7.36002 11.2003 7.26999 11.1703 7.17999 11.1403C7.08999 11.1003 6.99998 11.0503 6.91998 11.0003C6.82998 10.9403 6.76 10.8803 6.69 10.8103C6.41 10.5303 6.25 10.1403 6.25 9.75034C6.25 9.35034 6.41 8.97034 6.69 8.69034C7.25 8.13034 8.25 8.13034 8.81 8.69034C9.09 8.97034 9.25 9.35034 9.25 9.75034C9.25 10.1503 9.09 10.5303 8.81 10.8103C8.53 11.0903 8.14 11.2503 7.75 11.2503Z" />
<path d="M16.25 11.2503C16.15 11.2503 16.05 11.2403 15.96 11.2203C15.86 11.2003 15.77 11.1703 15.68 11.1303C15.59 11.1003 15.5 11.0503 15.42 11.0003C15.34 10.9403 15.26 10.8803 15.19 10.8103C15.12 10.7403 15.06 10.6603 15 10.5803C14.95 10.5003 14.9 10.4103 14.86 10.3203C14.83 10.2303 14.8 10.1403 14.78 10.0403C14.76 9.95033 14.75 9.85034 14.75 9.75034C14.75 9.36034 14.91 8.97034 15.19 8.69034C15.26 8.62034 15.34 8.56034 15.42 8.50034C15.5 8.45034 15.59 8.40033 15.68 8.37033C15.77 8.33033 15.86 8.30034 15.96 8.28034C16.15 8.24034 16.35 8.24034 16.54 8.28034C16.64 8.30034 16.73 8.33033 16.82 8.37033C16.91 8.40033 17 8.45034 17.08 8.50034C17.16 8.56034 17.24 8.62034 17.31 8.69034C17.59 8.97034 17.75 9.36034 17.75 9.75034C17.75 9.85034 17.74 9.95033 17.72 10.0403C17.7 10.1403 17.67 10.2303 17.64 10.3203C17.6 10.4103 17.55 10.5003 17.5 10.5803C17.44 10.6603 17.38 10.7403 17.31 10.8103C17.24 10.8803 17.16 10.9403 17.08 11.0003C17 11.0503 16.91 11.1003 16.82 11.1303C16.73 11.1703 16.64 11.2003 16.54 11.2203C16.45 11.2403 16.35 11.2503 16.25 11.2503Z" />
<path d="M7.75 14.7503C7.62 14.7503 7.49 14.7203 7.37 14.6703C7.24 14.6203 7.12998 14.5503 7.03998 14.4603C6.94998 14.3603 6.88002 14.2503 6.83002 14.1303C6.78002 14.0103 6.75 13.8803 6.75 13.7503C6.75 13.4903 6.85998 13.2303 7.03998 13.0403C7.40998 12.6703 8.09002 12.6703 8.46002 13.0403C8.64002 13.2303 8.75 13.4903 8.75 13.7503C8.75 13.8803 8.71998 14.0103 8.66998 14.1303C8.61998 14.2503 8.55002 14.3603 8.46002 14.4603C8.27002 14.6403 8.01 14.7503 7.75 14.7503Z" />
<path d="M16.25 14.7503C15.99 14.7503 15.73 14.6403 15.54 14.4603C15.36 14.2703 15.25 14.0103 15.25 13.7503C15.25 13.4903 15.36 13.2303 15.54 13.0403C15.91 12.6703 16.58 12.6703 16.96 13.0403C17.14 13.2303 17.25 13.4903 17.25 13.7503C17.25 13.8203 17.24 13.8803 17.23 13.9503C17.22 14.0103 17.2 14.0703 17.17 14.1303C17.15 14.1903 17.12 14.2503 17.08 14.3003C17.04 14.3603 17 14.4103 16.96 14.4603C16.77 14.6403 16.51 14.7503 16.25 14.7503Z" />
<path d="M7.75 17.7503C7.55 17.7503 7.35997 17.6703 7.21997 17.5303C7.14997 17.4603 7.1 17.3803 7.06 17.2903C7.02 17.2003 7 17.1003 7 17.0003C7 16.9003 7.02 16.8103 7.06 16.7103C7.1 16.6203 7.14997 16.5403 7.21997 16.4703C7.28997 16.4003 7.37002 16.3503 7.46002 16.3103C7.64002 16.2303 7.84998 16.2303 8.03998 16.3103C8.12998 16.3503 8.21003 16.4003 8.28003 16.4703C8.42003 16.6103 8.5 16.8003 8.5 17.0003C8.5 17.1003 8.48 17.2003 8.44 17.2903C8.4 17.3803 8.35003 17.4603 8.28003 17.5303C8.14003 17.6703 7.95 17.7503 7.75 17.7503Z" />
<path d="M16.25 17.7503C16.15 17.7503 16.05 17.7303 15.96 17.6903C15.87 17.6503 15.79 17.6003 15.72 17.5303C15.65 17.4603 15.59 17.3803 15.56 17.2903C15.52 17.2003 15.5 17.1003 15.5 17.0003C15.5 16.9003 15.52 16.8003 15.56 16.7103C15.6 16.6203 15.65 16.5403 15.72 16.4703C15.79 16.4003 15.87 16.3503 15.96 16.3103C16.14 16.2303 16.35 16.2303 16.54 16.3103C16.63 16.3503 16.71 16.4003 16.78 16.4703C16.85 16.5403 16.9 16.6203 16.94 16.7103C16.98 16.8003 17 16.9003 17 17.0003C17 17.1003 16.98 17.2003 16.94 17.2903C16.9 17.3803 16.85 17.4603 16.78 17.5303C16.64 17.6703 16.45 17.7503 16.25 17.7503Z" />
<path d="M7.75 20.0003C7.62 20.0003 7.49002 19.9503 7.40002 19.8503C7.30002 19.7603 7.25 19.6303 7.25 19.5003C7.25 19.3703 7.30002 19.2403 7.40002 19.1503C7.58002 18.9603 7.91998 18.9603 8.09998 19.1503C8.19998 19.2403 8.25 19.3703 8.25 19.5003C8.25 19.6303 8.19998 19.7603 8.09998 19.8503C8.00998 19.9503 7.88 20.0003 7.75 20.0003Z" />
<path d="M16.25 20.0003C16.18 20.0003 16.12 19.9903 16.06 19.9603C16 19.9403 15.94 19.9003 15.9 19.8503C15.85 19.8103 15.81 19.7503 15.79 19.6903C15.76 19.6303 15.75 19.5703 15.75 19.5003C15.75 19.3703 15.8 19.2403 15.9 19.1503C16.08 18.9603 16.42 18.9603 16.6 19.1503C16.7 19.2403 16.75 19.3703 16.75 19.5003C16.75 19.5703 16.74 19.6303 16.71 19.6903C16.69 19.7503 16.65 19.8103 16.6 19.8503C16.51 19.9503 16.38 20.0003 16.25 20.0003Z" />
</svg>
