<?xml version="1.0" encoding="UTF-8"?>
<svg width="24" height="24" viewBox="0 0 24 24" xmlns="http://www.w3.org/2000/svg">
 <path d="m12 4.7494c-0.1 0-0.2-0.01-0.29-0.03-0.1-0.02-0.19-0.05-0.28-0.08-0.09-0.04-0.18-0.09-0.26-0.14-0.08-0.06-0.16-0.12-0.23-0.19-0.28-0.28-0.44-0.66-0.44-1.06s0.16-0.78 0.44-1.06c0.07-0.07 0.15-0.13 0.23-0.19 0.08-0.05 0.17-0.1 0.26-0.13 0.09-0.04 0.18-0.07 0.28-0.09 0.48-0.1 1 0.06 1.35 0.41 0.28 0.28 0.44 0.66 0.44 1.06s-0.16 0.78-0.44 1.06-0.67 0.44-1.06 0.44z"/>
 <path d="m12 9.25c-0.1 0-0.2-0.01-0.29-0.03-0.1-0.02-0.19-0.05-0.28-0.08-0.09-0.04-0.18-0.09-0.26-0.14-0.08-0.06-0.16-0.12-0.23-0.19-0.28-0.28-0.44-0.66-0.44-1.06s0.16-0.78 0.44-1.06c0.07-0.07 0.15-0.13 0.23-0.19 0.08-0.05 0.17-0.1 0.26-0.13 0.09-0.04 0.18-0.07 0.28-0.09 0.19-0.04 0.39-0.04 0.58 0 0.1 0.02 0.19 0.05 0.28 0.09 0.09 0.03 0.18 0.08 0.26 0.13 0.08 0.06 0.16 0.12 0.23 0.19 0.28 0.28 0.44 0.66 0.44 1.06s-0.16 0.78-0.44 1.06c-0.07 0.07-0.15 0.13-0.23 0.19-0.08 0.05-0.17 0.1-0.26 0.14-0.09 0.03-0.18 0.06-0.28 0.08-0.09 0.02-0.19 0.03-0.29 0.03z"/>
 <path d="m12 13.249c-0.1 0-0.2-0.01-0.29-0.03-0.1-0.02-0.19-0.05-0.28-0.08-0.09-0.04-0.18-0.09-0.26-0.14-0.08-0.06-0.16-0.12-0.23-0.19s-0.13-0.14-0.19-0.23c-0.05-0.08-0.1-0.17-0.14-0.26-0.03-0.09-0.06-0.18-0.08-0.28-0.02-0.09-0.03-0.19-0.03-0.29 0-0.4 0.16-0.78 0.44-1.06 0.07-0.07 0.15-0.13 0.23-0.19 0.08-0.05 0.17-0.1 0.26-0.14 0.09-0.03 0.18-0.06 0.28-0.08 0.48-0.1 1 0.06 1.35 0.41 0.28 0.28 0.44 0.66 0.44 1.06 0 0.1-0.01 0.2-0.03 0.29-0.02 0.1-0.05 0.19-0.09 0.28-0.03 0.09-0.08 0.18-0.13 0.26-0.06 0.09-0.12 0.16-0.19 0.23s-0.15 0.13-0.23 0.19c-0.08 0.05-0.17 0.1-0.26 0.14-0.09 0.03-0.18 0.06-0.28 0.08-0.09 0.02-0.19 0.03-0.29 0.03z"/>
 <g opacity=".6">
  <path d="m12 16.749c-0.26 0-0.52-0.11-0.71-0.29-0.18-0.19-0.29-0.45-0.29-0.71s0.11-0.52 0.29-0.71c0.23-0.23 0.58-0.33 0.9-0.27 0.07 0.01 0.13 0.03 0.19 0.06 0.06 0.02 0.12 0.05 0.17 0.09 0.06 0.04 0.11 0.08 0.16 0.12 0.18 0.19 0.29 0.45 0.29 0.71s-0.11 0.52-0.29 0.71c-0.05 0.04-0.1 0.08-0.16 0.12-0.05 0.04-0.11 0.07-0.17 0.09-0.06 0.03-0.12 0.05-0.19 0.06-0.06 0.01-0.13 0.02-0.19 0.02z" opacity=".6"/>
 </g>
 <g opacity=".4">
  <path d="m12 20c-0.1 0-0.2-0.02-0.29-0.06s-0.17-0.09-0.24-0.16-0.13-0.15-0.16-0.24c-0.04-0.09-0.06-0.19-0.06-0.29 0-0.2 0.08-0.39 0.22-0.53 0.07-0.07 0.15-0.12 0.24-0.16 0.19-0.08 0.39-0.08 0.58 0 0.09 0.04 0.17 0.09 0.24 0.16s0.12 0.15 0.16 0.24 0.06 0.19 0.06 0.29-0.02 0.2-0.06 0.29-0.09 0.17-0.16 0.24-0.15 0.12-0.24 0.16c-0.1 0.04-0.19 0.06-0.29 0.06z" opacity=".4"/>
 </g>
 <g opacity=".2">
  <path d="m12 22.069c-0.13 0-0.26-0.05-0.35-0.15-0.1-0.09-0.15-0.22-0.15-0.35s0.05-0.26 0.15-0.35c0.18-0.19 0.52-0.19 0.7 0 0.1 0.09 0.15 0.22 0.15 0.35s-0.05 0.26-0.15 0.35c-0.09 0.1-0.22 0.15-0.35 0.15z" opacity=".2"/>
 </g>
 <path d="m3.5 9.2495c-0.4 0-0.78-0.16-1.06-0.44s-0.44-0.66-0.44-1.06c0-0.39 0.16-0.78 0.44-1.06 0.55-0.56 1.56-0.56 2.12 0 0.28 0.28 0.44 0.67 0.44 1.06 0 0.4-0.16 0.78-0.44 1.06-0.07 0.07-0.14998 0.13-0.22998 0.19-0.08 0.05-0.17001 0.1-0.26001 0.13-0.09 0.04-0.18003 0.07-0.28003 0.09-0.09 0.02-0.18998 0.03-0.28998 0.03z"/>
 <path d="m20.5 9.25c-0.39 0-0.78-0.16-1.06-0.44s-0.44-0.67-0.44-1.06c0-0.1 0.01-0.2 0.03-0.29 0.02-0.1 0.05-0.19 0.08-0.28 0.04-0.09 0.09-0.18 0.14-0.26 0.06-0.08 0.12-0.16 0.19-0.23s0.15-0.13 0.23-0.19c0.08-0.05 0.17-0.1 0.26-0.13 0.09-0.04 0.18-0.07 0.28-0.09 0.19-0.04 0.39-0.04 0.58 0 0.1 0.02 0.19 0.05 0.28 0.09 0.09 0.03 0.18 0.08 0.26 0.13 0.08 0.06 0.16 0.12 0.23 0.19s0.13 0.15 0.19 0.23c0.05 0.08 0.1 0.17 0.13 0.26 0.04 0.09 0.07 0.18 0.09 0.28 0.02 0.09 0.03 0.19 0.03 0.29 0 0.4-0.16 0.78-0.44 1.06-0.07 0.07-0.15 0.13-0.23 0.19-0.08 0.05-0.17 0.1-0.26 0.14-0.09 0.03-0.18 0.06-0.28 0.08s-0.19 0.03-0.29 0.03z"/>
 <g opacity=".6">
  <path d="m20.5 12.749c-0.06 0-0.13-0.01-0.19-0.02-0.07-0.01-0.13-0.03-0.19-0.06-0.06-0.02-0.12-0.05-0.18-0.09-0.05-0.03-0.1-0.08-0.15-0.12-0.04-0.05-0.09-0.1-0.12-0.15-0.04-0.06-0.07-0.12-0.09-0.18-0.03-0.06-0.05-0.12-0.06-0.18-0.01-0.07-0.02-0.13-0.02-0.2 0-0.26 0.11-0.52 0.29-0.71l0.15-0.12c0.06-0.04 0.12-0.07 0.18-0.09 0.06-0.03 0.12-0.05 0.19-0.06 0.12-0.03 0.25-0.03 0.38 0 0.07 0.01 0.13 0.03 0.19 0.06 0.06 0.02 0.12 0.05 0.17 0.09 0.06 0.04 0.11 0.08 0.16 0.12 0.18 0.19 0.29 0.45 0.29 0.71 0 0.07-0.01 0.13-0.02 0.2-0.01 0.06-0.03 0.12-0.06 0.18-0.02 0.06-0.05 0.12-0.09 0.18l-0.12 0.15c-0.05 0.04-0.1 0.09-0.16 0.12-0.05 0.04-0.11 0.07-0.17 0.09-0.06 0.03-0.12 0.05-0.19 0.06-0.06 0.01-0.13 0.02-0.19 0.02z" opacity=".6"/>
  <path d="m3.5 12.749c-0.26 0-0.52002-0.11-0.71002-0.29-0.18-0.19-0.28998-0.45-0.28998-0.71s0.10998-0.52 0.28998-0.71c0.28-0.28 0.72002-0.37 1.09-0.21 0.13 0.05 0.23002 0.12 0.33002 0.21 0.18 0.19 0.28998 0.45 0.28998 0.71s-0.10998 0.52-0.28998 0.71c-0.19 0.18-0.45002 0.29-0.71002 0.29z" opacity=".6"/>
 </g>
 <g opacity=".4">
  <path d="m20.5 15.498c-0.2 0-0.39-0.08-0.53-0.22s-0.22-0.33-0.22-0.53c0-0.1 0.02-0.19 0.06-0.29 0.04-0.09 0.09-0.17 0.16-0.24 0.21-0.21 0.54-0.28 0.82-0.16 0.09 0.04 0.17 0.09 0.24 0.16s0.12 0.15 0.16 0.24c0.04 0.1 0.06 0.19 0.06 0.29 0 0.2-0.08 0.39-0.22 0.53-0.07 0.07-0.15 0.12-0.24 0.16-0.1 0.04-0.19 0.06-0.29 0.06z" opacity=".4"/>
  <path d="m3.5 15.5c-0.2 0-0.39003-0.08-0.53003-0.22-0.07-0.07-0.12997-0.15-0.15997-0.24-0.04-0.09-0.06-0.19-0.06-0.29s0.02-0.19 0.06-0.29c0.03-0.09 0.08997-0.17 0.15997-0.24 0.27-0.28 0.78006-0.28 1.0601 0 0.07 0.07 0.11997 0.15 0.15997 0.24 0.04 0.1 0.06 0.19 0.06 0.29s-0.02 0.2-0.06 0.29-0.08997 0.17-0.15997 0.24c-0.14 0.14-0.33003 0.22-0.53003 0.22z" opacity=".4"/>
 </g>
 <g opacity=".2">
  <path d="m20.5 18c-0.07 0-0.13-0.01-0.19-0.04-0.06-0.02-0.12-0.06-0.16-0.11-0.1-0.09-0.15-0.22-0.15-0.35s0.05-0.26 0.15-0.35c0.18-0.19 0.52-0.19 0.7 0 0.1 0.09 0.15 0.22 0.15 0.35s-0.05 0.26-0.15 0.35c-0.09 0.1-0.22 0.15-0.35 0.15z" opacity=".2"/>
  <path d="m3.5 18c-0.13 0-0.25998-0.05-0.34998-0.15-0.1-0.09-0.15002-0.22-0.15002-0.35s0.05002-0.26 0.15002-0.35c0.18-0.19 0.51996-0.19 0.69996 0 0.1 0.09 0.15002 0.22 0.15002 0.35s-0.05002 0.26-0.15002 0.35c-0.09 0.1-0.21998 0.15-0.34998 0.15z" opacity=".2"/>
 </g>
 <path d="m7.75 6.9995c-0.1 0-0.19998-0.01-0.28998-0.03-0.1-0.02-0.19003-0.05-0.28003-0.09-0.1-0.03-0.18001-0.08-0.26001-0.13-0.09-0.06-0.15998-0.12-0.22998-0.19-0.28-0.28-0.44-0.67-0.44-1.06s0.16-0.78 0.44-1.06c0.56-0.56 1.56-0.56 2.12 0 0.28 0.28 0.44 0.66 0.44 1.06s-0.16 0.78-0.44 1.06c-0.07 0.07-0.14998 0.13-0.22998 0.19-0.08 0.05-0.17001 0.1-0.26001 0.13-0.09 0.04-0.18003 0.07-0.28003 0.09-0.09 0.02-0.18998 0.03-0.28998 0.03z"/>
 <path d="m16.25 7c-0.1 0-0.2-0.01-0.29-0.03-0.1-0.02-0.19-0.05-0.28-0.09-0.09-0.03-0.18-0.08-0.26-0.13-0.08-0.06-0.16-0.12-0.23-0.19s-0.13-0.15-0.19-0.23c-0.05-0.08-0.1-0.17-0.14-0.26-0.03-0.09-0.06-0.18-0.08-0.28-0.02-0.09-0.03-0.19-0.03-0.29 0-0.39 0.16-0.78 0.44-1.06 0.07-0.07 0.15-0.13 0.23-0.19 0.08-0.05 0.17-0.1 0.26-0.13 0.09-0.04 0.18-0.07 0.28-0.09 0.19-0.04 0.39-0.04 0.58 0 0.1 0.02 0.19 0.05 0.28 0.09 0.09 0.03 0.18 0.08 0.26 0.13 0.08 0.06 0.16 0.12 0.23 0.19 0.28 0.28 0.44 0.67 0.44 1.06 0 0.1-0.01 0.2-0.03 0.29-0.02 0.1-0.05 0.19-0.08 0.28-0.04 0.09-0.09 0.18-0.14 0.26-0.06 0.08-0.12 0.16-0.19 0.23s-0.15 0.13-0.23 0.19c-0.08 0.05-0.17 0.1-0.26 0.13-0.09 0.04-0.18 0.07-0.28 0.09-0.09 0.02-0.19 0.03-0.29 0.03z"/>
 <path d="m7.75 11.25c-0.1 0-0.19998-0.01-0.28998-0.03-0.1-0.02-0.19003-0.05-0.28003-0.08-0.09-0.04-0.18001-0.09-0.26001-0.14-0.09-0.06-0.15998-0.12-0.22998-0.19-0.28-0.28-0.44-0.67-0.44-1.06 0-0.4 0.16-0.78 0.44-1.06 0.56-0.56 1.56-0.56 2.12 0 0.28 0.28 0.44 0.66 0.44 1.06 0 0.39997-0.16 0.77997-0.44 1.06s-0.67 0.44-1.06 0.44z"/>
 <path d="m16.25 11.25c-0.1 0-0.2-0.01-0.29-0.03-0.1-0.02-0.19-0.05-0.28-0.09-0.09-0.03-0.18-0.08-0.26-0.13-0.08-0.06-0.16-0.12-0.23-0.19s-0.13-0.15-0.19-0.23c-0.05-0.08-0.1-0.17-0.14-0.26-0.03-0.09-0.06-0.18-0.08-0.28-0.02-0.09-0.03-0.19-0.03-0.29 0-0.39 0.16-0.78 0.44-1.06 0.07-0.07 0.15-0.13 0.23-0.19 0.08-0.05 0.17-0.1 0.26-0.13 0.09-0.04 0.18-0.07 0.28-0.09 0.19-0.04 0.39-0.04 0.58 0 0.1 0.02 0.19 0.05 0.28 0.09 0.09 0.03 0.18 0.08 0.26 0.13 0.08 0.06 0.16 0.12 0.23 0.19 0.28 0.28 0.44 0.67 0.44 1.06 0 0.1-0.01 0.2-0.03 0.29-0.02 0.1-0.05 0.19-0.08 0.28-0.04 0.09-0.09 0.18-0.14 0.26-0.06 0.08-0.12 0.16-0.19 0.23s-0.15 0.13-0.23 0.19c-0.08 0.05-0.17 0.1-0.26 0.13-0.09 0.04-0.18 0.07-0.28 0.09-0.09 0.02-0.19 0.03-0.29 0.03z"/>
 <g opacity=".6">
  <path d="m7.75 14.749c-0.13 0-0.26-0.03-0.38-0.08-0.13-0.05-0.24002-0.12-0.33002-0.21-0.09-0.1-0.15996-0.21-0.20996-0.33s-0.08002-0.25-0.08002-0.38c0-0.26 0.10998-0.52 0.28998-0.71 0.37-0.37 1.05-0.37 1.42 0 0.18 0.19 0.28998 0.45 0.28998 0.71 0 0.13-0.03002 0.26-0.08002 0.38s-0.11996 0.23-0.20996 0.33c-0.19 0.18-0.45002 0.29-0.71002 0.29z" opacity=".6"/>
  <path d="m16.25 14.749c-0.26 0-0.52-0.11-0.71-0.29-0.18-0.19-0.29-0.45-0.29-0.71s0.11-0.52 0.29-0.71c0.37-0.37 1.04-0.37 1.42 0 0.18 0.19 0.29 0.45 0.29 0.71 0 0.07-0.01 0.13-0.02 0.2-0.01 0.06-0.03 0.12-0.06 0.18-0.02 0.06-0.05 0.12-0.09 0.17-0.04 0.06-0.08 0.11-0.12 0.16-0.19 0.18-0.45 0.29-0.71 0.29z" opacity=".6"/>
 </g>
 <g opacity=".4">
  <path d="m7.75 17.75c-0.2 0-0.39003-0.08-0.53003-0.22-0.07-0.07-0.11997-0.15-0.15997-0.24s-0.06-0.19-0.06-0.29 0.02-0.19 0.06-0.29c0.04-0.09 0.08997-0.17 0.15997-0.24s0.15005-0.12 0.24005-0.16c0.18-0.08 0.38996-0.08 0.57996 0 0.09 0.04 0.17005 0.09 0.24005 0.16 0.14 0.14 0.21997 0.33 0.21997 0.53 0 0.1-0.02 0.2-0.06 0.29s-0.08997 0.17-0.15997 0.24c-0.14 0.14-0.33003 0.22-0.53003 0.22z" opacity=".4"/>
  <path d="m16.25 17.75c-0.1 0-0.2-0.02-0.29-0.06s-0.17-0.09-0.24-0.16-0.13-0.15-0.16-0.24c-0.04-0.09-0.06-0.19-0.06-0.29s0.02-0.2 0.06-0.29 0.09-0.17 0.16-0.24 0.15-0.12 0.24-0.16c0.18-0.08 0.39-0.08 0.58 0 0.09 0.04 0.17 0.09 0.24 0.16s0.12 0.15 0.16 0.24 0.06 0.19 0.06 0.29-0.02 0.2-0.06 0.29-0.09 0.17-0.16 0.24c-0.14 0.14-0.33 0.22-0.53 0.22z" opacity=".4"/>
 </g>
 <g opacity=".2">
  <path d="m7.75 20c-0.13 0-0.25998-0.05-0.34998-0.15-0.1-0.09-0.15002-0.22-0.15002-0.35s0.05002-0.26 0.15002-0.35c0.18-0.19 0.51996-0.19 0.69996 0 0.1 0.09 0.15002 0.22 0.15002 0.35s-0.05002 0.26-0.15002 0.35c-0.09 0.1-0.21998 0.15-0.34998 0.15z" opacity=".2"/>
  <path d="m16.25 20c-0.07 0-0.13-0.01-0.19-0.04-0.06-0.02-0.12-0.06-0.16-0.11-0.05-0.04-0.09-0.1-0.11-0.16-0.03-0.06-0.04-0.12-0.04-0.19 0-0.13 0.05-0.26 0.15-0.35 0.18-0.19 0.52-0.19 0.7 0 0.1 0.09 0.15 0.22 0.15 0.35 0 0.07-0.01 0.13-0.04 0.19-0.02 0.06-0.06 0.12-0.11 0.16-0.09 0.1-0.22 0.15-0.35 0.15z" opacity=".2"/>
 </g>
</svg>
