<?xml version="1.0" encoding="UTF-8"?>
<svg width="24" height="24" viewBox="0 0 24 24" xmlns="http://www.w3.org/2000/svg">
 <path d="m22 12c0 2.76-2.24 5-5 5 0-2.76-2.24-5-5-5 2.76 0 5-2.24 5-5 2.76 0 5 2.24 5 5z" opacity=".4"/>
 <path d="m17 17c-2.76 0-5-2.24-5-5 2.76 0 5 2.24 5 5z"/>
 <path d="m17 17c0 2.76-2.24 5-5 5s-5-2.24-5-5c2.76 0 5-2.24 5-5 0 2.76 2.24 5 5 5z" opacity=".4"/>
 <path d="m17 7c0 2.76-2.24 5-5 5 0-2.76 2.24-5 5-5z"/>
 <path d="m17 7c-2.76 0-5 2.24-5 5 0-2.76-2.24-5-5-5 0-2.76 2.24-5 5-5s5 2.24 5 5z" opacity=".4"/>
 <path d="m12 12c0 2.76-2.24 5-5 5 0-2.76 2.24-5 5-5z"/>
 <path d="m12 12c-2.76 0-5-2.24-5-5 2.76 0 5 2.24 5 5z"/>
 <path d="m12 12c-2.76 0-5 2.24-5 5-2.76 0-5-2.24-5-5s2.24-5 5-5c0 2.76 2.24 5 5 5z" opacity=".4"/>
</svg>
