<?xml version="1.0" encoding="UTF-8"?>
<svg width="24" height="24" viewBox="0 0 24 24" xmlns="http://www.w3.org/2000/svg">
 <path d="M16.19 2H7.81C4.17 2 2 4.17 2 7.81V16.18C2 19.83 4.17 22 7.81 22H16.18C19.82 22 21.99 19.83 21.99 16.19V7.81C22 4.17 19.83 2 16.19 2Z" opacity=".4"/>
 <path d="m11.43 18.18c-2.3 0-4.18-1.88-4.18-4.18v-3.43c0-2.62 2.13-4.75 4.75-4.75s4.75 2.13 4.75 4.75v3.14c0 1.52-1.23 2.75-2.75 2.75s-2.75-1.23-2.75-2.75v-2c0-0.41 0.34-0.75 0.75-0.75s0.75 0.34 0.75 0.75v2c0 0.69 0.56 1.25 1.25 1.25s1.25-0.56 1.25-1.25v-3.14c0-1.79-1.46-3.25-3.25-3.25s-3.25 1.46-3.25 3.25v3.43c0 1.48 1.2 2.68 2.68 2.68 0.41 0 0.75 0.34 0.75 0.75s-0.34 0.75-0.75 0.75z"/>
</svg>
