<svg width="24" height="24" viewBox="0 0 24 24"  xmlns="http://www.w3.org/2000/svg">
<path opacity="0.4" d="M16.19 2H7.81C4.17 2 2 4.17 2 7.81V16.18C2 19.83 4.17 22 7.81 22H16.18C19.82 22 21.99 19.83 21.99 16.19V7.81C22 4.17 19.83 2 16.19 2Z" />
<path d="M12.2001 17.6598C11.5001 17.6598 10.7901 17.3898 10.2601 16.8598C9.19007 15.7898 9.19007 14.0398 10.2601 12.9698L11.6701 11.5598C11.9601 11.2698 12.4401 11.2698 12.7301 11.5598C13.0201 11.8498 13.0201 12.3298 12.7301 12.6198L11.3201 14.0298C10.8301 14.5198 10.8301 15.3098 11.3201 15.7998C11.8101 16.2898 12.6001 16.2898 13.0901 15.7998L15.3101 13.5798C15.9201 12.9698 16.2601 12.1498 16.2601 11.2798C16.2601 10.4098 15.9201 9.59978 15.3101 8.97978C14.0801 7.74978 11.9401 7.74978 10.7101 8.97978L8.29007 11.3998C7.25007 12.4398 7.25007 14.1398 8.29007 15.1898C8.58007 15.4798 8.58007 15.9598 8.29007 16.2498C8.00007 16.5398 7.52007 16.5398 7.23007 16.2498C5.60007 14.6198 5.60007 11.9698 7.23007 10.3398L9.65007 7.91979C10.5501 7.01979 11.7401 6.52979 13.0101 6.52979C14.2801 6.52979 15.4701 7.01979 16.3701 7.91979C17.2701 8.81978 17.7601 10.0098 17.7601 11.2798C17.7601 12.5498 17.2701 13.7398 16.3701 14.6398L14.1501 16.8598C13.6101 17.3898 12.9101 17.6598 12.2001 17.6598Z" />
</svg>
