<svg width="24" height="24" viewBox="0 0 24 24"  xmlns="http://www.w3.org/2000/svg">
<path opacity="0.4" d="M16.19 2H7.81C4.17 2 2 4.17 2 7.81V16.18C2 19.83 4.17 22 7.81 22H16.18C19.82 22 21.99 19.83 21.99 16.19V7.81C22 4.17 19.83 2 16.19 2Z" />
<path d="M11.43 18.1799C9.13 18.1799 7.25 16.2999 7.25 13.9999V10.5699C7.25 7.94995 9.38 5.81995 12 5.81995C14.62 5.81995 16.75 7.94995 16.75 10.5699V13.7099C16.75 15.2299 15.52 16.4599 14 16.4599C12.48 16.4599 11.25 15.2299 11.25 13.7099V11.7099C11.25 11.2999 11.59 10.9599 12 10.9599C12.41 10.9599 12.75 11.2999 12.75 11.7099V13.7099C12.75 14.3999 13.31 14.9599 14 14.9599C14.69 14.9599 15.25 14.3999 15.25 13.7099V10.5699C15.25 8.77995 13.79 7.31995 12 7.31995C10.21 7.31995 8.75 8.77995 8.75 10.5699V13.9999C8.75 15.4799 9.95 16.6799 11.43 16.6799C11.84 16.6799 12.18 17.0199 12.18 17.4299C12.18 17.8399 11.84 18.1799 11.43 18.1799Z" />
</svg>
