<?xml version="1.0" encoding="UTF-8"?>
<svg width="24" height="24" viewBox="0 0 24 24" xmlns="http://www.w3.org/2000/svg">
 <path d="M16.19 2H7.81C4.17 2 2 4.17 2 7.81V16.18C2 19.83 4.17 22 7.81 22H16.18C19.82 22 21.99 19.83 21.99 16.19V7.81C22 4.17 19.83 2 16.19 2Z" opacity=".4"/>
 <path d="m12.2 17.66c-0.7 0-1.41-0.27-1.94-0.8-1.07-1.07-1.07-2.82 0-3.89l1.41-1.41c0.29-0.29 0.77-0.29 1.06 0s0.29 0.77 0 1.06l-1.41 1.41c-0.49 0.49-0.49 1.28 0 1.77s1.28 0.49 1.77 0l2.22-2.22c0.61-0.61 0.95-1.43 0.95-2.3s-0.34-1.68-0.95-2.3c-1.23-1.23-3.37-1.23-4.6 0l-2.42 2.42c-1.04 1.04-1.04 2.74 0 3.79 0.29 0.29 0.29 0.77 0 1.06s-0.77 0.29-1.06 0c-1.63-1.63-1.63-4.28 0-5.91l2.42-2.42c0.89998-0.9 2.09-1.39 3.36-1.39s2.46 0.49 3.36 1.39 1.39 2.09 1.39 3.36-0.49 2.46-1.39 3.36l-2.22 2.22c-0.54 0.53-1.24 0.8-1.95 0.8z"/>
</svg>
