<?xml version="1.0" encoding="UTF-8"?>
<svg width="24" height="24" viewBox="0 0 24 24" xmlns="http://www.w3.org/2000/svg">
 <path d="m15 22c-0.41 0-0.75-0.34-0.75-0.75v-18.5c0-0.41 0.34-0.75 0.75-0.75s0.75 0.34 0.75 0.75v18.5c0 0.41-0.34 0.75-0.75 0.75z"/>
 <path d="m6.5 20h6v-16h-6c-2.21 0-4 1.79-4 4v8c0 2.21 1.79 4 4 4z" opacity=".4"/>
 <path d="m18 20h-3v-16h3c2.21 0 4 1.79 4 4v8c0 2.21-1.79 4-4 4z" opacity=".4"/>
 <path d="m5.75 13c-0.13 0-0.26-0.03-0.38-0.08s-0.23-0.12-0.33-0.21c-0.09-0.1-0.16-0.21-0.22-0.33-0.05-0.12-0.07-0.25-0.07-0.38 0-0.26 0.11-0.52 0.29-0.71l0.15-0.12c0.06-0.04 0.12-0.07 0.18-0.09 0.06-0.03 0.12-0.05 0.18-0.06 0.34-0.07 0.68 0.04 0.91 0.27 0.18 0.19 0.29 0.45 0.29 0.71 0 0.13-0.03 0.26-0.08 0.38s-0.12 0.23-0.21 0.33c-0.1 0.09-0.21 0.16-0.33 0.21s-0.25 0.08-0.38 0.08z"/>
 <path d="m9.25 13c-0.13 0-0.26-0.03-0.38-0.08s-0.23-0.12-0.33-0.21c-0.19-0.19-0.29-0.44-0.29-0.71 0-0.13 0.03-0.26 0.08-0.38 0.05-0.13 0.12-0.23 0.21-0.33 0.37-0.37 1.04-0.37 1.42 0 0.18 0.19 0.29 0.45 0.29 0.71 0 0.13-0.03 0.26-0.08 0.38s-0.12 0.23-0.21 0.33c-0.1 0.09-0.21 0.16-0.33 0.21s-0.25 0.08-0.38 0.08z"/>
</svg>
