<?xml version="1.0" encoding="UTF-8"?>
<svg width="24" height="24" viewBox="0 0 24 24" xmlns="http://www.w3.org/2000/svg">
 <path d="m20.02 10.7-2.8 1.77-5.66-5.66 1.76-2.8c0.82-1.29 2.46-1.35 3.67-0.15l3.18 3.18c1.13 1.13 1.06 2.89-0.15 3.66z"/>
 <path d="m14.71 19.95-8.71 1.03c-0.6 0.07-1.14-0.02-1.59-0.24-0.49-0.24-0.87-0.62-1.11-1.11-0.22-0.45-0.3-0.99-0.24-1.58l1.04-8.72c0.25-2.18 1.06-2.89 3.36-2.76l4.12 0.25 5.66 5.66 0.24 4.12c0.21 2.3-0.58 3.1-2.77 3.35z" opacity=".4"/>
 <path d="m7.98 17.15-3.58 3.58c-0.49-0.24-0.87-0.62-1.11-1.11l3.59-3.59c0.31-0.3 0.81-0.3 1.11 0 0.31 0.32 0.31 0.81-0.01 1.12z"/>
</svg>
