<svg width="24" height="24" viewBox="0 0 24 24"  xmlns="http://www.w3.org/2000/svg">
<path d="M16.9799 13.2001C16.7899 13.2001 16.5899 13.1201 16.4499 12.9801L11.0499 7.57006C10.7999 7.32006 10.7599 6.94006 10.9499 6.64006L12.6399 3.97006C13.1099 3.23006 13.8199 2.77006 14.6499 2.68006C15.5799 2.59006 16.5399 2.95006 17.2899 3.70006L20.3199 6.73006C21.0399 7.45006 21.3999 8.42006 21.2899 9.38006C21.1999 10.2201 20.7499 10.9501 20.0499 11.3901L17.3799 13.0801C17.2599 13.1601 17.1199 13.2001 16.9799 13.2001ZM12.5299 6.94006L17.0899 11.5001L19.2599 10.1301C19.5699 9.93006 19.7699 9.61006 19.8099 9.22006C19.8699 8.72006 19.6599 8.19006 19.2699 7.80006L16.2399 4.77006C15.8099 4.34006 15.2899 4.11006 14.8199 4.18006C14.4399 4.22006 14.1299 4.43006 13.9099 4.78006L12.5299 6.94006Z" />
<path d="M5.88989 21.3401C4.99989 21.3401 4.19989 21.0201 3.59989 20.4301C2.89989 19.7301 2.58989 18.7601 2.71989 17.6801L3.69989 9.35006C3.99989 6.83006 5.10989 5.91006 7.69989 6.06006L11.6199 6.29006C12.0299 6.32006 12.3499 6.67006 12.3199 7.08006C12.2899 7.49006 11.9399 7.81006 11.5299 7.78006L7.60989 7.56006C5.82989 7.45006 5.38989 7.80006 5.18989 9.53006L4.20989 17.8501C4.13989 18.4601 4.29989 19.0001 4.65989 19.3601C5.02989 19.7201 5.56989 19.8901 6.17989 19.8101L14.4999 18.8301C16.2499 18.6201 16.6399 18.1601 16.4699 16.4401L16.2299 12.4901C16.2099 12.0801 16.5199 11.7201 16.9299 11.7001C17.3399 11.6701 17.6999 11.9901 17.7199 12.4001L17.9499 16.3201C18.1899 18.8101 17.2099 20.0101 14.6599 20.3201L6.33989 21.3001C6.19989 21.3301 6.03989 21.3401 5.88989 21.3401Z" />
<path d="M4.60989 20.1701C4.41989 20.1701 4.22989 20.1001 4.07989 19.9501C3.78989 19.6601 3.78989 19.1801 4.07989 18.8901L7.11989 15.8501C7.40989 15.5601 7.88989 15.5601 8.17989 15.8501C8.46989 16.1401 8.46989 16.6201 8.17989 16.9101L5.13989 19.9501C4.98989 20.1001 4.79989 20.1701 4.60989 20.1701Z" />
</svg>
