<?xml version="1.0" encoding="UTF-8"?>
<svg width="24" height="24" viewBox="0 0 24 24" xmlns="http://www.w3.org/2000/svg">
 <path d="m14.15 22h-4.28c-1.53 0-2.67-1.24-2.38-2.57l0.7-3.08h7.64l0.7 3.08c0.32 1.41-0.75 2.57-2.38 2.57z"/>
 <path d="m18.77 13.74-2.94 2.61h-7.64l-2.94-2.61c-1.71-1.4-1.71-2.48-0.41-4.13l5.19-6.57c0.36-0.45 0.78-0.76 1.23-0.92 0.49-0.17 1.01-0.17 1.5 0 0.45 0.16 0.87 0.47 1.23 0.92l5.19 6.57c1.3 1.65 1.24 2.67-0.41 4.13z" opacity=".4"/>
 <path d="m12.76 2.1202v4.85c0 0.41-0.34 0.75-0.75 0.75s-0.75-0.34-0.75-0.75v-4.85c0.49-0.17 1.01-0.17 1.5 0z"/>
</svg>
