<?xml version="1.0" encoding="UTF-8"?>
<svg width="24" height="24" viewBox="0 0 24 24" xmlns="http://www.w3.org/2000/svg">
 <path d="M16.19 2H7.81C4.17 2 2 4.17 2 7.81V16.18C2 19.83 4.17 22 7.81 22H16.18C19.82 22 21.99 19.83 21.99 16.19V7.81C22 4.17 19.83 2 16.19 2Z" opacity=".4"/>
 <path d="m16.66 11.25-1.62 1.02-3.3-3.29 1.03-1.63c0.47-0.74 1.43-0.78 2.13-0.08l1.85 1.85c0.66 0.65 0.62 1.68-0.09 2.13z"/>
 <path d="m13.58 16.62-5.07 0.6c-0.22 0.03-0.42 0.02-0.61-0.04-0.55-0.12-0.94-0.51-1.06-1.06-0.06-0.19-0.07-0.39-0.04-0.61l0.59-5.07c0.16-1.27 0.62-1.68 1.96-1.6l2.39 0.14 3.3 3.29 0.14 2.4c0.13 1.34-0.33 1.8-1.6 1.95z" opacity=".6"/>
 <path d="m9.8798 15.2-1.98 1.98c-0.55-0.12-0.94-0.51-1.06-1.06l1.97-1.98c0.3-0.29 0.77-0.29 1.07 0 0.28996 0.29 0.28996 0.77 0 1.06z"/>
</svg>
