<svg width="24" height="24" viewBox="0 0 24 24"  xmlns="http://www.w3.org/2000/svg">
<path d="M14.1501 22.0001H9.87008C8.34008 22.0001 7.20008 20.7601 7.49008 19.4301L8.19008 16.3501H15.8301L16.5301 19.4301C16.8501 20.8401 15.7801 22.0001 14.1501 22.0001Z" />
<path opacity="0.4" d="M18.7699 13.7402L15.8299 16.3502H8.18989L5.24989 13.7402C3.53989 12.3402 3.53989 11.2602 4.83989 9.61018L10.0299 3.04018C10.3899 2.59018 10.8099 2.28018 11.2599 2.12018C11.7499 1.95018 12.2699 1.95018 12.7599 2.12018C13.2099 2.28018 13.6299 2.59018 13.9899 3.04018L19.1799 9.61018C20.4799 11.2602 20.4199 12.2802 18.7699 13.7402Z" />
<path d="M12.76 2.12018V6.97018C12.76 7.38018 12.42 7.72018 12.01 7.72018C11.6 7.72018 11.26 7.38018 11.26 6.97018V2.12018C11.75 1.95018 12.27 1.95018 12.76 2.12018Z" />
</svg>
