<?xml version="1.0" encoding="UTF-8"?>
<svg width="24" height="24" viewBox="0 0 24 24" xmlns="http://www.w3.org/2000/svg">
 <path d="m11.97 22c5.5229 0 10-4.4772 10-10 0-5.5228-4.4771-10-10-10-5.5228 0-10 4.4772-10 10 0 5.5228 4.4772 10 10 10z" opacity=".4"/>
 <path d="m10.72 15.03v-6.06c0-0.48-0.2-0.67-0.71-0.67h-1.3c-0.51 0-0.71 0.19-0.71 0.67v6.06c0 0.48 0.2 0.67 0.71 0.67h1.29c0.52 0 0.72-0.19 0.72-0.67z"/>
 <path d="m16 15.03v-6.06c0-0.48-0.2-0.67-0.71-0.67h-1.29c-0.51 0-0.71 0.19-0.71 0.67v6.06c0 0.48 0.2 0.67 0.71 0.67h1.29c0.51 0 0.71-0.19 0.71-0.67z"/>
</svg>
