<svg width="24" height="24" viewBox="0 0 24 24"  xmlns="http://www.w3.org/2000/svg">
<path d="M11.9702 22.75C6.05021 22.75 1.22021 17.93 1.22021 12C1.22021 6.07 6.05021 1.25 11.9702 1.25C17.8902 1.25 22.7202 6.07 22.7202 12C22.7202 17.93 17.9002 22.75 11.9702 22.75ZM11.9702 2.75C6.87021 2.75 2.72021 6.9 2.72021 12C2.72021 17.1 6.87021 21.25 11.9702 21.25C17.0702 21.25 21.2202 17.1 21.2202 12C21.2202 6.9 17.0702 2.75 11.9702 2.75Z" />
<path d="M10.0102 15.95H8.71021C7.79021 15.95 7.25021 15.42 7.25021 14.53V9.47C7.25021 8.58 7.80021 8.05 8.71021 8.05H10.0002C10.9202 8.05 11.4602 8.58 11.4602 9.47V14.53C11.4702 15.42 10.9202 15.95 10.0102 15.95ZM8.75021 14.45H9.97021V9.55H8.76021L8.75021 14.45Z" />
<path d="M15.2902 15.95H14.0002C13.0802 15.95 12.5402 15.42 12.5402 14.53V9.47C12.5402 8.58 13.0902 8.05 14.0002 8.05H15.2902C16.2102 8.05 16.7502 8.58 16.7502 9.47V14.53C16.7502 15.42 16.2002 15.95 15.2902 15.95ZM14.0302 14.45H15.2502V9.55H14.0402L14.0302 14.45Z" />
</svg>
