<?xml version="1.0" encoding="UTF-8"?>
<svg width="24" height="24" viewBox="0 0 24 24" xmlns="http://www.w3.org/2000/svg">
 <path d="m19 7c0 0.18-0.01 0.35-0.03 0.52-0.12 1.45-0.76 2.76-1.73 3.72-1.08 1.09-2.58 1.76-4.24 1.76h-3.13c-0.5 0-0.91999 0.37-0.98999 0.86l-0.76001 5.28c-0.06 0.39-0.33999 0.71-0.70999 0.81-0.09 0.04-0.18 0.05-0.28 0.05h-1.95c-0.62 0-1.09-0.55-0.98999-1.16l2.39-14.33c0.24-1.45 1.49-2.51 2.96-2.51h4.46c2.76 0 5 2.24 5 5z"/>
 <path d="m21 11c0 1.38-0.56 2.63-1.46 3.54-0.91 0.9-2.16 1.46-3.54 1.46h-2.15c-0.49 0-0.91 0.35-0.99 0.84l-0.72 4.32c-0.08 0.49-0.5 0.84-0.99 0.84h-2.93c-0.63 0-1.1-0.58-0.98001-1.2l0.17002-0.85c0.37-0.1 0.64999-0.42 0.70999-0.81l0.76001-5.28c0.07-0.49 0.48999-0.86 0.98999-0.86h3.13c1.66 0 3.16-0.67 4.24-1.76 0.97-0.96 1.61-2.27 1.73-3.72 1.21 0.69 2.03 1.99 2.03 3.48z" opacity=".4"/>
</svg>
