<?xml version="1.0" encoding="UTF-8"?>
<svg width="24" height="24" viewBox="0 0 24 24" xmlns="http://www.w3.org/2000/svg">
 <path d="m21.71 11.35-3.01 1.9-6.08-6.08 1.89-3.01c0.88-1.39 2.65-1.45 3.94-0.15997l3.41 3.41c1.22 1.23 1.14 3.12-0.15 3.94z"/>
 <path d="m16 21.29-9.36 1.1c-0.65 0.08-1.23-0.02-1.72-0.26-0.52-0.26-0.93-0.66-1.19-1.19-0.24-0.49-0.33-1.06-0.26-1.7l1.04-8.71c0.17 0.09 0.36 0.17 0.55 0.23 0.45 0.16 0.93 0.24 1.44 0.24 1.14 0 2.17-0.42 2.96-1.12 0.35-0.3 0.65004-0.66 0.89004-1.06 0.21-0.35 0.37-0.71999 0.48-1.12 0.06-0.2 0.1-0.41001 0.13-0.63001l1.6599 0.09998 6.08 6.09 0.2601 4.42c0.25 2.48-0.61 3.34-2.96 3.61z" opacity=".4"/>
 <path d="m8.7797 18.28-3.85 3.85c-0.53-0.26-0.92998-0.66-1.19-1.19l3.85-3.85c0.34-0.33 0.87-0.33 1.19 0 0.33 0.33 0.33 0.86 0 1.19z"/>
 <path d="m6.5 2c-1.06 0-2.04 0.36999-2.81 0.98999-1.04 0.82-1.69 2.09-1.69 3.51 0 0.84 0.23999 1.64 0.64999 2.32 0.54 0.9 1.39 1.6 2.41 1.94 0.45 0.16 0.93 0.24 1.44 0.24 1.14 0 2.17-0.42 2.96-1.12 0.35-0.3 0.64999-0.65999 0.88999-1.06 0.21-0.35 0.37-0.72 0.48-1.12 0.11-0.38 0.17-0.79001 0.17-1.2 0-2.49-2.01-4.5-4.5-4.5zm1.66 5.25h-0.89v0.92999c0 0.41-0.34 0.75-0.75 0.75s-0.75-0.34-0.75-0.75v-0.92999h-0.97c-0.41 0-0.75-0.34-0.75-0.75s0.34-0.75 0.75-0.75h0.97v-0.92999c0-0.41 0.34-0.75 0.75-0.75s0.75 0.34 0.75 0.75v0.92999h0.89c0.41 0 0.75 0.34 0.75 0.75s-0.33 0.75-0.75 0.75z"/>
</svg>
