<?xml version="1.0" encoding="UTF-8"?>
<svg width="24" height="24" viewBox="0 0 24 24" xmlns="http://www.w3.org/2000/svg">
 <path d="m12.52 1.5h-1c-0.83 0-1.5 0.67-1.5 1.5v1c0 0.83 0.67 1.5 1.5 1.5h1c0.83 0 1.5-0.67 1.5-1.5v-1c0-0.83-0.67-1.5-1.5-1.5z"/>
 <path d="m4.27 10.67h-1c-0.83 0-1.5 0.67-1.5 1.5v1c0 0.83 0.67 1.5 1.5 1.5h1c0.83 0 1.5-0.67 1.5-1.5v-1c0-0.83-0.68-1.5-1.5-1.5z"/>
 <path d="m20.73 10.67h-1c-0.83 0-1.5 0.67-1.5 1.5v1c0 0.83 0.67 1.5 1.5 1.5h1c0.83 0 1.5-0.67 1.5-1.5v-1c0-0.83-0.67-1.5-1.5-1.5z"/>
 <path d="m3.75 11.92c-0.41 0-0.75-0.34-0.75-0.75 0-4.27 3.2-7.86 7.44-8.36 0.4-0.04 0.78 0.24997 0.83 0.65997s-0.25 0.78002-0.66 0.83002c-3.48 0.41-6.11 3.36-6.11 6.87 0 0.41-0.34 0.75-0.75 0.75z"/>
 <path d="m20.25 11.92c-0.41 0-0.75-0.34-0.75-0.75 0-3.49-2.61-6.44-6.07-6.86-0.41-0.05-0.7-0.42002-0.65-0.83002s0.43-0.69997 0.84-0.64997c4.21 0.51 7.39 4.1 7.39 8.35-0.01 0.4-0.34 0.74-0.76 0.74z"/>
 <path d="m13.29 22.01h-2.57c-0.91997 0-1.6-0.74-1.43-1.54l0.42001-1.85h4.59l0.42 1.85c0.19 0.85-0.45 1.54-1.43 1.54z"/>
 <path d="m16.07 17.05-1.77 1.57h-4.59l-1.77-1.57c-1.03-0.84-1.03-1.49-0.25-2.48l3.12-3.94c0.22-0.27 0.47-0.46 0.74-0.55 0.29-0.10002 0.61-0.10002 0.9 0 0.27 0.1 0.52 0.28 0.74 0.55l3.12 3.94c0.78 0.99 0.75 1.61-0.24 2.48z" opacity=".4"/>
</svg>
