<?xml version="1.0" encoding="UTF-8"?>
<svg width="24" height="24" viewBox="0 0 24 24" xmlns="http://www.w3.org/2000/svg">
 <path d="m11.15 5.1902-0.78-0.78003c-0.47002-0.47-0.47002-1.23 0-1.7l0.78-0.78003c0.47-0.47 1.23-0.47 1.7 0l0.78 0.78003c0.47 0.47 0.47 1.23 0 1.7l-0.78 0.78003c-0.47 0.47-1.23 0.47-1.7 0z"/>
 <path d="m12 5.9101c-0.4 0-0.81-0.14997-1.11-0.45997l-0.78-0.78003c-0.60996-0.61-0.60996-1.61 0-2.23l0.78-0.78002c0.59-0.6 1.63-0.59 2.23 0l0.78 0.78002c0.61 0.61 0.61 1.61 0 2.23l-0.78 0.78003c-0.31 0.31-0.72 0.45997-1.12 0.45997zm0-3.95c-0.21 0-0.42 0.07999-0.58 0.23999l-0.78 0.77997c-0.32 0.32-0.32 0.85005 0 1.17l0.78 0.77996c0.32 0.32 0.84 0.32 1.17 0l0.78-0.77996c0.32-0.32 0.32-0.84005 0-1.17l-0.78-0.77997c-0.17-0.16-0.38-0.23999-0.59-0.23999z"/>
 <path d="m19.45 9.8101h1.1c0.66 0 1.2 0.54004 1.2 1.2v1.0999c0 0.66-0.54 1.2001-1.2 1.2001h-1.1c-0.66 0-1.2-0.5401-1.2-1.2001v-1.0999c0-0.66 0.54-1.2 1.2-1.2z"/>
 <path d="m20.55 13.69h-1.1c-0.87 0-1.58-0.71-1.58-1.58v-1.1c0-0.87 0.71-1.58 1.58-1.58h1.1c0.87 0 1.58 0.71002 1.58 1.58v1.1c-0.01 0.87-0.71 1.58-1.58 1.58zm-1.1-3.5c-0.46 0-0.83 0.37-0.83 0.83v1.1c0 0.46 0.37 0.83 0.83 0.83h1.1c0.46 0 0.83-0.37 0.83-0.83v-1.1c0-0.46-0.37-0.83-0.83-0.83h-1.1z"/>
 <path d="m4.55 9.8101h-1.1c-0.66 0-1.2 0.54004-1.2 1.2v1.0999c0 0.66 0.54 1.2001 1.2 1.2001h1.1c0.66 0 1.2-0.5401 1.2-1.2001v-1.0999c0-0.66-0.54-1.2-1.2-1.2z"/>
 <path d="m4.5501 13.69h-1.1c-0.87 0-1.58-0.71-1.58-1.58v-1.1c0-0.87 0.70999-1.58 1.58-1.58h1.1c0.87 0 1.58 0.71002 1.58 1.58v1.1c-0.01 0.87-0.70999 1.58-1.58 1.58zm-1.1-3.5c-0.46 0-0.82999 0.37-0.82999 0.83v1.1c0 0.46 0.36999 0.83 0.82999 0.83h1.1c0.46 0 0.82999-0.37 0.82999-0.83v-1.1c0-0.46-0.36999-0.83-0.82999-0.83h-1.1z"/>
 <path d="m12.71 4.2695c0.2929-0.2929 0.7678-0.2929 1.0607-1e-5l5.3 5.3c0.2929 0.29289 0.2929 0.76774 0 1.0606s-0.7678 0.2929-1.0607 0l-5.3-5.3c-0.2929-0.2929-0.2929-0.76777 0-1.0607z" clip-rule="evenodd" fill-rule="evenodd"/>
 <path d="m11.29 4.2695c0.2929 0.29289 0.2929 0.76776 0 1.0607l-5.3 5.3c-0.29289 0.2929-0.76777 0.2929-1.0607 0s-0.29289-0.76775 0-1.0606l5.3-5.3c0.2929-0.29289 0.7678-0.29289 1.0607 1e-5z" clip-rule="evenodd" fill-rule="evenodd"/>
 <path d="m13.26 22.01h-2.56c-0.92 0-1.6-0.74-1.43-1.54l0.42-1.85h4.59l0.42 1.85c0.19 0.85-0.46 1.54-1.44 1.54z"/>
 <path d="m16.04 17.05-1.77 1.57h-4.59l-1.77-1.57c-1.03-0.84-1.03-1.49-0.25-2.48l3.12-3.94c0.22-0.27 0.47-0.46 0.74-0.55 0.29-0.10002 0.61-0.10002 0.9 0 0.27 0.1 0.52 0.28 0.74 0.55l3.12 3.94c0.79 0.99 0.75 1.61-0.24 2.48z" opacity=".4"/>
</svg>
