<?xml version="1.0" encoding="UTF-8"?>
<svg width="24" height="24" viewBox="0 0 24 24" xmlns="http://www.w3.org/2000/svg">
 <path d="m17.53 7.77c-0.07-0.01-0.14-0.01-0.21 0-1.55-0.05-2.78-1.32-2.78-2.88 0-1.59 1.29-2.89 2.89-2.89 1.59 0 2.89 1.29 2.89 2.89-0.01 1.56-1.24 2.83-2.79 2.88z" opacity=".4"/>
 <path d="m20.79 14.7c-1.12 0.75-2.69 1.03-4.14 0.84 0.38-0.82 0.58-1.73 0.59-2.69 0-1-0.22-1.95-0.64-2.78 1.48-0.19998 3.05 0.08 4.18 0.83 1.58 1.04 1.58 2.75 0.01 3.8z" opacity=".4"/>
 <path d="m6.4399 7.77c0.07-0.01 0.14-0.01 0.21 0 1.55-0.05 2.78-1.32 2.78-2.88 0-1.59-1.29-2.89-2.89-2.89-1.59 0-2.89 1.29-2.89 2.89 0.01 1.56 1.24 2.83 2.79 2.88z" opacity=".4"/>
 <path d="m6.5501 12.85c0 0.97 0.21 1.89 0.59 2.72-1.41 0.15-2.88-0.15-3.96-0.86-1.58-1.05-1.58-2.76 0-3.81 1.07-0.72 2.58-1.01 4-0.85-0.41 0.84-0.63 1.79-0.63 2.8z" opacity=".4"/>
 <path d="m12.12 15.87c-0.08-0.01-0.17-0.01-0.26 0-1.84-0.06-3.31-1.57-3.31-3.43 0-1.9 1.53-3.44 3.44-3.44 1.9 0 3.44 1.54 3.44 3.44 0 1.86-1.46 3.37-3.31 3.43z"/>
 <path d="m8.8698 17.94c-1.51 1.01-1.51 2.67 0 3.67 1.72 1.15 4.54 1.15 6.26 0 1.51-1.01 1.51-2.67 0-3.67-1.71-1.15-4.53-1.15-6.26 0z"/>
</svg>
