<?xml version="1.0" encoding="UTF-8"?>
<svg width="24" height="24" viewBox="0 0 24 24" xmlns="http://www.w3.org/2000/svg">
 <path d="m16.19 2h-8.37c-3.64 0-5.81 2.17-5.81 5.81v8.37c0 3.64 2.17 5.81 5.81 5.81h8.37c3.64 0 5.81-2.17 5.81-5.81v-8.37c0-3.64-2.17-5.81-5.81-5.81z" opacity=".4"/>
 <path d="m8.8198 16.02c-0.19 0-0.37999-0.07-0.52999-0.22-0.29-0.29-0.29-0.77 0-1.06l6.55-6.55c0.29-0.29 0.77-0.29 1.06 0s0.29 0.77 0 1.06l-6.55 6.55c-0.15 0.15-0.34 0.22-0.53 0.22z"/>
 <path d="m9.23 7.66c-0.81 0-1.48 0.66002-1.48 1.48 0 0.81 0.66001 1.48 1.48 1.48 0.80999 0 1.48-0.65995 1.48-1.48-0.01-0.82-0.67-1.48-1.48-1.48z"/>
 <path d="m15.77 13.39c-0.81 0-1.48 0.66-1.48 1.48 0 0.81 0.66 1.48 1.48 1.48 0.81 0 1.48-0.66 1.48-1.48s-0.66-1.48-1.48-1.48z"/>
</svg>
