<svg width="24" height="24" viewBox="0 0 24 24"  xmlns="http://www.w3.org/2000/svg">
<path opacity="0.4" d="M16.1898 2H7.81976C4.17976 2 2.00977 4.17 2.00977 7.81V16.18C2.00977 19.82 4.17976 21.99 7.81976 21.99H16.1898C19.8298 21.99 21.9998 19.82 21.9998 16.18V7.81C21.9998 4.17 19.8298 2 16.1898 2Z" />
<path d="M8.81976 16.02C8.62976 16.02 8.43977 15.95 8.28977 15.8C7.99977 15.51 7.99977 15.03 8.28977 14.74L14.8398 8.19003C15.1298 7.90003 15.6098 7.90003 15.8998 8.19003C16.1898 8.48003 16.1898 8.96003 15.8998 9.25003L9.34976 15.8C9.19976 15.95 9.00976 16.02 8.81976 16.02Z" />
<path d="M9.23001 7.66003C8.42001 7.66003 7.75 8.32005 7.75 9.14005C7.75 9.95005 8.41001 10.62 9.23001 10.62C10.04 10.62 10.71 9.96005 10.71 9.14005C10.7 8.32005 10.04 7.66003 9.23001 7.66003Z" />
<path d="M15.77 13.39C14.96 13.39 14.29 14.05 14.29 14.87C14.29 15.68 14.95 16.35 15.77 16.35C16.58 16.35 17.25 15.69 17.25 14.87C17.25 14.05 16.59 13.39 15.77 13.39Z" />
</svg>
