<?xml version="1.0" encoding="UTF-8"?>
<svg width="24" height="24" viewBox="0 0 24 24" xmlns="http://www.w3.org/2000/svg">
 <path d="M18 3H6C3.79 3 2 4.78 2 6.97V17.03C2 19.22 3.79 21 6 21H18C20.21 21 22 19.22 22 17.03V6.97C22 4.78 20.21 3 18 3Z" opacity=".4"/>
 <path d="m19 8.75h-5c-0.41 0-0.75-0.34-0.75-0.75s0.34-0.75 0.75-0.75h5c0.41 0 0.75 0.34 0.75 0.75s-0.34 0.75-0.75 0.75z"/>
 <path d="m19 12.75h-4c-0.41 0-0.75-0.34-0.75-0.75s0.34-0.75 0.75-0.75h4c0.41 0 0.75 0.34 0.75 0.75s-0.34 0.75-0.75 0.75z"/>
 <path d="m19 16.75h-2c-0.41 0-0.75-0.34-0.75-0.75s0.34-0.75 0.75-0.75h2c0.41 0 0.75 0.34 0.75 0.75s-0.34 0.75-0.75 0.75z"/>
 <path d="m8.4999 11.79c1.2758 0 2.31-1.0342 2.31-2.31s-1.0342-2.31-2.31-2.31-2.31 1.0342-2.31 2.31 1.0342 2.31 2.31 2.31z"/>
 <path d="m9.3 13.11c-0.53-0.05-1.08-0.05-1.61 0-1.68 0.16-3.03 1.49-3.19 3.17-0.01 0.14 0.03 0.28 0.13 0.38s0.23 0.17 0.37 0.17h7c0.14 0 0.28-0.06 0.37-0.16s0.14-0.24 0.13-0.38c-0.17-1.69-1.51-3.02-3.2-3.18z"/>
</svg>
