<svg width="24" height="24" viewBox="0 0 24 24"  xmlns="http://www.w3.org/2000/svg">
<path d="M14.0402 22.75H9.25021C7.63021 22.75 6.16021 22.12 5.10021 20.96C4.04022 19.81 3.53021 18.29 3.67021 16.68C4.01021 12.58 7.63022 9.25 11.7502 9.25C15.5402 9.25 19.1202 12.29 19.7502 16.02C20.0502 17.8 19.6102 19.48 18.5302 20.76C17.4302 22.04 15.8402 22.75 14.0402 22.75ZM11.7402 10.75C8.39022 10.75 5.44021 13.47 5.16021 16.81C5.06021 18 5.43021 19.11 6.20021 19.95C6.97021 20.79 8.05021 21.25 9.24021 21.25H14.0302C15.3802 21.25 16.5702 20.73 17.3602 19.8C18.1502 18.87 18.4702 17.61 18.2502 16.27C17.7502 13.23 14.8302 10.75 11.7402 10.75Z" />
<path d="M10.4702 8.25C8.68021 8.25 7.22021 6.79 7.22021 5C7.22021 3.21 8.68021 1.75 10.4702 1.75C12.2602 1.75 13.7202 3.21 13.7202 5C13.7202 6.79 12.2702 8.25 10.4702 8.25ZM10.4702 3.25C9.51021 3.25 8.72022 4.04 8.72022 5C8.72022 5.96 9.51021 6.75 10.4702 6.75C11.4302 6.75 12.2202 5.96 12.2202 5C12.2202 4.04 11.4402 3.25 10.4702 3.25Z" />
<path d="M17.3002 9.45C15.7802 9.45 14.5502 8.22 14.5502 6.7C14.5502 5.18 15.7802 3.95 17.3002 3.95C18.8202 3.95 20.0502 5.18 20.0502 6.7C20.0502 8.22 18.8202 9.45 17.3002 9.45ZM17.3002 5.45C16.6102 5.45 16.0502 6.01 16.0502 6.7C16.0502 7.39 16.6102 7.95 17.3002 7.95C17.9902 7.95 18.5502 7.39 18.5502 6.7C18.5502 6.01 17.9902 5.45 17.3002 5.45Z" />
<path d="M21.0002 13.45C19.7602 13.45 18.7502 12.44 18.7502 11.2C18.7502 9.96 19.7602 8.95 21.0002 8.95C22.2402 8.95 23.2502 9.96 23.2502 11.2C23.2502 12.44 22.2402 13.45 21.0002 13.45ZM21.0002 10.45C20.5902 10.45 20.2502 10.79 20.2502 11.2C20.2502 11.61 20.5902 11.95 21.0002 11.95C21.4102 11.95 21.7502 11.61 21.7502 11.2C21.7502 10.79 21.4102 10.45 21.0002 10.45Z" />
<path d="M3.97021 11.45C2.45021 11.45 1.22021 10.22 1.22021 8.7C1.22021 7.18 2.45021 5.95 3.97021 5.95C5.49021 5.95 6.72021 7.18 6.72021 8.7C6.72021 10.22 5.49021 11.45 3.97021 11.45ZM3.97021 7.45C3.28021 7.45 2.72021 8.01 2.72021 8.7C2.72021 9.39 3.28021 9.95 3.97021 9.95C4.66021 9.95 5.22021 9.39 5.22021 8.7C5.22021 8.01 4.66021 7.45 3.97021 7.45Z" />
</svg>
