<?xml version="1.0" encoding="UTF-8"?>
<svg width="24" height="24" viewBox="0 0 24 24" xmlns="http://www.w3.org/2000/svg">
 <path d="m19.08 15.72c-0.59-3.53-3.98-6.4-7.56-6.4-3.89 0-7.31 3.15-7.64 7.03-0.13 1.5 0.35 2.92 1.34 3.99 0.98 1.07 2.36 1.66 3.86 1.66h4.68c1.69 0 3.17-0.66 4.18-1.85s1.41-2.77 1.14-4.43z" opacity=".4"/>
 <path d="m10.28 7.86c1.6182 0 2.93-1.3118 2.93-2.93s-1.3118-2.93-2.93-2.93-2.93 1.3118-2.93 2.93 1.3118 2.93 2.93 2.93z"/>
 <path d="m16.94 9.0304c1.3476 0 2.44-1.0924 2.44-2.44 0-1.3476-1.0924-2.44-2.44-2.44s-2.44 1.0924-2.44 2.44c0 1.3476 1.0924 2.44 2.44 2.44z"/>
 <path d="m20.55 12.93c1.077 0 1.95-0.8731 1.95-1.95 0-1.077-0.873-1.95-1.95-1.95s-1.95 0.87305-1.95 1.95c0 1.0769 0.873 1.95 1.95 1.95z"/>
 <path d="m3.94 10.98c1.3476 0 2.44-1.0924 2.44-2.44 0-1.3476-1.0924-2.44-2.44-2.44s-2.44 1.0924-2.44 2.44c0 1.3476 1.0924 2.44 2.44 2.44z"/>
</svg>
