<?xml version="1.0" encoding="UTF-8"?>
<svg width="24" height="24" viewBox="0 0 24 24" xmlns="http://www.w3.org/2000/svg">
 <path d="m21 22.75h-18c-0.41 0-0.75-0.34-0.75-0.75s0.34-0.75 0.75-0.75h18c0.41 0 0.75 0.34 0.75 0.75s-0.34 0.75-0.75 0.75z" opacity=".4"/>
 <path d="m21 2.75h-18c-0.41 0-0.75-0.34-0.75-0.75s0.34-0.75 0.75-0.75h18c0.41 0 0.75 0.34 0.75 0.75s-0.34 0.75-0.75 0.75z" opacity=".4"/>
 <path d="m14.3 15.36-1.55 1.55v-10.21l1.55 1.55c0.15 0.15 0.34 0.22 0.53 0.22s0.38-0.07 0.53-0.22c0.29-0.29 0.29-0.77 0-1.06l-2.83-2.83c-0.28-0.28-0.78-0.28-1.06 0l-2.83 2.83c-0.29 0.29-0.29 0.77 0 1.06s0.77 0.29 1.06 0l1.55-1.55v10.21l-1.55-1.55c-0.29-0.29-0.77-0.29-1.06 0s-0.29 0.77 0 1.06l2.83 2.83c0.14 0.14 0.33 0.22 0.53 0.22s0.39-0.08 0.53-0.22l2.83-2.83c0.29-0.29 0.29-0.77 0-1.06s-0.77-0.29-1.06 0z"/>
</svg>
