<svg width="24" height="24" viewBox="0 0 24 24"  xmlns="http://www.w3.org/2000/svg">
<path d="M15 22.7502H9C3.57 22.7502 1.25 20.4302 1.25 15.0002V9.00018C1.25 3.57018 3.57 1.25018 9 1.25018H15C20.43 1.25018 22.75 3.57018 22.75 9.00018V15.0002C22.75 20.4302 20.43 22.7502 15 22.7502ZM9 2.75018C4.39 2.75018 2.75 4.39018 2.75 9.00018V15.0002C2.75 19.6102 4.39 21.2502 9 21.2502H15C19.61 21.2502 21.25 19.6102 21.25 15.0002V9.00018C21.25 4.39018 19.61 2.75018 15 2.75018H9Z" />
<path d="M13.9501 22.7502C13.6101 22.7502 13.31 22.5202 13.22 22.1802L8.2701 2.18018C8.1701 1.78018 8.42009 1.37019 8.82009 1.27019C9.22009 1.17019 9.63006 1.41019 9.73006 1.82019L14.6801 21.8202C14.7801 22.2202 14.5301 22.6302 14.1301 22.7302C14.0701 22.7402 14.0101 22.7502 13.9501 22.7502Z" />
<path d="M1.99985 15.7502C1.66985 15.7502 1.37988 15.5402 1.27988 15.2102C1.15988 14.8102 1.38983 14.4002 1.78983 14.2802L11.3199 11.5002C11.7199 11.3802 12.1299 11.6101 12.2499 12.0101C12.3699 12.4101 12.1398 12.8202 11.7398 12.9402L2.20987 15.7202C2.13987 15.7402 2.06985 15.7502 1.99985 15.7502Z" />
</svg>
