<?xml version="1.0" encoding="UTF-8"?>
<svg width="24" height="24" viewBox="0 0 24 24" xmlns="http://www.w3.org/2000/svg">
 <path d="m21.28 15.72c-0.65-0.45-1.44-0.72-2.28-0.72-0.94 0-1.81 0.33-2.5 0.88-0.92 0.73-1.5 1.86-1.5 3.12 0 0.75 0.21 1.46 0.58 2.06 0.04 0.07 0.09 0.14 0.15 0.21 0.7 1.04 1.9 1.73 3.27 1.73 1.01 0 1.93-0.37 2.63-1 0.31-0.26 0.58-0.58 0.79-0.94 0.37-0.6 0.58-1.31 0.58-2.06 0-1.36-0.68-2.56-1.72-3.28zm-0.68 4.86c-0.15 0.15-0.34 0.22-0.53 0.22s-0.38-0.07-0.53-0.22l-0.53-0.53-0.55 0.55c-0.15 0.15-0.34 0.22-0.53 0.22s-0.38-0.07-0.53-0.22c-0.29-0.29-0.29-0.77 0-1.06l0.55-0.55-0.53-0.53c-0.29-0.29-0.29-0.77 0-1.06s0.77-0.29 1.06 0l0.53 0.53 0.5-0.5c0.29-0.29 0.77-0.29 1.06 0s0.29 0.77 0 1.06l-0.5 0.5 0.53 0.53c0.29 0.29 0.29 0.76 0 1.06z"/>
 <path d="m22 12c0 1.31-0.25 2.57-0.72 3.72-0.65-0.45-1.44-0.72-2.28-0.72-0.94 0-1.81 0.33-2.5 0.88-0.92 0.73-1.5 1.86-1.5 3.12 0 0.75 0.21 1.46 0.58 2.06 0.04 0.07 0.09 0.14 0.15 0.21-1.15 0.47-2.41 0.73-3.73 0.73-5.52 0-10-4.48-10-10s4.48-10 10-10 10 4.48 10 10z" opacity=".4"/>
 <path d="m9.3799 12v-1.39c0-1.72 1.22-2.43 2.71-1.57l1.2 0.69 1.2 0.69003c1.49 0.86 1.49 2.27 0 3.13l-2.4 1.38c-1.49 0.86-2.71 0.16-2.71-1.57v-1.36z"/>
</svg>
