<?xml version="1.0" encoding="UTF-8"?>
<svg width="24" height="24" viewBox="0 0 24 24" xmlns="http://www.w3.org/2000/svg">
 <path d="m19.07 19.82c-0.19 0-0.38-0.07-0.53-0.22-0.29-0.29-0.29-0.77 0-1.06 3.61-3.61 3.61-9.48 0-13.08-0.29-0.29-0.29-0.76999 0-1.06s0.77-0.29 1.06 0c4.19 4.19 4.19 11.01 0 15.2-0.15 0.15-0.34 0.22-0.53 0.22z" opacity=".4"/>
 <path d="m4.9298 19.82c-0.19 0-0.38-0.07-0.53-0.22-4.19-4.19-4.19-11.01 0-15.2 0.29-0.29 0.77-0.29 1.06 0s0.29 0.76999 0 1.06c-3.61 3.61-3.61 9.48 0 13.08 0.29 0.29 0.29 0.77 0 1.06-0.15 0.15-0.34 0.22-0.53 0.22z" opacity=".4"/>
 <path d="m12 22.71c-1.25-0.01-2.44-0.2101-3.55-0.6001-0.39-0.14-0.60002-0.5699-0.46002-0.9599s0.56002-0.6 0.96002-0.46c0.96 0.33 1.98 0.51 3.06 0.51 1.07 0 2.1-0.18 3.05-0.51 0.39-0.13 0.82 0.07 0.96 0.46s-0.07 0.8199-0.46 0.9599c-1.12 0.39-2.31 0.6001-3.56 0.6001z" opacity=".4"/>
 <path d="m15.3 3.3401c-0.08 0-0.17-0.01004-0.25-0.04004-0.96-0.33-1.99-0.51001-3.06-0.51001s-2.09 0.18001-3.05 0.51001c-0.39 0.13-0.82-0.06996-0.96-0.45996s0.07-0.82002 0.46-0.96002c1.11-0.39 2.31-0.59003 3.55-0.59003s2.44 0.20003 3.55 0.59003c0.39 0.14 0.6 0.57002 0.46 0.96002-0.1 0.31-0.39 0.5-0.7 0.5z" opacity=".4"/>
 <path d="m8.7402 12v-1.6699c0-2.08 1.4701-2.9301 3.2701-1.8901l1.4499 0.84003 1.45 0.83993c1.8 1.04 1.8 2.7401 0 3.7801l-1.45 0.8399-1.4499 0.8401c-1.8 1.04-3.2701 0.1899-3.2701-1.8901v-1.69z"/>
</svg>
