<?xml version="1.0" encoding="UTF-8"?>
<svg width="24" height="24" viewBox="0 0 24 24" xmlns="http://www.w3.org/2000/svg">
 <path d="m11.97 22c5.5229 0 10-4.4772 10-10 0-5.5228-4.4771-10-10-10-5.5228 0-10 4.4772-10 10 0 5.5228 4.4772 10 10 10z" opacity=".4"/>
 <path d="m14.97 10.23-2.9-1.67c-0.72-0.42-1.59-0.42-2.31 0-0.72 0.42-1.15 1.16-1.15 2v3.35c0 0.83 0.43 1.58 1.15 2 0.36004 0.21 0.76004 0.31 1.15 0.31 0.4 0 0.79-0.1 1.15-0.31l2.9-1.67c0.72-0.42 1.15-1.16 1.15-2 0.02-0.84-0.41-1.59-1.14-2.01z"/>
</svg>
