<svg width="24" height="24" viewBox="0 0 24 24"  xmlns="http://www.w3.org/2000/svg">
<path d="M7.99976 21.75C7.97976 21.75 7.95976 21.75 7.94976 21.75C7.55976 21.72 7.24976 21.4 7.24976 21C7.24976 20.43 7.31976 19.9 7.46976 19.41L9.25977 6.89C9.31977 6.48 9.69976 6.2 10.1098 6.25C10.5198 6.31 10.8098 6.69 10.7498 7.1L9.32977 17.01C10.5698 16.26 11.9198 16.25 11.9998 16.25C15.7198 16.25 18.7498 13.22 18.7498 9.5C18.7498 5.78 15.7198 2.75 11.9998 2.75C8.27976 2.75 5.24976 5.78 5.24976 9.5C5.24976 10.6 5.51976 11.69 6.02976 12.65C6.21976 13.02 6.07976 13.47 5.71976 13.66C5.34976 13.85 4.89976 13.71 4.70976 13.35C4.08976 12.17 3.75977 10.84 3.75977 9.5C3.75977 4.95 7.45977 1.25 12.0098 1.25C16.5598 1.25 20.2598 4.95 20.2598 9.5C20.2598 14.05 16.5598 17.75 12.0098 17.75C11.9198 17.75 9.79976 17.79 9.03976 19.5C9.00976 19.58 8.96976 19.66 8.94976 19.74L8.75977 21.1C8.68977 21.48 8.36976 21.75 7.99976 21.75Z" />
<path d="M13.9998 22C13.7398 22 13.4798 21.89 13.2898 21.71C13.1098 21.52 12.9998 21.26 12.9998 21C12.9998 20.87 13.0298 20.74 13.0798 20.62C13.1298 20.49 13.1998 20.39 13.2898 20.29C13.5698 20.01 14.0098 19.92 14.3798 20.08C14.5098 20.13 14.6098 20.2 14.7098 20.29C14.7998 20.39 14.8698 20.49 14.9198 20.62C14.9698 20.74 14.9998 20.87 14.9998 21C14.9998 21.26 14.8898 21.52 14.7098 21.71C14.6098 21.8 14.5098 21.87 14.3798 21.92C14.2598 21.97 14.1298 22 13.9998 22Z" />
</svg>
