<?xml version="1.0" encoding="UTF-8"?>
<svg width="24" height="24" viewBox="0 0 24 24" xmlns="http://www.w3.org/2000/svg">
 <path d="m21.38 11.45-4.5-2.6c-0.23-0.13-0.52-0.13-0.75 0l-4.5 2.6s0 0.01-0.01 0.01l-4.12 2.38-3.75-2.17v-4.34l3.75-2.17 3.75 2.17v1.14c0 0.41 0.34 0.75 0.75 0.75s0.75-0.34 0.75-0.75v-1.57c0-0.27-0.14-0.52-0.38-0.65l-4.5-2.6c-0.23-0.13-0.52-0.13-0.75 0l-4.5 2.6c-0.23 0.13-0.37999 0.38-0.37999 0.65v5.2c0 0.27 0.13999 0.52 0.37999 0.65l4.5 2.6c0.12 0.07 0.25001 0.1 0.38001 0.1s0.26-0.03 0.38-0.1l4.5-2.6s0-0.01 0.01-0.01l4.12-2.38 3.75 2.17v4.33l-3.75 2.17-3.75-2.17v-1.22c0-0.41-0.34-0.75-0.75-0.75s-0.75 0.34-0.75 0.75v1.65c0 0.27 0.14 0.52 0.38 0.65l4.5 2.6c0.12 0.07 0.25 0.1 0.38 0.1s0.26-0.03 0.38-0.1l4.5-2.6c0.23-0.13 0.38-0.38 0.38-0.65v-5.2c-0.03-0.26-0.17-0.51-0.4-0.64z"/>
 <path d="m4.5 8.3503v2.31c0 0.36 0.19 0.69 0.5 0.87l2 1.15c0.31 0.18 0.69 0.18 1 0l2-1.15c0.31-0.18 0.5-0.51 0.5-0.87v-2.31c0-0.36-0.19-0.69-0.5-0.87l-2-1.15c-0.31-0.18-0.69-0.18-1 0l-2 1.15c-0.31 0.18-0.5 0.51-0.5 0.87z" opacity=".4"/>
 <path d="m13.5 13.55v2.31c0 0.36 0.19 0.69 0.5 0.87l2 1.15c0.31 0.18 0.69 0.18 1 0l2-1.15c0.31-0.18 0.5-0.51 0.5-0.87v-2.31c0-0.36-0.19-0.69-0.5-0.87l-2-1.15c-0.31-0.18-0.69-0.18-1 0l-2 1.15c-0.31 0.18-0.5 0.51-0.5 0.87z" opacity=".4"/>
</svg>
