<?xml version="1.0" encoding="UTF-8"?>
<svg width="24" height="24" viewBox="0 0 24 24" xmlns="http://www.w3.org/2000/svg">
 <path d="m6 7c-2 0-3 1-3 3v5c0 2 1 3 3 3l2-2v-1h1l8-8h-11zm1 4.75c-0.41 0-0.75-0.34-0.75-0.75s0.34-0.75 0.75-0.75h2c0.41 0 0.75 0.34 0.75 0.75s-0.34 0.75-0.75 0.75h-2z" opacity=".4"/>
 <path d="m9 15-1 1v-1h1z"/>
 <path d="m17 5v2h-10v-2c0-1.66 1.34-3 3-3h4c1.66 0 3 1.34 3 3z"/>
 <path d="m22.53 1.4697c0.2929 0.29289 0.2929 0.76777 0 1.0607l-20 20c-0.29289 0.2929-0.76777 0.2929-1.0607 0s-0.29289-0.7677 0-1.0606l20-20c0.2929-0.29289 0.7677-0.29289 1.0606 0z" clip-rule="evenodd" fill-rule="evenodd"/>
 <path d="m9.75 11c0 0.41-0.34 0.75-0.75 0.75h-2c-0.41 0-0.75-0.34-0.75-0.75s0.34-0.75 0.75-0.75h2c0.41 0 0.75 0.34 0.75 0.75z"/>
 <path d="m17.75 15c0 0.41-0.34 0.75-0.75 0.75h-5.75l1.5-1.5h4.25c0.41 0 0.75 0.34 0.75 0.75z"/>
 <path d="m16 15v4c0 1.66-1.34 3-3 3h-2c-1.66 0-3-1.34-3-3l4-4h4z"/>
 <path d="m21 10v5c0 2-1 3-3 3h-2v-3h-4l7.67-7.67c0.89 0.45 1.33 1.34 1.33 2.67z" opacity=".4"/>
</svg>
