<?xml version="1.0" encoding="UTF-8"?>
<svg width="24" height="24" viewBox="0 0 24 24" xmlns="http://www.w3.org/2000/svg">
 <path d="m16 15v4c0 1.66-1.34 3-3 3h-2c-1.66 0-3-1.34-3-3v-4h8z"/>
 <path d="m7 7v-2c0-1.66 1.34-3 3-3h4c1.66 0 3 1.34 3 3v2h-10z"/>
 <path d="m18 7h-12c-2 0-3 1-3 3v5c0 2 1 3 3 3h2v-3h8v3h2c2 0 3-1 3-3v-5c0-2-1-3-3-3zm-8 4.75h-3c-0.41 0-0.75-0.34-0.75-0.75s0.34-0.75 0.75-0.75h3c0.41 0 0.75 0.34 0.75 0.75s-0.34 0.75-0.75 0.75z" opacity=".4"/>
 <path d="m10.75 11c0 0.41-0.34 0.75-0.75 0.75h-3c-0.41 0-0.75-0.34-0.75-0.75s0.34-0.75 0.75-0.75h3c0.41 0 0.75 0.34 0.75 0.75z"/>
 <path d="m17 15.75h-10c-0.41 0-0.75-0.34-0.75-0.75s0.34-0.75 0.75-0.75h10c0.41 0 0.75 0.34 0.75 0.75s-0.34 0.75-0.75 0.75z"/>
</svg>
