<?xml version="1.0" encoding="UTF-8"?>
<svg width="24" height="24" viewBox="0 0 24 24" xmlns="http://www.w3.org/2000/svg">
 <path d="m12 22.01c5.5228 0 10-4.4772 10-10 0-5.5229-4.4772-10-10-10-5.5228 0-10 4.4772-10 10 0 5.5228 4.4772 10 10 10z" opacity=".4"/>
 <path d="m12 6.9399c-2.07 0-3.75 1.68-3.75 3.75 0 2.03 1.59 3.68 3.7 3.74h0.09 0.07 0.02c2.02-0.07 3.61-1.71 3.62-3.74 0-2.07-1.68-3.75-3.75-3.75z"/>
 <path d="m18.78 19.36c-1.78 1.64-4.16 2.65-6.78 2.65-2.62 0-5-1.01-6.78-2.65 0.24-0.91 0.89001-1.74 1.84-2.38 2.73-1.82 7.17-1.82 9.88 0 0.96 0.64 1.6 1.47 1.84 2.38z"/>
</svg>
