<svg width="24" height="24" viewBox="0 0 24 24"  xmlns="http://www.w3.org/2000/svg">
<path d="M19.5002 19.75H15.5002C15.0902 19.75 14.7502 19.41 14.7502 19C14.7502 18.59 15.0902 18.25 15.5002 18.25H19.5002C19.9102 18.25 20.2502 18.59 20.2502 19C20.2502 19.41 19.9102 19.75 19.5002 19.75Z" />
<path d="M12.1502 11.62C12.1202 11.62 12.1002 11.62 12.0702 11.62C12.0102 11.61 11.9502 11.62 11.8902 11.62C8.99016 11.53 6.80016 9.25 6.80016 6.44C6.80016 3.58 9.13016 1.25 11.9902 1.25C14.8502 1.25 17.1802 3.58 17.1802 6.44C17.1702 9.25 14.9702 11.53 12.1802 11.62C12.1702 11.62 12.1602 11.62 12.1502 11.62ZM11.9902 2.75C9.96016 2.75 8.30016 4.41 8.30016 6.44C8.30016 8.44 9.86016 10.05 11.8502 10.12C11.9102 10.11 12.0402 10.11 12.1702 10.12C14.1302 10.03 15.6702 8.42 15.6802 6.44C15.6802 4.41 14.0202 2.75 11.9902 2.75Z" />
<path d="M11.9902 22.56C9.95016 22.56 8.02016 22.03 6.56016 21.05C5.17016 20.12 4.41016 18.85 4.41016 17.48C4.41016 16.11 5.18016 14.85 6.56016 13.93C9.55016 11.93 14.4102 11.93 17.4002 13.93C17.7402 14.16 17.8402 14.63 17.6102 14.97C17.3802 15.32 16.9102 15.41 16.5702 15.18C14.0802 13.52 9.88016 13.52 7.39016 15.18C6.43016 15.82 5.91016 16.63 5.91016 17.48C5.91016 18.33 6.43016 19.16 7.39016 19.8C8.60016 20.61 10.2302 21.05 11.9802 21.05C12.3902 21.05 12.7302 21.39 12.7302 21.8C12.7302 22.21 12.4002 22.56 11.9902 22.56Z" />
</svg>
