<?xml version="1.0" encoding="UTF-8"?>
<svg width="24" height="24" viewBox="0 0 24 24" xmlns="http://www.w3.org/2000/svg">
 <path d="m12 2c-2.62 0-4.75 2.13-4.75 4.75 0 2.57 2.01 4.65 4.63 4.74 0.08-0.01 0.16-0.01 0.22 0h0.05 0.02c2.56-0.09 4.57-2.17 4.58-4.74 0-2.62-2.13-4.75-4.75-4.75z"/>
 <path d="m17.08 14.16c-2.79-1.86-7.34-1.86-10.15 0-1.27 0.84-1.97 1.99-1.97 3.22s0.7 2.37 1.96 3.21c1.4 0.94 3.24 1.41 5.08 1.41s3.68-0.47 5.08-1.41c1.26-0.85 1.96-1.99 1.96-3.23-0.01-1.22-0.7-2.37-1.96-3.2z" opacity=".4"/>
 <path d="m11.37 19.26c-0.16 0-0.32-0.07-0.44-0.18l-1.26-1.26c-0.24-0.24-0.24-0.64 0-0.88s0.63997-0.24 0.87997 0l0.82 0.82 2.08-2.08c0.24-0.24 0.64-0.24 0.88 0s0.24 0.64 0 0.88l-2.52 2.52c-0.12 0.12-0.28 0.18-0.44 0.18z"/>
</svg>
