<svg width="24" height="24" viewBox="0 0 24 24"  xmlns="http://www.w3.org/2000/svg">
<path d="M15.5899 21.66C15.3999 21.66 15.2099 21.59 15.0599 21.44C14.7699 21.15 14.7699 20.67 15.0599 20.38L17.8799 17.56C18.1699 17.27 18.6499 17.27 18.9399 17.56C19.2299 17.85 19.2299 18.33 18.9399 18.62L16.1199 21.44C15.9699 21.59 15.7799 21.66 15.5899 21.66Z" />
<path d="M18.4099 21.66C18.2199 21.66 18.0299 21.59 17.8799 21.44L15.0599 18.62C14.7699 18.33 14.7699 17.85 15.0599 17.56C15.3499 17.27 15.8299 17.27 16.1199 17.56L18.9399 20.38C19.2299 20.67 19.2299 21.15 18.9399 21.44C18.7899 21.59 18.5999 21.66 18.4099 21.66Z" />
<path d="M12.1599 11.62C12.1299 11.62 12.1099 11.62 12.0799 11.62C12.0299 11.61 11.9599 11.61 11.8999 11.62C8.99992 11.53 6.80992 9.25 6.80992 6.44C6.80992 3.58 9.13992 1.25 11.9999 1.25C14.8599 1.25 17.1899 3.58 17.1899 6.44C17.1799 9.25 14.9799 11.53 12.1899 11.62C12.1799 11.62 12.1699 11.62 12.1599 11.62ZM11.9999 2.75C9.96992 2.75 8.30992 4.41 8.30992 6.44C8.30992 8.44 9.86992 10.05 11.8599 10.12C11.9199 10.11 12.0499 10.11 12.1799 10.12C14.1399 10.03 15.6799 8.42 15.6899 6.44C15.6899 4.41 14.0299 2.75 11.9999 2.75Z" />
<path d="M11.9999 22.56C9.95992 22.56 8.02992 22.03 6.56992 21.05C5.17992 20.12 4.41992 18.85 4.41992 17.48C4.41992 16.11 5.18992 14.85 6.56992 13.93C9.55992 11.93 14.4199 11.93 17.4099 13.93C17.7499 14.16 17.8499 14.63 17.6199 14.97C17.3899 15.32 16.9199 15.41 16.5799 15.18C14.0899 13.52 9.88992 13.52 7.39992 15.18C6.43992 15.82 5.91992 16.63 5.91992 17.48C5.91992 18.33 6.44992 19.16 7.39992 19.8C8.60992 20.61 10.2399 21.05 11.9899 21.05C12.3999 21.05 12.7399 21.39 12.7399 21.8C12.7399 22.21 12.4099 22.56 11.9999 22.56Z" />
</svg>
