<?xml version="1.0" encoding="UTF-8"?>
<svg width="24" height="24" viewBox="0 0 24 24" xmlns="http://www.w3.org/2000/svg">
 <path d="m17 3.7497h-3.93l1.41-1.17c0.32-0.27 0.36-0.74 0.1-1.06-0.27-0.32-0.74-0.36004-1.06-0.10004l-3 2.5c-0.17 0.14-0.27 0.35002-0.27 0.58002s0.1 0.43002 0.27 0.58002l3 2.5c0.14 0.12 0.31 0.16998 0.48 0.16998 0.21 0 0.43-0.09002 0.58-0.27002 0.27-0.32 0.22-0.79-0.1-1.06l-1.41-1.17h3.93c0.69 0 1.25 0.56 1.25 1.25v9.5c0 0.41 0.34 0.75 0.75 0.75s0.75-0.34 0.75-0.75v-9.5c0-1.52-1.23-2.75-2.75-2.75z" opacity=".4"/>
 <path d="m19 22c1.6569 0 3-1.3431 3-3s-1.3431-3-3-3-3 1.3431-3 3 1.3431 3 3 3z"/>
 <path d="m13.48 18.92-3-2.5c-0.32-0.27-0.78999-0.22-1.06 0.1s-0.22002 0.79 0.09998 1.06l1.41 1.17h-3.93c-0.69 0-1.25-0.56-1.25-1.25v-9.5c0-0.41-0.34-0.75-0.75-0.75s-0.75 0.34-0.75 0.75v9.5c0 1.52 1.23 2.75 2.75 2.75h3.93l-1.41 1.17c-0.32 0.27-0.35998 0.74-0.09998 1.06 0.15 0.18 0.35999 0.27 0.57999 0.27 0.17 0 0.34-0.06 0.48-0.17l3-2.5c0.17-0.14 0.27-0.35 0.27-0.58s-0.1-0.43-0.27-0.58z" opacity=".4"/>
 <path d="m5 8c1.6568 0 3-1.3432 3-3s-1.3432-3-3-3-3 1.3432-3 3 1.3432 3 3 3z"/>
</svg>
