<svg width="24" height="24" viewBox="0 0 24 24"  xmlns="http://www.w3.org/2000/svg">
<path d="M19 16.7499C18.59 16.7499 18.25 16.4099 18.25 15.9999V6.49994C18.25 5.80994 17.69 5.24994 17 5.24994H12.5C12.09 5.24994 11.75 4.90994 11.75 4.49994C11.75 4.08994 12.09 3.74994 12.5 3.74994H17C18.52 3.74994 19.75 4.97994 19.75 6.49994V15.9999C19.75 16.4099 19.41 16.7499 19 16.7499Z" />
<path d="M15 7.74993C14.83 7.74993 14.66 7.68993 14.52 7.57993L11.52 5.07993C11.35 4.93993 11.25 4.72993 11.25 4.49993C11.25 4.26993 11.35 4.06993 11.52 3.91993L14.52 1.41993C14.84 1.14993 15.31 1.19993 15.58 1.51993C15.85 1.83993 15.8 2.30993 15.48 2.57993L13.17 4.49993L15.48 6.41993C15.8 6.68993 15.84 7.15992 15.58 7.47992C15.43 7.65992 15.21 7.74993 15 7.74993Z" />
<path d="M5 16.7499C4.59 16.7499 4.25 16.4099 4.25 15.9999V8.99994C4.25 8.58994 4.59 8.24994 5 8.24994C5.41 8.24994 5.75 8.58994 5.75 8.99994V15.9999C5.75 16.4099 5.41 16.7499 5 16.7499Z" />
<path d="M5.25 9.24994C3.04 9.24994 1.25 7.45994 1.25 5.24994C1.25 3.03994 3.04 1.24994 5.25 1.24994C7.46 1.24994 9.25 3.03994 9.25 5.24994C9.25 7.45994 7.46 9.24994 5.25 9.24994ZM5.25 2.74994C3.87 2.74994 2.75 3.86994 2.75 5.24994C2.75 6.62994 3.87 7.74994 5.25 7.74994C6.63 7.74994 7.75 6.62994 7.75 5.24994C7.75 3.86994 6.63 2.74994 5.25 2.74994Z" />
<path d="M5 22.7499C2.93 22.7499 1.25 21.0699 1.25 18.9999C1.25 16.9299 2.93 15.2499 5 15.2499C7.07 15.2499 8.75 16.9299 8.75 18.9999C8.75 21.0699 7.07 22.7499 5 22.7499ZM5 16.7499C3.76 16.7499 2.75 17.7599 2.75 18.9999C2.75 20.2399 3.76 21.2499 5 21.2499C6.24 21.2499 7.25 20.2399 7.25 18.9999C7.25 17.7599 6.24 16.7499 5 16.7499Z" />
<path d="M19 22.7499C16.93 22.7499 15.25 21.0699 15.25 18.9999C15.25 16.9299 16.93 15.2499 19 15.2499C21.07 15.2499 22.75 16.9299 22.75 18.9999C22.75 21.0699 21.07 22.7499 19 22.7499ZM19 16.7499C17.76 16.7499 16.75 17.7599 16.75 18.9999C16.75 20.2399 17.76 21.2499 19 21.2499C20.24 21.2499 21.25 20.2399 21.25 18.9999C21.25 17.7599 20.24 16.7499 19 16.7499Z" />
</svg>
