<?xml version="1.0" encoding="UTF-8"?>
<svg width="24" height="24" viewBox="0 0 24 24" xmlns="http://www.w3.org/2000/svg">
 <path d="m5.75 16.11v-8.21c1.29-0.33 2.25-1.5 2.25-2.89 0-1.66-1.34-3-3-3s-3 1.34-3 3c0 1.4 0.96 2.56 2.25 2.89v8.21c-1.29 0.33-2.25 1.5-2.25 2.89 0 1.66 1.34 3 3 3s3-1.34 3-3c0-1.4-0.96-2.56-2.25-2.89z" opacity=".4"/>
 <path d="m19.75 16.11v-9.61c0-1.52-1.23-2.75-2.75-2.75h-2.93l1.41-1.17c0.32-0.27 0.36-0.74 0.1-1.06-0.27-0.32-0.74-0.36001-1.06-0.10001l-3 2.5c-0.17 0.14-0.27 0.35001-0.27 0.58001s0.1 0.43 0.27 0.58l3 2.5c0.14 0.12 0.31 0.17 0.48 0.17 0.21 0 0.43-0.09001 0.58-0.27001 0.27-0.32 0.22-0.79-0.1-1.06l-1.41-1.17h2.93c0.69 0 1.25 0.56 1.25 1.25v9.61c-1.29 0.33-2.25 1.5-2.25 2.89 0 1.66 1.34 3 3 3s3-1.34 3-3c0-1.4-0.96-2.56-2.25-2.89z"/>
</svg>
