<svg width="24" height="24" viewBox="0 0 24 24"  xmlns="http://www.w3.org/2000/svg">
<path d="M11.9998 22.7495C10.9498 22.7495 9.89974 22.6695 8.85974 22.5095C7.66974 22.3295 6.80974 21.3195 6.79974 20.1195V14.2195C6.79974 12.5795 8.12974 11.2495 9.76974 11.2495H14.2097C15.0197 11.2495 15.6797 10.5895 15.6797 9.77952V3.88954C15.6797 3.42954 15.3498 3.04953 14.8898 2.97953C12.9598 2.67953 11.0097 2.67953 9.07974 2.97953C8.62974 3.04953 8.28976 3.43952 8.28976 3.89952V7.56953C8.28976 7.97953 7.94976 8.31953 7.53976 8.31953C7.12976 8.31953 6.78976 7.97953 6.78976 7.56953V3.89952C6.79976 2.69952 7.65976 1.68953 8.84976 1.50953C10.9298 1.18953 13.0398 1.18953 15.1198 1.50953C16.3098 1.68953 17.1697 2.69952 17.1797 3.89952V9.79951C17.1797 11.4395 15.8497 12.7695 14.2097 12.7695H9.76974C8.95974 12.7695 8.29974 13.4295 8.29974 14.2395V20.1295C8.29974 20.5895 8.62975 20.9695 9.08975 21.0395C11.0198 21.3395 12.9697 21.3395 14.8997 21.0395C15.3497 20.9695 15.6898 20.5795 15.6898 20.1195V16.4495C15.6898 16.0395 16.0298 15.6995 16.4398 15.6995C16.8498 15.6995 17.1898 16.0395 17.1898 16.4495V20.1195C17.1798 21.3195 16.3198 22.3295 15.1298 22.5095C14.0998 22.6695 13.0498 22.7495 11.9998 22.7495Z" />
<path d="M11.9998 17.1895C11.5898 17.1895 11.2498 16.8495 11.2498 16.4395C11.2498 16.0295 11.5898 15.6895 11.9998 15.6895H20.1198C20.5798 15.6895 20.9598 15.3595 21.0298 14.8995C21.3298 12.9695 21.3298 11.0195 21.0298 9.08951C20.9598 8.62951 20.5798 8.2995 20.1198 8.2995H16.4498C16.0398 8.2995 15.6998 7.9595 15.6998 7.5495C15.6998 7.1395 16.0398 6.7995 16.4498 6.7995H20.1198C21.3198 6.8095 22.3298 7.6695 22.5098 8.8595C22.8298 10.9395 22.8298 13.0495 22.5098 15.1295C22.3298 16.3195 21.3198 17.1795 20.1198 17.1895H11.9998Z" />
<path d="M7.55976 17.1895H3.88978C2.68978 17.1795 1.67977 16.3195 1.49977 15.1295C1.17977 13.0495 1.17977 10.9395 1.49977 8.8595C1.67977 7.6695 2.68978 6.8095 3.88978 6.7995H11.9998C12.4098 6.7995 12.7498 7.1395 12.7498 7.5495C12.7498 7.9595 12.4098 8.2995 11.9998 8.2995H3.87977C3.41977 8.2995 3.03977 8.62951 2.96977 9.08951C2.66977 11.0195 2.66977 12.9695 2.96977 14.8995C3.03977 15.3595 3.41977 15.6895 3.87977 15.6895H7.54975C7.95975 15.6895 8.29975 16.0295 8.29975 16.4395C8.29975 16.8495 7.96976 17.1895 7.55976 17.1895Z" />
<path d="M10.3297 5.5795C9.91974 5.5795 9.51974 5.1895 9.51974 4.7695C9.51974 4.3495 9.90974 3.96951 10.3297 3.96951C10.5197 3.96951 10.7498 4.05951 10.8898 4.18951C11.0398 4.32951 11.1398 4.5695 11.1398 4.7695C11.1398 5.1895 10.7497 5.5795 10.3297 5.5795Z" />
<path d="M13.6698 20.0295C13.2598 20.0295 12.8597 19.6395 12.8597 19.2195C12.8597 18.7995 13.2498 18.4095 13.6698 18.4095C13.8598 18.4095 14.0898 18.4995 14.2298 18.6295C14.3798 18.7695 14.4798 19.0095 14.4798 19.2095C14.4698 19.6395 14.0798 20.0295 13.6698 20.0295Z" />
</svg>
