<?xml version="1.0" encoding="UTF-8"?>
<svg width="24" height="24" viewBox="0 0 24 24" xmlns="http://www.w3.org/2000/svg">
 <path d="m15.02 2.2306c-2-0.31-4.0399-0.31-6.0399 0-0.82 0.13-1.42 0.82999-1.42 1.65v3.68h-3.68c-0.82 0-1.52 0.60001-1.65 1.42-0.31 2-0.31 4.04 0 6.04 0.13 0.82 0.82999 1.42 1.65 1.42h3.68v-2.22c0-1.23 0.99-2.22 2.22-2.22h4.44c1.23 0 2.2201-1 2.2201-2.22v-5.9c0-0.82-0.6001-1.52-1.4201-1.65zm-4.69 3.35c-0.40997 0-0.80996-0.39001-0.80996-0.81001s0.38999-0.8 0.80996-0.8c0.19 0 0.4201 0.09001 0.5601 0.22001 0.15 0.14 0.25 0.37999 0.25 0.57999 0 0.42-0.3901 0.81001-0.8101 0.81001z"/>
 <path d="m21.77 8.9806c-0.1301-0.82-0.83-1.42-1.65-1.42h-3.68v2.22c0 1.22-0.99 2.22-2.22 2.22h-4.44c-1.23 0-2.22 0.9901-2.22 2.2201v5.9c0 0.82 0.60001 1.5199 1.42 1.6499 2 0.31 4.04 0.31 6.04 0 0.8199-0.13 1.42-0.8299 1.42-1.6499v-3.68h3.68c0.82 0 1.5199-0.6001 1.65-1.4201 0.31-2 0.31-4.0399 0-6.04zm-8.1 11.05c-0.41 0-0.8101-0.3899-0.8101-0.8099s0.3901-0.81 0.8101-0.81c0.19 0 0.42 0.0899 0.56 0.2199 0.15 0.14 0.25 0.38 0.25 0.58-0.01 0.43-0.4 0.82-0.81 0.82z" opacity=".4"/>
</svg>
