<?xml version="1.0" encoding="UTF-8"?>
<svg width="24" height="24" viewBox="0 0 24 24" xmlns="http://www.w3.org/2000/svg">
 <path d="m15.91 12.37h4.69c-0.08 4.67-1 5.44-3.87 7.14-0.33 0.2-0.44 0.62-0.24 0.96 0.2 0.33 0.62 0.4401 0.96 0.2401 3.38-2 4.56-3.2201 4.56-9.0401v-5.3899c0-1.71-1.39-3.09-3.09-3.09h-3c-1.76 0-3.09 1.33-3.09 3.09v3c-0.01 1.76 1.32 3.0899 3.08 3.0899z"/>
 <path d="m5.0898 12.37h4.69c-0.08 4.67-1 5.44-3.87 7.14-0.33 0.2-0.44 0.62-0.24 0.96 0.2 0.33 0.62 0.4401 0.96 0.2401 3.38-2 4.56-3.2201 4.56-9.0401v-5.3899c0-1.71-1.39-3.09-3.09-3.09h-3c-1.76 0-3.09 1.33-3.09 3.09v3c-0.01 1.76 1.32 3.0899 3.08 3.0899z" opacity=".4"/>
</svg>
