<?xml version="1.0" encoding="UTF-8"?>
<svg width="24" height="24" viewBox="0 0 24 24" xmlns="http://www.w3.org/2000/svg">
 <path d="m12 22c5.5228 0 10-4.4772 10-10 0-5.5228-4.4772-10-10-10-5.5228 0-10 4.4772-10 10 0 5.5228 4.4772 10 10 10z" opacity=".4"/>
 <path d="m8.19 16.78h1.49c1.09 0 1.94-0.85 1.94-1.94v-1.49c0-1.09-0.85-1.94-1.94-1.94h-1.91c0.08-1.81 0.5-2.08 1.71-2.79 0.36-0.21 0.47001-0.66997 0.26001-1.03-0.14-0.24-0.39001-0.37006-0.65001-0.37006-0.13 0-0.25999 0.03004-0.37999 0.10004-1.79 1.06-2.46 1.75-2.46 4.83v2.67c0 1.09 0.87 1.96 1.94 1.96z"/>
 <path d="m14.32 16.78h1.49c1.09 0 1.94-0.85 1.94-1.94v-1.49c0-1.09-0.85-1.94-1.94-1.94h-1.91c0.08-1.81 0.5-2.08 1.71-2.79 0.36-0.21 0.47-0.66997 0.26-1.03-0.14-0.24-0.39-0.37006-0.65-0.37006-0.13 0-0.26 0.03004-0.38 0.10004-1.79 1.06-2.46 1.75-2.46 4.83v2.67c0.01 1.09 0.88 1.96 1.94 1.96z"/>
</svg>
