<svg width="24" height="24" viewBox="0 0 24 24"  xmlns="http://www.w3.org/2000/svg">
<path opacity="0.4" d="M16.1898 2H7.81977C4.17977 2 2.00977 4.17 2.00977 7.81V16.18C2.00977 19.82 4.17977 21.99 7.81977 21.99H16.1898C19.8298 21.99 21.9998 19.82 21.9998 16.18V7.81C21.9998 4.17 19.8298 2 16.1898 2Z" />
<path d="M15.8099 7.21997H14.3199C13.2299 7.21997 12.3799 8.06997 12.3799 9.15997V10.65C12.3799 11.74 13.2299 12.59 14.3199 12.59H16.2299C16.1499 14.4 15.7299 14.67 14.5199 15.38C14.1599 15.59 14.0499 16.05 14.2599 16.41C14.3999 16.65 14.6499 16.78 14.9099 16.78C15.0399 16.78 15.1699 16.75 15.2899 16.68C17.0799 15.62 17.7499 14.93 17.7499 11.85V9.17999C17.7499 8.08999 16.8799 7.21997 15.8099 7.21997Z" />
<path d="M9.68 7.21997H8.19C7.1 7.21997 6.25 8.06997 6.25 9.15997V10.65C6.25 11.74 7.1 12.59 8.19 12.59H10.1C10.02 14.4 9.6 14.67 8.39 15.38C8.03 15.59 7.92 16.05 8.13 16.41C8.27 16.65 8.52 16.78 8.78 16.78C8.91 16.78 9.04 16.75 9.16 16.68C10.95 15.62 11.62 14.93 11.62 11.85V9.17999C11.61 8.08999 10.74 7.21997 9.68 7.21997Z" />
</svg>
