<svg width="24" height="24" viewBox="0 0 24 24"  xmlns="http://www.w3.org/2000/svg">
<path d="M8.09027 11.63H3.40027C3.48027 6.95997 4.40026 6.18996 7.27026 4.48996C7.60026 4.28996 7.71025 3.86996 7.51025 3.52996C7.31025 3.19996 6.89023 3.08997 6.55023 3.28997C3.17023 5.28997 1.99023 6.50995 1.99023 12.33V17.72C1.99023 19.43 3.38026 20.81 5.08026 20.81H8.08026C9.84026 20.81 11.1702 19.48 11.1702 17.72V14.72C11.1802 12.96 9.85027 11.63 8.09027 11.63Z" />
<path opacity="0.4" d="M18.91 11.63H14.22C14.3 6.95997 15.2201 6.18996 18.0901 4.48996C18.4201 4.28996 18.5301 3.86996 18.3301 3.52996C18.1301 3.19996 17.7101 3.08997 17.3701 3.28997C13.9901 5.28997 12.8101 6.50995 12.8101 12.33V17.72C12.8101 19.43 14.2001 20.81 15.9001 20.81H18.9001C20.6601 20.81 21.9901 19.48 21.9901 17.72V14.72C22.0001 12.96 20.67 11.63 18.91 11.63Z" />
</svg>
