<?xml version="1.0" encoding="UTF-8"?>
<svg width="24" height="24" viewBox="0 0 24 24" xmlns="http://www.w3.org/2000/svg">
 <path d="m16.19 2h-8.37c-3.64 0-5.81 2.17-5.81 5.81v8.37c0 3.64 2.17 5.81 5.81 5.81h8.37c3.64 0 5.81-2.17 5.81-5.81v-8.37c0-3.64-2.17-5.81-5.81-5.81z" opacity=".4"/>
 <path d="m15.81 7.22h-1.49c-1.09 0-1.94 0.85-1.94 1.94v1.49c0 1.09 0.85 1.94 1.94 1.94h1.91c-0.08 1.81-0.5 2.08-1.71 2.79-0.36 0.21-0.47 0.67-0.26 1.03 0.14 0.24 0.39 0.37 0.65 0.37 0.13 0 0.26-0.03 0.38-0.1 1.79-1.06 2.46-1.75 2.46-4.83v-2.67c0-1.09-0.87-1.96-1.94-1.96z"/>
 <path d="m9.68 7.22h-1.49c-1.09 0-1.94 0.85-1.94 1.94v1.49c0 1.09 0.85 1.94 1.94 1.94h1.91c-0.08 1.81-0.5 2.08-1.71 2.79-0.36 0.21-0.47 0.67-0.26 1.03 0.14 0.24 0.39 0.37 0.65 0.37 0.13 0 0.26-0.03 0.38-0.1 1.79-1.06 2.46-1.75 2.46-4.83v-2.67c-0.01-1.09-0.88-1.96-1.94-1.96z"/>
</svg>
