<svg width="24" height="24" viewBox="0 0 24 24"  xmlns="http://www.w3.org/2000/svg">
<path d="M15.9099 12.3699H20.5999C20.5199 17.0399 19.5999 17.8099 16.7299 19.5099C16.3999 19.7099 16.2899 20.1299 16.4899 20.4699C16.6899 20.7999 17.1099 20.91 17.4499 20.71C20.8299 18.71 22.0099 17.4899 22.0099 11.6699V6.27997C22.0099 4.56997 20.6199 3.18994 18.9199 3.18994H15.9199C14.1599 3.18994 12.8299 4.51997 12.8299 6.27997V9.27997C12.8199 11.04 14.1499 12.3699 15.9099 12.3699Z" />
<path opacity="0.4" d="M5.09007 12.3699H9.78007C9.70007 17.0399 8.78007 17.8099 5.91007 19.5099C5.58007 19.7099 5.47007 20.1299 5.67007 20.4699C5.87007 20.7999 6.29007 20.91 6.63007 20.71C10.0101 18.71 11.1901 17.4899 11.1901 11.6699V6.27997C11.1901 4.56997 9.80007 3.18994 8.10007 3.18994H5.10007C3.34007 3.18994 2.01007 4.51997 2.01007 6.27997V9.27997C2.00007 11.04 3.33007 12.3699 5.09007 12.3699Z" />
</svg>
