<svg width="24" height="24" viewBox="0 0 24 24"  xmlns="http://www.w3.org/2000/svg">
<path d="M12 22.7502C6.07 22.7502 1.25 17.9302 1.25 12.0002C1.25 10.1202 1.73999 8.27026 2.67999 6.64026C2.88999 6.28026 3.34001 6.16023 3.70001 6.36023L12.37 11.3402C12.73 11.5502 12.85 12.0002 12.65 12.3602C12.44 12.7202 11.99 12.8403 11.63 12.6403L3.63 8.05023C3.05 9.28023 2.75 10.6202 2.75 11.9902C2.75 17.0902 6.9 21.2402 12 21.2402C17.1 21.2402 21.25 17.0902 21.25 11.9902C21.25 6.89023 17.1 2.74023 12 2.74023C9.98 2.74023 8.06001 3.38024 6.45001 4.59024C6.12001 4.84024 5.64999 4.77025 5.39999 4.44025C5.14999 4.11025 5.21999 3.64026 5.54999 3.39026C7.41999 1.99026 9.65 1.24023 12 1.24023C17.93 1.24023 22.75 6.06023 22.75 11.9902C22.75 17.9202 17.93 22.7502 12 22.7502Z" />
<path d="M12 18.7502C8.28 18.7502 5.25 15.7202 5.25 12.0002C5.25 10.8002 5.56999 9.61023 6.17999 8.58023C6.38999 8.22023 6.84999 8.10024 7.20999 8.31024C7.56999 8.52024 7.69001 8.98024 7.48001 9.34024C7.01001 10.1402 6.76001 11.0602 6.76001 12.0002C6.76001 14.9002 9.12001 17.2502 12.01 17.2502C14.9 17.2502 17.26 14.9002 17.26 12.0002C17.26 9.10024 14.9 6.75024 12.01 6.75024C11.23 6.75024 10.48 6.92024 9.76999 7.25024C9.38999 7.42024 8.94999 7.26026 8.76999 6.89026C8.58999 6.51026 8.75 6.07026 9.13 5.89026C10.03 5.47026 11 5.25024 12 5.25024C15.72 5.25024 18.75 8.28024 18.75 12.0002C18.75 15.7202 15.72 18.7502 12 18.7502Z" />
</svg>
