<?xml version="1.0" encoding="UTF-8"?>
<svg width="24" height="24" viewBox="0 0 24 24" xmlns="http://www.w3.org/2000/svg">
 <path d="m12 22c5.5228 0 10-4.4772 10-10 0-5.5228-4.4772-10-10-10-5.5228 0-10 4.4772-10 10 0 5.5228 4.4772 10 10 10z" opacity=".4"/>
 <path d="m12 19.75c-4.27 0-7.75-3.48-7.75-7.75 0-1.36 0.36-2.69 1.03-3.86 0.21-0.36 0.66999-0.48 1.02-0.28l6.07 3.49c0.36 0.21 0.48 0.66 0.28 1.02-0.21 0.36-0.66 0.48-1.02 0.28l-5.38-3.09c-0.32 0.77-0.48999 1.6-0.48999 2.44 0 3.45 2.8 6.25 6.25 6.25 3.45 0 6.25-2.8 6.25-6.25s-2.8-6.25-6.25-6.25c-1.36 0-2.66 0.43-3.75 1.25-0.33 0.25-0.80002 0.18001-1.05-0.14999s-0.18-0.80001 0.15-1.05c1.35-1.01 2.96-1.55 4.65-1.55 4.27 0 7.75 3.48 7.75 7.75s-3.49 7.75-7.76 7.75z"/>
</svg>
