<?xml version="1.0" encoding="UTF-8"?>
<svg width="24" height="24" viewBox="0 0 24 24" xmlns="http://www.w3.org/2000/svg">
 <path d="m12 22c5.5228 0 10-4.4772 10-10 0-5.5228-4.4772-10-10-10-5.5228 0-10 4.4772-10 10 0 5.5228 4.4772 10 10 10z" opacity=".4"/>
 <path d="m12 4.25c-1.69 0-3.3 0.54-4.65 1.55-0.33 0.25-0.39999 0.72001-0.14999 1.05s0.71998 0.39999 1.05 0.14999c1.09-0.82 2.38-1.25 3.75-1.25 3.45 0 6.25 2.8 6.25 6.25s-2.8 6.25-6.25 6.25c-3.45 0-6.25-2.8-6.25-6.25 0-0.84 0.16999-1.67 0.48999-2.44l1.14 0.65c-0.22 0.57-0.34 1.17-0.34 1.79 0 2.73 2.22 4.95 4.95 4.95 2.73 0 4.95-2.22 4.95-4.95s-2.22-4.95-4.95-4.95c-0.74 0-1.45 0.16-2.11 0.47-0.37 0.18-0.54002 0.62-0.36002 1 0.18 0.37 0.61997 0.53 0.99997 0.36 0.46-0.21999 0.95-0.33 1.47-0.33 1.9 0 3.45 1.55 3.45 3.45s-1.55 3.45-3.45 3.45-3.45-1.55-3.45-3.45c0-0.35 0.06999-0.69 0.16999-1.02l2.91 1.67c0.36 0.21 0.8201 0.08 1.0201-0.28 0.21-0.36 0.0799-0.82-0.2801-1.02l-6.07-3.49c-0.36-0.21-0.82002-0.08-1.02 0.28-0.67 1.17-1.03 2.5-1.03 3.86 0 4.27 3.48 7.75 7.75 7.75 4.27 0 7.75-3.48 7.75-7.75s-3.47-7.75-7.74-7.75z"/>
</svg>
