<?xml version="1.0" encoding="UTF-8"?>
<svg width="24" height="24" viewBox="0 0 24 24" xmlns="http://www.w3.org/2000/svg">
 <path d="m22 10v7c0 3-2 5-5 5h-10c-3 0-5-2-5-5v-7c0-2.74 1.67-4.65 4.25-4.95 0.24-0.04 0.49-0.04999 0.75-0.04999h10c3 0 5 2 5 5z" opacity=".4"/>
 <path d="M7.75 2V5H7C6.74 5 6.49 5.00999 6.25 5.04999V2C6.25 1.59 6.59 1.25 7 1.25C7.41 1.25 7.75 1.59 7.75 2Z"/>
 <path d="m7.8799 16c1.3807 0 2.5-1.1193 2.5-2.5s-1.1193-2.5-2.5-2.5-2.5 1.1193-2.5 2.5 1.1193 2.5 2.5 2.5z"/>
 <path d="m17.88 12.25h-4c-0.41 0-0.75-0.34-0.75-0.75s0.34-0.75 0.75-0.75h4c0.41 0 0.75 0.34 0.75 0.75s-0.34 0.75-0.75 0.75z"/>
 <path d="m14.38 16.25h-0.5c-0.41 0-0.75-0.34-0.75-0.75s0.34-0.75 0.75-0.75h0.5c0.41 0 0.75 0.34 0.75 0.75s-0.34 0.75-0.75 0.75z"/>
 <path d="m17.88 16.25h-0.5c-0.41 0-0.75-0.34-0.75-0.75s0.34-0.75 0.75-0.75h0.5c0.41 0 0.75 0.34 0.75 0.75s-0.34 0.75-0.75 0.75z"/>
</svg>
