<?xml version="1.0" encoding="UTF-8"?>
<svg width="24" height="24" viewBox="0 0 24 24" xmlns="http://www.w3.org/2000/svg">
 <path d="m18.5 10v2.17c0 0.53 0.21 1.04 0.59 1.42l0.82 0.82c0.38 0.38 0.59 0.89 0.59 1.42v1.17c0 2.85-1.38 4.8-4.49 4.98l-0.02-2.99c-0.01-1.1-0.9-1.99-2-1.99h-4.01c-1.11 0-2 0.9-2 2l0.01 2.98c-3.16-0.18-4.49-2.13-4.49-4.98v-10c0-3 1.47-5 5-5h7c3.47 0 5 2 5 5v1c0 0.55-0.45 1-1 1s-1 0.45-1 1z" opacity=".4"/>
 <path d="m16.01 21.98c-0.16 0.01-0.33 0.02-0.51 0.02h-7c-0.18 0-0.35 0-0.51-0.02l-0.01-2.98c0-1.1 0.89-2 2-2h4.01c1.1 0 1.99 0.89 2 1.99l0.02 2.99z"/>
 <path d="m13.97 8.5303h-6c-0.41 0-0.75-0.34-0.75-0.75s0.34-0.75 0.75-0.75h6c0.41 0 0.75 0.34 0.75 0.75s-0.33 0.75-0.75 0.75z"/>
</svg>
