<?xml version="1.0" encoding="UTF-8"?>
<svg width="24" height="24" viewBox="0 0 24 24" xmlns="http://www.w3.org/2000/svg">
 <path d="m18.5 10v2.17c0 0.53 0.21 1.04 0.59 1.42l0.82 0.82c0.38 0.38 0.59 0.89 0.59 1.42v1.17c0 3-1.53 5-5 5h-7c-3.53 0-5-2-5-5v-10c0-2.92 1.4-4.9 4.74-4.99 0.08-0.01 0.17-0.01 0.26-0.01h7c0.08 0 0.16 0 0.24 0.01 3.3 0.08 4.76 2.06 4.76 4.99v1c0 0.55-0.45 1-1 1s-1 0.45-1 1z" opacity=".4"/>
 <path d="m9.7402 2-0.05 2.96c-0.01 0.41-0.34 0.74-0.75 0.74h-0.01c-0.42-0.01-0.75-0.35-0.74-0.77l0.05-2.92c0.08-0.01 0.17-0.01 0.26-0.01h1.24z"/>
 <path d="m12.74 2-0.05 2.95c-0.01 0.4-0.34 0.73-0.75 0.73h-0.01c-0.42-0.01-0.75-0.35-0.74-0.76l0.05-2.92h1.5z"/>
 <path d="m15.74 2.01-0.05 2.88c-0.01 0.41-0.34 0.74-0.75 0.74h-0.01c-0.42-0.01-0.75-0.35-0.74-0.76l0.05-2.87h1.26c0.08 0 0.16 0 0.24 0.01z"/>
 <path d="m16.02 21.98c-0.17 0.01-0.34 0.02-0.51 0.02h-7c-0.18 0-0.35 0-0.51-0.02l-0.02-2.98c0-1.1 0.89-2 2-2h4.01c1.1 0 1.99 0.89 2 1.99l0.03 2.99z"/>
</svg>
