<?xml version="1.0" encoding="UTF-8"?>
<svg width="24" height="24" viewBox="0 0 24 24" xmlns="http://www.w3.org/2000/svg">
 <path d="M8.67 14H4C2.9 14 2 14.9 2 16V22H8.67V14Z" opacity=".4"/>
 <path d="m13.33 10h-2.67c-1.1 0-2 0.9-2 2v10h6.67v-10c0-1.1-0.89-2-2-2z"/>
 <path d="m20 17h-4.67v5h6.67v-3c0-1.1-0.9-2-2-2z" opacity=".4"/>
 <path d="m15.01 4.8505c0.31-0.31 0.43-0.68 0.33-1s-0.41-0.54999-0.85-0.61999l-0.96-0.16001c-0.04-0.01-0.13-0.07001-0.15-0.11001l-0.53-1.06c-0.4-0.81-1.31-0.81-1.71 0l-0.53 1.06c-0.02 0.04-0.11 0.10001-0.15 0.11001l-0.96003 0.16001c-0.44 0.07-0.74 0.29999-0.85 0.61999-0.1 0.32 0.02 0.69 0.33 1l0.74 0.75c0.03 0.03 0.07 0.15 0.06 0.19l-0.21 0.91999c-0.16 0.68 0.1 0.98999 0.27 1.12 0.17003 0.12 0.54003 0.28002 1.15-0.07999l0.9-0.52999c0.04-0.03 0.17-0.03 0.21 0l0.9 0.52999c0.28 0.17001 0.51 0.22001 0.69 0.22001 0.21 0 0.36-0.08002 0.45-0.14002 0.17-0.12 0.43-0.42999 0.27-1.12l-0.21-0.91999c-0.01-0.05 0.02-0.16 0.06-0.19l0.75-0.75z"/>
</svg>
