<?xml version="1.0" encoding="UTF-8"?>
<svg width="24" height="24" viewBox="0 0 24 24" xmlns="http://www.w3.org/2000/svg">
 <path d="m6.73 19.7c0.82-0.88 2.07-0.81 2.79 0.15l1.01 1.35c0.81 1.07 2.12 1.07 2.93 0l1.01-1.35c0.72-0.96 1.97-1.03 2.79-0.15 1.78 1.9 3.23 1.27 3.23-1.39v-11.27c0.01-4.03-0.93-5.04-4.71-5.04h-7.56c-3.78 0-4.72 1.01-4.72 5.04v11.26c0 2.67 1.46 3.29 3.23 1.4z" opacity=".4"/>
 <path d="m16.23 11.75h-5.5c-0.41 0-0.75002-0.34-0.75002-0.75s0.34002-0.75 0.75002-0.75h5.5c0.41 0 0.75 0.34 0.75 0.75s-0.34 0.75-0.75 0.75z"/>
 <path d="m16.23 7.75h-5.5c-0.41 0-0.75002-0.34-0.75002-0.75s0.34002-0.75 0.75002-0.75h5.5c0.41 0 0.75 0.34 0.75 0.75s-0.34 0.75-0.75 0.75z"/>
 <path d="m7.7798 8c-0.55 0-1-0.45-1-1s0.45-1 1-1 0.99999 0.45 0.99999 1-0.44999 1-0.99999 1z"/>
 <path d="m7.7798 12c-0.55 0-1-0.45-1-1s0.45-1 1-1 0.99999 0.45 0.99999 1-0.44999 1-0.99999 1z"/>
</svg>
