<?xml version="1.0" encoding="UTF-8"?>
<svg width="24" height="24" viewBox="0 0 24 24" xmlns="http://www.w3.org/2000/svg">
 <path d="m16.19 2h-8.37c-3.64 0-5.81 2.17-5.81 5.81v8.37c0 3.64 2.17 5.81 5.81 5.81h8.37c3.64 0 5.81-2.17 5.81-5.81v-8.37c0-3.64-2.17-5.81-5.81-5.81z" opacity=".4"/>
 <path d="m13.02 12.59h-2.43c-0.41 0-0.74998 0.34-0.74998 0.75s0.33998 0.75 0.74998 0.75h4.24c0.1 0 0.19-0.02 0.29-0.06 0.18-0.08 0.33-0.22 0.41-0.41 0.04-0.09 0.06-0.19 0.06-0.29v-4.23c0-0.41-0.34-0.75-0.75-0.75s-0.75 0.34-0.75 0.75v2.43l-4.38-4.38c-0.29-0.29-0.77001-0.29-1.06 0s-0.29 0.76999 0 1.06l4.37 4.38z"/>
 <path d="m18.71 16.28c-0.13-0.39-0.55-0.6-0.95-0.47-3.72 1.24-7.81 1.24-11.53 0-0.39-0.13-0.82 0.08-0.95 0.47s0.08 0.82 0.47 0.95c2.01 0.67 4.12 1.01 6.24 1.01 2.12 0 4.23-0.34 6.24-1.01 0.4-0.14 0.61-0.56 0.48-0.95z"/>
</svg>
