<svg width="24" height="24" viewBox="0 0 24 24"  xmlns="http://www.w3.org/2000/svg">
<path opacity="0.4" d="M16.19 2H7.82002C4.18002 2 2.01001 4.17 2.01001 7.81V16.18C2.01001 19.82 4.18002 21.99 7.82002 21.99H16.19C19.83 21.99 22 19.82 22 16.18V7.81C22 4.17 19.83 2 16.19 2Z" />
<path d="M13.0199 12.5901H10.5899C10.1799 12.5901 9.83988 12.9301 9.83988 13.3401C9.83988 13.7501 10.1799 14.0901 10.5899 14.0901H14.8299C14.9299 14.0901 15.0199 14.0701 15.1199 14.0301C15.2999 13.9501 15.4499 13.8101 15.5299 13.6201C15.5699 13.5301 15.5899 13.4301 15.5899 13.3301V9.10011C15.5899 8.69011 15.2499 8.35011 14.8399 8.35011C14.4299 8.35011 14.0899 8.69011 14.0899 9.10011V11.5301L9.70989 7.15012C9.41989 6.86012 8.93987 6.86012 8.64987 7.15012C8.35987 7.44012 8.35987 7.92011 8.64987 8.21011L13.0199 12.5901Z" />
<path d="M18.7099 16.2802C18.5799 15.8902 18.1599 15.6802 17.7599 15.8102C14.0399 17.0502 9.94993 17.0502 6.22993 15.8102C5.83993 15.6802 5.40994 15.8902 5.27994 16.2802C5.14994 16.6702 5.35994 17.1002 5.74994 17.2302C7.75994 17.9002 9.86994 18.2402 11.9899 18.2402C14.1099 18.2402 16.2199 17.9002 18.2299 17.2302C18.6299 17.0902 18.8399 16.6702 18.7099 16.2802Z" />
</svg>
