<svg width="24" height="24" viewBox="0 0 24 24"  xmlns="http://www.w3.org/2000/svg">
<path opacity="0.4" d="M6.73001 19.6998C7.55001 18.8198 8.79999 18.8898 9.51999 19.8498L10.53 21.1998C11.34 22.2698 12.65 22.2698 13.46 21.1998L14.47 19.8498C15.19 18.8898 16.44 18.8198 17.26 19.6998C19.04 21.5998 20.49 20.9698 20.49 18.3098V7.04974C20.49 3.01974 19.55 2.00977 15.77 2.00977H8.20999C4.42999 2.00977 3.48999 3.01974 3.48999 7.04974V18.3098C3.49999 20.9698 4.96001 21.5898 6.73001 19.6998Z" />
<path d="M15.6599 13.47L14.9199 12.73C15.2999 12.15 15.5299 11.45 15.5299 10.7C15.5299 8.66001 13.8699 7 11.8299 7C9.78986 7 8.12988 8.66001 8.12988 10.7C8.12988 12.74 9.78986 14.4 11.8299 14.4C12.5799 14.4 13.2799 14.17 13.8599 13.79L14.5999 14.53C14.7499 14.68 14.9399 14.75 15.1299 14.75C15.3199 14.75 15.5099 14.68 15.6599 14.53C15.9499 14.24 15.9499 13.76 15.6599 13.47Z" />
</svg>
