<?xml version="1.0" encoding="UTF-8"?>
<svg width="24" height="24" viewBox="0 0 24 24" xmlns="http://www.w3.org/2000/svg">
 <path d="m8.9002 16.53c0.48-0.52 1.2201-0.48 1.6401 0.09l0.6 0.8c0.47 0.63 1.2499 0.63 1.7199 0l0.5901-0.79c0.42-0.56 1.1599-0.6 1.6399-0.09 1.05 1.12 1.9 0.75 1.9-0.82v-6.63c0-2.37-0.56-2.96-2.78-2.96h-4.44c-2.22 0-2.78 0.59-2.78 2.96v6.63c0.01 1.55 0.87001 1.92 1.91 0.81z"/>
 <path d="m16.19 2h-8.37c-3.64 0-5.81 2.17-5.81 5.81v8.37c0 3.64 2.17 5.81 5.81 5.81h8.37c3.64 0 5.81-2.17 5.81-5.81v-8.37c0-3.64-2.17-5.81-5.81-5.81z" opacity=".4"/>
</svg>
