<?xml version="1.0" encoding="UTF-8"?>
<svg width="24" height="24" viewBox="0 0 24 24" xmlns="http://www.w3.org/2000/svg">
 <path d="m6.73 19.7c0.82-0.88 2.07-0.81 2.79 0.15l1.01 1.35c0.81 1.07 2.12 1.07 2.93 0l1.01-1.35c0.72-0.96 1.97-1.03 2.79-0.15 1.78 1.9 3.23 1.27 3.23-1.39v-11.27c0.01-4.03-0.93-5.04-4.71-5.04h-7.56c-3.78 0-4.72 1.01-4.72 5.04v11.26c0 2.67 1.46 3.29 3.23 1.4z" opacity=".4"/>
 <path d="m15 14c-0.56 0-1-0.45-1-1s0.45-1 1-1 1 0.45 1 1-0.44 1-1 1z"/>
 <path d="m9 9c-0.56 0-1-0.45-1-1s0.45-1 1-1 1 0.45 1 1-0.44 1-1 1z"/>
 <path d="m8.6298 14.55c-0.19 0-0.38-0.07-0.53-0.22-0.29-0.29-0.29-0.77 0-1.06l6.73-6.73c0.29-0.29 0.77-0.29 1.06 0s0.29 0.77 0 1.06l-6.73 6.73c-0.14 0.15-0.34 0.22-0.53 0.22z"/>
</svg>
