<svg width="24" height="24" viewBox="0 0 24 24"  xmlns="http://www.w3.org/2000/svg">
<path opacity="0.4" d="M6.73001 19.6998C7.55001 18.8198 8.79999 18.8898 9.51999 19.8498L10.53 21.1998C11.34 22.2698 12.65 22.2698 13.46 21.1998L14.47 19.8498C15.19 18.8898 16.44 18.8198 17.26 19.6998C19.04 21.5998 20.49 20.9698 20.49 18.3098V7.04974C20.49 3.01974 19.55 2.00977 15.77 2.00977H8.20999C4.42999 2.00977 3.48999 3.01974 3.48999 7.04974V18.3098C3.49999 20.9698 4.96001 21.5898 6.73001 19.6998Z" />
<path d="M14.8399 9.99017L14.3399 10.5002H14.3299L11.2999 13.5302C11.1699 13.6602 10.8999 13.8002 10.7099 13.8202L9.35993 14.0202C8.86993 14.0902 8.52995 13.7402 8.59995 13.2602L8.78996 11.9002C8.81996 11.7102 8.94993 11.4502 9.07993 11.3102L12.1199 8.28018L12.6199 7.77017C12.9499 7.44017 13.3199 7.2002 13.7199 7.2002C14.0599 7.2002 14.4299 7.36017 14.8399 7.77017C15.7399 8.67017 15.4499 9.38017 14.8399 9.99017Z" />
</svg>
