<?xml version="1.0" encoding="UTF-8"?>
<svg width="24" height="24" viewBox="0 0 24 24" xmlns="http://www.w3.org/2000/svg">
 <path d="M22 6V8.42C22 10 21 11 19.42 11H16V4.01C16 2.9 16.91 2 18.02 2C19.11 2.01 20.11 2.45 20.83 3.17C21.55 3.9 22 4.9 22 6Z"/>
 <path d="m2 7v14c0 0.83 0.94001 1.3 1.6 0.8l1.71-1.28c0.4-0.3 0.96-0.26 1.32 0.1l1.66 1.67c0.39 0.39 1.03 0.39 1.42 0l1.68-1.68c0.35-0.35 0.91-0.39 1.3-0.09l1.71 1.28c0.66 0.49 1.6 0.02 1.6-0.8v-17c0-1.1 0.9-2 2-2h-12c-3 0-4 1.79-4 4v1z" opacity=".4"/>
 <path d="m12 9.75h-6c-0.41 0-0.75-0.34-0.75-0.75s0.34-0.75 0.75-0.75h6c0.41 0 0.75 0.34 0.75 0.75s-0.34 0.75-0.75 0.75z"/>
 <path d="m11.25 13.75h-4.5c-0.41 0-0.75-0.34-0.75-0.75s0.34-0.75 0.75-0.75h4.5c0.41 0 0.75 0.34 0.75 0.75s-0.34 0.75-0.75 0.75z"/>
</svg>
