<svg width="24" height="24" viewBox="0 0 24 24"  xmlns="http://www.w3.org/2000/svg">
<path opacity="0.4" d="M6.73026 19.7C7.55026 18.82 8.80023 18.89 9.52023 19.85L10.5302 21.2C11.3402 22.27 12.6502 22.27 13.4602 21.2L14.4702 19.85C15.1902 18.89 16.4403 18.82 17.2603 19.7C19.0403 21.6 20.4902 20.97 20.4902 18.31V7.04999C20.4902 3.01999 19.5502 2.01001 15.7702 2.01001H8.21024C4.43024 2.01001 3.49023 3.01999 3.49023 7.04999V18.31C3.50023 20.97 4.96026 21.59 6.73026 19.7Z" />
<path d="M14.8399 9.98999L14.3399 10.5H14.3299L11.2999 13.53C11.1699 13.66 10.8999 13.8 10.7099 13.82L9.35993 14.02C8.86993 14.09 8.52995 13.74 8.59995 13.26L8.78996 11.9C8.81996 11.71 8.94993 11.45 9.07993 11.31L12.1199 8.28L12.6199 7.76999C12.9499 7.43999 13.3199 7.20001 13.7199 7.20001C14.0599 7.20001 14.4299 7.35999 14.8399 7.76999C15.7399 8.66999 15.4499 9.37999 14.8399 9.98999Z" />
</svg>
