<svg width="24" height="24" viewBox="0 0 24 24"  xmlns="http://www.w3.org/2000/svg">
<path d="M5.00039 18.2C4.80039 18.2 4.60039 18.1 4.50039 18C4.20039 17.7 4.20039 17.2 4.50039 16.9L18.5004 2.90005C18.8004 2.60005 19.3004 2.60005 19.6004 2.90005C19.9004 3.20005 19.9004 3.70005 19.6004 4.00005L5.60039 18C5.40039 18.2 5.20039 18.2 5.00039 18.2Z" />
<path d="M15.3002 18.2001H5.0002C4.6002 18.2001 4.2002 17.9001 4.2002 17.4001V7.20015C4.2002 6.80015 4.5002 6.40015 5.0002 6.40015C5.5002 6.40015 5.8002 6.70015 5.8002 7.20015V16.7001H15.3002C15.7002 16.7001 16.1002 17.0001 16.1002 17.5001C16.1002 18.0001 15.7002 18.2001 15.3002 18.2001Z" />
<path opacity="0.4" d="M20.5002 22.7999H3.5002C3.1002 22.7999 2.7002 22.5 2.7002 22C2.7002 21.5 3.0002 21.2 3.5002 21.2H20.5002C20.9002 21.2 21.3002 21.5 21.3002 22C21.3002 22.5 20.9002 22.7999 20.5002 22.7999Z" />
</svg>
