<?xml version="1.0" encoding="UTF-8"?>
<svg width="24" height="24" viewBox="0 0 24 24" xmlns="http://www.w3.org/2000/svg">
 <path d="m16.19 2h-8.37c-3.65 0-5.82 2.17-5.82 5.81v8.37c0 3.64 2.17 5.81 5.81 5.81h8.37c3.64 0 5.81-2.17 5.81-5.81v-8.37c0.01-3.64-2.16-5.81-5.8-5.81z" opacity=".4"/>
 <path d="m11.47 15.04c0.07 0.07 0.15 0.12 0.24 0.16s0.19 0.06 0.29 0.06 0.19-0.02 0.29-0.06c0.09-0.04 0.17-0.09 0.24-0.16l3-3c0.29-0.29 0.29-0.77 0-1.06s-0.77-0.29-1.06 0l-1.72 1.72v-6.19c0-0.41-0.34-0.75-0.75-0.75s-0.75 0.34-0.75 0.75v6.19l-1.72-1.72c-0.29-0.29-0.77-0.29-1.06 0s-0.29 0.77 0 1.06l3 3z"/>
 <path d="m18.71 16.28c-0.13-0.39-0.55-0.6-0.95-0.47-3.72 1.24-7.81 1.24-11.53 0-0.39-0.13-0.82 0.08-0.95 0.47s0.08 0.82 0.47 0.95c2.01 0.67 4.12 1.01 6.24 1.01 2.12 0 4.23-0.34 6.24-1.01 0.4-0.14 0.61-0.56 0.48-0.95z"/>
</svg>
