<?xml version="1.0" encoding="UTF-8"?>
<svg width="24" height="24" viewBox="0 0 24 24" xmlns="http://www.w3.org/2000/svg">
 <path d="m6.7303 19.7c0.82-0.88 2.07-0.81 2.79 0.15l1.01 1.35c0.81 1.07 2.12 1.07 2.93 0l1.01-1.35c0.72-0.96 1.9701-1.03 2.7901-0.15 1.78 1.9 3.2299 1.27 3.2299-1.39v-11.26c0-4.03-0.94-5.04-4.72-5.04h-7.56c-3.78 0-4.72 1.01-4.72 5.04v11.26c0.01 2.66 1.47 3.28 3.24 1.39z" opacity=".4"/>
 <path d="m14.84 9.99-0.5 0.51001h-0.01l-3.03 3.03c-0.13 0.13-0.4 0.27-0.59 0.29l-1.35 0.2c-0.49 0.07-0.82998-0.28-0.75998-0.76l0.19001-1.36c0.03-0.19 0.15997-0.45 0.28997-0.59l3.04-3.03 0.5-0.51001c0.33-0.33 0.7-0.56998 1.1-0.56998 0.34 0 0.71 0.15998 1.12 0.56998 0.9 0.9 0.61 1.61 0 2.22z"/>
</svg>
