<svg width="24" height="24" viewBox="0 0 24 24"  xmlns="http://www.w3.org/2000/svg">
<path opacity="0.4" d="M6.73 19.7C7.55 18.82 8.8 18.89 9.52 19.85L10.53 21.2C11.34 22.27 12.65 22.27 13.46 21.2L14.47 19.85C15.19 18.89 16.44 18.82 17.26 19.7C19.04 21.6 20.49 20.97 20.49 18.31V7.04C20.5 3.01 19.56 2 15.78 2H8.22C4.44 2 3.5 3.01 3.5 7.04V18.3C3.5 20.97 4.96 21.59 6.73 19.7Z" />
<path d="M16.23 11.75H10.73C10.32 11.75 9.97998 11.41 9.97998 11C9.97998 10.59 10.32 10.25 10.73 10.25H16.23C16.64 10.25 16.98 10.59 16.98 11C16.98 11.41 16.64 11.75 16.23 11.75Z" />
<path d="M16.23 7.75H10.73C10.32 7.75 9.97998 7.41 9.97998 7C9.97998 6.59 10.32 6.25 10.73 6.25H16.23C16.64 6.25 16.98 6.59 16.98 7C16.98 7.41 16.64 7.75 16.23 7.75Z" />
<path d="M7.77979 8C7.22979 8 6.77979 7.55 6.77979 7C6.77979 6.45 7.22979 6 7.77979 6C8.32979 6 8.77978 6.45 8.77978 7C8.77978 7.55 8.32979 8 7.77979 8Z" />
<path d="M7.77979 12C7.22979 12 6.77979 11.55 6.77979 11C6.77979 10.45 7.22979 10 7.77979 10C8.32979 10 8.77978 10.45 8.77978 11C8.77978 11.55 8.32979 12 7.77979 12Z" />
</svg>
