<?xml version="1.0" encoding="UTF-8"?>
<svg width="24" height="24" viewBox="0 0 24 24" xmlns="http://www.w3.org/2000/svg">
 <path d="m22 6v2.42c0 1.58-1 2.58-2.58 2.58h-3.42v-6.99c0-1.11 0.91-2.02 2.02-2.01 1.09 0.01 2.09 0.45 2.81 1.17 0.72 0.73 1.17 1.73 1.17 2.83z"/>
 <path d="m2 7v14c0 0.83 0.94 1.3 1.6 0.8l1.71-1.28c0.4-0.3 0.96-0.26 1.32 0.1l1.66 1.67c0.39 0.39 1.03 0.39 1.42 0l1.68-1.68c0.35-0.35 0.91-0.39 1.3-0.09l1.71 1.28c0.66 0.49 1.6 0.02 1.6-0.8v-17c0-1.1 0.9-2 2-2h-12c-3 0-4 1.79-4 4v1z" opacity=".4"/>
 <path d="m11.43 12.08c-0.55 0-1 0.45-1 1s0.45 1 1 1 1-0.45 1-1-0.45-1-1-1z"/>
 <path d="m6.5698 10.03c0.56 0 1-0.44997 1-0.99997s-0.45-1-1-1-1 0.45-1 1 0.45 0.99997 1 0.99997z"/>
 <path d="m12.26 7.74c-0.29-0.29-0.77-0.29-1.06 0l-5.46 5.46c-0.29 0.29-0.29 0.77 0 1.06 0.15 0.15 0.34 0.22 0.53 0.22s0.38-0.07 0.53-0.22l5.46-5.46c0.29-0.29 0.29-0.77 0-1.06z"/>
</svg>
