<?xml version="1.0" encoding="UTF-8"?>
<svg width="24" height="24" viewBox="0 0 24 24" xmlns="http://www.w3.org/2000/svg">
 <path d="m20 7.04v9.92c0 1.52-0.14 2.6-0.5 3.37 0 0.01-0.01 0.03-0.02 0.04-0.22 0.28-0.51 0.42-0.85 0.42-0.53 0-1.17-0.35-1.86-1.09-0.82-0.88-2.08-0.81-2.8 0.15l-1.01 1.34c-0.4 0.54-0.93 0.81-1.46 0.81s-1.06-0.27-1.46-0.81l-1.02-1.35c-0.71-0.95-1.96-1.02-2.78-0.15l-0.01001 0.01c-1.13 1.21-2.13 1.39-2.71 0.67-0.01-0.01-0.02002-0.03-0.02002-0.04-0.36-0.77-0.5-1.85-0.5-3.37v-9.92c0-1.52 0.14-2.6 0.5-3.37 0-0.01 2e-5 -0.02 0.02002-0.03 0.57-0.73 1.58-0.55 2.71 0.66l0.01001 0.01c0.82 0.87 2.07 0.8 2.78-0.15l1.02-1.35c0.4-0.54 0.93-0.81 1.46-0.81s1.06 0.27 1.46 0.81l1.01 1.34c0.72 0.96 1.98 1.03 2.8 0.15 0.69-0.74 1.33-1.09 1.86-1.09 0.34 0 0.63 0.15 0.85 0.43 0.02 0.01 0.02 0.02 0.02 0.03 0.36 0.77 0.5 1.85 0.5 3.37z" opacity=".4"/>
 <path d="m16 11h-8c-0.41 0-0.75-0.34-0.75-0.75s0.34-0.75 0.75-0.75h8c0.41 0 0.75 0.34 0.75 0.75s-0.34 0.75-0.75 0.75z"/>
 <path d="m14 14.5h-6c-0.41 0-0.75-0.34-0.75-0.75s0.34-0.75 0.75-0.75h6c0.41 0 0.75 0.34 0.75 0.75s-0.34 0.75-0.75 0.75z"/>
</svg>
