<svg width="24" height="24" viewBox="0 0 24 24"  xmlns="http://www.w3.org/2000/svg">
<path d="M22 6.00002V8.42002C22 10 21 11 19.42 11H16V4.01002C16 2.90002 16.91 1.99002 18.02 2.00002C19.11 2.01002 20.11 2.45002 20.83 3.17002C21.55 3.90002 22 4.90002 22 6.00002Z" />
<path opacity="0.4" d="M2 7V21C2 21.83 2.94 22.3 3.6 21.8L5.31 20.52C5.71 20.22 6.27 20.26 6.63 20.62L8.29 22.29C8.68 22.68 9.32 22.68 9.71 22.29L11.39 20.61C11.74 20.26 12.3 20.22 12.69 20.52L14.4 21.8C15.06 22.29 16 21.82 16 21V4C16 2.9 16.9 2 18 2H7H6C3 2 2 3.79 2 6V7Z" />
<path d="M11.4302 12.08C10.8802 12.08 10.4302 12.53 10.4302 13.08C10.4302 13.63 10.8802 14.08 11.4302 14.08C11.9802 14.08 12.4302 13.63 12.4302 13.08C12.4302 12.53 11.9802 12.08 11.4302 12.08Z" />
<path d="M6.56982 10.03C7.12982 10.03 7.56982 9.58003 7.56982 9.03003C7.56982 8.48003 7.11982 8.03003 6.56982 8.03003C6.01982 8.03003 5.56982 8.48003 5.56982 9.03003C5.56982 9.58003 6.01982 10.03 6.56982 10.03Z" />
<path d="M12.26 7.74002C11.97 7.45002 11.49 7.45002 11.2 7.74002L5.73996 13.2C5.44996 13.49 5.44996 13.97 5.73996 14.26C5.88996 14.41 6.07996 14.48 6.26996 14.48C6.45996 14.48 6.64996 14.41 6.79996 14.26L12.26 8.80002C12.55 8.51002 12.55 8.03002 12.26 7.74002Z" />
</svg>
