<svg width="24" height="24" viewBox="0 0 24 24"  xmlns="http://www.w3.org/2000/svg">
<path d="M11.9702 22.75C6.05021 22.75 1.22021 17.93 1.22021 12C1.22021 6.07 6.05021 1.25 11.9702 1.25C17.8902 1.25 22.7202 6.07 22.7202 12C22.7202 17.93 17.9002 22.75 11.9702 22.75ZM11.9702 2.75C6.87021 2.75 2.72021 6.9 2.72021 12C2.72021 17.1 6.87021 21.25 11.9702 21.25C17.0702 21.25 21.2202 17.1 21.2202 12C21.2202 6.9 17.0702 2.75 11.9702 2.75Z" />
<path d="M12.0002 16.98C9.25022 16.98 7.02022 14.75 7.02022 12C7.02022 9.25 9.25022 7.02 12.0002 7.02C14.7502 7.02 16.9802 9.25 16.9802 12C16.9802 14.75 14.7502 16.98 12.0002 16.98ZM12.0002 8.52C10.0802 8.52 8.52022 10.08 8.52022 12C8.52022 13.92 10.0802 15.48 12.0002 15.48C13.9202 15.48 15.4802 13.92 15.4802 12C15.4802 10.08 13.9202 8.52 12.0002 8.52Z" />
</svg>
