<?xml version="1.0" encoding="UTF-8"?>
<svg width="24" height="24" viewBox="0 0 24 24" xmlns="http://www.w3.org/2000/svg">
 <path d="M7.81 2H16.18C19.83 2 22 4.17 22 7.81V16.18C22 19.82 19.83 21.99 16.19 21.99H7.81C4.17 22 2 19.83 2 16.19V7.81C2 4.17 4.17 2 7.81 2Z" opacity=".4"/>
 <path d="m17.53 9.1601-1.57-1.57c-0.29-0.29-0.77-0.29-1.06 0s-0.29 0.77 0 1.06l0.33 0.33h-5.15c-2.11 0-3.83 1.72-3.83 3.83s1.72 3.83 3.83 3.83h4.92c0.41 0 0.75-0.34 0.75-0.75s-0.34-0.75-0.75-0.75h-4.92c-1.28 0-2.33-1.04-2.33-2.33s1.04-2.33 2.33-2.33h5.08l-0.26 0.26c-0.29 0.29-0.29 0.77 0 1.06 0.15 0.15 0.34 0.22 0.53 0.22s0.38-0.07 0.53-0.22l1.57-1.57c0.29-0.30004 0.29-0.77004 0-1.07z"/>
</svg>
