<?xml version="1.0" encoding="UTF-8"?>
<svg width="24" height="24" viewBox="0 0 24 24" xmlns="http://www.w3.org/2000/svg">
 <path d="M22 7.81V16.18C22 19.82 19.83 21.99 16.19 21.99H7.81C4.17 22 2 19.83 2 16.19V7.81C2 4.17 4.17 2 7.81 2H16.18C19.83 2 22 4.17 22 7.81Z" opacity=".4"/>
 <path d="m12 18.25c-1.79 0-3.19-0.89-4.14-1.77v0.71c0 0.41-0.34 0.75-0.75 0.75s-0.75-0.34-0.75-0.75v-2.75c0-0.41 0.34-0.75 0.75-0.75h2.48c0.41 0 0.75 0.34 0.75 0.75s-0.34 0.75-0.75 0.75h-0.9c0.74 0.74 1.89 1.56 3.31 1.56 2.62 0 4.75-2.13 4.75-4.75 0-0.41 0.34-0.75 0.75-0.75s0.75 0.34 0.75 0.75c0 3.45-2.8 6.25-6.25 6.25zm-5.5-5.5c-0.41 0-0.75-0.34-0.75-0.75 0-3.45 2.8-6.25 6.25-6.25 2.15 0 3.73 0.93 4.75 1.82v-0.76c0-0.41 0.34-0.75 0.75-0.75s0.75 0.34 0.75 0.75v2.74 0.08c-0.01 0.11-0.04 0.21-0.09 0.3s-0.12 0.17-0.21 0.24c-0.07 0.05-0.15 0.09-0.24 0.12-0.07 0.02-0.14 0.03-0.21 0.03h-2.43c-0.41 0-0.75-0.34-0.75-0.75s0.34-0.75 0.75-0.75h0.83c-0.8-0.74-2.09-1.56-3.88-1.56-2.62 0-4.75 2.13-4.75 4.75-0.02 0.4-0.36 0.74-0.77 0.74z"/>
</svg>
