<?xml version="1.0" encoding="UTF-8"?>
<svg width="24" height="24" viewBox="0 0 24 24" xmlns="http://www.w3.org/2000/svg">
 <path d="m16.19 2h-8.37c-3.65 0-5.82 2.17-5.82 5.81v8.37c0 3.64 2.17 5.81 5.81 5.81h8.37c3.64 0 5.81-2.17 5.81-5.81v-8.37c0.01-3.64-2.16-5.81-5.8-5.81z" opacity=".4"/>
 <path d="m18 11.27c-0.42 0-0.75 0.33-0.75 0.75-0.01 1.4-0.55 2.71-1.53 3.69-0.99 0.99-2.31 1.54-3.71 1.54s-2.72-0.55-3.71-1.54c-0.03-0.03-0.04998-0.06-0.07998-0.09h0.82998c0.41 0 0.75-0.34 0.75-0.75s-0.34-0.75-0.75-0.75h-2.65c-0.41 0-0.75 0.34-0.75 0.75v2.65c0 0.41 0.34 0.75 0.75 0.75s0.75-0.34 0.75-0.75v-0.85c0.03 0.03 0.06 0.07 0.09 0.11 1.27 1.27 2.97 1.98 4.77 1.98s3.5-0.7 4.77-1.98c1.26-1.26 1.96-2.95 1.97-4.75 0-0.42-0.34-0.75-0.75-0.76z"/>
 <path d="m6.0002 12.65c0.41 0 0.74-0.33 0.75-0.74 0.02-1.37 0.57-2.66 1.53-3.63 0.99-0.99 2.31-1.54 3.71-1.54s2.72 0.55 3.71 1.54c0.03 0.03 0.05 0.06 0.08 0.09h-0.83c-0.41 0-0.75 0.34-0.75 0.75s0.34 0.75 0.75 0.75h2.65c0.41 0 0.75-0.34 0.75-0.75v-2.64c0-0.41-0.34-0.75-0.75-0.75s-0.75 0.34-0.75 0.75v0.86c-0.03-0.03-0.06-0.07-0.09-0.11-1.27-1.27-2.97-1.98-4.77-1.98s-3.5 0.7-4.77 1.98c-1.25 1.24-1.95 2.9-1.97 4.66-0.01 0.41 0.31999 0.75 0.73999 0.76h0.01001z"/>
</svg>
