<?xml version="1.0" encoding="UTF-8"?>
<svg width="24" height="24" viewBox="0 0 24 24" xmlns="http://www.w3.org/2000/svg">
 <path d="m12 22c5.5228 0 10-4.4772 10-10 0-5.5228-4.4772-10-10-10-5.5228 0-10 4.4772-10 10 0 5.5228 4.4772 10 10 10z" opacity=".4"/>
 <path d="m16.76 11.93c-0.42-0.07-0.79 0.23-0.85 0.64-0.12 0.87-0.5101 1.65-1.1101 2.25-1.38 1.38-3.5199 1.52-5.0699 0.45h0.75003c0.41 0 0.75-0.34 0.75-0.75s-0.34-0.75-0.75-0.75h-2.67c-0.41 0-0.75 0.34-0.75 0.75v2.67c0 0.41 0.34 0.75 0.75 0.75s0.75-0.34 0.75-0.75v-0.94c1 0.81 2.21 1.24 3.43 1.24 1.4 0 2.7999-0.53 3.8699-1.6 0.83-0.83 1.3601-1.9 1.5301-3.1 0.07-0.43-0.22-0.81-0.63-0.86z"/>
 <path d="m7.3399 12.08c0.37 0 0.68999-0.27 0.73999-0.64 0.12-0.87 0.51001-1.65 1.11-2.25 1.38-1.38 3.52-1.52 5.07-0.45001h-0.75c-0.41 0-0.75 0.34-0.75 0.75s0.34 0.74999 0.75 0.74999h2.67c0.41 0 0.75-0.33999 0.75-0.74999v-2.67c0-0.41-0.34-0.75-0.75-0.75s-0.75 0.34-0.75 0.75v0.94001c-2.15-1.74-5.3-1.63-7.29 0.35998-0.83 0.83-1.36 1.9-1.53 3.1-0.06 0.41 0.23001 0.79 0.64001 0.85 0.02 0.01 0.06 0.01 0.09 0.01z"/>
</svg>
