<?xml version="1.0" encoding="UTF-8"?>
<svg width="24" height="24" viewBox="0 0 24 24" xmlns="http://www.w3.org/2000/svg">
 <path d="m16.19 2h-8.37c-3.65 0-5.82 2.17-5.82 5.81v8.37c0 3.64 2.17 5.81 5.81 5.81h8.37c3.64 0 5.81-2.17 5.81-5.81v-8.37c0.01-3.64-2.16-5.81-5.8-5.81z" opacity=".4"/>
 <path d="m12 6.51c-0.14 0-0.29 0.01999-0.43 0.02999l0.28-0.32c0.27-0.31 0.24-0.79-0.07-1.06s-0.79-0.24-1.06 0.07l-1.67 1.91c-0.01 0.01-0.01 0.02001-0.02 0.03001-0.01 0.00999-0.02001 0.00999-0.02001 0.01999-0.02 0.03-0.02998 0.07001-0.04998 0.11001-0.02 0.05-0.05002 0.09-0.06002 0.13999-0.01 0.05-0.00999 0.09-0.01999 0.14 0 0.05-0.01001 0.09-0.01001 0.14s0.02001 0.09001 0.04001 0.14001c0.01 0.05 0.03001 0.08999 0.05001 0.12999s0.05999 0.08 0.08999 0.12c0.03 0.03 0.03999 0.07 0.06999 0.09 0.01 0.01 0.02 0.01001 0.03 0.02001s0.01001 0.01999 0.02001 0.01999l1.94 1.42c0.13 0.09999 0.29 0.14 0.44 0.14 0.23 0 0.46-0.11001 0.61-0.31001 0.24-0.32999 0.17-0.8-0.16-1.05l-0.56-0.41c0.18-0.02 0.37-0.04 0.56-0.04 2.34 0 4.25 1.91 4.25 4.25 0 2.34-1.91 4.25-4.25 4.25-2.34 0-4.25-1.91-4.25-4.25 0-0.85 0.25001-1.66 0.71001-2.36 0.23-0.34 0.13999-0.81001-0.21001-1.04-0.34-0.23-0.80999-0.14-1.04 0.21-0.63 0.95-0.97001 2.05-0.97001 3.19 0 3.17 2.58 5.75 5.75 5.75 3.17 0 5.75-2.58 5.75-5.75 0-3.17-2.57-5.73-5.74-5.73z"/>
</svg>
