<?xml version="1.0" encoding="UTF-8"?>
<svg width="24" height="24" viewBox="0 0 24 24" xmlns="http://www.w3.org/2000/svg">
 <path d="m14.55 22.42c-0.33 0-0.64-0.22-0.73-0.56-0.1-0.4 0.13-0.81 0.53-0.92 4.06-1.07 6.89-4.75 6.89-8.95 0-5.1-4.15-9.25-9.25-9.25-4.33 0-7.17 2.53-8.5 4.06h2.94c0.41 0 0.75 0.34 0.75 0.75s-0.32 0.76-0.74 0.76h-4.43c-0.07 0-0.14-0.01-0.21-0.03-0.09-0.03-0.17-0.07-0.24-0.12-0.09-0.06-0.16-0.14-0.21-0.23-0.05-0.1-0.09-0.2-0.1-0.31v-0.08-4.54c0-0.41 0.34-0.75 0.75-0.75s0.75 0.34 0.75 0.75v2.39c1.63-1.75 4.7-4.14 9.25-4.14 5.93 0 10.75 4.82 10.75 10.75 0 4.88-3.29 9.16-8.01 10.4-0.06 0.01-0.13 0.02-0.19 0.02z" opacity=".4"/>
 <path d="m11.29 22.73c-0.02 0-0.05 0-0.07-0.01-1.07-0.07-2.12-0.31-3.12-0.7-0.29-0.11-0.48-0.4-0.48-0.71 0-0.09 0.02-0.18 0.05-0.26 0.15-0.38 0.59-0.58 0.97-0.43 0.86 0.34 1.77 0.54 2.69 0.61h0.01c0.4 0.02 0.7 0.36 0.7 0.76v0.04c-0.03 0.39-0.36 0.7-0.75 0.7zm-5.51-2.15c-0.17 0-0.33-0.05-0.47-0.16-0.84-0.67-1.57-1.46-2.18-2.35-0.09-0.13-0.14-0.27-0.14-0.42 0-0.25 0.12-0.48 0.33-0.62 0.33-0.23 0.82-0.14 1.04 0.19 0.53 0.77 1.16 1.45 1.89 2.02 0.17 0.14 0.28 0.35 0.28 0.58 0 0.17-0.05 0.34-0.16 0.48-0.14 0.18-0.36 0.28-0.59 0.28zm-3.34-4.88c-0.33 0-0.62-0.21-0.71-0.52-0.32-1.03-0.48-2.1-0.48-3.18 0-0.41 0.34-0.75 0.75-0.75s0.75 0.34 0.75 0.75c0 0.93 0.14 1.85 0.41 2.73 0.02 0.07 0.03 0.15 0.03 0.23 0 0.33-0.21 0.61-0.52 0.71-0.08 0.02-0.15 0.03-0.23 0.03z"/>
 <path d="m12 16c2.2091 0 4-1.7909 4-4 0-2.2091-1.7909-4-4-4-2.2091 0-4 1.7909-4 4 0 2.2091 1.7909 4 4 4z" opacity=".4"/>
</svg>
