<?xml version="1.0" encoding="UTF-8"?>
<svg width="24" height="24" viewBox="0 0 24 24" xmlns="http://www.w3.org/2000/svg">
 <path d="m16.19 2h-8.37c-3.65 0-5.82 2.17-5.82 5.81v8.37c0 3.64 2.17 5.81 5.81 5.81h8.37c3.64 0 5.81-2.17 5.81-5.81v-8.37c0.01-3.64-2.16-5.81-5.8-5.81z" opacity=".4"/>
 <path d="m16.78 9.0701c-0.23-0.35-0.7-0.44-1.04-0.21s-0.44 0.7-0.21 1.04c0.47 0.69999 0.71 1.52 0.71 2.36 0 2.34-1.91 4.25-4.25 4.25-2.34 0-4.25-1.91-4.25-4.25 0-2.34 1.91-4.25 4.25-4.25 0.19 0 0.37 0.02 0.56 0.04l-0.55 0.41c-0.33 0.24-0.41 0.71-0.16 1.05 0.15 0.2 0.38 0.31 0.61 0.31 0.15 0 0.31-0.05 0.44-0.14l1.94-1.42c0.01-0.01 0.01-0.02 0.02-0.02 0.01-0.01 0.02-0.01 0.03-0.02 0.03-0.03 0.05-0.06 0.07-0.09 0.03-0.04 0.07-0.07 0.09-0.12 0.02-0.04 0.03-0.09 0.05-0.13 0.01-0.05 0.03-0.09 0.04-0.14s0-0.09-0.01-0.14c0-0.05 0-0.09-0.02-0.14-0.01-0.05-0.04-0.09-0.06-0.14-0.02-0.03-0.02-0.07-0.05-0.11-0.01-0.01-0.02-0.01-0.02-0.02-0.01-0.01-0.01-0.02-0.02-0.03l-1.67-1.91c-0.27-0.31-0.75-0.35-1.06-0.07-0.31 0.27-0.34 0.75-0.07 1.06l0.28 0.32c-0.14-0.01-0.28-0.03-0.43-0.03-3.17 0-5.75 2.58-5.75 5.75 0 3.17 2.58 5.75 5.75 5.75s5.75-2.58 5.75-5.75c0-1.16-0.33-2.26-0.97-3.21z"/>
</svg>
