<?xml version="1.0" encoding="UTF-8"?>
<svg width="24" height="24" viewBox="0 0 24 24" xmlns="http://www.w3.org/2000/svg">
 <path d="m12 22c5.5228 0 10-4.4772 10-10 0-5.5228-4.4772-10-10-10-5.5228 0-10 4.4772-10 10 0 5.5228 4.4772 10 10 10z" opacity=".4"/>
 <path d="m14.9 7.5899h-5.59l0.41-0.41004c0.29-0.29 0.29-0.77 0-1.06s-0.76999-0.29-1.06 0l-1.69 1.69c-0.07 0.07-0.12 0.14999-0.16 0.23999-0.08 0.18-0.08 0.39 0 0.57 0.04 0.09 0.09 0.16999 0.16 0.23999l1.69 1.69c0.15 0.15 0.33999 0.2201 0.52999 0.2201s0.38-0.0701 0.53-0.2201c0.29-0.29 0.29-0.76996 0-1.06l-0.41-0.40997h5.59c0.47 0 0.85 0.37997 0.85 0.84997v1.7701c0 0.41 0.34 0.75 0.75 0.75s0.75-0.34 0.75-0.75v-1.7701c0-1.28-1.06-2.34-2.35-2.34z"/>
 <path d="m17.19 15.37c-0.04-0.09-0.09-0.17-0.16-0.24l-1.69-1.69c-0.29-0.29-0.77-0.29-1.06 0s-0.29 0.77 0 1.06l0.41 0.4099h-5.59c-0.47 0-0.85001-0.3799-0.85001-0.8499v-1.7701c0-0.41-0.34-0.75-0.75-0.75s-0.75 0.34-0.75 0.75v1.7701c0 1.3 1.06 2.3499 2.35 2.3499h5.59l-0.41 0.4101c-0.29 0.29-0.29 0.77 0 1.06 0.15 0.15 0.34 0.2199 0.53 0.2199s0.38-0.0699 0.53-0.2199l1.69-1.69c0.07-0.07 0.12-0.15 0.16-0.24 0.08-0.19 0.08-0.4 0-0.58z"/>
</svg>
