<?xml version="1.0" encoding="UTF-8"?>
<svg width="24" height="24" viewBox="0 0 24 24" xmlns="http://www.w3.org/2000/svg">
 <path d="m3.66 16.931c-0.19 0-0.38-0.07-0.53-0.22-1.37-1.38-2.13-3.2-2.13-5.13 0-4.01 3.25-7.27 7.25-7.27l6.07 0.02002-1.09-1.04c-0.3-0.29-0.31-0.76-0.02-1.06s0.76-0.30996 1.06-0.01996l2.44 2.34c0.22 0.21 0.29 0.54001 0.18 0.82001s-0.39 0.47003-0.7 0.47003l-7.95-0.02002c-3.17 0-5.75 2.59-5.75 5.77 0 1.53 0.59998 2.98 1.69 4.07 0.29 0.29 0.29 0.77 0 1.06-0.14 0.14-0.32999 0.21-0.51999 0.21z" opacity=".4"/>
 <path d="m9.7499 21.501c-0.19 0-0.37-0.07-0.52-0.21l-2.44-2.34c-0.22-0.21-0.29-0.54-0.18-0.82s0.39-0.47 0.7-0.47l7.95 0.02c3.17 0 5.75-2.59 5.75-5.77 0-1.53-0.6-2.9799-1.69-4.0699-0.29-0.29-0.29-0.77 0-1.06s0.77-0.29 1.06 0c1.37 1.38 2.13 3.2 2.13 5.1299 0 4.01-3.25 7.27-7.25 7.27l-6.07-0.02 1.09 1.04c0.3 0.29 0.31 0.76 0.02 1.06-0.16 0.16-0.35 0.24-0.55 0.24z" opacity=".4"/>
 <path d="m9 15.5h6c1.93 0 3.5-1.58 3.5-3.5s-1.57-3.5-3.5-3.5h-6c-1.93 0-3.5 1.58-3.5 3.5s1.57 3.5 3.5 3.5z"/>
</svg>
