<?xml version="1.0" encoding="UTF-8"?>
<svg width="24" height="24" viewBox="0 0 24 24" xmlns="http://www.w3.org/2000/svg">
 <path d="m17.42 4.4099h-12.03l1.88-1.8799c0.29-0.29 0.29-0.77006 0-1.0601s-0.77-0.29-1.06 0l-3.16 3.16c-0.07 0.07-0.11997 0.14999-0.15997 0.23999s-0.06003 0.18997-0.06003 0.28997 0.02003 0.20004 0.06003 0.29004 0.08997 0.16999 0.15997 0.23999l3.16 3.16c0.15 0.15 0.34 0.22003 0.53 0.22003s0.38-0.07003 0.53-0.22003c0.29-0.29 0.29-0.77 0-1.06l-1.88-1.88h12.03c1.24 0 2.25 1.01 2.25 2.25v3.3201c0 0.41 0.34 0.75 0.75 0.75s0.75-0.34 0.75-0.75v-3.3201c0-2.07-1.68-3.75-3.75-3.75z"/>
 <path d="m21.17 18.84c0-0.1-0.02-0.2-0.06-0.29s-0.09-0.17-0.16-0.24l-3.16-3.16c-0.29-0.29-0.77-0.29-1.06 0s-0.29 0.77 0 1.06l1.88 1.88h-12.03c-1.24 0-2.25-1.01-2.25-2.25v-3.32c0-0.41-0.34-0.75-0.75-0.75s-0.75 0.34-0.75 0.75v3.32c0 2.07 1.68 3.75 3.75 3.75h12.03l-1.88 1.88c-0.29 0.29-0.29 0.77 0 1.06 0.15 0.15 0.34 0.22 0.53 0.22s0.38-0.07 0.53-0.22l3.16-3.16c0.07-0.07 0.12-0.15 0.16-0.24s0.06-0.19 0.06-0.29z" opacity=".4"/>
</svg>
