<svg width="24" height="24" viewBox="0 0 24 24"  xmlns="http://www.w3.org/2000/svg">
<path d="M8.86987 4.94019L16.8699 4.94019C17.2799 4.94019 17.6199 5.28019 17.6199 5.69019C17.6199 6.10019 17.2799 6.44019 16.8699 6.44019L8.86987 6.44019C6.52987 6.44019 4.61987 8.35018 4.61987 10.6902C4.61987 13.0302 6.52987 14.9402 8.86987 14.9402L19.8699 14.9402C20.2799 14.9402 20.6199 15.2802 20.6199 15.6902C20.6199 16.1002 20.2799 16.4402 19.8699 16.4402L8.86987 16.4402C5.69987 16.4402 3.11987 13.8602 3.11987 10.6902C3.11987 7.52018 5.69987 4.94019 8.86987 4.94019Z" />
<path d="M17.5699 12.4402C17.7599 12.4402 17.9499 12.5102 18.0999 12.6602L20.6599 15.2202C20.9499 15.5102 20.9499 15.9902 20.6599 16.2802L18.0999 18.8402C17.8099 19.1302 17.3299 19.1302 17.0399 18.8402C16.7499 18.5502 16.7499 18.0702 17.0399 17.7802L19.0699 15.7502L17.0399 13.7202C16.7499 13.4302 16.7499 12.9502 17.0399 12.6602C17.1799 12.5102 17.3799 12.4402 17.5699 12.4402Z" />
</svg>
