<?xml version="1.0" encoding="UTF-8"?>
<svg width="24" height="24" viewBox="0 0 24 24" xmlns="http://www.w3.org/2000/svg">
 <path d="m21.97 18v1c0 1.65 0 3-3 3h-14c-3 0-3-1.35-3-3v-1c0-0.55 0.45-1 1-1h18c0.55 0 1 0.45 1 1z"/>
 <path d="m20.72 13v4h-17.45v-4c0-3.84 2.71-7.05 6.32-7.82 0.53998-0.12 1.1-0.18 1.68-0.18h1.45c0.58 0 1.15 0.06 1.69 0.18 3.61 0.78 6.31 3.98 6.31 7.82z" opacity=".4"/>
 <path d="m14.5 4.5c0 0.24-0.03 0.46-0.09 0.68-0.54-0.12-1.11-0.18-1.69-0.18h-1.45c-0.58 0-1.14 0.06-1.68 0.18-0.06-0.22-0.09-0.44-0.09-0.68 0-1.38 1.12-2.5 2.5-2.5s2.5 1.12 2.5 2.5z"/>
 <path d="m15 11.75h-6c-0.41 0-0.75-0.34-0.75-0.75s0.34-0.75 0.75-0.75h6c0.41 0 0.75 0.34 0.75 0.75s-0.34 0.75-0.75 0.75z"/>
</svg>
