<svg width="24" height="24" viewBox="0 0 24 24"  xmlns="http://www.w3.org/2000/svg">
<path d="M18.9702 22.75H4.97021C1.22021 22.75 1.22021 20.67 1.22021 19V18C1.22021 17.04 2.01021 16.25 2.97021 16.25H20.9702C21.9302 16.25 22.7202 17.04 22.7202 18V19C22.7202 20.67 22.7202 22.75 18.9702 22.75ZM2.97021 17.75C2.83021 17.75 2.72021 17.86 2.72021 18V19C2.72021 20.64 2.72021 21.25 4.97021 21.25H18.9702C21.2202 21.25 21.2202 20.64 21.2202 19V18C21.2202 17.86 21.1102 17.75 20.9702 17.75H2.97021Z" />
<path d="M20.7202 17.75H3.27021C2.86021 17.75 2.52021 17.41 2.52021 17V13C2.52021 8.9 5.43021 5.3 9.43021 4.45C10.0202 4.32 10.6402 4.25 11.2702 4.25H12.7202C13.3602 4.25 13.9802 4.32 14.5702 4.45C18.5702 5.31 21.4702 8.91 21.4702 13V17C21.4702 17.41 21.1402 17.75 20.7202 17.75ZM4.02021 16.25H19.9702V13C19.9702 9.61 17.5702 6.63 14.2502 5.91C13.7602 5.8 13.2502 5.75 12.7202 5.75H11.2702C10.7502 5.75 10.2402 5.8 9.75021 5.91C6.43021 6.62 4.02021 9.6 4.02021 13V16.25Z" />
<path d="M9.59021 5.93C9.26021 5.93 8.96021 5.71 8.87021 5.38C8.79021 5.09 8.75021 4.8 8.75021 4.5C8.75021 2.71 10.2102 1.25 12.0002 1.25C13.7902 1.25 15.2502 2.71 15.2502 4.5C15.2502 4.8 15.2102 5.09 15.1302 5.38C15.0302 5.76 14.6502 6 14.2502 5.91C13.7602 5.8 13.2502 5.75 12.7202 5.75H11.2702C10.7502 5.75 10.2402 5.8 9.75021 5.91C9.70021 5.92 9.65021 5.93 9.59021 5.93ZM11.2702 4.25H12.7202C13.0602 4.25 13.4102 4.27 13.7402 4.31C13.6502 3.43 12.9002 2.75 12.0002 2.75C11.1002 2.75 10.3602 3.43 10.2602 4.31C10.6002 4.27 10.9302 4.25 11.2702 4.25Z" />
<path d="M15.0002 11.75H9.00021C8.59021 11.75 8.25021 11.41 8.25021 11C8.25021 10.59 8.59021 10.25 9.00021 10.25H15.0002C15.4102 10.25 15.7502 10.59 15.7502 11C15.7502 11.41 15.4102 11.75 15.0002 11.75Z" />
</svg>
