<?xml version="1.0" encoding="UTF-8"?>
<svg width="24" height="24" viewBox="0 0 24 24" xmlns="http://www.w3.org/2000/svg">
 <path d="M16.75 22H12.25C8.5 22 7 20.5 7 16.75V12.25C7 8.5 8.5 7 12.25 7H16.75C20.5 7 22 8.5 22 12.25V16.75C22 20.5 20.5 22 16.75 22Z" opacity=".4"/>
 <path d="m2.75 10.5c0.41 0 0.75-0.34 0.75-0.75 0-2.96 2.06-5.44 4.83-6.09l-0.27 0.45c-0.21 0.36-0.1 0.82 0.26 1.03s0.82 0.1 1.03-0.26l1.05-1.75c0.14-0.23 0.14-0.52 0.01-0.75-0.14-0.23-0.39-0.38-0.66-0.38-4.27 0-7.75 3.48-7.75 7.75 0 0.41 0.34 0.75 0.75 0.75z"/>
</svg>
