<?xml version="1.0" encoding="UTF-8"?>
<svg width="24" height="24" viewBox="0 0 24 24" xmlns="http://www.w3.org/2000/svg">
 <path d="M7.81 2H16.18C19.83 2 22 4.17 22 7.81V16.18C22 19.82 19.83 21.99 16.19 21.99H7.81C4.17 22 2 19.83 2 16.19V7.81C2 4.17 4.17 2 7.81 2Z" opacity=".4"/>
 <path d="m12 18.58c-3.17 0-5.75-2.58-5.75-5.75 0-1.14 0.33-2.25 0.97-3.19 0.23-0.34 0.7-0.44 1.04-0.21s0.44 0.7 0.21 1.04c-0.47 0.7-0.71 1.52-0.71 2.36 0 2.34 1.91 4.25 4.25 4.25s4.25-1.91 4.25-4.25c0-2.24-1.74-4.08-3.94-4.24l0.41 0.3c0.33 0.24 0.41 0.71 0.16 1.05-0.24 0.33-0.71 0.41-1.05 0.16l-1.94-1.41c-0.07-0.05-0.13-0.11-0.18-0.18-0.01-0.01-0.02-0.02-0.03-0.04-0.04-0.07-0.07-0.15-0.09-0.23-0.02-0.1-0.02-0.19-0.01-0.29l0.03-0.12c0.02-0.07 0.06-0.13 0.1-0.2 0.02-0.01 0.04-0.03 0.06-0.05l1.66-1.9c0.27-0.31 0.75-0.34 1.06-0.07s0.34 0.75 0.07 1.06l-0.37 0.43c3.08 0.1 5.56 2.64 5.56 5.75-0.01 3.15-2.59 5.73-5.76 5.73z"/>
</svg>
