<svg width="24" height="24" viewBox="0 0 24 24"  xmlns="http://www.w3.org/2000/svg">
<path fill-rule="evenodd" clip-rule="evenodd" d="M7.57821 2.91194C4.8091 3.55436 2.75 6.03342 2.75 9C2.75 9.41421 2.41421 9.75 2 9.75C1.58579 9.75 1.25 9.41421 1.25 9C1.25 4.71579 4.71579 1.25 9 1.25C9.2702 1.25 9.51952 1.39534 9.65265 1.63047C9.78578 1.8656 9.78214 2.15417 9.64312 2.38587L8.59313 4.13587C8.38002 4.49105 7.91933 4.60623 7.56414 4.39312C7.20896 4.18001 7.09378 3.71932 7.30689 3.36413L7.57821 2.91194ZM22 14.25C22.4142 14.25 22.75 14.5858 22.75 15C22.75 19.2842 19.2842 22.75 15 22.75C14.7298 22.75 14.4805 22.6047 14.3474 22.3695C14.2142 22.1344 14.2179 21.8458 14.3569 21.6141L15.4069 19.8641C15.62 19.5089 16.0807 19.3938 16.4359 19.6069C16.791 19.82 16.9062 20.2807 16.6931 20.6359L16.4218 21.0881C19.1909 20.4456 21.25 17.9666 21.25 15C21.25 14.5858 21.5858 14.25 22 14.25Z" />
<path d="M16.3999 8.20996L12.6399 6.17996C12.2399 5.96996 11.7699 5.96996 11.3699 6.17996L7.60989 8.20996C7.33989 8.35996 7.16992 8.64996 7.16992 8.97996C7.16992 9.30996 7.33989 9.59996 7.60989 9.74996L11.3699 11.78C11.5699 11.89 11.7899 11.94 12.0099 11.94C12.2299 11.94 12.4499 11.89 12.6499 11.78L16.4099 9.74996C16.6799 9.59996 16.8499 9.30996 16.8499 8.97996C16.8399 8.64996 16.6699 8.35996 16.3999 8.20996Z" />
<path opacity="0.4" d="M10.74 12.4704L7.23999 10.7204C6.96999 10.5904 6.65999 10.6004 6.39999 10.7604C6.13999 10.9204 5.98999 11.1904 5.98999 11.4904V14.8004C5.98999 15.3704 6.31001 15.8904 6.82001 16.1404L10.32 17.8904C10.44 17.9504 10.57 17.9804 10.71 17.9804C10.87 17.9804 11.02 17.9404 11.16 17.8504C11.42 17.6904 11.57 17.4204 11.57 17.1204V13.8104C11.57 13.2404 11.26 12.7304 10.74 12.4704Z" />
<path opacity="0.4" d="M17.5899 10.7604C17.3299 10.6004 17.0199 10.5904 16.7499 10.7204L13.2499 12.4704C12.7399 12.7304 12.4199 13.2404 12.4199 13.8104V17.1204C12.4199 17.4204 12.5699 17.6904 12.8299 17.8504C12.9699 17.9404 13.1199 17.9804 13.2799 17.9804C13.4099 17.9804 13.5399 17.9504 13.6699 17.8904L17.1699 16.1404C17.6799 15.8804 17.9999 15.3704 17.9999 14.8004V11.4904C17.9999 11.1904 17.8499 10.9204 17.5899 10.7604Z" />
</svg>
