<svg width="24" height="24" viewBox="0 0 24 24"  xmlns="http://www.w3.org/2000/svg">
<path d="M12.0001 22.7501C6.80008 22.7501 2.58008 18.5201 2.58008 13.3301C2.58008 11.4601 3.13008 9.65012 4.17008 8.09012C4.40008 7.75012 4.87008 7.65012 5.21008 7.88012C5.55008 8.11012 5.65008 8.58012 5.42008 8.92012C4.55008 10.2201 4.09008 11.7501 4.09008 13.3201C4.09008 17.6901 7.64008 21.2401 12.0101 21.2401C16.3801 21.2401 19.9301 17.6901 19.9301 13.3201C19.9301 8.95012 16.3701 5.40012 12.0001 5.40012C11.0801 5.40012 10.1801 5.53012 9.33008 5.79012C8.93008 5.91012 8.51008 5.69012 8.39008 5.29012C8.27008 4.89012 8.49008 4.47012 8.89008 4.35012C9.89008 4.05012 10.9301 3.89012 12.0001 3.89012C17.2001 3.89012 21.4201 8.12012 21.4201 13.3101C21.4201 18.5001 17.2001 22.7501 12.0001 22.7501Z" />
<path d="M7.87008 6.07012C7.70008 6.07012 7.52008 6.01012 7.38008 5.89012C7.06008 5.61012 7.03008 5.14012 7.30008 4.83012L10.1901 1.51012C10.4601 1.20012 10.9401 1.16012 11.2501 1.44012C11.5601 1.71012 11.5901 2.19012 11.3201 2.50012L8.43008 5.81012C8.28008 5.98012 8.07008 6.07012 7.87008 6.07012Z" />
<path d="M11.2401 8.53012C11.0901 8.53012 10.9301 8.48012 10.8001 8.39012L7.42008 5.92012C7.09008 5.68012 7.02008 5.21012 7.26008 4.88012C7.50008 4.54012 7.97008 4.47012 8.31008 4.71012L11.6801 7.17012C12.0101 7.41012 12.0901 7.88012 11.8401 8.22012C11.7001 8.43012 11.4701 8.53012 11.2401 8.53012Z" />
</svg>
