<?xml version="1.0" encoding="UTF-8"?>
<svg width="24" height="24" viewBox="0 0 24 24" xmlns="http://www.w3.org/2000/svg">
 <path d="M7.81 2H16.18C19.83 2 22 4.17 22 7.81V16.18C22 19.82 19.83 21.99 16.19 21.99H7.81C4.17 22 2 19.83 2 16.19V7.81C2 4.17 4.17 2 7.81 2Z" opacity=".4"/>
 <path d="m12 18.58c-3.17 0-5.75-2.58-5.75-5.75 0-3.11 2.48-5.64 5.56-5.75l-0.37-0.43c-0.27-0.31-0.24-0.79 0.07-1.06s0.79-0.24 1.06 0.07l1.66 1.9c0.02 0.02 0.03 0.04 0.05 0.06 0.04 0.06 0.08 0.13 0.1 0.2l0.03 0.12c0.02 0.09 0.01 0.19-0.01 0.28-0.02 0.08-0.05 0.16-0.09 0.24-0.01 0.02-0.03 0.04-0.04 0.06-0.04 0.06-0.1 0.11-0.16 0.15 0 0-0.01 0-0.01 0.01l-1.94 1.42c-0.34 0.24-0.8 0.17-1.05-0.15998-0.24-0.33-0.17-0.8 0.16-1.05l0.41-0.3c-2.2 0.16-3.94 2-3.94 4.24 0 2.34 1.91 4.25 4.25 4.25s4.25-1.91 4.25-4.25c0-0.84-0.25-1.66-0.71-2.36-0.23-0.34-0.14-0.80998 0.21-1.04s0.81-0.14 1.04 0.21c0.63 0.94998 0.97 2.05 0.97 3.19 0 3.17-2.58 5.75-5.75 5.75z"/>
</svg>
