<svg width="24" height="24" viewBox="0 0 24 24"  xmlns="http://www.w3.org/2000/svg">
<path d="M5.47015 10.75C4.76015 10.75 4.04015 10.49 3.49015 9.96C1.65015 8.21 0.910155 6.3 1.34016 4.43C1.85016 2.23 3.78015 1.25 5.47015 1.25C7.16015 1.25 9.10016 2.24 9.60016 4.43C10.0302 6.3 9.28015 8.21 7.45015 9.96C6.90015 10.49 6.19015 10.75 5.47015 10.75ZM2.80015 4.77C2.42015 6.44 3.53016 7.92 4.53016 8.87C5.06016 9.38 5.89016 9.37 6.42016 8.87C7.42016 7.92 8.53016 6.44 8.14016 4.76C7.80016 3.28 6.49015 2.75 5.48015 2.75C4.46016 2.75 3.15015 3.28 2.80015 4.77Z" />
<path d="M5.51016 6.2C4.96016 6.2 4.51016 5.75 4.51016 5.2C4.51016 4.65 4.95016 4.2 5.51016 4.2H5.52015C6.07015 4.2 6.52015 4.65 6.52015 5.2C6.52015 5.75 6.07016 6.2 5.51016 6.2Z" />
<path d="M18.4902 22.75C17.7802 22.75 17.0602 22.49 16.5002 21.96C14.6502 20.21 13.9002 18.3 14.3402 16.42C14.8502 14.23 16.7902 13.24 18.4902 13.24C20.1902 13.24 22.1302 14.23 22.6402 16.42C23.0702 18.29 22.3202 20.21 20.4702 21.95C19.9202 22.49 19.2102 22.75 18.4902 22.75ZM18.4902 14.75C17.4702 14.75 16.1502 15.28 15.8002 16.77C15.4102 18.44 16.5302 19.93 17.5302 20.88C18.0602 21.39 18.9002 21.39 19.4402 20.88C20.4402 19.93 21.5602 18.45 21.1702 16.78C20.8402 15.28 19.5202 14.75 18.4902 14.75Z" />
<path d="M18.5302 18.2C17.9802 18.2 17.5302 17.75 17.5302 17.2C17.5302 16.65 17.9702 16.2 18.5302 16.2H18.5402C19.0902 16.2 19.5402 16.65 19.5402 17.2C19.5402 17.75 19.0802 18.2 18.5302 18.2Z" />
<path d="M12.0002 19.75H9.32016C8.16016 19.75 7.15015 19.05 6.75015 17.97C6.34015 16.89 6.64016 15.7 7.51016 14.93L15.5002 7.94C15.9802 7.52 15.9902 6.95 15.8502 6.56C15.7002 6.17 15.3202 5.75 14.6802 5.75H12.0002C11.5902 5.75 11.2502 5.41 11.2502 5C11.2502 4.59 11.5902 4.25 12.0002 4.25H14.6802C15.8402 4.25 16.8502 4.95 17.2502 6.03C17.6602 7.11 17.3602 8.3 16.4902 9.07L8.50016 16.06C8.02016 16.48 8.01016 17.05 8.15016 17.44C8.30016 17.83 8.68016 18.25 9.32016 18.25H12.0002C12.4102 18.25 12.7502 18.59 12.7502 19C12.7502 19.41 12.4102 19.75 12.0002 19.75Z" />
<path d="M12.0002 19.75H9.32016C8.16016 19.75 7.15015 19.05 6.75015 17.97C6.34015 16.89 6.64016 15.7 7.51016 14.93L15.5002 7.94C15.9802 7.52 15.9902 6.95 15.8502 6.56C15.7002 6.17 15.3202 5.75 14.6802 5.75H12.0002C11.5902 5.75 11.2502 5.41 11.2502 5C11.2502 4.59 11.5902 4.25 12.0002 4.25H14.6802C15.8402 4.25 16.8502 4.95 17.2502 6.03C17.6602 7.11 17.3602 8.3 16.4902 9.07L8.50016 16.06C8.02016 16.48 8.01016 17.05 8.15016 17.44C8.30016 17.83 8.68016 18.25 9.32016 18.25H12.0002C12.4102 18.25 12.7502 18.59 12.7502 19C12.7502 19.41 12.4102 19.75 12.0002 19.75Z" />
</svg>
