<svg width="24" height="24" viewBox="0 0 24 24"  xmlns="http://www.w3.org/2000/svg">
<path d="M13.1802 18.7C12.0102 18.7 11.0202 17.98 10.6502 16.87L9.95023 14.8C9.84023 14.44 9.56023 14.17 9.22023 14.06L7.14023 13.36C6.02023 12.98 5.30023 11.97 5.32023 10.79C5.34023 9.60999 6.08023 8.62 7.21023 8.27L14.7402 5.92998C15.6902 5.63998 16.7202 5.89 17.4202 6.6C18.1202 7.31 18.3702 8.32999 18.0802 9.27999L15.7402 16.82C15.3902 17.95 14.4002 18.69 13.2102 18.71C13.2002 18.7 13.1902 18.7 13.1802 18.7ZM15.5202 7.29999C15.4002 7.29999 15.2902 7.32 15.1702 7.35L7.63023 9.69999C7.02023 9.88999 6.80023 10.39 6.80023 10.81C6.79023 11.22 7.00023 11.74 7.60023 11.94L9.68023 12.63C10.4802 12.89 11.1102 13.52 11.3702 14.33L12.0602 16.39C12.2602 16.99 12.7302 17.18 13.1902 17.2C13.6002 17.2 14.1102 16.98 14.3002 16.37L16.6402 8.82999C16.7702 8.40999 16.6602 7.97 16.3502 7.66C16.1202 7.42 15.8302 7.29999 15.5202 7.29999Z" />
<path d="M15 22.75H9C3.57 22.75 1.25 20.43 1.25 15V9C1.25 3.57 3.57 1.25 9 1.25H15C20.43 1.25 22.75 3.57 22.75 9V15C22.75 20.43 20.43 22.75 15 22.75ZM9 2.75C4.39 2.75 2.75 4.39 2.75 9V15C2.75 19.61 4.39 21.25 9 21.25H15C19.61 21.25 21.25 19.61 21.25 15V9C21.25 4.39 19.61 2.75 15 2.75H9Z" />
</svg>
