<?xml version="1.0" encoding="UTF-8"?>
<svg width="24" height="24" viewBox="0 0 24 24" xmlns="http://www.w3.org/2000/svg">
 <path d="m5 17h14c1.66 0 3-1.34 3-3v-4c0-1.66-1.34-3-3-3h-14c-1.66 0-3 1.34-3 3v4c0 1.66 1.34 3 3 3z" opacity=".4"/>
 <path d="m18.75 7v5c0 0.41-0.34 0.75-0.75 0.75s-0.75-0.34-0.75-0.75v-5h1.5z"/>
 <path d="m6.75 7v3.8c0 0.41-0.34 0.75-0.75 0.75s-0.75-0.34-0.75-0.75v-3.8h1.5z"/>
 <path d="m10.79 7-0.04 5.01c0 0.41-0.34 0.74-0.75 0.74h-0.01c-0.41 0-0.74-0.34-0.74-0.76l0.04-4.99h1.5z"/>
 <path d="m14.75 7v2.6c0 0.41-0.34 0.75-0.75 0.75s-0.75-0.34-0.75-0.75v-2.6h1.5z"/>
</svg>
