<?xml version="1.0" encoding="UTF-8"?>
<svg width="24" height="24" viewBox="0 0 24 24" xmlns="http://www.w3.org/2000/svg">
 <path d="m21.47 5v14c0 1.66-1.35 3-3 3h-4c-1.66 0-3-1.34-3-3v-14c0-1.66 1.34-3 3-3h4c1.65 0 3 1.34 3 3z" opacity=".4"/>
 <path d="m17.22 6c0 0.41-0.34 0.75-0.75 0.75h-5v-1.5h5c0.41 0 0.75 0.34 0.75 0.75z"/>
 <path d="m16.12 18c0 0.41-0.33 0.75-0.75 0.75h-3.9v-1.5h3.9c0.42 0 0.75 0.34 0.75 0.75z"/>
 <path d="m17.22 14.01c-0.01 0.41-0.34 0.74-0.75 0.74h-0.01l-4.99-0.05v-1.5l5 0.05c0.42 0 0.75 0.34 0.75 0.76z"/>
 <path d="m15.03 10c0 0.41-0.34 0.75-0.75 0.75h-2.81v-1.5h2.81c0.41 0 0.75 0.34 0.75 0.75z"/>
 <path d="m8.4398 4.95v12.96c0 0.45-0.19 1.14-0.42 1.52l-0.82 1.36c-0.94 1.58-2.48 1.58-3.43 0l-0.81-1.36c-0.24-0.38-0.43-1.07-0.43-1.52v-12.96c0-1.62 1.33-2.95 2.96-2.95 1.62 0 2.95 1.33 2.95 2.95z" opacity=".4"/>
 <path d="m8.4398 6.25h-5.91v1.5h5.91v-1.5z"/>
</svg>
