<svg width="24" height="24" viewBox="0 0 24 24"  xmlns="http://www.w3.org/2000/svg">
<path d="M18.4698 22.75H14.4698C12.0498 22.75 10.7198 21.42 10.7198 19V5C10.7198 2.58 12.0498 1.25 14.4698 1.25H18.4698C20.8898 1.25 22.2198 2.58 22.2198 5V19C22.2198 21.42 20.8798 22.75 18.4698 22.75ZM14.4698 2.75C12.8898 2.75 12.2198 3.42 12.2198 5V19C12.2198 20.58 12.8898 21.25 14.4698 21.25H18.4698C20.0498 21.25 20.7198 20.58 20.7198 19V5C20.7198 3.42 20.0498 2.75 18.4698 2.75H14.4698Z" />
<path d="M16.4698 6.75H11.4698C11.0598 6.75 10.7198 6.41 10.7198 6C10.7198 5.59 11.0598 5.25 11.4698 5.25H16.4698C16.8798 5.25 17.2198 5.59 17.2198 6C17.2198 6.41 16.8798 6.75 16.4698 6.75Z" />
<path d="M15.4698 18.75H11.4698C11.0598 18.75 10.7198 18.41 10.7198 18C10.7198 17.59 11.0598 17.25 11.4698 17.25H15.4698C15.8798 17.25 16.2198 17.59 16.2198 18C16.2198 18.41 15.8798 18.75 15.4698 18.75Z" />
<path d="M16.4698 14.75C16.4598 14.75 16.4598 14.75 16.4698 14.75L11.4598 14.7C11.0498 14.7 10.7098 14.36 10.7198 13.94C10.7198 13.53 11.0598 13.2 11.4698 13.2C11.4698 13.2 11.4698 13.2 11.4798 13.2L16.4798 13.25C16.8898 13.25 17.2298 13.59 17.2198 14.01C17.2098 14.42 16.8798 14.75 16.4698 14.75Z" />
<path d="M14.4698 10.75H11.4698C11.0598 10.75 10.7198 10.41 10.7198 10C10.7198 9.59 11.0598 9.25 11.4698 9.25H14.4698C14.8798 9.25 15.2198 9.59 15.2198 10C15.2198 10.41 14.8798 10.75 14.4698 10.75Z" />
<path d="M5.48978 22.72C4.57978 22.72 3.71979 22.16 3.12979 21.18L2.30979 19.82C2.00979 19.32 1.77979 18.5 1.77979 17.92V4.95C1.77979 2.91 3.43979 1.25 5.47979 1.25C7.51979 1.25 9.17979 2.91 9.17979 4.95V17.91C9.17979 18.49 8.94979 19.31 8.64979 19.81L7.82979 21.17C7.25979 22.16 6.39978 22.72 5.48978 22.72ZM5.48978 2.75C4.27978 2.75 3.28979 3.74 3.28979 4.95V17.91C3.28979 18.22 3.43979 18.77 3.59979 19.04L4.41979 20.4C4.72979 20.92 5.11978 21.21 5.48978 21.21C5.85978 21.21 6.24978 20.91 6.55978 20.4L7.37979 19.04C7.53979 18.77 7.68979 18.22 7.68979 17.91V4.95C7.68979 3.74 6.69978 2.75 5.48978 2.75Z" />
<path d="M8.43979 7.75H2.52979C2.11979 7.75 1.77979 7.41 1.77979 7C1.77979 6.59 2.11979 6.25 2.52979 6.25H8.43979C8.84979 6.25 9.18979 6.59 9.18979 7C9.18979 7.41 8.84979 7.75 8.43979 7.75Z" />
</svg>
