<?xml version="1.0" encoding="UTF-8"?>
<svg width="24" height="24" viewBox="0 0 24 24" xmlns="http://www.w3.org/2000/svg">
 <path d="m21.69 2.7103c-0.08-0.18-0.22-0.33004-0.41-0.41004-0.09-0.04-0.1901-0.06-0.2901-0.06h-9c-0.41 0-0.75 0.34-0.75 0.75s0.34 0.75 0.75 0.75h7.19l-16.72 16.72c-0.29 0.29-0.29 0.77 0 1.06 0.15 0.15 0.33996 0.2199 0.52996 0.2199s0.38003-0.0699 0.53003-0.2199l16.72-16.72v7.2c0 0.41 0.34 0.75 0.75 0.75s0.75-0.34 0.75-0.75v-9c0.01-0.1-0.0099-0.18997-0.0499-0.28997z"/>
 <path d="m17.4 18.149c-0.19 0-0.3801-0.0701-0.5301-0.2201l-10.8-10.8c-0.29-0.29-0.29-0.77 0-1.06s0.77-0.29 1.06 0l10.8 10.8c0.29 0.2899 0.29 0.7699 0 1.0599-0.15 0.15-0.3399 0.2201-0.5299 0.2201z" opacity=".4"/>
</svg>
