<svg width="24" height="24" viewBox="0 0 24 24"  xmlns="http://www.w3.org/2000/svg">
<path d="M21.6902 2.71027C21.6102 2.53027 21.4702 2.38023 21.2802 2.30023C21.1902 2.26023 21.0901 2.24023 20.9901 2.24023H11.9901C11.5801 2.24023 11.2401 2.58023 11.2401 2.99023C11.2401 3.40023 11.5801 3.74023 11.9901 3.74023H19.1801L2.46018 20.4603C2.17018 20.7503 2.17018 21.2303 2.46018 21.5203C2.61018 21.6703 2.80014 21.7402 2.99014 21.7402C3.18014 21.7402 3.37017 21.6703 3.52017 21.5203L20.2401 4.80023V12.0002C20.2401 12.4102 20.5801 12.7502 20.9901 12.7502C21.4001 12.7502 21.7401 12.4102 21.7401 12.0002V3.00024C21.7501 2.90024 21.7302 2.81027 21.6902 2.71027Z" />
<path opacity="0.4" d="M17.4001 18.1491C17.2101 18.1491 17.02 18.079 16.87 17.929L6.07004 7.12906C5.78004 6.83906 5.78004 6.35906 6.07004 6.06906C6.36004 5.77906 6.84004 5.77906 7.13004 6.06906L17.93 16.8691C18.22 17.159 18.22 17.639 17.93 17.929C17.78 18.079 17.5901 18.1491 17.4001 18.1491Z" />
</svg>
