<svg width="24" height="24" viewBox="0 0 24 24"  xmlns="http://www.w3.org/2000/svg">
<path d="M3.30023 22.7498C2.94023 22.7498 2.59022 22.6598 2.29022 22.4798C1.62022 22.0898 1.24023 21.3098 1.24023 20.3398V8.97977C1.24023 6.84977 2.97022 5.11975 5.10022 5.11975H12.8802C15.0102 5.11975 16.7402 6.84977 16.7402 8.97977V20.3398C16.7402 21.3098 16.3602 22.0798 15.6902 22.4798C15.0202 22.8698 14.1602 22.8297 13.3102 22.3597L9.38025 20.1698C9.19025 20.0598 8.79022 20.0598 8.60022 20.1698L4.67023 22.3597C4.21023 22.6197 3.74023 22.7498 3.30023 22.7498ZM5.11023 6.62976C3.81023 6.62976 2.75024 7.68975 2.75024 8.98975V20.3498C2.75024 20.7598 2.87024 21.0798 3.06024 21.1898C3.25024 21.2998 3.59026 21.2497 3.95026 21.0497L7.88025 18.8597C8.52025 18.5097 9.48024 18.5097 10.1202 18.8597L14.0502 21.0497C14.4102 21.2497 14.7402 21.2998 14.9402 21.1898C15.1302 21.0798 15.2502 20.7598 15.2502 20.3498V8.98975C15.2502 7.68975 14.1903 6.62976 12.8903 6.62976H5.11023Z" />
<path d="M14.69 22.7498C14.25 22.7498 13.79 22.6198 13.32 22.3698L9.39001 20.1797C9.20001 20.0797 8.78998 20.0797 8.59998 20.1797L4.67999 22.3698C3.82999 22.8398 2.95999 22.8797 2.29999 22.4897C1.62999 22.0997 1.25 21.3197 1.25 20.3597V8.99976C1.25 6.86976 2.97999 5.13977 5.10999 5.13977H12.89C15.02 5.13977 16.75 6.86976 16.75 8.99976V20.3597C16.75 21.3197 16.37 22.0997 15.7 22.4897C15.4 22.6597 15.06 22.7498 14.69 22.7498ZM9 18.5998C9.4 18.5998 9.79 18.6898 10.12 18.8698L14.05 21.0598C14.41 21.2598 14.7502 21.3098 14.9402 21.1898C15.1302 21.0798 15.2502 20.7598 15.2502 20.3498V8.98975C15.2502 7.68975 14.1903 6.62976 12.8903 6.62976H5.11023C3.81023 6.62976 2.75024 7.68975 2.75024 8.98975V20.3498C2.75024 20.7598 2.87024 21.0798 3.06024 21.1898C3.25024 21.2998 3.59026 21.2497 3.95026 21.0497L7.88025 18.8597C8.20025 18.6897 8.6 18.5998 9 18.5998Z" />
<path d="M20.69 18.8698C20.25 18.8698 19.79 18.7397 19.32 18.4897L15.63 16.4297C15.39 16.2997 15.25 16.0498 15.25 15.7798V8.99976C15.25 7.69976 14.19 6.63977 12.89 6.63977H8C7.59 6.63977 7.25 6.29977 7.25 5.88977V5.11975C7.25 2.98975 8.97999 1.25977 11.11 1.25977H18.89C21.02 1.25977 22.75 2.98975 22.75 5.11975V16.4798C22.75 17.4398 22.37 18.2197 21.7 18.6097C21.4 18.7797 21.06 18.8698 20.69 18.8698ZM16.75 15.3297L20.05 17.1797C20.41 17.3797 20.74 17.4298 20.94 17.3098C21.14 17.1898 21.25 16.8798 21.25 16.4698V5.10974C21.25 3.80974 20.19 2.74976 18.89 2.74976H11.11C9.80999 2.74976 8.75 3.80974 8.75 5.10974V5.12976H12.89C15.02 5.12976 16.75 6.85975 16.75 8.98975V15.3297Z" />
</svg>
