<?xml version="1.0" encoding="UTF-8"?>
<svg width="24" height="24" viewBox="0 0 24 24" xmlns="http://www.w3.org/2000/svg">
 <path d="m12.89 5.8799h-7.78c-1.71 0-3.11 1.4-3.11 3.11v11.36c0 1.45 1.04 2.07 2.31 1.36l3.93-2.19c0.42-0.23 1.1-0.23 1.51 0l3.93 2.19c1.27 0.71 2.31 0.09 2.31-1.36v-11.36c0.01-1.71-1.39-3.11-3.1-3.11z" opacity=".4"/>
 <path d="m22 5.11v11.36c0 1.45-1.04 2.06-2.31 1.36l-3.69-2.06v-6.78c0-1.71-1.4-3.11-3.11-3.11h-4.89v-0.77001c0-1.71 1.4-3.11 3.11-3.11h7.78c1.71 0 3.11 1.4 3.11 3.11z"/>
</svg>
