<?xml version="1.0" encoding="UTF-8"?>
<svg width="24" height="24" viewBox="0 0 24 24" xmlns="http://www.w3.org/2000/svg">
 <path d="m16 8.9899v11.36c0 1.45-1.04 2.06-2.31 1.36l-3.93-2.19c-0.42-0.23-1.1-0.23-1.52 0l-3.93 2.19c-1.27 0.7-2.31 0.09-2.31-1.36v-11.36c0-1.71 1.4-3.11 3.11-3.11h7.78c1.71 0 3.11 1.4 3.11 3.11z" opacity=".4"/>
 <path d="m10.06 12 0.88-0.88c0.29-0.29 0.29-0.77 0-1.06-0.29-0.29003-0.77-0.29003-1.06 0l-0.88 0.88-0.88-0.88c-0.29-0.29003-0.77-0.29003-1.06 0-0.29 0.29-0.29 0.77 0 1.06l0.88 0.88-0.88 0.88c-0.29 0.29-0.29 0.77 0 1.06 0.15 0.15 0.34 0.22 0.53 0.22s0.38-0.07 0.53-0.22l0.88-0.88 0.88 0.88c0.15001 0.15 0.34001 0.22 0.53001 0.22s0.38-0.07 0.53-0.22c0.29-0.29 0.29-0.77 0-1.06l-0.88-0.88z"/>
 <path d="m22 5.11v11.36c0 1.45-1.04 2.06-2.31 1.36l-3.69-2.06v-6.78c0-1.71-1.4-3.11-3.11-3.11h-4.89v-0.77001c0-1.71 1.4-3.11 3.11-3.11h7.78c1.71 0 3.11 1.4 3.11 3.11z"/>
</svg>
