<svg width="24" height="24" viewBox="0 0 24 24"  xmlns="http://www.w3.org/2000/svg">
<path d="M14.6902 22.7498C14.2502 22.7498 13.7902 22.6198 13.3202 22.3698L9.39023 20.1797C9.20023 20.0797 8.79023 20.0797 8.60023 20.1797L4.67023 22.3698C3.82023 22.8398 2.96023 22.8797 2.29023 22.4897C1.63023 22.0997 1.24023 21.3197 1.24023 20.3597V8.99976C1.24023 6.86976 2.97023 5.13977 5.10023 5.13977H12.8802C15.0102 5.13977 16.7402 6.86976 16.7402 8.99976V20.3597C16.7402 21.3197 16.3602 22.0997 15.6902 22.4897C15.4002 22.6597 15.0602 22.7498 14.6902 22.7498ZM9.00023 18.5998C9.40023 18.5998 9.79023 18.6898 10.1202 18.8698L14.0602 21.0598C14.4202 21.2598 14.7502 21.3098 14.9502 21.1898C15.1402 21.0798 15.2602 20.7598 15.2602 20.3498V8.98975C15.2602 7.68975 14.2002 6.62976 12.9002 6.62976H5.11023C3.81023 6.62976 2.75023 7.68975 2.75023 8.98975V20.3498C2.75023 20.7598 2.87023 21.0798 3.06023 21.1898C3.25023 21.2998 3.59023 21.2497 3.95023 21.0497L7.88023 18.8597C8.20023 18.6897 8.60023 18.5998 9.00023 18.5998Z" />
<path d="M7.58979 14.1598C7.39979 14.1598 7.20979 14.0898 7.05979 13.9398C6.76979 13.6498 6.76979 13.1698 7.05979 12.8798L9.88979 10.0498C10.1798 9.75978 10.6598 9.75978 10.9498 10.0498C11.2398 10.3398 11.2398 10.8198 10.9498 11.1098L8.11979 13.9398C7.96979 14.0898 7.77979 14.1598 7.58979 14.1598Z" />
<path d="M10.41 14.1598C10.22 14.1598 10.03 14.0898 9.88002 13.9398L7.05002 11.1098C6.76002 10.8198 6.76002 10.3398 7.05002 10.0498C7.34002 9.75978 7.82002 9.75978 8.11002 10.0498L10.94 12.8798C11.23 13.1698 11.23 13.6498 10.94 13.9398C10.8 14.0898 10.61 14.1598 10.41 14.1598Z" />
<path d="M20.69 18.8698C20.25 18.8698 19.79 18.7397 19.32 18.4897L15.63 16.4297C15.39 16.2997 15.25 16.0498 15.25 15.7798V8.99976C15.25 7.69976 14.19 6.63977 12.89 6.63977H8C7.59 6.63977 7.25 6.29977 7.25 5.88977V5.11975C7.25 2.98975 8.98 1.25977 11.11 1.25977H18.89C21.02 1.25977 22.75 2.98975 22.75 5.11975V16.4798C22.75 17.4398 22.37 18.2197 21.7 18.6097C21.4 18.7797 21.06 18.8698 20.69 18.8698ZM16.75 15.3297L20.06 17.1797C20.42 17.3797 20.75 17.4298 20.95 17.3098C21.14 17.1998 21.26 16.8798 21.26 16.4698V5.10974C21.26 3.80974 20.2 2.74976 18.9 2.74976H11.12C9.82 2.74976 8.76 3.80974 8.76 5.10974V5.12976H12.9C15.03 5.12976 16.76 6.85975 16.76 8.98975V15.3297H16.75Z" />
</svg>
