<?xml version="1.0" encoding="UTF-8"?>
<svg width="24" height="24" viewBox="0 0 24 24" xmlns="http://www.w3.org/2000/svg">
 <path d="m2 9.75c-0.41 0-0.75-0.34-0.75-0.75v-2.5c0-2.9 2.36-5.25 5.25-5.25h2.5c0.41 0 0.75 0.34 0.75 0.75s-0.34 0.75-0.75 0.75h-2.5c-2.07 0-3.75 1.68-3.75 3.75v2.5c0 0.41-0.34 0.75-0.75 0.75z" opacity=".4"/>
 <path d="m22 9.75c-0.41 0-0.75-0.34-0.75-0.75v-2.5c0-2.07-1.68-3.75-3.75-3.75h-2.5c-0.41 0-0.75-0.34-0.75-0.75s0.34-0.75 0.75-0.75h2.5c2.89 0 5.25 2.35 5.25 5.25v2.5c0 0.41-0.34 0.75-0.75 0.75z"/>
 <path d="m17.5 22.75h-1.5c-0.41 0-0.75-0.34-0.75-0.75s0.34-0.75 0.75-0.75h1.5c2.07 0 3.75-1.68 3.75-3.75v-1.5c0-0.41 0.34-0.75 0.75-0.75s0.75 0.34 0.75 0.75v1.5c0 2.9-2.36 5.25-5.25 5.25z" opacity=".4"/>
 <path d="m9 22.75h-2.5c-2.89 0-5.25-2.35-5.25-5.25v-2.5c0-0.41 0.34-0.75 0.75-0.75s0.75 0.34 0.75 0.75v2.5c0 2.07 1.68 3.75 3.75 3.75h2.5c0.41 0 0.75 0.34 0.75 0.75s-0.34 0.75-0.75 0.75z"/>
 <path d="m9 5.25h-2c-1.14 0-1.75 0.6-1.75 1.75v2c0 1.15 0.61 1.75 1.75 1.75h2c1.14 0 1.75-0.6 1.75-1.75v-2c0-1.15-0.61-1.75-1.75-1.75z"/>
 <path d="m17 5.25h-2c-1.14 0-1.75 0.6-1.75 1.75v2c0 1.15 0.61 1.75 1.75 1.75h2c1.14 0 1.75-0.6 1.75-1.75v-2c0-1.15-0.61-1.75-1.75-1.75z" opacity=".4"/>
 <path d="m9 13.25h-2c-1.14 0-1.75 0.6-1.75 1.75v2c0 1.15 0.61 1.75 1.75 1.75h2c1.14 0 1.75-0.6 1.75-1.75v-2c0-1.15-0.61-1.75-1.75-1.75z" opacity=".4"/>
 <path d="m17 13.25h-2c-1.14 0-1.75 0.6-1.75 1.75v2c0 1.15 0.61 1.75 1.75 1.75h2c1.14 0 1.75-0.6 1.75-1.75v-2c0-1.15-0.61-1.75-1.75-1.75z"/>
</svg>
