<?xml version="1.0" encoding="UTF-8"?>
<svg width="24" height="24" viewBox="0 0 24 24" xmlns="http://www.w3.org/2000/svg">
 <path d="m16.19 2h-8.37c-3.64 0-5.81 2.17-5.81 5.81v8.37c0 3.64 2.17 5.81 5.81 5.81h8.37c3.64 0 5.81-2.17 5.81-5.81v-8.37c0-3.64-2.17-5.81-5.81-5.81z" opacity=".4"/>
 <path d="m14.17 11.99 3.6-2.69c0.33-0.25 0.4-0.72 0.15-1.05s-0.72-0.4-1.05-0.15l-3.95 2.95-2.4-1.8c0.01-0.09 0.03-0.18 0.03-0.28 0-1.27-1.03-2.3-2.3-2.3s-2.3 1.03-2.3 2.3c0 1.27 1.03 2.3 2.3 2.3 0.62 0 1.18-0.25 1.6-0.65l1.83 1.37-1.84 1.38c-0.41-0.39-0.97002-0.64-1.58-0.64-1.27 0-2.3 1.03-2.3 2.3s1.03 2.3 2.3 2.3 2.3-1.03 2.3-2.3c0-0.1-0.02-0.2-0.03-0.3l2.41-1.8 3.95 2.95c0.13 0.1 0.29 0.15 0.45 0.15 0.23 0 0.45-0.1 0.6-0.3 0.25-0.33 0.18-0.8-0.15-1.05l-3.62-2.69z"/>
</svg>
