<?xml version="1.0" encoding="UTF-8"?>
<svg width="24" height="24" viewBox="0 0 24 24" xmlns="http://www.w3.org/2000/svg">
 <path d="m5.5 10c1.933 0 3.5-1.567 3.5-3.5s-1.567-3.5-3.5-3.5-3.5 1.567-3.5 3.5 1.567 3.5 3.5 3.5z"/>
 <path d="m5.5 21c1.933 0 3.5-1.567 3.5-3.5s-1.567-3.5-3.5-3.5-3.5 1.567-3.5 3.5 1.567 3.5 3.5 3.5z"/>
 <path d="m15.25 11.98 7.2-5.38c0.33-0.25 0.4-0.72 0.15-1.05s-0.72-0.4-1.05-0.15l-7.55 5.65-5.55-4.15c-0.33-0.25-0.80002-0.18-1.05 0.15s-0.18 0.8 0.15 1.05l5.2 3.89-5.9 4.42c-0.33 0.25-0.39999 0.72-0.14999 1.05 0.15 0.2 0.36998 0.3 0.59998 0.3 0.16 0 0.31001-0.05 0.45001-0.15l6.26-4.68 7.55 5.65c0.13 0.1 0.29 0.15 0.45 0.15 0.23 0 0.45-0.1 0.6-0.3 0.25-0.33 0.18-0.8-0.15-1.05l-7.21-5.4z" opacity=".4"/>
</svg>
