<svg width="25" height="24" viewBox="0 0 25 24"  xmlns="http://www.w3.org/2000/svg">
<path d="M6.49023 10C8.42323 10 9.99023 8.433 9.99023 6.5C9.99023 4.567 8.42323 3 6.49023 3C4.55724 3 2.99023 4.567 2.99023 6.5C2.99023 8.433 4.55724 10 6.49023 10Z" />
<path d="M6.49023 21C8.42323 21 9.99023 19.433 9.99023 17.5C9.99023 15.567 8.42323 14 6.49023 14C4.55724 14 2.99023 15.567 2.99023 17.5C2.99023 19.433 4.55724 21 6.49023 21Z" />
<path opacity="0.4" d="M16.2403 11.9798L23.4403 6.59978C23.7703 6.34978 23.8403 5.87978 23.5903 5.54978C23.3403 5.21978 22.8703 5.14978 22.5403 5.39978L14.9903 11.0498L9.44031 6.89978C9.11031 6.64978 8.6403 6.71978 8.3903 7.04978C8.1403 7.37978 8.21029 7.84978 8.54029 8.09978L13.7403 11.9898L7.84031 16.4098C7.51031 16.6598 7.44031 17.1298 7.69031 17.4598C7.84031 17.6598 8.06029 17.7598 8.29029 17.7598C8.45029 17.7598 8.6003 17.7098 8.7403 17.6098L15.0003 12.9298L22.5503 18.5798C22.6803 18.6798 22.8403 18.7298 23.0003 18.7298C23.2303 18.7298 23.4503 18.6298 23.6003 18.4298C23.8503 18.0998 23.7803 17.6298 23.4503 17.3798L16.2403 11.9798Z" />
</svg>
