<?xml version="1.0" encoding="UTF-8"?>
<svg width="24" height="24" viewBox="0 0 24 24" xmlns="http://www.w3.org/2000/svg">
 <path d="m11.5 21c5.2467 0 9.5-4.2533 9.5-9.5 0-5.2467-4.2533-9.5-9.5-9.5-5.2467 0-9.5 4.2533-9.5 9.5 0 5.2467 4.2533 9.5 9.5 9.5z" opacity=".4"/>
 <path d="m21.3 22c-0.18 0-0.36-0.07-0.49-0.2l-1.86-1.86c-0.27-0.27-0.27-0.71 0-0.99 0.27-0.27 0.71-0.27 0.99 0l1.86 1.86c0.27 0.27 0.27 0.71 0 0.99-0.14 0.13-0.32 0.2-0.5 0.2z"/>
 <path d="m13.27 8.8909c-0.63-0.2-1.3-0.08-1.78 0.29-0.49-0.37-1.14-0.49-1.77-0.29-1.36 0.44-1.79 1.99-1.41 3.17 0.58 1.81 2.49 2.75 3.18 2.75 0.67 0 2.62-0.96 3.18-2.75 0.39-1.18-0.04-2.73-1.4-3.17z"/>
</svg>
