<?xml version="1.0" encoding="UTF-8"?>
<svg width="24" height="24" viewBox="0 0 24 24" xmlns="http://www.w3.org/2000/svg">
 <path d="m11 20.01c4.9761 0 9.01-4.0339 9.01-9.01 0-4.976-4.0339-9.01-9.01-9.01-4.976 0-9.01 4.0339-9.01 9.01 0 4.9761 4.0339 9.01 9.01 9.01z" opacity=".4"/>
 <path d="m12.77 8.2894c-0.63-0.2-1.3-0.08-1.78 0.29-0.49-0.37-1.14-0.49-1.77-0.29-1.36 0.44-1.79 1.99-1.41 3.17 0.58 1.81 2.49 2.75 3.18 2.75 0.67 0 2.62-0.96 3.18-2.75 0.39-1.18-0.04-2.73-1.4-3.17z"/>
 <path d="m21.99 18.95c-0.33-0.61-1.03-0.95-1.97-0.95-0.71 0-1.32 0.29-1.68 0.79s-0.44 1.17-0.22 1.84c0.43 1.3 1.18 1.59 1.59 1.64 0.06 0.01 0.12 0.01 0.19 0.01 0.44 0 1.12-0.19 1.78-1.18 0.53-0.77 0.63-1.54 0.31-2.15z"/>
</svg>
