<svg width="24" height="24" viewBox="0 0 24 24"  xmlns="http://www.w3.org/2000/svg">
<path opacity="0.4" d="M11.5 21C16.7467 21 21 16.7467 21 11.5C21 6.25329 16.7467 2 11.5 2C6.25329 2 2 6.25329 2 11.5C2 16.7467 6.25329 21 11.5 21Z" />
<path d="M21.3001 22.0005C21.1201 22.0005 20.9401 21.9305 20.8101 21.8005L18.9501 19.9405C18.6801 19.6705 18.6801 19.2305 18.9501 18.9505C19.2201 18.6805 19.6601 18.6805 19.9401 18.9505L21.8001 20.8105C22.0701 21.0805 22.0701 21.5205 21.8001 21.8005C21.6601 21.9305 21.4801 22.0005 21.3001 22.0005Z" />
<path d="M13.2699 8.89093C12.6399 8.69093 11.9699 8.81093 11.4899 9.18093C10.9999 8.81093 10.3499 8.69093 9.71993 8.89093C8.35993 9.33093 7.92993 10.8809 8.30993 12.0609C8.88993 13.8709 10.7999 14.8109 11.4899 14.8109C12.1599 14.8109 14.1099 13.8509 14.6699 12.0609C15.0599 10.8809 14.6299 9.33093 13.2699 8.89093Z" />
</svg>
