<svg width="24" height="24" viewBox="0 0 24 24"  xmlns="http://www.w3.org/2000/svg">
<path d="M11.9998 22.7498C11.7598 22.7498 11.5199 22.7198 11.2899 22.6498C6.09986 21.2198 2.33984 16.3698 2.33984 11.1098V6.71978C2.33984 5.59978 3.14985 4.38983 4.18985 3.95983L9.75986 1.6798C11.2099 1.0898 12.7998 1.0898 14.2398 1.6798L19.8098 3.95983C20.8498 4.38983 21.6599 5.59978 21.6599 6.71978V11.1098C21.6599 16.3598 17.8898 21.2098 12.7098 22.6498C12.4798 22.7198 12.2398 22.7498 11.9998 22.7498ZM11.9998 2.74981C11.4298 2.74981 10.8698 2.85983 10.3298 3.07983L4.75986 5.3598C4.27986 5.5598 3.83984 6.20979 3.83984 6.72979V11.1198C3.83984 15.7098 7.13985 19.9498 11.6898 21.2098C11.8898 21.2698 12.1098 21.2698 12.3098 21.2098C16.8598 19.9498 20.1599 15.7098 20.1599 11.1198V6.72979C20.1599 6.20979 19.7198 5.5598 19.2398 5.3598L13.6699 3.07983C13.1299 2.85983 12.5698 2.74981 11.9998 2.74981Z" />
<path d="M12 13.2498C10.48 13.2498 9.25 12.0198 9.25 10.4998C9.25 8.97976 10.48 7.74976 12 7.74976C13.52 7.74976 14.75 8.97976 14.75 10.4998C14.75 12.0198 13.52 13.2498 12 13.2498ZM12 9.24976C11.31 9.24976 10.75 9.80976 10.75 10.4998C10.75 11.1898 11.31 11.7498 12 11.7498C12.69 11.7498 13.25 11.1898 13.25 10.4998C13.25 9.80976 12.69 9.24976 12 9.24976Z" />
<path d="M12 16.2498C11.59 16.2498 11.25 15.9098 11.25 15.4998V12.4998C11.25 12.0898 11.59 11.7498 12 11.7498C12.41 11.7498 12.75 12.0898 12.75 12.4998V15.4998C12.75 15.9098 12.41 16.2498 12 16.2498Z" />
</svg>
