<?xml version="1.0" encoding="UTF-8"?>
<svg width="24" height="24" viewBox="0 0 24 24" xmlns="http://www.w3.org/2000/svg">
 <path d="m18.33 5.67-11.74 11.74c-0.44 0.44-1.18 0.38-1.54-0.14-1.24-1.81-1.97-3.95-1.97-6.15v-4.39c0-0.82 0.62-1.75 1.38-2.06l5.57-2.28c1.26-0.52 2.66-0.52 3.92 0l4.04 1.65c0.67 0.27 0.84 1.13 0.34 1.63z" opacity=".4"/>
 <path d="m19.27 7.0401c0.65-0.55 1.64-0.08001 1.64 0.76999v3.31c0 4.89-3.55 9.47-8.4 10.81-0.33 0.09-0.69 0.09-1.03 0-1.42-0.4-2.74-1.07-3.87-1.95-0.48-0.37-0.52999-1.07-0.10999-1.5 2.18-2.23 8.56-8.73 11.77-11.44z"/>
</svg>
