<svg width="24" height="24" viewBox="0 0 24 24"  xmlns="http://www.w3.org/2000/svg">
<path opacity="0.4" d="M10.4899 2.23006L5.49991 4.10007C4.34991 4.53007 3.40991 5.89006 3.40991 7.12006V14.5501C3.40991 15.7301 4.18992 17.2801 5.13992 17.9901L9.43991 21.2001C10.8499 22.2601 13.1699 22.2601 14.5799 21.2001L18.8799 17.9901C19.8299 17.2801 20.6099 15.7301 20.6099 14.5501V7.12006C20.6099 5.89006 19.6699 4.53007 18.5199 4.10007L13.5299 2.23006C12.6799 1.92006 11.3199 1.92006 10.4899 2.23006Z" />
<path d="M11.8998 11.2998C11.9198 11.2998 11.9398 11.2998 11.9598 11.2998H11.9798H11.9998C13.1498 11.2598 14.0498 10.3298 14.0598 9.16978C14.0598 7.98978 13.0998 7.02979 11.9198 7.02979C10.7398 7.02979 9.77979 7.98978 9.77979 9.16978C9.79979 10.3198 10.6998 11.2598 11.8998 11.2998Z" />
<path d="M14.1899 13.4096C12.9799 12.6096 11.0199 12.6096 9.7999 13.4096C9.2399 13.7896 8.90991 14.3296 8.90991 14.8896C8.90991 15.4596 9.2299 15.9796 9.7999 16.3596C10.4099 16.7596 11.1999 16.9696 11.9899 16.9696C12.7799 16.9696 13.5799 16.7696 14.1799 16.3596C14.7399 15.9796 15.0699 15.4396 15.0699 14.8796C15.0799 14.3096 14.7599 13.7896 14.1899 13.4096Z" />
</svg>
