<?xml version="1.0" encoding="UTF-8"?>
<svg width="24" height="24" viewBox="0 0 24 24" xmlns="http://www.w3.org/2000/svg">
 <path d="m10.49 2.2301-4.99 1.87c-1.15 0.43-2.09 1.79-2.09 3.02v7.43c0 1.18 0.78001 2.73 1.73 3.44l4.3 3.21c1.41 1.06 3.7299 1.06 5.1399 0l4.3001-3.21c0.95-0.71 1.7299-2.26 1.7299-3.44v-7.43c0-1.23-0.94-2.59-2.09-3.02l-4.9899-1.87c-0.85-0.31-2.2101-0.31-3.0401 0z" opacity=".4"/>
 <path d="m11.9 11.3h0.06 0.04c1.15-0.04 2.05-0.97 2.06-2.13 0-1.18-0.96-2.14-2.14-2.14s-2.14 0.95999-2.14 2.14c0.02 1.15 0.92003 2.09 2.12 2.13z"/>
 <path d="m14.19 13.41c-1.21-0.8-3.1701-0.8-4.3901 0-0.56 0.38-0.88998 0.92-0.88998 1.48 0 0.57 0.31998 1.09 0.88998 1.47 0.60996 0.4 1.4 0.61 2.19 0.61s1.59-0.2 2.19-0.61c0.56-0.38 0.8901-0.92 0.8901-1.48 0.01-0.57-0.31-1.09-0.88-1.47z"/>
</svg>
