<?xml version="1.0" encoding="UTF-8"?>
<svg width="24" height="24" viewBox="0 0 24 24" xmlns="http://www.w3.org/2000/svg">
 <path d="m20.91 11.12c0 4.89-3.55 9.47-8.4 10.81-0.33 0.09-0.6901 0.09-1.0201 0-4.85-1.34-8.4-5.92-8.4-10.81v-4.39c0-0.82 0.62002-1.75 1.39-2.06l5.5699-2.28c1.25-0.51 2.66-0.51 3.91 0l5.57 2.28c0.76 0.31 1.3901 1.24 1.3901 2.06l-0.01 4.39z" opacity=".4"/>
 <path d="m14.5 10.5c0-1.38-1.12-2.5-2.5-2.5s-2.5 1.12-2.5 2.5c0 1.12 0.74 2.05 1.75 2.37v2.63c0 0.41 0.34 0.75 0.75 0.75s0.75-0.34 0.75-0.75v-2.63c1.01-0.32 1.75-1.25 1.75-2.37z"/>
</svg>
