<?xml version="1.0" encoding="UTF-8"?>
<svg width="24" height="24" viewBox="0 0 24 24" xmlns="http://www.w3.org/2000/svg">
 <path d="m9.4198 2.16-5.5 2.06c-1.05 0.39-1.91 1.64-1.91 2.76v8.1c0 0.81 0.53 1.88 1.18 2.36l5.5 4.11c0.97 0.73 2.56 0.73 3.53 0l5.5-4.11c0.65-0.49 1.18-1.55 1.18-2.36v-8.1c0-1.12-0.86-2.37-1.91-2.76l-5.5-2.06c-0.57-0.21-1.5-0.21-2.07 0z" opacity=".4"/>
 <path d="m19.26 6.76h-6.8499c-0.2 0-0.3901 0.01001-0.5701 0.01001-1.72 0.1-2.1799 0.73-2.1799 2.69v0.39c0 0.41418 0.33578 0.74998 0.75004 0.74998h10.84c0.4142 0 0.75-0.3358 0.75-0.74998v-0.39c0-2.16-0.5501-2.7-2.7401-2.7z"/>
 <path d="m10.42 11.7c-0.4142 0-0.74998 0.3358-0.74998 0.75v2.09c0 2.16 0.54998 2.71 2.74 2.71h6.85c2.15 0 2.72-0.52 2.74-2.59v-2.21c0-0.4142-0.3358-0.75-0.75-0.75h-10.83zm2.85 3.77h-1.25c-0.3 0-0.54-0.24-0.54-0.54s0.24-0.54 0.54-0.54h1.25c0.3 0 0.54 0.24 0.54 0.54s-0.24 0.54-0.54 0.54zm4.05 0h-2.49c-0.3 0-0.54-0.24-0.54-0.54s0.24-0.54 0.54-0.54h2.49c0.3 0 0.54 0.24 0.54 0.54 0.01 0.3-0.24 0.54-0.54 0.54z"/>
</svg>
