<?xml version="1.0" encoding="UTF-8"?>
<svg width="24" height="24" viewBox="0 0 24 24" xmlns="http://www.w3.org/2000/svg">
 <path d="m16.19 2h-8.37c-3.64 0-5.81 2.17-5.81 5.81v8.37c0 3.64 2.17 5.81 5.81 5.81h8.37c3.64 0 5.81-2.17 5.81-5.81v-8.37c0-3.64-2.17-5.81-5.81-5.81z" opacity=".4"/>
 <path d="m11.47 5.9797c0.2929-0.29289 0.7677-0.29289 1.0606 0l3 3c0.2929 0.29289 0.2929 0.76777 0 1.0606-0.2929 0.2929-0.7677 0.2929-1.0606 0l-2.4697-2.4696-2.4697 2.4696c-0.29289 0.2929-0.76777 0.2929-1.0607 0-0.29289-0.29285-0.29289-0.76773 0-1.0606l3-3z" clip-rule="evenodd" fill-rule="evenodd"/>
 <path d="m12 5.76c0.4142 0 0.75 0.33579 0.75 0.75v8c0 0.4142-0.3358 0.75-0.75 0.75s-0.75-0.3358-0.75-0.75v-8c0-0.41421 0.3358-0.75 0.75-0.75z" clip-rule="evenodd" fill-rule="evenodd"/>
 <path d="m5.2889 16.272c0.13129-0.3928 0.5562-0.6048 0.94905-0.4736 3.7357 1.2485 7.7889 1.2485 11.525 0 0.3928-0.1312 0.8177 0.0808 0.949 0.4736 0.1313 0.3929-0.0807 0.8178-0.4736 0.9491-4.0443 1.3516-8.4311 1.3516-12.475 0-0.39285-0.1313-0.60489-0.5562-0.47361-0.9491z" clip-rule="evenodd" fill-rule="evenodd"/>
</svg>
