<?xml version="1.0" encoding="UTF-8"?>
<svg width="24" height="24" viewBox="0 0 24 24" xmlns="http://www.w3.org/2000/svg">
 <path d="m20.5 22.8h-17c-0.4 0-0.8-0.2999-0.8-0.7999s0.3-0.8 0.8-0.8h17c0.4 0 0.8 0.3 0.8 0.8s-0.4 0.7999-0.8 0.7999z" opacity=".4"/>
 <path d="m19 18.2c-0.2 0-0.4-0.1-0.5-0.2l-14-14c-0.3-0.3-0.3-0.7 0-1s0.8-0.3 1.1 0l14 14c0.3 0.3 0.3 0.8 0 1.1-0.2 0.1-0.4 0.1-0.6 0.1z"/>
 <path d="m5.0002 14.5c-0.4 0-0.8-0.3-0.8-0.8v-10.2c0-0.4 0.3-0.8 0.8-0.8h10.3c0.4 0 0.8 0.3 0.8 0.8s-0.3 0.8-0.8 0.8h-9.5v9.5c0 0.4-0.4 0.7-0.8 0.7z"/>
</svg>
