<svg width="24" height="24" viewBox="0 0 24 24"  xmlns="http://www.w3.org/2000/svg">
<path opacity="0.4" d="M16.19 2H7.82002C4.18002 2 2.01001 4.17 2.01001 7.81V16.18C2.01001 19.82 4.18002 21.99 7.82002 21.99H16.19C19.83 21.99 22 19.82 22 16.18V7.81C22 4.17 19.83 2 16.19 2Z" />
<path d="M9.16985 14.0899C9.35985 14.0899 9.54985 14.0199 9.69985 13.8699L14.0799 9.48992V11.9199C14.0799 12.3299 14.4199 12.6699 14.8299 12.6699C15.2399 12.6699 15.5799 12.3299 15.5799 11.9199V7.67992C15.5799 7.57992 15.5599 7.48992 15.5199 7.38992C15.4399 7.20992 15.2998 7.05993 15.1098 6.97993C15.0198 6.93993 14.9199 6.91992 14.8199 6.91992H10.5799C10.1699 6.91992 9.82985 7.25992 9.82985 7.66992C9.82985 8.07992 10.1699 8.41992 10.5799 8.41992H13.0098L8.62985 12.7999C8.33985 13.0899 8.33985 13.5699 8.62985 13.8599C8.78985 14.0199 8.97985 14.0899 9.16985 14.0899Z" />
<path d="M18.7099 16.28C18.5799 15.89 18.1599 15.68 17.7599 15.81C14.0399 17.05 9.94993 17.05 6.22993 15.81C5.83993 15.68 5.40994 15.89 5.27994 16.28C5.14994 16.67 5.35994 17.1 5.74994 17.23C7.75994 17.9 9.86994 18.24 11.9899 18.24C14.1099 18.24 16.2199 17.9 18.2299 17.23C18.6299 17.09 18.8399 16.67 18.7099 16.28Z" />
</svg>
