<?xml version="1.0" encoding="UTF-8"?>
<svg width="24" height="24" viewBox="0 0 24 24" xmlns="http://www.w3.org/2000/svg">
 <path d="m7.1099 5.9603 9.02-3.01c4.05-1.35 6.25 0.86 4.91 4.91l-3.01 9.02c-2.02 6.07-5.34 6.07-7.36 0l-0.89-2.68-2.68-0.89c-6.06-2.01-6.06-5.32 0.01-7.35z" opacity=".4"/>
 <path d="m12.12 11.63 3.81-3.82-3.81 3.82z"/>
 <path d="m12.12 12.38c-0.19 0-0.38-0.07-0.53-0.22-0.29-0.29-0.29-0.77 0-1.06l3.8-3.82c0.29-0.29 0.77-0.29 1.06 0s0.29 0.77 0 1.06l-3.8 3.82c-0.15 0.14-0.34 0.22-0.53 0.22z"/>
</svg>
