<svg width="24" height="24" viewBox="0 0 24 24"  xmlns="http://www.w3.org/2000/svg">
<path opacity="0.4" d="M9.50978 4.22965L18.0698 8.50965C21.9098 10.4296 21.9098 13.5696 18.0698 15.4896L9.50978 19.7696C3.74978 22.6496 1.39978 20.2896 4.27978 14.5396L5.14978 12.8096C5.39978 12.2996 5.39978 11.7096 5.14978 11.1996L4.27978 9.45965C1.39978 3.70965 3.75978 1.34965 9.50978 4.22965Z" />
<path d="M14.8399 12.75H9.43994C9.02994 12.75 8.68994 12.41 8.68994 12C8.68994 11.59 9.02994 11.25 9.43994 11.25H14.8399C15.2499 11.25 15.5899 11.59 15.5899 12C15.5899 12.41 15.2499 12.75 14.8399 12.75Z" />
</svg>
