<?xml version="1.0" encoding="UTF-8"?>
<svg width="24" height="24" viewBox="0 0 24 24" xmlns="http://www.w3.org/2000/svg">
 <path d="m18.94 5.4204-5.17-2.99c-0.99-0.57-2.54-0.57-3.53 0l-5.22 3.01c-2.07 1.4-2.19 1.61-2.19 3.84v5.43c0 2.23 0.12 2.45 2.23 3.87l5.17 2.99c0.5 0.29 1.14 0.43 1.77 0.43s1.27-0.14 1.76-0.43l5.22-3.01c2.07-1.4 2.19-1.61 2.19-3.84v-5.44c0-2.23-0.12-2.44-2.23-3.86z" opacity=".4"/>
 <path d="m12 15.25c1.7949 0 3.25-1.4551 3.25-3.25s-1.4551-3.25-3.25-3.25-3.25 1.4551-3.25 3.25 1.4551 3.25 3.25 3.25z"/>
</svg>
