<?xml version="1.0" encoding="UTF-8"?>
<svg width="24" height="24" viewBox="0 0 24 24" xmlns="http://www.w3.org/2000/svg">
 <path d="m21.23 7.6205h-5.54c-0.38 0-0.69-0.31-0.69-0.7 0-0.38 0.31-0.69 0.69-0.69h5.54c0.38 0 0.69 0.31 0.69 0.69 0 0.39-0.31 0.7-0.69 0.7z" opacity=".4"/>
 <path d="m6.4601 7.6202h-3.69c-0.38 0-0.69-0.31-0.69-0.69s0.31-0.69 0.69-0.69h3.69c0.38 0 0.69 0.31 0.69 0.69s-0.31 0.69-0.69 0.69z" opacity=".4"/>
 <path d="m10.15 10.84c2.1649 0 3.92-1.755 3.92-3.92s-1.7551-3.92-3.92-3.92c-2.165 0-3.92 1.755-3.92 3.92s1.755 3.92 3.92 3.92z"/>
 <path d="m21.23 17.77h-3.69c-0.38 0-0.69-0.31-0.69-0.69s0.31-0.69 0.69-0.69h3.69c0.38 0 0.69 0.31 0.69 0.69s-0.31 0.69-0.69 0.69z" opacity=".4"/>
 <path d="m8.3101 17.77h-5.54c-0.38 0-0.69-0.31-0.69-0.69s0.31-0.69 0.69-0.69h5.54c0.38 0 0.69 0.31 0.69 0.69s-0.31 0.69-0.69 0.69z" opacity=".4"/>
 <path d="m13.85 21c2.1649 0 3.92-1.7551 3.92-3.92 0-2.165-1.7551-3.92-3.92-3.92-2.165 0-3.92 1.755-3.92 3.92 0 2.1649 1.755 3.92 3.92 3.92z"/>
</svg>
