<?xml version="1.0" encoding="UTF-8"?>
<svg width="24" height="24" viewBox="0 0 24 24" xmlns="http://www.w3.org/2000/svg">
 <path d="M16.19 2H7.81C4.17 2 2 4.17 2 7.81V16.18C2 19.83 4.17 22 7.81 22H16.18C19.82 22 21.99 19.83 21.99 16.19V7.81C22 4.17 19.83 2 16.19 2Z" opacity=".4"/>
 <path d="m15.58 19.25c-0.41 0-0.75-0.34-0.75-0.75v-3.9c0-0.41 0.34-0.75 0.75-0.75s0.75 0.34 0.75 0.75v3.9c0 0.41-0.34 0.75-0.75 0.75z"/>
 <path d="m15.58 8.2c-0.41 0-0.75-0.34-0.75-0.75v-1.95c0-0.41 0.34-0.75 0.75-0.75s0.75 0.34 0.75 0.75v1.95c0 0.41-0.34 0.75-0.75 0.75z"/>
 <path d="m8.4199 19.25c-0.41 0-0.75-0.34-0.75-0.75v-1.95c0-0.41 0.34-0.75 0.75-0.75s0.75 0.34 0.75 0.75v1.95c0 0.41-0.33 0.75-0.75 0.75z"/>
 <path d="m8.4199 10.15c-0.41 0-0.75-0.34-0.75-0.75v-3.9c0-0.41 0.34-0.75 0.75-0.75s0.75 0.34 0.75 0.75v3.9c0 0.41-0.33 0.75-0.75 0.75z"/>
 <path d="m15.58 7.3301c-1.5 0-2.73 1.22-2.73 2.72 0 1.5 1.22 2.73 2.73 2.73 1.5 0 2.72-1.22 2.72-2.73 0-1.51-1.22-2.72-2.72-2.72z"/>
 <path d="m8.4202 11.23c-1.5 0-2.72 1.22-2.72 2.73s1.22 2.72 2.72 2.72 2.73-1.22 2.73-2.72-1.22-2.73-2.73-2.73z"/>
</svg>
