<svg width="24" height="24" viewBox="0 0 24 24"  xmlns="http://www.w3.org/2000/svg">
<path opacity="0.4" d="M18.9401 5.42043L13.7701 2.43043C12.7801 1.86043 11.2301 1.86043 10.2401 2.43043L5.02008 5.44043C2.95008 6.84043 2.83008 7.05043 2.83008 9.28043V14.7104C2.83008 16.9404 2.95008 17.1604 5.06008 18.5804L10.2301 21.5704C10.7301 21.8604 11.3701 22.0004 12.0001 22.0004C12.6301 22.0004 13.2701 21.8604 13.7601 21.5704L18.9801 18.5604C21.0501 17.1604 21.1701 16.9504 21.1701 14.7204V9.28043C21.1701 7.05043 21.0501 6.84043 18.9401 5.42043Z" />
<path d="M12 15.25C13.7949 15.25 15.25 13.7949 15.25 12C15.25 10.2051 13.7949 8.75 12 8.75C10.2051 8.75 8.75 10.2051 8.75 12C8.75 13.7949 10.2051 15.25 12 15.25Z" />
</svg>
