<svg width="24" height="24" viewBox="0 0 24 24"  xmlns="http://www.w3.org/2000/svg">
<path d="M12.0002 22.63C11.3302 22.63 10.6502 22.48 10.1202 22.17L4.62023 19C2.38023 17.49 2.24023 17.26 2.24023 14.89V9.11005C2.24023 6.74005 2.37023 6.51005 4.57023 5.02005L10.1102 1.82005C11.1602 1.21005 12.8102 1.21005 13.8602 1.82005L19.3802 5.00005C21.6202 6.51005 21.7602 6.74005 21.7602 9.11005V14.88C21.7602 17.25 21.6302 17.48 19.4302 18.97L13.8902 22.17C13.3502 22.48 12.6702 22.63 12.0002 22.63ZM12.0002 2.87005C11.5802 2.87005 11.1702 2.95005 10.8802 3.12005L5.38023 6.30005C3.75023 7.40005 3.75023 7.40005 3.75023 9.11005V14.88C3.75023 16.59 3.75023 16.59 5.42023 17.72L10.8802 20.8701C11.4702 21.2101 12.5402 21.2101 13.1302 20.8701L18.6302 17.6901C20.2502 16.5901 20.2502 16.59 20.2502 14.88V9.11005C20.2502 7.40005 20.2502 7.40005 18.5802 6.27005L13.1202 3.12005C12.8302 2.95005 12.4202 2.87005 12.0002 2.87005Z" />
<path d="M12.0002 15.75C9.93023 15.75 8.25023 14.07 8.25023 12C8.25023 9.93005 9.93023 8.25005 12.0002 8.25005C14.0702 8.25005 15.7502 9.93005 15.7502 12C15.7502 14.07 14.0702 15.75 12.0002 15.75ZM12.0002 9.75005C10.7602 9.75005 9.75023 10.76 9.75023 12C9.75023 13.24 10.7602 14.25 12.0002 14.25C13.2402 14.25 14.2502 13.24 14.2502 12C14.2502 10.76 13.2402 9.75005 12.0002 9.75005Z" />
</svg>
