<svg width="24" height="24" viewBox="0 0 24 24"  xmlns="http://www.w3.org/2000/svg">
<path opacity="0.4" d="M10.96 2.06008L5.46005 4.12008C4.41005 4.52008 3.55005 5.76008 3.55005 6.89008V14.9901C3.55005 15.8001 4.08005 16.8701 4.73005 17.3501L10.23 21.4601C11.2 22.1901 12.79 22.1901 13.76 21.4601L19.26 17.3501C19.91 16.8601 20.4401 15.8001 20.4401 14.9901V6.89008C20.4401 5.77008 19.58 4.52008 18.53 4.13008L13.03 2.07008C12.47 1.85008 11.53 1.85008 10.96 2.06008Z" />
<path d="M14.68 12.9101L13.09 11.3201L14.64 9.77014C14.93 9.48014 14.93 9.00014 14.64 8.71014C14.35 8.42014 13.87 8.42014 13.58 8.71014L12.03 10.2601L10.44 8.67014C10.15 8.38014 9.67005 8.38014 9.38005 8.67014C9.09005 8.96014 9.09005 9.44014 9.38005 9.73014L10.97 11.3201L9.33005 12.9601C9.04005 13.2501 9.04005 13.7301 9.33005 14.0201C9.48005 14.1701 9.67005 14.2401 9.86005 14.2401C10.05 14.2401 10.24 14.1701 10.39 14.0201L12.03 12.3801L13.62 13.9701C13.77 14.1201 13.96 14.1901 14.15 14.1901C14.34 14.1901 14.53 14.1201 14.68 13.9701C14.97 13.6701 14.97 13.2001 14.68 12.9101Z" />
</svg>
