<?xml version="1.0" encoding="UTF-8"?>
<svg width="24" height="24" viewBox="0 0 24 24" xmlns="http://www.w3.org/2000/svg">
 <path d="m10.96 2.0601-5.5 2.06c-1.05 0.4-1.91 1.64-1.91 2.77v8.1c0 0.81 0.53 1.88 1.18 2.36l5.5 4.11c0.97 0.73 2.56 0.73 3.53 0l5.5-4.11c0.65-0.49 1.18-1.55 1.18-2.36v-8.1c0-1.12-0.86-2.37-1.91-2.76l-5.5-2.06c-0.56-0.22-1.5-0.22-2.07-0.01z" opacity=".4"/>
 <path d="m14.68 12.91-1.59-1.59 1.55-1.55c0.29-0.29 0.29-0.77 0-1.06s-0.77-0.29-1.06 0l-1.55 1.55-1.59-1.59c-0.29-0.29-0.77-0.29-1.06 0s-0.29 0.77 0 1.06l1.59 1.59-1.64 1.64c-0.29 0.29-0.29 0.77 0 1.06 0.15 0.15 0.34 0.22 0.53 0.22s0.38-0.07 0.53-0.22l1.64-1.64 1.59 1.59c0.15 0.15 0.34 0.22 0.53 0.22s0.38-0.07 0.53-0.22c0.29-0.3 0.29-0.77 0-1.06z"/>
</svg>
