<?xml version="1.0" encoding="UTF-8"?>
<svg width="24" height="24" viewBox="0 0 24 24" xmlns="http://www.w3.org/2000/svg">
 <path d="m21.63 14.66-0.41 1.86c-0.71 3.2-3.22 5.48-6.84 5.48h-4.76c-3.62 0-6.13-2.28-6.84-5.48l-0.41-1.86c-0.2-0.91 0.33999-1.94 1.21-2.29l1.42-0.57 5.5101-2.21c0.48-0.19 0.9899-0.29001 1.4899-0.29001s1.01 0.10001 1.49 0.29001l5.51 2.21 1.4201 0.57c0.87 0.35 1.41 1.38 1.2099 2.29z"/>
 <path d="m19 8v3.8l-5.51-2.21c-0.96-0.38-2.02-0.38-2.98 0l-5.51 2.21v-3.8c0-1.65 1.35-3 3-3h8c1.65 0 3 1.35 3 3z" opacity=".4"/>
 <path d="m14.5 5h-5v-2c0-0.55 0.45-1 1-1h3c0.55 0 1 0.45 1 1v2z"/>
</svg>
