<svg width="24" height="24" viewBox="0 0 24 24"  xmlns="http://www.w3.org/2000/svg">
<path opacity="0.4" d="M21.05 11.7097V17.6997C21.05 20.4597 18.81 22.6997 16.05 22.6997H7.31006C7.08006 22.6997 6.85007 22.6797 6.63007 22.6497C7.00007 22.4897 7.33007 22.2697 7.63007 21.9997C7.67007 21.9697 7.70004 21.9397 7.73004 21.8997C8.00004 21.6697 8.23004 21.3797 8.42004 21.0597C8.79004 20.4597 9.00006 19.7497 9.00006 18.9997C9.00006 17.9497 8.59005 16.9997 7.93005 16.2797C7.83005 16.1697 7.72004 16.0597 7.60004 15.9697C6.90004 15.3597 6.00006 14.9997 5.00006 14.9997C4.29006 14.9997 3.62004 15.1897 3.04004 15.5197C2.85004 15.6197 2.67006 15.7397 2.50006 15.8797C2.43006 15.9297 2.37006 15.9897 2.31006 16.0497V11.7797C3.07006 12.5997 4.15007 13.0697 5.32007 13.0697C6.58007 13.0697 7.79005 12.4397 8.55005 11.4297C9.23005 12.4397 10.3901 13.0697 11.6801 13.0697C12.9601 13.0697 14.1 12.4697 14.79 11.4697C15.56 12.4597 16.7501 13.0697 17.9901 13.0697C19.2001 13.0697 20.3 12.5797 21.05 11.7097Z" />
<path d="M14.67 1.57031H8.67002L7.93003 8.9303C7.87003 9.6103 7.97001 10.2503 8.22001 10.8303C8.80001 12.1903 10.16 13.0703 11.68 13.0703C13.22 13.0703 14.5501 12.2103 15.1501 10.8403C15.3301 10.4103 15.44 9.91033 15.45 9.40033V9.21033L14.67 1.57031Z" />
<path opacity="0.6" d="M22.0402 8.5896L21.7602 5.80957C21.3402 2.78957 19.9702 1.55957 17.0402 1.55957H13.2002L13.9402 9.05957C13.9502 9.15957 13.9602 9.26959 13.9602 9.45959C14.0202 9.9796 14.1802 10.4596 14.4202 10.8896C15.1402 12.2096 16.5402 13.0596 18.0002 13.0596C19.3302 13.0596 20.5302 12.4696 21.2802 11.4296C21.8702 10.6396 22.1402 9.6296 22.0402 8.5896Z" />
<path opacity="0.6" d="M6.26983 1.57031C3.32983 1.57031 1.96978 2.80028 1.53978 5.85028L1.26983 8.60028C1.16983 9.67028 1.45983 10.7103 2.08983 11.5203C2.84983 12.5103 4.01981 13.0703 5.31981 13.0703C6.77981 13.0703 8.17982 12.2203 8.88982 10.9203C9.14982 10.4703 9.3198 9.95028 9.3698 9.41028L10.1498 1.58032H6.26983V1.57031Z" />
<path d="M7.92999 16.28C7.82999 16.17 7.71998 16.06 7.59998 15.97C6.89998 15.36 6 15 5 15C4.29 15 3.61998 15.19 3.03998 15.52C2.84998 15.62 2.67 15.74 2.5 15.88C1.58 16.61 1 17.74 1 19C1 19.75 1.21002 20.46 1.58002 21.06C1.67002 21.22 1.78002 21.37 1.90002 21.51C1.92002 21.54 1.94997 21.56 1.96997 21.59C2.68997 22.45 3.78 23 5 23C6.01 23 6.93001 22.63 7.63 22C7.67 21.97 7.69998 21.94 7.72998 21.9C7.99998 21.67 8.22998 21.38 8.41998 21.06C8.78998 20.46 9 19.75 9 19C9 17.95 8.58999 17 7.92999 16.28ZM6.5 19.73H5.75V20.51C5.75 20.92 5.41 21.26 5 21.26C4.59 21.26 4.25 20.92 4.25 20.51V19.73H3.5C3.09 19.73 2.75 19.39 2.75 18.98C2.75 18.57 3.09 18.23 3.5 18.23H4.25V17.52C4.25 17.11 4.59 16.77 5 16.77C5.41 16.77 5.75 17.11 5.75 17.52V18.23H6.5C6.91 18.23 7.25 18.57 7.25 18.98C7.25 19.39 6.91 19.73 6.5 19.73Z" />
</svg>
