<?xml version="1.0" encoding="UTF-8"?>
<svg width="24" height="24" viewBox="0 0 24 24" xmlns="http://www.w3.org/2000/svg">
 <path d="m16.49 22h-8.9801c-3.51 0-4.27-2.01-3.98-4.47l0.9-7.5c0.23-1.94 0.57-3.53 3.97-3.53h7.2001c3.4 0 3.74 1.59 3.97 3.53l0.75 6.25 0.1499 1.25 0.03 0.24c0.21 2.35-0.6099 4.23-4.0099 4.23z" opacity=".4"/>
 <path d="m16 8.75c-0.41 0-0.75-0.34-0.75-0.75v-3.5c0-1.08-0.67-1.75-1.75-1.75h-3c-1.08 0-1.75 0.67-1.75 1.75v3.5c0 0.41-0.34 0.75-0.75 0.75s-0.75-0.34-0.75-0.75v-3.5c0-1.91 1.34-3.25 3.25-3.25h3c1.91 0 3.25 1.34 3.25 3.25v3.5c0 0.41-0.34 0.75-0.75 0.75z"/>
 <path d="m20.5 17.77c-0.03 0.01-0.06 0.01-0.09 0.01h-12.41c-0.41 0-0.75-0.34-0.75-0.75 0-0.42 0.34-0.75 0.75-0.75h12.32l0.15 1.25 0.03 0.24z"/>
</svg>
