<?xml version="1.0" encoding="UTF-8"?>
<svg width="24" height="24" viewBox="0 0 24 24" xmlns="http://www.w3.org/2000/svg">
 <path d="m21.05 11.71v5.99c0 2.76-2.24 5-5 5h-8.7399c-0.23 0-0.45999-0.02-0.67999-0.05 0.37-0.16 0.7-0.38 1-0.65 0.04-0.03 0.06997-0.06 0.09997-0.1 0.27-0.23 0.5-0.52 0.69-0.84 0.37-0.6 0.58002-1.31 0.58002-2.06 0-1.05-0.41001-2-1.07-2.72-0.1-0.11-0.21001-0.22-0.33001-0.31-0.7-0.61-1.6-0.97-2.6-0.97-0.71 0-1.38 0.19-1.96 0.52-0.19 0.1-0.36998 0.22-0.53998 0.36-0.07 0.05-0.13 0.11-0.19 0.17v-4.27c0.76 0.82 1.84 1.29 3.01 1.29 1.26 0 2.47-0.63 3.23-1.64 0.68 1.01 1.84 1.64 3.13 1.64 1.28 0 2.4199-0.6 3.1099-1.6 0.77 0.99 1.9601 1.6 3.2001 1.6 1.21 0 2.3099-0.49 3.0599-1.36z" opacity=".4"/>
 <path d="m14.67 1.5703h-6l-0.73999 7.36c-0.06 0.68 0.03998 1.32 0.28998 1.9 0.58 1.36 1.94 2.24 3.46 2.24 1.54 0 2.8701-0.86 3.4701-2.23 0.18-0.43 0.2899-0.92997 0.2999-1.44v-0.19l-0.78-7.64z"/>
 <path d="m22.04 8.5896-0.28-2.78c-0.42-3.02-1.79-4.25-4.72-4.25h-3.84l0.74 7.5c0.01 0.1 0.02 0.21002 0.02 0.40002 0.06 0.52001 0.22 1 0.46 1.43 0.72 1.32 2.12 2.17 3.58 2.17 1.33 0 2.53-0.59 3.28-1.63 0.59-0.79 0.86-1.8 0.76-2.84z" opacity=".6"/>
 <path d="m6.2698 1.5703c-2.94 0-4.3 1.23-4.73 4.28l-0.26995 2.75c-0.1 1.07 0.19 2.11 0.82 2.92 0.76 0.99 1.93 1.55 3.23 1.55 1.46 0 2.86-0.85 3.57-2.15 0.26-0.45 0.42998-0.97002 0.47998-1.51l0.78-7.83h-3.88v-0.01001z" opacity=".6"/>
 <path d="m7.93 16.28c-0.1-0.11-0.21001-0.22-0.33001-0.31-0.7-0.61-1.6-0.97-2.6-0.97-0.71 0-1.38 0.19-1.96 0.52-0.19 0.1-0.36998 0.22-0.53998 0.36-0.92 0.73-1.5 1.86-1.5 3.12 0 0.75 0.21002 1.46 0.58002 2.06 0.09 0.16 0.2 0.31 0.32 0.45 0.02 0.03 0.04995 0.05 0.06995 0.08 0.72 0.86 1.81 1.41 3.03 1.41 1.01 0 1.93-0.37 2.63-1 0.04-0.03 0.06998-0.06 0.09998-0.1 0.27-0.23 0.5-0.52 0.69-0.84 0.37-0.6 0.58002-1.31 0.58002-2.06 0-1.05-0.41001-2-1.07-2.72zm-1.43 3.45h-0.75v0.78c0 0.41-0.34 0.75-0.75 0.75s-0.75-0.34-0.75-0.75v-0.78h-0.75c-0.41 0-0.75-0.34-0.75-0.75s0.34-0.75 0.75-0.75h0.75v-0.71c0-0.41 0.34-0.75 0.75-0.75s0.75 0.34 0.75 0.75v0.71h0.75c0.41 0 0.75 0.34 0.75 0.75s-0.34 0.75-0.75 0.75z"/>
</svg>
