<?xml version="1.0" encoding="UTF-8"?>
<svg width="24" height="24" viewBox="0 0 24 24" xmlns="http://www.w3.org/2000/svg">
 <path d="m16.25 22.5c0.9665 0 1.75-0.7835 1.75-1.75s-0.7835-1.75-1.75-1.75-1.75 0.7835-1.75 1.75 0.7835 1.75 1.75 1.75z"/>
 <path d="m8.25 22.5c0.9665 0 1.75-0.7835 1.75-1.75s-0.7835-1.75-1.75-1.75-1.75 0.7835-1.75 1.75 0.7835 1.75 1.75 1.75z"/>
 <path d="m4.84 3.94-0.2 2.45c-0.04 0.47 0.33 0.86 0.8 0.86h15.31c0.42 0 0.77-0.32001 0.8-0.74001 0.13-1.77-1.22-3.21-2.99-3.21h-12.27c-0.1-0.44-0.3-0.86-0.61-1.21-0.49-0.53-1.19-0.84-1.91-0.84h-1.77c-0.41 0-0.75 0.34-0.75 0.75s0.34 0.75 0.75 0.75h1.74c0.31 0 0.59999 0.13001 0.80999 0.35001 0.21 0.23 0.31 0.52999 0.29 0.83999z" opacity=".4"/>
 <path d="m20.51 8.75h-15.34c-0.42 0-0.76001 0.32-0.80001 0.73l-0.36 4.35c-0.14 1.7 1.2 3.17 2.91 3.17h11.12c1.5 0 2.82-1.23 2.93-2.73l0.33-4.67c0.04-0.46-0.32-0.85001-0.79-0.85001z"/>
</svg>
