<?xml version="1.0" encoding="UTF-8"?>
<svg width="24" height="24" viewBox="0 0 24 24" xmlns="http://www.w3.org/2000/svg">
 <path d="m21.37 11.39v5.99c0 2.76-2.24 5-5 5h-8.74c-2.76 0-5-2.24-5-5v-5.92c0.76 0.82 1.84 1.29 3.01 1.29 1.26 0 2.47-0.63 3.23-1.64 0.68 1.01 1.84 1.64 3.13 1.64 1.28 0 2.42-0.6 3.11-1.6 0.77 0.99 1.96 1.6 3.2 1.6 1.21 0 2.31-0.49 3.06-1.36z" opacity=".4"/>
 <path d="m14.99 1.25h-6l-0.74 7.36c-0.06 0.68 0.04 1.32 0.29 1.9 0.58 1.36 1.94 2.24 3.46 2.24 1.54 0 2.87-0.86 3.47-2.23 0.18-0.43 0.29-0.93 0.3-1.44v-0.19l-0.78-7.64z"/>
 <path d="m22.36 8.27-0.29-2.77c-0.42-3.02-1.79-4.25-4.72-4.25h-3.84l0.74 7.5c0.01 0.1 0.02 0.21 0.02 0.4 0.06 0.52 0.22 1 0.46 1.43 0.72 1.32 2.12 2.17 3.58 2.17 1.33 0 2.53-0.59 3.28-1.63 0.6-0.8 0.87-1.81 0.77-2.85z" opacity=".6"/>
 <path d="m6.5901 1.25c-2.94 0-4.3 1.23-4.73 4.28l-0.27 2.75c-0.1 1.07 0.19 2.11 0.82 2.92 0.76 0.99 1.93 1.55 3.23 1.55 1.46 0 2.86-0.85 3.57-2.15 0.26-0.45 0.43-0.97 0.48-1.51l0.77996-7.83h-3.88v-0.01z" opacity=".6"/>
 <path d="m11.35 16.66c-1.27 0.13-2.23 1.21-2.23 2.49v3.23h5.75v-2.88c0.01-2.09-1.22-3.08-3.52-2.84z"/>
</svg>
