<?xml version="1.0" encoding="UTF-8"?>
<svg width="24" height="24" viewBox="0 0 24 24" xmlns="http://www.w3.org/2000/svg">
 <path d="m21.75 17.98c0-0.02-0.01-0.04-0.01-0.06-0.01-0.08-0.02-0.16-0.05-0.23-0.04-0.09-0.09-0.16-0.15-0.23 0 0 0-0.01-0.01-0.01-0.07-0.07-0.15-0.12-0.24-0.16s-0.19-0.06-0.29-0.06l-4.67 0.02h-0.01c-0.6 0-1.18-0.28-1.54-0.76l-1.22-1.57c-0.25-0.33-0.72-0.39-1.05-0.13s-0.39 0.72-0.13 1.05l1.22 1.57c0.65 0.84 1.67 1.34 2.73 1.34h0.01l2.85-0.01-0.71 0.71c-0.29 0.29-0.29 0.77 0 1.06 0.15 0.15 0.34 0.22 0.53 0.22s0.38-0.07 0.53-0.22l2-2c0.07-0.07 0.12-0.15 0.16-0.24 0.03-0.1 0.05-0.2 0.05-0.29z" opacity=".4"/>
 <path d="m8.4203 6.69c-0.65-0.9-1.69-1.43-2.8-1.43h-0.01999l-2.61 0.01001c-0.41 0-0.75 0.34-0.75 0.75s0.34 0.75 0.75 0.75l2.61-0.01001h0.00998c0.63 0 1.22 0.3 1.58 0.81l1.08 1.5c0.15 0.2 0.38002 0.30999 0.61002 0.30999 0.15 0 0.31-0.05001 0.44-0.14001 0.34-0.24 0.40998-0.70999 0.16998-1.05l-1.07-1.5z" opacity=".4"/>
 <path d="m21.74 6.08c0-0.02 0.01-0.03999 0.01-0.04999 0-0.1-0.02-0.20004-0.06-0.29004s-0.09-0.16999-0.16-0.23999l-2-2c-0.29-0.29-0.77-0.29-1.06 0s-0.29 0.77 0 1.06l0.71 0.71002-2.7299-0.01001h-0.0201c-1.15 0-2.23 0.56998-2.87 1.54l-6.3899 9.58c-0.36 0.54-0.97003 0.87-1.62 0.87h-0.00998l-2.55-0.01c-0.41 0-0.75 0.33-0.75 0.75 0 0.41 0.33 0.75 0.75 0.75l2.55 0.01h0.01999c1.16 0 2.23-0.57 2.87-1.54l6.3901-9.58c0.36-0.54 0.9699-0.87 1.6199-0.87h0.0101l4.5499 0.02002c0.1 0 0.1901-0.02006 0.2901-0.06006 0.09-0.04 0.1699-0.08997 0.2399-0.15997 0 0 1e-4 -0.01001 0.0101-0.01001 0.06-0.07 0.1199-0.13998 0.1499-0.22998 0.03-0.08 0.04-0.15999 0.05-0.23999z"/>
</svg>
