<?xml version="1.0" encoding="UTF-8"?>
<svg width="24" height="24" viewBox="0 0 24 24" xmlns="http://www.w3.org/2000/svg">
 <path d="m12 22.75c-5.93 0-10.75-4.82-10.75-10.75 0-1.49 0.30001-2.92 0.89001-4.28 0.17-0.38 0.60999-0.55 0.98999-0.39 0.38 0.17 0.55002 0.61 0.39002 0.99-0.5 1.16-0.76001 2.4-0.76001 3.68 0 5.1 4.15 9.25 9.25 9.25 5.1 0 9.25-4.15 9.25-9.25s-4.16-9.25-9.26-9.25c-1.29 0-2.55 0.26-3.72 0.78-0.37 0.17-0.82005 0-0.99005-0.38s0-0.82 0.38-0.99c1.37-0.6 2.82-0.91 4.33-0.91 5.93 0 10.75 4.82 10.75 10.75s-4.82 10.75-10.75 10.75z" opacity=".4"/>
 <path d="m16 15.25v-3.25c0-2.35-1.9-4.25-4.25-4.25s-4.25 1.9-4.25 4.25 1.9 4.25 4.25 4.25h3.25c0.55 0 1-0.45 1-1z"/>
 <path d="m5.0001 6.8791c1.0383 0 1.88-0.8417 1.88-1.88 0-1.0383-0.84171-1.88-1.88-1.88-1.0383 0-1.88 0.84171-1.88 1.88 0 1.0383 0.84171 1.88 1.88 1.88z"/>
</svg>
