<?xml version="1.0" encoding="UTF-8"?>
<svg width="24" height="24" viewBox="0 0 24 24" xmlns="http://www.w3.org/2000/svg">
 <path d="m16.19 2h-8.38c-3.64 0-5.81 2.17-5.81 5.81v8.38c0 0.2 0.01 0.4 0.02 0.59 0.08 1.23 0.43 2.27 1.03 3.09 0.29 0.42 0.66 0.79 1.08 1.08 0.95 0.69 2.19 1.05 3.68 1.05h8.38c3.44 0 5.57-1.94 5.78-5.22 0.02-0.19 0.03-0.39 0.03-0.59v-8.38c0-1.49-0.36-2.73-1.05-3.68-0.29-0.42-0.66-0.79-1.08-1.08-0.95-0.69-2.19-1.05-3.68-1.05z" opacity=".4"/>
 <path d="m22 15.28h-20v0.91c0 0.2 0.01 0.4 0.02 0.59h19.95c0.02-0.19 0.03-0.39 0.03-0.59v-0.91z"/>
 <path d="m8.6899 9.0304c0 0.19 0.07 0.38 0.22 0.53l2.56 2.56c0.29 0.29 0.77 0.29 1.06 0l2.56-2.56c0.29-0.29 0.29-0.77 0-1.06s-0.77-0.29-1.06 0l-2.03 2.02-2.03-2.02c-0.29-0.3-0.77-0.3-1.06 0-0.15 0.14-0.22 0.33-0.22 0.53z"/>
</svg>
