<svg width="24" height="24" viewBox="0 0 24 24"  xmlns="http://www.w3.org/2000/svg">
<path d="M14.9702 22.75H8.97021C3.54022 22.75 1.22021 20.43 1.22021 15V9C1.22021 3.57 3.54022 1.25 8.97021 1.25H14.9702C20.4002 1.25 22.7202 3.57 22.7202 9V15C22.7202 20.43 20.4102 22.75 14.9702 22.75ZM8.97021 2.75C4.36021 2.75 2.72021 4.39 2.72021 9V15C2.72021 19.61 4.36021 21.25 8.97021 21.25H14.9702C19.5802 21.25 21.2202 19.61 21.2202 15V9C21.2202 4.39 19.5802 2.75 14.9702 2.75H8.97021Z" />
<path d="M7.97021 22.75C7.56021 22.75 7.22021 22.41 7.22021 22V2C7.22021 1.59 7.56021 1.25 7.97021 1.25C8.38021 1.25 8.72022 1.59 8.72022 2V22C8.72022 22.41 8.39021 22.75 7.97021 22.75Z" />
<path d="M14.9702 15.31C14.7802 15.31 14.5902 15.24 14.4402 15.09L11.8802 12.53C11.5902 12.24 11.5902 11.76 11.8802 11.47L14.4402 8.91C14.7302 8.62 15.2102 8.62 15.5002 8.91C15.7902 9.2 15.7902 9.68 15.5002 9.97L13.4802 12L15.5102 14.03C15.8002 14.32 15.8002 14.8 15.5102 15.09C15.3602 15.24 15.1702 15.31 14.9702 15.31Z" />
</svg>
