<svg width="24" height="24" viewBox="0 0 24 24"  xmlns="http://www.w3.org/2000/svg">
<path d="M14.9702 22.75H8.97021C3.54022 22.75 1.22021 20.43 1.22021 15V9C1.22021 3.57 3.54022 1.25 8.97021 1.25H14.9702C20.4002 1.25 22.7202 3.57 22.7202 9V15C22.7202 20.43 20.4102 22.75 14.9702 22.75ZM8.97021 2.75C4.36021 2.75 2.72021 4.39 2.72021 9V15C2.72021 19.61 4.36021 21.25 8.97021 21.25H14.9702C19.5802 21.25 21.2202 19.61 21.2202 15V9C21.2202 4.39 19.5802 2.75 14.9702 2.75H8.97021Z" />
<path d="M14.9702 22.75C14.5602 22.75 14.2202 22.41 14.2202 22V2C14.2202 1.59 14.5602 1.25 14.9702 1.25C15.3802 1.25 15.7202 1.59 15.7202 2V22C15.7202 22.41 15.3902 22.75 14.9702 22.75Z" />
<path d="M7.97021 15.31C7.78021 15.31 7.59021 15.24 7.44021 15.09C7.15021 14.8 7.15021 14.32 7.44021 14.03L9.47021 12L7.44021 9.97C7.15021 9.68 7.15021 9.2 7.44021 8.91C7.73021 8.62 8.21021 8.62 8.50021 8.91L11.0602 11.47C11.3502 11.76 11.3502 12.24 11.0602 12.53L8.50021 15.09C8.36021 15.24 8.17021 15.31 7.97021 15.31Z" />
</svg>
