<svg width="24" height="24" viewBox="0 0 24 24"  xmlns="http://www.w3.org/2000/svg">
<path d="M14.9702 22.75H8.97021C3.54022 22.75 1.22021 20.43 1.22021 15V9C1.22021 3.57 3.54022 1.25 8.97021 1.25H14.9702C20.4002 1.25 22.7202 3.57 22.7202 9V15C22.7202 20.43 20.4102 22.75 14.9702 22.75ZM8.97021 2.75C4.36021 2.75 2.72021 4.39 2.72021 9V15C2.72021 19.61 4.36021 21.25 8.97021 21.25H14.9702C19.5802 21.25 21.2202 19.61 21.2202 15V9C21.2202 4.39 19.5802 2.75 14.9702 2.75H8.97021Z" />
<path d="M22.0002 9.25H2.00021C1.59021 9.25 1.25021 8.91 1.25021 8.5C1.25021 8.09 1.59021 7.75 2.00021 7.75H22.0002C22.4102 7.75 22.7502 8.09 22.7502 8.5C22.7502 8.91 22.4102 9.25 22.0002 9.25Z" />
<path d="M14.5602 16.25C14.3702 16.25 14.1802 16.18 14.0302 16.03L12.0002 14L9.97021 16.03C9.68021 16.32 9.20021 16.32 8.91021 16.03C8.62021 15.74 8.62021 15.26 8.91021 14.97L11.4702 12.41C11.7602 12.12 12.2402 12.12 12.5302 12.41L15.0902 14.97C15.3802 15.26 15.3802 15.74 15.0902 16.03C14.9402 16.18 14.7502 16.25 14.5602 16.25Z" />
</svg>
