<?xml version="1.0" encoding="UTF-8"?>
<svg width="24" height="24" viewBox="0 0 24 24" xmlns="http://www.w3.org/2000/svg">
 <path d="m2 7.81v8.38c0 3.64 2.17 5.81 5.81 5.81h8.38c0.2 0 0.4-0.01 0.59-0.02 1.23-0.08 2.27-0.43 3.09-1.03 0.42-0.29 0.79-0.66 1.08-1.08 0.69-0.95 1.05-2.19 1.05-3.68v-8.38c0-3.44-1.94-5.57-5.22-5.78-0.19-0.02-0.39-0.03-0.59-0.03h-8.38c-1.49 0-2.73 0.36-3.68 1.05-0.42 0.29-0.79 0.66-1.08 1.08-0.69 0.95-1.05 2.19-1.05 3.68z" opacity=".4"/>
 <path d="m15.28 2v20h0.91c0.2 0 0.4-0.01 0.59-0.02v-19.95c-0.19-0.02-0.39-0.03-0.59-0.03h-0.91z"/>
 <path d="m9.0302 15.31c0.19 0 0.38001-0.07 0.53001-0.22l2.56-2.56c0.29-0.29 0.29-0.77 0-1.06l-2.56-2.56c-0.29-0.29-0.77001-0.29-1.06 0s-0.29 0.77 0 1.06l2.02 2.03-2.02 2.03c-0.29 0.29-0.29 0.77 0 1.06 0.14 0.15 0.33 0.22 0.53 0.22z"/>
</svg>
