<?xml version="1.0" encoding="UTF-8"?>
<svg width="24" height="24" viewBox="0 0 24 24" xmlns="http://www.w3.org/2000/svg">
 <path d="m7.81 22h8.38c3.64 0 5.81-2.17 5.81-5.81v-8.38c0-0.2-0.01-0.4-0.02-0.59-0.08-1.23-0.43-2.27-1.03-3.09-0.29-0.42-0.66-0.79-1.08-1.08-0.95-0.69-2.19-1.05-3.68-1.05h-8.38c-3.44 0-5.57 1.94-5.78 5.22-0.02 0.19-0.03 0.39-0.03 0.59v8.38c0 1.49 0.36 2.73 1.05 3.68 0.29 0.42 0.66 0.79 1.08 1.08 0.95 0.69 2.19 1.05 3.68 1.05z" opacity=".4"/>
 <path d="m2 8.7197h20v-0.91c0-0.2-0.01-0.4-0.02-0.59h-19.95c-0.02 0.19-0.03 0.39-0.03 0.59v0.91z"/>
 <path d="m15.31 14.97c0-0.19-0.07-0.38-0.22-0.53l-2.56-2.56c-0.29-0.29-0.77-0.29-1.06 0l-2.56 2.56c-0.29 0.29-0.29 0.77 0 1.06s0.77 0.29 1.06 0l2.03-2.02 2.03 2.03c0.29 0.29 0.77 0.29 1.06 0 0.15-0.15 0.22-0.34 0.22-0.54z"/>
</svg>
