<?xml version="1.0" encoding="UTF-8"?>
<svg width="24" height="24" viewBox="0 0 24 24" xmlns="http://www.w3.org/2000/svg">
 <path d="m19.54 6.54-3.07-3.07c-0.94-0.94-2.21-1.47-3.54-1.47h-4.93c-3 0-5 2-5 5v10c0 3 2 5 5 5h8c3 0 5-2 5-5v-6.93c0-1.33-0.53-2.6-1.46-3.53z" opacity=".4"/>
 <path d="m11.5 13.25v-3.75h-1.5c-1.65 0-3 1.35-3 3v1h4.25c0.14 0 0.25-0.11 0.25-0.25z"/>
 <path d="m12.75 13.5h4.25v-1c0-1.65-1.35-3-3-3h-1.5v3.75c0 0.14 0.11 0.25 0.25 0.25z"/>
 <path d="m11.25 14.5h-4.25v1c0 1.65 1.35 3 3 3h1.5v-3.75c0-0.14-0.11-0.25-0.25-0.25z"/>
 <path d="m12.5 14.75v3.75h1.5c1.65 0 3-1.35 3-3v-1h-4.25c-0.14 0-0.25 0.11-0.25 0.25z"/>
</svg>
