<svg width="24" height="24" viewBox="0 0 24 24"  xmlns="http://www.w3.org/2000/svg">
<path d="M14.5401 1.87891C13.3101 1.87891 12.3101 2.87891 12.3101 4.10891V8.74891C12.3101 9.97891 13.3101 10.9789 14.5401 10.9789C15.7701 10.9789 16.7701 9.97891 16.7701 8.74891V4.10891C16.7701 2.88891 15.7701 1.87891 14.5401 1.87891Z" />
<path opacity="0.4" d="M20.1797 7.10938C19.1097 7.10938 18.2397 7.97938 18.2397 9.04938V10.6194C18.2397 10.8294 18.4097 10.9994 18.6197 10.9994H20.1897C21.2597 10.9994 22.1297 10.1294 22.1297 9.05937C22.1297 7.98937 21.2497 7.10938 20.1797 7.10938Z" />
<path d="M8.49988 6.98828H3.85988C2.62988 6.98828 1.62988 7.98828 1.62988 9.21828C1.62988 10.4483 2.62988 11.4483 3.85988 11.4483H8.49988C9.72988 11.4483 10.7299 10.4483 10.7299 9.21828C10.7299 7.98828 9.72988 6.98828 8.49988 6.98828Z" />
<path opacity="0.4" d="M8.7896 1.61914C7.7196 1.61914 6.84961 2.48914 6.84961 3.55914C6.84961 4.62914 7.7196 5.49914 8.7896 5.49914H10.3596C10.5696 5.49914 10.7396 5.32914 10.7396 5.11914V3.54914C10.7296 2.49914 9.8596 1.61914 8.7896 1.61914Z" />
<path d="M9.4297 13.0293C8.1997 13.0293 7.19971 14.0293 7.19971 15.2593V19.8993C7.19971 21.1293 8.1997 22.1293 9.4297 22.1293C10.6597 22.1293 11.6597 21.1293 11.6597 19.8993V15.2593C11.6597 14.0293 10.6597 13.0293 9.4297 13.0293Z" />
<path opacity="0.4" d="M5.3596 13.0293H3.7896C2.7196 13.0293 1.84961 13.8993 1.84961 14.9693C1.84961 16.0393 2.7196 16.9093 3.7896 16.9093C4.8596 16.9093 5.7296 16.0393 5.7296 14.9693V13.3993C5.7296 13.1993 5.5596 13.0293 5.3596 13.0293Z" />
<path d="M20.1097 12.5684H15.4697C14.2397 12.5684 13.2397 13.5684 13.2397 14.7984C13.2397 16.0284 14.2397 17.0284 15.4697 17.0284H20.1097C21.3397 17.0284 22.3397 16.0284 22.3397 14.7984C22.3397 13.5684 21.3397 12.5684 20.1097 12.5684Z" />
<path opacity="0.4" d="M15.18 18.4688H13.61C13.4 18.4688 13.23 18.6387 13.23 18.8487V20.4187C13.23 21.4887 14.1 22.3587 15.17 22.3587C16.24 22.3587 17.11 21.4887 17.11 20.4187C17.12 19.3387 16.25 18.4688 15.18 18.4688Z" />
</svg>
