<?xml version="1.0" encoding="UTF-8"?>
<svg width="24" height="24" viewBox="0 0 24 24" xmlns="http://www.w3.org/2000/svg">
 <path d="m19.53 5.53-14 14c-0.02 0.02-0.03 0.03-0.05 0.04-0.38-0.32-0.73-0.67-1.05-1.05-1.52-1.75-2.43-4.03-2.43-6.52 0-5.52 4.48-10 10-10 2.49 0 4.77 0.91 6.52 2.43 0.38 0.32 0.73 0.67 1.05 1.05-0.01 0.02-0.02 0.03-0.04 0.05z" opacity=".4"/>
 <path d="m22 12c0 5.52-4.48 10-10 10-1.99 0-3.84-0.58-5.4-1.6l13.8-13.8c1.02 1.56 1.6 3.41 1.6 5.4z" opacity=".4"/>
 <path d="m21.77 2.2299c-0.3-0.3-0.79-0.3-1.09 0l-18.45 18.46c-0.3 0.3-0.3 0.79 0 1.09 0.15 0.14 0.34 0.22 0.54 0.22s0.39-0.08 0.54-0.23l18.46-18.46c0.31-0.3 0.31-0.78 0-1.08z"/>
</svg>
