<?xml version="1.0" encoding="UTF-8"?>
<svg width="24" height="24" viewBox="0 0 24 24" xmlns="http://www.w3.org/2000/svg">
 <path d="m15 2h-6c-1.66 0-3 1.34-3 3v14c0 1.66 1.34 3 3 3h6c1.66 0 3-1.34 3-3v-14c0-1.66-1.34-3-3-3z" opacity=".4"/>
 <path d="m18.67 5.3301h-0.34c-0.12 0-0.23 0-0.35 0.01 0.01 0.05 0.02 0.1 0.02 0.16v13c0 0.06-0.01 0.11-0.02 0.16 0.11 0.01 0.22 0.01 0.35 0.01h0.34c2.66 0 3.33-0.67 3.33-3.34v-6.66c0-2.67-0.67-3.34-3.33-3.34z"/>
 <path d="m6 18.5v-13c0-0.06 0.01-0.11 0.02-0.16-0.12-0.01-0.23-0.01-0.35-0.01h-0.34c-2.66 0-3.33 0.67-3.33 3.34v6.66c0 2.67 0.67 3.34 3.33 3.34h0.34c0.12 0 0.23 0 0.35-0.01-0.01-0.05-0.02-0.1-0.02-0.16z"/>
</svg>
