<?xml version="1.0" encoding="UTF-8"?>
<svg width="24" height="24" viewBox="0 0 24 24" xmlns="http://www.w3.org/2000/svg">
 <path d="m2 9v6c0 1.66 1.34 3 3 3h14c1.66 0 3-1.34 3-3v-6c0-1.66-1.34-3-3-3h-14c-1.66 0-3 1.34-3 3z" opacity=".4"/>
 <path d="m5.3301 5.33v0.34c0 0.12 0 0.23 0.01 0.35 0.05-0.01 0.1-0.02 0.16-0.02h13c0.06 0 0.11 0.01 0.16 0.02 0.01-0.11 0.01-0.22 0.01-0.35v-0.34c0-2.66-0.67-3.33-3.34-3.33h-6.66c-2.67 0-3.34 0.67-3.34 3.33z"/>
 <path d="m18.5 18h-13c-0.06 0-0.11-0.01-0.16-0.02-0.01 0.11-0.01 0.22-0.01 0.35v0.34c0 2.66 0.67 3.33 3.34 3.33h6.66c2.67 0 3.34-0.67 3.34-3.33v-0.34c0-0.12 0-0.23-0.01-0.35-0.05 0.01-0.1 0.02-0.16 0.02z"/>
</svg>
