<svg width="24" height="24" viewBox="0 0 24 24"  xmlns="http://www.w3.org/2000/svg">
<path d="M18.9401 3.5H5.06006C4.65006 3.5 4.31006 3.16 4.31006 2.75C4.31006 2.34 4.65006 2 5.06006 2H18.9401C19.3501 2 19.6901 2.34 19.6901 2.75C19.6901 3.16 19.3501 3.5 18.9401 3.5Z" />
<path d="M18.9401 22H5.06006C4.65006 22 4.31006 21.66 4.31006 21.25C4.31006 20.84 4.65006 20.5 5.06006 20.5H18.9401C19.3501 20.5 19.6901 20.84 19.6901 21.25C19.6901 21.66 19.3501 22 18.9401 22Z" />
<path opacity="0.4" d="M2.75 7.59961V16.3996C2.75 18.0596 4.09 19.3996 5.75 19.3996H18.25C19.91 19.3996 21.25 18.0596 21.25 16.3996V7.59961C21.25 5.93961 19.91 4.59961 18.25 4.59961H5.75C4.09 4.59961 2.75 5.93961 2.75 7.59961Z" />
</svg>
