<svg width="24" height="24" viewBox="0 0 24 24"  xmlns="http://www.w3.org/2000/svg">
<path d="M3.5 5.05957V18.9396C3.5 19.3496 3.16 19.6896 2.75 19.6896C2.34 19.6896 2 19.3496 2 18.9396V5.05957C2 4.64957 2.34 4.30957 2.75 4.30957C3.16 4.30957 3.5 4.64957 3.5 5.05957Z" />
<path d="M22 5.05957V18.9396C22 19.3496 21.66 19.6896 21.25 19.6896C20.84 19.6896 20.5 19.3496 20.5 18.9396V5.05957C20.5 4.64957 20.84 4.30957 21.25 4.30957C21.66 4.30957 22 4.64957 22 5.05957Z" />
<path opacity="0.4" d="M7.6001 21.25H16.4001C18.0601 21.25 19.4001 19.91 19.4001 18.25V5.75C19.4001 4.09 18.0601 2.75 16.4001 2.75H7.6001C5.9401 2.75 4.6001 4.09 4.6001 5.75V18.25C4.6001 19.91 5.9401 21.25 7.6001 21.25Z" />
</svg>
