<?xml version="1.0" encoding="UTF-8"?>
<svg width="24" height="24" viewBox="0 0 24 24" xmlns="http://www.w3.org/2000/svg">
 <path d="m19 16.01v1.99c0 2.2-1.5 4-4 4h-6c-2.5 0-4-1.8-4-4v-1.99h14z"/>
 <path d="M19 6V16.01H5V6C5 3.8 6.5 2 9 2H15C17.5 2 19 3.8 19 6Z" opacity=".4"/>
 <path d="m3 20.75c-0.41 0-0.75-0.34-0.75-0.75v-16c0-0.41 0.34-0.75 0.75-0.75s0.75 0.34 0.75 0.75v16c0 0.41-0.34 0.75-0.75 0.75z"/>
 <path d="m21 20.75c-0.41 0-0.75-0.34-0.75-0.75v-16c0-0.41 0.34-0.75 0.75-0.75s0.75 0.34 0.75 0.75v16c0 0.41-0.34 0.75-0.75 0.75z"/>
</svg>
