<?xml version="1.0" encoding="UTF-8"?>
<svg width="24" height="24" viewBox="0 0 24 24" xmlns="http://www.w3.org/2000/svg">
 <path d="m18.94 3.5h-13.88c-0.41 0-0.75-0.34-0.75-0.75s0.34-0.75 0.75-0.75h13.88c0.41 0 0.75 0.34 0.75 0.75s-0.34 0.75-0.75 0.75z"/>
 <path d="m18.94 22h-13.88c-0.41 0-0.75-0.34-0.75-0.75s0.34-0.75 0.75-0.75h13.88c0.41 0 0.75 0.34 0.75 0.75s-0.34 0.75-0.75 0.75z"/>
 <path d="m2.75 7.5996v8.8c0 1.66 1.34 3 3 3h12.5c1.66 0 3-1.34 3-3v-8.8c0-1.66-1.34-3-3-3h-12.5c-1.66 0-3 1.34-3 3z" opacity=".4"/>
</svg>
