<svg width="24" height="24" viewBox="0 0 24 24"  xmlns="http://www.w3.org/2000/svg">
<path opacity="0.4" d="M22 7.81V16.19C22 19.83 19.83 22 16.19 22H7.81C7.61 22 7.41 21.99 7.22 21.98C5.99 21.9 4.95 21.55 4.13 20.95C3.71 20.66 3.34 20.29 3.05 19.87C2.36 18.92 2 17.68 2 16.19V7.81C2 4.37 3.94 2.24 7.22 2.03C7.41 2.01 7.61 2 7.81 2H16.19C17.68 2 18.92 2.36 19.87 3.05C20.29 3.34 20.66 3.71 20.95 4.13C21.64 5.08 22 6.32 22 7.81Z" />
<path d="M11.39 14.38H11.02V7.91002H13.59C13.7 7.91002 13.79 8.00002 13.79 8.11002V8.89002C13.79 9.30002 14.13 9.64002 14.54 9.64002C14.95 9.64002 15.29 9.30002 15.29 8.89002V8.10002C15.29 7.16002 14.53 6.40002 13.59 6.40002H6.95C6.01 6.40002 5.25 7.16002 5.25 8.10002V8.88002C5.25 9.30002 5.59 9.63002 6 9.63002C6.41 9.63002 6.75 9.30002 6.75 8.88002V8.10002C6.75 7.99002 6.84 7.90002 6.95 7.90002H9.52V14.38H8.52C8.11 14.38 7.77 14.72 7.77 15.13C7.77 15.54 8.11 15.88 8.52 15.88H11.38C11.79 15.88 12.13 15.54 12.13 15.13C12.13 14.72 11.8 14.38 11.39 14.38Z" />
<path d="M17.3202 10.4H13.7202C13.3102 10.4 12.9702 10.74 12.9702 11.15C12.9702 11.56 13.3102 11.9 13.7202 11.9H14.2002V16.1H13.8502C13.4402 16.1 13.1002 16.44 13.1002 16.85C13.1002 17.26 13.4402 17.6 13.8502 17.6H16.0502C16.4602 17.6 16.8002 17.26 16.8002 16.85C16.8002 16.44 16.4602 16.1 16.0502 16.1H15.7002V11.9H17.2502V12.24C17.2502 12.65 17.5902 12.99 18.0002 12.99C18.4102 12.99 18.7502 12.65 18.7502 12.24V11.83C18.7502 11.04 18.1102 10.4 17.3202 10.4Z" />
</svg>
