<?xml version="1.0" encoding="UTF-8"?>
<svg width="24" height="24" viewBox="0 0 24 24" xmlns="http://www.w3.org/2000/svg">
 <path d="m22 7.81v8.38c0 3.64-2.17 5.81-5.81 5.81h-8.38c-0.2 0-0.4-0.01-0.59-0.02-1.23-0.08-2.27-0.43-3.09-1.03-0.42-0.29-0.79-0.66-1.08-1.08-0.69-0.95-1.05-2.19-1.05-3.68v-8.38c0-3.44 1.94-5.57 5.22-5.78 0.19-0.02 0.39-0.03 0.59-0.03h8.38c1.49 0 2.73 0.36 3.68 1.05 0.42 0.29 0.79 0.66 1.08 1.08 0.69 0.95 1.05 2.19 1.05 3.68z" opacity=".4"/>
 <path d="m11.39 14.38h-0.37v-6.47h2.57c0.11 0 0.2 0.09 0.2 0.2v0.78c0 0.41 0.34 0.75 0.75 0.75s0.75-0.34 0.75-0.75v-0.79c0-0.94-0.76-1.7-1.7-1.7h-6.64c-0.94 0-1.7 0.76-1.7 1.7v0.78c0 0.42 0.34 0.75 0.75 0.75s0.75-0.33 0.75-0.75v-0.78c0-0.11 0.09-0.2 0.2-0.2h2.57v6.48h-1c-0.41 0-0.75 0.34-0.75 0.75s0.34 0.75 0.75 0.75h2.86c0.41 0 0.75-0.34 0.75-0.75s-0.33-0.75-0.74-0.75z"/>
 <path d="m17.32 10.4h-3.6c-0.41 0-0.75 0.34-0.75 0.75s0.34 0.75 0.75 0.75h0.48v4.2h-0.35c-0.41 0-0.75 0.34-0.75 0.75s0.34 0.75 0.75 0.75h2.2c0.41 0 0.75-0.34 0.75-0.75s-0.34-0.75-0.75-0.75h-0.35v-4.2h1.55v0.34c0 0.41 0.34 0.75 0.75 0.75s0.75-0.34 0.75-0.75v-0.41c0-0.79-0.64-1.43-1.43-1.43z"/>
</svg>
