<svg width="24" height="24" viewBox="0 0 24 24"  xmlns="http://www.w3.org/2000/svg">
<path d="M18.7101 9.49048C18.6101 9.49048 18.5101 9.47049 18.4101 9.43049C18.0301 9.26049 17.8601 8.8205 18.0201 8.4405C18.2101 8.0105 18.1001 7.38048 17.7501 6.86048C17.4001 6.33048 16.8701 5.98049 16.3801 6.00049C15.9401 6.00049 15.6301 5.6705 15.6201 5.2605C15.6201 4.8405 15.9501 4.51049 16.3601 4.50049C17.3901 4.48049 18.3601 5.07051 18.9901 6.02051C19.6301 6.98051 19.7801 8.13052 19.3901 9.03052C19.2801 9.32052 19.0001 9.49048 18.7101 9.49048Z" />
<path d="M21.8199 10.4803C21.7499 10.4803 21.6899 10.4703 21.6199 10.4503C21.2199 10.3403 20.9899 9.93036 21.0999 9.53036C21.4799 8.17036 21.1599 6.55033 20.2499 5.19033C19.3399 3.83033 17.9599 2.92033 16.5499 2.75033C16.1399 2.70033 15.8499 2.33031 15.8999 1.92031C15.9499 1.51031 16.3299 1.21035 16.7299 1.27035C18.5599 1.49035 20.3399 2.65032 21.4899 4.37032C22.6399 6.09032 23.0299 8.17034 22.5399 9.95034C22.4499 10.2603 22.1499 10.4803 21.8199 10.4803Z" />
<path opacity="0.4" d="M17.52 15.8396C17.41 14.6196 17.08 13.3096 14.7 13.3096H5.23004C2.85004 13.3096 2.53005 14.6196 2.41005 15.8396L1.99005 20.3596C1.94005 20.9196 2.13004 21.4895 2.51004 21.9095C2.90004 22.3395 3.46005 22.5896 4.05005 22.5896H5.44004C6.64004 22.5896 6.87005 21.8996 7.02005 21.4496L7.17004 21.0096C7.34004 20.4996 7.38005 20.3696 8.05005 20.3696H11.85C12.51 20.3696 12.54 20.4396 12.73 21.0096L12.88 21.4596C13.03 21.9096 13.26 22.5995 14.46 22.5995H15.85C16.44 22.5995 17 22.3496 17.39 21.9196C17.77 21.4996 17.96 20.9296 17.91 20.3696L17.52 15.8396Z" />
<path d="M16.65 11.09H15.91C15.9 11.09 15.9 11.09 15.89 11.09L15.61 9.73999C15.34 8.43999 14.79 7.25 12.58 7.25H10.53H9.41998H7.36998C5.15998 7.25 4.59998 8.43999 4.33998 9.73999L4.05998 11.09C4.04998 11.09 4.04998 11.09 4.03998 11.09H3.29999C2.98999 11.09 2.73999 11.34 2.73999 11.65C2.73999 11.96 2.98999 12.21 3.29999 12.21H3.82999L3.51999 13.69C3.91999 13.46 4.47998 13.32 5.24998 13.32H14.72C15.49 13.32 16.05 13.46 16.45 13.69L16.14 12.21H16.67C16.98 12.21 17.23 11.96 17.23 11.65C17.21 11.34 16.96 11.09 16.65 11.09Z" />
<path d="M7.74995 17.3895H5.51996C5.20996 17.3895 4.95996 17.1395 4.95996 16.8295C4.95996 16.5195 5.20996 16.2695 5.51996 16.2695H7.74995C8.05995 16.2695 8.30995 16.5195 8.30995 16.8295C8.29995 17.1395 8.05995 17.3895 7.74995 17.3895Z" />
<path d="M14.4301 17.3895H12.2001C11.8901 17.3895 11.6401 17.1395 11.6401 16.8295C11.6401 16.5195 11.8901 16.2695 12.2001 16.2695H14.4301C14.7401 16.2695 14.9901 16.5195 14.9901 16.8295C14.9801 17.1395 14.7301 17.3895 14.4301 17.3895Z" />
</svg>
