<?xml version="1.0" encoding="UTF-8"?>
<svg width="24" height="24" viewBox="0 0 24 24" xmlns="http://www.w3.org/2000/svg">
 <path d="m18.71 9.49c-0.1 0-0.2-0.02-0.3-0.06-0.38-0.17-0.55-0.60999-0.39-0.98999 0.19-0.43 0.08-1.06-0.27-1.58-0.35-0.53-0.88-0.87999-1.37-0.85999-0.44 0-0.75-0.32999-0.76-0.73999 0-0.42 0.33-0.75001 0.74-0.76001 1.03-0.02 2 0.57002 2.63 1.52 0.64 0.96 0.79 2.11 0.4 3.01-0.11 0.29-0.39 0.45997-0.68 0.45997z"/>
 <path d="m21.82 10.48c-0.07 0-0.13-0.0099-0.2-0.0299-0.4-0.11-0.63-0.52003-0.52-0.92003 0.38-1.36 0.06-2.98-0.85-4.34s-2.29-2.27-3.7-2.44c-0.41-0.05-0.7-0.42002-0.65-0.83002s0.43-0.70996 0.83-0.64996c1.83 0.22 3.61 1.38 4.76 3.1s1.54 3.8 1.05 5.58c-0.09 0.31005-0.39 0.52995-0.72 0.52995z"/>
 <path d="m17.52 15.84c-0.11-1.22-0.44-2.53-2.82-2.53h-9.47c-2.38 0-2.7 1.31-2.82 2.53l-0.42 4.5199c-0.05 0.56 0.13999 1.13 0.51999 1.55 0.39 0.43 0.95001 0.6801 1.54 0.6801h1.39c1.2 0 1.43-0.69 1.58-1.14l0.15-0.44c0.17-0.51 0.21-0.64 0.88-0.64h3.8c0.66 0 0.69 0.07 0.88 0.64l0.15 0.45c0.15 0.45 0.38 1.1399 1.58 1.1399h1.39c0.59 0 1.15-0.25 1.54-0.68 0.38-0.42 0.57-0.9899 0.52-1.5499l-0.39-4.53z" opacity=".4"/>
 <path d="m16.65 11.09h-0.74-0.02l-0.28-1.35c-0.27-1.3-0.82-2.49-3.03-2.49h-5.21c-2.21 0-2.77 1.19-3.03 2.49l-0.28 1.35h-0.02001-0.73999c-0.31 0-0.55999 0.25-0.55999 0.56s0.24999 0.56 0.55999 0.56h0.53l-0.31 1.48c0.4-0.23 0.96-0.37 1.73-0.37h9.47c0.77 0 1.33 0.14 1.73 0.37l-0.31-1.48h0.53c0.31 0 0.56-0.25 0.56-0.56-0.02-0.31-0.27-0.56-0.58-0.56z"/>
 <path d="m7.75 17.39h-2.23c-0.31 0-0.56-0.25-0.56-0.56s0.25-0.56 0.56-0.56h2.23c0.31 0 0.56 0.25 0.56 0.56-0.01 0.31-0.25 0.56-0.56 0.56z"/>
 <path d="m14.43 17.39h-2.23c-0.31 0-0.56-0.25-0.56-0.56s0.25-0.56 0.56-0.56h2.23c0.31 0 0.5601 0.25 0.5601 0.56-0.01 0.31-0.2601 0.56-0.5601 0.56z"/>
</svg>
