<svg width="24" height="24" viewBox="0 0 24 24"  xmlns="http://www.w3.org/2000/svg">
<path d="M15.4999 14.5002H3.49985C3.26985 14.5002 3.05985 14.4002 2.91985 14.2202C2.77985 14.0502 2.71986 13.8103 2.76986 13.5903L3.61985 9.54022C3.89985 8.22022 4.49985 6.87024 6.86985 6.87024H12.1399C14.5099 6.87024 15.1099 8.22022 15.3899 9.54022L16.2399 13.5903C16.2899 13.8103 16.2298 14.0402 16.0898 14.2202C15.9398 14.4002 15.7299 14.5002 15.4999 14.5002ZM4.41985 13.0002H14.5699L13.9099 9.85022C13.6999 8.84022 13.4499 8.37024 12.1299 8.37024H6.85985C5.53985 8.37024 5.28985 8.84022 5.07985 9.85022L4.41985 13.0002Z" />
<path d="M15.4698 22.7502H14.0598C12.7098 22.7502 12.4298 21.9202 12.2898 21.4702L12.1398 21.0203C11.9598 20.5103 11.9598 20.5103 11.4298 20.5103H7.58984C7.04984 20.5103 7.03985 20.5303 6.87985 21.0203L6.72984 21.4702C6.57984 21.9202 6.29984 22.7603 4.94984 22.7603H3.53984C2.88984 22.7603 2.27984 22.4903 1.83984 22.0103C1.41984 21.5503 1.20985 20.9202 1.26985 20.3002L1.68985 15.7302C1.81985 14.3102 2.27985 13.0002 4.71985 13.0002H14.2898C16.7298 13.0002 17.1899 14.3102 17.3199 15.7302L17.7399 20.3002C17.7999 20.9202 17.5898 21.5403 17.1698 22.0103C16.7298 22.4803 16.1198 22.7502 15.4698 22.7502ZM13.7998 21.2302C13.8198 21.2302 13.8998 21.2502 14.0598 21.2502H15.4698C15.6998 21.2502 15.9098 21.1602 16.0598 20.9902C16.1998 20.8302 16.2698 20.6402 16.2498 20.4302L15.8298 15.8602C15.7398 14.9202 15.6998 14.4902 14.2898 14.4902H4.71985C3.30985 14.4902 3.26984 14.9202 3.17984 15.8602L2.75984 20.4302C2.73984 20.6402 2.80984 20.8402 2.94984 20.9902C3.09984 21.1602 3.30984 21.2502 3.53984 21.2502H4.94984C5.16984 21.2502 5.22985 21.2202 5.23985 21.2202C5.23985 21.2102 5.27984 21.0902 5.30984 21.0002L5.45985 20.5502C5.65985 19.9402 5.96985 19.0103 7.59985 19.0103H11.4398C13.0498 19.0103 13.3499 19.8902 13.5699 20.5402L13.7298 21.0002C13.7398 21.0802 13.7698 21.1902 13.7998 21.2302Z" />
<path d="M3.5 12.2502H2.75C2.34 12.2502 2 11.9102 2 11.5002C2 11.0902 2.34 10.7502 2.75 10.7502H3.5C3.91 10.7502 4.25 11.0902 4.25 11.5002C4.25 11.9102 3.91 12.2502 3.5 12.2502Z" />
<path d="M16.25 12.2502H15.5C15.09 12.2502 14.75 11.9102 14.75 11.5002C14.75 11.0902 15.09 10.7502 15.5 10.7502H16.25C16.66 10.7502 17 11.0902 17 11.5002C17 11.9102 16.66 12.2502 16.25 12.2502Z" />
<path d="M7.25 17.5002H5C4.59 17.5002 4.25 17.1602 4.25 16.7502C4.25 16.3402 4.59 16.0002 5 16.0002H7.25C7.66 16.0002 8 16.3402 8 16.7502C8 17.1602 7.66 17.5002 7.25 17.5002Z" />
<path d="M14 17.5002H11.75C11.34 17.5002 11 17.1602 11 16.7502C11 16.3402 11.34 16.0002 11.75 16.0002H14C14.41 16.0002 14.75 16.3402 14.75 16.7502C14.75 17.1602 14.41 17.5002 14 17.5002Z" />
<path d="M18.7101 9.49024C18.6101 9.49024 18.5101 9.47024 18.4101 9.43024C18.0301 9.26024 17.8601 8.82025 18.0201 8.44025C18.2101 8.01025 18.1001 7.38023 17.7501 6.86023C17.4001 6.33023 16.8701 5.98025 16.3801 6.00025H16.3701C15.9601 6.00025 15.6301 5.67026 15.6201 5.26026C15.6201 4.84026 15.9501 4.51025 16.3601 4.50025C17.3901 4.48025 18.3601 5.07027 18.9901 6.02027C19.6301 6.98027 19.7801 8.13028 19.3901 9.03028C19.2801 9.32028 19.0001 9.49024 18.7101 9.49024Z" />
<path d="M21.8202 10.4803C21.7502 10.4803 21.6901 10.4703 21.6201 10.4503C21.2201 10.3403 20.9901 9.93036 21.1001 9.53036C21.4801 8.17036 21.1601 6.55033 20.2501 5.19033C19.3401 3.83033 17.9601 2.92033 16.5501 2.75033C16.1401 2.70033 15.8501 2.33031 15.9001 1.92031C15.9501 1.51031 16.3301 1.21035 16.7301 1.27035C18.5601 1.49035 20.3401 2.65032 21.4901 4.37032C22.6401 6.09032 23.0301 8.17034 22.5401 9.95034C22.4501 10.2603 22.1502 10.4803 21.8202 10.4803Z" />
</svg>
