<svg width="24" height="24" viewBox="0 0 24 24"  xmlns="http://www.w3.org/2000/svg">
<path opacity="0.4" d="M10.07 3.01003L3.14004 8.56002C2.36004 9.18002 1.86002 10.49 2.03002 11.47L3.36001 19.43C3.60001 20.85 4.96002 22 6.40002 22H17.6C19.03 22 20.4 20.84 20.64 19.43L21.97 11.47C22.13 10.49 21.63 9.18002 20.86 8.56002L13.93 3.02004C12.86 2.16004 11.13 2.16003 10.07 3.01003Z" />
<path d="M12.3699 17.12C11.9599 17.12 11.6299 16.79 11.6199 16.39C11.5899 15.04 10.6999 14.15 9.34986 14.12C8.93986 14.11 8.60985 13.77 8.61985 13.35C8.62985 12.94 8.95985 12.62 9.36985 12.62C9.37985 12.62 9.37987 12.62 9.38987 12.62C11.5399 12.67 13.0799 14.2 13.1199 16.35C13.1299 16.76 12.7999 17.11 12.3899 17.12C12.3899 17.12 12.3799 17.12 12.3699 17.12Z" />
<path d="M15.3698 17.12C14.9598 17.12 14.6198 16.79 14.6198 16.38C14.6098 15.72 14.4998 15.09 14.2998 14.5C13.7898 13.04 12.6998 11.96 11.2398 11.44C10.6498 11.23 10.0198 11.12 9.35983 11.12C8.94983 11.12 8.60984 10.78 8.61984 10.36C8.61984 9.94999 8.95984 9.62 9.36984 9.62H9.37985C10.2099 9.63 10.9998 9.77003 11.7398 10.03C13.6298 10.7 15.0398 12.11 15.7098 14C15.9698 14.74 16.1098 15.54 16.1198 16.36C16.1298 16.78 15.7998 17.12 15.3698 17.12C15.3798 17.12 15.3798 17.12 15.3698 17.12Z" />
<path d="M9.37988 17.38C8.81988 17.38 8.37988 16.93 8.37988 16.38C8.37988 15.83 8.82988 15.38 9.37988 15.38C9.92988 15.38 10.3799 15.83 10.3799 16.38C10.3799 16.93 9.92988 17.38 9.37988 17.38Z" />
</svg>
