<?xml version="1.0" encoding="UTF-8"?>
<svg width="24" height="24" viewBox="0 0 24 24" xmlns="http://www.w3.org/2000/svg">
 <path d="m10.07 3.0103-6.93 5.55c-0.78 0.62-1.28 1.9299-1.11 2.9099l1.33 7.9601c0.24 1.42 1.6 2.57 3.04 2.57h11.2c1.43 0 2.8-1.16 3.04-2.57l1.33-7.9601c0.16-0.98-0.34-2.2899-1.11-2.9099l-6.93-5.54c-1.07-0.86-2.8-0.86001-3.86-0.01001z" opacity=".4"/>
 <path d="m12.37 17.12c-0.41 0-0.74-0.33-0.75-0.73-0.03-1.35-0.92-2.24-2.27-2.27-0.41-0.01-0.74001-0.35-0.73001-0.77 0.01-0.41 0.34-0.73 0.75-0.73h0.02002c2.15 0.05 3.69 1.58 3.73 3.73 0.01 0.41-0.32 0.76-0.73 0.77h-0.02z"/>
 <path d="m15.37 17.12c-0.41 0-0.75-0.33-0.75-0.74-0.01-0.66-0.12-1.29-0.32-1.88-0.51-1.46-1.6-2.54-3.06-3.06-0.59-0.21-1.22-0.32-1.88-0.32-0.41 0-0.74999-0.34-0.73999-0.76 0-0.40999 0.34-0.73998 0.75-0.73998h0.01001c0.83005 0.01 1.62 0.15003 2.36 0.41008 1.89 0.67 3.3 2.0799 3.97 3.9699 0.26 0.74 0.4 1.54 0.41 2.36 0.01 0.42-0.32 0.76-0.75 0.76 0.01 0 0.01 0 0 0z"/>
 <path d="m9.3799 17.38c-0.56 0-1-0.45-1-1s0.45-1 1-1 1 0.45 1 1-0.45002 1-1 1z"/>
</svg>
