<?xml version="1.0" encoding="UTF-8"?>
<svg width="24" height="24" viewBox="0 0 24 24" xmlns="http://www.w3.org/2000/svg">
 <path d="m14 5v5h-1c-1.65 0-3 1.35-3 3v1h-5c-1.66 0-3-1.34-3-3v-6c0-1.66 1.34-3 3-3h6c1.66 0 3 1.34 3 3z" opacity=".4"/>
 <path d="m5.2 6.6296c-0.23 0-0.47-0.11-0.61-0.32-0.24-0.34-0.16-0.80999 0.18-1.05 0.78-0.55 1.83-0.56002 2.62-0.02002 0.34 0.23 0.43 0.70004 0.2 1.04s-0.7 0.42995-1.04 0.19995c-0.27-0.18-0.62999-0.17999-0.89999 0.01001-0.15 0.1-0.30001 0.14001-0.45001 0.14001z"/>
 <path d="m9.2 6.6296c-0.23 0-0.47-0.11-0.61-0.32-0.24-0.34-0.16-0.80999 0.18-1.05 0.78-0.55 1.83-0.56002 2.62-0.02002 0.34 0.23 0.43 0.70004 0.2 1.04s-0.7 0.42995-1.04 0.19995c-0.27-0.18-0.62999-0.17999-0.89999 0.01001-0.15 0.1-0.30001 0.14001-0.45001 0.14001z"/>
 <path d="m8.1598 12.17h-2.32c-0.71 0-1.29-0.58-1.29-1.29 0-1.9 1.55-3.45 3.45-3.45 0.78 0 1.55 0.27001 2.16 0.76001 0.32 0.26 0.38 0.72999 0.12 1.05-0.26 0.31999-0.72999 0.37999-1.05 0.11999-0.34999-0.28-0.77-0.42999-1.22-0.42999-1 0-1.83 0.75999-1.94 1.74h2.1c0.41 0 0.75 0.34 0.75 0.75s-0.34999 0.75-0.75999 0.75z"/>
 <path d="m18.22 16.68c-0.07-0.08-0.17-0.12-0.28-0.12h-3.88c-0.11 0-0.21 0.04-0.28 0.12s-0.11 0.1899-0.09 0.2899c0.13 1.18 1.12 2.0801 2.31 2.0801s2.18-0.8901 2.31-2.0801c0.01-0.11-0.02-0.2099-0.09-0.2899z"/>
 <path d="m19 10h-6c-1.65 0-3 1.35-3 3v6c0 1.65 1.35 3 3 3h6c1.65 0 3-1.35 3-3v-6c0-1.65-1.35-3-3-3zm-6.41 3.17c0.24-0.34 0.71-0.42 1.05-0.18 0.27 0.19 0.63 0.19 0.9 0.01 0.34-0.24 0.81-0.15 1.04 0.2 0.23 0.34 0.15 0.81-0.2 1.04-0.39 0.26-0.84 0.4-1.29 0.4-0.47 0-0.93-0.14-1.32-0.42-0.34-0.25-0.42-0.72-0.18-1.05zm3.41 7c-1.9 0-3.45-1.55-3.45-3.45 0-0.71 0.58-1.29 1.29-1.29h4.32c0.71 0 1.29 0.58 1.29 1.29 0 1.9-1.55 3.45-3.45 3.45zm3.38-5.94c-0.39 0.26-0.84 0.4-1.29 0.4-0.47 0-0.93-0.14-1.32-0.42-0.34-0.24-0.42-0.71-0.18-1.05s0.71-0.42 1.05-0.18c0.27 0.19 0.63 0.19 0.9 0.01 0.34-0.24 0.81-0.15 1.04 0.2s0.14 0.81-0.2 1.04z"/>
</svg>
