<?xml version="1.0" encoding="UTF-8"?>
<svg width="24" height="24" viewBox="0 0 24 24" xmlns="http://www.w3.org/2000/svg">
 <path d="m7 3h10c3 0 5 1.5 5 5v3.14c0 0.73-0.75 1.19-1.42 0.9-1.1-0.48-2.35-0.66-3.66-0.45-2.62 0.43-4.76 2.5-5.29 5.1-0.15 0.76-0.17 1.5-0.07 2.21 0.08 0.59-0.4 1.11-0.99 1.11h-3.57c-3 0-5-1.5-5-5v-7c0-3.51 2-5.01 5-5.01z" opacity=".4"/>
 <path d="m12 11.87c-0.84 0-1.69-0.26-2.34-0.79l-3.13-2.5c-0.32-0.26-0.38-0.72999-0.12-1.05s0.72999-0.38 1.05-0.12l3.13 2.5c0.76 0.61003 2.05 0.61003 2.81 0l3.13-2.5c0.32-0.26 0.8-0.21 1.05 0.12 0.26 0.32 0.21 0.79999-0.12 1.05l-3.13 2.5c-0.64 0.53-1.49 0.79-2.33 0.79z"/>
 <path d="m18 13c-2.76 0-5 2.23-5 5 0 2.76 2.24 5 5 5 2.77 0 5-2.24 5-5 0-2.77-2.23-5-5-5zm2.05 4.55-0.37 0.36-2.17 2.18c-0.1 0.09-0.29 0.19-0.43 0.21l-0.98 0.14c-0.35 0.05-0.6-0.2-0.55-0.55l0.14-0.98c0.02-0.14 0.11-0.33 0.21-0.43l2.18-2.17 0.36-0.37c0.24-0.24 0.51-0.4 0.79-0.4 0.24 0 0.51 0.11 0.81 0.4 0.66 0.66 0.45 1.17 0.01 1.61z"/>
</svg>
