<?xml version="1.0" encoding="UTF-8"?>
<svg width="24" height="24" viewBox="0 0 24 24" xmlns="http://www.w3.org/2000/svg">
 <path d="m19.5 8c1.3807 0 2.5-1.1193 2.5-2.5s-1.1193-2.5-2.5-2.5-2.5 1.1193-2.5 2.5 1.1193 2.5 2.5 2.5z"/>
 <path d="m19.5 8c1.3807 0 2.5-1.1193 2.5-2.5s-1.1193-2.5-2.5-2.5-2.5 1.1193-2.5 2.5 1.1193 2.5 2.5 2.5z"/>
 <path d="m20.72 9.3098c0.63-0.2 1.28 0.29001 1.28 0.96003v5.24c0 3.5-2 5-5 5h-10c-3 0-5-1.5-5-5v-7c0-3.5 2-5 5-5h7.61c0.65 0 1.09 0.60001 0.97 1.23-0.12 0.59-0.1 1.22 0.08 1.87 0.37 1.34 1.46 2.41 2.8 2.76 0.79 0.2 1.56 0.16 2.26-0.06z" opacity=".4"/>
 <path d="m12 12.87c-0.84 0-1.69-0.26-2.34-0.79l-3.13-2.5c-0.32-0.26-0.38-0.73-0.12-1.05s0.72999-0.38 1.05-0.12l3.13 2.5c0.76 0.61 2.05 0.61 2.81 0l1.18-0.94002c0.32-0.26 0.8-0.21001 1.05 0.12002 0.26 0.32 0.21 0.8-0.12 1.05l-1.18 0.94c-0.64 0.53-1.49 0.79-2.33 0.79z"/>
</svg>
