<?xml version="1.0" encoding="UTF-8"?>
<svg width="24" height="24" viewBox="0 0 24 24" xmlns="http://www.w3.org/2000/svg">
 <path d="m19.48 2.8199 0.28 0.56999c0.14 0.28 0.49 0.54001 0.8 0.60001l0.38 0.06c1.14 0.19 1.41 1.03 0.59 1.86l-0.35 0.34999c-0.23 0.24-0.36 0.7-0.29 1.02l0.05 0.21001c0.31 1.38-0.42 1.91-1.62 1.19l-0.26-0.15c-0.31-0.18-0.81-0.18-1.12 0l-0.26 0.15c-1.21 0.73-1.94 0.19001-1.62-1.19l0.05-0.21001c0.07-0.32-0.06-0.78-0.29-1.02l-0.35-0.34999c-0.82-0.83-0.55-1.67 0.59-1.86l0.38-0.06c0.3-0.05 0.66-0.32001 0.8-0.60001l0.28-0.56999c0.54-1.09 1.42-1.09 1.96 0z"/>
 <path d="m22 9.67v5.83c0 3.5-2 5-5 5h-10c-3 0-5-1.5-5-5v-7c0-3.5 2-5 5-5h7.05c-0.2 0.22-0.35 0.48-0.44 0.77-0.29 0.9 0 1.88 0.8 2.69l0.19 0.18998c-0.41 1.81 0.44 2.66 0.83 2.94 0.22 0.16 0.67 0.41 1.31 0.41 0.47 0 1.05-0.14 1.72-0.53999l0.04-0.02001 0.04 0.02001c1.58 0.94999 2.65 0.40999 3.03 0.12999 0.12-0.08 0.28-0.22 0.43-0.42z" opacity=".4"/>
 <path d="m12 12.87c-0.84 0-1.69-0.26-2.34-0.79l-3.13-2.5c-0.32-0.26-0.38-0.73-0.12-1.05s0.72999-0.38 1.05-0.12l3.13 2.5c0.76 0.61 2.05 0.61 2.81 0 0.32-0.26 0.79-0.21 1.05 0.12 0.26 0.32 0.21 0.8-0.12 1.05-0.64 0.53-1.49 0.79-2.33 0.79z"/>
</svg>
