<?xml version="1.0" encoding="UTF-8"?>
<svg width="24" height="24" viewBox="0 0 24 24" xmlns="http://www.w3.org/2000/svg">
 <path d="m17 20.5h-10c-3 0-5-1.5-5-5v-7c0-3.5 2-5 5-5h10c3 0 5 1.5 5 5v7c0 3.5-2 5-5 5z" opacity=".4"/>
 <path d="m17.586 8.532c0.2585 0.32365 0.2057 0.79558-0.1179 1.0541l-3.1309 2.5008c-1.3034 1.0376-3.3809 1.0376-4.6843 0l-0.00185-0.0015-3.12-2.5c-0.32325-0.25901-0.37532-0.73102-0.11631-1.0543 0.25901-0.32325 0.73102-0.37532 1.0543-0.11631l3.119 2.4993c0.7566 0.6015 2.0582 0.6014 2.8145-5e-4 2e-4 0-1e-4 1e-4 0 0l3.1295-2.4995c0.3236-0.2585 0.7955-0.20569 1.054 0.11795z" clip-rule="evenodd" fill-rule="evenodd"/>
 <path d="m22.66 21.47-0.74-0.74c0.38-0.58 0.61-1.28 0.61-2.03 0-2.04-1.66-3.7-3.7-3.7s-3.7 1.66-3.7 3.7 1.66 3.7 3.7 3.7c0.75 0 1.45-0.23 2.03-0.61l0.74 0.74c0.15 0.15 0.34 0.22 0.53 0.22s0.38-0.07 0.53-0.22c0.29-0.29 0.29-0.77 0-1.06z"/>
</svg>
