<?xml version="1.0" encoding="UTF-8"?>
<svg width="24" height="24" viewBox="0 0 24 24" xmlns="http://www.w3.org/2000/svg">
 <path d="m6 13c-2.76 0-5 2.23-5 5s2.24 5 5 5 5-2.24 5-5-2.23-5-5-5zm-2.04 2.96h2.04c0.38 0 0.67999 0.31 0.67999 0.68s-0.30999 0.68-0.67999 0.68h-2.04c-0.38 0-0.67999-0.31-0.67999-0.68s0.29999-0.68 0.67999-0.68zm4.08 4.08h-4.09c-0.38 0-0.68002-0.31-0.68002-0.68s0.31002-0.68 0.68002-0.68h4.09c0.38 0 0.67999 0.31 0.67999 0.68s-0.29999 0.68-0.67999 0.68z"/>
 <path d="m17 3h-10c-3 0-5 1.5-5 5v3.14c0 0.73 0.75001 1.19 1.42 0.9 1.1-0.48 2.35-0.66 3.66-0.45 2.62 0.43 4.76 2.5 5.29 5.1 0.15 0.76 0.17 1.5 0.07 2.21-0.08 0.59 0.4 1.11 0.99 1.11h3.57c3 0 5-1.5 5-5v-7c0-3.51-2-5.01-5-5.01z" opacity=".4"/>
 <path d="m12 11.87c-0.84 0-1.69-0.26-2.34-0.79l-3.13-2.5c-0.32-0.26-0.38-0.73-0.12-1.05s0.72999-0.38 1.05-0.12l3.13 2.5c0.76 0.61003 2.05 0.61003 2.81 0l3.13-2.5c0.32-0.26 0.8-0.21 1.05 0.12 0.26 0.32 0.21 0.8-0.12 1.05l-3.13 2.5c-0.64 0.53-1.49 0.79-2.33 0.79z"/>
</svg>
