<?xml version="1.0" encoding="UTF-8"?>
<svg width="24" height="24" viewBox="0 0 24 24" xmlns="http://www.w3.org/2000/svg">
 <path d="m12 22c5.5228 0 10-4.4772 10-10 0-5.5228-4.4772-10-10-10-5.5228 0-10 4.4772-10 10 0 5.5228 4.4772 10 10 10z" opacity=".4"/>
 <path d="m17.31 15.31c-0.29 0.16-0.53 0.23-0.73 0.28-0.17 0.04-0.31 0.08-0.43 0.16-0.13 0.08-0.14 0.2101-0.16 0.3301-0.02 0.11-0.03 0.1999-0.11 0.2599-0.09 0.06-0.26 0.07-0.49 0.08-0.3 0.02-0.68 0.03-1.14 0.17-0.22 0.08-0.42 0.2001-0.62 0.3201-0.4 0.25-0.85 0.5199-1.64 0.5199-0.78 0-1.23-0.2699-1.63-0.5199-0.2-0.13-0.40001-0.25-0.63001-0.33-0.45-0.14-0.84001-0.16-1.14-0.17-0.23-0.01-0.39-0.02-0.49-0.08-0.08-0.05-0.09001-0.1501-0.11001-0.2601-0.02-0.12-0.03-0.25-0.16-0.33-0.12-0.08-0.27-0.12-0.43-0.17-0.2-0.05-0.43998-0.1099-0.72998-0.2699-0.34-0.19-0.14-0.3-0.03-0.36 1.93-0.93 2.23-2.3701 2.24-2.4801v-0.0199c0.02-0.12 0.02999-0.2201-0.11001-0.3501-0.09-0.09-0.4-0.29-0.65-0.45-0.11-0.08-0.20999-0.1399-0.26999-0.1699-0.28-0.2-0.39999-0.39-0.30999-0.64 0.06-0.17 0.22-0.2301 0.38-0.2301 0.05 0 0.11 0.0101 0.15 0.0201 0.18 0.04 0.35999 0.11 0.51999 0.17 0.10999 0.05 0.19998 0.0799 0.26998 0.0999 0.02 0.01 0.05003 0.0101 0.06003 0.0101 0.1 0 0.13-0.0501 0.12-0.1501 0-0.03-1e-5 -0.0599-0.01001-0.0899-0.02-0.35-0.05001-0.96005-0.01001-1.52 0.08-0.84 0.35001-1.27 0.67001-1.63 0.16-0.18 0.89002-0.95 2.28-0.95s2.12 0.77 2.28 0.94c0.32 0.37 0.59 0.79 0.67 1.64 0.05 0.59 0.01 1.22-0.02 1.57v0.03c-0.01 0.11 0.02 0.15 0.12 0.15 0.02 0 0.04 0 0.06-0.01 0.07-0.02 0.16-0.0499 0.27-0.0899 0.15-0.06 0.33-0.13 0.52-0.17 0.05-0.02 0.1-0.0201 0.15-0.0201 0.17 0 0.32 0.07 0.38 0.24 0.09 0.24-0.03 0.4301-0.31 0.6301-0.05 0.04-0.15 0.1099-0.27 0.1699-0.24 0.16-0.56 0.36-0.65 0.45-0.14 0.13-0.13 0.2301-0.11 0.3501v0.0199c0.02 0.11 0.32 1.5501 2.24 2.4801 0.15 0.06 0.35 0.1799 0.01 0.3699z" clip-rule="evenodd" fill-rule="evenodd"/>
</svg>
