<svg width="24" height="24" viewBox="0 0 24 24"  xmlns="http://www.w3.org/2000/svg">
<path opacity="0.4" d="M12 22C17.5228 22 22 17.5228 22 12C22 6.47715 17.5228 2 12 2C6.47715 2 2 6.47715 2 12C2 17.5228 6.47715 22 12 22Z" />
<path fill-rule="evenodd" clip-rule="evenodd" d="M17.31 15.3105C17.02 15.4705 16.78 15.5405 16.58 15.5905C16.41 15.6305 16.27 15.6705 16.15 15.7505C16.02 15.8305 16.01 15.9606 15.99 16.0806C15.97 16.1906 15.96 16.2805 15.88 16.3405C15.79 16.4005 15.62 16.4105 15.39 16.4205C15.09 16.4405 14.71 16.4505 14.25 16.5905C14.03 16.6705 13.83 16.7906 13.63 16.9106C13.23 17.1606 12.78 17.4305 11.99 17.4305C11.21 17.4305 10.76 17.1606 10.36 16.9106C10.16 16.7806 9.96003 16.6606 9.73003 16.5806C9.28003 16.4406 8.89002 16.4206 8.59002 16.4106C8.36002 16.4006 8.20003 16.3906 8.10003 16.3306C8.02003 16.2806 8.01001 16.1805 7.99001 16.0705C7.97001 15.9505 7.96001 15.8205 7.83001 15.7405C7.71001 15.6605 7.56002 15.6205 7.40002 15.5705C7.20002 15.5205 6.96004 15.4606 6.67004 15.3006C6.33004 15.1106 6.53004 15.0006 6.64004 14.9406C8.57004 14.0106 8.87003 12.5705 8.88003 12.4605C8.88003 12.4505 8.88003 12.4506 8.88003 12.4406C8.90003 12.3206 8.91001 12.2205 8.77001 12.0905C8.68001 12.0005 8.37002 11.8005 8.12002 11.6405C8.01002 11.5605 7.91003 11.5006 7.85003 11.4706C7.57003 11.2706 7.45003 11.0806 7.54003 10.8306C7.60003 10.6606 7.76004 10.6005 7.92004 10.6005C7.97004 10.6005 8.03003 10.6106 8.07003 10.6206C8.25003 10.6606 8.43002 10.7306 8.59002 10.7906C8.70002 10.8406 8.79001 10.8705 8.86001 10.8905C8.88001 10.9005 8.91004 10.9006 8.92004 10.9006C9.02004 10.9006 9.05003 10.8505 9.04003 10.7505C9.04003 10.7205 9.04002 10.6906 9.03002 10.6606C9.01002 10.3106 8.98001 9.70055 9.02001 9.14055C9.10001 8.30055 9.37003 7.87055 9.69003 7.51055C9.85003 7.33055 10.58 6.56055 11.97 6.56055C13.36 6.56055 14.09 7.33055 14.25 7.50055C14.57 7.87055 14.84 8.29055 14.92 9.14055C14.97 9.73055 14.93 10.3605 14.9 10.7105V10.7405C14.89 10.8505 14.92 10.8905 15.02 10.8905C15.04 10.8905 15.06 10.8905 15.08 10.8805C15.15 10.8605 15.24 10.8306 15.35 10.7906C15.5 10.7306 15.68 10.6606 15.87 10.6206C15.92 10.6006 15.97 10.6005 16.02 10.6005C16.19 10.6005 16.34 10.6705 16.4 10.8405C16.49 11.0805 16.37 11.2706 16.09 11.4706C16.04 11.5106 15.94 11.5805 15.82 11.6405C15.58 11.8005 15.26 12.0005 15.17 12.0905C15.03 12.2205 15.04 12.3206 15.06 12.4406C15.06 12.4506 15.06 12.4605 15.06 12.4605C15.08 12.5705 15.38 14.0106 17.3 14.9406C17.45 15.0006 17.65 15.1205 17.31 15.3105Z" />
</svg>
