<?xml version="1.0" encoding="UTF-8"?>
<svg width="24" height="24" viewBox="0 0 24 24" xmlns="http://www.w3.org/2000/svg">
 <path d="m20 3.5h-14.5c-0.31 0-0.61 0.15-0.8 0.4l-1.5 2c-0.49 0.66-0.02 1.6 0.8 1.6h14.5c0.31 0 0.61-0.15 0.8-0.4l1.5-2c0.49-0.66 0.02-1.6-0.8-1.6z"/>
 <path d="m4.0002 10h14.5c0.31 0 0.61 0.15 0.8 0.4l1.5 2c0.49 0.66 0.02 1.6-0.8 1.6h-14.5c-0.31 0-0.61-0.15-0.8-0.4l-1.5-2c-0.49-0.66-0.02-1.6 0.8-1.6z" opacity=".4"/>
 <path d="m20 16.5h-14.5c-0.31 0-0.61 0.15-0.8 0.4l-1.5 2c-0.49 0.66-0.02 1.6 0.8 1.6h14.5c0.31 0 0.61-0.15 0.8-0.4l1.5-2c0.49-0.66 0.02-1.6-0.8-1.6z"/>
</svg>
