<?xml version="1.0" encoding="UTF-8"?>
<svg width="24" height="24" viewBox="0 0 24 24" xmlns="http://www.w3.org/2000/svg">
 <path d="m3 16.5c-0.41 0-0.75-0.34-0.75-0.75v-7.5c0-0.41 0.34-0.75 0.75-0.75s0.75 0.34 0.75 0.75v7.5c0 0.41-0.34 0.75-0.75 0.75z"/>
 <path d="m7.5 19c-0.41 0-0.75-0.34-0.75-0.75v-12.5c0-0.41 0.34-0.75 0.75-0.75s0.75 0.34 0.75 0.75v12.5c0 0.41-0.34 0.75-0.75 0.75z" opacity=".4"/>
 <path d="m12 21.5c-0.41 0-0.75-0.34-0.75-0.75v-17.5c0-0.41 0.34-0.75 0.75-0.75s0.75 0.34 0.75 0.75v17.5c0 0.41-0.34 0.75-0.75 0.75z"/>
 <path d="m16.5 19c-0.41 0-0.75-0.34-0.75-0.75v-12.5c0-0.41 0.34-0.75 0.75-0.75s0.75 0.34 0.75 0.75v12.5c0 0.41-0.34 0.75-0.75 0.75z" opacity=".4"/>
 <path d="m21 16.5c-0.41 0-0.75-0.34-0.75-0.75v-7.5c0-0.41 0.34-0.75 0.75-0.75s0.75 0.34 0.75 0.75v7.5c0 0.41-0.34 0.75-0.75 0.75z"/>
</svg>
