<?xml version="1.0" encoding="UTF-8"?>
<svg width="24" height="24" viewBox="0 0 24 24" xmlns="http://www.w3.org/2000/svg">
 <path d="m12 18c1.6569 0 3-1.3431 3-3s-1.3431-3-3-3-3 1.3431-3 3 1.3431 3 3 3z"/>
 <path d="m12 9c0.8284 0 1.5-0.67157 1.5-1.5s-0.6716-1.5-1.5-1.5-1.5 0.67157-1.5 1.5 0.6716 1.5 1.5 1.5z"/>
 <path d="m15 1.6201h-6c-3.19 0-4.38 1.19-4.38 4.38v12c0 3.19 1.19 4.38 4.38 4.38h6c3.19 0 4.38-1.19 4.38-4.38v-12c0-3.19-1.19-4.38-4.38-4.38zm-3 4.38c0.83 0 1.5 0.67 1.5 1.5s-0.67 1.5-1.5 1.5-1.5-0.67-1.5-1.5 0.67-1.5 1.5-1.5zm0 12c-1.66 0-3-1.34-3-3s1.34-3 3-3 3 1.34 3 3-1.34 3-3 3z" opacity=".4"/>
</svg>
