<?xml version="1.0" encoding="UTF-8"?>
<svg width="24" height="24" viewBox="0 0 24 24" xmlns="http://www.w3.org/2000/svg">
 <path d="m19.1 20.3c-0.2 0-0.4-0.1-0.5-0.2-0.3-0.3-0.3-0.8 0-1.1 1.7-1.7 2.6-4 2.6-6.5 0-5.1-4.1-9.2-9.2-9.2s-9.2 4.1-9.2 9.2c0 2.4 0.9 4.7 2.6 6.5 0.3 0.3 0.3 0.8 0 1.1s-0.8 0.3-1.1 0c-2-2-3.1-4.7-3.1-7.5 0-6 4.9-10.9 10.8-10.9s10.8 4.8 10.8 10.8c0 2.8-1.1 5.5-3.1 7.5-0.2 0.2-0.4 0.3-0.6 0.3z" opacity=".4"/>
 <path d="m12 22c2.1539 0 3.9-1.7461 3.9-3.9s-1.7461-3.9-3.9-3.9c-2.1539 0-3.9 1.7461-3.9 3.9s1.7461 3.9 3.9 3.9z"/>
 <path d="m16 8.5c-1.1 0-2 0.9-2 2v0.8c0 0.7 0.6 1.2 1.2 1.2h0.8c1.1 0 2-0.9 2-2s-0.9-2-2-2z"/>
</svg>
