<svg width="24" height="24" viewBox="0 0 24 24"  xmlns="http://www.w3.org/2000/svg">
<path opacity="0.4" d="M12 22C17.5228 22 22 17.5228 22 12C22 6.47715 17.5228 2 12 2C6.47715 2 2 6.47715 2 12C2 17.5228 6.47715 22 12 22Z" />
<path d="M17.4797 11.4192C17.3297 11.4192 17.1797 11.3692 17.0397 11.2792C14.0597 9.13917 10.2397 8.66917 6.83973 10.0292C6.44973 10.1792 6.01973 9.98918 5.86973 9.60918C5.71973 9.22918 5.90973 8.78918 6.28973 8.63918C10.1697 7.09918 14.5197 7.62918 17.9197 10.0692C18.2597 10.3092 18.3297 10.7792 18.0897 11.1192C17.9497 11.3092 17.7197 11.4192 17.4797 11.4192Z" />
<path d="M15.9098 14.1097C15.7598 14.1097 15.6098 14.0597 15.4698 13.9697C13.3498 12.4497 10.6399 12.1197 8.20985 13.0797C7.82985 13.2297 7.38985 13.0397 7.23985 12.6597C7.08985 12.2697 7.27985 11.8397 7.65985 11.6897C10.5598 10.5397 13.8098 10.9397 16.3398 12.7597C16.6798 12.9997 16.7498 13.4697 16.5098 13.8097C16.3698 13.9997 16.1398 14.1097 15.9098 14.1097Z" />
<path d="M14.81 16.8996C14.66 16.8996 14.51 16.8496 14.37 16.7596C12.83 15.6596 10.86 15.4196 9.09999 16.1096C8.71999 16.2596 8.27999 16.0696 8.12999 15.6896C7.97999 15.2996 8.16998 14.8696 8.54998 14.7196C10.79 13.8296 13.29 14.1396 15.24 15.5396C15.58 15.7796 15.65 16.2496 15.41 16.5896C15.28 16.7896 15.05 16.8996 14.81 16.8996Z" />
</svg>
