<?xml version="1.0" encoding="UTF-8"?>
<svg width="24" height="24" viewBox="0 0 24 24" xmlns="http://www.w3.org/2000/svg">
 <path d="m16.19 2.3301h-8.37c-3.64 0-5.81 2.17-5.81 5.81v8.37c0 3.64 2.17 5.81 5.81 5.81h8.37c3.64 0 5.81-2.17 5.81-5.81v-8.36c0-3.64-2.17-5.82-5.81-5.82z" opacity=".4"/>
 <path d="m16.4 8.21-3.76-2.03c-0.4-0.21-0.87-0.21-1.27 0l-3.76 2.03c-0.27 0.15-0.43997 0.44-0.43997 0.77s0.16997 0.62 0.43997 0.77l3.76 2.03c0.2 0.11 0.42 0.16 0.64 0.16s0.44-0.05 0.64-0.16l3.76-2.03c0.27-0.15 0.44-0.44 0.44-0.77-0.01-0.33-0.18-0.62-0.45-0.77z"/>
 <path d="m10.74 12.47-3.5-1.75c-0.27-0.13-0.57999-0.12-0.83999 0.04s-0.41001 0.43-0.41001 0.73v3.31c0 0.57 0.32002 1.09 0.83002 1.34l3.5 1.75c0.12 0.06 0.2499 0.09 0.3899 0.09 0.16 0 0.31-0.04 0.45-0.13 0.26-0.16 0.4101-0.43 0.4101-0.73v-3.31c0-0.57-0.3101-1.08-0.8301-1.34z"/>
 <path d="m17.59 10.76c-0.26-0.16-0.57-0.17-0.84-0.04l-3.5 1.75c-0.51 0.26-0.83 0.77-0.83 1.34v3.31c0 0.3 0.15 0.57 0.41 0.73 0.14 0.09 0.29 0.13 0.45 0.13 0.13 0 0.26-0.03 0.39-0.09l3.5-1.75c0.51-0.26 0.83-0.77 0.83-1.34v-3.31c0-0.3-0.15-0.57-0.41-0.73z"/>
</svg>
