<?xml version="1.0" encoding="UTF-8"?>
<svg width="24" height="24" viewBox="0 0 24 24" xmlns="http://www.w3.org/2000/svg">
 <path d="m12 22c5.5228 0 10-4.4772 10-10 0-5.5228-4.4772-10-10-10-5.5228 0-10 4.4772-10 10 0 5.5228 4.4772 10 10 10z" opacity=".4"/>
 <path d="m7.5 11.25h9c0.41 0 0.75-0.34 0.75-0.75s-0.34-0.75-0.75-0.75h-3.05l1.99-2.82c0.24-0.34 0.16-0.81-0.18-1.04-0.34-0.24-0.81-0.16-1.04 0.18l-2.3 3.26-2.3-3.26c-0.24-0.34-0.71001-0.42-1.04-0.18-0.34 0.24-0.42 0.71-0.18 1.04l1.99 2.82h-2.87c-0.41 0-0.75 0.34-0.75 0.75s0.32001 0.75 0.73001 0.75z"/>
 <path d="m16.5 12.75h-9c-0.41 0-0.75 0.34-0.75 0.75s0.34 0.75 0.75 0.75h2.87l-1.99 2.82c-0.24 0.34-0.16 0.81 0.18 1.04 0.13 0.09 0.27999 0.14 0.42999 0.14 0.24 0 0.47002-0.11 0.61002-0.32l2.3-3.26 2.3 3.26c0.15 0.21 0.38 0.32 0.61 0.32 0.15 0 0.3-0.04 0.43-0.14 0.34-0.24 0.42-0.71 0.18-1.04l-1.99-2.82h3.05c0.41 0 0.75-0.34 0.75-0.75s-0.32-0.75-0.73-0.75z"/>
</svg>
