<?xml version="1.0" encoding="UTF-8"?>
<svg width="24" height="24" viewBox="0 0 24 24" xmlns="http://www.w3.org/2000/svg">
 <path d="m15.39 5.21 1.4099 2.82c0.19 0.39 0.7 0.76 1.13 0.84l2.5501 0.42c1.63 0.27 2.01 1.45 0.84 2.63l-1.9901 1.99c-0.33 0.33-0.5199 0.98-0.4099 1.45l0.5699 2.46c0.45 1.94-0.5899 2.7-2.2999 1.68l-2.3901-1.42c-0.43-0.26-1.1499-0.26-1.5799 0l-2.3901 1.42c-1.71 1.01-2.75 0.26-2.3-1.68l0.57001-2.46c0.11-0.46-0.08001-1.11-0.41001-1.45l-1.99-1.99c-1.17-1.17-0.79-2.35 0.84-2.63l2.5499-0.42c0.43-0.07 0.9401-0.45 1.1301-0.84l1.41-2.82c0.75-1.53 1.99-1.53 2.76 0z"/>
 <path d="m8 5.75h-6c-0.41 0-0.75-0.34-0.75-0.75s0.34-0.75 0.75-0.75h6c0.41 0 0.75 0.34 0.75 0.75s-0.34 0.75-0.75 0.75z" opacity=".4"/>
 <path d="m5 19.75h-3c-0.41 0-0.75-0.34-0.75-0.75s0.34-0.75 0.75-0.75h3c0.41 0 0.75 0.34 0.75 0.75s-0.34 0.75-0.75 0.75z" opacity=".4"/>
 <path d="m3 12.75h-1c-0.41 0-0.75-0.34-0.75-0.75s0.34-0.75 0.75-0.75h1c0.41 0 0.75 0.34 0.75 0.75s-0.34 0.75-0.75 0.75z" opacity=".4"/>
</svg>
