<?xml version="1.0" encoding="UTF-8"?>
<svg width="24" height="24" viewBox="0 0 24 24" xmlns="http://www.w3.org/2000/svg">
 <path d="m10.24 14.74c-0.33003-0.33-0.77003-0.52-1.24-0.52h-5.08c-0.61 0-1.17 0.31-1.49 0.83-0.32 0.51-0.35 1.12-0.09 1.66 1.23 2.52 3.45 4.5 6.09 5.43 0.18 0.06 0.38 0.1 0.57 0.1 0.35 0 0.7-0.11 1-0.32 0.47003-0.33 0.75003-0.87 0.75003-1.44l0.01-4.5c-0.01-0.47-0.19-0.91-0.52-1.24z" opacity=".4"/>
 <path d="m22.48 9.6c-1.12-4.92-5.43-8.35-10.48-8.35-5.05 0-9.36 3.43-10.48 8.35-0.12 0.52 0 1.05 0.34 1.47s0.84 0.66 1.38 0.66h17.53c0.54 0 1.04-0.24 1.38-0.66 0.33-0.42 0.45-0.96 0.33-1.47z"/>
 <path d="m21.56 15.1c-0.32-0.52-0.88-0.84-1.5-0.84l-5.06-0.01c-0.47 0-0.91 0.18-1.24 0.51s-0.51 0.77-0.51 1.24l0.01 4.48c0 0.57 0.28 1.11 0.75 1.44 0.3 0.21 0.65 0.32 1 0.32 0.19 0 0.38-0.03 0.56-0.1 2.62-0.92 4.84-2.89 6.07-5.38 0.26-0.53 0.23-1.15-0.08-1.66z" opacity=".4"/>
</svg>
