<?xml version="1.0" encoding="UTF-8"?>
<svg width="24" height="24" viewBox="0 0 24 24" xmlns="http://www.w3.org/2000/svg">
 <path d="M16.19 2H7.81C4.17 2 2 4.17 2 7.81V16.18C2 19.83 4.17 22 7.81 22H16.18C19.82 22 21.99 19.83 21.99 16.19V7.81C22 4.17 19.83 2 16.19 2Z" opacity=".4"/>
 <path d="m6.8799 18.9c-0.41 0-0.75-0.34-0.75-0.75v-2.07c0-0.41 0.34-0.75 0.75-0.75s0.75 0.34 0.75 0.75v2.07c0 0.42-0.34 0.75-0.75 0.75z"/>
 <path d="m12 18.9c-0.41 0-0.75-0.34-0.75-0.75v-4.15c0-0.41 0.34-0.75 0.75-0.75s0.75 0.34 0.75 0.75v4.15c0 0.42-0.34 0.75-0.75 0.75z"/>
 <path d="m17.12 18.9c-0.41 0-0.75-0.34-0.75-0.75v-6.22c0-0.41 0.34-0.75 0.75-0.75s0.75 0.34 0.75 0.75v6.22c0 0.42-0.33 0.75-0.75 0.75z"/>
 <path d="m17.87 5.8196c0-0.05-0.02-0.11-0.03-0.16-0.01-0.04-0.02-0.09-0.03-0.13-0.02-0.04-0.05-0.07-0.07-0.11-0.03-0.04-0.06-0.09-0.1-0.12-0.01-0.01-0.01-0.02-0.02-0.02-0.03-0.02-0.06-0.03-0.09-0.05-0.04-0.03-0.09-0.06-0.14-0.08s-0.1-0.02-0.15-0.03c-0.04-0.01-0.07-0.02-0.11-0.02h-2.93c-0.41 0-0.75 0.34-0.75 0.75s0.34 0.75 0.75 0.75h1.25c-2.38 2.5-5.38 4.26-8.75 5.11-0.4 0.1-0.65 0.51-0.55 0.91 0.08 0.34 0.39 0.57 0.73 0.57 0.06 0 0.12-0.01 0.18-0.02 3.57-0.89 6.76-2.74 9.31-5.36v0.97c0 0.41 0.34 0.75 0.75 0.75s0.75-0.34 0.75-0.75v-2.93-0.03z"/>
</svg>
