<svg width="24" height="24" viewBox="0 0 24 24"  xmlns="http://www.w3.org/2000/svg">
<path d="M4.0401 14.94C3.7101 14.94 3.41013 14.72 3.32013 14.39C3.11013 13.61 3.00012 12.81 3.00012 12C3.00012 7.04 7.04012 3 12.0001 3C13.6901 3 15.3301 3.47 16.7501 4.36C17.1001 4.58 17.2101 5.04 16.9901 5.39C16.7701 5.74 16.3101 5.85 15.9601 5.63C14.7701 4.89 13.4001 4.5 12.0001 4.5C7.86012 4.5 4.50012 7.86 4.50012 12C4.50012 12.68 4.59014 13.35 4.77014 13.99C4.88014 14.39 4.64011 14.8 4.24011 14.91C4.18011 14.93 4.1101 14.94 4.0401 14.94Z" />
<path d="M12.0001 21C10.3001 21 8.65009 20.52 7.22009 19.63C6.87009 19.41 6.7601 18.95 6.9801 18.6C7.2001 18.25 7.66013 18.14 8.01013 18.36C9.20013 19.11 10.5801 19.5 11.9901 19.5C16.1301 19.5 19.4901 16.14 19.4901 12C19.4901 11.27 19.3801 10.54 19.1801 9.85C19.0601 9.45 19.2901 9.04 19.6801 8.92C20.0801 8.8 20.4901 9.03 20.6101 9.42C20.8601 10.25 20.9901 11.12 20.9901 12C21.0001 16.96 16.9601 21 12.0001 21Z" />
<path d="M2.00014 16.75C1.74014 16.75 1.48017 16.61 1.34017 16.36C1.14017 16 1.27016 15.54 1.64016 15.34L21.6402 4.34C22.0002 4.14 22.4601 4.27 22.6601 4.64C22.8601 5 22.7301 5.46 22.3601 5.66L2.36013 16.66C2.25013 16.72 2.12014 16.75 2.00014 16.75Z" />
<path d="M2.00014 20.25C1.74014 20.25 1.48017 20.11 1.34017 19.86C1.14017 19.5 1.27016 19.04 1.64016 18.84L21.6402 7.84C22.0002 7.64 22.4601 7.77 22.6601 8.14C22.8601 8.5 22.7301 8.96 22.3601 9.16L2.36013 20.16C2.25013 20.22 2.12014 20.25 2.00014 20.25Z" />
</svg>
