<?xml version="1.0" encoding="UTF-8"?>
<svg width="24" height="24" viewBox="0 0 24 24" xmlns="http://www.w3.org/2000/svg">
 <path d="m21.93 12.86c-0.02 0.19-0.05 0.37-0.1 0.55-1.04-0.88-2.39-1.41-3.86-1.41-3.31 0-6 2.69-6 6 0 1.47 0.53 2.82 1.41 3.86-0.18 0.05-0.36 0.08-0.55 0.1-0.85 0.08-1.72 0.04-2.62-0.11-4.11-0.7-7.42-4.03-8.1-8.15-1.13-6.85 4.71-12.69 11.56-11.56 4.12 0.68 7.45 3.99 8.15 8.1 0.15 0.9 0.19 1.77 0.11 2.62z" opacity=".4"/>
 <path d="m21.83 13.41c-0.14 0.49-0.4 0.93-0.77 1.3l-6.38 6.38c-0.37 0.37-0.81 0.63-1.3 0.77-0.88-1.04-1.41-2.39-1.41-3.86 0-3.31 2.69-6 6-6 1.47 0 2.82 0.53 3.86 1.41z"/>
</svg>
