<?xml version="1.0" encoding="UTF-8"?>
<svg width="24" height="24" viewBox="0 0 24 24" xmlns="http://www.w3.org/2000/svg">
 <path d="m21.5 8.37v7.45c0 0.15-0.05 0.3-0.18 0.43-1.45 1.46-4.03 4.06-5.51 5.55-0.13 0.14-0.3 0.2-0.47 0.2h-7.97c-2.69 0-4.87-2.18-4.87-4.87v-8.76c0-2.69 2.18-4.87 4.87-4.87h9.26c2.69 0 4.87 2.18 4.87 4.87z" opacity=".4"/>
 <path d="m8.29 6.29c-0.42 0-0.75-0.34-0.75-0.75v-2.79c0-0.41 0.33-0.75 0.75-0.75s0.75 0.34 0.75 0.75v2.78c0 0.42-0.33 0.76-0.75 0.76z"/>
 <path d="m15.71 6.29c-0.42 0-0.75-0.34-0.75-0.75v-2.79c0-0.42 0.34-0.75 0.75-0.75 0.42 0 0.75 0.34 0.75 0.75v2.78c0 0.42-0.33 0.76-0.75 0.76z"/>
 <path d="m14.78 12.71h-7.42c-0.42 0-0.75-0.34-0.75-0.75s0.34-0.75 0.75-0.75h7.42c0.42 0 0.75 0.34 0.75 0.75s-0.33 0.75-0.75 0.75z"/>
 <path d="m12 16.42h-4.64c-0.42 0-0.75-0.34-0.75-0.75 0-0.42 0.34-0.75 0.75-0.75h4.64c0.42 0 0.75 0.34 0.75 0.75s-0.33 0.75-0.75 0.75z"/>
 <path d="m21.5 15.82c0 0.15-0.05 0.3-0.18 0.43-1.45 1.46-4.03 4.06-5.51 5.55-0.13 0.14-0.3 0.2-0.47 0.2-0.33 0-0.65-0.26-0.65-0.64v-3.5c0-1.46 1.24-2.67 2.76-2.67 0.95-0.01 2.27-0.01 3.4-0.01 0.39 0 0.65 0.31 0.65 0.64z"/>
</svg>
