<?xml version="1.0" encoding="UTF-8"?>
<svg width="24" height="24" viewBox="0 0 24 24" xmlns="http://www.w3.org/2000/svg">
 <path d="m16.19 2h-8.37c-3.64 0-5.81 2.17-5.81 5.81v8.37c0 3.64 2.17 5.81 5.81 5.81h8.37c3.64 0 5.81-2.17 5.81-5.81v-8.37c0-3.64-2.17-5.81-5.81-5.81z" opacity=".4"/>
 <path d="m22 10.16h-7.67c-0.01-0.07-0.01-0.15-0.03-0.22003-0.21-0.8-0.86-1.45-1.66-1.66-1.44-0.38-2.75 0.56001-2.97 1.88h-7.67v1.5h7.91c0.2 0.38 0.48 0.7 0.84 0.92v1.98c0 0.69 0.56 1.25 1.25 1.25s1.25-0.56 1.25-1.25v-1.98c0.36-0.22 0.64-0.54 0.84-0.92h7.91v-1.5z"/>
</svg>
