<?xml version="1.0" encoding="UTF-8"?>
<svg width="24" height="24" viewBox="0 0 24 24" xmlns="http://www.w3.org/2000/svg">
 <path d="m16.19 2h-8.37c-3.64 0-5.81 2.17-5.81 5.81v8.37c0 3.64 2.17 5.81 5.81 5.81h8.37c3.64 0 5.81-2.17 5.81-5.81v-8.37c0-3.64-2.17-5.81-5.81-5.81z" opacity=".4"/>
 <path d="m16 9.24h2c0.55 0 1-0.45 1-1v-0.23999c0-1.66-1.34-3-3-3h-8c-1.66 0-3 1.34-3 3v0.5c0 0.55 0.45 1 1 1h1.34c1.31 0 2.5 0.94 2.63 2.25 0.15 1.5-1.02 2.76-2.49 2.76h-1.48c-0.55 0-1 0.45-1 1v0.5c0 1.66 1.34 3 3 3h8c1.66 0 3-1.34 3-3v-0.25c0-0.55-0.45-1-1-1h-2c-0.41 0-0.75-0.34-0.75-0.75s0.34-0.75 0.75-0.75h2c0.55 0 1-0.45 1-1v-0.51c0-0.55-0.45-1-1-1h-2c-0.41 0-0.75-0.33-0.75-0.75s0.34-0.76001 0.75-0.76001z"/>
 <path d="m7 13h-1c-0.55 0-1-0.45-1-1s0.45-1 1-1h1c0.55 0 1 0.45 1 1s-0.45 1-1 1z"/>
</svg>
