<?xml version="1.0" encoding="UTF-8"?>
<svg width="24" height="24" viewBox="0 0 24 24" xmlns="http://www.w3.org/2000/svg">
 <path d="m10 3.75h1.25v4.75c0 0.41 0.34 0.75 0.75 0.75s0.75-0.34 0.75-0.75v-4.75h1.25c0.41 0 0.75-0.34 0.75-0.75s-0.34-0.75-0.75-0.75h-4c-0.41 0-0.75 0.34-0.75 0.75s0.34 0.75 0.75 0.75z" opacity=".4"/>
 <path d="m14 20.25h-1.25v-4.75c0-0.41-0.34-0.75-0.75-0.75s-0.75 0.34-0.75 0.75v4.75h-1.25c-0.41 0-0.75 0.34-0.75 0.75s0.34 0.75 0.75 0.75h4c0.41 0 0.75-0.34 0.75-0.75s-0.34-0.75-0.75-0.75z" opacity=".4"/>
 <path d="m2.8299 9.8799c0.12 0.07 0.25 0.1 0.37 0.1 0.26 0 0.51-0.13001 0.65-0.38001l0.63-1.08 4.12 2.38c0.11 0.07 0.24 0.1 0.37 0.1 0.26 0 0.51-0.13 0.65-0.38 0.21-0.36 0.08-0.81997-0.27-1.02l-4.11-2.38 0.62-1.08c0.21-0.36 0.08-0.82001-0.27-1.02-0.36-0.21-0.82-0.08999-1.02 0.27001l-2 3.46c-0.22 0.37-0.1 0.82001 0.26 1.03z" opacity=".4"/>
 <path d="m21.17 14.12c-0.36-0.21-0.82-0.09-1.02 0.27l-0.63 1.08-4.12-2.37c-0.36-0.21-0.82-0.08-1.02 0.27-0.21 0.36-0.08 0.82 0.27 1.02l4.11 2.38-0.62 1.08c-0.21 0.36-0.08 0.82 0.27 1.02 0.12 0.07 0.25 0.1 0.37 0.1 0.26 0 0.51-0.13 0.65-0.38l2-3.46c0.22-0.35 0.1-0.8-0.26-1.01z" opacity=".4"/>
 <path d="m18.77 7.2199-4.11 2.38c-0.36 0.21-0.48 0.66996-0.27 1.02 0.14 0.24 0.39 0.38 0.65 0.38 0.13 0 0.26-0.03 0.37-0.1l4.11-2.38 0.63 1.08c0.14 0.24 0.39 0.38 0.65 0.38 0.13 0 0.26-0.03 0.37-0.1 0.36-0.21 0.48-0.67 0.27-1.02l-2-3.46c-0.21-0.36-0.67-0.48-1.02-0.27-0.36 0.21-0.48 0.67-0.27 1.02l0.62 1.07z" opacity=".4"/>
 <path d="m5.2299 16.78 4.11-2.38c0.36-0.21 0.48-0.67 0.27-1.02-0.21-0.36-0.67-0.48-1.02-0.27l-4.11 2.38-0.63-1.08c-0.21-0.36-0.67-0.48-1.02-0.27-0.36 0.21-0.48 0.67-0.27 1.02l2 3.46c0.14 0.24 0.39 0.38 0.65 0.38 0.13 0 0.26-0.03 0.37-0.1 0.36-0.21 0.48-0.67 0.27-1.02l-0.62-1.1z" opacity=".4"/>
 <path d="m15.5 12c0 0.64-0.17 1.23-0.47 1.75-0.61 1.05-1.74 1.75-3.03 1.75s-2.42-0.7-3.03-1.75c-0.3-0.52-0.47-1.11-0.47-1.75s0.17-1.23 0.47-1.75c0.61-1.05 1.74-1.75 3.03-1.75s2.42 0.7 3.03 1.75c0.3 0.52 0.47 1.11 0.47 1.75z"/>
</svg>
