<?xml version="1.0" encoding="UTF-8"?>
<svg width="24" height="24" viewBox="0 0 24 24" xmlns="http://www.w3.org/2000/svg">
 <path d="m18.48 12.25c0.28 0 0.52-0.24 0.5-0.52-0.27-3.62-3.29-6.48-6.98-6.48-3.69 0-6.71 2.85-6.98 6.48-0.02 0.28 0.22 0.52 0.5 0.52h12.96z"/>
 <path d="m22 13h-0.08c-0.55 0-1-0.45-1-1s0.45-1 1-1 1.04 0.45 1.04 1-0.41 1-0.96 1zm-19.92 0h-0.08002c-0.55 0-1-0.45-1-1s0.45-1 1-1 1.04 0.45 1.04 1-0.40996 1-0.95996 1zm16.93-7.01c-0.26 0-0.51-0.10001-0.71-0.29001-0.39-0.39-0.39-1.02 0-1.41l0.13-0.12999c0.39-0.39 1.02-0.39 1.41 0s0.39 1.02 0 1.41l-0.13 0.12999c-0.19 0.19-0.44 0.29001-0.7 0.29001zm-14.02 0c-0.26 0-0.50996-0.10001-0.70996-0.29001l-0.13001-0.12999c-0.39-0.39-0.39-1.02 0-1.41s1.02-0.39 1.41 0l0.13 0.12999c0.39 0.39 0.39 1.02 0 1.41-0.19 0.19-0.45001 0.29001-0.70001 0.29001zm7.01-2.95c-0.55 0-1-0.40999-1-0.95999v-0.08c0-0.55 0.45-1 1-1s1 0.45 1 1-0.45 1.04-1 1.04z"/>
 <path d="m20 15.75h-16c-0.41 0-0.75-0.34-0.75-0.75s0.34-0.75 0.75-0.75h16c0.41 0 0.75 0.34 0.75 0.75s-0.34 0.75-0.75 0.75z" opacity=".4"/>
 <path d="m18 18.75h-12c-0.41 0-0.75-0.34-0.75-0.75s0.34-0.75 0.75-0.75h12c0.41 0 0.75 0.34 0.75 0.75s-0.34 0.75-0.75 0.75z" opacity=".4"/>
 <path d="m15 21.75h-6c-0.41 0-0.75-0.34-0.75-0.75s0.34-0.75 0.75-0.75h6c0.41 0 0.75 0.34 0.75 0.75s-0.34 0.75-0.75 0.75z" opacity=".4"/>
</svg>
