<svg width="24" height="24" viewBox="0 0 24 24"  xmlns="http://www.w3.org/2000/svg">
<path opacity="0.4" d="M18 18.86H17.24C16.44 18.86 15.68 19.17 15.12 19.73L13.41 21.42C12.63 22.19 11.36 22.19 10.58 21.42L8.87 19.73C8.31 19.17 7.54 18.86 6.75 18.86H6C4.34 18.86 3 17.53 3 15.89V4.97998C3 3.33998 4.34 2.01001 6 2.01001H18C19.66 2.01001 21 3.33998 21 4.97998V15.89C21 17.52 19.66 18.86 18 18.86Z" />
<path d="M10.38 14.5099H7.69998C7.25998 14.5099 6.84998 14.2999 6.58998 13.9399C6.33998 13.5999 6.27998 13.18 6.39998 12.78C6.74998 11.71 7.60998 11.1299 8.36998 10.6099C9.16998 10.0699 9.61998 9.72996 9.61998 9.14996C9.61998 8.62996 9.19998 8.20996 8.67998 8.20996C8.15998 8.20996 7.73999 8.62996 7.73999 9.14996C7.73999 9.55996 7.39999 9.89996 6.98999 9.89996C6.57999 9.89996 6.23999 9.55996 6.23999 9.14996C6.23999 7.80996 7.32998 6.70996 8.67998 6.70996C10.03 6.70996 11.12 7.79996 11.12 9.14996C11.12 10.56 10.06 11.2799 9.20999 11.8599C8.67999 12.2199 8.17998 12.5599 7.92998 13.0099H10.37C10.78 13.0099 11.12 13.3499 11.12 13.7599C11.12 14.1699 10.79 14.5099 10.38 14.5099Z" />
<path d="M16.0399 14.5099C15.6299 14.5099 15.2899 14.1699 15.2899 13.7599V13.0699H13.3299C13.3299 13.0699 13.3299 13.0699 13.3199 13.0699C12.8299 13.0699 12.3799 12.81 12.1299 12.39C11.8799 11.96 11.8799 11.4299 12.1299 11.0099C12.8099 9.83995 13.5999 8.50991 14.3199 7.34991C14.6399 6.83991 15.2499 6.60996 15.8199 6.76996C16.3899 6.93996 16.7899 7.45993 16.7799 8.05993V11.58H16.9999C17.4099 11.58 17.7499 11.92 17.7499 12.33C17.7499 12.74 17.4099 13.08 16.9999 13.08H16.7899V13.77C16.7899 14.18 16.4599 14.5099 16.0399 14.5099ZM15.2899 8.63995C14.6999 9.59995 14.0899 10.6299 13.5399 11.5699H15.2899V8.63995Z" />
</svg>
