<svg width="24" height="24" viewBox="0 0 24 24"  xmlns="http://www.w3.org/2000/svg">
<path opacity="0.4" d="M4.16989 15.3L8.69989 19.83C10.5599 21.69 13.5799 21.69 15.4499 19.83L19.8399 15.44C21.6999 13.58 21.6999 10.56 19.8399 8.68999L15.2999 4.16999C14.3499 3.21999 13.0399 2.70999 11.6999 2.77999L6.69989 3.01999C4.69989 3.10999 3.10989 4.69999 3.00989 6.68999L2.76989 11.69C2.70989 13.04 3.21989 14.35 4.16989 15.3Z" />
<path d="M9.50012 12.38C11.0907 12.38 12.3801 11.0906 12.3801 9.5C12.3801 7.90942 11.0907 6.62 9.50012 6.62C7.90954 6.62 6.62012 7.90942 6.62012 9.5C6.62012 11.0906 7.90954 12.38 9.50012 12.38Z" />
<path d="M12.9999 17.75C12.8099 17.75 12.6199 17.68 12.4699 17.53C12.1799 17.24 12.1799 16.76 12.4699 16.47L16.4699 12.47C16.7599 12.18 17.2399 12.18 17.5299 12.47C17.8199 12.76 17.8199 13.24 17.5299 13.53L13.5299 17.53C13.3799 17.68 13.1899 17.75 12.9999 17.75Z" />
</svg>
