<svg width="24" height="24" viewBox="0 0 24 24"  xmlns="http://www.w3.org/2000/svg">
<path d="M12.0701 21.9802C10.6601 21.9802 9.24009 21.4402 8.17009 20.3702L3.64009 15.8402C2.54009 14.7402 1.96009 13.2202 2.03009 11.6702L2.27009 6.67018C2.38009 4.28018 4.27009 2.39018 6.67009 2.27018L11.6701 2.03018C13.2201 1.97018 14.7401 2.54018 15.8401 3.64018L20.3701 8.17018C22.5201 10.3202 22.5201 13.8302 20.3701 15.9802L15.9801 20.3702C14.9001 21.4402 13.4901 21.9802 12.0701 21.9802ZM4.70009 14.7702L9.23009 19.3002C9.99009 20.0602 11.0001 20.4802 12.0701 20.4802C13.1401 20.4802 14.1501 20.0602 14.9101 19.3002L19.3001 14.9102C20.0601 14.1502 20.4801 13.1402 20.4801 12.0702C20.4801 11.0002 20.0601 9.99018 19.3001 9.23018L14.7701 4.70018C13.9701 3.90018 12.8601 3.47018 11.7401 3.53018L6.74009 3.77018C5.11009 3.84018 3.84009 5.11018 3.76009 6.73018L3.52009 11.7302C3.47009 12.8602 3.90009 13.9702 4.70009 14.7702Z" />
<path d="M9.50009 12.7502C7.71009 12.7502 6.25009 11.2902 6.25009 9.50018C6.25009 7.71018 7.71009 6.25018 9.50009 6.25018C11.2901 6.25018 12.7501 7.71018 12.7501 9.50018C12.7501 11.2902 11.2901 12.7502 9.50009 12.7502ZM9.50009 7.75018C8.54009 7.75018 7.75009 8.54018 7.75009 9.50018C7.75009 10.4602 8.54009 11.2502 9.50009 11.2502C10.4601 11.2502 11.2501 10.4602 11.2501 9.50018C11.2501 8.54018 10.4601 7.75018 9.50009 7.75018Z" />
</svg>
