<?xml version="1.0" encoding="UTF-8"?>
<svg width="24" height="24" viewBox="0 0 24 24" xmlns="http://www.w3.org/2000/svg">
 <path d="m4.1699 15.3 4.53 4.53c1.86 1.86 4.88 1.86 6.75 0l4.39-4.39c1.86-1.86 1.86-4.88 0-6.75l-4.54-4.52c-0.95-0.95-2.26-1.46-3.6-1.39l-5 0.24c-2 0.09-3.59 1.68-3.69 3.67l-0.24 5c-0.06 1.35 0.45 2.66 1.4 3.61z" opacity=".4"/>
 <path d="m9.5001 12.38c1.5906 0 2.88-1.2894 2.88-2.88 0-1.5906-1.2894-2.88-2.88-2.88s-2.88 1.2894-2.88 2.88c0 1.5906 1.2894 2.88 2.88 2.88z"/>
</svg>
