<svg width="24" height="24" viewBox="0 0 24 24"  xmlns="http://www.w3.org/2000/svg">
<path d="M12.0701 21.9798C10.6601 21.9798 9.24009 21.4398 8.17009 20.3698L3.64009 15.8398C2.54009 14.7398 1.96009 13.2198 2.03009 11.6698L2.27009 6.65983C2.38009 4.26983 4.27009 2.37983 6.67009 2.25983L11.6701 2.01983C13.2301 1.94983 14.7401 2.52983 15.8401 3.62983L20.3701 8.15983C22.5201 10.3098 22.5201 13.8198 20.3701 15.9698L15.9801 20.3598C14.9001 21.4398 13.4901 21.9798 12.0701 21.9798ZM4.70009 14.7698L9.23009 19.2998C10.8001 20.8698 13.3501 20.8698 14.9201 19.2998L19.3101 14.9098C20.8801 13.3398 20.8801 10.7898 19.3101 9.21983L14.7701 4.69983C13.9701 3.89983 12.8801 3.47983 11.7301 3.52983L6.73009 3.76983C5.11009 3.83983 3.84009 5.10983 3.76009 6.72983L3.52009 11.7398C3.47009 12.8598 3.90009 13.9698 4.70009 14.7698Z" />
<path d="M9.50009 12.7498C7.71009 12.7498 6.25009 11.2898 6.25009 9.49983C6.25009 7.70983 7.71009 6.24983 9.50009 6.24983C11.2901 6.24983 12.7501 7.70983 12.7501 9.49983C12.7501 11.2898 11.2901 12.7498 9.50009 12.7498ZM9.50009 7.74983C8.54009 7.74983 7.75009 8.53983 7.75009 9.49983C7.75009 10.4598 8.54009 11.2498 9.50009 11.2498C10.4601 11.2498 11.2501 10.4598 11.2501 9.49983C11.2501 8.53983 10.4601 7.74983 9.50009 7.74983Z" />
<path d="M13.0001 17.7498C12.8101 17.7498 12.6201 17.6798 12.4701 17.5298C12.1801 17.2398 12.1801 16.7598 12.4701 16.4698L16.4701 12.4698C16.7601 12.1798 17.2401 12.1798 17.5301 12.4698C17.8201 12.7598 17.8201 13.2398 17.5301 13.5298L13.5301 17.5298C13.3801 17.6798 13.1901 17.7498 13.0001 17.7498Z" />
</svg>
