<?xml version="1.0" encoding="UTF-8"?>
<svg width="24" height="24" viewBox="0 0 24 24" xmlns="http://www.w3.org/2000/svg">
 <path d="m10.28 20.25h6.72c2.76 0 5-2.24 5-5v-6.5c0-2.76-2.24-5-5-5h-6.72c-1.41 0-2.75 0.59-3.7 1.64l-3.53 3.88c-1.41 1.55-1.41 3.91 0 5.46l3.53 3.88c0.95 1.05 2.29 1.64 3.7 1.64z" opacity=".4"/>
 <path d="m14.59 12 1.94-1.94c0.29-0.28997 0.29-0.76997 0-1.06s-0.77-0.29-1.06 0l-1.94 1.94-1.94-1.94c-0.29-0.29-0.77-0.29-1.06 0s-0.29 0.77 0 1.06l1.94 1.94-1.94 1.94c-0.29 0.29-0.29 0.77 0 1.06 0.15 0.15 0.34 0.22 0.53 0.22s0.38-0.07 0.53-0.22l1.94-1.94 1.94 1.94c0.15 0.15 0.34 0.22 0.53 0.22s0.38-0.07 0.53-0.22c0.29-0.29 0.29-0.77 0-1.06l-1.94-1.94z"/>
</svg>
