<svg width="24" height="24" viewBox="0 0 24 24"  xmlns="http://www.w3.org/2000/svg">
<path d="M17.0002 21H10.2802C8.66023 21 7.11023 20.31 6.03023 19.12L2.50023 15.24C0.820234 13.4 0.820234 10.62 2.50023 8.77L6.03023 4.89C7.11023 3.69 8.66023 3 10.2802 3H17.0002C20.1702 3 22.7502 5.58 22.7502 8.75V15.25C22.7502 18.42 20.1702 21 17.0002 21ZM10.2802 4.5C9.09023 4.5 7.94023 5.01 7.14023 5.89L3.60023 9.78C2.45023 11.05 2.45023 12.96 3.60023 14.23L7.13023 18.11C7.93023 18.99 9.08024 19.5 10.2702 19.5H17.0002C19.3402 19.5 21.2502 17.59 21.2502 15.25V8.75C21.2502 6.41 19.3402 4.5 17.0002 4.5H10.2802Z" />
<path d="M16.0002 15.22C15.8102 15.22 15.6202 15.15 15.4702 15L10.5302 10.05C10.2402 9.76 10.2402 9.28 10.5302 8.99C10.8202 8.7 11.3002 8.7 11.5902 8.99L16.5302 13.94C16.8202 14.23 16.8202 14.71 16.5302 15C16.3802 15.15 16.1902 15.22 16.0002 15.22Z" />
<path d="M11.0602 15.22C10.8702 15.22 10.6802 15.15 10.5302 15C10.2402 14.71 10.2402 14.23 10.5302 13.94L15.4702 9C15.7602 8.71 16.2402 8.71 16.5302 9C16.8202 9.29 16.8202 9.77 16.5302 10.06L11.5902 15C11.4402 15.15 11.2502 15.22 11.0602 15.22Z" />
</svg>
