<svg width="24" height="24" viewBox="0 0 24 24"  xmlns="http://www.w3.org/2000/svg">
<path opacity="0.4" d="M10.2799 20.25H16.9999C19.7599 20.25 21.9999 18.01 21.9999 15.25V8.75C21.9999 5.99 19.7599 3.75 16.9999 3.75H10.2799C8.86993 3.75 7.52993 4.34 6.57993 5.39L3.04993 9.27C1.63993 10.82 1.63993 13.18 3.04993 14.73L6.57993 18.61C7.52993 19.66 8.86993 20.25 10.2799 20.25Z" />
<path d="M14.59 12L16.53 10.06C16.82 9.76997 16.82 9.28997 16.53 8.99997C16.24 8.70997 15.76 8.70997 15.47 8.99997L13.53 10.94L11.59 8.99997C11.3 8.70997 10.82 8.70997 10.53 8.99997C10.24 9.28997 10.24 9.76997 10.53 10.06L12.47 12L10.53 13.94C10.24 14.23 10.24 14.71 10.53 15C10.68 15.15 10.87 15.22 11.06 15.22C11.25 15.22 11.44 15.15 11.59 15L13.53 13.06L15.47 15C15.62 15.15 15.81 15.22 16 15.22C16.19 15.22 16.38 15.15 16.53 15C16.82 14.71 16.82 14.23 16.53 13.94L14.59 12Z" />
</svg>
