<?xml version="1.0" encoding="UTF-8"?>
<svg width="24" height="24" viewBox="0 0 24 24" xmlns="http://www.w3.org/2000/svg">
 <path d="m17.88 6.1198-13.95 13.95c-0.43 0.43-1.15 0.39-1.5-0.1-0.5-0.69-0.59999-1.65-0.07999-2.48l2.76-4.43c0.37-0.59 0.37-1.55 0-2.14l-2.76-4.43c-0.93-1.48 0.13999-3.4 1.88-3.4h11.45c0.68 0 1.5201 0.47 1.8801 1.04l0.47 0.74c0.23 0.41 0.18 0.92-0.15 1.25z"/>
 <path d="m21.63 13.11-5.18 6.9c-0.36 0.49-1.16 0.89-1.78 0.89h-7.16c-0.89 0-1.34-1.08-0.70999-1.71l11.51-11.51c0.45-0.45 1.22-0.37 1.56 0.18l1.85 2.97c0.41 0.64 0.37 1.67-0.09 2.28z" opacity=".4"/>
</svg>
