<?xml version="1.0" encoding="UTF-8"?>
<svg width="24" height="24" viewBox="0 0 24 24" xmlns="http://www.w3.org/2000/svg">
 <path d="m20 19.26h-9.07c-0.45 0-0.82-0.37-0.82-0.82s0.37-0.82 0.82-0.82h9.07c0.45 0 0.82 0.37 0.82 0.82 0 0.46-0.37 0.82-0.82 0.82z"/>
 <path d="m20 12.97h-9.07c-0.45 0-0.82-0.37-0.82-0.82s0.37-0.82 0.82-0.82h9.07c0.45 0 0.82 0.37 0.82 0.82s-0.37 0.82-0.82 0.82z"/>
 <path d="m20 6.6703h-9.07c-0.45 0-0.82-0.37-0.82-0.82s0.37-0.82 0.82-0.82h9.07c0.45 0 0.82 0.37 0.82 0.82s-0.37 0.82-0.82 0.82z"/>
 <path d="m4.9102 8.0299c-0.22 0-0.43-0.09-0.58-0.24l-0.91-0.91c-0.32-0.32-0.32-0.84 0-1.16s0.84-0.32 1.16 0l0.33 0.33 2.14-2.14c0.32-0.32 0.84-0.32 1.16 0s0.32 0.84 0 1.16l-2.72 2.72c-0.16 0.15-0.36 0.24-0.58 0.24z" opacity=".4"/>
 <path d="m4.9102 14.33c-0.21 0-0.42-0.08-0.58-0.24l-0.91-0.91c-0.32-0.32-0.32-0.84 0-1.16s0.84-0.32 1.16 0l0.33 0.33 2.14-2.14c0.32-0.31997 0.84-0.31997 1.16 0 0.32 0.32 0.32 0.84 0 1.16l-2.72 2.72c-0.16 0.16-0.37 0.24-0.58 0.24z" opacity=".4"/>
 <path d="m4.9102 20.33c-0.21 0-0.42-0.08-0.58-0.24l-0.91-0.91c-0.32-0.32-0.32-0.84 0-1.16s0.84-0.32 1.16 0l0.33 0.33 2.14-2.14c0.32-0.32 0.84-0.32 1.16 0s0.32 0.84 0 1.16l-2.72 2.72c-0.16 0.16-0.37 0.24-0.58 0.24z" opacity=".4"/>
</svg>
