<?xml version="1.0" encoding="UTF-8"?>
<svg width="20" height="21" viewBox="0 0 20 21" xmlns="http://www.w3.org/2000/svg">
 <path d="m14.19 0.9707h-8.38c-3.64 0-5.81 2.17-5.81 5.81v8.38c0 3.64 2.17 5.81 5.81 5.81h8.38c3.64 0 5.81-2.17 5.81-5.81v-8.38c0-3.64-2.17-5.81-5.81-5.81z" opacity=".4"/>
 <path d="m16.31 7.8408c0 0.41-0.33 0.75-0.75 0.75h-5.25c-0.41004 0-0.75004-0.34-0.75004-0.75s0.34-0.75 0.75004-0.75h5.25c0.42 0 0.75 0.34 0.75 0.75z"/>
 <path d="m7.9701 6.8703-2.25 2.25c-0.15 0.15-0.34 0.22-0.53 0.22s-0.39-0.07-0.53-0.22l-0.75-0.75c-0.3-0.29-0.3-0.77 0-1.06 0.29-0.29 0.76-0.29 1.06 0l0.22 0.22 1.72-1.72c0.29-0.29 0.76-0.29 1.06 0 0.29 0.29 0.29 0.77 0 1.06z"/>
 <path d="m16.31 14.841c0 0.41-0.33 0.75-0.75 0.75h-5.25c-0.41004 0-0.75004-0.34-0.75004-0.75s0.34-0.75 0.75004-0.75h5.25c0.42 0 0.75 0.34 0.75 0.75z"/>
 <path d="m7.9701 13.87-2.25 2.25c-0.15 0.15-0.34 0.22-0.53 0.22s-0.39-0.07-0.53-0.22l-0.75-0.75c-0.3-0.29-0.3-0.77 0-1.06 0.29-0.29 0.76-0.29 1.06 0l0.22 0.22 1.72-1.72c0.29-0.29 0.76-0.29 1.06 0 0.29 0.29 0.29 0.77 0 1.06z"/>
</svg>
