<svg width="20" height="21" viewBox="0 0 20 21"  xmlns="http://www.w3.org/2000/svg">
<path opacity="0.4" d="M14.19 0.970703H5.81C2.17 0.970703 0 3.1407 0 6.7807V15.1607C0 18.8007 2.17 20.9707 5.81 20.9707H14.19C17.83 20.9707 20 18.8007 20 15.1607V6.7807C20 3.1407 17.83 0.970703 14.19 0.970703Z" />
<path d="M16.3101 7.84082C16.3101 8.25082 15.9801 8.59082 15.5601 8.59082H10.3101C9.90006 8.59082 9.56006 8.25082 9.56006 7.84082C9.56006 7.43082 9.90006 7.09082 10.3101 7.09082H15.5601C15.9801 7.09082 16.3101 7.43082 16.3101 7.84082Z" />
<path d="M7.97006 6.87027L5.72006 9.12027C5.57006 9.27027 5.38006 9.34027 5.19006 9.34027C5.00006 9.34027 4.80006 9.27027 4.66006 9.12027L3.91006 8.37027C3.61006 8.08027 3.61006 7.60027 3.91006 7.31027C4.20006 7.02027 4.67006 7.02027 4.97006 7.31027L5.19006 7.53027L6.91006 5.81027C7.20006 5.52027 7.67006 5.52027 7.97006 5.81027C8.26006 6.10027 8.26006 6.58027 7.97006 6.87027Z" />
<path d="M16.3101 14.8408C16.3101 15.2508 15.9801 15.5908 15.5601 15.5908H10.3101C9.90006 15.5908 9.56006 15.2508 9.56006 14.8408C9.56006 14.4308 9.90006 14.0908 10.3101 14.0908H15.5601C15.9801 14.0908 16.3101 14.4308 16.3101 14.8408Z" />
<path d="M7.97006 13.8703L5.72006 16.1203C5.57006 16.2703 5.38006 16.3403 5.19006 16.3403C5.00006 16.3403 4.80006 16.2703 4.66006 16.1203L3.91006 15.3703C3.61006 15.0803 3.61006 14.6003 3.91006 14.3103C4.20006 14.0203 4.67006 14.0203 4.97006 14.3103L5.19006 14.5303L6.91006 12.8103C7.20006 12.5203 7.67006 12.5203 7.97006 12.8103C8.26006 13.1003 8.26006 13.5803 7.97006 13.8703Z" />
</svg>
