<svg width="24" height="24" viewBox="0 0 24 24"  xmlns="http://www.w3.org/2000/svg">
<path d="M19.9999 19.2601H10.9299C10.4799 19.2601 10.1099 18.8901 10.1099 18.4401C10.1099 17.9901 10.4799 17.6201 10.9299 17.6201H19.9999C20.4499 17.6201 20.8199 17.9901 20.8199 18.4401C20.8199 18.9001 20.4499 19.2601 19.9999 19.2601Z" />
<path d="M19.9999 12.9701H10.9299C10.4799 12.9701 10.1099 12.6001 10.1099 12.1501C10.1099 11.7001 10.4799 11.3301 10.9299 11.3301H19.9999C20.4499 11.3301 20.8199 11.7001 20.8199 12.1501C20.8199 12.6001 20.4499 12.9701 19.9999 12.9701Z" />
<path d="M19.9999 6.67027H10.9299C10.4799 6.67027 10.1099 6.30027 10.1099 5.85027C10.1099 5.40027 10.4799 5.03027 10.9299 5.03027H19.9999C20.4499 5.03027 20.8199 5.40027 20.8199 5.85027C20.8199 6.30027 20.4499 6.67027 19.9999 6.67027Z" />
<path opacity="0.4" d="M4.91018 8.02992C4.69018 8.02992 4.48018 7.93992 4.33018 7.78992L3.42018 6.87992C3.10018 6.55992 3.10018 6.03992 3.42018 5.71992C3.74018 5.39992 4.26018 5.39992 4.58018 5.71992L4.91018 6.04992L7.05018 3.90992C7.37018 3.58992 7.89018 3.58992 8.21018 3.90992C8.53018 4.22992 8.53018 4.74992 8.21018 5.06992L5.49018 7.78992C5.33018 7.93992 5.13018 8.02992 4.91018 8.02992Z" />
<path opacity="0.4" d="M4.91018 14.3297C4.70018 14.3297 4.49018 14.2497 4.33018 14.0897L3.42018 13.1797C3.10018 12.8597 3.10018 12.3397 3.42018 12.0197C3.74018 11.6997 4.26018 11.6997 4.58018 12.0197L4.91018 12.3497L7.05018 10.2097C7.37018 9.88973 7.89018 9.88973 8.21018 10.2097C8.53018 10.5297 8.53018 11.0497 8.21018 11.3697L5.49018 14.0897C5.33018 14.2497 5.12018 14.3297 4.91018 14.3297Z" />
<path opacity="0.4" d="M4.91018 20.3297C4.70018 20.3297 4.49018 20.2497 4.33018 20.0897L3.42018 19.1797C3.10018 18.8597 3.10018 18.3397 3.42018 18.0197C3.74018 17.6997 4.26018 17.6997 4.58018 18.0197L4.91018 18.3497L7.05018 16.2097C7.37018 15.8897 7.89018 15.8897 8.21018 16.2097C8.53018 16.5297 8.53018 17.0497 8.21018 17.3697L5.49018 20.0897C5.33018 20.2497 5.12018 20.3297 4.91018 20.3297Z" />
</svg>
