<?xml version="1.0" encoding="UTF-8"?>
<svg width="24" height="24" viewBox="0 0 24 24" xmlns="http://www.w3.org/2000/svg">
 <path d="m18.38 12.84v4.93c0 1.27-0.99 2.63-2.18 3.03l-3.19 1.06c-0.56 0.19-1.47 0.19-2.02 0l-3.19-1.06c-1.2-0.4-2.18-1.76-2.18-3.03l0.01-4.93 4.42 2.88c1.08 0.71 2.86 0.71 3.94 0l4.39-2.88z" opacity=".4"/>
 <path d="m19.98 6.4601-5.99-3.93c-1.08-0.71-2.86-0.71-3.94 0l-6.02 3.93c-1.93 1.25-1.93 4.08 0 5.34l1.6 1.04 4.42 2.88c1.08 0.71 2.86 0.71 3.94 0l4.39-2.88 1.37-0.9v3.06c0 0.41 0.34 0.75 0.75 0.75s0.75-0.34 0.75-0.75v-4.92c0.4-1.29-0.01-2.79-1.27-3.62z"/>
</svg>
