<svg width="24" height="24" viewBox="0 0 24 24"  xmlns="http://www.w3.org/2000/svg">
<path d="M12.0098 17.0003C11.1598 17.0003 10.2998 16.7803 9.62982 16.3503L3.60982 12.4203C2.48982 11.6903 1.81982 10.4603 1.81982 9.12028C1.81982 7.78028 2.48982 6.55028 3.60982 5.82028L9.63982 1.90028C10.9798 1.03028 13.0698 1.03028 14.3998 1.91028L20.3898 5.84028C21.4998 6.57028 22.1698 7.80028 22.1698 9.13028C22.1698 10.4603 21.4998 11.6903 20.3898 12.4203L14.3998 16.3503C13.7298 16.7903 12.8698 17.0003 12.0098 17.0003ZM12.0098 2.75028C11.4398 2.75028 10.8698 2.88028 10.4598 3.16028L4.43982 7.08028C3.73982 7.54028 3.32982 8.28028 3.32982 9.12028C3.32982 9.96028 3.72982 10.7003 4.43982 11.1603L10.4598 15.0903C11.2898 15.6303 12.7498 15.6303 13.5798 15.0903L19.5698 11.1603C20.2698 10.7003 20.6698 9.96028 20.6698 9.12028C20.6698 8.28028 20.2698 7.54028 19.5698 7.08028L13.5798 3.15028C13.1598 2.89028 12.5898 2.75028 12.0098 2.75028Z" />
<path d="M11.9998 22.7503C11.5598 22.7503 11.1098 22.6903 10.7498 22.5703L7.55982 21.5103C6.04982 21.0103 4.85982 19.3603 4.86982 17.7703L4.87982 13.0803C4.87982 12.6703 5.21982 12.3303 5.62982 12.3303C6.03982 12.3303 6.37982 12.6703 6.37982 13.0803L6.36982 17.7703C6.36982 18.7103 7.14982 19.7903 8.03982 20.0903L11.2298 21.1503C11.6298 21.2803 12.3698 21.2803 12.7698 21.1503L15.9598 20.0903C16.8498 19.7903 17.6298 18.7103 17.6298 17.7803V13.1403C17.6298 12.7303 17.9698 12.3903 18.3798 12.3903C18.7898 12.3903 19.1298 12.7303 19.1298 13.1403V17.7803C19.1298 19.3703 17.9498 21.0103 16.4398 21.5203L13.2498 22.5803C12.8898 22.6903 12.4398 22.7503 11.9998 22.7503Z" />
<path d="M21.3998 15.7503C20.9898 15.7503 20.6498 15.4103 20.6498 15.0003V9.00028C20.6498 8.59028 20.9898 8.25028 21.3998 8.25028C21.8098 8.25028 22.1498 8.59028 22.1498 9.00028V15.0003C22.1498 15.4103 21.8098 15.7503 21.3998 15.7503Z" />
</svg>
