<?xml version="1.0" encoding="UTF-8"?>
<svg width="24" height="24" viewBox="0 0 24 24" xmlns="http://www.w3.org/2000/svg">
 <path d="m12 22c5.5228 0 10-4.4772 10-10 0-5.5228-4.4772-10-10-10-5.5228 0-10 4.4772-10 10 0 5.5228 4.4772 10 10 10z" opacity=".4"/>
 <path d="m12 12-2.54-2.54c-0.39-0.39-1.02-0.39-1.41 0l-1.84 1.84c-0.39 0.39-0.39 1.02 0 1.41l1.84 1.84c0.39 0.39 1.02 0.39 1.41 0l5.09-5.09c0.39-0.39 1.02-0.39 1.41 0l1.84 1.84c0.39 0.39 0.39 1.02 0 1.41l-1.84 1.84c-0.39 0.39-1.02 0.39-1.41 0l-2.55-2.55z"/>
</svg>
