<svg width="24" height="24" viewBox="0 0 24 24"  xmlns="http://www.w3.org/2000/svg">
<path opacity="0.4" d="M7.4702 3.34961H16.5302C17.5902 3.34961 18.8402 4.11961 19.3102 5.06961L21.7102 9.88961C22.2902 11.0496 21.9702 12.6996 21.0202 13.5696L14.0902 19.8596C12.9402 20.8996 11.0702 20.8996 9.9202 19.8596L2.9902 13.5696C2.0302 12.6996 1.7202 11.0496 2.3002 9.88961L4.7002 5.06961C5.1602 4.11961 6.4102 3.34961 7.4702 3.34961Z" />
<path d="M16 7.75H8C7.59 7.75 7.25 8.09 7.25 8.5C7.25 8.91 7.59 9.25 8 9.25H11.25V14.5C11.25 14.91 11.59 15.25 12 15.25C12.41 15.25 12.75 14.91 12.75 14.5V9.25H16C16.41 9.25 16.75 8.91 16.75 8.5C16.75 8.09 16.41 7.75 16 7.75Z" />
</svg>
