<svg width="24" height="24" viewBox="0 0 24 24"  xmlns="http://www.w3.org/2000/svg">
<path d="M12.0002 21.4004C11.0602 21.4004 10.1202 21.0804 9.41022 20.4304L2.48021 14.1404C1.27021 13.0404 0.890211 11.0304 1.62021 9.57035L4.02022 4.75035C4.62022 3.55035 6.13022 2.61035 7.47022 2.61035H16.5302C17.8702 2.61035 19.3802 3.55035 19.9802 4.75035L22.3802 9.57035C23.1102 11.0304 22.7302 13.0404 21.5202 14.1404L14.5902 20.4304C13.8802 21.0704 12.9402 21.4004 12.0002 21.4004ZM7.47022 4.10035C6.69022 4.10035 5.71022 4.71035 5.36022 5.41035L2.96022 10.2304C2.54022 11.0804 2.78022 12.3804 3.49022 13.0204L10.4202 19.3104C11.2802 20.0904 12.7302 20.0904 13.5802 19.3104L20.5102 13.0204C21.2102 12.3804 21.4602 11.0804 21.0402 10.2304L18.6402 5.41035C18.2902 4.72035 17.3102 4.11035 16.5302 4.11035H7.47022V4.10035Z" />
<path d="M12.0002 15.2504C11.5902 15.2504 11.2502 14.9104 11.2502 14.5004V8.50035C11.2502 8.09035 11.5902 7.75035 12.0002 7.75035C12.4102 7.75035 12.7502 8.09035 12.7502 8.50035V14.5004C12.7502 14.9104 12.4102 15.2504 12.0002 15.2504Z" />
<path d="M16.0002 9.25035H8.00021C7.59021 9.25035 7.25021 8.91035 7.25021 8.50035C7.25021 8.09035 7.59021 7.75035 8.00021 7.75035H16.0002C16.4102 7.75035 16.7502 8.09035 16.7502 8.50035C16.7502 8.91035 16.4102 9.25035 16.0002 9.25035Z" />
</svg>
