<?xml version="1.0" encoding="UTF-8"?>
<svg width="24" height="24" viewBox="0 0 24 24" xmlns="http://www.w3.org/2000/svg">
 <path d="m7.4702 3.3496h9.06c1.06 0 2.31 0.77 2.78 1.72l2.4 4.82c0.58 1.16 0.26 2.81-0.69 3.68l-6.93 6.29c-1.15 1.04-3.02 1.04-4.17 0l-6.93-6.29c-0.96-0.87-1.27-2.52-0.69-3.68l2.4-4.82c0.46-0.95 1.71-1.72 2.77-1.72z" opacity=".4"/>
 <path d="m16 7.75h-8c-0.41 0-0.75 0.34-0.75 0.75s0.34 0.75 0.75 0.75h3.25v5.25c0 0.41 0.34 0.75 0.75 0.75s0.75-0.34 0.75-0.75v-5.25h3.25c0.41 0 0.75-0.34 0.75-0.75s-0.34-0.75-0.75-0.75z"/>
</svg>
