<?xml version="1.0" encoding="UTF-8"?>
<svg width="24" height="24" viewBox="0 0 24 24" xmlns="http://www.w3.org/2000/svg">
 <path d="m22 7.81v8.38c0 3.64-2.17 5.81-5.81 5.81h-8.38c-0.2 0-0.4-0.01-0.59-0.02-1.23-0.08-2.27-0.43-3.09-1.03-0.42-0.29-0.79-0.66-1.08-1.08-0.69-0.95-1.05-2.19-1.05-3.68v-8.38c0-3.44 1.94-5.57 5.22-5.78 0.19-0.02 0.39-0.03 0.59-0.03h8.38c1.49 0 2.73 0.36 3.68 1.05 0.42 0.29 0.79 0.66 1.08 1.08 0.69 0.95 1.05 2.19 1.05 3.68z" opacity=".4"/>
 <path d="m15.03 11.49c0.6-0.66 0.97-1.53 0.97-2.49 0-2.07-1.68-3.75-3.75-3.75h-3.24c-1.11 0-2.01 0.9-2.01 2.01v9.48c0 1.11 0.9 2.01 2.01 2.01h4.74c2.07 0 3.75-1.68 3.75-3.75 0-1.62-1.03-2.98-2.47-3.51zm-6.53-4.23c0-0.28 0.23-0.51 0.51-0.51h3.24c1.24 0 2.25 1.01 2.25 2.25s-1.01 2.25-2.25 2.25h-3.75v-3.99zm5.25 9.99h-4.74c-0.28 0-0.51-0.23-0.51-0.51v-3.99h5.25c1.24 0 2.25 1.01 2.25 2.25s-1.01 2.25-2.25 2.25z"/>
</svg>
