<?xml version="1.0" encoding="UTF-8"?>
<svg width="24" height="24" viewBox="0 0 24 24" xmlns="http://www.w3.org/2000/svg">
 <path d="m22 7.81v8.38c0 3.64-2.17 5.81-5.81 5.81h-8.38c-0.2 0-0.4-0.01-0.59-0.02-1.23-0.08-2.27-0.43-3.09-1.03-0.42-0.29-0.79-0.66-1.08-1.08-0.69-0.95-1.05-2.19-1.05-3.68v-8.38c0-3.44 1.94-5.57 5.22-5.78 0.19-0.02 0.39-0.03 0.59-0.03h8.38c1.49 0 2.73 0.36 3.68 1.05 0.42 0.29 0.79 0.66 1.08 1.08 0.69 0.95 1.05 2.19 1.05 3.68z" opacity=".4"/>
 <path d="m16.67 5.64h-9.34c-1.15 0-2.08 0.93-2.08 2.08v1.18c0 0.41 0.34 0.75 0.75 0.75s0.75-0.34 0.75-0.75v-1.18c0-0.32 0.26-0.58 0.58-0.58h3.92v9.72h-1.78c-0.41 0-0.75 0.34-0.75 0.75s0.34 0.75 0.75 0.75h5.07c0.41 0 0.75-0.34 0.75-0.75s-0.34-0.75-0.75-0.75h-1.78v-9.72h3.92c0.32 0 0.58 0.26 0.58 0.58v1.18c0 0.41 0.34 0.75 0.75 0.75s0.75-0.34 0.75-0.75v-1.18c-0.01-1.14-0.94-2.08-2.09-2.08z"/>
</svg>
