<?xml version="1.0" encoding="UTF-8"?>
<svg width="24" height="24" viewBox="0 0 24 24" xmlns="http://www.w3.org/2000/svg">
 <path d="M16.19 2H7.81C4.17 2 2 4.17 2 7.81V16.18C2 19.83 4.17 22 7.81 22H16.18C19.82 22 21.99 19.83 21.99 16.19V7.81C22 4.17 19.83 2 16.19 2Z" opacity=".4"/>
 <path d="m17.34 8.21c-3.34-1.67-7.33-1.67-10.67 0-0.38 0.19-0.53 0.64-0.34 1.01 0.13 0.26 0.4 0.41 0.67 0.41 0.11 0 0.23-0.03 0.34-0.08 1.23-0.61 2.56-0.95 3.91-1.05v7.79c0 0.41 0.34 0.75 0.75 0.75s0.75-0.34 0.75-0.75v-7.79c1.35 0.1 2.68 0.44 3.91 1.05 0.37 0.18 0.82 0.04 1.01-0.34 0.19-0.36 0.04-0.81-0.33-1z"/>
</svg>
