<?xml version="1.0" encoding="UTF-8"?>
<svg width="24" height="24" viewBox="0 0 24 24" xmlns="http://www.w3.org/2000/svg">
 <path d="m12 22c5.5228 0 10-4.4772 10-10 0-5.5228-4.4772-10-10-10-5.5228 0-10 4.4772-10 10 0 5.5228 4.4772 10 10 10z" opacity=".4"/>
 <path d="m11.31 13.94c1.8667 0 3.38-1.5133 3.38-3.38 0-1.8667-1.5133-3.38-3.38-3.38-1.8667 0-3.38 1.5133-3.38 3.38 0 1.8667 1.5133 3.38 3.38 3.38z"/>
 <path d="m16.51 8.3106c-0.55 0-1-0.45-1-1s0.44-1 1-1h0.01c0.55 0 1 0.45 1 1-0.01 0.55-0.46 1-1.01 1z"/>
 <path d="m12.06 18.56c-0.19 0-0.38-0.07-0.53-0.22-0.29-0.29-0.29-0.77 0-1.06l3-3c0.29-0.29 0.77-0.29 1.06 0s0.29 0.77 0 1.06l-3 3c-0.14 0.15-0.34 0.22-0.53 0.22z"/>
</svg>
