<svg width="24" height="24" viewBox="0 0 24 24"  xmlns="http://www.w3.org/2000/svg">
<path opacity="0.4" d="M12 22C17.5228 22 22 17.5228 22 12C22 6.47715 17.5228 2 12 2C6.47715 2 2 6.47715 2 12C2 17.5228 6.47715 22 12 22Z" />
<path d="M11.3099 13.9397C13.1767 13.9397 14.6899 12.4264 14.6899 10.5597C14.6899 8.69297 13.1767 7.17969 11.3099 7.17969C9.44321 7.17969 7.92993 8.69297 7.92993 10.5597C7.92993 12.4264 9.44321 13.9397 11.3099 13.9397Z" />
<path d="M16.51 8.31055C15.96 8.31055 15.51 7.86055 15.51 7.31055C15.51 6.76055 15.95 6.31055 16.51 6.31055H16.52C17.07 6.31055 17.52 6.76055 17.52 7.31055C17.51 7.86055 17.06 8.31055 16.51 8.31055Z" />
<path d="M12.06 18.56C11.87 18.56 11.68 18.49 11.53 18.34C11.24 18.05 11.24 17.57 11.53 17.28L14.53 14.28C14.82 13.99 15.3 13.99 15.59 14.28C15.88 14.57 15.88 15.05 15.59 15.34L12.59 18.34C12.45 18.49 12.25 18.56 12.06 18.56Z" />
</svg>
