<svg width="24" height="24" viewBox="0 0 24 24"  xmlns="http://www.w3.org/2000/svg">
<path d="M16.6901 22.7506H7.31012C3.14012 22.7506 1.87012 21.4806 1.87012 17.3106V16.8506C1.87012 16.4406 2.21012 16.1006 2.62012 16.1006C3.50012 16.1006 4.22012 15.3806 4.22012 14.5006C4.22012 13.6206 3.50012 12.9006 2.62012 12.9006C2.21012 12.9006 1.87012 12.5606 1.87012 12.1506V11.6906C1.87012 7.52062 3.14012 6.25063 7.31012 6.25063H16.6901C20.8601 6.25063 22.1301 7.52062 22.1301 11.6906V12.6306C22.1301 13.0406 21.7901 13.3806 21.3801 13.3806C20.5001 13.3806 19.7801 14.1006 19.7801 14.9806C19.7801 15.8606 20.5001 16.5706 21.3801 16.5706C21.7901 16.5706 22.1301 16.9106 22.1301 17.3206C22.1201 21.4806 20.8501 22.7506 16.6901 22.7506ZM3.38012 17.5106C3.40012 20.6906 4.03012 21.2506 7.32012 21.2506H16.7001C19.8201 21.2506 20.5401 20.7406 20.6301 17.9706C19.2901 17.6306 18.2901 16.4206 18.2901 14.9706C18.2901 13.5206 19.2901 12.3006 20.6401 11.9606V11.6806C20.6401 8.33063 20.0501 7.74062 16.7001 7.74062H7.31012C4.03012 7.74062 3.40012 8.31062 3.37012 11.4806C4.72012 11.8206 5.72012 13.0406 5.72012 14.4906C5.72012 15.9406 4.72012 17.1706 3.38012 17.5106Z" />
<path d="M10.0001 10.2506C9.59012 10.2506 9.25012 9.91063 9.25012 9.50063V7.00063C9.25012 6.59063 9.59012 6.25063 10.0001 6.25063C10.4101 6.25063 10.7501 6.59063 10.7501 7.00063V9.50063C10.7501 9.91063 10.4101 10.2506 10.0001 10.2506Z" />
<path d="M10.0001 16.9206C9.59012 16.9206 9.25012 16.5806 9.25012 16.1706V12.8406C9.25012 12.4306 9.59012 12.0906 10.0001 12.0906C10.4101 12.0906 10.7501 12.4306 10.7501 12.8406V16.1706C10.7501 16.5806 10.4101 16.9206 10.0001 16.9206Z" />
<path d="M10.0001 22.7506C9.59012 22.7506 9.25012 22.4106 9.25012 22.0006V19.5006C9.25012 19.0906 9.59012 18.7506 10.0001 18.7506C10.4101 18.7506 10.7501 19.0906 10.7501 19.5006V22.0006C10.7501 22.4106 10.4101 22.7506 10.0001 22.7506Z" />
<path d="M16.3301 7.75063H7.24012C6.94012 7.75063 6.66012 7.57063 6.55012 7.29063C6.44012 7.01063 6.50012 6.68062 6.71012 6.47062L9.64012 3.54063C12.3401 0.840625 13.9901 0.840625 16.6801 3.54063L17.2801 4.14062C17.4201 4.28063 17.5001 4.47063 17.5001 4.67063C17.5001 4.87063 17.4201 5.06062 17.2801 5.20062C16.8801 5.60062 16.7701 6.19062 17.0001 6.70062C17.1101 6.93062 17.0901 7.20063 16.9501 7.42063C16.8201 7.62063 16.5801 7.75063 16.3301 7.75063ZM9.05012 6.25063H15.3801C15.3601 5.72063 15.4901 5.19063 15.7601 4.73063L15.6301 4.60063C13.5401 2.51063 12.8001 2.51063 10.7101 4.60063L9.05012 6.25063Z" />
</svg>
