<?xml version="1.0" encoding="UTF-8"?>
<svg width="24" height="24" viewBox="0 0 24 24" xmlns="http://www.w3.org/2000/svg">
 <path d="m22 9.21v5.58c0 4.1-1.25 5.35-5.35 5.35h-6.74v-3.02c0-0.38-0.32-0.7-0.7-0.7v-8.84c0.38 0 0.7-0.32 0.7-0.7v-3.02h6.74c4.1 0 5.35 1.25 5.35 5.35z" opacity=".4"/>
 <path d="m18.47 11.9c0.17-0.16 0.23-0.41 0.16-0.63-0.07-0.23-0.26-0.39-0.5-0.42l-1.28-0.19c-0.05-0.01-0.09-0.04-0.11-0.08l-0.57-1.16c-0.1-0.21-0.32-0.34-0.55-0.34-0.24 0-0.45 0.13-0.56 0.34l-0.57 1.16c-0.02 0.05-0.07 0.08-0.12 0.08l-1.28 0.19c-0.23 0.03-0.43 0.2-0.5 0.42-0.07 0.23-0.01 0.47 0.16 0.63l0.93 0.9c0.04 0.03 0.05 0.09 0.04 0.14l-0.22 1.27c-0.04 0.23 0.05 0.47 0.25 0.6 0.11 0.08 0.23 0.12 0.36 0.12 0.1 0 0.2-0.02 0.29-0.07l1.15-0.6c0.04-0.02 0.1-0.02 0.14 0l1.15 0.6c0.21 0.11 0.46 0.09 0.65-0.05s0.29-0.37 0.25-0.61l-0.22-1.27c-0.01-0.05 0.01-0.1 0.04-0.14l0.91-0.89z"/>
 <path d="m9.2101 7.58v8.84c-0.38 0-0.7 0.32-0.7 0.7v3.02h-1.16c-3.95 0-5.25-1.18-5.34-4.86-0.01-0.19 0.07-0.37 0.2-0.5 0.13-0.14 0.32-0.21 0.5-0.21 1.4 0 2.55-1.15 2.55-2.56s-1.15-2.57-2.55-2.57c-0.2 0-0.37-0.07-0.5-0.21-0.13-0.13-0.21-0.32-0.2-0.5 0.09-3.69 1.39-4.87 5.34-4.87h1.16v3.02c0 0.39 0.32 0.7 0.7 0.7z"/>
</svg>
