<?xml version="1.0" encoding="UTF-8"?>
<svg width="24" height="24" viewBox="0 0 24 24" xmlns="http://www.w3.org/2000/svg">
 <path d="m21.3 10.84c0.39 0 0.7-0.31 0.7-0.7v-0.93001c0-4.1-1.25-5.35-5.35-5.35h-9.3c-4.1 0-5.35 1.25-5.35 5.35v0.47c0 0.39001 0.31 0.70001 0.7 0.70001 0.9 0 1.63 0.73 1.63 1.63s-0.73 1.62-1.63 1.62c-0.39 0-0.7 0.31-0.7 0.7v0.47c0 4.1 1.25 5.35 5.35 5.35h9.3c4.1 0 5.35-1.25 5.35-5.35 0-0.39-0.31-0.7-0.7-0.7-0.9 0-1.63-0.73-1.63-1.63s0.73-1.63 1.63-1.63z" opacity=".4"/>
 <path d="m15 15.88c-0.56 0-1.01-0.45-1.01-1s0.45-1 1-1 1 0.45 1 1-0.43 1-0.99 1z"/>
 <path d="m9.0002 10.88c-0.56 0-1.01-0.45-1.01-1s0.45-1 1-1 1 0.45 1 1-0.43 1-0.99 1z"/>
 <path d="m8.6298 16.43c-0.19 0-0.38-0.07-0.53-0.22-0.29-0.29-0.29-0.77 0-1.06l6.73-6.73c0.29-0.29 0.77-0.29 1.06 0s0.29 0.77 0 1.06l-6.73 6.73c-0.14 0.15-0.34 0.22-0.53 0.22z"/>
</svg>
