<?xml version="1.0" encoding="UTF-8"?>
<svg width="24" height="24" viewBox="0 0 24 24" xmlns="http://www.w3.org/2000/svg">
 <path d="m20.84 13.17c0.39 0 0.7-0.32 0.7-0.72v-0.88c0-3.93-1.2-5.12-5.12-5.12h-6.3v2.43c0.39 0 0.71 0.32 0.71 0.71v2.68c0 0.39-0.32 0.71-0.71 0.71v2.51c0.39 0 0.71 0.32 0.71 0.71v2.68c0 0.39-0.32 0.71-0.71 0.71v2.41h6.3c3.92 0 5.12-1.2 5.12-5.12 0-0.39-0.31-0.71-0.7-0.71-0.84 0-1.51-0.67-1.51-1.5s0.67-1.5 1.51-1.5z" opacity=".4"/>
 <path d="m7.5702 6.46c0.01 0 0.01 0 0 0h8.84 0.2c-0.01-0.02-0.01-0.03-0.01-0.05-0.03-0.35 0.11-0.69 0.37-0.95 0.13-0.13 0.21-0.31 0.21-0.5s-0.08-0.37-0.21-0.5l-0.55-0.56c-0.98-0.99-2.06-1.9-3.32-1.9-1.25 0-2.34 0.91-3.32 1.9l-2.56 2.56h0.35001z"/>
 <path d="m9.41 9.59v2.68c0 0.39 0.32 0.71 0.71004 0.71v2.51c-0.39004 0-0.71004 0.32-0.71004 0.71v2.68c0 0.39 0.32 0.71 0.71004 0.71v2.41h-2.54c-3.92 0-5.12-1.2-5.12-5.12v-0.43c0-0.4 0.31-0.71 0.7-0.71 0.84 0 1.51-0.68 1.51-1.51s-0.67-1.51-1.51-1.51c-0.39 0-0.7-0.31-0.7-0.71v-0.43c0-3.93 1.2-5.12 5.12-5.12h2.53v2.43c-0.38004 0-0.70004 0.32-0.70004 0.7z"/>
</svg>
