<svg width="24" height="24" viewBox="0 0 24 24"  xmlns="http://www.w3.org/2000/svg">
<path opacity="0.4" d="M21.3 10.84C21.69 10.84 22 10.53 22 10.14V9.20999C22 5.10999 20.75 3.85999 16.65 3.85999H7.35C3.25 3.85999 2 5.10999 2 9.20999V9.67999C2 10.07 2.31 10.38 2.7 10.38C3.6 10.38 4.33 11.11 4.33 12.01C4.33 12.91 3.6 13.63 2.7 13.63C2.31 13.63 2 13.94 2 14.33V14.8C2 18.9 3.25 20.15 7.35 20.15H16.65C20.75 20.15 22 18.9 22 14.8C22 14.41 21.69 14.1 21.3 14.1C20.4 14.1 19.67 13.37 19.67 12.47C19.67 11.57 20.4 10.84 21.3 10.84Z" />
<path d="M15.0002 15.88C14.4402 15.88 13.9902 15.43 13.9902 14.88C13.9902 14.33 14.4402 13.88 14.9902 13.88C15.5402 13.88 15.9902 14.33 15.9902 14.88C15.9902 15.43 15.5602 15.88 15.0002 15.88Z" />
<path d="M9.00023 10.88C8.44023 10.88 7.99023 10.43 7.99023 9.88C7.99023 9.33 8.44023 8.88 8.99023 8.88C9.54023 8.88 9.99023 9.33 9.99023 9.88C9.99023 10.43 9.56023 10.88 9.00023 10.88Z" />
<path d="M8.62982 16.43C8.43982 16.43 8.24982 16.36 8.09982 16.21C7.80982 15.92 7.80982 15.44 8.09982 15.15L14.8298 8.42001C15.1198 8.13001 15.5998 8.13001 15.8898 8.42001C16.1798 8.71001 16.1798 9.19001 15.8898 9.48001L9.15982 16.21C9.01982 16.36 8.81982 16.43 8.62982 16.43Z" />
</svg>
