<?xml version="1.0" encoding="UTF-8"?>
<svg width="24" height="24" viewBox="0 0 24 24" xmlns="http://www.w3.org/2000/svg">
 <path d="m10 9.08v-2.83c-0.41 0-0.75-0.34-0.75-0.75v-2.25h-2.25c-4.41 0-5.75 1.34-5.75 5.75v0.5c0 0.41 0.34 0.75 0.75 0.75 0.96 0 1.75 0.79 1.75 1.75s-0.79 1.75-1.75 1.75c-0.41 0-0.75 0.34-0.75 0.75v0.5c0 4.41 1.34 5.75 5.75 5.75h2.25v-2.25c0-0.41 0.34-0.75 0.75-0.75v-2.83c-0.41 0-0.75-0.34-0.75-0.75v-4.34c0-0.41 0.34-0.75 0.75-0.75z"/>
 <path d="m20.25 12.5c0 0.96 0.79 1.75 1.75 1.75 0.41 0 0.75 0.34 0.75 0.75 0 4.41-1.34 5.75-5.75 5.75h-6.25v-2.25c0-0.41-0.34-0.75-0.75-0.75v-2.83c0.41 0 0.75-0.34 0.75-0.75v-4.34c0-0.41-0.34-0.75-0.75-0.75v-2.83c0.41 0 0.75-0.34 0.75-0.75v-2.25h6.25c4.41 0 5.75 1.34 5.75 5.75v1c0 0.41-0.34 0.75-0.75 0.75-0.96 0-1.75 0.79-1.75 1.75z" opacity=".4"/>
</svg>
