<?xml version="1.0" encoding="UTF-8"?>
<svg width="24" height="24" viewBox="0 0 24 24" xmlns="http://www.w3.org/2000/svg">
 <path d="m12 22c4.7883 0 8.67-3.8817 8.67-8.67 0-4.7884-3.8817-8.67-8.67-8.67-4.7883 0-8.67 3.8817-8.67 8.67 0 4.7883 3.8817 8.67 8.67 8.67z" opacity=".4"/>
 <path d="m12 13.75c-0.41 0-0.75-0.34-0.75-0.75v-5c0-0.41 0.34-0.75 0.75-0.75s0.75 0.34 0.75 0.75v5c0 0.41-0.34 0.75-0.75 0.75z"/>
 <path d="m14.89 3.45h-5.78c-0.4 0-0.72-0.32-0.72-0.72s0.32-0.73 0.72-0.73h5.78c0.4 0 0.72 0.32 0.72 0.72s-0.32 0.73-0.72 0.73z"/>
</svg>
