<?xml version="1.0" encoding="UTF-8"?>
<svg width="24" height="24" viewBox="0 0 24 24" xmlns="http://www.w3.org/2000/svg">
 <path d="m12 13.75c-0.41 0-0.75-0.34-0.75-0.75v-5c0-0.41 0.34-0.75 0.75-0.75s0.75 0.34 0.75 0.75v5c0 0.41-0.34 0.75-0.75 0.75z"/>
 <path d="m14.89 3.45h-5.78c-0.4 0-0.72-0.32-0.72-0.72s0.32-0.73 0.72-0.73h5.78c0.4 0 0.72 0.32 0.72 0.72s-0.32 0.73-0.72 0.73z"/>
 <path d="m15 19.97v-2.94c0-1.27 0.76-2.03 2.03-2.03h2.94c0.19 0 0.36 0.02 0.53 0.06 0.11-0.56 0.17-1.14 0.17-1.73 0-4.78-3.89-8.67-8.67-8.67-4.78 0-8.67 3.89-8.67 8.67 0 4.78 3.89 8.67 8.67 8.67 1.21 0 2.36-0.25 3.41-0.7-0.26-0.34-0.41-0.78-0.41-1.33z" opacity=".4"/>
 <path d="m19.97 15h-2.94c-1.27 0-2.03 0.76-2.03 2.03v2.94c0 1.27 0.76 2.03 2.03 2.03h2.94c1.27 0 2.03-0.76 2.03-2.03v-2.94c0-1.27-0.76-2.03-2.03-2.03zm-0.28 4.46-1.18 0.68c-0.24 0.14-0.48 0.21-0.7 0.21-0.17 0-0.32-0.04-0.46-0.12-0.32-0.19-0.5-0.56-0.5-1.05v-1.36c0-0.49 0.18-0.86 0.5-1.05s0.73-0.15 1.16 0.09l1.18 0.68c0.42 0.25 0.66 0.59 0.66 0.96s-0.23 0.71-0.66 0.96z"/>
</svg>
