<svg width="24" height="24" viewBox="0 0 24 24"  xmlns="http://www.w3.org/2000/svg">
<path opacity="0.4" d="M18.35 19.68C17.8 21.09 16.46 22 14.95 22H9.04998C7.52998 22 6.19998 21.09 5.64998 19.68C5.09998 18.26 5.47998 16.69 6.59998 15.67L10.65 12H13.36L17.4 15.67C18.52 16.69 18.89 18.26 18.35 19.68Z" />
<path d="M13.82 18.1403H10.18C9.8 18.1403 9.5 17.8303 9.5 17.4603C9.5 17.0803 9.81 16.7803 10.18 16.7803H13.82C14.2 16.7803 14.5 17.0903 14.5 17.4603C14.5 17.8303 14.19 18.1403 13.82 18.1403Z" />
<path d="M18.3499 4.32C17.7999 2.91 16.4599 2 14.9499 2H9.04992C7.53992 2 6.19992 2.91 5.64992 4.32C5.10992 5.74 5.47992 7.31 6.60992 8.33L10.6499 12H13.3599L17.3999 8.33C18.5199 7.31 18.8899 5.74 18.3499 4.32ZM13.8199 7.23H10.1799C9.79992 7.23 9.49992 6.92 9.49992 6.55C9.49992 6.18 9.80992 5.87 10.1799 5.87H13.8199C14.1999 5.87 14.4999 6.18 14.4999 6.55C14.4999 6.92 14.1899 7.23 13.8199 7.23Z" />
</svg>
