<?xml version="1.0" encoding="UTF-8"?>
<svg width="24" height="24" viewBox="0 0 24 24" xmlns="http://www.w3.org/2000/svg">
 <path d="m15 15.5c0 3.59-2.91 6.5-6.5 6.5s-6.5-2.91-6.5-6.5 2.91-6.5 6.5-6.5c0.17 0 0.34999 0.01 0.51999 0.02 3.17 0.25 5.71 2.79 5.96 5.96 0.01 0.17 0.02 0.35 0.02 0.52z"/>
 <path d="m22 8.5c0 3.59-2.91 6.5-6.5 6.5-0.17 0-0.35-0.01-0.52-0.02-0.25-3.17-2.79-5.71-5.96-5.96-0.01-0.17-0.01999-0.35-0.01999-0.52 0-3.59 2.91-6.5 6.5-6.5s6.5 2.91 6.5 6.5z" opacity=".4"/>
 <path d="m5.59 2h-2.59c-0.55 0-1 0.45-1 1v2.59c0 0.89 1.08 1.34 1.71 0.71l2.59-2.59c0.62-0.63 0.18001-1.71-0.70999-1.71z"/>
 <path d="m18.41 22h2.59c0.55 0 1-0.45 1-1v-2.59c0-0.89-1.08-1.34-1.71-0.71l-2.59 2.59c-0.62 0.63-0.18 1.71 0.71 1.71z"/>
</svg>
