<?xml version="1.0" encoding="UTF-8"?>
<svg width="24" height="24" viewBox="0 0 24 24" xmlns="http://www.w3.org/2000/svg">
 <path d="m16.92 22c-2.8 0-5.08-2.27-5.08-5.08 0-2.8 2.27-5.08 5.08-5.08 2.8 0 5.08 2.27 5.08 5.08s-2.27 5.08-5.08 5.08z" opacity=".4"/>
 <path d="M5.02 2H8.94C11.01 2 12.01 2.99999 11.96 5.01999V8.94C12.01 11.01 11.01 12.01 8.94 11.96H5.02C3 12 2 11 2 8.92999V5.01001C2 3.00001 3 2 5.02 2Z" opacity=".4"/>
 <path d="m9.0102 8.26c-0.31 0-0.6-0.12001-0.87-0.32001 0.25-0.4 0.43001-0.84999 0.52001-1.34h0.33999c0.41 0 0.75-0.34 0.75-0.75s-0.34-0.75-0.75-0.75h-0.99-0.01999-0.28c-0.04-0.38-0.35001-0.68-0.74001-0.68s-0.7 0.3-0.74 0.68h-1.29c-0.41 0-0.75 0.34-0.75 0.75s0.34 0.75 0.75 0.75h2.17c-0.3 0.96-1.16 1.66-2.18 1.66-0.41 0-0.75 0.34-0.75 0.75s0.34 0.75 0.75 0.75c0.81 0 1.56-0.27 2.18-0.72 0.55 0.46 1.21 0.72 1.89 0.72 0.41 0 0.75-0.34 0.75-0.75s-0.33-0.75-0.74-0.75z"/>
 <path d="m9 22.75c-4.27 0-7.75-3.48-7.75-7.75 0-0.41 0.34-0.75 0.75-0.75s0.75 0.34 0.75 0.75c0 2.96 2.06 5.44 4.83 6.09l-0.27-0.45c-0.21-0.36-0.09999-0.82 0.26001-1.03 0.35-0.21 0.82-0.1 1.03 0.26l1.05 1.75c0.14 0.23 0.14001 0.52 0.01001 0.75-0.14 0.23-0.39 0.38-0.66 0.38z"/>
 <path d="m22 9.75c-0.41 0-0.75-0.34-0.75-0.75 0-2.96-2.06-5.44-4.83-6.09l0.27 0.44999c0.21 0.36 0.1 0.82002-0.26 1.03-0.35 0.21-0.82 0.1-1.03-0.26001l-1.05-1.75c-0.14-0.23-0.14-0.52-0.01-0.75 0.13-0.24 0.38-0.38 0.65-0.38 4.27 0 7.75 3.48 7.75 7.75 0.01 0.41-0.33 0.75-0.74 0.75z"/>
 <path d="m19.73 18.33-2.14-4.27c-0.13-0.25-0.39-0.42-0.67-0.42s-0.54 0.16-0.67 0.41l-2.14 4.27c-0.19 0.37-0.04 0.82 0.34 1.01 0.11 0.05 0.22 0.08 0.33 0.08 0.27 0 0.54-0.15 0.67-0.41l0.17-0.34h2.5901l0.1699 0.34c0.19 0.37 0.64 0.52 1.01 0.34 0.38-0.19 0.53-0.64 0.34-1.01zm-3.35-1.17 0.55-1.09 0.55 1.09h-1.1z"/>
</svg>
