<svg width="24" height="24" viewBox="0 0 24 24"  xmlns="http://www.w3.org/2000/svg">
<path opacity="0.4" d="M6.72998 19.7C7.54998 18.82 8.79999 18.89 9.51999 19.85L10.53 21.2C11.34 22.27 12.65 22.27 13.46 21.2L14.47 19.85C15.19 18.89 16.44 18.82 17.26 19.7C19.04 21.6 20.49 20.97 20.49 18.31V7.04C20.49 3.01 19.55 2 15.77 2H8.20999C4.42999 2 3.48999 3.01 3.48999 7.04V18.3C3.49999 20.97 4.95998 21.59 6.72998 19.7Z" />
<path d="M14.75 10.75H9.25C8.84 10.75 8.5 10.41 8.5 10C8.5 9.59 8.84 9.25 9.25 9.25H14.75C15.16 9.25 15.5 9.59 15.5 10C15.5 10.41 15.16 10.75 14.75 10.75Z" />
</svg>
