<svg width="24" height="24" viewBox="0 0 24 24"  xmlns="http://www.w3.org/2000/svg">
<path d="M14.79 19.4202C14.68 19.4202 14.56 19.3903 14.46 19.3403C14.09 19.1503 13.94 18.7003 14.12 18.3303L16.26 14.0602C16.39 13.8102 16.65 13.6503 16.93 13.6503C17.21 13.6503 17.47 13.8103 17.6 14.0703L19.74 18.3403C19.93 18.7103 19.78 19.1602 19.4 19.3502C19.03 19.5402 18.58 19.3903 18.39 19.0103L16.93 16.0803L15.47 19.0103C15.33 19.2703 15.06 19.4202 14.79 19.4202Z" />
<path d="M18.6801 18.6602H15.1602C14.7502 18.6602 14.4102 18.3202 14.4102 17.9102C14.4102 17.5002 14.7502 17.1602 15.1602 17.1602H18.6801C19.0901 17.1602 19.4301 17.5002 19.4301 17.9102C19.4301 18.3202 19.1001 18.6602 18.6801 18.6602Z" />
<path d="M16.9198 22.7503C13.7098 22.7503 11.0898 20.1403 11.0898 16.9203C11.0898 13.7003 13.6998 11.0903 16.9198 11.0903C20.1298 11.0903 22.7498 13.7003 22.7498 16.9203C22.7498 20.1403 20.1398 22.7503 16.9198 22.7503ZM16.9198 12.6003C14.5298 12.6003 12.5898 14.5403 12.5898 16.9303C12.5898 19.3203 14.5298 21.2603 16.9198 21.2603C19.2998 21.2603 21.2498 19.3203 21.2498 16.9303C21.2498 14.5403 19.3098 12.6003 16.9198 12.6003Z" />
<path d="M4.86 12.7003C3.75 12.7003 2.87 12.3902 2.25 11.7902C1.59 11.1502 1.25 10.1802 1.25 8.93024V5.01025C1.25 2.58025 2.59 1.24023 5.02 1.24023H8.94C10.19 1.24023 11.15 1.57023 11.8 2.24023C12.43 2.89023 12.74 3.83027 12.71 5.03027V8.93024C12.74 10.1502 12.43 11.1103 11.78 11.7603C11.13 12.4103 10.17 12.7102 8.92999 12.6902H5.03C4.96 12.7002 4.91 12.7003 4.86 12.7003ZM5.02 2.75024C3.41 2.75024 2.75 3.41026 2.75 5.02026V8.94025C2.75 9.77025 2.92999 10.3702 3.28999 10.7202C3.63999 11.0602 4.20001 11.2103 4.99001 11.2003H8.92999C9.76999 11.2203 10.35 11.0503 10.7 10.7003C11.05 10.3503 11.21 9.76026 11.19 8.95026V5.01025C11.21 4.21025 11.05 3.64022 10.71 3.29022C10.36 2.93022 9.75999 2.75024 8.92999 2.75024H5.02Z" />
<path d="M8.99994 6.6001H4.93994C4.52994 6.6001 4.18994 6.2601 4.18994 5.8501C4.18994 5.4401 4.52994 5.1001 4.93994 5.1001H8.99994C9.40994 5.1001 9.74994 5.4401 9.74994 5.8501C9.74994 6.2601 9.41994 6.6001 8.99994 6.6001Z" />
<path d="M6.97998 6.60016C6.56998 6.60016 6.22998 6.26016 6.22998 5.85016V5.17017C6.22998 4.76017 6.56998 4.42017 6.97998 4.42017C7.38998 4.42017 7.72998 4.76017 7.72998 5.17017V5.85016C7.72998 6.26016 7.38998 6.60016 6.97998 6.60016Z" />
<path d="M4.93994 9.76019C4.52994 9.76019 4.18994 9.42019 4.18994 9.01019C4.18994 8.60019 4.52994 8.26019 4.93994 8.26019C6.20994 8.26019 7.23994 7.18021 7.23994 5.84021C7.23994 5.43021 7.57994 5.09021 7.98994 5.09021C8.39994 5.09021 8.73994 5.43021 8.73994 5.84021C8.73994 8.00021 7.03994 9.76019 4.93994 9.76019Z" />
<path d="M9.00993 9.76019C8.07993 9.76019 7.18994 9.2902 6.55994 8.4602C6.30994 8.1302 6.37995 7.66015 6.70995 7.41015C7.03995 7.16015 7.50993 7.23018 7.75993 7.56018C8.09993 8.02018 8.54993 8.2702 9.00993 8.2702C9.41993 8.2702 9.75993 8.6102 9.75993 9.0202C9.75993 9.4302 9.41993 9.76019 9.00993 9.76019Z" />
<path d="M9 22.7502C4.73 22.7502 1.25 19.2702 1.25 15.0002C1.25 14.5902 1.59 14.2502 2 14.2502C2.41 14.2502 2.75 14.5902 2.75 15.0002C2.75 17.9602 4.81 20.4403 7.58 21.0903L7.31 20.6403C7.1 20.2803 7.21001 19.8202 7.57001 19.6102C7.92001 19.4002 8.39001 19.5102 8.60001 19.8702L9.64999 21.6202C9.78999 21.8502 9.79 22.1402 9.66 22.3702C9.52 22.6002 9.27 22.7502 9 22.7502Z" />
<path d="M21.9999 9.75024C21.5899 9.75024 21.2499 9.41024 21.2499 9.00024C21.2499 6.04024 19.1899 3.56022 16.4199 2.91022L16.6899 3.36023C16.8999 3.72023 16.7899 4.18026 16.4299 4.39026C16.0799 4.60026 15.6099 4.49025 15.3999 4.13025L14.3499 2.38025C14.2099 2.15025 14.2099 1.86025 14.3399 1.63025C14.4699 1.39025 14.7199 1.25024 14.9899 1.25024C19.2599 1.25024 22.7399 4.73024 22.7399 9.00024C22.7499 9.41024 22.4099 9.75024 21.9999 9.75024Z" />
</svg>
