<svg width="24" height="24" viewBox="0 0 24 24"  xmlns="http://www.w3.org/2000/svg">
<path opacity="0.4" d="M16.9198 22C14.1198 22 11.8398 19.73 11.8398 16.92C11.8398 14.12 14.1098 11.84 16.9198 11.84C19.7198 11.84 21.9998 14.11 21.9998 16.92C21.9998 19.73 19.7298 22 16.9198 22Z" />
<path opacity="0.4" d="M5.02 2H8.94C11.01 2 12.01 2.99999 11.96 5.01999V8.94C12.01 11.01 11.01 12.01 8.94 11.96H5.02C3 12 2 11 2 8.92999V5.01001C2 3.00001 3 2 5.02 2Z" />
<path d="M9.01018 8.26004C8.70018 8.26004 8.41018 8.14003 8.14018 7.94003C8.39018 7.54003 8.57019 7.09004 8.66019 6.60004H9.00018C9.41018 6.60004 9.75018 6.26004 9.75018 5.85004C9.75018 5.44004 9.41018 5.10004 9.00018 5.10004H8.01018C8.00018 5.10004 7.99019 5.10004 7.99019 5.10004H7.97018H7.71019C7.67019 4.72004 7.36018 4.42004 6.97018 4.42004C6.58018 4.42004 6.27018 4.72004 6.23018 5.10004H4.94019C4.53019 5.10004 4.19019 5.44004 4.19019 5.85004C4.19019 6.26004 4.53019 6.60004 4.94019 6.60004H7.11018C6.81018 7.56004 5.95018 8.26004 4.93018 8.26004C4.52018 8.26004 4.18018 8.60004 4.18018 9.01004C4.18018 9.42004 4.52018 9.76004 4.93018 9.76004C5.74018 9.76004 6.49018 9.49004 7.11018 9.04004C7.66018 9.50004 8.32018 9.76004 9.00018 9.76004C9.41018 9.76004 9.75018 9.42004 9.75018 9.01004C9.75018 8.60004 9.42018 8.26004 9.01018 8.26004Z" />
<path d="M9 22.75C4.73 22.75 1.25 19.27 1.25 15C1.25 14.59 1.59 14.25 2 14.25C2.41 14.25 2.75 14.59 2.75 15C2.75 17.96 4.81 20.44 7.58 21.09L7.31 20.64C7.1 20.28 7.21001 19.82 7.57001 19.61C7.92001 19.4 8.39001 19.51 8.60001 19.87L9.64999 21.62C9.78999 21.85 9.79 22.14 9.66 22.37C9.52 22.6 9.27 22.75 9 22.75Z" />
<path d="M21.9999 9.75C21.5899 9.75 21.2499 9.41 21.2499 9C21.2499 6.04 19.1899 3.56 16.4199 2.91L16.6899 3.35999C16.8999 3.71999 16.7899 4.18001 16.4299 4.39001C16.0799 4.60001 15.6099 4.49001 15.3999 4.13L14.3499 2.38C14.2099 2.15 14.2099 1.86 14.3399 1.63C14.4699 1.39 14.7199 1.25 14.9899 1.25C19.2599 1.25 22.7399 4.73 22.7399 9C22.7499 9.41 22.4099 9.75 21.9999 9.75Z" />
<path d="M19.73 18.33L17.59 14.06C17.46 13.81 17.2 13.64 16.92 13.64C16.64 13.64 16.38 13.8 16.25 14.05L14.11 18.32C13.92 18.69 14.07 19.14 14.45 19.33C14.56 19.38 14.67 19.41 14.78 19.41C15.05 19.41 15.32 19.26 15.45 19L15.62 18.66H18.2101L18.38 19C18.57 19.37 19.02 19.52 19.39 19.34C19.77 19.15 19.92 18.7 19.73 18.33ZM16.38 17.16L16.93 16.07L17.48 17.16H16.38Z" />
</svg>
