<svg width="24" height="24" viewBox="0 0 24 24"  xmlns="http://www.w3.org/2000/svg">
<path d="M21.0002 6.73C20.9802 6.73 20.9502 6.73 20.9202 6.73C15.6302 6.2 10.3502 6 5.12016 6.53L3.08016 6.73C2.66016 6.77 2.29016 6.47 2.25016 6.05C2.21016 5.63 2.51016 5.27 2.92016 5.23L4.96016 5.03C10.2802 4.49 15.6702 4.7 21.0702 5.23C21.4802 5.27 21.7802 5.64 21.7402 6.05C21.7102 6.44 21.3802 6.73 21.0002 6.73Z" />
<path d="M8.50016 5.72C8.46016 5.72 8.42016 5.72 8.37016 5.71C7.97016 5.64 7.69016 5.25 7.76016 4.85L7.98016 3.54C8.14016 2.58 8.36016 1.25 10.6902 1.25H13.3102C15.6502 1.25 15.8702 2.63 16.0202 3.55L16.2402 4.85C16.3102 5.26 16.0302 5.65 15.6302 5.71C15.2202 5.78 14.8302 5.5 14.7702 5.1L14.5502 3.8C14.4102 2.93 14.3802 2.76 13.3202 2.76H10.7002C9.64016 2.76 9.62016 2.9 9.47016 3.79L9.24016 5.09C9.18016 5.46 8.86016 5.72 8.50016 5.72Z" />
<path d="M15.2102 22.75H8.79016C5.30016 22.75 5.16016 20.82 5.05016 19.26L4.40016 9.19C4.37016 8.78 4.69016 8.42 5.10016 8.39C5.52016 8.37 5.87016 8.68 5.90016 9.09L6.55016 19.16C6.66016 20.68 6.70016 21.25 8.79016 21.25H15.2102C17.3102 21.25 17.3502 20.68 17.4502 19.16L18.1002 9.09C18.1302 8.68 18.4902 8.37 18.9002 8.39C19.3102 8.42 19.6302 8.77 19.6002 9.19L18.9502 19.26C18.8402 20.82 18.7002 22.75 15.2102 22.75Z" />
<path d="M13.6602 17.25H10.3302C9.92016 17.25 9.58016 16.91 9.58016 16.5C9.58016 16.09 9.92016 15.75 10.3302 15.75H13.6602C14.0702 15.75 14.4102 16.09 14.4102 16.5C14.4102 16.91 14.0702 17.25 13.6602 17.25Z" />
<path d="M14.5002 13.25H9.50016C9.09016 13.25 8.75016 12.91 8.75016 12.5C8.75016 12.09 9.09016 11.75 9.50016 11.75H14.5002C14.9102 11.75 15.2502 12.09 15.2502 12.5C15.2502 12.91 14.9102 13.25 14.5002 13.25Z" />
</svg>
