<?xml version="1.0" encoding="UTF-8"?>
<svg width="24" height="24" viewBox="0 0 24 24" xmlns="http://www.w3.org/2000/svg">
 <path d="m16.19 2h-8.37c-3.64 0-5.81 2.17-5.81 5.81v8.37c0 3.64 2.17 5.81 5.81 5.81h8.37c3.64 0 5.81-2.17 5.81-5.81v-8.37c0-3.64-2.17-5.81-5.81-5.81z" opacity=".4"/>
 <path d="m9.5499 17.719h-2.45c-0.67 0-1.22-0.55-1.22-1.22v-8.98c0-0.67 0.54997-1.22 1.22-1.22h2.45c0.67003 0 1.22 0.54999 1.22 1.22v8.98c0 0.67-0.55 1.22-1.22 1.22z"/>
 <path d="m17.14 13.629h-2.94c-0.54 0-0.9801-0.44-0.9801-0.98v-5.39c0-0.54 0.4401-0.98 0.9801-0.98h2.94c0.54 0 0.98 0.44 0.98 0.98v5.39c0 0.54-0.44 0.98-0.98 0.98z"/>
</svg>
