<?xml version="1.0" encoding="UTF-8"?>
<svg width="24" height="24" viewBox="0 0 24 24" xmlns="http://www.w3.org/2000/svg">
 <path d="M16.19 2H7.81C4.17 2 2 4.17 2 7.81V16.18C2 19.83 4.17 22 7.81 22H16.18C19.82 22 21.99 19.83 21.99 16.19V7.81C22 4.17 19.83 2 16.19 2Z" opacity=".4"/>
 <path d="m16.83 9.4105c-0.07-0.17-0.21-0.31-0.38-0.38-0.08-0.03-0.17-0.05-0.26-0.05h-1.86c-0.39 0-0.7 0.31-0.7 0.7 0 0.39003 0.31 0.70003 0.7 0.70003h0.18l-2.11 2.11-1.02-1.52c-0.12-0.17-0.3-0.29-0.51-0.31-0.22-0.02-0.41 0.05-0.56 0.2l-2.98 2.98c-0.27 0.27-0.27 0.71 0 0.99 0.14 0.14 0.31 0.2 0.49 0.2s0.36-0.07 0.49-0.2l2.38-2.38 1.02 1.52c0.12 0.17 0.3 0.29 0.51 0.31 0.22 0.02 0.41-0.05 0.56-0.2l2.72-2.72v0.18c0 0.39 0.31 0.7 0.7 0.7s0.7-0.31 0.7-0.7v-1.87c-0.02-0.09-0.03-0.18-0.07-0.26z"/>
</svg>
