<?xml version="1.0" encoding="UTF-8"?>
<svg width="24" height="24" viewBox="0 0 24 24" xmlns="http://www.w3.org/2000/svg">
 <path d="M16.19 2H7.81C4.17 2 2 4.17 2 7.81V16.18C2 19.83 4.17 22 7.81 22H16.18C19.82 22 21.99 19.83 21.99 16.19V7.81C22 4.17 19.83 2 16.19 2Z" opacity=".4"/>
 <path d="m16.88 12.47c0-0.39-0.31-0.7-0.7-0.7s-0.7 0.31-0.7 0.7v0.18l-2.72-2.72c-0.15-0.15-0.35-0.22-0.56-0.2s-0.4 0.13-0.51 0.30996l-1.02 1.52-2.36-2.38c-0.27-0.27-0.71-0.27-0.99 0-0.27 0.27-0.27 0.71 0 0.98996l2.98 2.98c0.15 0.15 0.35 0.22 0.56 0.2s0.4-0.13 0.51-0.31l1.02-1.52 2.11 2.11h-0.18c-0.39 0-0.7 0.31-0.7 0.7s0.31 0.7 0.7 0.7h1.86c0.09 0 0.18-0.02 0.27-0.05 0.17-0.07 0.31-0.21 0.38-0.38 0.04-0.09 0.05-0.18 0.05-0.27v-1.86z"/>
</svg>
