<?xml version="1.0" encoding="UTF-8"?>
<svg width="24" height="24" viewBox="0 0 24 24" xmlns="http://www.w3.org/2000/svg">
 <path d="m10.05 2.85-8.7899 8.79c-0.2 0.2-0.2 0.51 0 0.71l8.7899 8.79c0.32 0.31 0.8501 0.09 0.8501-0.35v-2.59c0-0.13-0.05-0.26-0.15-0.35l-5.5-5.5c-0.2-0.2-0.2-0.51 0-0.71l5.5-5.5c0.09-0.09 0.15-0.22 0.15-0.35v-2.59c0-0.44-0.5401-0.66-0.8501-0.35z" opacity=".4"/>
 <path d="m13.75 2.85 8.79 8.79c0.2 0.2 0.2 0.51 0 0.71l-8.79 8.79c-0.31 0.31-0.85 0.09-0.85-0.35v-2.59c0-0.13 0.05-0.26 0.15-0.35l5.5-5.5c0.2-0.2 0.2-0.51 0-0.71l-5.5-5.5c-0.09-0.09-0.15-0.22-0.15-0.35v-2.59c0-0.44 0.54-0.66 0.85-0.35z"/>
 <path d="m10.05 9.85-1.7899 1.79c-0.2 0.2-0.2 0.51 0 0.71l1.7899 1.79c0.32 0.31 0.8501 0.09 0.8501-0.35v-3.59c0-0.43997-0.5401-0.65997-0.8501-0.34997z"/>
</svg>
