<?xml version="1.0" encoding="UTF-8"?>
<svg width="24" height="24" viewBox="0 0 24 24" xmlns="http://www.w3.org/2000/svg">
 <path d="m12 2.5898v11.02l-9.35 6.54c-0.85-1.01-0.9-2.54 0.05-4.25l3.12-5.61 2.94-5.29c0.89-1.6 2.06-2.41 3.24-2.41z"/>
 <path d="m21.35 20.15c-0.65 0.79-1.78 1.26-3.29 1.26h-12.12c-1.51 0-2.64-0.47-3.29-1.26l9.35-6.54 9.35 6.54z" opacity=".6"/>
 <path d="m21.35 20.15-9.35-6.54v-11.02c1.18 0 2.35 0.81 3.24 2.41l2.94 5.29 3.12 5.61c0.95 1.71 0.9 3.24 0.05 4.25z" opacity=".4"/>
</svg>
