<?xml version="1.0" encoding="UTF-8"?>
<svg width="24" height="24" viewBox="0 0 24 24" xmlns="http://www.w3.org/2000/svg">
 <path d="m20.66 8.0391c0 0.23-0.06 0.47-0.21 0.66l-9.38 11.94c-0.34 0.43-0.74 0.58-1.08 0.46l0.00997-0.1 1-11 9.04-1.81 0.62-0.15z"/>
 <path d="m20.66 8.0408-0.62 0.15-9.04 1.81 5.95-5.95c0.12 0.05 0.22 0.12 0.29 0.19l3.13 3.13c0.18 0.18 0.28 0.42 0.29 0.67z" opacity=".4"/>
 <path d="m16.95 4.0497-5.95 5.95-7.99-7.1-0.35-0.34v-0.01c0.2-0.26 0.56-0.39 1.04-0.32l12.96 1.73c0.09 0.01 0.19 0.04 0.29 0.09z"/>
 <path d="m11 10-0.99999 11-0.01 0.1c-0.25-0.09-0.48-0.33-0.63-0.71l-6.72-16.8c-0.17-0.42-0.15-0.78 0.02-1.03l0.35 0.34 7.99 7.1z" opacity=".4"/>
</svg>
