<svg width="24" height="24" viewBox="0 0 24 24"  xmlns="http://www.w3.org/2000/svg">
<path d="M10.2302 21.8798C10.1602 21.8798 10.0903 21.8798 10.0203 21.8598C9.43026 21.7798 8.93022 21.3398 8.66022 20.6598L1.94025 3.85977C1.67025 3.18977 1.73027 2.53977 2.09027 2.06977C2.46027 1.59977 3.07022 1.37977 3.79022 1.47977L16.7603 3.20977C17.1103 3.25977 17.5203 3.45977 17.7703 3.70977L20.9003 6.83977C21.5103 7.45977 21.5802 8.46977 21.0402 9.15977L11.6602 21.0998C11.2602 21.6098 10.7502 21.8798 10.2302 21.8798ZM3.46027 2.95977C3.34027 2.95977 3.28026 2.98977 3.27026 2.99977C3.27026 3.00977 3.25026 3.11977 3.33026 3.30977L10.0502 20.1098C10.1302 20.3098 10.2202 20.3798 10.2302 20.3798C10.2402 20.3798 10.3402 20.3398 10.4702 20.1698L19.8502 8.22977C19.9202 8.14977 19.9103 7.96977 19.8303 7.89977L16.7003 4.76977C16.6803 4.74977 16.5902 4.70977 16.5502 4.69977L3.60022 2.96977C3.55022 2.95977 3.50027 2.95977 3.46027 2.95977Z" />
<path d="M10.0002 21.7498C9.98021 21.7498 9.95021 21.7498 9.93021 21.7498C9.52021 21.7098 9.21021 21.3498 9.25021 20.9398L10.2202 10.3198L2.51022 3.46977C2.20022 3.18977 2.17023 2.71977 2.45023 2.40977C2.73023 2.09977 3.20022 2.06977 3.51022 2.34977L11.5002 9.44977C11.6802 9.60977 11.7702 9.83977 11.7502 10.0798L10.7502 21.0798C10.7102 21.4598 10.3802 21.7498 10.0002 21.7498Z" />
<path d="M11.0003 10.7498C10.7303 10.7498 10.4703 10.5998 10.3403 10.3498C10.1803 10.0598 10.2402 9.69977 10.4702 9.46977L16.4702 3.46977C16.7602 3.17977 17.2403 3.17977 17.5303 3.46977C17.8203 3.75977 17.8203 4.23977 17.5303 4.52977L13.2803 8.77977L19.8903 7.45977C20.3003 7.37977 20.6903 7.63977 20.7703 8.04977C20.8503 8.45977 20.5903 8.84977 20.1803 8.92977L11.1403 10.7398C11.1003 10.7498 11.0503 10.7498 11.0003 10.7498Z" />
</svg>
