<svg width="24" height="24" viewBox="0 0 24 24"  xmlns="http://www.w3.org/2000/svg">
<path d="M20.6602 8.03906C20.6602 8.26906 20.6002 8.50906 20.4502 8.69906L11.0702 20.6391C10.7302 21.0691 10.3302 21.2191 9.99023 21.0991L10.0002 20.9991L11.0002 9.99906L20.0402 8.18906L20.6602 8.03906Z" />
<path opacity="0.4" d="M20.66 8.04078L20.04 8.19078L11 10.0008L16.95 4.05078C17.07 4.10078 17.17 4.17078 17.24 4.24078L20.37 7.37078C20.55 7.55078 20.65 7.79078 20.66 8.04078Z" />
<path d="M16.9502 4.04971L11.0002 9.99971L3.01016 2.89971L2.66016 2.55971V2.54971C2.86016 2.28971 3.22016 2.15971 3.70016 2.22971L16.6602 3.95971C16.7502 3.96971 16.8502 3.99971 16.9502 4.04971Z" />
<path opacity="0.4" d="M10.9999 10.0005L9.99991 21.0005L9.98991 21.1005C9.73991 21.0105 9.50991 20.7705 9.35991 20.3905L2.63991 3.59055C2.46991 3.17055 2.48991 2.81055 2.65991 2.56055L3.00991 2.90055L10.9999 10.0005Z" />
</svg>
