<?xml version="1.0" encoding="UTF-8"?>
<svg width="24" height="24" viewBox="0 0 24 24" xmlns="http://www.w3.org/2000/svg">
 <path d="m15 3v9c0 1.1-0.9 2-2 2h-11v-6.38c0.73 0.87 1.85 1.41 3.09 1.38 1.01-0.02 1.92-0.41 2.6-1.06 0.31-0.26 0.57002-0.59001 0.77002-0.95001 0.36-0.61 0.55998-1.33 0.53998-2.08-0.03-1.17-0.54999-2.2-1.36-2.91h6.36c0.55 0 1 0.45 1 1z" opacity=".4"/>
 <path d="m22 14v3c0 1.66-1.34 3-3 3h-1c0-1.1-0.9-2-2-2s-2 0.9-2 2h-4c0-1.1-0.9-2-2-2s-2 0.9-2 2h-1c-1.66 0-3-1.34-3-3v-3h11c1.1 0 2-0.9 2-2v-7h1.84c0.72 0 1.38 0.39001 1.74 1.01l1.71 2.99h-1.29c-0.55 0-1 0.45-1 1v3c0 0.55 0.45 1 1 1h3z"/>
 <path d="m8 22c1.1046 0 2-0.8954 2-2s-0.89543-2-2-2-2 0.8954-2 2 0.89543 2 2 2z" opacity=".4"/>
 <path d="m16 22c1.1046 0 2-0.8954 2-2s-0.8954-2-2-2-2 0.8954-2 2 0.8954 2 2 2z" opacity=".4"/>
 <path d="m22 12.53v1.47h-3c-0.55 0-1-0.45-1-1v-3c0-0.55 0.45-1 1-1h1.29l1.45 2.54c0.17 0.3 0.26 0.64 0.26 0.99z" opacity=".4"/>
 <path d="m7.6402 1.9998c-0.72-0.64-1.68-1.02-2.73-1-0.94 0.020004-1.8 0.36999-2.48 0.92999-0.9 0.75-1.46 1.9-1.43 3.16 0.02 0.75 0.24001 1.45 0.63001 2.04 0.11 0.17 0.22999 0.33999 0.36999 0.48999 0.73 0.87 1.85 1.41 3.09 1.38 1.01-0.02 1.92-0.41 2.6-1.06 0.31-0.26 0.57002-0.59001 0.77002-0.95001 0.36-0.61 0.55998-1.33 0.53998-2.08-0.03-1.17-0.54998-2.2-1.36-2.91zm-0.58002 2.52-2.09 2.02c-0.15 0.14-0.32996 0.21003-0.51996 0.21003s-0.37002-0.07003-0.52002-0.21003l-1.01-0.95996c-0.3-0.29-0.30995-0.75999-0.01995-1.06s0.75999-0.31002 1.06-0.02002l0.48999 0.46997 1.57-1.52c0.3-0.29 0.77-0.28004 1.06 0.01996 0.29 0.29 0.27998 0.76005-0.02002 1.05z"/>
</svg>
