<?xml version="1.0" encoding="UTF-8"?>
<svg width="24" height="24" viewBox="0 0 24 24" xmlns="http://www.w3.org/2000/svg">
 <path d="m5 1c-0.94 0-1.81 0.33-2.5 0.88-0.92 0.73-1.5 1.86-1.5 3.12 0 0.75 0.21002 1.46 0.58002 2.06 0.69 1.16 1.96 1.94 3.42 1.94 1.01 0 1.93-0.37 2.63-1 0.31-0.26 0.57998-0.58 0.78998-0.94 0.37-0.6 0.58002-1.31 0.58002-2.06 0-2.21-1.79-4-4-4zm1.6 5.58c-0.15 0.15-0.33997 0.21997-0.52997 0.21997s-0.38003-0.06997-0.53003-0.21997l-0.52997-0.53003-0.54999 0.54999c-0.15 0.15-0.34003 0.22003-0.53003 0.22003s-0.37997-0.07003-0.52997-0.22003c-0.29-0.29-0.29-0.77 0-1.06l0.54999-0.54999-0.53003-0.52997c-0.29-0.29-0.29-0.77 0-1.06s0.77-0.29 1.06 0l0.53003 0.52997 0.5-0.5c0.29-0.29 0.77-0.29 1.06 0s0.29 0.77 0 1.06l-0.5 0.5 0.52997 0.53003c0.29 0.29 0.29 0.76 0 1.06z"/>
 <path d="m15 3v9c0 1.1-0.9 2-2 2h-11v-6.38c0.73 0.87 1.85 1.41 3.09 1.38 1.01-0.02 1.92-0.41 2.6-1.06 0.31-0.26 0.57002-0.59001 0.77002-0.95001 0.36-0.61 0.55998-1.33 0.53998-2.08-0.03-1.17-0.54999-2.2-1.36-2.91h6.36c0.55 0 1 0.45 1 1z" opacity=".4"/>
 <path d="m22 14v3c0 1.66-1.34 3-3 3h-1c0-1.1-0.9-2-2-2s-2 0.9-2 2h-4c0-1.1-0.9-2-2-2s-2 0.9-2 2h-1c-1.66 0-3-1.34-3-3v-3h11c1.1 0 2-0.9 2-2v-7h1.84c0.72 0 1.38 0.39001 1.74 1.01l1.71 2.99h-1.29c-0.55 0-1 0.45-1 1v3c0 0.55 0.45 1 1 1h3z"/>
 <path d="m8 22c1.1046 0 2-0.8954 2-2s-0.89543-2-2-2-2 0.8954-2 2 0.89543 2 2 2z" opacity=".4"/>
 <path d="m16 22c1.1046 0 2-0.8954 2-2s-0.8954-2-2-2-2 0.8954-2 2 0.8954 2 2 2z" opacity=".4"/>
 <path d="m22 12.53v1.47h-3c-0.55 0-1-0.45-1-1v-3c0-0.55 0.45-1 1-1h1.29l1.45 2.54c0.17 0.3 0.26 0.64 0.26 0.99z" opacity=".4"/>
</svg>
