<?xml version="1.0" encoding="UTF-8"?>
<svg width="24" height="24" viewBox="0 0 24 24" xmlns="http://www.w3.org/2000/svg">
 <path d="m16.19 2h-8.37c-3.64 0-5.81 2.17-5.81 5.81v8.37c0 3.64 2.17 5.81 5.81 5.81h8.37c3.64 0 5.81-2.17 5.81-5.81v-8.37c0-3.64-2.17-5.81-5.81-5.81z" opacity=".4"/>
 <path d="m16.86 8.4601c-0.84-0.08-1.61-0.13-2.36-0.18l-0.08-0.48c-0.07-0.48-0.22-1.47-1.73-1.47h-1.39c-1.49 0-1.65 0.95-1.73 1.46l-0.08 0.46999c-0.43 0.03-0.85 0.05-1.28 0.09l-1.09 0.11001c-0.38 0.04-0.65 0.37-0.61 0.75 0.04 0.35 0.33 0.62 0.68 0.62h0.07l1.08-0.11c0.6-0.05 1.21-0.1 1.81-0.13 1.22-0.05 2.44-0.03 3.67 0.03 0.91 0.04 1.86 0.11 2.9 0.21h0.06c0.35 0 0.65-0.27 0.68-0.62 0.05-0.38-0.22-0.72-0.6-0.75z"/>
 <path d="m15.83 11.1c-0.17-0.19-0.42-0.29-0.67-0.29h-6.32c-0.25 0-0.5 0.11-0.67 0.29-0.17 0.19-0.26 0.44-0.24 0.69l0.31001 3.96c0.06 0.85 0.12999 1.91 2.05 1.91h3.42c1.92 0 1.99-1.06 2.05-1.91l0.31-3.96c0.02-0.25-0.07-0.5-0.24-0.69z"/>
</svg>
