<?xml version="1.0" encoding="UTF-8"?>
<svg width="24" height="24" viewBox="0 0 24 24" xmlns="http://www.w3.org/2000/svg">
 <path d="m5.0398 2h15.46c0.55 0 1 0.45 1 1v10.59c0 0.27-0.11 0.52-0.29 0.71l-4.41 4.41c-0.19 0.19-0.44 0.29-0.71 0.29h-4.05c-0.33 0-0.65 0.17-0.83 0.45l-1.41 2.11c-0.19 0.28-0.5 0.45-0.83 0.45h-1.46c-0.55 0-1-0.45-1-1v-1c0-0.55-0.45-1-1-1h-2c-0.55 0-1-0.45-1-1v-12.7c0-0.2 0.05999-0.39001 0.16999-0.55001l1.54-2.3c0.17-0.29 0.47999-0.46001 0.81999-0.46001z" clip-rule="evenodd" fill-rule="evenodd" opacity=".4"/>
 <path d="m8.5 7.1403v5.71c0 0.32 0.26001 0.57 0.57001 0.57h1.14c0.32 0 0.57-0.26 0.57-0.57v-5.71c0-0.32-0.26-0.56999-0.57-0.56999h-1.14c-0.31 0-0.57001 0.25999-0.57001 0.56999z" clip-rule="evenodd" fill-rule="evenodd"/>
 <path d="m14.21 7.1403v5.71c0 0.32 0.26 0.57 0.57 0.57h1.14c0.32 0 0.57-0.26 0.57-0.57v-5.71c0-0.32-0.26-0.56999-0.57-0.56999h-1.14c-0.31 0-0.57 0.25999-0.57 0.56999z" clip-rule="evenodd" fill-rule="evenodd"/>
</svg>
