<?xml version="1.0" encoding="UTF-8"?>
<svg width="24" height="24" viewBox="0 0 24 24" xmlns="http://www.w3.org/2000/svg">
 <path d="m19 9.8704v6.86c0 0.78-0.45 1.48-1.15 1.81l-6.5 3.06c-0.54 0.25-1.16 0.25-1.7 0l-6.5-3.06c-0.7-0.33-1.15-1.03-1.15-1.81v-7.46c0-0.78 0.44999-1.48 1.15-1.81l6.5-3.06c0.54001-0.25 1.16-0.25 1.7 0l2.67 1.26c-0.02 0.11-0.02 0.23-0.02 0.34 0 2.21 1.79 4 4 4 0.35 0 0.68-0.04001 1-0.13001z" opacity=".4"/>
 <path d="m9 16.25c-1.52 0-2.75-1.23-2.75-2.75v-3c0-0.41 0.34-0.75 0.75-0.75s0.75 0.34 0.75 0.75v3c0 0.69 0.56 1.25 1.25 1.25s1.25-0.56 1.25-1.25v-3c0-0.41 0.34-0.75 0.75-0.75s0.75 0.34 0.75 0.75v3c0 1.52-1.23 2.75-2.75 2.75z"/>
 <path d="m14 16.19c-0.41 0-0.75-0.34-0.75-0.75v-4.94c0-0.41 0.34-0.75 0.75-0.75s0.75 0.34 0.75 0.75v4.94c0 0.42-0.34 0.75-0.75 0.75z"/>
 <path d="m18 6.3398c-0.14 0-0.58 0.03001-0.58 0.45001 0 0.29 0.22 0.46 0.58 0.46s0.58-0.17 0.58-0.46c0-0.33-0.3-0.45001-0.58-0.45001z"/>
 <path d="m18 5.5098c0.27 0 0.44-0.15001 0.44-0.38001 0-0.28-0.23-0.36999-0.44-0.36999s-0.44 0.09999-0.44 0.36999c0 0.23 0.17 0.38001 0.44 0.38001z"/>
 <path d="m18 2c-2.1 0-3.81 1.61-3.98 3.66-0.02 0.11-0.02 0.23-0.02 0.34 0 2.21 1.79 4 4 4 0.35 0 0.68-0.04 1-0.13 1.73-0.44 3-2.01 3-3.87 0-2.21-1.79-4-4-4zm0 6.2c-0.99 0-1.6-0.5-1.6-1.31 0-0.39 0.18-0.74 0.5-0.98-0.24-0.21-0.37-0.5-0.37-0.83 0-0.77 0.59-1.28 1.46-1.28s1.46 0.52 1.46 1.28c0 0.33-0.12 0.62-0.37 0.83 0.33 0.23 0.51 0.58 0.51 0.98 0.01 0.81-0.6 1.31-1.59 1.31z"/>
</svg>
