<svg width="24" height="24" viewBox="0 0 24 24"  xmlns="http://www.w3.org/2000/svg">
<path d="M15.1301 19.0599H7.13006C6.72006 19.0599 6.38006 18.7199 6.38006 18.3099C6.38006 17.8999 6.72006 17.5599 7.13006 17.5599H15.1301C17.4701 17.5599 19.3801 15.6499 19.3801 13.3099C19.3801 10.9699 17.4701 9.05988 15.1301 9.05988H4.13006C3.72006 9.05988 3.38006 8.71988 3.38006 8.30988C3.38006 7.89988 3.72006 7.55988 4.13006 7.55988H15.1301C18.3001 7.55988 20.8801 10.1399 20.8801 13.3099C20.8801 16.4799 18.3001 19.0599 15.1301 19.0599Z" />
<path d="M6.43006 11.5599C6.24006 11.5599 6.05006 11.4899 5.90006 11.3399L3.34006 8.77988C3.05006 8.48988 3.05006 8.00988 3.34006 7.71988L5.90006 5.15988C6.19006 4.86988 6.67006 4.86988 6.96006 5.15988C7.25006 5.44988 7.25006 5.92988 6.96006 6.21988L4.93006 8.24988L6.96006 10.2799C7.25006 10.5699 7.25006 11.0499 6.96006 11.3399C6.82006 11.4899 6.62006 11.5599 6.43006 11.5599Z" />
</svg>
