<svg width="24" height="24" viewBox="0 0 24 24"  xmlns="http://www.w3.org/2000/svg">
<path d="M16.95 17.7C16.76 17.7 16.57 17.63 16.42 17.48C16.13 17.19 16.13 16.71 16.42 16.42C17.6 15.24 18.25 13.67 18.25 12C18.25 10.33 17.6 8.76 16.42 7.58C16.13 7.29 16.13 6.81 16.42 6.52C16.71 6.23 17.19 6.23 17.48 6.52C18.94 7.98 19.75 9.93 19.75 12C19.75 14.07 18.94 16.02 17.48 17.48C17.33 17.63 17.14 17.7 16.95 17.7Z" />
<path d="M7.04999 17.7C6.85999 17.7 6.66999 17.63 6.51999 17.48C5.05999 16.02 4.25 14.07 4.25 12C4.25 9.93 5.05999 7.98 6.51999 6.52C6.80999 6.23 7.28999 6.23 7.57999 6.52C7.86999 6.81 7.86999 7.29 7.57999 7.58C6.39999 8.76 5.75 10.33 5.75 12C5.75 13.67 6.39999 15.24 7.57999 16.42C7.86999 16.71 7.86999 17.19 7.57999 17.48C7.42999 17.63 7.23999 17.7 7.04999 17.7Z" />
<path d="M12.98 16.02H11.22C9.95 16.02 8.91 14.95 8.91 13.64C8.91 13.23 9.25 12.89 9.66 12.89C10.07 12.89 10.41 13.23 10.41 13.64C10.41 14.13 10.77 14.52 11.22 14.52H12.98C13.31 14.52 13.59 14.22 13.59 13.85C13.59 13.38 13.48 13.32 13.16 13.21L10.35 12.23C9.39001 11.89 8.92001 11.22 8.92001 10.17C8.92001 8.97 9.86 8 11.03 8H12.79C14.06 8 15.1 9.07 15.1 10.38C15.1 10.79 14.76 11.13 14.35 11.13C13.94 11.13 13.6 10.79 13.6 10.38C13.6 9.89 13.24 9.5 12.79 9.5H11.03C10.7 9.5 10.42 9.8 10.42 10.17C10.42 10.64 10.53 10.7 10.85 10.81L13.66 11.79C14.62 12.13 15.09 12.8 15.09 13.85C15.08 15.04 14.14 16.02 12.98 16.02Z" />
<path d="M12 16.95C11.59 16.95 11.25 16.61 11.25 16.2V7.8C11.25 7.39 11.59 7.05 12 7.05C12.41 7.05 12.75 7.39 12.75 7.8V16.2C12.75 16.61 12.41 16.95 12 16.95Z" />
<path d="M12 22.75C6.07 22.75 1.25 17.93 1.25 12C1.25 6.07 6.07 1.25 12 1.25C17.93 1.25 22.75 6.07 22.75 12C22.75 17.93 17.93 22.75 12 22.75ZM12 2.75C6.9 2.75 2.75 6.9 2.75 12C2.75 17.1 6.9 21.25 12 21.25C17.1 21.25 21.25 17.1 21.25 12C21.25 6.9 17.1 2.75 12 2.75Z" />
</svg>
