<?xml version="1.0" encoding="UTF-8"?>
<svg width="24" height="24" viewBox="0 0 24 24" xmlns="http://www.w3.org/2000/svg">
 <path d="m12 22c5.5228 0 10-4.4772 10-10 0-5.5228-4.4772-10-10-10-5.5228 0-10 4.4772-10 10 0 5.5228 4.4772 10 10 10z" opacity=".4"/>
 <path d="m16.95 17.7c-0.19 0-0.38-0.07-0.53-0.22-0.29-0.29-0.29-0.77 0-1.06 1.18-1.18 1.83-2.75 1.83-4.42s-0.65-3.24-1.83-4.42c-0.29-0.29-0.29-0.77 0-1.06s0.77-0.29 1.06 0c1.46 1.46 2.27 3.41 2.27 5.48 0 2.07-0.81 4.02-2.27 5.48-0.15 0.15-0.34 0.22-0.53 0.22z"/>
 <path d="m7.05 17.7c-0.19 0-0.38-0.07-0.53-0.22-1.46-1.46-2.27-3.41-2.27-5.48 0-2.07 0.80999-4.02 2.27-5.48 0.29-0.29 0.77-0.29 1.06 0s0.29 0.77 0 1.06c-1.18 1.18-1.83 2.75-1.83 4.42s0.64999 3.24 1.83 4.42c0.29 0.29 0.29 0.77 0 1.06-0.15 0.15-0.34 0.22-0.53 0.22z"/>
 <path d="m13.65 11.781-0.9-0.32v-1.98h0.03c0.44 0 0.81 0.4 0.81 0.88002 0 0.41 0.34 0.75 0.75 0.75s0.75-0.34 0.75-0.75c0-1.31-1.03-2.38-2.31-2.38h-0.03v-0.18c0-0.41-0.34-0.75-0.75-0.75s-0.75 0.34-0.75 0.75v0.18h-0.23c-1.16 0-2.11 0.98-2.11 2.17 0 1.05 0.46999 1.72 1.43 2.06l0.9 0.32v1.98h-0.03c-0.44 0-0.81-0.4-0.81-0.88 0-0.41-0.34-0.75-0.75-0.75s-0.75 0.34-0.75 0.75c0 1.31 1.03 2.38 2.31 2.38h0.03v0.18c0 0.41 0.34 0.75 0.75 0.75s0.75-0.34 0.75-0.75v-0.18h0.23c1.16 0 2.11-0.98 2.11-2.17 0-1.05-0.46-1.72-1.43-2.06zm-2.81-0.98c-0.32-0.11-0.43-0.17-0.43-0.64 0-0.37002 0.27-0.67002 0.61-0.67002h0.23v1.46l-0.41-0.15zm2.14 3.72h-0.23v-1.46l0.41 0.14c0.32 0.11 0.43 0.17 0.43 0.64-0.01 0.37-0.28 0.68-0.61 0.68z"/>
</svg>
