<?xml version="1.0" encoding="UTF-8"?>
<svg width="24" height="24" viewBox="0 0 24 24" xmlns="http://www.w3.org/2000/svg">
 <path d="M22 7.81V16.19C22 19 20.71 20.93 18.44 21.66C17.78 21.89 17.02 22 16.19 22H7.81C6.98 22 6.22 21.89 5.56 21.66C3.29 20.93 2 19 2 16.19V7.81C2 4.17 4.17 2 7.81 2H16.19C19.83 2 22 4.17 22 7.81Z" opacity=".4"/>
 <path d="m18.44 21.66c-0.66 0.23-1.42 0.3401-2.25 0.3401h-8.38c-0.83 0-1.59-0.1101-2.25-0.3401 0.35-2.64 3.11-4.69 6.44-4.69 3.33 0 6.09 2.05 6.44 4.69z"/>
 <path d="m15.58 11.58c0 1.98-1.6 3.59-3.58 3.59s-3.58-1.61-3.58-3.59c0-1.98 1.6-3.58 3.58-3.58s3.58 1.6 3.58 3.58z"/>
</svg>
