<?xml version="1.0" encoding="UTF-8"?>
<svg width="24" height="24" viewBox="0 0 24 24" xmlns="http://www.w3.org/2000/svg">
 <path d="m21.09 21.5c0 0.28-0.22 0.5-0.5 0.5h-17.18c-0.28 0-0.5-0.22-0.5-0.5 0-4.14 4.08-7.5 9.09-7.5 1.03 0 2.03 0.14 2.95 0.41-0.59 0.7-0.95 1.61-0.95 2.59 0 0.75 0.2099 1.46 0.5799 2.06 0.2 0.34 0.46 0.65 0.76 0.91 0.7 0.64 1.6301 1.03 2.6601 1.03 1.12 0 2.13-0.46 2.85-1.2 0.16 0.54 0.2399 1.11 0.2399 1.7z" opacity=".4"/>
 <path d="m20.97 14.33c-0.72-0.82-1.79-1.33-2.97-1.33-1.12 0-2.14 0.46-2.87 1.21-0.7 0.72-1.13 1.71-1.13 2.79 0 0.75 0.21 1.46 0.58 2.06 0.2 0.34 0.46 0.65 0.76 0.91 0.7 0.64 1.63 1.03 2.66 1.03 1.46 0 2.73-0.78 3.42-1.94 0.21-0.34 0.37-0.73 0.46-1.13 0.08-0.3 0.12-0.61 0.12-0.93 0-1.02-0.39-1.96-1.03-2.67zm-1.47 3.4h-0.75v0.78c0 0.41-0.34 0.75-0.75 0.75s-0.75-0.34-0.75-0.75v-0.78h-0.75c-0.41 0-0.75-0.34-0.75-0.75s0.34-0.75 0.75-0.75h0.75v-0.71c0-0.41 0.34-0.75 0.75-0.75s0.75 0.34 0.75 0.75v0.71h0.75c0.41 0 0.75 0.34 0.75 0.75s-0.34 0.75-0.75 0.75z"/>
 <path d="m12 12c2.7614 0 5-2.2386 5-5s-2.2386-5-5-5c-2.7614 0-5 2.2386-5 5s2.2386 5 5 5z"/>
</svg>
