<?xml version="1.0" encoding="UTF-8"?>
<svg width="24" height="24" viewBox="0 0 24 24" xmlns="http://www.w3.org/2000/svg">
 <path d="m21.08 8.58v6.84c0 1.12-0.6 2.16-1.57 2.73l-5.94 3.43c-0.97 0.56-2.17 0.56-3.15 0l-5.94-3.43c-0.97-0.56-1.57-1.6-1.57-2.73v-6.84c0-1.12 0.6-2.16 1.57-2.73l5.94-3.43c0.97-0.56 2.17-0.56 3.15 0l5.94 3.43c0.97 0.57 1.57 1.6 1.57 2.73z" opacity=".4"/>
 <path d="m12 12c1.2868 0 2.33-1.0432 2.33-2.33 0-1.2868-1.0432-2.33-2.33-2.33s-2.33 1.0431-2.33 2.33c0 1.2868 1.0432 2.33 2.33 2.33z"/>
 <path d="m14.68 16.66c0.81 0 1.28-0.9 0.83-1.57-0.68-1.01-2-1.69-3.51-1.69s-2.83 0.68-3.51 1.69c-0.45 0.67 0.02 1.57 0.83 1.57h5.36z"/>
</svg>
