<svg width="24" height="24" viewBox="0 0 24 24"  xmlns="http://www.w3.org/2000/svg">
<path d="M12 12C14.7614 12 17 9.76142 17 7C17 4.23858 14.7614 2 12 2C9.23858 2 7 4.23858 7 7C7 9.76142 9.23858 12 12 12Z" />
<path opacity="0.4" d="M11.9999 14.5C6.98994 14.5 2.90991 17.86 2.90991 22C2.90991 22.28 3.12991 22.5 3.40991 22.5H20.59C20.87 22.5 21.09 22.28 21.09 22C21.09 17.86 17.0099 14.5 11.9999 14.5Z" />
<path d="M22.77 20.68L22.01 19.92C22.41 19.32 22.64 18.6 22.64 17.83C22.64 15.72 20.93 14.01 18.82 14.01C16.71 14.01 15 15.72 15 17.83C15 19.94 16.71 21.65 18.82 21.65C19.59 21.65 20.31 21.42 20.91 21.02L21.67 21.78C21.82 21.93 22.02 22.01 22.22 22.01C22.42 22.01 22.62 21.93 22.77 21.78C23.08 21.47 23.08 20.98 22.77 20.68Z" />
</svg>
