<?xml version="1.0" encoding="UTF-8"?>
<svg width="24" height="24" viewBox="0 0 24 24" xmlns="http://www.w3.org/2000/svg">
 <path d="m12 12c2.7614 0 5-2.2386 5-5s-2.2386-5-5-5c-2.7614 0-5 2.2386-5 5s2.2386 5 5 5z"/>
 <path d="m12 14.5c-5.01 0-9.09 3.36-9.09 7.5 0 0.28 0.22 0.5 0.5 0.5h17.18c0.28 0 0.5-0.22 0.5-0.5 0-4.14-4.08-7.5-9.09-7.5z" opacity=".4"/>
 <path d="m21.43 14.74c-0.9-0.9-1.6099-0.61-2.2199 0l-3.5401 3.5401c-0.14 0.14-0.27 0.3999-0.3 0.5899l-0.19 1.35c-0.07 0.49 0.27 0.83 0.76 0.76l1.35-0.19c0.19-0.03 0.46-0.16 0.59-0.3l3.54-3.5399c0.62-0.6 0.91-1.3101 0.01-2.2101z"/>
</svg>
