<?xml version="1.0" encoding="UTF-8"?>
<svg width="24" height="24" viewBox="0 0 24 24" xmlns="http://www.w3.org/2000/svg">
 <path d="m21.09 21.5c0 0.28-0.22 0.5-0.5 0.5h-17.18c-0.28 0-0.5-0.22-0.5-0.5 0-4.14 4.08-7.5 9.09-7.5 1.03 0 2.03 0.14 2.95 0.41-0.59 0.7-0.95 1.61-0.95 2.59 0 0.75 0.2099 1.46 0.5799 2.06 0.2 0.34 0.46 0.65 0.76 0.91 0.7 0.64 1.6301 1.03 2.6601 1.03 1.12 0 2.13-0.46 2.85-1.2 0.16 0.54 0.2399 1.11 0.2399 1.7z" opacity=".4"/>
 <path d="m21.88 16.04c-0.1-0.39-0.26-0.78-0.48-1.13-0.15-0.26-0.35-0.51-0.57-0.74-0.72-0.72-1.66-1.11-2.62-1.16-1.09-0.07-2.2 0.33-3.04 1.16-0.79 0.79-1.19 1.84-1.17 2.89 0.01 1 0.41 2 1.17 2.77 0.53 0.53 1.18 0.88 1.87 1.04 0.38 0.1 0.78 0.14 1.18 0.11 0.95-0.04 1.88-0.42 2.61-1.15 1.03-1.03 1.38-2.48 1.05-3.79zm-2.28 2.56c-0.29 0.29-0.77 0.29-1.06 0l-0.55-0.55-0.53 0.53c-0.29 0.29-0.77 0.29-1.06 0-0.29-0.3-0.29-0.77 0-1.06l0.53-0.53-0.51-0.5c-0.29-0.3-0.29-0.77 0-1.07 0.3-0.29 0.77-0.29 1.07 0l0.5 0.51 0.53-0.53c0.29-0.29 0.76-0.29 1.06 0 0.29 0.29 0.29 0.77 0 1.06l-0.53 0.53 0.55 0.55c0.29 0.29 0.29 0.77 0 1.06z"/>
 <path d="m12 12c2.7614 0 5-2.2386 5-5s-2.2386-5-5-5c-2.7614 0-5 2.2386-5 5s2.2386 5 5 5z"/>
</svg>
