<?xml version="1.0" encoding="UTF-8"?>
<svg width="24" height="24" viewBox="0 0 24 24" xmlns="http://www.w3.org/2000/svg">
 <path d="m18 13c-0.94 0-1.81 0.33-2.5 0.88-0.92 0.73-1.5 1.86-1.5 3.12 0 0.75 0.21 1.46 0.58 2.06 0.69 1.16 1.96 1.94 3.42 1.94 1.01 0 1.93-0.37 2.63-1 0.31-0.26 0.58-0.58 0.79-0.94 0.37-0.6 0.58-1.31 0.58-2.06 0-2.21-1.79-4-4-4zm2.07 3.57-2.13 1.97c-0.14 0.13-0.33 0.2-0.51 0.2-0.19 0-0.38-0.07-0.53-0.22l-0.99-0.99c-0.29-0.29-0.29-0.77 0-1.06s0.77-0.29 1.06 0l0.48 0.48 1.6-1.48c0.3-0.28 0.78-0.26 1.06 0.04s0.26 0.77-0.04 1.06z"/>
 <path d="m21.09 21.5c0 0.28-0.22 0.5-0.5 0.5h-17.18c-0.28 0-0.5-0.22-0.5-0.5 0-4.14 4.08-7.5 9.09-7.5 1.03 0 2.03 0.14 2.95 0.41-0.59 0.7-0.95 1.61-0.95 2.59 0 0.75 0.2099 1.46 0.5799 2.06 0.2 0.34 0.46 0.65 0.76 0.91 0.7 0.64 1.6301 1.03 2.6601 1.03 1.12 0 2.13-0.46 2.85-1.2 0.16 0.54 0.2399 1.11 0.2399 1.7z" opacity=".4"/>
 <path d="m12 12c2.7614 0 5-2.2386 5-5s-2.2386-5-5-5c-2.7614 0-5 2.2386-5 5s2.2386 5 5 5z"/>
</svg>
