<svg width="24" height="24" viewBox="0 0 24 24"  xmlns="http://www.w3.org/2000/svg">
<path opacity="0.4" d="M21.0799 8.58003V15.42C21.0799 16.54 20.4799 17.58 19.5099 18.15L13.5699 21.58C12.5999 22.14 11.3999 22.14 10.4199 21.58L4.47991 18.15C3.50991 17.59 2.90991 16.55 2.90991 15.42V8.58003C2.90991 7.46003 3.50991 6.41999 4.47991 5.84999L10.4199 2.42C11.3899 1.86 12.5899 1.86 13.5699 2.42L19.5099 5.84999C20.4799 6.41999 21.0799 7.45003 21.0799 8.58003Z" />
<path d="M11.9999 12.0001C13.2867 12.0001 14.3299 10.9569 14.3299 9.67004C14.3299 8.38322 13.2867 7.34009 11.9999 7.34009C10.7131 7.34009 9.66992 8.38322 9.66992 9.67004C9.66992 10.9569 10.7131 12.0001 11.9999 12.0001Z" />
<path d="M14.6799 16.6601C15.4899 16.6601 15.9599 15.7601 15.5099 15.0901C14.8299 14.0801 13.5099 13.4001 11.9999 13.4001C10.4899 13.4001 9.16992 14.0801 8.48992 15.0901C8.03992 15.7601 8.50992 16.6601 9.31992 16.6601H14.6799Z" />
</svg>
