<?xml version="1.0" encoding="UTF-8"?>
<svg width="24" height="24" viewBox="0 0 24 24" xmlns="http://www.w3.org/2000/svg">
 <path d="m16.65 20.2v0.2899c-1.48 0.95-3.25 1.5101-5.15 1.5101-1.93 0-3.73-0.5801-5.23-1.5701v-0.2299c0-2.33 2.33-4.2301 5.19-4.2301 2.87 0 5.19 1.9001 5.19 4.2301z"/>
 <path d="m21 12.5c0 3.35-1.73 6.29-4.35 7.99v-0.29c0-2.33-2.32-4.23-5.19-4.23-2.86 0-5.19 1.9-5.19 4.23v0.23c-2.57-1.7-4.27-4.61-4.27-7.93 0-5.25 4.25-9.5 9.5-9.5 1.31 0 2.56 0.25999 3.7 0.73999-0.13 0.4-0.2 0.82001-0.2 1.26 0 0.75 0.21 1.46 0.58 2.06 0.2 0.34 0.46 0.64997 0.76 0.90997 0.7 0.64 1.63 1.03 2.66 1.03 0.44 0 0.86-0.07002 1.25-0.21002 0.48 1.14 0.75 2.4 0.75 3.71z" opacity=".4"/>
 <path d="m21.97 2.33c-0.72-0.82-1.79-1.33-2.97-1.33-1.12 0-2.14 0.46002-2.87 1.21-0.42 0.43-0.74 0.94997-0.93 1.53-0.13 0.4-0.2 0.82001-0.2 1.26 0 0.75 0.21 1.46 0.58 2.06 0.2 0.34 0.46 0.64997 0.76 0.90997 0.7 0.64 1.63 1.03 2.66 1.03 0.44 0 0.86-0.07002 1.25-0.21002 0.92-0.29 1.69-0.91998 2.17-1.73 0.21-0.34 0.37-0.73001 0.46-1.13 0.08-0.3 0.12-0.60999 0.12-0.92999 0-1.02-0.39-1.96-1.03-2.67zm-1.48 3.4h-0.74v0.78003c0 0.41-0.34 0.75-0.75 0.75s-0.75-0.34-0.75-0.75v-0.78003h-0.74c-0.41 0-0.75-0.34-0.75-0.75s0.34-0.75 0.75-0.75h0.74v-0.70996c0-0.41 0.34-0.75 0.75-0.75s0.75 0.34 0.75 0.75v0.70996h0.74c0.41 0 0.75 0.34 0.75 0.75s-0.33 0.75-0.75 0.75z"/>
 <path d="m11.46 14.73c1.5519 0 2.81-1.2581 2.81-2.81 0-1.552-1.2581-2.81-2.81-2.81-1.5519 0-2.81 1.258-2.81 2.81 0 1.5519 1.2581 2.81 2.81 2.81z"/>
</svg>
