<?xml version="1.0" encoding="UTF-8"?>
<svg width="24" height="24" viewBox="0 0 24 24" xmlns="http://www.w3.org/2000/svg">
 <path d="m18 18.86h-0.76c-0.8 0-1.56 0.31-2.12 0.87l-1.71 1.69c-0.78 0.77-2.05 0.77-2.83 0l-1.71-1.69c-0.56-0.56-1.33-0.87-2.12-0.87h-0.75c-1.66 0-3-1.3299-3-2.9699v-10.91c0-1.64 1.34-2.97 3-2.97h12c1.66 0 3 1.33 3 2.97v10.91c0 1.63-1.34 2.9699-3 2.9699z" opacity=".4"/>
 <path d="m12 10.41c1.2869 0 2.3301-1.0432 2.3301-2.33 0-1.2868-1.0432-2.33-2.3301-2.33-1.2868 0-2.33 1.0432-2.33 2.33 0 1.2868 1.0432 2.33 2.33 2.33z"/>
 <path d="m14.68 15.06c0.81 0 1.28-0.9 0.83-1.57-0.68-1.01-2-1.69-3.51-1.69s-2.83 0.68-3.51 1.69c-0.45 0.67 0.02002 1.57 0.83002 1.57h5.36z"/>
</svg>
