<?xml version="1.0" encoding="UTF-8"?>
<svg width="24" height="24" viewBox="0 0 24 24" xmlns="http://www.w3.org/2000/svg">
 <path d="m12 12c2.7614 0 5-2.2386 5-5s-2.2386-5-5-5c-2.7614 0-5 2.2386-5 5s2.2386 5 5 5z"/>
 <path d="m12 14.5c-5.01 0-9.09 3.36-9.09 7.5 0 0.28 0.22 0.5 0.5 0.5h17.18c0.28 0 0.5-0.22 0.5-0.5 0-4.14-4.08-7.5-9.09-7.5z" opacity=".4"/>
 <path d="m22.77 20.68-0.76-0.76c0.4-0.6 0.63-1.3199 0.63-2.0899 0-2.11-1.71-3.82-3.82-3.82s-3.82 1.71-3.82 3.82 1.71 3.82 3.82 3.82c0.77 0 1.49-0.23 2.09-0.63l0.76 0.76c0.15 0.15 0.35 0.23 0.55 0.23s0.4-0.08 0.55-0.23c0.31-0.31 0.31-0.8001 0-1.1001z"/>
</svg>
