<?xml version="1.0" encoding="UTF-8"?>
<svg width="24" height="24" viewBox="0 0 24 24" xmlns="http://www.w3.org/2000/svg">
 <path d="m10.75 2.4503c0.69-0.59 1.82-0.59 2.52 0l1.58 1.36c0.3 0.26 0.86 0.47 1.26 0.47h1.7c1.06 0 1.93 0.87 1.93 1.93v1.7c0 0.39 0.21 0.96 0.47 1.26l1.36 1.58c0.59 0.69 0.59 1.82 0 2.52l-1.36 1.58c-0.26 0.3-0.47 0.86-0.47 1.26v1.7c0 1.06-0.87 1.93-1.93 1.93h-1.7c-0.39 0-0.96 0.21-1.26 0.47l-1.58 1.36c-0.69 0.59-1.82 0.59-2.52 0l-1.58-1.36c-0.3-0.26-0.86-0.47-1.26-0.47h-1.73c-1.06 0-1.93-0.87-1.93-1.93v-1.71c0-0.39-0.21-0.95-0.46-1.25l-1.35-1.59c-0.58-0.69-0.58-1.81 0-2.5l1.35-1.59c0.25-0.3 0.46-0.86 0.46-1.25v-1.72c0-1.06 0.87-1.93 1.93-1.93h1.73c0.39 0 0.96-0.21 1.26-0.47l1.58-1.35z" opacity=".4"/>
 <path d="m10.79 15.17c-0.2 0-0.39-0.08-0.53-0.22l-2.42-2.42c-0.29-0.29-0.29-0.77 0-1.06s0.77-0.29 1.06 0l1.89 1.89 4.3-4.3c0.29-0.29 0.77-0.29 1.06 0s0.29 0.77 0 1.06l-4.83 4.83c-0.14 0.14-0.33 0.22-0.53 0.22z"/>
</svg>
