<svg width="24" height="24" viewBox="0 0 24 24"  xmlns="http://www.w3.org/2000/svg">
<path d="M12 12.6C11.76 12.6 11.54 12.49 11.4 12.3L8.90001 8.97C8.73001 8.74 8.7 8.43999 8.83 8.17999C8.96 7.91999 9.21998 7.77 9.49998 7.77H14.5C14.78 7.77 15.04 7.92999 15.17 8.17999C15.3 8.42999 15.27 8.74 15.1 8.97L12.6 12.3C12.46 12.49 12.24 12.6 12 12.6ZM11 9.27L12 10.6L13 9.27H11Z" />
<path d="M12 22.75C6.07 22.75 1.25 17.93 1.25 12C1.25 6.07 6.07 1.25 12 1.25C17.93 1.25 22.75 6.07 22.75 12C22.75 17.93 17.93 22.75 12 22.75ZM12 2.75C6.9 2.75 2.75 6.9 2.75 12C2.75 17.1 6.9 21.25 12 21.25C17.1 21.25 21.25 17.1 21.25 12C21.25 6.9 17.1 2.75 12 2.75Z" />
<path d="M12 17.75C11.76 17.75 11.53 17.63 11.39 17.44L6.39004 10.44C6.15004 10.1 6.23003 9.63 6.56003 9.39C6.90003 9.15 7.37001 9.22999 7.61001 9.55999L12 15.71L16.39 9.55999C16.63 9.21999 17.1 9.14 17.44 9.39C17.78 9.63 17.86 10.1 17.61 10.44L12.61 17.44C12.47 17.63 12.24 17.75 12 17.75Z" />
</svg>
