<?xml version="1.0" encoding="UTF-8"?>
<svg width="24" height="24" viewBox="0 0 24 24" xmlns="http://www.w3.org/2000/svg">
 <path d="m14.95 8.2898c-0.08-0.17-0.26-0.28-0.45-0.28h-5c-0.19 0-0.36001 0.11-0.45001 0.28s-0.07002 0.37 0.04998 0.52l2.5 3.33c0.09 0.13 0.24 0.2 0.4 0.2s0.31-0.07 0.4-0.2l2.5-3.33c0.11-0.14 0.13-0.35 0.05-0.52z"/>
 <path d="m12 22c5.5228 0 10-4.4772 10-10 0-5.5228-4.4772-10-10-10-5.5228 0-10 4.4772-10 10 0 5.5228 4.4772 10 10 10z" opacity=".4"/>
 <path d="m12 17.75c-0.24 0-0.47-0.12-0.61-0.31l-5-7c-0.24-0.34-0.16002-0.80996 0.16998-1.05 0.34-0.24 0.80999-0.16 1.05 0.17l4.39 6.15 4.39-6.15c0.24-0.34 0.71-0.42 1.05-0.17 0.34 0.24 0.42 0.70996 0.17 1.05l-5 7c-0.14 0.19-0.37 0.31-0.61 0.31z"/>
</svg>
