<?xml version="1.0" encoding="UTF-8"?>
<svg width="24" height="24" viewBox="0 0 24 24" xmlns="http://www.w3.org/2000/svg">
 <path d="m21.98 15.65c-0.82-1.01-2.07-1.65-3.48-1.65-1.06 0-2.04 0.37-2.81 0.99-1.04 0.82-1.69 2.09-1.69 3.51 0 0.84 0.24 1.64 0.65 2.32 0.27 0.45 0.61 0.84 1.01 1.16h0.01c0.77 0.64 1.76 1.02 2.83 1.02 1.14 0 2.17-0.42 2.96-1.12 0.35-0.3 0.65-0.66 0.89-1.06 0.41-0.68 0.65-1.48 0.65-2.32 0-1.08-0.38-2.08-1.02-2.85zm-1.22 2.29-2.4 2.22c-0.14 0.13-0.33 0.2-0.51 0.2-0.19 0-0.38-0.07-0.53-0.22l-1.11-1.11c-0.29-0.29-0.29-0.77 0-1.06s0.77-0.29 1.06 0l0.6 0.6 1.87-1.73c0.3-0.28 0.78-0.26 1.06 0.04 0.29 0.31 0.27 0.78-0.04 1.06z"/>
 <path d="m22 7.81v7.89c0-0.01-0.01-0.02-0.02-0.03-0.04-0.06-0.09-0.12-0.14-0.17-0.01-0.01-0.02-0.03-0.03-0.04-0.81-0.9-2-1.46-3.31-1.46-1.26 0-2.41 0.52-3.23 1.36-0.79 0.81-1.27 1.92-1.27 3.14 0 0.84 0.24 1.64 0.65 2.32 0.22 0.37 0.5 0.71 0.82 0.99 0.02 0.01 0.03 0.02 0.04 0.03 0.05 0.05 0.1 0.09 0.16 0.14h0.01c0.01 0.01 0.02 0.02 0.03 0.02h-7.9c-3.64 0-5.81-2.17-5.81-5.81v-8.38c0-0.51 0.04-1 0.13-1.45 0.51-2.75 2.54-4.35 5.64-4.36h8.46c3.1 0.01 5.13 1.61 5.64 4.36 0.09 0.45 0.13 0.94001 0.13 1.45z" opacity=".4"/>
 <path d="m22 7.81v0.04999h-20v-0.04999c0-0.51 0.04-1 0.13-1.45h5.64v-4.36h1.5v4.36h5.46v-4.36h1.5v4.36h5.64c0.09 0.45 0.13 0.94001 0.13 1.45z"/>
</svg>
