<?xml version="1.0" encoding="UTF-8"?>
<svg width="24" height="24" viewBox="0 0 24 24" xmlns="http://www.w3.org/2000/svg">
 <path d="M22 7.81V16.19C22 19.83 19.83 22 16.19 22H7.81C4.17 22 2 19.83 2 16.19V7.81C2 7.3 2.04 6.81 2.13 6.36C2.64 3.61 4.67 2.01 7.77 2H16.23C19.33 2.01 21.36 3.61 21.87 6.36C21.96 6.81 22 7.3 22 7.81Z" opacity=".4"/>
 <path d="M22 7.81V7.86H2V7.81C2 7.3 2.04 6.81 2.13 6.36H7.77V2H9.27V6.36H14.73V2H16.23V6.36H21.87C21.96 6.81 22 7.3 22 7.81Z"/>
 <path d="m14.44 12.72-2.08-1.2c-0.77-0.44-1.51-0.5-2.09-0.17-0.57998 0.33-0.89998 1.01-0.89998 1.89v2.4c0 0.88 0.32 1.56 0.89998 1.89 0.25 0.14 0.53 0.21 0.82 0.21 0.4 0 0.83-0.13 1.27-0.38l2.08-1.2c0.77-0.44 1.19-1.06 1.19-1.73s-0.43-1.26-1.19-1.71z"/>
</svg>
