<?xml version="1.0" encoding="UTF-8"?>
<svg width="24" height="24" viewBox="0 0 24 24" xmlns="http://www.w3.org/2000/svg">
 <path d="m21.08 8.58v6.84c0 1.12-0.5999 2.16-1.5699 2.73l-5.94 3.43c-0.97 0.56-2.17 0.56-3.15 0l-5.94-3.43c-0.97-0.56-1.57-1.6-1.57-2.73v-6.84c0-1.12 0.6-2.16 1.57-2.73l5.94-3.43c0.97-0.56 2.17-0.56 3.15 0l5.94 3.43c0.97 0.57 1.5699 1.6 1.5699 2.73z" opacity=".4"/>
 <path d="m9.75 12v-1.2c0-1.54 1.09-2.17 2.42-1.4l1.04 0.59997 1.04 0.6c1.33 0.77 1.33 2.03 0 2.8l-2.08 1.2c-1.33 0.77-2.42 0.14-2.42-1.4v-1.2z"/>
</svg>
