<svg width="24" height="24" viewBox="0 0 24 24"  xmlns="http://www.w3.org/2000/svg">
<path d="M4.29996 19.9199C4.12996 19.9199 3.95996 19.8599 3.81996 19.7499C2.80996 18.9199 2.24996 17.5899 2.24996 15.9999V7.99988C2.24996 4.57988 3.57996 3.24988 6.99996 3.24988H13C15.04 3.24988 17.18 3.62988 17.64 6.47988C17.71 6.88988 17.43 7.26988 17.02 7.33988C16.61 7.40988 16.23 7.12988 16.16 6.71988C15.95 5.41988 15.4 4.74988 13 4.74988H6.99996C4.41996 4.74988 3.74996 5.41988 3.74996 7.99988V15.9999C3.74996 16.6499 3.87996 17.8599 4.76996 18.5899C5.08996 18.8499 5.13996 19.3299 4.86996 19.6499C4.72996 19.8299 4.50996 19.9199 4.29996 19.9199Z" />
<path d="M13 20.7499H7.99996C7.58996 20.7499 7.24996 20.4099 7.24996 19.9999C7.24996 19.5899 7.58996 19.2499 7.99996 19.2499H13C15.58 19.2499 16.25 18.5799 16.25 15.9999V10.9999C16.25 10.5899 16.59 10.2499 17 10.2499C17.41 10.2499 17.75 10.5899 17.75 10.9999V15.9999C17.75 19.4199 16.42 20.7499 13 20.7499Z" />
<path d="M20.8 18.0399C20.37 18.0399 19.84 17.8999 19.21 17.4599L16.57 15.6099C16.23 15.3699 16.15 14.8999 16.39 14.5699C16.63 14.2299 17.09 14.1499 17.43 14.3899L20.07 16.2399C20.51 16.5499 20.83 16.5799 20.96 16.5099C21.09 16.4399 21.25 16.1699 21.25 15.6299V6.99988C21.25 6.58988 21.59 6.24988 22 6.24988C22.41 6.24988 22.75 6.58988 22.75 6.99988V15.6199C22.75 17.0499 22.06 17.6199 21.65 17.8299C21.46 17.9299 21.17 18.0399 20.8 18.0399Z" />
<path d="M2.01996 22.9399C1.82996 22.9399 1.63996 22.8699 1.48996 22.7199C1.19996 22.4299 1.19996 21.9499 1.48996 21.6599L21.49 1.65988C21.78 1.36988 22.26 1.36988 22.55 1.65988C22.84 1.94988 22.84 2.42988 22.55 2.71988L2.54996 22.7199C2.40996 22.8699 2.20996 22.9399 2.01996 22.9399Z" />
</svg>
