<?xml version="1.0" encoding="UTF-8"?>
<svg width="24" height="24" viewBox="0 0 24 24" xmlns="http://www.w3.org/2000/svg">
 <path d="m7.81 2h8.38c0.06 0 0.12 0 0.17 0.01 0.54 0 1.04 0.06 1.5 0.17 2.16 0.47 3.56 1.91 3.99 4.1 0.1 0.47 0.15 0.97 0.15 1.5v8.5c-0.01 0.53-0.06 1.03-0.16 1.5-0.44 2.15-1.84 3.57-3.98 4.04-0.46 0.11-0.96 0.17-1.5 0.17-0.05 0.01-0.11 0.01-0.17 0.01h-8.38c-0.51 0-1-0.04-1.45-0.13-2.26-0.42-3.74-1.87-4.2-4.09-0.11-0.47-0.16-0.97-0.16-1.5v-8.51c0-0.53 0.05-1.03 0.15-1.49 0.44-2.26 1.93-3.73 4.21-4.15 0.45-0.09 0.94-0.13 1.45-0.13z" opacity=".4"/>
 <path d="m7.86 11.25h8.5v-9.24c0.54 0 1.04 0.06 1.5 0.17v4.1h3.99c0.1 0.47 0.15 0.97 0.15 1.5h-4.14v3.47h4.14v1.5h-4.14v3.53h4.14c-0.01 0.53-0.06 1.03-0.16 1.5h-3.98v4.04c-0.46 0.11-0.96 0.17-1.5 0.17v-9.24h-8.5v9.25h-0.05c-0.51 0-1-0.04-1.45-0.13v-4.11c-0.04 0.01-0.08 0.02-0.12 0.02h-4.08c-0.11-0.47-0.16-0.97-0.16-1.5h4.24c0.04 0 0.08 0.02 0.12 0.03v-3.56h-4.36v-1.5h4.36v-3.47h-4.36v-0.01c0-0.53 0.05-1.03 0.15-1.49h4.18c0.01 0 0.02 0.01 0.03 0.01v-4.16c0.45-0.09 0.94-0.13 1.45-0.13h0.05v9.25z"/>
</svg>
