<?xml version="1.0" encoding="UTF-8"?>
<svg width="24" height="24" viewBox="0 0 24 24" xmlns="http://www.w3.org/2000/svg">
 <path d="m13 3.25h-6c-3.42 0-4.75 1.33-4.75 4.75v8c0 2.3 1.25 4.75 4.75 4.75h6c3.42 0 4.75-1.33 4.75-4.75v-8c0-3.42-1.33-4.75-4.75-4.75z" opacity=".4"/>
 <path d="m11.5 11.38c1.0383 0 1.88-0.8417 1.88-1.88 0-1.0383-0.8417-1.88-1.88-1.88s-1.88 0.8417-1.88 1.88c0 1.0383 0.84168 1.88 1.88 1.88z"/>
 <path d="m21.65 6.1701c-0.41-0.21-1.27-0.45-2.44 0.37l-1.48 1.04c0.01 0.14 0.02 0.27 0.02 0.42v8c0 0.15-0.02 0.28-0.02 0.42l1.48 1.04c0.62 0.44 1.16 0.58 1.59 0.58 0.37 0 0.66-0.1 0.85-0.2 0.41-0.21 1.1-0.78 1.1-2.21v-7.25c0-1.43-0.69-2-1.1-2.21z"/>
</svg>
