<?xml version="1.0" encoding="UTF-8"?>
<svg width="24" height="24" viewBox="0 0 24 24" xmlns="http://www.w3.org/2000/svg">
 <path d="m21.98 15.65c-0.82-1.01-2.07-1.65-3.48-1.65-1.06 0-2.04 0.37-2.81 0.99-1.04 0.82-1.69 2.09-1.69 3.51 0 1.41 0.64 2.66 1.65 3.48 0.77 0.64 1.77 1.02 2.85 1.02 1.14 0 2.17-0.43 2.97-1.12 0.93-0.83 1.53-2.03 1.53-3.38 0-1.08-0.38-2.08-1.02-2.85zm-2.45 3.13c0 0.26-0.14 0.51-0.36 0.64l-1.41 0.84c-0.12 0.07-0.25 0.11-0.39 0.11-0.25 0-0.5-0.13-0.64-0.36-0.21-0.36-0.1-0.82 0.26-1.03l1.04-0.62v-1.26c0-0.41 0.34-0.75 0.75-0.75s0.75 0.34 0.75 0.75v1.68z"/>
 <path d="m22 7.81v7.89c0-0.01-0.01-0.02-0.02-0.03-0.04-0.06-0.09-0.12-0.14-0.17-0.01-0.01-0.02-0.03-0.03-0.04-0.81-0.9-2-1.46-3.31-1.46-1.26 0-2.41 0.52-3.23 1.36-0.79 0.81-1.27 1.92-1.27 3.14 0 0.84 0.24 1.64 0.65 2.32 0.22 0.37 0.5 0.71 0.82 0.99 0.02 0.01 0.03 0.02 0.04 0.03 0.05 0.05 0.1 0.09 0.16 0.14h0.01c0.01 0.01 0.02 0.02 0.03 0.02h-7.9c-3.64 0-5.81-2.17-5.81-5.81v-8.38c0-0.51 0.04-1 0.13-1.45 0.51-2.75 2.54-4.35 5.64-4.36h8.46c3.1 0.01 5.13 1.61 5.64 4.36 0.09 0.45 0.13 0.94001 0.13 1.45z" opacity=".4"/>
 <path d="m22 7.81v0.04999h-20v-0.04999c0-0.51 0.04-1 0.13-1.45h5.64v-4.36h1.5v4.36h5.46v-4.36h1.5v4.36h5.64c0.09 0.45 0.13 0.94001 0.13 1.45z"/>
</svg>
