<?xml version="1.0" encoding="UTF-8"?>
<svg width="24" height="24" viewBox="0 0 24 24" xmlns="http://www.w3.org/2000/svg">
 <path d="m17.65 6.56-13.45 13.45c-1.4-0.89-1.95-2.48-1.95-4.01v-8c0-3.42 1.33-4.75 4.75-4.75h6c2.89 0 4.29 0.95 4.65 3.31z" opacity=".4"/>
 <path d="m17.75 9.25v6.75c0 0.08-0.01 0.14-0.01 0.21s-0.01 0.14-0.01 0.21h0.01c-0.11 3.11-1.46 4.33-4.74 4.33h-6c-0.25 0-0.48-0.01-0.71-0.04l11.46-11.46z" opacity=".4"/>
 <path d="m17.73 16.42c0-0.07 0.01-0.14 0.01-0.21 0.01 0.07 0.01 0.14 0 0.21h-0.01z" opacity=".4"/>
 <path d="m17.74 7.5701c0.01 0.07 0.01 0.15 0 0.22 0-0.07-0.01-0.14-0.01-0.21l0.01-0.01z" opacity=".4"/>
 <path d="m22.75 8.38v7.24c0 1.43-0.69 2-1.1 2.21-0.19 0.1-0.48 0.21-0.85 0.21-0.43 0-0.97-0.14-1.59-0.58l-1.47-1.04h-0.01c0-0.07 0.01-0.14 0.01-0.21s0.01-0.13 0.01-0.21v-6.75l3.27-3.27c0.27 0.02 0.48 0.1 0.63 0.19 0.41 0.21 1.1 0.78 1.1 2.21z"/>
 <path d="m21.77 2.2299c-0.3-0.3-0.79-0.3-1.09 0l-18.45 18.46c-0.3 0.3-0.3 0.79 0 1.09 0.15 0.14 0.34 0.22 0.54 0.22s0.39-0.08 0.54-0.23l18.46-18.46c0.31-0.3 0.31-0.78 0-1.08z"/>
</svg>
