<?xml version="1.0" encoding="UTF-8"?>
<svg width="24" height="24" viewBox="0 0 24 24" xmlns="http://www.w3.org/2000/svg">
 <path d="m12 22c5.5228 0 10-4.4772 10-10 0-5.5228-4.4772-10-10-10-5.5228 0-10 4.4772-10 10 0 5.5228 4.4772 10 10 10z" opacity=".4"/>
 <path d="m6 14.89c-0.41 0-0.75-0.34-0.75-0.75v-4.29c0-0.41 0.34-0.75 0.75-0.75s0.75 0.34 0.75 0.75v4.29c0 0.42-0.34 0.75-0.75 0.75z"/>
 <path d="m9 16.32c-0.41 0-0.75-0.34-0.75-0.75v-7.14c0-0.41 0.34-0.75 0.75-0.75s0.75 0.34 0.75 0.75v7.14c0 0.42-0.34 0.75-0.75 0.75z"/>
 <path d="m12 17.75c-0.41 0-0.75-0.34-0.75-0.75v-10c0-0.41 0.34-0.75 0.75-0.75s0.75 0.34 0.75 0.75v10c0 0.41-0.34 0.75-0.75 0.75z"/>
 <path d="m15 16.32c-0.41 0-0.75-0.34-0.75-0.75v-7.14c0-0.41 0.34-0.75 0.75-0.75s0.75 0.34 0.75 0.75v7.14c0 0.42-0.34 0.75-0.75 0.75z"/>
 <path d="m18 14.89c-0.41 0-0.75-0.34-0.75-0.75v-4.29c0-0.41 0.34-0.75 0.75-0.75s0.75 0.34 0.75 0.75v4.29c0 0.42-0.34 0.75-0.75 0.75z"/>
</svg>
