<?xml version="1.0" encoding="UTF-8"?>
<svg width="24" height="24" viewBox="0 0 24 24" xmlns="http://www.w3.org/2000/svg">
 <path d="m18 16.75c-0.16 0-0.31-0.05-0.45-0.15-0.33-0.25-0.4-0.72-0.15-1.05 1.26-1.68 1.53-3.91 0.72-5.84-0.16-0.38 0.02-0.82 0.4-0.98s0.82 0.02 0.98 0.4c1.02 2.42 0.67 5.23-0.9 7.33-0.15 0.19-0.37 0.29-0.6 0.29z"/>
 <path d="m19.83 19.25c-0.16 0-0.31-0.05-0.45-0.15-0.33-0.25-0.4-0.72-0.15-1.05 2.14-2.85 2.61-6.67 1.23-9.96-0.16-0.38 0.02-0.82 0.4-0.98 0.38-0.15999 0.82 0.02001 0.98 0.40001 1.59 3.78 1.05 8.16-1.41 11.44-0.14 0.2-0.37 0.3-0.6 0.3z"/>
 <path d="m14.04 12.96c0.63-0.63 1.71-0.18 1.71 0.71v2.93c0 1.72-0.62 3.01-1.73 3.63-0.45 0.25-0.95 0.37-1.47 0.37-0.8 0-1.66-0.27-2.54-0.82l-0.64002-0.4c-0.54-0.34-0.63-1.1-0.18-1.55l4.85-4.87z" opacity=".4"/>
 <path d="m14.02 3.78c-1.12-0.62-2.55-0.46-4.01 0.45l-2.92 1.83c-0.2 0.12-0.43 0.19-0.66 0.19h-1.43c-2.42 0-3.75 1.33-3.75 3.75v4c0 2.42 1.33 3.75 3.75 3.75h1.25l9.5-9.5v-0.84c0-1.72-0.62-3.01-1.73-3.63z" opacity=".4"/>
 <path d="m21.77 2.2299c-0.3-0.3-0.79-0.3-1.09 0l-18.45 18.46c-0.3 0.3-0.3 0.79 0 1.09 0.15 0.14 0.34 0.22 0.54 0.22s0.39-0.08 0.54-0.23l18.46-18.46c0.31-0.3 0.31-0.78 0-1.08z"/>
</svg>
