<svg width="24" height="24" viewBox="0 0 24 24"  xmlns="http://www.w3.org/2000/svg">
<path d="M7 17.7499H5C2.58 17.7499 1.25 16.4199 1.25 13.9999V9.99994C1.25 7.57994 2.58 6.24994 5 6.24994H6.43C6.66 6.24994 6.89 6.17994 7.09 6.05994L10.01 4.22994C11.47 3.31994 12.89 3.14994 14.01 3.76994C15.13 4.38994 15.74 5.67994 15.74 7.40994V8.36994C15.74 8.77994 15.4 9.11994 14.99 9.11994C14.58 9.11994 14.24 8.77994 14.24 8.36994V7.40994C14.24 6.26994 13.89 5.41994 13.28 5.08994C12.67 4.74994 11.77 4.89994 10.8 5.50994L7.88 7.32994C7.45 7.60994 6.94 7.74994 6.43 7.74994H5C3.42 7.74994 2.75 8.41994 2.75 9.99994V13.9999C2.75 15.5799 3.42 16.2499 5 16.2499H7C7.41 16.2499 7.75 16.5899 7.75 16.9999C7.75 17.4099 7.41 17.7499 7 17.7499Z" />
<path d="M12.55 20.5899C11.76 20.5899 10.89 20.3099 10.02 19.7599C9.67 19.5399 9.56 19.0799 9.78 18.7299C10 18.3799 10.46 18.2699 10.81 18.4899C11.78 19.0899 12.68 19.2499 13.29 18.9099C13.9 18.5699 14.25 17.7199 14.25 16.5899V12.9499C14.25 12.5399 14.59 12.1999 15 12.1999C15.41 12.1999 15.75 12.5399 15.75 12.9499V16.5899C15.75 18.3099 15.13 19.6099 14.02 20.2299C13.57 20.4699 13.07 20.5899 12.55 20.5899Z" />
<path d="M18 16.7499C17.84 16.7499 17.69 16.6999 17.55 16.5999C17.22 16.3499 17.15 15.8799 17.4 15.5499C18.66 13.8699 18.93 11.6399 18.12 9.70994C17.96 9.32994 18.14 8.88994 18.52 8.72994C18.9 8.56994 19.34 8.74994 19.5 9.12994C20.52 11.5499 20.17 14.3599 18.6 16.4599C18.45 16.6499 18.23 16.7499 18 16.7499Z" />
<path d="M19.83 19.2499C19.67 19.2499 19.52 19.1999 19.38 19.0999C19.05 18.8499 18.98 18.3799 19.23 18.0499C21.37 15.1999 21.84 11.3799 20.46 8.08994C20.3 7.70994 20.48 7.26994 20.86 7.10994C21.25 6.94994 21.68 7.12994 21.84 7.50994C23.43 11.2899 22.89 15.6699 20.43 18.9499C20.29 19.1499 20.06 19.2499 19.83 19.2499Z" />
<path d="M2 22.7499C1.81 22.7499 1.62 22.6799 1.47 22.5299C1.18 22.2399 1.18 21.7599 1.47 21.4699L21.47 1.46994C21.76 1.17994 22.24 1.17994 22.53 1.46994C22.82 1.75994 22.82 2.23994 22.53 2.52994L2.53 22.5299C2.38 22.6799 2.19 22.7499 2 22.7499Z" />
</svg>
