<?xml version="1.0" encoding="UTF-8"?>
<svg width="24" height="24" viewBox="0 0 24 24" xmlns="http://www.w3.org/2000/svg">
 <path d="m18 16.75c-0.16 0-0.31-0.05-0.45-0.15-0.33-0.25-0.4-0.72-0.15-1.05 1.57-2.09 1.57-5.01 0-7.1-0.25-0.33-0.18-0.8 0.15-1.05s0.8-0.18 1.05 0.15c1.96 2.62 1.96 6.28 0 8.9-0.15 0.2-0.37 0.3-0.6 0.3z"/>
 <path d="m19.83 19.25c-0.16 0-0.31-0.05-0.45-0.15-0.33-0.25-0.4-0.72-0.15-1.05 2.67-3.56 2.67-8.54 0-12.1-0.25-0.33-0.18-0.8 0.15-1.05s0.8-0.18 1.05 0.15c3.07 4.09 3.07 9.81 0 13.9-0.14 0.2-0.37 0.3-0.6 0.3z"/>
 <path d="m15.75 7.41v9.18c0 1.72-0.62 3.01-1.73 3.63-0.45 0.25-0.95 0.37-1.47 0.37-0.8 0-1.66-0.27-2.54-0.82l-2.92-1.83c-0.2-0.12-0.43-0.19-0.66-0.19h-0.93v-11.5h0.93c0.23 0 0.46-0.07 0.66-0.19l2.92-1.83c1.46-0.91 2.89-1.07 4.01-0.45 1.11 0.62 1.73 1.91 1.73 3.63z" opacity=".4"/>
 <path d="m5.5 6.25v11.5h-0.5c-2.42 0-3.75-1.33-3.75-3.75v-4c0-2.42 1.33-3.75 3.75-3.75h0.5z"/>
</svg>
