<svg width="24" height="24" viewBox="0 0 24 24"  xmlns="http://www.w3.org/2000/svg">
<path d="M18 16.7498C17.84 16.7498 17.69 16.6998 17.55 16.5998C17.22 16.3498 17.15 15.8798 17.4 15.5498C18.66 13.8698 18.93 11.6398 18.12 9.70983C17.96 9.32983 18.14 8.88983 18.52 8.72983C18.9 8.56983 19.34 8.74983 19.5 9.12983C20.52 11.5498 20.17 14.3598 18.6 16.4598C18.45 16.6498 18.23 16.7498 18 16.7498Z" />
<path d="M19.8301 19.2502C19.6701 19.2502 19.5201 19.2002 19.3801 19.1002C19.0501 18.8502 18.9801 18.3802 19.2301 18.0502C21.3701 15.2002 21.8401 11.3802 20.4601 8.0902C20.3001 7.7102 20.4801 7.2702 20.8601 7.1102C21.2401 6.9502 21.6801 7.1302 21.8401 7.5102C23.4301 11.2902 22.8901 15.6702 20.4301 18.9502C20.2901 19.1502 20.0601 19.2502 19.8301 19.2502Z" />
<path opacity="0.4" d="M14.04 12.96C14.67 12.33 15.75 12.78 15.75 13.67V16.6C15.75 18.32 15.13 19.61 14.02 20.23C13.57 20.48 13.07 20.6 12.55 20.6C11.75 20.6 10.89 20.33 10.01 19.78L9.36998 19.38C8.82998 19.04 8.73998 18.28 9.18998 17.83L14.04 12.96Z" />
<path opacity="0.4" d="M14.02 3.78021C12.9 3.16021 11.47 3.32021 10.01 4.23021L7.09 6.06021C6.89 6.18021 6.66 6.25021 6.43 6.25021H5.5H5C2.58 6.25021 1.25 7.58021 1.25 10.0002V14.0002C1.25 16.4202 2.58 17.7502 5 17.7502H5.5H6.25L15.75 8.25021V7.41021C15.75 5.69021 15.13 4.40021 14.02 3.78021Z" />
<path d="M21.7699 2.22988C21.4699 1.92988 20.9799 1.92988 20.6799 2.22988L2.22988 20.6899C1.92988 20.9899 1.92988 21.4799 2.22988 21.7799C2.37988 21.9199 2.56988 21.9999 2.76988 21.9999C2.96988 21.9999 3.15988 21.9199 3.30988 21.7699L21.7699 3.30988C22.0799 3.00988 22.0799 2.52988 21.7699 2.22988Z" />
</svg>
