<?xml version="1.0" encoding="UTF-8"?>
<svg width="24" height="24" viewBox="0 0 24 24" xmlns="http://www.w3.org/2000/svg">
 <path d="m12 22.751c-0.25 0-0.49-0.13-0.63-0.34l-9.04-14c-0.22-0.35-0.12-0.81001 0.22-1.04 0.35-0.22 0.81001-0.13 1.04 0.22l8.4 13.02 8.37-13.02c0.22-0.35 0.69-0.44999 1.04-0.22999s0.45 0.68999 0.23 1.04l-9 14c-0.14 0.22-0.37 0.35-0.63 0.35z"/>
 <path d="m3.9198 4h1.82c0.17 0 0.32002 0.08 0.42002 0.22l5.44 8.15c0.2 0.3 0.63 0.3 0.83 0l5.44-8.15c0.09-0.14 0.25-0.22 0.42-0.22h1.82c0.4 0 0.63 0.44 0.42 0.77l-8.08 12.58c-0.2 0.31-0.64 0.31-0.84 0l-8.08-12.58c-0.25-0.33-0.00998-0.77 0.39002-0.77z" opacity=".4"/>
 <path d="m8 3 3.58 5.38c0.2 0.30001 0.63 0.30001 0.83 0l3.59-5.38-2.8 1v-2h-2.4v2l-2.8-1z"/>
</svg>
