<svg width="24" height="24" viewBox="0 0 24 24"  xmlns="http://www.w3.org/2000/svg">
<path d="M11.9998 22.75C11.7498 22.75 11.5098 22.62 11.3698 22.41L2.32981 8.41C2.10981 8.06 2.20981 7.59999 2.54981 7.36999C2.89981 7.14999 3.35982 7.23999 3.58982 7.58999L11.9898 20.61L20.3598 7.58999C20.5798 7.23999 21.0498 7.13998 21.3998 7.35998C21.7498 7.57998 21.8498 8.04999 21.6298 8.39999L12.6298 22.4C12.4898 22.62 12.2598 22.75 11.9998 22.75Z" />
<path d="M11.9998 18.75C11.7398 18.75 11.5098 18.62 11.3698 18.41L2.3698 4.41C2.2198 4.18 2.2098 3.88999 2.3398 3.64999C2.4698 3.40999 2.71981 3.26001 2.99981 3.26001H5.99981C6.24981 3.26001 6.4798 3.38 6.6198 3.59L11.9998 11.65L17.3798 3.59C17.5198 3.38 17.7498 3.26001 17.9998 3.26001H20.9998C21.2698 3.26001 21.5298 3.40999 21.6598 3.64999C21.7898 3.88999 21.7798 4.18 21.6298 4.41L12.6298 18.41C12.4898 18.62 12.2598 18.75 11.9998 18.75ZM4.3698 4.75L11.9998 16.61L19.6298 4.75H18.3998L12.6198 13.42C12.3398 13.84 11.6498 13.84 11.3698 13.42L5.5898 4.75H4.3698Z" />
<path d="M11.9998 9.75C11.7498 9.75 11.5198 9.63001 11.3798 9.42001L7.37982 3.42001C7.19982 3.15001 7.20982 2.80001 7.40982 2.54001C7.60982 2.29001 7.94981 2.18999 8.24981 2.29999L10.0498 2.94V2C10.0498 1.59 10.3898 1.25 10.7998 1.25H13.1998C13.6098 1.25 13.9498 1.59 13.9498 2V2.94L15.7498 2.29999C16.0498 2.18999 16.3898 2.29001 16.5898 2.54001C16.7898 2.79001 16.7998 3.15001 16.6198 3.42001L12.6198 9.42001C12.4798 9.62001 12.2498 9.75 11.9998 9.75ZM9.87982 4.47L11.9998 7.64999L14.1198 4.47L13.4498 4.70999C13.2198 4.78999 12.9698 4.76 12.7698 4.62C12.5698 4.48 12.4498 4.25001 12.4498 4.01001V2.76001H11.5498V4C11.5498 4.24 11.4298 4.46999 11.2298 4.60999C11.0298 4.74999 10.7698 4.78001 10.5498 4.70001L9.87982 4.47Z" />
</svg>
