<?xml version="1.0" encoding="UTF-8"?>
<svg width="24" height="24" viewBox="0 0 24 24" xmlns="http://www.w3.org/2000/svg">
 <path d="M22 12V17C22 20 20 22 17 22H7.63C7.94 21.74 8.20998 21.42 8.41998 21.06C8.78998 20.46 9 19.75 9 19C9 16.79 7.21 15 5 15C3.8 15 2.73 15.53 2 16.36V12C2 9.28 3.64 7.38 6.19 7.06C6.45 7.02 6.72 7 7 7H17C17.26 7 17.51 7.00999 17.75 7.04999C20.33 7.34999 22 9.26 22 12Z" opacity=".4"/>
 <path d="m17.75 7.05c-0.24-0.04-0.49-0.04999-0.75-0.04999h-10c-0.28 0-0.55 0.02-0.81 0.06 0.14-0.28 0.34002-0.53997 0.58002-0.77997l3.25-3.26c1.37-1.36 3.5899-1.36 4.9599 0l1.75 1.77c0.64 0.63 0.98 1.43 1.02 2.26z"/>
 <path d="m22 12.5h-3c-1.1 0-2 0.9-2 2s0.9 2 2 2h3"/>
 <path d="m5 15c-1.2 0-2.27 0.53-3 1.36-0.62 0.71-1 1.63-1 2.64 0 0.75 0.21002 1.46 0.58002 2.06 0.69 1.16 1.96 1.94 3.42 1.94 1.01 0 1.93-0.37 2.63-1 0.31-0.26 0.57998-0.58 0.78998-0.94 0.37-0.6 0.58002-1.31 0.58002-2.06 0-2.21-1.79-4-4-4zm1.6 5.58c-0.15 0.15-0.33997 0.22-0.52997 0.22s-0.38003-0.07-0.53003-0.22l-0.52997-0.53-0.54999 0.55c-0.15 0.15-0.34003 0.22-0.53003 0.22s-0.37997-0.07-0.52997-0.22c-0.29-0.29-0.29-0.77 0-1.06l0.54999-0.55-0.53003-0.53c-0.29-0.29-0.29-0.77 0-1.06s0.77-0.29 1.06 0l0.53003 0.53 0.5-0.5c0.29-0.29 0.77-0.29 1.06 0s0.29 0.77 0 1.06l-0.5 0.5 0.52997 0.53c0.29 0.29 0.29 0.76 0 1.06z"/>
</svg>
