<?xml version="1.0" encoding="UTF-8"?>
<svg width="24" height="24" viewBox="0 0 24 24" xmlns="http://www.w3.org/2000/svg">
 <path d="m15 6.15h-9c-2.21 0-4 1.79-4 4v-3.61c0-2.04 1.65-3.69 3.69-3.69h5.62c2.04 0 3.69 1.26 3.69 3.3z"/>
 <path d="m17.48 12.2c-0.5 0.49-0.74 1.23-0.54 1.98 0.25 0.93 1.17 1.52 2.13 1.52h0.93v1.45c0 2.21-1.79 4-4 4h-10c-2.21 0-4-1.79-4-4v-7c0-2.21 1.79-4 4-4h10c2.2 0 4 1.8 4 4v1.45h-1.08c-0.56 0-1.07 0.22-1.44 0.6z" opacity=".4"/>
 <path d="m22 12.62v2.06c0 0.56-0.46 1.02-1.03 1.02h-1.93c-1.08 0-2.07-0.79-2.16-1.87-0.06-0.63 0.18-1.22 0.6-1.63 0.37-0.38 0.88-0.6 1.44-0.6h2.05c0.57 0 1.03 0.46 1.03 1.02z"/>
 <path d="m13 11.9h-6c-0.41 0-0.75-0.34-0.75-0.75s0.34-0.75 0.75-0.75h6c0.41 0 0.75 0.34 0.75 0.75s-0.34 0.75-0.75 0.75z"/>
</svg>
