<?xml version="1.0" encoding="UTF-8"?>
<svg width="24" height="24" viewBox="0 0 24 24" xmlns="http://www.w3.org/2000/svg">
 <path d="m5 15c-2.21 0-4 1.79-4 4 0 0.75 0.21 1.46 0.58 2.06 0.69 1.16 1.96 1.94 3.42 1.94s2.73-0.78 3.42-1.94c0.37-0.6 0.58-1.31 0.58-2.06 0-2.21-1.79-4-4-4zm1.97 3.67-2.13 1.97c-0.14 0.13-0.33 0.2-0.51 0.2-0.19 0-0.38-0.07-0.53-0.22l-0.99-0.99c-0.29-0.29-0.29-0.77 0-1.06s0.77-0.29 1.06 0l0.48 0.48 1.6-1.48c0.3-0.28 0.78-0.26 1.06 0.04s0.26 0.78-0.04 1.06z"/>
 <path d="m17.75 7.05c-0.24-0.04-0.49-0.04999-0.75-0.04999h-10c-0.28 0-0.55 0.02-0.81 0.06 0.14-0.28 0.34-0.53997 0.58-0.77997l3.25-3.26c1.37-1.36 3.59-1.36 4.96 0l1.75 1.77c0.64 0.63 0.98 1.43 1.02 2.26z"/>
 <path d="m22 12v5c0 3-2 5-5 5h-9.37c0.31-0.26 0.58-0.58 0.79-0.94 0.37-0.6 0.58-1.31 0.58-2.06 0-2.21-1.79-4-4-4-1.2 0-2.27 0.53-3 1.36v-4.36c0-2.72 1.64-4.62 4.19-4.94 0.26-0.04 0.53-0.06 0.81-0.06h10c0.26 0 0.51 0.00999 0.75 0.04999 2.58 0.3 4.25 2.21 4.25 4.95z" opacity=".4"/>
 <path d="m22 12.5h-3c-1.1 0-2 0.9-2 2s0.9 2 2 2h3"/>
</svg>
