<?xml version="1.0" encoding="UTF-8"?>
<svg width="24" height="24" viewBox="0 0 24 24" xmlns="http://www.w3.org/2000/svg">
 <path d="m22 10.97v2.06c0 0.55-0.44 1-1 1.02h-1.96c-1.08 0-2.07-0.79-2.16-1.87-0.06-0.63 0.18-1.22 0.6-1.63 0.37-0.38 0.88-0.59999 1.44-0.59999h2.08c0.56 0.02 1 0.46999 1 1.02z"/>
 <path d="m17.48 10.55c-0.42 0.41-0.66 1-0.6 1.63 0.09 1.08 1.08 1.87 2.16 1.87h1.96v1.45c0 3-2 5-5 5h-9c-3 0-5-2-5-5v-7c0-2.72 1.64-4.62 4.19-4.94 0.26-0.04 0.53-0.06 0.81-0.06h9c0.26 0 0.51 0.00999 0.75 0.04999 2.58 0.3 4.25 2.21 4.25 4.95v1.45h-2.08c-0.56 0-1.07 0.21999-1.44 0.59999z" opacity=".4"/>
 <path d="m13 9.75h-6c-0.41 0-0.75-0.34-0.75-0.75s0.34-0.75 0.75-0.75h6c0.41 0 0.75 0.34 0.75 0.75s-0.34 0.75-0.75 0.75z"/>
</svg>
