<?xml version="1.0" encoding="UTF-8"?>
<svg width="24" height="24" viewBox="0 0 24 24" xmlns="http://www.w3.org/2000/svg">
 <path d="m12.9 2.52-0.03 0.07-2.9 6.73h-2.85c-0.68 0-1.32 0.13-1.92 0.39l1.75-4.18 0.04-0.09 0.06-0.16c0.03-0.07 0.05-0.13 0.08-0.18 1.31-3.03 2.79-3.72 5.77-2.58z" opacity=".8"/>
 <path d="m18.29 9.52c-0.45-0.13-0.92-0.2-1.41-0.2h-6.91l2.9-6.73 0.03-0.07c0.14 0.05 0.29 0.12 0.44 0.17l2.21 0.93c1.23 0.51 2.09 1.04 2.62 1.68 0.09 0.12 0.17 0.23 0.25 0.36 0.09 0.14 0.16 0.28 0.2 0.43 0.04 0.09 0.07 0.17 0.09 0.26 0.26 0.85 0.1 1.88-0.42 3.17z"/>
 <path d="m21.76 14.2v1.95c0 0.2-0.01 0.4-0.02 0.59-0.19 3.5-2.14 5.26-5.84 5.26h-7.8c-0.25 0-0.48-0.02-0.71-0.05-3.18-0.21-4.88-1.91-5.1-5.09-0.03-0.24-0.05-0.47-0.05-0.71v-1.95c0-2.01 1.22-3.74 2.96-4.49 0.6-0.26 1.24-0.39 1.92-0.39h9.76c0.49 0 0.96 0.07 1.41 0.2 2 0.60999 3.47 2.47 3.47 4.68z" opacity=".4"/>
 <path d="m6.9502 5.53-1.75 4.18c-1.74 0.74997-2.96 2.48-2.96 4.49v-2.93c0-2.84 2.02-5.21 4.71-5.74z" opacity=".6"/>
 <path d="m21.76 11.27v2.93c0-2.21-1.47-4.07-3.47-4.68 0.52-1.29 0.68-2.32 0.42-3.17-0.02-0.09-0.05-0.17-0.09-0.26 1.87 0.97 3.14 2.94 3.14 5.18z" opacity=".6"/>
 <path d="m14.5 14.69h-1.75v-1.69c0-0.41-0.34-0.75-0.75-0.75s-0.75 0.34-0.75 0.75v1.69h-1.75c-0.41 0-0.75 0.34-0.75 0.75s0.34 0.75 0.75 0.75h1.75v1.81c0 0.41 0.34 0.75 0.75 0.75s0.75-0.34 0.75-0.75v-1.81h1.75c0.41 0 0.75-0.34 0.75-0.75s-0.34-0.75-0.75-0.75z"/>
</svg>
