<?xml version="1.0" encoding="UTF-8"?>
<svg width="24" height="24" viewBox="0 0 24 24" xmlns="http://www.w3.org/2000/svg">
 <path d="m17.75 7.05c-0.24-0.04-0.49-0.04999-0.75-0.04999h-10c-0.28 0-0.55 0.02-0.81 0.06 0.14-0.28 0.34-0.53997 0.58-0.77997l3.25-3.26c1.37-1.36 3.59-1.36 4.96 0l1.75 1.77c0.64 0.63 0.98 1.43 1.02 2.26z"/>
 <path d="m2 16.36v-4.36c0-2.72 1.64-4.62 4.19-4.94 0.26-0.04 0.53-0.06 0.81-0.06h10c0.26 0 0.51 0.00999 0.75 0.04999 2.58 0.3 4.25 2.21 4.25 4.95v5c0 2.76-2.24 5-5 5h-10c-2.76 0-5-2.24-5-5v-0.64z" opacity=".4"/>
 <path d="m22 12.5h-3c-1.1 0-2 0.9-2 2s0.9 2 2 2h3"/>
 <path d="m1.2301 21.68 0.75999-0.76c-0.4-0.6-0.62999-1.32-0.62999-2.09 0-2.11 1.71-3.82 3.82-3.82s3.82 1.71 3.82 3.82-1.71 3.82-3.82 3.82c-0.77 0-1.49-0.23-2.09-0.63l-0.75999 0.76c-0.15 0.15-0.35001 0.23-0.55001 0.23s-0.39999-0.08-0.54999-0.23c-0.31-0.31-0.31-0.8 0-1.1z"/>
</svg>
