<?xml version="1.0" encoding="UTF-8"?>
<svg width="24" height="24" viewBox="0 0 24 24" xmlns="http://www.w3.org/2000/svg">
 <path d="m12 22c5.5228 0 10-4.4772 10-10 0-5.5228-4.4772-10-10-10-5.5228 0-10 4.4772-10 10 0 5.5228 4.4772 10 10 10z" opacity=".4"/>
 <path d="m16.5 9.1609v3.83c0 0.78-0.85 1.26-1.51 0.86l-2.47-1.48c-0.32-0.19-0.71-0.19-1.03 0l-2.47 1.48c-0.67 0.4-1.51-0.08-1.51-0.86v-3.83c0-0.34 0.18-0.66 0.46-0.84l3.5-2.22c0.33-0.21 0.74-0.21 1.07 0l3.5 2.22c0.28 0.18 0.46 0.5 0.46 0.84z"/>
 <path d="m12 18.062c-0.15 0-0.29-0.04-0.42-0.13l-2.25-1.5c-0.34-0.23-0.44001-0.7-0.21001-1.04 0.23-0.35 0.70001-0.44 1.04-0.21l1.8301 1.22 1.83-1.22c0.34-0.23 0.8099-0.14 1.0399 0.21 0.23 0.34 0.14 0.81-0.21 1.04l-2.25 1.5c-0.11 0.09-0.25 0.13-0.4 0.13z"/>
</svg>
