<?xml version="1.0" encoding="UTF-8"?>
<svg width="24" height="24" viewBox="0 0 24 24" xmlns="http://www.w3.org/2000/svg">
 <path d="m11.75 9.43-3.25 5.57-0.63 1.09-2.47 4.22c-0.18 0.32-0.64 0.33-0.84 0.02l-3.38-5.05c-0.11-0.17-0.11-0.39 0-0.56l3.67-5.5c0.09-0.14 0.24998-0.22 0.41998-0.22h6.23l0.25 0.43z" opacity=".4"/>
 <path d="m22.84 14.73-6.7-11.48c-0.08-0.16-0.25-0.25-0.43-0.25h-6.84c-0.39 0-0.63 0.42-0.43 0.75l3.06 5.25 0.25 0.43 2.81 4.82c0.2 0.33-0.04 0.75-0.43 0.75h-5.63l-0.63 1.09c0.18-0.32 0.63999-0.33 0.83999-0.02l3.14 4.71c0.09 0.14 0.25 0.22 0.42 0.22h6.46c0.17 0 0.33-0.08 0.42-0.22l3.68-5.52c0.1-0.16 0.11-0.36 0.01-0.53z"/>
</svg>
