<?xml version="1.0" encoding="UTF-8"?>
<svg width="24" height="24" viewBox="0 0 24 24" xmlns="http://www.w3.org/2000/svg">
 <path d="m21.08 8.58v6.84c0 1.12-0.6 2.16-1.57 2.73l-5.94 3.43c-0.97 0.56-2.17 0.56-3.15 0l-5.94-3.43c-0.97-0.56-1.57-1.6-1.57-2.73v-6.84c0-1.12 0.6-2.16 1.57-2.73l5.94-3.43c0.97-0.56 2.17-0.56 3.15 0l5.94 3.43c0.97 0.57 1.57 1.6 1.57 2.73z" opacity=".4"/>
 <path d="m12 13.75c-0.41 0-0.75-0.34-0.75-0.75v-5.25c0-0.41 0.34-0.75 0.75-0.75s0.75 0.34 0.75 0.75v5.25c0 0.41-0.34 0.75-0.75 0.75z"/>
 <path d="m12 17.25c-0.13 0-0.26-0.0301-0.38-0.0801-0.13-0.05-0.23-0.1199-0.33-0.2099-0.09-0.1-0.16-0.21-0.22-0.33-0.05-0.12-0.07-0.25-0.07-0.38 0-0.26 0.1-0.5201 0.29-0.7101 0.1-0.09 0.2-0.1599 0.33-0.2099 0.37-0.16 0.81-0.0701 1.09 0.2099 0.09 0.1 0.16 0.2001 0.21 0.3301 0.05 0.12 0.08 0.25 0.08 0.38s-0.03 0.26-0.08 0.38-0.12 0.23-0.21 0.33c-0.19 0.19-0.44 0.29-0.71 0.29z"/>
</svg>
