<?xml version="1.0" encoding="UTF-8"?>
<svg width="24" height="24" viewBox="0 0 24 24" xmlns="http://www.w3.org/2000/svg">
 <path d="m17.18 5.25c-1.71 0-3.75 0.65-3.75 3.75v6c0 3.1 2.04 3.75 3.75 3.75s3.75-0.65 3.75-3.75v-6c0-3.1-2.04-3.75-3.75-3.75z" opacity=".4"/>
 <path d="m6.8198 5.25c-1.71 0-3.75 0.65-3.75 3.75v6c0 3.1 2.04 3.75 3.75 3.75s3.75-0.65 3.75-3.75v-6c0-3.1-2.04-3.75-3.75-3.75z" opacity=".4"/>
 <path d="m13.43 11.25h-2.86v1.5h2.86v-1.5z"/>
 <path d="m22.5 15.25c-0.41 0-0.75-0.34-0.75-0.75v-5c0-0.41 0.34-0.75 0.75-0.75s0.75 0.34 0.75 0.75v5c0 0.41-0.34 0.75-0.75 0.75z"/>
 <path d="m1.5 15.25c-0.41 0-0.75-0.34-0.75-0.75v-5c0-0.41 0.34-0.75 0.75-0.75s0.75 0.34 0.75 0.75v5c0 0.41-0.34 0.75-0.75 0.75z"/>
</svg>
