<?xml version="1.0" encoding="UTF-8"?>
<svg width="24" height="24" viewBox="0 0 24 24" xmlns="http://www.w3.org/2000/svg">
 <path d="m8 22h8c3 0 5-2 5-5v-10c0-3-2-5-5-5h-8c-3 0-5 2-5 5v10c0 3 2 5 5 5z" opacity=".4"/>
 <path d="m17.5 7.9997c-3.13-2.79-7.86-2.79-11 0-0.14 0.13-0.17 0.33-0.07 0.48l2.18 3.5c0.06 0.09 0.16 0.16 0.26 0.17 0.11 0.02 0.22-0.02 0.3-0.09 1.61-1.43 4.03-1.43 5.64 0 0.07 0.06 0.16 0.09 0.25 0.09h0.05c0.11-0.02 0.21-0.08 0.26-0.17l2.18-3.5c0.12-0.15 0.09-0.35-0.05-0.48z"/>
</svg>
