<svg width="24" height="24" viewBox="0 0 24 24"  xmlns="http://www.w3.org/2000/svg">
<path d="M2.00014 22.7502C1.80014 22.7502 1.61011 22.6702 1.47011 22.5302C1.28011 22.3402 1.20016 22.0602 1.27016 21.8002L2.53017 17.0902C1.69017 15.5302 1.25014 13.7702 1.25014 11.9902C1.25014 6.06023 6.07014 1.24023 12.0001 1.24023C17.9301 1.24023 22.7501 6.06023 22.7501 11.9902C22.7501 17.9202 17.9301 22.7402 12.0001 22.7402C10.1901 22.7402 8.42017 22.2902 6.84017 21.4302L2.20015 22.7202C2.13015 22.7402 2.07014 22.7502 2.00014 22.7502ZM6.94014 19.8802C7.07014 19.8802 7.20015 19.9203 7.32015 19.9803C8.73015 20.8103 10.3501 21.2502 12.0001 21.2502C17.1001 21.2502 21.2501 17.1002 21.2501 12.0002C21.2501 6.90024 17.1001 2.75024 12.0001 2.75024C6.90014 2.75024 2.75014 6.90024 2.75014 12.0002C2.75014 13.6302 3.18013 15.2202 3.99013 16.6202C4.09013 16.7902 4.12015 17.0002 4.07015 17.1902L3.07015 20.9302L6.75014 19.9102C6.81014 19.8902 6.88014 19.8802 6.94014 19.8802Z" />
<path d="M14.7401 17.7603C14.1201 17.7603 13.4801 17.6202 12.8101 17.3302C12.1801 17.0602 11.5501 16.7003 10.9401 16.2503C10.3401 15.8103 9.75014 15.3102 9.21014 14.7702C8.67014 14.2202 8.1701 13.6403 7.7301 13.0403C7.2801 12.4103 6.9201 11.7902 6.6601 11.1802C6.3801 10.5202 6.24011 9.87026 6.24011 9.25026C6.24011 8.81026 6.32009 8.39026 6.47009 8.00026C6.63009 7.59026 6.8901 7.22025 7.2301 6.90025C7.8701 6.27025 8.79014 6.04027 9.52014 6.39027C9.77014 6.50027 9.98014 6.68027 10.1401 6.92027L11.3001 8.55024C11.4201 8.71024 11.5101 8.88024 11.5801 9.05024C11.6601 9.25024 11.7101 9.45027 11.7101 9.64027C11.7101 9.90027 11.6401 10.1603 11.5001 10.3903C11.4101 10.5403 11.2801 10.7203 11.1101 10.8903L10.9801 11.0303C11.0401 11.1103 11.1101 11.2102 11.2201 11.3302C11.4301 11.5702 11.6601 11.8302 11.9101 12.0802C12.1601 12.3202 12.4101 12.5602 12.6601 12.7702C12.7801 12.8702 12.8801 12.9503 12.9601 13.0003L13.1001 12.8602C13.2801 12.6802 13.4601 12.5403 13.6401 12.4503C13.9701 12.2403 14.4801 12.1903 14.9301 12.3803C15.0901 12.4403 15.2501 12.5302 15.4201 12.6502L17.0901 13.8302C17.3201 13.9902 17.5001 14.2102 17.6201 14.4602C17.7201 14.7102 17.7601 14.9303 17.7601 15.1603C17.7601 15.4603 17.6901 15.7503 17.5601 16.0303C17.4301 16.2903 17.2801 16.5203 17.1001 16.7303C16.7801 17.0803 16.4101 17.3403 16.0101 17.5103C15.6101 17.6803 15.1801 17.7603 14.7401 17.7603ZM8.7901 7.74025C8.7301 7.74025 8.53015 7.74025 8.28015 7.99025C8.09015 8.17025 7.96012 8.36026 7.87012 8.57026C7.78012 8.78026 7.74011 9.02027 7.74011 9.26027C7.74011 9.68027 7.8401 10.1302 8.0401 10.6102C8.2501 11.1102 8.56012 11.6403 8.94012 12.1703C9.33012 12.7003 9.77013 13.2303 10.2601 13.7203C10.7501 14.2003 11.2701 14.6502 11.8101 15.0502C12.3301 15.4302 12.8601 15.7302 13.3901 15.9602C14.1501 16.2902 14.8501 16.3703 15.4201 16.1303C15.6201 16.0503 15.8001 15.9103 15.9801 15.7303C16.0701 15.6303 16.1401 15.5302 16.2001 15.4002C16.2301 15.3302 16.2501 15.2502 16.2501 15.1802C16.2501 15.1602 16.2501 15.1303 16.2201 15.0703L14.5501 13.9103C14.4801 13.8603 14.4101 13.8202 14.3501 13.8002C14.3101 13.8202 14.2501 13.8502 14.1401 13.9602L13.7601 14.3403C13.4701 14.6303 13.0101 14.7102 12.6401 14.5802L12.4601 14.5003C12.2301 14.3803 11.9701 14.2003 11.6801 13.9503C11.4001 13.7103 11.1301 13.4602 10.8401 13.1802C10.5601 12.8902 10.3101 12.6203 10.0701 12.3403C9.81013 12.0303 9.63013 11.7803 9.51013 11.5703L9.40015 11.3103C9.37015 11.2103 9.36011 11.1003 9.36011 11.0003C9.36011 10.7203 9.46015 10.4702 9.65015 10.2702L10.0302 9.88026C10.1402 9.77026 10.1801 9.71027 10.2001 9.67027C10.1701 9.60027 10.1301 9.54026 10.0801 9.47026L8.9101 7.82026L8.7901 7.74025Z" />
</svg>
