<?xml version="1.0" encoding="UTF-8"?>
<svg width="24" height="24" viewBox="0 0 24 24" xmlns="http://www.w3.org/2000/svg">
 <path d="m6.9403 20.63c1.49 0.87 3.22 1.3701 5.06 1.3701 5.63 0 10.31-4.97 9.98-10.59-0.34-5.8-5.61-10.27-11.68-9.27-4.18 0.69-7.53 4.08-8.18 8.26-0.38 2.42 0.12002 4.7099 1.21 6.6l-0.89001 3.3099c-0.2 0.75 0.48998 1.43 1.23 1.22l3.27-0.9z" opacity=".4"/>
 <path d="m17 15.17c0 0.18-0.04 0.37-0.13 0.55s-0.2 0.35-0.34 0.51c-0.25 0.27-0.52 0.47-0.82 0.59-0.3 0.13-0.63 0.19-0.98 0.19-0.51 0-1.06-0.12-1.63-0.37-0.58-0.25-1.15-0.58-1.72-0.99-0.58-0.42-1.12-0.89-1.64-1.4-0.52-0.52-0.97996-1.07-1.4-1.64-0.41-0.57-0.74004-1.14-0.98004-1.71s-0.35999-1.12-0.35999-1.64c0-0.34 0.05999-0.67 0.17999-0.97 0.12-0.31 0.31002-0.59001 0.58002-0.84001 0.32-0.32 0.66998-0.46999 1.04-0.46999 0.14 0 0.28003 0.03 0.41003 0.09s0.24997 0.14999 0.33997 0.27999l1.15 1.65c0.09 0.13 0.16 0.23999 0.2 0.34999 0.05 0.11 0.07 0.21001 0.07 0.31001 0 0.12-0.04 0.23999-0.11 0.36003-0.07 0.12-0.16 0.24-0.28 0.36l-0.38 0.4c-0.06 0.06-0.08 0.12-0.08 0.2 0 0.04 0.01 0.08 0.02 0.12 0.02 0.04 0.03 0.07 0.04 0.1 0.09 0.17 0.25 0.38 0.47 0.64 0.23 0.26 0.47 0.53 0.73 0.79 0.27 0.27 0.53 0.51 0.8 0.74 0.26 0.22 0.48 0.37 0.65 0.46 0.03 0.01 0.06 0.03 0.09 0.04 0.04 0.02 0.08 0.02 0.13 0.02 0.09 0 0.15-0.03 0.21-0.09l0.38-0.38c0.13-0.13 0.25-0.22 0.36-0.28 0.12-0.07 0.23-0.11 0.36-0.11 0.1 0 0.2 0.02 0.31 0.07s0.23 0.11 0.35 0.2l1.66 1.18c0.13 0.09 0.22 0.2 0.28 0.32 0.01 0.11 0.04 0.23 0.04 0.37z"/>
</svg>
