<svg width="24" height="24" viewBox="0 0 24 24"  xmlns="http://www.w3.org/2000/svg">
<path d="M21.9999 13.8503C21.8699 13.8503 21.7399 13.8203 21.6199 13.7403L19.1199 12.2403C17.8199 11.4603 16.1999 11.4603 14.8899 12.2403C13.1099 13.3103 10.8999 13.3103 9.11989 12.2403C7.81989 11.4603 6.19991 11.4603 4.88991 12.2403L2.38991 13.7403C2.02991 13.9503 1.56988 13.8403 1.35988 13.4803C1.14988 13.1203 1.25989 12.6603 1.61989 12.4503L4.11989 10.9503C5.89989 9.88027 8.10991 9.88027 9.88991 10.9503C11.1899 11.7303 12.8099 11.7303 14.1199 10.9503C15.8999 9.88027 18.1099 9.88027 19.8899 10.9503L22.3899 12.4503C22.7499 12.6603 22.8599 13.1203 22.6499 13.4803C22.4999 13.7203 22.2499 13.8503 21.9999 13.8503Z" />
<path d="M7.00012 6.85027C6.00012 6.85027 5.0001 6.58027 4.1101 6.05027L1.6101 4.55027C1.2501 4.34027 1.14012 3.88027 1.35012 3.52027C1.56012 3.17027 2.02012 3.05027 2.38012 3.26027L4.88012 4.76027C6.18012 5.54027 7.8001 5.54027 9.1101 4.76027C10.8901 3.69027 13.1001 3.69027 14.8801 4.76027C16.1801 5.54027 17.8001 5.54027 19.1101 4.76027L21.6101 3.26027C21.9701 3.05027 22.4301 3.16027 22.6401 3.52027C22.8501 3.87027 22.7401 4.34027 22.3801 4.55027L19.8801 6.05027C18.1001 7.12027 15.8901 7.12027 14.1101 6.05027C12.8101 5.27027 11.1901 5.27027 9.88012 6.05027C9.00012 6.58027 8.00012 6.85027 7.00012 6.85027Z" />
<path d="M21.9999 20.8503C21.8699 20.8503 21.7399 20.8203 21.6199 20.7403L19.1199 19.2403C17.8199 18.4603 16.1999 18.4603 14.8899 19.2403C13.1099 20.3103 10.8999 20.3103 9.11989 19.2403C7.81989 18.4603 6.19991 18.4603 4.88991 19.2403L2.38991 20.7403C2.02991 20.9503 1.56988 20.8403 1.35988 20.4803C1.14988 20.1203 1.25989 19.6603 1.61989 19.4503L4.11989 17.9503C5.89989 16.8803 8.10991 16.8803 9.88991 17.9503C11.1899 18.7303 12.8099 18.7303 14.1199 17.9503C15.8999 16.8803 18.1099 16.8803 19.8899 17.9503L22.3899 19.4503C22.7499 19.6603 22.8599 20.1203 22.6499 20.4803C22.4999 20.7203 22.2499 20.8503 21.9999 20.8503Z" />
</svg>
