<svg width="24" height="24" viewBox="0 0 24 24"  xmlns="http://www.w3.org/2000/svg">
<path d="M18.5 22.7501C16.16 22.7501 14.25 20.8401 14.25 18.5001V18.0001C14.25 17.5901 14.59 17.2501 15 17.2501C15.41 17.2501 15.75 17.5901 15.75 18.0001V18.5001C15.75 20.0201 16.98 21.2501 18.5 21.2501C20.02 21.2501 21.25 20.0201 21.25 18.5001C21.25 16.9801 20.02 15.7501 18.5 15.7501H2C1.59 15.7501 1.25 15.4101 1.25 15.0001C1.25 14.5901 1.59 14.2501 2 14.2501H18.5C20.84 14.2501 22.75 16.1601 22.75 18.5001C22.75 20.8401 20.84 22.7501 18.5 22.7501Z" />
<path d="M18.5 12.7501H2C1.59 12.7501 1.25 12.4101 1.25 12.0001C1.25 11.5901 1.59 11.2501 2 11.2501H18.5C20.02 11.2501 21.25 10.0201 21.25 8.50012C21.25 6.98012 20.02 5.75012 18.5 5.75012C16.98 5.75012 15.75 6.98012 15.75 8.50012V9.00012C15.75 9.41012 15.41 9.75012 15 9.75012C14.59 9.75012 14.25 9.41012 14.25 9.00012V8.50012C14.25 6.16012 16.16 4.25012 18.5 4.25012C20.84 4.25012 22.75 6.16012 22.75 8.50012C22.75 10.8401 20.84 12.7501 18.5 12.7501Z" />
<path d="M9.31 9.75012H2C1.59 9.75012 1.25 9.41012 1.25 9.00012C1.25 8.59012 1.59 8.25012 2 8.25012H9.31C10.38 8.25012 11.25 7.38012 11.25 6.31012C11.25 5.24012 10.38 4.37012 9.31 4.37012C8.24 4.37012 7.37 5.24012 7.37 6.31012V6.69012C7.37 7.10012 7.03 7.44012 6.62 7.44012C6.21 7.44012 5.87 7.10012 5.87 6.69012V6.31012C5.87 4.41012 7.41 2.87012 9.31 2.87012C11.21 2.87012 12.75 4.41012 12.75 6.31012C12.75 8.21012 11.21 9.75012 9.31 9.75012Z" />
</svg>
