<?xml version="1.0" encoding="UTF-8"?>
<svg width="24" height="24" viewBox="0 0 24 24" xmlns="http://www.w3.org/2000/svg">
 <path d="m20.8 2.2395-8 1.6c-0.47 0.09-0.8 0.5-0.8 0.98v5.18c0 0.55001 0.45 1 1 1h8c0.55 0 1-0.45 1-1v-6.78c0-0.63-0.58-1.1-1.2-0.98z" clip-rule="evenodd" fill-rule="evenodd" opacity=".4"/>
 <path d="m20.8 21.76-8-1.6c-0.47-0.09-0.8-0.5-0.8-0.98v-5.18c0-0.55 0.45-1 1-1h8c0.55 0 1 0.45 1 1v6.78c0 0.63-0.58 1.1-1.2 0.98z" clip-rule="evenodd" fill-rule="evenodd"/>
 <path d="m8.79 4.5596-6 1.28c-0.46 0.1-0.78998 0.51-0.78998 0.98v3.18c0 0.55001 0.45 1 1 1h6c0.55 0 1-0.45 1-1v-4.47c0-0.63-0.59002-1.11-1.21-0.97z" clip-rule="evenodd" fill-rule="evenodd"/>
 <path d="m8.79 19.44-6-1.28c-0.46-0.1-0.78998-0.51-0.78998-0.98v-3.18c0-0.55 0.45-1 1-1h6c0.55 0 1 0.45 1 1v4.47c0 0.63-0.59002 1.11-1.21 0.97z" clip-rule="evenodd" fill-rule="evenodd" opacity=".4"/>
</svg>
