<?xml version="1.0" encoding="UTF-8"?>
<svg width="24" height="24" viewBox="0 0 24 24" xmlns="http://www.w3.org/2000/svg">
 <path d="m16.86 5h2.35c0.18 0 0.34 0.1 0.43 0.25l2.41 4.2c0.09 0.15 0.09 0.34 0 0.49l-4.64 8.3c-0.19 0.34-0.67 0.34-0.87 0.01l-1.26-2.11c-0.09-0.16-0.09-0.35 0-0.5l3.26-5.7c0.09-0.15 0.09-0.34 0-0.5l-2.13-3.7c-0.17-0.32 0.07-0.74 0.45-0.74z"/>
 <path d="m9.8599 5h2.35c0.18 0 0.34 0.1 0.43 0.25l2.41 4.2c0.09 0.15 0.09 0.34 0 0.49l-4.64 8.3c-0.19 0.34-0.66999 0.34-0.86999 0.01l-1.26-2.11c-0.09-0.16-0.09-0.35 0-0.5l3.26-5.7c0.09-0.15 0.09-0.34 0-0.5l-2.13-3.7c-0.17-0.32 0.06998-0.74 0.44998-0.74z" opacity=".4"/>
 <path d="m1.7998 5h3.21c0.18 0 0.35 0.1 0.44 0.25l2.42 4.29c0.09 0.15 0.09 0.34 0 0.5l-1.12 1.92c-0.19 0.33-0.66999 0.33-0.85999 0l-4.09-6.96z"/>
</svg>
