<?xml version="1.0" encoding="UTF-8"?>
<svg width="24" height="24" viewBox="0 0 24 24" xmlns="http://www.w3.org/2000/svg">
 <path d="m19 9c0 3.62-2.74 6.59-6.25 6.96-0.25 0.03-0.5 0.04-0.75 0.04s-0.5-0.01-0.75-0.04c-3.51-0.37-6.25-3.34-6.25-6.96 0-3.87 3.13-7 7-7s7 3.13 7 7z" opacity=".4"/>
 <path d="m15.75 19.001c0 0.41-0.34 0.75-0.75 0.75h-2.25v2.25c0 0.41-0.34 0.75-0.75 0.75s-0.75-0.34-0.75-0.75v-2.25h-2.25c-0.41 0-0.75-0.34-0.75-0.75s0.34-0.75 0.75-0.75h2.25v-2.29c0.25 0.03 0.5 0.04 0.75 0.04s0.5-0.01 0.75-0.04v2.29h2.25c0.41 0 0.75 0.34 0.75 0.75z"/>
</svg>
