<?xml version="1.0" encoding="UTF-8"?>
<svg width="24" height="24" viewBox="0 0 24 24" xmlns="http://www.w3.org/2000/svg">
 <path d="m12 22c5.5228 0 10-4.4772 10-10 0-5.5228-4.4772-10-10-10-5.5228 0-10 4.4772-10 10 0 5.5228 4.4772 10 10 10z" opacity=".4"/>
 <path d="m10.5 11.459v2.57c0 0.18-0.1 0.34-0.25 0.43l-2 1.15c-0.15 0.09-0.34 0.09-0.5 0l-2-1.15c-0.16-0.09-0.25-0.25-0.25-0.43v-2.28c0-0.18 0.1-0.34 0.25-0.43l2-1.15c0.15-0.09 0.35-0.09 0.5 0l1 0.58 1.25 0.71z"/>
 <path d="m18.5 11.749v2.28c0 0.18-0.1 0.34-0.25 0.43l-2 1.15c-0.15 0.09-0.34 0.09-0.5 0l-2-1.15c-0.16-0.09-0.25-0.25-0.25-0.43v-2.57l1.25-0.71 1-0.58c0.15-0.09 0.34-0.09 0.5 0l2 1.15c0.15 0.08 0.25 0.25 0.25 0.43z"/>
 <path d="m14.75 9.6195v1.13l-1.25 0.71v1.73l-1.25 0.72c-0.15 0.09-0.34 0.09-0.5 0l-1.25-0.72v-1.73l-1.25-0.71v-1.13c0-0.18 0.1-0.34 0.25-0.43l2.25-1.29c0.15-0.09 0.34-0.09 0.5 0l2.25 1.29c0.15 0.08 0.25 0.25 0.25 0.43z"/>
</svg>
