<?xml version="1.0" encoding="UTF-8"?>
<svg width="24" height="24" viewBox="0 0 24 24" xmlns="http://www.w3.org/2000/svg">
 <path d="m12 22c5.5228 0 10-4.4772 10-10 0-5.5228-4.4772-10-10-10-5.5228 0-10 4.4772-10 10 0 5.5228 4.4772 10 10 10z" opacity=".4"/>
 <path d="m6.25 9.6798v2.8c0 1.54 1.25 2.78 2.79 2.77l3.68-0.03c0.51 0 0.92-0.42 0.92-0.92v-2.77c0-1.53-1.24-2.77-2.77-2.77h-3.69c-0.52 0-0.92999 0.40999-0.92999 0.91999z" clip-rule="evenodd" fill-rule="evenodd"/>
 <path d="m17.75 10.02v3.98c0 0.43-0.48 0.69-0.84 0.45l-1.92-1.28c-0.15-0.1-0.24-0.27-0.24-0.45v-1.42c0-0.18 0.09-0.35 0.24-0.45l1.92-1.28c0.36-0.24 0.84 0.01999 0.84 0.44997z" clip-rule="evenodd" fill-rule="evenodd"/>
</svg>
