<svg width="14" height="14" viewBox="0 0 14 14" xmlns="http://www.w3.org/2000/svg">
<path d="M13.0904 11.4227C12.7588 10.6372 12.2776 9.92377 11.6736 9.32207C11.0714 8.71863 10.3581 8.23751 9.57299 7.90527C9.56596 7.90176 9.55893 7.9 9.5519 7.89648C10.647 7.10547 11.3589 5.81699 11.3589 4.36328C11.3589 1.95508 9.40776 0.00390625 6.99956 0.00390625C4.59135 0.00390625 2.64018 1.95508 2.64018 4.36328C2.64018 5.81699 3.35209 7.10547 4.44721 7.89824C4.44018 7.90176 4.43315 7.90352 4.42612 7.90703C3.63862 8.23926 2.93198 8.71562 2.32553 9.32383C1.72209 9.926 1.24097 10.6393 0.908735 11.4244C0.582349 12.193 0.406321 13.0171 0.390181 13.852C0.389712 13.8707 0.393002 13.8894 0.399859 13.9068C0.406716 13.9243 0.417 13.9402 0.430105 13.9537C0.44321 13.9671 0.458871 13.9778 0.476166 13.9851C0.493461 13.9923 0.512039 13.9961 0.530806 13.9961H1.58549C1.66284 13.9961 1.72436 13.9346 1.72612 13.859C1.76127 12.502 2.3062 11.2311 3.26948 10.2678C4.26616 9.27109 5.58979 8.72266 6.99956 8.72266C8.40932 8.72266 9.73295 9.27109 10.7296 10.2678C11.6929 11.2311 12.2378 12.502 12.273 13.859C12.2748 13.9363 12.3363 13.9961 12.4136 13.9961H13.4683C13.4871 13.9961 13.5057 13.9923 13.5229 13.9851C13.5402 13.9778 13.5559 13.9671 13.569 13.9537C13.5821 13.9402 13.5924 13.9243 13.5993 13.9068C13.6061 13.8894 13.6094 13.8707 13.6089 13.852C13.5914 13.0117 13.4173 12.1943 13.0904 11.4227ZM6.99956 7.38672C6.19272 7.38672 5.43335 7.07207 4.86206 6.50078C4.29077 5.92949 3.97612 5.17012 3.97612 4.36328C3.97612 3.55645 4.29077 2.79707 4.86206 2.22578C5.43335 1.65449 6.19272 1.33984 6.99956 1.33984C7.80639 1.33984 8.56577 1.65449 9.13706 2.22578C9.70835 2.79707 10.023 3.55645 10.023 4.36328C10.023 5.17012 9.70835 5.92949 9.13706 6.50078C8.56577 7.07207 7.80639 7.38672 6.99956 7.38672Z" />
</svg>
